<svg xmlns="http://www.w3.org/2000/svg" xmlns:xlink="http://www.w3.org/1999/xlink" width="723.898" height="324" viewBox="0 0 723.898 324">
  <defs>
    <linearGradient id="linear-gradient" x1="0.5" x2="0.5" y2="1" gradientUnits="objectBoundingBox">
      <stop offset="0" stop-color="#144677"/>
      <stop offset="1" stop-color="#00574f"/>
    </linearGradient>
  </defs>
  <g id="Grupo_1066767" data-name="Grupo 1066767" transform="translate(-438.051 -3555.945)">
    <g id="Grupo_1066694" data-name="Grupo 1066694">
      <g id="Grupo_1066688" data-name="Grupo 1066688" transform="translate(0 -56.055)">
        <path id="Rectángulo_347655" data-name="Rectángulo 347655" d="M25,0H295a0,0,0,0,1,0,0V150a0,0,0,0,1,0,0H0a0,0,0,0,1,0,0V25A25,25,0,0,1,25,0Z" transform="translate(495 3612)" fill="#632059" opacity="0.26"/>
        <path id="Trazado_805020" data-name="Trazado 805020" d="M11.188-4.263A4.528,4.528,0,0,1,9.664-1.011,5.355,5.355,0,0,1,6.038.176,4.816,4.816,0,0,1,2.167-1.481,6.793,6.793,0,0,1,.756-6.029v-.782a7.671,7.671,0,0,1,.65-3.252,4.874,4.874,0,0,1,1.859-2.158,5.207,5.207,0,0,1,2.808-.751,5.217,5.217,0,0,1,3.568,1.187,4.866,4.866,0,0,1,1.564,3.331H8.569a2.673,2.673,0,0,0-.69-1.8,2.555,2.555,0,0,0-1.806-.558A2.24,2.24,0,0,0,4.1-9.866a5.3,5.3,0,0,0-.672,2.931v.967a5.667,5.667,0,0,0,.628,3.032,2.2,2.2,0,0,0,1.982.958,2.6,2.6,0,0,0,1.824-.558,2.521,2.521,0,0,0,.69-1.727ZM18.1-7.128a6.9,6.9,0,0,0-.914-.07,1.86,1.86,0,0,0-1.89.976V0h-2.54V-9.51h2.4l.07,1.134a2.354,2.354,0,0,1,2.118-1.31,2.662,2.662,0,0,1,.791.114Zm5.432,7.3a4.668,4.668,0,0,1-3.406-1.283,4.561,4.561,0,0,1-1.314-3.419v-.246a5.745,5.745,0,0,1,.554-2.562,4.064,4.064,0,0,1,1.569-1.74,4.4,4.4,0,0,1,2.316-.611,3.947,3.947,0,0,1,3.072,1.23,5,5,0,0,1,1.121,3.489v1.037H21.384a2.36,2.36,0,0,0,.743,1.494,2.245,2.245,0,0,0,1.569.563,2.742,2.742,0,0,0,2.294-1.063l1.248,1.4A3.813,3.813,0,0,1,25.69-.277,5.075,5.075,0,0,1,23.528.176Zm-.29-7.813a1.587,1.587,0,0,0-1.226.512,2.651,2.651,0,0,0-.6,1.466h3.533v-.2a1.891,1.891,0,0,0-.457-1.311A1.638,1.638,0,0,0,23.238-7.638Zm9.6,5.766a1.666,1.666,0,0,0,1.143-.387,1.355,1.355,0,0,0,.457-1.028h2.382a3.258,3.258,0,0,1-.527,1.771A3.48,3.48,0,0,1,34.871-.268,4.442,4.442,0,0,1,32.88.176a4.129,4.129,0,0,1-3.217-1.3A5.13,5.13,0,0,1,28.485-4.7v-.167a5.071,5.071,0,0,1,1.169-3.507,4.08,4.08,0,0,1,3.208-1.31A4,4,0,0,1,35.723-8.67a3.594,3.594,0,0,1,1.094,2.7H34.436a1.745,1.745,0,0,0-.457-1.206,1.524,1.524,0,0,0-1.16-.464,1.53,1.53,0,0,0-1.34.647,3.749,3.749,0,0,0-.453,2.1v.264a3.8,3.8,0,0,0,.448,2.113A1.549,1.549,0,0,0,32.836-1.872ZM40.948,0H38.4V-9.51h2.549Zm-2.7-11.971a1.251,1.251,0,0,1,.382-.94,1.436,1.436,0,0,1,1.042-.369,1.44,1.44,0,0,1,1.037.369,1.244,1.244,0,0,1,.387.94,1.247,1.247,0,0,1-.391.949,1.443,1.443,0,0,1-1.033.369,1.443,1.443,0,0,1-1.033-.369A1.247,1.247,0,0,1,38.25-11.971ZM45.422-9.51,45.5-8.446a3.342,3.342,0,0,1,2.733-1.239,2.536,2.536,0,0,1,2.522,1.45,3.265,3.265,0,0,1,2.856-1.45,2.836,2.836,0,0,1,2.3.9,4.141,4.141,0,0,1,.756,2.711V0H54.123V-6.064a1.811,1.811,0,0,0-.316-1.182A1.4,1.4,0,0,0,52.69-7.62a1.585,1.585,0,0,0-1.582,1.09L51.117,0h-2.54V-6.056a1.789,1.789,0,0,0-.325-1.2,1.416,1.416,0,0,0-1.107-.369,1.646,1.646,0,0,0-1.564.9V0H43.04V-9.51ZM61.3,0H58.755V-9.51H61.3Zm-2.7-11.971a1.251,1.251,0,0,1,.382-.94,1.436,1.436,0,0,1,1.042-.369,1.44,1.44,0,0,1,1.037.369,1.244,1.244,0,0,1,.387.94,1.247,1.247,0,0,1-.391.949,1.443,1.443,0,0,1-1.033.369A1.443,1.443,0,0,1,59-11.021,1.247,1.247,0,0,1,58.605-11.971ZM67.772.176a4.668,4.668,0,0,1-3.406-1.283,4.561,4.561,0,0,1-1.314-3.419v-.246a5.745,5.745,0,0,1,.554-2.562,4.064,4.064,0,0,1,1.569-1.74,4.4,4.4,0,0,1,2.316-.611,3.947,3.947,0,0,1,3.072,1.23,5,5,0,0,1,1.121,3.489v1.037H65.628a2.36,2.36,0,0,0,.743,1.494,2.245,2.245,0,0,0,1.569.563,2.742,2.742,0,0,0,2.294-1.063l1.248,1.4A3.813,3.813,0,0,1,69.935-.277,5.075,5.075,0,0,1,67.772.176Zm-.29-7.813a1.587,1.587,0,0,0-1.226.512,2.651,2.651,0,0,0-.6,1.466h3.533v-.2a1.891,1.891,0,0,0-.457-1.311A1.638,1.638,0,0,0,67.482-7.638Zm7.98-1.872.079,1.1a3.32,3.32,0,0,1,2.733-1.274,2.759,2.759,0,0,1,2.25.888,4.142,4.142,0,0,1,.756,2.654V0h-2.54V-6.082a1.648,1.648,0,0,0-.352-1.173,1.574,1.574,0,0,0-1.169-.365,1.747,1.747,0,0,0-1.608.914V0h-2.54V-9.51Zm10.784-2.338V-9.51h1.626v1.863H86.247V-2.9a1.133,1.133,0,0,0,.2.756,1.015,1.015,0,0,0,.773.229,4.051,4.051,0,0,0,.747-.062V-.053a5.229,5.229,0,0,1-1.538.229,2.425,2.425,0,0,1-2.725-2.7V-7.646H82.318V-9.51h1.389v-2.338Zm2.382,7a5.64,5.64,0,0,1,.545-2.522,3.989,3.989,0,0,1,1.569-1.714,4.577,4.577,0,0,1,2.377-.606,4.33,4.33,0,0,1,3.142,1.178,4.727,4.727,0,0,1,1.358,3.2l.018.65a4.97,4.97,0,0,1-1.222,3.511A4.247,4.247,0,0,1,93.138.176a4.268,4.268,0,0,1-3.283-1.318,5.058,5.058,0,0,1-1.226-3.586Zm2.54.18a3.555,3.555,0,0,0,.51,2.073,1.682,1.682,0,0,0,1.459.717,1.686,1.686,0,0,0,1.441-.709A3.89,3.89,0,0,0,95.1-4.847a3.519,3.519,0,0,0-.519-2.06,1.686,1.686,0,0,0-1.459-.731,1.658,1.658,0,0,0-1.441.726A3.955,3.955,0,0,0,91.169-4.662ZM5.353,24.176a4.668,4.668,0,0,1-3.406-1.283A4.561,4.561,0,0,1,.633,19.474v-.246a5.745,5.745,0,0,1,.554-2.562,4.064,4.064,0,0,1,1.569-1.74,4.4,4.4,0,0,1,2.316-.611,3.947,3.947,0,0,1,3.072,1.23,5,5,0,0,1,1.121,3.489v1.037H3.208a2.36,2.36,0,0,0,.743,1.494,2.245,2.245,0,0,0,1.569.563,2.742,2.742,0,0,0,2.294-1.063l1.248,1.4a3.813,3.813,0,0,1-1.547,1.261A5.075,5.075,0,0,1,5.353,24.176Zm-.29-7.813a1.587,1.587,0,0,0-1.226.512,2.651,2.651,0,0,0-.6,1.466H6.768v-.2a1.891,1.891,0,0,0-.457-1.311A1.638,1.638,0,0,0,5.063,16.362Zm9.264.967,1.6-2.839h2.716l-2.707,4.658L18.756,24H16.031l-1.7-2.988L12.647,24H9.914l2.821-4.852-2.7-4.658h2.725Zm14.1,2a5.7,5.7,0,0,1-1,3.52,3.2,3.2,0,0,1-2.694,1.323,2.963,2.963,0,0,1-2.329-1v4.482h-2.54V14.49h2.355l.088.932a2.985,2.985,0,0,1,2.408-1.107,3.22,3.22,0,0,1,2.733,1.3,5.858,5.858,0,0,1,.976,3.586Zm-2.54-.185a3.743,3.743,0,0,0-.47-2.048,1.532,1.532,0,0,0-1.367-.721,1.663,1.663,0,0,0-1.644.914v3.894a1.692,1.692,0,0,0,1.661.94Q25.884,22.128,25.884,19.148Zm3.718.009a5.64,5.64,0,0,1,.545-2.522,3.989,3.989,0,0,1,1.569-1.714,4.577,4.577,0,0,1,2.377-.606,4.33,4.33,0,0,1,3.142,1.178,4.727,4.727,0,0,1,1.358,3.2l.018.65a4.97,4.97,0,0,1-1.222,3.511,4.247,4.247,0,0,1-3.278,1.323,4.268,4.268,0,0,1-3.283-1.318A5.058,5.058,0,0,1,29.6,19.271Zm2.54.18a3.555,3.555,0,0,0,.51,2.073,1.831,1.831,0,0,0,2.9.009,3.89,3.89,0,0,0,.519-2.267,3.519,3.519,0,0,0-.519-2.06,1.686,1.686,0,0,0-1.459-.731,1.658,1.658,0,0,0-1.441.726A3.955,3.955,0,0,0,32.142,19.338ZM42.513,14.49l.079,1.1a3.32,3.32,0,0,1,2.733-1.274,2.759,2.759,0,0,1,2.25.888,4.142,4.142,0,0,1,.756,2.654V24h-2.54V17.918a1.648,1.648,0,0,0-.352-1.173,1.574,1.574,0,0,0-1.169-.365,1.747,1.747,0,0,0-1.608.914V24h-2.54V14.49Zm12.12,9.686a4.668,4.668,0,0,1-3.406-1.283,4.561,4.561,0,0,1-1.314-3.419v-.246a5.745,5.745,0,0,1,.554-2.562,4.064,4.064,0,0,1,1.569-1.74,4.4,4.4,0,0,1,2.316-.611,3.947,3.947,0,0,1,3.072,1.23,5,5,0,0,1,1.121,3.489v1.037H52.488a2.36,2.36,0,0,0,.743,1.494,2.245,2.245,0,0,0,1.569.563,2.742,2.742,0,0,0,2.294-1.063l1.248,1.4a3.813,3.813,0,0,1-1.547,1.261A5.075,5.075,0,0,1,54.633,24.176Zm-.29-7.813a1.587,1.587,0,0,0-1.226.512,2.651,2.651,0,0,0-.6,1.466h3.533v-.2a1.891,1.891,0,0,0-.457-1.311A1.638,1.638,0,0,0,54.343,16.362Zm7.98-1.872.079,1.1a3.32,3.32,0,0,1,2.733-1.274,2.759,2.759,0,0,1,2.25.888,4.142,4.142,0,0,1,.756,2.654V24H65.6V17.918a1.648,1.648,0,0,0-.352-1.173,1.574,1.574,0,0,0-1.169-.365,1.747,1.747,0,0,0-1.608.914V24h-2.54V14.49Zm11.7,7.638a1.666,1.666,0,0,0,1.143-.387,1.355,1.355,0,0,0,.457-1.028H78a3.258,3.258,0,0,1-.527,1.771,3.48,3.48,0,0,1-1.419,1.248,4.442,4.442,0,0,1-1.991.444,4.129,4.129,0,0,1-3.217-1.3A5.13,5.13,0,0,1,69.671,19.3v-.167a5.071,5.071,0,0,1,1.169-3.507,4.08,4.08,0,0,1,3.208-1.31,4,4,0,0,1,2.861,1.015A3.594,3.594,0,0,1,78,18.032H75.621a1.745,1.745,0,0,0-.457-1.206,1.7,1.7,0,0,0-2.5.183,3.749,3.749,0,0,0-.453,2.1v.264a3.8,3.8,0,0,0,.448,2.113A1.549,1.549,0,0,0,74.021,22.128ZM82.134,24H79.585V14.49h2.549Zm-2.7-11.971a1.251,1.251,0,0,1,.382-.94,1.648,1.648,0,0,1,2.079,0,1.342,1.342,0,0,1,0,1.89,1.629,1.629,0,0,1-2.065,0A1.247,1.247,0,0,1,79.436,12.029ZM89.736,24a2.821,2.821,0,0,1-.255-.853,3.073,3.073,0,0,1-2.4,1.028,3.376,3.376,0,0,1-2.316-.809,2.6,2.6,0,0,1-.918-2.039,2.687,2.687,0,0,1,1.121-2.32,5.529,5.529,0,0,1,3.239-.817h1.169v-.545a1.567,1.567,0,0,0-.338-1.055,1.331,1.331,0,0,0-1.068-.4,1.513,1.513,0,0,0-1.006.308,1.045,1.045,0,0,0-.365.844h-2.54a2.551,2.551,0,0,1,.51-1.529,3.37,3.37,0,0,1,1.441-1.1,5.253,5.253,0,0,1,2.092-.4,4.15,4.15,0,0,1,2.791.883,3.09,3.09,0,0,1,1.033,2.483V21.8a4.546,4.546,0,0,0,.378,2.048V24Zm-2.1-1.767a2.188,2.188,0,0,0,1.037-.25,1.645,1.645,0,0,0,.7-.672V19.676h-.949q-1.907,0-2.03,1.318l-.009.149a1.017,1.017,0,0,0,.334.782A1.3,1.3,0,0,0,87.636,22.233ZM96.557,24H94.008V10.5h2.549Z" transform="translate(542.279 3689)" fill="#12263f"/>
        <g id="creciente" transform="translate(674.836 3649.501)">
          <path id="Trazado_248306" data-name="Trazado 248306" d="M10.514,300.793H1.754A1.754,1.754,0,0,0,0,302.547v26.04H12.268v-26.04a1.754,1.754,0,0,0-1.754-1.754Zm0,0" transform="translate(0 -260.479)" fill="#49c3e0"/>
          <path id="Trazado_248307" data-name="Trazado 248307" d="M5.852,300.793h-4.1A1.754,1.754,0,0,0,0,302.547v26.04H4.1v-26.04A1.754,1.754,0,0,1,5.852,300.793Zm0,0" transform="translate(0 -260.479)" fill="#00a5c6"/>
          <path id="Trazado_248308" data-name="Trazado 248308" d="M150.338,248.98h-8.76a1.754,1.754,0,0,0-1.754,1.754v32.91h12.268v-32.91a1.754,1.754,0,0,0-1.754-1.754Zm0,0" transform="translate(-121.285 -215.536)" fill="#3ac7b4"/>
          <path id="Trazado_248309" data-name="Trazado 248309" d="M145.676,248.98h-4.1a1.754,1.754,0,0,0-1.754,1.754v32.91h4.1v-32.91a1.754,1.754,0,0,1,1.754-1.754Zm0,0" transform="translate(-121.285 -215.536)" fill="#00ad94"/>
          <path id="Trazado_248310" data-name="Trazado 248310" d="M290.162,197.168H281.4a1.754,1.754,0,0,0-1.754,1.754V238.7h12.268V198.922A1.754,1.754,0,0,0,290.162,197.168Zm0,0" transform="translate(-242.57 -170.594)" fill="#ffcd38"/>
          <path id="Trazado_248311" data-name="Trazado 248311" d="M285.5,197.168h-4.1a1.755,1.755,0,0,0-1.754,1.754V238.7h4.1V198.922A1.754,1.754,0,0,1,285.5,197.168Zm0,0" transform="translate(-242.57 -170.594)" fill="#e7b835"/>
          <path id="Trazado_248312" data-name="Trazado 248312" d="M429.99,145.355h-8.76a1.754,1.754,0,0,0-1.754,1.754v46.649h12.267V147.109A1.754,1.754,0,0,0,429.99,145.355Zm0,0" transform="translate(-363.86 -125.65)" fill="#ff8c57"/>
          <path id="Trazado_248313" data-name="Trazado 248313" d="M425.324,145.355h-4.1a1.754,1.754,0,0,0-1.754,1.754v46.649h4.1V147.109A1.754,1.754,0,0,1,425.324,145.355Zm0,0" transform="translate(-363.856 -125.65)" fill="#ec6a34"/>
          <path id="Trazado_248314" data-name="Trazado 248314" d="M84.1.892,73.018.5a1.114,1.114,0,0,0-.954,1.748l1.788,2.573a103.382,103.382,0,0,1-51.52,13.745v7.361a112.933,112.933,0,0,0,41.662-8.1A96.189,96.189,0,0,0,78.061,10.88l1.585,2.282a1.114,1.114,0,0,0,1.971-.284l3.5-10.523A1.114,1.114,0,0,0,84.1.892Zm0,0" transform="translate(-19.371 0)" fill="#3b5620"/>
        </g>
      </g>
      <g id="Grupo_1066689" data-name="Grupo 1066689" transform="translate(0 -56.055)">
        <path id="Rectángulo_347656" data-name="Rectángulo 347656" d="M0,0H270a25,25,0,0,1,25,25V150a0,0,0,0,1,0,0H0a0,0,0,0,1,0,0V0A0,0,0,0,1,0,0Z" transform="translate(810 3612)" fill="#632059" opacity="0.15"/>
        <text id="Objetivo_específico" data-name="Objetivo
específico" transform="translate(1049.279 3689)" fill="#12263f" font-size="18" font-family="Roboto-Bold, Roboto" font-weight="700"><tspan x="-66.964" y="0">Objetivo</tspan><tspan x="-83.681" y="24">específico</tspan></text>
        <g id="objetivo_3_" data-name="objetivo (3)" transform="translate(848.999 3638.997)">
          <path id="Trazado_248315" data-name="Trazado 248315" d="M89.954,11.673a1.406,1.406,0,0,0-.993-.994L82.93,9.062l1.349-1.349a1.405,1.405,0,1,0-1.987-1.987L80.944,7.074,79.331,1.045A1.405,1.405,0,0,0,76.98.415L65.37,12.025a1.405,1.405,0,0,0-.364,1.358l2.036,7.594-2.3,2.3a38.521,38.521,0,1,0,1.987,1.987l2.295-2.295L76.622,25a1.405,1.405,0,0,0,1.358-.364L89.59,13.03a1.405,1.405,0,0,0,.364-1.357Z" transform="translate(0 0)" fill="#ebebeb"/>
          <g id="Grupo_1015042" data-name="Grupo 1015042" transform="translate(0.001 12.968)">
            <g id="Grupo_1015041" data-name="Grupo 1015041" transform="translate(0)">
              <g id="Grupo_1015039" data-name="Grupo 1015039">
                <path id="Trazado_248316" data-name="Trazado 248316" d="M59.257,93.526a28.007,28.007,0,1,1-1.988-1.987l7.474-7.474a38.521,38.521,0,1,0,1.987,1.987Z" transform="translate(-0.001 -73.76)" fill="#1b3f5e"/>
              </g>
              <g id="Grupo_1015040" data-name="Grupo 1015040" transform="translate(21.098 21.092)">
                <path id="Trazado_248317" data-name="Trazado 248317" d="M137.442,212.581a1.405,1.405,0,0,1-.994-2.4l12.275-12.275a17.446,17.446,0,1,0,1.987,1.987l-12.275,12.275A1.4,1.4,0,0,1,137.442,212.581Z" transform="translate(-120.022 -193.751)" fill="#1b3f5e"/>
              </g>
            </g>
          </g>
          <g id="Grupo_1015043" data-name="Grupo 1015043" transform="translate(37.01 23.517)">
            <path id="Trazado_248318" data-name="Trazado 248318" d="M229.307,142.491,230.8,141a27.866,27.866,0,0,0-18.75-7.231q-.759,0-1.509.041A27.908,27.908,0,0,1,229.307,142.491Z" transform="translate(-210.538 -133.77)" fill="#ddd"/>
            <path id="Trazado_248319" data-name="Trazado 248319" d="M231.143,187.852a27.95,27.95,0,0,1-20.6,45.036q.75.04,1.509.041a27.953,27.953,0,0,0,20.738-46.719Z" transform="translate(-210.538 -176.992)" fill="#ddd"/>
          </g>
          <g id="Grupo_1015045" data-name="Grupo 1015045" transform="translate(37.01 12.968)">
            <g id="Grupo_1015044" data-name="Grupo 1015044">
              <path id="Trazado_248320" data-name="Trazado 248320" d="M226.454,239.983a17.445,17.445,0,0,1-15.916,17.354c.5.043,1,.066,1.509.066a17.411,17.411,0,0,0,13.269-28.7l-1.724,1.724A17.32,17.32,0,0,1,226.454,239.983Z" transform="translate(-210.538 -201.465)" fill="#102e48"/>
              <path id="Trazado_248321" data-name="Trazado 248321" d="M236.776,85.561l1.5-1.5A38.251,38.251,0,0,0,212.047,73.76c-.5,0-1.007.012-1.509.032a38.249,38.249,0,0,1,25.73,11.249C236.44,85.212,236.608,85.386,236.776,85.561Z" transform="translate(-210.538 -73.76)" fill="#102e48"/>
              <path id="Trazado_248322" data-name="Trazado 248322" d="M238.656,145.292A38.516,38.516,0,0,1,210.539,208.4c.5.019,1,.032,1.509.032a38.515,38.515,0,0,0,28.212-64.742Z" transform="translate(-210.539 -131.396)" fill="#102e48"/>
              <path id="Trazado_248323" data-name="Trazado 248323" d="M210.539,193.817a17.394,17.394,0,0,1,11.31,5.57l1.48-1.48a17.348,17.348,0,0,0-11.281-4.156C211.539,193.751,211.036,193.774,210.539,193.817Z" transform="translate(-210.539 -172.659)" fill="#102e48"/>
            </g>
          </g>
          <g id="Grupo_1015047" data-name="Grupo 1015047" transform="translate(37.114 5.315)">
            <g id="Grupo_1015046" data-name="Grupo 1015046">
              <path id="Trazado_248324" data-name="Trazado 248324" d="M212.533,77.8a1.405,1.405,0,0,1-.994-2.4l44.766-44.766a1.405,1.405,0,1,1,1.987,1.987L213.527,77.384a1.4,1.4,0,0,1-.994.412Z" transform="translate(-211.128 -30.219)" fill="#bfbfbf"/>
            </g>
          </g>
          <path id="Trazado_248325" data-name="Trazado 248325" d="M187.9,261.63a1.405,1.405,0,1,1-1.987-1.987l4.757-4.757a6.886,6.886,0,1,0,1.987,1.987Z" transform="translate(-148.383 -209.151)" fill="#5a5a5a"/>
          <path id="Trazado_248326" data-name="Trazado 248326" d="M413.6,54.15a1.406,1.406,0,0,0-.993-.994l-6.031-1.617-13.9,13.9,7.6,2.038a1.405,1.405,0,0,0,1.358-.364l11.61-11.61A1.405,1.405,0,0,0,413.6,54.15Z" transform="translate(-323.644 -42.477)" fill="#632059"/>
          <path id="Trazado_248327" data-name="Trazado 248327" d="M371.611,20.976l13.9-13.9L383.9,1.045a1.405,1.405,0,0,0-2.351-.63l-11.61,11.61a1.405,1.405,0,0,0-.364,1.358Z" transform="translate(-304.57 0)" fill="#632059"/>
        </g>
      </g>
      <g id="Grupo_1066690" data-name="Grupo 1066690" transform="translate(0 -56.055)">
        <path id="Rectángulo_347658" data-name="Rectángulo 347658" d="M0,0H295a0,0,0,0,1,0,0V150a0,0,0,0,1,0,0H25A25,25,0,0,1,0,125V0A0,0,0,0,1,0,0Z" transform="translate(495 3786)" fill="#632059" opacity="0.15"/>
        <text id="Coherencia_cohesión_y_adecuación" data-name="Coherencia,
cohesión y
adecuación" transform="translate(542.279 3843)" fill="#12263f" font-size="18" font-family="Roboto-Bold, Roboto" font-weight="700"><tspan x="0" y="0">Coherencia,</tspan><tspan x="0" y="24">cohesión y</tspan><tspan x="0" y="48">adecuación</tspan></text>
        <g id="idea" transform="translate(633.734 3812.795)">
          <path id="Trazado_248328" data-name="Trazado 248328" d="M147.532,135.9a22.616,22.616,0,0,1,6.829-10.445,27.437,27.437,0,0,0,9.842-21.09,27.733,27.733,0,0,0-29.124-27.718c-14.261.6-25.91,12.654-26.312,26.914a27.516,27.516,0,0,0,9.842,21.893,21.551,21.551,0,0,1,7.03,10.445Z" transform="translate(-61.441 -62.184)" fill="#ffd15c"/>
          <path id="Trazado_248329" data-name="Trazado 248329" d="M207.161,249.876h1.808l-8.034-29.927h.6a3.965,3.965,0,0,0,2.812-1.205,1.942,1.942,0,0,1,2.812,0,3.431,3.431,0,0,0,5.222,0,1.824,1.824,0,0,1,1.406-.6,2.17,2.17,0,0,1,1.406.6,3.647,3.647,0,0,0,2.812,1.205h.6l-7.833,29.927h1.808l8.235-31.333c0-.4,0-.8-.4-1a.883.883,0,0,0-1,.2,1.736,1.736,0,0,1-1.205.6,2.671,2.671,0,0,1-1.607-.6,3.431,3.431,0,0,0-5.222,0,1.941,1.941,0,0,1-2.812,0,3.239,3.239,0,0,0-2.611-1.205h0a3.239,3.239,0,0,0-2.611,1.205,2.281,2.281,0,0,1-1.607.6,1.432,1.432,0,0,1-1.205-.6.883.883,0,0,0-1-.2.734.734,0,0,0-.4,1Z" transform="translate(-134.728 -175.76)" fill="#fff"/>
          <g id="Grupo_1015048" data-name="Grupo 1015048" transform="translate(64.199 73.513)">
            <path id="Trazado_248330" data-name="Trazado 248330" d="M222.933,489.6a6.7,6.7,0,0,0,12.453,0Z" transform="translate(-218.313 -470.921)" fill="#344a5e"/>
            <path id="Trazado_248331" data-name="Trazado 248331" d="M216.678,409.28H202.015a3.6,3.6,0,0,1-3.615-3.615V390.4h21.893v15.265A3.6,3.6,0,0,1,216.678,409.28Z" transform="translate(-198.4 -390.4)" fill="#344a5e"/>
          </g>
          <g id="Grupo_1015049" data-name="Grupo 1015049" transform="translate(61.989 76.726)">
            <path id="Trazado_248332" data-name="Trazado 248332" d="M210.569,411.886H188.876a2.229,2.229,0,0,1-2.209-2.209h0a2.229,2.229,0,0,1,2.209-2.209h21.692a2.229,2.229,0,0,1,2.209,2.209h0A2.229,2.229,0,0,1,210.569,411.886Z" transform="translate(-186.667 -407.467)" fill="#415a6b"/>
            <path id="Trazado_248333" data-name="Trazado 248333" d="M210.569,449.22H188.876a2.229,2.229,0,0,1-2.209-2.209h0a2.229,2.229,0,0,1,2.209-2.209h21.692a2.229,2.229,0,0,1,2.209,2.209h0A2.229,2.229,0,0,1,210.569,449.22Z" transform="translate(-186.667 -437.771)" fill="#415a6b"/>
          </g>
          <g id="Grupo_1015050" data-name="Grupo 1015050" transform="translate(33.066)">
            <path id="Trazado_248334" data-name="Trazado 248334" d="M247.342,0a2.013,2.013,0,0,0-2.009,2.009V8.838a2.013,2.013,0,0,0,2.009,2.009,1.9,1.9,0,0,0,2.009-2.009V2.009A2.013,2.013,0,0,0,247.342,0Z" transform="translate(-205.363)" fill="#ffd15c"/>
            <path id="Trazado_248335" data-name="Trazado 248335" d="M98.349,62.469a1.988,1.988,0,1,0-2.812,2.812l4.821,4.821a1.988,1.988,0,1,0,2.812-2.812Z" transform="translate(-83.284 -50.217)" fill="#ffd15c"/>
            <path id="Trazado_248336" data-name="Trazado 248336" d="M41.9,212.267H35.075a2.013,2.013,0,0,0-2.009,2.009h0a2.013,2.013,0,0,0,2.009,2.009H41.9a2.013,2.013,0,0,0,2.009-2.009h0A2.16,2.16,0,0,0,41.9,212.267Z" transform="translate(-33.066 -172.297)" fill="#ffd15c"/>
            <path id="Trazado_248337" data-name="Trazado 248337" d="M100.356,337.67l-4.821,4.82a1.988,1.988,0,1,0,2.812,2.812l4.821-4.821a1.988,1.988,0,1,0-2.812-2.812Z" transform="translate(-83.283 -273.597)" fill="#ffd15c"/>
            <path id="Trazado_248338" data-name="Trazado 248338" d="M373.547,337.669a1.988,1.988,0,1,0-2.812,2.812l4.82,4.821a1.988,1.988,0,0,0,2.812-2.812Z" transform="translate(-306.663 -273.597)" fill="#ffd15c"/>
            <path id="Trazado_248339" data-name="Trazado 248339" d="M430.171,212.267h-6.829a2.013,2.013,0,0,0-2.009,2.009h0a2.013,2.013,0,0,0,2.009,2.009h6.829a2.013,2.013,0,0,0,2.009-2.009h0A2.013,2.013,0,0,0,430.171,212.267Z" transform="translate(-348.222 -172.297)" fill="#ffd15c"/>
            <path id="Trazado_248340" data-name="Trazado 248340" d="M375.556,62.47l-4.82,4.821a1.988,1.988,0,0,0,2.812,2.812l4.821-4.821a1.988,1.988,0,0,0-2.812-2.812Z" transform="translate(-306.663 -50.217)" fill="#ffd15c"/>
          </g>
        </g>
      </g>
      <g id="Grupo_1066691" data-name="Grupo 1066691" transform="translate(0 -56.055)">
        <path id="Rectángulo_347657" data-name="Rectángulo 347657" d="M0,0H295a0,0,0,0,1,0,0V125a25,25,0,0,1-25,25H0a0,0,0,0,1,0,0V0A0,0,0,0,1,0,0Z" transform="translate(810 3786)" fill="#632059" opacity="0.26"/>
        <text id="Carácter_unívoco" data-name="Carácter
unívoco" transform="translate(1049.279 3855)" fill="#12263f" font-size="18" font-family="Roboto-Bold, Roboto" font-weight="700"><tspan x="-69.144" y="0">Carácter</tspan><tspan x="-63.791" y="24">unívoco</tspan></text>
        <g id="idioma" transform="translate(849.5 3817.182)">
          <g id="Grupo_1015052" data-name="Grupo 1015052" transform="translate(23.716 7)">
            <path id="Trazado_248341" data-name="Trazado 248341" d="M69.452,46.256l3.117,12.453-8.963-4.826L59.555,51.7a14.892,14.892,0,0,0,.086-1.609c0-12.7-13.5-22.982-30.164-22.982A37.908,37.908,0,0,0,18.03,28.833a17.6,17.6,0,0,1,.962-4.74C22.4,14.254,34.16,7,48.151,7,64.812,7,78.314,17.284,78.314,29.982,78.314,36.331,74.924,42.09,69.452,46.256Z" transform="translate(-18.03 -7)" fill="#1b3f5e"/>
            <path id="Trazado_248342" data-name="Trazado 248342" d="M63.951,45.291a19.741,19.741,0,0,1-.115,2.068c-.057.575-.129,1.163-.23,1.724L59.555,46.9a14.89,14.89,0,0,0,.086-1.609c0-12.7-13.5-22.982-30.164-22.982A37.908,37.908,0,0,0,18.03,24.033a17.6,17.6,0,0,1,.962-4.74A42.024,42.024,0,0,1,29.478,18C48.481,18,63.951,30.238,63.951,45.291Z" transform="translate(-18.03 -2.2)" fill="#1b3f5e" opacity="0.1"/>
            <g id="Grupo_1015051" data-name="Grupo 1015051" transform="translate(7.661 4.309)" opacity="0.2">
              <path id="Trazado_248343" data-name="Trazado 248343" d="M24.795,21.491A1.428,1.428,0,0,1,23.7,19.135C28.429,13.5,36.9,10,45.823,10a1.436,1.436,0,1,1,0,2.873c-8.087,0-15.728,3.1-19.937,8.1a1.394,1.394,0,0,1-1.092.517Z" transform="translate(-23.364 -10)" fill="#1b3f5e"/>
            </g>
          </g>
          <g id="Grupo_1015055" data-name="Grupo 1015055" transform="translate(5 27.109)">
            <path id="Trazado_248344" data-name="Trazado 248344" d="M65.327,43.982a14.89,14.89,0,0,1-.086,1.609C64.164,57.541,51.107,66.964,35.164,66.964A38.006,38.006,0,0,1,24.3,65.4L10.745,72.709l3.117-12.453C8.39,56.09,5,50.331,5,43.982c0-9.609,7.728-17.84,18.716-21.258A37.908,37.908,0,0,1,35.164,21C51.825,21,65.327,31.284,65.327,43.982Z" transform="translate(-5 -21)" fill="#98a68b"/>
            <g id="Grupo_1015053" data-name="Grupo 1015053" transform="translate(7.704 4.309)" opacity="0.2">
              <path id="Trazado_248345" data-name="Trazado 248345" d="M11.795,35.491A1.428,1.428,0,0,1,10.7,33.135C15.429,27.5,23.9,24,32.823,24a1.436,1.436,0,1,1,0,2.873c-8.087,0-15.728,3.1-19.937,8.1A1.394,1.394,0,0,1,11.795,35.491Z" transform="translate(-10.364 -24)" fill="#fff"/>
            </g>
            <g id="Grupo_1015054" data-name="Grupo 1015054" transform="translate(4.309 21.545)" opacity="0.2">
              <path id="Trazado_248346" data-name="Trazado 248346" d="M16.029,50.565a1.477,1.477,0,0,1-.862-.287C10.542,46.758,8,42.205,8,37.436a1.436,1.436,0,0,1,2.873,0c0,3.849,2.14,7.6,6.018,10.557A1.425,1.425,0,0,1,17.164,50,1.394,1.394,0,0,1,16.029,50.565Z" transform="translate(-8 -36)" fill="#fff"/>
            </g>
            <path id="Trazado_248347" data-name="Trazado 248347" d="M41.418,32.873H18.436a1.436,1.436,0,0,1,0-2.873H41.418a1.436,1.436,0,0,1,0,2.873Zm1.436,4.309a1.441,1.441,0,0,0-1.436-1.436H18.436a1.436,1.436,0,1,0,0,2.873H41.418A1.441,1.441,0,0,0,42.855,37.182Zm0,5.745a1.441,1.441,0,0,0-1.436-1.436H18.436a1.436,1.436,0,1,0,0,2.873H41.418A1.441,1.441,0,0,0,42.855,42.927Zm0,5.745a1.441,1.441,0,0,0-1.436-1.436H18.436a1.436,1.436,0,0,0,0,2.873H41.418A1.441,1.441,0,0,0,42.855,48.673Z" transform="translate(0.236 -17.073)" fill="#3b5620" opacity="0.5"/>
          </g>
        </g>
      </g>
      <g id="Grupo_1066692" data-name="Grupo 1066692">
        <g id="Grupo_1066688-2" data-name="Grupo 1066688" transform="translate(438.051 3614.945)">
          <g id="Grupo_159358" data-name="Grupo 159358">
            <circle id="Elipse_5613" data-name="Elipse 5613" cx="18.475" cy="18.475" r="18.475" opacity="0.57" fill="url(#linear-gradient)"/>
            <circle id="Elipse_5606" data-name="Elipse 5606" cx="13.436" cy="13.436" r="13.436" transform="translate(5.039 5.039)" fill="#dbf9bd"/>
          </g>
          <text id="_" data-name="+" transform="matrix(-1, 0, 0, 1, 24.352, 26.071)" fill="#12263f" font-size="20" font-family="Roboto-Medium, Roboto" font-weight="500"><tspan x="0" y="0">+</tspan></text>
        </g>
        <g id="Grupo_1066689-2" data-name="Grupo 1066689" transform="translate(438.051 3781.945)">
          <g id="Grupo_159358-2" data-name="Grupo 159358">
            <circle id="Elipse_5613-2" data-name="Elipse 5613" cx="18.475" cy="18.475" r="18.475" opacity="0.57" fill="url(#linear-gradient)"/>
            <circle id="Elipse_5606-2" data-name="Elipse 5606" cx="13.436" cy="13.436" r="13.436" transform="translate(5.039 5.039)" fill="#dbf9bd"/>
          </g>
          <text id="_2" data-name="+" transform="matrix(-1, 0, 0, 1, 24.352, 26.071)" fill="#12263f" font-size="20" font-family="Roboto-Medium, Roboto" font-weight="500"><tspan x="0" y="0">+</tspan></text>
        </g>
      </g>
      <g id="Grupo_1066693" data-name="Grupo 1066693" transform="translate(686.949)">
        <g id="Grupo_1066688-3" data-name="Grupo 1066688" transform="translate(438.051 3614.945)">
          <g id="Grupo_159358-3" data-name="Grupo 159358">
            <circle id="Elipse_5613-3" data-name="Elipse 5613" cx="18.475" cy="18.475" r="18.475" opacity="0.57" fill="url(#linear-gradient)"/>
            <circle id="Elipse_5606-3" data-name="Elipse 5606" cx="13.436" cy="13.436" r="13.436" transform="translate(5.039 5.039)" fill="#dbf9bd"/>
          </g>
          <text id="_3" data-name="+" transform="matrix(-1, 0, 0, 1, 24.352, 26.071)" fill="#12263f" font-size="20" font-family="Roboto-Medium, Roboto" font-weight="500"><tspan x="0" y="0">+</tspan></text>
        </g>
        <g id="Grupo_1066689-3" data-name="Grupo 1066689" transform="translate(438.051 3781.945)">
          <g id="Grupo_159358-4" data-name="Grupo 159358">
            <circle id="Elipse_5613-4" data-name="Elipse 5613" cx="18.475" cy="18.475" r="18.475" opacity="0.57" fill="url(#linear-gradient)"/>
            <circle id="Elipse_5606-4" data-name="Elipse 5606" cx="13.436" cy="13.436" r="13.436" transform="translate(5.039 5.039)" fill="#dbf9bd"/>
          </g>
          <text id="_4" data-name="+" transform="matrix(-1, 0, 0, 1, 24.352, 26.071)" fill="#12263f" font-size="20" font-family="Roboto-Medium, Roboto" font-weight="500"><tspan x="0" y="0">+</tspan></text>
        </g>
      </g>
    </g>
  </g>
</svg>
