<svg xmlns="http://www.w3.org/2000/svg" width="505" height="321.894" viewBox="0 0 505 321.894">
  <g id="Grupo_1066768" data-name="Grupo 1066768" transform="translate(-285 -4147.646)">
    <g id="Group_9_5_" data-name="Group 9 (5)" transform="translate(285 4147.646)">
      <path id="Trazado_248348" data-name="Trazado 248348" d="M462.39,15.857a7.928,7.928,0,1,1,7.929-7.928A7.931,7.931,0,0,1,462.39,15.857ZM125.737,205.947H83.376a41.451,41.451,0,1,0,0,82.9H441.564a67.121,67.121,0,1,0,0-134.241,28.38,28.38,0,1,1,0-56.761H475.72a29.507,29.507,0,0,0,0-59.013H432.528a11.488,11.488,0,0,1,0-22.977h7.613a7.928,7.928,0,1,0,0-15.857H390.182c-10.521,0-11.694,12.431-38.274,12.431H290.282a10.346,10.346,0,1,0,0,20.692h9.935a14.989,14.989,0,0,1,0,29.979h-29.9c-40.374,0-46.077,10.551-53.15,31.539s-43.8,22.676-43.8,22.676H123.154a22.59,22.59,0,1,0,0,45.18h2.585a21.726,21.726,0,1,1,0,43.452Z" transform="translate(-24.782)" fill="#f2fde8" fill-rule="evenodd"/>
      <path id="Trazado_248349" data-name="Trazado 248349" d="M250.523,755.485c138.36,0,250.522-4.912,250.522-10.972s-112.162-10.972-250.522-10.972S0,738.453,0,744.513,112.163,755.485,250.523,755.485Z" transform="translate(0 -433.591)" fill="#f2fde8"/>
      <path id="Trazado_248350" data-name="Trazado 248350" d="M57.6,206.761l125.118-15.778a17.952,17.952,0,0,1,20,15.519L224.4,378.488a17.953,17.953,0,0,1-15.522,20L83.765,414.266a17.954,17.954,0,0,1-20-15.519L42.077,226.761a17.953,17.953,0,0,1,15.522-20Z" transform="translate(-24.788 -112.806)" fill="#afc797" fill-rule="evenodd"/>
      <path id="Trazado_248351" data-name="Trazado 248351" d="M65.544,219.093l125.12-15.78a12.88,12.88,0,0,1,14.346,11.135L226.7,386.434a12.876,12.876,0,0,1-11.132,14.346L90.448,416.56A12.88,12.88,0,0,1,76.1,405.425L54.411,233.44A12.877,12.877,0,0,1,65.544,219.093Z" transform="translate(-32.102 -120.118)" fill="#839571" fill-rule="evenodd"/>
      <path id="Trazado_248352" data-name="Trazado 248352" d="M183.386,204.381,60.49,229.809,96.723,404.93,219.62,379.5Z" transform="translate(-35.755 -120.808)" fill="#fff"/>
      <path id="Trazado_248353" data-name="Trazado 248353" d="M191.83,234.754,81.6,257.561l2.943,14.222,110.228-22.807Z" transform="translate(-48.234 -138.761)" fill="#afc797"/>
      <path id="Trazado_248354" data-name="Trazado 248354" d="M103.1,347.85l14-2.9,2.9,14-14,2.9-2.9-14Zm23.517,113.667,14-2.9,2.9,14-14,2.9-2.9-14Zm-4.7-22.735,14-2.893,2.9,14-14,2.9Zm-4.7-22.73,14-2.9,2.9,14-14,2.9-2.9-14Zm-4.7-22.736,14-2.9,2.9,14-14,2.9-2.9-14Zm-4.7-22.733,14-2.9,2.9,14-14,2.9-2.9-14Z" transform="translate(-60.942 -203.899)" fill="#afc797" fill-rule="evenodd"/>
      <path id="Trazado_248355" data-name="Trazado 248355" d="M161.758,317.839l76.007-15.722a2.382,2.382,0,0,1,.963,4.666l-76,15.724a2.383,2.383,0,0,1-.966-4.668Zm23.514,113.67,76.007-15.724a2.383,2.383,0,1,1,.966,4.668l-76,15.724a2.383,2.383,0,0,1-.966-4.668Zm1.72,8.315a2.382,2.382,0,0,0,.964,4.665l45.651-9.444a2.383,2.383,0,0,0-.964-4.668Zm-6.423-31.051,76.007-15.721a2.382,2.382,0,1,1,.966,4.666l-76.006,15.724a2.383,2.383,0,0,1-.964-4.668Zm1.72,8.316a2.383,2.383,0,0,0,.966,4.668l45.651-9.444a2.383,2.383,0,0,0-.966-4.668Zm-6.422-31.048,76.006-15.721a2.382,2.382,0,0,1,.966,4.665l-76.007,15.724a2.383,2.383,0,0,1-.966-4.668Zm1.72,8.316a2.382,2.382,0,1,0,.963,4.665l45.651-9.444a2.382,2.382,0,0,0-.964-4.665Zm-6.423-31.049,76-15.724a2.384,2.384,0,0,1,.966,4.668l-76.007,15.724a2.383,2.383,0,0,1-.963-4.668Zm1.72,8.315a2.382,2.382,0,0,0,.966,4.666l45.651-9.444a2.382,2.382,0,1,0-.966-4.665Zm-6.423-31.048,76-15.724a2.382,2.382,0,1,1,.966,4.665l-76.006,15.726a2.383,2.383,0,0,1-.964-4.668Zm1.72,8.313a2.383,2.383,0,1,0,.966,4.668l45.651-9.444a2.383,2.383,0,0,0-.964-4.668l-45.651,9.444Zm-4.7-22.733a2.384,2.384,0,0,0,.966,4.668l45.651-9.444a2.383,2.383,0,0,0-.964-4.668l-45.651,9.444Z" transform="translate(-94.491 -178.55)" fill="#afc797" fill-rule="evenodd"/>
      <path id="Trazado_248356" data-name="Trazado 248356" d="M147.818,175.315l22-2.773-.584-4.638a9.147,9.147,0,1,1,18.151-2.285l.587,4.633,22-2.772a5.544,5.544,0,0,1,6.176,4.791l1.319,10.448a5.545,5.545,0,0,1-4.794,6.176l-62.161,7.84a5.548,5.548,0,0,1-6.176-4.794l-1.316-10.447a5.541,5.541,0,0,1,4.793-6.176ZM177.851,163.1a4.048,4.048,0,1,0,4.523,3.51A4.049,4.049,0,0,0,177.851,163.1Z" transform="translate(-84.517 -93.165)" fill="#afc797" fill-rule="evenodd"/>
      <path id="Trazado_248357" data-name="Trazado 248357" d="M108.109,345.051a1.361,1.361,0,0,1,1.986-1.861l4.2,4.471,5.217-11.62a1.359,1.359,0,1,1,2.479,1.116l-6.026,13.422a1.329,1.329,0,0,1-.338.5,1.36,1.36,0,0,1-1.922-.064l-5.595-5.957Zm4.7,22.736a1.361,1.361,0,0,1,1.986-1.861l4.2,4.468,5.215-11.62a1.361,1.361,0,0,1,2.482,1.117l-6.026,13.422a1.356,1.356,0,0,1-2.258.433l-5.6-5.957Zm18.812,90.937a1.361,1.361,0,0,1,1.986-1.861l4.2,4.468,5.217-11.62a1.36,1.36,0,1,1,2.479,1.117l-6.026,13.424a1.359,1.359,0,0,1-2.26.431l-5.594-5.957Zm-4.7-22.736a1.361,1.361,0,0,1,1.986-1.861l4.2,4.471,5.217-11.62a1.359,1.359,0,1,1,2.48,1.114l-6.026,13.424a1.336,1.336,0,0,1-.335.5,1.36,1.36,0,0,1-1.923-.064l-5.594-5.957Zm-4.7-22.735a1.36,1.36,0,0,1,1.986-1.858l4.2,4.468,5.218-11.62a1.36,1.36,0,0,1,2.479,1.117l-6.026,13.422a1.34,1.34,0,0,1-.335.493,1.359,1.359,0,0,1-1.922-.062l-5.595-5.957Zm-4.7-22.733a1.36,1.36,0,0,1,1.986-1.858l4.2,4.468,5.218-11.62a1.36,1.36,0,0,1,2.482,1.114l-6.026,13.422a1.358,1.358,0,0,1-2.258.431l-5.595-5.954Z" transform="translate(-63.685 -198.157)" fill="#839571" fill-rule="evenodd"/>
      <path id="Trazado_248358" data-name="Trazado 248358" d="M635.938,666.38H549.556v31.674h86.382Z" transform="translate(-324.839 -393.893)" fill="#839571"/>
      <path id="Trazado_248359" data-name="Trazado 248359" d="M594.938,420.649a8.641,8.641,0,0,1-8.639,8.638H333.127a8.64,8.64,0,0,1-8.643-8.638V253.932a8.634,8.634,0,0,1,8.643-8.633H586.3a8.638,8.638,0,0,1,8.639,8.633V420.649Z" transform="translate(-191.8 -144.995)" fill="#3b5620" fill-rule="evenodd"/>
      <path id="Trazado_248360" data-name="Trazado 248360" d="M598.575,397.08a8.321,8.321,0,0,1-8.32,8.315H352.747a8.31,8.31,0,0,1-8.313-8.315V270.018a8.308,8.308,0,0,1,8.313-8.313H590.252a8.319,8.319,0,0,1,8.32,8.313V397.08Z" transform="translate(-203.593 -154.692)" fill="#f8fff1" fill-rule="evenodd"/>
      <path id="Trazado_248361" data-name="Trazado 248361" d="M629.1,729.756H516.226v5.759H629.1Z" transform="translate(-305.138 -431.354)" fill="#3b5620"/>
      <path id="Trazado_248362" data-name="Trazado 248362" d="M613.614,743.841H418v9.641H613.614Z" transform="translate(-247.078 -439.679)" fill="#839571"/>
      <path id="Trazado_248363" data-name="Trazado 248363" d="M598.4,279.147H361.629V293.3H598.4Z" transform="translate(-213.756 -165.002)" fill="#afc797"/>
      <path id="Trazado_248364" data-name="Trazado 248364" d="M422.026,288.664H370.815v5.306h51.211Z" transform="translate(-219.186 -170.627)" fill="#fff"/>
      <path id="Trazado_248365" data-name="Trazado 248365" d="M917.119,287.8a3.273,3.273,0,1,1-3.27,3.273A3.274,3.274,0,0,1,917.119,287.8Z" transform="translate(-540.17 -170.115)" fill="#fff" fill-rule="evenodd"/>
      <path id="Trazado_248366" data-name="Trazado 248366" d="M441.637,340.172H385.364V352.32h56.273Z" transform="translate(-227.786 -201.073)" fill="#afc797"/>
      <path id="Trazado_248367" data-name="Trazado 248367" d="M441.637,380.518H385.364v12.148h56.273Z" transform="translate(-227.786 -224.922)" fill="#afc797"/>
      <path id="Trazado_248368" data-name="Trazado 248368" d="M389.469,421.925h38.541a.565.565,0,0,1,.567.564v1.139a.567.567,0,0,1-.567.567H389.469a.567.567,0,0,1-.567-.567v-1.139A.565.565,0,0,1,389.469,421.925Z" transform="translate(-229.877 -249.397)" fill="#839571" fill-rule="evenodd"/>
      <path id="Trazado_248369" data-name="Trazado 248369" d="M389.469,436.022h49.01a.569.569,0,0,1,.567.567v1.139a.567.567,0,0,1-.567.567h-49.01a.567.567,0,0,1-.567-.567v-1.139A.569.569,0,0,1,389.469,436.022Z" transform="translate(-229.877 -257.73)" fill="#839571" fill-rule="evenodd"/>
      <path id="Trazado_248370" data-name="Trazado 248370" d="M389.469,450.126h49.01a.567.567,0,0,1,.567.564v1.139a.567.567,0,0,1-.567.567h-49.01a.567.567,0,0,1-.567-.567V450.69A.566.566,0,0,1,389.469,450.126Z" transform="translate(-229.877 -266.066)" fill="#839571" fill-rule="evenodd"/>
      <path id="Trazado_248371" data-name="Trazado 248371" d="M389.469,464.229H418.74a.567.567,0,0,1,.567.565v1.138a.567.567,0,0,1-.567.567H389.469a.567.567,0,0,1-.567-.567v-1.138A.567.567,0,0,1,389.469,464.229Z" transform="translate(-229.877 -274.403)" fill="#dfedfa" fill-rule="evenodd"/>
      <path id="Trazado_248372" data-name="Trazado 248372" d="M389.469,478.327h49.01a.567.567,0,0,1,.567.564v1.139a.567.567,0,0,1-.567.567h-49.01a.567.567,0,0,1-.567-.567v-1.139A.566.566,0,0,1,389.469,478.327Z" transform="translate(-229.877 -282.736)" fill="#839571" fill-rule="evenodd"/>
      <path id="Trazado_248373" data-name="Trazado 248373" d="M441.637,507.806H385.364v33.266h56.273Z" transform="translate(-227.786 -300.161)" fill="#afc797"/>
      <path id="Trazado_248374" data-name="Trazado 248374" d="M701.69,433.672H549.911V444.8H701.69Z" transform="translate(-325.049 -256.341)" fill="#839571"/>
      <path id="Trazado_248375" data-name="Trazado 248375" d="M550.429,487.193H685.961a.52.52,0,0,1,.52.52v1.042a.521.521,0,0,1-.52.518H550.429a.519.519,0,0,1-.518-.518v-1.042A.518.518,0,0,1,550.429,487.193Z" transform="translate(-325.049 -287.976)" fill="#839571" fill-rule="evenodd"/>
      <path id="Trazado_248376" data-name="Trazado 248376" d="M550.429,500.105H695.556a.518.518,0,0,1,.518.518v1.042a.518.518,0,0,1-.518.518H550.429a.518.518,0,0,1-.518-.518v-1.045a.518.518,0,0,1,.518-.518Z" transform="translate(-325.049 -295.607)" fill="#839571"/>
      <path id="Trazado_248377" data-name="Trazado 248377" d="M550.429,513.027H695.556a.518.518,0,0,1,.518.518v1.042a.517.517,0,0,1-.518.518H550.429a.517.517,0,0,1-.518-.518v-1.045a.518.518,0,0,1,.518-.518Z" transform="translate(-325.049 -303.246)" fill="#839571"/>
      <path id="Trazado_248378" data-name="Trazado 248378" d="M701.69,561.942H549.911v11.13H701.69Z" transform="translate(-325.049 -332.16)" fill="#839571"/>
      <path id="Trazado_248379" data-name="Trazado 248379" d="M610.148,327.419l-2.1-1.856c.256.742.463,1.341.628,1.856a14.488,14.488,0,0,1,.656,5.568l5.57-1.235Z" transform="translate(-359.41 -192.438)" fill="#afc797" fill-rule="evenodd"/>
      <path id="Trazado_248380" data-name="Trazado 248380" d="M614.895,332.025v-.138l-5.57,1.235a14.488,14.488,0,0,0-.656-5.568c-.145-.456-.323-.979-.54-1.607l-.086-.155c.256.739.39,1.4.555,1.917a14.565,14.565,0,0,1,.655,5.57l5.641-1.257Z" transform="translate(-359.41 -192.573)" fill="#b3b3b3" fill-rule="evenodd"/>
      <path id="Trazado_248381" data-name="Trazado 248381" d="M549.908,325.562h23.771a15.739,15.739,0,0,1,1.284,7.423l5.567-1.234v32.394H549.905V325.562Z" transform="translate(-325.045 -192.437)" fill="#fff" fill-rule="evenodd"/>
      <path id="Trazado_248382" data-name="Trazado 248382" d="M558.682,333.8h10.775a.646.646,0,0,1,.646.646v1.5a.646.646,0,0,1-.646.646H558.682a.646.646,0,0,1-.646-.646v-1.5A.646.646,0,0,1,558.682,333.8Z" transform="translate(-329.851 -197.308)" fill="#afc797"/>
      <path id="Trazado_248383" data-name="Trazado 248383" d="M581.595,347.773H558.453a.417.417,0,0,0-.417.416v0a.417.417,0,0,0,.417.417h23.142a.417.417,0,0,0,.416-.417v0A.416.416,0,0,0,581.595,347.773Z" transform="translate(-329.851 -205.566)" fill="#afc797"/>
      <path id="Trazado_248384" data-name="Trazado 248384" d="M558.453,357.368h23.142a.418.418,0,0,1,0,.835H558.453a.418.418,0,0,1,0-.835Z" transform="translate(-329.851 -211.238)" fill="#afc797" fill-rule="evenodd"/>
      <path id="Trazado_248385" data-name="Trazado 248385" d="M558.453,366.957h23.142a.416.416,0,0,1,0,.833H558.453a.416.416,0,1,1,0-.833Z" transform="translate(-329.851 -216.906)" fill="#afc797" fill-rule="evenodd"/>
      <path id="Trazado_248386" data-name="Trazado 248386" d="M558.453,376.546h23.142a.418.418,0,0,1,0,.836H558.453a.418.418,0,0,1,0-.836Z" transform="translate(-329.851 -222.574)" fill="#afc797" fill-rule="evenodd"/>
      <path id="Trazado_248387" data-name="Trazado 248387" d="M558.453,386.142h23.142a.416.416,0,0,1,0,.833H558.453a.416.416,0,1,1,0-.833Z" transform="translate(-329.851 -228.246)" fill="#afc797" fill-rule="evenodd"/>
      <path id="Trazado_248388" data-name="Trazado 248388" d="M558.453,395.737h23.142a.416.416,0,0,1,0,.833H558.453a.416.416,0,1,1,0-.833Z" transform="translate(-329.851 -233.917)" fill="#afc797" fill-rule="evenodd"/>
      <path id="Trazado_248389" data-name="Trazado 248389" d="M558.453,405.326h23.142a.418.418,0,0,1,0,.835H558.453a.418.418,0,0,1,0-.835Z" transform="translate(-329.851 -239.585)" fill="#afc797"/>
      <path id="Trazado_248390" data-name="Trazado 248390" d="M708.915,327.419l-2.105-1.856c.256.742.463,1.341.626,1.856a14.492,14.492,0,0,1,.655,5.568l5.568-1.235-4.747-4.333Z" transform="translate(-417.791 -192.438)" fill="#afc797" fill-rule="evenodd"/>
      <path id="Trazado_248391" data-name="Trazado 248391" d="M713.659,332.025v-.138l-5.568,1.235a14.491,14.491,0,0,0-.655-5.568c-.145-.456-.325-.979-.54-1.607l-.086-.155c.256.739.39,1.4.555,1.917a14.549,14.549,0,0,1,.658,5.57l5.639-1.257Z" transform="translate(-417.791 -192.573)" fill="#b3b3b3" fill-rule="evenodd"/>
      <path id="Trazado_248392" data-name="Trazado 248392" d="M648.672,325.562h23.773a15.737,15.737,0,0,1,1.284,7.423l5.567-1.234v32.394H648.674V325.562Z" transform="translate(-383.426 -192.437)" fill="#fff" fill-rule="evenodd"/>
      <path id="Trazado_248393" data-name="Trazado 248393" d="M657.443,333.8h10.775a.646.646,0,0,1,.643.646v1.5a.646.646,0,0,1-.643.646H657.443a.648.648,0,0,1-.646-.646v-1.5A.648.648,0,0,1,657.443,333.8Z" transform="translate(-388.228 -197.308)" fill="#afc797" fill-rule="evenodd"/>
      <path id="Trazado_248394" data-name="Trazado 248394" d="M657.22,347.773h23.142a.418.418,0,1,1,0,.835H657.22a.418.418,0,0,1,0-.835Z" transform="translate(-388.232 -205.566)" fill="#afc797" fill-rule="evenodd"/>
      <path id="Trazado_248395" data-name="Trazado 248395" d="M657.22,357.368h23.142a.418.418,0,1,1,0,.835H657.22a.418.418,0,0,1,0-.835Z" transform="translate(-388.232 -211.238)" fill="#afc797" fill-rule="evenodd"/>
      <path id="Trazado_248396" data-name="Trazado 248396" d="M657.22,366.957h23.142a.416.416,0,1,1,0,.833H657.22a.416.416,0,1,1,0-.833Z" transform="translate(-388.232 -216.906)" fill="#afc797" fill-rule="evenodd"/>
      <path id="Trazado_248397" data-name="Trazado 248397" d="M657.22,376.546h23.142a.418.418,0,1,1,0,.836H657.22a.418.418,0,0,1,0-.836Z" transform="translate(-388.232 -222.574)" fill="#afc797" fill-rule="evenodd"/>
      <path id="Trazado_248398" data-name="Trazado 248398" d="M657.22,386.142h23.142a.416.416,0,1,1,0,.833H657.22a.416.416,0,1,1,0-.833Z" transform="translate(-388.232 -228.246)" fill="#afc797" fill-rule="evenodd"/>
      <path id="Trazado_248399" data-name="Trazado 248399" d="M657.22,395.737h23.142a.416.416,0,1,1,0,.833H657.22a.416.416,0,1,1,0-.833Z" transform="translate(-388.232 -233.917)" fill="#afc797" fill-rule="evenodd"/>
      <path id="Trazado_248400" data-name="Trazado 248400" d="M657.22,405.326h23.142a.418.418,0,1,1,0,.835H657.22a.418.418,0,0,1,0-.835Z" transform="translate(-388.232 -239.585)" fill="#afc797" fill-rule="evenodd"/>
      <path id="Trazado_248401" data-name="Trazado 248401" d="M807.676,327.419l-2.1-1.856c.256.742.463,1.341.629,1.856a14.537,14.537,0,0,1,.655,5.568l5.57-1.235Z" transform="translate(-476.167 -192.438)" fill="#afc797" fill-rule="evenodd"/>
      <path id="Trazado_248402" data-name="Trazado 248402" d="M812.425,332.025v-.138l-5.57,1.235a14.49,14.49,0,0,0-.655-5.568c-.148-.456-.325-.979-.54-1.607l-.089-.155c.256.739.39,1.4.555,1.917a14.5,14.5,0,0,1,.658,5.57l5.641-1.257Z" transform="translate(-476.167 -192.573)" fill="#b3b3b3" fill-rule="evenodd"/>
      <path id="Trazado_248403" data-name="Trazado 248403" d="M747.439,325.562H771.21a15.738,15.738,0,0,1,1.284,7.423l5.57-1.234v32.394H747.442V325.562Z" transform="translate(-441.806 -192.437)" fill="#fff" fill-rule="evenodd"/>
      <path id="Trazado_248404" data-name="Trazado 248404" d="M756.213,333.8h10.775a.648.648,0,0,1,.646.646v1.5a.648.648,0,0,1-.646.646H756.213a.646.646,0,0,1-.643-.646v-1.5A.646.646,0,0,1,756.213,333.8Z" transform="translate(-446.612 -197.308)" fill="#afc797" fill-rule="evenodd"/>
      <path id="Trazado_248405" data-name="Trazado 248405" d="M755.987,347.773h23.14a.418.418,0,1,1,0,.835h-23.14a.418.418,0,0,1,0-.835Z" transform="translate(-446.612 -205.566)" fill="#afc797" fill-rule="evenodd"/>
      <path id="Trazado_248406" data-name="Trazado 248406" d="M755.987,357.368h23.14a.418.418,0,1,1,0,.835h-23.14a.418.418,0,0,1,0-.835Z" transform="translate(-446.612 -211.238)" fill="#afc797" fill-rule="evenodd"/>
      <path id="Trazado_248407" data-name="Trazado 248407" d="M755.987,366.957h23.14a.416.416,0,1,1,0,.833h-23.14a.416.416,0,1,1,0-.833Z" transform="translate(-446.612 -216.906)" fill="#afc797" fill-rule="evenodd"/>
      <path id="Trazado_248408" data-name="Trazado 248408" d="M755.987,376.546h23.14a.418.418,0,1,1,0,.836h-23.14a.418.418,0,0,1,0-.836Z" transform="translate(-446.612 -222.574)" fill="#afc797" fill-rule="evenodd"/>
      <path id="Trazado_248409" data-name="Trazado 248409" d="M755.987,386.142h23.14a.416.416,0,1,1,0,.833h-23.14a.416.416,0,1,1,0-.833Z" transform="translate(-446.612 -228.246)" fill="#afc797" fill-rule="evenodd"/>
      <path id="Trazado_248410" data-name="Trazado 248410" d="M755.987,395.737h23.14a.416.416,0,1,1,0,.833h-23.14a.416.416,0,1,1,0-.833Z" transform="translate(-446.612 -233.917)" fill="#afc797" fill-rule="evenodd"/>
      <path id="Trazado_248411" data-name="Trazado 248411" d="M755.987,405.326h23.14a.418.418,0,1,1,0,.835h-23.14a.418.418,0,0,1,0-.835Z" transform="translate(-446.612 -239.585)" fill="#afc797" fill-rule="evenodd"/>
      <path id="Trazado_248412" data-name="Trazado 248412" d="M906.443,327.419l-2.1-1.856c.256.742.463,1.341.626,1.856a14.53,14.53,0,0,1,.658,5.568l5.568-1.235Z" transform="translate(-534.548 -192.438)" fill="#afc797" fill-rule="evenodd"/>
      <path id="Trazado_248413" data-name="Trazado 248413" d="M911.19,332.025v-.138l-5.568,1.235a14.481,14.481,0,0,0-.658-5.568c-.143-.456-.325-.979-.54-1.607l-.086-.155c.256.739.39,1.4.555,1.917a14.548,14.548,0,0,1,.658,5.57l5.639-1.257Z" transform="translate(-534.548 -192.573)" fill="#b3b3b3" fill-rule="evenodd"/>
      <path id="Trazado_248414" data-name="Trazado 248414" d="M846.2,325.562h23.773a15.774,15.774,0,0,1,1.284,7.423l5.568-1.234v32.394H846.2V325.562Z" transform="translate(-500.183 -192.437)" fill="#fff" fill-rule="evenodd"/>
      <path id="Trazado_248415" data-name="Trazado 248415" d="M854.977,333.8h10.775a.646.646,0,0,1,.643.646v1.5a.646.646,0,0,1-.643.646H854.977a.648.648,0,0,1-.646-.646v-1.5A.648.648,0,0,1,854.977,333.8Z" transform="translate(-504.989 -197.308)" fill="#afc797" fill-rule="evenodd"/>
      <path id="Trazado_248416" data-name="Trazado 248416" d="M877.89,347.773H854.748a.416.416,0,0,0-.417.416v0a.417.417,0,0,0,.417.417H877.89a.417.417,0,0,0,.416-.417v0A.416.416,0,0,0,877.89,347.773Z" transform="translate(-504.989 -205.566)" fill="#afc797"/>
      <path id="Trazado_248417" data-name="Trazado 248417" d="M854.748,357.368H877.89a.418.418,0,0,1,0,.835H854.748a.418.418,0,0,1,0-.835Z" transform="translate(-504.989 -211.238)" fill="#afc797" fill-rule="evenodd"/>
      <path id="Trazado_248418" data-name="Trazado 248418" d="M854.748,366.957H877.89a.416.416,0,0,1,0,.833H854.748a.416.416,0,1,1,0-.833Z" transform="translate(-504.989 -216.906)" fill="#afc797" fill-rule="evenodd"/>
      <path id="Trazado_248419" data-name="Trazado 248419" d="M854.748,376.546H877.89a.418.418,0,0,1,0,.836H854.748a.418.418,0,0,1,0-.836Z" transform="translate(-504.989 -222.574)" fill="#afc797" fill-rule="evenodd"/>
      <path id="Trazado_248420" data-name="Trazado 248420" d="M854.748,386.142H877.89a.416.416,0,0,1,0,.833H854.748a.416.416,0,1,1,0-.833Z" transform="translate(-504.989 -228.246)" fill="#afc797" fill-rule="evenodd"/>
      <path id="Trazado_248421" data-name="Trazado 248421" d="M854.748,395.737H877.89a.416.416,0,0,1,0,.833H854.748a.416.416,0,1,1,0-.833Z" transform="translate(-504.989 -233.917)" fill="#afc797" fill-rule="evenodd"/>
      <path id="Trazado_248422" data-name="Trazado 248422" d="M877.89,405.326H854.748a.417.417,0,0,0-.417.417v0a.416.416,0,0,0,.417.416H877.89a.416.416,0,0,0,.416-.416v0A.416.416,0,0,0,877.89,405.326Z" transform="translate(-504.989 -239.585)" fill="#afc797"/>
      <path id="Trazado_248423" data-name="Trazado 248423" d="M1071.748,636.781c-.1-.9.229-2.112.1-3.571-.99-11.354-3.12-37-3.12-37s-2.417-20.315-2.6-33.178a49.06,49.06,0,0,0,7.663-1.311c5.475-1.4,9.147-3.63,14.365-6.159,2.846,10.494,8.121,29.752,8.121,29.752s-.012,4.106,5.447,4.106c4.792,0,24.7,16.66,28.64,19.14-.507,1.2-1.8,2.391-2.384,3.581-6.326-5.173-38.916-17.074-38.916-17.074l-8.844-22.417s-2.654,27.482-.515,29.629-3.8,32.933-3.8,34.5c0,.195-2.507-.037-4.154,0Z" transform="translate(-630.182 -328.387)" fill="#ffc19d" fill-rule="evenodd"/>
      <path id="Trazado_248424" data-name="Trazado 248424" d="M1080.148,566.18s-1.905,30.383-.953,32.17,1.664,4.759.953,12.266-2.858,20.621-2.858,20.621l-7.033.229L1067.4,595.6l-2.445-33.251-.057-.7,9.532-7.152,5.716,11.682Z" transform="translate(-629.455 -327.76)" fill="#3b5620" fill-rule="evenodd"/>
      <path id="Trazado_248425" data-name="Trazado 248425" d="M1131.621,596.593l-3.1,5.6s-28.067-9.242-33.96-13.577c-2.261-1.664-11.678-24.421-11.678-24.421l-7.426-8.818-.078-4.894,15.947-7.007s5.794,6.521,6.931,9.158c2.834,6.568,4.764,28.234,4.764,28.234s-.237-.838,5.124.594,23.475,15.132,23.475,15.132Z" transform="translate(-635.65 -321.244)" fill="#30451b" fill-rule="evenodd"/>
      <path id="Trazado_248426" data-name="Trazado 248426" d="M1209.393,682.733s1.877-1.212,2.1-1.908-.311-2.452.466-2.854,5.729,1.225,6.473,1.786a2.464,2.464,0,0,1,1.042,2.487c-.229.7-6.825,12.655-8.223,14.174s-3.128-1.833-2.094-3.923-.168-6.485.237-9.765Z" transform="translate(-714.538 -400.706)" fill="#3b5620" fill-rule="evenodd"/>
      <path id="Trazado_248427" data-name="Trazado 248427" d="M1062.052,745.858s1.979,1.02,2.695.875,1.979-1.481,2.711-1.008,1.754,5.6,1.64,6.511a2.45,2.45,0,0,1-1.648,2.137c-.728.157-14.377.328-16.385-.133s.053-3.633,2.376-3.766S1058.993,747.123,1062.052,745.858Z" transform="translate(-620.796 -440.733)" fill="#3b5620" fill-rule="evenodd"/>
      <path id="Trazado_248428" data-name="Trazado 248428" d="M981.777,464.608c9.736,9.76,14.884,15.549,23.516,18.452a12.471,12.471,0,0,0,3.733-7.108q3.2,7.209,6.726,14.213,7.317,2.377,21.5-1.351l1.129-4.379c.687-.5,2.8-.449,4.212.451,4.49-8.454,6.551-16.266,6.718-23.162q-9.452-17.652-18.09-26.392-3.294-2.082-11.748-1.674-9.495,10.488-11.535,5.678a77.3,77.3,0,0,0-7.369,8.269q-3.122,5.841.891,23.477a100.36,100.36,0,0,0-17.814-9.735,6.373,6.373,0,0,0-1.873,3.263Zm56.69,15.815q-8.63-9.73-9.012-29.643,5.582,7.349,11.335,14.309Q1038.871,467.385,1038.468,480.423Z" transform="translate(-580.32 -256.293)" fill="#2f4419" fill-rule="evenodd"/>
      <path id="Trazado_248429" data-name="Trazado 248429" d="M1033.276,510.388a124.612,124.612,0,0,1-6.408-18.536q3.245,16.3,2.171,22.617c-1.407.594-3.382.424-6.24-.2a29.451,29.451,0,0,0,6.743,3.223A12.47,12.47,0,0,0,1033.276,510.388Z" transform="translate(-604.57 -290.73)" fill="#3b5620" fill-rule="evenodd"/>
      <path id="Trazado_248430" data-name="Trazado 248430" d="M1106.1,509.283a31.229,31.229,0,0,1,.086-4.012q-8.63-9.73-9.012-29.644-3.656,19.789,8.673,34.637l.253-.978Z" transform="translate(-648.036 -281.14)" fill="#3b5620" fill-rule="evenodd"/>
      <path id="Trazado_248431" data-name="Trazado 248431" d="M1039.364,466.97a78.74,78.74,0,0,1,19.129-5.979,50.734,50.734,0,0,1,.773-6.447q-18.229,4.462-24.992,9.769l5.091,2.66Zm20.924,8.522q-1.442.366-3,.848l.323.17,3.778,1.971Q1060.779,477.007,1060.288,475.492Zm-7.544,10.208-6.375-3.332a27.111,27.111,0,0,0-5.017,2.869q1.123,2.4,2.278,4.781a50.405,50.405,0,0,1,9.115-4.318Zm-3.243-13.429-5.925-3.1a76.633,76.633,0,0,1,14.888-4.052,40.162,40.162,0,0,0,.781,6.4c-2.646.668-5.075,1.351-7.27,2.045l-2.474-1.291Zm-15.342-22.741a53.143,53.143,0,0,1,17.321-7.115,19.535,19.535,0,0,0-4.612-2.457q-6.87,6.821-8.861,3.64A29.036,29.036,0,0,0,1034.159,449.53Zm20.6-4.17a27.907,27.907,0,0,1,3.308,5.708c-13.122,3.268-19.824,5.642-25.532,10.551a25.79,25.79,0,0,1-.163-7.049C1038.644,450.132,1046.406,447.312,1054.759,445.36Z" transform="translate(-610.13 -260.056)" fill="#3b5620" fill-rule="evenodd"/>
      <path id="Trazado_248432" data-name="Trazado 248432" d="M1053.865,442.659a26.418,26.418,0,0,0,3.173-9.629,6.556,6.556,0,0,0-2.728-1.878c-2.159,3.943-3.6,6.211-5.14,7.768l-.029.027c-.045-.076-.09-.153-.139-.229a45.856,45.856,0,0,1-2.965-5.079,6.1,6.1,0,0,0-.977,2.918,17.789,17.789,0,0,0,1.182,7.589,23.221,23.221,0,0,1,1.133-2.568,13.085,13.085,0,0,1,1.771-2.625,12.912,12.912,0,0,1,2.531,1.634,21.324,21.324,0,0,1,2.188,2.078Z" transform="translate(-617.697 -254.851)" fill="#3b5620" fill-rule="evenodd"/>
      <path id="Trazado_248433" data-name="Trazado 248433" d="M1043.993,410.5a7.569,7.569,0,0,1-1.8-2c.029-.562.029-1.259-.008-2.092q3.987-4.832-.1-5.4a6.66,6.66,0,0,0-1.071,3.044c-.585.145-.446-1.511-.908-1.986-.008-2.57-.785-3.138-1.01-4.678-2.347-1.949-6.632-1.486-11.5.648.826,4.791,2.355,16.212,7.912,14.331l.209.606a46.712,46.712,0,0,0,2.964,5.079l.168.2c1.542-1.558,2.981-3.822,5.14-7.766Z" transform="translate(-607.407 -234.166)" fill="#ffc19d" fill-rule="evenodd"/>
      <path id="Trazado_248434" data-name="Trazado 248434" d="M1022.647,389.144c4.87-2.135,8.787-2.906,11.134-.956.225,1.54.883,2.339.892,4.91.462.476.442,1.9,1.026,1.755a6.663,6.663,0,0,1,1.071-3.044q4.085.566.1,5.4c.037.833.037,1.533.008,2.092,4.858-4.947,5.173-13.844-1.129-16.279-2.9-6.521-11.008,2.363-16.9.535-1.169,3.288,2.249,5.977,3.8,5.592Z" transform="translate(-602.091 -224.964)" fill="#3b5620" fill-rule="evenodd"/>
      <path id="Trazado_248435" data-name="Trazado 248435" d="M1050.659,432.123a16.75,16.75,0,0,1-3.709,1.508l.208.606c.156.352.331.7.515,1.052.008-.007.021-.015.029-.022a7.945,7.945,0,0,0,2.956-3.145Z" transform="translate(-618.845 -255.425)" fill="#f08261" fill-rule="evenodd"/>
      <path id="Trazado_248436" data-name="Trazado 248436" d="M1062.391,388.771A1.433,1.433,0,0,1,1061.8,387a2.856,2.856,0,0,1,3.018.069c-.581.01-1.386.577-2.425,1.7Z" transform="translate(-627.551 -228.521)" fill="#3b5620" fill-rule="evenodd"/>
      <path id="Trazado_248437" data-name="Trazado 248437" d="M1059.11,383.83q.926.6,1.4,0a3.2,3.2,0,0,0-1.141-2.516A4.1,4.1,0,0,1,1059.11,383.83Z" transform="translate(-626.033 -225.392)" fill="#3b5620" fill-rule="evenodd"/>
      <path id="Trazado_248438" data-name="Trazado 248438" d="M1030.487,395.114q-.656-2.2-2.437-2.186a5.026,5.026,0,0,0-1.987,4.909Q1026.694,396.447,1030.487,395.114Z" transform="translate(-606.454 -232.257)" fill="#3b5620" fill-rule="evenodd"/>
      <path id="Trazado_248439" data-name="Trazado 248439" d="M1036.688,383.345c-.057.69.458,1.427-.376,1.858.139,2.859-2.973-.209-3.2-1.232Q1033.791,384.245,1036.688,383.345Z" transform="translate(-610.664 -226.593)" fill="#3b5620" fill-rule="evenodd"/>
      <path id="Trazado_248440" data-name="Trazado 248440" d="M783.742,359.951a32.525,32.525,0,0,1,59.669,25.383l.222.113a1.855,1.855,0,0,1,.781,2.494l-3.054,5.843a1.852,1.852,0,0,1-2.494.781l-.222-.116a32.524,32.524,0,0,1-54.9-34.5Zm4.025,2.1a27.981,27.981,0,1,0,37.759-11.837A27.981,27.981,0,0,0,787.766,362.053Z" transform="translate(-461.074 -202.442)" fill="#3b5620" fill-rule="evenodd"/>
      <path id="Trazado_248441" data-name="Trazado 248441" d="M933.111,453.718l-3.055,5.842,14.708,7.689,3.055-5.842Z" transform="translate(-549.75 -268.19)" fill="#839571"/>
      <path id="Trazado_248442" data-name="Trazado 248442" d="M948.84,468.057l3.054-5.843a1.852,1.852,0,0,1,2.491-.781l13.412,7.009.02.013,28.968,15.139,0,0,8.027,4.192,28.975,15.144a1.859,1.859,0,0,1,.781,2.494l-3.055,5.843a1.852,1.852,0,0,1-2.494.781l-13.416-7.012-.016-.007L986.62,489.89l-8.027-4.193-28.969-15.144a1.855,1.855,0,0,1-.781-2.494Z" transform="translate(-560.731 -272.626)" fill="#3b5620" fill-rule="evenodd"/>
      <g id="Grupo_1015099" data-name="Grupo 1015099" transform="translate(323.505 144.585)" opacity="0.35">
        <path id="Trazado_248443" data-name="Trazado 248443" d="M832.1,356.778a27.982,27.982,0,1,1-37.759,11.837A27.98,27.98,0,0,1,832.1,356.778Z" transform="translate(-791.147 -353.589)" fill="#fff" fill-rule="evenodd"/>
      </g>
      <g id="Grupo_1015100" data-name="Grupo 1015100" transform="translate(323.508 149.235)" opacity="0.35">
        <path id="Trazado_248444" data-name="Trazado 248444" d="M831.907,413.2l-40.754-24.687c0-.843.022-1.679.091-2.507l42.841,25.954c-.7.444-1.429.86-2.176,1.242Zm10.637-9.573a27.846,27.846,0,0,0,4.428-12.441L803.68,364.962a28.087,28.087,0,0,0-8.976,9.688l47.837,28.978Zm-6.713,7.133a28.335,28.335,0,0,0,3.734-3.34l-46.841-28.377A27.75,27.75,0,0,0,791.5,383.9l44.335,26.859Z" transform="translate(-791.153 -364.962)" fill="#fefefe" fill-rule="evenodd"/>
      </g>
      <path id="Trazado_248445" data-name="Trazado 248445" d="M1114.334,556.979a15.484,15.484,0,0,1,.977-5.027c-.9-1.412-2.785-2.346-3.623-2.191l-2.233,2.709a27.961,27.961,0,0,0-5.516,3.837,3.483,3.483,0,0,0,3.422-.513c-.826,1.447-1.194,2.354-1.092,2.721q4.742,3.76,6.473,2.736,1.718-2.772,1.591-4.269Z" transform="translate(-652.531 -324.95)" fill="#ffc19d" fill-rule="evenodd"/>
      <path id="Trazado_248446" data-name="Trazado 248446" d="M1130.134,515.7a56.9,56.9,0,0,1-6.207,17.678c-1.075-.735-3.729-2.472-4.547-2.038.5-1.168.307-.993.421-2.425q.294-9.478,1.386-13.281A78.832,78.832,0,0,0,1130.134,515.7Z" transform="translate(-661.658 -304.788)" fill="#2f4419" fill-rule="evenodd"/>
      <path id="Trazado_248447" data-name="Trazado 248447" d="M970.469,495.564c-.315-.3-1.51-1.511-2.748-2.674-1.78-.079-4.256-1.715-4.673-3.13-.251-1.91-.988-2.622.476-3.8.564-.049,1.834.678,3.1,2.169-.074,1.351,1.358,1.775,2.272,2.258,1.168.784.34.178,1.671,1.043.592.49,1.407.774,1.713,1.052a5.967,5.967,0,0,0-1.816,3.083Z" transform="translate(-569.01 -287.246)" fill="#ffc19d" fill-rule="evenodd"/>
      <path id="Trazado_248448" data-name="Trazado 248448" d="M1045.283,405.437a.807.807,0,1,1-.442,1.053A.807.807,0,0,1,1045.283,405.437Z" transform="translate(-617.562 -239.615)" fill="#839571" fill-rule="evenodd"/>
      <path id="Trazado_248449" data-name="Trazado 248449" d="M1045.9,406.927a.809.809,0,0,0-.617-1.5.793.793,0,0,0-.393.348l.053-.03a.263.263,0,1,1-.143.343l-.008-.027a.8.8,0,0,0,1.108.865Z" transform="translate(-617.565 -239.612)" fill="#3b5620" fill-rule="evenodd"/>
      <path id="Trazado_248450" data-name="Trazado 248450" d="M1042.829,402.558c-.012.02-.016.037-.029.057a1.689,1.689,0,0,1,.066-.261.417.417,0,0,0-.061.108.819.819,0,0,0-.033.15.869.869,0,0,1-.016-.143.321.321,0,0,0,0,.165.551.551,0,0,1-.021-.315.426.426,0,0,0-.041.3.252.252,0,0,1-.057-.118.277.277,0,0,0,.012.143l-.057-.047c.016.034.033.039.045.066-.094-.034-.29-.195-.307-.3a.64.64,0,0,0,.115.133.934.934,0,0,1-.1-.234,1.855,1.855,0,0,1,.09.177.538.538,0,0,0,.119.145.769.769,0,0,1-.135-.36l.016.035a1.193,1.193,0,0,0,.074.2c-.021-.123-.062-.229.008-.345a.9.9,0,0,0-.021.155c.037-.072.029-.175.106-.212a1.014,1.014,0,0,0-.069.172.285.285,0,0,0,0,.21.486.486,0,0,1,.213-.461.482.482,0,0,0-.123.214l0,.01c.029.054,0-.054,0,.012a.385.385,0,0,0-.049.126.569.569,0,0,0-.008.086.173.173,0,0,0,0,.047c0,.015.008.012.008.022l0,.015a.559.559,0,0,1,.1-.357.831.831,0,0,1,.233-.227l0,0-.057.052a.637.637,0,0,0-.253.5l.008-.02a.043.043,0,0,1,0-.015.945.945,0,0,1,.069-.209.894.894,0,0,1,.127-.188,1.093,1.093,0,0,1,.392-.244,2.254,2.254,0,0,0-.27.168.565.565,0,0,0-.2.236.839.839,0,0,0,.086-.081,2.241,2.241,0,0,1,.707-.446,1.881,1.881,0,0,0-.376.269l.078-.042c-.016.017-.037.037-.053.057a.212.212,0,0,0-.057.049.935.935,0,0,0-.254.394c.021-.037.049-.076.074-.113a1.376,1.376,0,0,1,.086-.113,1.567,1.567,0,0,1,.18-.207,2.389,2.389,0,0,1,.446-.335.227.227,0,0,0-.057.067,6.791,6.791,0,0,1,.724-.372c-.069.052-.2.1-.286.155l-.07.057a2.769,2.769,0,0,0,.258-.133,3.908,3.908,0,0,1,.838-.357,1.723,1.723,0,0,1,.679-.1,1.648,1.648,0,0,1,.466.114.653.653,0,0,1,.123.064,1.889,1.889,0,0,0-.568-.14,3.109,3.109,0,0,1,.924.345c-.069-.018-.172-.072-.249-.1a2.134,2.134,0,0,0-.266-.091,2.066,2.066,0,0,0-.6-.1,1.773,1.773,0,0,0,.229.054,7.815,7.815,0,0,1,1.284.419c.049.02.151.081.184.091a2.6,2.6,0,0,1-.262-.091,2.8,2.8,0,0,0-.891-.175,6.808,6.808,0,0,1,.912.2l-.531-.1a2.345,2.345,0,0,0-.589-.029,4.8,4.8,0,0,1,1.141.165c-.082,0-.2-.032-.294-.042s-.209-.025-.311-.029a2.949,2.949,0,0,0-.646.02,3.711,3.711,0,0,0-.8.229,2.25,2.25,0,0,1-.241.1.919.919,0,0,1,.213-.111,3.525,3.525,0,0,1,.45-.173c.061-.02.192-.042.241-.066a3.375,3.375,0,0,0-.5.1c.016-.007.008,0,.02-.012s0-.005.012-.015a1.8,1.8,0,0,0-.364.16c-.1.059-.294.207-.307.214a.3.3,0,0,0,.057-.076l-.241.14.286-.214a2.152,2.152,0,0,0-.2.123c-.074.042-.221.128-.282.175a1.262,1.262,0,0,1-.311.153,1.667,1.667,0,0,1,.159-.119l.155-.113a.711.711,0,0,0,.082-.059,2.555,2.555,0,0,1,.217-.182,1.931,1.931,0,0,1,.716-.37,1.671,1.671,0,0,0-.752.357l-.311.251c-.025.017-.045.04-.073.062a2.643,2.643,0,0,1-.233.175v-.032a.61.61,0,0,1-.143.109c.061-.106.254-.234.295-.357a1.037,1.037,0,0,0-.188.2c-.02.022-.041.037-.061.059a.988.988,0,0,1,.188-.33l.086-.091a.517.517,0,0,0-.208.219,1.734,1.734,0,0,0-.119.247c-.008.01-.008.007-.008.015s0,.01-.016.017l.037-.16a1.774,1.774,0,0,0-.073.212.705.705,0,0,1,.033-.209l-.041.052a1.339,1.339,0,0,1,.3-.439.9.9,0,0,0-.327.414c-.02.064-.025.135-.045.19l0-.118s0,0,0,0l-.037.086a.761.761,0,0,1,.1-.35.211.211,0,0,0-.073.086.783.783,0,0,0-.049.106,1.193,1.193,0,0,0-.049.251.393.393,0,0,1-.012-.141c-.021.015,0,0-.021.02a.429.429,0,0,0-.049.138l-.012-.086-.029.1a1.062,1.062,0,0,1,0-.2.309.309,0,0,0-.045.175.2.2,0,0,1-.016-.1l-.045.084c-.008.027-.016.059-.025.081a.46.46,0,0,1,.033-.187.552.552,0,0,0-.09.219.613.613,0,0,1,.045-.291c-.069.034-.057.241-.082.293l-.024-.086s0,0-.012.017l-.016.1-.029-.108a.537.537,0,0,0-.02.123.727.727,0,0,1-.029-.145c-.012.012,0,0-.012.022-.025.039-.025.091-.045.131l.008-.1-.012.015-.033.047Z" transform="translate(-616.114 -236.998)" fill="#3b5620" fill-rule="evenodd"/>
      <path id="Trazado_248451" data-name="Trazado 248451" d="M1032.1,408.874a.809.809,0,1,0,1.051.441A.81.81,0,0,0,1032.1,408.874Z" transform="translate(-609.771 -241.647)" fill="#839571" fill-rule="evenodd"/>
      <path id="Trazado_248452" data-name="Trazado 248452" d="M1032.718,410.37a.809.809,0,0,1-.613-1.5.8.8,0,0,1,.523-.032l-.061.017a.263.263,0,1,0,.344.143l-.012-.027a.775.775,0,0,1,.258.34.809.809,0,0,1-.437,1.057Z" transform="translate(-609.774 -241.645)" fill="#3b5620" fill-rule="evenodd"/>
      <path id="Trazado_248453" data-name="Trazado 248453" d="M1030.73,406.526a.318.318,0,0,1,.057.029,1.341,1.341,0,0,0-.192-.185.306.306,0,0,1,.1.059,1.128,1.128,0,0,1,.106.108c-.016-.054-.045-.081-.061-.13a.4.4,0,0,1,.09.138.578.578,0,0,0-.155-.274.53.53,0,0,1,.2.229.3.3,0,0,0-.025-.126.269.269,0,0,1,.065.126l.02-.069c0,.037,0,.049,0,.081a.654.654,0,0,0,.066-.412.527.527,0,0,1-.017.168.936.936,0,0,0-.057-.247c0,.059.029.131.029.2a.646.646,0,0,1-.008.182.872.872,0,0,0-.09-.37l0,.037a.862.862,0,0,1,.053.2c-.053-.111-.078-.219-.188-.283a1.2,1.2,0,0,1,.094.118c-.061-.039-.11-.133-.192-.121a1.17,1.17,0,0,1,.143.106c.045.04.115.111.115.177a.483.483,0,0,0-.409-.278.457.457,0,0,1,.209.116l0,.01c.008.059-.025-.049,0,.012a.43.43,0,0,1,.106.081.4.4,0,0,1,.049.069c0,.01.021.032.025.042a.06.06,0,0,1,0,.025v.012a.553.553,0,0,0-.258-.249.7.7,0,0,0-.294-.072h0l.07.015a.628.628,0,0,1,.45.286c-.008,0,0,0-.016-.012a.042.042,0,0,1-.008-.01,1.182,1.182,0,0,0-.163-.141.784.784,0,0,0-.2-.091.851.851,0,0,0-.417,0,1.59,1.59,0,0,1,.286,0,.538.538,0,0,1,.27.1.5.5,0,0,1-.1-.022,1.859,1.859,0,0,0-.765-.01,1.562,1.562,0,0,1,.421.032l-.078,0a.706.706,0,0,0,.07.017.7.7,0,0,1,.069.015.942.942,0,0,1,.4.2c-.037-.02-.082-.04-.118-.059s-.082-.037-.123-.052a1.773,1.773,0,0,0-.25-.081,1.841,1.841,0,0,0-.507-.049.142.142,0,0,1,.078.027,5.309,5.309,0,0,0-.732.059c.078.007.2-.017.29-.015l.086.007a1.665,1.665,0,0,1-.262.02,3.336,3.336,0,0,0-.81.133,1.351,1.351,0,0,0-.556.269,1.57,1.57,0,0,0-.282.335c-.029.047-.037.079-.062.119.07-.069.184-.316.348-.412a2.718,2.718,0,0,0-.495.769c.037-.052.086-.15.131-.214a2.373,2.373,0,0,1,.147-.214,2.2,2.2,0,1,1,.245-.227,6.883,6.883,0,0,0-.724,1.013c-.025.042-.07.143-.086.173.025-.025.115-.17.147-.214a2.239,2.239,0,0,1,.56-.606,6.231,6.231,0,0,0-.564.638l.34-.355a1.96,1.96,0,0,1,.417-.33,3.99,3.99,0,0,0-.748.727c.057-.045.135-.133.192-.187.073-.067.139-.126.213-.185a2.53,2.53,0,0,1,.487-.316,2.784,2.784,0,0,1,.716-.219,2.054,2.054,0,0,0,.233-.042.764.764,0,0,0-.213.018,2.809,2.809,0,0,0-.425.088c-.057.015-.168.064-.217.072a2.393,2.393,0,0,1,.425-.18h-.02c-.016,0,0,0-.02,0a1.259,1.259,0,0,1,.36-.054c.1,0,.323.025.335.022a.69.69,0,0,1-.082-.032l.258-.01-.327-.032a1.534,1.534,0,0,1,.213,0c.073,0,.229,0,.3,0a1.02,1.02,0,0,0,.311-.034,1.378,1.378,0,0,0-.188-.015l-.172-.015c-.033,0-.061,0-.09-.012a2.567,2.567,0,0,0-.262-.037,1.579,1.579,0,0,0-.724.056,1.354,1.354,0,0,1,.744-.086l.36.049a.574.574,0,0,1,.09.015c.086.01.176.025.266.027l-.012-.018,0,0a.715.715,0,0,0,.164.012c-.1-.059-.311-.064-.409-.148a1.16,1.16,0,0,1,.241.069c.029.007.053.012.078.02a.948.948,0,0,0-.315-.18l-.115-.035a.5.5,0,0,1,.274.076,1.409,1.409,0,0,1,.221.146.033.033,0,0,1,.012.01c.016.007.008,0,.02,0l-.114-.116c.02.025.151.1.172.14a.785.785,0,0,0-.139-.16l.057.025a1.321,1.321,0,0,0-.454-.215.861.861,0,0,1,.466.177c.049.042.094.1.139.136l-.07-.1a.012.012,0,0,1,.008,0l.069.052a.77.77,0,0,0-.262-.241.233.233,0,0,1,.1.037.523.523,0,0,1,.09.064,1.257,1.257,0,0,1,.172.182.513.513,0,0,0-.07-.123c.025,0,0-.005.029,0a.353.353,0,0,1,.11.091l-.041-.076.078.064c-.033-.071-.07-.1-.1-.165a.324.324,0,0,1,.123.123.248.248,0,0,0-.041-.094l.078.049c.02.017.045.039.065.059a.582.582,0,0,0-.127-.143c.078.025.119.084.188.14a.731.731,0,0,0-.188-.219c.069-.007.172.173.217.2l-.029-.084s0,0,.016.01l.07.072-.037-.106c.037.022.049.056.082.091a.568.568,0,0,0-.057-.133.076.076,0,0,1,.024.01c.037.022.065.064.1.089l-.057-.076c.016,0,0,0,.02,0l.045.025Z" transform="translate(-607.017 -239.972)" fill="#3b5620" fill-rule="evenodd"/>
      <path id="Trazado_248454" data-name="Trazado 248454" d="M1040.5,414.714a.816.816,0,0,1-.761-.512,16.143,16.143,0,0,1-.135-3.865.143.143,0,0,1,.188-.069.141.141,0,0,1,.065.185,18.145,18.145,0,0,0,.131,3.623c.237.466.573.395.986.256a.751.751,0,0,1,.368-.069.141.141,0,0,1,.106.165.137.137,0,0,1-.168.106h0a1.18,1.18,0,0,0-.217.059,1.794,1.794,0,0,1-.56.118Z" transform="translate(-614.463 -242.499)" fill="#3b5620"/>
      <path id="Trazado_248455" data-name="Trazado 248455" d="M1038.509,425.241c1.856-.01,1.783.052,3.079-.476.671-.274,1.513-.956.981-.2-1.447,2.056-4.1,1.4-4.06.678Z" transform="translate(-613.856 -250.754)" fill="#fff" fill-rule="evenodd"/>
      <path id="Trazado_248456" data-name="Trazado 248456" d="M118.576,468.231h30.553l1.107,12.74H115.993Z" transform="translate(-68.563 -276.768)" fill="#2f4419" fill-rule="evenodd"/>
      <path id="Trazado_248457" data-name="Trazado 248457" d="M308.306,549.448h-49.88v44.889h49.88Z" transform="translate(-152.754 -324.775)" fill="#00bac7"/>
      <path id="Trazado_248458" data-name="Trazado 248458" d="M199.916,597.92,46.493,597.5,60.729,480.659l153.423.424Z" transform="translate(-27.482 -284.114)" fill="#2f4419" fill-rule="evenodd"/>
      <path id="Trazado_248459" data-name="Trazado 248459" d="M203.745,603.579l-139.321-.384.313-112.928,139.321.387Z" transform="translate(-38.081 -289.793)" fill="#fff" fill-rule="evenodd"/>
      <path id="Trazado_248460" data-name="Trazado 248460" d="M103.188,492.888l.032-12.17-56.406-.155-.032,12.167-.022,8.143-.266,96.566,153.423.424.288-104.708Z" transform="translate(-27.482 -284.057)" fill="#bac4b1" fill-rule="evenodd"/>
      <path id="Trazado_248461" data-name="Trazado 248461" d="M226.621,595.658a98.859,98.859,0,0,1-27.147-3.726c-17.6-5.023-33.764-15.362-44.805-29.935,24.179-4.813,47.2-14.915,64.813-32.7a116.624,116.624,0,0,0,14.61-18.142l30.058.081-.214,77.818A110.477,110.477,0,0,1,226.621,595.658Z" transform="translate(-91.424 -302.138)" fill="#3b5620" fill-rule="evenodd"/>
      <path id="Trazado_248462" data-name="Trazado 248462" d="M185.2,484.891l.01-3.948Z" transform="translate(-109.468 -284.282)" fill="#886431" fill-rule="evenodd"/>
      <path id="Trazado_248463" data-name="Trazado 248463" d="M185.148,497.785v0l.02-7.182-.02,7.184Z" transform="translate(-109.44 -289.989)" fill="#d2d3d5" fill-rule="evenodd"/>
      <path id="Trazado_248464" data-name="Trazado 248464" d="M184.833,492.073c-.027-.362-.059-.72-.079-1.082a87.052,87.052,0,0,1,.012-10.048h.1l-.01,3.948-.02,7.182Z" transform="translate(-109.124 -284.282)" fill="#fbbfa8" fill-rule="evenodd"/>
      <path id="Trazado_248465" data-name="Trazado 248465" d="M421.7,728.554l.074-26.891Z" transform="translate(-249.262 -414.748)" fill="#886431" fill-rule="evenodd"/>
      <path id="Trazado_248466" data-name="Trazado 248466" d="M46.831,547.278l.182-66.715-.032,12.167-.022,8.143Z" transform="translate(-27.681 -284.057)" fill="#159d9a" fill-rule="evenodd"/>
      <path id="Trazado_248467" data-name="Trazado 248467" d="M54.688,547.463q-3.933,0-7.857-.185l.128-46.4.022-8.143.032-12.167,25.9.069c-.042.732-.086,1.461-.116,2.2a101.582,101.582,0,0,0,11.332,50.311,73.3,73.3,0,0,0,6.795,10.778c-4.971.988-9.989,1.757-15.022,2.317A190.043,190.043,0,0,1,54.688,547.463Z" transform="translate(-27.681 -284.057)" fill="#3b5620" fill-rule="evenodd"/>
      <path id="Trazado_248468" data-name="Trazado 248468" d="M46.566,682.852l.108-39.134Z" transform="translate(-27.525 -380.497)" fill="#159895" fill-rule="evenodd"/>
      <path id="Trazado_248469" data-name="Trazado 248469" d="M199.916,689.447l-153.423-.422L46.523,678l.108-39.134q3.919.185,7.857.185A190.043,190.043,0,0,0,75.7,637.82c5.033-.562,10.051-1.329,15.022-2.317,11.041,14.573,27.211,24.912,44.805,29.934a98.87,98.87,0,0,0,27.147,3.726,110.449,110.449,0,0,0,37.311-6.608l-.074,26.891Z" transform="translate(-27.482 -375.642)" fill="#2f4419" fill-rule="evenodd"/>
      <path id="Trazado_248470" data-name="Trazado 248470" d="M447.893,438.532c6.511-.988,8.722-.675,12.707,6.74s9.289,20.766,12.34,22.494c4.594,2.6,6.114,8.964,8,8.68s3.1.547,1.048,2.253-5.368,3.157-6.5,2.856-2.013-5.2-4.974-6.79-2.07-2.9-1.876-4.3-8.641-7.882-15.3-15.936c-4.069-4.919-6.164-8.168-6.477-11.112a7.746,7.746,0,0,1,1.028-4.882Z" transform="translate(-264.112 -258.973)" fill="#ffc19d" fill-rule="evenodd"/>
      <path id="Trazado_248471" data-name="Trazado 248471" d="M464.029,465.419c-1.511-3.838-3.029-10.166-4.456-15.975-2.029-8.254-4.153-10.213-5.5-11.1-1.627-.409-3.554-.222-6.186.175a7.727,7.727,0,0,0-1.028,4.882c.31,2.943,2.408,6.191,6.477,11.113a117.01,117.01,0,0,0,10.694,10.9Z" transform="translate(-264.107 -258.969)" fill="#f4a269" fill-rule="evenodd"/>
      <path id="Trazado_248472" data-name="Trazado 248472" d="M445.173,445.055s-1.733,13.072-3.347,14.4c-1.154.949-1.972,1.013-2.778-2.886S440.3,438.12,440.3,438.12Z" transform="translate(-259.408 -258.97)" fill="#3b5620" fill-rule="evenodd"/>
      <path id="Trazado_248473" data-name="Trazado 248473" d="M427.741,455.484l-16.032,2.694,9.052-12.978,6.888-1.4,4.131.952Z" transform="translate(-243.358 -262.325)" fill="#f09959" fill-rule="evenodd"/>
      <path id="Trazado_248474" data-name="Trazado 248474" d="M365.456,439.589c-5.688,10.208-1.8,16.7,5.112,17.358s17.828-.6,24.189-5.89,11.586-10.876,10.856-11.709-40.158.239-40.158.239Z" transform="translate(-214.4 -259.507)" fill="#f4a269" fill-rule="evenodd"/>
      <path id="Trazado_248475" data-name="Trazado 248475" d="M446.48,450.027c1.163-3.5,2.506-6.176,5.106-6.226,2.733-.049,4.417,1.373,4.532,5.844.138,5.326.328,22.962.081,30.8-.187,5.937,1.543,7.837,1.4,14.026-.111,4.663,4.86,2.307,2.94,4.725-1.321,1.661-5.25,1.116-7.663.811-2.149-.271,1.114-6.716-1.863-8.441-2.553-1.479-2.6-3.879-.991-5.7s.177-7.194-.895-10.955a83.148,83.148,0,0,1-3.84-16.734,21.269,21.269,0,0,1,1.193-8.153Z" transform="translate(-263.165 -262.327)" fill="#ffc19d" fill-rule="evenodd"/>
      <path id="Trazado_248476" data-name="Trazado 248476" d="M464.2,557.928a11.283,11.283,0,0,1-2.723.557c-1.792.059-2.329-1.912-2.45-4.589a12.844,12.844,0,0,0-3.544-7.517,1.3,1.3,0,0,1-.1.124c-1.612,1.816-1.563,4.217.991,5.7,2.974,1.726-.289,8.167,1.863,8.441,2.413.306,6.341.851,7.663-.81,1.247-1.573-.3-1.7-1.7-1.9Z" transform="translate(-268.529 -322.961)" fill="#3b5620" fill-rule="evenodd"/>
      <path id="Trazado_248477" data-name="Trazado 248477" d="M509.979,522.6a12.709,12.709,0,0,1-2.452,1.807c-1.789.922-3.445-.542-5.075-2.824-1.425-1.994-2.977-4.9-5.59-5.368a1.441,1.441,0,0,1-.032.155c-.616,2.371-1.459,4.959,1.972,5.013,4,.066,4.308,7.283,6.649,6.479,2.625-.9,6.928-2.329,7.332-4.424.384-1.979-1.262-1.338-2.8-.84Z" transform="translate(-293.34 -305.131)" fill="#3b5620" fill-rule="evenodd"/>
      <path id="Trazado_248478" data-name="Trazado 248478" d="M454.5,545.06s-2.612,2.731-2.373,3.864a43.441,43.441,0,0,1,1.18,6.213c.135,2.211.254,4.749.254,4.749s.939,0,1.015-.269.6-8.983.6-8.983l-.673-5.575Z" transform="translate(-267.237 -322.181)" fill="#3b5620" fill-rule="evenodd"/>
      <path id="Trazado_248479" data-name="Trazado 248479" d="M496.884,516.22s-1.119,3.652-.236,4.53,1.072,2.883,2.455,4.751,2.933,4.029,2.933,4.029.956-.456.882-.725-4.453-8.15-4.453-8.15Z" transform="translate(-293.365 -305.134)" fill="#3b5620" fill-rule="evenodd"/>
      <path id="Trazado_248480" data-name="Trazado 248480" d="M360.821,438.126s-2.639,10.832-.424,16.234c1.122,2.736,2.8,3.056,9.693,2.888,6.686-.162,15.115-.315,17.38-.421,2.824-.163,5.932,3.031,5.932,3.031s-1.972-7.99-.629-14.44,3.515-6.886,3.515-6.886l-2.886-.406H360.821Z" transform="translate(-212.505 -258.973)" fill="#30451b" fill-rule="evenodd"/>
      <path id="Trazado_248481" data-name="Trazado 248481" d="M380.213,287.112s-1.585,10.324-1.871,14.371c-.143,2.036-.35,3.669.929,5.037,0,0-3.184.311-4.266-.572a2.963,2.963,0,0,0,.407.626s-3.561.13-5.033-.983c-2.233-1.511-.757-31.541,9.957-29.069,0,0,9.883-.838,9.1,8.855.165,11.517,1.092,21.452,1.863,23.455-1.111.636-3.8-1.457-4.128-2.373-.293-.813-.456-1.757-.539-2a22.873,22.873,0,0,0,.512,2.955s-3.993-.453-5.7-1.74S379.725,289.116,380.213,287.112Z" transform="translate(-218.401 -163.365)" fill="#3b5620" fill-rule="evenodd"/>
      <path id="Trazado_248482" data-name="Trazado 248482" d="M377.686,314.884c.032-.119.062-.229.089-.34a8.355,8.355,0,0,1-.266-3.414c-.966-.85-3.053-.123-4.821.417-.771,7.113-.764,14.314-.335,14.846.89,1.114,3.041.986,3.041.986a3.59,3.59,0,0,1-.247-.626c.653.882,2.578.572,2.578.572-.774-1.371-.648-3-.56-5.04.074-1.745.294-4.655.523-7.4Z" transform="translate(-219.923 -183.677)" fill="#3b5620" fill-rule="evenodd"/>
      <path id="Trazado_248483" data-name="Trazado 248483" d="M389.987,328.943H368.723c1.523-3.813,3.7-6.568,5.355-6.906.88-.232,2.376-3.857,2.356-8.993l.4.518,6.676,1.321s-.148,2.1-.155,4.084c0,1.651.084,3.327.458,3.524.478.045.92.133.92.133a17.173,17.173,0,0,1,5.254,6.322Z" transform="translate(-217.95 -185.038)" fill="#ffc19d" fill-rule="evenodd"/>
      <path id="Trazado_248484" data-name="Trazado 248484" d="M395.241,315.625s-.15,2.1-.155,4.081c-3.739-.1-5.713-3.512-6.521-5.4Z" transform="translate(-229.678 -185.783)" fill="#f08261" fill-rule="evenodd"/>
      <path id="Trazado_248485" data-name="Trazado 248485" d="M386.166,295.194c-.007-5.508-1.151-9.2,4.493-9.526s6.743,1.775,7.194,3.613a24.284,24.284,0,0,1-.518,8.478C395.378,304.882,386.171,298.778,386.166,295.194Z" transform="translate(-228.201 -168.837)" fill="#ffc19d" fill-rule="evenodd"/>
      <path id="Trazado_248486" data-name="Trazado 248486" d="M466.13,387.6s2.948-2.408,4.007-2.42,3.071-.539,2.992-.2-1.774.794-1.484.954,2.755-.5,3.443-.106,2.3,2.038,1.005,2.753-5.19,1.853-6.2,1.723-3.286-.293-3.286-.293l-.485-2.411Z" transform="translate(-275.525 -227.495)" fill="#ffc19d" fill-rule="evenodd"/>
      <path id="Trazado_248487" data-name="Trazado 248487" d="M381.825,357.635c-.054,10.44,1.531,14.918,1.531,14.918A29.486,29.486,0,0,1,362.8,373.81c-.131-.039-9.242-2.119-9.242-2.119.187-.424,1.848-7.458,2.031-7.847,2.356-5.06,4.145-7.281,4.426-8.836a33.108,33.108,0,0,0,.271-8.744,70.007,70.007,0,0,0-2.709-13.732,70.792,70.792,0,0,0,9.055-3.1,7.07,7.07,0,0,0,4.885,1.811c2.223-.047,2.945-1,2.829-2.038,2.368,1.319,4.259,2.563,4.259,2.563,2.013,3.5,6.1,6.9,6.393,12.261.074,1.319-3.177,13.309-3.177,13.6Z" transform="translate(-208.986 -194.593)" fill="#afc797" fill-rule="evenodd"/>
      <path id="Trazado_248488" data-name="Trazado 248488" d="M384.239,329.853A15.882,15.882,0,0,0,387.6,331.4a6.721,6.721,0,0,0,3.258.3,3.191,3.191,0,0,0,2.2-1.511,3.816,3.816,0,0,0,.35-.8l-.887-.274a2.869,2.869,0,0,1-.264.6,2.28,2.28,0,0,1-1.582,1.075,5.789,5.789,0,0,1-2.8-.276,14.92,14.92,0,0,1-3.16-1.454l-.473.8Z" transform="translate(-227.12 -194.5)" fill="#3b5620" fill-rule="evenodd"/>
      <path id="Trazado_248489" data-name="Trazado 248489" d="M364.938,374.567s-1.336,4.823-5.954,4.209c-9.254-1.442-7.835-1.614-6.758-5.207,2.97-9.92,3.712-23.862,5.444-31.928.485-2.26,3.758-2.994,3.882-4.345l3.832-7.436s5.715,12.825,6.021,16.057-6.464,28.653-6.464,28.653Z" transform="translate(-207.734 -194.978)" fill="#2f4419" fill-rule="evenodd"/>
      <path id="Trazado_248490" data-name="Trazado 248490" d="M362.841,378.763c-.207,5.237-2.038,14.164-9.395,18.09-.027.015-.059.03-.086.042,2.972-9.92,2.933-19.438,4.668-27.5,3.956-.823,4.929,6.491,4.816,9.375Z" transform="translate(-208.869 -218.306)" fill="#3b5620" fill-rule="evenodd"/>
      <path id="Trazado_248491" data-name="Trazado 248491" d="M353.417,420.461s3.3-.712,4.148.229,1.324,2.44.476,2.965-3.3-.919-4.182-.335c-.631.417-.833,1.479-1.466,1.107s-1.3-2.8-1.3-2.8l2.329-1.163Z" transform="translate(-207.526 -248.379)" fill="#ffc19d" fill-rule="evenodd"/>
      <path id="Trazado_248492" data-name="Trazado 248492" d="M347.633,329.854s-8.9.389-11.046,2.378-14.955,17.345-15.169,21.373,11.229,15.465,11.229,15.465,3.177-.766,4.554-2.765c0,0-7.1-12.656-6.672-13.208s12.446-10.4,13.429-8.217C344.809,346.766,347.633,329.854,347.633,329.854Z" transform="translate(-189.986 -194.974)" fill="#2f4419" fill-rule="evenodd"/>
      <path id="Trazado_248493" data-name="Trazado 248493" d="M430.565,353.393s-10.166,3.391-11.438,3.108-3.086-14.06-4.067-18.782c-1.264-6.082-6.085-7.292-6.085-7.292L404.4,329.2s5.235,12.932,5.39,15.549c.141,2.393.54,25.121.606,28.986h6.945c-.491-.616-1.109-2.519-1.5-7.852,3.608-.616,15.209-6.494,15.209-6.494,1.8-2.827-.5-6-.5-6Z" transform="translate(-239.04 -194.59)" fill="#2f4419" fill-rule="evenodd"/>
      <path id="Trazado_248494" data-name="Trazado 248494" d="M408.36,285.354c4.7,2.755,3.219,4.631,4.434,7.132,0,0,1.409-4.84-.8-7.507-2.337-2.835-3.64.375-3.64.375Z" transform="translate(-241.378 -167.758)" fill="#3b5620" fill-rule="evenodd"/>
      <path id="Trazado_248495" data-name="Trazado 248495" d="M412.234,284.773c-.624-.293-1.055-.231-1.3.18a2.992,2.992,0,0,0,1.385,2.186A3.834,3.834,0,0,1,412.234,284.773Z" transform="translate(-242.902 -168.22)" fill="#3b5620" fill-rule="evenodd"/>
      <path id="Trazado_248496" data-name="Trazado 248496" d="M394.146,277.227q1.235-.344,1.07-1.222a3.724,3.724,0,0,0-3.071-.931,4.777,4.777,0,0,1,2,2.151Z" transform="translate(-231.794 -162.567)" fill="#3b5620" fill-rule="evenodd"/>
      <path id="Trazado_248497" data-name="Trazado 248497" d="M390.7,281.229s-2.6,6.943-6.592,7.97-5.725-.042-5.725-.042a11.319,11.319,0,0,0,3.7-6.679S388.743,277.921,390.7,281.229Z" transform="translate(-223.661 -165.521)" fill="#3b5620" fill-rule="evenodd"/>
      <path id="Trazado_248498" data-name="Trazado 248498" d="M380.365,289.551a5.348,5.348,0,0,1-2.652-.52l-.269-.165.247-.2a11.173,11.173,0,0,0,3.616-6.536l.015-.1.079-.054c.15-.1,3.675-2.492,6.4-2.492a2.735,2.735,0,0,1,2.541,1.311l.054.091-.037.1c-.108.288-2.689,7.063-6.743,8.106a13.154,13.154,0,0,1-3.246.453Zm-2.13-.769a6.1,6.1,0,0,0,2.13.325,12.71,12.71,0,0,0,3.135-.439c3.576-.922,6.063-6.884,6.4-7.734a2.312,2.312,0,0,0-2.1-1c-2.369,0-5.528,2.009-6.065,2.361A11.518,11.518,0,0,1,378.235,288.783Z" transform="translate(-223.105 -165.205)" fill="#3b5620"/>
      <path id="Trazado_248499" data-name="Trazado 248499" d="M384.882,300q1.408-1.445,2.494-.559a5.874,5.874,0,0,1-1.025,4.951Q386.6,302.955,384.882,300Z" transform="translate(-227.501 -176.799)" fill="#3b5620" fill-rule="evenodd"/>
      <path id="Trazado_248500" data-name="Trazado 248500" d="M414.855,290.5q.765-2.847,1.587-1.676a24.364,24.364,0,0,1-.106,8.631A23.854,23.854,0,0,0,414.855,290.5Z" transform="translate(-245.218 -170.522)" fill="#3b5620" fill-rule="evenodd"/>
      <path id="Trazado_248501" data-name="Trazado 248501" d="M403.873,286.406c-.668-1.849,1.264-1.735,2.159-1.41a24.373,24.373,0,0,1,4.843,7.147C409.224,290.717,403.7,288.043,403.873,286.406Z" transform="translate(-238.645 -168.347)" fill="#3b5620" fill-rule="evenodd"/>
      <path id="Trazado_248502" data-name="Trazado 248502" d="M396.818,276.772a1.281,1.281,0,0,1-.417-1.222q.554-1.187,1.2-.929A5.374,5.374,0,0,0,396.818,276.772Z" transform="translate(-234.306 -162.299)" fill="#3b5620" fill-rule="evenodd"/>
      <path id="Trazado_248503" data-name="Trazado 248503" d="M398.493,335.114c.508-.089,1.025.441,1.151,1.181s-.182,1.407-.693,1.5-1.025-.441-1.154-1.181.182-1.407.693-1.5Z" transform="translate(-235.119 -198.078)" fill="#3b5620" fill-rule="evenodd"/>
      <path id="Trazado_248504" data-name="Trazado 248504" d="M400.3,340.658c.316-.054.631.271.71.727s-.113.87-.426.922-.631-.271-.709-.725S399.987,340.712,400.3,340.658Z" transform="translate(-236.354 -201.357)" fill="#3b5620" fill-rule="evenodd"/>
      <path id="Trazado_248505" data-name="Trazado 248505" d="M401.122,344.119c.276-.047.554.239.624.638s-.1.764-.375.808-.554-.239-.623-.636S400.846,344.166,401.122,344.119Z" transform="translate(-236.87 -203.403)" fill="#3b5620" fill-rule="evenodd"/>
      <path id="Trazado_248506" data-name="Trazado 248506" d="M397.27,302.7c-2.072-.37-1.8-.321-3.317.742a2.237,2.237,0,0,1,2.489-1.338C396.95,302.162,397.036,302.135,397.27,302.7Z" transform="translate(-232.863 -178.555)" fill="#3b5620" fill-rule="evenodd"/>
      <path id="Trazado_248507" data-name="Trazado 248507" d="M398.674,304.814c-.214.032-.421-.175-.466-.463s.091-.55.3-.581.422.175.466.463A.475.475,0,0,1,398.674,304.814Z" transform="translate(-235.373 -179.554)" fill="#3b5620" fill-rule="evenodd"/>
      <path id="Trazado_248508" data-name="Trazado 248508" d="M406.785,301.549c1.772-.966,1.54-.838,3.231-.274a2.084,2.084,0,0,0-2.654-.54c-.441.209-.527.209-.577.816Z" transform="translate(-240.448 -177.611)" fill="#3b5620" fill-rule="evenodd"/>
      <path id="Trazado_248509" data-name="Trazado 248509" d="M409.506,303.59c.219,0,.392-.244.387-.537s-.187-.525-.407-.52-.392.244-.387.537S409.286,303.6,409.506,303.59Z" transform="translate(-241.816 -178.825)" fill="#3b5620" fill-rule="evenodd"/>
      <path id="Trazado_248510" data-name="Trazado 248510" d="M403.807,309.271a.155.155,0,0,1-.025-.308l.463-.072c.219-.034.375-.069.422-.133s.037-.175,0-.385a3.694,3.694,0,0,0-.187-.567,8.273,8.273,0,0,1-.463-1.567.154.154,0,0,1,.123-.18.146.146,0,0,1,.18.123,8.228,8.228,0,0,0,.449,1.513,3.928,3.928,0,0,1,.2.621.793.793,0,0,1-.05.619.886.886,0,0,1-.626.261l-.464.071H403.8Z" transform="translate(-238.596 -180.907)" fill="#3b5620"/>
      <path id="Trazado_248511" data-name="Trazado 248511" d="M400.956,316.926c1.294.187,2.531-.1,2.509.283A4.751,4.751,0,0,1,400.956,316.926Z" transform="translate(-237.002 -187.333)" fill="#fff" fill-rule="evenodd"/>
      <path id="Trazado_248512" data-name="Trazado 248512" d="M409.807,302.557c-.04,0-.059.1-.042.209s.064.193.1.188.059-.1.042-.21S409.844,302.552,409.807,302.557Z" transform="translate(-242.206 -178.839)" fill="#afc797" fill-rule="evenodd"/>
      <path id="Trazado_248513" data-name="Trazado 248513" d="M399.259,303.9c-.039,0-.059.1-.042.207s.061.192.1.187.059-.1.042-.21S399.3,303.893,399.259,303.9Z" transform="translate(-235.971 -179.633)" fill="#afc797" fill-rule="evenodd"/>
      <path id="Trazado_248514" data-name="Trazado 248514" d="M399.669,282.157s-1.856,7.271-6.891,9.6c0,0,5.037-4.466,5.464-9.267S399.669,282.157,399.669,282.157Z" transform="translate(-232.168 -165.663)" fill="#3b5620" fill-rule="evenodd"/>
      <path id="Trazado_248515" data-name="Trazado 248515" d="M568.038,43.84a6.326,6.326,0,0,1,.87-7.127,6.48,6.48,0,0,1,.87-.816,6.555,6.555,0,0,1,.87-.564,6.108,6.108,0,0,1,.87-.387,6.036,6.036,0,0,1,.87-.242,5.949,5.949,0,0,1,.87-.113c.131-.007.261-.012.392-.012.162,0,.32,0,.476.015a6.366,6.366,0,0,1,1.74.38,6.371,6.371,0,0,1,2.61,1.831,6.351,6.351,0,0,1,.87,1.328,6.335,6.335,0,0,1,0,5.543,6.414,6.414,0,0,1-.87,1.328,6.25,6.25,0,0,1-.87.843,6.1,6.1,0,0,1-.87.584,5.954,5.954,0,0,1-.87.4,6.772,6.772,0,0,1-.87.254,6.317,6.317,0,0,1-.87.126c-.158.012-.316.017-.476.017q-.2,0-.392-.015a5.993,5.993,0,0,1-.87-.113,6.392,6.392,0,0,1-1.74-.631,6.333,6.333,0,0,1-.87-.567,6.8,6.8,0,0,1-.87-.813,6.438,6.438,0,0,1-.87-1.259Z" transform="translate(-335.338 -20.439)" fill="#cfd9c5" fill-rule="evenodd"/>
      <path id="Trazado_248516" data-name="Trazado 248516" d="M545.567,98.041A6.389,6.389,0,0,1,545.481,97a6.321,6.321,0,0,1,1.827-4.443,6.377,6.377,0,0,1,.87-.737,6.213,6.213,0,0,1,1.74-.86,5.97,5.97,0,0,1,.87-.207,6.79,6.79,0,0,1,.87-.081h.16a6.268,6.268,0,0,1,1.58.195,6.554,6.554,0,0,1,.87.293,6.144,6.144,0,0,1,.87.446,6.425,6.425,0,0,1,.87.646,6.533,6.533,0,0,1,.87.939,6.44,6.44,0,0,1,.87,1.577,6.326,6.326,0,0,1-1.74,6.974,6.607,6.607,0,0,1-.87.646,6.485,6.485,0,0,1-.87.446,6.138,6.138,0,0,1-.87.293,5.98,5.98,0,0,1-.87.16,6.162,6.162,0,0,1-.71.037h-.16a6.3,6.3,0,0,1-.87-.081,6.5,6.5,0,0,1-.87-.207,6.187,6.187,0,0,1-.87-.348,6.294,6.294,0,0,1-.87-.513,6.334,6.334,0,0,1-1.74-1.836,6.281,6.281,0,0,1-.87-2.3Z" transform="translate(-322.43 -53.592)" fill="#cfd9c5" fill-rule="evenodd"/>
      <path id="Trazado_248517" data-name="Trazado 248517" d="M430.093,43.481a6.337,6.337,0,0,1,1.74-7.448,6.276,6.276,0,0,1,1.74-1.028,6.472,6.472,0,0,1,.87-.271,6.271,6.271,0,0,1,.87-.138c.187-.015.375-.025.564-.025h37.978a5.584,5.584,0,0,1,.577.027,6.34,6.34,0,0,1,.87.14,5.834,5.834,0,0,1,.87.271,6.443,6.443,0,0,1,.87.421,6.242,6.242,0,0,1,.87.609,6.411,6.411,0,0,1,.87.885,6.317,6.317,0,0,1,.87,6.524,6.187,6.187,0,0,1-.87,1.427,6.256,6.256,0,0,1-.87.882,6.1,6.1,0,0,1-.87.609,6.172,6.172,0,0,1-.87.424,6.321,6.321,0,0,1-1.74.412c-.19.017-.382.027-.577.027H435.877c-.19,0-.379-.01-.564-.027a6.718,6.718,0,0,1-.87-.136,6.141,6.141,0,0,1-.87-.274,6.346,6.346,0,0,1-1.74-1.025,6.383,6.383,0,0,1-1.74-2.292Z" transform="translate(-253.9 -20.435)" fill="#cfd9c5" fill-rule="evenodd"/>
      <path id="Trazado_248518" data-name="Trazado 248518" d="M298.875,98.311a6.391,6.391,0,0,1,0-2.593,6.327,6.327,0,0,1,1.74-3.2,6.448,6.448,0,0,1,.87-.725,6.6,6.6,0,0,1,.87-.505,6.3,6.3,0,0,1,.87-.338,6.109,6.109,0,0,1,.87-.2,5.977,5.977,0,0,1,.87-.074h63.093a3.111,3.111,0,0,1,.372.025l.212.025h11.172c.195-.017.384-.049.587-.049a1.373,1.373,0,0,1,.2.015c.1.012.195.03.3.037h4.426c.165,0,.33.007.49.02a6.74,6.74,0,0,1,.87.131,6.829,6.829,0,0,1,.87.261,6.678,6.678,0,0,1,.87.412,6.308,6.308,0,0,1,1.74,1.466,6.275,6.275,0,0,1,.87,1.38,6.25,6.25,0,0,1,0,5.222,6.314,6.314,0,0,1-3.48,3.258,5.83,5.83,0,0,1-.87.261,6.615,6.615,0,0,1-.87.13c-.163.015-.325.02-.49.02h-4.475c-.084,0-.165.017-.247.027a1.827,1.827,0,0,1-.2.015c-.18,0-.352-.029-.53-.042H368.585l-.155.015a3.133,3.133,0,0,1-.372.027H304.965a6.3,6.3,0,0,1-.87-.074,6.419,6.419,0,0,1-.87-.2,6.281,6.281,0,0,1-.87-.34,6.18,6.18,0,0,1-.87-.5,6.342,6.342,0,0,1-2.61-3.909Z" transform="translate(-176.584 -53.6)" fill="#cfd9c5" fill-rule="evenodd"/>
      <path id="Trazado_248519" data-name="Trazado 248519" d="M593.224,196.652h56.591a1.628,1.628,0,1,0,0-3.256H593.224a1.628,1.628,0,1,0,0,3.256Zm80.847-13.474h6.738a1.628,1.628,0,1,0,0-3.255h-6.735a1.628,1.628,0,1,0,0,3.255Zm-10.78,13.474h5.39a1.628,1.628,0,1,0,0-3.256h-5.39a1.628,1.628,0,0,0,0,3.256ZM604,183.178h59.289a1.628,1.628,0,1,0,0-3.255H604a1.628,1.628,0,1,0,0,3.255Z" transform="translate(-349.688 -106.351)" fill="#afc797" fill-rule="evenodd"/>
      <path id="Trazado_248520" data-name="Trazado 248520" d="M898.281,152.473h56.592a1.628,1.628,0,1,0,0-3.256H898.281a1.628,1.628,0,0,0,0,3.256ZM979.129,139h6.739a1.628,1.628,0,1,0,0-3.256h-6.735a1.628,1.628,0,0,0,0,3.256ZM968.35,152.473h5.389a1.628,1.628,0,1,0,0-3.256H968.35a1.628,1.628,0,0,0,0,3.256ZM909.06,139h59.29a1.628,1.628,0,0,0,0-3.256H909.06a1.628,1.628,0,1,0,0,3.256Z" transform="translate(-530.006 -80.237)" fill="#afc797" fill-rule="evenodd"/>
      <path id="Trazado_248521" data-name="Trazado 248521" d="M931.938,316.571H988.53a1.628,1.628,0,0,0,0-3.256H931.938a1.628,1.628,0,1,0,0,3.256Zm80.848-13.476h6.739a1.628,1.628,0,0,0,0-3.256h-6.735a1.628,1.628,0,1,0,0,3.256Zm-10.779,13.476h5.389a1.628,1.628,0,0,0,0-3.256h-5.389a1.628,1.628,0,1,0,0,3.256Zm-59.292-13.476h59.292a1.628,1.628,0,0,0,0-3.256H942.718a1.628,1.628,0,1,0,0,3.256Z" transform="translate(-549.899 -177.233)" fill="#afc797" fill-rule="evenodd"/>
    </g>
  </g>
</svg>
