<svg xmlns="http://www.w3.org/2000/svg" width="310.779" height="327.535" viewBox="0 0 310.779 327.535">
  <g id="Grupo_1066770" data-name="Grupo 1066770" transform="translate(-265 -5025.732)">
    <g id="Group_10_3_" data-name="Group 10 (3)" transform="translate(347.998 4905.727)">
      <path id="Trazado_248522" data-name="Trazado 248522" d="M376.763,375.766a.723.723,0,0,1-.013-1.446c.714-.013,1.437-.035,2.147-.065a.724.724,0,1,1,.061,1.446c-.722.031-1.456.053-2.181.066h-.013Zm-4.217-.024h-.021c-.727-.021-1.462-.052-2.185-.09a.723.723,0,0,1,.077-1.444c.711.039,1.434.068,2.15.089a.723.723,0,0,1-.02,1.446Zm10.587-.32a.723.723,0,0,1-.064-1.443c.711-.064,1.432-.138,2.14-.219a.723.723,0,0,1,.166,1.437c-.72.082-1.451.158-2.176.223A.563.563,0,0,1,383.133,375.422Zm-16.957-.1a.466.466,0,0,1-.074,0c-.722-.073-1.453-.156-2.174-.248a.723.723,0,0,1,.182-1.434c.707.089,1.427.171,2.138.244a.723.723,0,0,1-.073,1.442Zm23.29-.707a.723.723,0,0,1-.116-1.437c.706-.115,1.419-.242,2.118-.374a.723.723,0,0,1,.27,1.421c-.711.135-1.436.263-2.154.381A.715.715,0,0,1,389.466,374.619Zm-29.614-.167a.825.825,0,0,1-.126-.011c-.716-.126-1.44-.263-2.149-.406a.723.723,0,0,1,.285-1.419c.7.141,1.409.275,2.114.4a.723.723,0,0,1-.125,1.436Zm35.872-1.095a.723.723,0,0,1-.169-1.426c.694-.167,1.4-.345,2.084-.528a.723.723,0,1,1,.373,1.4c-.7.187-1.415.368-2.12.537a.747.747,0,0,1-.17.02Zm-42.115-.239a.7.7,0,0,1-.178-.022c-.7-.178-1.414-.366-2.114-.561a.723.723,0,0,1,.389-1.393c.689.192,1.388.378,2.079.552a.724.724,0,0,1-.177,1.425Zm48.265-1.478a.723.723,0,0,1-.22-1.412c.678-.216,1.365-.446,2.041-.679a.723.723,0,0,1,.475,1.367c-.687.239-1.385.471-2.075.691a.712.712,0,0,1-.22.034Zm-54.395-.31a.724.724,0,0,1-.228-.037c-.693-.23-1.391-.471-2.074-.718a.723.723,0,1,1,.49-1.36c.673.243,1.359.479,2.039.706a.723.723,0,0,1-.227,1.409Zm60.4-1.853a.724.724,0,0,1-.271-1.395c.659-.265,1.324-.543,1.978-.824a.723.723,0,1,1,.572,1.328c-.665.287-1.341.568-2.011.838a.711.711,0,0,1-.269.052Zm-66.4-.385a.7.7,0,0,1-.278-.056c-.671-.279-1.348-.57-2.014-.866a.723.723,0,1,1,.589-1.321c.654.292,1.321.579,1.981.853a.723.723,0,0,1-.277,1.391Zm72.218-2.205a.723.723,0,0,1-.318-1.372c.641-.314,1.284-.64,1.914-.967a.723.723,0,0,1,.667,1.283c-.641.333-1.3.665-1.946.983a.714.714,0,0,1-.317.074Zm-78.031-.466a.717.717,0,0,1-.325-.078c-.649-.328-1.3-.667-1.944-1.011a.723.723,0,1,1,.683-1.275c.63.338,1.274.673,1.912.995a.724.724,0,0,1-.326,1.369Zm83.649-2.544a.722.722,0,0,1-.365-1.347c.616-.359,1.235-.731,1.84-1.105a.723.723,0,1,1,.759,1.231c-.616.379-1.246.758-1.871,1.122A.722.722,0,0,1,419.319,363.877Zm-89.249-.544a.717.717,0,0,1-.371-.1c-.624-.374-1.251-.761-1.864-1.149a.722.722,0,1,1,.773-1.221c.6.382,1.22.763,1.834,1.13a.724.724,0,0,1-.373,1.344Zm94.636-2.867a.724.724,0,0,1-.41-1.32c.588-.4,1.178-.819,1.757-1.237a.723.723,0,0,1,.847,1.173c-.588.425-1.189.848-1.786,1.257a.713.713,0,0,1-.409.126Zm-99.993-.618a.721.721,0,0,1-.415-.131c-.593-.418-1.19-.849-1.774-1.282a.723.723,0,0,1,.861-1.161c.574.426,1.161.849,1.746,1.26a.723.723,0,0,1-.417,1.314Zm105.122-3.176a.723.723,0,0,1-.451-1.288c.559-.446,1.119-.9,1.664-1.36a.723.723,0,0,1,.93,1.108c-.555.464-1.124.93-1.692,1.382a.719.719,0,0,1-.45.158Zm-110.21-.687a.722.722,0,0,1-.458-.163c-.563-.461-1.126-.934-1.676-1.407a.723.723,0,0,1,.943-1.1c.54.464,1.095.93,1.649,1.383a.723.723,0,0,1-.458,1.283Zm115.053-3.47a.722.722,0,0,1-.491-1.254c.525-.484,1.051-.982,1.562-1.478a.723.723,0,0,1,1.007,1.039c-.52.5-1.055,1.01-1.588,1.5a.719.719,0,0,1-.491.192Zm-119.845-.751a.723.723,0,0,1-.5-.2c-.527-.5-1.055-1.011-1.57-1.523a.723.723,0,1,1,1.02-1.026c.507.5,1.026,1.008,1.545,1.5a.723.723,0,0,1-.5,1.247Zm124.377-3.747a.722.722,0,0,1-.528-1.217c.49-.521.978-1.056,1.452-1.588a.723.723,0,1,1,1.079.962c-.482.54-.978,1.083-1.475,1.613a.722.722,0,0,1-.528.228Zm-128.852-.807a.721.721,0,0,1-.533-.235c-.488-.535-.978-1.084-1.454-1.631a.723.723,0,1,1,1.09-.95c.469.539.95,1.079,1.432,1.6a.724.724,0,0,1-.535,1.212ZM443.4,343.2a.723.723,0,0,1-.563-1.178c.45-.555.9-1.124,1.334-1.689a.723.723,0,0,1,1.145.883c-.443.576-.9,1.153-1.356,1.717a.722.722,0,0,1-.563.268Zm-137.179-.855a.721.721,0,0,1-.568-.275c-.449-.569-.9-1.152-1.332-1.732a.723.723,0,0,1,1.157-.868c.427.571.869,1.144,1.311,1.7a.722.722,0,0,1-.567,1.17Zm141.017-4.252a.724.724,0,0,1-.593-1.137c.407-.586.815-1.186,1.209-1.783a.723.723,0,1,1,1.207.8c-.4.606-.813,1.217-1.229,1.813a.723.723,0,0,1-.594.31ZM302.456,337.2a.724.724,0,0,1-.6-.317c-.406-.6-.811-1.211-1.2-1.822a.723.723,0,0,1,1.217-.781c.386.6.784,1.2,1.183,1.793a.723.723,0,0,1-.192,1,.716.716,0,0,1-.4.125ZM450.7,332.719a.723.723,0,0,1-.621-1.092c.365-.616.727-1.245,1.076-1.867a.723.723,0,1,1,1.262.707c-.354.633-.722,1.271-1.095,1.9A.722.722,0,0,1,450.7,332.719ZM299.073,331.8a.725.725,0,0,1-.628-.362c-.362-.628-.72-1.269-1.067-1.9a.723.723,0,1,1,1.27-.691c.34.625.693,1.255,1.05,1.872a.724.724,0,0,1-.626,1.084ZM453.76,327.1a.723.723,0,0,1-.647-1.046c.318-.64.634-1.292.938-1.941a.724.724,0,1,1,1.311.613c-.309.661-.629,1.324-.953,1.974a.722.722,0,0,1-.647.4Zm-157.667-.939a.721.721,0,0,1-.652-.409c-.316-.652-.626-1.316-.925-1.974a.723.723,0,1,1,1.316-.6c.293.647.6,1.3.909,1.943a.723.723,0,0,1-.651,1.038ZM456.4,321.278a.716.716,0,0,1-.275-.055.724.724,0,0,1-.4-.943c.272-.662.539-1.337.793-2.006a.723.723,0,0,1,1.351.515c-.259.681-.531,1.367-.807,2.039a.722.722,0,0,1-.669.449Zm-162.871-.945a.724.724,0,0,1-.673-.456c-.267-.674-.529-1.361-.78-2.043a.723.723,0,1,1,1.357-.5c.247.67.5,1.347.767,2.009a.723.723,0,0,1-.673.99Zm165.079-5.063a.732.732,0,0,1-.224-.036.723.723,0,0,1-.463-.911c.222-.677.437-1.368.642-2.053a.723.723,0,0,1,1.385.414c-.208.7-.429,1.4-.653,2.087A.724.724,0,0,1,458.609,315.27ZM291.4,314.316a.723.723,0,0,1-.69-.507c-.218-.691-.429-1.4-.629-2.1a.723.723,0,1,1,1.391-.4c.2.687.4,1.38.618,2.061a.724.724,0,0,1-.69.939Zm168.97-5.184a.723.723,0,0,1-.7-.9c.171-.693.336-1.4.49-2.094a.723.723,0,1,1,1.413.312c-.156.708-.324,1.425-.5,2.129a.723.723,0,0,1-.7.549Zm-170.657-.974a.722.722,0,0,1-.7-.558c-.166-.707-.325-1.425-.474-2.135a.723.723,0,1,1,1.416-.3c.146.7.3,1.405.466,2.1a.723.723,0,0,1-.539.869A.731.731,0,0,1,289.71,308.158Zm171.961-5.277a.777.777,0,0,1-.122-.011.724.724,0,0,1-.592-.835c.119-.7.232-1.417.336-2.124a.723.723,0,1,1,1.432.208c-.1.72-.219,1.446-.341,2.16A.723.723,0,0,1,461.671,302.881Zm-173.192-.989a.724.724,0,0,1-.714-.61c-.114-.715-.22-1.442-.316-2.164a.723.723,0,1,1,1.433-.191c.1.71.2,1.425.312,2.128a.723.723,0,0,1-.6.828A.675.675,0,0,1,288.479,301.893Zm174.036-5.34a.414.414,0,0,1-.07,0,.723.723,0,0,1-.65-.79c.069-.711.13-1.432.18-2.143a.724.724,0,0,1,1.444.1c-.052.723-.114,1.457-.183,2.179a.723.723,0,0,1-.719.654Zm-174.808-1a.723.723,0,0,1-.719-.662c-.061-.721-.114-1.454-.159-2.182a.723.723,0,0,1,1.443-.087c.044.715.1,1.437.157,2.146a.722.722,0,0,1-.66.781l-.063,0ZM462.9,290.181h-.017a.723.723,0,0,1-.706-.74c.017-.714.027-1.437.027-2.151a.757.757,0,0,1,0-.078.766.766,0,0,1,0-.078c0-.716-.012-1.44-.031-2.151a.723.723,0,0,1,1.446-.037c.019.723.029,1.458.03,2.187,0,.027,0,.053,0,.08s0,.052,0,.078c0,.726-.009,1.461-.026,2.187a.724.724,0,0,1-.723.706Zm-175.5-1a.723.723,0,0,1-.723-.714c-.005-.392-.008-.787-.008-1.176q0-.506.005-1.011a.723.723,0,0,1,.723-.715h.008a.723.723,0,0,1,.715.731c0,.332-.005.662-.005,1,0,.382,0,.772.008,1.157a.723.723,0,0,1-.714.732Zm.146-6.382H287.5a.724.724,0,0,1-.679-.764c.042-.724.094-1.459.155-2.181a.723.723,0,1,1,1.441.119c-.06.71-.11,1.433-.153,2.145A.723.723,0,0,1,287.541,282.8Zm175.143-1.322a.723.723,0,0,1-.721-.67c-.053-.714-.114-1.434-.184-2.143a.723.723,0,0,1,1.44-.142c.07.721.134,1.453.187,2.179a.724.724,0,0,1-.668.775Zm-174.539-5.034a.776.776,0,0,1-.1-.007.723.723,0,0,1-.622-.811c.094-.719.2-1.448.312-2.164a.723.723,0,1,1,1.429.224c-.111.706-.213,1.423-.308,2.13a.723.723,0,0,1-.716.629Zm173.84-1.311a.725.725,0,0,1-.715-.618c-.1-.706-.218-1.42-.34-2.124a.723.723,0,0,1,1.425-.247c.123.715.24,1.442.345,2.16a.725.725,0,0,1-.716.829Zm-172.777-4.984a.788.788,0,0,1-.147-.015.722.722,0,0,1-.561-.854c.147-.712.305-1.432.47-2.136a.723.723,0,0,1,1.409.328c-.162.692-.317,1.4-.462,2.1a.722.722,0,0,1-.707.577Zm171.617-1.3a.724.724,0,0,1-.706-.566c-.155-.7-.321-1.4-.493-2.094a.723.723,0,1,1,1.4-.35c.175.7.344,1.418.5,2.128a.725.725,0,0,1-.548.864.736.736,0,0,1-.158.017Zm-170.1-4.907a.724.724,0,0,1-.7-.921c.2-.7.409-1.4.625-2.1a.723.723,0,1,1,1.38.431c-.212.681-.419,1.375-.614,2.062a.723.723,0,0,1-.7.525Zm168.482-1.27a.724.724,0,0,1-.693-.515c-.206-.682-.422-1.372-.646-2.051a.723.723,0,1,1,1.375-.451c.227.691.449,1.393.657,2.086a.723.723,0,0,1-.484.9A.707.707,0,0,1,459.21,262.675ZM292.7,257.863a.74.74,0,0,1-.248-.044.723.723,0,0,1-.431-.927c.25-.682.512-1.372.779-2.051a.723.723,0,1,1,1.345.531c-.263.667-.521,1.345-.767,2.017a.724.724,0,0,1-.679.475Zm164.446-1.23a.723.723,0,0,1-.675-.465c-.255-.666-.523-1.339-.795-2a.723.723,0,0,1,1.337-.552c.276.671.548,1.355.808,2.033a.723.723,0,0,1-.417.934.706.706,0,0,1-.259.048Zm-162.028-4.7a.737.737,0,0,1-.3-.064.723.723,0,0,1-.361-.957c.3-.664.612-1.332.927-1.986a.723.723,0,1,1,1.3.629c-.31.643-.617,1.3-.911,1.954a.722.722,0,0,1-.659.426Zm159.532-1.17a.724.724,0,0,1-.656-.417c-.3-.646-.618-1.295-.935-1.93a.723.723,0,0,1,1.294-.646c.322.646.642,1.306.951,1.962a.724.724,0,0,1-.654,1.031Zm-156.689-4.559a.713.713,0,0,1-.344-.088.722.722,0,0,1-.291-.981c.346-.638.706-1.282,1.069-1.912a.723.723,0,0,1,1.254.72c-.357.62-.71,1.252-1.051,1.881a.723.723,0,0,1-.637.378ZM451.737,245.1a.722.722,0,0,1-.632-.369c-.349-.621-.71-1.247-1.074-1.859a.723.723,0,1,1,1.243-.739c.37.622.738,1.258,1.092,1.889a.723.723,0,0,1-.629,1.077Zm-150.522-4.4a.723.723,0,0,1-.609-1.113c.391-.612.8-1.226,1.2-1.828a.723.723,0,0,1,1.2.811c-.4.592-.8,1.2-1.185,1.8a.724.724,0,0,1-.609.333Zm147.2-1.044a.724.724,0,0,1-.6-.324c-.393-.593-.8-1.191-1.207-1.777a.723.723,0,0,1,1.186-.828c.415.6.828,1.2,1.227,1.806a.724.724,0,0,1-.6,1.122Zm-143.557-4.206a.713.713,0,0,1-.433-.144.724.724,0,0,1-.146-1.013c.435-.581.884-1.166,1.333-1.735a.723.723,0,0,1,1.136.894c-.442.56-.882,1.134-1.311,1.708a.722.722,0,0,1-.58.289Zm139.848-.983a.723.723,0,0,1-.573-.281c-.435-.564-.884-1.13-1.333-1.686a.723.723,0,0,1,1.124-.911c.458.564.913,1.141,1.355,1.714a.723.723,0,0,1-.572,1.164Zm-135.837-3.988a.716.716,0,0,1-.473-.178.724.724,0,0,1-.072-1.02c.477-.548.966-1.1,1.454-1.633a.723.723,0,0,1,1.068.975c-.482.527-.963,1.068-1.432,1.607a.723.723,0,0,1-.547.249Zm131.759-.921a.72.72,0,0,1-.54-.241c-.474-.531-.963-1.064-1.452-1.586a.723.723,0,0,1,1.054-.99c.5.529.994,1.072,1.477,1.612a.724.724,0,0,1-.539,1.206Zm-127.4-3.746a.724.724,0,0,1-.51-1.237c.514-.511,1.042-1.025,1.568-1.523a.723.723,0,1,1,.994,1.05c-.519.491-1.038,1-1.543,1.5a.719.719,0,0,1-.511.211Zm122.977-.859a.718.718,0,0,1-.5-.2c-.512-.5-1.038-.993-1.563-1.478a.723.723,0,0,1,.981-1.063c.535.492,1.069,1,1.59,1.5a.724.724,0,0,1-.5,1.243Zm-118.293-3.479a.723.723,0,0,1-.472-1.271c.548-.472,1.112-.945,1.673-1.4a.723.723,0,1,1,.917,1.118c-.552.453-1.107.918-1.647,1.383A.717.717,0,0,1,317.911,221.478Zm113.548-.795a.729.729,0,0,1-.465-.169c-.547-.458-1.108-.915-1.666-1.361a.723.723,0,1,1,.9-1.132c.568.453,1.139.918,1.694,1.384a.723.723,0,0,1-.464,1.278Zm-108.565-3.191a.722.722,0,0,1-.431-1.3c.581-.431,1.177-.862,1.77-1.28a.723.723,0,0,1,.832,1.183c-.583.411-1.169.835-1.741,1.259a.726.726,0,0,1-.43.142Zm103.521-.73a.714.714,0,0,1-.422-.137c-.581-.418-1.174-.835-1.762-1.238a.724.724,0,0,1,.818-1.194c.6.409,1.2.832,1.791,1.258a.723.723,0,0,1-.423,1.31Zm-98.266-2.883a.723.723,0,0,1-.389-1.333c.612-.389,1.237-.775,1.856-1.148a.723.723,0,0,1,.746,1.239c-.611.366-1.225.747-1.826,1.129A.716.716,0,0,1,328.15,213.879Zm92.949-.662a.719.719,0,0,1-.378-.107c-.608-.374-1.23-.747-1.848-1.107a.723.723,0,0,1,.727-1.25c.629.366,1.261.744,1.879,1.125a.723.723,0,0,1-.381,1.339Zm-87.448-2.558a.723.723,0,0,1-.343-1.36c.638-.342,1.288-.682,1.934-1.01a.723.723,0,1,1,.653,1.289c-.634.321-1.275.656-1.9.993a.722.722,0,0,1-.342.086Zm81.885-.592a.732.732,0,0,1-.333-.081c-.636-.329-1.283-.655-1.925-.97a.723.723,0,0,1,.634-1.3c.653.318,1.312.65,1.957.986a.723.723,0,0,1-.333,1.365Zm-76.167-2.219a.724.724,0,0,1-.3-1.384c.659-.295,1.333-.586,2-.865a.723.723,0,1,1,.557,1.335c-.657.275-1.319.56-1.968.851A.726.726,0,0,1,339.369,207.849Zm70.386-.519a.72.72,0,0,1-.285-.059c-.658-.283-1.329-.561-1.993-.827a.724.724,0,0,1,.537-1.344c.675.271,1.356.553,2.026.84a.723.723,0,0,1-.285,1.388Zm-64.483-1.866a.723.723,0,0,1-.247-1.4c.682-.247,1.377-.488,2.066-.719a.723.723,0,1,1,.459,1.372c-.677.227-1.361.464-2.031.707a.723.723,0,0,1-.245.044Zm58.514-.442a.734.734,0,0,1-.236-.04c-.677-.234-1.367-.462-2.05-.678a.723.723,0,1,1,.437-1.379c.694.22,1.4.452,2.083.69a.723.723,0,0,1-.235,1.407Zm-52.435-1.51a.723.723,0,0,1-.2-1.42c.7-.2,1.409-.386,2.112-.565a.724.724,0,0,1,.357,1.4c-.691.176-1.391.363-2.078.556A.713.713,0,0,1,351.35,203.513Zm46.32-.352a.761.761,0,0,1-.186-.024c-.69-.183-1.392-.36-2.086-.524a.723.723,0,1,1,.334-1.407c.706.168,1.42.348,2.121.533a.723.723,0,0,1-.186,1.422Zm-40.116-1.15a.723.723,0,0,1-.143-1.432c.711-.145,1.435-.283,2.148-.41a.723.723,0,1,1,.253,1.424c-.7.125-1.413.26-2.112.4a.771.771,0,0,1-.145.015Zm33.889-.256a.77.77,0,0,1-.134-.012c-.7-.131-1.416-.256-2.119-.37a.723.723,0,1,1,.231-1.428c.715.115,1.44.243,2.155.377a.723.723,0,0,1-.133,1.434Zm-27.59-.788a.723.723,0,0,1-.091-1.441c.719-.093,1.449-.178,2.172-.252a.723.723,0,0,1,.149,1.438c-.711.074-1.431.156-2.136.248A.745.745,0,0,1,363.853,200.967Zm21.277-.16c-.026,0-.054,0-.082,0-.71-.08-1.43-.153-2.14-.215a.723.723,0,1,1,.127-1.441c.722.064,1.454.138,2.176.219a.724.724,0,0,1-.081,1.442Zm-14.919-.423a.723.723,0,0,1-.04-1.445c.723-.04,1.458-.072,2.185-.094a.724.724,0,0,1,.045,1.446c-.714.022-1.437.053-2.15.093Zm8.554-.064h-.029c-.712-.029-1.437-.049-2.151-.061a.723.723,0,0,1,.012-1.446h.012c.726.012,1.461.032,2.185.062a.723.723,0,0,1-.028,1.446Z" transform="translate(-271.317 -57.841)" fill="#2f4419"/>
      <path id="Trazado_248523" data-name="Trazado 248523" d="M676.958,120.006H645.436v39.346h31.522Z" transform="translate(-534.642 0)" fill="#3b5620"/>
      <path id="Trazado_248524" data-name="Trazado 248524" d="M692.324,135.278H660.8v39.346h31.522Z" transform="translate(-545.92 -11.209)" fill="#fff" stroke="#2f4419" stroke-miterlimit="10" stroke-width="3.95"/>
      <path id="Trazado_248525" data-name="Trazado 248525" d="M711.84,150.27H680.318v39.346H711.84Z" transform="translate(-560.244 -22.213)" fill="#fff" stroke="#2f4419" stroke-miterlimit="10" stroke-width="3.95"/>
      <path id="Trazado_248526" data-name="Trazado 248526" d="M726.034,165.541H694.512v39.346h31.522Z" transform="translate(-570.661 -33.421)" fill="#2f4419"/>
      <path id="Trazado_248527" data-name="Trazado 248527" d="M749.585,189.824H733.279v2.56h16.306Z" transform="translate(-599.115 -51.244)" fill="#778965"/>
      <path id="Trazado_248528" data-name="Trazado 248528" d="M736.277,212.422H715.15v2.56h21.127Z" transform="translate(-585.809 -67.83)" fill="#778965"/>
      <path id="Trazado_248529" data-name="Trazado 248529" d="M736.277,235.02H715.15v2.56h21.127Z" transform="translate(-585.809 -84.416)" fill="#778965"/>
      <path id="Trazado_248530" data-name="Trazado 248530" d="M736.277,257.623H715.15v2.56h21.127Z" transform="translate(-585.809 -101.005)" fill="#778965"/>
      <path id="Trazado_248531" data-name="Trazado 248531" d="M736.277,280.221H715.15v2.559h21.127Z" transform="translate(-585.809 -117.592)" fill="#778965"/>
      <path id="Trazado_248532" data-name="Trazado 248532" d="M362.661,258.138a11.133,11.133,0,1,0-15.745,0A11.134,11.134,0,0,0,362.661,258.138Z" transform="translate(-313.146 -87.434)" fill="#ccc8a6"/>
      <path id="Trazado_248533" data-name="Trazado 248533" d="M339.571,228.054a20.424,20.424,0,0,0,2.728-7.592l.829.122,1.637.242h.021a22.859,22.859,0,0,0-.43-8.894l-2.436.6a20.45,20.45,0,0,0-3.446-7.294l2.02-1.5a22.76,22.76,0,0,0-6.593-5.992l-1.3,2.157a20.389,20.389,0,0,0-7.592-2.728l.363-2.488a23.013,23.013,0,0,0-8.9.43l.6,2.436A20.45,20.45,0,0,0,309.787,201l-1.5-2.02a22.744,22.744,0,0,0-5.992,6.593l2.157,1.3a20.387,20.387,0,0,0-2.728,7.592l-1.761-.259-.719-.1-.008-.005a23.013,23.013,0,0,0,.43,8.9l2.436-.6a20.487,20.487,0,0,0,3.454,7.3l-2.019,1.5a22.715,22.715,0,0,0,6.585,5.988l1.3-2.157a20.435,20.435,0,0,0,7.6,2.733l-.285,1.933-.078.555a22.973,22.973,0,0,0,8.887-.435l-.6-2.436a20.645,20.645,0,0,0,7.306-3.45l1.5,2.02a22.907,22.907,0,0,0,5.98-6.589l-2.157-1.3ZM316.261,227a11.131,11.131,0,1,1,15.277-3.791A11.13,11.13,0,0,1,316.261,227Z" transform="translate(-280.364 -54.635)" fill="#778965"/>
      <path id="Trazado_248534" data-name="Trazado 248534" d="M237.267,298.858a10.769,10.769,0,0,0-2.993-3.013l.246-.368.484-.724.005-.009a12.054,12.054,0,0,0-4.327-1.806l-.264,1.3a10.77,10.77,0,0,0-4.247-.009l-.258-1.3a12,12,0,0,0-4.34,1.781l.732,1.106a10.754,10.754,0,0,0-3.013,2.993l-1.1-.735a12.119,12.119,0,0,0-1.806,4.327l1.3.264a10.742,10.742,0,0,0-.009,4.247l-1.3.257a12.006,12.006,0,0,0,1.781,4.34l1.107-.732a10.756,10.756,0,0,0,2.993,3.013l-.521.779-.21.32,0,0a12.126,12.126,0,0,0,4.327,1.806l.264-1.295a10.765,10.765,0,0,0,4.251.007l.258,1.3a11.961,11.961,0,0,0,4.335-1.778l-.732-1.106a10.779,10.779,0,0,0,3.017-3l.855.573.245.162a12.1,12.1,0,0,0,1.8-4.324l-1.3-.264a10.868,10.868,0,0,0,.011-4.254l1.3-.257a12.052,12.052,0,0,0-1.782-4.332l-1.107.732ZM231.5,309.7a5.86,5.86,0,1,1,1.651-8.123A5.858,5.858,0,0,1,231.5,309.7Z" transform="translate(-219.726 -126.915)" fill="#233313"/>
      <path id="Trazado_248535" data-name="Trazado 248535" d="M901.815,334.788H874.751a1.032,1.032,0,0,0-1.033,1.032v15.356a1.032,1.032,0,0,0,1.033,1.032h27.065a1.032,1.032,0,0,0,1.032-1.032V335.82A1.032,1.032,0,0,0,901.815,334.788Z" transform="translate(-702.192 -157.642)" fill="#778965"/>
      <path id="Trazado_248536" data-name="Trazado 248536" d="M902.847,347.151H873.718v3.007h29.129Z" transform="translate(-702.192 -166.715)" fill="#2f4419"/>
      <path id="Trazado_248537" data-name="Trazado 248537" d="M885.622,387.7h-4.283a.493.493,0,1,0,0,.987h4.283a.493.493,0,0,0,0-.987Z" transform="translate(-707.422 -196.48)" fill="#d1f5ff"/>
      <path id="Trazado_248538" data-name="Trazado 248538" d="M910.375,387.7h-4.283a.493.493,0,0,0,0,.987h4.283a.493.493,0,1,0,0-.987Z" transform="translate(-725.59 -196.48)" fill="#d1f5ff"/>
      <path id="Trazado_248539" data-name="Trazado 248539" d="M935.132,387.7h-4.283a.493.493,0,0,0,0,.987h4.283a.493.493,0,1,0,0-.987Z" transform="translate(-743.761 -196.48)" fill="#d1f5ff"/>
      <path id="Trazado_248540" data-name="Trazado 248540" d="M959.889,387.7h-4.283a.493.493,0,1,0,0,.987h4.283a.493.493,0,1,0,0-.987Z" transform="translate(-761.932 -196.48)" fill="#d1f5ff"/>
      <path id="Trazado_248541" data-name="Trazado 248541" d="M880.457,338.109a.545.545,0,0,0-.544.544v.191a.544.544,0,1,0,1.088,0v-.191A.544.544,0,0,0,880.457,338.109Z" transform="translate(-706.739 -160.079)" fill="#d1f5ff"/>
      <path id="Trazado_248542" data-name="Trazado 248542" d="M886.361,338.749a.64.64,0,0,0,.64.64h2.268a.64.64,0,0,0,0-1.279H887A.64.64,0,0,0,886.361,338.749Z" transform="translate(-711.471 -160.079)" fill="#d1f5ff"/>
      <path id="Trazado_248543" data-name="Trazado 248543" d="M885.831,364.527H882.9a.849.849,0,0,0-.849.849V367.9a.849.849,0,0,0,.849.849h2.93a.849.849,0,0,0,.849-.849v-2.525A.849.849,0,0,0,885.831,364.527Z" transform="translate(-708.309 -179.469)" fill="#2f4419"/>
      <path id="Trazado_248544" data-name="Trazado 248544" d="M872.389,568.011v-2.048a1.685,1.685,0,0,0-1.685-1.685H852.766a1.686,1.686,0,0,0-1.685,1.685v36.225h46.4V568.011Z" transform="translate(-685.577 -326.078)" fill="#233313"/>
      <path id="Trazado_248545" data-name="Trazado 248545" d="M899.413,582.99h-45.5l-2.829,32.932h46.172Z" transform="translate(-685.581 -339.812)" fill="#fff"/>
      <path id="Trazado_248546" data-name="Trazado 248546" d="M897.478,612.488h-46.4L856,579.966a1.946,1.946,0,0,1,1.924-1.654h42.463a1.946,1.946,0,0,1,1.923,2.237Z" transform="translate(-685.577 -336.379)" fill="#233313"/>
      <path id="Trazado_248547" data-name="Trazado 248547" d="M1014.411,564.292a10.63,10.63,0,1,0-10.631-10.631A10.631,10.631,0,0,0,1014.411,564.292Z" transform="translate(-797.652 -310.484)" fill="#778965"/>
      <path id="Trazado_248548" data-name="Trazado 248548" d="M1013.332,563.609a11.02,11.02,0,1,1,11.022-11.021A11.035,11.035,0,0,1,1013.332,563.609Zm0-21.263a10.242,10.242,0,1,0,10.243,10.242A10.251,10.251,0,0,0,1013.332,542.347Z" transform="translate(-796.573 -309.411)" fill="#fff"/>
      <path id="Trazado_248549" data-name="Trazado 248549" d="M1024.51,575.763v7.527c0,.839,10.234.839,10.234,0v-7.527Zm5.635,4v2.133a.518.518,0,0,1-.513.52.525.525,0,0,1-.521-.52v-2.139a1.261,1.261,0,0,1,.521-2.413,1.264,1.264,0,0,1,.513,2.417Z" transform="translate(-812.867 -334.508)" fill="#fff"/>
      <path id="Trazado_248550" data-name="Trazado 248550" d="M1036.321,560.7h-1.035v-.507a3.186,3.186,0,0,0-6.372,0v.507h-1.035v-.507a4.221,4.221,0,1,1,8.441,0v.507Z" transform="translate(-815.34 -319.983)" fill="#fff"/>
      <path id="Trazado_248551" data-name="Trazado 248551" d="M241.774,533.849l-.039-.04c-5.208,5.579-13.519,10.152-22.412,12.1,0,.594-.017,3.885-.085,19.052-.09,20.233,19.165,30.121,22.154,31.637-8.782-35.551-1.9-57.054.381-62.747Z" transform="translate(-221.83 -303.715)" fill="#2f4419"/>
      <path id="Trazado_248552" data-name="Trazado 248552" d="M290.916,533.955c-2.284,5.695-9.163,27.2-.381,62.747,2.9-1.334,22.394-11.205,22.485-31.438.068-15.167.082-18.458.085-19.052-8.854-2.022-17.03-6.652-22.19-12.259Z" transform="translate(-270.971 -303.821)" fill="#2f4419"/>
      <path id="Trazado_248553" data-name="Trazado 248553" d="M241.774,533.849l-.039-.04c-5.208,5.579-13.518,10.152-22.412,12.1,0,.594-.017,3.885-.085,19.052-.09,20.233,19.165,30.121,22.154,31.637,2.9-1.333,22.394-11.205,22.485-31.438.068-15.167.082-18.458.085-19.052-8.854-2.022-17.03-6.652-22.19-12.259Z" transform="translate(-221.83 -303.715)" fill="none" stroke="#fff" stroke-miterlimit="10" stroke-width="5.915"/>
      <path id="Trazado_248554" data-name="Trazado 248554" d="M249.418,604.462l-.626-.036a42.551,42.551,0,0,1-10.085-7.373c-5.979-5.952-8.993-12.825-8.959-20.432l.076-16.753.562-.146a43.881,43.881,0,0,0,18.483-9.6l.531-.488.511.511-.491.57.513-.552a43.9,43.9,0,0,0,18.356,9.724l.561.149-.076,16.752c-.035,7.607-3.109,14.453-9.139,20.35a42.8,42.8,0,0,1-9.868,7.14l-.348.178Zm-18.094-43.427-.07,15.592c-.032,7.189,2.833,13.7,8.514,19.357a41.047,41.047,0,0,0,9.375,6.926,41.287,41.287,0,0,0,9.435-6.841c5.732-5.606,8.655-12.093,8.687-19.28l.07-15.594a45.569,45.569,0,0,1-17.963-9.495A45.651,45.651,0,0,1,231.323,561.035Z" transform="translate(-229.542 -315.334)" fill="#3b5620"/>
      <path id="Trazado_248555" data-name="Trazado 248555" d="M269.782,640.579v13.28c0,1.478,18.056,1.478,18.056,0v-13.28Zm9.94,7.052V651.4a.913.913,0,1,1-1.827,0v-3.772a2.222,2.222,0,1,1,1.826.008Z" transform="translate(-258.926 -382.08)" fill="#fff"/>
      <path id="Trazado_248556" data-name="Trazado 248556" d="M290.624,614.009H288.8v-.894a5.619,5.619,0,0,0-11.238,0v.894h-1.827v-.894a7.447,7.447,0,1,1,14.894,0v.894Z" transform="translate(-263.293 -356.456)" fill="#fff"/>
      <path id="Trazado_248557" data-name="Trazado 248557" d="M553.6,420.543a15.862,15.862,0,0,0-30.33-8.315A11.077,11.077,0,0,0,504.82,420.5h-2.07a10.706,10.706,0,1,0,0,21.413h50.061a10.7,10.7,0,0,0,.79-21.373Z" transform="translate(-422.058 -207.362)" fill="#fff"/>
      <path id="Trazado_248558" data-name="Trazado 248558" d="M595.135,528.675l-5.586-6.257-5.587,6.257h2.972V535.5h5.231v-6.828Z" transform="translate(-489.522 -295.355)" fill="#2f4419"/>
      <path id="Trazado_248559" data-name="Trazado 248559" d="M622.769,533.355l5.586,6.258,5.587-6.258H630.97v-6.828H625.74v6.828Z" transform="translate(-518.005 -298.37)" fill="#2f4419"/>
      <path id="Trazado_248560" data-name="Trazado 248560" d="M1032.333,409.263a2.068,2.068,0,1,0-2.487,1.537A2.068,2.068,0,0,0,1032.333,409.263Z" transform="translate(-815.613 -210.437)" fill="#fff"/>
      <path id="Trazado_248561" data-name="Trazado 248561" d="M379.779,419.98a2.067,2.067,0,1,0-2.484,1.541A2.067,2.067,0,0,0,379.779,419.98Z" transform="translate(-336.665 -218.305)" fill="#fff"/>
      <path id="Trazado_248562" data-name="Trazado 248562" d="M321.569,833.021a2.067,2.067,0,1,0-2.484,1.541A2.067,2.067,0,0,0,321.569,833.021Z" transform="translate(-293.941 -521.461)" fill="#fff"/>
      <path id="Trazado_248563" data-name="Trazado 248563" d="M845.5,484.67a.685.685,0,0,1-.685-.685v-7.331a.685.685,0,1,1,1.369,0v7.331A.685.685,0,0,1,845.5,484.67Z" transform="translate(-680.979 -261.263)" fill="#fff"/>
      <path id="Trazado_248564" data-name="Trazado 248564" d="M831.041,490.43a.685.685,0,0,1,.685-.685h7.331a.685.685,0,1,1,0,1.369h-7.331A.684.684,0,0,1,831.041,490.43Z" transform="translate(-670.868 -271.374)" fill="#fff"/>
      <path id="Trazado_248565" data-name="Trazado 248565" d="M862.309,817.054a.685.685,0,0,1-.684-.685v-7.331a.685.685,0,0,1,1.369,0v7.331A.685.685,0,0,1,862.309,817.054Z" transform="translate(-693.315 -505.22)" fill="#fff"/>
      <path id="Trazado_248566" data-name="Trazado 248566" d="M847.844,822.814a.684.684,0,0,1,.684-.685h7.331a.685.685,0,0,1,0,1.369h-7.331A.684.684,0,0,1,847.844,822.814Z" transform="translate(-683.201 -515.331)" fill="#fff"/>
      <path id="Trazado_248567" data-name="Trazado 248567" d="M154.136,548.16a.8.8,0,0,1-.8-.8v-8.609a.8.8,0,1,1,1.608,0v8.609A.8.8,0,0,1,154.136,548.16Z" transform="translate(-173.457 -306.749)" fill="#fff"/>
      <path id="Trazado_248568" data-name="Trazado 248568" d="M137.153,554.926a.8.8,0,0,1,.8-.8h8.608a.8.8,0,1,1,0,1.608h-8.608A.8.8,0,0,1,137.153,554.926Z" transform="translate(-161.582 -318.624)" fill="#fff"/>
      <path id="Trazado_248569" data-name="Trazado 248569" d="M487.811,141.217a.694.694,0,0,1-.694-.694v-7.434a.694.694,0,0,1,1.388,0v7.434A.694.694,0,0,1,487.811,141.217Z" transform="translate(-418.442 -9.093)" fill="#2f4419"/>
      <path id="Trazado_248570" data-name="Trazado 248570" d="M473.142,147.059a.694.694,0,0,1,.694-.694h7.434a.694.694,0,0,1,0,1.388h-7.434A.694.694,0,0,1,473.142,147.059Z" transform="translate(-408.185 -19.346)" fill="#2f4419"/>
      <path id="Trazado_248571" data-name="Trazado 248571" d="M562.533,130.841a.685.685,0,0,1-.685-.685v-7.331a.685.685,0,0,1,1.369,0v7.331A.685.685,0,0,1,562.533,130.841Z" transform="translate(-473.291 -1.567)" fill="#ccc8a6"/>
      <path id="Trazado_248572" data-name="Trazado 248572" d="M548.068,136.6a.685.685,0,0,1,.685-.685h7.331a.685.685,0,1,1,0,1.369h-7.331A.685.685,0,0,1,548.068,136.6Z" transform="translate(-463.177 -11.677)" fill="#ccc8a6"/>
      <path id="Trazado_248573" data-name="Trazado 248573" d="M902.706,239.93a3.951,3.951,0,1,0-3.951-3.951A3.951,3.951,0,0,0,902.706,239.93Z" transform="translate(-720.568 -82.22)" fill="#ccc8a6"/>
      <path id="Trazado_248574" data-name="Trazado 248574" d="M512.634,295.36a3.951,3.951,0,1,0-3.952-3.951A3.951,3.951,0,0,0,512.634,295.36Z" transform="translate(-434.27 -122.902)" fill="#ccc8a6"/>
      <path id="Trazado_248575" data-name="Trazado 248575" d="M315.143,790.916a3.951,3.951,0,1,0-3.952-3.951A3.952,3.952,0,0,0,315.143,790.916Z" transform="translate(-289.32 -486.621)" fill="#ccc8a6"/>
      <g id="Grupo_1015398" data-name="Grupo 1015398" transform="translate(-82.998 256.1)">
        <path id="Trazado_248576" data-name="Trazado 248576" d="M426.736,863.719l-24.875,32.705c-3.086,12.743,3.9,24.2,17.055,27.218l57.84-26.513Z" transform="translate(-272.338 -801.956)" fill="#ffc19d"/>
        <path id="Trazado_248577" data-name="Trazado 248577" d="M52.5,938.757-81.484,1008.27c-9.1,4.352,24.391,50.409,59.088,35.7l87.762-66.6c17.238-5.746,4.372-44.353-12.866-38.607Z" transform="translate(82.998 -856.604)" fill="#ffc19d"/>
        <path id="Trazado_248578" data-name="Trazado 248578" d="M506.9,761.338s72.029-54.365,78.392-43.786c7.288,12.117-68.782,58.9-68.782,58.9Z" transform="translate(-349.965 -693.673)" fill="#ffc19d"/>
        <path id="Trazado_248579" data-name="Trazado 248579" d="M503.978,756.277l51.881-.311a6.031,6.031,0,0,0,5.85-6.164l-.195-112.164a5.859,5.859,0,0,0-5.757-5.922l-50.872-.155a5.9,5.9,0,0,0-5.844,5.914l-.922,112.681a5.937,5.937,0,0,0,5.861,6.122Z" transform="translate(-343.518 -631.561)" fill="#fff"/>
        <path id="Trazado_248580" data-name="Trazado 248580" d="M505.308,757.532a4.9,4.9,0,0,0,.656.037l51.865-.367a5.261,5.261,0,0,0,5.051-5.393l-.179-112.04a5.11,5.11,0,0,0-4.972-5.183l-50.87-.207c-.08,0-.16,0-.239.005a4.947,4.947,0,0,0-3.37,1.537,5.189,5.189,0,0,0-1.433,3.567l-.91,112.8A5.154,5.154,0,0,0,505.308,757.532Z" transform="translate(-345.565 -633.629)" fill="#33201b"/>
        <path id="Trazado_248581" data-name="Trazado 248581" d="M508.654,656.648l-.874,112.4,58.429-.327-.15-112.075Z" transform="translate(-350.61 -649.974)" fill="#fff"/>
        <path id="Trazado_248582" data-name="Trazado 248582" d="M660.668,890.869h7.664v-7.664h-7.664Z" transform="translate(-462.824 -816.258)" fill="none" stroke="#dedede" stroke-miterlimit="10" stroke-width="2.464"/>
        <path id="Trazado_248583" data-name="Trazado 248583" d="M622.694,890.869h7.664v-7.664h-7.664Z" transform="translate(-434.952 -816.258)" fill="none" stroke="#dedede" stroke-miterlimit="10" stroke-width="2.464"/>
        <path id="Trazado_248584" data-name="Trazado 248584" d="M584.725,890.869h7.664v-7.664h-7.664Z" transform="translate(-407.084 -816.258)" fill="none" stroke="#dedede" stroke-miterlimit="10" stroke-width="2.464"/>
        <path id="Trazado_248585" data-name="Trazado 248585" d="M546.756,890.869h7.664v-7.664h-7.664Z" transform="translate(-379.217 -816.258)" fill="none" stroke="#dedede" stroke-miterlimit="10" stroke-width="2.464"/>
        <path id="Trazado_248586" data-name="Trazado 248586" d="M670.993,895.4a1.587,1.587,0,1,0-1.587-1.587A1.587,1.587,0,0,0,670.993,895.4Z" transform="translate(-469.237 -822.88)" fill="#4d4d4d"/>
        <path id="Trazado_248587" data-name="Trazado 248587" d="M632.944,895.4a1.587,1.587,0,1,0-1.587-1.587A1.587,1.587,0,0,0,632.944,895.4Z" transform="translate(-441.311 -822.88)" fill="#4d4d4d"/>
        <path id="Trazado_248588" data-name="Trazado 248588" d="M594.9,895.4a1.587,1.587,0,1,0-1.587-1.587A1.587,1.587,0,0,0,594.9,895.4Z" transform="translate(-413.384 -822.88)" fill="#4d4d4d"/>
        <path id="Trazado_248589" data-name="Trazado 248589" d="M556.163,895.4a1.587,1.587,0,1,0-1.587-1.587A1.587,1.587,0,0,0,556.163,895.4Z" transform="translate(-384.956 -822.88)" fill="#4d4d4d"/>
        <path id="Trazado_248590" data-name="Trazado 248590" d="M561.961,749.332V747.8a1.262,1.262,0,0,0-1.262-1.262H547.265A1.262,1.262,0,0,0,546,747.8v27.131h34.75v-25.6Z" transform="translate(-378.664 -715.947)" fill="#fff"/>
        <path id="Trazado_248591" data-name="Trazado 248591" d="M562.38,749.332V747.8a1.262,1.262,0,0,0-1.262-1.262H547.684a1.262,1.262,0,0,0-1.262,1.262v27.131h34.75v-25.6Z" transform="translate(-378.972 -715.947)" fill="#bfe1ff"/>
        <path id="Trazado_248592" data-name="Trazado 248592" d="M563.562,749.3v-1.535A1.262,1.262,0,0,0,562.3,746.5H548.866a1.262,1.262,0,0,0-1.262,1.262v27.131h34.75V749.3Z" transform="translate(-379.839 -715.922)" fill="#233313"/>
        <path id="Trazado_248593" data-name="Trazado 248593" d="M550.8,760.706V785.24h32.19V760.585Z" transform="translate(-382.186 -726.26)" fill="#fff"/>
        <path id="Trazado_248594" data-name="Trazado 248594" d="M556.407,760.706V785.24h32.466V760.585Z" transform="translate(-386.3 -726.26)" fill="#3b5620"/>
        <path id="Trazado_248595" data-name="Trazado 248595" d="M591.558,757.049H559.547a1.213,1.213,0,0,0-1.235,1.052v24.544H593.25v-23.92a1.732,1.732,0,0,0-1.691-1.676Z" transform="translate(-387.698 -723.664)" fill="#bfe1ff"/>
        <path id="Trazado_248596" data-name="Trazado 248596" d="M601.8,731.715l-23.626.066.05,17.955,23.626-.066Z" transform="translate(-402.276 -705.07)" fill="#cce7ff"/>
        <path id="Trazado_248597" data-name="Trazado 248597" d="M602.821,733.926l-22.418.062.046,16.506,22.418-.062Z" transform="translate(-403.912 -706.693)" fill="#233313"/>
        <path id="Trazado_248598" data-name="Trazado 248598" d="M587.682,770.241l14.407-.04-7.877-7.556Z" transform="translate(-409.255 -727.771)" fill="#e3eeff"/>
        <path id="Trazado_248599" data-name="Trazado 248599" d="M612.305,773.806l12.1-.033-6.568-6.246Z" transform="translate(-427.327 -731.355)" fill="#e3eeff"/>
        <path id="Trazado_248600" data-name="Trazado 248600" d="M625.722,752.9a1.668,1.668,0,1,0-2.359,0A1.667,1.667,0,0,0,625.722,752.9Z" transform="translate(-435.085 -718.529)" fill="#e3eeff"/>
        <path id="Trazado_248601" data-name="Trazado 248601" d="M620.291,716.243l-21.9.069.06,19.048,21.9-.069Z" transform="translate(-417.113 -693.714)" fill="#cce7ff"/>
        <path id="Trazado_248602" data-name="Trazado 248602" d="M621.335,718.6l-20.66.065.055,17.512,20.66-.065Z" transform="translate(-418.791 -695.443)" fill="#2f4419"/>
        <path id="Trazado_248603" data-name="Trazado 248603" d="M616.588,727.878H608.36v.723h8.228Z" transform="translate(-424.432 -702.254)" fill="#cce5ff"/>
        <path id="Trazado_248604" data-name="Trazado 248604" d="M625.1,735.214H608.36v.723H625.1Z" transform="translate(-424.432 -707.638)" fill="#cce5ff"/>
        <path id="Trazado_248605" data-name="Trazado 248605" d="M625.1,742.685H608.36v.723H625.1Z" transform="translate(-424.432 -713.122)" fill="#cce5ff"/>
        <path id="Trazado_248606" data-name="Trazado 248606" d="M625.1,750.635H608.36v.723H625.1Z" transform="translate(-424.432 -718.957)" fill="#cce5ff"/>
        <path id="Trazado_248607" data-name="Trazado 248607" d="M594.452,758.736v23.919H559.738V758.107a1.214,1.214,0,0,1,1.23-1.048h31.8a1.727,1.727,0,0,1,1.685,1.678Z" transform="translate(-388.745 -723.672)" fill="#2f4419"/>
        <path id="Trazado_248608" data-name="Trazado 248608" d="M549.914,852.028h-3.5v.329h3.5Z" transform="translate(-378.964 -793.375)" fill="#bfe1ff"/>
        <path id="Trazado_248609" data-name="Trazado 248609" d="M612.8,784.34a5.228,5.228,0,1,0-6,4.323A5.228,5.228,0,0,0,612.8,784.34Z" transform="translate(-420.064 -739.243)" fill="#fff"/>
        <path id="Trazado_248610" data-name="Trazado 248610" d="M617.98,789.007a1.484,1.484,0,0,0,1.152-.564,1.449,1.449,0,0,0,.317-.917,1.475,1.475,0,1,0-2.949,0,1.442,1.442,0,0,0,.317.917,1.488,1.488,0,0,0,1.162.564Z" transform="translate(-430.405 -744.946)" fill="#2f4419"/>
        <path id="Trazado_248611" data-name="Trazado 248611" d="M617.451,800.947c0,.934-5.216.934-5.216,0v-1.088c.208-1.487,4.793-1.551,5.217,0v1.088Z" transform="translate(-427.276 -754.249)" fill="#2f4419"/>
        <path id="Trazado_248612" data-name="Trazado 248612" d="M606.94,827.71H589.772v.954H606.94Z" transform="translate(-410.789 -775.527)" fill="#fff"/>
        <path id="Trazado_248613" data-name="Trazado 248613" d="M610.484,835.156H597.343v.954h13.141Z" transform="translate(-416.346 -780.992)" fill="#fff"/>
        <path id="Trazado_248614" data-name="Trazado 248614" d="M644.653,946.319h11.854V939.2H644.653Z" transform="translate(-451.069 -857.354)" fill="#ccc8a6"/>
        <path id="Trazado_248615" data-name="Trazado 248615" d="M594.141,946.319h11.854V939.2H594.141Z" transform="translate(-413.995 -857.354)" fill="#ccc8a6"/>
        <path id="Trazado_248616" data-name="Trazado 248616" d="M543.634,946.319h11.854V939.2H543.634Z" transform="translate(-376.925 -857.354)" fill="#ccc8a6"/>
        <path id="Trazado_248617" data-name="Trazado 248617" d="M644.653,977.819h11.854V970.7H644.653Z" transform="translate(-451.069 -880.474)" fill="#ccc8a6"/>
        <path id="Trazado_248618" data-name="Trazado 248618" d="M594.141,977.819h11.854V970.7H594.141Z" transform="translate(-413.995 -880.474)" fill="#ccc8a6"/>
        <path id="Trazado_248619" data-name="Trazado 248619" d="M543.634,977.819h11.854V970.7H543.634Z" transform="translate(-376.925 -880.474)" fill="#ccc8a6"/>
        <path id="Trazado_248620" data-name="Trazado 248620" d="M644.653,1008.972h11.854v-7.122H644.653Z" transform="translate(-451.069 -903.338)" fill="#ccc8a6"/>
        <path id="Trazado_248621" data-name="Trazado 248621" d="M594.141,1008.972h11.854v-7.122H594.141Z" transform="translate(-413.995 -903.338)" fill="#ccc8a6"/>
        <path id="Trazado_248622" data-name="Trazado 248622" d="M594.141,1040.472h11.854v-7.122H594.141Z" transform="translate(-413.995 -926.458)" fill="#ccc8a6"/>
        <path id="Trazado_248623" data-name="Trazado 248623" d="M543.634,1008.972h11.854v-7.122H543.634Z" transform="translate(-376.925 -903.338)" fill="#ccc8a6"/>
        <path id="Trazado_248624" data-name="Trazado 248624" d="M721.12,805.531s15.37,6.137,5.642,18.491-14.744,0-9.057-10A43.226,43.226,0,0,0,721.12,805.531Z" transform="translate(-502.93 -759.248)" fill="#ffc19d"/>
        <path id="Trazado_248625" data-name="Trazado 248625" d="M721.12,857.879s15.37,6.137,5.642,18.491-14.744,0-9.057-10A43.229,43.229,0,0,0,721.12,857.879Z" transform="translate(-502.93 -797.669)" fill="#ffc19d"/>
        <path id="Trazado_248626" data-name="Trazado 248626" d="M725.908,949.96s11.991,4.787,4.4,14.427-11.5,0-7.065-7.8A33.7,33.7,0,0,0,725.908,949.96Z" transform="translate(-507.381 -865.253)" fill="#ffc19d"/>
        <path id="Trazado_248627" data-name="Trazado 248627" d="M403.032,818.826c8.285-20.221,26.36-58.413,26.36-58.413s4.776-1.71,6.409,7.229-6.169,26.425-6.169,26.425,10.453,42.885-11.955,46.189c-15.568,2.3-19.729-13.015-14.644-21.431Z" transform="translate(-272.222 -726.037)" fill="#ffc19d"/>
        <path id="Trazado_248628" data-name="Trazado 248628" d="M647.006,1004.045s-32.673-51.558-27.93-57.892S661.9,997.562,661.9,997.562Z" transform="translate(-431.952 -862.103)" fill="#ffc19d"/>
        <path id="Trazado_248629" data-name="Trazado 248629" d="M676.324,1112.4c3.068,4.834,34.5,26.372,34.5,26.372,25.528-13.118-18.59-36.894-18.59-36.894s9.359-18.468-.145-20.267c-6.937-1.317-11.089,3.727-12.824,6.547-.239.383-.43.729-.578,1.008-.252.476-.374.769-.374.769s-5.057,17.625-1.988,22.462Z" transform="translate(-473.589 -961.719)" fill="#ffc19d"/>
        <path id="Trazado_248630" data-name="Trazado 248630" d="M686.263,1060.388l3.287-2.546,22.483,35.511,30.6-19.03s-9.356-41.369-14.2-46.589A34.454,34.454,0,0,0,717.205,1020c-5.806-2.378-7.855.458-10.45.072-5.926-.88-8.6,4.408-10.295,4.023a10.58,10.58,0,0,0-6.548,1.08,10.761,10.761,0,0,0-2.443,1.6l-.005.008a5.95,5.95,0,0,0-1.579,2.07l-9.268,3.28,2.943,8.62-.3.083.76,1.256,6.247,18.293Z" transform="translate(-474.53 -915.955)" fill="#ffc19d"/>
        <path id="Trazado_248631" data-name="Trazado 248631" d="M693.025,1122.665c2.719,7.848,8.612,6.249,6.427,1.641l-11.034-16.947c-.239.383-.341.583-.49.862,3.259,5.044,5.1,14.443,5.1,14.443Z" transform="translate(-482.832 -980.779)" fill="#cc6004"/>
        <path id="Trazado_248632" data-name="Trazado 248632" d="M792.17,1226.447c35.839,28.08,56.577,3.147,54.539-5.661l-28.732-21.866-34.341,21.488,8.533,6.039Z" transform="translate(-553.077 -1047.98)" fill="#ffc19d"/>
      </g>
    </g>
  </g>
</svg>
