<svg xmlns="http://www.w3.org/2000/svg" width="505" height="269.521" viewBox="0 0 505 269.521">
  <g id="Grupo_1066771" data-name="Grupo 1066771" transform="translate(-180 -5876.918)">
    <g id="Group_59_" data-name="Group (59)" transform="translate(180 5876.918)">
      <path id="Trazado_248633" data-name="Trazado 248633" d="M187.707,0H112.218V86.6h75.489Z" transform="translate(-75.293)" fill="#afc797"/>
      <path id="Trazado_248634" data-name="Trazado 248634" d="M187.707,284.714H112.218v86.742h75.489Z" transform="translate(-75.293 -191.029)" fill="#afc797"/>
      <path id="Trazado_248635" data-name="Trazado 248635" d="M437.572,0H360.563V86.6h77.009Z" transform="translate(-224.476)" fill="#afc797"/>
      <path id="Trazado_248636" data-name="Trazado 248636" d="M437.572,284.714H360.563v86.742h77.009Z" transform="translate(-224.476 -191.029)" fill="#afc797"/>
      <path id="Trazado_248637" data-name="Trazado 248637" d="M498.542,813.313H1.591a1.426,1.426,0,1,1,0-2.833H498.542a1.426,1.426,0,1,1,0,2.833Z" transform="translate(0 -543.792)" fill="#3b5620"/>
      <path id="Trazado_248638" data-name="Trazado 248638" d="M1244.669,643.1a26.037,26.037,0,0,0-3.274-9.767l.928-.534,1.833-1.054.023-.014a29.157,29.157,0,0,0-7.473-8.574l-1.964,2.532a26.062,26.062,0,0,0-9.223-4.581l.836-3.1a29.078,29.078,0,0,0-11.349-.788l.4,3.191a26,26,0,0,0-9.766,3.273l-1.606-2.781a29.389,29.389,0,0,0-8.575,7.47l2.534,1.964a26.079,26.079,0,0,0-4.58,9.225l-3.1-.836a29.092,29.092,0,0,0-.79,11.348l3.192-.4a25.971,25.971,0,0,0,3.274,9.766l-1.971,1.132-.8.471h-.013a29.366,29.366,0,0,0,7.473,8.575l1.964-2.532a26.129,26.129,0,0,0,9.233,4.58l-.836,3.1a29.025,29.025,0,0,0,11.339.79l-.4-3.191a26.108,26.108,0,0,0,9.779-3.274l1.244,2.163.362.618a29.324,29.324,0,0,0,8.562-7.468l-2.534-1.964a26.326,26.326,0,0,0,4.59-9.238l3.1.836a29.215,29.215,0,0,0,.776-11.335l-3.188.4Zm-24.192,17.389a14.213,14.213,0,1,1,12.31-15.888A14.211,14.211,0,0,1,1220.477,660.491Z" transform="translate(-743.093 -413.967)" fill="#233313"/>
      <path id="Trazado_248639" data-name="Trazado 248639" d="M1192.063,491.775a18.284,18.284,0,0,0-4.373-5.752l.494-.565.98-1.112.013-.014a20.5,20.5,0,0,0-6.9-4.014l-.734,2.124a18.281,18.281,0,0,0-7.16-.965l-.145-2.25a20.414,20.414,0,0,0-7.719,2.032l.987,2.03a18.264,18.264,0,0,0-5.752,4.375l-1.695-1.487a20.735,20.735,0,0,0-4.014,6.895l2.126.735a18.409,18.409,0,0,0-.968,7.161l-2.247.144a20.332,20.332,0,0,0,2.03,7.718l2.03-.986a18.267,18.267,0,0,0,4.376,5.754l-1.053,1.2-.428.492-.006,0a20.649,20.649,0,0,0,6.9,4.015l.734-2.126a18.322,18.322,0,0,0,7.17.962l.145,2.25a20.381,20.381,0,0,0,7.71-2.029l-.987-2.03a18.317,18.317,0,0,0,5.762-4.378l1.313,1.157.379.328a20.616,20.616,0,0,0,4.008-6.891l-2.126-.735a18.462,18.462,0,0,0,.971-7.174l2.251-.143a20.511,20.511,0,0,0-2.037-7.708l-2.03.987Zm-12.158,17.006a9.971,9.971,0,1,1,4.6-13.33A9.968,9.968,0,0,1,1179.905,508.781Z" transform="translate(-720.06 -321.537)" fill="none" stroke="#2f4419" stroke-miterlimit="10" stroke-width="1.618"/>
      <path id="Trazado_248640" data-name="Trazado 248640" d="M198.767,469.151c2.953,3.045-1.365,6.8-1.331,11.689s5.937,6.673,1.171,13.866c-2.933,4.43-6.785-.181-8.714,6.187s.516,6.985-2.393,9.64c-5.072,4.628-15.106-2.109-13.151-8.474s7.954-6.81,4.423-11.2-4.891-6.311-.584-9.573c5.331-4.039,10.941-2.057,10.67-6.639s6-9.523,9.906-5.495Z" transform="translate(-116.813 -313.778)" fill="#ccc8a6"/>
      <path id="Trazado_248641" data-name="Trazado 248641" d="M193.278,531.467l-1.015-.032c.778-24.021,13.358-42.821,13.486-43.007l.839.57c-.126.185-12.544,18.752-13.312,42.469Z" transform="translate(-128.999 -327.711)" fill="#0e0e0e"/>
      <path id="Trazado_248642" data-name="Trazado 248642" d="M57.481,433.721c-3.152,4.724,3.441,8.622,4.575,15.068s-6.364,7.672,1.645,15.991c4.934,5.124,6.453,2.533,7.175,12.622.635,8.882,8.3,1.53,12.535,7.258,5.466,7.39,17.282-5.661,13.17-13.568s-10.281-6.826-6.694-13.46,1.118-12.322-5.342-15.577c-8-4.031-11.946,2.605-12.7-3.493s-10.2-11.089-14.37-4.842Z" transform="translate(-37.999 -289.075)" fill="#afc797"/>
      <path id="Trazado_248643" data-name="Trazado 248643" d="M108.791,510.807c-6.744-31.056-27.576-52.484-27.785-52.7l.969-.953c.213.216,21.316,21.927,28.144,53.363l-1.327.289Z" transform="translate(-54.351 -306.729)" fill="#0e0e0e"/>
      <path id="Trazado_248644" data-name="Trazado 248644" d="M115.753,617.808h40.093v27.329a20.047,20.047,0,1,1-40.095,0V617.808Z" transform="translate(-77.663 -414.519)" fill="#2f4419"/>
      <path id="Trazado_248645" data-name="Trazado 248645" d="M111.225,680.572H109V722.99h2.222Z" transform="translate(-73.136 -456.63)" fill="#0e0e0e"/>
      <path id="Trazado_248646" data-name="Trazado 248646" d="M239.823,680.572H237.6V722.99h2.222Z" transform="translate(-159.418 -456.63)" fill="#0e0e0e"/>
      <path id="Trazado_248647" data-name="Trazado 248647" d="M188.153,680.572h-2.222V722.99h2.222Z" transform="translate(-124.75 -456.63)" fill="#0e0e0e"/>
      <path id="Trazado_248648" data-name="Trazado 248648" d="M151.421,761.783H109V764h42.418Z" transform="translate(-73.136 -511.119)" fill="#0e0e0e"/>
      <path id="Trazado_248649" data-name="Trazado 248649" d="M433.491,160.852V148.912a9.817,9.817,0,0,0-9.816-9.818H319.159a9.818,9.818,0,0,0-9.818,9.818V359.991h270.35V160.852Z" transform="translate(-176.492 -93.325)" fill="#fff"/>
      <path id="Trazado_248650" data-name="Trazado 248650" d="M436.128,160.852V148.912a9.817,9.817,0,0,0-9.816-9.818H321.8a9.818,9.818,0,0,0-9.818,9.818V359.991H582.329V160.852Z" transform="translate(-177.997 -93.325)" fill="#2f4419"/>
      <path id="Trazado_248651" data-name="Trazado 248651" d="M339.5,228.383V419.27H589.937V227.446Z" transform="translate(-197.095 -152.605)" fill="#afc797"/>
      <path id="Trazado_248652" data-name="Trazado 248652" d="M381.285,228.383V419.27H631.726V227.446Z" transform="translate(-221.356 -152.605)" fill="#839571"/>
      <path id="Trazado_248653" data-name="Trazado 248653" d="M649.1,205.224H401.685a9.4,9.4,0,0,0-9.548,8.189V404.36H662.169v-186.1c.059-6.857-6.127-13.034-13.067-13.034Z" transform="translate(-208.243 -137.695)" fill="#fff"/>
      <path id="Trazado_248654" data-name="Trazado 248654" d="M748.914,96.542l-153.765.429.326,116.857L749.24,213.4Z" transform="translate(-363.025 -64.775)" fill="#2f4419"/>
      <path id="Trazado_248655" data-name="Trazado 248655" d="M752.795,108.167l-145.9.407L607.2,216l145.9-.407Z" transform="translate(-371.151 -72.575)" fill="#3b5620"/>
      <path id="Trazado_248656" data-name="Trazado 248656" d="M645.185,308.749l93.76-.263L687.679,259.3Z" transform="translate(-400.206 -173.981)" fill="#e3eeff"/>
      <path id="Trazado_248657" data-name="Trazado 248657" d="M774.749,325.872l78.781-.22-42.749-40.647Z" transform="translate(-482.157 -191.224)" fill="#e3eeff"/>
      <path id="Trazado_248658" data-name="Trazado 248658" d="M848.863,211.6a10.858,10.858,0,1,0-15.355,0A10.857,10.857,0,0,0,848.863,211.6Z" transform="translate(-522.122 -129.535)" fill="#e3eeff"/>
      <path id="Trazado_248659" data-name="Trazado 248659" d="M832.159,53.928l-142.552.448.39,123.97,142.551-.448Z" transform="translate(-422.168 -36.183)" fill="#233313"/>
      <path id="Trazado_248660" data-name="Trazado 248660" d="M836.146,66.28,701.69,66.7l.358,113.966,134.457-.423Z" transform="translate(-430.628 -44.471)" fill="#3b5620"/>
      <path id="Trazado_248661" data-name="Trazado 248661" d="M795.381,115.319H741.832v4.7h53.549Z" transform="translate(-463.965 -77.373)" fill="#ccc8a6"/>
      <path id="Trazado_248662" data-name="Trazado 248662" d="M850.78,153.932H741.832v4.7H850.78Z" transform="translate(-458.483 -103.281)" fill="#ccc8a6"/>
      <path id="Trazado_248663" data-name="Trazado 248663" d="M850.78,193.24H741.832v4.7H850.78Z" transform="translate(-458.483 -129.654)" fill="#ccc8a6"/>
      <path id="Trazado_248664" data-name="Trazado 248664" d="M652.725,205.224H405.309a9.4,9.4,0,0,0-9.548,8.189V404.36H665.792v-186.1C665.854,211.4,659.665,205.224,652.725,205.224Z" transform="translate(-210.675 -137.695)" fill="#3b5620"/>
      <path id="Trazado_248665" data-name="Trazado 248665" d="M336.581,807.072H309.335v1.1h27.246Z" transform="translate(-194.344 -541.505)" fill="#fff"/>
      <g id="Grupo_1015401" data-name="Grupo 1015401" transform="translate(156.648 148.294)" opacity="0.5">
        <path id="Trazado_248666" data-name="Trazado 248666" d="M309.335,450.673l9.924,6.476h13.648l3.674,2.579v-2.417H606.613v-6.638Z" transform="translate(-309.335 -450.673)"/>
      </g>
      <path id="Trazado_248667" data-name="Trazado 248667" d="M604.295,354.393H297.68v34.645H604.295Z" transform="translate(-144.867 -237.78)" fill="#afc797"/>
      <path id="Trazado_248668" data-name="Trazado 248668" d="M660.574,354.393H381.56v34.645H660.574Z" transform="translate(-201.146 -237.78)" fill="#88a070"/>
      <path id="Trazado_248669" data-name="Trazado 248669" d="M615.979,354.393v34.63h24.243l-17-34.63Z" transform="translate(-387.182 -237.78)" fill="#0e0e0e"/>
      <path id="Trazado_248670" data-name="Trazado 248670" d="M605.1,354.425h-6.439v34.62H605.1c2.11,0,4.02-1.9,5.393-5.1a30.771,30.771,0,0,0,2.245-12.251C612.738,362.186,609.322,354.425,605.1,354.425Zm-.6,17.272c0-2.891.939-5.25,2.144-5.631,1.205.382,2.144,2.74,2.144,5.631s-.939,5.326-2.144,5.706C605.433,377.021,604.5,374.664,604.5,371.7Z" transform="translate(-376.888 -237.802)" fill="#bac4b1"/>
      <path id="Trazado_248671" data-name="Trazado 248671" d="M601.47,354.425h-2.8v34.62h2.8c2.21,0,4.206-1.9,5.644-5.1a29.6,29.6,0,0,0,2.348-12.251C609.462,362.186,605.886,354.425,601.47,354.425Zm1.823,22.979c-1.262-.382-2.243-2.738-2.243-5.706s.981-5.25,2.243-5.631c1.262.381,3.085,2.74,3.085,5.631S604.555,377.025,603.293,377.4Z" transform="translate(-377.077 -237.802)" fill="#3f9ee6"/>
      <path id="Trazado_248672" data-name="Trazado 248672" d="M595.726,354.425h-6.439v34.62h6.439c2.11,0,4.02-1.9,5.393-5.1a30.77,30.77,0,0,0,2.245-12.251C603.364,362.186,599.948,354.425,595.726,354.425Zm-.6,17.272c0-2.891.939-5.25,2.144-5.631,1.205.382,2.144,2.74,2.144,5.631s-.939,5.326-2.144,5.706C596.059,377.021,595.122,374.664,595.122,371.7Z" transform="translate(-370.987 -237.802)" fill="#bac4b1"/>
      <path id="Trazado_248673" data-name="Trazado 248673" d="M592.1,354.425h-2.8v34.62h2.8c2.21,0,4.206-1.9,5.643-5.1a29.6,29.6,0,0,0,2.348-12.251C600.088,362.186,596.512,354.425,592.1,354.425ZM594.76,377.4c-1.262-.382-2.243-2.738-2.243-5.706s.982-5.25,2.243-5.631c1.262.381,2.243,2.74,2.243,5.631S596.022,377.025,594.76,377.4Z" transform="translate(-371.172 -237.802)" fill="#afc797"/>
      <path id="Trazado_248674" data-name="Trazado 248674" d="M608.43,388.81h-.039a.226.226,0,1,1,.018-.451,4.9,4.9,0,0,0,3.228-1.556c1.812-1.751,3.972-5.729,3.972-14.737,0-16.439-7.173-17.868-7.246-17.88a.226.226,0,0,1,.076-.446,6.924,6.924,0,0,1,3.857,2.829c1.716,2.238,3.764,6.744,3.764,15.5,0,9.188-2.245,13.27-4.126,15.078a5.317,5.317,0,0,1-3.5,1.665Z" transform="translate(-383.23 -237.34)" fill="#1a5380"/>
      <path id="Trazado_248675" data-name="Trazado 248675" d="M540.916,402.47c-.305.076-.531.152-.836.229q.077.077,0,.076a29.694,29.694,0,0,0-21.3,28.38v28.921h-9.74V431.155a39.392,39.392,0,0,1,30.74-38.348,6.21,6.21,0,0,1,1.141-.3c2.816-.608,3.045,9.511,0,9.965Z" transform="translate(-319.452 -263.333)" fill="#ccc"/>
      <path id="Trazado_248676" data-name="Trazado 248676" d="M640.952,390.988v9.685a29.9,29.9,0,0,1,25.386,23.1,3.224,3.224,0,0,1,.152.76,17.66,17.66,0,0,1,.305,1.979,29.308,29.308,0,0,1,.229,3.652v28.921h9.664V430.165a39.507,39.507,0,0,0-35.734-39.177Z" transform="translate(-402.126 -262.334)" fill="#ccc"/>
      <path id="Trazado_248677" data-name="Trazado 248677" d="M554.037,413.6c-22.837,4.005-25.778,28.87-25.778,28.87v31.6h3.425V445.154a29.791,29.791,0,0,1,22.12-28.673c.971-.314,1.574-3.154,1.574-3.154s-.6.135-1.342.277Z" transform="translate(-331.892 -277.323)" fill="#233313"/>
      <path id="Trazado_248678" data-name="Trazado 248678" d="M640.952,414.164v2.059a29.9,29.9,0,0,1,25.386,23.1c-.547-7.1-6.437-22.63-25.386-25.159Z" transform="translate(-402.806 -277.884)" fill="#233313"/>
      <path id="Trazado_248679" data-name="Trazado 248679" d="M603.593,402.47c-.305.076-.531.152-.836.229a10.244,10.244,0,0,0,1.619-4.882c.153-2.969-.856-4.975-1.924-5.01a6.215,6.215,0,0,1,1.141-.3c2.816-.608,3.045,9.511,0,9.965Z" transform="translate(-379.874 -263.333)" fill="#666"/>
      <path id="Trazado_248680" data-name="Trazado 248680" d="M508.432,483.771a.444.444,0,0,1-.444-.444V453.945a40.989,40.989,0,0,1,1.109-10,37.611,37.611,0,0,1,10.126-18.709.444.444,0,0,1,.618.639,36.742,36.742,0,0,0-9.873,18.243,40.972,40.972,0,0,0-1.1,9.8v29.413a.444.444,0,0,1-.444.444Z" transform="translate(-319.898 -285.229)" fill="#fff"/>
      <path id="Trazado_248681" data-name="Trazado 248681" d="M579.581,573.953H483.633v78.431h95.948Z" transform="translate(-299.844 -385.094)" fill="#afc797"/>
      <path id="Trazado_248682" data-name="Trazado 248682" d="M591.746,644.5a11.98,11.98,0,0,0,7,10.906v20.2a4.937,4.937,0,0,0,3.883,4.84h.227a2.585,2.585,0,0,0,.761.076,4.925,4.925,0,0,0,4.868-4.916v-20.2a12.064,12.064,0,0,0,7-10.906,11.877,11.877,0,0,0-11.87-11.907,3.7,3.7,0,0,0-.914.076A11.8,11.8,0,0,0,591.748,644.5Z" transform="translate(-371.98 -424.441)" fill="#3b5620"/>
      <path id="Trazado_248683" data-name="Trazado 248683" d="M591.746,644.663a11.98,11.98,0,0,0,7,10.906v20.2a4.937,4.937,0,0,0,3.883,4.84h.227a4.937,4.937,0,0,0,3.881-4.84v-20.2a12.064,12.064,0,0,0,7-10.906,11.024,11.024,0,1,0-21.989,0Z" transform="translate(-372.082 -424.6)" fill="#233313"/>
      <path id="Trazado_248684" data-name="Trazado 248684" d="M682.692,652.384h30.446V573.953h-8.446S706.935,631.824,682.692,652.384Z" transform="translate(-428.688 -385.094)" fill="#839571"/>
      <path id="Trazado_248685" data-name="Trazado 248685" d="M514.475,652.384c-7.271-15.559-5.915-57.39-5.915-78.431H498.9v78.431Z" transform="translate(-314.01 -385.094)" fill="#c8e4ad"/>
      <path id="Trazado_248686" data-name="Trazado 248686" d="M982.252,341.185s4.992,4.742,3.4,13.73c7.476,6.252,8.289,17.4,7.2,22.566,12.9,11.69,9.72,28.394.727,33.305-8.578,4.682-21.128.252-26.282-10.695-8.208-13.717-16.221-39.332-3.308-52.79-2.715-9.472,14.547-11.01,18.262-6.117Z" transform="translate(-599.659 -227.096)" fill="#0e0e0e"/>
      <path id="Trazado_248687" data-name="Trazado 248687" d="M939.089,340.945,926.346,328l.01-22.406-4.209-.554s-3.445,20.377-3.434,24.71c.011,3.844,12.913,20.555,12.913,20.555l7.461-9.355Z" transform="translate(-577.82 -204.665)" fill="#ffa599"/>
      <path id="Trazado_248688" data-name="Trazado 248688" d="M980.341,424.194,973.306,443.5H954.647s-1.219-11.939-1.475-18.29a24.934,24.934,0,0,1,.029-3.4c.623-4.595,8.2-10.833,8.2-10.833a.8.8,0,0,0,.17-.028c1.5-.17,11.739-1.3,15.483,1.842,4,3.4,3.291,11.4,3.291,11.4Z" transform="translate(-598.818 -275.501)" fill="#3b5620"/>
      <path id="Trazado_248689" data-name="Trazado 248689" d="M998.429,582.556H981.823c.414,3.381,2.174,7.053,2.93,10.073,6.763,18.526,10.06,43.327,17.2,59.667,0,0,3.07,1.592,5.11,0-1.4-12.3-1.3-19.921-5.3-40.288-1.395-5.924-.832-20.083-3.33-29.45Z" transform="translate(-617.041 -390.866)" fill="#ffa599"/>
      <path id="Trazado_248690" data-name="Trazado 248690" d="M934.048,582.552c-2.153,20.543-6.112,64.916-6.549,69.5l5.278.027c3.461-11.758,7.876-22.307,8.265-37.223,2.692-8.207,7.175-22.01,10.534-32.3h-17.53Z" transform="translate(-583.008 -390.862)" fill="#ffa599"/>
      <path id="Trazado_248691" data-name="Trazado 248691" d="M970.631,595.009l-12.54,1.033-3.044.252-13.459,1.117c-.584,5.7-1.235,12.473-1.872,19.435,4.05,1.679,9.7,4.105,10.19,4.322l6.593-20.183c1.929,6.288,4.29,14.509,6.07,20.926a50.014,50.014,0,0,1,10.563-3.7C972.474,610.779,971.658,602.234,970.631,595.009Z" transform="translate(-589.795 -399.221)" fill="#e87c5d"/>
      <path id="Trazado_248692" data-name="Trazado 248692" d="M1019.781,352.991l12.353-9.472-3.942-20.857,4.5-1.386s9.737,19.691,9.723,24.023c-.007,3.844-17.861,19.057-17.861,19.057C1021.631,365.739,1017.271,359.281,1019.781,352.991Z" transform="translate(-640.614 -215.561)" fill="#ffa599"/>
      <path id="Trazado_248693" data-name="Trazado 248693" d="M976.558,408.617s-5.25,3.591-3.288,6.276c1.688,2.313,5.853-.323,5.853-.323s.7,3.576,3.5,3.1c3.893-.664,4.705-6.4,3.077-8.267s-7.241-1.75-9.14-.784Z" transform="translate(-612.486 -273.702)" fill="#fff"/>
      <path id="Trazado_248694" data-name="Trazado 248694" d="M991.941,401.012c0,1.56-2.6,3.8-6.216,3.62-2.3-.115-3.59-1.418-3.214-3.033l.4-2.069,1.106-5.9,8.43.227-.507,7.156Z" transform="translate(-618.878 -264.107)" fill="#ffa599"/>
      <path id="Trazado_248695" data-name="Trazado 248695" d="M992.811,394.964c-1.162,2.432-3.462,4.3-8.96,4.567l1.106-5.9,7.828.227Z" transform="translate(-619.858 -264.107)" fill="#e87c5d"/>
      <path id="Trazado_248696" data-name="Trazado 248696" d="M990.5,351.3c-1.448,4.767-7.012,7.633-12.561,5.706-5.312-4.529-2.85-10.423-1.692-12.072-1.388-7.845,7.3-11.584,12.867-8.375,4.771,2.753,4.449,9.1,1.385,14.739Z" transform="translate(-613.222 -225.044)" fill="#ffa599"/>
      <path id="Trazado_248697" data-name="Trazado 248697" d="M973.023,558.048a65.162,65.162,0,0,1-17.354,3.148c-12.393.708-26.62-1.344-27.9-3.583,2.534-23.169,9.887-47.034,9.887-47.034h18.63c3.291,2.58,6.268,7.09,8.2,11.91,1.3,3.8,6.522,20.445,8.536,35.56Z" transform="translate(-581.125 -342.573)" fill="#3b5620"/>
      <path id="Trazado_248698" data-name="Trazado 248698" d="M898.259,799.1c0-.066,3.136-.069,6.49-.053,3.86.013,8.665.053,8.665.053a17.515,17.515,0,0,0-.339-5.315l-6.047-.03a41,41,0,0,0-4.614,1.178c-.193.059-.4.1-.612.153C897.105,796.169,898.259,799.234,898.259,799.1Z" transform="translate(-565.314 -532.567)" fill="#fdfeff"/>
      <path id="Trazado_248699" data-name="Trazado 248699" d="M898.259,801.5c0-.066,3.136-.069,6.49-.053a2.964,2.964,0,0,0,.158-.965,3.387,3.387,0,0,0-2.494-3.148c-.2.053-.4.1-.612.153C897.105,798.573,898.259,801.637,898.259,801.5Z" transform="translate(-566.035 -534.97)" fill="#d9ecff"/>
      <path id="Trazado_248700" data-name="Trazado 248700" d="M897.576,808.069h15.673v-.953H897.576Z" transform="translate(-564.934 -541.535)" fill="#d9ecff"/>
      <path id="Trazado_248701" data-name="Trazado 248701" d="M1041.8,799.748c.092,0,1.625-.018,3.531-.035,3.1-.03,7.177-.053,7.558.035,1.079-2.61-1.158-3.949-3.221-4.687-.879-.311-1.731-.515-2.274-.658l-5.252.03A17.477,17.477,0,0,0,1041.8,799.748Z" transform="translate(-656.087 -533.005)" fill="#fdfeff"/>
      <path id="Trazado_248702" data-name="Trazado 248702" d="M1052.915,807.763H1041.31v.953h11.606Z" transform="translate(-655.802 -541.969)" fill="#d9ecff"/>
      <path id="Trazado_248703" data-name="Trazado 248703" d="M1052.082,800.988c3.1-.03,7.173-.053,7.558.035,1.079-2.61-1.162-3.949-3.225-4.687a4.281,4.281,0,0,0-3.689,1.217,2.957,2.957,0,0,0-.645,3.436Z" transform="translate(-662.746 -534.28)" fill="#d9ecff"/>
      <path id="Trazado_248704" data-name="Trazado 248704" d="M966.456,512.046a24.507,24.507,0,0,1-9.669-1.933.425.425,0,1,1,.371-.765,23.621,23.621,0,0,0,18.261-.007.426.426,0,1,1,.342.779,23.016,23.016,0,0,1-9.3,1.926Z" transform="translate(-601.701 -341.718)" fill="#fff"/>
      <path id="Trazado_248705" data-name="Trazado 248705" d="M959.949,339.954c5.8,6.932,13.413-6.888,18.529-2.545,0,0,.451,10.363,3.936,6.879,1.086-1.3,2.307-7.422-.589-9.458.069-3.349-5.5-6.657-12.028-5.086a8.308,8.308,0,0,0-6.182,6.077C961.037,335.121,958.62,337.6,959.949,339.954Z" transform="translate(-603.171 -220.972)" fill="#0e0e0e"/>
      <path id="Trazado_248706" data-name="Trazado 248706" d="M910.579,261.982l-113.97-20.815L794.5,252.739l113.971,20.815Z" transform="translate(-490.133 -161.811)" fill="#233313"/>
      <path id="Trazado_248707" data-name="Trazado 248707" d="M914.725,261.3,800.756,240.489l-.14.77,113.971,20.815Z" transform="translate(-494.163 -161.356)" fill="#fff"/>
      <path id="Trazado_248708" data-name="Trazado 248708" d="M1145.247,239.265A30.9,30.9,0,1,0,1170.1,275.2,30.915,30.915,0,0,0,1145.247,239.265Zm13.988,32.978c-.026.307-.082.643-.138.95a19.707,19.707,0,0,1-38.9-.754,19.469,19.469,0,0,1,.112-6.338,19.715,19.715,0,0,1,38.956,6,.267.267,0,0,1-.026.14Z" transform="translate(-689.093 -160.193)" fill="#233313"/>
      <path id="Trazado_248709" data-name="Trazado 248709" d="M825.533,259.85l-10.7-1.953-4.1,22.443,10.7,1.954Z" transform="translate(-510.347 -173.036)" fill="#233313"/>
      <path id="Trazado_248710" data-name="Trazado 248710" d="M889.461,276.657l-10.7-1.953-3.106,17.008,10.7,1.953Z" transform="translate(-551.296 -184.313)" fill="#233313"/>
      <path id="Trazado_248711" data-name="Trazado 248711" d="M1181.461,291.131a19.715,19.715,0,0,0-38.956-6,19.387,19.387,0,0,0-.112,6.337,18.582,18.582,0,0,1-.5-4.355,19.995,19.995,0,0,1,39.99,0A19.272,19.272,0,0,1,1181.461,291.131Z" transform="translate(-711.29 -179.221)" fill="#4c6f2a"/>
      <path id="Trazado_248712" data-name="Trazado 248712" d="M1143.366,238.38c-23.089-.939-30.69,19.971-30.776,20.205l1.109.176c.322-.921,7.4-20.31,29.667-19.281v-1.1Z" transform="translate(-691.631 -159.921)" fill="#fff"/>
      <path id="Trazado_248713" data-name="Trazado 248713" d="M932.834,296.873s1.649-.4,2.1-3.225.522-2.171.522-2.171-1.555-.8-2.378,2.462c-2.44-.163-4.4,1-4.263,2.574C928.9,297.48,932.534,297.311,932.834,296.873Z" transform="translate(-585.38 -195.509)" fill="#ffa599"/>
      <path id="Trazado_248714" data-name="Trazado 248714" d="M929.068,295.474l-.236-.149a4.588,4.588,0,0,1,4.156-1.731c.472-1.851,1.363-2.723,2.519-2.453l-.064.271c-1.285-.3-1.911,1.118-2.211,2.359l-.027.112-.115-.005a4.45,4.45,0,0,0-4.02,1.594Z" transform="translate(-585.39 -195.309)" fill="#ff7e59"/>
      <path id="Trazado_248715" data-name="Trazado 248715" d="M1040.672,316.521s-2.432-.811-3.392-5.875c1.563-1.111,2.178,1.826,2.178,1.826a11.264,11.264,0,0,1,4.449.667c.958.435,1.185.962,1.721,2.314,1.379,2.912-4.955,1.065-4.955,1.065Z" transform="translate(-653.56 -208.26)" fill="#ffa599"/>
      <path id="Trazado_248716" data-name="Trazado 248716" d="M1045.317,315.428a.136.136,0,0,1-.129-.088c0-.006-.181-.458-.533-1.241-1.013-1.983-5.429-1.651-5.475-1.647l-.112.009-.033-.11a9.608,9.608,0,0,0-.615-1.5.7.7,0,0,0-.418-.378,1.461,1.461,0,0,0-.948.137.14.14,0,0,1-.132-.247,1.7,1.7,0,0,1,1.161-.156.966.966,0,0,1,.583.52,10.654,10.654,0,0,1,.6,1.441c.731-.044,4.62-.179,5.637,1.812.359.8.54,1.257.54,1.26a.138.138,0,0,1-.079.181.131.131,0,0,1-.053.009Z" transform="translate(-653.283 -208.099)" fill="#ff7e59"/>
      <path id="Trazado_248717" data-name="Trazado 248717" d="M1023.006,378.385a1.926,1.926,0,1,0-2.208-1.592A1.925,1.925,0,0,0,1023.006,378.385Z" transform="translate(-643.598 -251.31)" fill="#ffa599"/>
      <path id="Trazado_248718" data-name="Trazado 248718" d="M927.229,490.641H927.2a.269.269,0,0,1-.241-.289c1.995-21.684,9.417-45.861,9.809-47.124-.085-1.042-1.386-17.174-1.4-21.577-.009-3.983,7.862-10.923,8.2-11.218a.267.267,0,0,1,.351.4c-.08.071-8.024,7.074-8.015,10.816.009,4.508,1.384,21.418,1.4,21.588l0,.051-.016.05c-.078.247-7.768,24.96-9.8,47.064a.266.266,0,0,1-.264.242Z" transform="translate(-583.307 -275.335)" fill="#fff"/>
    </g>
  </g>
</svg>
