<svg xmlns="http://www.w3.org/2000/svg" xmlns:xlink="http://www.w3.org/1999/xlink" width="1030" height="476" viewBox="0 0 1030 476">
  <defs>
    <linearGradient id="linear-gradient" x1="0.5" y1="-0.401" x2="0.5" y2="-0.374" gradientUnits="objectBoundingBox">
      <stop offset="0" stop-color="#f3f7ff"/>
      <stop offset="0.99" stop-color="#b5d1ff"/>
    </linearGradient>
    <linearGradient id="linear-gradient-2" y1="-0.085" y2="2.406" xlink:href="#linear-gradient"/>
    <linearGradient id="linear-gradient-3" y1="-2.145" y2="-0.366" xlink:href="#linear-gradient"/>
    <linearGradient id="linear-gradient-4" y1="-29.437" y2="-23.877" xlink:href="#linear-gradient"/>
    <linearGradient id="linear-gradient-5" y1="-34.116" y2="-28.556" xlink:href="#linear-gradient"/>
    <linearGradient id="linear-gradient-6" y1="-38.796" y2="-33.235" xlink:href="#linear-gradient"/>
    <linearGradient id="linear-gradient-7" y1="-43.476" y2="-37.916" xlink:href="#linear-gradient"/>
    <linearGradient id="linear-gradient-8" y1="-48.156" y2="-42.595" xlink:href="#linear-gradient"/>
    <linearGradient id="linear-gradient-9" y1="-52.835" y2="-47.275" xlink:href="#linear-gradient"/>
    <linearGradient id="linear-gradient-10" y1="-57.514" y2="-51.954" xlink:href="#linear-gradient"/>
    <linearGradient id="linear-gradient-11" y1="-62.194" y2="-56.634" xlink:href="#linear-gradient"/>
    <linearGradient id="linear-gradient-12" x1="-9.288" y1="-10.531" x2="-5.967" y2="-10.514" gradientUnits="objectBoundingBox">
      <stop offset="0" stop-color="#048ac4"/>
      <stop offset="1" stop-color="#35489b"/>
    </linearGradient>
    <linearGradient id="linear-gradient-13" x1="0.382" y1="0.451" x2="1.352" y2="1.421" xlink:href="#linear-gradient"/>
    <linearGradient id="linear-gradient-14" x1="-1.262" y1="-11.336" x2="-0.519" y2="-11.316" gradientUnits="objectBoundingBox">
      <stop offset="0" stop-color="#fdc830"/>
      <stop offset="1" stop-color="#f37335"/>
    </linearGradient>
    <linearGradient id="linear-gradient-15" x1="-14.703" y1="-29.55" x2="-11.468" y2="-29.533" xlink:href="#linear-gradient-12"/>
    <linearGradient id="linear-gradient-16" x1="0.5" x2="0.5" y2="1" gradientUnits="objectBoundingBox">
      <stop offset="0" stop-color="#144677"/>
      <stop offset="1" stop-color="#00574f"/>
    </linearGradient>
  </defs>
  <g id="Grupo_1070454" data-name="Grupo 1070454" transform="translate(-285 -6624.092)">
    <g id="Grupo_1070434" data-name="Grupo 1070434" transform="translate(0 22.236)">
      <g id="Grupo_1016227" data-name="Grupo 1016227" transform="translate(0 -1.145)">
        <g id="Grupo_1016226" data-name="Grupo 1016226" transform="translate(0 -11.35)">
          <g id="Grupo_1015434" data-name="Grupo 1015434" transform="translate(0 26.881)">
            <g id="Grupo_1015409" data-name="Grupo 1015409" transform="translate(16.164 5119.032)">
              <path id="Trazado_609412" data-name="Trazado 609412" d="M16,0H323a16,16,0,0,1,16,16V49a16,16,0,0,1-16,16H16A16,16,0,0,1,0,49V16A16,16,0,0,1,16,0Z" transform="translate(624.336 1486)" fill="#dbf9bd"/>
              <path id="Trazado_815160" data-name="Trazado 815160" d="M9.026,11.9H4.052V17H.967V4.2H9.527V6.585H4.052V9.529H9.026Zm7.119,4.069a3.054,3.054,0,0,1-2.54,1.2,3,3,0,0,1-2.369-.91,3.826,3.826,0,0,1-.8-2.615V7.49h2.962v6.179a1.065,1.065,0,0,0,1.187,1.222,1.548,1.548,0,0,0,1.45-.729V7.49h2.979V17H16.233Zm9.088,1.2a4.889,4.889,0,0,1-3.542-1.305,4.507,4.507,0,0,1-1.354-3.4v-.246a5.84,5.84,0,0,1,.541-2.575,3.955,3.955,0,0,1,1.578-1.727,4.763,4.763,0,0,1,2.461-.611,4.117,4.117,0,0,1,3.164,1.244,4.887,4.887,0,0,1,1.16,3.467v1.151H23.353a2.135,2.135,0,0,0,.694,1.257,2.066,2.066,0,0,0,1.389.457,2.662,2.662,0,0,0,2.2-.984l1.354,1.6a3.784,3.784,0,0,1-1.569,1.217A5.3,5.3,0,0,1,25.233,17.176ZM24.9,9.6q-1.3,0-1.547,1.723h2.988v-.229a1.467,1.467,0,0,0-.36-1.1A1.434,1.434,0,0,0,24.9,9.6ZM33.152,7.49l.1,1.116a3.225,3.225,0,0,1,2.716-1.292,2.713,2.713,0,0,1,2.219.888,4.226,4.226,0,0,1,.76,2.672V17H35.974V11a1.6,1.6,0,0,0-.29-1.059A1.342,1.342,0,0,0,34.629,9.6a1.413,1.413,0,0,0-1.292.686V17H30.375V7.49ZM44.033,5.126V7.49H45.6V9.547H44.033V13.9a1.111,1.111,0,0,0,.193.747,1.037,1.037,0,0,0,.765.211,4.345,4.345,0,0,0,.738-.053v2.118a5.466,5.466,0,0,1-1.67.255,3.1,3.1,0,0,1-2.259-.721,2.954,2.954,0,0,1-.729-2.188V9.547H39.858V7.49h1.213V5.126Zm7.33,12.05a4.889,4.889,0,0,1-3.542-1.305,4.507,4.507,0,0,1-1.354-3.4v-.246a5.84,5.84,0,0,1,.541-2.575,3.955,3.955,0,0,1,1.578-1.727,4.763,4.763,0,0,1,2.461-.611,4.117,4.117,0,0,1,3.164,1.244,4.887,4.887,0,0,1,1.16,3.467v1.151H49.482a2.135,2.135,0,0,0,.694,1.257,2.066,2.066,0,0,0,1.389.457,2.662,2.662,0,0,0,2.2-.984l1.354,1.6a3.784,3.784,0,0,1-1.569,1.217A5.3,5.3,0,0,1,51.363,17.176ZM51.029,9.6q-1.3,0-1.547,1.723h2.988v-.229a1.467,1.467,0,0,0-.36-1.1A1.434,1.434,0,0,0,51.029,9.6Zm10.512,4.729a.684.684,0,0,0-.4-.606,6.016,6.016,0,0,0-1.5-.475,6.853,6.853,0,0,1-1.828-.646,3.062,3.062,0,0,1-1.1-.971,2.319,2.319,0,0,1-.378-1.31,2.628,2.628,0,0,1,1.081-2.158,4.453,4.453,0,0,1,2.83-.848,4.934,4.934,0,0,1,3.023.853,2.666,2.666,0,0,1,1.143,2.241H61.444q0-1.143-1.2-1.143a1.194,1.194,0,0,0-.782.259.8.8,0,0,0-.316.646.737.737,0,0,0,.387.642,3.654,3.654,0,0,0,1.235.4,10.671,10.671,0,0,1,1.49.378A2.706,2.706,0,0,1,64.4,14.24a2.491,2.491,0,0,1-1.156,2.118,5.068,5.068,0,0,1-2.993.817,5.172,5.172,0,0,1-2.18-.439,3.645,3.645,0,0,1-1.494-1.2,2.707,2.707,0,0,1-.536-1.591h2.769a1.145,1.145,0,0,0,.439.962,1.808,1.808,0,0,0,1.081.3,1.422,1.422,0,0,0,.91-.246A.787.787,0,0,0,61.541,14.328Zm8.35-2.153a5.809,5.809,0,0,1,.976-3.56,3.211,3.211,0,0,1,2.725-1.3,2.731,2.731,0,0,1,2.145,1V3.5h2.971V17H76.043l-.149-1.02a2.8,2.8,0,0,1-2.32,1.2,3.205,3.205,0,0,1-2.689-1.3A5.993,5.993,0,0,1,69.891,12.175Zm2.962.185q0,2.531,1.477,2.531a1.458,1.458,0,0,0,1.406-.826V10.443A1.419,1.419,0,0,0,74.347,9.6q-1.371,0-1.485,2.215ZM84.99,17.176a4.889,4.889,0,0,1-3.542-1.305,4.507,4.507,0,0,1-1.354-3.4v-.246a5.84,5.84,0,0,1,.541-2.575,3.955,3.955,0,0,1,1.578-1.727,4.763,4.763,0,0,1,2.461-.611,4.117,4.117,0,0,1,3.164,1.244A4.887,4.887,0,0,1,89,12.025v1.151H83.109a2.135,2.135,0,0,0,.694,1.257,2.066,2.066,0,0,0,1.389.457,2.662,2.662,0,0,0,2.2-.984l1.354,1.6a3.784,3.784,0,0,1-1.569,1.217A5.3,5.3,0,0,1,84.99,17.176ZM84.656,9.6q-1.3,0-1.547,1.723H86.1v-.229a1.467,1.467,0,0,0-.36-1.1A1.434,1.434,0,0,0,84.656,9.6ZM97.8,17H94.825V7.49H97.8ZM94.649,5.038A1.322,1.322,0,0,1,95.106,4a1.943,1.943,0,0,1,2.373,0,1.322,1.322,0,0,1,.457,1.037,1.322,1.322,0,0,1-.457,1.037,1.943,1.943,0,0,1-2.373,0A1.322,1.322,0,0,1,94.649,5.038Zm7.69,2.452.1,1.116a3.225,3.225,0,0,1,2.716-1.292,2.713,2.713,0,0,1,2.219.888,4.226,4.226,0,0,1,.76,2.672V17h-2.971V11a1.6,1.6,0,0,0-.29-1.059,1.342,1.342,0,0,0-1.055-.338,1.413,1.413,0,0,0-1.292.686V17H99.563V7.49ZM110.426,17V9.547h-1.38V7.49h1.38V6.734a3.286,3.286,0,0,1,.958-2.522,3.785,3.785,0,0,1,2.689-.9,5.89,5.89,0,0,1,1.389.185l.009,2.18a2.706,2.706,0,0,0-.729-.079q-1.345,0-1.345,1.16V7.49h1.854V9.547H113.4V17Zm5.493-4.843a5.613,5.613,0,0,1,.554-2.536,3.96,3.96,0,0,1,1.591-1.709,4.791,4.791,0,0,1,2.435-.6,4.373,4.373,0,0,1,3.366,1.323,5.076,5.076,0,0,1,1.23,3.6v.105a4.925,4.925,0,0,1-1.235,3.529,4.384,4.384,0,0,1-3.344,1.305,4.434,4.434,0,0,1-3.261-1.217,4.761,4.761,0,0,1-1.327-3.3Zm2.962.185a3.538,3.538,0,0,0,.413,1.934,1.376,1.376,0,0,0,1.222.615q1.582,0,1.617-2.435v-.3q0-2.558-1.635-2.558-1.485,0-1.608,2.206Zm13.271-2.171-.976-.07a1.752,1.752,0,0,0-1.793.879V17h-2.962V7.49H129.2l.1,1.222a2.294,2.294,0,0,1,2.083-1.4,2.888,2.888,0,0,1,.826.105ZM136.02,7.49l.1,1.116a3.27,3.27,0,0,1,2.716-1.292,2.407,2.407,0,0,1,2.435,1.433,3.165,3.165,0,0,1,2.795-1.433q2.892,0,2.971,3.5V17h-2.971V11a1.813,1.813,0,0,0-.246-1.063,1.048,1.048,0,0,0-.9-.334,1.4,1.4,0,0,0-1.31.782l.009.123V17h-2.971V11.015a1.906,1.906,0,0,0-.237-1.081A1.045,1.045,0,0,0,137.5,9.6a1.42,1.42,0,0,0-1.3.782V17h-2.962V7.49ZM154.081,17a3.344,3.344,0,0,1-.281-.853,2.754,2.754,0,0,1-2.285,1.028,3.374,3.374,0,0,1-2.285-.813,2.588,2.588,0,0,1-.94-2.043,2.66,2.66,0,0,1,1.143-2.338,5.821,5.821,0,0,1,3.322-.791h.914v-.5q0-1.316-1.134-1.316a.927.927,0,0,0-1.055,1.042h-2.962a2.655,2.655,0,0,1,1.173-2.239,4.931,4.931,0,0,1,2.993-.86,4.323,4.323,0,0,1,2.874.888,3.086,3.086,0,0,1,1.081,2.435v4.21a4.311,4.311,0,0,0,.4,2V17Zm-1.854-1.934a1.652,1.652,0,0,0,.918-.237,1.487,1.487,0,0,0,.523-.536V12.772h-.861q-1.547,0-1.547,1.389a.848.848,0,0,0,.272.655A.986.986,0,0,0,152.227,15.066Zm10.072-.176a1.317,1.317,0,0,0,.967-.338,1.241,1.241,0,0,0,.334-.945h2.777a3.288,3.288,0,0,1-1.121,2.566,4.168,4.168,0,0,1-2.887,1,4.22,4.22,0,0,1-3.27-1.3,5.125,5.125,0,0,1-1.2-3.6v-.123a5.792,5.792,0,0,1,.532-2.544,3.872,3.872,0,0,1,1.534-1.7,4.573,4.573,0,0,1,2.373-.593,4.116,4.116,0,0,1,2.944,1.028,3.647,3.647,0,0,1,1.09,2.786H163.6a1.626,1.626,0,0,0-.36-1.134,1.244,1.244,0,0,0-.967-.4q-1.151,0-1.345,1.468a10.357,10.357,0,0,0-.062,1.283,4.068,4.068,0,0,0,.343,1.986A1.187,1.187,0,0,0,162.3,14.891ZM170.754,17h-2.971V7.49h2.971ZM167.607,5.038A1.322,1.322,0,0,1,168.064,4a1.943,1.943,0,0,1,2.373,0,1.322,1.322,0,0,1,.457,1.037,1.322,1.322,0,0,1-.457,1.037,1.943,1.943,0,0,1-2.373,0A1.322,1.322,0,0,1,167.607,5.038Zm4.6,7.119a5.613,5.613,0,0,1,.554-2.536,3.96,3.96,0,0,1,1.591-1.709,4.791,4.791,0,0,1,2.435-.6,4.373,4.373,0,0,1,3.366,1.323,5.076,5.076,0,0,1,1.23,3.6v.105a4.925,4.925,0,0,1-1.235,3.529,4.384,4.384,0,0,1-3.344,1.305,4.434,4.434,0,0,1-3.261-1.217,4.761,4.761,0,0,1-1.327-3.3Zm2.962.185a3.538,3.538,0,0,0,.413,1.934,1.376,1.376,0,0,0,1.222.615q1.582,0,1.617-2.435v-.3q0-2.558-1.635-2.558-1.485,0-1.608,2.206ZM177.188,3.5h3.129l-2.443,2.76-2.417,0Zm8.218,3.99.1,1.116a3.225,3.225,0,0,1,2.716-1.292,2.713,2.713,0,0,1,2.219.888,4.226,4.226,0,0,1,.76,2.672V17h-2.971V11a1.6,1.6,0,0,0-.29-1.059,1.342,1.342,0,0,0-1.055-.338,1.413,1.413,0,0,0-1.292.686V17h-2.962V7.49Z" transform="translate(743 1506)" fill="#12263f"/>
              <g id="informacion_1_" data-name="informacion (1)" transform="translate(649.336 1468.668)">
                <g id="Grupo_1015304" data-name="Grupo 1015304" transform="translate(0 19.735)">
                  <g id="Grupo_1015301" data-name="Grupo 1015301" transform="translate(5.071)">
                    <path id="Trazado_609278" data-name="Trazado 609278" d="M279.149,144.812a9.49,9.49,0,0,0-9.479-9.479H246.889l-1.556,25.909,1.556,21.777h32.261Z" transform="translate(-214.628 -135.333)" fill="#29376d"/>
                    <path id="Trazado_609279" data-name="Trazado 609279" d="M44.256,135.333a9.49,9.49,0,0,0-9.479,9.479v38.207H67.038V135.333Z" transform="translate(-34.777 -135.333)" fill="#47568c"/>
                  </g>
                  <g id="Grupo_1015302" data-name="Grupo 1015302" transform="translate(9.446 4.375)">
                    <path id="Trazado_609280" data-name="Trazado 609280" d="M274.774,170.437a5.11,5.11,0,0,0-5.1-5.1H246.889l-1.556,23.089,1.556,20.222h27.886Z" transform="translate(-219.003 -165.333)" fill="#eaf1ff"/>
                    <path id="Trazado_609281" data-name="Trazado 609281" d="M69.881,165.333a5.11,5.11,0,0,0-5.1,5.1v38.207H92.663V165.333Z" transform="translate(-64.777 -165.333)" fill="#f9f9f9"/>
                  </g>
                  <g id="Grupo_1015303" data-name="Grupo 1015303" transform="translate(0 45.814)">
                    <path id="Trazado_609282" data-name="Trazado 609282" d="M265.2,449.5l-17.742,4.557L246,456.427l1.458,2.187h28.218a9.125,9.125,0,0,0,9.114-9.114Z" transform="translate(-210.125 -449.5)" fill="#47568c"/>
                    <path id="Trazado_609283" data-name="Trazado 609283" d="M251.943,449.5l-.693,2.279.693,2.279h17.742V449.5Z" transform="translate(-214.611 -449.5)" fill="#29376d"/>
                    <path id="Trazado_609284" data-name="Trazado 609284" d="M0,449.5a9.124,9.124,0,0,0,9.114,9.114H37.332v-4.557L19.59,449.5Z" transform="translate(0 -449.5)" fill="#61729b"/>
                    <path id="Trazado_609285" data-name="Trazado 609285" d="M134.338,449.5H152.08v4.557H134.338Z" transform="translate(-114.748 -449.5)" fill="#47568c"/>
                  </g>
                </g>
                <g id="Grupo_1015305" data-name="Grupo 1015305" transform="translate(17.092)">
                  <path id="Trazado_609286" data-name="Trazado 609286" d="M245.209,0l-1.842,20.941,1.842,30.195s12.918-14.391,16.192-18.75A20.241,20.241,0,0,0,245.209,0Z" transform="translate(-224.969)" fill="#fdae02"/>
                  <path id="Trazado_609287" data-name="Trazado 609287" d="M117.208,20.24a20.069,20.069,0,0,0,4.048,12.145c3.274,4.359,16.192,18.75,16.192,18.75V0A20.263,20.263,0,0,0,117.208,20.24Z" transform="translate(-117.208)" fill="#fdcb02"/>
                </g>
                <g id="Grupo_1015306" data-name="Grupo 1015306" transform="translate(20.177 48.319)">
                  <path id="Trazado_609288" data-name="Trazado 609288" d="M264.044,331.345H246.889l-1.556,3.012,1.556,1.363h17.155Z" transform="translate(-229.734 -331.345)" fill="#f7d586"/>
                  <path id="Trazado_609289" data-name="Trazado 609289" d="M138.362,331.345h17.155v4.375H138.362Z" transform="translate(-138.362 -331.345)" fill="#f9e89c"/>
                </g>
                <g id="Grupo_1015308" data-name="Grupo 1015308" transform="translate(34.818 11.569)">
                  <path id="Trazado_609290" data-name="Trazado 609290" d="M246.889,148.418h2.193V134.749h-2.193l-1.556,6.793Z" transform="translate(-244.374 -126.668)" fill="#eaf1ff"/>
                  <path id="Trazado_609291" data-name="Trazado 609291" d="M249.4,81.847a2.514,2.514,0,0,0-2.514-2.514l-1.556,2.431,1.556,2.6A2.514,2.514,0,0,0,249.4,81.847Z" transform="translate(-244.374 -79.333)" fill="#eaf1ff"/>
                  <g id="Grupo_1015307" data-name="Grupo 1015307">
                    <path id="Trazado_609292" data-name="Trazado 609292" d="M241.037,134.749h2.182v13.669h-2.182Z" transform="translate(-240.705 -126.668)" fill="#f9f9f9"/>
                    <path id="Trazado_609293" data-name="Trazado 609293" d="M238.759,81.847a2.514,2.514,0,0,0,2.514,2.514V79.333A2.514,2.514,0,0,0,238.759,81.847Z" transform="translate(-238.759 -79.333)" fill="#f9f9f9"/>
                  </g>
                </g>
              </g>
              <path id="Trazado_815161" data-name="Trazado 815161" d="M0,32V0" transform="translate(793.836 1574.5)" fill="none" stroke="#1b3f5e" stroke-width="2"/>
              <path id="Trazado_815162" data-name="Trazado 815162" d="M0,32V0" transform="translate(480 1606.521)" fill="none" stroke="#1b3f5e" stroke-width="2"/>
              <path id="Trazado_815163" data-name="Trazado 815163" d="M0,32V0" transform="translate(480 1736.521)" fill="none" stroke="#1b3f5e" stroke-width="2"/>
              <path id="Trazado_815164" data-name="Trazado 815164" d="M0,32V0" transform="translate(1088.836 1736.521)" fill="none" stroke="#1b3f5e" stroke-width="2"/>
              <path id="Trazado_815165" data-name="Trazado 815165" d="M0,0H35.836" transform="translate(332.836 1828.5)" fill="none" stroke="#1b3f5e" stroke-width="2"/>
              <path id="Trazado_815166" data-name="Trazado 815166" d="M35.836,0H0" transform="translate(1200.164 1828.5)" fill="none" stroke="#1b3f5e" stroke-width="2"/>
              <path id="Trazado_815167" data-name="Trazado 815167" d="M0,0H35.836" transform="translate(332.836 1910.5)" fill="none" stroke="#1b3f5e" stroke-width="2"/>
              <path id="Trazado_815168" data-name="Trazado 815168" d="M35.836,0H0" transform="translate(1200.164 1910.5)" fill="none" stroke="#1b3f5e" stroke-width="2"/>
              <path id="Trazado_815169" data-name="Trazado 815169" d="M0,141.979V0" transform="translate(332.836 1768.521)" fill="none" stroke="#1b3f5e" stroke-width="2"/>
              <path id="Trazado_815170" data-name="Trazado 815170" d="M0,141.947V0" transform="translate(1236 1768.521)" fill="none" stroke="#1b3f5e" stroke-width="2"/>
              <path id="Trazado_815171" data-name="Trazado 815171" d="M0,0H147" transform="translate(332.836 1768.521)" fill="none" stroke="#1b3f5e" stroke-width="2"/>
              <path id="Trazado_815172" data-name="Trazado 815172" d="M147,0H0" transform="translate(1089 1768.521)" fill="none" stroke="#1b3f5e" stroke-width="2"/>
              <path id="Trazado_815173" data-name="Trazado 815173" d="M0,32V0" transform="translate(1088.836 1606.521)" fill="none" stroke="#1b3f5e" stroke-width="2"/>
              <path id="Trazado_815174" data-name="Trazado 815174" d="M0,0H610" transform="translate(479.336 1606.5)" fill="none" stroke="#1b3f5e" stroke-width="2"/>
              <path id="Trazado_815175" data-name="Trazado 815175" d="M21,0H226a21,21,0,0,1,21,21V44a21,21,0,0,1-21,21H21A21,21,0,0,1,0,44V21A21,21,0,0,1,21,0Z" transform="translate(366.662 1648)" fill="#fde1f9"/>
              <path id="Trazado_815176" data-name="Trazado 815176" d="M21,0H226a21,21,0,0,1,21,21V44a21,21,0,0,1-21,21H21A21,21,0,0,1,0,44V21A21,21,0,0,1,21,0Z" transform="translate(946.836 1648)" fill="#fde1f9"/>
              <path id="Trazado_815177" data-name="Trazado 815177" d="M52.01,12.658V17H48.925V4.2h5.106a5.948,5.948,0,0,1,2.6.541,4.074,4.074,0,0,1,1.749,1.538A4.2,4.2,0,0,1,59,8.545a3.7,3.7,0,0,1-1.34,2.993,5.561,5.561,0,0,1-3.678,1.121Zm0-2.382h2.021A1.906,1.906,0,0,0,55.4,9.828a1.665,1.665,0,0,0,.47-1.266,2.059,2.059,0,0,0-.483-1.433,1.712,1.712,0,0,0-1.318-.545H52.01Zm14.247-.105-.976-.07a1.752,1.752,0,0,0-1.793.879V17H60.526V7.49H63.3l.1,1.222a2.294,2.294,0,0,1,2.083-1.4,2.888,2.888,0,0,1,.826.105ZM70.449,17H67.479V7.49h2.971ZM67.3,5.038A1.322,1.322,0,0,1,67.76,4a1.943,1.943,0,0,1,2.373,0,1.322,1.322,0,0,1,.457,1.037,1.322,1.322,0,0,1-.457,1.037,1.943,1.943,0,0,1-2.373,0A1.322,1.322,0,0,1,67.3,5.038Zm7.77,2.452.1,1.116a3.27,3.27,0,0,1,2.716-1.292,2.407,2.407,0,0,1,2.435,1.433,3.165,3.165,0,0,1,2.795-1.433q2.892,0,2.971,3.5V17H83.114V11a1.813,1.813,0,0,0-.246-1.063,1.048,1.048,0,0,0-.9-.334,1.4,1.4,0,0,0-1.31.782l.009.123V17H77.7V11.015a1.906,1.906,0,0,0-.237-1.081,1.045,1.045,0,0,0-.905-.334,1.42,1.42,0,0,0-1.3.782V17H72.295V7.49ZM93.134,17a3.344,3.344,0,0,1-.281-.853,2.754,2.754,0,0,1-2.285,1.028,3.374,3.374,0,0,1-2.285-.813,2.588,2.588,0,0,1-.94-2.043,2.66,2.66,0,0,1,1.143-2.338,5.821,5.821,0,0,1,3.322-.791h.914v-.5q0-1.316-1.134-1.316a.927.927,0,0,0-1.055,1.042H87.57a2.655,2.655,0,0,1,1.173-2.239,4.931,4.931,0,0,1,2.993-.86A4.323,4.323,0,0,1,94.61,8.2a3.086,3.086,0,0,1,1.081,2.435v4.21a4.311,4.311,0,0,0,.4,2V17Zm-1.854-1.934a1.652,1.652,0,0,0,.918-.237,1.487,1.487,0,0,0,.523-.536V12.772h-.861q-1.547,0-1.547,1.389a.848.848,0,0,0,.272.655A.986.986,0,0,0,91.279,15.066Zm11.8-4.9-.976-.07a1.752,1.752,0,0,0-1.793.879V17H97.353V7.49h2.777l.1,1.222a2.294,2.294,0,0,1,2.083-1.4,2.888,2.888,0,0,1,.826.105ZM107.275,17H104.3V7.49h2.971ZM104.129,5.038A1.322,1.322,0,0,1,104.586,4a1.943,1.943,0,0,1,2.373,0,1.322,1.322,0,0,1,.457,1.037,1.322,1.322,0,0,1-.457,1.037,1.943,1.943,0,0,1-2.373,0A1.322,1.322,0,0,1,104.129,5.038ZM114.456,17a3.344,3.344,0,0,1-.281-.853,2.754,2.754,0,0,1-2.285,1.028,3.374,3.374,0,0,1-2.285-.813,2.588,2.588,0,0,1-.94-2.043,2.66,2.66,0,0,1,1.143-2.338,5.821,5.821,0,0,1,3.322-.791h.914v-.5q0-1.316-1.134-1.316a.927.927,0,0,0-1.055,1.042h-2.962a2.655,2.655,0,0,1,1.173-2.239,4.931,4.931,0,0,1,2.993-.86,4.323,4.323,0,0,1,2.874.888,3.086,3.086,0,0,1,1.081,2.435v4.21a4.311,4.311,0,0,0,.4,2V17ZM112.6,15.066a1.652,1.652,0,0,0,.918-.237,1.487,1.487,0,0,0,.523-.536V12.772h-.861q-1.547,0-1.547,1.389a.848.848,0,0,0,.272.655A.986.986,0,0,0,112.6,15.066Zm11.03-.738a.684.684,0,0,0-.4-.606,6.016,6.016,0,0,0-1.5-.475,6.853,6.853,0,0,1-1.828-.646,3.062,3.062,0,0,1-1.1-.971,2.319,2.319,0,0,1-.378-1.31,2.628,2.628,0,0,1,1.081-2.158,4.453,4.453,0,0,1,2.83-.848,4.934,4.934,0,0,1,3.023.853,2.666,2.666,0,0,1,1.143,2.241h-2.971q0-1.143-1.2-1.143a1.194,1.194,0,0,0-.782.259.8.8,0,0,0-.316.646.737.737,0,0,0,.387.642,3.654,3.654,0,0,0,1.235.4,10.671,10.671,0,0,1,1.49.378,2.706,2.706,0,0,1,2.145,2.646,2.491,2.491,0,0,1-1.156,2.118,5.068,5.068,0,0,1-2.993.817,5.172,5.172,0,0,1-2.18-.439,3.645,3.645,0,0,1-1.494-1.2,2.707,2.707,0,0,1-.536-1.591H120.9a1.145,1.145,0,0,0,.439.962,1.808,1.808,0,0,0,1.081.3,1.422,1.422,0,0,0,.91-.246A.787.787,0,0,0,123.632,14.328Z" transform="translate(398.662 1669.5)" fill="#12263f"/>
              <path id="Trazado_815178" data-name="Trazado 815178" d="M54.6,13.6a1.268,1.268,0,0,0-.479-1.055,5.954,5.954,0,0,0-1.683-.782,16.147,16.147,0,0,1-1.969-.782q-2.487-1.222-2.487-3.357a3.011,3.011,0,0,1,.62-1.876A4.008,4.008,0,0,1,50.351,4.48,6.823,6.823,0,0,1,52.9,4.027a5.969,5.969,0,0,1,2.474.492,3.917,3.917,0,0,1,1.7,1.4A3.661,3.661,0,0,1,57.681,8H54.6a1.547,1.547,0,0,0-.479-1.213,1.867,1.867,0,0,0-1.3-.431,2.106,2.106,0,0,0-1.305.365,1.074,1.074,0,0,0,.048,1.819,6.65,6.65,0,0,0,1.854.826,11.36,11.36,0,0,1,2.18.918,3.663,3.663,0,0,1,2.074,3.3,3.125,3.125,0,0,1-1.266,2.637,5.629,5.629,0,0,1-3.472.958,6.888,6.888,0,0,1-2.817-.558,4.247,4.247,0,0,1-1.9-1.529,3.985,3.985,0,0,1-.637-2.237h3.094a1.963,1.963,0,0,0,.532,1.516,2.513,2.513,0,0,0,1.727.488,1.985,1.985,0,0,0,1.208-.33A1.088,1.088,0,0,0,54.6,13.6Zm9.132,3.577a4.889,4.889,0,0,1-3.542-1.305,4.507,4.507,0,0,1-1.354-3.4v-.246a5.84,5.84,0,0,1,.541-2.575,3.955,3.955,0,0,1,1.578-1.727,4.763,4.763,0,0,1,2.461-.611,4.117,4.117,0,0,1,3.164,1.244,4.887,4.887,0,0,1,1.16,3.467v1.151H61.847a2.135,2.135,0,0,0,.694,1.257,2.066,2.066,0,0,0,1.389.457,2.662,2.662,0,0,0,2.2-.984l1.354,1.6a3.784,3.784,0,0,1-1.569,1.217A5.3,5.3,0,0,1,63.728,17.176ZM63.394,9.6q-1.3,0-1.547,1.723h2.988v-.229a1.467,1.467,0,0,0-.36-1.1A1.434,1.434,0,0,0,63.394,9.6Zm9.554,5.291a1.317,1.317,0,0,0,.967-.338,1.241,1.241,0,0,0,.334-.945h2.777a3.288,3.288,0,0,1-1.121,2.566,4.168,4.168,0,0,1-2.887,1,4.22,4.22,0,0,1-3.27-1.3,5.125,5.125,0,0,1-1.2-3.6v-.123A5.792,5.792,0,0,1,69.085,9.6a3.872,3.872,0,0,1,1.534-1.7,4.573,4.573,0,0,1,2.373-.593,4.116,4.116,0,0,1,2.944,1.028,3.647,3.647,0,0,1,1.09,2.786H74.249A1.626,1.626,0,0,0,73.888,10a1.244,1.244,0,0,0-.967-.4q-1.151,0-1.345,1.468a10.357,10.357,0,0,0-.062,1.283,4.068,4.068,0,0,0,.343,1.986A1.187,1.187,0,0,0,72.948,14.891Zm11,1.081a3.054,3.054,0,0,1-2.54,1.2,3,3,0,0,1-2.369-.91,3.826,3.826,0,0,1-.8-2.615V7.49h2.962v6.179a1.065,1.065,0,0,0,1.187,1.222,1.548,1.548,0,0,0,1.45-.729V7.49h2.979V17H84.031ZM91.15,7.49l.1,1.116a3.225,3.225,0,0,1,2.716-1.292,2.713,2.713,0,0,1,2.219.888,4.226,4.226,0,0,1,.76,2.672V17H93.971V11a1.6,1.6,0,0,0-.29-1.059A1.342,1.342,0,0,0,92.626,9.6a1.413,1.413,0,0,0-1.292.686V17H88.373V7.49Zm7.058,4.685a5.809,5.809,0,0,1,.976-3.56,3.211,3.211,0,0,1,2.725-1.3,2.731,2.731,0,0,1,2.145,1V3.5h2.971V17H104.36l-.149-1.02a2.8,2.8,0,0,1-2.32,1.2,3.205,3.205,0,0,1-2.689-1.3A5.993,5.993,0,0,1,98.208,12.175Zm2.962.185q0,2.531,1.477,2.531a1.458,1.458,0,0,0,1.406-.826V10.443a1.419,1.419,0,0,0-1.389-.844q-1.371,0-1.485,2.215ZM114.063,17a3.344,3.344,0,0,1-.281-.853,2.754,2.754,0,0,1-2.285,1.028,3.374,3.374,0,0,1-2.285-.813,2.588,2.588,0,0,1-.94-2.043,2.66,2.66,0,0,1,1.143-2.338,5.821,5.821,0,0,1,3.322-.791h.914v-.5q0-1.316-1.134-1.316a.927.927,0,0,0-1.055,1.042H108.5a2.655,2.655,0,0,1,1.173-2.239,4.931,4.931,0,0,1,2.993-.86,4.323,4.323,0,0,1,2.874.888,3.086,3.086,0,0,1,1.081,2.435v4.21a4.311,4.311,0,0,0,.4,2V17Zm-1.854-1.934a1.652,1.652,0,0,0,.918-.237,1.487,1.487,0,0,0,.523-.536V12.772h-.861q-1.547,0-1.547,1.389a.848.848,0,0,0,.272.655A.986.986,0,0,0,112.208,15.066Zm11.8-4.9-.976-.07a1.752,1.752,0,0,0-1.793.879V17h-2.962V7.49h2.777l.1,1.222a2.294,2.294,0,0,1,2.083-1.4,2.888,2.888,0,0,1,.826.105ZM128.2,17h-2.971V7.49H128.2ZM125.058,5.038A1.322,1.322,0,0,1,125.515,4a1.943,1.943,0,0,1,2.373,0,1.322,1.322,0,0,1,.457,1.037,1.322,1.322,0,0,1-.457,1.037,1.943,1.943,0,0,1-2.373,0A1.322,1.322,0,0,1,125.058,5.038ZM135.385,17a3.344,3.344,0,0,1-.281-.853,2.754,2.754,0,0,1-2.285,1.028,3.374,3.374,0,0,1-2.285-.813,2.588,2.588,0,0,1-.94-2.043,2.66,2.66,0,0,1,1.143-2.338,5.821,5.821,0,0,1,3.322-.791h.914v-.5q0-1.316-1.134-1.316a.927.927,0,0,0-1.055,1.042h-2.962A2.655,2.655,0,0,1,131,8.175a4.931,4.931,0,0,1,2.993-.86,4.323,4.323,0,0,1,2.874.888,3.086,3.086,0,0,1,1.081,2.435v4.21a4.311,4.311,0,0,0,.4,2V17Zm-1.854-1.934a1.652,1.652,0,0,0,.918-.237,1.487,1.487,0,0,0,.523-.536V12.772h-.861q-1.547,0-1.547,1.389a.848.848,0,0,0,.272.655A.986.986,0,0,0,133.531,15.066Zm11.03-.738a.684.684,0,0,0-.4-.606,6.016,6.016,0,0,0-1.5-.475,6.853,6.853,0,0,1-1.828-.646,3.062,3.062,0,0,1-1.1-.971,2.319,2.319,0,0,1-.378-1.31,2.628,2.628,0,0,1,1.081-2.158,4.453,4.453,0,0,1,2.83-.848,4.934,4.934,0,0,1,3.023.853,2.666,2.666,0,0,1,1.143,2.241h-2.971q0-1.143-1.2-1.143a1.194,1.194,0,0,0-.782.259.8.8,0,0,0-.316.646.737.737,0,0,0,.387.642,3.654,3.654,0,0,0,1.235.4,10.671,10.671,0,0,1,1.49.378,2.706,2.706,0,0,1,2.145,2.646,2.491,2.491,0,0,1-1.156,2.118,5.068,5.068,0,0,1-2.993.817,5.172,5.172,0,0,1-2.18-.439,3.645,3.645,0,0,1-1.494-1.2,2.707,2.707,0,0,1-.536-1.591h2.769a1.145,1.145,0,0,0,.439.962,1.808,1.808,0,0,0,1.081.3,1.422,1.422,0,0,0,.91-.246A.787.787,0,0,0,144.561,14.328Z" transform="translate(978.836 1669.5)" fill="#12263f"/>
              <g id="Trazado_815179" data-name="Trazado 815179" transform="translate(593 1795) rotate(90)" fill="none" opacity="0.7">
                <path d="M14,0H53A14,14,0,0,1,67,14V204a14,14,0,0,1-14,14H14A14,14,0,0,1,0,204V14A14,14,0,0,1,14,0Z" stroke="none"/>
                <path d="M 14 2 C 10.794677734375 2 7.781204223632812 3.248199462890625 5.514705657958984 5.51470947265625 C 3.248207092285156 7.781204223632812 2 10.794677734375 2 14 L 2 204 C 2 207.205322265625 3.248207092285156 210.2187957763672 5.514705657958984 212.4852905273438 C 7.781204223632812 214.7518005371094 10.794677734375 216 14 216 L 53 216 C 56.205322265625 216 59.21879577636719 214.7518005371094 61.48529434204102 212.4852905273438 C 63.75179290771484 210.2187957763672 65 207.205322265625 65 204 L 65 14 C 65 10.794677734375 63.75179290771484 7.781204223632812 61.48529434204102 5.51470947265625 C 59.21879577636719 3.248199462890625 56.205322265625 2 53 2 L 14 2 M 14 0 L 53 0 C 60.73199844360352 0 67 6.26800537109375 67 14 L 67 204 C 67 211.7319946289062 60.73199844360352 218 53 218 L 14 218 C 6.268001556396484 218 0 211.7319946289062 0 204 L 0 14 C 0 6.26800537109375 6.268001556396484 0 14 0 Z" stroke="none" fill="#1b3f5e"/>
              </g>
              <g id="Trazado_815180" data-name="Trazado 815180" transform="translate(1193.836 1795) rotate(90)" fill="none" opacity="0.7">
                <path d="M14,0H53A14,14,0,0,1,67,14V204a14,14,0,0,1-14,14H14A14,14,0,0,1,0,204V14A14,14,0,0,1,14,0Z" stroke="none"/>
                <path d="M 14 2 C 10.794677734375 2 7.781204223632812 3.248199462890625 5.514705657958984 5.51470947265625 C 3.248207092285156 7.781204223632812 2 10.794677734375 2 14 L 2 204 C 2 207.205322265625 3.248207092285156 210.2187957763672 5.514705657958984 212.4852905273438 C 7.781204223632812 214.7518005371094 10.794677734375 216 14 216 L 53 216 C 56.205322265625 216 59.21879577636719 214.7518005371094 61.48529434204102 212.4852905273438 C 63.75179290771484 210.2187957763672 65 207.205322265625 65 204 L 65 14 C 65 10.794677734375 63.75179290771484 7.781204223632812 61.48529434204102 5.51470947265625 C 59.21879577636719 3.248199462890625 56.205322265625 2 53 2 L 14 2 M 14 0 L 53 0 C 60.73199844360352 0 67 6.26800537109375 67 14 L 67 204 C 67 211.7319946289062 60.73199844360352 218 53 218 L 14 218 C 6.268001556396484 218 0 211.7319946289062 0 204 L 0 14 C 0 6.26800537109375 6.268001556396484 0 14 0 Z" stroke="none" fill="#1b3f5e"/>
              </g>
              <g id="Trazado_815181" data-name="Trazado 815181" transform="translate(593 1877) rotate(90)" fill="none" opacity="0.7">
                <path d="M14,0H53A14,14,0,0,1,67,14V204a14,14,0,0,1-14,14H14A14,14,0,0,1,0,204V14A14,14,0,0,1,14,0Z" stroke="none"/>
                <path d="M 14 2 C 10.794677734375 2 7.781204223632812 3.248199462890625 5.514705657958984 5.51470947265625 C 3.248207092285156 7.781204223632812 2 10.794677734375 2 14 L 2 204 C 2 207.205322265625 3.248207092285156 210.2187957763672 5.514705657958984 212.4852905273438 C 7.781204223632812 214.7518005371094 10.794677734375 216 14 216 L 53 216 C 56.205322265625 216 59.21879577636719 214.7518005371094 61.48529434204102 212.4852905273438 C 63.75179290771484 210.2187957763672 65 207.205322265625 65 204 L 65 14 C 65 10.794677734375 63.75179290771484 7.781204223632812 61.48529434204102 5.51470947265625 C 59.21879577636719 3.248199462890625 56.205322265625 2 53 2 L 14 2 M 14 0 L 53 0 C 60.73199844360352 0 67 6.26800537109375 67 14 L 67 204 C 67 211.7319946289062 60.73199844360352 218 53 218 L 14 218 C 6.268001556396484 218 0 211.7319946289062 0 204 L 0 14 C 0 6.26800537109375 6.268001556396484 0 14 0 Z" stroke="none" fill="#1b3f5e"/>
              </g>
              <g id="Trazado_815182" data-name="Trazado 815182" transform="translate(1193.836 1877) rotate(90)" fill="none" opacity="0.7">
                <path d="M14,0H53A14,14,0,0,1,67,14V204a14,14,0,0,1-14,14H14A14,14,0,0,1,0,204V14A14,14,0,0,1,14,0Z" stroke="none"/>
                <path d="M 14 2 C 10.794677734375 2 7.781204223632812 3.248199462890625 5.514705657958984 5.51470947265625 C 3.248207092285156 7.781204223632812 2 10.794677734375 2 14 L 2 204 C 2 207.205322265625 3.248207092285156 210.2187957763672 5.514705657958984 212.4852905273438 C 7.781204223632812 214.7518005371094 10.794677734375 216 14 216 L 53 216 C 56.205322265625 216 59.21879577636719 214.7518005371094 61.48529434204102 212.4852905273438 C 63.75179290771484 210.2187957763672 65 207.205322265625 65 204 L 65 14 C 65 10.794677734375 63.75179290771484 7.781204223632812 61.48529434204102 5.51470947265625 C 59.21879577636719 3.248199462890625 56.205322265625 2 53 2 L 14 2 M 14 0 L 53 0 C 60.73199844360352 0 67 6.26800537109375 67 14 L 67 204 C 67 211.7319946289062 60.73199844360352 218 53 218 L 14 218 C 6.268001556396484 218 0 211.7319946289062 0 204 L 0 14 C 0 6.26800537109375 6.268001556396484 0 14 0 Z" stroke="none" fill="#1b3f5e"/>
              </g>
              <path id="Trazado_815183" data-name="Trazado 815183" d="M29.112,14.882h5.6V17H26.475V4.2h2.637ZM38.736,17H36.187V7.49h2.549Zm-2.7-11.971a1.251,1.251,0,0,1,.382-.94,1.648,1.648,0,0,1,2.079,0,1.244,1.244,0,0,1,.387.94,1.247,1.247,0,0,1-.391.949,1.629,1.629,0,0,1-2.065,0A1.247,1.247,0,0,1,36.038,5.029Zm13.359,7.3a5.758,5.758,0,0,1-.976,3.564A3.231,3.231,0,0,1,45.7,17.176a2.969,2.969,0,0,1-2.47-1.187L43.113,17H40.828V3.5h2.54V8.343a2.893,2.893,0,0,1,2.312-1.028,3.258,3.258,0,0,1,2.729,1.279,5.767,5.767,0,0,1,.989,3.6Zm-2.54-.185a3.783,3.783,0,0,0-.457-2.1,1.545,1.545,0,0,0-1.362-.664,1.676,1.676,0,0,0-1.67.993v3.753a1.7,1.7,0,0,0,1.688,1,1.568,1.568,0,0,0,1.617-1.213A6.257,6.257,0,0,0,46.857,12.148Zm9.448-2.276a6.9,6.9,0,0,0-.914-.07,1.86,1.86,0,0,0-1.89.976V17h-2.54V7.49h2.4l.07,1.134a2.354,2.354,0,0,1,2.118-1.31,2.662,2.662,0,0,1,.791.114Zm.51,2.285a5.64,5.64,0,0,1,.545-2.522,3.989,3.989,0,0,1,1.569-1.714,4.577,4.577,0,0,1,2.377-.606,4.33,4.33,0,0,1,3.142,1.178,4.727,4.727,0,0,1,1.358,3.2l.018.65A4.97,4.97,0,0,1,64.6,15.853a4.735,4.735,0,0,1-6.561,0,5.058,5.058,0,0,1-1.226-3.586Zm2.54.18a3.555,3.555,0,0,0,.51,2.073,1.831,1.831,0,0,0,2.9.009,3.89,3.89,0,0,0,.519-2.267,3.519,3.519,0,0,0-.519-2.06,1.686,1.686,0,0,0-1.459-.731,1.658,1.658,0,0,0-1.441.726A3.955,3.955,0,0,0,59.355,12.338Zm13.184,2.035a.818.818,0,0,0-.461-.734,5.241,5.241,0,0,0-1.481-.479Q67.2,12.447,67.2,10.276a2.613,2.613,0,0,1,1.05-2.114A4.237,4.237,0,0,1,71,7.314a4.56,4.56,0,0,1,2.9.853,2.687,2.687,0,0,1,1.085,2.215h-2.54a1.229,1.229,0,0,0-.352-.9,1.488,1.488,0,0,0-1.1-.356,1.52,1.52,0,0,0-.993.29.916.916,0,0,0-.352.738.783.783,0,0,0,.4.681,4.114,4.114,0,0,0,1.349.448,11.019,11.019,0,0,1,1.6.426,2.628,2.628,0,0,1,2.013,2.558,2.481,2.481,0,0,1-1.116,2.1,4.815,4.815,0,0,1-2.883.8,5.029,5.029,0,0,1-2.123-.426,3.561,3.561,0,0,1-1.455-1.169,2.716,2.716,0,0,1-.527-1.6h2.408a1.326,1.326,0,0,0,.5,1.037,1.987,1.987,0,0,0,1.248.36,1.839,1.839,0,0,0,1.1-.277A.861.861,0,0,0,72.539,14.372Z" transform="translate(405.336 1816)" fill="#12263f"/>
              <path id="Trazado_815184" data-name="Trazado 815184" d="M20.919,12.315h-2.1V17H16.182V4.2h4.755a5.375,5.375,0,0,1,3.5,1.011,3.488,3.488,0,0,1,1.23,2.856,3.937,3.937,0,0,1-.567,2.184,3.866,3.866,0,0,1-1.718,1.393l2.769,5.229V17h-2.83Zm-2.1-2.136h2.127a2.178,2.178,0,0,0,1.538-.505,1.806,1.806,0,0,0,.545-1.393,1.933,1.933,0,0,0-.514-1.424,2.137,2.137,0,0,0-1.578-.519H18.818Zm13.061,7a4.668,4.668,0,0,1-3.406-1.283,4.561,4.561,0,0,1-1.314-3.419v-.246a5.745,5.745,0,0,1,.554-2.562,4.064,4.064,0,0,1,1.569-1.74A4.4,4.4,0,0,1,31.6,7.314a3.947,3.947,0,0,1,3.072,1.23,5,5,0,0,1,1.121,3.489v1.037H29.734a2.36,2.36,0,0,0,.743,1.494,2.245,2.245,0,0,0,1.569.563,2.742,2.742,0,0,0,2.294-1.063l1.248,1.4a3.813,3.813,0,0,1-1.547,1.261A5.075,5.075,0,0,1,31.879,17.176Zm-.29-7.813a1.587,1.587,0,0,0-1.226.512,2.651,2.651,0,0,0-.6,1.466h3.533v-.2a1.891,1.891,0,0,0-.457-1.311A1.638,1.638,0,0,0,31.589,9.362Zm10.793,5.01a.818.818,0,0,0-.461-.734,5.241,5.241,0,0,0-1.481-.479q-3.393-.712-3.393-2.883A2.613,2.613,0,0,1,38.1,8.163a4.237,4.237,0,0,1,2.747-.848,4.56,4.56,0,0,1,2.9.853,2.687,2.687,0,0,1,1.085,2.215h-2.54a1.229,1.229,0,0,0-.352-.9,1.488,1.488,0,0,0-1.1-.356,1.52,1.52,0,0,0-.993.29.916.916,0,0,0-.352.738.783.783,0,0,0,.4.681,4.114,4.114,0,0,0,1.349.448,11.019,11.019,0,0,1,1.6.426,2.628,2.628,0,0,1,2.013,2.558,2.481,2.481,0,0,1-1.116,2.1,4.815,4.815,0,0,1-2.883.8,5.029,5.029,0,0,1-2.123-.426,3.561,3.561,0,0,1-1.455-1.169,2.716,2.716,0,0,1-.527-1.6h2.408a1.326,1.326,0,0,0,.5,1.037,1.987,1.987,0,0,0,1.248.36,1.839,1.839,0,0,0,1.1-.277A.861.861,0,0,0,42.382,14.372Zm9.8,1.661a3.185,3.185,0,0,1-2.6,1.143,3,3,0,0,1-2.333-.879,3.752,3.752,0,0,1-.822-2.575V7.49h2.54v6.151q0,1.487,1.354,1.487a1.834,1.834,0,0,0,1.775-.9V7.49h2.549V17H52.252ZM51.048,3.5h2.769L51.382,6.225H49.316ZM58.94,7.49l.079,1.063a3.342,3.342,0,0,1,2.733-1.239,2.536,2.536,0,0,1,2.522,1.45,3.265,3.265,0,0,1,2.856-1.45,2.836,2.836,0,0,1,2.3.9,4.141,4.141,0,0,1,.756,2.711V17H67.642V10.936a1.811,1.811,0,0,0-.316-1.182,1.4,1.4,0,0,0-1.116-.374,1.585,1.585,0,0,0-1.582,1.09L64.636,17H62.1V10.944a1.789,1.789,0,0,0-.325-1.2,1.416,1.416,0,0,0-1.107-.369,1.646,1.646,0,0,0-1.564.9V17h-2.54V7.49Zm17.578,9.686a4.668,4.668,0,0,1-3.406-1.283A4.561,4.561,0,0,1,71.8,12.474v-.246a5.745,5.745,0,0,1,.554-2.562,4.064,4.064,0,0,1,1.569-1.74,4.4,4.4,0,0,1,2.316-.611,3.947,3.947,0,0,1,3.072,1.23,5,5,0,0,1,1.121,3.489v1.037H74.374a2.36,2.36,0,0,0,.743,1.494,2.245,2.245,0,0,0,1.569.563,2.742,2.742,0,0,0,2.294-1.063l1.248,1.4a3.813,3.813,0,0,1-1.547,1.261A5.075,5.075,0,0,1,76.519,17.176Zm-.29-7.813A1.587,1.587,0,0,0,75,9.874a2.651,2.651,0,0,0-.6,1.466h3.533v-.2a1.891,1.891,0,0,0-.457-1.311A1.638,1.638,0,0,0,76.229,9.362Zm7.98-1.872.079,1.1a3.32,3.32,0,0,1,2.733-1.274,2.759,2.759,0,0,1,2.25.888,4.142,4.142,0,0,1,.756,2.654V17h-2.54V10.918a1.648,1.648,0,0,0-.352-1.173,1.574,1.574,0,0,0-1.169-.365,1.747,1.747,0,0,0-1.608.914V17h-2.54V7.49Zm12.12,9.686a4.668,4.668,0,0,1-3.406-1.283,4.561,4.561,0,0,1-1.314-3.419v-.246a5.745,5.745,0,0,1,.554-2.562,4.064,4.064,0,0,1,1.569-1.74,4.4,4.4,0,0,1,2.316-.611,3.947,3.947,0,0,1,3.072,1.23,5,5,0,0,1,1.121,3.489v1.037H94.185a2.36,2.36,0,0,0,.743,1.494,2.245,2.245,0,0,0,1.569.563,2.742,2.742,0,0,0,2.294-1.063l1.248,1.4a3.813,3.813,0,0,1-1.547,1.261A5.075,5.075,0,0,1,96.329,17.176Zm-.29-7.813a1.587,1.587,0,0,0-1.226.512,2.651,2.651,0,0,0-.6,1.466h3.533v-.2a1.891,1.891,0,0,0-.457-1.311A1.638,1.638,0,0,0,96.039,9.362Zm10.793,5.01a.818.818,0,0,0-.461-.734,5.241,5.241,0,0,0-1.481-.479q-3.393-.712-3.393-2.883a2.613,2.613,0,0,1,1.05-2.114,4.237,4.237,0,0,1,2.747-.848,4.56,4.56,0,0,1,2.9.853,2.687,2.687,0,0,1,1.085,2.215h-2.54a1.229,1.229,0,0,0-.352-.9,1.488,1.488,0,0,0-1.1-.356,1.52,1.52,0,0,0-.993.29.916.916,0,0,0-.352.738.783.783,0,0,0,.4.681,4.114,4.114,0,0,0,1.349.448,11.019,11.019,0,0,1,1.6.426,2.628,2.628,0,0,1,2.013,2.558,2.481,2.481,0,0,1-1.116,2.1,4.815,4.815,0,0,1-2.883.8,5.029,5.029,0,0,1-2.123-.426,3.561,3.561,0,0,1-1.455-1.169,2.716,2.716,0,0,1-.527-1.6h2.408a1.326,1.326,0,0,0,.5,1.037,1.987,1.987,0,0,0,1.248.36,1.839,1.839,0,0,0,1.1-.277A.861.861,0,0,0,106.832,14.372Z" transform="translate(1002.836 1816)" fill="#12263f"/>
              <path id="Trazado_815185" data-name="Trazado 815185" d="M28.16,11.771H23.1V17H20.46V4.2h8.332V6.339H23.1v3.3H28.16Zm1.415.387a5.64,5.64,0,0,1,.545-2.522,3.989,3.989,0,0,1,1.569-1.714,4.577,4.577,0,0,1,2.377-.606,4.33,4.33,0,0,1,3.142,1.178,4.727,4.727,0,0,1,1.358,3.2l.018.65a4.97,4.97,0,0,1-1.222,3.511,4.247,4.247,0,0,1-3.278,1.323A4.268,4.268,0,0,1,30.8,15.857a5.058,5.058,0,0,1-1.226-3.586Zm2.54.18a3.555,3.555,0,0,0,.51,2.073,1.831,1.831,0,0,0,2.9.009,3.89,3.89,0,0,0,.519-2.267,3.519,3.519,0,0,0-.519-2.06,1.686,1.686,0,0,0-1.459-.731,1.658,1.658,0,0,0-1.441.726A3.955,3.955,0,0,0,32.115,12.338ZM43.189,5.152V7.49h1.626V9.354H43.189V14.1a1.133,1.133,0,0,0,.2.756,1.015,1.015,0,0,0,.773.229,4.051,4.051,0,0,0,.747-.062v1.925a5.229,5.229,0,0,1-1.538.229,2.425,2.425,0,0,1-2.725-2.7V9.354H39.26V7.49h1.389V5.152Zm2.382,7a5.64,5.64,0,0,1,.545-2.522,3.989,3.989,0,0,1,1.569-1.714,4.577,4.577,0,0,1,2.377-.606A4.33,4.33,0,0,1,53.2,8.492a4.727,4.727,0,0,1,1.358,3.2l.018.65a4.97,4.97,0,0,1-1.222,3.511,4.735,4.735,0,0,1-6.561,0,5.058,5.058,0,0,1-1.226-3.586Zm2.54.18a3.555,3.555,0,0,0,.51,2.073,1.831,1.831,0,0,0,2.9.009,3.89,3.89,0,0,0,.519-2.267,3.519,3.519,0,0,0-.519-2.06,1.686,1.686,0,0,0-1.459-.731,1.658,1.658,0,0,0-1.441.726A3.955,3.955,0,0,0,48.111,12.338Zm7.664-.163A5.573,5.573,0,0,1,56.816,8.65a3.375,3.375,0,0,1,2.808-1.336,2.96,2.96,0,0,1,2.435,1.072l.105-.9h2.3v9.193a4.064,4.064,0,0,1-.567,2.171,3.641,3.641,0,0,1-1.6,1.406,5.608,5.608,0,0,1-2.408.483,5.215,5.215,0,0,1-2.039-.417,3.619,3.619,0,0,1-1.5-1.077L57.48,17.7a2.975,2.975,0,0,0,2.3,1.063,2.178,2.178,0,0,0,1.573-.541,2.027,2.027,0,0,0,.563-1.534v-.51a2.938,2.938,0,0,1-2.312.993,3.366,3.366,0,0,1-2.773-1.34,5.572,5.572,0,0,1-1.059-3.555Zm2.54.189a3.47,3.47,0,0,0,.519,2.029,1.65,1.65,0,0,0,1.424.735,1.764,1.764,0,0,0,1.661-.871V10.251a1.76,1.76,0,0,0-1.644-.871,1.66,1.66,0,0,0-1.437.748A3.911,3.911,0,0,0,58.315,12.364ZM71.762,9.872a6.9,6.9,0,0,0-.914-.07,1.86,1.86,0,0,0-1.89.976V17h-2.54V7.49h2.4l.07,1.134a2.354,2.354,0,0,1,2.118-1.31,2.662,2.662,0,0,1,.791.114ZM78.231,17a2.821,2.821,0,0,1-.255-.853,3.073,3.073,0,0,1-2.4,1.028,3.376,3.376,0,0,1-2.316-.809,2.6,2.6,0,0,1-.918-2.039,2.687,2.687,0,0,1,1.121-2.32A5.529,5.529,0,0,1,76.7,11.19h1.169v-.545a1.567,1.567,0,0,0-.338-1.055,1.331,1.331,0,0,0-1.068-.4,1.513,1.513,0,0,0-1.006.308,1.045,1.045,0,0,0-.365.844h-2.54a2.551,2.551,0,0,1,.51-1.529,3.37,3.37,0,0,1,1.441-1.1,5.253,5.253,0,0,1,2.092-.4,4.15,4.15,0,0,1,2.791.883,3.09,3.09,0,0,1,1.033,2.483V14.8a4.546,4.546,0,0,0,.378,2.048V17Zm-2.1-1.767a2.188,2.188,0,0,0,1.037-.25,1.645,1.645,0,0,0,.7-.672V12.676h-.949q-1.907,0-2.03,1.318l-.009.149a1.017,1.017,0,0,0,.334.782A1.3,1.3,0,0,0,76.13,15.233ZM83.065,17V9.354H81.65V7.49h1.415V6.682A3.283,3.283,0,0,1,83.983,4.2a3.557,3.557,0,0,1,2.571-.883,5.938,5.938,0,0,1,1.292.176L87.82,5.46a3.238,3.238,0,0,0-.773-.079q-1.433,0-1.433,1.345V7.49H87.5V9.354h-1.89V17Zm8.5,0h-2.54V7.49h2.54ZM90.817,3.632h2.769L91.151,6.356H89.085ZM99.263,17a2.821,2.821,0,0,1-.255-.853,3.073,3.073,0,0,1-2.4,1.028,3.376,3.376,0,0,1-2.316-.809,2.6,2.6,0,0,1-.918-2.039,2.687,2.687,0,0,1,1.121-2.32,5.529,5.529,0,0,1,3.239-.817H98.9v-.545a1.567,1.567,0,0,0-.338-1.055A1.331,1.331,0,0,0,97.5,9.2,1.513,1.513,0,0,0,96.49,9.5a1.045,1.045,0,0,0-.365.844h-2.54a2.551,2.551,0,0,1,.51-1.529,3.37,3.37,0,0,1,1.441-1.1,5.253,5.253,0,0,1,2.092-.4,4.15,4.15,0,0,1,2.791.883,3.09,3.09,0,0,1,1.033,2.483V14.8a4.546,4.546,0,0,0,.378,2.048V17Zm-2.1-1.767a2.188,2.188,0,0,0,1.037-.25,1.645,1.645,0,0,0,.7-.672V12.676h-.949q-1.907,0-2.03,1.318l-.009.149a1.017,1.017,0,0,0,.334.782A1.3,1.3,0,0,0,97.163,15.233Zm11.391-.861a.818.818,0,0,0-.461-.734,5.241,5.241,0,0,0-1.481-.479q-3.393-.712-3.393-2.883a2.613,2.613,0,0,1,1.05-2.114,4.237,4.237,0,0,1,2.747-.848,4.56,4.56,0,0,1,2.9.853A2.687,2.687,0,0,1,111,10.382h-2.54a1.229,1.229,0,0,0-.352-.9,1.488,1.488,0,0,0-1.1-.356,1.52,1.52,0,0,0-.993.29.916.916,0,0,0-.352.738.783.783,0,0,0,.4.681,4.114,4.114,0,0,0,1.349.448,11.019,11.019,0,0,1,1.6.426,2.628,2.628,0,0,1,2.013,2.558,2.481,2.481,0,0,1-1.116,2.1,4.815,4.815,0,0,1-2.883.8,5.029,5.029,0,0,1-2.123-.426,3.561,3.561,0,0,1-1.455-1.169,2.716,2.716,0,0,1-.527-1.6h2.408a1.326,1.326,0,0,0,.5,1.037,1.987,1.987,0,0,0,1.248.36,1.839,1.839,0,0,0,1.1-.277A.861.861,0,0,0,108.553,14.372Z" transform="translate(390.336 1898)" fill="#12263f"/>
              <path id="Trazado_815186" data-name="Trazado 815186" d="M21.515,6.339H17.6V17H14.958V6.339H11.091V4.2H21.515Zm6.108,3.533a6.9,6.9,0,0,0-.914-.07,1.86,1.86,0,0,0-1.89.976V17H22.28V7.49h2.4l.07,1.134a2.354,2.354,0,0,1,2.118-1.31,2.662,2.662,0,0,1,.791.114ZM34.092,17a2.821,2.821,0,0,1-.255-.853,3.073,3.073,0,0,1-2.4,1.028,3.376,3.376,0,0,1-2.316-.809,2.6,2.6,0,0,1-.918-2.039,2.687,2.687,0,0,1,1.121-2.32,5.529,5.529,0,0,1,3.239-.817h1.169v-.545a1.567,1.567,0,0,0-.338-1.055,1.331,1.331,0,0,0-1.068-.4,1.513,1.513,0,0,0-1.006.308,1.045,1.045,0,0,0-.365.844h-2.54a2.551,2.551,0,0,1,.51-1.529,3.37,3.37,0,0,1,1.441-1.1,5.253,5.253,0,0,1,2.092-.4,4.15,4.15,0,0,1,2.791.883,3.09,3.09,0,0,1,1.033,2.483V14.8a4.546,4.546,0,0,0,.378,2.048V17Zm-2.1-1.767a2.188,2.188,0,0,0,1.037-.25,1.645,1.645,0,0,0,.7-.672V12.676h-.949q-1.907,0-2.03,1.318l-.009.149a1.017,1.017,0,0,0,.334.782A1.3,1.3,0,0,0,31.992,15.233Zm5.845-3.059a5.731,5.731,0,0,1,1-3.542,3.237,3.237,0,0,1,2.729-1.318,2.913,2.913,0,0,1,2.294,1.037V3.5h2.549V17H44.112l-.123-1.011a2.989,2.989,0,0,1-2.443,1.187,3.228,3.228,0,0,1-2.694-1.323A5.916,5.916,0,0,1,37.836,12.175Zm2.54.189a3.754,3.754,0,0,0,.466,2.051,1.517,1.517,0,0,0,1.354.713,1.7,1.7,0,0,0,1.661-.995V10.375a1.675,1.675,0,0,0-1.644-.995Q40.376,9.38,40.376,12.364ZM54.07,16.033a3.185,3.185,0,0,1-2.6,1.143,3,3,0,0,1-2.333-.879,3.752,3.752,0,0,1-.822-2.575V7.49h2.54v6.151q0,1.487,1.354,1.487a1.834,1.834,0,0,0,1.775-.9V7.49h2.549V17H54.14Zm8.332-.905a1.666,1.666,0,0,0,1.143-.387A1.355,1.355,0,0,0,64,13.713h2.382a3.258,3.258,0,0,1-.527,1.771,3.48,3.48,0,0,1-1.419,1.248,4.442,4.442,0,0,1-1.991.444,4.129,4.129,0,0,1-3.217-1.3A5.13,5.13,0,0,1,58.051,12.3v-.167A5.071,5.071,0,0,1,59.22,8.624a4.08,4.08,0,0,1,3.208-1.31A4,4,0,0,1,65.289,8.33a3.594,3.594,0,0,1,1.094,2.7H64a1.745,1.745,0,0,0-.457-1.206,1.7,1.7,0,0,0-2.5.183,3.749,3.749,0,0,0-.453,2.1v.264a3.8,3.8,0,0,0,.448,2.113A1.549,1.549,0,0,0,62.4,15.128Zm9.387,0a1.666,1.666,0,0,0,1.143-.387,1.355,1.355,0,0,0,.457-1.028H75.77a3.258,3.258,0,0,1-.527,1.771,3.48,3.48,0,0,1-1.419,1.248,4.442,4.442,0,0,1-1.991.444,4.129,4.129,0,0,1-3.217-1.3A5.13,5.13,0,0,1,67.438,12.3v-.167a5.071,5.071,0,0,1,1.169-3.507,4.08,4.08,0,0,1,3.208-1.31A4,4,0,0,1,74.676,8.33a3.594,3.594,0,0,1,1.094,2.7H73.388a1.745,1.745,0,0,0-.457-1.206,1.7,1.7,0,0,0-2.5.183,3.749,3.749,0,0,0-.453,2.1v.264a3.8,3.8,0,0,0,.448,2.113A1.549,1.549,0,0,0,71.789,15.128ZM79.9,17H77.352V7.49H79.9ZM77.2,5.029a1.251,1.251,0,0,1,.382-.94,1.648,1.648,0,0,1,2.079,0,1.244,1.244,0,0,1,.387.94,1.247,1.247,0,0,1-.391.949,1.629,1.629,0,0,1-2.065,0A1.247,1.247,0,0,1,77.2,5.029ZM81.6,12.157a5.64,5.64,0,0,1,.545-2.522,3.989,3.989,0,0,1,1.569-1.714,4.577,4.577,0,0,1,2.377-.606A4.33,4.33,0,0,1,89.23,8.492a4.727,4.727,0,0,1,1.358,3.2l.018.65a4.97,4.97,0,0,1-1.222,3.511,4.735,4.735,0,0,1-6.561,0A5.058,5.058,0,0,1,81.6,12.271Zm2.54.18a3.555,3.555,0,0,0,.51,2.073,1.831,1.831,0,0,0,2.9.009,3.89,3.89,0,0,0,.519-2.267,3.519,3.519,0,0,0-.519-2.06,1.686,1.686,0,0,0-1.459-.731,1.658,1.658,0,0,0-1.441.726A3.955,3.955,0,0,0,84.137,12.338ZM94.508,7.49l.079,1.1a3.32,3.32,0,0,1,2.733-1.274,2.759,2.759,0,0,1,2.25.888,4.142,4.142,0,0,1,.756,2.654V17h-2.54V10.918a1.648,1.648,0,0,0-.352-1.173,1.574,1.574,0,0,0-1.169-.365,1.747,1.747,0,0,0-1.608.914V17h-2.54V7.49Zm12.12,9.686a4.668,4.668,0,0,1-3.406-1.283,4.561,4.561,0,0,1-1.314-3.419v-.246a5.745,5.745,0,0,1,.554-2.562,4.064,4.064,0,0,1,1.569-1.74,4.4,4.4,0,0,1,2.316-.611,3.947,3.947,0,0,1,3.072,1.23,5,5,0,0,1,1.121,3.489v1.037h-6.056a2.36,2.36,0,0,0,.743,1.494,2.245,2.245,0,0,0,1.569.563,2.742,2.742,0,0,0,2.294-1.063l1.248,1.4a3.813,3.813,0,0,1-1.547,1.261A5.075,5.075,0,0,1,106.628,17.176Zm-.29-7.813a1.587,1.587,0,0,0-1.226.512,2.651,2.651,0,0,0-.6,1.466h3.533v-.2a1.891,1.891,0,0,0-.457-1.311A1.638,1.638,0,0,0,106.338,9.362Zm10.793,5.01a.818.818,0,0,0-.461-.734,5.241,5.241,0,0,0-1.481-.479q-3.393-.712-3.393-2.883a2.613,2.613,0,0,1,1.05-2.114,4.237,4.237,0,0,1,2.747-.848,4.56,4.56,0,0,1,2.9.853,2.687,2.687,0,0,1,1.085,2.215h-2.54a1.229,1.229,0,0,0-.352-.9,1.488,1.488,0,0,0-1.1-.356,1.52,1.52,0,0,0-.993.29.916.916,0,0,0-.352.738.783.783,0,0,0,.4.681,4.114,4.114,0,0,0,1.349.448,11.019,11.019,0,0,1,1.6.426,2.628,2.628,0,0,1,2.013,2.558,2.481,2.481,0,0,1-1.116,2.1,4.815,4.815,0,0,1-2.883.8,5.029,5.029,0,0,1-2.123-.426,3.561,3.561,0,0,1-1.455-1.169,2.716,2.716,0,0,1-.527-1.6h2.408a1.326,1.326,0,0,0,.5,1.037,1.987,1.987,0,0,0,1.248.36,1.839,1.839,0,0,0,1.1-.277A.861.861,0,0,0,117.131,14.372Z" transform="translate(994.836 1898)" fill="#12263f"/>
              <g id="Page-1" transform="translate(524.836 1809.968)">
                <g id="_041---Books" data-name="041---Books">
                  <path id="Shape" d="M34.487,13v8.039H6.423C4.533,21.039,3,19.238,3,17.02S4.533,13,6.423,13Z" transform="translate(-0.99 -4.291)" fill="#f5efca"/>
                  <path id="Shape-2" data-name="Shape" d="M34.836,20.719a1.344,1.344,0,0,1-1.34,1.34H6.029A6.029,6.029,0,1,1,6.029,10H33.5a1.34,1.34,0,1,1,0,2.68H6.029a3.35,3.35,0,0,0,0,6.7H33.5A1.344,1.344,0,0,1,34.836,20.719Z" transform="translate(0 -3.301)" fill="#f29c1f"/>
                  <rect id="Rectangle-path" width="36" height="9" rx="2" transform="translate(3 19)" fill="#7d6599"/>
                  <rect id="Rectangle-path-2" data-name="Rectangle-path" width="36" height="10" rx="2" transform="translate(0 28)" fill="#e64c3c"/>
                  <rect id="Rectangle-path-3" data-name="Rectangle-path" width="36" height="7" rx="2" fill="#3b97d3"/>
                  <path id="Rectangle-path-4" data-name="Rectangle-path" d="M8,0h2.68V6.7H8Z" transform="translate(-2.641)" fill="#67b9cc"/>
                  <path id="Rectangle-path-5" data-name="Rectangle-path" d="M42,0h2.68V6.7H42Z" transform="translate(-13.863)" fill="#67b9cc"/>
                  <rect id="Rectangle-path-6" data-name="Rectangle-path" width="16" height="4" rx="1" transform="translate(13 21)" fill="#9fc9d3"/>
                  <path id="Rectangle-path-7" data-name="Rectangle-path" d="M48,28h1.34v9.379H48Z" transform="translate(-15.843 -9.242)" fill="#b49aca"/>
                  <path id="Rectangle-path-8" data-name="Rectangle-path" d="M12,28h1.34v9.379H12Z" transform="translate(-3.961 -9.242)" fill="#b49aca"/>
                  <ellipse id="Oval" cx="6" cy="2" rx="6" ry="2" transform="translate(12 31)" fill="#f5efca"/>
                  <g id="Grupo_1015410" data-name="Grupo 1015410" transform="translate(4.02 28.137)">
                    <path id="Rectangle-path-9" data-name="Rectangle-path" d="M6,42H8.68v9.379H6Z" transform="translate(-6 -42)" fill="#f29c1f"/>
                    <path id="Rectangle-path-10" data-name="Rectangle-path" d="M44,42h2.68v9.379H44Z" transform="translate(-18.543 -42)" fill="#f29c1f"/>
                  </g>
                </g>
              </g>
              <g id="camara_1_" data-name="camara (1)" transform="translate(518.209 1845.726)">
                <path id="Trazado_609413" data-name="Trazado 609413" d="M46.6,69.7V63.182a1,1,0,0,0-1-1H42.274a1,1,0,0,0-1,1V69.7" transform="translate(-37.596 -16.18)" fill="#e5e9ea"/>
                <path id="Trazado_609414" data-name="Trazado 609414" d="M43.7,69.7V62.182H42.274a1,1,0,0,0-1,1V69.7" transform="translate(-37.596 -16.18)" fill="#d1d1d1"/>
                <path id="Trazado_609415" data-name="Trazado 609415" d="M45.627,54.709V79.1A3.028,3.028,0,0,1,42.6,82.129H3.028A3.028,3.028,0,0,1,0,79.1V54.709a3.028,3.028,0,0,1,3.028-3.028H9.016a3.029,3.029,0,0,0,2.861-2.035l1.105-3.19a3.028,3.028,0,0,1,2.861-2.036H33.508a3.028,3.028,0,0,1,2.861,2.036l1.106,3.19a3.027,3.027,0,0,0,2.861,2.035H42.6A3.028,3.028,0,0,1,45.627,54.709Z" fill="#fcb65f"/>
                <g id="Grupo_1015411" data-name="Grupo 1015411" transform="translate(0 44.419)">
                  <path id="Trazado_609416" data-name="Trazado 609416" d="M5.4,156.358H3.028A3.028,3.028,0,0,1,0,153.33V128.938a3.028,3.028,0,0,1,3.028-3.028H5.215v.006a3.029,3.029,0,0,0-2.84,3.023V153.33A3.028,3.028,0,0,0,5.4,156.358Z" transform="translate(0 -118.648)" fill="#e29a4b"/>
                  <path id="Trazado_609417" data-name="Trazado 609417" d="M113.874,44.419a3.029,3.029,0,0,0-2.862,2.036l-1.105,3.19a3.029,3.029,0,0,1-2.861,2.035h-2.032v-.02a3.028,3.028,0,0,0,2.519-2.016l1.105-3.19a3.028,3.028,0,0,1,2.862-2.036Z" transform="translate(-95.656 -44.419)" fill="#e29a4b"/>
                </g>
                <path id="Trazado_609418" data-name="Trazado 609418" d="M45.627,218.384v19.179a3.028,3.028,0,0,1-3.028,3.028H3.028A3.028,3.028,0,0,1,0,237.563V218.384Z" transform="translate(0 -158.462)" fill="#53bce9"/>
                <path id="Trazado_609419" data-name="Trazado 609419" d="M5.4,240.591H3.028A3.028,3.028,0,0,1,0,237.563V218.384H2.374v19.179A3.028,3.028,0,0,0,5.4,240.591Z" transform="translate(0 -158.462)" fill="#36a6ce"/>
                <circle id="Elipse_5625" data-name="Elipse 5625" cx="12.616" cy="12.616" r="12.616" transform="translate(10.197 54.057)" fill="#e5e9ea"/>
                <path id="Trazado_609420" data-name="Trazado 609420" d="M173.731,202.958a8.922,8.922,0,1,1-2.943-6.621A8.9,8.9,0,0,1,173.731,202.958Z" transform="translate(-141.997 -136.285)" fill="#566368"/>
                <g id="Grupo_1015412" data-name="Grupo 1015412" transform="translate(13.893 57.753)">
                  <path id="Trazado_609421" data-name="Trazado 609421" d="M257.54,196.652a8.9,8.9,0,0,1,2.6,6.763,8.92,8.92,0,0,1-9.364-9.364A8.9,8.9,0,0,1,257.54,196.652Z" transform="translate(-242.311 -194.04)" fill="#6f7b7f"/>
                  <path id="Trazado_609422" data-name="Trazado 609422" d="M162.67,291.521a8.9,8.9,0,0,1,2.6,6.763,8.919,8.919,0,0,1-9.364-9.364A8.894,8.894,0,0,1,162.67,291.521Z" transform="translate(-155.896 -280.454)" fill="#6f7b7f"/>
                </g>
                <g id="Grupo_1015413" data-name="Grupo 1015413" transform="translate(13.194 57.054)">
                  <path id="Trazado_609423" data-name="Trazado 609423" d="M157.674,205.437a9.619,9.619,0,1,1,9.619-9.619A9.63,9.63,0,0,1,157.674,205.437Zm0-17.842a8.223,8.223,0,1,0,8.223,8.223A8.232,8.232,0,0,0,157.674,187.595Z" transform="translate(-148.055 -186.198)" fill="#435054"/>
                  <path id="Trazado_609424" data-name="Trazado 609424" d="M219.393,253.955a3.581,3.581,0,1,0,3.581,3.581A3.585,3.585,0,0,0,219.393,253.955Z" transform="translate(-209.774 -247.917)" fill="#435054"/>
                </g>
                <path id="Trazado_609425" data-name="Trazado 609425" d="M293.5,76.676h5.488A1.306,1.306,0,0,0,300.3,75.37V73.932a1.306,1.306,0,0,0-1.306-1.306H293.5a1.306,1.306,0,0,0-1.306,1.306V75.37A1.306,1.306,0,0,0,293.5,76.676Z" transform="translate(-266.158 -25.693)" fill="#e5e9ea"/>
                <path id="Trazado_609426" data-name="Trazado 609426" d="M291.853,70.237h-5.488a2.007,2.007,0,0,1-2-2V66.795a2.007,2.007,0,0,1,2-2h5.488a2.007,2.007,0,0,1,2,2v1.438A2.007,2.007,0,0,1,291.853,70.237Zm-5.488-4.05a.609.609,0,0,0-.608.608v1.438a.609.609,0,0,0,.608.608h5.488a.609.609,0,0,0,.608-.608V66.795a.609.609,0,0,0-.608-.608Z" transform="translate(-259.019 -18.556)" fill="#e29a4b"/>
                <circle id="Elipse_5626" data-name="Elipse 5626" cx="2.525" cy="2.525" r="2.525" transform="translate(6.148 74.494)" fill="#566368"/>
              </g>
              <g id="Summary" transform="translate(1127.836 1806.667)">
                <path id="Trazado_609427" data-name="Trazado 609427" d="M33.958,40.666H6.635A.635.635,0,0,1,6,40.03V.635A.635.635,0,0,1,6.635,0H27.389a.635.635,0,0,1,.449.186l6.569,6.569a.635.635,0,0,1,.186.449V40.03A.635.635,0,0,1,33.958,40.666Z" transform="translate(-0.365)" fill="url(#linear-gradient)"/>
                <path id="Trazado_609428" data-name="Trazado 609428" d="M32.958,40.666H5.635A.635.635,0,0,1,5,40.03V.635A.635.635,0,0,1,5.635,0H26.652l6.941,6.941V40.03A.635.635,0,0,1,32.958,40.666Z" transform="translate(0)" fill="url(#linear-gradient-2)"/>
                <path id="Trazado_609429" data-name="Trazado 609429" d="M39.076,0V6.306a.635.635,0,0,0,.635.635h6.306L42.9,3.192Z" transform="translate(-12.424)" fill="url(#linear-gradient-3)"/>
                <rect id="Rectngulo_347766" data-name="Rectngulo 347766" width="16.239" height="0.613" rx="0.306" transform="translate(9.413 10.63)" fill="url(#linear-gradient-4)"/>
                <g id="Grupo_1015414" data-name="Grupo 1015414" transform="translate(9.413 13.496)">
                  <rect id="Rectngulo_347767" data-name="Rectngulo 347767" width="19.765" height="0.613" rx="0.306" fill="url(#linear-gradient-5)"/>
                  <rect id="Rectngulo_347768" data-name="Rectngulo 347768" width="19.765" height="0.613" rx="0.306" transform="translate(0 2.866)" fill="url(#linear-gradient-6)"/>
                  <rect id="Rectngulo_347769" data-name="Rectngulo 347769" width="19.765" height="0.613" rx="0.306" transform="translate(0 5.733)" fill="url(#linear-gradient-7)"/>
                  <rect id="Rectngulo_347770" data-name="Rectngulo 347770" width="19.765" height="0.613" rx="0.306" transform="translate(0 8.6)" fill="url(#linear-gradient-8)"/>
                  <rect id="Rectngulo_347771" data-name="Rectngulo 347771" width="19.765" height="0.613" rx="0.306" transform="translate(0 11.466)" fill="url(#linear-gradient-9)"/>
                  <rect id="Rectngulo_347772" data-name="Rectngulo 347772" width="19.765" height="0.613" rx="0.306" transform="translate(0 14.332)" fill="url(#linear-gradient-10)"/>
                </g>
                <rect id="Rectngulo_347773" data-name="Rectngulo 347773" width="9.883" height="0.613" rx="0.306" transform="translate(9.413 30.694)" fill="url(#linear-gradient-11)"/>
                <path id="Trazado_609430" data-name="Trazado 609430" d="M56.269,18.88l-1.416-1.415a.865.865,0,0,0-1.225,0l-1.421,1.421,2.641,2.639,1.421-1.419a.867.867,0,0,0,0-1.225Z" transform="translate(-17.212 -6.275)" fill="url(#linear-gradient-12)"/>
                <path id="Trazado_609431" data-name="Trazado 609431" d="M32.146,36.061l-4.384,1.916a.127.127,0,0,1-.171-.171l1.916-4.384L43.492,19.436l2.64,2.641Z" transform="translate(-8.232 -7.086)" fill="url(#linear-gradient-13)"/>
                <path id="Trazado_609432" data-name="Trazado 609432" d="M0,0H19.778V3.734H0Z" transform="translate(21.27 26.333) rotate(-45)" fill="url(#linear-gradient-14)"/>
                <path id="Trazado_609433" data-name="Trazado 609433" d="M28.846,47.4l-.795-.8-.528,1.207a.087.087,0,0,0,.114.114Z" transform="translate(-8.209 -16.99)" fill="url(#linear-gradient-15)"/>
              </g>
              <g id="traduccion" transform="translate(1096.994 1884.849)">
                <g id="Grupo_1015428" data-name="Grupo 1015428" transform="translate(30.392 0)">
                  <g id="Grupo_1015427" data-name="Grupo 1015427" transform="translate(0 0)">
                    <path id="Trazado_609434" data-name="Trazado 609434" d="M237.188,273.1v9.934a2.265,2.265,0,0,1-2.262,2.262h-9.432a2.454,2.454,0,0,0-1.747.724l-5.669,5.669,5.513,5.136a.789.789,0,0,0,1.327-.577v-4.419a2.366,2.366,0,0,1,2.366-2.366h11.911a2.366,2.366,0,0,0,2.366-2.366v-14Z" transform="translate(-199.272 -245.735)" fill="#00c27a"/>
                    <g id="Grupo_1015416" data-name="Grupo 1015416" transform="translate(18.806 43.366)">
                      <g id="Grupo_1015415" data-name="Grupo 1015415">
                        <path id="Trazado_609435" data-name="Trazado 609435" d="M220.666,432.8l-2.587,2.587,5.513,5.136a.789.789,0,0,0,1.327-.577v-3.184Z" transform="translate(-218.079 -432.799)" fill="#08b865"/>
                      </g>
                    </g>
                    <path id="Trazado_609436" data-name="Trazado 609436" d="M60.145,129.97a.942.942,0,0,1-.941-.941V114.613a.936.936,0,0,1,.2-.581H32.758a2.366,2.366,0,0,0-2.366,2.366V139.9a2.366,2.366,0,0,0,2.366,2.366H44.669a2.366,2.366,0,0,1,2.366,2.366v4.327a.789.789,0,0,0,1.347.558l6.558-6.558a2.366,2.366,0,0,1,1.673-.693h9.432a2.366,2.366,0,0,0,2.366-2.366V129.97Z" transform="translate(-30.392 -102.606)" fill="#fed402"/>
                    <g id="Grupo_1015418" data-name="Grupo 1015418" transform="translate(0 11.426)">
                      <g id="Grupo_1015417" data-name="Grupo 1015417">
                        <path id="Trazado_609437" data-name="Trazado 609437" d="M35.1,139.9V116.4a2.366,2.366,0,0,1,2.366-2.366h-4.7a2.366,2.366,0,0,0-2.366,2.366V139.9a2.366,2.366,0,0,0,2.366,2.366h4.7A2.366,2.366,0,0,1,35.1,139.9Z" transform="translate(-30.392 -114.032)" fill="#fac600"/>
                      </g>
                    </g>
                    <path id="Trazado_609438" data-name="Trazado 609438" d="M118.472,18.755a.942.942,0,0,1,.941-.941H121.2a12.573,12.573,0,1,0-2.725,10.319V18.755Z" transform="translate(-89.66 -6.749)" fill="#99e6fc"/>
                    <g id="Grupo_1015420" data-name="Grupo 1015420" transform="translate(6.6 0.751)">
                      <g id="Grupo_1015419" data-name="Grupo 1015419">
                        <path id="Trazado_609439" data-name="Trazado 609439" d="M105.647,31.044a12.572,12.572,0,0,1,0-21.947,4.385,4.385,0,0,1,3.183-1.6,12.57,12.57,0,0,0,0,25.14A4.385,4.385,0,0,1,105.647,31.044Z" transform="translate(-96.26 -7.5)" fill="#62dbfb"/>
                      </g>
                    </g>
                    <g id="Grupo_1015423" data-name="Grupo 1015423" transform="translate(5.848)">
                      <g id="Grupo_1015421" data-name="Grupo 1015421" transform="translate(6.798 0.751)">
                        <ellipse id="Elipse_5627" data-name="Elipse 5627" cx="6.524" cy="12.57" rx="6.524" ry="12.57" fill="#01d0fb"/>
                      </g>
                      <g id="Grupo_1015422" data-name="Grupo 1015422" transform="translate(6.798 0.751)">
                        <path id="Trazado_609440" data-name="Trazado 609440" d="M159.748,20.07c0-5.9,2.108-10.845,4.951-12.2a3.627,3.627,0,0,0-1.572-.369c-3.6,0-6.524,5.628-6.524,12.57s2.921,12.57,6.524,12.57a3.627,3.627,0,0,0,1.572-.369C161.856,30.915,159.748,25.967,159.748,20.07Z" transform="translate(-156.603 -7.5)" fill="#01c0fa"/>
                      </g>
                      <path id="Trazado_609441" data-name="Trazado 609441" d="M111.724,20.144a11.876,11.876,0,0,1-5.565,4.271,13.427,13.427,0,0,0,2.359-4.789h3.206v-1.5h-2.838a23.629,23.629,0,0,0,.459-4.05h2.379v-1.5h-2.379a23.619,23.619,0,0,0-.459-4.05h3.7a.749.749,0,0,0,.274-.052,11.706,11.706,0,0,1,.826,2.6h1.528A13.333,13.333,0,1,0,111.724,22.5ZM98,2.228a13.425,13.425,0,0,0-2.359,4.788H92.089A11.883,11.883,0,0,1,98,2.228Zm-6.7,6.239a.748.748,0,0,0,.274.052h3.7a23.62,23.62,0,0,0-.459,4.05h-4.53A11.734,11.734,0,0,1,91.306,8.468Zm0,9.707a11.732,11.732,0,0,1-1.019-4.1h4.53a23.618,23.618,0,0,0,.459,4.05h-3.7A.749.749,0,0,0,91.306,18.175Zm.783,1.451h3.555A13.426,13.426,0,0,0,98,24.414,11.882,11.882,0,0,1,92.089,19.626Zm9.241,5.409c-1.7-.476-3.194-2.538-4.1-5.409h4.1Zm0-6.912h-4.5a21.814,21.814,0,0,1-.5-4.05h5.008Zm0-5.553H96.322a21.814,21.814,0,0,1,.5-4.05h4.5Zm0-5.553h-4.1c.907-2.871,2.4-4.932,4.1-5.409Zm10.743,0h-3.555a13.426,13.426,0,0,0-2.359-4.789A11.884,11.884,0,0,1,112.073,7.017Zm-9.241-5.409c1.7.476,3.194,2.538,4.1,5.409h-4.1Zm0,6.911h4.5a21.814,21.814,0,0,1,.5,4.05h-5.008Zm0,5.553h5.008a21.814,21.814,0,0,1-.5,4.05h-4.5Zm0,10.962V19.626h4.1C106.027,22.5,104.533,24.558,102.833,25.035Z" transform="translate(-88.76 0)" fill="#0290cf"/>
                    </g>
                    <g id="Grupo_1015426" data-name="Grupo 1015426" transform="translate(8.126 30.207)">
                      <g id="Grupo_1015424" data-name="Grupo 1015424">
                        <path id="Trazado_609442" data-name="Trazado 609442" d="M132.826,302.979H112.241a.751.751,0,0,1,0-1.5h20.585a.751.751,0,0,1,0,1.5Z" transform="translate(-111.49 -301.476)" fill="#d7aa02"/>
                      </g>
                      <g id="Grupo_1015425" data-name="Grupo 1015425" transform="translate(2.148 3.51)">
                        <path id="Trazado_609443" data-name="Trazado 609443" d="M150.088,338.006H133.68a.751.751,0,1,1,0-1.5h16.409a.751.751,0,1,1,0,1.5Z" transform="translate(-132.928 -336.503)" fill="#d7aa02"/>
                      </g>
                    </g>
                  </g>
                </g>
                <g id="Grupo_1015431" data-name="Grupo 1015431" transform="translate(59.104 10.965)">
                  <g id="Grupo_1015429" data-name="Grupo 1015429" transform="translate(0)">
                    <path id="Trazado_609444" data-name="Trazado 609444" d="M332.4,125.932H317.984a1.041,1.041,0,0,1-1.041-1.041V110.474a1.041,1.041,0,0,1,1.041-1.041H332.4a1.041,1.041,0,0,1,1.041,1.041v14.416A1.041,1.041,0,0,1,332.4,125.932Z" transform="translate(-316.943 -109.433)" fill="#fe646f"/>
                  </g>
                  <g id="Grupo_1015430" data-name="Grupo 1015430" transform="translate(0)">
                    <path id="Trazado_609445" data-name="Trazado 609445" d="M320.375,124.891V110.474a1.041,1.041,0,0,1,1.041-1.041h-3.432a1.041,1.041,0,0,0-1.041,1.041v14.416a1.041,1.041,0,0,0,1.041,1.041h3.432A1.041,1.041,0,0,1,320.375,124.891Z" transform="translate(-316.943 -109.433)" fill="#fd4755"/>
                  </g>
                  <path id="Trazado_609446" data-name="Trazado 609446" d="M363.737,154.366l-3.692-7.6a.751.751,0,0,0-1.352,0l-3.692,7.6a.751.751,0,1,0,1.352.657l.964-1.984h4.1l.964,1.984a.752.752,0,0,0,1.352-.657Zm-5.69-2.83,1.322-2.721,1.322,2.721Z" transform="translate(-351.12 -142.646)" fill="#fff"/>
                </g>
              </g>
            </g>
          </g>
        </g>
        <rect id="Rectngulo_348070" data-name="Rectngulo 348070" width="1030" height="476" transform="translate(285 6603)" fill="none"/>
      </g>
    </g>
    <g id="Grupo_1070435" data-name="Grupo 1070435" transform="translate(0 14.855)">
      <g id="Grupo_1066699" data-name="Grupo 1066699" transform="translate(1230 6804.051)">
        <g id="Grupo_159358" data-name="Grupo 159358">
          <circle id="Elipse_5613" data-name="Elipse 5613" cx="18.475" cy="18.475" r="18.475" opacity="0.57" fill="url(#linear-gradient-16)"/>
          <circle id="Elipse_5606" data-name="Elipse 5606" cx="13.436" cy="13.436" r="13.436" transform="translate(5.039 5.039)" fill="#632059"/>
        </g>
        <text id="_" data-name="+" transform="matrix(-1, 0, 0, 1, 24.352, 26.071)" fill="#fff" font-size="20" font-family="Roboto-Medium, Roboto" font-weight="500"><tspan x="0" y="0">+</tspan></text>
      </g>
      <g id="Grupo_1066700" data-name="Grupo 1066700" transform="translate(333.051 6804.051)">
        <g id="Grupo_159358-2" data-name="Grupo 159358">
          <circle id="Elipse_5613-2" data-name="Elipse 5613" cx="18.475" cy="18.475" r="18.475" opacity="0.57" fill="url(#linear-gradient-16)"/>
          <circle id="Elipse_5606-2" data-name="Elipse 5606" cx="13.436" cy="13.436" r="13.436" transform="translate(5.039 5.039)" fill="#632059"/>
        </g>
        <text id="_2" data-name="+" transform="matrix(-1, 0, 0, 1, 24.352, 26.071)" fill="#fff" font-size="20" font-family="Roboto-Medium, Roboto" font-weight="500"><tspan x="0" y="0">+</tspan></text>
      </g>
    </g>
  </g>
</svg>
