<svg xmlns="http://www.w3.org/2000/svg" xmlns:xlink="http://www.w3.org/1999/xlink" width="431.128" height="408.545" viewBox="0 0 431.128 408.545">
  <defs>
    <linearGradient id="linear-gradient" x1="0.5" y1="-0.401" x2="0.5" y2="-0.374" gradientUnits="objectBoundingBox">
      <stop offset="0" stop-color="#f3f7ff"/>
      <stop offset="0.99" stop-color="#b5d1ff"/>
    </linearGradient>
    <linearGradient id="linear-gradient-2" y1="-0.085" y2="2.406" xlink:href="#linear-gradient"/>
    <linearGradient id="linear-gradient-3" y1="-2.145" y2="-0.366" xlink:href="#linear-gradient"/>
    <linearGradient id="linear-gradient-4" y1="-29.437" y2="-23.877" xlink:href="#linear-gradient"/>
    <linearGradient id="linear-gradient-5" y1="-34.116" y2="-28.556" xlink:href="#linear-gradient"/>
    <linearGradient id="linear-gradient-6" y1="-38.796" y2="-33.235" xlink:href="#linear-gradient"/>
    <linearGradient id="linear-gradient-7" y1="-43.476" y2="-37.916" xlink:href="#linear-gradient"/>
    <linearGradient id="linear-gradient-8" y1="-48.156" y2="-42.595" xlink:href="#linear-gradient"/>
    <linearGradient id="linear-gradient-9" y1="-52.835" y2="-47.275" xlink:href="#linear-gradient"/>
    <linearGradient id="linear-gradient-10" y1="-57.514" y2="-51.954" xlink:href="#linear-gradient"/>
    <linearGradient id="linear-gradient-11" y1="-62.194" y2="-56.634" xlink:href="#linear-gradient"/>
    <linearGradient id="linear-gradient-12" x1="-9.288" y1="-10.531" x2="-5.967" y2="-10.514" gradientUnits="objectBoundingBox">
      <stop offset="0" stop-color="#048ac4"/>
      <stop offset="1" stop-color="#35489b"/>
    </linearGradient>
    <linearGradient id="linear-gradient-13" x1="0.382" y1="0.451" x2="1.352" y2="1.421" xlink:href="#linear-gradient"/>
    <linearGradient id="linear-gradient-14" x1="-1.262" y1="-11.336" x2="-0.519" y2="-11.316" gradientUnits="objectBoundingBox">
      <stop offset="0" stop-color="#fdc830"/>
      <stop offset="1" stop-color="#f37335"/>
    </linearGradient>
    <linearGradient id="linear-gradient-15" x1="-14.703" y1="-29.55" x2="-11.468" y2="-29.533" xlink:href="#linear-gradient-12"/>
  </defs>
  <g id="Grupo_1066767" data-name="Grupo 1066767" transform="translate(-3.253)">
    <path id="Trazado_609412" data-name="Trazado 609412" d="M14.795,0H298.666A14.8,14.8,0,0,1,313.46,14.795V45.308A14.8,14.8,0,0,1,298.666,60.1H14.795A14.8,14.8,0,0,1,0,45.308V14.795A14.8,14.8,0,0,1,14.795,0Z" transform="translate(71.452 16.026)" fill="#3b5620"/>
    <path id="Trazado_805041" data-name="Trazado 805041" d="M9.026,11.9H4.052V17H.967V4.2H9.527V6.585H4.052V9.529H9.026Zm7.119,4.069a3.054,3.054,0,0,1-2.54,1.2,3,3,0,0,1-2.369-.91,3.826,3.826,0,0,1-.8-2.615V7.49h2.962v6.179a1.065,1.065,0,0,0,1.187,1.222,1.548,1.548,0,0,0,1.45-.729V7.49h2.979V17H16.233Zm9.088,1.2a4.889,4.889,0,0,1-3.542-1.305,4.507,4.507,0,0,1-1.354-3.4v-.246a5.84,5.84,0,0,1,.541-2.575,3.955,3.955,0,0,1,1.578-1.727,4.763,4.763,0,0,1,2.461-.611,4.117,4.117,0,0,1,3.164,1.244,4.887,4.887,0,0,1,1.16,3.467v1.151H23.353a2.135,2.135,0,0,0,.694,1.257,2.066,2.066,0,0,0,1.389.457,2.662,2.662,0,0,0,2.2-.984l1.354,1.6a3.784,3.784,0,0,1-1.569,1.217A5.3,5.3,0,0,1,25.233,17.176ZM24.9,9.6q-1.3,0-1.547,1.723h2.988v-.229a1.467,1.467,0,0,0-.36-1.1A1.434,1.434,0,0,0,24.9,9.6ZM33.152,7.49l.1,1.116a3.225,3.225,0,0,1,2.716-1.292,2.713,2.713,0,0,1,2.219.888,4.226,4.226,0,0,1,.76,2.672V17H35.974V11a1.6,1.6,0,0,0-.29-1.059A1.342,1.342,0,0,0,34.629,9.6a1.413,1.413,0,0,0-1.292.686V17H30.375V7.49ZM44.033,5.126V7.49H45.6V9.547H44.033V13.9a1.111,1.111,0,0,0,.193.747,1.037,1.037,0,0,0,.765.211,4.345,4.345,0,0,0,.738-.053v2.118a5.466,5.466,0,0,1-1.67.255,3.1,3.1,0,0,1-2.259-.721,2.954,2.954,0,0,1-.729-2.188V9.547H39.858V7.49h1.213V5.126Zm7.33,12.05a4.889,4.889,0,0,1-3.542-1.305,4.507,4.507,0,0,1-1.354-3.4v-.246a5.84,5.84,0,0,1,.541-2.575,3.955,3.955,0,0,1,1.578-1.727,4.763,4.763,0,0,1,2.461-.611,4.117,4.117,0,0,1,3.164,1.244,4.887,4.887,0,0,1,1.16,3.467v1.151H49.482a2.135,2.135,0,0,0,.694,1.257,2.066,2.066,0,0,0,1.389.457,2.662,2.662,0,0,0,2.2-.984l1.354,1.6a3.784,3.784,0,0,1-1.569,1.217A5.3,5.3,0,0,1,51.363,17.176ZM51.029,9.6q-1.3,0-1.547,1.723h2.988v-.229a1.467,1.467,0,0,0-.36-1.1A1.434,1.434,0,0,0,51.029,9.6Zm10.512,4.729a.684.684,0,0,0-.4-.606,6.016,6.016,0,0,0-1.5-.475,6.853,6.853,0,0,1-1.828-.646,3.062,3.062,0,0,1-1.1-.971,2.319,2.319,0,0,1-.378-1.31,2.628,2.628,0,0,1,1.081-2.158,4.453,4.453,0,0,1,2.83-.848,4.934,4.934,0,0,1,3.023.853,2.666,2.666,0,0,1,1.143,2.241H61.444q0-1.143-1.2-1.143a1.194,1.194,0,0,0-.782.259.8.8,0,0,0-.316.646.737.737,0,0,0,.387.642,3.654,3.654,0,0,0,1.235.4,10.671,10.671,0,0,1,1.49.378A2.706,2.706,0,0,1,64.4,14.24a2.491,2.491,0,0,1-1.156,2.118,5.068,5.068,0,0,1-2.993.817,5.172,5.172,0,0,1-2.18-.439,3.645,3.645,0,0,1-1.494-1.2,2.707,2.707,0,0,1-.536-1.591h2.769a1.145,1.145,0,0,0,.439.962,1.808,1.808,0,0,0,1.081.3,1.422,1.422,0,0,0,.91-.246A.787.787,0,0,0,61.541,14.328Zm8.35-2.153a5.809,5.809,0,0,1,.976-3.56,3.211,3.211,0,0,1,2.725-1.3,2.731,2.731,0,0,1,2.145,1V3.5h2.971V17H76.043l-.149-1.02a2.8,2.8,0,0,1-2.32,1.2,3.205,3.205,0,0,1-2.689-1.3A5.993,5.993,0,0,1,69.891,12.175Zm2.962.185q0,2.531,1.477,2.531a1.458,1.458,0,0,0,1.406-.826V10.443A1.419,1.419,0,0,0,74.347,9.6q-1.371,0-1.485,2.215ZM84.99,17.176a4.889,4.889,0,0,1-3.542-1.305,4.507,4.507,0,0,1-1.354-3.4v-.246a5.84,5.84,0,0,1,.541-2.575,3.955,3.955,0,0,1,1.578-1.727,4.763,4.763,0,0,1,2.461-.611,4.117,4.117,0,0,1,3.164,1.244A4.887,4.887,0,0,1,89,12.025v1.151H83.109a2.135,2.135,0,0,0,.694,1.257,2.066,2.066,0,0,0,1.389.457,2.662,2.662,0,0,0,2.2-.984l1.354,1.6a3.784,3.784,0,0,1-1.569,1.217A5.3,5.3,0,0,1,84.99,17.176ZM84.656,9.6q-1.3,0-1.547,1.723H86.1v-.229a1.467,1.467,0,0,0-.36-1.1A1.434,1.434,0,0,0,84.656,9.6ZM97.8,17H94.825V7.49H97.8ZM94.649,5.038A1.322,1.322,0,0,1,95.106,4a1.943,1.943,0,0,1,2.373,0,1.322,1.322,0,0,1,.457,1.037,1.322,1.322,0,0,1-.457,1.037,1.943,1.943,0,0,1-2.373,0A1.322,1.322,0,0,1,94.649,5.038Zm7.69,2.452.1,1.116a3.225,3.225,0,0,1,2.716-1.292,2.713,2.713,0,0,1,2.219.888,4.226,4.226,0,0,1,.76,2.672V17h-2.971V11a1.6,1.6,0,0,0-.29-1.059,1.342,1.342,0,0,0-1.055-.338,1.413,1.413,0,0,0-1.292.686V17H99.563V7.49ZM110.426,17V9.547h-1.38V7.49h1.38V6.734a3.286,3.286,0,0,1,.958-2.522,3.785,3.785,0,0,1,2.689-.9,5.89,5.89,0,0,1,1.389.185l.009,2.18a2.706,2.706,0,0,0-.729-.079q-1.345,0-1.345,1.16V7.49h1.854V9.547H113.4V17Zm5.493-4.843a5.613,5.613,0,0,1,.554-2.536,3.96,3.96,0,0,1,1.591-1.709,4.791,4.791,0,0,1,2.435-.6,4.373,4.373,0,0,1,3.366,1.323,5.076,5.076,0,0,1,1.23,3.6v.105a4.925,4.925,0,0,1-1.235,3.529,4.384,4.384,0,0,1-3.344,1.305,4.434,4.434,0,0,1-3.261-1.217,4.761,4.761,0,0,1-1.327-3.3Zm2.962.185a3.538,3.538,0,0,0,.413,1.934,1.376,1.376,0,0,0,1.222.615q1.582,0,1.617-2.435v-.3q0-2.558-1.635-2.558-1.485,0-1.608,2.206Zm13.271-2.171-.976-.07a1.752,1.752,0,0,0-1.793.879V17h-2.962V7.49H129.2l.1,1.222a2.294,2.294,0,0,1,2.083-1.4,2.888,2.888,0,0,1,.826.105ZM136.02,7.49l.1,1.116a3.27,3.27,0,0,1,2.716-1.292,2.407,2.407,0,0,1,2.435,1.433,3.165,3.165,0,0,1,2.795-1.433q2.892,0,2.971,3.5V17h-2.971V11a1.813,1.813,0,0,0-.246-1.063,1.048,1.048,0,0,0-.9-.334,1.4,1.4,0,0,0-1.31.782l.009.123V17h-2.971V11.015a1.906,1.906,0,0,0-.237-1.081A1.045,1.045,0,0,0,137.5,9.6a1.42,1.42,0,0,0-1.3.782V17h-2.962V7.49ZM154.081,17a3.344,3.344,0,0,1-.281-.853,2.754,2.754,0,0,1-2.285,1.028,3.374,3.374,0,0,1-2.285-.813,2.588,2.588,0,0,1-.94-2.043,2.66,2.66,0,0,1,1.143-2.338,5.821,5.821,0,0,1,3.322-.791h.914v-.5q0-1.316-1.134-1.316a.927.927,0,0,0-1.055,1.042h-2.962a2.655,2.655,0,0,1,1.173-2.239,4.931,4.931,0,0,1,2.993-.86,4.323,4.323,0,0,1,2.874.888,3.086,3.086,0,0,1,1.081,2.435v4.21a4.311,4.311,0,0,0,.4,2V17Zm-1.854-1.934a1.652,1.652,0,0,0,.918-.237,1.487,1.487,0,0,0,.523-.536V12.772h-.861q-1.547,0-1.547,1.389a.848.848,0,0,0,.272.655A.986.986,0,0,0,152.227,15.066Zm10.072-.176a1.317,1.317,0,0,0,.967-.338,1.241,1.241,0,0,0,.334-.945h2.777a3.288,3.288,0,0,1-1.121,2.566,4.168,4.168,0,0,1-2.887,1,4.22,4.22,0,0,1-3.27-1.3,5.125,5.125,0,0,1-1.2-3.6v-.123a5.792,5.792,0,0,1,.532-2.544,3.872,3.872,0,0,1,1.534-1.7,4.573,4.573,0,0,1,2.373-.593,4.116,4.116,0,0,1,2.944,1.028,3.647,3.647,0,0,1,1.09,2.786H163.6a1.626,1.626,0,0,0-.36-1.134,1.244,1.244,0,0,0-.967-.4q-1.151,0-1.345,1.468a10.357,10.357,0,0,0-.062,1.283,4.068,4.068,0,0,0,.343,1.986A1.187,1.187,0,0,0,162.3,14.891ZM170.754,17h-2.971V7.49h2.971ZM167.607,5.038A1.322,1.322,0,0,1,168.064,4a1.943,1.943,0,0,1,2.373,0,1.322,1.322,0,0,1,.457,1.037,1.322,1.322,0,0,1-.457,1.037,1.943,1.943,0,0,1-2.373,0A1.322,1.322,0,0,1,167.607,5.038Zm4.6,7.119a5.613,5.613,0,0,1,.554-2.536,3.96,3.96,0,0,1,1.591-1.709,4.791,4.791,0,0,1,2.435-.6,4.373,4.373,0,0,1,3.366,1.323,5.076,5.076,0,0,1,1.23,3.6v.105a4.925,4.925,0,0,1-1.235,3.529,4.384,4.384,0,0,1-3.344,1.305,4.434,4.434,0,0,1-3.261-1.217,4.761,4.761,0,0,1-1.327-3.3Zm2.962.185a3.538,3.538,0,0,0,.413,1.934,1.376,1.376,0,0,0,1.222.615q1.582,0,1.617-2.435v-.3q0-2.558-1.635-2.558-1.485,0-1.608,2.206ZM177.188,3.5h3.129l-2.443,2.76-2.417,0Zm8.218,3.99.1,1.116a3.225,3.225,0,0,1,2.716-1.292,2.713,2.713,0,0,1,2.219.888,4.226,4.226,0,0,1,.76,2.672V17h-2.971V11a1.6,1.6,0,0,0-.29-1.059,1.342,1.342,0,0,0-1.055-.338,1.413,1.413,0,0,0-1.292.686V17h-2.962V7.49Z" transform="translate(178.657 34.52)" fill="#fff"/>
    <g id="informacion_1_" data-name="informacion (1)" transform="translate(94.568)">
      <g id="Grupo_1015304" data-name="Grupo 1015304" transform="translate(0 18.249)">
        <g id="Grupo_1015301" data-name="Grupo 1015301" transform="translate(4.689)">
          <path id="Trazado_609278" data-name="Trazado 609278" d="M276.6,144.1a8.775,8.775,0,0,0-8.765-8.765H246.771l-1.438,23.957,1.438,20.136H276.6Z" transform="translate(-216.941 -135.333)" fill="#29376d"/>
          <path id="Trazado_609279" data-name="Trazado 609279" d="M43.542,135.333a8.775,8.775,0,0,0-8.765,8.765v35.329h29.83V135.333Z" transform="translate(-34.777 -135.333)" fill="#47568c"/>
        </g>
        <g id="Grupo_1015302" data-name="Grupo 1015302" transform="translate(8.735 4.045)">
          <path id="Trazado_609280" data-name="Trazado 609280" d="M272.556,170.052a4.725,4.725,0,0,0-4.719-4.719H246.771l-1.438,21.35,1.438,18.7h25.785Z" transform="translate(-220.986 -165.333)" fill="#eaf1ff"/>
          <path id="Trazado_609281" data-name="Trazado 609281" d="M69.5,165.333a4.725,4.725,0,0,0-4.719,4.719v35.329H90.562V165.333Z" transform="translate(-64.777 -165.333)" fill="#f9f9f9"/>
        </g>
        <g id="Grupo_1015303" data-name="Grupo 1015303" transform="translate(0 42.363)">
          <path id="Trazado_609282" data-name="Trazado 609282" d="M263.753,449.5l-16.405,4.214L246,455.9l1.349,2.023h26.092a8.437,8.437,0,0,0,8.428-8.428Z" transform="translate(-212.828 -449.5)" fill="#47568c"/>
          <path id="Trazado_609283" data-name="Trazado 609283" d="M251.891,449.5l-.641,2.107.641,2.107H268.3V449.5Z" transform="translate(-217.371 -449.5)" fill="#29376d"/>
          <path id="Trazado_609284" data-name="Trazado 609284" d="M0,449.5a8.437,8.437,0,0,0,8.428,8.428H34.519v-4.214L18.114,449.5Z" transform="translate(0 -449.5)" fill="#61729b"/>
          <path id="Trazado_609285" data-name="Trazado 609285" d="M134.338,449.5h16.405v4.214H134.338Z" transform="translate(-116.224 -449.5)" fill="#47568c"/>
        </g>
      </g>
      <g id="Grupo_1015305" data-name="Grupo 1015305" transform="translate(15.805)">
        <path id="Trazado_609286" data-name="Trazado 609286" d="M245.07,0l-1.7,19.363,1.7,27.92s11.945-13.307,14.972-17.337A18.716,18.716,0,0,0,245.07,0Z" transform="translate(-226.356)" fill="#fdae02"/>
        <path id="Trazado_609287" data-name="Trazado 609287" d="M117.208,18.715a18.557,18.557,0,0,0,3.743,11.23c3.027,4.03,14.972,17.338,14.972,17.338V0A18.736,18.736,0,0,0,117.208,18.715Z" transform="translate(-117.208)" fill="#fdcb02"/>
      </g>
      <g id="Grupo_1015306" data-name="Grupo 1015306" transform="translate(18.657 44.679)">
        <path id="Trazado_609288" data-name="Trazado 609288" d="M262.634,331.345H246.771l-1.438,2.785,1.438,1.26h15.863Z" transform="translate(-230.909 -331.345)" fill="#f7d586"/>
        <path id="Trazado_609289" data-name="Trazado 609289" d="M138.362,331.345h15.863v4.045H138.362Z" transform="translate(-138.362 -331.345)" fill="#f9e89c"/>
      </g>
      <g id="Grupo_1015308" data-name="Grupo 1015308" transform="translate(32.195 10.697)">
        <path id="Trazado_609290" data-name="Trazado 609290" d="M246.771,147.388H248.8V134.749h-2.028l-1.438,6.281Z" transform="translate(-244.447 -127.277)" fill="#eaf1ff"/>
        <path id="Trazado_609291" data-name="Trazado 609291" d="M249.1,81.658a2.325,2.325,0,0,0-2.325-2.325l-1.438,2.247,1.438,2.4A2.325,2.325,0,0,0,249.1,81.658Z" transform="translate(-244.447 -79.333)" fill="#eaf1ff"/>
        <g id="Grupo_1015307" data-name="Grupo 1015307">
          <path id="Trazado_609292" data-name="Trazado 609292" d="M241.037,134.749h2.018v12.639h-2.018Z" transform="translate(-240.73 -127.277)" fill="#f9f9f9"/>
          <path id="Trazado_609293" data-name="Trazado 609293" d="M238.759,81.658a2.325,2.325,0,0,0,2.325,2.325v-4.65A2.325,2.325,0,0,0,238.759,81.658Z" transform="translate(-238.759 -79.333)" fill="#f9f9f9"/>
        </g>
      </g>
    </g>
    <line id="Línea_475" data-name="Línea 475" y1="29.589" transform="translate(228.182 97.859)" fill="none" stroke="#1b3f5e" stroke-width="2"/>
    <line id="Línea_477" data-name="Línea 477" y1="29.589" transform="translate(80.908 127.467)" fill="none" stroke="#1b3f5e" stroke-width="2"/>
    <path id="Trazado_609447" data-name="Trazado 609447" d="M0,30.87V17" transform="translate(80.908 215.416)" fill="none" stroke="#1b3f5e" stroke-width="2"/>
    <line id="Línea_492" data-name="Línea 492" y1="12.994" transform="translate(358.249 234.986)" fill="none" stroke="#1b3f5e" stroke-width="2"/>
    <line id="Línea_483" data-name="Línea 483" x2="12.795" transform="translate(4.253 301.747)" fill="none" stroke="#1b3f5e" stroke-width="2"/>
    <line id="Línea_493" data-name="Línea 493" x1="14.105" transform="translate(419.276 301.747)" fill="none" stroke="#1b3f5e" stroke-width="2"/>
    <line id="Línea_484" data-name="Línea 484" x2="12.795" transform="translate(4.253 377.569)" fill="none" stroke="#1b3f5e" stroke-width="2"/>
    <line id="Línea_494" data-name="Línea 494" x1="14.105" transform="translate(419.276 377.569)" fill="none" stroke="#1b3f5e" stroke-width="2"/>
    <line id="Línea_482" data-name="Línea 482" y1="131.283" transform="translate(4.253 246.286)" fill="none" stroke="#1b3f5e" stroke-width="2"/>
    <line id="Línea_490" data-name="Línea 490" y1="130.377" transform="translate(433.381 247.624)" fill="none" stroke="#1b3f5e" stroke-width="2"/>
    <line id="Línea_481" data-name="Línea 481" x2="76.597" transform="translate(4.253 246.286)" fill="none" stroke="#1b3f5e" stroke-width="2"/>
    <line id="Línea_491" data-name="Línea 491" x1="75.132" transform="translate(358.249 248)" fill="none" stroke="#1b3f5e" stroke-width="2"/>
    <line id="Línea_479" data-name="Línea 479" y1="29.589" transform="translate(358.249 127.467)" fill="none" stroke="#1b3f5e" stroke-width="2"/>
    <line id="Línea_476" data-name="Línea 476" x2="277.398" transform="translate(80.851 127.448)" fill="none" stroke="#1b3f5e" stroke-width="2"/>
    <rect id="Rectángulo_347758" data-name="Rectángulo 347758" width="153.31" height="60.103" rx="21" transform="translate(4.253 165.821)" fill="#fde1f9"/>
    <rect id="Rectángulo_347760" data-name="Rectángulo 347760" width="161.588" height="60.103" rx="21" transform="translate(271.792 165.821)" fill="#fde1f9"/>
    <path id="Trazado_805042" data-name="Trazado 805042" d="M45.418,12.658V17H42.333V4.2h5.106a5.948,5.948,0,0,1,2.6.541,4.074,4.074,0,0,1,1.749,1.538,4.2,4.2,0,0,1,.62,2.263,3.7,3.7,0,0,1-1.34,2.993,5.561,5.561,0,0,1-3.678,1.121Zm0-2.382h2.021a1.906,1.906,0,0,0,1.367-.448,1.665,1.665,0,0,0,.47-1.266,2.059,2.059,0,0,0-.483-1.433,1.712,1.712,0,0,0-1.318-.545H45.418Zm14.247-.105-.976-.07a1.752,1.752,0,0,0-1.793.879V17H53.934V7.49h2.777l.1,1.222a2.294,2.294,0,0,1,2.083-1.4,2.888,2.888,0,0,1,.826.105ZM63.857,17H60.886V7.49h2.971ZM60.711,5.038A1.322,1.322,0,0,1,61.168,4a1.943,1.943,0,0,1,2.373,0A1.322,1.322,0,0,1,64,5.038a1.322,1.322,0,0,1-.457,1.037,1.943,1.943,0,0,1-2.373,0A1.322,1.322,0,0,1,60.711,5.038ZM68.48,7.49l.1,1.116a3.27,3.27,0,0,1,2.716-1.292,2.407,2.407,0,0,1,2.435,1.433,3.165,3.165,0,0,1,2.795-1.433q2.892,0,2.971,3.5V17H76.522V11a1.813,1.813,0,0,0-.246-1.063,1.048,1.048,0,0,0-.9-.334,1.4,1.4,0,0,0-1.31.782l.009.123V17H71.108V11.015a1.906,1.906,0,0,0-.237-1.081,1.045,1.045,0,0,0-.905-.334,1.42,1.42,0,0,0-1.3.782V17H65.7V7.49ZM86.542,17a3.344,3.344,0,0,1-.281-.853,2.754,2.754,0,0,1-2.285,1.028,3.374,3.374,0,0,1-2.285-.813,2.588,2.588,0,0,1-.94-2.043,2.66,2.66,0,0,1,1.143-2.338,5.821,5.821,0,0,1,3.322-.791h.914v-.5q0-1.316-1.134-1.316a.927.927,0,0,0-1.055,1.042H80.978a2.655,2.655,0,0,1,1.173-2.239,4.931,4.931,0,0,1,2.993-.86,4.323,4.323,0,0,1,2.874.888A3.086,3.086,0,0,1,89.1,10.637v4.21a4.311,4.311,0,0,0,.4,2V17Zm-1.854-1.934a1.652,1.652,0,0,0,.918-.237,1.487,1.487,0,0,0,.523-.536V12.772h-.861q-1.547,0-1.547,1.389a.848.848,0,0,0,.272.655A.986.986,0,0,0,84.687,15.066Zm11.8-4.9-.976-.07a1.752,1.752,0,0,0-1.793.879V17H90.76V7.49h2.777l.1,1.222a2.294,2.294,0,0,1,2.083-1.4,2.888,2.888,0,0,1,.826.105ZM100.683,17H97.713V7.49h2.971ZM97.537,5.038A1.322,1.322,0,0,1,97.994,4a1.943,1.943,0,0,1,2.373,0,1.322,1.322,0,0,1,.457,1.037,1.322,1.322,0,0,1-.457,1.037,1.943,1.943,0,0,1-2.373,0A1.322,1.322,0,0,1,97.537,5.038ZM107.864,17a3.344,3.344,0,0,1-.281-.853,2.754,2.754,0,0,1-2.285,1.028,3.374,3.374,0,0,1-2.285-.813,2.588,2.588,0,0,1-.94-2.043,2.66,2.66,0,0,1,1.143-2.338,5.821,5.821,0,0,1,3.322-.791h.914v-.5q0-1.316-1.134-1.316a.927.927,0,0,0-1.055,1.042H102.3a2.655,2.655,0,0,1,1.173-2.239,4.931,4.931,0,0,1,2.993-.86,4.323,4.323,0,0,1,2.874.888,3.086,3.086,0,0,1,1.081,2.435v4.21a4.311,4.311,0,0,0,.4,2V17Zm-1.854-1.934a1.652,1.652,0,0,0,.918-.237,1.487,1.487,0,0,0,.523-.536V12.772h-.861q-1.547,0-1.547,1.389a.848.848,0,0,0,.272.655A.986.986,0,0,0,106.009,15.066Zm11.03-.738a.684.684,0,0,0-.4-.606,6.016,6.016,0,0,0-1.5-.475,6.853,6.853,0,0,1-1.828-.646,3.062,3.062,0,0,1-1.1-.971,2.319,2.319,0,0,1-.378-1.31,2.628,2.628,0,0,1,1.081-2.158,4.453,4.453,0,0,1,2.83-.848,4.934,4.934,0,0,1,3.023.853,2.666,2.666,0,0,1,1.143,2.241h-2.971q0-1.143-1.2-1.143a1.194,1.194,0,0,0-.782.259.8.8,0,0,0-.316.646.737.737,0,0,0,.387.642,3.654,3.654,0,0,0,1.235.4,10.671,10.671,0,0,1,1.49.378A2.706,2.706,0,0,1,119.9,14.24a2.491,2.491,0,0,1-1.156,2.118,5.068,5.068,0,0,1-2.993.817,5.172,5.172,0,0,1-2.18-.439,3.645,3.645,0,0,1-1.494-1.2,2.707,2.707,0,0,1-.536-1.591h2.769a1.145,1.145,0,0,0,.439.962,1.808,1.808,0,0,0,1.081.3,1.422,1.422,0,0,0,.91-.246A.787.787,0,0,0,117.04,14.328Z" transform="translate(0 185.702)" fill="#12263f"/>
    <path id="Trazado_805043" data-name="Trazado 805043" d="M13.963,13.6a1.268,1.268,0,0,0-.479-1.055,5.954,5.954,0,0,0-1.683-.782,16.147,16.147,0,0,1-1.969-.782Q7.345,9.758,7.345,7.622a3.011,3.011,0,0,1,.62-1.876A4.008,4.008,0,0,1,9.718,4.48a6.823,6.823,0,0,1,2.549-.453,5.969,5.969,0,0,1,2.474.492,3.917,3.917,0,0,1,1.7,1.4A3.661,3.661,0,0,1,17.048,8H13.972a1.547,1.547,0,0,0-.479-1.213,1.867,1.867,0,0,0-1.3-.431,2.106,2.106,0,0,0-1.305.365,1.074,1.074,0,0,0,.048,1.819,6.65,6.65,0,0,0,1.854.826,11.36,11.36,0,0,1,2.18.918,3.663,3.663,0,0,1,2.074,3.3,3.125,3.125,0,0,1-1.266,2.637,5.629,5.629,0,0,1-3.472.958,6.888,6.888,0,0,1-2.817-.558,4.247,4.247,0,0,1-1.9-1.529,3.985,3.985,0,0,1-.637-2.237h3.094a1.963,1.963,0,0,0,.532,1.516,2.513,2.513,0,0,0,1.727.488,1.985,1.985,0,0,0,1.208-.33A1.088,1.088,0,0,0,13.963,13.6Zm9.132,3.577a4.889,4.889,0,0,1-3.542-1.305,4.507,4.507,0,0,1-1.354-3.4v-.246a5.84,5.84,0,0,1,.541-2.575,3.955,3.955,0,0,1,1.578-1.727,4.763,4.763,0,0,1,2.461-.611,4.117,4.117,0,0,1,3.164,1.244,4.887,4.887,0,0,1,1.16,3.467v1.151H21.214a2.135,2.135,0,0,0,.694,1.257,2.066,2.066,0,0,0,1.389.457,2.662,2.662,0,0,0,2.2-.984l1.354,1.6a3.784,3.784,0,0,1-1.569,1.217A5.3,5.3,0,0,1,23.095,17.176ZM22.761,9.6q-1.3,0-1.547,1.723H24.2v-.229a1.467,1.467,0,0,0-.36-1.1A1.434,1.434,0,0,0,22.761,9.6Zm9.554,5.291a1.317,1.317,0,0,0,.967-.338,1.241,1.241,0,0,0,.334-.945h2.777a3.288,3.288,0,0,1-1.121,2.566,4.168,4.168,0,0,1-2.887,1,4.22,4.22,0,0,1-3.27-1.3,5.125,5.125,0,0,1-1.2-3.6v-.123A5.792,5.792,0,0,1,28.452,9.6a3.872,3.872,0,0,1,1.534-1.7,4.573,4.573,0,0,1,2.373-.593A4.116,4.116,0,0,1,35.3,8.343a3.647,3.647,0,0,1,1.09,2.786H33.615A1.626,1.626,0,0,0,33.255,10a1.244,1.244,0,0,0-.967-.4q-1.151,0-1.345,1.468a10.357,10.357,0,0,0-.062,1.283,4.068,4.068,0,0,0,.343,1.986A1.187,1.187,0,0,0,32.314,14.891Zm11,1.081a3.054,3.054,0,0,1-2.54,1.2,3,3,0,0,1-2.369-.91,3.826,3.826,0,0,1-.8-2.615V7.49h2.962v6.179a1.065,1.065,0,0,0,1.187,1.222,1.548,1.548,0,0,0,1.45-.729V7.49h2.979V17H43.4ZM50.517,7.49l.1,1.116a3.225,3.225,0,0,1,2.716-1.292,2.713,2.713,0,0,1,2.219.888,4.226,4.226,0,0,1,.76,2.672V17H53.338V11a1.6,1.6,0,0,0-.29-1.059A1.342,1.342,0,0,0,51.993,9.6a1.413,1.413,0,0,0-1.292.686V17H47.739V7.49Zm7.058,4.685a5.809,5.809,0,0,1,.976-3.56,3.211,3.211,0,0,1,2.725-1.3,2.731,2.731,0,0,1,2.145,1V3.5H66.39V17H63.727l-.149-1.02a2.8,2.8,0,0,1-2.32,1.2,3.205,3.205,0,0,1-2.689-1.3A5.993,5.993,0,0,1,57.574,12.175Zm2.962.185q0,2.531,1.477,2.531a1.458,1.458,0,0,0,1.406-.826V10.443A1.419,1.419,0,0,0,62.03,9.6q-1.371,0-1.485,2.215ZM73.43,17a3.344,3.344,0,0,1-.281-.853,2.754,2.754,0,0,1-2.285,1.028,3.374,3.374,0,0,1-2.285-.813,2.588,2.588,0,0,1-.94-2.043,2.66,2.66,0,0,1,1.143-2.338A5.821,5.821,0,0,1,72.1,11.19h.914v-.5q0-1.316-1.134-1.316a.927.927,0,0,0-1.055,1.042H67.866A2.655,2.655,0,0,1,69.04,8.175a4.931,4.931,0,0,1,2.993-.86,4.323,4.323,0,0,1,2.874.888,3.086,3.086,0,0,1,1.081,2.435v4.21a4.311,4.311,0,0,0,.4,2V17Zm-1.854-1.934a1.652,1.652,0,0,0,.918-.237,1.487,1.487,0,0,0,.523-.536V12.772h-.861q-1.547,0-1.547,1.389a.848.848,0,0,0,.272.655A.986.986,0,0,0,71.575,15.066Zm11.8-4.9L82.4,10.1a1.752,1.752,0,0,0-1.793.879V17H77.648V7.49h2.777l.1,1.222a2.294,2.294,0,0,1,2.083-1.4,2.888,2.888,0,0,1,.826.105ZM87.571,17H84.6V7.49h2.971ZM84.425,5.038A1.322,1.322,0,0,1,84.882,4a1.943,1.943,0,0,1,2.373,0,1.322,1.322,0,0,1,.457,1.037,1.322,1.322,0,0,1-.457,1.037,1.943,1.943,0,0,1-2.373,0A1.322,1.322,0,0,1,84.425,5.038ZM94.752,17a3.344,3.344,0,0,1-.281-.853,2.754,2.754,0,0,1-2.285,1.028,3.374,3.374,0,0,1-2.285-.813,2.588,2.588,0,0,1-.94-2.043A2.66,2.66,0,0,1,90.1,11.981a5.821,5.821,0,0,1,3.322-.791h.914v-.5q0-1.316-1.134-1.316a.927.927,0,0,0-1.055,1.042H89.188a2.655,2.655,0,0,1,1.173-2.239,4.931,4.931,0,0,1,2.993-.86,4.323,4.323,0,0,1,2.874.888,3.086,3.086,0,0,1,1.081,2.435v4.21a4.311,4.311,0,0,0,.4,2V17ZM92.9,15.066a1.652,1.652,0,0,0,.918-.237,1.487,1.487,0,0,0,.523-.536V12.772h-.861q-1.547,0-1.547,1.389a.848.848,0,0,0,.272.655A.986.986,0,0,0,92.9,15.066Zm11.03-.738a.684.684,0,0,0-.4-.606,6.016,6.016,0,0,0-1.5-.475A6.853,6.853,0,0,1,100.2,12.6a3.062,3.062,0,0,1-1.1-.971,2.319,2.319,0,0,1-.378-1.31,2.628,2.628,0,0,1,1.081-2.158,4.453,4.453,0,0,1,2.83-.848,4.934,4.934,0,0,1,3.023.853,2.666,2.666,0,0,1,1.143,2.241h-2.971q0-1.143-1.2-1.143a1.194,1.194,0,0,0-.782.259.8.8,0,0,0-.316.646.737.737,0,0,0,.387.642,3.654,3.654,0,0,0,1.235.4,10.671,10.671,0,0,1,1.49.378,2.706,2.706,0,0,1,2.145,2.646,2.491,2.491,0,0,1-1.156,2.118,5.068,5.068,0,0,1-2.993.817,5.172,5.172,0,0,1-2.18-.439,3.645,3.645,0,0,1-1.494-1.2,2.707,2.707,0,0,1-.536-1.591h2.769a1.145,1.145,0,0,0,.439.962,1.808,1.808,0,0,0,1.081.3,1.422,1.422,0,0,0,.91-.246A.787.787,0,0,0,103.928,14.328Z" transform="translate(301.382 185.702)" fill="#12263f"/>
    <g id="Rectángulo_347464" data-name="Rectángulo 347464" transform="translate(157.563 270.771) rotate(90)" fill="none" stroke="#1b3f5e" stroke-width="2" opacity="0.7">
      <rect width="61.952" height="135.311" rx="14" stroke="none"/>
      <rect x="1" y="1" width="59.952" height="133.311" rx="13" fill="none"/>
    </g>
    <g id="Rectángulo_347764" data-name="Rectángulo 347764" transform="translate(415.115 270.771) rotate(90)" fill="none" stroke="#1b3f5e" stroke-width="2" opacity="0.7">
      <rect width="61.952" height="179.255" rx="14" stroke="none"/>
      <rect x="1" y="1" width="59.952" height="177.255" rx="13" fill="none"/>
    </g>
    <g id="Rectángulo_347761" data-name="Rectángulo 347761" transform="translate(199.81 346.593) rotate(90)" fill="none" stroke="#1b3f5e" stroke-width="2" opacity="0.7">
      <rect width="61.952" height="177.558" rx="14" stroke="none"/>
      <rect x="1" y="1" width="59.952" height="175.558" rx="13" fill="none"/>
    </g>
    <g id="Rectángulo_347765" data-name="Rectángulo 347765" transform="translate(415.115 346.593) rotate(90)" fill="none" stroke="#1b3f5e" stroke-width="2" opacity="0.7">
      <rect width="61.952" height="179.255" rx="14" stroke="none"/>
      <rect x="1" y="1" width="59.952" height="177.255" rx="13" fill="none"/>
    </g>
    <path id="Trazado_805045" data-name="Trazado 805045" d="M25.307,14.882h5.6V17H22.67V4.2h2.637ZM34.931,17H32.382V7.49h2.549Zm-2.7-11.971a1.251,1.251,0,0,1,.382-.94,1.648,1.648,0,0,1,2.079,0,1.244,1.244,0,0,1,.387.94,1.247,1.247,0,0,1-.391.949,1.629,1.629,0,0,1-2.065,0A1.247,1.247,0,0,1,32.233,5.029Zm13.359,7.3a5.758,5.758,0,0,1-.976,3.564,3.231,3.231,0,0,1-2.725,1.279,2.969,2.969,0,0,1-2.47-1.187L39.308,17H37.023V3.5h2.54V8.343a2.893,2.893,0,0,1,2.312-1.028A3.258,3.258,0,0,1,44.6,8.593a5.767,5.767,0,0,1,.989,3.6Zm-2.54-.185a3.783,3.783,0,0,0-.457-2.1,1.545,1.545,0,0,0-1.362-.664,1.676,1.676,0,0,0-1.67.993v3.753a1.7,1.7,0,0,0,1.688,1,1.568,1.568,0,0,0,1.617-1.213A6.257,6.257,0,0,0,43.052,12.148ZM52.5,9.872a6.9,6.9,0,0,0-.914-.07,1.86,1.86,0,0,0-1.89.976V17h-2.54V7.49h2.4l.07,1.134a2.354,2.354,0,0,1,2.118-1.31,2.662,2.662,0,0,1,.791.114Zm.51,2.285a5.64,5.64,0,0,1,.545-2.522,3.989,3.989,0,0,1,1.569-1.714A4.577,4.577,0,0,1,57.5,7.314a4.33,4.33,0,0,1,3.142,1.178A4.727,4.727,0,0,1,62,11.691l.018.65A4.97,4.97,0,0,1,60.8,15.853a4.735,4.735,0,0,1-6.561,0,5.058,5.058,0,0,1-1.226-3.586Zm2.54.18a3.555,3.555,0,0,0,.51,2.073,1.831,1.831,0,0,0,2.9.009,3.89,3.89,0,0,0,.519-2.267,3.519,3.519,0,0,0-.519-2.06A1.686,1.686,0,0,0,57.5,9.362a1.658,1.658,0,0,0-1.441.726A3.955,3.955,0,0,0,55.55,12.338Zm13.184,2.035a.818.818,0,0,0-.461-.734,5.241,5.241,0,0,0-1.481-.479Q63.4,12.447,63.4,10.276a2.613,2.613,0,0,1,1.05-2.114A4.237,4.237,0,0,1,67.2,7.314a4.56,4.56,0,0,1,2.9.853,2.687,2.687,0,0,1,1.085,2.215h-2.54a1.229,1.229,0,0,0-.352-.9,1.488,1.488,0,0,0-1.1-.356,1.52,1.52,0,0,0-.993.29.916.916,0,0,0-.352.738.783.783,0,0,0,.4.681,4.114,4.114,0,0,0,1.349.448,11.019,11.019,0,0,1,1.6.426A2.628,2.628,0,0,1,71.2,14.267a2.481,2.481,0,0,1-1.116,2.1,4.815,4.815,0,0,1-2.883.8,5.029,5.029,0,0,1-2.123-.426,3.561,3.561,0,0,1-1.455-1.169,2.716,2.716,0,0,1-.527-1.6h2.408a1.326,1.326,0,0,0,.5,1.037,1.987,1.987,0,0,0,1.248.36,1.839,1.839,0,0,0,1.1-.277A.861.861,0,0,0,68.734,14.372Z" transform="translate(17.938 290.188)" fill="#12263f"/>
    <path id="Trazado_805044" data-name="Trazado 805044" d="M16.21,12.315h-2.1V17H11.473V4.2h4.755a5.375,5.375,0,0,1,3.5,1.011,3.488,3.488,0,0,1,1.23,2.856,3.937,3.937,0,0,1-.567,2.184,3.866,3.866,0,0,1-1.718,1.393l2.769,5.229V17H18.61Zm-2.1-2.136h2.127a2.178,2.178,0,0,0,1.538-.505,1.806,1.806,0,0,0,.545-1.393,1.933,1.933,0,0,0-.514-1.424,2.137,2.137,0,0,0-1.578-.519H14.11Zm13.061,7a4.668,4.668,0,0,1-3.406-1.283,4.561,4.561,0,0,1-1.314-3.419v-.246A5.745,5.745,0,0,1,23,9.666a4.064,4.064,0,0,1,1.569-1.74,4.4,4.4,0,0,1,2.316-.611,3.947,3.947,0,0,1,3.072,1.23,5,5,0,0,1,1.121,3.489v1.037H25.026a2.36,2.36,0,0,0,.743,1.494,2.245,2.245,0,0,0,1.569.563,2.742,2.742,0,0,0,2.294-1.063l1.248,1.4a3.813,3.813,0,0,1-1.547,1.261A5.075,5.075,0,0,1,27.17,17.176Zm-.29-7.813a1.587,1.587,0,0,0-1.226.512,2.651,2.651,0,0,0-.6,1.466h3.533v-.2a1.891,1.891,0,0,0-.457-1.311A1.638,1.638,0,0,0,26.88,9.362Zm10.793,5.01a.818.818,0,0,0-.461-.734,5.241,5.241,0,0,0-1.481-.479q-3.393-.712-3.393-2.883a2.613,2.613,0,0,1,1.05-2.114,4.237,4.237,0,0,1,2.747-.848,4.56,4.56,0,0,1,2.9.853,2.687,2.687,0,0,1,1.085,2.215h-2.54a1.229,1.229,0,0,0-.352-.9,1.488,1.488,0,0,0-1.1-.356,1.52,1.52,0,0,0-.993.29.916.916,0,0,0-.352.738.783.783,0,0,0,.4.681,4.114,4.114,0,0,0,1.349.448,11.019,11.019,0,0,1,1.6.426,2.628,2.628,0,0,1,2.013,2.558,2.481,2.481,0,0,1-1.116,2.1,4.815,4.815,0,0,1-2.883.8,5.029,5.029,0,0,1-2.123-.426,3.561,3.561,0,0,1-1.455-1.169,2.716,2.716,0,0,1-.527-1.6h2.408a1.326,1.326,0,0,0,.5,1.037,1.987,1.987,0,0,0,1.248.36,1.839,1.839,0,0,0,1.1-.277A.861.861,0,0,0,37.673,14.372Zm9.8,1.661a3.185,3.185,0,0,1-2.6,1.143,3,3,0,0,1-2.333-.879,3.752,3.752,0,0,1-.822-2.575V7.49h2.54v6.151q0,1.487,1.354,1.487a1.834,1.834,0,0,0,1.775-.9V7.49h2.549V17H47.543ZM46.339,3.5h2.769L46.673,6.225H44.608Zm7.893,3.99.079,1.063a3.342,3.342,0,0,1,2.733-1.239,2.536,2.536,0,0,1,2.522,1.45,3.265,3.265,0,0,1,2.856-1.45,2.836,2.836,0,0,1,2.3.9,4.141,4.141,0,0,1,.756,2.711V17H62.933V10.936a1.811,1.811,0,0,0-.316-1.182A1.4,1.4,0,0,0,61.5,9.38a1.585,1.585,0,0,0-1.582,1.09L59.927,17h-2.54V10.944a1.789,1.789,0,0,0-.325-1.2,1.416,1.416,0,0,0-1.107-.369,1.646,1.646,0,0,0-1.564.9V17H51.85V7.49ZM71.81,17.176A4.668,4.668,0,0,1,68.4,15.893a4.561,4.561,0,0,1-1.314-3.419v-.246a5.745,5.745,0,0,1,.554-2.562,4.064,4.064,0,0,1,1.569-1.74,4.4,4.4,0,0,1,2.316-.611A3.947,3.947,0,0,1,74.6,8.545a5,5,0,0,1,1.121,3.489v1.037H69.665a2.36,2.36,0,0,0,.743,1.494,2.245,2.245,0,0,0,1.569.563,2.742,2.742,0,0,0,2.294-1.063l1.248,1.4a3.813,3.813,0,0,1-1.547,1.261A5.075,5.075,0,0,1,71.81,17.176Zm-.29-7.813a1.587,1.587,0,0,0-1.226.512,2.651,2.651,0,0,0-.6,1.466h3.533v-.2a1.891,1.891,0,0,0-.457-1.311A1.638,1.638,0,0,0,71.52,9.362ZM79.5,7.49l.079,1.1a3.32,3.32,0,0,1,2.733-1.274,2.759,2.759,0,0,1,2.25.888,4.142,4.142,0,0,1,.756,2.654V17h-2.54V10.918a1.648,1.648,0,0,0-.352-1.173,1.574,1.574,0,0,0-1.169-.365,1.747,1.747,0,0,0-1.608.914V17H77.11V7.49Zm12.12,9.686a4.668,4.668,0,0,1-3.406-1.283A4.561,4.561,0,0,1,86.9,12.474v-.246a5.745,5.745,0,0,1,.554-2.562,4.064,4.064,0,0,1,1.569-1.74,4.4,4.4,0,0,1,2.316-.611,3.947,3.947,0,0,1,3.072,1.23,5,5,0,0,1,1.121,3.489v1.037H89.476a2.36,2.36,0,0,0,.743,1.494,2.245,2.245,0,0,0,1.569.563,2.742,2.742,0,0,0,2.294-1.063l1.248,1.4a3.813,3.813,0,0,1-1.547,1.261A5.075,5.075,0,0,1,91.62,17.176Zm-.29-7.813a1.587,1.587,0,0,0-1.226.512,2.651,2.651,0,0,0-.6,1.466h3.533v-.2a1.891,1.891,0,0,0-.457-1.311A1.638,1.638,0,0,0,91.33,9.362Zm10.793,5.01a.818.818,0,0,0-.461-.734,5.241,5.241,0,0,0-1.481-.479q-3.393-.712-3.393-2.883a2.613,2.613,0,0,1,1.05-2.114,4.237,4.237,0,0,1,2.747-.848,4.56,4.56,0,0,1,2.9.853,2.687,2.687,0,0,1,1.085,2.215h-2.54a1.229,1.229,0,0,0-.352-.9,1.488,1.488,0,0,0-1.1-.356,1.52,1.52,0,0,0-.993.29.916.916,0,0,0-.352.738.783.783,0,0,0,.4.681,4.114,4.114,0,0,0,1.349.448,11.019,11.019,0,0,1,1.6.426,2.628,2.628,0,0,1,2.013,2.558,2.481,2.481,0,0,1-1.116,2.1,4.815,4.815,0,0,1-2.883.8,5.029,5.029,0,0,1-2.123-.426,3.561,3.561,0,0,1-1.455-1.169,2.716,2.716,0,0,1-.527-1.6H98.9a1.326,1.326,0,0,0,.5,1.037,1.987,1.987,0,0,0,1.248.36,1.839,1.839,0,0,0,1.1-.277A.861.861,0,0,0,102.123,14.372Z" transform="translate(255.148 290.188)" fill="#12263f"/>
    <path id="Trazado_805046" data-name="Trazado 805046" d="M23.225,11.771H18.162V17H15.526V4.2h8.332V6.339h-5.7v3.3h5.063Zm1.415.387a5.64,5.64,0,0,1,.545-2.522,3.989,3.989,0,0,1,1.569-1.714,4.577,4.577,0,0,1,2.377-.606,4.33,4.33,0,0,1,3.142,1.178,4.727,4.727,0,0,1,1.358,3.2l.018.65a4.97,4.97,0,0,1-1.222,3.511,4.247,4.247,0,0,1-3.278,1.323,4.268,4.268,0,0,1-3.283-1.318,5.058,5.058,0,0,1-1.226-3.586Zm2.54.18a3.555,3.555,0,0,0,.51,2.073,1.831,1.831,0,0,0,2.9.009,3.89,3.89,0,0,0,.519-2.267,3.519,3.519,0,0,0-.519-2.06,1.686,1.686,0,0,0-1.459-.731,1.658,1.658,0,0,0-1.441.726A3.955,3.955,0,0,0,27.18,12.338ZM38.254,5.152V7.49H39.88V9.354H38.254V14.1a1.133,1.133,0,0,0,.2.756,1.015,1.015,0,0,0,.773.229,4.051,4.051,0,0,0,.747-.062v1.925a5.229,5.229,0,0,1-1.538.229,2.425,2.425,0,0,1-2.725-2.7V9.354H34.326V7.49h1.389V5.152Zm2.382,7a5.64,5.64,0,0,1,.545-2.522A3.989,3.989,0,0,1,42.75,7.921a4.577,4.577,0,0,1,2.377-.606,4.33,4.33,0,0,1,3.142,1.178,4.727,4.727,0,0,1,1.358,3.2l.018.65a4.97,4.97,0,0,1-1.222,3.511,4.735,4.735,0,0,1-6.561,0,5.058,5.058,0,0,1-1.226-3.586Zm2.54.18a3.555,3.555,0,0,0,.51,2.073,1.831,1.831,0,0,0,2.9.009,3.89,3.89,0,0,0,.519-2.267,3.519,3.519,0,0,0-.519-2.06,1.686,1.686,0,0,0-1.459-.731,1.658,1.658,0,0,0-1.441.726A3.955,3.955,0,0,0,43.176,12.338Zm7.664-.163A5.573,5.573,0,0,1,51.882,8.65,3.375,3.375,0,0,1,54.69,7.314a2.96,2.96,0,0,1,2.435,1.072l.105-.9h2.3v9.193a4.064,4.064,0,0,1-.567,2.171,3.641,3.641,0,0,1-1.6,1.406,5.608,5.608,0,0,1-2.408.483,5.215,5.215,0,0,1-2.039-.417,3.619,3.619,0,0,1-1.5-1.077L52.545,17.7a2.975,2.975,0,0,0,2.3,1.063,2.178,2.178,0,0,0,1.573-.541,2.027,2.027,0,0,0,.563-1.534v-.51a2.938,2.938,0,0,1-2.312.993,3.366,3.366,0,0,1-2.773-1.34A5.572,5.572,0,0,1,50.84,12.28Zm2.54.189a3.47,3.47,0,0,0,.519,2.029,1.65,1.65,0,0,0,1.424.735,1.764,1.764,0,0,0,1.661-.871V10.251A1.76,1.76,0,0,0,55.34,9.38a1.66,1.66,0,0,0-1.437.748A3.911,3.911,0,0,0,53.38,12.364ZM66.828,9.872a6.9,6.9,0,0,0-.914-.07,1.86,1.86,0,0,0-1.89.976V17h-2.54V7.49h2.4l.07,1.134a2.354,2.354,0,0,1,2.118-1.31,2.662,2.662,0,0,1,.791.114ZM73.3,17a2.821,2.821,0,0,1-.255-.853,3.073,3.073,0,0,1-2.4,1.028,3.376,3.376,0,0,1-2.316-.809,2.6,2.6,0,0,1-.918-2.039,2.687,2.687,0,0,1,1.121-2.32,5.529,5.529,0,0,1,3.239-.817h1.169v-.545A1.567,1.567,0,0,0,72.6,9.591a1.331,1.331,0,0,0-1.068-.4,1.513,1.513,0,0,0-1.006.308,1.045,1.045,0,0,0-.365.844h-2.54a2.551,2.551,0,0,1,.51-1.529,3.37,3.37,0,0,1,1.441-1.1,5.253,5.253,0,0,1,2.092-.4,4.15,4.15,0,0,1,2.791.883,3.09,3.09,0,0,1,1.033,2.483V14.8a4.546,4.546,0,0,0,.378,2.048V17Zm-2.1-1.767a2.188,2.188,0,0,0,1.037-.25,1.645,1.645,0,0,0,.7-.672V12.676h-.949q-1.907,0-2.03,1.318l-.009.149a1.017,1.017,0,0,0,.334.782A1.3,1.3,0,0,0,71.2,15.233ZM78.13,17V9.354H76.715V7.49H78.13V6.682A3.283,3.283,0,0,1,79.049,4.2a3.557,3.557,0,0,1,2.571-.883,5.938,5.938,0,0,1,1.292.176L82.885,5.46a3.238,3.238,0,0,0-.773-.079q-1.433,0-1.433,1.345V7.49h1.89V9.354h-1.89V17Zm8.5,0h-2.54V7.49h2.54ZM85.882,3.632h2.769L86.216,6.356H84.151ZM94.329,17a2.821,2.821,0,0,1-.255-.853,3.073,3.073,0,0,1-2.4,1.028,3.376,3.376,0,0,1-2.316-.809,2.6,2.6,0,0,1-.918-2.039,2.687,2.687,0,0,1,1.121-2.32A5.529,5.529,0,0,1,92.8,11.19h1.169v-.545a1.567,1.567,0,0,0-.338-1.055,1.331,1.331,0,0,0-1.068-.4,1.513,1.513,0,0,0-1.006.308,1.045,1.045,0,0,0-.365.844h-2.54a2.551,2.551,0,0,1,.51-1.529,3.37,3.37,0,0,1,1.441-1.1,5.253,5.253,0,0,1,2.092-.4,4.15,4.15,0,0,1,2.791.883,3.09,3.09,0,0,1,1.033,2.483V14.8a4.546,4.546,0,0,0,.378,2.048V17Zm-2.1-1.767a2.188,2.188,0,0,0,1.037-.25,1.645,1.645,0,0,0,.7-.672V12.676h-.949q-1.907,0-2.03,1.318l-.009.149a1.017,1.017,0,0,0,.334.782A1.3,1.3,0,0,0,92.228,15.233Zm11.391-.861a.818.818,0,0,0-.461-.734,5.241,5.241,0,0,0-1.481-.479q-3.393-.712-3.393-2.883a2.613,2.613,0,0,1,1.05-2.114,4.237,4.237,0,0,1,2.747-.848,4.56,4.56,0,0,1,2.9.853,2.687,2.687,0,0,1,1.085,2.215h-2.54a1.229,1.229,0,0,0-.352-.9,1.488,1.488,0,0,0-1.1-.356,1.52,1.52,0,0,0-.993.29.916.916,0,0,0-.352.738.783.783,0,0,0,.4.681,4.114,4.114,0,0,0,1.349.448,11.019,11.019,0,0,1,1.6.426,2.628,2.628,0,0,1,2.013,2.558,2.481,2.481,0,0,1-1.116,2.1,4.815,4.815,0,0,1-2.883.8,5.029,5.029,0,0,1-2.123-.426,3.561,3.561,0,0,1-1.455-1.169,2.716,2.716,0,0,1-.527-1.6h2.408a1.326,1.326,0,0,0,.5,1.037,1.987,1.987,0,0,0,1.248.36,1.839,1.839,0,0,0,1.1-.277A.861.861,0,0,0,103.619,14.372Z" transform="translate(22.251 366.011)" fill="#12263f"/>
    <path id="Trazado_805047" data-name="Trazado 805047" d="M16.58,6.339h-3.92V17H10.024V6.339H6.157V4.2H16.58Zm6.108,3.533a6.9,6.9,0,0,0-.914-.07,1.86,1.86,0,0,0-1.89.976V17h-2.54V7.49h2.4l.07,1.134a2.354,2.354,0,0,1,2.118-1.31,2.662,2.662,0,0,1,.791.114ZM29.158,17a2.821,2.821,0,0,1-.255-.853,3.073,3.073,0,0,1-2.4,1.028,3.376,3.376,0,0,1-2.316-.809,2.6,2.6,0,0,1-.918-2.039,2.687,2.687,0,0,1,1.121-2.32,5.529,5.529,0,0,1,3.239-.817H28.8v-.545a1.567,1.567,0,0,0-.338-1.055,1.331,1.331,0,0,0-1.068-.4,1.513,1.513,0,0,0-1.006.308,1.045,1.045,0,0,0-.365.844H23.48a2.551,2.551,0,0,1,.51-1.529,3.37,3.37,0,0,1,1.441-1.1,5.253,5.253,0,0,1,2.092-.4,4.15,4.15,0,0,1,2.791.883,3.09,3.09,0,0,1,1.033,2.483V14.8a4.546,4.546,0,0,0,.378,2.048V17Zm-2.1-1.767a2.188,2.188,0,0,0,1.037-.25,1.645,1.645,0,0,0,.7-.672V12.676h-.949q-1.907,0-2.03,1.318l-.009.149a1.017,1.017,0,0,0,.334.782A1.3,1.3,0,0,0,27.057,15.233ZM32.9,12.175a5.731,5.731,0,0,1,1-3.542,3.237,3.237,0,0,1,2.729-1.318,2.913,2.913,0,0,1,2.294,1.037V3.5h2.549V17H39.177l-.123-1.011a2.989,2.989,0,0,1-2.443,1.187,3.228,3.228,0,0,1-2.694-1.323A5.916,5.916,0,0,1,32.9,12.175Zm2.54.189a3.754,3.754,0,0,0,.466,2.051,1.517,1.517,0,0,0,1.354.713,1.7,1.7,0,0,0,1.661-.995V10.375a1.675,1.675,0,0,0-1.644-.995Q35.442,9.38,35.442,12.364Zm13.693,3.669a3.185,3.185,0,0,1-2.6,1.143A3,3,0,0,1,44.2,16.3a3.752,3.752,0,0,1-.822-2.575V7.49h2.54v6.151q0,1.487,1.354,1.487a1.834,1.834,0,0,0,1.775-.9V7.49H51.6V17H49.205Zm8.332-.905a1.666,1.666,0,0,0,1.143-.387,1.355,1.355,0,0,0,.457-1.028h2.382a3.258,3.258,0,0,1-.527,1.771A3.48,3.48,0,0,1,59.5,16.732a4.442,4.442,0,0,1-1.991.444,4.129,4.129,0,0,1-3.217-1.3A5.13,5.13,0,0,1,53.117,12.3v-.167a5.071,5.071,0,0,1,1.169-3.507,4.08,4.08,0,0,1,3.208-1.31A4,4,0,0,1,60.354,8.33a3.594,3.594,0,0,1,1.094,2.7H59.067a1.745,1.745,0,0,0-.457-1.206,1.7,1.7,0,0,0-2.5.183,3.749,3.749,0,0,0-.453,2.1v.264a3.8,3.8,0,0,0,.448,2.113A1.549,1.549,0,0,0,57.467,15.128Zm9.387,0A1.666,1.666,0,0,0,68,14.741a1.355,1.355,0,0,0,.457-1.028h2.382a3.258,3.258,0,0,1-.527,1.771,3.48,3.48,0,0,1-1.419,1.248,4.442,4.442,0,0,1-1.991.444,4.129,4.129,0,0,1-3.217-1.3A5.13,5.13,0,0,1,62.5,12.3v-.167a5.071,5.071,0,0,1,1.169-3.507,4.08,4.08,0,0,1,3.208-1.31A4,4,0,0,1,69.741,8.33a3.594,3.594,0,0,1,1.094,2.7H68.454A1.745,1.745,0,0,0,68,9.826a1.7,1.7,0,0,0-2.5.183,3.749,3.749,0,0,0-.453,2.1v.264a3.8,3.8,0,0,0,.448,2.113A1.549,1.549,0,0,0,66.854,15.128ZM74.966,17H72.417V7.49h2.549Zm-2.7-11.971a1.251,1.251,0,0,1,.382-.94,1.648,1.648,0,0,1,2.079,0,1.244,1.244,0,0,1,.387.94,1.247,1.247,0,0,1-.391.949,1.629,1.629,0,0,1-2.065,0A1.247,1.247,0,0,1,72.268,5.029Zm4.395,7.128a5.64,5.64,0,0,1,.545-2.522,3.989,3.989,0,0,1,1.569-1.714,4.577,4.577,0,0,1,2.377-.606A4.33,4.33,0,0,1,84.3,8.492a4.727,4.727,0,0,1,1.358,3.2l.018.65a4.97,4.97,0,0,1-1.222,3.511,4.735,4.735,0,0,1-6.561,0,5.058,5.058,0,0,1-1.226-3.586Zm2.54.18a3.555,3.555,0,0,0,.51,2.073,1.831,1.831,0,0,0,2.9.009,3.89,3.89,0,0,0,.519-2.267,3.519,3.519,0,0,0-.519-2.06,1.686,1.686,0,0,0-1.459-.731,1.658,1.658,0,0,0-1.441.726A3.955,3.955,0,0,0,79.2,12.338ZM89.574,7.49l.079,1.1a3.32,3.32,0,0,1,2.733-1.274,2.759,2.759,0,0,1,2.25.888,4.142,4.142,0,0,1,.756,2.654V17h-2.54V10.918A1.648,1.648,0,0,0,92.5,9.745a1.574,1.574,0,0,0-1.169-.365,1.747,1.747,0,0,0-1.608.914V17h-2.54V7.49Zm12.12,9.686a4.668,4.668,0,0,1-3.406-1.283,4.561,4.561,0,0,1-1.314-3.419v-.246a5.745,5.745,0,0,1,.554-2.562A4.064,4.064,0,0,1,99.1,7.925a4.4,4.4,0,0,1,2.316-.611,3.947,3.947,0,0,1,3.072,1.23,5,5,0,0,1,1.121,3.489v1.037H99.549a2.36,2.36,0,0,0,.743,1.494,2.245,2.245,0,0,0,1.569.563,2.742,2.742,0,0,0,2.294-1.063l1.248,1.4a3.813,3.813,0,0,1-1.547,1.261A5.075,5.075,0,0,1,101.694,17.176Zm-.29-7.813a1.587,1.587,0,0,0-1.226.512,2.651,2.651,0,0,0-.6,1.466h3.533v-.2a1.891,1.891,0,0,0-.457-1.311A1.638,1.638,0,0,0,101.4,9.362Zm10.793,5.01a.818.818,0,0,0-.461-.734,5.241,5.241,0,0,0-1.481-.479q-3.393-.712-3.393-2.883a2.613,2.613,0,0,1,1.05-2.114,4.237,4.237,0,0,1,2.747-.848,4.56,4.56,0,0,1,2.9.853,2.687,2.687,0,0,1,1.085,2.215H112.1a1.229,1.229,0,0,0-.352-.9,1.488,1.488,0,0,0-1.1-.356,1.52,1.52,0,0,0-.993.29.916.916,0,0,0-.352.738.783.783,0,0,0,.4.681,4.114,4.114,0,0,0,1.349.448,11.019,11.019,0,0,1,1.6.426,2.628,2.628,0,0,1,2.013,2.558,2.481,2.481,0,0,1-1.116,2.1,4.815,4.815,0,0,1-2.883.8,5.029,5.029,0,0,1-2.123-.426,3.561,3.561,0,0,1-1.455-1.169,2.716,2.716,0,0,1-.527-1.6h2.408a1.326,1.326,0,0,0,.5,1.037,1.987,1.987,0,0,0,1.248.36,1.839,1.839,0,0,0,1.1-.277A.861.861,0,0,0,112.2,14.372Z" transform="translate(239.919 366.011)" fill="#12263f"/>
    <g id="Page-1" transform="translate(100.512 284.61)">
      <g id="_041---Books" data-name="041---Books">
        <path id="Shape" d="M32.115,13v7.434H6.165A3.476,3.476,0,0,1,3,16.717,3.476,3.476,0,0,1,6.165,13Z" transform="translate(-1.142 -4.947)" fill="#f5efca"/>
        <path id="Shape-2" data-name="Shape" d="M32.212,19.911a1.243,1.243,0,0,1-1.239,1.239H5.575a5.575,5.575,0,1,1,0-11.15h25.4a1.239,1.239,0,1,1,0,2.478H5.575a3.1,3.1,0,1,0,0,6.195h25.4A1.243,1.243,0,0,1,32.212,19.911Z" transform="translate(0 -3.805)" fill="#f29c1f"/>
        <rect id="Rectangle-path" width="33.288" height="8.322" rx="2" transform="translate(2.774 17.569)" fill="#7d6599"/>
        <rect id="Rectangle-path-2" data-name="Rectangle-path" width="33.288" height="9.247" rx="2" transform="translate(0 25.891)" fill="#e64c3c"/>
        <rect id="Rectangle-path-3" data-name="Rectangle-path" width="33.288" height="6.473" rx="2" fill="#3b97d3"/>
        <path id="Rectangle-path-4" data-name="Rectangle-path" d="M8,0h2.478V6.195H8Z" transform="translate(-3.044)" fill="#67b9cc"/>
        <path id="Rectangle-path-5" data-name="Rectangle-path" d="M42,0h2.478V6.195H42Z" transform="translate(-15.983)" fill="#67b9cc"/>
        <rect id="Rectangle-path-6" data-name="Rectangle-path" width="14.795" height="3.699" rx="1" transform="translate(12.021 19.418)" fill="#9fc9d3"/>
        <path id="Rectangle-path-7" data-name="Rectangle-path" d="M48,28h1.239v8.672H48Z" transform="translate(-18.266 -10.655)" fill="#b49aca"/>
        <path id="Rectangle-path-8" data-name="Rectangle-path" d="M12,28h1.239v8.672H12Z" transform="translate(-4.566 -10.655)" fill="#b49aca"/>
        <ellipse id="Oval" cx="5.548" cy="1.849" rx="5.548" ry="1.849" transform="translate(11.096 28.665)" fill="#f5efca"/>
        <g id="Grupo_1015410" data-name="Grupo 1015410" transform="translate(3.717 26.017)">
          <path id="Rectangle-path-9" data-name="Rectangle-path" d="M6,42H8.478v8.672H6Z" transform="translate(-6 -42)" fill="#f29c1f"/>
          <path id="Rectangle-path-10" data-name="Rectangle-path" d="M44,42h2.478v8.672H44Z" transform="translate(-20.461 -42)" fill="#f29c1f"/>
        </g>
      </g>
    </g>
    <g id="camara_1_" data-name="camara (1)" transform="translate(136.468 358.747)">
      <path id="Trazado_609413" data-name="Trazado 609413" d="M46.2,69.135V63.106a.924.924,0,0,0-.924-.924H42.2a.924.924,0,0,0-.924.924v6.028" transform="translate(-37.873 -60.718)" fill="#e5e9ea"/>
      <path id="Trazado_609414" data-name="Trazado 609414" d="M43.513,69.135V62.182H42.2a.924.924,0,0,0-.924.924v6.028" transform="translate(-37.873 -60.718)" fill="#d1d1d1"/>
      <path id="Trazado_609415" data-name="Trazado 609415" d="M42.19,53.934V76.488a2.8,2.8,0,0,1-2.8,2.8H2.8a2.8,2.8,0,0,1-2.8-2.8V53.934a2.8,2.8,0,0,1,2.8-2.8H8.337a2.8,2.8,0,0,0,2.646-1.882L12,46.3a2.8,2.8,0,0,1,2.646-1.883H30.984A2.8,2.8,0,0,1,33.629,46.3l1.023,2.95A2.8,2.8,0,0,0,37.3,51.134H39.39A2.8,2.8,0,0,1,42.19,53.934Z" transform="translate(0 -44.419)" fill="#fcb65f"/>
      <g id="Grupo_1015411" data-name="Grupo 1015411" transform="translate(0 0)">
        <path id="Trazado_609416" data-name="Trazado 609416" d="M5,154.064H2.8a2.8,2.8,0,0,1-2.8-2.8V128.71a2.8,2.8,0,0,1,2.8-2.8H4.822v.005A2.8,2.8,0,0,0,2.2,128.71v22.554A2.8,2.8,0,0,0,5,154.064Z" transform="translate(0 -119.195)" fill="#e29a4b"/>
        <path id="Trazado_609417" data-name="Trazado 609417" d="M113.207,44.419a2.8,2.8,0,0,0-2.646,1.883l-1.022,2.95a2.8,2.8,0,0,1-2.646,1.882h-1.879v-.018a2.8,2.8,0,0,0,2.329-1.864l1.022-2.95a2.8,2.8,0,0,1,2.646-1.883Z" transform="translate(-96.361 -44.419)" fill="#e29a4b"/>
      </g>
      <path id="Trazado_609418" data-name="Trazado 609418" d="M42.19,218.384v17.734a2.8,2.8,0,0,1-2.8,2.8H2.8a2.8,2.8,0,0,1-2.8-2.8V218.384Z" transform="translate(0 -204.049)" fill="#53bce9"/>
      <path id="Trazado_609419" data-name="Trazado 609419" d="M5,238.918H2.8a2.8,2.8,0,0,1-2.8-2.8V218.384H2.2v17.734A2.8,2.8,0,0,0,5,238.918Z" transform="translate(0 -204.049)" fill="#36a6ce"/>
      <circle id="Elipse_5625" data-name="Elipse 5625" cx="11.666" cy="11.666" r="11.666" transform="translate(9.429 8.911)" fill="#e5e9ea"/>
      <path id="Trazado_609420" data-name="Trazado 609420" d="M172.387,202.286a8.249,8.249,0,1,1-2.721-6.122A8.228,8.228,0,0,1,172.387,202.286Z" transform="translate(-143.043 -181.708)" fill="#566368"/>
      <g id="Grupo_1015412" data-name="Grupo 1015412" transform="translate(12.846 12.329)">
        <path id="Trazado_609421" data-name="Trazado 609421" d="M257.029,196.455a8.228,8.228,0,0,1,2.405,6.253,8.248,8.248,0,0,1-8.658-8.658A8.225,8.225,0,0,1,257.029,196.455Z" transform="translate(-242.948 -194.04)" fill="#6f7b7f"/>
        <path id="Trazado_609422" data-name="Trazado 609422" d="M162.159,291.324a8.228,8.228,0,0,1,2.405,6.253,8.247,8.247,0,0,1-8.658-8.658A8.224,8.224,0,0,1,162.159,291.324Z" transform="translate(-155.896 -281.091)" fill="#6f7b7f"/>
      </g>
      <g id="Grupo_1015413" data-name="Grupo 1015413" transform="translate(12.2 11.683)">
        <path id="Trazado_609423" data-name="Trazado 609423" d="M156.95,203.987a8.895,8.895,0,1,1,8.895-8.895A8.9,8.9,0,0,1,156.95,203.987Zm0-16.5a7.6,7.6,0,1,0,7.6,7.6A7.612,7.612,0,0,0,156.95,187.489Z" transform="translate(-148.055 -186.198)" fill="#435054"/>
        <path id="Trazado_609424" data-name="Trazado 609424" d="M219.123,253.955a3.311,3.311,0,1,0,3.311,3.311A3.315,3.315,0,0,0,219.123,253.955Z" transform="translate(-210.229 -248.372)" fill="#435054"/>
      </g>
      <path id="Trazado_609425" data-name="Trazado 609425" d="M293.4,76.371h5.075a1.208,1.208,0,0,0,1.208-1.208V73.834a1.208,1.208,0,0,0-1.208-1.208H293.4a1.208,1.208,0,0,0-1.208,1.208v1.329A1.208,1.208,0,0,0,293.4,76.371Z" transform="translate(-268.119 -70.302)" fill="#e5e9ea"/>
      <path id="Trazado_609426" data-name="Trazado 609426" d="M291.288,69.827h-5.075a1.856,1.856,0,0,1-1.854-1.854V66.644a1.856,1.856,0,0,1,1.854-1.854h5.075a1.856,1.856,0,0,1,1.854,1.854v1.329A1.856,1.856,0,0,1,291.288,69.827Zm-5.075-3.745a.563.563,0,0,0-.562.562v1.329a.563.563,0,0,0,.562.562h5.075a.563.563,0,0,0,.562-.562V66.644a.563.563,0,0,0-.562-.562Z" transform="translate(-260.928 -63.111)" fill="#e29a4b"/>
      <circle id="Elipse_5626" data-name="Elipse 5626" cx="2.335" cy="2.335" r="2.335" transform="translate(5.685 27.809)" fill="#566368"/>
    </g>
    <g id="Summary" transform="translate(367.958 281.559)">
      <path id="Trazado_609427" data-name="Trazado 609427" d="M31.851,37.6H6.588A.588.588,0,0,1,6,37.014V.588A.588.588,0,0,1,6.588,0h19.19a.587.587,0,0,1,.415.172l6.074,6.074a.588.588,0,0,1,.172.415V37.014A.588.588,0,0,1,31.851,37.6Z" transform="translate(-5.412 0)" fill="url(#linear-gradient)"/>
      <path id="Trazado_609428" data-name="Trazado 609428" d="M30.851,37.6H5.588A.588.588,0,0,1,5,37.014V.588A.588.588,0,0,1,5.588,0H25.021l6.418,6.418v30.6A.588.588,0,0,1,30.851,37.6Z" transform="translate(-5 0)" fill="url(#linear-gradient-2)"/>
      <path id="Trazado_609429" data-name="Trazado 609429" d="M39.076,0V5.831a.588.588,0,0,0,.588.588h5.831L42.615,2.952Z" transform="translate(-19.055)" fill="url(#linear-gradient-3)"/>
      <rect id="Rectángulo_347766" data-name="Rectángulo 347766" width="15.016" height="0.566" rx="0.283" transform="translate(4.081 9.829)" fill="url(#linear-gradient-4)"/>
      <g id="Grupo_1015414" data-name="Grupo 1015414" transform="translate(4.081 12.479)">
        <rect id="Rectángulo_347767" data-name="Rectángulo 347767" width="18.276" height="0.566" rx="0.283" fill="url(#linear-gradient-5)"/>
        <rect id="Rectángulo_347768" data-name="Rectángulo 347768" width="18.276" height="0.566" rx="0.283" transform="translate(0 2.65)" fill="url(#linear-gradient-6)"/>
        <rect id="Rectángulo_347769" data-name="Rectángulo 347769" width="18.276" height="0.566" rx="0.283" transform="translate(0 5.301)" fill="url(#linear-gradient-7)"/>
        <rect id="Rectángulo_347770" data-name="Rectángulo 347770" width="18.276" height="0.566" rx="0.283" transform="translate(0 7.952)" fill="url(#linear-gradient-8)"/>
        <rect id="Rectángulo_347771" data-name="Rectángulo 347771" width="18.276" height="0.566" rx="0.283" transform="translate(0 10.602)" fill="url(#linear-gradient-9)"/>
        <rect id="Rectángulo_347772" data-name="Rectángulo 347772" width="18.276" height="0.566" rx="0.283" transform="translate(0 13.252)" fill="url(#linear-gradient-10)"/>
      </g>
      <rect id="Rectángulo_347773" data-name="Rectángulo 347773" width="9.138" height="0.566" rx="0.283" transform="translate(4.081 28.382)" fill="url(#linear-gradient-11)"/>
      <path id="Trazado_609430" data-name="Trazado 609430" d="M55.963,18.755l-1.309-1.308a.8.8,0,0,0-1.133,0L52.207,18.76l2.442,2.44,1.314-1.313a.8.8,0,0,0,0-1.133Z" transform="translate(-24.471 -7.099)" fill="url(#linear-gradient-12)"/>
      <path id="Trazado_609431" data-name="Trazado 609431" d="M31.8,34.808,27.748,36.58a.118.118,0,0,1-.158-.158l1.771-4.054L42.293,19.436l2.441,2.442Z" transform="translate(-14.312 -8.017)" fill="url(#linear-gradient-13)"/>
      <path id="Trazado_609432" data-name="Trazado 609432" d="M0,0H18.287V3.453H0Z" transform="translate(15.044 24.349) rotate(-45)" fill="url(#linear-gradient-14)"/>
      <path id="Trazado_609433" data-name="Trazado 609433" d="M28.746,47.336l-.735-.736-.488,1.116a.08.08,0,0,0,.106.106Z" transform="translate(-14.287 -19.221)" fill="url(#linear-gradient-15)"/>
    </g>
    <g id="traduccion" transform="translate(362.483 353.851)">
      <g id="Grupo_1015428" data-name="Grupo 1015428" transform="translate(0 0)">
        <g id="Grupo_1015427" data-name="Grupo 1015427" transform="translate(0 0)">
          <path id="Trazado_609434" data-name="Trazado 609434" d="M235.748,273.1v9.186a2.094,2.094,0,0,1-2.092,2.092h-8.721a2.269,2.269,0,0,0-1.615.669l-5.241,5.242,5.1,4.749a.729.729,0,0,0,1.227-.534v-4.086a2.188,2.188,0,0,1,2.188-2.188H237.6a2.188,2.188,0,0,0,2.188-2.188V273.1Z" transform="translate(-200.689 -247.796)" fill="#00c27a"/>
          <g id="Grupo_1015416" data-name="Grupo 1015416" transform="translate(17.389 40.099)">
            <g id="Grupo_1015415" data-name="Grupo 1015415">
              <path id="Trazado_609435" data-name="Trazado 609435" d="M220.471,432.8l-2.392,2.392,5.1,4.749a.729.729,0,0,0,1.227-.534v-2.944Z" transform="translate(-218.079 -432.799)" fill="#08b865"/>
            </g>
          </g>
          <path id="Trazado_609436" data-name="Trazado 609436" d="M57.9,128.77a.871.871,0,0,1-.87-.87v-13.33a.865.865,0,0,1,.187-.537H32.58a2.188,2.188,0,0,0-2.188,2.188v21.735a2.188,2.188,0,0,0,2.188,2.188H43.593a2.188,2.188,0,0,1,2.188,2.188v4a.729.729,0,0,0,1.245.516l6.064-6.064a2.188,2.188,0,0,1,1.547-.641h8.721a2.188,2.188,0,0,0,2.188-2.188V128.77Z" transform="translate(-30.392 -103.467)" fill="#fed402"/>
          <g id="Grupo_1015418" data-name="Grupo 1015418" transform="translate(0 10.565)">
            <g id="Grupo_1015417" data-name="Grupo 1015417">
              <path id="Trazado_609437" data-name="Trazado 609437" d="M34.742,137.955V116.22a2.188,2.188,0,0,1,2.188-2.188H32.58a2.188,2.188,0,0,0-2.188,2.188v21.735a2.188,2.188,0,0,0,2.188,2.188h4.35A2.188,2.188,0,0,1,34.742,137.955Z" transform="translate(-30.392 -114.032)" fill="#fac600"/>
            </g>
          </g>
          <path id="Trazado_609438" data-name="Trazado 609438" d="M116.8,17.907a.871.871,0,0,1,.87-.87h1.65a11.626,11.626,0,1,0-2.52,9.542V17.907Z" transform="translate(-90.157 -6.805)" fill="#99e6fc"/>
          <g id="Grupo_1015420" data-name="Grupo 1015420" transform="translate(6.103 0.695)">
            <g id="Grupo_1015419" data-name="Grupo 1015419">
              <path id="Trazado_609439" data-name="Trazado 609439" d="M104.94,29.27a11.625,11.625,0,0,1,0-20.294A4.054,4.054,0,0,1,107.883,7.5a11.623,11.623,0,0,0,0,23.246A4.054,4.054,0,0,1,104.94,29.27Z" transform="translate(-96.26 -7.5)" fill="#62dbfb"/>
            </g>
          </g>
          <g id="Grupo_1015423" data-name="Grupo 1015423" transform="translate(5.408)">
            <g id="Grupo_1015421" data-name="Grupo 1015421" transform="translate(6.286 0.695)">
              <ellipse id="Elipse_5627" data-name="Elipse 5627" cx="6.032" cy="11.623" rx="6.032" ry="11.623" fill="#01d0fb"/>
            </g>
            <g id="Grupo_1015422" data-name="Grupo 1015422" transform="translate(6.286 0.695)">
              <path id="Trazado_609440" data-name="Trazado 609440" d="M159.511,19.123c0-5.453,1.949-10.028,4.578-11.282a3.354,3.354,0,0,0-1.454-.341c-3.331,0-6.032,5.2-6.032,11.623s2.7,11.623,6.032,11.623a3.354,3.354,0,0,0,1.454-.341C161.46,29.151,159.511,24.576,159.511,19.123Z" transform="translate(-156.603 -7.5)" fill="#01c0fa"/>
            </g>
            <path id="Trazado_609441" data-name="Trazado 609441" d="M109.994,18.626a10.981,10.981,0,0,1-5.145,3.949,12.415,12.415,0,0,0,2.181-4.428h2.964v-1.39H107.37a21.849,21.849,0,0,0,.425-3.745h2.2v-1.39h-2.2a21.841,21.841,0,0,0-.425-3.745h3.418a.693.693,0,0,0,.253-.048,10.823,10.823,0,0,1,.764,2.4h1.413a12.329,12.329,0,1,0-3.224,10.577ZM97.307,2.06a12.413,12.413,0,0,0-2.181,4.428H91.839A10.988,10.988,0,0,1,97.307,2.06ZM91.114,7.83a.692.692,0,0,0,.253.048h3.418a21.841,21.841,0,0,0-.425,3.745H90.172A10.85,10.85,0,0,1,91.114,7.83Zm0,8.976a10.848,10.848,0,0,1-.942-3.793h4.189a21.839,21.839,0,0,0,.425,3.745H91.368A.692.692,0,0,0,91.114,16.806Zm.724,1.341h3.288a12.415,12.415,0,0,0,2.181,4.428A10.987,10.987,0,0,1,91.839,18.147Zm8.544,5c-1.572-.44-2.953-2.346-3.792-5h3.792Zm0-6.391H96.218a20.171,20.171,0,0,1-.466-3.745h4.631Zm0-5.135H95.752a20.171,20.171,0,0,1,.466-3.745h4.165Zm0-5.135H96.592c.838-2.655,2.219-4.561,3.791-5Zm9.934,0h-3.288a12.415,12.415,0,0,0-2.181-4.428A10.989,10.989,0,0,1,110.317,6.488Zm-8.544-5c1.572.44,2.953,2.346,3.791,5h-3.791Zm0,6.391h4.164a20.17,20.17,0,0,1,.466,3.745h-4.631Zm0,5.135H106.4a20.17,20.17,0,0,1-.466,3.745h-4.164Zm0,10.136v-5h3.791C104.726,20.8,103.345,22.708,101.773,23.148Z" transform="translate(-88.76 0)" fill="#0290cf"/>
          </g>
          <g id="Grupo_1015426" data-name="Grupo 1015426" transform="translate(7.514 27.932)">
            <g id="Grupo_1015424" data-name="Grupo 1015424">
              <path id="Trazado_609442" data-name="Trazado 609442" d="M131.219,302.866H112.185a.695.695,0,1,1,0-1.39h19.034a.695.695,0,0,1,0,1.39Z" transform="translate(-111.49 -301.476)" fill="#d7aa02"/>
            </g>
            <g id="Grupo_1015425" data-name="Grupo 1015425" transform="translate(1.986 3.245)">
              <path id="Trazado_609443" data-name="Trazado 609443" d="M148.8,337.893H133.623a.695.695,0,1,1,0-1.39H148.8a.695.695,0,1,1,0,1.39Z" transform="translate(-132.928 -336.503)" fill="#d7aa02"/>
            </g>
          </g>
        </g>
      </g>
      <g id="Grupo_1015431" data-name="Grupo 1015431" transform="translate(26.549 10.139)">
        <g id="Grupo_1015429" data-name="Grupo 1015429" transform="translate(0)">
          <path id="Trazado_609444" data-name="Trazado 609444" d="M331.236,124.689h-13.33a.963.963,0,0,1-.963-.963V110.4a.963.963,0,0,1,.963-.963h13.33a.963.963,0,0,1,.963.963v13.33A.963.963,0,0,1,331.236,124.689Z" transform="translate(-316.943 -109.433)" fill="#fe646f"/>
        </g>
        <g id="Grupo_1015430" data-name="Grupo 1015430" transform="translate(0)">
          <path id="Trazado_609445" data-name="Trazado 609445" d="M320.117,123.726V110.4a.963.963,0,0,1,.963-.963h-3.174a.963.963,0,0,0-.963.963v13.33a.963.963,0,0,0,.963.963h3.174A.963.963,0,0,1,320.117,123.726Z" transform="translate(-316.943 -109.433)" fill="#fd4755"/>
        </g>
        <path id="Trazado_609446" data-name="Trazado 609446" d="M363.073,153.762l-3.414-7.027a.695.695,0,0,0-1.25,0L355,153.762a.695.695,0,1,0,1.25.607l.891-1.835h3.8l.891,1.835a.695.695,0,0,0,1.25-.607Zm-5.261-2.617,1.222-2.516,1.222,2.516Z" transform="translate(-351.406 -142.924)" fill="#fff"/>
      </g>
    </g>
  </g>
</svg>
