<svg xmlns="http://www.w3.org/2000/svg" width="505" height="1925" viewBox="0 0 505 1925">
  <g id="Grupo_1070452" data-name="Grupo 1070452" transform="translate(6088.552 7577.988)">
    <rect id="Rectángulo_347664" data-name="Rectángulo 347664" width="505" height="1925" transform="translate(-6088.552 -7577.988)" fill="#fff"/>
    <g id="Grupo_1015091" data-name="Grupo 1015091" transform="translate(-5986.669 -7343.361)">
      <g id="Rectángulo_347640" data-name="Rectángulo 347640" transform="translate(-0.331 0.361)" fill="#fff" stroke="#632059" stroke-width="2">
        <rect width="302" height="264" rx="13" stroke="none"/>
        <rect x="1" y="1" width="300" height="262" rx="12" fill="none"/>
      </g>
      <text id="Conforme_más_tiempo_pasa_más_acelerado_es_su_crecimiento_es_una_situación_natural_en_la_sociedad_actual_donde_el_acceso_a_la_educación_es_cada_vez_más_popular_y_las_nuevas_tecnologías_permiten_la_publicación_a_nivel_global_de_toda_clase_de_artículos_qu" data-name="Conforme más tiempo pasa, más acelerado es su crecimiento, es una situación natural en la sociedad actual, donde el acceso a la educación es cada vez más popular, y las nuevas tecnologías permiten la publicación a nivel global de toda clase de artículos qu" transform="translate(21.67 23.361)" fill="#12263f" font-size="16" font-family="Roboto-Regular, Roboto"><tspan x="0" y="15">Conforme más tiempo pasa, más </tspan><tspan x="0" y="39">acelerado es su crecimiento, es una </tspan><tspan x="0" y="63">situación natural en la sociedad </tspan><tspan x="0" y="87">actual, donde el acceso a la </tspan><tspan x="0" y="111">educación es cada vez más popular, </tspan><tspan x="0" y="135">y las nuevas tecnologías permiten la </tspan><tspan x="0" y="159">publicación a nivel global de toda </tspan><tspan x="0" y="183">clase de artículos que promueven el </tspan><tspan x="0" y="207">avance cultural</tspan></text>
    </g>
    <g id="Grupo_1015093" data-name="Grupo 1015093" transform="translate(-5986.669 -6866.467)">
      <g id="Rectángulo_347640-2" data-name="Rectángulo 347640" transform="translate(-0.331 0.467)" fill="#fff" stroke="#632059" stroke-width="2">
        <rect width="302" height="217" rx="13" stroke="none"/>
        <rect x="1" y="1" width="300" height="215" rx="12" fill="none"/>
      </g>
      <text id="Debido_a_que_la_terminología_solo_puede_ser_plenamente_entendida_por_los_expertos_en_la_materia_estudiada_su_uso_se_encuentra_limitado_a_públicos_específicos:_un_gremio_una_profesión_o_incluso_una_temática_particular." data-name="Debido a que la terminología solo puede ser plenamente entendida por los expertos en la materia estudiada, su uso se encuentra limitado a públicos específicos: un gremio, una profesión o incluso una temática particular." transform="translate(21.67 23.467)" fill="#12263f" font-size="16" font-family="Roboto-Regular, Roboto"><tspan x="0" y="15">Debido a que la terminología solo </tspan><tspan x="0" y="39">puede ser plenamente entendida por </tspan><tspan x="0" y="63">los expertos en la materia estudiada, </tspan><tspan x="0" y="87">su uso se encuentra limitado a </tspan><tspan x="0" y="111">públicos específicos: un gremio, una </tspan><tspan x="0" y="135">profesión o incluso una temática </tspan><tspan x="0" y="159">particular.</tspan></text>
    </g>
    <g id="Grupo_1015095" data-name="Grupo 1015095" transform="translate(-6004.725 -6441.271)">
      <g id="Rectángulo_347640-3" data-name="Rectángulo 347640" transform="translate(-0.275 0.271)" fill="#fff" stroke="#632059" stroke-width="2">
        <rect width="302" height="294" rx="13" stroke="none"/>
        <rect x="1" y="1" width="300" height="292" rx="12" fill="none"/>
      </g>
      <text id="Se_considera_coherente_debido_a_su_enfoque_en_un_tema_particular_mientras_que_su_cohesión_proviene_del_interés_en_generar_afirmaciones_a_partir_de_diversos_juicios_e_ideas_que_convergen_en_algo_más_concreto._Por_último_se_habla_de_adecuación_debido_a_la_" data-name="Se considera coherente debido a su enfoque en un tema particular, mientras que su cohesión proviene del interés en generar afirmaciones a partir de diversos juicios e ideas que convergen en algo más concreto. Por último, se habla de adecuación debido a la " transform="translate(21.725 23.271)" fill="#12263f" font-size="16" font-family="Roboto-Regular, Roboto"><tspan x="0" y="15">Se considera coherente debido a su </tspan><tspan x="0" y="39">enfoque en un tema particular, </tspan><tspan x="0" y="63">mientras que su cohesión proviene </tspan><tspan x="0" y="87">del interés en generar afirmaciones a </tspan><tspan x="0" y="111">partir de diversos juicios e ideas que </tspan><tspan x="0" y="135">convergen en algo más concreto. Por </tspan><tspan x="0" y="159">último, se habla de adecuación </tspan><tspan x="0" y="183">debido a la forma en la que se perfila </tspan><tspan x="0" y="207">para ser dirigido a un público </tspan><tspan x="0" y="231">específico.</tspan></text>
    </g>
    <g id="Grupo_1015097" data-name="Grupo 1015097" transform="translate(-5987.725 -5944.329)">
      <g id="Rectángulo_347640-4" data-name="Rectángulo 347640" transform="translate(-0.275 0.329)" fill="#fff" stroke="#632059" stroke-width="2">
        <rect width="302" height="236" rx="13" stroke="none"/>
        <rect x="1" y="1" width="300" height="234" rx="12" fill="none"/>
      </g>
      <text id="El_lenguaje_técnico_es_tan_cerrado_a_un_tema_particular_que_es_muy_poco_probable_encontrar_más_de_un_significado_para_sus_términos._Esto_quiere_decir_que_no_es_para_nada_habitual_evidenciar_términos_equivalentes_por_lo_que_cada_palabra_siempre_suele_signi" data-name="El lenguaje técnico es tan cerrado a un tema particular que es muy poco probable encontrar más de un significado para sus términos. Esto quiere decir que no es para nada habitual evidenciar términos equivalentes, por lo que cada palabra siempre suele signi" transform="translate(21.725 23.329)" fill="#12263f" font-size="16" font-family="Roboto-Regular, Roboto"><tspan x="0" y="15">El lenguaje técnico es tan cerrado a </tspan><tspan x="0" y="39">un tema particular que es muy poco </tspan><tspan x="0" y="63">probable encontrar más de un </tspan><tspan x="0" y="87">significado para sus términos. Esto </tspan><tspan x="0" y="111">quiere decir que no es para nada </tspan><tspan x="0" y="135">habitual evidenciar términos </tspan><tspan x="0" y="159">equivalentes, por lo que cada palabra </tspan><tspan x="0" y="183">siempre suele significar lo mismo.</tspan></text>
    </g>
    <g id="Grupo_1015090" data-name="Grupo 1015090" transform="translate(-5990.89 -7528)">
      <path id="Trazado_815133" data-name="Trazado 815133" d="M25,0H286a25,25,0,0,1,25,25V133a25,25,0,0,1-25,25H25A25,25,0,0,1,0,133V25A25,25,0,0,1,25,0Z" transform="translate(-0.11)" fill="#dbf9bd"/>
      <text id="Crecimiento_exponencial" data-name="Crecimiento
exponencial" transform="translate(49.883 80.305)" fill="#12263f" font-size="18" font-family="Roboto-Bold, Roboto" font-weight="700"><tspan x="0" y="0">Crecimiento</tspan><tspan x="0" y="24">exponencial</tspan></text>
      <g id="creciente" transform="translate(189.741 40.093)">
        <path id="Trazado_248306" data-name="Trazado 248306" d="M11.093,300.793H1.851A1.851,1.851,0,0,0,0,302.644v27.474H12.944V302.644a1.851,1.851,0,0,0-1.851-1.851Zm0,0" transform="translate(0 -258.785)" fill="#49c3e0"/>
        <path id="Trazado_248307" data-name="Trazado 248307" d="M6.174,300.793H1.851A1.851,1.851,0,0,0,0,302.644v27.474H4.323V302.644A1.851,1.851,0,0,1,6.174,300.793Zm0,0" transform="translate(0 -258.785)" fill="#00a5c6"/>
        <path id="Trazado_248308" data-name="Trazado 248308" d="M150.917,248.98h-9.242a1.851,1.851,0,0,0-1.851,1.851v34.722h12.944V250.831a1.851,1.851,0,0,0-1.851-1.851Zm0,0" transform="translate(-120.264 -214.22)" fill="#3ac7b4"/>
        <path id="Trazado_248309" data-name="Trazado 248309" d="M146,248.98h-4.323a1.851,1.851,0,0,0-1.851,1.851v34.722h4.323V250.831A1.851,1.851,0,0,1,146,248.98Zm0,0" transform="translate(-120.264 -214.22)" fill="#00ad94"/>
        <path id="Trazado_248310" data-name="Trazado 248310" d="M290.741,197.168H281.5a1.851,1.851,0,0,0-1.851,1.851v41.97h12.944v-41.97A1.851,1.851,0,0,0,290.741,197.168Zm0,0" transform="translate(-240.528 -169.656)" fill="#ffcd38"/>
        <path id="Trazado_248311" data-name="Trazado 248311" d="M285.822,197.168H281.5a1.851,1.851,0,0,0-1.851,1.851v41.97h4.323v-41.97A1.851,1.851,0,0,1,285.822,197.168Zm0,0" transform="translate(-240.528 -169.656)" fill="#e7b835"/>
        <path id="Trazado_248312" data-name="Trazado 248312" d="M430.569,145.355h-9.242a1.85,1.85,0,0,0-1.85,1.851v49.218H432.42V147.206A1.851,1.851,0,0,0,430.569,145.355Zm0,0" transform="translate(-360.796 -125.091)" fill="#ff8c57"/>
        <path id="Trazado_248313" data-name="Trazado 248313" d="M425.646,145.355h-4.323a1.851,1.851,0,0,0-1.851,1.851v49.218H423.8V147.206A1.851,1.851,0,0,1,425.646,145.355Zm0,0" transform="translate(-360.792 -125.091)" fill="#ec6a34"/>
        <path id="Trazado_248314" data-name="Trazado 248314" d="M87.5.913,75.81.5A1.175,1.175,0,0,0,74.8,2.344L76.69,5.059a109.076,109.076,0,0,1-54.358,14.5v7.766a119.153,119.153,0,0,0,43.957-8.544,101.487,101.487,0,0,0,14.841-7.33L82.8,13.86a1.175,1.175,0,0,0,2.08-.3l3.694-11.1A1.175,1.175,0,0,0,87.5.913Zm0,0" transform="translate(-19.208 -0.498)" fill="#3b5620"/>
      </g>
    </g>
    <g id="Grupo_1015092" data-name="Grupo 1015092" transform="translate(-5991.945 -7048.995)">
      <rect id="Rectángulo_347656" data-name="Rectángulo 347656" width="311" height="158" rx="25" transform="translate(-0.055 -0.005)" fill="#fffad0"/>
      <text id="Objetivo_específico" data-name="Objetivo
específico" transform="translate(251.831 81.305)" fill="#12263f" font-size="19" font-family="Roboto-Bold, Roboto" font-weight="700"><tspan x="-70.684" y="0">Objetivo</tspan><tspan x="-88.33" y="25">específico</tspan></text>
      <g id="objetivo_3_" data-name="objetivo (3)" transform="translate(41.148 28.487)">
        <path id="Trazado_248315" data-name="Trazado 248315" d="M94.908,12.316a1.483,1.483,0,0,0-1.048-1.048L87.5,9.561,88.92,8.138a1.483,1.483,0,0,0-2.1-2.1L85.4,7.463,83.7,1.1a1.483,1.483,0,0,0-2.48-.665L68.97,12.687a1.482,1.482,0,0,0-.384,1.432l2.148,8.012L68.31,24.555a40.642,40.642,0,1,0,2.1,2.1l2.421-2.421,8.015,2.15A1.483,1.483,0,0,0,82.275,26l12.25-12.249a1.483,1.483,0,0,0,.384-1.432Z" transform="translate(-0.002 -0.003)" fill="#ebebeb"/>
        <g id="Grupo_1015042" data-name="Grupo 1015042" transform="translate(0 13.679)">
          <g id="Grupo_1015041" data-name="Grupo 1015041" transform="translate(0)">
            <g id="Grupo_1015039" data-name="Grupo 1015039">
              <path id="Trazado_248316" data-name="Trazado 248316" d="M62.52,94.615a29.55,29.55,0,1,1-2.1-2.1l7.886-7.886a40.643,40.643,0,1,0,2.1,2.1Z" transform="translate(-0.001 -73.76)" fill="#1b3f5e"/>
            </g>
            <g id="Grupo_1015040" data-name="Grupo 1015040" transform="translate(22.26 22.254)">
              <path id="Trazado_248317" data-name="Trazado 248317" d="M138.4,213.618a1.483,1.483,0,0,1-1.048-2.531L150.3,198.136a18.407,18.407,0,1,0,2.1,2.1L139.45,213.184A1.478,1.478,0,0,1,138.4,213.618Z" transform="translate(-120.022 -193.751)" fill="#1b3f5e"/>
            </g>
          </g>
        </g>
        <g id="Grupo_1015043" data-name="Grupo 1015043" transform="translate(39.047 24.809)">
          <path id="Trazado_248318" data-name="Trazado 248318" d="M230.34,142.972l1.573-1.573a29.4,29.4,0,0,0-19.783-7.629q-.8,0-1.592.043A29.445,29.445,0,0,1,230.34,142.972Z" transform="translate(-210.538 -133.77)" fill="#ddd"/>
          <path id="Trazado_248319" data-name="Trazado 248319" d="M232.277,187.943a29.49,29.49,0,0,1-21.739,47.516q.791.042,1.592.043a29.493,29.493,0,0,0,21.88-49.292Z" transform="translate(-210.538 -176.484)" fill="#ddd"/>
        </g>
        <g id="Grupo_1015045" data-name="Grupo 1015045" transform="translate(39.047 13.679)">
          <g id="Grupo_1015044" data-name="Grupo 1015044">
            <path id="Trazado_248320" data-name="Trazado 248320" d="M227.331,240.6a18.406,18.406,0,0,1-16.792,18.31c.525.045,1.055.07,1.592.07a18.37,18.37,0,0,0,14-30.282l-1.819,1.819A18.274,18.274,0,0,1,227.331,240.6Z" transform="translate(-210.538 -199.965)" fill="#102e48"/>
            <path id="Trazado_248321" data-name="Trazado 248321" d="M238.222,86.211l1.578-1.578A40.358,40.358,0,0,0,212.13,73.76c-.532,0-1.063.013-1.592.033a40.356,40.356,0,0,1,27.147,11.868C237.867,85.843,238.044,86.027,238.222,86.211Z" transform="translate(-210.538 -73.76)" fill="#102e48"/>
            <path id="Trazado_248322" data-name="Trazado 248322" d="M240.2,145.381a40.638,40.638,0,0,1-29.666,66.582c.528.02,1.059.034,1.592.034A40.636,40.636,0,0,0,241.9,143.689Z" transform="translate(-210.539 -130.719)" fill="#102e48"/>
            <path id="Trazado_248323" data-name="Trazado 248323" d="M210.539,193.821a18.352,18.352,0,0,1,11.933,5.877l1.561-1.561a18.3,18.3,0,0,0-11.9-4.385C211.594,193.751,211.064,193.775,210.539,193.821Z" transform="translate(-210.539 -171.497)" fill="#102e48"/>
          </g>
        </g>
        <g id="Grupo_1015047" data-name="Grupo 1015047" transform="translate(39.156 5.604)">
          <g id="Grupo_1015046" data-name="Grupo 1015046">
            <path id="Trazado_248324" data-name="Trazado 248324" d="M212.611,80.416a1.483,1.483,0,0,1-1.048-2.531l47.231-47.231a1.483,1.483,0,1,1,2.1,2.1L213.659,79.982a1.478,1.478,0,0,1-1.048.434Z" transform="translate(-211.128 -30.219)" fill="#bfbfbf"/>
          </g>
        </g>
        <path id="Trazado_248325" data-name="Trazado 248325" d="M188.329,262.064a1.483,1.483,0,0,1-2.1-2.1l5.019-5.019a7.265,7.265,0,1,0,2.1,2.1Z" transform="translate(-146.642 -206.698)" fill="#5a5a5a"/>
        <path id="Trazado_248326" data-name="Trazado 248326" d="M414.751,54.294a1.483,1.483,0,0,0-1.048-1.048l-6.363-1.706L392.67,66.209l8.015,2.15a1.483,1.483,0,0,0,1.432-.384l12.25-12.249A1.483,1.483,0,0,0,414.751,54.294Z" transform="translate(-319.844 -41.981)" fill="#632059"/>
        <path id="Trazado_248327" data-name="Trazado 248327" d="M371.726,22.131,386.393,7.463l-1.7-6.361a1.483,1.483,0,0,0-2.48-.665l-12.25,12.249a1.482,1.482,0,0,0-.384,1.432Z" transform="translate(-300.993 -0.003)" fill="#632059"/>
      </g>
    </g>
    <g id="Grupo_1015094" data-name="Grupo 1015094" transform="translate(-5993 -6621.689)">
      <path id="Trazado_815134" data-name="Trazado 815134" d="M25,0H286a25,25,0,0,1,25,25V134a25,25,0,0,1-25,25H25A25,25,0,0,1,0,134V25A25,25,0,0,1,25,0Z" transform="translate(0 -0.311)" fill="#dbf9bd"/>
      <text id="Coherencia_cohesión_y_adecuación" data-name="Coherencia,
cohesión y
adecuación" transform="translate(49.883 59.203)" fill="#12263f" font-size="18" font-family="Roboto-Bold, Roboto" font-weight="700"><tspan x="0" y="0">Coherencia,</tspan><tspan x="0" y="24">cohesión y</tspan><tspan x="0" y="48">adecuación</tspan></text>
      <g id="idea" transform="translate(181.263 28.271)">
        <path id="Trazado_248328" data-name="Trazado 248328" d="M149.668,139.164a23.862,23.862,0,0,1,7.205-11.02,28.949,28.949,0,0,0,10.384-22.251,29.26,29.26,0,0,0-30.728-29.245c-15.046.636-27.338,13.351-27.761,28.4a29.032,29.032,0,0,0,10.384,23.1,22.738,22.738,0,0,1,7.417,11.02Z" transform="translate(-93.722 -61.39)" fill="#ffd15c"/>
        <path id="Trazado_248329" data-name="Trazado 248329" d="M207.608,251.712h1.907l-8.477-31.576h.636a4.184,4.184,0,0,0,2.967-1.271,2.049,2.049,0,0,1,2.967,0,3.62,3.62,0,0,0,5.51,0,1.924,1.924,0,0,1,1.483-.636,2.29,2.29,0,0,1,1.483.636,3.847,3.847,0,0,0,2.967,1.271h.636l-8.265,31.576h1.907l8.689-33.059c0-.424,0-.848-.424-1.06a.932.932,0,0,0-1.06.212,1.832,1.832,0,0,1-1.272.636,2.818,2.818,0,0,1-1.7-.636,3.62,3.62,0,0,0-5.51,0,2.048,2.048,0,0,1-2.967,0,3.417,3.417,0,0,0-2.755-1.271h0a3.417,3.417,0,0,0-2.755,1.271,2.406,2.406,0,0,1-1.7.636,1.511,1.511,0,0,1-1.271-.636.932.932,0,0,0-1.06-.212.774.774,0,0,0-.424,1.06Z" transform="translate(-166.072 -173.515)" fill="#fff"/>
        <g id="Grupo_1015048" data-name="Grupo 1015048" transform="translate(32.847 77.562)">
          <path id="Trazado_248330" data-name="Trazado 248330" d="M222.933,489.6a7.074,7.074,0,0,0,13.139,0Z" transform="translate(-218.059 -469.892)" fill="#344a5e"/>
          <path id="Trazado_248331" data-name="Trazado 248331" d="M217.684,410.32h-15.47a3.8,3.8,0,0,1-3.815-3.815V390.4h23.1v16.106A3.8,3.8,0,0,1,217.684,410.32Z" transform="translate(-198.4 -390.4)" fill="#344a5e"/>
        </g>
        <g id="Grupo_1015049" data-name="Grupo 1015049" transform="translate(30.516 80.952)">
          <path id="Trazado_248332" data-name="Trazado 248332" d="M211.885,412.129H189a2.352,2.352,0,0,1-2.331-2.331h0A2.352,2.352,0,0,1,189,407.467h22.887a2.352,2.352,0,0,1,2.331,2.331h0A2.352,2.352,0,0,1,211.885,412.129Z" transform="translate(-186.667 -407.467)" fill="#415a6b"/>
          <path id="Trazado_248333" data-name="Trazado 248333" d="M211.885,449.463H189a2.352,2.352,0,0,1-2.331-2.331h0A2.352,2.352,0,0,1,189,444.8h22.887a2.352,2.352,0,0,1,2.331,2.331h0A2.352,2.352,0,0,1,211.885,449.463Z" transform="translate(-186.667 -437.384)" fill="#415a6b"/>
        </g>
        <g id="Grupo_1015050" data-name="Grupo 1015050" transform="translate(0)">
          <path id="Trazado_248334" data-name="Trazado 248334" d="M247.452,0a2.124,2.124,0,0,0-2.119,2.119V9.324a2.124,2.124,0,0,0,2.119,2.119,2,2,0,0,0,2.119-2.119V2.119A2.124,2.124,0,0,0,247.452,0Z" transform="translate(-203.161)" fill="#ffd15c"/>
          <path id="Trazado_248335" data-name="Trazado 248335" d="M98.537,62.5a2.1,2.1,0,1,0-2.967,2.967l5.086,5.086a2.1,2.1,0,1,0,2.967-2.967Z" transform="translate(-82.643 -49.576)" fill="#ffd15c"/>
          <path id="Trazado_248336" data-name="Trazado 248336" d="M42.39,212.267H35.185a2.124,2.124,0,0,0-2.119,2.119h0a2.124,2.124,0,0,0,2.119,2.119H42.39a2.124,2.124,0,0,0,2.119-2.119h0A2.279,2.279,0,0,0,42.39,212.267Z" transform="translate(-33.066 -170.095)" fill="#ffd15c"/>
          <path id="Trazado_248337" data-name="Trazado 248337" d="M100.655,337.7l-5.086,5.086a2.1,2.1,0,0,0,2.967,2.967l5.086-5.086a2.1,2.1,0,1,0-2.967-2.967Z" transform="translate(-82.642 -270.101)" fill="#ffd15c"/>
          <path id="Trazado_248338" data-name="Trazado 248338" d="M373.736,337.7a2.1,2.1,0,1,0-2.967,2.967l5.086,5.086a2.1,2.1,0,1,0,2.967-2.967Z" transform="translate(-303.167 -270.101)" fill="#ffd15c"/>
          <path id="Trazado_248339" data-name="Trazado 248339" d="M430.657,212.267h-7.205a2.124,2.124,0,0,0-2.119,2.119h0a2.124,2.124,0,0,0,2.119,2.119h7.205a2.124,2.124,0,0,0,2.119-2.119h0A2.124,2.124,0,0,0,430.657,212.267Z" transform="translate(-344.195 -170.095)" fill="#ffd15c"/>
          <path id="Trazado_248340" data-name="Trazado 248340" d="M375.855,62.5l-5.086,5.086a2.1,2.1,0,1,0,2.967,2.967l5.086-5.086a2.1,2.1,0,1,0-2.967-2.967Z" transform="translate(-303.167 -49.576)" fill="#ffd15c"/>
        </g>
      </g>
    </g>
    <g id="Grupo_1015096" data-name="Grupo 1015096" transform="translate(-5993 -6124.748)">
      <rect id="Rectángulo_347657" data-name="Rectángulo 347657" width="311" height="159" rx="25" transform="translate(0 -0.252)" fill="#fffad0"/>
      <text id="Carácter_unívoco" data-name="Carácter
unívoco" transform="translate(248.657 71.864)" fill="#12263f" font-size="18" font-family="Roboto-Bold, Roboto" font-weight="700"><tspan x="-69.144" y="0">Carácter</tspan><tspan x="-63.791" y="24">unívoco</tspan></text>
      <g id="idioma" transform="translate(46.951 40.285)">
        <g id="Grupo_1015052" data-name="Grupo 1015052" transform="translate(19.747 0)">
          <path id="Trazado_248341" data-name="Trazado 248341" d="M72.284,48.418l3.289,13.139-9.457-5.092-4.274-2.3a15.713,15.713,0,0,0,.091-1.7c0-13.4-14.245-24.248-31.825-24.248A40,40,0,0,0,18.03,30.035a18.57,18.57,0,0,1,1.015-5C22.637,14.653,35.049,7,49.809,7c17.58,0,31.825,10.851,31.825,24.248C81.634,37.946,78.058,44.023,72.284,48.418Z" transform="translate(-18.03 -7)" fill="#1b3f5e"/>
          <path id="Trazado_248342" data-name="Trazado 248342" d="M66.48,46.794a20.829,20.829,0,0,1-.121,2.182c-.061.606-.136,1.228-.242,1.819l-4.274-2.3a15.71,15.71,0,0,0,.091-1.7c0-13.4-14.245-24.248-31.825-24.248A40,40,0,0,0,18.03,24.365a18.57,18.57,0,0,1,1.015-5A44.339,44.339,0,0,1,30.108,18C50.158,18,66.48,30.912,66.48,46.794Z" transform="translate(-18.03 -1.33)" fill="#1b3f5e" opacity="0.1"/>
          <g id="Grupo_1015051" data-name="Grupo 1015051" transform="translate(8.083 4.546)" opacity="0.2">
            <path id="Trazado_248343" data-name="Trazado 248343" d="M24.874,22.124a1.507,1.507,0,0,1-1.152-2.485C28.708,13.7,37.649,10,47.06,10a1.515,1.515,0,1,1,0,3.031c-8.532,0-16.594,3.273-21.035,8.547a1.471,1.471,0,0,1-1.152.546Z" transform="translate(-23.364 -10)" fill="#1b3f5e"/>
          </g>
        </g>
        <g id="Grupo_1015055" data-name="Grupo 1015055" transform="translate(0 21.217)">
          <path id="Trazado_248344" data-name="Trazado 248344" d="M68.65,45.248a15.71,15.71,0,0,1-.091,1.7C67.422,59.554,53.647,69.5,36.825,69.5a40.1,40.1,0,0,1-11.457-1.652L11.062,75.557,14.35,62.418C8.577,58.023,5,51.946,5,45.248c0-10.139,8.153-18.822,19.747-22.429A40,40,0,0,1,36.825,21C54.4,21,68.65,31.851,68.65,45.248Z" transform="translate(-5 -21)" fill="#98a68b"/>
          <g id="Grupo_1015053" data-name="Grupo 1015053" transform="translate(8.128 4.546)" opacity="0.2">
            <path id="Trazado_248345" data-name="Trazado 248345" d="M11.874,36.124a1.507,1.507,0,0,1-1.152-2.485C15.708,27.7,24.649,24,34.06,24a1.515,1.515,0,1,1,0,3.031c-8.532,0-16.594,3.273-21.035,8.547A1.471,1.471,0,0,1,11.874,36.124Z" transform="translate(-10.364 -24)" fill="#fff"/>
          </g>
          <g id="Grupo_1015054" data-name="Grupo 1015054" transform="translate(4.546 22.732)" opacity="0.2">
            <path id="Trazado_248346" data-name="Trazado 248346" d="M16.472,51.367a1.559,1.559,0,0,1-.909-.3C10.682,47.351,8,42.547,8,37.515a1.515,1.515,0,1,1,3.031,0c0,4.061,2.258,8.017,6.35,11.139a1.5,1.5,0,0,1,.288,2.122A1.471,1.471,0,0,1,16.472,51.367Z" transform="translate(-8 -36)" fill="#fff"/>
          </g>
          <path id="Trazado_248347" data-name="Trazado 248347" d="M42.763,33.031H18.515a1.515,1.515,0,1,1,0-3.031H42.763a1.515,1.515,0,0,1,0,3.031Zm1.515,4.546a1.52,1.52,0,0,0-1.515-1.515H18.515a1.515,1.515,0,1,0,0,3.031H42.763A1.52,1.52,0,0,0,44.279,37.577Zm0,6.062a1.52,1.52,0,0,0-1.515-1.515H18.515a1.515,1.515,0,1,0,0,3.031H42.763A1.52,1.52,0,0,0,44.279,43.639Zm0,6.062a1.52,1.52,0,0,0-1.515-1.515H18.515a1.515,1.515,0,1,0,0,3.031H42.763A1.52,1.52,0,0,0,44.279,49.7Z" transform="translate(1.186 -16.361)" fill="#3b5620" opacity="0.5"/>
        </g>
      </g>
    </g>
  </g>
</svg>
