<svg xmlns="http://www.w3.org/2000/svg" width="393.778" height="381.89" viewBox="0 0 393.778 381.89">
  <g id="Grupo_1066760" data-name="Grupo 1066760" transform="translate(-684 -105.555)">
    <g id="Group_4_4_" data-name="Group 4 (4)" transform="translate(684 105.555)">
      <path id="Trazado_246088" data-name="Trazado 246088" d="M196.889,515.891c108.738,0,196.889-50.892,196.889-113.67s-88.15-113.669-196.889-113.669S0,339.443,0,402.221,88.15,515.891,196.889,515.891Z" transform="translate(0 -134.001)" fill="#cecece"/>
      <path id="Trazado_246089" data-name="Trazado 246089" d="M556.179,499.892c19.769,0,35.8-9.254,35.8-20.669s-16.026-20.67-35.8-20.67-35.8,9.254-35.8,20.67S536.409,499.892,556.179,499.892Z" transform="translate(-241.662 -212.949)" fill="#e0e0e0"/>
      <path id="Trazado_246090" data-name="Trazado 246090" d="M160.618,487.742l160.116,92.45,73.382-42.373L233.967,445.352Z" transform="translate(-74.59 -206.818)" fill="#e0e0e0"/>
      <path id="Trazado_246091" data-name="Trazado 246091" d="M78.107,481.46,44.972,462.326a1.082,1.082,0,0,1,0-2.053L161.5,392.992a3.93,3.93,0,0,1,3.555,0l33.135,19.134a1.082,1.082,0,0,1,0,2.053L81.663,481.46A3.932,3.932,0,0,1,78.107,481.46Z" transform="translate(-20.541 -182.306)" fill="#e0e0e0"/>
      <path id="Trazado_246092" data-name="Trazado 246092" d="M214.678,13.3,116.324,70.076a7.921,7.921,0,0,0-3.573,6.2v221.8c0,2.275,1.6,3.211,3.573,2.061l98.354-56.777a7.92,7.92,0,0,0,3.572-6.2V15.36C218.25,13.086,216.649,12.149,214.678,13.3ZM213.1,216.733c0,1.954-1.371,3.194-3.063,4.172L120.61,272.533c-1.691.977-3.063.189-3.063-1.774V97a6.792,6.792,0,0,1,3.063-5.313l89.428-51.62c1.7-.985,3.063-.189,3.063,1.766Z" transform="translate(-52.361 -5.947)" fill="#37474f"/>
      <path id="Trazado_246093" data-name="Trazado 246093" d="M106.119,346.7a8.007,8.007,0,0,1-6.709-.222l-4.09-2.365a7.881,7.881,0,0,1-3.589-6.2v-221.8a6.818,6.818,0,0,1,.616-2.677,7.614,7.614,0,0,1,.427-.862.008.008,0,0,0,.008-.008l11.259,6.5h.008a9.565,9.565,0,0,0-.616,1.314A6.6,6.6,0,0,0,103,122.6V344.419c0,2.1,1.363,3.055,3.128,2.283Z" transform="translate(-42.599 -52.278)" fill="#263238"/>
      <path id="Trazado_246094" data-name="Trazado 246094" d="M207.925,459.218c3.12-1.8,5.65-.345,5.65,3.26a12.471,12.471,0,0,1-5.65,9.78c-3.12,1.8-5.65.345-5.65-3.26A12.469,12.469,0,0,1,207.925,459.218Z" transform="translate(-93.935 -212.9)" fill="#3b5620"/>
      <path id="Trazado_246095" data-name="Trazado 246095" d="M209.165,75.368c1.322-.764,2.4-.148,2.4,1.388a5.3,5.3,0,0,1-2.4,4.155c-1.322.764-2.4.148-2.4-1.388A5.312,5.312,0,0,1,209.165,75.368Z" transform="translate(-96.021 -34.848)"/>
      <path id="Trazado_246096" data-name="Trazado 246096" d="M192.22,93.358l18.51-10.692c1.1-.641,2-.189,2,1.01a4.263,4.263,0,0,1-2,3.318L192.22,97.686c-1.109.641-2,.181-2-1.01a4.264,4.264,0,0,1,2-3.318Z" transform="translate(-88.339 -38.255)"/>
      <path id="Trazado_246097" data-name="Trazado 246097" d="M217.259,239.667c0,1.954-1.371,3.194-3.063,4.171l-89.428,51.629c-1.691.977-3.063.189-3.063-1.774V119.937a6.792,6.792,0,0,1,3.063-5.313L214.2,63c1.7-.985,3.063-.189,3.063,1.766Z" transform="translate(-56.519 -29.062)" fill="#3b5620" stroke="#fff" stroke-miterlimit="10" stroke-width="1.533"/>
      <path id="Trazado_246098" data-name="Trazado 246098" d="M209.367,8.846c-.254-1.856-1.741-2.529-3.531-1.495L107.473,64.129a7.221,7.221,0,0,0-2.521,2.677l-11.259-6.5a7.292,7.292,0,0,1,2.529-2.652L194.569.856a7.9,7.9,0,0,1,7.152,0l4.106,2.357a8.015,8.015,0,0,1,3.531,5.633Z" transform="translate(-43.511)" fill="#455a64"/>
      <path id="Trazado_246099" data-name="Trazado 246099" d="M165.841,212.734a6.079,6.079,0,0,1,2.808-.92,3.288,3.288,0,0,1,2.193.706,4.757,4.757,0,0,1,1.446,2.2,11.916,11.916,0,0,1,.591,3.515c.017.468.025.911.025,1.305v2.283c0,.386,0,.813-.025,1.281a19.761,19.761,0,0,1-.575,4.2,18.718,18.718,0,0,1-1.412,3.835,15.214,15.214,0,0,1-2.152,3.21,10.857,10.857,0,0,1-2.784,2.308l-6.011,3.473a.321.321,0,0,1-.419-.033.75.75,0,0,1-.181-.551V217.407a1.7,1.7,0,0,1,.181-.755,1.1,1.1,0,0,1,.419-.517l5.9-3.408Zm2.915,7.744q-.136-3.868-3.03-2.192L163.46,219.6v13.032l2.381-1.372q2.809-1.626,2.915-5.625c.016-.493.025-.944.025-1.372v-2.447c0-.41,0-.854-.025-1.322Z" transform="translate(-73.999 -98.365)" fill="#fff"/>
      <path id="Trazado_246100" data-name="Trazado 246100" d="M195.735,194.621c.3-.172.525-.172.681-.016a1.3,1.3,0,0,1,.32.566l4.853,18.8a1.825,1.825,0,0,1,.091.46,1.413,1.413,0,0,1-.148.616.91.91,0,0,1-.345.419l-2.808,1.618c-.3.172-.509.2-.633.074a.756.756,0,0,1-.23-.427l-.624-2.488-5.921,3.416-.624,3.2a2.491,2.491,0,0,1-.238.7,1.473,1.473,0,0,1-.632.657l-2.809,1.618a.261.261,0,0,1-.345-.025.586.586,0,0,1-.148-.452,3.171,3.171,0,0,1,.091-.567l4.853-24.406a4.429,4.429,0,0,1,.32-.944,1.655,1.655,0,0,1,.682-.772l3.6-2.086Zm-3.605,17.064,3.605-2.086-1.807-7.186-1.807,9.271Z" transform="translate(-86.459 -90.32)" fill="#fff"/>
      <path id="Trazado_246101" data-name="Trazado 246101" d="M226.062,175.671a.333.333,0,0,1,.427.033.749.749,0,0,1,.18.55v3.638a1.7,1.7,0,0,1-.18.755,1.114,1.114,0,0,1-.427.517l-3.917,2.267v17.59a1.7,1.7,0,0,1-.181.755,1.1,1.1,0,0,1-.419.517l-2.915,1.683a.323.323,0,0,1-.427-.033.749.749,0,0,1-.18-.55V185.8l-3.917,2.266a.332.332,0,0,1-.427-.033.717.717,0,0,1-.18-.55V183.85a1.7,1.7,0,0,1,.18-.756,1.072,1.072,0,0,1,.427-.517Z" transform="translate(-99.147 -81.552)" fill="#fff"/>
      <path id="Trazado_246102" data-name="Trazado 246102" d="M246.008,165.6c.3-.172.526-.172.682-.017a1.3,1.3,0,0,1,.32.567l4.853,18.8a1.846,1.846,0,0,1,.091.46,1.41,1.41,0,0,1-.148.615.91.91,0,0,1-.345.419l-2.809,1.618c-.3.172-.509.2-.632.074a.759.759,0,0,1-.23-.427l-.624-2.488-5.921,3.416-.624,3.2a2.532,2.532,0,0,1-.238.7,1.473,1.473,0,0,1-.633.657l-2.808,1.618a.261.261,0,0,1-.345-.025.6.6,0,0,1-.148-.452,3.126,3.126,0,0,1,.091-.567l4.853-24.405a4.39,4.39,0,0,1,.32-.944,1.655,1.655,0,0,1,.681-.772L246,165.557Zm-3.6,17.064,3.6-2.086-1.807-7.185-1.807,9.271Z" transform="translate(-109.806 -76.841)" fill="#fff"/>
      <path id="Trazado_246103" data-name="Trazado 246103" d="M556.345,171.323c-5.215.246-7,1.24-9.731,4.451-2.668,3.137-15.528,26.976-15.528,26.976s2.414,6.766,7.695,6.192l9.879-15.923,7.694-21.7Z" transform="translate(-246.632 -79.561)" fill="#ffa8a7"/>
      <path id="Trazado_246104" data-name="Trazado 246104" d="M563.343,171.23a16.289,16.289,0,0,0-6.413.476c-2.669.969-4.008,2.9-5.847,5.707-1.42,2.176-6.413,11.2-6.413,11.2s2.431,6.759,9.337,6.759Z" transform="translate(-252.94 -79.46)" fill="#e0e0e0"/>
      <path id="Trazado_246105" data-name="Trazado 246105" d="M602.054,486.87v-1.133c-.443,1.322-2.513,7.029-5.65,9.9-2.5,2.275-5.9,4.9-6.758,7.432-.9,2.636,4.73,3.523,7.062,3.112,2.71-.476,6.208-2.012,8.113-4.352,1.339-1.642,2.193-3.6,3.154-4.894s3.161-2.743,3.679-4.237c.288-.821-.057-2.628-.451-4.147-.37-1.4-.764-2.931-1.24-2.8v.862a6.3,6.3,0,0,1-3.95,1.338c-1.158.041-3.958-.189-3.95-1.067Z" transform="translate(-273.782 -225.573)" fill="#263238"/>
      <path id="Trazado_246106" data-name="Trazado 246106" d="M597.379,492.017c.772-.69,1.552-1.363,2.259-2.012,2.192-2,3.86-5.387,4.82-7.7a10.788,10.788,0,0,0,.829-4.155v-4.509h7.9v7.531l-.041.016c-.378,1.643-4.007,6.011-6.068,8.861-1.38,1.913-4.007,4.336-7.144,4.755-2.973.394-4.492-.542-2.562-2.792Z" transform="translate(-277.015 -219.955)" fill="#ffa8a7"/>
      <path id="Trazado_246107" data-name="Trazado 246107" d="M549.971,472.32v-1.133c-.443,1.322-2.513,7.029-5.65,9.9-2.5,2.275-5.9,4.9-6.758,7.432-.9,2.636,4.73,3.523,7.062,3.112,2.71-.476,6.208-2.012,8.113-4.352,1.338-1.643,2.193-3.6,3.154-4.894s3.162-2.743,3.679-4.237c.287-.821-.049-2.628-.452-4.147-.37-1.4-.764-2.931-1.24-2.8v.862a6.3,6.3,0,0,1-3.95,1.338c-1.157.041-3.958-.189-3.95-1.067Z" transform="translate(-249.595 -218.816)" fill="#263238"/>
      <path id="Trazado_246108" data-name="Trazado 246108" d="M545.3,477.467c.772-.69,1.552-1.363,2.258-2.012,2.193-2,3.86-5.387,4.82-7.7a10.789,10.789,0,0,0,.829-4.155v-4.509h7.9v7.531l-.041.016c-.378,1.643-4.007,6.011-6.068,8.861-1.38,1.913-4.007,4.336-7.144,4.755-2.973.394-4.492-.542-2.562-2.792Z" transform="translate(-252.828 -213.198)" fill="#ffa8a7"/>
      <path id="Trazado_246109" data-name="Trazado 246109" d="M592.165,256.829c6.126,13.385-.222,60.53-.222,60.53.181,2.168,2.669,6.447,3.589,16.005,1.092,11.292-1.716,39.656-1.716,39.656a8.575,8.575,0,0,1-7.99.32s-7.531-42.71-8.951-53.936c-1.24-9.8-3.605-31.345-3.605-31.345l-3.81,31.3a58.131,58.131,0,0,1,2.135,9.674c.64,6.6-5.757,37.356-5.757,37.356s-2.726,1-7.9.238c0,0-2.266-40.813-2.857-48.771-1-13.361-.386-55.061,2.07-62.969l35.024,1.954Z" transform="translate(-257.562 -118.366)" fill="#455a64"/>
      <path id="Trazado_246110" data-name="Trazado 246110" d="M577.122,301.392l-1.988-12.432s-8.417-1.741-12.235-5.33a21.744,21.744,0,0,0,9.953,6.61l2.233,9.567-1.519,30.787,3.556-29.21Z" transform="translate(-261.406 -131.716)" fill="#37474f"/>
      <path id="Trazado_246111" data-name="Trazado 246111" d="M582.7,171.529c2.333.164,3.1.107,4.8.279,3.375.345,4.188,5.289,5.576,8.2a13.459,13.459,0,0,1,.369,10.125l-5.477,15.833s2.562,6.192,5.535,12.047c-13.739,7.67-30.893,3.638-35.024-1.954-.172-1.191.887-10.462,1.544-16.522-2.422-6.068-3.055-9.92-2.036-13.927,1.9-7.448,8.68-14.3,10.626-14.289l14.083.214Z" transform="translate(-258.908 -79.561)" fill="#f0f0f0"/>
      <path id="Trazado_246112" data-name="Trazado 246112" d="M594.29,107.582l-2.841-.246a2.2,2.2,0,0,0,.846-.846,2.429,2.429,0,0,0-.912-3.227l-1.831,3.326a16.552,16.552,0,0,0-15.2-8.22l-1.47.082a16.58,16.58,0,0,0-15.677,17.442c.5,9.444,1.059,20.012,1.059,20.012l17.064-.911a17.548,17.548,0,0,0,16.588-18.452l-.123-2.5a16.4,16.4,0,0,0-.9-4.558,2.11,2.11,0,0,0,.829.238,2.434,2.434,0,0,0,2.587-2.144Z" transform="translate(-258.751 -45.67)" fill="#455a64"/>
      <path id="Trazado_246113" data-name="Trazado 246113" d="M562.9,126.482a34.047,34.047,0,0,0,.139,5.436c.649,8.5,3.523,10.454,4.936,10.988s4.073.025,6.643-.551v5.026s-3.1,4.442-2.743,6.774,5.338,2.62,8.573.156a15.046,15.046,0,0,0,4.549-6.66V135.9s1.872,2.25,4.64.189,2.628-6.775.87-8.384-5.387-.92-5.937,1.454c0,0-5.986-.5-6.75-10.363-5.568,7.259-14.576,2.02-14.929,7.695Z" transform="translate(-261.378 -55.168)" fill="#ffa8a7"/>
      <path id="Trazado_246114" data-name="Trazado 246114" d="M600.7,134.148l.222,4.213a2.879,2.879,0,0,1-3.022-2.71l-.246-4.7,3.047,3.2Z" transform="translate(-277.547 -60.814)" fill="#455a64"/>
      <path id="Trazado_246115" data-name="Trazado 246115" d="M582.83,136.9a1.073,1.073,0,1,0,1.067-1.117A1.092,1.092,0,0,0,582.83,136.9Z" transform="translate(-270.662 -63.057)" fill="#263238"/>
      <path id="Trazado_246116" data-name="Trazado 246116" d="M580.207,151.959l-2.866,1.084a1.5,1.5,0,0,0,1.954.944A1.6,1.6,0,0,0,580.207,151.959Z" transform="translate(-268.113 -70.569)" fill="#f28f8f"/>
      <path id="Trazado_246117" data-name="Trazado 246117" d="M585.007,128.111l2.513.813a1.272,1.272,0,0,0-.8-1.659,1.385,1.385,0,0,0-1.708.846Z" transform="translate(-271.673 -59.072)" fill="#455a64"/>
      <path id="Trazado_246118" data-name="Trazado 246118" d="M565.643,137.759a1.073,1.073,0,1,0,1.067-1.117A1.092,1.092,0,0,0,565.643,137.759Z" transform="translate(-262.681 -63.456)" fill="#263238"/>
      <path id="Trazado_246119" data-name="Trazado 246119" d="M574.485,137.041l.172,6.455-3.449-.87Z" transform="translate(-265.265 -63.641)" fill="#f28f8f"/>
      <path id="Trazado_246120" data-name="Trazado 246120" d="M584.823,158.71c2.718-.5,8.261-2.423,9.025-4.7a5.824,5.824,0,0,1-1.823,2.949c-1.6,1.527-7.2,3.457-7.2,3.457V158.71Z" transform="translate(-271.588 -71.523)" fill="#f28f8f"/>
      <path id="Trazado_246121" data-name="Trazado 246121" d="M584.949,227.777c4.508-1.067,5.371-2.767,4.18-7.251-.049-.172-.091-.312-.14-.435-.886-2.127-4.41-.862-4.41-.862s1.446-1.8,3.063-4.09,2.341-6.085,2.562-8.745.649-7.99.649-7.99A5.054,5.054,0,0,0,593,192.458l5.42-3.334s.394.279,1.018.706a13.8,13.8,0,0,1-.222,8.557l-5.478,15.833a88.9,88.9,0,0,1,5.535,12.047,35.519,35.519,0,0,1-29.349,1.946,40.075,40.075,0,0,0,15.028-.46Z" transform="translate(-264.667 -87.828)" fill="#e6e6e6"/>
      <path id="Trazado_246122" data-name="Trazado 246122" d="M584.259,133.453l-6.208.328a3.463,3.463,0,0,0-3.531-2.57l-.534.025a3.457,3.457,0,0,0-3.079,2.316,2.99,2.99,0,0,0-2.062-.772,2.56,2.56,0,0,0-1.757.625,3.441,3.441,0,0,0-3.112-1.634l-.534.024a3.466,3.466,0,1,0,.37,6.923l.533-.025a3.47,3.47,0,0,0,3.277-3.646,3.189,3.189,0,0,0-.254-1.084,1.909,1.909,0,0,1,1.478-.6,2.31,2.31,0,0,1,1.881.838l.025-.017a3.375,3.375,0,0,0-.033.706,3.47,3.47,0,0,0,3.646,3.276l.534-.025a3.47,3.47,0,0,0,3.277-3.646c0-.041-.017-.082-.017-.123l5.551-.3a3.157,3.157,0,0,1,.559-.616Zm-19.947,4.656-.533.025a2.882,2.882,0,1,1-.3-5.757l.534-.025a2.882,2.882,0,0,1,.3,5.757Zm10.544-.559-.534.025a2.882,2.882,0,1,1-.3-5.757l.534-.025a2.882,2.882,0,1,1,.3,5.757Z" transform="translate(-260.134 -60.931)" fill="#263238"/>
      <path id="Trazado_246123" data-name="Trazado 246123" d="M509.835,220.6l27.748,7.309L545.22,259.3l-26.377-7.662Z" transform="translate(-236.764 -102.445)" fill="#3b5620"/>
      <path id="Trazado_246124" data-name="Trazado 246124" d="M509.835,220.6l27.748,7.309L545.22,259.3l-26.377-7.662Z" transform="translate(-236.764 -102.445)" opacity="0.25"/>
      <path id="Trazado_246125" data-name="Trazado 246125" d="M544.745,269c.181,1.7,1.364,3.662,4.837,5.322s10.216.731,10.216.731l-.936-3.86-14.108-2.184Z" transform="translate(-252.976 -124.923)" opacity="0.2"/>
      <g id="Grupo_244300" data-name="Grupo 244300" transform="translate(280.224 140.385)" opacity="0.2">
        <path id="Trazado_246126" data-name="Trazado 246126" d="M528.576,262.1a5.621,5.621,0,0,1-5.108,3.375l-.279-.969Z" transform="translate(-523.189 -262.104)"/>
      </g>
      <g id="Grupo_244301" data-name="Grupo 244301" transform="translate(281.194 121.626)" opacity="0.1">
        <path id="Trazado_246127" data-name="Trazado 246127" d="M525.238,228.595l-.23-1.059c-.123-.583,1.5-.607,3.638-.057l4.09,1.059c2.135.55,3.966,1.478,4.1,2.061l.23,1.059-11.817-3.063Z" transform="translate(-525.001 -227.081)"/>
      </g>
      <path id="Trazado_246128" data-name="Trazado 246128" d="M521.465,221.248c-.083-.361.583-.46,1.47-.213l1.618.443s-.484-2.291,3.112-1.487a5.631,5.631,0,0,1,4.377,3.4s.772.222,1.725.493,1.823.788,1.93,1.149l.205.657-14.288-3.761s-.074-.312-.156-.682Z" transform="translate(-242.16 -102.083)" fill="#37474f"/>
      <path id="Trazado_246129" data-name="Trazado 246129" d="M524.773,224.209c1.314.312,1.856.492,2.053,1.388.222,1.026.312,1.782.312,1.782l6.323,1.675s-.3-1.305-.4-1.807.115-.813,1.125-.55l.082-.4-9.912-2.521Z" transform="translate(-243.506 -103.919)" fill="#37474f"/>
      <path id="Trazado_246130" data-name="Trazado 246130" d="M524.532,228.778s-.1-.476-.23-1.059,1.5-.608,3.638-.057l4.089,1.059c2.135.55,3.967,1.478,4.1,2.061l.23,1.059-11.817-3.063Z" transform="translate(-243.479 -105.54)" fill="#37474f"/>
      <path id="Trazado_246131" data-name="Trazado 246131" d="M513.5,238.873s1.035,3.547,1.273,4.394,3.342,2.365,5.387,2.923,4.27,1.223,3.3,4.073c-.886,2.628-4.245,3.228-5.953,3.154s-4.049-1.708-4.968-4.336c-1.175-3.359-.542-6.947-1.01-8.9S512.477,237.7,513.5,238.873Z" transform="translate(-237.509 -110.642)" fill="#ffa8a7"/>
      <path id="Trazado_246132" data-name="Trazado 246132" d="M580.425,172.121c3.6.23,7.317,2.176,7.884,6.5s4.065,27.066,2.693,29.629c-3.178,5.921-24.118,17.18-26.2,18.149a23.538,23.538,0,0,1-9.665,2.6c-3.268.033-7.613-.074-9.805-3.022-1.946-2.619-3.055-7.456,1.355-6.627a47.89,47.89,0,0,0,10.092.443l-.509-2.11a9.948,9.948,0,0,1,3.358.55c2.2.657,4.2-1.231,8.073-3.629a135.646,135.646,0,0,0,12.622-9.633l-3.1-18.994s-.107-8.212,3.211-13.845Z" transform="translate(-252.457 -79.932)" fill="#ffa8a7"/>
      <path id="Trazado_246133" data-name="Trazado 246133" d="M607.92,172.015a7.653,7.653,0,0,1,4.04.361c2.11.805,3.991,1.881,4.87,6.134s2.611,19.824,2.611,19.824-4.607,3.334-12.112,1.749l-2.693-14.124S602.532,176.072,607.92,172.015Z" transform="translate(-280.6 -79.826)" fill="#e0e0e0"/>
      <path id="Trazado_246134" data-name="Trazado 246134" d="M132.422,268.586,220.216,217.9v12.162l-87.794,50.684Z" transform="translate(-61.496 -101.192)" fill="#455a64"/>
      <path id="Trazado_246135" data-name="Trazado 246135" d="M138.984,275.89v4.057l80.765-46.636v-4.048Z" transform="translate(-64.543 -106.468)" fill="#263238"/>
      <path id="Trazado_246136" data-name="Trazado 246136" d="M129.382,266.827l-3.506-2.028,87.785-50.684,3.515,2.028Z" transform="translate(-58.456 -99.433)" fill="#37474f"/>
      <path id="Trazado_246137" data-name="Trazado 246137" d="M125.876,308.744l3.506,2.028v12.161l-3.506-2.02Z" transform="translate(-58.456 -143.378)" fill="#263238"/>
      <path id="Trazado_246138" data-name="Trazado 246138" d="M537.494,606.109l-77.258,44.583v-1.98l77.25-44.582Z" transform="translate(-213.73 -280.554)" fill="#37474f"/>
      <path id="Trazado_246139" data-name="Trazado 246139" d="M237.305,311.919l-17.015,9.821-10.461,6.036q-.505.259-.986.567a13.871,13.871,0,0,0-6.652,11.932v48.9a13.867,13.867,0,0,1-5.617,11.218,14.177,14.177,0,0,1-8.467,2.841,13.955,13.955,0,0,1-7-1.905,42.135,42.135,0,0,1-21.064-36.494V314.112a42.12,42.12,0,0,0-21.064-36.486l77.258-44.608a42.159,42.159,0,0,1,21.072,36.5V311.9Z" transform="translate(-64.543 -108.212)" fill="#f5f5f5"/>
      <path id="Trazado_246140" data-name="Trazado 246140" d="M265.413,488.695a42.109,42.109,0,0,1-21.063-36.478V403.282a42.05,42.05,0,0,0-3.318-16.367,43.951,43.951,0,0,0-2.332-4.705A42.131,42.131,0,0,0,223.278,366.8a14.04,14.04,0,0,0-21.056,12.17v-.008l-.016,48.9v-.017a14.05,14.05,0,0,1-21.064,12.178,42.135,42.135,0,0,1-21.063-36.494V352.8a42.122,42.122,0,0,0-21.064-36.486v2.02A40.5,40.5,0,0,1,158.354,352.8v50.725a43.991,43.991,0,0,0,21.934,37.988,15.624,15.624,0,0,0,15.775,0c.3-.172.6-.354.887-.551l.025-.016a15.589,15.589,0,0,0,6.964-13.09v-48.9a12.326,12.326,0,0,1,18.485-10.668,40.5,40.5,0,0,1,20.2,34.983v48.935A44.017,44.017,0,0,0,264.559,490.2l46.512,26.837v-1.979l-45.642-26.36Z" transform="translate(-64.558 -146.896)" fill="#455a64"/>
      <path id="Trazado_246141" data-name="Trazado 246141" d="M449.724,473.923,372.466,518.5l-45.642-26.36A42.108,42.108,0,0,1,305.76,455.66V406.725a42.05,42.05,0,0,0-3.318-16.366,43.853,43.853,0,0,0-2.332-4.705,42.128,42.128,0,0,0-15.422-15.414,13.866,13.866,0,0,0-13.435-.336l10.461-6.036,21.047-12.154,45.051-26.007.115-.066a13.907,13.907,0,0,1,14.018.009,42.123,42.123,0,0,1,21.064,36.486v48.927a42.142,42.142,0,0,0,21.071,36.494l45.642,26.36Z" transform="translate(-125.968 -150.347)" fill="#fafafa"/>
      <path id="Trazado_246142" data-name="Trazado 246142" d="M292.065,446.885a40.5,40.5,0,0,0-20.2-34.983,12.318,12.318,0,0,0-18.477,10.668v48.9a15.626,15.626,0,0,1-6.98,13.09l-.025.016c-.3.2-.591.378-.887.551l46.569-26.886Z" transform="translate(-114.007 -190.506)" fill="#e0e0e0"/>
      <path id="Trazado_246143" data-name="Trazado 246143" d="M292.065,446.885a40.5,40.5,0,0,0-20.2-34.983,12.318,12.318,0,0,0-18.477,10.668v48.9a15.626,15.626,0,0,1-6.98,13.09l-.025.016c-.3.2-.591.378-.887.551l46.569-26.886Z" transform="translate(-114.007 -190.506)" opacity="0.15"/>
      <g id="Grupo_244304" data-name="Grupo 244304" transform="translate(87.105 132.425)">
        <path id="Trazado_246144" data-name="Trazado 246144" d="M163.687,284.487a6.01,6.01,0,0,0,6.561.493l55.127-31.83c2.07-1.191,2.554-3.424.936-4.82s-4.714-1.42-6.783-.222l-55.151,31.846c-2.07,1.191-2.307,3.145-.681,4.533Z" transform="translate(-162.629 -247.243)" fill="#3b5620"/>
        <path id="Trazado_246145" data-name="Trazado 246145" d="M247.046,280.338a.612.612,0,0,1-.312-1.141l25.777-14.88a.613.613,0,0,1,.616,1.059l-25.777,14.88A.606.606,0,0,1,247.046,280.338Z" transform="translate(-201.545 -255.133)" opacity="0.4"/>
        <path id="Trazado_246146" data-name="Trazado 246146" d="M250.756,286.533a.612.612,0,0,1-.312-1.142l25.777-14.88a.613.613,0,1,1,.616,1.059l-25.777,14.88A.6.6,0,0,1,250.756,286.533Z" transform="translate(-203.268 -258.01)" opacity="0.4"/>
        <path id="Trazado_246147" data-name="Trazado 246147" d="M253.884,292.987a.612.612,0,0,1-.312-1.141l25.777-14.88a.613.613,0,0,1,.616,1.059L254.188,292.9A.606.606,0,0,1,253.884,292.987Z" transform="translate(-204.72 -261.007)" opacity="0.4"/>
        <path id="Trazado_246148" data-name="Trazado 246148" d="M256.383,299.69a.612.612,0,0,1-.312-1.141l25.777-14.88a.621.621,0,0,1,.837.222.614.614,0,0,1-.221.837l-25.778,14.88A.605.605,0,0,1,256.383,299.69Z" transform="translate(-205.881 -264.122)" opacity="0.4"/>
        <path id="Trazado_246149" data-name="Trazado 246149" d="M258.223,306.264a.612.612,0,0,1-.312-1.141l25.777-14.88a.613.613,0,0,1,.616,1.059l-25.777,14.88A.606.606,0,0,1,258.223,306.264Z" transform="translate(-206.735 -267.173)" opacity="0.4"/>
        <path id="Trazado_246150" data-name="Trazado 246150" d="M259.465,313.336a.612.612,0,0,1-.312-1.142l25.777-14.88a.622.622,0,0,1,.838.222.615.615,0,0,1-.222.838l-25.777,14.88A.6.6,0,0,1,259.465,313.336Z" transform="translate(-207.312 -270.459)" opacity="0.4"/>
        <path id="Trazado_246151" data-name="Trazado 246151" d="M260.139,320.891a.612.612,0,0,1-.312-1.141L285.6,304.87a.613.613,0,0,1,.616,1.059l-25.777,14.88A.608.608,0,0,1,260.139,320.891Z" transform="translate(-207.626 -273.966)" opacity="0.4"/>
        <path id="Trazado_246152" data-name="Trazado 246152" d="M191.669,356.582a.437.437,0,0,1-.378-.214.432.432,0,0,1,.156-.591l62.542-36.107a.432.432,0,0,1,.435.747l-62.542,36.108A.4.4,0,0,1,191.669,356.582Z" transform="translate(-175.911 -280.85)" opacity="0.4"/>
        <path id="Trazado_246153" data-name="Trazado 246153" d="M191.669,363.788a.437.437,0,0,1-.378-.214.432.432,0,0,1,.156-.591l62.542-36.107a.432.432,0,0,1,.435.747l-62.542,36.107A.4.4,0,0,1,191.669,363.788Z" transform="translate(-175.911 -284.196)" opacity="0.4"/>
        <path id="Trazado_246154" data-name="Trazado 246154" d="M191.669,370.994a.437.437,0,0,1-.378-.214.432.432,0,0,1,.156-.591l62.542-36.107a.432.432,0,0,1,.435.747l-62.542,36.108A.4.4,0,0,1,191.669,370.994Z" transform="translate(-175.911 -287.543)" opacity="0.4"/>
        <path id="Trazado_246155" data-name="Trazado 246155" d="M191.669,378.2a.438.438,0,0,1-.378-.213.431.431,0,0,1,.156-.591l62.542-36.108a.432.432,0,0,1,.435.747l-62.542,36.108A.4.4,0,0,1,191.669,378.2Z" transform="translate(-175.911 -290.889)" opacity="0.4"/>
        <path id="Trazado_246156" data-name="Trazado 246156" d="M191.669,360.842a.437.437,0,0,1-.378-.214.432.432,0,0,1,.156-.591l33.11-19.117a.433.433,0,0,1,.435.748l-33.111,19.117A.4.4,0,0,1,191.669,360.842Z" transform="translate(-175.911 -290.718)" opacity="0.4"/>
        <path id="Trazado_246157" data-name="Trazado 246157" d="M190.211,334.439a41.379,41.379,0,0,1,4.5,16.391.626.626,0,0,0,1.018.534l1.839-1.059a1.873,1.873,0,0,0,.862-1.618,43.8,43.8,0,0,0-1.552-8.812,47.512,47.512,0,0,0-2.965-7.571,1.041,1.041,0,0,0-1.454-.41l-1.807,1.043A1.148,1.148,0,0,0,190.211,334.439Z" transform="translate(-175.381 -286.488)" fill="#3b5620"/>
        <path id="Trazado_246158" data-name="Trazado 246158" d="M200.364,320.282a43.589,43.589,0,0,1,4.434,9.444,41.01,41.01,0,0,1,1.979,10.339.619.619,0,0,0,1,.542l1.839-1.059a1.9,1.9,0,0,0,.87-1.618,44.288,44.288,0,0,0-2.012-10.314,42.238,42.238,0,0,0-4.4-9.386,1.176,1.176,0,0,0-1.536-.378l-1.831,1.018a.98.98,0,0,0-.345,1.42Z" transform="translate(-180.073 -279.968)" fill="#3b5620"/>
        <path id="Trazado_246159" data-name="Trazado 246159" d="M225.514,329.143l-1.807,1.043a1.391,1.391,0,0,0-.6,1.568,42.094,42.094,0,0,1,1.642,9.313.614.614,0,0,0,1,.533l1.839-1.059a1.9,1.9,0,0,0,.871-1.618,43.643,43.643,0,0,0-1.7-9.287.824.824,0,0,0-1.257-.493Z" transform="translate(-190.688 -285.215)" fill="#3b5620"/>
        <path id="Trazado_246160" data-name="Trazado 246160" d="M238.1,315.013a.926.926,0,0,0-1.355-.468l-1.823,1.035a1.266,1.266,0,0,0-.525,1.536c.328.83.649,1.683.953,2.578a41.015,41.015,0,0,1,1.979,10.339.618.618,0,0,0,1,.542l1.839-1.059a1.9,1.9,0,0,0,.871-1.618,44.284,44.284,0,0,0-2.012-10.314c-.287-.87-.6-1.725-.936-2.554Z" transform="translate(-195.919 -278.435)" fill="#3b5620"/>
        <path id="Trazado_246161" data-name="Trazado 246161" d="M185.047,346.755a.308.308,0,0,0-.419-.115l-.772.443c-.172-1.059-.37-2.11-.608-3.153l1.043-.6a.307.307,0,1,0-.3-.533l-.9.517c-.263-1.043-.55-2.07-.887-3.088l.994-.575a.307.307,0,1,0-.3-.534l-.9.517c-.345-.986-.706-1.954-1.125-2.907a.835.835,0,0,1-.033-.082l.986-.567a.307.307,0,0,0-.3-.534l-.928.534c-.427-.961-.9-1.921-1.42-2.874l.977-.567a.307.307,0,1,0-.3-.533l-.969.558c-.517-.92-1.084-1.823-1.683-2.726l1.1-.633a.307.307,0,1,0-.3-.533l-1.141.657c-.649-.944-1.338-1.88-2.078-2.8a.3.3,0,0,0-.477.378c.715.9,1.388,1.807,2.02,2.727l-1.051.607a.308.308,0,0,0-.115.419.3.3,0,0,0,.263.156.368.368,0,0,0,.156-.041l1.092-.633c.6.9,1.166,1.807,1.683,2.727l-1.223.706a.308.308,0,0,0-.115.419.3.3,0,0,0,.263.156.368.368,0,0,0,.156-.041l1.215-.7c.517.953.994,1.905,1.42,2.875l-1.265.731a.307.307,0,0,0-.115.419.3.3,0,0,0,.262.156.369.369,0,0,0,.156-.041l1.207-.7c.419.985.8,1.979,1.142,2.989l-1.29.748a.307.307,0,0,0-.115.418.3.3,0,0,0,.262.156.37.37,0,0,0,.156-.041l1.191-.69c.328,1.01.616,2.045.87,3.088l-1.281.739a.307.307,0,0,0-.115.419.3.3,0,0,0,.262.156.369.369,0,0,0,.156-.041l1.133-.657c.238,1.035.427,2.094.591,3.162l-1.388.8a.308.308,0,0,0-.115.419.3.3,0,0,0,.263.156.367.367,0,0,0,.156-.041l1.183-.682c.181,1.289.3,2.6.37,3.934a.3.3,0,0,0,.3.288h.017a.3.3,0,0,0,.288-.32c-.074-1.429-.214-2.841-.419-4.229l.969-.559a.308.308,0,0,0,.115-.419Z" transform="translate(-168.016 -284.055)" opacity="0.4"/>
        <g id="Grupo_244302" data-name="Grupo 244302" transform="translate(19.436 75.371)" opacity="0.15">
          <path id="Trazado_246162" data-name="Trazado 246162" d="M200.022,435.677a50.6,50.6,0,0,1-.28-6.964c.255-.887,3.983-13.689,10.84-17.68a4.707,4.707,0,0,1,1.355-.567,2.809,2.809,0,0,1,.559-.065c1.823,0,2.636,2.529,3.424,4.976a23.663,23.663,0,0,0,1.084,2.94c.468.986,1.265,2.291,2.776,2.291a3.81,3.81,0,0,0,1.881-.583c3.3-1.88,4.245-6.972,5.255-12.359a60.948,60.948,0,0,1,1.618-7.136c1-3.145,2.3-5.091,4.081-6.126a3.2,3.2,0,0,1,1.528-.5c1.914,0,2.636,3.408,3.334,6.7a27.682,27.682,0,0,0,1.388,5.042c.7,1.585,1.618,2.357,2.8,2.357a3.973,3.973,0,0,0,1.979-.624c4.049-2.341,5.272-6.3,6.455-10.134,1.01-3.252,1.954-6.323,4.623-7.875a4.037,4.037,0,0,1,1.987-.624,2.4,2.4,0,0,1,.871.156,16.277,16.277,0,0,1,.131,1.831l.041,7.76c.074,1.487.172,2.653.312,3.654l-58.058,33.521Z" transform="translate(-199.291 -388.327)" fill="#3b5620"/>
          <path id="Trazado_246163" data-name="Trazado 246163" d="M258.174,402.023c-.172-1.158-.279-2.472-.345-3.884l-.041-7.752a17.739,17.739,0,0,0-.164-2.135,2.987,2.987,0,0,0-1.273-.288,4.371,4.371,0,0,0-2.2.682c-5.954,3.465-3.679,13.738-11.086,18.009a3.625,3.625,0,0,1-1.757.567c-1.1,0-1.848-.838-2.406-2.1-1.741-3.925-1.692-12.006-5.125-12.006a3.524,3.524,0,0,0-1.741.558c-2.119,1.224-3.391,3.573-4.278,6.373-2.2,6.914-2.078,16.629-6.676,19.249a3.459,3.459,0,0,1-1.667.525c-1.092,0-1.815-.846-2.39-2.045-1.42-2.981-1.921-8.171-4.894-8.171a3.212,3.212,0,0,0-.657.074,5.121,5.121,0,0,0-1.478.616c-7.317,4.254-11.053,17.992-11.053,17.992a50.079,50.079,0,0,0,.353,7.728l.846-.493c-.041-.238-.082-.452-.132-.92a48.674,48.674,0,0,1-.205-6.192c.345-1.207,4.015-13.525,10.634-17.376a4.3,4.3,0,0,1,1.232-.517,2.434,2.434,0,0,1,.46-.057c1.5,0,2.267,2.381,3.014,4.681a25.534,25.534,0,0,0,1.1,3c.3.624,1.207,2.538,3.17,2.538a4.178,4.178,0,0,0,2.094-.641c3.474-1.979,4.443-7.161,5.461-12.655a61.078,61.078,0,0,1,1.609-7.087c.969-3.039,2.2-4.911,3.884-5.888a2.755,2.755,0,0,1,1.314-.443c1.561,0,2.283,3.375,2.915,6.356a28.113,28.113,0,0,0,1.412,5.132c.764,1.741,1.84,2.62,3.195,2.62a4.367,4.367,0,0,0,2.192-.681c4.2-2.423,5.5-6.652,6.66-10.38.977-3.17,1.905-6.159,4.435-7.629a3.564,3.564,0,0,1,1.765-.566,2.261,2.261,0,0,1,.476.049c.091.878.091,1.494.091,1.511l.041,7.793c.065,1.339.156,2.431.271,3.383a8.17,8.17,0,0,0,.164.9l.772-.443" transform="translate(-198.917 -387.964)"/>
        </g>
        <g id="Grupo_244303" data-name="Grupo 244303" transform="translate(19.439 69.533)" opacity="0.4">
          <path id="Trazado_246164" data-name="Trazado 246164" d="M198.944,419.314v3.917a49.831,49.831,0,0,0,.353,7.727l58.871-33.989c-.172-1.158-.279-2.472-.344-3.884l-.041-7.752s0-11.579-7.358-7.334c-7.735,4.468-5.543,18.641-11.037,21.811-5.543,3.194-3.679-9.46-11.037-5.207s-3.679,13.706-11.037,17.951-3.679-17.179-11.037-12.934S198.919,414.42,198.944,419.314Z" transform="translate(-198.921 -377.064)" fill="#3b5620"/>
        </g>
        <path id="Trazado_246165" data-name="Trazado 246165" d="M193.672,457.215a.3.3,0,0,1-.262-.156.307.307,0,0,1,.115-.419l62.624-35.853a.307.307,0,0,1,.3.534l-62.624,35.853A.34.34,0,0,1,193.672,457.215Z" transform="translate(-176.904 -327.817)" opacity="0.4"/>
        <path id="Trazado_246166" data-name="Trazado 246166" d="M212.391,421.968a.3.3,0,0,1-.3-.3v-.616a.3.3,0,0,1,.3-.3.309.309,0,0,1,.3.3v.616A.3.3,0,0,1,212.391,421.968Z" transform="translate(-185.597 -327.816)" fill="#fff"/>
        <path id="Trazado_246167" data-name="Trazado 246167" d="M212.586,447.065a.31.31,0,0,1-.3-.279c-.033-.394-.066-.788-.091-1.183a.312.312,0,0,1,.288-.329.288.288,0,0,1,.328.288c.025.394.057.78.091,1.166a.307.307,0,0,1-.28.337h-.033Zm-.14-2.349a.3.3,0,0,1-.3-.3c0-.337-.008-.731-.017-1.183a.311.311,0,0,1,.3-.312c.18-.033.3.132.312.3,0,.443,0,.838.017,1.175a.305.305,0,0,1-.3.312Zm-.016-2.357a.309.309,0,0,1-.3-.3v-1.182a.3.3,0,0,1,.3-.3.3.3,0,0,1,.3.3v1.174A.309.309,0,0,1,212.43,442.359ZM212.422,440a.3.3,0,0,1-.3-.3v-1.174a.3.3,0,0,1,.3-.3.3.3,0,0,1,.3.3V439.7A.3.3,0,0,1,212.422,440Zm0-2.357a.3.3,0,0,1-.3-.3v-1.175a.3.3,0,0,1,.3-.3.309.309,0,0,1,.3.3v1.175A.3.3,0,0,1,212.422,437.645Zm0-2.357a.3.3,0,0,1-.3-.3V433.81a.3.3,0,0,1,.3-.3.308.308,0,0,1,.3.3v1.175A.3.3,0,0,1,212.422,435.289Zm0-2.357a.3.3,0,0,1-.3-.3v-1.174a.3.3,0,0,1,.3-.3.309.309,0,0,1,.3.3v1.174A.3.3,0,0,1,212.422,432.932Zm0-2.357a.3.3,0,0,1-.3-.3V429.1a.3.3,0,0,1,.3-.3.309.309,0,0,1,.3.3v1.183a.3.3,0,0,1-.3.3Zm0-2.357a.3.3,0,0,1-.3-.3V426.74a.3.3,0,0,1,.3-.3.309.309,0,0,1,.3.3v1.183a.3.3,0,0,1-.3.3Zm0-2.357a.3.3,0,0,1-.3-.3v-1.174a.312.312,0,0,1,.312-.312.3.3,0,0,1,.3.3v1.174a.305.305,0,0,1-.312.3Z" transform="translate(-185.611 -329.361)" fill="#fff"/>
        <path id="Trazado_246168" data-name="Trazado 246168" d="M213.031,469.273a.315.315,0,0,1-.3-.262l-.074-.616a.3.3,0,0,1,.271-.337.3.3,0,0,1,.336.271c.025.2.049.4.074.6a.311.311,0,0,1-.262.345Z" transform="translate(-185.859 -349.787)" fill="#fff"/>
        <path id="Trazado_246169" data-name="Trazado 246169" d="M294.831,379.452a.3.3,0,0,1-.3-.3v-.616a.308.308,0,0,1,.3-.3.3.3,0,0,1,.3.3v.616A.3.3,0,0,1,294.831,379.452Z" transform="translate(-223.881 -308.072)" fill="#fff"/>
        <path id="Trazado_246170" data-name="Trazado 246170" d="M295.019,404.556a.31.31,0,0,1-.3-.279c-.033-.394-.066-.788-.091-1.183a.311.311,0,0,1,.288-.328.3.3,0,0,1,.328.288c.025.394.057.78.091,1.166a.3.3,0,0,1-.28.328h-.025Zm-.14-2.349a.3.3,0,0,1-.3-.3c0-.337-.008-.731-.017-1.183a.3.3,0,1,1,.608-.008c0,.443,0,.838.017,1.174a.306.306,0,0,1-.3.312Zm-.025-2.357a.309.309,0,0,1-.3-.3v-1.183a.3.3,0,0,1,.3-.3.3.3,0,0,1,.3.3v1.174A.309.309,0,0,1,294.855,399.851Zm-.008-2.357a.3.3,0,0,1-.3-.3v-1.175a.3.3,0,0,1,.3-.3.3.3,0,0,1,.3.3v1.175A.3.3,0,0,1,294.847,397.494Zm0-2.357a.3.3,0,0,1-.3-.3v-1.174a.3.3,0,0,1,.3-.3.308.308,0,0,1,.3.3v1.174A.3.3,0,0,1,294.847,395.137Zm0-2.357a.3.3,0,0,1-.3-.3V391.3a.3.3,0,0,1,.3-.3.308.308,0,0,1,.3.3v1.175A.3.3,0,0,1,294.847,392.78Zm0-2.357a.3.3,0,0,1-.3-.3v-1.175a.3.3,0,0,1,.3-.3.308.308,0,0,1,.3.3v1.175A.3.3,0,0,1,294.847,390.424Zm0-2.357a.3.3,0,0,1-.3-.3v-1.174a.3.3,0,0,1,.3-.3.308.308,0,0,1,.3.3v1.183a.3.3,0,0,1-.3.3Zm0-2.357a.3.3,0,0,1-.3-.3v-1.174a.3.3,0,0,1,.3-.3.308.308,0,0,1,.3.3v1.182a.3.3,0,0,1-.3.3Zm0-2.357a.3.3,0,0,1-.3-.3v-1.175a.3.3,0,0,1,.3-.3.308.308,0,0,1,.3.3v1.183a.3.3,0,0,1-.3.3Z" transform="translate(-223.889 -309.624)" fill="#fff"/>
        <path id="Trazado_246171" data-name="Trazado 246171" d="M295.471,426.756a.316.316,0,0,1-.3-.263c-.025-.205-.049-.411-.074-.608a.317.317,0,0,1,.262-.345.3.3,0,0,1,.345.263c.025.205.049.4.074.6a.311.311,0,0,1-.262.345h-.041Z" transform="translate(-224.144 -330.042)" fill="#fff"/>
        <path id="Trazado_246172" data-name="Trazado 246172" d="M253.6,412.446a.3.3,0,0,1-.3-.3v-.616a.3.3,0,0,1,.3-.3.308.308,0,0,1,.3.3v.616A.3.3,0,0,1,253.6,412.446Z" transform="translate(-204.736 -323.394)" fill="#fff"/>
        <path id="Trazado_246173" data-name="Trazado 246173" d="M253.784,430.049a.3.3,0,0,1-.3-.28c-.033-.386-.066-.764-.091-1.158a.311.311,0,0,1,.288-.328.292.292,0,0,1,.328.288c.025.378.058.764.091,1.133a.305.305,0,0,1-.279.336h-.025Zm-.148-2.291a.3.3,0,0,1-.3-.3l-.017-1.15a.3.3,0,1,1,.608-.008l.017,1.149A.311.311,0,0,1,253.636,427.758Zm-.025-2.3a.309.309,0,0,1-.3-.3v-1.15a.308.308,0,0,1,.3-.312.3.3,0,0,1,.3.3v1.149A.309.309,0,0,1,253.612,425.459Zm-.008-2.3a.3.3,0,0,1-.3-.3v-1.15a.3.3,0,0,1,.3-.3.3.3,0,0,1,.3.3v1.15A.3.3,0,0,1,253.6,423.159Zm0-2.3a.3.3,0,0,1-.3-.3v-1.15a.3.3,0,0,1,.3-.3.308.308,0,0,1,.3.3v1.15A.3.3,0,0,1,253.6,420.86Zm0-2.3a.3.3,0,0,1-.3-.3v-1.15a.3.3,0,0,1,.3-.3.308.308,0,0,1,.3.3v1.15A.3.3,0,0,1,253.6,418.561Zm0-2.3a.3.3,0,0,1-.3-.3v-1.15a.3.3,0,0,1,.3-.3.308.308,0,0,1,.3.3v1.15A.3.3,0,0,1,253.6,416.261Z" transform="translate(-204.736 -324.918)" fill="#fff"/>
        <path id="Trazado_246174" data-name="Trazado 246174" d="M254.243,445.737a.315.315,0,0,1-.3-.262l-.074-.616a.3.3,0,0,1,.271-.337.3.3,0,0,1,.337.271c.025.205.049.4.074.608a.311.311,0,0,1-.263.345h-.041Z" transform="translate(-204.998 -338.856)" fill="#fff"/>
        <path id="Trazado_246175" data-name="Trazado 246175" d="M211.736,416.775c.583-.336,1.059-.115,1.059.5A2.243,2.243,0,0,1,211.736,419c-.583.337-1.059.115-1.059-.5A2.243,2.243,0,0,1,211.736,416.775Z" transform="translate(-184.942 -325.9)" opacity="0.4"/>
        <path id="Trazado_246176" data-name="Trazado 246176" d="M252.948,407.239c.583-.337,1.059-.115,1.059.5a2.243,2.243,0,0,1-1.059,1.725c-.583.336-1.059.115-1.059-.5A2.242,2.242,0,0,1,252.948,407.239Z" transform="translate(-204.08 -321.471)" opacity="0.4"/>
        <path id="Trazado_246177" data-name="Trazado 246177" d="M294.161,376.59c.583-.336,1.059-.115,1.059.5a2.243,2.243,0,0,1-1.059,1.725c-.583.337-1.059.115-1.059-.5A2.244,2.244,0,0,1,294.161,376.59Z" transform="translate(-223.219 -307.238)" opacity="0.4"/>
        <path id="Trazado_246178" data-name="Trazado 246178" d="M192.088,423.663a.307.307,0,0,0-.3-.534l-.8.46v-3.162l1.109-.641a.307.307,0,1,0-.3-.533l-.805.46v-3.326a.3.3,0,0,0-.3-.3.308.308,0,0,0-.3.3v3.687l-1.109.641a.308.308,0,0,0-.115.419.3.3,0,0,0,.263.156.368.368,0,0,0,.156-.041l.805-.468v3.162l-1.109.641a.308.308,0,0,0-.115.419.3.3,0,0,0,.263.156.367.367,0,0,0,.156-.041l.805-.468v3.162l-1.109.64a.308.308,0,0,0-.115.419.3.3,0,0,0,.263.156.369.369,0,0,0,.156-.041l.805-.468v3.162l-1.109.641a.308.308,0,0,0-.115.419.3.3,0,0,0,.263.156.368.368,0,0,0,.156-.041l.805-.468v3.162l-1.109.641a.308.308,0,0,0-.115.419.3.3,0,0,0,.263.156.368.368,0,0,0,.156-.041l.805-.468v3.162l-1.117.641a.307.307,0,0,0-.115.418.3.3,0,0,0,.262.156.371.371,0,0,0,.156-.041l.8-.468v3.162l-1.117.641a.308.308,0,0,0-.115.419.3.3,0,0,0,.263.156.368.368,0,0,0,.156-.041l.805-.46c-.017,1.051-.008,2.1.033,3.137l-1.149.665a.308.308,0,0,0-.115.419.3.3,0,0,0,.263.156.368.368,0,0,0,.156-.041l.879-.509c.065,1.149.164,2.291.3,3.416a.309.309,0,0,0,.3.271h.041a.306.306,0,0,0,.262-.345c-.156-1.215-.262-2.439-.32-3.679l1.051-.608a.307.307,0,1,0-.3-.533l-.772.443c-.041-1.043-.049-2.094-.025-3.145l1.1-.641a.307.307,0,0,0-.3-.534l-.8.46v-3.162l1.1-.641a.307.307,0,1,0-.3-.534l-.8.46V435.89l1.1-.641a.307.307,0,1,0-.3-.533l-.8.46v-3.161l1.1-.641a.307.307,0,1,0-.3-.534l-.8.46v-3.162l1.109-.641a.307.307,0,0,0-.3-.534l-.8.46v-3.162l1.109-.641Z" transform="translate(-174.918 -325.651)" opacity="0.4"/>
        <path id="Trazado_246179" data-name="Trazado 246179" d="M280.562,460.258,221.74,494.215c-2.07,1.191-5.067,1.051-6.545-.468s-.878-3.843,1.191-5.042l58.806-33.948a5.381,5.381,0,0,1,6.307.715C282.985,456.99,282.632,459.068,280.562,460.258Z" transform="translate(-186.66 -343.286)" fill="#3b5620"/>
        <path id="Trazado_246180" data-name="Trazado 246180" d="M195.579,462.569a.437.437,0,0,1-.378-.213.432.432,0,0,1,.156-.591l66.254-38.251a.432.432,0,1,1,.435.747l-66.254,38.251A.4.4,0,0,1,195.579,462.569Z" transform="translate(-177.727 -329.074)" opacity="0.4"/>
        <path id="Trazado_246181" data-name="Trazado 246181" d="M198.109,469.247a.432.432,0,0,1-.222-.805l66.262-38.259a.432.432,0,1,1,.435.747L198.322,469.19A.4.4,0,0,1,198.109,469.247Z" transform="translate(-178.902 -332.171)" opacity="0.4"/>
        <path id="Trazado_246182" data-name="Trazado 246182" d="M201.236,475.656a.437.437,0,0,1-.378-.214.432.432,0,0,1,.156-.591l66.27-38.259a.432.432,0,1,1,.435.748L201.449,475.6A.4.4,0,0,1,201.236,475.656Z" transform="translate(-180.354 -335.147)" opacity="0.4"/>
        <path id="Trazado_246183" data-name="Trazado 246183" d="M204.916,481.751a.432.432,0,0,1-.222-.805l66.279-38.268a.432.432,0,1,1,.435.747l-66.278,38.268A.4.4,0,0,1,204.916,481.751Z" transform="translate(-182.063 -337.974)" opacity="0.4"/>
      </g>
      <path id="Trazado_246184" data-name="Trazado 246184" d="M311.793,368.825l54.519-31.468c2.07-1.191,5.362-1.905,7.21-1.158s1.5,2.686-.567,3.876L317.8,371.913a7.569,7.569,0,0,1-6.652.427c-1.651-.887-1.42-2.324.649-3.523Z" transform="translate(-143.991 -155.987)" fill="#3b5620"/>
      <path id="Trazado_246185" data-name="Trazado 246185" d="M324.72,381.339a.437.437,0,0,1-.378-.213.431.431,0,0,1,.156-.591l62.837-36.272a.432.432,0,1,1,.435.747l-62.837,36.272A.4.4,0,0,1,324.72,381.339Z" transform="translate(-150.594 -159.845)" opacity="0.4"/>
      <path id="Trazado_246186" data-name="Trazado 246186" d="M329.58,386.533a.437.437,0,0,1-.378-.214.432.432,0,0,1,.156-.591l62.936-36.33a.432.432,0,0,1,.435.747l-62.937,36.33A.394.394,0,0,1,329.58,386.533Z" transform="translate(-152.851 -162.23)" opacity="0.4"/>
      <path id="Trazado_246187" data-name="Trazado 246187" d="M342.166,452.856a.3.3,0,0,1-.3-.3v-3.334q.025-2.512-.049-4.2l-.016-.279a40.647,40.647,0,0,0-2.242-11.365,31.693,31.693,0,0,0-5.666-9.9.3.3,0,1,1,.476-.378,32.277,32.277,0,0,1,5.765,10.084A41.351,41.351,0,0,1,342.4,444.71l.017.288q.074,1.708.066,4.237v3.334a.318.318,0,0,1-.32.3Z" transform="translate(-155.024 -196.429)" opacity="0.4"/>
      <path id="Trazado_246188" data-name="Trazado 246188" d="M347.291,415.171c-.279-.492-.583-.977-.9-1.445a.969.969,0,0,1,.312-1.42l24.011-13.862a1.145,1.145,0,0,1,1.528.362c.288.476.559.969.83,1.486a1.167,1.167,0,0,1-.46,1.511l-23.88,13.788a1.051,1.051,0,0,1-1.446-.41Z" transform="translate(-160.774 -184.964)" fill="#3b5620"/>
      <path id="Trazado_246189" data-name="Trazado 246189" d="M352.532,410.14c.181.55.345,1.1.493,1.634a.783.783,0,0,0,1.207.509L411.2,379.4a1.487,1.487,0,0,0,.665-1.585c-.156-.567-.32-1.117-.484-1.642a.849.849,0,0,0-1.281-.485L353.115,408.58a1.38,1.38,0,0,0-.591,1.56Z" transform="translate(-163.683 -174.406)" fill="#3b5620"/>
      <path id="Trazado_246190" data-name="Trazado 246190" d="M352.532,410.14c.181.55.345,1.1.493,1.634a.783.783,0,0,0,1.207.509L411.2,379.4a1.487,1.487,0,0,0,.665-1.585c-.156-.567-.32-1.117-.484-1.642a.849.849,0,0,0-1.281-.485L353.115,408.58a1.38,1.38,0,0,0-.591,1.56Z" transform="translate(-163.683 -174.406)" fill="#fff" opacity="0.7"/>
      <path id="Trazado_246191" data-name="Trazado 246191" d="M355.679,433.469c.074.607.139,1.2.18,1.765a.619.619,0,0,0,1,.542l38.6-22.279a1.872,1.872,0,0,0,.862-1.618c-.049-.591-.107-1.183-.181-1.766a.676.676,0,0,0-1.084-.533l-38.58,22.271a1.75,1.75,0,0,0-.8,1.61Z" transform="translate(-165.17 -190.147)" fill="#3b5620"/>
      <path id="Trazado_246192" data-name="Trazado 246192" d="M355.679,433.469c.074.607.139,1.2.18,1.765a.619.619,0,0,0,1,.542l38.6-22.279a1.872,1.872,0,0,0,.862-1.618c-.049-.591-.107-1.183-.181-1.766a.676.676,0,0,0-1.084-.533l-38.58,22.271a1.75,1.75,0,0,0-.8,1.61Z" transform="translate(-165.17 -190.147)" opacity="0.15"/>
      <path id="Trazado_246193" data-name="Trazado 246193" d="M356.269,459.2v1.733c0,.6.419.838.936.542l16.522-9.534a2.066,2.066,0,0,0,.936-1.618V448.59c0-.6-.419-.838-.936-.542l-16.522,9.534A2.067,2.067,0,0,0,356.269,459.2Z" transform="translate(-165.449 -208.011)" fill="#3b5620"/>
      <path id="Trazado_246194" data-name="Trazado 246194" d="M356.269,459.2v1.733c0,.6.419.838.936.542l16.522-9.534a2.066,2.066,0,0,0,.936-1.618V448.59c0-.6-.419-.838-.936-.542l-16.522,9.534A2.067,2.067,0,0,0,356.269,459.2Z" transform="translate(-165.449 -208.011)" fill="#fff" opacity="0.5"/>
      <path id="Trazado_246195" data-name="Trazado 246195" d="M414.685,417.754a.3.3,0,0,0-.3.3v1.486l-4.4,2.546v-1.109a.3.3,0,0,0-.3-.3.308.308,0,0,0-.3.3v1.462l-4.4,2.546V423.9a.3.3,0,0,0-.3-.3.308.308,0,0,0-.3.3v1.445l-4.4,2.546v-1.076a.3.3,0,0,0-.3-.3.309.309,0,0,0-.3.3v1.428l-4.4,2.546v-1.051a.3.3,0,0,0-.3-.3.308.308,0,0,0-.3.3v1.4l-4.4,2.545v-1.034a.3.3,0,0,0-.3-.3.309.309,0,0,0-.3.3v1.388l-4.4,2.546v-1.01a.3.3,0,0,0-.3-.3.308.308,0,0,0-.3.3v1.363l-4.4,2.546v-.994a.3.3,0,0,0-.3-.3.309.309,0,0,0-.3.3v1.346l-4.4,2.546v-.969a.3.3,0,0,0-.3-.3.308.308,0,0,0-.3.3v1.33l-4.4,2.546v-.953a.3.3,0,0,0-.3-.3.308.308,0,0,0-.3.3v1.306l-4.4,2.546v-.936a.3.3,0,0,0-.3-.3.308.308,0,0,0-.3.3v1.289l-4.4,2.546v-.912a.3.3,0,0,0-.3-.3.308.308,0,0,0-.3.3v1.265l-3.818,2.209a.308.308,0,0,0-.115.419.3.3,0,0,0,.263.156.368.368,0,0,0,.156-.041l3.515-2.028v1.24a.3.3,0,0,0,.3.3.308.308,0,0,0,.3-.3v-1.6l4.4-2.545v1.223a.3.3,0,0,0,.3.3.308.308,0,0,0,.3-.3v-1.577l4.4-2.546v1.207a.3.3,0,0,0,.3.3.308.308,0,0,0,.3-.3v-1.56l4.4-2.546v1.183a.3.3,0,0,0,.3.3.308.308,0,0,0,.3-.3V443.1l4.4-2.546v1.166a.3.3,0,0,0,.3.3.308.308,0,0,0,.3-.3V440.2l4.4-2.546v1.141a.3.3,0,0,0,.3.3.308.308,0,0,0,.3-.3V437.3l4.4-2.546v1.125a.3.3,0,0,0,.3.3.308.308,0,0,0,.3-.3V434.4l4.4-2.546v1.109a.3.3,0,0,0,.3.3.308.308,0,0,0,.3-.3V431.5l4.4-2.546v1.084a.3.3,0,0,0,.3.3.308.308,0,0,0,.3-.3V428.6l4.4-2.546v1.067a.3.3,0,0,0,.3.3.308.308,0,0,0,.3-.3V425.7l4.4-2.546V424.2a.3.3,0,0,0,.3.3.308.308,0,0,0,.3-.3v-1.4l4.4-2.546v1.026a.3.3,0,0,0,.3.3.308.308,0,0,0,.3-.3v-3.219a.3.3,0,0,0-.3-.3Z" transform="translate(-165.002 -194.002)" opacity="0.4"/>
      <path id="Trazado_246196" data-name="Trazado 246196" d="M363.671,493.173a10.786,10.786,0,0,0-3.211,1.3c-6.093,3.581-11.029,12.532-11.029,20,0,.2,0,.386.009.583l11.012-5.042Z" transform="translate(-162.273 -229.026)" fill="#3b5620"/>
      <path id="Trazado_246197" data-name="Trazado 246197" d="M373.226,493.034l-3.219,16.843,10.922-6.34a18.941,18.941,0,0,0,.123-2.036C381.052,495.358,377.759,492.089,373.226,493.034Z" transform="translate(-171.829 -228.887)" fill="#3b5620"/>
      <path id="Trazado_246198" data-name="Trazado 246198" d="M379.549,518.465a23.421,23.421,0,0,0,1.379-5.683l-10.922,6.34,9.534-.657Z" transform="translate(-171.829 -238.132)" fill="#3b5620"/>
      <path id="Trazado_246199" data-name="Trazado 246199" d="M349.447,529.076c.254,7.063,5.091,10.01,11.02,6.586,4.073-2.349,7.629-7.119,9.526-12.285l-9.534.657Z" transform="translate(-162.281 -243.053)" fill="#3b5620"/>
      <path id="Trazado_246200" data-name="Trazado 246200" d="M373.226,493.034l-3.219,16.843,10.922-6.34a18.941,18.941,0,0,0,.123-2.036C381.052,495.358,377.759,492.089,373.226,493.034Z" transform="translate(-171.829 -228.887)" fill="#fff" opacity="0.7"/>
      <path id="Trazado_246201" data-name="Trazado 246201" d="M379.549,518.465a23.421,23.421,0,0,0,1.379-5.683l-10.922,6.34,9.534-.657Z" transform="translate(-171.829 -238.132)" opacity="0.15"/>
      <path id="Trazado_246202" data-name="Trazado 246202" d="M349.447,529.076c.254,7.063,5.091,10.01,11.02,6.586,4.073-2.349,7.629-7.119,9.526-12.285l-9.534.657Z" transform="translate(-162.281 -243.053)" fill="#fff" opacity="0.5"/>
      <path id="Trazado_246203" data-name="Trazado 246203" d="M363.671,493.173a10.786,10.786,0,0,0-3.211,1.3c-6.093,3.581-11.029,12.532-11.029,20,0,.2,0,.386.009.583l11.012-5.042Z" transform="translate(-162.273 -229.026)" fill="none" stroke="#fff" stroke-linecap="round" stroke-linejoin="round" stroke-width="1.61"/>
      <path id="Trazado_246204" data-name="Trazado 246204" d="M373.226,493.034l-3.219,16.843,10.922-6.34a18.941,18.941,0,0,0,.123-2.036C381.052,495.358,377.759,492.089,373.226,493.034Z" transform="translate(-171.829 -228.887)" fill="none" stroke="#fff" stroke-linecap="round" stroke-linejoin="round" stroke-width="1.61"/>
      <path id="Trazado_246205" data-name="Trazado 246205" d="M379.549,518.465a23.421,23.421,0,0,0,1.379-5.683l-10.922,6.34,9.534-.657Z" transform="translate(-171.829 -238.132)" fill="none" stroke="#fff" stroke-linecap="round" stroke-linejoin="round" stroke-width="1.61"/>
      <path id="Trazado_246206" data-name="Trazado 246206" d="M349.447,529.076c.254,7.063,5.091,10.01,11.02,6.586,4.073-2.349,7.629-7.119,9.526-12.285l-9.534.657Z" transform="translate(-162.281 -243.053)" fill="none" stroke="#fff" stroke-linecap="round" stroke-linejoin="round" stroke-width="1.61"/>
      <path id="Trazado_246207" data-name="Trazado 246207" d="M431.016,459.9c-3.589,4.319-6.044,10.355-6.044,15.668a11.3,11.3,0,0,0,1.388,5.847L436,469.189Z" transform="translate(-197.354 -213.575)" fill="#3b5620"/>
      <path id="Trazado_246208" data-name="Trazado 246208" d="M446.233,449.1a9.186,9.186,0,0,0-4.976,1.42,18.728,18.728,0,0,0-4.984,4.369l4.984,9.287,4.976-15.069Z" transform="translate(-202.602 -208.557)" fill="#3b5620"/>
      <path id="Trazado_246209" data-name="Trazado 246209" d="M455.573,452.64a5.772,5.772,0,0,0-5.034-3.531l-4.976,15.069Z" transform="translate(-206.916 -208.563)" fill="#3b5620"/>
      <path id="Trazado_246210" data-name="Trazado 246210" d="M447.214,455.7,437.2,467.239l-9.641,12.228c1.9,3.079,5.5,3.818,9.641,1.428,6.093-3.515,11.037-12.482,11.037-20.029a11.885,11.885,0,0,0-1.026-5.157Z" transform="translate(-198.557 -211.624)" fill="#3b5620"/>
      <path id="Trazado_246211" data-name="Trazado 246211" d="M446.233,449.1a9.186,9.186,0,0,0-4.976,1.42,18.728,18.728,0,0,0-4.984,4.369l4.984,9.287,4.976-15.069Z" transform="translate(-202.602 -208.557)" fill="#fff" opacity="0.7"/>
      <path id="Trazado_246212" data-name="Trazado 246212" d="M455.573,452.64a5.772,5.772,0,0,0-5.034-3.531l-4.976,15.069Z" transform="translate(-206.916 -208.563)" opacity="0.15"/>
      <path id="Trazado_246213" data-name="Trazado 246213" d="M447.214,455.7,437.2,467.239l-9.641,12.228c1.9,3.079,5.5,3.818,9.641,1.428,6.093-3.515,11.037-12.482,11.037-20.029a11.885,11.885,0,0,0-1.026-5.157Z" transform="translate(-198.557 -211.624)" fill="#fff" opacity="0.5"/>
      <path id="Trazado_246214" data-name="Trazado 246214" d="M431.016,459.9c-3.589,4.319-6.044,10.355-6.044,15.668a11.3,11.3,0,0,0,1.388,5.847L436,469.189Z" transform="translate(-197.354 -213.575)" fill="none" stroke="#fff" stroke-linecap="round" stroke-linejoin="round" stroke-width="1.61"/>
      <path id="Trazado_246215" data-name="Trazado 246215" d="M446.233,449.1a9.186,9.186,0,0,0-4.976,1.42,18.728,18.728,0,0,0-4.984,4.369l4.984,9.287,4.976-15.069Z" transform="translate(-202.602 -208.557)" fill="none" stroke="#fff" stroke-linecap="round" stroke-linejoin="round" stroke-width="1.61"/>
      <path id="Trazado_246216" data-name="Trazado 246216" d="M455.573,452.64a5.772,5.772,0,0,0-5.034-3.531l-4.976,15.069Z" transform="translate(-206.916 -208.563)" fill="none" stroke="#fff" stroke-linecap="round" stroke-linejoin="round" stroke-width="1.61"/>
      <path id="Trazado_246217" data-name="Trazado 246217" d="M447.214,455.7,437.2,467.239l-9.641,12.228c1.9,3.079,5.5,3.818,9.641,1.428,6.093-3.515,11.037-12.482,11.037-20.029a11.885,11.885,0,0,0-1.026-5.157Z" transform="translate(-198.557 -211.624)" fill="none" stroke="#fff" stroke-linecap="round" stroke-linejoin="round" stroke-width="1.61"/>
      <path id="Trazado_246218" data-name="Trazado 246218" d="M398.433,477.547l1.807-1.043c.517-.3.936-.058.936.542v1.733a2.053,2.053,0,0,1-.936,1.618l-1.807,1.043c-.517.3-.936.058-.936-.542v-1.733A2.053,2.053,0,0,1,398.433,477.547Z" transform="translate(-184.595 -221.226)" fill="#3b5620"/>
      <path id="Trazado_246219" data-name="Trazado 246219" d="M398.433,492.082l1.807-1.043c.517-.3.936-.057.936.542v1.733a2.053,2.053,0,0,1-.936,1.618l-1.807,1.043c-.517.3-.936.057-.936-.542V493.7A2.053,2.053,0,0,1,398.433,492.082Z" transform="translate(-184.595 -227.976)" fill="#3b5620"/>
      <path id="Trazado_246220" data-name="Trazado 246220" d="M398.433,492.082l1.807-1.043c.517-.3.936-.057.936.542v1.733a2.053,2.053,0,0,1-.936,1.618l-1.807,1.043c-.517.3-.936.057-.936-.542V493.7A2.053,2.053,0,0,1,398.433,492.082Z" transform="translate(-184.595 -227.976)" fill="#fff" opacity="0.7"/>
      <path id="Trazado_246221" data-name="Trazado 246221" d="M398.433,506.632l1.807-1.043c.517-.3.936-.058.936.541v1.733a2.053,2.053,0,0,1-.936,1.618l-1.807,1.043c-.517.3-.936.057-.936-.542v-1.733A2.053,2.053,0,0,1,398.433,506.632Z" transform="translate(-184.595 -234.733)" fill="#3b5620"/>
      <path id="Trazado_246222" data-name="Trazado 246222" d="M398.433,506.632l1.807-1.043c.517-.3.936-.058.936.541v1.733a2.053,2.053,0,0,1-.936,1.618l-1.807,1.043c-.517.3-.936.057-.936-.542v-1.733A2.053,2.053,0,0,1,398.433,506.632Z" transform="translate(-184.595 -234.733)" opacity="0.15"/>
      <path id="Trazado_246223" data-name="Trazado 246223" d="M398.433,521.166l1.807-1.043c.517-.3.936-.057.936.542V522.4a2.054,2.054,0,0,1-.936,1.618l-1.807,1.043c-.517.3-.936.057-.936-.542v-1.733A2.054,2.054,0,0,1,398.433,521.166Z" transform="translate(-184.595 -241.483)" fill="#3b5620"/>
      <path id="Trazado_246224" data-name="Trazado 246224" d="M398.433,521.166l1.807-1.043c.517-.3.936-.057.936.542V522.4a2.054,2.054,0,0,1-.936,1.618l-1.807,1.043c-.517.3-.936.057-.936-.542v-1.733A2.054,2.054,0,0,1,398.433,521.166Z" transform="translate(-184.595 -241.483)" fill="#fff" opacity="0.5"/>
      <path id="Trazado_246225" data-name="Trazado 246225" d="M407.3,474.407a.612.612,0,0,1-.312-1.142l5.5-3.178a.613.613,0,1,1,.616,1.059l-5.5,3.178A.6.6,0,0,1,407.3,474.407Z" transform="translate(-188.859 -218.266)" opacity="0.4"/>
      <path id="Trazado_246226" data-name="Trazado 246226" d="M407.143,489.095a.612.612,0,0,1-.312-1.141l5.5-3.178a.613.613,0,1,1,.616,1.059l-5.5,3.178A.606.606,0,0,1,407.143,489.095Z" transform="translate(-188.788 -225.088)" opacity="0.4"/>
      <path id="Trazado_246227" data-name="Trazado 246227" d="M406.974,503.786a.612.612,0,0,1-.312-1.141l5.5-3.178a.623.623,0,0,1,.838.222.615.615,0,0,1-.222.838l-5.5,3.178A.606.606,0,0,1,406.974,503.786Z" transform="translate(-188.709 -231.912)" opacity="0.4"/>
      <path id="Trazado_246228" data-name="Trazado 246228" d="M406.821,518.481a.612.612,0,0,1-.312-1.141l5.5-3.17a.622.622,0,0,1,.838.222.614.614,0,0,1-.222.837l-5.5,3.17A.605.605,0,0,1,406.821,518.481Z" transform="translate(-188.638 -238.74)" opacity="0.4"/>
      <path id="Trazado_246229" data-name="Trazado 246229" d="M350.184,560a.612.612,0,0,1-.312-1.141l25.753-14.864a.623.623,0,0,1,.838.222.615.615,0,0,1-.222.838l-25.753,14.864A.6.6,0,0,1,350.184,560Z" transform="translate(-162.337 -252.588)" opacity="0.4"/>
      <path id="Trazado_246230" data-name="Trazado 246230" d="M351.733,567.122a.612.612,0,0,1-.312-1.141l25.753-14.864a.613.613,0,1,1,.616,1.059L352.037,567.04A.606.606,0,0,1,351.733,567.122Z" transform="translate(-163.056 -255.896)" opacity="0.4"/>
      <path id="Trazado_246231" data-name="Trazado 246231" d="M353.941,574.006a.612.612,0,0,1-.312-1.141L379.381,558A.613.613,0,1,1,380,559.06l-25.753,14.864A.606.606,0,0,1,353.941,574.006Z" transform="translate(-164.081 -259.093)" opacity="0.4"/>
      <path id="Trazado_246232" data-name="Trazado 246232" d="M425.648,516.452a.612.612,0,0,1-.312-1.141l25.753-14.864a.623.623,0,0,1,.838.222.615.615,0,0,1-.222.838L425.953,516.37A.608.608,0,0,1,425.648,516.452Z" transform="translate(-197.382 -232.367)" opacity="0.4"/>
      <path id="Trazado_246233" data-name="Trazado 246233" d="M427.2,523.563a.612.612,0,0,1-.312-1.141l25.753-14.864a.613.613,0,0,1,.616,1.059L427.5,523.481A.605.605,0,0,1,427.2,523.563Z" transform="translate(-198.101 -235.668)" opacity="0.4"/>
      <path id="Trazado_246234" data-name="Trazado 246234" d="M429.4,530.448a.612.612,0,0,1-.312-1.142l25.753-14.864a.613.613,0,0,1,.616,1.059l-25.753,14.864A.6.6,0,0,1,429.4,530.448Z" transform="translate(-199.126 -238.865)" opacity="0.4"/>
      <path id="Trazado_246235" data-name="Trazado 246235" d="M365.742,565.824l58.707-33.883a4.517,4.517,0,0,1,5.879,1.051,3.446,3.446,0,0,1-1.322,5.165l-58.731,33.891c-2.07,1.191-4.911.879-6.168-.846s-.443-4.2,1.626-5.387Z" transform="translate(-168.812 -246.731)" fill="#3b5620"/>
      <path id="Trazado_246236" data-name="Trazado 246236" d="M385.233,612.8a.612.612,0,0,1-.312-1.141l25.753-14.864a.613.613,0,0,1,.616,1.059l-25.753,14.864A.606.606,0,0,1,385.233,612.8Z" transform="translate(-178.613 -277.11)" opacity="0.4"/>
      <path id="Trazado_246237" data-name="Trazado 246237" d="M379.208,608.574a.612.612,0,0,1-.312-1.141l25.753-14.855a.622.622,0,0,1,.838.221.615.615,0,0,1-.222.838l-25.753,14.856A.606.606,0,0,1,379.208,608.574Z" transform="translate(-175.815 -275.152)" opacity="0.4"/>
      <path id="Trazado_246238" data-name="Trazado 246238" d="M391.55,616.54a.612.612,0,0,1-.312-1.142l25.753-14.863a.622.622,0,0,1,.838.222.614.614,0,0,1-.222.837l-25.753,14.864A.6.6,0,0,1,391.55,616.54Z" transform="translate(-181.547 -278.847)" opacity="0.4"/>
      <path id="Trazado_246239" data-name="Trazado 246239" d="M453.874,573.2a.612.612,0,0,1-.312-1.141l25.753-14.864a.622.622,0,0,1,.838.222.615.615,0,0,1-.222.838l-25.753,14.864A.608.608,0,0,1,453.874,573.2Z" transform="translate(-210.49 -258.719)" opacity="0.4"/>
      <path id="Trazado_246240" data-name="Trazado 246240" d="M447.849,568.956a.612.612,0,0,1-.312-1.141l25.753-14.856a.623.623,0,0,1,.838.222.615.615,0,0,1-.222.838l-25.753,14.856A.606.606,0,0,1,447.849,568.956Z" transform="translate(-207.691 -256.754)" opacity="0.4"/>
      <path id="Trazado_246241" data-name="Trazado 246241" d="M460.191,576.937a.612.612,0,0,1-.312-1.141l25.753-14.864a.622.622,0,0,1,.838.222.615.615,0,0,1-.222.838L460.5,576.855A.608.608,0,0,1,460.191,576.937Z" transform="translate(-213.423 -260.456)" opacity="0.4"/>
      <path id="Trazado_246242" data-name="Trazado 246242" d="M438.892,623.5c-5.592-3.228-15.061-3-21.162.525s-6.5,8.984-.912,12.211,15.061,3,21.162-.525S444.484,626.725,438.892,623.5Zm-3.8,10.544c-4.352,2.513-11.119,2.677-15.11.37s-3.7-6.216.649-8.721,11.119-2.677,15.11-.37S439.442,631.538,435.089,634.042Z" transform="translate(-191.737 -288.491)" fill="#3b5620"/>
      <path id="Trazado_246243" data-name="Trazado 246243" d="M430.94,631.636a10.015,10.015,0,0,1,9.066-.222c2.4,1.388,2.217,3.728-.394,5.231a10.04,10.04,0,0,1-9.066.222C428.148,635.479,428.329,633.139,430.94,631.636Z" transform="translate(-199.159 -292.77)" fill="#3b5620"/>
      <path id="Trazado_246244" data-name="Trazado 246244" d="M430.94,631.636a10.015,10.015,0,0,1,9.066-.222c2.4,1.388,2.217,3.728-.394,5.231a10.04,10.04,0,0,1-9.066.222C428.148,635.48,428.329,633.139,430.94,631.636Z" transform="translate(-199.159 -292.77)" opacity="0.5"/>
      <path id="Trazado_246245" data-name="Trazado 246245" d="M438.892,623.5c-5.592-3.228-15.061-3-21.162.525s-6.5,8.984-.912,12.211,15.061,3,21.162-.525S444.484,626.725,438.892,623.5Zm-3.8,10.544c-4.352,2.513-11.119,2.677-15.11.37s-3.7-6.216.649-8.721,11.119-2.677,15.11-.37S439.442,631.538,435.089,634.042Z" transform="translate(-191.737 -288.491)" opacity="0.15"/>
      <path id="Trazado_246246" data-name="Trazado 246246" d="M432.469,621.885l1.281,2.283a18.153,18.153,0,0,1,7.489-.139l1.725-2.341A25.314,25.314,0,0,0,432.469,621.885Z" transform="translate(-200.836 -288.495)" fill="#3b5620"/>
      <path id="Trazado_246247" data-name="Trazado 246247" d="M432.469,621.885l1.281,2.283a18.153,18.153,0,0,1,7.489-.139l1.725-2.341A25.314,25.314,0,0,0,432.469,621.885Z" transform="translate(-200.836 -288.495)" fill="#fff" opacity="0.7"/>
      <path id="Trazado_246248" data-name="Trazado 246248" d="M441.747,611.6h-.041a.615.615,0,0,1-.575-.649l.164-2.809,11.324-6.536a.622.622,0,0,1,.838.222.615.615,0,0,1-.222.838l-10.749,6.2-.132,2.152a.6.6,0,0,1-.607.575Z" transform="translate(-204.858 -279.346)" opacity="0.4"/>
      <path id="Trazado_246249" data-name="Trazado 246249" d="M500.695,587.851c-5.592-3.227-15.061-3-21.162.525s-6.5,8.984-.912,12.211,15.061,3,21.162-.525S506.287,591.079,500.695,587.851Zm-3.8,10.544c-4.352,2.513-11.119,2.677-15.11.37s-3.7-6.216.649-8.721,11.119-2.677,15.11-.37S501.245,595.891,496.893,598.4Z" transform="translate(-220.439 -271.937)" fill="#3b5620"/>
      <path id="Trazado_246250" data-name="Trazado 246250" d="M492.728,595.99a10.015,10.015,0,0,1,9.066-.222c2.4,1.388,2.217,3.728-.394,5.231a10.042,10.042,0,0,1-9.066.222C489.936,599.833,490.117,597.492,492.728,595.99Z" transform="translate(-227.853 -276.215)" fill="#3b5620"/>
      <path id="Trazado_246251" data-name="Trazado 246251" d="M492.728,595.99a10.015,10.015,0,0,1,9.066-.222c2.4,1.388,2.217,3.728-.394,5.231a10.042,10.042,0,0,1-9.066.222C489.936,599.833,490.117,597.492,492.728,595.99Z" transform="translate(-227.853 -276.215)" opacity="0.5"/>
      <path id="Trazado_246252" data-name="Trazado 246252" d="M500.695,587.851c-5.592-3.227-15.061-3-21.162.525s-6.5,8.984-.912,12.211,15.061,3,21.162-.525S506.287,591.079,500.695,587.851Zm-3.8,10.544c-4.352,2.513-11.119,2.677-15.11.37s-3.7-6.216.649-8.721,11.119-2.677,15.11-.37S501.245,595.891,496.893,598.4Z" transform="translate(-220.439 -271.937)" opacity="0.15"/>
      <path id="Trazado_246253" data-name="Trazado 246253" d="M507.557,587.857c-4.722-2.726-12.211-2.973-18.1-.87l2.02,2.069c4.2-1.5,9.55-1.33,12.926.616a7.288,7.288,0,0,1,1.536,1.175l3.769-1.347a9.965,9.965,0,0,0-2.152-1.65Z" transform="translate(-227.301 -271.942)" fill="#3b5620"/>
      <path id="Trazado_246254" data-name="Trazado 246254" d="M507.557,587.857c-4.722-2.726-12.211-2.973-18.1-.87l2.02,2.069c4.2-1.5,9.55-1.33,12.926.616a7.288,7.288,0,0,1,1.536,1.175l3.769-1.347a9.965,9.965,0,0,0-2.152-1.65Z" transform="translate(-227.301 -271.942)" fill="#fff" opacity="0.7"/>
      <path id="Trazado_246255" data-name="Trazado 246255" d="M503.7,575.825h-.041a.614.614,0,0,1-.575-.649l.164-2.817,11.324-6.537a.622.622,0,0,1,.838.222.615.615,0,0,1-.222.838l-10.75,6.2-.131,2.151a.606.606,0,0,1-.608.575Z" transform="translate(-233.63 -262.727)" opacity="0.4"/>
      <path id="Trazado_246256" data-name="Trazado 246256" d="M448.248,630.891a.612.612,0,0,1-.312-1.141l62.534-36.083a.622.622,0,0,1,.838.222.615.615,0,0,1-.222.838l-62.534,36.083A.606.606,0,0,1,448.248,630.891Z" transform="translate(-207.877 -275.657)" opacity="0.4"/>
      <path id="Trazado_246257" data-name="Trazado 246257" d="M454.564,634.525a.612.612,0,0,1-.312-1.142L516.786,597.3a.622.622,0,0,1,.838.222.615.615,0,0,1-.222.838l-62.534,36.083A.6.6,0,0,1,454.564,634.525Z" transform="translate(-210.81 -277.345)" opacity="0.4"/>
      <path id="Trazado_246258" data-name="Trazado 246258" d="M460.866,638.158a.612.612,0,0,1-.312-1.141l62.534-36.083a.623.623,0,0,1,.838.222.615.615,0,0,1-.222.838L461.17,638.076A.606.606,0,0,1,460.866,638.158Z" transform="translate(-213.736 -279.032)" opacity="0.4"/>
    </g>
  </g>
</svg>
