<svg xmlns="http://www.w3.org/2000/svg" width="499" height="393.939" viewBox="0 0 499 393.939">
  <g id="Grupo_1066763" data-name="Grupo 1066763" transform="translate(-620 -98.947)">
    <g id="Group_7_5_" data-name="Group 7 (5)" transform="translate(620 98.946)">
      <path id="Trazado_247172" data-name="Trazado 247172" d="M246.939,369.757c64.218,0,123.314.959,170.215,2.568,114.774-65.6,75.031-193.472,33.819-265.806C393.624,5.857,258.1-30.324,202.045,49.992,125.957,159.009,52.558,120.97,12.927,203.762s20.555,162.166,63.8,168.563C123.622,370.716,182.721,369.757,246.939,369.757ZM146.375,90.6c-29.378,22.359-77.966,39.685-94.1,15.913C40.22,88.755,55.07,55.438,84.152,30.173c29.061-25.244,68-40.524,89.223-21.938,25.184,22.06-4.376,65.147-27,82.362Z" transform="translate(0)" fill="#f0ffe1" fill-rule="evenodd"/>
      <path id="Trazado_247173" data-name="Trazado 247173" d="M247.5,856.013c136.145,0,246.515,5.415,246.515,12.09s-110.371,12.09-246.515,12.09S.982,874.782.982,868.1,111.348,856.013,247.5,856.013Z" transform="translate(-0.558 -486.259)" fill="#afc797" fill-rule="evenodd"/>
      <path id="Trazado_247174" data-name="Trazado 247174" d="M526.842,49.544C595.794,64.9,639.67,128.316,643.968,158.931c1.767,12.562-1.5-16.836-36.678-43.6C575.854,91.4,551.381,86.971,513.98,84.08c-26.427-2.043-54.1-5.292-52.14-21.057,1.553-12.449,20.48-23.4,65-13.482ZM346.54,23.9c11.873.711,19.1,10.46,19.593,21.7.212,4.782-3.542-7.721-16.7-9.462-8.163-1.078-9.391,1.326-12.314-2.04S336.971,23.323,346.54,23.9Z" transform="translate(-190.871 -13.556)" fill="#fff" fill-rule="evenodd"/>
      <path id="Trazado_247175" data-name="Trazado 247175" d="M504.342,159.38c-.989,13.56-2.987,15.433-15.916,16.478,12.93,1.045,14.931,2.915,15.916,16.478.989-13.56,2.99-15.433,15.92-16.478C507.332,174.813,505.331,172.943,504.342,159.38ZM556.9,195.15c-.526,7.24-1.595,8.241-8.5,8.8,6.9.559,7.972,1.556,8.5,8.8.529-7.24,1.595-8.24,8.5-8.8C558.5,203.39,557.432,202.389,556.9,195.15Zm-23.016-55.724c-.535,7.332-1.616,8.345-8.608,8.909,6.992.565,8.073,1.574,8.608,8.909.535-7.332,1.616-8.345,8.608-8.909C535.5,147.768,534.419,146.758,533.884,139.426Z" transform="translate(-277.451 -79.201)" fill="#fff" fill-rule="evenodd"/>
      <path id="Trazado_247176" data-name="Trazado 247176" d="M416.1,679.117c.8,10.985,2.422,12.5,12.9,13.348-10.474.845-12.1,2.363-12.9,13.348-.8-10.985-2.419-12.5-12.894-13.348C413.683,691.62,415.3,690.1,416.1,679.117Zm-42.579,28.974c.427,5.866,1.293,6.675,6.885,7.127-5.592.451-6.458,1.26-6.885,7.126-.427-5.866-1.293-6.675-6.884-7.126C372.23,714.767,373.1,713.958,373.523,708.092ZM392.17,662.95c.433,5.938,1.311,6.759,6.974,7.216-5.663.457-6.541,1.278-6.974,7.216-.433-5.938-1.308-6.759-6.974-7.216C390.859,669.709,391.737,668.888,392.17,662.95Z" transform="translate(-208.27 -376.589)" fill="#fff" fill-rule="evenodd"/>
      <path id="Trazado_247177" data-name="Trazado 247177" d="M855.574,621.4c-.612,8.414-1.855,9.572-9.871,10.22,8.02.645,9.259,1.807,9.871,10.221.612-8.414,1.855-9.572,9.871-10.221C857.426,630.969,856.186,629.811,855.574,621.4Zm32.6,22.185c-.328,4.492-.991,5.11-5.272,5.457,4.28.346,4.946.962,5.272,5.454.326-4.492.986-5.11,5.272-5.454C889.166,648.693,888.5,648.072,888.177,643.582ZM873.9,609.017c-.332,4.549-1,5.179-5.338,5.528,4.337.349,5.009.977,5.338,5.526.331-4.549,1-5.176,5.337-5.526C874.9,614.2,874.229,613.566,873.9,609.017Z" transform="translate(-480.402 -345.952)" fill="#fff" fill-rule="evenodd"/>
      <path id="Trazado_247178" data-name="Trazado 247178" d="M702.393,297.344c12.539,12.44,10.756,41.764,8,86.9v.131c-.729,11.938-1.565,25.2-2.246,39.264-.46,9.268-.893,19.013-1.239,29.166l-38.218,57.761a33.842,33.842,0,0,1-1.511-10.609c0-22.884.633-44.541,1.493-64.418.857-19.96,1.968-37.806,2.924-53.433.971-15.862,1.917-28.846,2.637-38.556L702.4,297.341Zm8.014,86.735-.009.164.009-.131Z" transform="translate(-378.993 -168.905)" fill="#31471a" fill-rule="evenodd"/>
      <path id="Trazado_247179" data-name="Trazado 247179" d="M318.953,361.19c3.053,6.652,5.045,16.1,6.4,28.834,2.055,19.255,2.855,46.545,3.931,83.683l.788,26.7a235.6,235.6,0,0,1-.744,27.768l-29.213,52.188q-.963-2.751-1.8-5.926c-4.023-15.343-6.042-39.132-7.042-72.975l-.789-26.707c-.854-30.035-1.523-52.606-2.082-68.331v-.009l30.551-45.229Zm13.264,161.822.03-.06v.006l-.03.051Z" transform="translate(-163.83 -205.174)" fill="#31471a" fill-rule="evenodd"/>
      <path id="Trazado_247180" data-name="Trazado 247180" d="M575.432,327.372a100.9,100.9,0,0,1,78.975,98.479q0,4.176-.337,8.271l-68.331,3.68a34.374,34.374,0,0,0-21.481-44.583Z" transform="translate(-320.527 -185.964)" fill="#afc797" fill-rule="evenodd"/>
      <path id="Trazado_247181" data-name="Trazado 247181" d="M387.685,411.645l11.173-65.852a101.042,101.042,0,0,0-100.719,35.56l54,39.21a34.385,34.385,0,0,1,35.546-8.915Zm-95.209-22.469,54.036,39.234a34.358,34.358,0,0,0,2.921,36.39l-47.669,46.692a100.87,100.87,0,0,1-9.289-122.319Zm16.066,129.2A100.877,100.877,0,0,0,430.7,529.661l-38.087-54.8a34.357,34.357,0,0,1-36.367-3.205l-47.7,46.725Zm130.067,5.747L400.5,469.287a34.384,34.384,0,0,0,8.674-13.055l68.331-3.68A100.716,100.716,0,0,1,438.609,524.127Z" transform="translate(-156.839 -195.076)" fill="#839571" fill-rule="evenodd"/>
      <path id="Trazado_247182" data-name="Trazado 247182" d="M13.287,416.358a19.472,19.472,0,0,1,16.508-27.242,18.689,18.689,0,0,1,3.142.06c1.574-2.757,3.4-6.147,5.358-9.886,2.769-5.265,5.839-11.233,8.966-17.344,3.485-6.819,7.078-13.834,10.46-20.1,3.557-6.589,7.15-12.918,10.719-18.443,4.692-7.306,9.014-14.172,12.977-20.507l.012.009L91.85,286.07h-.012l.1-.155h.012c9.1-14.778,16.666-27.051,23.517-35.907,13.464-17.407,24.868-23.1,39.536-11.762a23.51,23.51,0,0,1,6.759,9.1l-.018-.045-30.551,45.228v.012a58.553,58.553,0,0,1-6.308,13.891h-.012l-11.34,18.324v.024c-3.88,6.23-8.023,12.819-12.38,19.6-3.223,5.027-6.505,10.77-9.74,16.762-3.378,6.245-6.541,12.416-9.585,18.375l-.06.128c-11.95,23.339-22.992,44.828-36.146,50.652v-.009c-6.816,3.019-13.085,3.557-18.709,1.239-5.514-2.279-10.122-7.234-13.62-15.173ZM166.838,266.163c.084.508.162,1.022.242,1.544C167,267.185,166.922,266.671,166.838,266.163Zm5.278,148.131L142.9,466.482c4.626,13.21,11.523,19.04,21.492,18.736,8.907-.254,16.045-6.09,23.016-16.332,6.314-9.274,12.655-22.374,20.391-38.368,7.783-16.1,17.359-35.9,29.214-57.886a776.441,776.441,0,0,1,42.22-69.848c10.887-15.932,17.894-27.654,22.622-36.844l28.159-46.208a20.591,20.591,0,0,0-2.906-2.407c-9.946-6.768-20.859-4.644-34.467,7.093-12.09,10.445-26.776,29.055-45.494,56.476A812.515,812.515,0,0,0,203,353.848c-11.057,20.5-20.292,39.374-27.968,55.228v.006l-.03.051-2.184,4.51-.8,1.673.092-1.016ZM330.032,219.74a24.793,24.793,0,0,1,4.859,7.036A24.854,24.854,0,0,0,330.032,219.74ZM334.9,226.8c.126.266.251.54.374.815C335.151,227.335,335.028,227.064,334.9,226.8Zm.388.854c.117.269.233.541.346.816C335.524,228.193,335.408,227.918,335.288,227.652ZM340,262.663q-.014,2.249-.06,4.591C339.974,265.692,339.989,264.162,340,262.663ZM295.7,430.742c-.108-.46-.206-.926-.293-1.4C295.49,429.816,295.592,430.285,295.7,430.742Zm-.636-3.716c-.027-.224-.051-.451-.072-.684C295.009,426.573,295.036,426.8,295.06,427.027Zm.009-30.91c.03-1.365.057-2.727.086-4.077C295.122,393.39,295.1,394.752,295.069,396.117Zm42.964-89.659v.033l-.012.131Zm-2.374-77.93c.116.281.227.565.334.851C335.882,229.092,335.775,228.811,335.659,228.527Zm.34.866c2.945,7.8,3.984,18.341,4.005,31.543C339.983,247.735,338.944,237.2,336,229.394Zm3.907,39.655q-.08,3.256-.215,6.7Q339.821,272.306,339.906,269.049ZM336,341.429q-.117,2.276-.227,4.585Zm-1.466,33.75-.015.415c10.2-16.511,21.475-34.966,29.2-47.609l.084-.119,4.594-7.509.012-.036,1.287-2.067-.083-.035L372.3,314c2.518-3.966,7.688-12.476,14.253-23.4l22.786-38.009,15.5-25.859a19.419,19.419,0,0,1-13.049-.14l-.012-.015a19.419,19.419,0,0,1-11.5-24.936l.012-.012a19.454,19.454,0,0,1,10.089-10.914c7.673-3.533,14.778-6.338,21.523-8.975l.275-.107c6.186-2.411,12.189-4.776,17.964-7.509a98.829,98.829,0,0,0,16.427-9.671,19.344,19.344,0,0,1,14.436-3.51v-.024a19.424,19.424,0,0,1,16.462,18.41,19.654,19.654,0,0,1-2.652,10.624,30.065,30.065,0,0,0-.51,3.676c-.263,2.685-.514,6.329-.67,10.4-.255,6.027-.229,12.6-.047,18.646.2,6.732.631,12.987,1.153,17.287h-.009a19.086,19.086,0,0,1,.155,2.234h-.013a16.42,16.42,0,0,1-.086,1.968l-.03,1.04a19.335,19.335,0,0,1-6.043,13.548l-.022.024a19.407,19.407,0,0,1-27.411-.744l-.022-.024a19.426,19.426,0,0,1-4.73-8.665l-13.883,23.18-23.8,39.742c-6.831,11.365-11.914,19.781-13.691,22.574l-2.186,3.438-4.856,7.891-1.219,1.992-.084.155-.024.036h-.012c-20.152,32.995-60,98.115-80.209,98.115-6.938,0-12.476-2.088-16.32-6.469a20.2,20.2,0,0,1-3.978-7.2l.048.14,38.218-57.761Zm-39.73,47.152q0-3.221.018-6.406-.013,3.185-.015,6.406Zm4.788-123.819c.5-7.909.974-14.793,1.41-20.868C300.567,283.8,300.083,290.771,299.594,298.513Z" transform="translate(-6.617 -91.289)" fill="#3b5620" fill-rule="evenodd"/>
      <path id="Trazado_247183" data-name="Trazado 247183" d="M295.444,238.569a.574.574,0,0,1-.009,1.147l-74.125-.606a.572.572,0,0,1,.009-1.144l74.122.606ZM318.132,296.3a.573.573,0,0,1-1.028.508L296.6,255.2l-75.591-.606a.572.572,0,1,1,.009-1.144l75.914.606a.584.584,0,0,1,.54.32L318.132,296.3ZM295.444,248.9a.572.572,0,1,1-.009,1.144l-74.125-.606a.58.58,0,0,1-.567-.58.571.571,0,0,1,.576-.568l74.122.606Zm0-5.164a.572.572,0,1,1-.009,1.144l-74.125-.606a.572.572,0,0,1,.009-1.144l74.122.606Z" transform="translate(-125.223 -135.176)" fill="#3b5620" fill-rule="evenodd"/>
      <path id="Trazado_247184" data-name="Trazado 247184" d="M611.64,118.936a2.42,2.42,0,0,1,.908.176l7.556-13.1-.072-.072h-.006a2.4,2.4,0,0,1,0-3.384h.006a2.384,2.384,0,0,1,3.381,0,2.392,2.392,0,0,1,.263,3.074l7.789,8.569a2.383,2.383,0,0,1,1.189-.314,2.444,2.444,0,0,1,.645.087L651.872,79.2c-.045-.039-.09-.081-.132-.122a2.394,2.394,0,1,1,3.381,0,1.65,1.65,0,0,1-.129.122L677.7,121.543a2.331,2.331,0,0,1,.648-.09,2.383,2.383,0,0,1,1.464.5L699.209,92.18a2.395,2.395,0,0,1,.015-3.366h.006a2.392,2.392,0,0,1,3.614,3.115l15.678,18.031a2.346,2.346,0,0,1,1.141-.293,2.42,2.42,0,0,1,.753.123L734.581,86l-.054-.048a2.39,2.39,0,0,1,0-3.384v-.006a2.4,2.4,0,0,1,3.384,0v.006a2.393,2.393,0,0,1-2.44,3.964L721.3,110.322l.048.048h.006a2.4,2.4,0,0,1,0,3.384h-.006a2.39,2.39,0,0,1-3.611-3.112L702.064,92.611a2.4,2.4,0,0,1-1.983.137l-19.572,30.047a2.393,2.393,0,1,1-3.844-.639c.042-.045.086-.084.128-.123L654.079,79.69a2.308,2.308,0,0,1-.645.09,2.57,2.57,0,0,1-.645-.087l-18.574,34.769c.044.042.089.084.134.123a2.394,2.394,0,0,1-3.381,3.39h-.006a2.406,2.406,0,0,1-.263-3.076l-7.789-8.569a2.386,2.386,0,0,1-1.906.206l-7.6,13.177a2.393,2.393,0,0,1-3.45,3.315h-.006a2.4,2.4,0,0,1,0-3.387h.006a2.37,2.37,0,0,1,1.69-.7Zm.263,1.3.116-.209a1.436,1.436,0,0,0-.379-.054,1.332,1.332,0,0,0-.956.4,1.356,1.356,0,1,0,2.312.962,1.383,1.383,0,0,0-.158-.636l-.033.063-.9-.517Zm8.748-15.164.622-1.084.358-.618.478.526.839.929a1.357,1.357,0,1,0-2.583-.583,1.376,1.376,0,0,0,.281.828ZM632.2,115l.346.379.242-.451a.95.95,0,0,0-.131-.006,1.354,1.354,0,0,0-.457.08Zm20.182-36.761.591-1.1.46-.854.457.854.594,1.1a1.361,1.361,0,0,0-.09-1.816,1.355,1.355,0,0,0-1.914,0,1.367,1.367,0,0,0-.4.959,1.349,1.349,0,0,0,.308.86ZM678.224,122.5l.561,1.042.463-.714a1.354,1.354,0,0,0-.893-.332,1,1,0,0,0-.134.006Zm21.582-31.229.681-1.048.377-.576.451.517.821.944a1.368,1.368,0,0,0,.14-.606,1.354,1.354,0,0,0-.4-.958,1.356,1.356,0,0,0-1.915,0h-.006a1.365,1.365,0,0,0-.394.958,1.32,1.32,0,0,0,.239.765Zm19.435,19.506.349.4.272-.457a1.327,1.327,0,0,0-.194-.015A1.355,1.355,0,0,0,719.241,110.773Zm15.9-25.71.639-1.075.893.529-.642,1.075a1.459,1.459,0,0,0,.2.015,1.342,1.342,0,0,0,.956-.4h.006a1.363,1.363,0,0,0,0-1.918h-.006a1.352,1.352,0,0,0-1.914,0,1.36,1.36,0,0,0-.394.959,1.332,1.332,0,0,0,.269.809Zm-14.387,26.188-.639,1.075-.37.618-.469-.54-.821-.944a1.358,1.358,0,0,0,2.174,1.565,1.367,1.367,0,0,0,.4-.958,1.35,1.35,0,0,0-.269-.809Zm-19.4-19.465-.371-.424-.308.472a1.408,1.408,0,0,0,.675-.048ZM679.7,124.037l-.52.8-.1.152a1.521,1.521,0,0,0,.242-.188A1.36,1.36,0,0,0,679.7,124.037Zm-1.207,1.153-.209-.385-.974-1.819a1.361,1.361,0,0,0,.09,1.816,1.344,1.344,0,0,0,.959.4.993.993,0,0,0,.134-.006ZM653.565,78.728l-.131-.248-.131.248c.044,0,.086.006.131.006A.959.959,0,0,0,653.565,78.728Zm-19.859,36.686-.591,1.1-.346.648-.493-.544-.842-.926a1.356,1.356,0,1,0,2.583.576,1.355,1.355,0,0,0-.3-.863Zm-11.526-9.892-.365-.4-.269.469a1.722,1.722,0,0,0,.176.009A1.366,1.366,0,0,0,622.181,105.522Z" transform="translate(-346.082 -42.597)" fill="#375a64" fill-rule="evenodd"/>
      <path id="Trazado_247185" data-name="Trazado 247185" d="M635.667,138.4a1.874,1.874,0,1,1-1.876,1.872A1.872,1.872,0,0,1,635.667,138.4Z" transform="translate(-360.026 -78.616)" fill="#3b5620" fill-rule="evenodd"/>
      <path id="Trazado_247186" data-name="Trazado 247186" d="M660.982,166.24a1.874,1.874,0,1,1-1.876,1.876A1.873,1.873,0,0,1,660.982,166.24Z" transform="translate(-374.406 -94.432)" fill="#3b5620" fill-rule="evenodd"/>
      <path id="Trazado_247187" data-name="Trazado 247187" d="M709.079,76.192a1.873,1.873,0,1,1-1.876,1.873A1.872,1.872,0,0,1,709.079,76.192Z" transform="translate(-401.728 -43.281)" fill="#3b5620" fill-rule="evenodd"/>
      <path id="Trazado_247188" data-name="Trazado 247188" d="M766.786,183.755a1.874,1.874,0,1,1-1.872,1.876A1.875,1.875,0,0,1,766.786,183.755Z" transform="translate(-434.51 -104.382)" fill="#3b5620" fill-rule="evenodd"/>
      <path id="Trazado_247189" data-name="Trazado 247189" d="M819.021,106.568a1.873,1.873,0,1,1-1.875,1.872A1.872,1.872,0,0,1,819.021,106.568Z" transform="translate(-464.181 -60.536)" fill="#3b5620" fill-rule="evenodd"/>
      <path id="Trazado_247190" data-name="Trazado 247190" d="M862.417,156.477a1.874,1.874,0,1,1-1.875,1.873A1.874,1.874,0,0,1,862.417,156.477Z" transform="translate(-488.832 -88.887)" fill="#3b5620" fill-rule="evenodd"/>
      <path id="Trazado_247191" data-name="Trazado 247191" d="M900.756,92.1a1.874,1.874,0,1,1-1.873,1.876A1.872,1.872,0,0,1,900.756,92.1Z" transform="translate(-510.611 -52.318)" fill="#3b5620" fill-rule="evenodd"/>
      <path id="Trazado_247192" data-name="Trazado 247192" d="M612.323,177.933a1.874,1.874,0,1,1-1.875,1.873A1.872,1.872,0,0,1,612.323,177.933Z" transform="translate(-346.766 -101.075)" fill="#3b5620" fill-rule="evenodd"/>
      <path id="Trazado_247193" data-name="Trazado 247193" d="M473.821,276.852c.066-.567-.143-1.335-.063-2.258.624-7.189,1.974-23.419,1.974-23.419s1.529-12.858,1.646-21a31.209,31.209,0,0,1-4.85-.83c-3.465-.881-5.789-2.3-9.089-3.895-1.8,6.639-5.143,18.829-5.143,18.829s.006,2.6-3.447,2.6c-3.031,0-15.633,10.543-18.123,12.111.322.762,1.138,1.517,1.505,2.27,4.005-3.276,24.631-10.809,24.631-10.809l5.6-14.187s1.682,17.392.326,18.754,2.4,20.848,2.4,21.836a20.047,20.047,0,0,0,2.631,0Z" transform="translate(-248.083 -128.067)" fill="#ffc19d" fill-rule="evenodd"/>
      <path id="Trazado_247194" data-name="Trazado 247194" d="M508.991,232.206s1.206,19.232.6,20.361-1.054,3.013-.6,7.763,1.81,13.049,1.81,13.049l4.45.149,1.81-22.7,1.547-21.042.039-.448-6.033-4.528-3.617,7.4Z" transform="translate(-289.029 -127.705)" fill="#2f4419" fill-rule="evenodd"/>
      <path id="Trazado_247195" data-name="Trazado 247195" d="M442.893,251.826l1.962,3.542s17.762-5.848,21.49-8.593c1.434-1.054,7.389-15.456,7.389-15.456l4.7-5.582.051-3.094L468.394,218.2s-3.668,4.128-4.384,5.794c-1.8,4.161-3.017,17.87-3.017,17.87s.149-.529-3.243.376-14.856,9.578-14.856,9.578Z" transform="translate(-251.586 -123.951)" fill="#233313" fill-rule="evenodd"/>
      <path id="Trazado_247196" data-name="Trazado 247196" d="M436.078,301.808s-1.189-.768-1.329-1.206.2-1.553-.3-1.807-3.629.776-4.1,1.132a1.563,1.563,0,0,0-.66,1.574,92.981,92.981,0,0,0,5.2,8.969c.884.962,1.98-1.159,1.326-2.482s.1-4.107-.149-6.182Z" transform="translate(-244.066 -169.707)" fill="#3b5620" fill-rule="evenodd"/>
      <path id="Trazado_247197" data-name="Trazado 247197" d="M517.189,339.477a4.611,4.611,0,0,1-1.705.553c-.451-.1-1.251-.938-1.714-.636s-1.114,3.542-1.039,4.119a1.551,1.551,0,0,0,1.042,1.353,93.642,93.642,0,0,0,10.37-.083c1.273-.293-.03-2.3-1.5-2.38s-3.512-2.121-5.448-2.921Z" transform="translate(-291.253 -192.755)" fill="#3b5620" fill-rule="evenodd"/>
      <path id="Trazado_247198" data-name="Trazado 247198" d="M525.171,172c-6.162,6.176-9.42,9.841-14.883,11.675a7.883,7.883,0,0,1-2.365-4.5q-2.029,4.565-4.256,9-4.628,1.505-13.608-.854l-.714-2.772a2.985,2.985,0,0,0-2.664.284,33.166,33.166,0,0,1-4.25-14.659q5.981-11.169,11.448-16.7,2.083-1.317,7.434-1.06,6.012,6.635,7.3,3.59a49.492,49.492,0,0,1,4.665,5.236q1.975,3.692-.568,14.856a63.148,63.148,0,0,1,11.275-6.159A4.04,4.04,0,0,1,525.171,172Zm-35.88,10.008q5.461-6.16,5.7-18.763-3.531,4.655-7.174,9.059Q489.038,173.758,489.292,182.011Z" transform="translate(-274.045 -86.554)" fill="#2f4419" fill-rule="evenodd"/>
      <path id="Trazado_247199" data-name="Trazado 247199" d="M541.443,199.007a78.79,78.79,0,0,0,4.056-11.732q-2.052,10.318-1.374,14.316c.887.373,2.142.269,3.946-.126a18.409,18.409,0,0,1-4.265,2.04,7.881,7.881,0,0,1-2.366-4.5Z" transform="translate(-307.565 -106.381)" fill="#3f5924" fill-rule="evenodd"/>
      <path id="Trazado_247200" data-name="Trazado 247200" d="M498.368,198.855a20.451,20.451,0,0,0-.054-2.539q5.461-6.16,5.7-18.763,2.316,12.526-5.487,21.923l-.162-.618Z" transform="translate(-283.068 -100.859)" fill="#3f5924" fill-rule="evenodd"/>
      <path id="Trazado_247201" data-name="Trazado 247201" d="M522.341,173.275a49.862,49.862,0,0,0-12.105-3.787,31.973,31.973,0,0,0-.49-4.083q11.536,2.827,15.818,6.182ZM509.1,178.669q.914.228,1.9.535l-.206.11-2.39,1.246Q508.792,179.628,509.1,178.669Zm4.776,6.457,4.035-2.109a17.262,17.262,0,0,1,3.175,1.819c-.475,1.01-.953,2.022-1.443,3.026a32.046,32.046,0,0,0-5.767-2.733Zm2.052-8.5,3.748-1.959a48.505,48.505,0,0,0-9.423-2.562,25.39,25.39,0,0,1-.493,4.047q2.514.636,4.6,1.3l1.565-.819Zm9.71-14.393a33.614,33.614,0,0,0-10.961-4.5,12.39,12.39,0,0,1,2.918-1.556q4.346,4.315,5.609,2.3a18.319,18.319,0,0,1,2.434,3.755Zm-13.04-2.641A17.54,17.54,0,0,0,510.5,163.2c8.306,2.07,12.547,3.569,16.161,6.678a16.542,16.542,0,0,0,.1-4.462,40.334,40.334,0,0,0-14.172-5.827Z" transform="translate(-288.798 -88.714)" fill="#3f5924" fill-rule="evenodd"/>
      <path id="Trazado_247202" data-name="Trazado 247202" d="M527.876,158.2a16.741,16.741,0,0,1-2.007-6.093,4.15,4.15,0,0,1,1.726-1.192,22.134,22.134,0,0,0,3.253,4.919.081.081,0,0,1,.015.018c.03-.048.057-.1.089-.149a29.216,29.216,0,0,0,1.876-3.214,3.905,3.905,0,0,1,.618,1.849,11.252,11.252,0,0,1-.75,4.8,14.433,14.433,0,0,0-.717-1.628,8.377,8.377,0,0,0-1.117-1.66,7.882,7.882,0,0,0-1.6,1.033,13.414,13.414,0,0,0-1.386,1.317Z" transform="translate(-298.72 -85.725)" fill="#3f5924" fill-rule="evenodd"/>
      <path id="Trazado_247203" data-name="Trazado 247203" d="M529.764,139.019a4.886,4.886,0,0,0,1.141-1.263c-.018-.355-.018-.8,0-1.323q-2.522-3.06.066-3.414a4.247,4.247,0,0,1,.678,1.926c.37.089.281-.959.573-1.257.006-1.628.5-1.986.642-2.963,1.485-1.231,4.2-.941,7.276.412-.523,3.031-1.493,10.262-5.009,9.074l-.131.383a29.711,29.711,0,0,1-1.875,3.214l-.1.131a22.088,22.088,0,0,1-3.253-4.916Z" transform="translate(-300.874 -73.814)" fill="#ffc19d" fill-rule="evenodd"/>
      <path id="Trazado_247204" data-name="Trazado 247204" d="M538.527,126.028c-3.082-1.35-5.564-1.837-7.046-.606a12.943,12.943,0,0,0-.568,3.109c-.289.3-.278,1.2-.648,1.114a4.23,4.23,0,0,0-.678-1.926q-2.585.358-.066,3.414c-.021.529-.021.971,0,1.323-3.076-3.133-3.273-8.763.711-10.3,1.837-4.128,6.965,1.5,10.7.34.741,2.079-1.425,3.784-2.4,3.539Z" transform="translate(-299.491 -68.515)" fill="#3b5620" fill-rule="evenodd"/>
      <path id="Trazado_247205" data-name="Trazado 247205" d="M536.886,151.492a11,11,0,0,0,2.348.956l-.131.382c-.1.224-.212.448-.329.666a.057.057,0,0,0-.018-.012,5.052,5.052,0,0,1-1.873-1.989Z" transform="translate(-304.977 -86.055)" fill="#afc797" fill-rule="evenodd"/>
      <path id="Trazado_247206" data-name="Trazado 247206" d="M530.446,125.594a.91.91,0,0,0,.373-1.12,1.809,1.809,0,0,0-1.908.044C529.278,124.525,529.792,124.883,530.446,125.594Z" transform="translate(-300.448 -70.566)" fill="#3b5620" fill-rule="evenodd"/>
      <path id="Trazado_247207" data-name="Trazado 247207" d="M533.878,122.642c-.391.254-.684.254-.887,0a2.037,2.037,0,0,1,.723-1.595A2.611,2.611,0,0,0,533.878,122.642Z" transform="translate(-302.766 -68.761)" fill="#3b5620" fill-rule="evenodd"/>
      <path id="Trazado_247208" data-name="Trazado 247208" d="M548.3,129.393q.417-1.388,1.541-1.383a3.177,3.177,0,0,1,1.257,3.109q-.4-.882-2.8-1.727Z" transform="translate(-311.458 -72.716)" fill="#3b5620" fill-rule="evenodd"/>
      <path id="Trazado_247209" data-name="Trazado 247209" d="M545.294,122.271c.036.436-.289.9.239,1.174-.09,1.81,1.882-.131,2.028-.777a4.926,4.926,0,0,1-2.264-.4Z" transform="translate(-309.717 -69.456)" fill="#3b5620" fill-rule="evenodd"/>
      <path id="Trazado_247210" data-name="Trazado 247210" d="M645.753,108.834A20.586,20.586,0,0,0,607.985,124.9l-.137.072a1.173,1.173,0,0,0-.493,1.58l1.932,3.7a1.174,1.174,0,0,0,1.577.493l.14-.072a20.585,20.585,0,0,0,34.748-21.836Zm-2.548,1.332a17.709,17.709,0,1,1-23.9-7.491A17.71,17.71,0,0,1,643.205,110.166Z" transform="translate(-344.763 -55.544)" fill="#2f4419" fill-rule="evenodd"/>
      <path id="Trazado_247211" data-name="Trazado 247211" d="M595.666,164.338l-9.31,4.865,1.933,3.7,9.31-4.865Z" transform="translate(-333.08 -93.352)" fill="#375a64"/>
      <path id="Trazado_247212" data-name="Trazado 247212" d="M529.4,173.256l-1.932-3.7a1.177,1.177,0,0,0-1.58-.5L517.4,173.5l-.012.006-18.336,9.585-5.078,2.652-18.338,9.588a1.174,1.174,0,0,0-.5,1.577l1.933,3.7a1.174,1.174,0,0,0,1.577.5l8.491-4.439.012-.006,18.339-9.585,5.078-2.655,18.338-9.585A1.172,1.172,0,0,0,529.4,173.256Z" transform="translate(-269.831 -95.961)" fill="#2f4419" fill-rule="evenodd"/>
      <g id="Grupo_244326" data-name="Grupo 244326" transform="translate(265.036 45.111)" opacity="0.35">
        <path id="Trazado_247213" data-name="Trazado 247213" d="M623.091,106.452a17.71,17.71,0,1,0,23.9,7.494A17.712,17.712,0,0,0,623.091,106.452Z" transform="translate(-613.581 -104.434)" fill="#fff" fill-rule="evenodd"/>
      </g>
      <g id="Grupo_244327" data-name="Grupo 244327" transform="translate(265.128 48.057)" opacity="0.35">
        <path id="Trazado_247214" data-name="Trazado 247214" d="M623.331,141.787l25.8-15.627c.006-.532-.015-1.063-.06-1.586L621.954,141c.445.281.9.541,1.374.786Zm-6.732-6.057a17.66,17.66,0,0,1-2.8-7.876l27.4-16.6a17.754,17.754,0,0,1,5.681,6.132L616.6,135.732Zm4.25,4.513a17.684,17.684,0,0,1-2.366-2.112l29.647-17.959a17.646,17.646,0,0,1,.776,3.07Z" transform="translate(-613.794 -111.256)" fill="#fefefe" fill-rule="evenodd"/>
      </g>
      <path id="Trazado_247215" data-name="Trazado 247215" d="M492.142,226.542a9.762,9.762,0,0,0-.618-3.181,2.989,2.989,0,0,1,2.294-1.389l1.413,1.714a17.6,17.6,0,0,1,3.491,2.431,2.2,2.2,0,0,1-2.165-.326q.789,1.376.693,1.723-3,2.379-4.1,1.729a5.044,5.044,0,0,1-1.006-2.7Z" transform="translate(-279.211 -126.085)" fill="#ffc19d" fill-rule="evenodd"/>
      <path id="Trazado_247216" data-name="Trazado 247216" d="M483.167,201.575a36.1,36.1,0,0,0,3.928,11.188c.681-.463,2.362-1.562,2.879-1.288-.32-.74-.194-.63-.269-1.535a39.109,39.109,0,0,0-.878-8.407,50.463,50.463,0,0,1-5.663.044Z" transform="translate(-274.462 -114.481)" fill="#2f4419" fill-rule="evenodd"/>
      <path id="Trazado_247217" data-name="Trazado 247217" d="M579.86,189.829c.2-.188.959-.956,1.741-1.691a3.779,3.779,0,0,0,2.954-1.98c.161-1.207.627-1.658-.3-2.4a3.353,3.353,0,0,0-1.962,1.374c.045.854-.86,1.123-1.439,1.428-.741.5-.215.114-1.057.66-.374.311-.89.49-1.084.666A3.759,3.759,0,0,1,579.86,189.829Z" transform="translate(-328.737 -104.38)" fill="#ffc19d" fill-rule="evenodd"/>
      <path id="Trazado_247218" data-name="Trazado 247218" d="M541.965,135.5a.509.509,0,0,0-.666.281.512.512,0,1,0,.669-.281Z" transform="translate(-307.464 -76.951)" fill="#233313" fill-rule="evenodd"/>
      <path id="Trazado_247219" data-name="Trazado 247219" d="M541.57,136.448a.514.514,0,0,1,.391-.95.528.528,0,0,1,.251.218l-.036-.018a.166.166,0,0,0-.125.308.171.171,0,0,0,.218-.089l.006-.021a.524.524,0,0,1-.033.269.515.515,0,0,1-.669.281Z" transform="translate(-307.46 -76.948)" fill="#3b5620" fill-rule="evenodd"/>
      <path id="Trazado_247220" data-name="Trazado 247220" d="M540.642,133.836a.356.356,0,0,1,.021.039.784.784,0,0,0-.045-.167.211.211,0,0,1,.039.069.328.328,0,0,1,.018.1.481.481,0,0,0,.012-.089.179.179,0,0,1,0,.1.327.327,0,0,0,.012-.2.3.3,0,0,1,.027.191.175.175,0,0,0,.033-.075.176.176,0,0,1-.009.09l.039-.03c-.012.021-.018.027-.027.041.06-.021.182-.122.194-.188a.485.485,0,0,1-.072.083.551.551,0,0,0,.06-.149c-.024.03-.033.077-.057.11a.3.3,0,0,1-.075.093.5.5,0,0,0,.084-.227l-.009.021a.589.589,0,0,1-.045.122c.012-.078.039-.143-.006-.218a.558.558,0,0,1,.012.1c-.021-.045-.015-.111-.069-.134a.55.55,0,0,1,.045.11.175.175,0,0,1,0,.134.3.3,0,0,0-.134-.292.3.3,0,0,1,.078.137v.006c-.018.033,0-.033-.006.006a.27.27,0,0,1,.03.08.325.325,0,0,1,.006.054v.033c0,.009,0,.006-.006.015l-.006.006a.371.371,0,0,0-.06-.227.457.457,0,0,0-.149-.143v.006l.036.033a.4.4,0,0,1,.158.314c-.006-.006,0,0-.006-.012v-.009a.717.717,0,0,0-.045-.131.516.516,0,0,0-.081-.119.625.625,0,0,0-.248-.152,1.1,1.1,0,0,1,.17.1.362.362,0,0,1,.126.149.431.431,0,0,1-.057-.051,1.285,1.285,0,0,0-.445-.281,1.106,1.106,0,0,1,.236.167l-.047-.024s.021.021.036.033a.387.387,0,0,1,.033.033.578.578,0,0,1,.158.251c-.012-.024-.033-.048-.048-.072s-.033-.045-.051-.072a1.2,1.2,0,0,0-.117-.131,1.556,1.556,0,0,0-.283-.212.131.131,0,0,1,.036.042,4.439,4.439,0,0,0-.457-.236c.044.033.128.066.179.1l.047.036c-.033-.009-.125-.066-.164-.084a2.743,2.743,0,0,0-.529-.227,1.047,1.047,0,0,0-.43-.06.975.975,0,0,0-.3.072.6.6,0,0,0-.078.042,1.164,1.164,0,0,1,.359-.087,2.169,2.169,0,0,0-.586.215,1.328,1.328,0,0,0,.159-.063c.057-.021.111-.039.17-.057a1.229,1.229,0,0,1,.379-.063.907.907,0,0,1-.146.033,4.548,4.548,0,0,0-.812.266c-.03.012-.1.048-.117.057a1.246,1.246,0,0,0,.17-.057,1.7,1.7,0,0,1,.562-.111,4.6,4.6,0,0,0-.577.125l.338-.06a1.736,1.736,0,0,1,.373-.021,3.017,3.017,0,0,0-.717.1,1.391,1.391,0,0,0,.182-.027l.2-.018a2.059,2.059,0,0,1,.409.012,2.192,2.192,0,0,1,.508.146c.047.021.11.051.155.066a.56.56,0,0,0-.134-.072,1.932,1.932,0,0,0-.287-.111,1.563,1.563,0,0,1-.152-.042,2.731,2.731,0,0,1,.319.06c-.009-.006,0,0-.012-.006s-.006,0-.012-.006a1.137,1.137,0,0,1,.23.1,2.146,2.146,0,0,1,.191.137.226.226,0,0,1-.033-.048l.155.09-.182-.137a1.037,1.037,0,0,1,.122.077,1.809,1.809,0,0,1,.176.111,1.019,1.019,0,0,0,.2.1.64.64,0,0,0-.1-.072l-.1-.072c-.018-.015-.033-.024-.05-.039a1.687,1.687,0,0,0-.137-.114,1.264,1.264,0,0,0-.451-.236,1.039,1.039,0,0,1,.475.227l.194.159a.424.424,0,0,1,.048.039c.048.036.1.077.149.11v-.021a.367.367,0,0,0,.092.069c-.039-.069-.161-.149-.188-.227a.668.668,0,0,1,.116.125c.012.015.027.024.039.039a.634.634,0,0,0-.119-.209l-.051-.06a.368.368,0,0,1,.131.14,1.226,1.226,0,0,1,.075.155l.006.009a.023.023,0,0,0,.009.009l-.024-.1a.885.885,0,0,1,.048.135.4.4,0,0,0-.021-.135l.024.033a.845.845,0,0,0-.188-.281.58.58,0,0,1,.209.263c.012.042.018.087.033.123v-.075l.024.057a.429.429,0,0,0-.066-.221.114.114,0,0,1,.044.054.225.225,0,0,1,.03.069.746.746,0,0,1,.033.158.176.176,0,0,0,.006-.089c.015.009,0,0,.015.012a.353.353,0,0,1,.033.086l.006-.054.021.06a.823.823,0,0,0,0-.123.167.167,0,0,1,.027.111.148.148,0,0,0,.009-.066l.027.054.018.054a.665.665,0,0,0-.018-.12.334.334,0,0,1,.054.14.405.405,0,0,0-.027-.185c.045.021.036.152.051.185l.012-.054.006.012.012.06.018-.069c.015.024.009.045.015.078a.657.657,0,0,0,.015-.093c.009.006,0,0,.009.015s.015.06.027.084l-.006-.06s0,0,.009.009l.018.027Z" transform="translate(-305.507 -75.451)" fill="#3b5620" fill-rule="evenodd"/>
      <path id="Trazado_247221" data-name="Trazado 247221" d="M549.862,137.564a.512.512,0,1,1-.666.278A.512.512,0,0,1,549.862,137.564Z" transform="translate(-311.949 -78.121)" fill="#233313" fill-rule="evenodd"/>
      <path id="Trazado_247222" data-name="Trazado 247222" d="M549.478,138.509a.512.512,0,1,0,.06-.968l.039.009a.166.166,0,0,1,.089.218.165.165,0,1,1-.3-.125l.009-.018a.5.5,0,0,0-.167.215.513.513,0,0,0,.278.669Z" transform="translate(-311.954 -78.12)" fill="#3b5620" fill-rule="evenodd"/>
      <path id="Trazado_247223" data-name="Trazado 247223" d="M548.534,136.165l-.033.018a1.1,1.1,0,0,1,.122-.117.306.306,0,0,0-.066.036.393.393,0,0,0-.066.072.535.535,0,0,1,.039-.083.328.328,0,0,0-.057.086.4.4,0,0,1,.1-.173.33.33,0,0,0-.123.146.305.305,0,0,1,.015-.081.15.15,0,0,0-.042.081l-.012-.045v.051a.364.364,0,0,1-.039-.263.568.568,0,0,0,.006.108.658.658,0,0,1,.036-.155c0,.038-.018.086-.021.122a.233.233,0,0,0,.006.114.539.539,0,0,1,.06-.233v.021a.631.631,0,0,0-.039.128c.033-.072.048-.14.122-.179-.021.027-.039.042-.063.075.039-.027.072-.083.123-.078a.539.539,0,0,0-.093.069c-.027.024-.072.072-.072.111a.306.306,0,0,1,.257-.176c-.027.006-.117.042-.131.072v.006c-.009.036.012-.033,0,.006a.221.221,0,0,0-.066.054.236.236,0,0,0-.033.042.082.082,0,0,0-.015.027l-.006.015v.009a.38.38,0,0,1,.165-.159.458.458,0,0,1,.188-.044h-.006l-.044.009a.384.384,0,0,0-.284.179c.006,0,0,0,.012-.006s0,0,.006-.006a.65.65,0,0,1,.1-.087.591.591,0,0,1,.126-.06.568.568,0,0,1,.266,0,1.222,1.222,0,0,0-.182,0,.328.328,0,0,0-.173.06.532.532,0,0,0,.069-.012,1.139,1.139,0,0,1,.481-.006.871.871,0,0,0-.266.021h.048a.367.367,0,0,1-.045.012c-.015.006-.027.006-.042.012a.538.538,0,0,0-.254.126l.075-.036a.539.539,0,0,1,.077-.033,1.551,1.551,0,0,1,.155-.051,1.47,1.47,0,0,1,.323-.033.156.156,0,0,0-.048.018,3.117,3.117,0,0,1,.463.038c-.051.006-.129-.012-.185-.009l-.054.006c.027.006.125.006.167.012a1.932,1.932,0,0,1,.511.084.819.819,0,0,1,.532.385.573.573,0,0,1,.036.075c-.042-.045-.117-.2-.218-.26a1.73,1.73,0,0,1,.314.487,1.152,1.152,0,0,1-.08-.137c-.03-.045-.06-.089-.093-.134a1.085,1.085,0,0,0-.248-.251c.018.027.066.078.09.1a4.244,4.244,0,0,1,.457.642c.015.03.041.092.054.111-.018-.015-.072-.108-.092-.135a1.458,1.458,0,0,0-.355-.385,3.547,3.547,0,0,1,.359.4l-.215-.224a1.243,1.243,0,0,0-.263-.209,2.376,2.376,0,0,1,.472.46c-.036-.027-.084-.084-.123-.119s-.086-.078-.134-.117a1.531,1.531,0,0,0-.308-.2,1.755,1.755,0,0,0-.451-.14,1.186,1.186,0,0,1-.149-.027.548.548,0,0,1,.137.012,2.1,2.1,0,0,1,.269.057c.036.009.1.042.134.045a2.217,2.217,0,0,0-.269-.114h.024a.72.72,0,0,0-.224-.033c-.066,0-.206.015-.215.012a.136.136,0,0,0,.051-.021l-.161-.006.206-.018a.959.959,0,0,0-.132,0H549.3a.631.631,0,0,1-.2-.021c.021-.006.087-.006.117-.009l.111-.009a.184.184,0,0,0,.057-.006.981.981,0,0,1,.165-.024,1.036,1.036,0,0,1,.46.033.867.867,0,0,0-.472-.054l-.227.033c-.021,0-.036.006-.057.006a1.469,1.469,0,0,1-.17.018l.006-.009V136.3a.312.312,0,0,1-.1.009c.063-.036.2-.039.26-.092a.526.526,0,0,0-.155.045c-.015.006-.033.006-.048.012a.643.643,0,0,1,.2-.113l.072-.021a.316.316,0,0,0-.173.051c-.048.024-.092.06-.14.089-.006.006,0,0-.009.006s-.006,0-.012,0l.072-.072c-.012.018-.1.066-.108.09a.424.424,0,0,1,.086-.1l-.036.015a.894.894,0,0,1,.29-.137.548.548,0,0,0-.292.114c-.033.027-.06.063-.09.086l.042-.06-.048.033a.533.533,0,0,1,.167-.152.153.153,0,0,0-.066.021.6.6,0,0,0-.057.042.66.66,0,0,0-.108.116.252.252,0,0,1,.042-.078h-.018c-.027.009-.051.042-.069.06l.024-.048-.048.042a.977.977,0,0,1,.066-.1c-.033.009-.054.045-.078.075a.132.132,0,0,1,.027-.06l-.048.033s-.027.024-.042.036a.474.474,0,0,1,.078-.089.4.4,0,0,0-.117.089.441.441,0,0,1,.12-.14c-.045-.006-.111.111-.137.129l.018-.051-.009.006-.042.045.024-.066a.251.251,0,0,0-.051.06.43.43,0,0,1,.036-.084c-.009.006,0,0-.015.006s-.042.042-.066.057l.036-.048h-.012l-.03.015Z" transform="translate(-311.496 -77.15)" fill="#3b5620" fill-rule="evenodd"/>
      <path id="Trazado_247224" data-name="Trazado 247224" d="M544.566,141.218a1.206,1.206,0,0,1-.359-.075.6.6,0,0,0-.137-.039h-.015a.1.1,0,0,1-.092-.072.089.089,0,0,1,.066-.1.481.481,0,0,1,.233.045c.26.086.472.134.622-.162a11.242,11.242,0,0,0,.08-2.291.087.087,0,0,1,.045-.117.09.09,0,0,1,.117.045,10.178,10.178,0,0,1-.084,2.443.52.52,0,0,1-.481.326Z" transform="translate(-308.998 -78.618)" fill="#3b5620"/>
      <path id="Trazado_247225" data-name="Trazado 247225" d="M543.869,147.4a3.437,3.437,0,0,1-1.948-.3c-.424-.176-.958-.606-.621-.125.914,1.3,2.593.884,2.572.427Z" transform="translate(-307.425 -83.365)" fill="#fff" fill-rule="evenodd"/>
      <path id="Trazado_247226" data-name="Trazado 247226" d="M991.019,884.192c2.428-.893,2.618-2.207,3.926-2.847s1.464-1.792.181-3.04c-.955.8-2.13,1.777-2.755,1.257-.415-.346-1.831-.323-2.112.182-1.231,3-2.942,2.052-3.279,3.42C986.943,884.98,989.908,884.6,991.019,884.192Z" transform="translate(-560.656 -498.922)" fill="#3b5620" fill-rule="evenodd"/>
      <path id="Trazado_247227" data-name="Trazado 247227" d="M945.075,879.87c4.268-.072,7.461-.125,8.933-.615,1.589-.529,1.26-1.544.347-3.172-4.02,1.942-2.951-.4-4.833-.1a11.64,11.64,0,0,1-5.872,2.249c-1.1.848-.651,1.6,1.425,1.643Z" transform="translate(-535.711 -497.587)" fill="#3b5620" fill-rule="evenodd"/>
      <path id="Trazado_247228" data-name="Trazado 247228" d="M940.5,640.515a27.652,27.652,0,0,1,5.741-1.18q.461,7.37,7.326-.1c4.409.388,5.269.448,7.717,1.282,5.291,5.3,5.78,11.424,8.544,18.422a18.049,18.049,0,0,0-6.522,1.308q-.667-2.513-1.123-4.047.129,13.844.1,18.966c-10.127,4.211-18.469,2.769-21.877-.514q-.072-12.3-.194-19.477a22.9,22.9,0,0,1-3.369,3.486c-2.482-2.987-4.164-4.19-5.573-5.953a77.632,77.632,0,0,1,9.235-12.192Z" transform="translate(-529.009 -363.117)" fill="#375a64" fill-rule="evenodd"/>
      <path id="Trazado_247229" data-name="Trazado 247229" d="M898.6,656.847a68.557,68.557,0,0,1,11.176,5.752l.947-1.469c.881.926,1.885,1.831,3.109,3.148a17.072,17.072,0,0,1-3.766,3.133q-5.542-.619-12.258-8.814a5.354,5.354,0,0,1-3.073-1.589,2.85,2.85,0,0,1,1.012-2.117q-2.782-1.9-2.216-2.727,4.363,2.831,5.068,4.68Z" transform="translate(-507.517 -370.462)" fill="#ffc19d" fill-rule="evenodd"/>
      <path id="Trazado_247230" data-name="Trazado 247230" d="M950.6,721.226c.2.8-.63,5.484-.765,7.927-1.347,8.724-.194,20.08.531,34.679,1.3,5.146,3.211,12,3.088,21.654a7.169,7.169,0,0,0,5.116.254c1.425-10.069.451-18.136-.836-21.86.827-5.759,2.055-12.2,3.85-21.5,2.022,10.131,4.725,17.649,5.893,22.553.23,5.466,1.284,12.849,1.837,22.141a9.071,9.071,0,0,0,4.466.463c2.255-8.545,1.875-17.837.92-27.885-1.019-12.075.657-25.716-1.024-30.444a36.592,36.592,0,0,1-1.2-7.47Q959.8,726.166,950.6,721.226Z" transform="translate(-539.201 -409.693)" fill="#b1c49e" fill-rule="evenodd"/>
      <path id="Trazado_247231" data-name="Trazado 247231" d="M966.9,679.563c.54.086,1.054.161,1.538.227q.039,6.107.022,9.143a6.254,6.254,0,0,1-1.676.549c0-.26.081-.866.084-1.123q.049-4.668.033-8.8Zm-24.763-8.154a18.955,18.955,0,0,0,4.259-6.347,25.622,25.622,0,0,0-.182,4.1,22.366,22.366,0,0,1-3.2,3.273c-.305-.364-.594-.7-.878-1.021Zm24.339-7.933q.986,3.328,1.88,6.5.033,2.675.043,5.024c-.432-.045-.942-.072-1.544-.086Q966.77,668.413,966.48,663.476Z" transform="translate(-535.184 -376.888)" fill="#b1c49e" fill-rule="evenodd"/>
      <path id="Trazado_247232" data-name="Trazado 247232" d="M963.038,870.727a11.335,11.335,0,0,0-.045,2.362c-3.366,1.535-2.8-.236-4.14-.281a6.413,6.413,0,0,0,.657-2.392,6.537,6.537,0,0,0,3.524.311Zm15.688,1.619a7.311,7.311,0,0,0,.173,1.688c-.9.747-1.935,1.526-2.5,1.048a2.094,2.094,0,0,0-1.508-.173,17.938,17.938,0,0,0,.517-2.9,8.421,8.421,0,0,0,3.319.334Z" transform="translate(-544.677 -494.44)" fill="#ffc19d" fill-rule="evenodd"/>
      <path id="Trazado_247233" data-name="Trazado 247233" d="M949.842,739.578q8.915,8.727,23.847.057c1.68,4.728,0,18.369,1.019,30.444.959,10.048,1.335,19.342-.92,27.884-.186.021-.359.042-.531.06a8.351,8.351,0,0,1-3.317-.334c-.2-.057-.4-.117-.612-.185-.552-9.292-1.607-16.675-1.837-22.141-1.168-4.907-3.871-12.425-5.893-22.553-1.792,9.3-3.022,15.74-3.85,21.5,1.288,3.721,2.261,11.788.837,21.86-.371.1-.7.179-1.01.239a6.566,6.566,0,0,1-3.524-.311c-.185-.054-.379-.116-.582-.182.125-9.65-1.792-16.5-3.089-21.654-.726-14.6-1.879-25.955-.532-34.679Z" transform="translate(-539.209 -420.118)" fill="#233313" fill-rule="evenodd"/>
      <path id="Trazado_247234" data-name="Trazado 247234" d="M964.359,852.819a14.557,14.557,0,0,1-5.955.559c-.039-.5-.084-.988-.132-1.473a15.786,15.786,0,0,0,6.132-.415C964.395,851.926,964.38,852.371,964.359,852.819Zm15.846,1.733a13.872,13.872,0,0,1-6.268-.493c-.045-.517-.092-1.034-.137-1.535a15.463,15.463,0,0,0,6.535.717C980.3,853.677,980.253,854.115,980.205,854.552Zm-5.963,3.267c-.039-.514-.078-1.021-.117-1.526a15.5,15.5,0,0,0,5.777.5c-.065.445-.143.884-.22,1.323a14.25,14.25,0,0,1-5.44-.3Zm-15.737-2.846a15.656,15.656,0,0,0,5.732-.1c-.033.439-.072.887-.111,1.338a14.331,14.331,0,0,1-5.558.239C958.553,855.946,958.532,855.457,958.505,854.973Z" transform="translate(-544.347 -483.69)" fill="#2f4419" fill-rule="evenodd"/>
      <path id="Trazado_247235" data-name="Trazado 247235" d="M969.087,648.635a.421.421,0,0,0-.373.439.383.383,0,0,0,.412.377.416.416,0,0,0,.373-.436A.385.385,0,0,0,969.087,648.635Z" transform="translate(-550.279 -368.457)" fill="#b1c49e" fill-rule="evenodd"/>
      <path id="Trazado_247236" data-name="Trazado 247236" d="M950.653,668.593H938.919a.816.816,0,0,0-.824.98l2.634,16.624a1.191,1.191,0,0,0,1.132.977H953.6a.818.818,0,0,0,.825-.977l-2.634-16.624A1.193,1.193,0,0,0,950.653,668.593Z" transform="translate(-532.879 -379.795)" fill="#3b5620" fill-rule="evenodd"/>
      <path id="Trazado_247237" data-name="Trazado 247237" d="M968.164,645.4a20.392,20.392,0,0,0,4.277-6.511,5.019,5.019,0,0,0-1.648-1.936,26.758,26.758,0,0,1-5.364,4.737c-.006.006-.018.009-.024.015-.018-.066-.039-.134-.057-.2a35.579,35.579,0,0,1-1.186-4.364,4.8,4.8,0,0,0-1.308,1.971,13.6,13.6,0,0,0-.636,5.866,16.459,16.459,0,0,1,1.353-1.679,9.954,9.954,0,0,1,1.834-1.6,9.789,9.789,0,0,1,1.553,1.717,16.636,16.636,0,0,1,1.21,1.981Z" transform="translate(-546.551 -361.824)" fill="#b1c49e" fill-rule="evenodd"/>
      <path id="Trazado_247238" data-name="Trazado 247238" d="M968.864,620.2a5.84,5.84,0,0,1-.935-1.843q.2-.618.415-1.553,3.92-2.791,1-4.023a5.164,5.164,0,0,0-1.4,2.043c-.46-.006-.027-1.206-.272-1.654.505-1.909.042-2.485.182-3.674-1.35-1.914-4.624-2.431-8.661-1.816-.34,3.721-1.493,12.5,3.008,12.219l.033.49a35.367,35.367,0,0,0,1.186,4.361l.084.188A26.75,26.75,0,0,0,968.864,620.2Z" transform="translate(-544.65 -345.052)" fill="#ffc19d" fill-rule="evenodd"/>
      <path id="Trazado_247239" data-name="Trazado 247239" d="M957.221,602.245c4.038-.609,7.106-.4,8.453,1.517-.141,1.189.188,1.911-.32,3.823.248.448-.05,1.5.41,1.505a5.2,5.2,0,0,1,1.4-2.043q2.921,1.232-1,4.023c-.143.624-.281,1.141-.415,1.553,4.594-2.7,6.6-9.238,2.419-12.306-.851-5.418-8.638-.445-12.649-2.98-1.526,2.207.475,4.886,1.7,4.907Z" transform="translate(-542.472 -339.318)" fill="#3b5620" fill-rule="evenodd"/>
      <path id="Trazado_247240" data-name="Trazado 247240" d="M969.715,635.409a12.91,12.91,0,0,1-3.055.377l.033.49c.048.3.108.591.173.884a.05.05,0,0,1,.027-.009A6.13,6.13,0,0,0,969.715,635.409Z" transform="translate(-549.112 -360.944)" fill="#afc797" fill-rule="evenodd"/>
      <path id="Trazado_247241" data-name="Trazado 247241" d="M986.124,606.583a1.1,1.1,0,0,1-.086-1.431,2.2,2.2,0,0,1,2.225.654q-.649-.166-2.142.777Z" transform="translate(-559.992 -343.719)" fill="#3b5620" fill-rule="evenodd"/>
      <path id="Trazado_247242" data-name="Trazado 247242" d="M984.343,602.238c.38.421.723.517,1.04.281a2.476,2.476,0,0,0-.346-2.1,3.149,3.149,0,0,1-.7,1.819Z" transform="translate(-559.155 -341.07)" fill="#3b5620" fill-rule="evenodd"/>
      <path id="Trazado_247243" data-name="Trazado 247243" d="M961.728,605.259c-.033-1.171-.487-1.873-1.374-2.106A3.859,3.859,0,0,0,957.9,606.4q.744-.91,3.826-1.141Z" transform="translate(-544.135 -342.621)" fill="#3b5620" fill-rule="evenodd"/>
      <path id="Trazado_247244" data-name="Trazado 247244" d="M969.357,598.142c-.179.5.054,1.153-.651,1.3-.469,2.151-2.165-.749-2.129-1.553a5.967,5.967,0,0,0,2.783.251Z" transform="translate(-549.064 -339.632)" fill="#3b5620" fill-rule="evenodd"/>
      <path id="Trazado_247245" data-name="Trazado 247245" d="M968.661,655.232a.417.417,0,0,0-.37.442.385.385,0,0,0,.412.376.416.416,0,0,0,.37-.439A.387.387,0,0,0,968.661,655.232Z" transform="translate(-550.038 -372.204)" fill="#b1c49e" fill-rule="evenodd"/>
      <path id="Trazado_247246" data-name="Trazado 247246" d="M968.229,661.828a.421.421,0,0,0-.373.439.39.39,0,0,0,.412.379.416.416,0,0,0,.371-.439.387.387,0,0,0-.412-.379Z" transform="translate(-549.791 -375.951)" fill="#b1c49e" fill-rule="evenodd"/>
      <path id="Trazado_247247" data-name="Trazado 247247" d="M986.436,684.99a15.43,15.43,0,0,1,.289,6.418c-1.2,1.834-6.056.81-18.561-1.386a3.326,3.326,0,0,1-2.783.666c-1.308-.343-1.371-.7-2.838-2.15a2.627,2.627,0,0,1,.218-2.589c1.649,1.021,2.521,1.565,4.382,1.628-.5-1.335-.568-2.2-.224-2.59a3.924,3.924,0,0,1,1.24,2.41c9.859-.451,12.459-.391,13.768.332-.143-.651-.268-1.222-.38-1.714a16.7,16.7,0,0,1,4.89-1.028Z" transform="translate(-546.647 -389.107)" fill="#ffc19d" fill-rule="evenodd"/>
      <path id="Trazado_247248" data-name="Trazado 247248" d="M970.013,615.782c.245-.033.463.2.49.514a.56.56,0,0,1-.4.633c-.248.033-.466-.2-.49-.514A.554.554,0,0,1,970.013,615.782Z" transform="translate(-550.79 -349.794)" fill="#233313" fill-rule="evenodd"/>
      <path id="Trazado_247249" data-name="Trazado 247249" d="M970.106,616.929a.559.559,0,0,0,.4-.633c-.024-.317-.245-.546-.49-.514a.414.414,0,0,0-.263.158l.033-.009c.08-.009.152.063.158.167a.177.177,0,0,1-.125.2c-.084.012-.149-.063-.162-.167v-.018a.713.713,0,0,0-.038.3c.024.317.242.549.49.514Z" transform="translate(-550.79 -349.794)" fill="#3b5620" fill-rule="evenodd"/>
      <path id="Trazado_247250" data-name="Trazado 247250" d="M968.339,614.131a.3.3,0,0,0-.033.033.911.911,0,0,1,.1-.164.294.294,0,0,0-.066.06.5.5,0,0,0-.051.1.3.3,0,0,1,.015-.1.229.229,0,0,0-.033.114.4.4,0,0,1,.048-.218.326.326,0,0,0-.09.2.29.29,0,0,1-.015-.089.144.144,0,0,0-.018.1l-.033-.044a.591.591,0,0,1,.018.057.415.415,0,0,1-.149-.269.335.335,0,0,0,.054.113.583.583,0,0,1-.021-.179,1,1,0,0,1,.024.14.386.386,0,0,0,.051.123.52.52,0,0,1-.018-.272v.024a1.245,1.245,0,0,0,.012.149c.012-.087,0-.17.075-.233a.6.6,0,0,0-.045.1c.039-.042.054-.114.117-.123a.994.994,0,0,0-.084.1c-.024.036-.06.1-.045.143a.346.346,0,0,1,.242-.272c-.033.018-.122.083-.128.122v.006c.006.042.006-.039,0,.009a.257.257,0,0,0-.06.078.309.309,0,0,0-.018.057.083.083,0,0,0-.009.033v.027a.419.419,0,0,1,.14-.224.649.649,0,0,1,.206-.111l-.006.006-.051.021a.464.464,0,0,0-.269.29c.006-.006,0,0,.009-.012l.006-.009a.612.612,0,0,1,.086-.128.641.641,0,0,1,.126-.1.687.687,0,0,1,.317-.086,1.553,1.553,0,0,0-.218.06.427.427,0,0,0-.185.122.617.617,0,0,0,.078-.036,1.612,1.612,0,0,1,.573-.164,1.063,1.063,0,0,0-.311.108l.06-.012c-.018.006-.033.018-.051.024s-.03.015-.045.024a.693.693,0,0,0-.254.221c.021-.021.05-.045.074-.066s.051-.039.081-.06a1.239,1.239,0,0,1,.167-.108,1.519,1.519,0,0,1,.374-.137.1.1,0,0,0-.054.033,4.821,4.821,0,0,1,.571-.111c-.06.021-.158.03-.227.048l-.063.024a2.057,2.057,0,0,0,.2-.038,2.678,2.678,0,0,1,.645-.075,1.157,1.157,0,0,1,.487.072,1.078,1.078,0,0,1,.3.173.525.525,0,0,1,.072.069,1.4,1.4,0,0,0-.362-.209,2.172,2.172,0,0,1,.565.424c-.042-.027-.1-.087-.149-.123a1.979,1.979,0,0,0-.164-.114,1.356,1.356,0,0,0-.391-.188c.033.024.111.063.149.083a5.027,5.027,0,0,1,.791.544,1.48,1.48,0,0,0,.111.1,1.863,1.863,0,0,1-.164-.117,1.981,1.981,0,0,0-.574-.3,5.011,5.011,0,0,1,.582.32l-.346-.173a1.664,1.664,0,0,0-.394-.14,3.286,3.286,0,0,1,.744.346c-.057-.018-.134-.063-.191-.087-.072-.033-.137-.06-.206-.083a2.089,2.089,0,0,0-.448-.12,2.337,2.337,0,0,0-.594,0c-.057.006-.134.018-.188.018a.82.82,0,0,1,.164-.033,3.4,3.4,0,0,1,.346-.027c.048,0,.143.012.179.006a2.842,2.842,0,0,0-.365-.036h.015c.012,0,.006,0,.015-.009a1.251,1.251,0,0,0-.281.036c-.084.021-.242.084-.251.087.018-.015.036-.024.054-.039l-.2.045.242-.087a1.561,1.561,0,0,0-.158.045c-.06.015-.176.045-.227.063a.986.986,0,0,1-.245.042c.021-.012.1-.036.134-.048l.128-.045.069-.024a1.522,1.522,0,0,1,.185-.081,1.343,1.343,0,0,1,.565-.11,1.168,1.168,0,0,0-.585.092l-.26.111a.581.581,0,0,0-.066.027,1.9,1.9,0,0,1-.2.072l.006-.015v-.006a.576.576,0,0,1-.126.044c.063-.06.224-.111.278-.188a.792.792,0,0,0-.167.1c-.018.012-.036.021-.054.033a.651.651,0,0,1,.194-.188l.078-.044a.381.381,0,0,0-.188.11,1.009,1.009,0,0,0-.131.143.031.031,0,0,0-.009.012c-.009.006-.006,0-.015.006l.06-.1c-.012.021-.093.1-.1.131a.477.477,0,0,1,.066-.137l-.039.027a.992.992,0,0,1,.292-.242.641.641,0,0,0-.307.215.9.9,0,0,1-.075.122l.03-.08-.045.054a.526.526,0,0,1,.143-.218.147.147,0,0,0-.069.045.361.361,0,0,0-.054.063.818.818,0,0,0-.086.161.249.249,0,0,1,.021-.1c-.021.006-.006,0-.021.009a.3.3,0,0,0-.063.087l.012-.06-.042.06a.8.8,0,0,1,.039-.134.213.213,0,0,0-.063.11.128.128,0,0,1,.006-.074l-.045.051-.033.051a.4.4,0,0,1,.06-.123.4.4,0,0,0-.1.134.454.454,0,0,1,.09-.191c-.057.009-.09.155-.117.185v-.06l-.009.009-.033.06v-.077a.356.356,0,0,0-.036.08.541.541,0,0,1,.009-.1c-.009.006,0,0-.015.012s-.033.057-.054.081l.021-.063-.012.006-.03.027Z" transform="translate(-549.893 -348.525)" fill="#3b5620" fill-rule="evenodd"/>
      <path id="Trazado_247251" data-name="Trazado 247251" d="M960.936,615.478a.56.56,0,0,0-.371.633c.021.32.227.547.454.514a.561.561,0,0,0,.371-.633C961.365,615.675,961.162,615.445,960.936,615.478Z" transform="translate(-545.649 -349.621)" fill="#233313" fill-rule="evenodd"/>
      <path id="Trazado_247252" data-name="Trazado 247252" d="M961.016,616.631c-.23.033-.433-.2-.457-.514a.56.56,0,0,1,.374-.633.321.321,0,0,1,.263.084h-.033c-.075.009-.128.1-.123.206s.072.176.149.164.126-.1.12-.2v-.021a.7.7,0,0,1,.078.284C961.41,616.317,961.246,616.6,961.016,616.631Z" transform="translate(-545.645 -349.624)" fill="#3b5620" fill-rule="evenodd"/>
      <path id="Trazado_247253" data-name="Trazado 247253" d="M960.6,614.313l.024.033a1.382,1.382,0,0,0-.074-.164.26.26,0,0,1,.047.06.425.425,0,0,1,.036.1.844.844,0,0,0-.012-.1.313.313,0,0,1,.027.111.49.49,0,0,0-.039-.218.431.431,0,0,1,.069.2.27.27,0,0,0,.009-.089.231.231,0,0,1,.015.1l.018-.042a.247.247,0,0,1-.009.054.5.5,0,0,0,.1-.269.642.642,0,0,1-.033.113.868.868,0,0,0,.009-.179.715.715,0,0,0-.015.137.421.421,0,0,1-.036.126.767.767,0,0,0,.009-.275v.027a1.224,1.224,0,0,1-.006.149.408.408,0,0,0-.06-.233.882.882,0,0,1,.033.1c-.03-.038-.039-.113-.087-.122a.741.741,0,0,1,.063.1.24.24,0,0,1,.033.143c-.033-.159-.1-.242-.176-.272a.363.363,0,0,1,.1.122v.006c-.006.045-.006-.039,0,.009a.239.239,0,0,1,.045.078c.006.015.012.036.018.057s.006.027.006.033v.027a.433.433,0,0,0-.1-.224.417.417,0,0,0-.149-.107h.006l.033.024a.421.421,0,0,1,.2.287c-.006-.006,0,0-.006-.012v-.009a.687.687,0,0,0-.066-.125.436.436,0,0,0-.093-.1.411.411,0,0,0-.227-.087.846.846,0,0,1,.158.06.3.3,0,0,1,.131.122.277.277,0,0,1-.054-.036.915.915,0,0,0-.412-.161.728.728,0,0,1,.224.108l-.045-.012.033.024a.143.143,0,0,1,.036.024.6.6,0,0,1,.185.218.562.562,0,0,0-.057-.063.389.389,0,0,0-.06-.06.659.659,0,0,0-.122-.1.985.985,0,0,0-.266-.137.177.177,0,0,1,.036.033,2.373,2.373,0,0,0-.412-.108c.045.021.114.03.161.048l.045.024c-.027,0-.11-.033-.149-.039a1.5,1.5,0,0,0-.463-.075.664.664,0,0,0-.346.072.824.824,0,0,0-.209.173c-.021.027-.033.045-.051.072.045-.033.149-.179.254-.212a1.788,1.788,0,0,0-.4.424,1.458,1.458,0,0,0,.1-.122c.039-.042.078-.078.117-.117a1.076,1.076,0,1,1,.17-.1,4.36,4.36,0,0,0-.556.546c-.021.024-.06.087-.075.1.018-.012.09-.1.117-.116a1.276,1.276,0,0,1,.4-.3,3.2,3.2,0,0,0-.412.323l.242-.176a.987.987,0,0,1,.281-.137,2.032,2.032,0,0,0-.526.346c.036-.018.093-.063.134-.089a1.482,1.482,0,0,1,.146-.084,1.056,1.056,0,0,1,.32-.116,1.177,1.177,0,0,1,.424-.006.711.711,0,0,0,.134.018.421.421,0,0,0-.119-.03,1.4,1.4,0,0,0-.248-.027,1.014,1.014,0,0,1-.129.006,1.212,1.212,0,0,1,.263-.036h-.009c-.009-.006-.006,0-.012-.006a.772.772,0,0,1,.2.033c.057.018.173.084.179.084a.268.268,0,0,1-.038-.042l.14.044-.174-.086c.033.006.078.033.111.042a1.584,1.584,0,0,1,.165.063.544.544,0,0,0,.176.042.5.5,0,0,0-.1-.045l-.092-.048a.233.233,0,0,1-.048-.027,1.263,1.263,0,0,0-.137-.078c-.083-.044-.32-.143-.4-.11.111-.051.34.048.421.092l.188.107a.2.2,0,0,1,.048.03,1.3,1.3,0,0,0,.14.072V614.3h-.006v-.006a.264.264,0,0,0,.087.045c-.045-.06-.159-.108-.2-.182a.607.607,0,0,1,.123.1.381.381,0,0,1,.039.033.614.614,0,0,0-.143-.188l-.057-.045c.044.006.1.066.137.111a1.251,1.251,0,0,1,.1.143l.009.009s0,.006.009.006l-.047-.1a.8.8,0,0,1,.072.131.562.562,0,0,0-.051-.137l.027.024a.787.787,0,0,0-.215-.239c.066.009.182.137.227.215.018.039.036.089.054.119l-.021-.077h.006l.03.051a.549.549,0,0,0-.1-.218.114.114,0,0,1,.048.045.342.342,0,0,1,.042.063,1,1,0,0,1,.063.162.426.426,0,0,0-.018-.1c.012.006,0,0,.012.009a.4.4,0,0,1,.045.084l-.006-.06.03.06a1.344,1.344,0,0,0-.03-.131.276.276,0,0,1,.047.108c0-.018-.006-.048-.009-.072l.033.047c.009.018.021.036.027.051a.447.447,0,0,0-.045-.123.382.382,0,0,1,.075.134.537.537,0,0,0-.066-.188c.039.009.066.152.086.185V614.3l.006.009.027.063-.006-.08c.018.021.018.047.03.08a.8.8,0,0,0-.006-.1c.006.006,0,0,.009.012s.024.057.042.081l-.021-.063.009.006.021.024Z" transform="translate(-544.359 -348.635)" fill="#3b5620" fill-rule="evenodd"/>
      <path id="Trazado_247254" data-name="Trazado 247254" d="M963.916,620.861a.085.085,0,0,1-.054-.018.835.835,0,0,0-.164-.018c-.251-.009-.723-.03-.78-.6a11.614,11.614,0,0,1,.9-2.607.1.1,0,0,1,.137,0,.1.1,0,0,1,0,.14,13.122,13.122,0,0,0-.839,2.446c.039.373.278.412.589.424a.552.552,0,0,1,.266.051.1.1,0,0,1,.024.137.091.091,0,0,1-.083.045Z" transform="translate(-546.987 -350.82)" fill="#3b5620"/>
      <path id="Trazado_247255" data-name="Trazado 247255" d="M966.451,627.458q-3.136,2.15-3.656.281A8.385,8.385,0,0,0,966.451,627.458Z" transform="translate(-546.917 -356.428)" fill="#fff" fill-rule="evenodd"/>
      <path id="Trazado_247256" data-name="Trazado 247256" d="M199.712,757.417H170.749v15.334h28.963Z" transform="translate(-96.994 -430.251)" fill="#fff"/>
      <path id="Trazado_247257" data-name="Trazado 247257" d="M199.712,803.054H170.749v6.58h28.963Z" transform="translate(-96.994 -456.175)" fill="#fff"/>
      <path id="Trazado_247258" data-name="Trazado 247258" d="M204.21,753.047a9.037,9.037,0,0,0-1.619-2.037q3.454-1.873,3.832-4.116a3.965,3.965,0,0,1,.854,1.075A18.307,18.307,0,0,1,204.21,753.047Z" transform="translate(-115.082 -424.274)" fill="#3b5620" fill-rule="evenodd"/>
      <path id="Trazado_247259" data-name="Trazado 247259" d="M194.8,753.047a8.87,8.87,0,0,1,1.619-2.037q-3.459-1.873-3.832-4.116a3.956,3.956,0,0,0-.854,1.075A18.3,18.3,0,0,0,194.8,753.047Z" transform="translate(-108.915 -424.274)" fill="#3b5620" fill-rule="evenodd"/>
      <path id="Trazado_247260" data-name="Trazado 247260" d="M191.731,756.424q-3.728-5.152-14.059-7.048a18.306,18.306,0,0,1-3.068,5.078,9.038,9.038,0,0,0-1.619-2.037,8.872,8.872,0,0,0-1.619,2.037,18.34,18.34,0,0,1-3.067-5.078q-10.331,1.891-14.059,7.048a101.466,101.466,0,0,0-3.767,13.229q3.029.654,6.965,1.532-.529,9.417-.275,16.09a151.854,151.854,0,0,1,14.913,5.532c.317-.009.618-.027.9-.048.287.021.588.039.9.048a151.817,151.817,0,0,1,14.916-5.532q.255-6.671-.272-16.09,3.938-.883,6.965-1.532A101.521,101.521,0,0,0,191.731,756.424Z" transform="translate(-85.477 -425.684)" fill="#2b4214" fill-rule="evenodd"/>
      <path id="Trazado_247261" data-name="Trazado 247261" d="M236.03,775.534q.73,4.718,1.1,10.51c.332-.072.66-.146.983-.218Q237.469,782.238,236.03,775.534Z" transform="translate(-134.077 -440.543)" fill="#375a64" fill-rule="evenodd"/>
      <path id="Trazado_247262" data-name="Trazado 247262" d="M166.4,775.534q-.735,4.718-1.1,10.51c-.331-.072-.66-.146-.983-.218Q164.963,782.238,166.4,775.534Z" transform="translate(-93.341 -440.543)" fill="#375a64" fill-rule="evenodd"/>
      <path id="Trazado_247263" data-name="Trazado 247263" d="M176.3,843.884c.741,1.882-.618,4.925-1.544,5.531-16.824-1.688-27.326-4.053-33.8-7.33-1.93-1.069-5.3-1.532-7.359-2.891-4.973-5.245-1.249-12.12,3.679-11.783,3.447.663,5.071,1.649,6.7,3.59,5.9,1.347,17.9,6.105,32.325,12.879Z" transform="translate(-74.553 -470.005)" fill="#3b5620" fill-rule="evenodd"/>
      <path id="Trazado_247264" data-name="Trazado 247264" d="M192.389,867.77c.678,4.594-5.057,5.319-16.846,3.319,4.958-1.637,5.612-3.082,1.92-5.386C187.724,863.846,192.407,863.861,192.389,867.77Zm-64.284,0c-.678,4.594,5.053,5.319,16.845,3.319-4.958-1.637-5.612-3.082-1.92-5.386C132.773,863.846,128.087,863.861,128.105,867.77Z" transform="translate(-72.739 -491.081)" fill="#3b5620" fill-rule="evenodd"/>
      <path id="Trazado_247265" data-name="Trazado 247265" d="M189.767,871.464a8.163,8.163,0,0,1,2.377.777c4.958-1.637,5.612-3.082,1.92-5.385a10.2,10.2,0,0,1-2.843-.325,6.407,6.407,0,0,1-1.455,4.931Zm-25.838,0a8.131,8.131,0,0,0-2.377.777c-4.958-1.637-5.612-3.082-1.92-5.385a10.188,10.188,0,0,0,2.844-.325,6.407,6.407,0,0,0,1.454,4.931Z" transform="translate(-89.34 -492.233)" fill="#ffc19d" fill-rule="evenodd"/>
      <path id="Trazado_247266" data-name="Trazado 247266" d="M244.934,807.064a35.2,35.2,0,0,0-.3-10.289q-2.294.5-5.065,1.117c-.323.072-.651.146-.983.218q.511,9.126.287,15.672,4.521-3.647,6.066-6.72Z" transform="translate(-135.526 -452.609)" fill="#ffc19d" fill-rule="evenodd"/>
      <path id="Trazado_247267" data-name="Trazado 247267" d="M151.566,807.064a35.225,35.225,0,0,1,.3-10.289q2.294.5,5.065,1.117c.323.072.651.146.983.218q-.511,9.126-.287,15.672-4.52-3.647-6.066-6.72Z" transform="translate(-85.958 -452.609)" fill="#ffc19d" fill-rule="evenodd"/>
      <path id="Trazado_247268" data-name="Trazado 247268" d="M193.59,807.509q-.04-3.566-.26-8.41c-.167.036-.337.075-.511.113-.323.072-.651.146-.983.218q.314,5.627.352,10.274c.275-.32.594-.7.962-1.123a7.807,7.807,0,0,1,3.133-.657,6.57,6.57,0,0,0-2.691-.415Zm-34.6,0q.045-3.566.26-8.41c.17.036.34.075.511.113.323.072.651.146.983.218q-.314,5.627-.352,10.274c-.275-.32-.594-.7-.962-1.123a7.807,7.807,0,0,0-3.133-.657,6.57,6.57,0,0,1,2.691-.415Z" transform="translate(-88.784 -453.929)" fill="#2f4419" fill-rule="evenodd"/>
      <path id="Trazado_247269" data-name="Trazado 247269" d="M166.312,803.835h30.731a.538.538,0,0,1,.535.535v13.823a150.738,150.738,0,0,0-14.949,5.534h-1.9a151.019,151.019,0,0,0-14.949-5.534V804.37A.538.538,0,0,1,166.312,803.835Z" transform="translate(-94.17 -456.619)" fill="#375a64" fill-rule="evenodd"/>
      <path id="Trazado_247270" data-name="Trazado 247270" d="M169.085,823.068c3.528,1.111,8.142,2.853,13.518,5.1l.045.021.37-.021h1.069l.371.021c5.4-2.258,10.026-4.005,13.566-5.119V811.656c-2.019,2.559-6.036,4.674-11.182,5.938a3.271,3.271,0,0,1,.039.517,3.329,3.329,0,0,1-6.61.562c-1.479.134-3.008.2-4.573.2a50.071,50.071,0,0,1-6.616-.433v4.626Z" transform="translate(-96.047 -461.062)" fill="#afc797" fill-rule="evenodd"/>
      <path id="Trazado_247271" data-name="Trazado 247271" d="M191.187,710.862q3.109,4.323,9.865,7.6c-1.126,3.375-2.828,6.67-6.544,7.285-3.564-.574-5.532-3.148-6.335-6.8A12.2,12.2,0,0,0,191.187,710.862Z" transform="translate(-106.892 -403.806)" fill="#ffc19d" fill-rule="evenodd"/>
      <path id="Trazado_247272" data-name="Trazado 247272" d="M205.536,722.735c2.527-.63,2.2-.547,4.158.633a2.768,2.768,0,0,0-3.184-1.44c-.621.119-.729.092-.971.806Z" transform="translate(-116.755 -410.052)" fill="#3b5620" fill-rule="evenodd"/>
      <path id="Trazado_247273" data-name="Trazado 247273" d="M199.223,701.5a10.337,10.337,0,1,0-20.674,0v16.269a38.526,38.526,0,0,1,5.7-1.46,4,4,0,0,1,.854-1.075q.376,2.24,3.832,4.116,3.454-1.872,3.832-4.116a3.965,3.965,0,0,1,.854,1.075,38.494,38.494,0,0,1,5.6,1.428V701.5Zm-13.5-1.831q3.109,4.323,9.865,7.6c-1.126,3.375-2.828,6.67-6.544,7.285-3.564-.574-5.532-3.148-6.335-6.8A12.2,12.2,0,0,0,185.72,699.668Z" transform="translate(-101.425 -392.615)" fill="#3b5620" fill-rule="evenodd"/>
      <path id="Trazado_247274" data-name="Trazado 247274" d="M201.379,743.751a5.339,5.339,0,0,1-.546-2.159,6.352,6.352,0,0,1-3.175,1.479,7.005,7.005,0,0,1-3.674-1.708,12.808,12.808,0,0,1-.272,2.389q.376,2.24,3.832,4.116,3.454-1.873,3.832-4.116Z" transform="translate(-110.038 -421.131)" fill="#ffc19d" fill-rule="evenodd"/>
      <path id="Trazado_247275" data-name="Trazado 247275" d="M201.22,742.367c-.039-.236-.075-.5-.1-.783a6.353,6.353,0,0,1-3.175,1.479,7.005,7.005,0,0,1-3.674-1.708c-.012.334-.03.654-.057.95a12.345,12.345,0,0,0,3.761,1.544,9.494,9.494,0,0,0,3.25-1.485Z" transform="translate(-110.321 -421.127)" fill="#2f4419" fill-rule="evenodd"/>
      <path id="Trazado_247276" data-name="Trazado 247276" d="M176.267,735.6h4.671l-.6,19.071h-2.184l.409-6.2-1.081,6.2h-2.954C175.618,750.2,176.64,740.369,176.267,735.6Z" transform="translate(-99.142 -417.859)" fill="#3b5620" fill-rule="evenodd"/>
      <path id="Trazado_247277" data-name="Trazado 247277" d="M214.908,735.643l4.379-.373c-.1,6.839-.006,14.838.762,19.474h-2.2l-.17-.579-.26.579h-.785l-.544-3.984-.149,3.984h-1.625l.6-19.1Z" transform="translate(-121.739 -417.671)" fill="#3b5620" fill-rule="evenodd"/>
      <path id="Trazado_247278" data-name="Trazado 247278" d="M199.752,821.6a2.155,2.155,0,1,1-2.154,2.157A2.155,2.155,0,0,1,199.752,821.6Z" transform="translate(-112.246 -466.713)" fill="#afc797" fill-rule="evenodd"/>
      <path id="Trazado_247279" data-name="Trazado 247279" d="M169.329,843.884c-.741,1.882.621,4.925,1.544,5.531,16.821-1.688,27.323-4.053,33.8-7.33,1.93-1.069,5.3-1.532,7.36-2.891,4.973-5.245,1.248-12.12-3.68-11.783-3.444.663-5.071,1.649-6.7,3.59-5.9,1.347-17.9,6.105-32.326,12.879Z" transform="translate(-96.066 -470.005)" fill="#3b5620" fill-rule="evenodd"/>
      <path id="Trazado_247280" data-name="Trazado 247280" d="M171.416,849.713q-13.794,5.367-21.729,4.31a11.409,11.409,0,0,1,1.747.735,41.28,41.28,0,0,0,5.941,2.383c.257-.048.52-.1.789-.167a2.767,2.767,0,0,1,.128-.421c5.107-2.4,9.91-4.543,14.247-6.374-.3-.125-.606-.254-.905-.379a.3.3,0,0,1-.044-.021l-.17-.071Z" transform="translate(-85.03 -482.677)" fill="#2f4419" fill-rule="evenodd"/>
      <path id="Trazado_247281" data-name="Trazado 247281" d="M217.026,867.449a103.533,103.533,0,0,1-14.435,3.133c3.769.585,7.989,1.111,12.7,1.583a1.4,1.4,0,0,0,.218-.179A6.59,6.59,0,0,0,217.026,867.449Z" transform="translate(-115.082 -492.755)" fill="#2f4419" fill-rule="evenodd"/>
      <path id="Trazado_247282" data-name="Trazado 247282" d="M195.589,724.591c-.269.012-.5-.269-.523-.633a.592.592,0,0,1,.457-.678c.272-.012.5.269.523.63A.594.594,0,0,1,195.589,724.591Z" transform="translate(-110.807 -410.859)" fill="#3b5620" fill-rule="evenodd"/>
      <path id="Trazado_247283" data-name="Trazado 247283" d="M208.352,725.151c.266.021.5-.251.535-.609a.591.591,0,0,0-.424-.7c-.266-.021-.5.254-.537.613s.158.672.424.693Z" transform="translate(-118.11 -411.18)" fill="#3b5620" fill-rule="evenodd"/>
      <path id="Trazado_247284" data-name="Trazado 247284" d="M194.709,722.119c-2.27-1.039-1.971-.9-4.011-.066a2.586,2.586,0,0,1,3.231-.893C194.494,721.381,194.6,721.375,194.709,722.119Z" transform="translate(-108.326 -409.525)" fill="#3b5620" fill-rule="evenodd"/>
      <path id="Trazado_247285" data-name="Trazado 247285" d="M201.335,730.665h-.012l-.352-.036c-.457-.048-.609-.164-.552-.738a4.081,4.081,0,0,1,.12-.579,8.894,8.894,0,0,0,.26-1.434.117.117,0,1,1,.233.024,9.644,9.644,0,0,1-.266,1.466,3.759,3.759,0,0,0-.11.549c-.045.442.015.448.343.481l.352.036a.117.117,0,0,1-.012.233Z" transform="translate(-113.841 -413.412)" fill="#3b5620"/>
      <path id="Trazado_247286" data-name="Trazado 247286" d="M202.107,737.635c-3.026.269-5.352.006-4.6.122A8.591,8.591,0,0,0,202.107,737.635Z" transform="translate(-112.113 -419.014)" fill="#fff" fill-rule="evenodd"/>
      <path id="Trazado_247287" data-name="Trazado 247287" d="M196.184,724.884c.051.006.081.117.069.254s-.063.242-.111.239-.081-.116-.069-.254S196.136,724.881,196.184,724.884Z" transform="translate(-111.378 -411.771)" fill="#afc797" fill-rule="evenodd"/>
      <path id="Trazado_247288" data-name="Trazado 247288" d="M208.613,725.23c.048,0,.078.117.069.254s-.06.242-.11.239-.078-.12-.066-.254.06-.242.111-.236Z" transform="translate(-118.44 -411.967)" fill="#afc797" fill-rule="evenodd"/>
      <path id="Trazado_247289" data-name="Trazado 247289" d="M191.811,707.6q2.647-1.926,4.136-.206a9.5,9.5,0,0,1-3,7.619Q193.743,712.794,191.811,707.6Z" transform="translate(-108.958 -401.377)" fill="#3b5620" fill-rule="evenodd"/>
      <path id="Trazado_247290" data-name="Trazado 247290" d="M554.469,801.755a.572.572,0,0,1,.009-1.144l74.125.607a.572.572,0,1,1-.009,1.144l-74.125-.609Zm-22.685-57.731a.573.573,0,0,1,1.028-.508l20.5,41.608,75.591.607a.572.572,0,1,1-.012,1.144l-75.914-.609a.574.574,0,0,1-.54-.32l-20.656-41.922Zm22.685,47.406a.572.572,0,1,1,.009-1.144l74.125.606a.572.572,0,0,1-.009,1.144Zm0,5.164a.572.572,0,0,1,.009-1.144l74.125.606a.577.577,0,0,1,.568.579.571.571,0,0,1-.577.568l-74.125-.607Z" transform="translate(-302.047 -422.175)" fill="#233313" fill-rule="evenodd"/>
      <path id="Trazado_247291" data-name="Trazado 247291" d="M1095.067,827.859l-4.047,4.052,4.052,4.049,4.047-4.052Z" transform="translate(-619.755 -470.266)" fill="#bc5d59"/>
      <path id="Trazado_247292" data-name="Trazado 247292" d="M1098.111,833.244l-1.741,1.74,1.741,1.74,1.741-1.74Z" transform="translate(-622.794 -473.325)" fill="#e7a084"/>
      <path id="Trazado_247293" data-name="Trazado 247293" d="M1076.345,690.382s1.335-16.7-9.615-20.337C1066.73,670.045,1068.3,678.76,1076.345,690.382Z" transform="translate(-605.957 -380.62)" fill="#3b5620" fill-rule="evenodd"/>
      <path id="Trazado_247294" data-name="Trazado 247294" d="M1107.594,703.184a18.093,18.093,0,0,1,20.574,1.063,10.579,10.579,0,0,0-9.5-8.366c-8.367-1.054-11.075,7.3-11.075,7.3Z" transform="translate(-629.168 -395.243)" fill="#233313" fill-rule="evenodd"/>
      <path id="Trazado_247295" data-name="Trazado 247295" d="M1066.861,760.784s.315-6.15-3.991-9.157c-5.918-4.14-10.25.415-10.25.415S1063.073,753.992,1066.861,760.784Z" transform="translate(-597.942 -425.974)" fill="#3b5620" fill-rule="evenodd"/>
      <path id="Trazado_247296" data-name="Trazado 247296" d="M1105.37,761.806s3.447-8.978,11.313-5.866A106.154,106.154,0,0,1,1105.37,761.806Z" transform="translate(-627.907 -429.04)" fill="#3b5620" fill-rule="evenodd"/>
      <path id="Trazado_247297" data-name="Trazado 247297" d="M1105.05,801.416s4.03-4.76,8.561-2.622C1113.611,798.794,1113.361,801.148,1105.05,801.416Z" transform="translate(-627.725 -453.442)" fill="#3b5620" fill-rule="evenodd"/>
      <path id="Trazado_247298" data-name="Trazado 247298" d="M1072.247,799.154s-3.559-5.018-7.676-2.571c0,0-.276.693,2.67,1.054A14.921,14.921,0,0,1,1072.247,799.154Z" transform="translate(-604.727 -452.118)" fill="#afc797" fill-rule="evenodd"/>
      <path id="Trazado_247299" data-name="Trazado 247299" d="M1119.82,728.567s5.711-5.469,12.047-.162A77.191,77.191,0,0,1,1119.82,728.567Z" transform="translate(-636.115 -412.454)" fill="#3b5620" fill-rule="evenodd"/>
      <path id="Trazado_247300" data-name="Trazado 247300" d="M1106.336,727.231s-.276-5.17,4.224-6.2C1110.56,721.033,1109.726,725.4,1106.336,727.231Z" transform="translate(-628.453 -409.583)" fill="#3b5620" fill-rule="evenodd"/>
      <path id="Trazado_247301" data-name="Trazado 247301" d="M1111.82,739.692s4.108-2.6,8.8.982C1120.623,740.675,1117.021,742.153,1111.82,739.692Z" transform="translate(-631.57 -419.665)" fill="#afc797" fill-rule="evenodd"/>
      <path id="Trazado_247302" data-name="Trazado 247302" d="M1056.782,717.773s-3.572-7.422-12.272-4.391C1044.51,713.382,1047.931,717.5,1056.782,717.773Z" transform="translate(-593.335 -404.824)" fill="#afc797" fill-rule="evenodd"/>
      <path id="Trazado_247303" data-name="Trazado 247303" d="M1082.42,722.089a6.6,6.6,0,0,0-1-7.362A7.192,7.192,0,0,0,1082.42,722.089Z" transform="translate(-613.963 -406.001)" fill="#afc797" fill-rule="evenodd"/>
      <path id="Trazado_247304" data-name="Trazado 247304" d="M1061.338,735.358s-6.086-3.919-12.008.388C1049.33,735.746,1054.639,739.3,1061.338,735.358Z" transform="translate(-596.073 -416.793)" fill="#233313" fill-rule="evenodd"/>
      <path id="Trazado_247305" data-name="Trazado 247305" d="M1096.008,714.446s-3.317-5.893,1.711-10.34A13.37,13.37,0,0,1,1096.008,714.446Z" transform="translate(-621.979 -399.968)" fill="#afc797" fill-rule="evenodd"/>
      <path id="Trazado_247306" data-name="Trazado 247306" d="M1094.28,685.872s-.773-11.645,8.838-14.507A30.264,30.264,0,0,1,1094.28,685.872Z" transform="translate(-621.599 -381.369)" fill="#233313" fill-rule="evenodd"/>
      <path id="Trazado_247307" data-name="Trazado 247307" d="M1074.559,708.809s2.3-5.63-.233-9.91A8.5,8.5,0,0,0,1074.559,708.809Z" transform="translate(-609.423 -397.01)" fill="#afc797" fill-rule="evenodd"/>
      <path id="Trazado_247308" data-name="Trazado 247308" d="M1102.2,779.223s2.341-5.523,10.207-3.214C1112.407,776.009,1110.446,779.046,1102.2,779.223Z" transform="translate(-626.106 -440.492)" fill="#3b5620" fill-rule="evenodd"/>
      <path id="Trazado_247309" data-name="Trazado 247309" d="M1098.789,761.365s-2.238-6.054,2.458-9.2C1101.247,752.169,1102.53,756.387,1098.789,761.365Z" transform="translate(-623.866 -427.27)" fill="#afc797" fill-rule="evenodd"/>
      <path id="Trazado_247310" data-name="Trazado 247310" d="M1064.272,782.079s-3.024-5.989-10.112-3.211C1054.16,778.868,1057.153,782.789,1064.272,782.079Z" transform="translate(-598.817 -442.019)" fill="#afc797" fill-rule="evenodd"/>
      <path id="Trazado_247311" data-name="Trazado 247311" d="M1077.544,780.445a22.462,22.462,0,0,0-4.674-5.427S1077.319,773.477,1077.544,780.445Z" transform="translate(-609.445 -440.167)" fill="#afc797" fill-rule="evenodd"/>
      <path id="Trazado_247312" data-name="Trazado 247312" d="M1098.74,795.248a6.29,6.29,0,0,1,6.03-6.141S1104.131,792.829,1098.74,795.248Z" transform="translate(-624.14 -448.253)" fill="#afc797" fill-rule="evenodd"/>
      <path id="Trazado_247313" data-name="Trazado 247313" d="M1075.3,817.671s-1.594-4.8-7.762-3.243C1067.54,814.428,1068.944,817.806,1075.3,817.671Z" transform="translate(-606.417 -462.46)" fill="#afc797" fill-rule="evenodd"/>
      <path id="Trazado_247314" data-name="Trazado 247314" d="M1099.97,818.578a6.008,6.008,0,0,1,6.756-4S1106.363,818.384,1099.97,818.578Z" transform="translate(-624.839 -462.691)" fill="#afc797" fill-rule="evenodd"/>
      <path id="Trazado_247315" data-name="Trazado 247315" d="M1116.18,702.967a15.676,15.676,0,0,0-3.391-1.646,13.96,13.96,0,0,0-3.5-.752,10.534,10.534,0,0,0-4.065.454c-3.805,1.231-6.756,4.719-8.756,10.376a35.025,35.025,0,0,0-1.058,3.632c-.082-.573-.19-1.493-.242-2.613a23.979,23.979,0,0,1,.566-6.828.135.135,0,0,0-.1-.167.14.14,0,0,0-.169.1,23.987,23.987,0,0,0-.574,6.912,28.116,28.116,0,0,0,.346,3.282l.009.03a72.375,72.375,0,0,0-1.443,11.619,148.147,148.147,0,0,0,.061,15.005c-.026.161-.052.322-.082.49a58.322,58.322,0,0,0-.622,9.761c.043,2.574.229,4.28.233,4.3a.135.135,0,0,0,.138.125h.013a.137.137,0,0,0,.121-.152c0-.018-.186-1.714-.229-4.274a59.552,59.552,0,0,1,.5-8.883c.03.514.06,1.03.1,1.55.147,2.36.333,4.633.531,6.747a15.577,15.577,0,0,0-.255,2.679,18.226,18.226,0,0,0,.333,3.724.144.144,0,0,0,.138.111l.035-.006a.137.137,0,0,0,.1-.164,17.137,17.137,0,0,1-.328-3.662,14.743,14.743,0,0,1,.091-1.508c.078.8.156,1.577.238,2.323-.13.269-.19.436-.2.454a.137.137,0,0,0,.086.176.132.132,0,0,0,.047.009.139.139,0,0,0,.125-.084c.644,5.857,1.278,9.8,1.292,9.86a.143.143,0,0,0,.138.113h.021a.145.145,0,0,0,.117-.161c-.009-.063-.687-4.211-1.343-10.319a8.984,8.984,0,0,1,1.084-1.7,7.508,7.508,0,0,1,4.535-2.772.133.133,0,0,0,.108-.161.139.139,0,0,0-.16-.114,7.493,7.493,0,0,0-2.833,1.141,8.359,8.359,0,0,0-1.87,1.729,9.748,9.748,0,0,0-.92,1.374q-.149-1.447-.3-3.025a10.5,10.5,0,0,1,1.7-4.164c1.551-2.145,3.991-3.4,7.252-3.713a.138.138,0,1,0-.026-.275c-3.343.326-5.853,1.613-7.447,3.826a10.158,10.158,0,0,0-1.56,3.417c-.039-.424-.078-.857-.112-1.3a.152.152,0,0,0,.026-.078,16.232,16.232,0,0,1,.579-3.462,8.7,8.7,0,0,1,3.4-5.167.138.138,0,1,0-.143-.236,6.95,6.95,0,0,0-2.294,2.4,11.768,11.768,0,0,0-1.222,2.93,16.744,16.744,0,0,0-.454,2.174c-.082-1.024-.156-2.075-.22-3.142-.06-.932-.117-1.894-.164-2.879.164-.965.367-1.959.618-2.96a10.32,10.32,0,0,1,1.724-2.088,10.447,10.447,0,0,1,5.421-2.736.139.139,0,0,0-.048-.275,10.431,10.431,0,0,0-3.283,1.135,11.219,11.219,0,0,0-2.285,1.676,11.617,11.617,0,0,0-1.313,1.469c1.533-5.5,4.6-11.045,10.734-12.72a.138.138,0,0,0,.095-.17.135.135,0,0,0-.168-.1,13.86,13.86,0,0,0-8.367,6.678,22.687,22.687,0,0,0-1.115,2.148,16.34,16.34,0,0,1,.687-7.321.139.139,0,0,0-.259-.1,14.392,14.392,0,0,0-.838,5.224,17.947,17.947,0,0,0,.194,2.631.126.126,0,0,0,.013.042,31.748,31.748,0,0,0-1.862,6.24,140.219,140.219,0,0,1,.13-15.8.18.18,0,0,0,.061-.077.189.189,0,0,1,.022-.054,23.349,23.349,0,0,1,4.064-6.415l.017-.006a11.28,11.28,0,0,1,2.562-.69,13.834,13.834,0,0,1,6.207.445.14.14,0,0,0,.086-.266,14.052,14.052,0,0,0-6.341-.451,12.8,12.8,0,0,0-2.1.508,16.57,16.57,0,0,1,12.259-5.373h.082a.138.138,0,0,0,.138-.137.14.14,0,0,0-.138-.14,16.609,16.609,0,0,0-7.667,1.78,18.27,18.27,0,0,0-4.972,3.773,13.931,13.931,0,0,1,.337-1.873,12.594,12.594,0,0,1,2.186-4.62.141.141,0,0,0-.022-.194.143.143,0,0,0-.2.024,12.937,12.937,0,0,0-2.233,4.731,12.644,12.644,0,0,0-.371,2.267,23.656,23.656,0,0,0-3.913,5.986,53.139,53.139,0,0,1,2.453-13.076c1.974-5.57,4.864-9,8.578-10.2a11.777,11.777,0,0,1,7.391.293,15.211,15.211,0,0,1,3.33,1.613.139.139,0,0,0,.194-.033.137.137,0,0,0-.039-.194Z" transform="translate(-620.963 -397.939)" fill="#375a64" fill-rule="evenodd"/>
      <path id="Trazado_247316" data-name="Trazado 247316" d="M1072.079,717.393c0-1.06-.013-2.1-.03-3.127a.122.122,0,0,0,0-.057.7.7,0,0,0-.009-.1c-.091-4.614-.345-8.855-.76-12.682a31.941,31.941,0,0,1,.5-6.111,30.926,30.926,0,0,1,4.937-12.449.134.134,0,0,0-.03-.191.136.136,0,0,0-.194.033,28.163,28.163,0,0,0-3.382,6.505,34.772,34.772,0,0,0-1.607,6.054,35.409,35.409,0,0,0-.467,4.125q-.266-2.034-.587-3.895a51.537,51.537,0,0,0-2.415-9.247,20.54,20.54,0,0,0-3.875-6.711.14.14,0,0,0-.2-.006.136.136,0,0,0,0,.2c2.821,3.041,4.911,8.363,6.22,15.818.324,1.84.6,3.811.825,5.9v.042a.217.217,0,0,1,0,.033q.531,4.892.7,10.663c-.022-.111-.048-.221-.074-.34a25.785,25.785,0,0,0-1.978-5.5c-.047-.1-.1-.188-.143-.281a54.84,54.84,0,0,1-1.33-7.95.144.144,0,0,0-.151-.129.137.137,0,0,0-.125.149,50.655,50.655,0,0,0,1.11,7.016,21.731,21.731,0,0,0-2.682-3.736,33.5,33.5,0,0,1-1.594-8.073.14.14,0,0,0-.281.009,33.155,33.155,0,0,0,1.43,7.58c-.294-.308-.592-.6-.9-.887a21.2,21.2,0,0,0-8.47-4.749.137.137,0,0,0-.169.1.14.14,0,0,0,.091.173,20.754,20.754,0,0,1,12.7,10.4,12.268,12.268,0,0,0-2.462-1.132,15.821,15.821,0,0,0-3.417-.729,18.946,18.946,0,0,0-4.635.111.141.141,0,0,0-.117.159.138.138,0,0,0,.156.119,17.091,17.091,0,0,1,7.909.6,10.612,10.612,0,0,1,2.769,1.344l.065.051a24.409,24.409,0,0,1,2.345,7.646c.017,1.063.03,2.15.035,3.255.021,5.377-.177,10.553-.428,14.943-.086-1.087-.2-2.2-.354-3.33a32.99,32.99,0,0,0-3.438-11.577c-2.052-3.668-4.868-5.8-8.363-6.332a.141.141,0,0,0-.16.117.139.139,0,0,0,.117.159c3.408.52,6.155,2.6,8.164,6.192a32.614,32.614,0,0,1,3.4,11.475c.138,1.007.246,2.01.328,2.99a14.9,14.9,0,0,0-1.983-3.017c-.086-.108-.181-.212-.272-.317a.153.153,0,0,0,0-.044,11.8,11.8,0,0,0-.385-2.184,8.764,8.764,0,0,0-2.065-3.865.137.137,0,0,0-.194,0,.144.144,0,0,0,0,.2,8.535,8.535,0,0,1,1.991,3.733,12.394,12.394,0,0,1,.35,1.834,14.7,14.7,0,0,0-2.713-2.273,15.021,15.021,0,0,0-5.088-2.085.138.138,0,0,0-.052.272,14.559,14.559,0,0,1,8.207,4.9,13.774,13.774,0,0,1,2.255,3.653l.013.027q.065.865.1,1.694c-.268,4.158-.574,7.4-.751,9.134.009-.114.017-.227.021-.347,0-.015.009-.033,0-.048.017-.32.03-.654.035-1a19.32,19.32,0,0,0-.376-4.217,11.464,11.464,0,0,0-1.672-4.113,8.512,8.512,0,0,0-6.06-3.6.139.139,0,0,0-.039.275,8.266,8.266,0,0,1,5.87,3.485c1.7,2.485,2.026,5.815,2,8.166,0,.158,0,.31-.009.463a8.09,8.09,0,0,0-1.058-1.493,7.241,7.241,0,0,0-1.8-1.457,6.75,6.75,0,0,0-2.7-.842.138.138,0,0,0-.151.125.137.137,0,0,0,.125.149,6.572,6.572,0,0,1,4.311,2.2,7.4,7.4,0,0,1,1.248,1.9,23.67,23.67,0,0,1-.445,3.53.138.138,0,0,0,.108.167l.03.006a.139.139,0,0,0,.134-.111c0-.012.156-.7.294-1.789a.137.137,0,0,0,.112.09h.017a.139.139,0,0,0,.138-.123c0-.063.35-3.082.7-7.807.013,1.043.009,2,0,2.82-.06,2.954-.255,4.937-.255,4.958a.136.136,0,0,0,.121.153h.017a.135.135,0,0,0,.134-.126c0-.021.2-2.013.255-4.976.03-1.505.026-3.432-.082-5.57.315-4.815.583-10.848.562-17.159Z" transform="translate(-600.063 -385.989)" fill="#375a64" fill-rule="evenodd"/>
      <path id="Trazado_247317" data-name="Trazado 247317" d="M1090.311,830.587c0,.588-.009,1.174-.017,1.753q-.026.838-.065,1.666c-.03.666-.078,1.323-.13,1.974-.156,1.93-.389,3.781-.7,5.519a38.787,38.787,0,0,1-2.108,7.682q-.428,1.062-.9,1.974c-.034.069-.069.137-.108.2a15.607,15.607,0,0,1-.864,1.437h-8.833a16.018,16.018,0,0,1-.972-1.64,21.361,21.361,0,0,1-.9-1.974,46.168,46.168,0,0,1-2.808-13.2c-.052-.648-.095-1.308-.13-1.974-.03-.552-.047-1.108-.065-1.666-.013-.58-.017-1.165-.017-1.753v-.221q0-1.281.056-2.533h18.509c.035.833.056,1.676.056,2.533v.218Z" transform="translate(-608.775 -470.253)" fill="#afc797" fill-rule="evenodd"/>
      <path id="Trazado_247318" data-name="Trazado 247318" d="M1090.321,833.913c0,.588-.013,1.174-.022,1.753h-18.578c-.017-.58-.021-1.165-.021-1.753v-.221h18.621v.221Z" transform="translate(-608.78 -473.579)" fill="#3b5620" fill-rule="evenodd"/>
      <path id="Trazado_247319" data-name="Trazado 247319" d="M1090.343,842.121c-.03.666-.078,1.323-.13,1.974H1072.02c-.052-.648-.1-1.308-.13-1.974Z" transform="translate(-608.888 -478.367)" fill="#3b5620" fill-rule="evenodd"/>
      <path id="Trazado_247320" data-name="Trazado 247320" d="M1091.263,877.247q-.428,1.062-.9,1.974h-10.773c-.32-.606-.618-1.266-.907-1.974Z" transform="translate(-612.745 -498.321)" fill="#2f4419" fill-rule="evenodd"/>
      <path id="Trazado_247321" data-name="Trazado 247321" d="M1097.143,850.674c-4.276,0-6.98-2.628-8.673-5.663h11.161q.052-.632.091-1.273c-.026.427-.056.854-.091,1.273q-.129,1.635-.337,3.184c-.108.8-.225,1.577-.363,2.336a11.4,11.4,0,0,1-1.784.143Z" transform="translate(-618.307 -479.287)" fill="#afc797" fill-rule="evenodd"/>
      <path id="Trazado_247322" data-name="Trazado 247322" d="M1096.3,834h-12.237c-.238-.565-.441-1.123-.622-1.666h12.924c0-.149.009-.3.009-.448,0,.149-.009.3-.009.448Q1096.341,833.174,1096.3,834Zm.086-3.641h-13.507c-.25-1.039-.406-1.927-.5-2.532h13.952C1096.367,828.662,1096.384,829.5,1096.388,830.361Z" transform="translate(-614.847 -470.249)" fill="#afc797" fill-rule="evenodd"/>
      <path id="Trazado_247323" data-name="Trazado 247323" d="M1097.025,835.666H1084.1c-.225-.7-.41-1.362-.562-1.974h13.5v.221c0,.436,0,.872-.009,1.3,0,.149-.009.3-.009.448Z" transform="translate(-615.506 -473.579)" fill="#2f4419" fill-rule="evenodd"/>
      <path id="Trazado_247324" data-name="Trazado 247324" d="M1098.382,844.088H1087.22a19.015,19.015,0,0,1-.95-1.974h12.237q-.013.35-.039.7c-.026.427-.056.854-.086,1.272Z" transform="translate(-617.057 -478.364)" fill="#2f4419" fill-rule="evenodd"/>
      <path id="Trazado_247325" data-name="Trazado 247325" d="M1085.417,852.782h-8.829a15.249,15.249,0,0,1-.972-1.64h10.133c.177.072.354.14.536.2A16.584,16.584,0,0,1,1085.417,852.782Zm-10.505-3.127c-.069-.162-.134-.32-.2-.487a46.162,46.162,0,0,1-2.808-13.2c-.035-.394-.061-.789-.086-1.186.026.4.052.791.086,1.186h3.183c1.149,4.659,3.3,9.973,7.317,13.2h-7.693C1074.783,849.333,1074.848,849.494,1074.912,849.655Zm-.263-15.66h-2.872c-.03-.552-.048-1.108-.061-1.666h2.635Q1074.48,833.127,1074.649,834Zm-.579-3.641c-.125-1.021-.194-1.885-.238-2.532h-2.086c-.035.833-.056,1.675-.056,2.532Z" transform="translate(-608.775 -470.245)" fill="#3b5620" fill-rule="evenodd"/>
      <path id="Trazado_247326" data-name="Trazado 247326" d="M1074.356,835.666h-2.635c-.017-.58-.021-1.165-.021-1.753v-.221h2.38c.073.606.164,1.269.281,1.974Z" transform="translate(-608.78 -473.579)" fill="#375a64" fill-rule="evenodd"/>
      <path id="Trazado_247327" data-name="Trazado 247327" d="M1075.193,844.088h-3.183c-.03-.394-.056-.789-.086-1.186-.017-.263-.03-.526-.043-.789h2.872c.125.636.272,1.3.436,1.974Z" transform="translate(-608.883 -478.364)" fill="#375a64" fill-rule="evenodd"/>
      <path id="Trazado_247328" data-name="Trazado 247328" d="M1089.716,879.214h-10.133c-.242-.463-.475-.961-.7-1.487-.069-.161-.134-.32-.2-.487h7.7a13.206,13.206,0,0,0,3.343,1.974Z" transform="translate(-612.745 -498.317)" fill="#375a64" fill-rule="evenodd"/>
      <path id="Trazado_247329" data-name="Trazado 247329" d="M1118.68,399.892l-12.73,10.1,5.434,3.922Z" transform="translate(-628.236 -227.159)" fill="#afc797" fill-rule="evenodd"/>
      <path id="Trazado_247330" data-name="Trazado 247330" d="M1093.7,408.4l15.027-8.142-19.546,7.234Z" transform="translate(-618.71 -227.367)" fill="#afc797" fill-rule="evenodd"/>
      <path id="Trazado_247331" data-name="Trazado 247331" d="M1099.64,408.192l2.3,6.541.427-4.746,12.73-10.1-.428.158Z" transform="translate(-624.652 -227.159)" fill="#2f4419" fill-rule="evenodd"/>
      <path id="Trazado_247332" data-name="Trazado 247332" d="M1104.96,428.009,1107.8,425l-2.41-1.738Z" transform="translate(-627.674 -240.435)" fill="#2f4419" fill-rule="evenodd"/>
      <path id="Trazado_247333" data-name="Trazado 247333" d="M1086.318,428.16a.29.29,0,0,1,.307.493c-.16.1-.324.2-.479.3a.29.29,0,0,1-.32-.484c.164-.108.328-.215.5-.317Zm16.565,30.044a.29.29,0,0,1-.562-.146c.047-.185.086-.368.13-.555a.289.289,0,0,1,.566.122C1102.979,457.819,1102.931,458.009,1102.884,458.2Zm.38-2.345a.29.29,0,0,1-.579-.033c.009-.188.017-.374.017-.565a.289.289,0,0,1,.579,0C1103.281,455.462,1103.277,455.659,1103.264,455.859Zm-.147-2.38a.29.29,0,0,1-.57.111,4.523,4.523,0,0,0-.125-.547.29.29,0,0,1,.562-.149C1103.035,453.084,1103.078,453.284,1103.117,453.479Zm-.756-2.27a.292.292,0,0,1-.523.26,4.284,4.284,0,0,0-.264-.5.292.292,0,0,1,.505-.292C1102.18,450.841,1102.275,451.036,1102.361,451.209Zm-1.317-1.989a.289.289,0,0,1-.436.379c-.125-.143-.246-.281-.376-.418a.289.289,0,0,1,.415-.4c.138.146.272.29.4.442Zm-1.724-1.634a.289.289,0,0,1-.354.457c-.147-.113-.3-.227-.458-.334a.291.291,0,0,1,.337-.475c.16.117.32.23.475.355Zm-1.987-1.284a.291.291,0,0,1-.272.514c-.168-.092-.337-.176-.51-.263a.289.289,0,0,1,.255-.52C1096.983,446.119,1097.156,446.209,1097.333,446.3Zm-2.147-.971a.289.289,0,0,1-.2.54l-.54-.191a.29.29,0,0,1,.186-.549C1094.815,445.194,1095,445.262,1095.186,445.331Zm-2.25-.693a.29.29,0,0,1-.138.564l-.557-.128a.29.29,0,0,1,.121-.568l.574.135Zm-2.307-.436a.291.291,0,0,1-.078.577l-.57-.069a.29.29,0,0,1,.061-.577C1090.241,444.151,1090.435,444.178,1090.629,444.2Zm-2.333-.188a.29.29,0,0,1-.035.58c-.194-.012-.393-.021-.588-.036a.291.291,0,0,1,.052-.579l.57.038Zm-2.289-.209a.291.291,0,0,1-.078.577c-.194-.024-.385-.054-.579-.084a.29.29,0,0,1,.086-.573Q1085.722,443.769,1086.008,443.8Zm-2.25-.406a.289.289,0,0,1-.138.562c-.194-.045-.385-.1-.574-.149a.291.291,0,0,1,.16-.559C1083.381,443.309,1083.571,443.35,1083.757,443.4Zm-2.151-.714a.289.289,0,0,1-.242.526c-.181-.08-.358-.173-.54-.266a.29.29,0,0,1,.281-.508,5.5,5.5,0,0,0,.5.245Zm-1.84-1.206a.29.29,0,0,1-.415.406,4.483,4.483,0,0,1-.406-.463.289.289,0,0,1,.462-.346A4.71,4.71,0,0,0,1079.766,441.478Zm-1.032-1.855a.289.289,0,0,1-.566.117,5.051,5.051,0,0,1-.078-.619.29.29,0,0,1,.579-.03,4.4,4.4,0,0,0,.069.532Zm.134-2.156a.292.292,0,0,1-.562-.159c.056-.194.117-.385.186-.573a.29.29,0,0,1,.544.2C1078.975,437.111,1078.915,437.291,1078.867,437.467Zm.9-2.052a.29.29,0,0,1-.5-.292,5.408,5.408,0,0,1,.311-.5.289.289,0,0,1,.484.317A5.487,5.487,0,0,0,1079.766,435.415Zm1.3-1.863a.289.289,0,0,1-.449-.365c.121-.152.246-.3.376-.454a.291.291,0,0,1,.441.379C1081.308,433.258,1081.183,433.4,1081.066,433.551Zm1.538-1.694a.291.291,0,0,1-.41-.412c.138-.137.281-.281.423-.409a.29.29,0,0,1,.4.421C1082.876,431.592,1082.738,431.723,1082.6,431.858Zm1.7-1.535a.29.29,0,0,1-.367-.448l.458-.368a.29.29,0,0,1,.354.46c-.147.108-.3.242-.445.359Z" transform="translate(-612.41 -243.19)" fill="#2f4419" fill-rule="evenodd"/>
      <path id="Trazado_247334" data-name="Trazado 247334" d="M786.327,307.319l15.158,6.215-4.161,5.316Z" transform="translate(-446.674 -174.573)" fill="#afc797" fill-rule="evenodd"/>
      <path id="Trazado_247335" data-name="Trazado 247335" d="M804.232,311.072,787.4,307.395l20.958,1.532Z" transform="translate(-447.283 -174.616)" fill="#afc797" fill-rule="evenodd"/>
      <path id="Trazado_247336" data-name="Trazado 247336" d="M803.624,311.029l-.391,6.98-1.747-4.474-15.158-6.215.463.033Z" transform="translate(-446.674 -174.573)" fill="#2f4419" fill-rule="evenodd"/>
      <path id="Trazado_247337" data-name="Trazado 247337" d="M820.743,326.182l-3.59-2.12L819,321.708Z" transform="translate(-464.185 -182.746)" fill="#2f4419" fill-rule="evenodd"/>
      <path id="Trazado_247338" data-name="Trazado 247338" d="M834.064,329.915a.363.363,0,0,1,.075-.723l.726.078a.364.364,0,0,1-.084.723l-.72-.078Zm24.856,28.9a.364.364,0,0,1,.263.615.358.358,0,0,1-.263.114h-.469a.364.364,0,0,1,.006-.729Zm-2.625-.066a.363.363,0,0,1-.039.726l-.735-.045a.362.362,0,0,1,.054-.723l.72.044Zm-2.861-.272a.364.364,0,0,1-.111.72Zm-2.778-.612a.364.364,0,0,1-.227.693c-.239-.078-.475-.161-.708-.254a.363.363,0,0,1,.269-.675c.215.086.439.164.663.236Zm-2.467-1.243a.364.364,0,0,1-.457.568,4.663,4.663,0,0,1-.571-.54.363.363,0,0,1,.543-.481A4.067,4.067,0,0,0,848.188,356.626Zm-1.362-2.2a.364.364,0,0,1-.717.123,5.663,5.663,0,0,1-.084-.777.363.363,0,0,1,.726-.018A4.632,4.632,0,0,0,846.826,354.425Zm.2-2.718a.364.364,0,0,1-.7-.191c.066-.242.134-.487.215-.72a.363.363,0,0,1,.687.233C847.149,351.253,847.08,351.48,847.023,351.707Zm1-2.664a.363.363,0,0,1-.66-.3c.1-.224.209-.448.317-.666a.364.364,0,0,1,.654.32c-.1.215-.209.43-.307.645Zm1.3-2.577a.363.363,0,0,1-.642-.34l.34-.645a.364.364,0,0,1,.642.343C849.544,346.032,849.434,346.253,849.32,346.465Zm1.356-2.583a.364.364,0,0,1-.651-.326l.32-.645a.364.364,0,0,1,.657.314l-.323.66Zm1.18-2.715a.363.363,0,0,1-.69-.227c.072-.227.138-.445.2-.672a.363.363,0,0,1,.7.176C852.008,340.689,851.936,340.924,851.856,341.166Zm.364-3.019a.364.364,0,0,1-.723.092,5.061,5.061,0,0,0-.123-.672.364.364,0,0,1,.7-.179,5.88,5.88,0,0,1,.137.759ZM851.1,335.3a.362.362,0,0,1-.585.427,6.71,6.71,0,0,0-.433-.538.365.365,0,0,1,.541-.49,7.031,7.031,0,0,1,.478.6Zm-2.2-2.073a.365.365,0,0,1-.409.6c-.194-.134-.394-.257-.594-.379a.364.364,0,0,1,.373-.624c.215.128.421.26.633.4Zm-2.628-1.395a.364.364,0,0,1-.281.672c-.221-.1-.442-.182-.663-.266a.363.363,0,0,1,.257-.678c.227.087.46.176.684.275Zm-2.784-.971a.364.364,0,0,1-.2.7l-.7-.188a.364.364,0,0,1,.185-.7Zm-2.853-.7a.363.363,0,0,1-.146.711l-.711-.14a.364.364,0,0,1,.137-.714Zm-2.882-.514a.364.364,0,0,1-.108.72l-.717-.1a.363.363,0,0,1,.1-.72l.723.1Z" transform="translate(-473.608 -186.996)" fill="#2f4419" fill-rule="evenodd"/>
      <path id="Trazado_247339" data-name="Trazado 247339" d="M985.509,490.984l15.158,6.213-4.16,5.316Z" transform="translate(-559.819 -278.904)" fill="#afc797" fill-rule="evenodd"/>
      <path id="Trazado_247340" data-name="Trazado 247340" d="M1003.418,494.73l-16.837-3.677,20.958,1.536Z" transform="translate(-560.428 -278.943)" fill="#afc797" fill-rule="evenodd"/>
      <path id="Trazado_247341" data-name="Trazado 247341" d="M1002.809,494.691l-.393,6.98-1.749-4.474-15.158-6.213.463.03Z" transform="translate(-559.819 -278.904)" fill="#233313" fill-rule="evenodd"/>
      <path id="Trazado_247342" data-name="Trazado 247342" d="M1019.924,509.841l-3.594-2.117,1.844-2.357Z" transform="translate(-577.327 -287.074)" fill="#233313" fill-rule="evenodd"/>
      <path id="Trazado_247343" data-name="Trazado 247343" d="M1030.6,507.956a.279.279,0,0,0-.061.555l.553.063a.278.278,0,0,0,.065-.552l-.553-.066Zm31.623,35.808a.28.28,0,0,0-.242-.5c-.164.078-.328.153-.5.227a.279.279,0,0,0,.22.514Zm-2.129.815a.281.281,0,0,0-.151-.541c-.177.048-.35.1-.527.137a.279.279,0,0,0,.125.544c.186-.045.367-.1.549-.143Zm-2.255.406a.28.28,0,0,0-.035-.559c-.181.012-.359.021-.544.021a.279.279,0,0,0,0,.558c.19-.012.389-.009.579-.021Zm-2.3-.123a.28.28,0,0,0,.1-.549c-.181-.033-.354-.072-.531-.114a.279.279,0,0,0-.138.541C1055.162,544.786,1055.348,544.83,1055.537,544.863Zm-2.19-.72a.28.28,0,0,0,.246-.5c-.164-.077-.32-.164-.475-.254a.28.28,0,0,0-.281.484C1053,543.967,1053.17,544.06,1053.348,544.143Zm-1.909-1.293a.279.279,0,0,0,.372-.415c-.13-.117-.272-.248-.389-.373a.28.28,0,0,0-.4.391c.138.137.272.269.419.4Zm-1.5-1.738a.278.278,0,0,0,.462-.311c-.1-.149-.2-.3-.294-.46a.28.28,0,0,0-.479.29c.1.164.2.322.311.481Zm-1.071-2.028a.279.279,0,0,0,.518-.206c-.069-.168-.13-.341-.194-.514a.279.279,0,0,0-.527.185c.06.176.13.355.2.535Zm-.683-2.168a.278.278,0,0,0,.54-.134l-.125-.541a.279.279,0,0,0-.544.123Zm-.462-2.2a.281.281,0,0,0,.553-.1l-.1-.55a.281.281,0,0,0-.553.1Zm-.393-2.2a.281.281,0,0,0,.553-.1l-.1-.553a.28.28,0,0,0-.549.108l.1.547Zm-.449-2.171a.278.278,0,0,0,.54-.134c-.043-.182-.086-.371-.138-.55a.28.28,0,0,0-.54.149c.052.165.095.359.134.532Zm-.557-1.971a.282.282,0,0,0,.423-.334c-.043-.117-.1-.233-.151-.349a.267.267,0,0,0-.173-.3.287.287,0,0,0-.428.32c-.043.123-.086.239-.134.358a.28.28,0,0,0,.453.3Zm-1.119-2.028a.277.277,0,1,0,.445-.331q-.175-.238-.363-.457a.281.281,0,0,0-.423.37,4.974,4.974,0,0,1,.337.418Zm-1.533-1.472a.28.28,0,0,0,.307-.469c-.164-.111-.328-.206-.5-.3a.279.279,0,0,0-.264.493C1043.37,524.673,1043.516,524.762,1043.668,524.864Zm-1.952-.869a.279.279,0,0,0,.142-.54c-.19-.051-.376-.1-.561-.134a.28.28,0,0,0-.108.549C1041.365,523.9,1041.538,523.947,1041.715,523.995Zm-2.155-.346a.28.28,0,0,0,.039-.559c-.186-.012-.38-.021-.566-.03a.279.279,0,0,0-.017.559C1039.2,523.625,1039.378,523.636,1039.56,523.648Zm-2.177.045a.279.279,0,0,0-.073-.552c-.19.024-.376.054-.566.086a.28.28,0,1,0,.108.549c.177-.033.354-.06.536-.083Zm-2.073.559a.28.28,0,0,0-.229-.511c-.182.084-.346.174-.527.269a.281.281,0,0,0,.285.484c.156-.087.307-.167.471-.239Zm-1.7,1.231a.279.279,0,0,0-.423-.365,3.741,3.741,0,0,0-.358.475.279.279,0,0,0,.467.307,5.144,5.144,0,0,1,.315-.415Zm-.916,1.855a.279.279,0,1,0-.549-.1,4.528,4.528,0,0,0-.078.591.279.279,0,1,0,.557.033A5.211,5.211,0,0,1,1032.7,527.337Zm.117,2.075a.281.281,0,0,0-.536.168c.061.188.125.373.2.552a.28.28,0,0,0,.514-.224C1032.925,529.748,1032.869,529.583,1032.813,529.413Zm1.032,1.831a.278.278,0,1,0-.415.37,5.024,5.024,0,0,0,.406.424.279.279,0,0,0,.38-.409C1034.087,531.506,1033.962,531.375,1033.845,531.244Zm1.672,1.317a.28.28,0,0,0-.268.493c.173.09.345.176.523.257a.28.28,0,0,0,.225-.514c-.164-.072-.32-.152-.479-.239Zm2.013.753a.28.28,0,0,0-.112.549c.186.042.376.078.566.108a.279.279,0,0,0,.073-.552c-.181-.033-.35-.063-.531-.1Zm2.134.14a.279.279,0,0,0,.061.555c.19-.018.393-.051.579-.087a.28.28,0,0,0-.108-.549c-.173.033-.354.063-.527.078Zm2.052-.583a.28.28,0,1,0,.242.5c.173-.084.345-.176.514-.275a.281.281,0,0,0-.289-.481,4.909,4.909,0,0,1-.471.251Zm1.762-1.219a.281.281,0,0,0,.384.409c.138-.132.281-.269.411-.409a.279.279,0,0,0-.411-.379C1043.737,531.4,1043.607,531.531,1043.478,531.653Zm1.391-1.664a.279.279,0,0,0,.466.308c.108-.161.2-.323.3-.487a.281.281,0,0,0-.488-.281c-.086.158-.181.314-.281.463Zm1.62-4.026a.28.28,0,0,0,.549.11c.039-.188.073-.374.1-.561a.28.28,0,0,0-.553-.087C1046.553,525.6,1046.527,525.784,1046.488,525.963Zm.268-2.171a.279.279,0,0,0,.557.021c0-.188.009-.379.009-.567a.279.279,0,0,0-.557,0c0,.185,0,.367-.009.549Zm-.086-2.189a.279.279,0,0,0,.553-.072c-.017-.188-.047-.377-.078-.565a.281.281,0,0,0-.553.1C1046.626,521.232,1046.652,521.429,1046.67,521.6Zm-.436-2.145a.279.279,0,0,0,.536-.159c-.052-.182-.108-.361-.168-.54a.28.28,0,0,0-.531.176C1046.13,519.112,1046.182,519.282,1046.233,519.458Zm-.777-2.043a.279.279,0,0,0,.5-.245c-.082-.173-.168-.34-.255-.511a.28.28,0,0,0-.492.266C1045.3,517.087,1045.374,517.251,1045.456,517.415Zm-1.1-1.891a.276.276,0,0,0,.449-.322c-.108-.156-.216-.311-.333-.46a.279.279,0,0,0-.441.343c.108.146.216.293.324.442Zm-1.4-1.687a.278.278,0,0,0,.4-.388c-.134-.137-.264-.272-.406-.4a.281.281,0,0,0-.385.409c.13.125.264.254.389.385Zm-1.641-1.452a.279.279,0,0,0,.333-.448c-.147-.114-.3-.227-.458-.334a.28.28,0,0,0-.32.46c.151.1.294.215.441.326Zm-1.836-1.206a.279.279,0,0,0,.272-.487c-.164-.1-.333-.185-.5-.275a.28.28,0,0,0-.255.5c.164.087.324.176.484.266Zm-1.978-.968a.278.278,0,0,0,.212-.514c-.173-.075-.35-.146-.527-.215a.281.281,0,0,0-.2.526C1037.158,510.071,1037.331,510.142,1037.5,510.211Zm-2.078-.74a.28.28,0,0,0,.156-.538l-.544-.156a.28.28,0,0,0-.142.541Zm-2.147-.541a.28.28,0,0,0,.112-.549c-.181-.039-.367-.072-.557-.108a.279.279,0,0,0-.1.549C1032.916,508.855,1033.094,508.891,1033.275,508.93Z" transform="translate(-585.257 -288.543)" fill="#233313" fill-rule="evenodd"/>
      <path id="Trazado_247344" data-name="Trazado 247344" d="M147.813,418.395l-12.73,10.1,5.43,3.919Z" transform="translate(-76.734 -237.669)" fill="#afc797" fill-rule="evenodd"/>
      <path id="Trazado_247345" data-name="Trazado 247345" d="M122.828,426.906l15.024-8.145L118.309,426Z" transform="translate(-67.205 -237.877)" fill="#afc797" fill-rule="evenodd"/>
      <path id="Trazado_247346" data-name="Trazado 247346" d="M128.77,426.7l2.3,6.538.43-4.743,12.73-10.1-.433.158Z" transform="translate(-73.148 -237.669)" fill="#2f4419" fill-rule="evenodd"/>
      <path id="Trazado_247347" data-name="Trazado 247347" d="M134.088,446.516l2.834-3-2.4-1.739Z" transform="translate(-76.169 -250.949)" fill="#2f4419" fill-rule="evenodd"/>
      <path id="Trazado_247348" data-name="Trazado 247348" d="M71.218,448.579a.275.275,0,0,0-.251-.49c-.17.086-.332.176-.5.269a.276.276,0,0,0,.275.478C70.9,448.746,71.06,448.659,71.218,448.579ZM27.728,456.6a.275.275,0,0,0-.439.332l.338.442a.274.274,0,0,0,.43-.34l-.332-.433Zm1.395,1.664a.276.276,0,0,0-.4.379c.128.137.257.272.391.4a.275.275,0,0,0,.385-.391C29.371,458.53,29.245,458.4,29.123,458.268Zm1.577,1.493a.276.276,0,0,0-.352.424c.143.122.287.239.436.356a.276.276,0,0,0,.338-.436C30.977,459.994,30.84,459.878,30.7,459.761Zm1.747,1.287a.276.276,0,0,0-.3.463c.155.1.317.2.475.3a.277.277,0,0,0,.284-.475C32.752,461.24,32.6,461.147,32.447,461.048Zm1.891,1.06a.276.276,0,0,0-.236.5c.167.08.338.161.508.236a.276.276,0,0,0,.221-.5c-.164-.072-.329-.149-.493-.227Zm2.007.824a.274.274,0,0,0-.173.52c.176.06.352.12.532.173a.276.276,0,0,0,.158-.529C36.688,463.043,36.515,462.987,36.345,462.933Zm2.094.58a.275.275,0,0,0-.113.537c.182.039.364.075.547.111a.275.275,0,0,0,.1-.54c-.176-.033-.355-.069-.532-.1Zm2.144.334a.276.276,0,0,0-.054.549c.185.021.373.036.559.048a.275.275,0,0,0,.036-.549Zm2.171.1a.276.276,0,0,0,.006.552c.185,0,.37-.006.556-.009a.277.277,0,0,0-.018-.553C43.116,463.948,42.933,463.951,42.754,463.951Zm2.171-.122a.275.275,0,0,0,.063.546c.185-.018.37-.042.553-.066a.276.276,0,0,0-.072-.547c-.182.024-.361.045-.541.066Zm2.147-.344a.277.277,0,0,0,.116.541c.182-.039.364-.081.544-.123a.276.276,0,0,0-.128-.537C47.428,463.408,47.252,463.447,47.073,463.485Zm2.1-.558a.275.275,0,0,0,.173.523c.176-.06.352-.116.529-.179a.275.275,0,0,0-.185-.517c-.173.06-.343.12-.517.176Zm2.028-.782a.276.276,0,0,0,.23.5c.17-.077.337-.158.5-.239a.265.265,0,0,0,.134-.346l.09.018a.275.275,0,0,0,.1-.541c-.176-.033-.346-.072-.523-.117a.276.276,0,0,0-.134.535l-.4.188Zm1.909-1.022a.276.276,0,0,0,.3.466c.158-.1.32-.2.472-.308a.275.275,0,0,0-.314-.451C53.414,460.932,53.265,461.03,53.109,461.123Zm1.732-1.284a.276.276,0,0,0,.37.409c.14-.123.278-.254.409-.385a.276.276,0,0,0-.385-.394C55.107,459.594,54.979,459.716,54.842,459.839Zm1.428-1.589a.275.275,0,0,0,.454.311c.111-.155.209-.32.3-.484a.276.276,0,0,0-.478-.275C56.46,457.954,56.368,458.106,56.269,458.25Zm.869-1.9a.275.275,0,0,0,.538.12,5.364,5.364,0,0,0,.1-.574.275.275,0,0,0-.547-.06A4.844,4.844,0,0,1,57.138,456.353Zm-.03-2.043a.276.276,0,0,0,.529-.156,4.633,4.633,0,0,0-.185-.552.276.276,0,0,0-.508.215,4.069,4.069,0,0,1,.164.49Zm-.962-1.864a.276.276,0,0,0,.445-.326c-.11-.152-.224-.3-.343-.448a.276.276,0,0,0-.427.349C55.935,452.163,56.042,452.3,56.147,452.446ZM54.7,450.9a.276.276,0,0,0,.337-.436c-.152-.12-.3-.227-.463-.335a.276.276,0,0,0-.3.463c.149.1.29.2.43.308Zm-1.846-.952a.276.276,0,0,0,.14-.535,5.3,5.3,0,0,0-.57-.117.276.276,0,0,0-.075.547,4.2,4.2,0,0,1,.508.1Zm-2.055-.06a.276.276,0,0,0-.116-.54,5.12,5.12,0,0,0-.561.146.275.275,0,0,0,.17.523,4.755,4.755,0,0,1,.5-.129Zm-1.918.816a.276.276,0,0,0-.311-.457c-.161.108-.314.218-.463.337a.275.275,0,0,0,.346.427C48.59,450.9,48.737,450.795,48.883,450.7Zm-1.541,1.44a.276.276,0,0,0-.436-.337c-.116.149-.227.3-.335.466a.276.276,0,0,0,.463.3C47.13,452.42,47.237,452.276,47.342,452.139Zm-1.018,1.843a.275.275,0,0,0-.52-.182c-.066.182-.119.365-.17.55a.276.276,0,0,0,.535.137C46.213,454.316,46.264,454.146,46.323,453.982Zm-.329,2.058a.275.275,0,0,0-.55.03,5.449,5.449,0,0,0,.057.58.275.275,0,0,0,.544-.087,4.308,4.308,0,0,1-.051-.52Zm.541,1.992a.275.275,0,0,0-.484.263,4.793,4.793,0,0,0,.308.5.275.275,0,0,0,.448-.32,4.468,4.468,0,0,1-.269-.442Zm1.344,1.583a.277.277,0,0,0-.34.436c.149.116.3.23.46.337a.275.275,0,0,0,.308-.457C48.16,459.833,48.02,459.725,47.879,459.615Zm1.837,1.081a.275.275,0,0,0-.224.5c.17.078.343.149.517.221a.276.276,0,0,0,.2-.514c-.167-.066-.332-.137-.5-.212Zm4.14,1.01c.176,0,.355,0,.532-.012a.275.275,0,0,1,.039.549c-.188.012-.379.015-.57.015A.276.276,0,0,1,53.856,461.705Zm2.106-.275a.276.276,0,0,0,.149.532c.176-.045.37-.111.544-.173a.276.276,0,0,0-.185-.52A5.085,5.085,0,0,1,55.962,461.43Zm1.959-.833a.275.275,0,0,0,.278.475c.161-.092.329-.191.484-.292a.276.276,0,0,0-.3-.46C58.229,460.418,58.076,460.508,57.921,460.6Zm1.756-1.245a.276.276,0,0,0,.355.421c.143-.123.281-.242.421-.368a.276.276,0,0,0-.368-.412C59.952,459.113,59.815,459.235,59.677,459.352Zm1.577-1.5a.276.276,0,0,0,.4.382l.379-.406a.276.276,0,0,0-.406-.373c-.122.134-.248.266-.373.4Zm1.46-1.631a.277.277,0,0,0,.421.359l.355-.421a.276.276,0,0,0-.421-.356Zm1.407-1.691a.276.276,0,0,0,.424.352l.349-.427a.275.275,0,0,0-.424-.349Zm1.412-1.7a.275.275,0,0,0,.418.359l.359-.413a.276.276,0,0,0-.415-.364l-.365.421Zm1.485-1.649a.276.276,0,0,0,.4.382l.383-.385a.277.277,0,0,0-.388-.394Zm1.625-1.532a.276.276,0,0,0,.352.424c.134-.114.278-.233.421-.338a.276.276,0,0,0-.337-.436c-.146.114-.293.23-.436.352Z" transform="translate(-15.467 -254.517)" fill="#2f4419" fill-rule="evenodd"/>
    </g>
  </g>
</svg>
