<svg xmlns="http://www.w3.org/2000/svg" xmlns:xlink="http://www.w3.org/1999/xlink" width="522.404" height="385.284" viewBox="0 0 522.404 385.284">
  <defs>
    <clipPath id="clip-path">
      <rect id="Rectángulo_347628" data-name="Rectángulo 347628" width="522.404" height="385.284" transform="translate(0.634)" fill="#adadad"/>
    </clipPath>
  </defs>
  <g id="Grupo_1066764" data-name="Grupo 1066764" transform="translate(-620 -84)">
    <g id="Frame_2_" data-name="Frame (2)" transform="translate(619.366 84)" clip-path="url(#clip-path)">
      <path id="Trazado_246947" data-name="Trazado 246947" d="M889.414,704.073h-34.6v.261h34.6Z" transform="translate(-418.719 -345.139)" fill="#ebebeb"/>
      <path id="Trazado_246948" data-name="Trazado 246948" d="M670.727,709.647h-9.079v.261h9.079Z" transform="translate(-324.031 -347.871)" fill="#ebebeb"/>
      <path id="Trazado_246949" data-name="Trazado 246949" d="M833.481,685.053h-20.05v.262h20.05Z" transform="translate(-398.436 -335.815)" fill="#ebebeb"/>
      <path id="Trazado_246950" data-name="Trazado 246950" d="M153.274,688.5H108.149v.261h45.125Z" transform="translate(-52.704 -337.504)" fill="#ebebeb"/>
      <path id="Trazado_246951" data-name="Trazado 246951" d="M221.54,688.5h-6.614v.261h6.614Z" transform="translate(-105.047 -337.504)" fill="#ebebeb"/>
      <path id="Trazado_246952" data-name="Trazado 246952" d="M367.955,697.145H270.077v.261h97.878Z" transform="translate(-132.082 -341.743)" fill="#ebebeb"/>
      <path id="Trazado_246953" data-name="Trazado 246953" d="M286.652,295.525H84.91a5.971,5.971,0,0,1-5.966-5.966V5.966A5.971,5.971,0,0,1,84.91,0H286.652a5.971,5.971,0,0,1,5.966,5.966V289.558A5.971,5.971,0,0,1,286.652,295.525ZM84.91.261a5.712,5.712,0,0,0-5.7,5.7V289.558a5.712,5.712,0,0,0,5.7,5.7H286.652a5.712,5.712,0,0,0,5.705-5.7V5.966a5.712,5.712,0,0,0-5.705-5.7Z" transform="translate(-38.388)" fill="#ebebeb"/>
      <path id="Trazado_246954" data-name="Trazado 246954" d="M729.941,295.525H528.189a5.971,5.971,0,0,1-5.966-5.966V5.966A5.97,5.97,0,0,1,528.189,0H729.941a5.971,5.971,0,0,1,5.966,5.966V289.558A5.971,5.971,0,0,1,729.941,295.525ZM528.189.261a5.712,5.712,0,0,0-5.7,5.7V289.558a5.712,5.712,0,0,0,5.7,5.7H729.941a5.712,5.712,0,0,0,5.7-5.7V5.966a5.712,5.712,0,0,0-5.7-5.7Z" transform="translate(-255.685)" fill="#ebebeb"/>
      <path id="Trazado_246955" data-name="Trazado 246955" d="M523.041,671.1H.634v.261H523.041Z" transform="translate(0 -328.974)" fill="#ebebeb"/>
      <path id="Trazado_246956" data-name="Trazado 246956" d="M453.6,468.59h6.989V570.1a1.246,1.246,0,0,1-1.243,1.243h-4.514a1.246,1.246,0,0,1-1.243-1.243V468.59Z" transform="translate(-222.038 -229.704)" fill="#f0f0f0"/>
      <path id="Trazado_246957" data-name="Trazado 246957" d="M819.636,450.677H759.079v9.132h60.557Z" transform="translate(-371.792 -220.923)" fill="#e6e6e6"/>
      <path id="Trazado_246958" data-name="Trazado 246958" d="M538.516,468.59h6.99V570.1a1.246,1.246,0,0,1-1.243,1.243h-4.5a1.246,1.246,0,0,1-1.243-1.243Z" transform="translate(-263.671 -229.704)" fill="#e6e6e6"/>
      <path id="Trazado_246959" data-name="Trazado 246959" d="M856.224,468.59h6.989V570.1a1.246,1.246,0,0,1-1.243,1.243h-4.5a1.246,1.246,0,0,1-1.243-1.243Z" transform="translate(-419.413 -229.704)" fill="#e6e6e6"/>
      <path id="Trazado_246960" data-name="Trazado 246960" d="M622.729,450.677H445.7v9.132H622.729Z" transform="translate(-218.171 -220.923)" fill="#f5f5f5"/>
      <path id="Trazado_246961" data-name="Trazado 246961" d="M771.325,468.59h6.99V570.1a1.246,1.246,0,0,1-1.243,1.243h-4.514a1.246,1.246,0,0,1-1.243-1.243V468.59Z" transform="translate(-377.79 -229.704)" fill="#f0f0f0"/>
      <path id="Trazado_246962" data-name="Trazado 246962" d="M836.683,444.6H820.624v-1.432a4.891,4.891,0,0,1,5.151-4.879l6.29.345a4.876,4.876,0,0,1,4.618,4.879Z" transform="translate(-401.962 -214.849)" fill="#f0f0f0"/>
      <path id="Trazado_246963" data-name="Trazado 246963" d="M746.9,383.375a2.375,2.375,0,0,0-2.372-2.256H728.291a2.375,2.375,0,0,0-2.372,2.256l3.855,33.831H754Z" transform="translate(-355.537 -186.826)" fill="#e0e0e0"/>
      <path id="Trazado_246964" data-name="Trazado 246964" d="M841.181,283.523h-6.05l-6.8,63.89h6.05a2.067,2.067,0,0,0,2.006-1.818l6.415-60.254A1.6,1.6,0,0,0,841.181,283.523Z" transform="translate(-405.739 -138.984)" fill="#e0e0e0"/>
      <path id="Trazado_246965" data-name="Trazado 246965" d="M746.465,347.413H655.818a1.6,1.6,0,0,1-1.62-1.818l6.415-60.254a2.067,2.067,0,0,1,2.006-1.818h90.647a1.6,1.6,0,0,1,1.62,1.818L748.471,345.6A2.067,2.067,0,0,1,746.465,347.413Z" transform="translate(-320.374 -138.984)" fill="#ebebeb"/>
      <path id="Trazado_246966" data-name="Trazado 246966" d="M748.32,343.659H662.844a1.394,1.394,0,0,1-1.41-1.588l5.589-52.575a1.809,1.809,0,0,1,1.755-1.589h85.476a1.4,1.4,0,0,1,1.411,1.589l-5.59,52.575A1.808,1.808,0,0,1,748.32,343.659Z" transform="translate(-323.922 -141.133)" fill="#cacaca"/>
      <path id="Trazado_246967" data-name="Trazado 246967" d="M752.872,446.742h-29.8a1.317,1.317,0,1,0,0,2.633h29.8a1.317,1.317,0,1,0,0-2.633Z" transform="translate(-353.497 -218.994)" fill="#e0e0e0"/>
      <path id="Trazado_246968" data-name="Trazado 246968" d="M716.561,443.278H666.013v3.761h50.548Z" transform="translate(-326.171 -217.296)" fill="#ebebeb"/>
      <path id="Trazado_246969" data-name="Trazado 246969" d="M548.676,476.726h-74.39v99h74.39Z" transform="translate(-232.186 -233.693)" fill="#f5f5f5"/>
      <path id="Trazado_246970" data-name="Trazado 246970" d="M634.417,476.726H620.228v99h14.189Z" transform="translate(-303.727 -233.693)" fill="#e6e6e6"/>
      <path id="Trazado_246971" data-name="Trazado 246971" d="M548.872,491.134h-64.36v24.041h64.36Z" transform="translate(-237.199 -240.756)" fill="#d2d2d2"/>
      <path id="Trazado_246972" data-name="Trazado 246972" d="M548.872,543.436h-64.36v24.041h64.36Z" transform="translate(-237.199 -266.394)" fill="#d2d2d2"/>
      <path id="Trazado_246973" data-name="Trazado 246973" d="M548.872,595.738h-64.36v24.041h64.36Z" transform="translate(-237.199 -292.033)" fill="#d2d2d2"/>
      <path id="Trazado_246974" data-name="Trazado 246974" d="M547.739,512.12a2.685,2.685,0,1,1-2.685-2.685A2.684,2.684,0,0,1,547.739,512.12Z" transform="translate(-265.56 -249.727)" fill="#ebebeb"/>
      <path id="Trazado_246975" data-name="Trazado 246975" d="M547.739,564.443a2.685,2.685,0,1,1-2.685-2.685A2.684,2.684,0,0,1,547.739,564.443Z" transform="translate(-265.56 -275.376)" fill="#ebebeb"/>
      <path id="Trazado_246976" data-name="Trazado 246976" d="M547.739,616.745a2.685,2.685,0,1,1-2.685-2.685A2.684,2.684,0,0,1,547.739,616.745Z" transform="translate(-265.56 -301.014)" fill="#ebebeb"/>
      <path id="Trazado_246977" data-name="Trazado 246977" d="M282.011,161.538H179.839v257.42H282.011Z" transform="translate(-87.847 -79.186)" fill="#e0e0e0"/>
      <path id="Trazado_246978" data-name="Trazado 246978" d="M380.256,157.112V419.046h18.828V157.112Z" transform="translate(-186.092 -77.017)" fill="#e0e0e0"/>
      <path id="Trazado_246979" data-name="Trazado 246979" d="M144.691,157.112V419.046h18.827V157.112Z" transform="translate(-70.617 -77.017)" fill="#e6e6e6"/>
      <path id="Trazado_246980" data-name="Trazado 246980" d="M138.42,157.112V419.046H263.964V157.112Zm121.03,4.513V208.59H142.933V161.625ZM142.933,311.555V264.591H259.45v46.964Zm116.517,4.514v46.964H142.933V316.069Zm-116.517-56V213.1H259.45v46.965Zm0,154.443V367.547H259.45v46.964Z" transform="translate(-67.543 -77.017)" fill="#f0f0f0"/>
      <path id="Trazado_246981" data-name="Trazado 246981" d="M295.962,425.861h4.347V389.418h-4.347Z" transform="translate(-144.771 -190.894)" fill="#e6e6e6"/>
      <path id="Trazado_246982" data-name="Trazado 246982" d="M304.508,425.861h4.347V389.418h-4.347Z" transform="translate(-148.96 -190.894)" fill="#e0e0e0"/>
      <path id="Trazado_246983" data-name="Trazado 246983" d="M278.931,428.323h8.682V394.439h-8.682Z" transform="translate(-136.422 -193.355)" fill="#e6e6e6"/>
      <path id="Trazado_246984" data-name="Trazado 246984" d="M259.42,425.861h5.611V389.418H259.42Z" transform="translate(-126.858 -190.894)" fill="#f0f0f0"/>
      <path id="Trazado_246985" data-name="Trazado 246985" d="M270.405,425.861h4.346V389.418h-4.346Z" transform="translate(-132.243 -190.894)" fill="#ebebeb"/>
      <path id="Trazado_246986" data-name="Trazado 246986" d="M194.821,425.861h5.61V389.418h-5.61Z" transform="translate(-95.191 -190.894)" fill="#e6e6e6"/>
      <path id="Trazado_246987" data-name="Trazado 246987" d="M205.806,425.861h4.347V389.418h-4.347Z" transform="translate(-100.576 -190.894)" fill="#ebebeb"/>
      <path id="Trazado_246988" data-name="Trazado 246988" d="M231.383,425.861h5.611V389.418h-5.611Z" transform="translate(-113.114 -190.894)" fill="#e6e6e6"/>
      <path id="Trazado_246989" data-name="Trazado 246989" d="M242.389,425.861h4.346V389.418h-4.346Z" transform="translate(-118.509 -190.894)" fill="#e0e0e0"/>
      <path id="Trazado_246990" data-name="Trazado 246990" d="M177.769,426.716h8.682V391.14h-8.682Z" transform="translate(-86.832 -191.738)" fill="#ebebeb"/>
      <path id="Trazado_246991" data-name="Trazado 246991" d="M169.244,426.716h4.346V391.14h-4.346Z" transform="translate(-82.653 -191.738)" fill="#e0e0e0"/>
      <path id="Trazado_246992" data-name="Trazado 246992" d="M220.009,426.716H225.8V391.14h-5.788Z" transform="translate(-107.538 -191.738)" fill="#e0e0e0"/>
      <path id="Trazado_246993" data-name="Trazado 246993" d="M214.332,426.716h2.894V391.14h-2.894Z" transform="translate(-104.755 -191.738)" fill="#f0f0f0"/>
      <path id="Trazado_246994" data-name="Trazado 246994" d="M242.389,428.323h8.682V394.439h-8.682Z" transform="translate(-118.509 -193.355)" fill="#f5f5f5"/>
      <path id="Trazado_246995" data-name="Trazado 246995" d="M338.57,425.861h5.611V389.418H338.57Z" transform="translate(-165.657 -190.894)" fill="#ebebeb"/>
      <path id="Trazado_246996" data-name="Trazado 246996" d="M349.576,425.861h4.346V389.418h-4.346Z" transform="translate(-171.052 -190.894)" fill="#e6e6e6"/>
      <path id="Trazado_246997" data-name="Trazado 246997" d="M321.539,426.716h8.682V391.14h-8.682Z" transform="translate(-157.309 -191.738)" fill="#e0e0e0"/>
      <path id="Trazado_246998" data-name="Trazado 246998" d="M313.013,426.716h4.346V391.14h-4.346Z" transform="translate(-153.129 -191.738)" fill="#ebebeb"/>
      <path id="Trazado_246999" data-name="Trazado 246999" d="M363.779,426.716h5.788V391.14h-5.788Z" transform="translate(-178.015 -191.738)" fill="#ebebeb"/>
      <path id="Trazado_247000" data-name="Trazado 247000" d="M358.1,426.716H361V391.14H358.1Z" transform="translate(-175.232 -191.738)" fill="#fafafa"/>
      <path id="Trazado_247001" data-name="Trazado 247001" d="M244.235,491.3h-4.346V527.74h4.346Z" transform="translate(-117.283 -240.835)" fill="#e6e6e6"/>
      <path id="Trazado_247002" data-name="Trazado 247002" d="M235.71,491.3h-4.347V527.74h4.347Z" transform="translate(-113.104 -240.835)" fill="#e0e0e0"/>
      <path id="Trazado_247003" data-name="Trazado 247003" d="M257.1,491.3h-8.682V525.18H257.1Z" transform="translate(-121.462 -240.835)" fill="#e6e6e6"/>
      <path id="Trazado_247004" data-name="Trazado 247004" d="M279.561,491.3h-5.61V527.74h5.61Z" transform="translate(-133.981 -240.835)" fill="#f0f0f0"/>
      <path id="Trazado_247005" data-name="Trazado 247005" d="M269.792,491.3h-4.347V527.74h4.347Z" transform="translate(-129.811 -240.835)" fill="#ebebeb"/>
      <path id="Trazado_247006" data-name="Trazado 247006" d="M344.181,491.3H338.57V527.74h5.611Z" transform="translate(-165.657 -240.835)" fill="#e6e6e6"/>
      <path id="Trazado_247007" data-name="Trazado 247007" d="M334.391,491.3h-4.346V527.74h4.346Z" transform="translate(-161.478 -240.835)" fill="#ebebeb"/>
      <path id="Trazado_247008" data-name="Trazado 247008" d="M307.618,491.3h-5.61V527.74h5.61Z" transform="translate(-147.734 -240.835)" fill="#e6e6e6"/>
      <path id="Trazado_247009" data-name="Trazado 247009" d="M297.828,491.3h-4.346V527.74h4.346Z" transform="translate(-143.555 -240.835)" fill="#e0e0e0"/>
      <path id="Trazado_247010" data-name="Trazado 247010" d="M358.258,491.3h-8.682v35.576h8.682Z" transform="translate(-171.052 -240.835)" fill="#ebebeb"/>
      <path id="Trazado_247011" data-name="Trazado 247011" d="M370.954,491.3h-4.347v35.576h4.347Z" transform="translate(-179.401 -240.835)" fill="#e0e0e0"/>
      <path id="Trazado_247012" data-name="Trazado 247012" d="M318.8,491.3h-5.788v35.576H318.8Z" transform="translate(-153.129 -240.835)" fill="#e0e0e0"/>
      <path id="Trazado_247013" data-name="Trazado 247013" d="M327.261,491.3h-2.894v35.576h2.894Z" transform="translate(-158.695 -240.835)" fill="#f0f0f0"/>
      <path id="Trazado_247014" data-name="Trazado 247014" d="M293.659,491.3h-8.682V525.18h8.682Z" transform="translate(-139.386 -240.835)" fill="#f5f5f5"/>
      <path id="Trazado_247015" data-name="Trazado 247015" d="M200.411,491.3H194.8V527.74h5.611Z" transform="translate(-95.181 -240.835)" fill="#ebebeb"/>
      <path id="Trazado_247016" data-name="Trazado 247016" d="M190.642,491.3H186.3V527.74h4.347Z" transform="translate(-91.012 -240.835)" fill="#e6e6e6"/>
      <path id="Trazado_247017" data-name="Trazado 247017" d="M214.488,491.3h-8.682v35.576h8.682Z" transform="translate(-100.576 -240.835)" fill="#e0e0e0"/>
      <path id="Trazado_247018" data-name="Trazado 247018" d="M227.2,491.3h-4.346v35.576H227.2Z" transform="translate(-108.935 -240.835)" fill="#ebebeb"/>
      <path id="Trazado_247019" data-name="Trazado 247019" d="M175.032,491.3h-5.788v35.576h5.788Z" transform="translate(-82.653 -240.835)" fill="#ebebeb"/>
      <path id="Trazado_247020" data-name="Trazado 247020" d="M183.492,491.3H180.6v35.576h2.894Z" transform="translate(-88.219 -240.835)" fill="#fafafa"/>
      <path id="Trazado_247021" data-name="Trazado 247021" d="M295.962,629.619h4.347V593.176h-4.347Z" transform="translate(-144.771 -290.777)" fill="#e6e6e6"/>
      <path id="Trazado_247022" data-name="Trazado 247022" d="M304.508,629.619h4.347V593.176h-4.347Z" transform="translate(-148.96 -290.777)" fill="#e0e0e0"/>
      <path id="Trazado_247023" data-name="Trazado 247023" d="M278.931,632.08h8.682V598.2h-8.682Z" transform="translate(-136.422 -293.238)" fill="#e6e6e6"/>
      <path id="Trazado_247024" data-name="Trazado 247024" d="M259.42,629.619h5.611V593.176H259.42Z" transform="translate(-126.858 -290.777)" fill="#f0f0f0"/>
      <path id="Trazado_247025" data-name="Trazado 247025" d="M270.405,629.619h4.346V593.176h-4.346Z" transform="translate(-132.243 -290.777)" fill="#ebebeb"/>
      <path id="Trazado_247026" data-name="Trazado 247026" d="M194.821,629.619h5.61V593.176h-5.61Z" transform="translate(-95.191 -290.777)" fill="#e6e6e6"/>
      <path id="Trazado_247027" data-name="Trazado 247027" d="M205.806,629.619h4.347V593.176h-4.347Z" transform="translate(-100.576 -290.777)" fill="#ebebeb"/>
      <path id="Trazado_247028" data-name="Trazado 247028" d="M231.383,629.619h5.611V593.176h-5.611Z" transform="translate(-113.114 -290.777)" fill="#e6e6e6"/>
      <path id="Trazado_247029" data-name="Trazado 247029" d="M242.389,629.619h4.346V593.176h-4.346Z" transform="translate(-118.509 -290.777)" fill="#e0e0e0"/>
      <path id="Trazado_247030" data-name="Trazado 247030" d="M177.769,630.453h8.682V594.877h-8.682Z" transform="translate(-86.832 -291.611)" fill="#ebebeb"/>
      <path id="Trazado_247031" data-name="Trazado 247031" d="M169.244,630.453h4.346V594.877h-4.346Z" transform="translate(-82.653 -291.611)" fill="#e0e0e0"/>
      <path id="Trazado_247032" data-name="Trazado 247032" d="M220.009,630.453H225.8V594.877h-5.788Z" transform="translate(-107.538 -291.611)" fill="#e0e0e0"/>
      <path id="Trazado_247033" data-name="Trazado 247033" d="M214.332,630.453h2.894V594.877h-2.894Z" transform="translate(-104.755 -291.611)" fill="#f0f0f0"/>
      <path id="Trazado_247034" data-name="Trazado 247034" d="M242.389,632.08h8.682V598.2h-8.682Z" transform="translate(-118.509 -293.238)" fill="#f5f5f5"/>
      <path id="Trazado_247035" data-name="Trazado 247035" d="M338.57,629.619h5.611V593.176H338.57Z" transform="translate(-165.657 -290.777)" fill="#ebebeb"/>
      <path id="Trazado_247036" data-name="Trazado 247036" d="M349.576,629.619h4.346V593.176h-4.346Z" transform="translate(-171.052 -290.777)" fill="#e6e6e6"/>
      <path id="Trazado_247037" data-name="Trazado 247037" d="M321.539,630.453h8.682V594.877h-8.682Z" transform="translate(-157.309 -291.611)" fill="#e0e0e0"/>
      <path id="Trazado_247038" data-name="Trazado 247038" d="M313.013,630.453h4.346V594.877h-4.346Z" transform="translate(-153.129 -291.611)" fill="#ebebeb"/>
      <path id="Trazado_247039" data-name="Trazado 247039" d="M363.779,630.453h5.788V594.877h-5.788Z" transform="translate(-178.015 -291.611)" fill="#ebebeb"/>
      <path id="Trazado_247040" data-name="Trazado 247040" d="M358.1,630.453H361V594.877H358.1Z" transform="translate(-175.232 -291.611)" fill="#fafafa"/>
      <path id="Trazado_247041" data-name="Trazado 247041" d="M246.023,237.566l-1.974-22.516h28.565l1.964,22.516Z" transform="translate(-119.323 -105.418)" fill="#f0f0f0"/>
      <path id="Trazado_247042" data-name="Trazado 247042" d="M244.546,237.566l-1.974-22.516h-1.536l1.975,22.516Z" transform="translate(-117.846 -105.418)" fill="#e0e0e0"/>
      <path id="Trazado_247043" data-name="Trazado 247043" d="M251.724,237.477l-1.568-17.918h22.735l1.567,17.918Z" transform="translate(-122.316 -107.629)" fill="#fafafa"/>
      <path id="Trazado_247044" data-name="Trazado 247044" d="M255.4,237.421l-1.306-14.972h18.984l1.316,14.972Z" transform="translate(-124.245 -109.045)" fill="#ebebeb"/>
      <path id="Trazado_247045" data-name="Trazado 247045" d="M181.7,224.234h28.69l-3.187-36.38h-28.68Z" transform="translate(-87.204 -92.087)" fill="#ebebeb"/>
      <path id="Trazado_247046" data-name="Trazado 247046" d="M180.388,224.234h-1.369l-3.176-36.38h1.369Z" transform="translate(-85.888 -92.087)" fill="#e0e0e0"/>
      <path id="Trazado_247047" data-name="Trazado 247047" d="M187.43,224.092h22.839l-2.528-28.963H184.9Z" transform="translate(-90.328 -95.653)" fill="#e0e0e0"/>
      <path id="Trazado_247048" data-name="Trazado 247048" d="M191.111,224h19.079l-2.111-24.2H189Z" transform="translate(-92.338 -97.944)" fill="#fafafa"/>
      <path id="Trazado_247049" data-name="Trazado 247049" d="M198.793,211.075l3.177-3.177a3.325,3.325,0,0,1,4.7,0l3.177,3.177a3.324,3.324,0,0,1,0,4.7l-3.177,3.177a3.324,3.324,0,0,1-4.7,0l-3.177-3.177A3.325,3.325,0,0,1,198.793,211.075Z" transform="translate(-96.661 -101.436)" fill="#ebebeb"/>
      <path id="Trazado_247050" data-name="Trazado 247050" d="M204.371,225.626l2.224-2.224a3.324,3.324,0,0,1,4.7,0l2.224,2.224a3.325,3.325,0,0,1,0,4.7l-2.224,2.224a3.325,3.325,0,0,1-4.7,0l-2.224-2.224A3.324,3.324,0,0,1,204.371,225.626Z" transform="translate(-99.396 -109.036)" fill="#e6e6e6"/>
      <path id="Trazado_247051" data-name="Trazado 247051" d="M314.53,245.7l14.053-14.053L342.636,245.7Z" transform="translate(-153.873 -113.556)" fill="#f5f5f5"/>
      <path id="Trazado_247052" data-name="Trazado 247052" d="M328.583,231.65,314.53,245.7h14.053Z" transform="translate(-153.873 -113.556)" fill="#e6e6e6"/>
      <path id="Trazado_247053" data-name="Trazado 247053" d="M209.84,307.874a13.332,13.332,0,1,0-18.854,0A13.331,13.331,0,0,0,209.84,307.874Z" transform="translate(-91.397 -139.764)" fill="#f0f0f0"/>
      <path id="Trazado_247054" data-name="Trazado 247054" d="M213.261,318.869H211.4V310.03h.93a14.732,14.732,0,0,0,0-29.463v-1.86A16.606,16.606,0,0,1,228.923,295.3a16.388,16.388,0,0,1-15.662,16.56v7.011Z" transform="translate(-103.319 -136.623)" fill="#ebebeb"/>
      <path id="Trazado_247055" data-name="Trazado 247055" d="M213.356,354.461h-15.85a3.549,3.549,0,0,1,3.552-3.552H209.8A3.549,3.549,0,0,1,213.356,354.461Z" transform="translate(-96.507 -172.017)" fill="#ebebeb"/>
      <path id="Trazado_247056" data-name="Trazado 247056" d="M280.057,346.069v-9.236a.883.883,0,0,1,0-1.766c3.521,0,7.042-.021,10.563-.042v12.82H280.057a.883.883,0,0,1,0-1.766Z" transform="translate(-136.555 -164.23)" fill="#ebebeb"/>
      <path id="Trazado_247057" data-name="Trazado 247057" d="M289.09,338.571h-8.212V347.8h8.212Z" transform="translate(-137.376 -165.969)" fill="#f5f5f5"/>
      <path id="Trazado_247058" data-name="Trazado 247058" d="M293.584,347.841h28.45c1.954,0,3.542-2.466,3.542-5.506s-1.588-5.506-3.542-5.506h-28.45v11.012Z" transform="translate(-143.605 -165.115)" fill="#fafafa"/>
      <path id="Trazado_247059" data-name="Trazado 247059" d="M292.763,335.036c9.32,0,18.65-.167,27.959,0,6.384.115,6.718,12.35.47,12.778-4.367.3-8.85,0-13.216,0h-15.2a.883.883,0,0,1,0-1.765H319.26c2.048,0,3.5-.021,4.294-2.434.679-2.09.47-6.342-2.33-6.8a5.881,5.881,0,0,0-.961,0h-27.5a.883.883,0,0,1,0-1.766Z" transform="translate(-142.784 -164.199)" fill="#ebebeb"/>
      <path id="Trazado_247060" data-name="Trazado 247060" d="M280.057,321.189v-9.236a.883.883,0,0,1,0-1.766c3.521,0,7.042-.021,10.563-.042v12.82H280.057a.883.883,0,0,1,0-1.766Z" transform="translate(-136.555 -152.034)" fill="#ebebeb"/>
      <path id="Trazado_247061" data-name="Trazado 247061" d="M289.09,313.691h-8.212v9.226h8.212Z" transform="translate(-137.376 -153.772)" fill="#f5f5f5"/>
      <path id="Trazado_247062" data-name="Trazado 247062" d="M293.584,322.941h28.45c1.954,0,3.542-2.466,3.542-5.506s-1.588-5.506-3.542-5.506h-28.45v11.013Z" transform="translate(-143.605 -152.908)" fill="#fafafa"/>
      <path id="Trazado_247063" data-name="Trazado 247063" d="M292.763,310.156c9.32,0,18.65-.167,27.959,0,6.384.115,6.718,12.35.47,12.778-4.367.3-8.85,0-13.216,0h-15.2a.883.883,0,0,1,0-1.766H319.26c2.048,0,3.5-.021,4.294-2.434.679-2.09.47-6.342-2.33-6.8a5.929,5.929,0,0,0-.961,0h-27.5a.883.883,0,0,1,0-1.765Z" transform="translate(-142.784 -152.003)" fill="#ebebeb"/>
      <path id="Trazado_247064" data-name="Trazado 247064" d="M308.329,733.015c111.881,0,202.578-5.3,202.578-11.827s-90.7-11.827-202.578-11.827-202.578,5.3-202.578,11.827S196.448,733.015,308.329,733.015Z" transform="translate(-51.529 -347.731)" fill="#d4d4d4"/>
      <path id="Trazado_247065" data-name="Trazado 247065" d="M590.863,565.31s-12.193-9.612-22.275-.439l4.054.533-6.06,1.578a26.945,26.945,0,0,0-2.288,3.26q-1.317,2.21-2.456,4.158l4.054.836-6.216,2.915c-6.363,11.221-7.429,14.627-7.429,14.627a58.555,58.555,0,0,0,12.068-1.285l3.583-9.32.732,8.233a38.153,38.153,0,0,0,12.078-5.872l-1.578-8.327,4.848,5.443a24.176,24.176,0,0,0,5.83-10.229l-2.748-2.633,3.229.658a29.944,29.944,0,0,0,.575-4.158Z" transform="translate(-270.402 -274.958)" fill="#3b5620"/>
      <path id="Trazado_247066" data-name="Trazado 247066" d="M590.863,565.31s-12.193-9.612-22.275-.439l4.054.533-6.06,1.578a26.945,26.945,0,0,0-2.288,3.26q-1.317,2.21-2.456,4.158l4.054.836-6.216,2.915c-6.363,11.221-7.429,14.627-7.429,14.627a58.555,58.555,0,0,0,12.068-1.285l3.583-9.32.732,8.233a38.153,38.153,0,0,0,12.078-5.872l-1.578-8.327,4.848,5.443a24.176,24.176,0,0,0,5.83-10.229l-2.748-2.633,3.229.658a29.944,29.944,0,0,0,.575-4.158Z" transform="translate(-270.402 -274.958)" fill="#fff" opacity="0.2"/>
      <path id="Trazado_247067" data-name="Trazado 247067" d="M675.021,549.956s15.755-12.413,28.784-.564l-5.245.69,7.825,2.048a33.709,33.709,0,0,1,2.957,4.21c1.139,1.912,2.194,3.7,3.166,5.381l-5.235,1.086,8.024,3.772c8.223,14.491,9.6,18.9,9.6,18.9a75.658,75.658,0,0,1-15.6-1.651l-4.628-12.047-.94,10.636a49.145,49.145,0,0,1-15.6-7.586l2.048-10.761-6.258,7.042a31.451,31.451,0,0,1-7.533-13.206l3.542-3.406-4.169.856a38.58,38.58,0,0,1-.753-5.38Z" transform="translate(-330.581 -266.802)" fill="#3b5620"/>
      <path id="Trazado_247068" data-name="Trazado 247068" d="M675.021,549.956s15.755-12.413,28.784-.564l-5.245.69,7.825,2.048a33.709,33.709,0,0,1,2.957,4.21c1.139,1.912,2.194,3.7,3.166,5.381l-5.235,1.086,8.024,3.772c8.223,14.491,9.6,18.9,9.6,18.9a75.658,75.658,0,0,1-15.6-1.651l-4.628-12.047-.94,10.636a49.145,49.145,0,0,1-15.6-7.586l2.048-10.761-6.258,7.042a31.451,31.451,0,0,1-7.533-13.206l3.542-3.406-4.169.856a38.58,38.58,0,0,1-.753-5.38Z" transform="translate(-330.581 -266.802)" fill="#fff" opacity="0.3"/>
      <path id="Trazado_247069" data-name="Trazado 247069" d="M604.316,502.52s-2.361,19.914-19.956,20.75l3.218-4.2-6.979,4.085a33.811,33.811,0,0,1-5.067-.888c-2.152-.543-4.158-1.065-6.05-1.557l2.936-4.471-8.337,3.009c-16.059-4.44-20.155-6.572-20.155-6.572a75.929,75.929,0,0,1,12.2-9.863l11.786,5.245-6.854-8.191a49.053,49.053,0,0,1,16.393-5.663l6.164,9.059-.554-9.4a31.419,31.419,0,0,1,14.669,4.012l-.094,4.911,2.351-3.553a38.724,38.724,0,0,1,4.336,3.27Z" transform="translate(-266.323 -242.091)" fill="#3b5620"/>
      <path id="Trazado_247070" data-name="Trazado 247070" d="M604.316,502.52s-2.361,19.914-19.956,20.75l3.218-4.2-6.979,4.085a33.811,33.811,0,0,1-5.067-.888c-2.152-.543-4.158-1.065-6.05-1.557l2.936-4.471-8.337,3.009c-16.059-4.44-20.155-6.572-20.155-6.572a75.929,75.929,0,0,1,12.2-9.863l11.786,5.245-6.854-8.191a49.053,49.053,0,0,1,16.393-5.663l6.164,9.059-.554-9.4a31.419,31.419,0,0,1,14.669,4.012l-.094,4.911,2.351-3.553a38.724,38.724,0,0,1,4.336,3.27Z" transform="translate(-266.323 -242.091)" fill="#fff" opacity="0.5"/>
      <path id="Trazado_247071" data-name="Trazado 247071" d="M587.1,574.813s26.956-37.885,35.6,17.971H619.6s-2.936-25.588-13.206-27.5-19.308,9.529-19.308,9.529Z" transform="translate(-287.482 -275.621)" fill="#3b5620"/>
      <path id="Trazado_247072" data-name="Trazado 247072" d="M685.2,556.516s-26-52.533-34.333,24.919h2.978s2.831-35.482,12.736-38.125S685.2,556.516,685.2,556.516Z" transform="translate(-318.746 -264.273)" fill="#3b5620"/>
      <path id="Trazado_247073" data-name="Trazado 247073" d="M597.151,527.09s39.431-6.081,33.256,49.012H633.5s7.627-54.874-36.339-49.012Z" transform="translate(-292.414 -258.166)" fill="#3b5620"/>
      <path id="Trazado_247074" data-name="Trazado 247074" d="M606.619,614.941l10.448,58.729h33.768l10.448-58.729Z" transform="translate(-297.056 -301.446)" fill="#233313"/>
      <path id="Trazado_247075" data-name="Trazado 247075" d="M606.619,614.941l10.448,58.729h33.768l10.448-58.729Z" transform="translate(-297.056 -301.446)" fill="#fff" opacity="0.5"/>
      <path id="Trazado_247076" data-name="Trazado 247076" d="M366.668,411.778v15.808a11.1,11.1,0,0,0,11.1,11.1H529.011a11.1,11.1,0,0,0,11.1-11.1V411.778Z" transform="translate(-179.431 -201.855)" fill="#3b5620"/>
      <path id="Trazado_247077" data-name="Trazado 247077" d="M529.011,213.165H377.764a11.1,11.1,0,0,0-11.1,11.1V328.125a11.1,11.1,0,0,0,11.1,11.1H529.011a11.1,11.1,0,0,0,11.1-11.1V224.261A11.1,11.1,0,0,0,529.011,213.165Z" transform="translate(-179.431 -104.494)" fill="#3b5620"/>
      <path id="Trazado_247078" data-name="Trazado 247078" d="M529.011,213.165H377.764a11.1,11.1,0,0,0-11.1,11.1V328.125a11.1,11.1,0,0,0,11.1,11.1H529.011a11.1,11.1,0,0,0,11.1-11.1V224.261A11.1,11.1,0,0,0,529.011,213.165Z" transform="translate(-179.431 -104.494)" fill="#fff" opacity="0.8"/>
      <path id="Trazado_247079" data-name="Trazado 247079" d="M497.915,411.6h-2.622v-1.546h7.136V411.6h-2.622v6.645h-1.891Z" transform="translate(-242.483 -201.011)" fill="#233313"/>
      <path id="Trazado_247080" data-name="Trazado 247080" d="M516.513,418.268l-1.578-2.278H513.19v2.278H511.3v-8.191h3.542a4.592,4.592,0,0,1,1.891.366,2.752,2.752,0,0,1,1.233,1.034,3.088,3.088,0,0,1-.011,3.156,2.863,2.863,0,0,1-1.244,1.013l1.839,2.633h-2.037Zm-.481-6.279a1.955,1.955,0,0,0-1.3-.366H513.19v2.852h1.547a1.958,1.958,0,0,0,1.3-.376,1.327,1.327,0,0,0,.449-1.055A1.28,1.28,0,0,0,516.032,411.989Z" transform="translate(-250.33 -201.021)" fill="#233313"/>
      <path id="Trazado_247081" data-name="Trazado 247081" d="M534.508,416.743v1.525h-6.342v-8.191h6.185V411.6h-4.3v1.776h3.8v1.473h-3.8v1.891Z" transform="translate(-258.598 -201.021)" fill="#233313"/>
      <path id="Trazado_247082" data-name="Trazado 247082" d="M551.07,410.077v8.191h-1.557l-4.085-4.974v4.974h-1.87v-8.191h1.567l4.075,4.974v-4.974Z" transform="translate(-266.143 -201.021)" fill="#233313"/>
      <path id="Trazado_247083" data-name="Trazado 247083" d="M562.1,410.077h3.719a5.2,5.2,0,0,1,2.361.512,3.846,3.846,0,0,1,1.588,1.432,4.387,4.387,0,0,1,0,4.3,3.774,3.774,0,0,1-1.588,1.431,5.17,5.17,0,0,1-2.361.512H562.1Zm3.626,6.634a2.766,2.766,0,0,0,1.964-.689,2.7,2.7,0,0,0,0-3.7,2.746,2.746,0,0,0-1.964-.69H564v5.078Z" transform="translate(-275.235 -201.021)" fill="#233313"/>
      <path id="Trazado_247084" data-name="Trazado 247084" d="M419.926,370.646H404.337v7.293h15.589Z" transform="translate(-197.896 -181.692)" fill="#3b5620"/>
      <path id="Trazado_247085" data-name="Trazado 247085" d="M466.8,357.816H451.209V371.66H466.8Z" transform="translate(-220.873 -175.403)" fill="#233313"/>
      <path id="Trazado_247086" data-name="Trazado 247086" d="M513.648,354.106H498.059v15.735h15.589Z" transform="translate(-243.839 -173.584)" fill="#3b5620"/>
      <path id="Trazado_247087" data-name="Trazado 247087" d="M560.52,330.332H544.931v27.855H560.52Z" transform="translate(-266.816 -161.93)" fill="#233313"/>
      <path id="Trazado_247088" data-name="Trazado 247088" d="M607.37,294.282H591.781V340.5H607.37Z" transform="translate(-289.782 -144.258)" fill="#3b5620"/>
      <path id="Trazado_247089" data-name="Trazado 247089" d="M654.221,263.438H638.632v61.947h15.589Z" transform="translate(-312.749 -129.138)" fill="#233313"/>
      <path id="Trazado_247090" data-name="Trazado 247090" d="M492.417,74.591a34.97,34.97,0,0,0-25.243-10.73v21.93a19.343,19.343,0,0,1,14.157,6.164l11.086-11.085V74.591Z" transform="translate(-228.699 -31.305)" fill="#3b5620"/>
      <path id="Trazado_247091" data-name="Trazado 247091" d="M492.417,74.591a34.97,34.97,0,0,0-25.243-10.73v21.93a19.343,19.343,0,0,1,14.157,6.164l11.086-11.085V74.591Z" transform="translate(-228.699 -31.305)" fill="#fff" opacity="0.3"/>
      <path id="Trazado_247092" data-name="Trazado 247092" d="M481.331,85.677l11.086-11.085a34.97,34.97,0,0,0-25.243-10.73V79.523a19.343,19.343,0,0,1,14.157,6.164Z" transform="translate(-228.699 -31.305)" fill="#3b5620"/>
      <path id="Trazado_247093" data-name="Trazado 247093" d="M443.506,104.233a19.388,19.388,0,0,1,4.984,10.124,19.391,19.391,0,0,1-38.282,0,19.415,19.415,0,0,1,19.141-16.289V76.137a35.074,35.074,0,0,0-35.074,35.074c0,1.055.052,2.1.146,3.134-.094,1.034-.146,2.079-.146,3.135a35.074,35.074,0,0,0,70.148,0c0-1.055-.052-2.111-.146-3.145.094-1.034.146-2.069.146-3.124a34.977,34.977,0,0,0-9.832-24.344L443.506,97.953v6.28Z" transform="translate(-192.964 -37.323)" fill="#3b5620"/>
      <path id="Trazado_247094" data-name="Trazado 247094" d="M443.506,104.233a19.388,19.388,0,0,1,4.984,10.124,19.391,19.391,0,0,1-38.282,0,19.415,19.415,0,0,1,19.141-16.289V76.137a35.074,35.074,0,0,0-35.074,35.074c0,1.055.052,2.1.146,3.134-.094,1.034-.146,2.079-.146,3.135a35.074,35.074,0,0,0,70.148,0c0-1.055-.052-2.111-.146-3.145.094-1.034.146-2.069.146-3.124a34.977,34.977,0,0,0-9.832-24.344L443.506,97.953v6.28Z" transform="translate(-192.964 -37.323)" fill="#fff" opacity="0.3"/>
      <path id="Trazado_247095" data-name="Trazado 247095" d="M454.581,86.878,443.5,97.964A19.4,19.4,0,1,1,429.329,91.8V76.137a35.087,35.087,0,1,0,25.243,10.73Z" transform="translate(-192.954 -37.323)" fill="#fff" opacity="0.6"/>
      <path id="Trazado_247096" data-name="Trazado 247096" d="M439.356,146.9v1.933h-7.742V147.3l3.949-3.73a4.087,4.087,0,0,0,.846-1.034,1.9,1.9,0,0,0,.219-.856,1.117,1.117,0,0,0-.418-.941,1.958,1.958,0,0,0-1.222-.334,2.678,2.678,0,0,0-1.212.262,2.363,2.363,0,0,0-.909.763l-1.724-1.108a4.024,4.024,0,0,1,1.651-1.4,5.534,5.534,0,0,1,2.413-.5,4.889,4.889,0,0,1,2,.376,2.994,2.994,0,0,1,1.327,1.055,2.723,2.723,0,0,1,.47,1.6,3.516,3.516,0,0,1-.355,1.567,6.209,6.209,0,0,1-1.359,1.672l-2.351,2.226h4.4Z" transform="translate(-211.037 -67.854)" fill="#233313"/>
      <path id="Trazado_247097" data-name="Trazado 247097" d="M451.239,148.388a4.243,4.243,0,0,1-1.557-1.818,7.438,7.438,0,0,1,0-5.684,4.237,4.237,0,0,1,1.557-1.818,4.412,4.412,0,0,1,4.534,0,4.24,4.24,0,0,1,1.557,1.818,7.437,7.437,0,0,1,0,5.684,4.247,4.247,0,0,1-1.557,1.818,4.415,4.415,0,0,1-4.534,0Zm3.74-2.184a6.069,6.069,0,0,0,0-4.973,1.683,1.683,0,0,0-1.473-.8,1.649,1.649,0,0,0-1.452.8,6.069,6.069,0,0,0,0,4.973,1.673,1.673,0,0,0,1.452.8A1.707,1.707,0,0,0,454.98,146.2Z" transform="translate(-219.848 -67.864)" fill="#233313"/>
      <path id="Trazado_247098" data-name="Trazado 247098" d="M468.95,143.392a3.338,3.338,0,0,1,0-4.117,2.561,2.561,0,0,1,3.668,0,3.376,3.376,0,0,1,0,4.117,2.368,2.368,0,0,1-1.829.773A2.407,2.407,0,0,1,468.95,143.392Zm2.623-.836a2.746,2.746,0,0,0,0-2.424.9.9,0,0,0-.784-.408.87.87,0,0,0-.773.418,2.074,2.074,0,0,0-.293,1.212,2.016,2.016,0,0,0,.293,1.2.893.893,0,0,0,.773.418.914.914,0,0,0,.784-.407Zm5.318-3.918h1.745l-6.99,10.239H469.9Zm-.459,10.009a2.246,2.246,0,0,1-.9-.993,3.611,3.611,0,0,1,0-2.988,2.279,2.279,0,0,1,.9-.982,2.514,2.514,0,0,1,1.306-.345,2.433,2.433,0,0,1,1.839.763,3.335,3.335,0,0,1,0,4.116,2.38,2.38,0,0,1-1.839.763,2.487,2.487,0,0,1-1.306-.345Zm2.089-1.275a2.15,2.15,0,0,0,.282-1.2,2.188,2.188,0,0,0-.282-1.212.94.94,0,0,0-1.556-.01,2.656,2.656,0,0,0,0,2.424.908.908,0,0,0,.773.408.9.9,0,0,0,.784-.418Z" transform="translate(-229.222 -67.894)" fill="#233313"/>
      <path id="Trazado_247099" data-name="Trazado 247099" d="M487.665,292.219a.789.789,0,0,1-.784-.784v-12.35a5.084,5.084,0,0,0-1.484-3.594L463.686,253.78a6.65,6.65,0,0,1-1.943-4.7v-11.89a.784.784,0,1,1,1.567,0v11.89a5.083,5.083,0,0,0,1.484,3.594L486.5,274.384a6.606,6.606,0,0,1,1.943,4.7v12.35A.789.789,0,0,1,487.665,292.219Z" transform="translate(-226.037 -115.887)" fill="#233313"/>
      <path id="Trazado_247100" data-name="Trazado 247100" d="M599.967,126.024H598.3v2.152h-2.309v-2.152H590.47v-1.6l4.827-6.5h2.487l-4.472,6.154h2.748v-1.912H598.3v1.912h1.672v1.943Z" transform="translate(-289.139 -57.808)" fill="#233313"/>
      <path id="Trazado_247101" data-name="Trazado 247101" d="M616.717,122.628a2.858,2.858,0,0,1,1.034,2.309,3.188,3.188,0,0,1-.471,1.7,3.317,3.317,0,0,1-1.421,1.233,5.5,5.5,0,0,1-2.361.459,8.177,8.177,0,0,1-2.131-.282,5.357,5.357,0,0,1-1.776-.815l.941-1.818a4.3,4.3,0,0,0,1.348.68,5.23,5.23,0,0,0,1.567.24,2.375,2.375,0,0,0,1.4-.355,1.194,1.194,0,0,0-.021-1.974,3.734,3.734,0,0,0-1.85-.334h-2.622l.523-5.767h6.248v1.9h-4.273l-.157,1.943h.836a4.931,4.931,0,0,1,3.2.867Z" transform="translate(-298.513 -57.798)" fill="#233313"/>
      <path id="Trazado_247102" data-name="Trazado 247102" d="M627.558,122.569a3.337,3.337,0,0,1,0-4.116,2.561,2.561,0,0,1,3.667,0,3.376,3.376,0,0,1,0,4.116,2.366,2.366,0,0,1-1.829.773A2.4,2.4,0,0,1,627.558,122.569Zm2.622-.836a2.743,2.743,0,0,0,0-2.424.9.9,0,0,0-.784-.407.869.869,0,0,0-.773.418,2.074,2.074,0,0,0-.293,1.212,2.018,2.018,0,0,0,.293,1.2.894.894,0,0,0,.773.418.912.912,0,0,0,.784-.408Zm5.318-3.918h1.745l-6.99,10.239h-1.745Zm-.459,10.009a2.246,2.246,0,0,1-.9-.993,3.608,3.608,0,0,1,0-2.988,2.279,2.279,0,0,1,.9-.982,2.513,2.513,0,0,1,1.306-.345,2.432,2.432,0,0,1,1.839.763,3.336,3.336,0,0,1,0,4.117,2.381,2.381,0,0,1-1.839.763,2.487,2.487,0,0,1-1.306-.345Zm2.089-1.274a2.149,2.149,0,0,0,.282-1.2,2.186,2.186,0,0,0-.282-1.212.94.94,0,0,0-1.556-.011,2.656,2.656,0,0,0,0,2.424.907.907,0,0,0,.773.407.9.9,0,0,0,.784-.418Z" transform="translate(-306.972 -57.687)" fill="#233313"/>
      <path id="Trazado_247103" data-name="Trazado 247103" d="M612.056,112.341,598.473,104.5a19.4,19.4,0,0,1-36.349-5.924,19.408,19.408,0,0,1,9.842-13.864V78.447l-7.825-13.562a35.071,35.071,0,0,0-17.94,30.6c0,1.076.053,2.131.146,3.186-.094,1.013-.146,2.048-.146,3.082A35.077,35.077,0,0,0,612.045,118.6v-6.269Z" transform="translate(-267.439 -31.807)" fill="#233313"/>
      <path id="Trazado_247104" data-name="Trazado 247104" d="M581.3,114.911a19.419,19.419,0,0,1-9.309-36.464l-7.826-13.562a35.075,35.075,0,1,0,47.9,47.445l-13.583-7.836a19.411,19.411,0,0,1-17.2,10.406Z" transform="translate(-267.449 -31.807)" fill="#fff" opacity="0.6"/>
      <path id="Trazado_247105" data-name="Trazado 247105" d="M612.056,112.341,598.473,104.5a19.4,19.4,0,0,1-36.349-5.924,19.408,19.408,0,0,1,9.842-13.864V78.447l-7.825-13.562a35.071,35.071,0,0,0-17.94,30.6c0,1.076.053,2.131.146,3.186-.094,1.013-.146,2.048-.146,3.082A35.077,35.077,0,0,0,612.045,118.6v-6.269Z" transform="translate(-267.439 -31.807)" fill="#fff" opacity="0.6"/>
      <path id="Trazado_247106" data-name="Trazado 247106" d="M623.951,98.276l13.583,7.836a34.884,34.884,0,0,0,4.3-16.852c0-1.076-.052-2.131-.146-3.187.094-1.013.146-2.048.146-3.082a35.072,35.072,0,0,0-52.209-30.6v6.269l7.826,13.562a19.41,19.41,0,0,1,28.46,13.948A19.48,19.48,0,0,1,623.962,92v6.269Z" transform="translate(-288.727 -23.489)" fill="#233313"/>
      <path id="Trazado_247107" data-name="Trazado 247107" d="M623.951,98.276l13.583,7.836a34.884,34.884,0,0,0,4.3-16.852c0-1.076-.052-2.131-.146-3.187.094-1.013.146-2.048.146-3.082a35.072,35.072,0,0,0-52.209-30.6v6.269l7.826,13.562a19.41,19.41,0,0,1,28.46,13.948A19.48,19.48,0,0,1,623.962,92v6.269Z" transform="translate(-288.727 -23.489)" fill="#fff" opacity="0.4"/>
      <path id="Trazado_247108" data-name="Trazado 247108" d="M606.744,47.916a34.916,34.916,0,0,0-17.135,4.472l7.825,13.562a19.414,19.414,0,0,1,26.507,26.058l13.583,7.836a35.088,35.088,0,0,0-30.769-51.927Z" transform="translate(-288.717 -23.489)" fill="#233313"/>
      <path id="Trazado_247109" data-name="Trazado 247109" d="M559.446,270.6a.789.789,0,0,1-.784-.784V260.6a6.669,6.669,0,0,1,1.943-4.7l21.711-21.711a5.041,5.041,0,0,0,1.483-3.594V217.658a.784.784,0,0,1,1.567,0v12.935a6.669,6.669,0,0,1-1.943,4.7l-21.711,21.711a5.041,5.041,0,0,0-1.484,3.594v9.215A.789.789,0,0,1,559.446,270.6Z" transform="translate(-273.547 -106.312)" fill="#233313"/>
      <path id="Trazado_247110" data-name="Trazado 247110" d="M761.647,400.878A3.154,3.154,0,0,1,762.921,402a3.007,3.007,0,0,1,.47,1.672,3.154,3.154,0,0,1-.512,1.8,3.252,3.252,0,0,1-1.4,1.191,4.475,4.475,0,0,1-1.964.418,4.346,4.346,0,0,1-3.365-1.317A5.372,5.372,0,0,1,754.939,402a6.336,6.336,0,0,1,.658-2.988,4.525,4.525,0,0,1,1.839-1.891,5.6,5.6,0,0,1,2.727-.647,6.984,6.984,0,0,1,1.568.177,4.236,4.236,0,0,1,1.285.523l-.877,1.745a3.348,3.348,0,0,0-1.912-.512,2.752,2.752,0,0,0-2.058.763,3.133,3.133,0,0,0-.815,2.2,3.425,3.425,0,0,1,2.529-.909,4.076,4.076,0,0,1,1.787.4Zm-1.034,4.023a1.53,1.53,0,0,0,0-2.226,1.829,1.829,0,0,0-1.264-.418,1.9,1.9,0,0,0-1.275.428,1.4,1.4,0,0,0-.5,1.107,1.381,1.381,0,0,0,.481,1.1,1.935,1.935,0,0,0,1.316.428,1.808,1.808,0,0,0,1.233-.407Z" transform="translate(-369.763 -194.35)" fill="#233313"/>
      <path id="Trazado_247111" data-name="Trazado 247111" d="M775.321,406.477a4.241,4.241,0,0,1-1.556-1.818,7.438,7.438,0,0,1,0-5.684,4.238,4.238,0,0,1,1.556-1.818,4.412,4.412,0,0,1,4.535,0,4.243,4.243,0,0,1,1.557,1.818,7.444,7.444,0,0,1,0,5.684,4.246,4.246,0,0,1-1.557,1.818,4.412,4.412,0,0,1-4.535,0Zm3.74-2.183a6.065,6.065,0,0,0,0-4.974,1.682,1.682,0,0,0-1.473-.8,1.649,1.649,0,0,0-1.452.8,6.071,6.071,0,0,0,0,4.974,1.674,1.674,0,0,0,1.452.8A1.707,1.707,0,0,0,779.061,404.293Z" transform="translate(-378.714 -194.38)" fill="#233313"/>
      <path id="Trazado_247112" data-name="Trazado 247112" d="M793.052,401.481a3.338,3.338,0,0,1,0-4.117,2.562,2.562,0,0,1,3.668,0,3.376,3.376,0,0,1,0,4.117,2.368,2.368,0,0,1-1.829.773A2.406,2.406,0,0,1,793.052,401.481Zm2.623-.836a2.745,2.745,0,0,0,0-2.424.9.9,0,0,0-.784-.408.87.87,0,0,0-.773.418,2.079,2.079,0,0,0-.293,1.212,2.018,2.018,0,0,0,.293,1.2.893.893,0,0,0,.773.418.913.913,0,0,0,.784-.407Zm5.318-3.918h1.745l-6.99,10.239H794Zm-.459,10.009a2.246,2.246,0,0,1-.9-.993,3.611,3.611,0,0,1,0-2.988,2.279,2.279,0,0,1,.9-.982,2.514,2.514,0,0,1,1.306-.345,2.432,2.432,0,0,1,1.839.763,3.336,3.336,0,0,1,0,4.117,2.382,2.382,0,0,1-1.839.763,2.487,2.487,0,0,1-1.306-.345Zm2.09-1.274a2.156,2.156,0,0,0,.282-1.2,2.194,2.194,0,0,0-.282-1.212.94.94,0,0,0-1.557-.01,2.657,2.657,0,0,0,0,2.424.941.941,0,0,0,1.557-.011Z" transform="translate(-388.098 -194.411)" fill="#233313"/>
      <path id="Trazado_247113" data-name="Trazado 247113" d="M727.374,353.88l13.583,7.836a19.4,19.4,0,0,1,36.349,5.924,19.408,19.408,0,0,1-9.842,13.865v6.269l7.825,13.562a35.07,35.07,0,0,0,17.939-30.6c0-1.076-.052-2.131-.146-3.187.094-1.024.146-2.048.146-3.082a35.077,35.077,0,0,0-65.844-16.842v6.269Z" transform="translate(-356.25 -161.468)" fill="#3b5620"/>
      <path id="Trazado_247114" data-name="Trazado 247114" d="M728.619,381.166l-13.582-7.836a34.887,34.887,0,0,0-4.3,16.853c0,1.076.053,2.131.146,3.187-.094,1.013-.146,2.048-.146,3.082a35.072,35.072,0,0,0,52.209,30.6v-6.268l-7.826-13.562a19.409,19.409,0,0,1-28.461-13.959,19.481,19.481,0,0,1,1.954-5.83v-6.269Z" transform="translate(-348.092 -183.008)" fill="#3b5620"/>
      <path id="Trazado_247115" data-name="Trazado 247115" d="M727.374,353.88l13.583,7.836a19.4,19.4,0,0,1,36.349,5.924,19.408,19.408,0,0,1-9.842,13.865v6.269l7.825,13.562a35.07,35.07,0,0,0,17.939-30.6c0-1.076-.052-2.131-.146-3.187.094-1.024.146-2.048.146-3.082a35.077,35.077,0,0,0-65.844-16.842v6.269Z" transform="translate(-356.25 -161.468)" fill="#fff" opacity="0.3"/>
      <path id="Trazado_247116" data-name="Trazado 247116" d="M728.619,381.166l-13.582-7.836a34.887,34.887,0,0,0-4.3,16.853c0,1.076.053,2.131.146,3.187-.094,1.013-.146,2.048-.146,3.082a35.072,35.072,0,0,0,52.209,30.6v-6.268l-7.826-13.562a19.409,19.409,0,0,1-28.461-13.959,19.481,19.481,0,0,1,1.954-5.83v-6.269Z" transform="translate(-348.092 -183.008)" fill="#fff" opacity="0.3"/>
      <path id="Trazado_247117" data-name="Trazado 247117" d="M758.164,345.041a19.419,19.419,0,0,1,9.309,36.464l7.825,13.562a35.074,35.074,0,1,0-47.9-47.445l13.583,7.836a19.411,19.411,0,0,1,17.2-10.407Z" transform="translate(-356.26 -161.468)" fill="#3b5620"/>
      <path id="Trazado_247118" data-name="Trazado 247118" d="M745.817,425.257a34.919,34.919,0,0,0,17.135-4.471l-7.825-13.562a19.415,19.415,0,0,1-26.507-26.058l-13.582-7.836a35.088,35.088,0,0,0,30.77,51.927Z" transform="translate(-348.092 -183.008)" fill="#fff" opacity="0.6"/>
      <path id="Trazado_247119" data-name="Trazado 247119" d="M652.49,405.591H620.508a6.65,6.65,0,0,1-4.7-1.943l-8.975-8.975a.783.783,0,0,1,1.107-1.107l8.975,8.975a5.085,5.085,0,0,0,3.594,1.484H652.49a.784.784,0,1,1,0,1.567Z" transform="translate(-297.049 -192.815)" fill="#233313"/>
      <path id="Trazado_247120" data-name="Trazado 247120" d="M270.062,182.481c7.46-2.685,6.1-15.171,3.929-24.542-1.128-4.837,5.088-8.328.742-15.422-4.064-6.812-27.938-13.446-28.554-1.128-8.39,2.413-8.609,9.957-7.794,21.972,0,0-11.7,34.729,31.668,19.12Z" transform="translate(-115.841 -65.933)" fill="#2e353a"/>
      <path id="Trazado_247121" data-name="Trazado 247121" d="M348.8,266.694l5-15.8.3-3.124a2.922,2.922,0,0,1,.125-.585l1.829-5.694a2.786,2.786,0,0,1,5.3-.021l1.2,3.657a2.79,2.79,0,0,1-.418,2.539l-3.928,5.245-3.532,16.853Z" transform="translate(-170.671 -117.432)" fill="#b97964"/>
      <path id="Trazado_247122" data-name="Trazado 247122" d="M317.764,226.3s4.033,5.088,6.666,15.975,4.294,18.953,6.1,19.13,1.274-4.21,1.274-4.21l6.666,3.156s-2.278,11.931-8.6,11.931c-9.131,0-11.169-10.772-12.109-15.62C316.311,249.214,313.2,233.668,317.764,226.3Z" transform="translate(-154.285 -110.934)" fill="#3b5620"/>
      <path id="Trazado_247123" data-name="Trazado 247123" d="M317.765,259.2c.6,3.051,1.619,8.442,4.576,12.026.178-26.3-3.751-36.338-5.788-39.755C313.846,239.448,316.469,252.54,317.765,259.2Z" transform="translate(-154.286 -113.465)" opacity="0.2"/>
      <path id="Trazado_247124" data-name="Trazado 247124" d="M294.642,395.689l32.253,162.875-7.721,2.111s-19.736-47.455-26.486-76c-.815-3.458-1.452-6.645-1.829-9.424a36.214,36.214,0,0,0-3.322-11.065c-.867-1.8-1.891-3.98-2.978-6.519a162.6,162.6,0,0,1-8.515-25.462s-11.67-17.553-9.894-34.395l28.492-2.111Z" transform="translate(-130.067 -193.968)" fill="#b97964"/>
      <path id="Trazado_247125" data-name="Trazado 247125" d="M264.178,432.254l-.2,146.723H255.15S243.908,520.123,245.1,496c.011-.24.021-.47.042-.7a43.9,43.9,0,0,0-1.985-15.912c-.522-1.641-1.055-3.5-1.577-5.558a121.005,121.005,0,0,1-3.678-28.241V427.333l26.287,4.911Z" transform="translate(-116.309 -209.48)" fill="#b97964"/>
      <path id="Trazado_247126" data-name="Trazado 247126" d="M276.882,719.007l-9.2.2a.858.858,0,0,0-.825.679l-1.766,8.693a1.423,1.423,0,0,0,1.4,1.713c3.834-.136,7.241-.407,12.015-.491,5.631-.1,4.221.6,10.845.575,3.991-.021,4.639-4.566,2.946-4.764-7.763-.836-10.04-3.156-13.081-5.872A3.4,3.4,0,0,0,276.882,719.007Z" transform="translate(-129.62 -352.456)" fill="#233313"/>
      <path id="Trazado_247127" data-name="Trazado 247127" d="M376.634,711.017l-9.038,1.777a.847.847,0,0,0-.689.815l-.241,8.86a1.425,1.425,0,0,0,1.38,1.473,1.478,1.478,0,0,0,.3-.021c3.751-.794,7.063-1.651,11.754-2.56,5.538-1.076,4.253-.136,10.783-1.306,3.929-.71,3.782-5.307,2.079-5.2-7.794.522-10.438-1.379-13.9-3.531a3.464,3.464,0,0,0-2.413-.324Z" transform="translate(-179.43 -348.49)" fill="#233313"/>
      <path id="Trazado_247128" data-name="Trazado 247128" d="M265.009,497.352l.021-15.38L239.7,485.984a118.494,118.494,0,0,0,2.685,14.4,108.987,108.987,0,0,0,22.62-3.04Z" transform="translate(-117.193 -236.264)" opacity="0.1"/>
      <path id="Trazado_247129" data-name="Trazado 247129" d="M316.663,484.6,292.58,487.97c1.233,3.719,2.5,7.126,3.719,10.156,3,.021,10.709-.23,22.474-2.831l-2.121-10.7Z" transform="translate(-143.113 -237.55)" opacity="0.1"/>
      <path id="Trazado_247130" data-name="Trazado 247130" d="M236.478,385.222s-4.911,18.023,0,57.1l56.869-6.791-12.4-58.739L267.6,367.9l-16.978,6.792-14.137,10.531Z" transform="translate(-114.542 -180.345)" fill="#233313"/>
      <path id="Trazado_247131" data-name="Trazado 247131" d="M293.449,429.424s-5.819,13.05-4.012,39.943l4.315-.512a152.341,152.341,0,0,1-.314-39.431Z" transform="translate(-141.402 -210.505)" opacity="0.5"/>
      <path id="Trazado_247132" data-name="Trazado 247132" d="M263.961,307.46l3.908,12.674c4.054-.658,8.463-1.421,13.29-2.32,0,0-8.076-30.54-5.621-49.493s-1.055-42.472-1.055-42.472-20.008-2.455-47.382,3.866c0,0,13.342,35.45,11.232,55.458s-9.477,38.616-9.477,38.616,8.233.909,32.232-2.6l2.873-13.718Z" transform="translate(-111.014 -110.482)" fill="#3b5620"/>
      <path id="Trazado_247133" data-name="Trazado 247133" d="M285.93,335.393c-.136-1.766-.22-3.51-.272-5.245-12.559,3.834-31.156,4.242-36.621,4.273-.042.721-.094,1.421-.156,2.111-.073.742-.167,1.483-.262,2.215,18.943.585,31.073-1.672,37.3-3.354Z" transform="translate(-121.563 -161.84)" fill="#233313"/>
      <path id="Trazado_247134" data-name="Trazado 247134" d="M296.743,336.6c.125,1.849-1.672,3.469-4,3.615s-4.326-1.223-4.451-3.061,1.672-3.469,4-3.615S296.618,334.761,296.743,336.6Z" transform="translate(-141.007 -163.496)" fill="#233313"/>
      <path id="Trazado_247135" data-name="Trazado 247135" d="M296.743,336.6c.125,1.849-1.672,3.469-4,3.615s-4.326-1.223-4.451-3.061,1.672-3.469,4-3.615S296.618,334.761,296.743,336.6Z" transform="translate(-141.007 -163.496)" fill="#fff" opacity="0.6"/>
      <path id="Trazado_247136" data-name="Trazado 247136" d="M269.565,335.221l.47,6.9h1.755l-.47-7.481Z" transform="translate(-131.831 -164.04)" fill="#3b5620"/>
      <path id="Trazado_247137" data-name="Trazado 247137" d="M313.4,330.159l.23,7.2h1.755l-.23-7.784Z" transform="translate(-153.32 -161.558)" fill="#3b5620"/>
      <path id="Trazado_247138" data-name="Trazado 247138" d="M261.347,222.081s-11.995-2.925-10.709,10.177c0,0,1.525-4.68,7.721-1.755l-1.4,3.74a28.734,28.734,0,0,1,12.663,3.4s4.775-3.281,5.245-6.792l-2.7-2.225s0-3.4,5.266-.47c0,0-3.51-11-16.09-6.081Z" transform="translate(-122.505 -108.239)" fill="#3b5620"/>
      <path id="Trazado_247139" data-name="Trazado 247139" d="M261.347,222.081s-11.995-2.925-10.709,10.177c0,0,1.525-4.68,7.721-1.755l-1.4,3.74a28.734,28.734,0,0,1,12.663,3.4s4.775-3.281,5.245-6.792l-2.7-2.225s0-3.4,5.266-.47c0,0-3.51-11-16.09-6.081Z" transform="translate(-122.505 -108.239)" fill="#fff" opacity="0.6"/>
      <path id="Trazado_247140" data-name="Trazado 247140" d="M232.613,247.75c1.515,4.66,3.385,10.887,5.015,17.595-.23-14.157-2.873-19.8-2.873-19.8Z" transform="translate(-113.717 -120.367)" opacity="0.2"/>
      <path id="Trazado_247141" data-name="Trazado 247141" d="M272.825,237.881c5.067-.386,3.26-8.212,1.954-12.3-4.273.156-9.278.512-14.847,1.233,1.954,3.281,7.387,11.493,12.9,11.075Z" transform="translate(-127.109 -110.582)" fill="#b97964"/>
      <path id="Trazado_247142" data-name="Trazado 247142" d="M217.7,233.864s-5.381,3.51-8.661,22.119.773,29.286,10.761,26.674c1.118-.293,4.451-1.285,4.451-1.285V272.01s-3.281,1.285-5.151-.941c-1.713-2.027-.428-9.183,3.751-21.45C224.186,245.691,224.019,237.249,217.7,233.864Z" transform="translate(-101.612 -114.641)" fill="#3b5620"/>
      <path id="Trazado_247143" data-name="Trazado 247143" d="M288.89,266.686,269.509,263.5s-4.189,12.1-2.967,31.752l19.047-2.236s-.878-9.309,3.312-26.329Z" transform="translate(-130.239 -129.169)" fill="#233313"/>
      <path id="Trazado_247144" data-name="Trazado 247144" d="M288.89,266.686,269.509,263.5s-4.189,12.1-2.967,31.752l19.047-2.236s-.878-9.309,3.312-26.329Z" transform="translate(-130.239 -129.169)" fill="#fff" opacity="0.7"/>
      <path id="Trazado_247145" data-name="Trazado 247145" d="M269.9,293.056s-1.891-22.171,7.23-31.135l19.715,3.595s-10.469,14.585-7.094,28.366l-19.851-.815Z" transform="translate(-131.916 -128.395)" fill="#233313"/>
      <path id="Trazado_247146" data-name="Trazado 247146" d="M269.9,293.056s-1.891-22.171,7.23-31.135l19.715,3.595s-10.469,14.585-7.094,28.366l-19.851-.815Z" transform="translate(-131.916 -128.395)" fill="#fff" opacity="0.8"/>
      <path id="Trazado_247147" data-name="Trazado 247147" d="M276.1,313.68l-.05.813,12.619.772.049-.814Z" transform="translate(-135.011 -153.767)" fill="#233313"/>
      <path id="Trazado_247148" data-name="Trazado 247148" d="M276.336,304.93l-.066.812,12.621,1.027.066-.812Z" transform="translate(-135.118 -149.478)" fill="#233313"/>
      <path id="Trazado_247149" data-name="Trazado 247149" d="M277.051,296.11l-.082.811,12.952,1.313.082-.811Z" transform="translate(-135.46 -145.154)" fill="#233313"/>
      <path id="Trazado_247150" data-name="Trazado 247150" d="M278.456,287.326l-.1.809,13.453,1.635.1-.809Z" transform="translate(-136.141 -140.848)" fill="#233313"/>
      <path id="Trazado_247151" data-name="Trazado 247151" d="M284.137,270.149l-.13.8,14.2,2.3.13-.8Z" transform="translate(-138.91 -132.428)" fill="#233313"/>
      <path id="Trazado_247152" data-name="Trazado 247152" d="M280.689,278.666l-.114.807,13.945,1.977.114-.807Z" transform="translate(-137.228 -136.603)" fill="#233313"/>
      <path id="Trazado_247153" data-name="Trazado 247153" d="M236.644,302.569l12.4-3.04,2.863-4.388a2.251,2.251,0,0,1,1.316-.951l3.876-1.024a2.218,2.218,0,0,1,1.86.334,2.271,2.271,0,0,1,.888,2.455l-1.421,5.13a2.241,2.241,0,0,1-1.442,1.525l-7.011,2.424-14.617,5.444,1.285-7.9Z" transform="translate(-115.063 -143.674)" fill="#b97964"/>
      <path id="Trazado_247154" data-name="Trazado 247154" d="M233.289,307.091v5.151h2.34l-2.34,1.87v5.851l4.681-2V307.091Z" transform="translate(-114.048 -150.537)" fill="#3b5620"/>
      <path id="Trazado_247155" data-name="Trazado 247155" d="M233.289,307.091v5.151h2.34l-2.34,1.87v5.851l4.681-2V307.091Z" transform="translate(-114.048 -150.537)" fill="#fff" opacity="0.6"/>
      <path id="Trazado_247156" data-name="Trazado 247156" d="M341.685,288.255l4.556,2.413,1.1-2.069.554,2.936,5.172,2.748.428-5.067-9.612-5.1Z" transform="translate(-167.184 -139.275)" fill="#3b5620"/>
      <path id="Trazado_247157" data-name="Trazado 247157" d="M341.685,288.255l4.556,2.413,1.1-2.069.554,2.936,5.172,2.748.428-5.067-9.612-5.1Z" transform="translate(-167.184 -139.275)" fill="#fff" opacity="0.6"/>
      <path id="Trazado_247158" data-name="Trazado 247158" d="M261.162,211.471l.836.742,10.814,8.055,2.351-.428.136-9.174c-3.312-1.755-4.388-6-3.688-9.382l-9.446-7.3c1.139,4.848,1.818,13.52-1,17.469Z" transform="translate(-127.712 -95.09)" fill="#b97964"/>
      <path id="Trazado_247159" data-name="Trazado 247159" d="M272.6,205.526a10.268,10.268,0,0,1-.042-4.221l-9.445-7.3c.251,1.076.481,2.34.658,3.709A13.609,13.609,0,0,0,272.6,205.526Z" transform="translate(-128.666 -95.1)" opacity="0.1"/>
      <path id="Trazado_247160" data-name="Trazado 247160" d="M258.246,160.876c.679,8.6.784,12.266,5.214,16.6,6.666,6.52,17.093,3.824,18.995-4.817,1.713-7.773.314-20.5-8.181-23.832a11.789,11.789,0,0,0-16.027,12.047Z" transform="translate(-126.258 -72.558)" fill="#b97964"/>
      <path id="Trazado_247161" data-name="Trazado 247161" d="M258.678,147.55c11.179,3.667-9.654,19.841-9.414,29.307C244.761,165.751,246.391,143.527,258.678,147.55Z" transform="translate(-120.756 -72.094)" fill="#2e353a"/>
      <path id="Trazado_247162" data-name="Trazado 247162" d="M257.533,175.557s3.876,8.129,1.818,15.265c-2.633,9.079,2.925,14.188,2.925,14.188a9.588,9.588,0,0,1-8.129-8.515c-.867-7.637-2.434-17.323-2.434-17.323l5.819-3.6Z" transform="translate(-123.08 -86.059)" fill="#2e353a"/>
      <path id="Trazado_247163" data-name="Trazado 247163" d="M293.4,180.578a20.264,20.264,0,0,0,2.863,4.91,3.324,3.324,0,0,1-2.769.575Z" transform="translate(-143.515 -88.52)" fill="#a24e3f"/>
      <path id="Trazado_247164" data-name="Trazado 247164" d="M284.6,197.166a7.908,7.908,0,0,0,1.306-.115.226.226,0,0,0,.188-.262.241.241,0,0,0-.261-.2,6.2,6.2,0,0,1-5.36-1.494.229.229,0,0,0-.334.314,6.42,6.42,0,0,0,4.472,1.755Z" transform="translate(-136.982 -95.6)" fill="#2e353a"/>
      <path id="Trazado_247165" data-name="Trazado 247165" d="M260.32,143.258c-3.458,6.331,6.52,2.727,14.554,5.349,7.46,2.413,11.232,7.251,10.406.23-1-8.661-19.538-15.557-24.971-5.579Z" transform="translate(-126.954 -67.812)" fill="#2e353a"/>
      <path id="Trazado_247166" data-name="Trazado 247166" d="M275.373,171.195a.484.484,0,0,0,.314-.2,3.625,3.625,0,0,1,2.831-1.693.465.465,0,0,0,0-.919,4.531,4.531,0,0,0-3.594,2.069.452.452,0,0,0,.125.627.44.44,0,0,0,.334.115Z" transform="translate(-134.421 -82.542)" fill="#2e353a"/>
      <path id="Trazado_247167" data-name="Trazado 247167" d="M299.233,169.1a.457.457,0,0,0,.24-.8,4.55,4.55,0,0,0-4.064-.961.477.477,0,0,0-.3.575.451.451,0,0,0,.564.3,3.6,3.6,0,0,1,3.218.794A.412.412,0,0,0,299.233,169.1Z" transform="translate(-144.343 -81.96)" fill="#2e353a"/>
      <path id="Trazado_247168" data-name="Trazado 247168" d="M281.611,179.085c.052.679.459,1.2.909,1.17s.763-.606.7-1.3-.46-1.2-.9-1.17S281.558,178.4,281.611,179.085Z" transform="translate(-137.733 -87.152)" fill="#2e353a"/>
      <path id="Trazado_247169" data-name="Trazado 247169" d="M296.713,177.917c.053.679.46,1.2.9,1.171s.763-.606.71-1.3-.459-1.2-.9-1.17S296.65,177.227,296.713,177.917Z" transform="translate(-145.135 -86.58)" fill="#2e353a"/>
      <path id="Trazado_247170" data-name="Trazado 247170" d="M297.745,176.152l1.6-.6S298.6,176.894,297.745,176.152Z" transform="translate(-145.645 -86.059)" fill="#2e353a"/>
      <path id="Trazado_247171" data-name="Trazado 247171" d="M282.64,177.32l1.6-.6S283.5,178.062,282.64,177.32Z" transform="translate(-138.24 -86.631)" fill="#2e353a"/>
    </g>
  </g>
</svg>
