<svg xmlns="http://www.w3.org/2000/svg" xmlns:xlink="http://www.w3.org/1999/xlink" width="395.402" height="235.364" viewBox="0 0 395.402 235.364">
  <defs>
    <clipPath id="clip-path">
      <rect id="Rectángulo_347652" data-name="Rectángulo 347652" width="395.402" height="235.364" fill="#fff"/>
    </clipPath>
  </defs>
  <g id="Grupo_1066766" data-name="Grupo 1066766" transform="translate(-265 -2829.818)">
    <g id="recurso" transform="translate(265 2829.818)" clip-path="url(#clip-path)">
      <path id="Trazado_248113" data-name="Trazado 248113" d="M27.636,234.591s-41.763-11.774-22.613-65.686S60.6,138.251,50.076,91.1C36.2,28.925,94.973-13.355,159.592,3.865s47.3,36.361,123.24,17.086c92.575-23.5,100.385,74.266,78.914,106.742s58.611,37.157,25.533,106.9Z" transform="translate(0.001 0.002)" fill="#f5efc4"/>
      <path id="Trazado_248114" data-name="Trazado 248114" d="M1146.18,350.993s10.7-21.818,16.687-19.881S1146.18,350.993,1146.18,350.993Z" transform="translate(-826.617 -238.707)" fill="#839571"/>
      <path id="Trazado_248115" data-name="Trazado 248115" d="M1118.58,383.558s25.633-25.125,35.593-20.543-6.072,9.5-12.187,10.833S1118.58,383.558,1118.58,383.558Z" transform="translate(-806.712 -261.401)" fill="#839571"/>
      <path id="Trazado_248116" data-name="Trazado 248116" d="M1159.472,618.979c9.156-6.015.457-21.943.457-21.943s-21.359-5.75-22.876-8.963,19.221,1.351,19.221,1.351c-1.5-6.7-14.877-20.627-14.877-20.627s-20.172,7.772-20.852,4.286,18.215-5.971,18.215-5.971c-3.942-5.663-13.191-9.123-13.191-9.123-14.336-3.416-17.98,15.168-17.98,15.168a35.146,35.146,0,0,1-16.656.823,25.418,25.418,0,0,0-4.723-.667l.56,1.712c.5-.011,1,0,1.48.03h.031c.3.031.733.076,1.263.135h0c1.2.187,2.069.294,2.688.337h.006c3.728.514,8.657,1.4,10.029,2.617a3.56,3.56,0,0,1,.666-.623c-.212.2-.435.406-.666.623-5.32,4.989-1.561,19.987,2.788,27.6s5.49,3.3,7.784-2.32-1.709-14.509-1.135-17.712,3.343.295,4.709,5.875-3.187,10.086-1.14,19.153,20.78,10.345,20.78,10.345c-3.875-5.454-4.1-17.437-2.138-18.542s7.031,15.083,8.481,17.389,7.918,5.055,17.074-.959Z" transform="translate(-783.367 -402.115)" fill="#839571"/>
      <path id="Trazado_248117" data-name="Trazado 248117" d="M254.041,425.133s-13.5-27.517-21.044-25.076S254.041,425.133,254.041,425.133Z" transform="translate(-167.12 -288.408)" fill="#afc797"/>
      <path id="Trazado_248118" data-name="Trazado 248118" d="M220.055,466.2s-32.329-31.689-44.892-25.911,7.658,11.976,15.37,13.664S220.055,466.2,220.055,466.2Z" transform="translate(-123.429 -317.025)" fill="#afc797"/>
      <path id="Trazado_248119" data-name="Trazado 248119" d="M127.938,568.841c.166-9.629,16.086-10.651,16.086-10.651s14.307,13.166,17.406,12.784S151.4,557.33,151.4,557.33c5.678-2.032,22.312,1.359,22.312,1.359s3.706,18.637,6.615,17.5-4.122-16.335-4.122-16.335c6.059.268,12.976,5.513,12.976,5.513,9.273,9.044-2.82,20.484-2.82,20.484a30.894,30.894,0,0,0,7.214,12.758,22.381,22.381,0,0,1,2.716,3.2l-1.536.388q-.343-.571-.718-1.087s0,0,0-.006l-.011-.015c-.166-.211-.4-.51-.694-.874a0,0,0,0,0,0,0c-.7-.8-1.189-1.4-1.514-1.838l0,0c-2.133-2.529-20.771,4.332-28.472,4.677s-5.031-2.525-1.934-6.872,11.582-5.549,13.691-7.479-1.79-2.345-6.577-.737-6,7.105-13.692,9.847-17.448-10.575-17.448-10.575c5.872.316,14.877-5.154,14.779-7.125s-14.509,1.865-16.9,1.871-7.476-3.506-7.31-13.135Z" transform="translate(-92.265 -401.475)" fill="#839571"/>
      <path id="Trazado_248120" data-name="Trazado 248120" d="M402.859,422.862H289.176a4.478,4.478,0,0,1-4.472-4.483V266.5a4.477,4.477,0,0,1,4.639-4.48l117.985,5.441v150.92a4.477,4.477,0,0,1-4.472,4.483Z" transform="translate(-205.326 -188.963)" fill="#3b5620"/>
      <path id="Trazado_248121" data-name="Trazado 248121" d="M729,422.862H842.681a4.478,4.478,0,0,0,4.472-4.483V266.5a4.476,4.476,0,0,0-4.639-4.48l-117.987,5.441v150.92A4.477,4.477,0,0,0,729,422.862Z" transform="translate(-522.524 -188.963)" fill="#3b5620"/>
      <path id="Trazado_248122" data-name="Trazado 248122" d="M303.915,285.656l-3.686,2.995a2.251,2.251,0,0,0-.824,1.747V437.641a2.207,2.207,0,0,0,2.181,2.231h9.178a2.209,2.209,0,0,0,2.176-2.366l-9.023-151.851Z" transform="translate(-215.929 -206.013)" fill="#bac4b1"/>
      <path id="Trazado_248123" data-name="Trazado 248123" d="M1110.925,285.656l3.686,2.995a2.25,2.25,0,0,1,.825,1.747V437.641a2.207,2.207,0,0,1-2.18,2.231h-9.178a2.21,2.21,0,0,1-2.177-2.366l9.025-151.851Z" transform="translate(-794.679 -206.013)" fill="#bac4b1"/>
      <path id="Trazado_248124" data-name="Trazado 248124" d="M421.883,436.943H314.924a4.27,4.27,0,0,1-4.207-4.332V285.872a4.266,4.266,0,0,1,4.365-4.329l93.362,3.609a18.639,18.639,0,0,1,17.648,18.867V432.612a4.27,4.27,0,0,1-4.207,4.332Z" transform="translate(-224.087 -203.044)" fill="#fff7f0"/>
      <path id="Trazado_248125" data-name="Trazado 248125" d="M728.388,436.911H836.04a3.92,3.92,0,0,0,3.862-3.975V285.471a3.914,3.914,0,0,0-4.007-3.972l-95.7,3.7a16.546,16.546,0,0,0-15.666,16.749v130.99A3.919,3.919,0,0,0,728.388,436.911Z" transform="translate(-522.524 -203.012)" fill="#fff7f0"/>
      <path id="Trazado_248126" data-name="Trazado 248126" d="M724.069,386.3h-.58v95.281h.58Z" transform="translate(-521.775 -278.595)" fill="#f9dec7"/>
      <path id="Trazado_248127" data-name="Trazado 248127" d="M907.52,334.3a.766.766,0,0,1,.131.821.007.007,0,0,1,0,0,5.1,5.1,0,0,1-1.625,1.756c-.1.077-.184.149-.26.214l-.059.052c-.015.013-.031.027-.045.041-.713.649-.448.8-1.73,2.116-1.462,1.5-2.461,1.521-2.745,1.38-.24-.119.254-.917.8-1.813l.08-.131c.073-.119.146-.24.218-.359.642-1.078.483-1.588.344-3.2-.112-1.312-1.987-7.335-1.987-7.335l2.784-.459s.8,4.791,1.722,5.535c.492.4,1.043.406,1.515.7l.1.063a3.646,3.646,0,0,1,.757.616Z" transform="translate(-649.536 -236.105)" fill="#ffb27d"/>
      <path id="Trazado_248128" data-name="Trazado 248128" d="M908.761,350.419a.765.765,0,0,1,.131.821.007.007,0,0,1,0,0A5.9,5.9,0,0,1,907.263,353c-.1.079-.181.152-.258.219l-.059.052c-.015.013-.031.027-.045.041-.713.649-.448.8-1.73,2.116-1.462,1.5-2.461,1.521-2.745,1.38-.24-.119.254-.917.8-1.813a6.172,6.172,0,0,0,2.6-1.889c.882-1.109,1.475-2.539,2.075-3.364l.1.063a3.651,3.651,0,0,1,.757.616Z" transform="translate(-650.777 -252.229)" fill="#253415"/>
      <path id="Trazado_248129" data-name="Trazado 248129" d="M823.325,329.872c-.178.858-1.4.7-2.766.362s-1.043.056-2.988-.173-2.529-.959-2.586-1.248c-.052-.257.911-.341,1.943-.452l.39-.044a8.427,8.427,0,0,0,3.086-1.492,12.325,12.325,0,0,0,2.518-2.949l2.668.23s-1.416,2.118-1.963,3.039a3.227,3.227,0,0,0-.275,1.817,3.436,3.436,0,0,1-.027.913Z" transform="translate(-587.759 -233.577)" fill="#ffb27d"/>
      <path id="Trazado_248130" data-name="Trazado 248130" d="M820.559,341.836c-1.365-.344-1.043.056-2.988-.173s-2.529-.959-2.586-1.248c-.052-.257.911-.341,1.943-.452l.01.02a5.488,5.488,0,0,0,2.78.886c1.32.041,2.721-.327,3.633-.306a3.436,3.436,0,0,1-.027.913c-.178.858-1.4.7-2.766.362Z" transform="translate(-587.759 -245.179)" fill="#253415"/>
      <path id="Trazado_248131" data-name="Trazado 248131" d="M891.072,288s-.185.121-.463.274a6.186,6.186,0,0,1-1.216.528,4.9,4.9,0,0,1-1.251.163,4.766,4.766,0,0,1-.48-.017l-3.2-8.79-.577-1.59-.615-1.691-.215-.588-1.041-2.863s2.544-6.522,5.138-3.412a6.283,6.283,0,0,1,.889,1.606c.19.461.369.982.541,1.545.128.423.253.871.372,1.336.323,1.267.609,2.665.859,4.068.834,4.688,1.257,9.43,1.257,9.43Z" transform="translate(-636.105 -194.126)" fill="#253415"/>
      <path id="Trazado_248132" data-name="Trazado 248132" d="M876.422,254.575l-12.959.545a27.331,27.331,0,0,1-6.862-2.9l-.379-.188a7.638,7.638,0,0,0-1.1-.5c-.986-.205-1.493,1.4-2.328,3.377-.171.4-.354.819-.557,1.24a6.385,6.385,0,0,1-.789,1.137c-.069.083-.139.167-.215.254-2.867,3.35-10.25,9.588-10.25,9.588s-.087,0-.227,0a7.49,7.49,0,0,1-1.94-.234,2.959,2.959,0,0,1-.629-.326,1.443,1.443,0,0,1-.3-.268s8.835-17.274,13.41-21.98c.066-.07.132-.135.2-.2a3.719,3.719,0,0,1,1.311-.927c1.559-.49,11.64.056,11.64.056l.321-.524.538-.038.093-.007.449-.032.619-.044.921-.065,2.491-.177.4-.028,4.607-.327s.211.475.494,1.26c.111.306.233.66.358,1.052.823,2.572,1.887,7.2.68,10.25Z" transform="translate(-604.28 -174.54)" fill="#2f4419"/>
      <path id="Trazado_248133" data-name="Trazado 248133" d="M942.592,148.39c-2.3-1.966-3.944-2.452-4.173-5.563-.124-1.689-2.391-7.275-6.227-6.788a5.7,5.7,0,0,1-.966.056,3.583,3.583,0,0,0-1.949.49c-1.846,1.081-5.247,11.078-2.954,14.591a2.543,2.543,0,0,0,1.828,1.175l.3.167c.413.232.865.486,1.345.758,2.71,1.528,6.258,3.548,8.075,4.569l.31.176.528.293c.214.117.337.181.347.181a7.734,7.734,0,0,0,1.125.316,4.287,4.287,0,0,0,3.085-.286,4.9,4.9,0,0,0,.977-.847c1.845-2.063,2.331-5.9-1.648-9.292Z" transform="translate(-667.503 -98.089)" fill="#253415"/>
      <path id="Trazado_248134" data-name="Trazado 248134" d="M944.627,174.059a4.765,4.765,0,0,0,2.967.112,5.284,5.284,0,0,0,1.977-2.335c-.511-.027-1.07-.479-1.482-3.416l-.219.077-3.673,1.292s.257,1.177.421,2.3C944.756,173.027,944.827,173.927,944.627,174.059Z" transform="translate(-680.948 -121.463)" fill="#ffb27d"/>
      <path id="Trazado_248135" data-name="Trazado 248135" d="M944.193,169.98s.157.826.373,2a4.277,4.277,0,0,0,3.3-3.3l-3.673,1.292Z" transform="translate(-680.944 -121.656)" fill="#ed975d"/>
      <path id="Trazado_248136" data-name="Trazado 248136" d="M935.666,154.724s5.017-.638,4.572-3.756-.1-5.3-3.32-5.025-3.673,1.553-3.777,2.63,1.209,6.236,2.525,6.15Z" transform="translate(-672.971 -105.236)" fill="#ffb27d"/>
      <path id="Trazado_248137" data-name="Trazado 248137" d="M933.852,146.14s3.189,2.787,5.37,3.026,3.012-.456,3.012-.456a8.509,8.509,0,0,1-2.04-2.807,1.535,1.535,0,0,0-1.258-.914c-1.557-.146-4.511-.227-5.083,1.15Z" transform="translate(-673.487 -104.509)" fill="#253415"/>
      <path id="Trazado_248138" data-name="Trazado 248138" d="M934.326,146.907a7.894,7.894,0,0,0-1.424,1.8,6.06,6.06,0,0,0-.187,3.224s-1.65-3.263-.691-4.837a1.337,1.337,0,0,1,2.3-.185Z" transform="translate(-671.953 -105.509)" fill="#253415"/>
      <path id="Trazado_248139" data-name="Trazado 248139" d="M930.408,189.938c.08,10.147-.015,8.026,1.088,9a4.26,4.26,0,0,0,2.005.449c3.11.229,8.582-.246,8.794-.819.732-1.984.229-2.606.85-5.648.064-.323.144-.674.237-1.054.514-2.088,1.005-2.8-.743-6.17-1.585-3.055-3.235-5.538-3.387-5.45-4.255,2.486-4.582.369-4.582.369s-4.3,4.377-4.264,9.325Z" transform="translate(-671.002 -129.989)" fill="#bac4b1"/>
      <path id="Trazado_248140" data-name="Trazado 248140" d="M897.4,298.325s-.185.121-.463.274a6.187,6.187,0,0,1-1.216.528,4.9,4.9,0,0,1-1.251.163,4.77,4.77,0,0,1-.48-.017l-3.2-8.79.937-1.589,2.4-4.068.786-1.335c.128.423.253.871.372,1.335.323,1.267.609,2.665.859,4.068.834,4.688,1.257,9.43,1.257,9.43Z" transform="translate(-642.436 -204.451)" fill="#2f4419"/>
      <path id="Trazado_248141" data-name="Trazado 248141" d="M923.7,181.57s-4.366.709-4.891,2.582S915.2,197.04,915.2,197.04s2.213.414,3.245-.6,3.63-9.474,3.63-9.474l1.632-5.392Z" transform="translate(-660.033 -130.947)" fill="#bac4b1"/>
      <path id="Trazado_248142" data-name="Trazado 248142" d="M941.507,221.217c3.11.229,8.582-.246,8.794-.819.732-1.984.229-2.606.849-5.647l-1.47-4.236s.215,4.707-1.181,5.935-5.7,2.349-6.38,3.379A3.812,3.812,0,0,0,941.507,221.217Z" transform="translate(-679.008 -151.821)" fill="#839571"/>
      <path id="Trazado_248143" data-name="Trazado 248143" d="M940.26,240.6s-3.064-.7-3.561-.437a7.239,7.239,0,0,0-1.869,1.6c-.154.344,1.105-.254,1.514-.361a3.625,3.625,0,0,1,1.3.295,4.336,4.336,0,0,0,2.334.251Z" transform="translate(-674.183 -173.162)" fill="#ffb27d"/>
      <path id="Trazado_248144" data-name="Trazado 248144" d="M955.224,180.24s4.12.282,5.532,2.283c1.988,2.815,5.887,14.78,3.593,16.357-2.584,1.775-11.705.386-11.705.386a3.715,3.715,0,0,1,.134-2.106c.428-.684,7.306-1.745,7.625-2.06s-3.92-6.211-3.913-7.163-1.265-7.7-1.265-7.7Z" transform="translate(-686.97 -129.988)" fill="#bac4b1"/>
      <path id="Trazado_248145" data-name="Trazado 248145" d="M937.886,243.386a5.888,5.888,0,0,1-.861.923.639.639,0,0,1-.348.072l.44-.776Z" transform="translate(-675.525 -175.528)" fill="#ffb27d"/>
      <path id="Trazado_248146" data-name="Trazado 248146" d="M936.715,240.329l-1.876.894a.334.334,0,0,0,.309.122,4.417,4.417,0,0,0,.813-.217l.755-.8Z" transform="translate(-674.199 -173.324)" fill="#ffb27d"/>
      <path id="Trazado_248147" data-name="Trazado 248147" d="M889.8,220.868l-14.79-.1-4.371-11.1,14.768.105Z" transform="translate(-627.896 -151.211)" fill="#3b5620"/>
      <path id="Trazado_248148" data-name="Trazado 248148" d="M885.705,247.914l19.53.137,0,.431-19.356-.136Z" transform="translate(-638.764 -178.794)" fill="#839571"/>
      <path id="Trazado_248149" data-name="Trazado 248149" d="M899.777,227.9a.512.512,0,0,1,.507-.7,1.011,1.011,0,0,1,.9.71.512.512,0,0,1-.507.7A1.011,1.011,0,0,1,899.777,227.9Z" transform="translate(-648.893 -163.858)" fill="#fff"/>
      <path id="Trazado_248150" data-name="Trazado 248150" d="M418.62,786.064H339.672a9.948,9.948,0,0,1-9.943-9.943v-.414a9.948,9.948,0,0,1,9.943-9.943H418.62a9.948,9.948,0,0,1,9.943,9.943v.414A9.948,9.948,0,0,1,418.62,786.064Z" transform="translate(-237.798 -552.263)" fill="#2f4419"/>
      <path id="Trazado_248151" data-name="Trazado 248151" d="M525.69,774.395l-.07,4.437a7.108,7.108,0,0,0,6.993,7.22l52.471.838.014-.883a9.045,9.045,0,0,1-4.875-8.173l.025-1.56a9.045,9.045,0,0,1,5.134-8.013v-.018L532.91,767.4a7.107,7.107,0,0,0-7.22,6.993Z" transform="translate(-379.072 -553.445)" fill="#f9dec7"/>
      <path id="Trazado_248152" data-name="Trazado 248152" d="M584.388,786.032H529.109c-3.565,0-6.358-4.461-6.358-10.156s2.793-10.156,6.358-10.156h55.279a.831.831,0,1,1,0,1.663H529.109c-2.546,0-4.7,3.89-4.7,8.5s2.151,8.5,4.7,8.5h55.279a.831.831,0,1,1,0,1.662Z" transform="translate(-377.004 -552.231)" fill="#1b3770"/>
      <path id="Trazado_248153" data-name="Trazado 248153" d="M601.943,785.114H554.405v.13h47.538Z" transform="translate(-399.833 -566.218)" fill="#e8c2a3"/>
      <path id="Trazado_248154" data-name="Trazado 248154" d="M675.806,791.762H657.76v.119h18.046Z" transform="translate(-474.372 -571.013)" fill="#e8c2a3"/>
      <path id="Trazado_248155" data-name="Trazado 248155" d="M641.054,814.375H609.573v.119h31.481Z" transform="translate(-439.62 -587.321)" fill="#e8c2a3"/>
      <path id="Trazado_248156" data-name="Trazado 248156" d="M556.556,785.351a5.163,5.163,0,0,1,2.73,4.467,24.544,24.544,0,0,1,0,5.281l-2.945-1.4-2.973,1.4v-5.387s-.108-4.361-4.166-4.361h7.354Z" transform="translate(-396.08 -566.389)" fill="#99967d"/>
      <path id="Trazado_248157" data-name="Trazado 248157" d="M386.6,726.239H325.852a6.511,6.511,0,0,1-6.508-6.508v-2.264a6.511,6.511,0,0,1,6.508-6.508H386.6a6.511,6.511,0,0,1,6.508,6.508v2.264A6.511,6.511,0,0,1,386.6,726.239Z" transform="translate(-230.309 -512.738)" fill="#233313"/>
      <path id="Trazado_248158" data-name="Trazado 248158" d="M465.585,717.442l-.053,3.335a5.326,5.326,0,0,0,5.219,5.427l39.16.631.011-.664a6.8,6.8,0,0,1-3.638-6.143l.018-1.172a6.8,6.8,0,0,1,3.831-6.024v-.014l-39.159-.63a5.321,5.321,0,0,0-5.388,5.257Z" transform="translate(-335.737 -513.623)" fill="#f9dec7"/>
      <path id="Trazado_248159" data-name="Trazado 248159" d="M509.4,726.193H468.143c-2.661,0-4.745-3.353-4.745-7.635s2.084-7.634,4.745-7.634H509.4a.625.625,0,0,1,0,1.25H468.143c-1.9,0-3.5,2.924-3.5,6.385s1.605,6.385,3.5,6.385H509.4a.625.625,0,0,1,0,1.25Z" transform="translate(-334.199 -512.713)" fill="#2f4419"/>
      <path id="Trazado_248160" data-name="Trazado 248160" d="M537.214,725.514H507.426v.09h29.788Z" transform="translate(-365.952 -523.235)" fill="#e8c2a3"/>
      <path id="Trazado_248161" data-name="Trazado 248161" d="M577.624,730.5H564.155v.09h13.469Z" transform="translate(-406.864 -526.831)" fill="#e8c2a3"/>
      <path id="Trazado_248162" data-name="Trazado 248162" d="M551.685,747.5H528.19v.09h23.495Z" transform="translate(-380.927 -539.089)" fill="#e8c2a3"/>
      <path id="Trazado_248163" data-name="Trazado 248163" d="M1084.225,665.26a15.07,15.07,0,0,1,.694,2.871,10.385,10.385,0,0,1-.881,2.83c-.34.467-.507-1.9-.778-2.261s-.056.893-.245,1.008-.586-.92-.755-1.285.415-1.712.418-2.651,1.547-.514,1.547-.514Z" transform="translate(-780.496 -479.711)" fill="#ffb27d"/>
      <path id="Trazado_248164" data-name="Trazado 248164" d="M1025.342,589.6a3.32,3.32,0,0,1,5-3.124c.047.028.092.057.139.087,3.44,2.216,10.868,12.553,11.378,13.588s2.021,9.274,2.021,9.274-1.865.682-2.738-.025c0,0-3.022-7.813-3.471-8.2s-12.092-6.926-12.192-9.376c-.025-.647-.078-1.427-.14-2.221Z" transform="translate(-739.462 -422.614)" fill="#253415"/>
      <path id="Trazado_248165" data-name="Trazado 248165" d="M917.771,588.48l1.013,2.908,14.628-5.094-1.013-2.908Z" transform="translate(-661.89 -420.734)" fill="#3b5620"/>
      <path id="Trazado_248166" data-name="Trazado 248166" d="M907.467,604.313l3.908.27-1.013-2.907Z" transform="translate(-654.458 -433.924)" fill="#f9ddbf"/>
      <path id="Trazado_248167" data-name="Trazado 248167" d="M971.245,585.482l-1.013-2.908.736-.256a1.021,1.021,0,0,1,1.3.628l.32.919a1.085,1.085,0,0,1-.667,1.38l-.676.236Z" transform="translate(-699.724 -419.922)" fill="#f9ddbf"/>
      <path id="Trazado_248168" data-name="Trazado 248168" d="M1086.909,814.387s1.388,1.267,1.118,2.167-1.525,1.5-1.693,2.6-.848,1.7-1.455,1.7h-2.905s-.446-.774.636-1.007,1.492-1.526,1.425-2.725a20.871,20.871,0,0,1,.1-2.8l2.3-.533.474.6Z" transform="translate(-780.246 -586.896)" fill="#1f4075"/>
      <path id="Trazado_248169" data-name="Trazado 248169" d="M1017.748,824.8s.248,2.883-.362,3.182l-7.8-.015s0-.9,1.252-1.1,3.454-.934,3.825-2.567S1017.748,824.8,1017.748,824.8Z" transform="translate(-728.109 -594.036)" fill="#1f4075"/>
      <path id="Trazado_248170" data-name="Trazado 248170" d="M1015.24,679.848s.41,5.052.9,11.125c.655,8.25,1.447,18.383,1.525,20.3.134,3.333.675,8.665.675,8.665a4.308,4.308,0,0,0,3.859.733,85.981,85.981,0,0,0,2.95-15.665c.008-.132.02-.265.031-.4.608-8.2,1.556-25.463,1.556-25.463l-11.49.7Z" transform="translate(-732.184 -489.797)" fill="#3b5620"/>
      <path id="Trazado_248171" data-name="Trazado 248171" d="M1015.24,679.848s.41,5.052.9,11.125l9.008,14.036c.011-.132.022-.265.031-.4.611-8.2,1.559-25.463,1.559-25.463l-11.492.7Z" transform="translate(-732.184 -489.797)" fill="#233313"/>
      <path id="Trazado_248172" data-name="Trazado 248172" d="M1021.97,675.281s7.413,18.3,12.287,26.9,6.4,11,6.4,11,2.791-1.1,3.045-1.849c0,0-1.863-16.6-5.127-20.647-1.846-2.286-4.012-9.148-4.112-11.548s-.661-7.149-.661-7.149l-11.83,3.3Z" transform="translate(-737.037 -484.629)" fill="#3b5620"/>
      <path id="Trazado_248173" data-name="Trazado 248173" d="M1024.526,569.775s-4.968,2.519-7.876,1.678a6.845,6.845,0,0,1,1.927-1.6c-.112-.579-.2-1.08-.254-1.507a13.974,13.974,0,0,1-.153-1.542l1.9-1.56,1.807-1.492a7.4,7.4,0,0,0,2.643,6.027Z" transform="translate(-733.201 -406.57)" fill="#ffb27d"/>
      <path id="Trazado_248174" data-name="Trazado 248174" d="M1022.978,606.745a20.451,20.451,0,0,1-6.125,2.638c-2.621.621-5.841.438-6.917.6a.447.447,0,0,1-.315-.08c-.084-.044-.56-3.24-1.037-7.274-.02-.163-.042-.326-.05-.49l-.008-.055c-.184-1.577-.346-3.234-.488-4.9-.114-1.292-.209-2.57-.276-3.77-.084-1.5-.117-2.881-.084-4.016.017-.518.047-.984.092-1.39a9.878,9.878,0,0,1,2.468-5.294l.875-1a4.821,4.821,0,0,0,3.039-.775c1.073-.707,2.236-1.543,2.453-1.416,1.642.9,2.978,3.307,3.934,6.385a35.13,35.13,0,0,1,1.235,5.91c.089.66.162,1.338.218,2.014.011.125.02.25.031.372.128,1.845.337,3.573.572,5.118.315,2.082.672,3.826.923,5.055.128.625.226,1.109.282,1.455.053.3-.555.736-.823.9Z" transform="translate(-726.72 -417.945)" fill="#2f4419"/>
      <path id="Trazado_248175" data-name="Trazado 248175" d="M1025.885,569.179a6.658,6.658,0,0,1-3.622,3.029,13.929,13.929,0,0,1-.153-1.542l1.9-1.56Z" transform="translate(-737.138 -410.435)" fill="#afc797"/>
      <path id="Trazado_248176" data-name="Trazado 248176" d="M1016.343,554.265s4.8.688,5.191-2.262,1.271-4.847-1.776-5.412-3.792.486-4.165,1.439S1015.105,554.01,1016.343,554.265Z" transform="translate(-732.255 -394.084)" fill="#ffb27d"/>
      <path id="Trazado_248177" data-name="Trazado 248177" d="M1018.969,541.5c.042-.05.142-.093.365-.11a.909.909,0,0,0-.418-.109,1.13,1.13,0,0,0-.767-.977.671.671,0,0,1,.335.476c-.63-.622-1.963-1.059-5.624-.7-4.823.477-3.17,3.538-2.537,3.895s2.186-.685,3.354-.616,1.422,1.75,1.823,1.973.234-.182.767-.435.6.633.454,1.212.605,1.326.605,1.326l.728-.814c.728-.814,1.361-4.217,1.009-4.932-.031-.063-.061-.128-.095-.191Z" transform="translate(-728.066 -389.406)" fill="#2c3a64"/>
      <path id="Trazado_248178" data-name="Trazado 248178" d="M1016.1,615.244a21.716,21.716,0,0,1-8.333,3.753c-.084-1.5-.117-2.881-.084-4.016Z" transform="translate(-726.727 -443.52)" fill="#253415"/>
      <path id="Trazado_248179" data-name="Trazado 248179" d="M937.318,594.856c-.063-.069-.889-2.827-2.315-2.626-.931.131-2.453.67-2.049,1.9.159.482,2.995,2.143,2.995,2.143Z" transform="translate(-672.791 -427.104)" fill="#ffb27d"/>
      <path id="Trazado_248180" data-name="Trazado 248180" d="M970.129,591.044a3.32,3.32,0,0,1-.349,5.886c-.05.022-.1.044-.153.063-3.8,1.524-15.1,1.692-17.667,1.411-2.783-.3-8.731-3.723-8.731-3.723s.524-1.915,1.6-2.216a65.842,65.842,0,0,0,8.7,1.92c1.528.087,12.648-5.851,14.7-4.514.544.354,1.21.763,1.893,1.171Z" transform="translate(-680.251 -425.27)" fill="#2f4419"/>
      <path id="Trazado_248181" data-name="Trazado 248181" d="M774.931,723.988l-25.716,1.264V699.536l25.716-1.264Z" transform="translate(-540.328 -503.589)" fill="#f9dec7"/>
      <path id="Trazado_248182" data-name="Trazado 248182" d="M756.145,747.775l7.595-14.067,5.586,7.344,2.789-3.186,5.91,8.835Z" transform="translate(-545.326 -529.145)" fill="#fff7f0"/>
      <path id="Trazado_248183" data-name="Trazado 248183" d="M796.37,720.676a2.088,2.088,0,0,1,1.966-2.063,1.854,1.854,0,0,1,1.966,1.869,2.088,2.088,0,0,1-1.966,2.063A1.854,1.854,0,0,1,796.37,720.676Z" transform="translate(-574.336 -518.257)" fill="#fff7f0"/>
      <path id="Trazado_248184" data-name="Trazado 248184" d="M1019.707,342l-37.048,1.821V306.771l37.048-1.821Z" transform="translate(-708.687 -219.928)" fill="#f9dec7"/>
      <path id="Trazado_248185" data-name="Trazado 248185" d="M992.641,376.264,1003.584,356l8.046,10.58,4.018-4.59,8.515,12.728Z" transform="translate(-715.885 -256.743)" fill="#fff7f0"/>
      <path id="Trazado_248186" data-name="Trazado 248186" d="M1050.59,337.228a3.008,3.008,0,0,1,2.833-2.971,2.671,2.671,0,0,1,2.833,2.693,3.007,3.007,0,0,1-2.833,2.971A2.671,2.671,0,0,1,1050.59,337.228Z" transform="translate(-757.678 -241.061)" fill="#fff7f0"/>
      <path id="Trazado_248187" data-name="Trazado 248187" d="M785.442,532.628l-36.227,1.781V532.3l36.227-1.78Z" transform="translate(-540.328 -382.605)" fill="#3b5620"/>
      <path id="Trazado_248188" data-name="Trazado 248188" d="M768.637,553.637l-19.422.955v-1.056l19.422-.955Z" transform="translate(-540.328 -398.517)" fill="#f9dec7"/>
      <path id="Trazado_248189" data-name="Trazado 248189" d="M762.945,567.234l-13.73.675v-1.056l13.73-.674Z" transform="translate(-540.328 -408.324)" fill="#f9dec7"/>
      <path id="Trazado_248190" data-name="Trazado 248190" d="M821.747,564.343l-13.728.675v-1.056l13.728-.674Z" transform="translate(-582.737 -406.24)" fill="#f9dec7"/>
      <path id="Trazado_248191" data-name="Trazado 248191" d="M881.008,561.049l-16.728.823v-1.056l16.728-.821Z" transform="translate(-623.312 -403.864)" fill="#f9dec7"/>
      <path id="Trazado_248192" data-name="Trazado 248192" d="M761.135,579.885l-11.92.586v-1.054l11.92-.586Z" transform="translate(-540.328 -417.449)" fill="#f9dec7"/>
      <path id="Trazado_248193" data-name="Trazado 248193" d="M812.187,577.377l-11.919.586v-1.055l11.919-.586Z" transform="translate(-577.147 -415.64)" fill="#f9dec7"/>
      <path id="Trazado_248194" data-name="Trazado 248194" d="M863.629,574.516l-14.523.713v-1.055l14.523-.713Z" transform="translate(-612.369 -413.577)" fill="#f9dec7"/>
      <path id="Trazado_248195" data-name="Trazado 248195" d="M785.442,447.22,749.215,449v-2.109l36.227-1.78Z" transform="translate(-540.328 -321.011)" fill="#3b5620"/>
      <path id="Trazado_248196" data-name="Trazado 248196" d="M768.637,468.23l-19.422.955V468.13l19.422-.955Z" transform="translate(-540.328 -336.923)" fill="#f9dec7"/>
      <path id="Trazado_248197" data-name="Trazado 248197" d="M851.821,464.142,832.4,465.1v-1.056l19.421-.955Z" transform="translate(-600.321 -333.974)" fill="#f9dec7"/>
      <path id="Trazado_248198" data-name="Trazado 248198" d="M762.945,481.825l-13.73.674v-1.054l13.73-.675Z" transform="translate(-540.328 -346.727)" fill="#f9dec7"/>
      <path id="Trazado_248199" data-name="Trazado 248199" d="M821.747,478.933l-13.728.674v-1.054l13.728-.676Z" transform="translate(-582.737 -344.641)" fill="#f9dec7"/>
      <path id="Trazado_248200" data-name="Trazado 248200" d="M881.008,475.64l-16.728.821v-1.054l16.728-.823Z" transform="translate(-623.312 -342.267)" fill="#f9dec7"/>
      <path id="Trazado_248201" data-name="Trazado 248201" d="M761.135,494.475l-11.92.586v-1.054l11.92-.587Z" transform="translate(-540.328 -355.85)" fill="#f9dec7"/>
      <path id="Trazado_248202" data-name="Trazado 248202" d="M812.187,491.968l-11.919.585V491.5l11.919-.586Z" transform="translate(-577.147 -354.042)" fill="#f9dec7"/>
      <path id="Trazado_248203" data-name="Trazado 248203" d="M863.629,489.11l-14.523.713v-1.055l14.523-.713Z" transform="translate(-612.369 -351.982)" fill="#f9dec7"/>
      <path id="Trazado_248204" data-name="Trazado 248204" d="M1007.4,459.372l-25.485,1.252v-1.484l25.485-1.253Z" transform="translate(-708.149 -330.225)" fill="#3b5620"/>
      <path id="Trazado_248205" data-name="Trazado 248205" d="M995.574,474.151l-13.66.673v-.743l13.66-.671Z" transform="translate(-708.149 -341.42)" fill="#f9dec7"/>
      <path id="Trazado_248206" data-name="Trazado 248206" d="M1054.092,471.276l-13.661.672v-.743l13.661-.671Z" transform="translate(-750.351 -339.346)" fill="#f9dec7"/>
      <path id="Trazado_248207" data-name="Trazado 248207" d="M991.571,483.715l-9.657.475v-.742l9.657-.475Z" transform="translate(-708.149 -348.317)" fill="#f9dec7"/>
      <path id="Trazado_248208" data-name="Trazado 248208" d="M1032.938,481.682l-9.658.475v-.743l9.658-.475Z" transform="translate(-737.982 -346.85)" fill="#f9dec7"/>
      <path id="Trazado_248209" data-name="Trazado 248209" d="M1074.618,479.364l-11.768.578V479.2l11.768-.578Z" transform="translate(-766.52 -345.179)" fill="#f9dec7"/>
      <path id="Trazado_248210" data-name="Trazado 248210" d="M990.3,492.614l-8.385.413v-.743l8.385-.412Z" transform="translate(-708.149 -354.735)" fill="#f9dec7"/>
      <path id="Trazado_248211" data-name="Trazado 248211" d="M1026.2,490.849l-8.384.411v-.742l8.384-.413Z" transform="translate(-734.044 -353.461)" fill="#f9dec7"/>
      <path id="Trazado_248212" data-name="Trazado 248212" d="M1062.4,488.839l-10.215.5V488.6l10.215-.5Z" transform="translate(-758.825 -352.011)" fill="#f9dec7"/>
      <path id="Trazado_248213" data-name="Trazado 248213" d="M785.442,621.72,749.215,623.5v-2.111l36.227-1.78Z" transform="translate(-540.328 -446.858)" fill="#3b5620"/>
      <path id="Trazado_248214" data-name="Trazado 248214" d="M768.637,642.73l-19.422.955v-1.056l19.422-.955Z" transform="translate(-540.328 -462.771)" fill="#f9dec7"/>
      <path id="Trazado_248215" data-name="Trazado 248215" d="M851.821,638.644,832.4,639.6v-1.056l19.421-.954Z" transform="translate(-600.321 -459.824)" fill="#f9dec7"/>
      <path id="Trazado_248216" data-name="Trazado 248216" d="M762.945,656.326l-13.73.676v-1.056l13.73-.674Z" transform="translate(-540.328 -472.577)" fill="#f9dec7"/>
      <path id="Trazado_248217" data-name="Trazado 248217" d="M821.747,653.436l-13.728.675v-1.056l13.728-.674Z" transform="translate(-582.737 -470.492)" fill="#f9dec7"/>
      <path id="Trazado_248218" data-name="Trazado 248218" d="M881.008,650.142l-16.728.823v-1.056l16.728-.821Z" transform="translate(-623.312 -468.117)" fill="#f9dec7"/>
      <path id="Trazado_248219" data-name="Trazado 248219" d="M761.135,668.978l-11.92.586v-1.055l11.92-.586Z" transform="translate(-540.328 -481.701)" fill="#f9dec7"/>
      <path id="Trazado_248220" data-name="Trazado 248220" d="M812.187,666.47l-11.919.586V666l11.919-.585Z" transform="translate(-577.147 -479.892)" fill="#f9dec7"/>
      <path id="Trazado_248221" data-name="Trazado 248221" d="M863.629,663.609l-14.523.715v-1.056l14.523-.713Z" transform="translate(-612.369 -477.83)" fill="#f9dec7"/>
      <path id="Trazado_248222" data-name="Trazado 248222" d="M893.219,740.4l-27.982,1.376v-2.11l27.982-1.375Z" transform="translate(-624.003 -532.45)" fill="#3b5620"/>
      <path id="Trazado_248223" data-name="Trazado 248223" d="M880.239,760.736l-15,.737v-1.056l15-.737Z" transform="translate(-624.003 -547.876)" fill="#f9dec7"/>
      <path id="Trazado_248224" data-name="Trazado 248224" d="M944.491,757.579l-15,.737V757.26l15-.737Z" transform="translate(-670.341 -545.599)" fill="#f9dec7"/>
      <path id="Trazado_248225" data-name="Trazado 248225" d="M875.841,774.1l-10.6.521v-1.056l10.6-.521Z" transform="translate(-624.003 -557.516)" fill="#f9dec7"/>
      <path id="Trazado_248226" data-name="Trazado 248226" d="M921.264,771.87l-10.6.523v-1.056l10.6-.521Z" transform="translate(-656.761 -555.907)" fill="#f9dec7"/>
      <path id="Trazado_248227" data-name="Trazado 248227" d="M967.035,769.327l-12.922.636v-1.056l12.922-.635Z" transform="translate(-688.099 -554.072)" fill="#f9dec7"/>
      <path id="Trazado_248228" data-name="Trazado 248228" d="M874.444,786.682l-9.207.454V786.08l9.207-.452Z" transform="translate(-624.003 -566.589)" fill="#f9dec7"/>
      <path id="Trazado_248229" data-name="Trazado 248229" d="M913.877,784.744l-9.206.452V784.14l9.206-.452Z" transform="translate(-652.442 -565.19)" fill="#f9dec7"/>
      <path id="Trazado_248230" data-name="Trazado 248230" d="M953.611,782.537l-11.218.552v-1.056l11.218-.55Z" transform="translate(-679.647 -563.6)" fill="#f9dec7"/>
      <path id="Trazado_248231" data-name="Trazado 248231" d="M572.474,375.041l-40.37-1.466V333.2l40.37,1.466Z" transform="translate(-383.75 -240.304)" fill="#f9dec7"/>
      <path id="Trazado_248232" data-name="Trazado 248232" d="M542.977,407.364,554.9,386.3l8.768,12.278,4.378-4.627,9.277,14.662Z" transform="translate(-391.591 -278.595)" fill="#fff7f0"/>
      <path id="Trazado_248233" data-name="Trazado 248233" d="M606.128,368.274a2.955,2.955,0,0,1,3.086-2.974,3.225,3.225,0,0,1,3.086,3.2,2.955,2.955,0,0,1-3.086,2.974A3.225,3.225,0,0,1,606.128,368.274Z" transform="translate(-437.135 -263.45)" fill="#fff7f0"/>
      <path id="Trazado_248234" data-name="Trazado 248234" d="M565.892,531.5l-36.226-1.314v-2.111l36.226,1.316Z" transform="translate(-381.991 -380.843)" fill="#3b5620"/>
      <path id="Trazado_248235" data-name="Trazado 248235" d="M549.087,548.938l-19.421-.7v-1.056l19.421.7Z" transform="translate(-381.991 -394.62)" fill="#f9dec7"/>
      <path id="Trazado_248236" data-name="Trazado 248236" d="M543.394,561.322l-13.728-.5v-1.056l13.728.5Z" transform="translate(-381.991 -403.701)" fill="#f9dec7"/>
      <path id="Trazado_248237" data-name="Trazado 248237" d="M602.2,563.458l-13.729-.5V561.9l13.729.5Z" transform="translate(-424.4 -405.24)" fill="#f9dec7"/>
      <path id="Trazado_248238" data-name="Trazado 248238" d="M661.455,565.611,644.726,565v-1.055l16.729.607Z" transform="translate(-464.972 -406.715)" fill="#f9dec7"/>
      <path id="Trazado_248239" data-name="Trazado 248239" d="M541.584,573.591l-11.918-.434V572.1l11.918.432Z" transform="translate(-381.991 -412.596)" fill="#f9dec7"/>
      <path id="Trazado_248240" data-name="Trazado 248240" d="M592.633,575.444l-11.919-.434v-1.054l11.919.432Z" transform="translate(-418.807 -413.933)" fill="#f9dec7"/>
      <path id="Trazado_248241" data-name="Trazado 248241" d="M644.08,577.31l-14.523-.528v-1.055l14.523.528Z" transform="translate(-454.032 -415.211)" fill="#f9dec7"/>
      <path id="Trazado_248242" data-name="Trazado 248242" d="M565.892,620.592l-36.226-1.314v-2.111l36.226,1.316Z" transform="translate(-381.991 -445.096)" fill="#3b5620"/>
      <path id="Trazado_248243" data-name="Trazado 248243" d="M549.087,638.031l-19.421-.705V636.27l19.421.706Z" transform="translate(-381.991 -458.873)" fill="#f9dec7"/>
      <path id="Trazado_248244" data-name="Trazado 248244" d="M632.272,641.053l-19.421-.707v-1.054l19.421.7Z" transform="translate(-441.984 -461.053)" fill="#f9dec7"/>
      <path id="Trazado_248245" data-name="Trazado 248245" d="M543.394,650.415l-13.728-.5v-1.056l13.728.5Z" transform="translate(-381.991 -467.954)" fill="#f9dec7"/>
      <path id="Trazado_248246" data-name="Trazado 248246" d="M602.2,652.551l-13.729-.5V651l13.729.5Z" transform="translate(-424.4 -469.493)" fill="#f9dec7"/>
      <path id="Trazado_248247" data-name="Trazado 248247" d="M661.455,654.7l-16.729-.608v-1.054l16.729.607Z" transform="translate(-464.972 -470.968)" fill="#f9dec7"/>
      <path id="Trazado_248248" data-name="Trazado 248248" d="M541.584,662.683l-11.918-.434V661.2l11.918.432Z" transform="translate(-381.991 -476.849)" fill="#f9dec7"/>
      <path id="Trazado_248249" data-name="Trazado 248249" d="M592.633,664.536l-11.919-.434v-1.055l11.919.432Z" transform="translate(-418.807 -478.185)" fill="#f9dec7"/>
      <path id="Trazado_248250" data-name="Trazado 248250" d="M644.08,666.4l-14.523-.527v-1.056l14.523.528Z" transform="translate(-454.032 -479.464)" fill="#f9dec7"/>
      <path id="Trazado_248251" data-name="Trazado 248251" d="M381.267,310.32,345.039,309v-2.111l36.228,1.316Z" transform="translate(-248.84 -221.33)" fill="#3b5620"/>
      <path id="Trazado_248252" data-name="Trazado 248252" d="M364.462,327.761l-19.423-.7V326l19.423.7Z" transform="translate(-248.84 -235.11)" fill="#f9dec7"/>
      <path id="Trazado_248253" data-name="Trazado 248253" d="M447.645,330.78l-19.421-.7v-1.056l19.421.7Z" transform="translate(-308.832 -237.286)" fill="#f9dec7"/>
      <path id="Trazado_248254" data-name="Trazado 248254" d="M358.769,340.146l-13.73-.5v-1.054l13.73.5Z" transform="translate(-248.84 -244.191)" fill="#f9dec7"/>
      <path id="Trazado_248255" data-name="Trazado 248255" d="M417.572,342.277l-13.729-.5v-1.056l13.729.5Z" transform="translate(-291.249 -245.727)" fill="#f9dec7"/>
      <path id="Trazado_248256" data-name="Trazado 248256" d="M476.832,344.431l-16.728-.608v-1.054l16.728.608Z" transform="translate(-331.824 -247.202)" fill="#f9dec7"/>
      <path id="Trazado_248257" data-name="Trazado 248257" d="M356.959,352.41l-11.92-.432v-1.056l11.92.434Z" transform="translate(-248.84 -253.082)" fill="#f9dec7"/>
      <path id="Trazado_248258" data-name="Trazado 248258" d="M408.011,354.263l-11.919-.432v-1.056l11.919.434Z" transform="translate(-285.659 -254.419)" fill="#f9dec7"/>
      <path id="Trazado_248259" data-name="Trazado 248259" d="M459.453,356.13,444.93,355.6v-1.056l14.523.528Z" transform="translate(-320.88 -255.697)" fill="#f9dec7"/>
      <path id="Trazado_248260" data-name="Trazado 248260" d="M400.354,164.089l3.179-.756L414,177.521l-3.6.857-2.268-3.175-6.626,1.574-.6,3.855-3.515.835Zm5.817,8.362-3.29-4.587-.875,5.576,4.163-.99Z" transform="translate(-286.593 -117.795)" fill="#afc797"/>
      <path id="Trazado_248261" data-name="Trazado 248261" d="M471.851,113.318a8.186,8.186,0,0,1,9.18-7.459,8.1,8.1,0,0,1,5.945,3.227l-2.348,2.217a5.573,5.573,0,0,0-3.945-2.194,5.078,5.078,0,0,0-1,10.075,5.811,5.811,0,0,0,4.4-1.459l2.005,2.627a8.579,8.579,0,0,1-14.24-7.033Z" transform="translate(-340.261 -76.311)" fill="#afc797"/>
      <path id="Trazado_248262" data-name="Trazado 248262" d="M646.116,113.751l7.383-1.192a5.812,5.812,0,0,1,4.384.737,3.969,3.969,0,0,1,0,6.34c1.953.407,3.262,1.292,3.614,3.473.469,2.908-1.658,4.743-5.247,5.322l-7.564,1.222-2.567-15.9Zm7.671,5.358c1.545-.25,2.44-.907,2.242-2.133-.169-1.045-1.081-1.5-2.559-1.265l-3.453.557.543,3.362Zm1.966,6.256c1.544-.25,2.388-.945,2.19-2.171-.173-1.067-1.074-1.6-2.869-1.308l-4.044.653.565,3.5,4.156-.671Z" transform="translate(-465.974 -81.093)" fill="#afc797"/>
      <path id="Trazado_248263" data-name="Trazado 248263" d="M546.675,192.728a8.266,8.266,0,0,1,9.12-7.584,8.852,8.852,0,0,1,6.118,2.737l-2.452,2.494a5.925,5.925,0,0,0-4.057-1.984,5.1,5.1,0,0,0-.609,10.155,5.654,5.654,0,0,0,3.407-.68l.2-2.293-3.554-.3.26-3.05,6.97.593-.593,6.97a10.451,10.451,0,0,1-7.071,1.962,8.073,8.073,0,0,1-7.731-9.017Z" transform="translate(-394.234 -133.5)" fill="#afc797"/>
      <path id="Trazado_248264" data-name="Trazado 248264" d="M1218.114,232.5a8.775,8.775,0,0,1-4.968.36,8.333,8.333,0,1,1,10.124-6.372,8.135,8.135,0,0,1-2.356,4.229l1.33,1.716-2.724,1.987Zm-2.086-2.817-2.1-2.727,2.73-2.009,2.094,2.888a5.373,5.373,0,0,0,.9-2.116,4.893,4.893,0,0,0-3.725-5.962,4.827,4.827,0,0,0-5.774,3.953,4.893,4.893,0,0,0,3.725,5.962,5.188,5.188,0,0,0,2.161.01Z" transform="translate(-869.995 -156.041)" fill="#afc797"/>
      <path id="Trazado_248265" data-name="Trazado 248265" d="M1118.58,147.244l3.237-.438,8.813,8.814-1.333-9.828,3.466-.469,2.164,15.961-2.986.4-9.106-9.1,1.375,10.146-3.466.469-2.164-15.961Z" transform="translate(-806.712 -104.806)" fill="#afc797"/>
      <path id="Trazado_248266" data-name="Trazado 248266" d="M741.82,182.56l3.776.392,2.191,11.193,4.725-10.522,3.02.315,2.462,11.267,4.446-10.5,3.684.383-7.147,15.567-3.067-.319-2.527-10.858-4.705,10.106-3.067-.319-3.793-16.7Z" transform="translate(-534.993 -131.659)" fill="#afc797"/>
      <path id="Trazado_248267" data-name="Trazado 248267" d="M148.149,809.76a4.541,4.541,0,0,0,.035.574,4.706,4.706,0,0,0,4.676,4.137h66.26a4.712,4.712,0,1,0,0-9.423H152.86A4.711,4.711,0,0,0,148.149,809.76Z" transform="translate(-106.844 -580.595)" fill="#99967d"/>
      <path id="Trazado_248268" data-name="Trazado 248268" d="M164.4,798.249h22.718a.723.723,0,0,0,0-1.446H164.4a.723.723,0,0,0,0,1.446Z" transform="translate(-118.046 -574.648)" fill="#99967d"/>
      <path id="Trazado_248269" data-name="Trazado 248269" d="M170.772,802.843h2.463v-.852h-2.463Z" transform="translate(-123.16 -578.39)" fill="#4f1947"/>
      <path id="Trazado_248270" data-name="Trazado 248270" d="M150.2,830.033a4.714,4.714,0,0,0,4.139,2.458h14.035v-2.458Z" transform="translate(-108.322 -598.614)" fill="#4f1947"/>
      <path id="Trazado_248271" data-name="Trazado 248271" d="M255.293,808.38v2.76a3.33,3.33,0,0,1-3.331,3.331h-69.02a3.33,3.33,0,0,1-3.331-3.331v-2.76a3.331,3.331,0,0,1,3.331-3.332h69.022a3.331,3.331,0,0,1,3.331,3.332Z" transform="translate(-129.534 -580.595)" fill="#3b5620"/>
      <path id="Trazado_248272" data-name="Trazado 248272" d="M255.479,830.033a3.329,3.329,0,0,1-3.214,2.458H183.243a3.328,3.328,0,0,1-3.214-2.458Z" transform="translate(-129.836 -598.614)" fill="#233313"/>
      <path id="Trazado_248273" data-name="Trazado 248273" d="M426.472,809.777a5.238,5.238,0,0,0,1.37,3.638l.056.058a3.344,3.344,0,0,0,2.365,1.032c1.4,0,4.86-2.108,7.007-3.507,1.07-.7,1.811-1.22,1.811-1.22s-.743-.522-1.811-1.22c-2.147-1.4-5.61-3.509-7.007-3.509a3.122,3.122,0,0,0-1.16.224,3.8,3.8,0,0,0-1.6,1.261,5.185,5.185,0,0,0-.959,2.306c0,.01,0,.021,0,.031A5.8,5.8,0,0,0,426.472,809.777Z" transform="translate(-307.568 -580.595)" fill="#839571"/>
      <path id="Trazado_248274" data-name="Trazado 248274" d="M426.472,819.663a5.238,5.238,0,0,0,1.37,3.638l10.623-3.655-11.923-.89A5.8,5.8,0,0,0,426.472,819.663Z" transform="translate(-307.568 -590.481)" fill="#afc797"/>
      <path id="Trazado_248275" data-name="Trazado 248275" d="M430.178,807.115l10.6,2.894-9-4.155A3.794,3.794,0,0,0,430.178,807.115Z" transform="translate(-310.241 -581.176)" fill="#e3f0ff"/>
      <path id="Trazado_248276" data-name="Trazado 248276" d="M462.723,818.853a1.307,1.307,0,0,0,.692,1.22c1.07-.7,1.811-1.22,1.811-1.22s-.743-.523-1.811-1.22A1.306,1.306,0,0,0,462.723,818.853Z" transform="translate(-333.712 -589.671)" fill="#3b5620"/>
      <path id="Trazado_248277" data-name="Trazado 248277" d="M350.665,608.994a1.218,1.218,0,0,0,1.11-.772l28.558-87.735a.576.576,0,0,0-.605-.782,1.218,1.218,0,0,0-1.111.772L350.06,608.211A.576.576,0,0,0,350.665,608.994Z" transform="translate(-252.434 -374.807)" fill="#253415"/>
      <path id="Trazado_248278" data-name="Trazado 248278" d="M268.12,608.515a1.218,1.218,0,0,0,1.111-.772l28.558-87.735a.576.576,0,0,0-.605-.782,1.218,1.218,0,0,0-1.11.772l-28.558,87.735A.576.576,0,0,0,268.12,608.515Z" transform="translate(-192.903 -374.462)" fill="#253415"/>
      <path id="Trazado_248279" data-name="Trazado 248279" d="M357.095,562.081l23.111.135a1.157,1.157,0,0,0,1.049-.729.546.546,0,0,0-.572-.739l-23.111-.135a1.156,1.156,0,0,0-1.049.729A.546.546,0,0,0,357.095,562.081Z" transform="translate(-257.097 -404.311)" fill="#253415"/>
      <path id="Trazado_248280" data-name="Trazado 248280" d="M339.211,617.022l23.111.135a1.157,1.157,0,0,0,1.049-.729.546.546,0,0,0-.572-.739l-23.111-.135a1.156,1.156,0,0,0-1.049.729A.546.546,0,0,0,339.211,617.022Z" transform="translate(-244.199 -443.934)" fill="#253415"/>
      <path id="Trazado_248281" data-name="Trazado 248281" d="M321.986,669.939l23.111.135a1.156,1.156,0,0,0,1.049-.729.546.546,0,0,0-.571-.739l-23.111-.135a1.157,1.157,0,0,0-1.049.729A.546.546,0,0,0,321.986,669.939Z" transform="translate(-231.777 -482.097)" fill="#253415"/>
      <path id="Trazado_248282" data-name="Trazado 248282" d="M302.6,729.509l23.111.135a1.156,1.156,0,0,0,1.049-.729.546.546,0,0,0-.571-.739l-23.111-.135a1.157,1.157,0,0,0-1.049.729A.546.546,0,0,0,302.6,729.509Z" transform="translate(-217.793 -525.058)" fill="#253415"/>
      <path id="Trazado_248283" data-name="Trazado 248283" d="M282.3,791.864l23.111.135a1.157,1.157,0,0,0,1.049-.729.546.546,0,0,0-.572-.739l-23.111-.135a1.156,1.156,0,0,0-1.049.729A.546.546,0,0,0,282.3,791.864Z" transform="translate(-203.156 -570.029)" fill="#253415"/>
      <path id="Trazado_248284" data-name="Trazado 248284" d="M437.184,446.381s.274-.615.451-.906.934-1.143,1.061-.951.643,1.493.369,1.856.018,1-1.342,1.38Z" transform="translate(-315.294 -320.568)" fill="#ffb27d"/>
      <path id="Trazado_248285" data-name="Trazado 248285" d="M382.964,437.34s6.963,5.812,9.677,5.274a53.691,53.691,0,0,0,5.381-1.538l.652,1.667s-2.922,3.964-5.969,3.989a17.36,17.36,0,0,1-8.28-2.061l-1.462-7.331Z" transform="translate(-276.19 -315.406)" fill="#233313"/>
      <path id="Trazado_248286" data-name="Trazado 248286" d="M339.167,654.515s.2,3.26.832,3.307c.084.006,3.2.006,3.2.006l3.978-.022a1.292,1.292,0,0,0-1.189-1.161,5.387,5.387,0,0,1-3.812-2.557c-.742-1.616-3.009.427-3.009.427Z" transform="translate(-244.605 -471.274)" fill="#1c3d72"/>
      <path id="Trazado_248287" data-name="Trazado 248287" d="M338.346,553.915a8.29,8.29,0,0,0,2.153.4,7.9,7.9,0,0,0,2.009-.287,54.949,54.949,0,0,1,1.48-7.052c.657-2.543,1.6-5.811,2.929-9.873a133.805,133.805,0,0,0,4.913-18.414c.006-.032.007-.049.007-.049l-.011-.006-11.342-4.979s1.4,15.471-.386,21.409a25.17,25.17,0,0,0-.649,2.845A114.156,114.156,0,0,0,338.346,553.915Z" transform="translate(-244.012 -370.449)" fill="#2f4419"/>
      <path id="Trazado_248288" data-name="Trazado 248288" d="M348.5,546.982c.657-2.543,1.6-5.811,2.929-9.873a133.795,133.795,0,0,0,4.913-18.414c0-.018,0-.037,0-.055l-11.342-4.979s1.4,15.471-.386,21.409c-.25.83,3.891,11.911,3.891,11.911Z" transform="translate(-248.521 -370.449)" fill="#253415"/>
      <path id="Trazado_248289" data-name="Trazado 248289" d="M370.941,654.515s.2,3.26.833,3.307c.084.006,3.2.006,3.2.006l3.978-.022a1.291,1.291,0,0,0-1.189-1.161,5.387,5.387,0,0,1-3.812-2.557c-.741-1.616-3.009.427-3.009.427Z" transform="translate(-267.52 -471.274)" fill="#1c3d72"/>
      <path id="Trazado_248290" data-name="Trazado 248290" d="M362.818,514.961a161.48,161.48,0,0,1-1.587,22.335c-1.734,12.31-1.147,17.535-1.147,17.535a11.847,11.847,0,0,1-1.673.425,7.58,7.58,0,0,1-2.481-.288s-2.483-12.314-1.771-18.476-3.4-21.143-3.4-21.143l12.059-.39Z" transform="translate(-252.966 -371.385)" fill="#2f4419"/>
      <path id="Trazado_248291" data-name="Trazado 248291" d="M365.159,417.992l2.215,1.452,2.016-.57a4.831,4.831,0,0,0,.472-2.418,15.081,15.081,0,0,0-.079-1.61l-2.987-1.319-1.115-.491c0,.017.087.915.1,1.046a7.62,7.62,0,0,1-.621,3.909Z" transform="translate(-263.35 -297.878)" fill="#ffb27d"/>
      <path id="Trazado_248292" data-name="Trazado 248292" d="M358.031,454.889c-2.757,2.661-13.185,2.213-13.828-.719s.7-24.955,5.409-26.338c.977-.288,6.2,1.4,6.2,1.4a33.037,33.037,0,0,1,1.356,4.872c.1.531.409,6.159.636,11.424.107,2.463.2,4.846.241,6.591a19.037,19.037,0,0,1-.015,2.766Z" transform="translate(-248.128 -308.525)" fill="#3b5620"/>
      <path id="Trazado_248293" data-name="Trazado 248293" d="M367.969,415.393c.607,1.025,2.733,1.921,3.859,2.332a15.076,15.076,0,0,0-.079-1.611l-2.987-1.319c-.66-.008-1.063.139-.792.6Z" transform="translate(-265.316 -299.148)" fill="#30451b"/>
      <path id="Trazado_248294" data-name="Trazado 248294" d="M368.419,398.384s-4.813,1.5-5.7-1.511-2.109-4.846.927-5.933,3.974-.114,4.516.82S369.648,397.915,368.419,398.384Z" transform="translate(-260.86 -281.598)" fill="#ffb27d"/>
      <path id="Trazado_248295" data-name="Trazado 248295" d="M362.551,387.221s-.307,3.5-1.032,3.352-1.522-.478-1.417.579-.7,2.867-1.75,2.863c-2.241-.01-4.677-5.761-4.064-6.851,1.77-3.147,10.82-3.781,8.26.057Z" transform="translate(-255.441 -277.348)" fill="#163560"/>
      <path id="Trazado_248296" data-name="Trazado 248296" d="M368.906,424.365c-.062-.027-3.583-1.605-3.995-1.47s-.925,1.393-.925,1.393l6.2,1.4a3.077,3.077,0,0,0-1.281-1.325Z" transform="translate(-262.504 -304.983)" fill="#233313"/>
      <path id="Trazado_248297" data-name="Trazado 248297" d="M404.426,484.483l-19.735,18.581c-.388.364-.875.48-1.084.258l-.666-.708c-.209-.222-.064-.7.323-1.067L403,482.967c.386-.364.875-.48,1.084-.258l.666.708C404.959,483.638,404.814,484.118,404.426,484.483Z" transform="translate(-276.105 -348.045)" fill="#1f4d84"/>
      <path id="Trazado_248298" data-name="Trazado 248298" d="M393.352,522.842,384.691,531c-.388.364-.875.48-1.084.258l-.666-.708c-.209-.222-.064-.7.323-1.067l8.661-8.154,1.428,1.516Z" transform="translate(-276.105 -375.977)" fill="#99967d"/>
      <path id="Trazado_248299" data-name="Trazado 248299" d="M442.248,412.509a15.469,15.469,0,1,0,25.64-15.545c-.079-.079-.16-.157-.243-.234a15.47,15.47,0,0,0-25.4,15.78Zm4.422-14.278a14.249,14.249,0,1,1,.614,20.14A14.232,14.232,0,0,1,446.67,398.231Z" transform="translate(-318.463 -283.087)" fill="#1f4d84"/>
      <g id="Grupo_1015027" data-name="Grupo 1015027" transform="translate(124.337 110.661)" opacity="0.5">
        <path id="Trazado_248300" data-name="Trazado 248300" d="M470.583,420.92a14.248,14.248,0,1,1-.614-20.139,14.194,14.194,0,0,1,.614,20.139Z" transform="translate(-445.959 -396.91)" fill="#f2fde8"/>
      </g>
      <path id="Trazado_248301" data-name="Trazado 248301" d="M368.4,468.242c-10.875-7.749-9.971-18.09-9.971-18.09,3.975,2.241,7.918,7.2,9.728,11.5.107,2.463.2,4.846.241,6.591Z" transform="translate(-258.486 -324.646)" fill="#233313"/>
      <path id="Trazado_248302" data-name="Trazado 248302" d="M429.375,500.16a2.965,2.965,0,0,0,1.389-.858s.327.023-.054.72c-.032.059-.1.208-.156.314a.067.067,0,0,0,.058.1,7.224,7.224,0,0,1,1.74.037c.118.024.152.306.148.427a1.094,1.094,0,0,1-.229.743,3.813,3.813,0,0,1-1.375.72,4.158,4.158,0,0,1-2.126-.267l-.7-.321.216-1.293.175.036c.278.058.622-.281.911-.352Z" transform="translate(-308.723 -360.093)" fill="#3b5620"/>
      <path id="Trazado_248303" data-name="Trazado 248303" d="M361.272,432.943s-9.772,1.86,2.874,16.01c2.022,2.264,12.949,5.21,12.949,5.21s1.108-.942.549-1.706c0,0-7.524-5.464-9.179-6.331-.744-.39-2.89-8.72-4.1-10.726a5.474,5.474,0,0,0-3.091-2.456Z" transform="translate(-257.949 -312.235)" fill="#3b5620"/>
      <path id="Trazado_248304" data-name="Trazado 248304" d="M438.132,445.715a4.954,4.954,0,0,0,.382-.932,5.133,5.133,0,0,1,.63-1.428c.066-.066.285.02.31.3a1.641,1.641,0,0,1-.157.618,6.949,6.949,0,0,0-.206,1.229c-.152.493-.96.211-.96.211Z" transform="translate(-315.977 -319.729)" fill="#ffb27d"/>
      <path id="Trazado_248305" data-name="Trazado 248305" d="M400.569,840,8.438,839.868a.532.532,0,0,1-.531-.531v-.419a.532.532,0,0,1,.531-.531l392.131.135a.533.533,0,0,1,.533.531v.419A.533.533,0,0,1,400.569,840Z" transform="translate(-5.702 -604.639)" fill="#233313"/>
    </g>
  </g>
</svg>
