<svg xmlns="http://www.w3.org/2000/svg" width="390.985" height="390.773" viewBox="0 0 390.985 390.773">
  <g id="Grupo_1066768" data-name="Grupo 1066768" transform="translate(-255.5 -393.614)">
    <g id="Group_70" data-name="Group 70" transform="translate(255.48 393.604)">
      <path id="Trazado_613773" data-name="Trazado 613773" d="M128.1,22.49H104.647a9.137,9.137,0,0,0-9.137,9.137V55.08a9.137,9.137,0,0,0,9.137,9.137H128.1a9.137,9.137,0,0,0,9.137-9.137V31.627A9.137,9.137,0,0,0,128.1,22.49Z" transform="translate(-9.618 -2.264)" fill="#e0e0e0"/>
      <path id="Trazado_613774" data-name="Trazado 613774" d="M107.889,54.575l1.52-5.674a10.482,10.482,0,1,1,4.173,4.137l-5.7,1.529Zm5.98-3.651.36.216a8.482,8.482,0,1,0-2.914-2.878l.216.36-.845,3.165,3.183-.854Z" transform="translate(-10.864 -3.36)" fill="#fff"/>
      <path id="Trazado_613775" data-name="Trazado 613775" d="M122.955,46a1.757,1.757,0,0,0-1.5-.342c-.387.162-.639.773-.89,1.079a.374.374,0,0,1-.486.108,6.782,6.782,0,0,1-3.39-2.9.419.419,0,0,1,.054-.567,2.266,2.266,0,0,0,.612-1,2.225,2.225,0,0,0-.279-1.187c-.207-.441-.432-1.07-.872-1.313a1.225,1.225,0,0,0-1.3.189,2.644,2.644,0,0,0-.917,2.086,2.752,2.752,0,0,0,.081.665,5.456,5.456,0,0,0,.638,1.466,10.829,10.829,0,0,0,.665,1.007,10.347,10.347,0,0,0,2.878,2.68,8.906,8.906,0,0,0,1.8.854,3.99,3.99,0,0,0,2.1.333,2.535,2.535,0,0,0,1.9-1.412,1.236,1.236,0,0,0,.09-.719c-.108-.495-.782-.791-1.178-1.034Z" transform="translate(-11.478 -4.004)" fill="#fff" fill-rule="evenodd"/>
      <path id="Trazado_613776" data-name="Trazado 613776" d="M365.008,349.64a26.624,26.624,0,0,1,6.457-2.806l1.331-6.385,10.791-.189,1.556,6.34a25.986,25.986,0,0,1,6.547,2.581l5.459-3.579,7.77,7.5-3.381,5.576a26.628,26.628,0,0,1,2.806,6.457l6.385,1.331.189,10.791-6.34,1.556A26.3,26.3,0,0,1,402,385.359l3.579,5.459-7.5,7.77-5.575-3.381a26.629,26.629,0,0,1-6.457,2.806l-1.331,6.385-10.791.189-1.556-6.34a25.981,25.981,0,0,1-6.547-2.581l-5.459,3.579-7.77-7.5,3.381-5.576a26.622,26.622,0,0,1-2.806-6.457l-6.385-1.331-.189-10.791,6.34-1.556a26.117,26.117,0,0,1,2.581-6.547l-3.579-5.459,7.5-7.77,5.576,3.381Zm5.755,14.379a11.581,11.581,0,1,0,16.376-.288A11.579,11.579,0,0,0,370.764,364.019Z" transform="translate(-34.907 -34.27)" fill="#ebebeb"/>
      <path id="Trazado_613777" data-name="Trazado 613777" d="M373.082,366.261a8.6,8.6,0,0,1,2.158-1.888,11.539,11.539,0,0,1,7.554-1.79,11.67,11.67,0,0,1,5.135,1.826,11.919,11.919,0,0,1,4.155,4.676,10.966,10.966,0,0,1,1.052,3.255,11.246,11.246,0,0,1,.063,3.561,11.836,11.836,0,0,1-9.784,10.126,11.872,11.872,0,0,1-6.853-.872,11.845,11.845,0,0,1-4.82-3.984,11.7,11.7,0,0,1-2.005-5.072,11.5,11.5,0,0,1,1.52-7.617,8.732,8.732,0,0,1,1.817-2.221c.063.054-.7.764-1.592,2.347a11.5,11.5,0,0,0-1.277,7.41,11.326,11.326,0,0,0,6.61,8.57,10.92,10.92,0,0,0,3.121.872,10.634,10.634,0,0,0,3.372-.072,11.231,11.231,0,0,0,9.245-9.577,11.266,11.266,0,0,0-1.025-6.457,11.3,11.3,0,0,0-8.786-6.3,11.536,11.536,0,0,0-7.365,1.538C373.819,365.532,373.136,366.324,373.082,366.261Z" transform="translate(-37.226 -36.512)" fill="#ebebeb"/>
      <path id="Trazado_613778" data-name="Trazado 613778" d="M364.983,349.62s-.117-.054-.36-.189c-.261-.153-.611-.351-1.07-.621-.971-.576-2.383-1.4-4.2-2.482l.135-.018c-1.906,2-4.415,4.631-7.455,7.815l.018-.207c1.088,1.646,2.3,3.48,3.6,5.441l.063.1-.054.108a26.536,26.536,0,0,0-2.536,6.5l-.027.126-.126.036c-1.978.495-4.11,1.016-6.331,1.574l.18-.234c.072,3.4.135,7.005.216,10.791l-.207-.252c1.978.4,4.155.854,6.394,1.313l.162.036.045.162a26.272,26.272,0,0,0,2.788,6.385l.09.144-.09.153c-1.043,1.727-2.2,3.642-3.372,5.585l-.045-.369c2.446,2.356,5.072,4.892,7.779,7.491l-.387-.036c1.7-1.115,3.561-2.338,5.45-3.579l.162-.108.171.09a26.408,26.408,0,0,0,6.475,2.545l.189.045.045.189c.486,1.987,1.016,4.155,1.556,6.34l-.324-.252c3.417-.063,7.077-.126,10.791-.2l-.315.261c.423-2.014.872-4.2,1.331-6.385l.045-.2.189-.054a26.117,26.117,0,0,0,6.367-2.77l.171-.108.171.1c1.87,1.133,3.732,2.266,5.575,3.381l-.414.054q3.8-3.939,7.5-7.761l-.036.4c-1.205-1.835-2.392-3.66-3.57-5.459l-.108-.162.1-.171a26.146,26.146,0,0,0,2.545-6.466l.045-.189.189-.045c2.14-.521,4.254-1.043,6.34-1.547l-.243.315c-.063-3.687-.117-7.284-.18-10.791l.243.3q-3.251-.674-6.385-1.34l-.18-.036-.045-.171a26.209,26.209,0,0,0-2.761-6.385l-.09-.153.09-.144q1.74-2.86,3.39-5.567l.045.342c-2.725-2.644-5.3-5.135-7.752-7.518l.315.027c-1.924,1.25-3.723,2.428-5.468,3.561l-.126.081-.126-.072a26.3,26.3,0,0,0-6.484-2.572l-.126-.036-.027-.126c-.558-2.3-1.061-4.379-1.529-6.34l.2.153c-4.182.054-7.743.1-10.791.144l.144-.117c-.549,2.545-1,4.64-1.367,6.385l-.018.063-.063.018a27.692,27.692,0,0,0-4.937,1.9c-.495.261-.881.459-1.16.6a2.655,2.655,0,0,1-.387.2s.126-.09.36-.243.621-.378,1.142-.657a25.661,25.661,0,0,1,4.928-2.005l-.072.081c.351-1.745.773-3.84,1.286-6.394l.027-.117h.117c3.048-.072,6.61-.144,10.791-.243h.153l.036.153c.486,1.96,1,4.029,1.574,6.331l-.162-.162a26.789,26.789,0,0,1,6.61,2.581h-.243c1.736-1.133,3.534-2.32,5.45-3.579l.171-.108.144.144c2.464,2.365,5.045,4.847,7.779,7.482l.162.153-.117.189c-1.1,1.817-2.212,3.669-3.372,5.585v-.3a26.686,26.686,0,0,1,2.842,6.52l-.225-.207c2.1.432,4.218.872,6.394,1.322l.243.045v.243c.072,3.507.135,7.113.207,10.791v.252l-.243.063c-2.086.513-4.191,1.034-6.34,1.556l.234-.234a26.4,26.4,0,0,1-2.608,6.628v-.333c1.169,1.8,2.365,3.615,3.561,5.45l.144.216-.18.189q-3.7,3.831-7.5,7.77l-.18.189-.225-.135c-1.844-1.115-3.705-2.248-5.576-3.381h.342a27.112,27.112,0,0,1-6.529,2.842l.234-.252c-.459,2.194-.908,4.37-1.331,6.385l-.054.261h-.261c-3.714.072-7.374.135-10.791.189h-.261l-.063-.252c-.531-2.185-1.061-4.353-1.547-6.34l.234.234a26.815,26.815,0,0,1-6.628-2.617h.324c-1.888,1.223-3.759,2.446-5.459,3.561l-.207.135-.18-.171c-2.689-2.608-5.324-5.153-7.761-7.509l-.171-.162.126-.2c1.178-1.942,2.338-3.849,3.39-5.575v.3a26.634,26.634,0,0,1-2.824-6.529l.207.189c-2.23-.468-4.406-.926-6.385-1.34l-.207-.045v-.207c-.063-3.786-.117-7.392-.171-10.791V367.4l.18-.045c2.23-.54,4.362-1.061,6.34-1.538l-.162.162a26.9,26.9,0,0,1,2.617-6.592v.2c-1.277-1.969-2.473-3.813-3.543-5.468L351.71,354l.09-.1c3.076-3.147,5.611-5.746,7.545-7.725l.063-.063.072.045c1.781,1.106,3.156,1.96,4.11,2.554.45.288.8.5,1.052.674a4.2,4.2,0,0,1,.36.243Z" transform="translate(-34.882 -34.251)" fill="#ebebeb"/>
      <path id="Trazado_613779" data-name="Trazado 613779" d="M18.678,48.859a26.626,26.626,0,0,1,6.457-2.806l1.331-6.385,10.791-.189,1.556,6.34A25.986,25.986,0,0,1,45.36,48.4l5.459-3.579,7.77,7.5L55.207,57.9a26.625,26.625,0,0,1,2.806,6.457L64.4,65.685l.189,10.791-6.34,1.556a26.437,26.437,0,0,1-2.572,6.547l3.579,5.459-7.5,7.77-5.576-3.381a26.626,26.626,0,0,1-6.457,2.806l-1.331,6.385-10.791.189-1.556-6.34A25.986,25.986,0,0,1,19.5,94.885l-5.459,3.579-7.77-7.5,3.381-5.576a26.626,26.626,0,0,1-2.806-6.457L.459,77.6.27,66.809l6.34-1.556a26.12,26.12,0,0,1,2.581-6.547L5.612,53.248l7.5-7.77,5.576,3.381Zm5.755,14.379a11.581,11.581,0,1,0,16.376-.288A11.579,11.579,0,0,0,24.434,63.239Z" transform="translate(-0.025 -3.975)" fill="#ebebeb"/>
      <path id="Trazado_613780" data-name="Trazado 613780" d="M26.752,65.481a8.6,8.6,0,0,1,2.158-1.888,11.539,11.539,0,0,1,7.554-1.79A11.67,11.67,0,0,1,41.6,63.628,11.92,11.92,0,0,1,45.754,68.3a10.969,10.969,0,0,1,1.052,3.255,11.244,11.244,0,0,1,.063,3.561,11.837,11.837,0,0,1-9.784,10.126,11.872,11.872,0,0,1-6.853-.872,11.845,11.845,0,0,1-4.82-3.984,11.7,11.7,0,0,1-2.005-5.072,11.5,11.5,0,0,1,1.52-7.617,8.732,8.732,0,0,1,1.817-2.221c.063.054-.7.764-1.592,2.347a11.5,11.5,0,0,0-1.277,7.41,11.326,11.326,0,0,0,6.61,8.57,10.924,10.924,0,0,0,3.121.872,10.634,10.634,0,0,0,3.372-.072,11.23,11.23,0,0,0,9.245-9.577A11.267,11.267,0,0,0,45.2,68.574a11.3,11.3,0,0,0-8.786-6.3,11.536,11.536,0,0,0-7.365,1.538C27.489,64.752,26.806,65.544,26.752,65.481Z" transform="translate(-2.343 -6.217)" fill="#ebebeb"/>
      <path id="Trazado_613781" data-name="Trazado 613781" d="M18.653,48.838s-.117-.054-.36-.189c-.261-.153-.612-.351-1.07-.621-.971-.576-2.383-1.4-4.2-2.482l.135-.018c-1.906,2-4.415,4.631-7.455,7.815l.018-.207c1.088,1.646,2.3,3.48,3.6,5.441l.063.1-.054.108a26.538,26.538,0,0,0-2.536,6.5l-.027.126-.126.036c-1.978.495-4.11,1.016-6.331,1.574l.18-.234c.072,3.4.135,7.005.216,10.791L.5,77.328c1.978.4,4.155.854,6.394,1.313l.162.036.045.162a26.27,26.27,0,0,0,2.788,6.385l.09.144-.09.153c-1.043,1.727-2.2,3.642-3.372,5.585l-.045-.369,7.779,7.491-.387-.036c1.7-1.115,3.561-2.338,5.45-3.579l.162-.108.171.09a26.045,26.045,0,0,0,6.475,2.536l.189.045.045.189c.486,1.987,1.016,4.155,1.556,6.34l-.324-.252c3.417-.063,7.077-.126,10.791-.2l-.315.261c.423-2.014.872-4.2,1.331-6.385l.045-.2.189-.054a26.118,26.118,0,0,0,6.367-2.77L46.162,94l.171.1c1.87,1.133,3.732,2.266,5.576,3.381l-.414.054q3.8-3.939,7.5-7.761l-.036.4c-1.205-1.835-2.392-3.66-3.57-5.459l-.108-.162.1-.171a26.152,26.152,0,0,0,2.545-6.466l.045-.189.189-.045c2.14-.522,4.254-1.043,6.34-1.547l-.243.315q-.094-5.531-.18-10.791l.243.3q-3.251-.674-6.385-1.34l-.18-.036-.045-.171a26.214,26.214,0,0,0-2.761-6.385l-.09-.153.09-.153q1.74-2.86,3.39-5.567l.045.342c-2.725-2.644-5.3-5.135-7.752-7.518l.315.027c-1.924,1.25-3.723,2.428-5.468,3.561l-.126.081-.126-.072a26.3,26.3,0,0,0-6.484-2.572l-.126-.036-.027-.126c-.558-2.3-1.061-4.38-1.529-6.34l.2.153c-4.182.054-7.743.1-10.791.144l.144-.117c-.549,2.545-1,4.64-1.367,6.385l-.018.063-.063.018a27.693,27.693,0,0,0-4.937,1.9c-.495.261-.881.459-1.16.6a2.65,2.65,0,0,1-.387.2s.126-.09.36-.243.621-.378,1.142-.656a25.662,25.662,0,0,1,4.928-2.005l-.072.081c.351-1.745.773-3.84,1.286-6.394l.027-.117h.117c3.049-.072,6.61-.144,10.791-.243h.153l.036.153c.486,1.96,1,4.029,1.574,6.331l-.162-.162a26.789,26.789,0,0,1,6.61,2.581h-.243c1.736-1.133,3.534-2.32,5.45-3.579l.171-.108.144.144c2.464,2.365,5.045,4.847,7.779,7.482l.162.153-.117.189c-1.1,1.817-2.212,3.669-3.372,5.585v-.3a26.678,26.678,0,0,1,2.842,6.52l-.225-.207c2.1.432,4.218.872,6.394,1.322l.243.045v.243q.108,5.261.207,10.791v.252l-.243.063c-2.086.513-4.191,1.034-6.34,1.556l.234-.234a26.406,26.406,0,0,1-2.608,6.628v-.333c1.169,1.8,2.365,3.615,3.561,5.45l.144.216-.18.189q-3.7,3.831-7.5,7.77l-.18.189-.225-.135c-1.844-1.115-3.705-2.248-5.576-3.381h.342A27.1,27.1,0,0,1,39.8,97.525l.234-.252c-.459,2.194-.908,4.37-1.331,6.385l-.054.261h-.261c-3.714.072-7.374.135-10.791.189H27.34l-.063-.252c-.531-2.185-1.061-4.353-1.547-6.34l.234.234a26.819,26.819,0,0,1-6.628-2.617h.324c-1.888,1.223-3.759,2.446-5.459,3.561l-.207.135-.18-.171c-2.689-2.608-5.324-5.153-7.761-7.509l-.171-.162.126-.2c1.178-1.942,2.338-3.849,3.39-5.576v.3a26.636,26.636,0,0,1-2.824-6.529l.207.189C4.552,78.7,2.376,78.245.4,77.831l-.207-.045v-.207C.128,73.793.074,70.187.02,66.788V66.6l.18-.045c2.23-.54,4.362-1.061,6.34-1.538l-.162.162a26.9,26.9,0,0,1,2.617-6.592v.2c-1.277-1.969-2.473-3.813-3.543-5.468L5.38,53.2l.09-.1c3.076-3.147,5.611-5.746,7.545-7.725l.063-.063.072.045c1.781,1.106,3.156,1.96,4.11,2.554.45.288.8.5,1.052.674a4.212,4.212,0,0,1,.36.243Z" transform="translate(0 -3.954)" fill="#ebebeb"/>
      <path id="Trazado_613782" data-name="Trazado 613782" d="M404.717,311.714a13.676,13.676,0,0,1,3.417-1.484l.7-3.381,5.719-.1.827,3.354a13.944,13.944,0,0,1,3.471,1.367l2.887-1.9,4.119,3.975-1.79,2.959a13.672,13.672,0,0,1,1.484,3.417l3.381.7.1,5.719-3.354.827a13.945,13.945,0,0,1-1.367,3.471l1.9,2.887-3.975,4.119-2.959-1.79a13.673,13.673,0,0,1-3.417,1.484l-.7,3.381-5.719.1-.827-3.354a13.945,13.945,0,0,1-3.471-1.367l-2.887,1.9-4.119-3.975,1.79-2.959a13.675,13.675,0,0,1-1.484-3.417l-3.381-.7-.1-5.719,3.354-.827a13.946,13.946,0,0,1,1.367-3.471l-1.9-2.887,3.975-4.119Zm3.049,7.617a6.137,6.137,0,1,0,8.678-.153A6.137,6.137,0,0,0,407.766,319.331Z" transform="translate(-39.778 -30.895)" fill="#ebebeb"/>
      <path id="Trazado_613783" data-name="Trazado 613783" d="M48.507,4.974A13.673,13.673,0,0,1,51.924,3.49l.7-3.381,5.719-.1.827,3.354a13.945,13.945,0,0,1,3.471,1.367l2.887-1.9,4.119,3.975L67.86,9.767a13.673,13.673,0,0,1,1.484,3.417l3.381.7.1,5.719-3.354.827A13.944,13.944,0,0,1,68.1,23.9L70,26.791l-3.975,4.119-2.959-1.79A13.673,13.673,0,0,1,59.649,30.6l-.7,3.381-5.719.1L52.4,30.729a13.945,13.945,0,0,1-3.471-1.367l-2.887,1.9-4.119-3.975,1.79-2.959a13.673,13.673,0,0,1-1.484-3.417l-3.381-.7-.1-5.719,3.354-.827a13.945,13.945,0,0,1,1.367-3.471L41.574,7.3l3.975-4.119Zm3.049,7.617a6.137,6.137,0,1,0,8.678-.153A6.137,6.137,0,0,0,51.556,12.591Z" transform="translate(-3.901)" fill="#ebebeb"/>
      <path id="Trazado_613784" data-name="Trazado 613784" d="M409.006,320.528a4.724,4.724,0,0,1,1.142-1,6.091,6.091,0,0,1,4-.944,6.21,6.21,0,0,1,4.928,3.444,5.89,5.89,0,0,1,.558,1.727,6.038,6.038,0,0,1,.036,1.888,6.245,6.245,0,0,1-5.18,5.36,6.065,6.065,0,0,1-1.888.036,5.99,5.99,0,0,1-1.745-.495,6.334,6.334,0,0,1-2.554-2.113,6.2,6.2,0,0,1-.252-6.727,4.769,4.769,0,0,1,.962-1.178c.036.027-.369.4-.845,1.241a6.1,6.1,0,0,0-.674,3.93,6,6,0,0,0,3.5,4.541,5.643,5.643,0,0,0,1.655.459,5.7,5.7,0,0,0,1.79-.036,5.964,5.964,0,0,0,4.9-5.072,5.424,5.424,0,0,0-.027-1.79,5.617,5.617,0,0,0-.522-1.637,6.013,6.013,0,0,0-2.068-2.374,5.907,5.907,0,0,0-2.59-.962,6.081,6.081,0,0,0-3.9.818,12.858,12.858,0,0,0-1.214.89Z" transform="translate(-41.009 -32.083)" fill="#ebebeb"/>
      <path id="Trazado_613785" data-name="Trazado 613785" d="M404.7,311.7a2.1,2.1,0,0,1-.189-.1l-.567-.324c-.513-.306-1.259-.746-2.23-1.313h.072c-1.007,1.052-2.338,2.446-3.948,4.128v-.108c.585.872,1.232,1.844,1.915,2.887l.036.054-.027.054a14.016,14.016,0,0,0-1.34,3.444l-.018.072-.072.018c-1.043.261-2.176.54-3.354.836l.1-.126c.036,1.8.072,3.714.117,5.719l-.108-.135c1.052.216,2.2.45,3.39.7l.09.018.027.081a14.157,14.157,0,0,0,1.475,3.381l.045.081-.045.081c-.558.917-1.169,1.924-1.79,2.959l-.027-.2c1.295,1.25,2.689,2.59,4.119,3.966l-.207-.018c.9-.594,1.888-1.241,2.887-1.9l.081-.054.09.045a13.819,13.819,0,0,0,3.426,1.349l.1.027.027.1c.261,1.052.54,2.2.827,3.354l-.171-.135c1.808-.036,3.75-.063,5.719-.1l-.171.135c.225-1.07.459-2.221.7-3.381l.018-.108.1-.027a13.665,13.665,0,0,0,3.372-1.466l.09-.054.09.054c.989.6,1.978,1.2,2.959,1.79l-.216.027c1.34-1.394,2.671-2.761,3.975-4.119l-.018.216c-.638-.971-1.268-1.933-1.9-2.9l-.054-.09.054-.09a13.587,13.587,0,0,0,1.349-3.426l.027-.1.1-.027c1.133-.279,2.257-.549,3.354-.818l-.126.162c-.036-1.951-.063-3.858-.1-5.719l.126.153c-1.151-.243-2.275-.477-3.381-.71l-.09-.018-.027-.09a13.9,13.9,0,0,0-1.466-3.381l-.045-.081.045-.081c.611-1.016,1.214-2,1.8-2.95l.027.18c-1.448-1.4-2.806-2.725-4.11-3.984l.171.018c-1.016.665-1.969,1.286-2.9,1.888l-.063.045-.063-.036a14.1,14.1,0,0,0-3.435-1.367l-.072-.018-.018-.072c-.3-1.223-.557-2.32-.809-3.363l.1.081c-2.212.027-4.1.054-5.719.072l.072-.063c-.288,1.349-.531,2.455-.728,3.381v.036h-.036a15.768,15.768,0,0,0-2.617,1.016c-.261.135-.468.243-.612.324s-.207.108-.207.108.063-.045.189-.126.333-.2.6-.351a13.964,13.964,0,0,1,2.608-1.061l-.036.045c.189-.926.414-2.032.683-3.39v-.063h.072c1.619-.036,3.507-.081,5.719-.126h.081l.018.081c.261,1.034.531,2.14.836,3.354l-.081-.081a14.2,14.2,0,0,1,3.507,1.367h-.135c.917-.6,1.87-1.232,2.887-1.9l.09-.063.081.072c1.3,1.25,2.671,2.572,4.119,3.966l.081.081-.063.1c-.576.962-1.178,1.942-1.79,2.959v-.162a14.518,14.518,0,0,1,1.511,3.453l-.117-.108c1.106.234,2.239.459,3.381.7l.126.027v.126q.054,2.792.108,5.719v.135l-.126.036c-1.106.27-2.221.549-3.354.827l.126-.126a14.142,14.142,0,0,1-1.376,3.516v-.18q.931,1.43,1.888,2.887l.072.117-.1.1q-1.956,2.023-3.975,4.119l-.1.1-.117-.072c-.98-.594-1.96-1.187-2.959-1.79h.18a13.888,13.888,0,0,1-3.462,1.5l.126-.135c-.243,1.16-.486,2.32-.7,3.381l-.027.135h-.144c-1.969.036-3.912.072-5.719.1h-.135l-.036-.135c-.288-1.16-.567-2.3-.818-3.354l.126.126a14.338,14.338,0,0,1-3.507-1.385h.171c-1,.647-1.987,1.295-2.9,1.888l-.108.072-.09-.09c-1.43-1.385-2.815-2.725-4.11-3.975l-.09-.09.063-.108c.63-1.025,1.241-2.041,1.8-2.95v.153a14.043,14.043,0,0,1-1.493-3.462l.108.1c-1.187-.252-2.338-.495-3.381-.71l-.108-.027v-.108c-.036-2.005-.063-3.921-.09-5.719v-.1l.1-.027c1.178-.288,2.311-.558,3.363-.809l-.081.081a14.138,14.138,0,0,1,1.385-3.489v.108c-.674-1.043-1.313-2.023-1.879-2.9l-.036-.063.054-.054c1.628-1.664,2.977-3.049,3.993-4.092l.036-.036.036.027c.944.584,1.673,1.043,2.176,1.358.243.153.423.27.558.36s.189.126.189.126Z" transform="translate(-39.764 -30.883)" fill="#ebebeb"/>
      <path id="Trazado_613786" data-name="Trazado 613786" d="M292.168,364.859c4.631-2.167,10.081-2.446,15.225-1.673,2.761.414,5.638,1.16,7.518,3.04s2.239,5.189.081,6.8a7.771,7.771,0,0,1-4.739,1.088c-4.029-.045-8.489-.684-11.709,1.511-1.835,1.25-3.058,3.327-5.252,3.948a5.393,5.393,0,0,1-5.7-2.3,7.337,7.337,0,0,1-.647-5.926,9.037,9.037,0,0,1,5.225-6.493Z" transform="translate(-28.866 -36.54)" fill="#ebebeb"/>
      <path id="Trazado_613787" data-name="Trazado 613787" d="M280.691,340.2c2.833,3.66,8.336,2.446,10.89.216s3.633-5.477,4.613-8.57c2.239-7.059,4.505-14.469,2.833-21.655a11.552,11.552,0,0,0-3.058-5.89,7.372,7.372,0,0,0-6.574-1.978c-2.779.665-4.5,3.129-5.746,5.468a47.663,47.663,0,0,0-5.629,22.158c-.018,3.57.45,7.311,2.671,10.261" transform="translate(-28 -30.432)" fill="#ebebeb"/>
      <path id="Trazado_613788" data-name="Trazado 613788" d="M268.7,346.77a12.326,12.326,0,0,0,2.293-12.266c-1.367-4.137-4.46-7.662-8.022-10.54a44.115,44.115,0,0,0-14.362-7.671,16.693,16.693,0,0,0-6.457-1,6.918,6.918,0,0,0-5.423,2.968c-1.511,2.608-.063,5.773,1.5,8.363a99.113,99.113,0,0,0,9.433,13.013c2.824,3.3,6.07,6.556,10.378,8.049s8.786,1.313,11.07-1.394" transform="translate(-23.777 -31.752)" fill="#ebebeb"/>
      <path id="Trazado_613789" data-name="Trazado 613789" d="M280.771,402.128a7.478,7.478,0,0,0,.252-1.664c.126-1.214.3-2.734.486-4.541a60.257,60.257,0,0,1,1.124-6.664,48.334,48.334,0,0,1,2.671-7.86,28.254,28.254,0,0,1,4.433-7.113,16.252,16.252,0,0,1,5.6-4.218,17.114,17.114,0,0,1,4.721-1.331,8.732,8.732,0,0,0,1.826-.243,9.911,9.911,0,0,0-1.861-.027,15.33,15.33,0,0,0-4.919,1.16,16.489,16.489,0,0,0-5.917,4.254,28.069,28.069,0,0,0-4.6,7.257,44.474,44.474,0,0,0-2.653,7.995,51.867,51.867,0,0,0-.98,6.745c-.162,1.933-.216,3.489-.252,4.568a7.67,7.67,0,0,0,.036,1.682Z" transform="translate(-28.27 -37.11)" fill="#e0e0e0"/>
      <path id="Trazado_613790" data-name="Trazado 613790" d="M281.125,393.6a5.233,5.233,0,0,0,.045-.773v-2.212c0-1.915,0-4.694.108-8.111.189-6.853.836-14.218,2.1-24.613,1.187-9.775,2.788-21.142,4.478-28.543.36-1.682.728-3.192,1.07-4.523.324-1.331.6-2.473.872-3.4.234-.872.423-1.583.567-2.149a3.392,3.392,0,0,0,.153-.764,3.187,3.187,0,0,0-.3.728c-.189.558-.423,1.259-.71,2.113-.315.917-.638,2.059-1.007,3.381-.387,1.322-.782,2.833-1.178,4.505a227.725,227.725,0,0,0-4.7,26.484,249.294,249.294,0,0,0-1.879,26.763c-.045,3.435.036,6.214.135,8.13.063.9.108,1.628.153,2.2a2.893,2.893,0,0,0,.108.764Z" transform="translate(-28.273 -32.079)" fill="#e0e0e0"/>
      <path id="Trazado_613791" data-name="Trazado 613791" d="M278.194,375.936a12.963,12.963,0,0,0-.018-2.311,55.714,55.714,0,0,0-.782-6.25,74.36,74.36,0,0,0-2.248-9.11,69.741,69.741,0,0,0-4.209-10.773,57.28,57.28,0,0,0-12.347-17.41,30.464,30.464,0,0,0-2.9-2.446c-.45-.342-.836-.683-1.241-.953-.4-.252-.782-.486-1.124-.7a16.538,16.538,0,0,0-2.14-1.241c-.126.153,3.04,1.835,7.032,5.683a60.181,60.181,0,0,1,12.041,17.347,79.348,79.348,0,0,1,4.227,10.674,85.287,85.287,0,0,1,2.392,9.02c.522,2.6.827,4.721,1.016,6.187a13.239,13.239,0,0,0,.315,2.284Z" transform="translate(-25.296 -32.706)" fill="#e0e0e0"/>
      <path id="Trazado_613792" data-name="Trazado 613792" d="M257.43,396.77l2.023,25.108h35.621L297.1,396.77Z" transform="translate(-25.926 -39.962)" fill="#e0e0e0"/>
      <path id="Trazado_613793" data-name="Trazado 613793" d="M300.956,385.77H253.6v9.9h47.356Z" transform="translate(-25.541 -38.854)" fill="#e0e0e0"/>
      <path id="Trazado_613794" data-name="Trazado 613794" d="M253.6,423.62v2.743h46.574V423.62Z" transform="translate(-25.541 -42.666)" fill="#ebebeb"/>
      <path id="Trazado_613795" data-name="Trazado 613795" d="M258.256,431.5l-2.176-4.829h42.644l-2.536,4.829Z" transform="translate(-25.79 -42.973)" fill="#e0e0e0"/>
      <path id="Trazado_613796" data-name="Trazado 613796" d="M296.5,405.508a2.216,2.216,0,0,1-.162.234c-.144.171-.315.378-.531.638-.5.585-1.205,1.394-2.077,2.4l-.09.108-.09-.108c-1.3-1.637-3.049-3.813-5.1-6.385h.3c-1.52,1.942-3.2,4.11-5.018,6.439l-.153.2-.18-.189c-1.853-2-3.867-4.164-5.953-6.412h.342c-.1.117-.216.243-.324.369-1.844,2.1-3.633,4.128-5.324,6.043l-.18.2-.162-.207c-1.808-2.311-3.5-4.478-5.018-6.43h.288c-2.473,2.563-4.577,4.73-6.187,6.394l-.108.117-.081-.126c-.818-1.241-1.466-2.23-1.933-2.95-.207-.324-.369-.576-.495-.782a1.563,1.563,0,0,1-.153-.279,1.524,1.524,0,0,1,.207.252c.144.2.324.45.549.755.495.7,1.178,1.673,2.032,2.9l-.2-.018c1.583-1.682,3.651-3.876,6.088-6.457l.153-.162.135.18c1.538,1.951,3.246,4.1,5.063,6.4H271.8c1.682-1.933,3.471-3.957,5.306-6.061.108-.126.225-.252.324-.369l.171-.189.171.189c2.086,2.257,4.092,4.424,5.935,6.43h-.333c1.835-2.3,3.534-4.46,5.072-6.394l.153-.189.144.189c2.005,2.6,3.714,4.8,4.991,6.457h-.18c.908-.989,1.628-1.781,2.158-2.347.234-.243.423-.441.576-.6a1.538,1.538,0,0,1,.216-.2Z" transform="translate(-25.995 -40.489)" fill="#f5f5f5"/>
      <path id="Trazado_613797" data-name="Trazado 613797" d="M297.626,396.568c0,.108-8.921.2-19.928.2s-19.928-.09-19.928-.2,8.921-.2,19.928-.2S297.626,396.46,297.626,396.568Z" transform="translate(-25.961 -39.921)" fill="#f5f5f5"/>
      <path id="Trazado_613798" data-name="Trazado 613798" d="M299.237,426.958c0,.108-9.7.2-21.664.2s-21.664-.09-21.664-.2,9.694-.2,21.664-.2S299.237,426.85,299.237,426.958Z" transform="translate(-25.773 -42.982)" fill="#f5f5f5"/>
      <path id="Trazado_613799" data-name="Trazado 613799" d="M196.432,241.81h25.333a8.645,8.645,0,0,1,8.642,8.642v25.333a8.645,8.645,0,0,1-8.642,8.642H196.432a8.645,8.645,0,0,1-8.642-8.642V250.452A8.645,8.645,0,0,1,196.432,241.81Z" transform="translate(-18.912 -24.354)" fill="#e0e0e0"/>
      <path id="Trazado_613800" data-name="Trazado 613800" d="M200.895,274.734a.917.917,0,0,1-.665-.279.95.95,0,0,1,0-1.34l5.063-5.063a8.733,8.733,0,0,1,.63-11.547,8.66,8.66,0,1,1,.7,12.878l-5.063,5.063a.932.932,0,0,1-.665.279Zm11.151-18.867a6.755,6.755,0,1,0,4.784,1.978A6.72,6.72,0,0,0,212.046,255.867Z" transform="translate(-20.137 -25.579)" fill="#fff"/>
      <path id="Trazado_613801" data-name="Trazado 613801" d="M417.435,33.42H395.655a9.334,9.334,0,0,0-9.335,9.335V64.535a9.334,9.334,0,0,0,9.335,9.335h21.781a9.334,9.334,0,0,0,9.335-9.335V42.755A9.334,9.334,0,0,0,417.435,33.42Z" transform="translate(-38.908 -3.365)" fill="#e0e0e0"/>
      <path id="Trazado_613802" data-name="Trazado 613802" d="M410.278,63.509a1.7,1.7,0,1,1-1.7-1.709A1.706,1.706,0,0,1,410.278,63.509Z" transform="translate(-40.978 -6.223)" fill="#fff"/>
      <path id="Trazado_613803" data-name="Trazado 613803" d="M404.8,60.888a4.722,4.722,0,0,1,6.835-.09.957.957,0,0,0,1.358-1.349,6.662,6.662,0,0,0-9.55.081c-.854.89.495,2.257,1.349,1.358Z" transform="translate(-40.605 -5.788)" fill="#fff"/>
      <path id="Trazado_613804" data-name="Trazado 613804" d="M398.353,51.815a13.961,13.961,0,0,1,9.155-3.66,13.626,13.626,0,0,1,9.335,3.57c.9.845,2.266-.5,1.358-1.349a15.566,15.566,0,0,0-10.693-4.146,16,16,0,0,0-10.513,4.218c-.935.809.423,2.167,1.349,1.358Z" transform="translate(-39.952 -4.655)" fill="#fff"/>
      <path id="Trazado_613805" data-name="Trazado 613805" d="M400.9,56.766a9.379,9.379,0,0,1,13.777-.2c.863.881,2.221-.468,1.358-1.349a11.287,11.287,0,0,0-16.493.18c-.836.908.513,2.266,1.349,1.358Z" transform="translate(-40.213 -5.209)" fill="#fff"/>
      <path id="Trazado_613806" data-name="Trazado 613806" d="M348.984,229.58c.126,0,.234,4.532.234,10.126s-.108,10.126-.234,10.126-.234-4.532-.234-10.126S348.858,229.58,348.984,229.58Z" transform="translate(-35.124 -23.122)" fill="#263238"/>
      <path id="Trazado_613807" data-name="Trazado 613807" d="M264.264,105.651c-.126,0-.234-7.554-.234-16.871s.108-16.87.234-16.87.234,7.554.234,16.87S264.39,105.651,264.264,105.651Z" transform="translate(-26.591 -7.242)" fill="#263238"/>
      <path id="Trazado_613808" data-name="Trazado 613808" d="M230.705,151.29a4.857,4.857,0,0,1-.621.045c-.459.009-1.052.027-1.79.045-1.61.018-3.831.045-6.565.072-5.593.018-13.228.045-21.664.072h-3.13a11.5,11.5,0,0,1-1.565-.063,5.657,5.657,0,0,1-1.5-.432,7,7,0,0,1-3.714-4.4,8.837,8.837,0,0,1-.387-2.707c.009-.863.018-1.709.027-2.527.018-1.628.045-3.148.063-4.532.054-2.734.09-4.964.117-6.565q.04-1.106.054-1.781a2.831,2.831,0,0,1,.054-.621,3.381,3.381,0,0,1,.045.621c0,.459.018,1.052.036,1.79,0,1.61.018,3.831.027,6.565v4.532c.045,1.628-.189,3.4.387,5.1a6.607,6.607,0,0,0,3.489,4.11,5.207,5.207,0,0,0,1.385.4,11.666,11.666,0,0,0,1.5.054h3.13c8.435.027,16.07.054,21.664.072,2.734.027,4.964.054,6.565.072.737.018,1.331.036,1.79.045a3.377,3.377,0,0,1,.621.045Z" transform="translate(-19.112 -12.881)" fill="#263238"/>
      <path id="Trazado_613809" data-name="Trazado 613809" d="M277.567,10.76H241.425a9.334,9.334,0,0,0-9.335,9.335V56.237a9.334,9.334,0,0,0,9.335,9.335h36.142a9.334,9.334,0,0,0,9.334-9.335V20.095A9.334,9.334,0,0,0,277.567,10.76Z" transform="translate(-23.374 -1.083)" fill="#fff"/>
      <path id="Trazado_613810" data-name="Trazado 613810" d="M277.531,65.534a10.027,10.027,0,0,0,2.032-.279,9.32,9.32,0,0,0,4.937-2.995,8.966,8.966,0,0,0,1.942-3.714,20.067,20.067,0,0,0,.3-5.036c-.009-3.651-.018-7.815-.036-12.4,0-4.6-.018-9.631-.027-15.036V21.955a16.187,16.187,0,0,0-.306-4.173,9.154,9.154,0,0,0-7.743-6.763,21.33,21.33,0,0,0-2.293-.072H241.407a9.18,9.18,0,0,0-4.829,1.394,8.762,8.762,0,0,0-1.924,1.619,8.31,8.31,0,0,0-1.4,2.068,9.145,9.145,0,0,0-.791,2.347,13.342,13.342,0,0,0-.162,2.482v5c0,6.61-.009,12.995-.018,19.074q0,4.559-.009,8.885a23.038,23.038,0,0,0,.18,4.2,9.2,9.2,0,0,0,1.646,3.642,9.076,9.076,0,0,0,6.484,3.633c2.473.09,4.91.036,7.194.054,9.182.027,16.61.054,21.772.072,2.554.018,4.55.036,5.917.045q1,.013,1.538.027a3.756,3.756,0,0,1,.522.027s-.18.018-.522.027c-.369,0-.872.009-1.538.027-1.367.009-3.363.027-5.917.045-5.162.018-12.59.045-21.772.072-2.3-.018-4.694.054-7.23-.027a9.571,9.571,0,0,1-8.489-7.572,23.47,23.47,0,0,1-.2-4.281c0-2.878,0-5.845-.009-8.885,0-6.079,0-12.455-.018-19.074v-5A13.02,13.02,0,0,1,232,18.286a9.423,9.423,0,0,1,.827-2.473,9.055,9.055,0,0,1,1.475-2.167,9.153,9.153,0,0,1,2.023-1.7,9.606,9.606,0,0,1,5.081-1.466h34.928a20.613,20.613,0,0,1,2.347.081,9.3,9.3,0,0,1,2.266.567,9.541,9.541,0,0,1,5.818,6.52,16.145,16.145,0,0,1,.306,4.281v4.119c-.009,5.4-.018,10.441-.027,15.036s-.027,8.75-.036,12.4a19.784,19.784,0,0,1-.342,5.09,9.054,9.054,0,0,1-2.023,3.777,9.254,9.254,0,0,1-5.054,2.968,8.012,8.012,0,0,1-1.529.18c-.351.009-.522,0-.522,0Z" transform="translate(-23.348 -1.055)" fill="#263238"/>
      <path id="Trazado_613811" data-name="Trazado 613811" d="M352.807,31.68H316.665a9.334,9.334,0,0,0-9.335,9.335V77.157a9.334,9.334,0,0,0,9.335,9.335h36.142a9.334,9.334,0,0,0,9.335-9.335V41.015A9.334,9.334,0,0,0,352.807,31.68Z" transform="translate(-30.952 -3.19)" fill="#fff"/>
      <path id="Trazado_613812" data-name="Trazado 613812" d="M352.771,86.454a10.028,10.028,0,0,0,2.032-.279,9.32,9.32,0,0,0,4.937-2.995,8.966,8.966,0,0,0,1.942-3.714,20.061,20.061,0,0,0,.3-5.036c-.009-3.651-.018-7.815-.036-12.4,0-4.6-.018-9.631-.027-15.036V42.875a16.179,16.179,0,0,0-.306-4.173,9.154,9.154,0,0,0-7.743-6.763,21.33,21.33,0,0,0-2.293-.072H316.647a9.18,9.18,0,0,0-4.829,1.394,8.763,8.763,0,0,0-1.924,1.619,8.313,8.313,0,0,0-1.4,2.068A9.148,9.148,0,0,0,307.7,39.3a13.343,13.343,0,0,0-.162,2.482v5c0,6.61-.009,12.995-.018,19.074q0,4.559-.009,8.885a23.034,23.034,0,0,0,.18,4.2,9.2,9.2,0,0,0,1.646,3.642,9.093,9.093,0,0,0,6.484,3.633c2.473.09,4.91.036,7.194.054,9.182.027,16.61.054,21.772.072,2.554.018,4.55.036,5.917.045q1,.014,1.538.027a3.757,3.757,0,0,1,.522.027s-.18.018-.522.027c-.369,0-.872.009-1.538.027-1.367.009-3.363.027-5.917.045-5.162.018-12.59.045-21.772.072-2.3-.018-4.694.054-7.23-.027a9.571,9.571,0,0,1-8.489-7.572,23.474,23.474,0,0,1-.2-4.281c0-2.878,0-5.845-.009-8.885,0-6.079,0-12.455-.018-19.074v-5a13.022,13.022,0,0,1,.171-2.563,9.424,9.424,0,0,1,.827-2.473,9.055,9.055,0,0,1,1.475-2.167,9.154,9.154,0,0,1,2.023-1.7,9.606,9.606,0,0,1,5.081-1.466h34.928a20.614,20.614,0,0,1,2.347.081,9.3,9.3,0,0,1,2.266.567,9.541,9.541,0,0,1,5.818,6.52,16.147,16.147,0,0,1,.306,4.281v4.119c-.009,5.4-.018,10.441-.027,15.036s-.027,8.75-.036,12.4a19.783,19.783,0,0,1-.342,5.09,9.053,9.053,0,0,1-2.023,3.777,9.254,9.254,0,0,1-5.054,2.968,8.01,8.01,0,0,1-1.529.18c-.351.009-.522,0-.522,0Z" transform="translate(-30.926 -3.162)" fill="#263238"/>
      <path id="Trazado_613813" data-name="Trazado 613813" d="M419.1,105.27H382.955a9.334,9.334,0,0,0-9.335,9.335v36.142a9.334,9.334,0,0,0,9.335,9.335H419.1a9.334,9.334,0,0,0,9.334-9.335V114.6A9.334,9.334,0,0,0,419.1,105.27Z" transform="translate(-37.629 -10.602)" fill="#fff"/>
      <path id="Trazado_613814" data-name="Trazado 613814" d="M419.061,160.054a10.025,10.025,0,0,0,2.032-.279,9.32,9.32,0,0,0,4.937-2.995,8.968,8.968,0,0,0,1.942-3.714,20.064,20.064,0,0,0,.3-5.036c-.009-3.651-.018-7.815-.036-12.4,0-4.6-.018-9.631-.027-15.036v-4.119a16.186,16.186,0,0,0-.306-4.173,9.154,9.154,0,0,0-7.743-6.763,21.327,21.327,0,0,0-2.293-.072H382.937a9.179,9.179,0,0,0-4.829,1.394,8.76,8.76,0,0,0-1.925,1.619,8.311,8.311,0,0,0-1.4,2.068,9.148,9.148,0,0,0-.791,2.347,13.343,13.343,0,0,0-.162,2.482v5c0,6.61-.009,12.995-.018,19.074q0,4.559-.009,8.885a23.029,23.029,0,0,0,.18,4.2,9.2,9.2,0,0,0,1.646,3.642,9.094,9.094,0,0,0,6.484,3.633c2.473.09,4.91.036,7.194.054,9.182.027,16.61.054,21.772.072,2.554.018,4.55.036,5.917.045q1,.013,1.538.027a3.753,3.753,0,0,1,.522.027s-.18.018-.522.027c-.369,0-.872.009-1.538.027-1.367.009-3.363.027-5.917.045-5.162.018-12.59.045-21.772.072-2.3-.018-4.694.054-7.23-.027a9.571,9.571,0,0,1-8.489-7.572,23.477,23.477,0,0,1-.2-4.281c0-2.878,0-5.845-.009-8.885,0-6.079,0-12.455-.018-19.074v-5a13.024,13.024,0,0,1,.171-2.563,9.425,9.425,0,0,1,.827-2.473,9.323,9.323,0,0,1,1.475-2.167,9.153,9.153,0,0,1,2.023-1.7A9.606,9.606,0,0,1,382.937,105h34.928a20.619,20.619,0,0,1,2.347.081,9.3,9.3,0,0,1,2.266.567,9.541,9.541,0,0,1,5.818,6.52,16.147,16.147,0,0,1,.306,4.281v4.119c-.009,5.4-.018,10.441-.027,15.036s-.027,8.75-.036,12.4a19.78,19.78,0,0,1-.342,5.09,9.052,9.052,0,0,1-2.023,3.777,9.254,9.254,0,0,1-5.054,2.968,8.014,8.014,0,0,1-1.529.18c-.351.009-.522,0-.522,0Z" transform="translate(-37.603 -10.575)" fill="#263238"/>
      <path id="Trazado_613815" data-name="Trazado 613815" d="M194.377,62.15H158.235a9.334,9.334,0,0,0-9.335,9.335v36.142a9.334,9.334,0,0,0,9.335,9.335h36.142a9.334,9.334,0,0,0,9.335-9.335V71.485A9.334,9.334,0,0,0,194.377,62.15Z" transform="translate(-14.995 -6.259)" fill="#fff"/>
      <path id="Trazado_613816" data-name="Trazado 613816" d="M194.341,116.935a10.027,10.027,0,0,0,2.032-.279,9.32,9.32,0,0,0,4.937-2.995,8.967,8.967,0,0,0,1.942-3.714,20.063,20.063,0,0,0,.3-5.036c-.009-3.651-.018-7.815-.036-12.4,0-4.6-.018-9.631-.027-15.036V73.356a16.185,16.185,0,0,0-.306-4.173,9.155,9.155,0,0,0-7.743-6.763,21.327,21.327,0,0,0-2.293-.072H158.217a9.18,9.18,0,0,0-4.829,1.394,8.762,8.762,0,0,0-1.924,1.619,8.311,8.311,0,0,0-1.4,2.068,9.145,9.145,0,0,0-.791,2.347,13.341,13.341,0,0,0-.162,2.482v5c0,6.61-.009,12.995-.018,19.074q0,4.559-.009,8.885a23.028,23.028,0,0,0,.18,4.2,9.3,9.3,0,0,0,1.646,3.651,9.093,9.093,0,0,0,6.484,3.633c2.473.09,4.91.036,7.194.054,9.182.027,16.61.054,21.772.072,2.554.018,4.55.036,5.917.045q1,.014,1.538.027a3.753,3.753,0,0,1,.522.027s-.18.018-.522.027c-.369,0-.872.009-1.538.027-1.367.009-3.363.027-5.917.045-5.162.018-12.59.045-21.772.072-2.3-.018-4.694.054-7.23-.027a9.571,9.571,0,0,1-8.489-7.572,23.468,23.468,0,0,1-.2-4.281c0-2.878,0-5.845-.009-8.885,0-6.079,0-12.455-.018-19.074v-5a13.02,13.02,0,0,1,.171-2.563,9.424,9.424,0,0,1,.827-2.473,9.325,9.325,0,0,1,1.475-2.167,9.153,9.153,0,0,1,2.023-1.7,9.606,9.606,0,0,1,5.081-1.466h34.928a20.615,20.615,0,0,1,2.347.081,9.3,9.3,0,0,1,2.266.567,9.541,9.541,0,0,1,5.818,6.52,16.149,16.149,0,0,1,.306,4.281v4.119c-.009,5.4-.018,10.441-.027,15.036s-.027,8.75-.036,12.4a19.781,19.781,0,0,1-.342,5.09,9.054,9.054,0,0,1-2.023,3.777,9.254,9.254,0,0,1-5.054,2.968,8.014,8.014,0,0,1-1.529.18c-.351.009-.522,0-.522,0Z" transform="translate(-14.969 -6.233)" fill="#263238"/>
      <path id="Trazado_613817" data-name="Trazado 613817" d="M371.918,136.954c0,.126-6.223.234-13.894.234s-13.894-.108-13.894-.234,6.223-.234,13.894-.234S371.918,136.828,371.918,136.954Z" transform="translate(-34.659 -13.769)" fill="#263238"/>
      <path id="Trazado_613818" data-name="Trazado 613818" d="M165.525,104.76H158.61v5.3h6.915Z" transform="translate(-15.973 -10.55)" fill="#4f6736"/>
      <path id="Trazado_613819" data-name="Trazado 613819" d="M175.256,91.18H168.34v17.509h6.915Z" transform="translate(-16.953 -9.183)" fill="#4f6736"/>
      <path id="Trazado_613820" data-name="Trazado 613820" d="M185.955,99.56H179.04v9.964h6.915Z" transform="translate(-18.031 -10.027)" fill="#4f6736"/>
      <path id="Trazado_613821" data-name="Trazado 613821" d="M196.165,85.54H189.25v22.581h6.915Z" transform="translate(-19.059 -8.615)" fill="#4f6736"/>
      <path id="Trazado_613822" data-name="Trazado 613822" d="M161.554,97.928A3.444,3.444,0,1,1,165,94.484,3.45,3.45,0,0,1,161.554,97.928Zm0-5.989a2.545,2.545,0,1,0,2.545,2.545A2.548,2.548,0,0,0,161.554,91.939Z" transform="translate(-15.923 -9.169)" fill="#4f6736"/>
      <path id="Trazado_613823" data-name="Trazado 613823" d="M172.554,83.359A3.444,3.444,0,1,1,176,79.914,3.45,3.45,0,0,1,172.554,83.359Zm0-5.989a2.545,2.545,0,1,0,2.545,2.545A2.548,2.548,0,0,0,172.554,77.369Z" transform="translate(-17.031 -7.701)" fill="#4f6736"/>
      <path id="Trazado_613824" data-name="Trazado 613824" d="M182.5,92.589a3.444,3.444,0,1,1,3.444-3.444A3.45,3.45,0,0,1,182.5,92.589Zm0-5.989a2.545,2.545,0,1,0,2.545,2.545A2.548,2.548,0,0,0,182.5,86.6Z" transform="translate(-18.033 -8.631)" fill="#4f6736"/>
      <path id="Trazado_613825" data-name="Trazado 613825" d="M193.134,79.209a3.444,3.444,0,1,1,3.444-3.444A3.45,3.45,0,0,1,193.134,79.209Zm0-5.989a2.545,2.545,0,1,0,2.545,2.545A2.548,2.548,0,0,0,193.134,73.219Z" transform="translate(-19.104 -7.283)" fill="#4f6736"/>
      <path id="Trazado_613826" data-name="Trazado 613826" d="M190.226,78.3l-5.554,7.9.736.517,5.554-7.9Z" transform="translate(-18.598 -7.886)" fill="#4f6736"/>
      <path id="Trazado_613827" data-name="Trazado 613827" d="M175.8,82.649l-.65.621,4.227,4.42.65-.622Z" transform="translate(-17.639 -8.323)" fill="#4f6736"/>
      <path id="Trazado_613828" data-name="Trazado 613828" d="M169.6,82.854l-6.231,8.027.71.551,6.231-8.027Z" transform="translate(-16.453 -8.344)" fill="#4f6736"/>
      <path id="Trazado_613829" data-name="Trazado 613829" d="M193.584,123.517a2.617,2.617,0,1,1-2.617-2.617A2.614,2.614,0,0,1,193.584,123.517Z" transform="translate(-18.969 -12.176)" fill="#263238"/>
      <path id="Trazado_613830" data-name="Trazado 613830" d="M266.564,71.407a2.617,2.617,0,1,1-2.617-2.617A2.614,2.614,0,0,1,266.564,71.407Z" transform="translate(-26.319 -6.928)" fill="#263238"/>
      <path id="Trazado_613831" data-name="Trazado 613831" d="M375.724,136.687a2.617,2.617,0,1,1-2.617-2.617A2.614,2.614,0,0,1,375.724,136.687Z" transform="translate(-37.314 -13.502)" fill="#263238"/>
      <path id="Trazado_613832" data-name="Trazado 613832" d="M340.894,92.767a2.617,2.617,0,1,1-2.617-2.617A2.614,2.614,0,0,1,340.894,92.767Z" transform="translate(-33.806 -9.079)" fill="#263238"/>
      <path id="Trazado_613833" data-name="Trazado 613833" d="M199.956,6.17H183.095A9.334,9.334,0,0,0,173.76,15.5v16.87a9.334,9.334,0,0,0,9.335,9.335h16.861a9.334,9.334,0,0,0,9.335-9.335V15.5A9.334,9.334,0,0,0,199.956,6.17Z" transform="translate(-17.499 -0.62)" fill="#fff"/>
      <path id="Trazado_613834" data-name="Trazado 613834" d="M199.934,41.683s.441-.018,1.268-.144a9.02,9.02,0,0,0,3.408-1.223,9.3,9.3,0,0,0,3.741-4.236,9.136,9.136,0,0,0,.764-3.471c.018-1.277,0-2.644,0-4.065,0-2.851-.018-5.98-.027-9.335V16.656a14.724,14.724,0,0,0-.126-2.6,9.025,9.025,0,0,0-2.329-4.766,9.2,9.2,0,0,0-4.847-2.734,14.279,14.279,0,0,0-2.932-.18H183.1a9.117,9.117,0,0,0-8.912,7.212,14.337,14.337,0,0,0-.207,2.986v8.786q0,2.833-.009,5.513a22.5,22.5,0,0,0,.072,2.608,9.8,9.8,0,0,0,.63,2.41,9.227,9.227,0,0,0,6.861,5.477,28,28,0,0,0,4.029.162c1.286,0,2.491.009,3.633.018,2.257.018,4.209.027,5.809.036,1.574.018,2.806.036,3.669.045.4.009.719.018.953.027a1,1,0,0,1,.324.027,1.484,1.484,0,0,1-.324.027c-.243,0-.558.018-.953.027-.872.009-2.1.027-3.669.045-1.6.009-3.552.027-5.809.036-1.133,0-2.347.009-3.633.018a27.753,27.753,0,0,1-4.092-.135,9.551,9.551,0,0,1-7.158-5.647,10.3,10.3,0,0,1-.674-2.518,23.931,23.931,0,0,1-.09-2.662q0-2.684-.009-5.513V16.575a15.652,15.652,0,0,1,.207-3.085,9.573,9.573,0,0,1,9.361-7.581h15.755a15.473,15.473,0,0,1,3.022.2,9.569,9.569,0,0,1,5.072,2.878,9.128,9.128,0,0,1,1.6,2.347,8.753,8.753,0,0,1,.818,2.644,15.786,15.786,0,0,1,.126,2.662v2.554c-.009,3.354-.018,6.475-.027,9.335-.009,1.43,0,2.779-.027,4.074a9.372,9.372,0,0,1-4.7,7.851,8.637,8.637,0,0,1-3.489,1.16,7.685,7.685,0,0,1-1.286.054Z" transform="translate(-17.477 -0.594)" fill="#263238"/>
      <path id="Trazado_613835" data-name="Trazado 613835" d="M194.223,24.786a4.369,4.369,0,0,0,2.6-4.038,4.1,4.1,0,1,0-8.183-.045,4.367,4.367,0,0,0,2.608,4.074c-6.295.953-6.016,7.8-6.016,7.8l14.892.072s.342-6.924-5.908-7.86Z" transform="translate(-18.654 -1.647)" fill="#455a64"/>
      <path id="Trazado_613836" data-name="Trazado 613836" d="M200.147,32.672h-.018L185.21,32.6v-.018a9.9,9.9,0,0,1,.647-3.552,6.837,6.837,0,0,1,1.781-2.644,6.731,6.731,0,0,1,3.534-1.61,4.387,4.387,0,0,1-2.554-4.065,4.5,4.5,0,0,1,1.214-3.094,3.967,3.967,0,0,1,2.9-1.268h.018a4.27,4.27,0,0,1,4.1,4.406,4.376,4.376,0,0,1-2.545,4.029,6.529,6.529,0,0,1,3.489,1.619,6.8,6.8,0,0,1,1.745,2.671,9.991,9.991,0,0,1,.612,3.588v.009Zm-14.892-.117,14.847.072a10.177,10.177,0,0,0-.611-3.552,6.885,6.885,0,0,0-1.736-2.653,6.539,6.539,0,0,0-3.543-1.619h-.081l.072-.045a4.326,4.326,0,0,0,2.59-4.02,4.222,4.222,0,0,0-4.056-4.362h-.018a3.913,3.913,0,0,0-2.86,1.259,4.442,4.442,0,0,0-1.205,3.067,4.31,4.31,0,0,0,2.6,4.056l.072.027h-.081a6.5,6.5,0,0,0-5.351,4.254,9.951,9.951,0,0,0-.647,3.516Z" transform="translate(-18.652 -1.646)" fill="#263238"/>
      <path id="Trazado_613837" data-name="Trazado 613837" d="M408.765,184.59H386.985a9.334,9.334,0,0,0-9.335,9.335v21.781a9.334,9.334,0,0,0,9.335,9.335h21.781a9.334,9.334,0,0,0,9.335-9.335V193.925A9.334,9.334,0,0,0,408.765,184.59Z" transform="translate(-38.035 -18.591)" fill="#fff"/>
      <path id="Trazado_613838" data-name="Trazado 613838" d="M408.741,225.024a9.3,9.3,0,0,0,1.466-.171,9.49,9.49,0,0,0,3.858-1.61,9.317,9.317,0,0,0,3.624-5.4,17.52,17.52,0,0,0,.252-4.146c0-1.484-.009-3.058-.018-4.7,0-3.3-.018-6.915-.027-10.782v-2.959a15.934,15.934,0,0,0-.162-3,9.128,9.128,0,0,0-9.074-7.455H386.987a9.117,9.117,0,0,0-9.11,9.128c0,4.748-.009,9.326-.018,13.687,0,2.176,0,4.308-.009,6.376a20.868,20.868,0,0,0,.1,3.022,8.464,8.464,0,0,0,.854,2.752,9.262,9.262,0,0,0,3.723,3.93,9.491,9.491,0,0,0,4.883,1.178c6.574.027,11.906.054,15.621.072,1.826.018,3.246.036,4.245.045q.7.013,1.106.027a1.347,1.347,0,0,1,.378.027,2.011,2.011,0,0,1-.378.027q-.4,0-1.106.027c-1,.009-2.419.027-4.245.045-3.714.018-9.047.045-15.621.072a9.845,9.845,0,0,1-5.063-1.187,9.533,9.533,0,0,1-3.894-4.074,8.908,8.908,0,0,1-.9-2.869,22,22,0,0,1-.117-3.076q0-3.1-.009-6.376c0-4.361,0-8.939-.018-13.687a9.578,9.578,0,0,1,9.568-9.6h21.673a9.686,9.686,0,0,1,6.295,2.293,9.545,9.545,0,0,1,3.183,5.54,16.266,16.266,0,0,1,.162,3.076v2.959c-.009,3.876-.018,7.491-.027,10.782,0,1.646-.009,3.219-.018,4.7a17.772,17.772,0,0,1-.288,4.209,9.407,9.407,0,0,1-3.768,5.477,9.248,9.248,0,0,1-3.948,1.556,7.593,7.593,0,0,1-1.106.09h-.378Z" transform="translate(-38.011 -18.567)" fill="#263238"/>
      <path id="Trazado_613839" data-name="Trazado 613839" d="M203.435,174.51H181.655a9.334,9.334,0,0,0-9.335,9.335v21.79a9.334,9.334,0,0,0,9.335,9.335h21.781a9.334,9.334,0,0,0,9.335-9.335v-21.79A9.334,9.334,0,0,0,203.435,174.51Z" transform="translate(-17.354 -17.576)" fill="#fff"/>
      <path id="Trazado_613840" data-name="Trazado 613840" d="M203.411,214.934a9.3,9.3,0,0,0,1.466-.171,9.489,9.489,0,0,0,3.858-1.61,9.316,9.316,0,0,0,3.624-5.4,17.513,17.513,0,0,0,.252-4.146c0-1.484-.009-3.058-.018-4.7,0-3.3-.018-6.906-.027-10.782v-2.959a15.952,15.952,0,0,0-.162-3,9.129,9.129,0,0,0-9.074-7.455H181.657a9.117,9.117,0,0,0-9.11,9.128c0,4.748-.009,9.326-.018,13.687,0,2.176,0,4.308-.009,6.376a20.909,20.909,0,0,0,.1,3.022,8.465,8.465,0,0,0,.854,2.752,9.262,9.262,0,0,0,3.723,3.93,9.491,9.491,0,0,0,4.883,1.178c6.574.027,11.906.054,15.62.072,1.826.018,3.255.036,4.245.045q.7.014,1.106.027a1.349,1.349,0,0,1,.378.027,2.005,2.005,0,0,1-.378.027q-.4,0-1.106.027c-1,.009-2.419.027-4.245.045-3.714.018-9.047.045-15.62.072a9.845,9.845,0,0,1-5.063-1.187,9.533,9.533,0,0,1-3.894-4.074,8.906,8.906,0,0,1-.9-2.869,21.991,21.991,0,0,1-.117-3.076q0-3.1-.009-6.376c0-4.362,0-8.939-.018-13.687a9.577,9.577,0,0,1,9.568-9.6h21.673a9.686,9.686,0,0,1,6.295,2.293,9.545,9.545,0,0,1,3.183,5.54,16.268,16.268,0,0,1,.162,3.076v2.959c-.009,3.876-.018,7.491-.027,10.782,0,1.646-.009,3.219-.018,4.7a17.78,17.78,0,0,1-.288,4.209,9.406,9.406,0,0,1-3.768,5.477,9.246,9.246,0,0,1-3.948,1.556,7.589,7.589,0,0,1-1.106.09h-.378Z" transform="translate(-17.33 -17.55)" fill="#263238"/>
      <path id="Trazado_613841" data-name="Trazado 613841" d="M195.614,195.7a4.955,4.955,0,0,0,2.959-4.6,4.668,4.668,0,1,0-9.317-.045,4.976,4.976,0,0,0,2.968,4.64c-7.167,1.079-6.844,8.876-6.844,8.876l16.96.081s.387-7.878-6.718-8.948Z" transform="translate(-18.669 -18.744)" fill="#4f6736"/>
      <path id="Trazado_613842" data-name="Trazado 613842" d="M259.142,46.771a9.782,9.782,0,0,1-3.058-.486,9.986,9.986,0,1,1,3.067.486Zm.009-18.192a8.191,8.191,0,1,0,2.509.4A8.217,8.217,0,0,0,259.151,28.579Z" transform="translate(-25.094 -2.697)" fill="#263238"/>
      <path id="Trazado_613843" data-name="Trazado 613843" d="M274.037,54.574a.921.921,0,0,1-.665-.288L265.944,46.2a.9.9,0,1,1,1.322-1.214l7.428,8.085a.9.9,0,0,1-.054,1.268.87.87,0,0,1-.612.234Z" transform="translate(-26.76 -4.501)" fill="#263238"/>
      <path id="Trazado_613844" data-name="Trazado 613844" d="M403,150.517a16.664,16.664,0,1,1,16.664-16.664A16.68,16.68,0,0,1,403,150.517Zm0-32.437a15.764,15.764,0,1,0,15.764,15.764A15.783,15.783,0,0,0,403,118.08Z" transform="translate(-38.91 -11.802)" fill="#4f6736"/>
      <path id="Trazado_613845" data-name="Trazado 613845" d="M403.393,150.467a15.428,15.428,0,0,1-4.272-3.93,19.727,19.727,0,0,1-3.9-13.022,20.431,20.431,0,0,1,4.568-12.68,14.856,14.856,0,0,1,4.281-3.606l.4.809c-.081.036-7.923,4.056-8.345,15.513s7.635,16.088,7.716,16.133Z" transform="translate(-39.803 -11.806)" fill="#4f6736"/>
      <path id="Trazado_613846" data-name="Trazado 613846" d="M405.015,150.459l-.477-.764c.081-.045,7.878-5.018,7.455-16.484-.423-11.448-7.932-15.126-8-15.162l.378-.809c.333.153,8.076,3.921,8.525,15.944.441,12.005-7.8,17.23-7.878,17.284Z" transform="translate(-40.688 -11.807)" fill="#4f6736"/>
      <path id="Trazado_613847" data-name="Trazado 613847" d="M403.591,129.288c-6.754,0-11.1-2.293-13.561-4.218l.558-.71c2.347,1.835,6.511,4.02,13.013,4.02s10.27-2.176,12.5-4l.567.692c-2.347,1.915-6.52,4.209-13.076,4.209Z" transform="translate(-39.282 -12.525)" fill="#4f6736"/>
      <path id="Trazado_613848" data-name="Trazado 613848" d="M416.149,145.982c-2.347-1.781-6.52-3.9-13.013-3.9s-10.27,2.113-12.509,3.885l-.558-.7c2.347-1.862,6.52-4.083,13.067-4.083a22.4,22.4,0,0,1,13.561,4.092l-.54.719Z" transform="translate(-39.286 -14.219)" fill="#4f6736"/>
      <path id="Trazado_613849" data-name="Trazado 613849" d="M419.33,135.27H387.28v.9h32.05Z" transform="translate(-39.005 -13.623)" fill="#4f6736"/>
      <path id="Trazado_613850" data-name="Trazado 613850" d="M342.976,276.38H320.17v22.806h22.806Z" transform="translate(-32.245 -27.836)" fill="#e0e0e0"/>
      <path id="Trazado_613851" data-name="Trazado 613851" d="M375.409,277.92H351.92v1.951h23.489Z" transform="translate(-35.443 -27.991)" fill="#e0e0e0"/>
      <path id="Trazado_613852" data-name="Trazado 613852" d="M375.409,282.94H351.92v1.951h23.489Z" transform="translate(-35.443 -28.497)" fill="#e0e0e0"/>
      <path id="Trazado_613853" data-name="Trazado 613853" d="M375.409,287.95H351.92V289.9h23.489Z" transform="translate(-35.443 -29.001)" fill="#e0e0e0"/>
      <path id="Trazado_613854" data-name="Trazado 613854" d="M375.409,292.97H351.92v1.951h23.489Z" transform="translate(-35.443 -29.507)" fill="#e0e0e0"/>
      <path id="Trazado_613855" data-name="Trazado 613855" d="M375.409,297.99H351.92v1.952h23.489Z" transform="translate(-35.443 -30.012)" fill="#e0e0e0"/>
      <path id="Trazado_613856" data-name="Trazado 613856" d="M319.76,252.55h49.694a6.344,6.344,0,0,1,6.34,6.34V267.8H313.51v-9A6.248,6.248,0,0,1,319.76,252.55Z" transform="translate(-31.575 -25.436)" fill="#e0e0e0"/>
      <path id="Trazado_613857" data-name="Trazado 613857" d="M369.951,307.324a6.8,6.8,0,0,0,2.2-.486,5.78,5.78,0,0,0,3.507-5.018c-.018-5.684-.036-13.885-.063-24.011,0-5.072-.018-10.621-.027-16.583V258.97a6.519,6.519,0,0,0-.252-2.212,5.668,5.668,0,0,0-2.824-3.39,5.735,5.735,0,0,0-2.212-.621c-.773-.045-1.61-.009-2.419-.018H362.9c-13.408,0-28.147.009-43.615.018a5.725,5.725,0,0,0-2.671.656,5.589,5.589,0,0,0-2.005,1.853,5.487,5.487,0,0,0-.872,2.563c-.045.908-.009,1.88-.027,2.815v11.133c0,7.293-.009,14.335-.018,21.043v7.4a11.157,11.157,0,0,0,.117,2.347,5.718,5.718,0,0,0,4.532,4.46,11.961,11.961,0,0,0,2.212.108l16.583.027c10.126.027,18.327.054,24.02.072,2.824.018,5.018.036,6.529.045.737.009,1.295.018,1.7.027a4.567,4.567,0,0,1,.576.027s-.2.018-.576.027q-.594,0-1.7.027c-1.511.009-3.705.027-6.529.045-5.683.018-13.885.045-24.02.072-5.072,0-10.63.018-16.583.027a11.6,11.6,0,0,1-2.284-.108,6.064,6.064,0,0,1-2.185-.872,6.13,6.13,0,0,1-2.671-3.9,12.379,12.379,0,0,1-.126-2.437v-7.4c0-6.709,0-13.741-.018-21.043V260.624c.009-.953-.027-1.87.027-2.851a5.964,5.964,0,0,1,.944-2.788,5.957,5.957,0,0,1,5.072-2.716c15.468,0,30.207.009,43.615.018h4.964c.827.009,1.61-.018,2.446.027a6.218,6.218,0,0,1,2.374.674,6.075,6.075,0,0,1,3.013,3.642,7.144,7.144,0,0,1,.261,2.329v2.257c-.009,5.962-.018,11.511-.027,16.583-.027,10.144-.027,18.345-.09,24.02a5.793,5.793,0,0,1-1.4,3.48,5.854,5.854,0,0,1-2.248,1.61,6.207,6.207,0,0,1-1.655.4c-.387.009-.585,0-.585,0Z" transform="translate(-31.55 -25.408)" fill="#263238"/>
      <path id="Trazado_613858" data-name="Trazado 613858" d="M351.334,252.257a2.617,2.617,0,1,1-2.617-2.617A2.614,2.614,0,0,1,351.334,252.257Z" transform="translate(-34.857 -25.143)" fill="#263238"/>
      <path id="Trazado_613859" data-name="Trazado 613859" d="M389.12,213.078a13.022,13.022,0,0,0,20.036-11.565,9.255,9.255,0,0,0,2.284-2.374,9.238,9.238,0,0,1-2.626.719,4.6,4.6,0,0,0,2.014-2.536,9.234,9.234,0,0,1-2.9,1.115,4.582,4.582,0,0,0-7.806,4.173,12.985,12.985,0,0,1-9.433-4.784,4.59,4.59,0,0,0,1.421,6.115,4.627,4.627,0,0,1-2.077-.576,4.594,4.594,0,0,0,3.669,4.55,4.688,4.688,0,0,1-2.068.081,4.6,4.6,0,0,0,4.281,3.183,9.2,9.2,0,0,1-6.781,1.9Z" transform="translate(-39.19 -19.84)" fill="#455a64"/>
      <path id="Trazado_613860" data-name="Trazado 613860" d="M356.458,63.027c1.376,4.82-1.763,9.532-6.7,9.532H323.787a6.487,6.487,0,0,1-6.3-8.156,5.377,5.377,0,0,1,.225-.638,6.879,6.879,0,0,1,7.455-4.047A12.294,12.294,0,0,1,335.621,49.4,12.17,12.17,0,0,1,348,57.209S354.686,56.849,356.458,63.027Z" transform="translate(-31.95 -4.968)" fill="#4f6736"/>
      <path id="Trazado_613861" data-name="Trazado 613861" d="M335.919,78.021V68.048h-3.9a.561.561,0,0,1-.459-.89l6.43-9.074a.564.564,0,0,1,.917,0l6.421,9a.561.561,0,0,1-.459.89h-3.8V78.021Z" transform="translate(-33.382 -5.825)" fill="#fff"/>
      <path id="Trazado_613862" data-name="Trazado 613862" d="M347.864,222.492,336.129,181.17H233.521l-13.372,41.178a3.85,3.85,0,0,0,3.624,5.063h46.862l1.9-1.9h22.131l1.9,1.9h47.626a3.856,3.856,0,0,0,3.669-4.928Z" transform="translate(-22.152 -18.246)" fill="#e0e0e0"/>
      <g id="Grupo_1016085" data-name="Grupo 1016085" transform="translate(197.803 162.924)" opacity="0.3">
        <path id="Trazado_613863" data-name="Trazado 613863" d="M347.864,222.492,336.129,181.17H233.521l-13.372,41.178a3.85,3.85,0,0,0,3.624,5.063h46.862l1.9-1.9h22.131l1.9,1.9h47.626a3.856,3.856,0,0,0,3.669-4.928Z" transform="translate(-219.955 -181.17)"/>
      </g>
      <path id="Trazado_613864" data-name="Trazado 613864" d="M234.99,172.722V112.093a4.339,4.339,0,0,1,4.326-4.353h94.29a4.339,4.339,0,0,1,4.326,4.353v60.62H234.99Z" transform="translate(-23.666 -10.851)" fill="#e0e0e0"/>
      <path id="Trazado_613865" data-name="Trazado 613865" d="M332.4,114.41H241.91v53.912H332.4Z" transform="translate(-24.363 -11.522)" fill="#fff"/>
      <path id="Trazado_613866" data-name="Trazado 613866" d="M332.378,168.3s-.009-.342-.018-.98c0-.656-.009-1.6-.018-2.833-.009-2.491-.027-6.133-.045-10.8-.027-9.344-.054-22.8-.1-39.29l.18.18c-24.406.018-56.034.036-90.486.054l.234-.234c0,19.092-.009,37.32-.018,53.912l-.216-.216,65.081.108c7.995.027,14.334.045,18.687.063,2.167.009,3.84.018,4.982.027.558,0,.989.009,1.286.009s.45.009.45.009-.135,0-.423.009-.719,0-1.268.009c-1.133,0-2.788.018-4.937.027-4.344.018-10.665.036-18.642.063-16.016.027-38.66.063-65.225.108h-.216v-.216c0-16.592-.009-34.811-.018-53.912v-.234h.243c34.451.018,66.079.036,90.486.054h.18v.18c-.045,16.547-.072,30.036-.1,39.406-.018,4.658-.036,8.282-.045,10.764,0,1.223-.018,2.149-.018,2.8,0,.63-.018.944-.018.944Z" transform="translate(-24.337 -11.497)" fill="#263238"/>
      <path id="Trazado_613867" data-name="Trazado 613867" d="M293.707,111.067a1.664,1.664,0,1,1-1.664-1.637A1.649,1.649,0,0,1,293.707,111.067Z" transform="translate(-29.245 -11.021)" fill="#263238"/>
      <path id="Trazado_613868" data-name="Trazado 613868" d="M347.864,220.8,336.129,179.48H233.521l-13.372,41.178a3.85,3.85,0,0,0,3.624,5.063h46.862l1.9-1.9h22.131l1.9,1.9h47.626a3.856,3.856,0,0,0,3.669-4.928Z" transform="translate(-22.152 -18.076)" fill="#e0e0e0"/>
      <path id="Trazado_613869" data-name="Trazado 613869" d="M330,182.4l-89.424-.306a2.092,2.092,0,0,0-2.023,1.241l-7.167,20.333c-.387,1.106.612,2.212,2.014,2.212h103.48c1.394,0,2.392-1.1,2.014-2.2L332,183.637A2.085,2.085,0,0,0,330,182.378Z" transform="translate(-23.294 -18.339)" fill="#ebebeb"/>
      <g id="Grupo_1016086" data-name="Grupo 1016086" transform="translate(241.412 189.893)" opacity="0.1">
        <path id="Trazado_613870" data-name="Trazado 613870" d="M305.959,224.343h-35.3a2.378,2.378,0,0,1-2.14-3.031l2-8.345a2.257,2.257,0,0,1,2.14-1.808h31.529a2.269,2.269,0,0,1,2.158,1.871l1.772,8.345A2.373,2.373,0,0,1,305.959,224.343Z" transform="translate(-268.448 -211.16)"/>
      </g>
      <path id="Trazado_613871" data-name="Trazado 613871" d="M309.17,189.047l-.917-4.254a.644.644,0,0,0-.62-.5h-5.5a.637.637,0,0,0-.63.728l.612,4.263a.638.638,0,0,0,.629.549h5.818a.641.641,0,0,0,.62-.773Z" transform="translate(-30.364 -18.561)" fill="#263238"/>
      <path id="Trazado_613872" data-name="Trazado 613872" d="M290.763,189.146l-.4-4.281a.635.635,0,0,0-.629-.576h-5.63a.639.639,0,0,0-.638.656l.162,4.29a.636.636,0,0,0,.639.612h5.863A.643.643,0,0,0,290.763,189.146Z" transform="translate(-28.549 -18.561)" fill="#263238"/>
      <path id="Trazado_613873" data-name="Trazado 613873" d="M300.355,189.1l-.611-4.263a.638.638,0,0,0-.63-.549h-6.475a.631.631,0,0,0-.629.692l.4,4.272a.634.634,0,0,0,.629.576h6.691a.649.649,0,0,0,.629-.737Z" transform="translate(-29.409 -18.561)" fill="#263238"/>
      <path id="Trazado_613874" data-name="Trazado 613874" d="M254.817,189.218l.872-3.885a.86.86,0,0,0-.836-1.043H249.52a.847.847,0,0,0-.818.621l-1.115,3.894a.853.853,0,0,0,.818,1.088h5.576A.873.873,0,0,0,254.817,189.218Z" transform="translate(-24.932 -18.561)" fill="#263238"/>
      <path id="Trazado_613875" data-name="Trazado 613875" d="M340.519,188.912l-1.619-4.218a.635.635,0,0,0-.594-.4H327.839a.634.634,0,0,0-.594.854l1.574,4.227a.63.63,0,0,0,.593.414l10.513-.018a.638.638,0,0,0,.594-.863Z" transform="translate(-32.954 -18.561)" fill="#263238"/>
      <path id="Trazado_613876" data-name="Trazado 613876" d="M281.143,184.29h-6.088a.641.641,0,0,0-.638.6l-.207,4.3a.636.636,0,0,0,.638.665H281.3a.639.639,0,0,0,.63-.665l-.162-4.29a.636.636,0,0,0-.638-.612Z" transform="translate(-27.616 -18.561)" fill="#263238"/>
      <path id="Trazado_613877" data-name="Trazado 613877" d="M246.152,184.29h-4.245a.843.843,0,0,0-.8.567l-1.4,3.9a.855.855,0,0,0,.8,1.142h4.532a.855.855,0,0,0,.818-.629l1.115-3.894A.853.853,0,0,0,246.152,184.29Z" transform="translate(-24.136 -18.561)" fill="#263238"/>
      <path id="Trazado_613878" data-name="Trazado 613878" d="M263.6,189.316l.567-4.317a.634.634,0,0,0-.63-.719H258.12a.636.636,0,0,0-.621.495l-.971,4.317a.636.636,0,0,0,.62.773h5.818a.646.646,0,0,0,.629-.558Z" transform="translate(-25.834 -18.56)" fill="#263238"/>
      <path id="Trazado_613879" data-name="Trazado 613879" d="M265.826,184.849l-.567,4.307a.634.634,0,0,0,.629.719h6.025a.634.634,0,0,0,.629-.612l.207-4.3a.636.636,0,0,0-.639-.665h-5.665a.638.638,0,0,0-.629.549Z" transform="translate(-26.714 -18.562)" fill="#263238"/>
      <path id="Trazado_613880" data-name="Trazado 613880" d="M318.292,188.983l-1.259-4.245a.637.637,0,0,0-.612-.459h-5.872a.637.637,0,0,0-.621.764l.917,4.254a.634.634,0,0,0,.621.5h6.2a.65.65,0,0,0,.612-.827Z" transform="translate(-31.213 -18.56)" fill="#263238"/>
      <path id="Trazado_613881" data-name="Trazado 613881" d="M327,188.939l-1.574-4.236a.63.63,0,0,0-.593-.414h-5.387a.639.639,0,0,0-.612.818l1.259,4.245a.637.637,0,0,0,.611.459h5.71a.641.641,0,0,0,.594-.863Z" transform="translate(-32.109 -18.561)" fill="#263238"/>
      <path id="Trazado_613882" data-name="Trazado 613882" d="M281.351,191.55h-6.637a.634.634,0,0,0-.639.6l-.216,4.433a.636.636,0,0,0,.638.665h7.014a.639.639,0,0,0,.63-.665l-.162-4.424a.636.636,0,0,0-.638-.612Z" transform="translate(-27.581 -19.292)" fill="#263238"/>
      <path id="Trazado_613883" data-name="Trazado 613883" d="M329.7,196.335l-1.628-4.361a.63.63,0,0,0-.594-.414H321.6a.639.639,0,0,0-.612.818l1.295,4.371a.637.637,0,0,0,.611.459h6.214a.641.641,0,0,0,.594-.863Z" transform="translate(-32.325 -19.293)" fill="#263238"/>
      <path id="Trazado_613884" data-name="Trazado 613884" d="M320.429,196.378l-1.3-4.379a.636.636,0,0,0-.611-.459h-6.394a.629.629,0,0,0-.621.764l.944,4.389a.634.634,0,0,0,.621.5h6.745a.65.65,0,0,0,.611-.827Z" transform="translate(-31.371 -19.291)" fill="#263238"/>
      <path id="Trazado_613885" data-name="Trazado 613885" d="M264.929,197.259H271.5a.64.64,0,0,0,.629-.611l.216-4.442a.634.634,0,0,0-.63-.665h-6.205a.638.638,0,0,0-.63.549l-.585,4.451A.634.634,0,0,0,264.929,197.259Z" transform="translate(-26.618 -19.291)" fill="#263238"/>
      <path id="Trazado_613886" data-name="Trazado 613886" d="M284.54,197.242h6.223a.644.644,0,0,0,.63-.7l-.4-4.415a.634.634,0,0,0-.629-.576h-5.98a.639.639,0,0,0-.639.657l.162,4.424A.636.636,0,0,0,284.54,197.242Z" transform="translate(-28.576 -19.292)" fill="#263238"/>
      <path id="Trazado_613887" data-name="Trazado 613887" d="M292.67,192.241l.4,4.406a.634.634,0,0,0,.63.576h7.032a.649.649,0,0,0,.629-.737l-.629-4.4a.638.638,0,0,0-.63-.549H293.3a.631.631,0,0,0-.629.692Z" transform="translate(-29.475 -19.291)" fill="#263238"/>
      <path id="Trazado_613888" data-name="Trazado 613888" d="M310.714,196.442l-.944-4.388a.644.644,0,0,0-.62-.5h-5.98a.634.634,0,0,0-.63.719l.63,4.4a.638.638,0,0,0,.629.549h6.3a.641.641,0,0,0,.621-.773Z" transform="translate(-30.469 -19.292)" fill="#263238"/>
      <path id="Trazado_613889" data-name="Trazado 613889" d="M252.6,191.54H239.345a.644.644,0,0,0-.594.4l-1.727,4.487a.634.634,0,0,0,.594.863l13.984-.018a.636.636,0,0,0,.62-.495l1-4.46a.636.636,0,0,0-.62-.773Z" transform="translate(-23.867 -19.291)" fill="#263238"/>
      <path id="Trazado_613890" data-name="Trazado 613890" d="M255.49,197.278h6.439a.646.646,0,0,0,.629-.558l.585-4.451a.634.634,0,0,0-.63-.719H256.5a.636.636,0,0,0-.62.495l-1,4.46a.636.636,0,0,0,.62.773Z" transform="translate(-25.668 -19.292)" fill="#263238"/>
      <path id="Trazado_613891" data-name="Trazado 613891" d="M339.251,197.181H343.4a.637.637,0,0,0,.585-.881l-1.745-4.344a.633.633,0,0,0-.585-.4h-3.813a.632.632,0,0,0-.6.827l1.412,4.353A.637.637,0,0,0,339.251,197.181Z" transform="translate(-33.961 -19.293)" fill="#263238"/>
      <path id="Trazado_613892" data-name="Trazado 613892" d="M336.979,196.353,335.567,192a.637.637,0,0,0-.6-.441h-4.415a.634.634,0,0,0-.594.854l1.619,4.362a.63.63,0,0,0,.594.414h4.2a.636.636,0,0,0,.6-.836Z" transform="translate(-33.227 -19.293)" fill="#263238"/>
      <path id="Trazado_613893" data-name="Trazado 613893" d="M264.214,205.489h6.52a.931.931,0,0,0,.953-.9l.225-4.631a.948.948,0,0,0-.953-1h-6.133a.959.959,0,0,0-.944.836l-.6,4.622a.954.954,0,0,0,.944,1.079Z" transform="translate(-26.515 -20.038)" fill="#263238"/>
      <path id="Trazado_613894" data-name="Trazado 613894" d="M343.782,198.949H333.773a.96.96,0,0,0-.9,1.286l1.763,4.721a.941.941,0,0,0,.89.62l10.1.018a.955.955,0,0,0,.89-1.3l-1.853-4.739a.955.955,0,0,0-.89-.611Z" transform="translate(-33.519 -20.036)" fill="#263238"/>
      <path id="Trazado_613895" data-name="Trazado 613895" d="M254.142,199.7l-1.034,4.6a.966.966,0,0,0,.935,1.169h6.448a.944.944,0,0,0,.953-.818l.6-4.613a.954.954,0,0,0-.944-1.079h-6.016a.962.962,0,0,0-.935.746Z" transform="translate(-25.489 -20.038)" fill="#263238"/>
      <path id="Trazado_613896" data-name="Trazado 613896" d="M244.374,199.644l-1.358,4.757a.822.822,0,0,0,.791,1.052h6.583a.82.82,0,0,0,.809-.629l1.088-4.847a.827.827,0,0,0-.818-1.007l-6.313.081A.828.828,0,0,0,244.374,199.644Z" transform="translate(-24.471 -20.039)" fill="#263238"/>
      <path id="Trazado_613897" data-name="Trazado 613897" d="M313.2,200.111l1.016,4.694a.961.961,0,0,0,.935.755h6.673a.944.944,0,0,0,.917-1.214l-1.394-4.7a.955.955,0,0,0-.917-.683h-6.295a.959.959,0,0,0-.935,1.16Z" transform="translate(-31.541 -20.038)" fill="#263238"/>
      <path id="Trazado_613898" data-name="Trazado 613898" d="M273.7,199.857l-.225,4.64a.948.948,0,0,0,.953,1l33.975.054a.956.956,0,0,0,.935-1.16l-1.016-4.694a.961.961,0,0,0-.935-.755H274.658a.957.957,0,0,0-.953.908Z" transform="translate(-27.543 -20.036)" fill="#263238"/>
      <path id="Trazado_613899" data-name="Trazado 613899" d="M236.059,199.445l-1.835,4.973a.754.754,0,0,0,.71,1.016h5.522a.735.735,0,0,0,.728-.54l1.421-4.982a.756.756,0,0,0-.728-.962h-5.117a.758.758,0,0,0-.71.495Z" transform="translate(-23.584 -20.037)" fill="#263238"/>
      <path id="Trazado_613900" data-name="Trazado 613900" d="M323.316,200.183l1.394,4.712a.955.955,0,0,0,.917.683h6.1a.947.947,0,0,0,.9-1.277l-1.754-4.721a.944.944,0,0,0-.9-.62h-5.737a.958.958,0,0,0-.917,1.232Z" transform="translate(-32.558 -20.038)" fill="#263238"/>
      <path id="Trazado_613901" data-name="Trazado 613901" d="M338.043,179.624c0,.126-23,.234-51.367.234s-51.376-.108-51.376-.234,22.995-.234,51.376-.234S338.043,179.5,338.043,179.624Z" transform="translate(-23.697 -18.067)" fill="#263238"/>
      <path id="Trazado_613902" data-name="Trazado 613902" d="M269.2,130.931A13.451,13.451,0,0,1,272.3,129l.189-3.381,5.531-.926,1.286,3.139a14.1,14.1,0,0,1,3.561.818l2.527-2.257,4.568,3.255-1.313,3.12a13.456,13.456,0,0,1,1.933,3.1l3.381.189.926,5.531-3.139,1.286a14.107,14.107,0,0,1-.818,3.561l2.257,2.527-3.255,4.568-3.121-1.313a13.45,13.45,0,0,1-3.1,1.933l-.189,3.381-5.531.926-1.286-3.139a14.106,14.106,0,0,1-3.561-.818l-2.527,2.257-4.568-3.255,1.313-3.121a13.451,13.451,0,0,1-1.933-3.1l-3.381-.189-.926-5.531,3.139-1.286a14.105,14.105,0,0,1,.818-3.561l-2.257-2.527,3.255-4.568,3.13,1.313Zm4.056,6.942a6.015,6.015,0,1,0,8.39-1.4A6.008,6.008,0,0,0,273.251,137.873Z" transform="translate(-26.298 -12.558)" fill="#f5f5f5"/>
      <path id="Trazado_613903" data-name="Trazado 613903" d="M303.379,146.826a9.63,9.63,0,0,1,2.1-1.313l.135-2.293,3.741-.63.872,2.122a9.022,9.022,0,0,1,2.41.558l1.709-1.529,3.094,2.2-.89,2.113a9.3,9.3,0,0,1,1.313,2.1l2.293.126.629,3.741-2.122.872a9.025,9.025,0,0,1-.558,2.41l1.529,1.709-2.2,3.094-2.113-.89a9.3,9.3,0,0,1-2.1,1.313l-.126,2.293-3.741.629-.872-2.122a9.021,9.021,0,0,1-2.41-.558l-1.709,1.529-3.094-2.2.89-2.113a9.3,9.3,0,0,1-1.313-2.1l-2.293-.126-.629-3.741,2.122-.872a9.026,9.026,0,0,1,.558-2.41l-1.529-1.709,2.2-3.094,2.113.89Zm2.752,4.7a4.075,4.075,0,1,0,5.683-.953A4.076,4.076,0,0,0,306.13,151.529Z" transform="translate(-30.004 -14.361)" fill="#f5f5f5"/>
      <path id="Trazado_613904" data-name="Trazado 613904" d="M301.5,122.53a8.047,8.047,0,0,1,1.861-1.16l.117-2.032,3.318-.558.773,1.88a8.428,8.428,0,0,1,2.131.495l1.511-1.349,2.734,1.951-.782,1.871a8.047,8.047,0,0,1,1.16,1.862l2.032.117.557,3.318-1.88.773a8.063,8.063,0,0,1-.495,2.131l1.349,1.511-1.951,2.734-1.871-.782a8.046,8.046,0,0,1-1.861,1.16l-.117,2.032-3.318.558-.773-1.879a8.432,8.432,0,0,1-2.131-.495l-1.511,1.349-2.734-1.951.782-1.871a8.046,8.046,0,0,1-1.16-1.862l-2.032-.117-.557-3.318,1.879-.773a8.433,8.433,0,0,1,.495-2.131l-1.349-1.511,1.951-2.734Zm2.437,4.164a3.6,3.6,0,1,0,5.027-.845A3.594,3.594,0,0,0,303.934,126.694Z" transform="translate(-29.877 -11.962)" fill="#f5f5f5"/>
      <path id="Trazado_613905" data-name="Trazado 613905" d="M258.11,144.7l.648-1.457a4.433,4.433,0,0,0,2.3.683c.809,0,1.133-.225,1.133-.567,0-1.106-3.957-.3-3.957-2.887,0-1.241,1.016-2.257,3.084-2.257a5.222,5.222,0,0,1,2.527.6l-.6,1.466a4.1,4.1,0,0,0-1.933-.54c-.827,0-1.124.279-1.124.629,0,1.061,3.948.27,3.948,2.833,0,1.214-1.016,2.248-3.085,2.248a5.469,5.469,0,0,1-2.932-.764Z" transform="translate(-25.995 -13.92)" fill="#263238"/>
      <path id="Trazado_613906" data-name="Trazado 613906" d="M265.41,141.844a3.875,3.875,0,1,1,3.867,3.624A3.647,3.647,0,0,1,265.41,141.844Zm5.746,0a1.882,1.882,0,1,0-1.88,1.987A1.863,1.863,0,0,0,271.156,141.844Z" transform="translate(-26.73 -13.92)" fill="#263238"/>
      <path id="Trazado_613907" data-name="Trazado 613907" d="M277.139,139.9v1.529h3.076v1.52h-3.076v2.383H275.17v-6.96h5.459v1.52h-3.489Z" transform="translate(-27.713 -13.936)" fill="#263238"/>
      <path id="Trazado_613908" data-name="Trazado 613908" d="M283.74,139.945H281.6V138.38h6.241v1.565H285.71v5.4H283.74Z" transform="translate(-28.361 -13.937)" fill="#263238"/>
      <path id="Trazado_613909" data-name="Trazado 613909" d="M300.027,138.38l-2.257,6.96h-2.113l-1.331-4.236-1.394,4.236h-2.1l-2.257-6.96H290.6l1.4,4.442,1.475-4.442h1.808l1.4,4.487,1.466-4.487h1.871Z" transform="translate(-29.063 -13.937)" fill="#263238"/>
      <path id="Trazado_613910" data-name="Trazado 613910" d="M306.4,143.992h-2.941l-.548,1.349H300.9l3.076-6.96h1.942L309,145.34h-2.05Zm-.576-1.457-.9-2.23-.9,2.23h1.8Z" transform="translate(-30.305 -13.937)" fill="#263238"/>
      <path id="Trazado_613911" data-name="Trazado 613911" d="M313.58,143.5h-1.07v1.853H310.54v-6.96h3.184c1.9,0,3.093.989,3.093,2.581a2.293,2.293,0,0,1-1.367,2.194l1.5,2.185h-2.113l-1.268-1.853Zm.018-3.561h-1.1v2.041h1.1c.818,0,1.223-.378,1.223-1.016S314.416,139.937,313.6,139.937Z" transform="translate(-31.276 -13.938)" fill="#263238"/>
      <path id="Trazado_613912" data-name="Trazado 613912" d="M324.314,143.821v1.52H318.72v-6.96h5.459v1.52h-3.516v1.178h3.094v1.475h-3.094v1.277H324.3Z" transform="translate(-32.099 -13.937)" fill="#263238"/>
      <path id="Trazado_613913" data-name="Trazado 613913" d="M256.48,148.04h.953v6.646h-.953Z" transform="translate(-25.831 -14.91)" fill="#263238"/>
      <path id="Trazado_613914" data-name="Trazado 613914" d="M265.469,148.04v6.646h-.782l-3.984-4.955v4.955h-.953V148.04h.782L264.516,153V148.04Z" transform="translate(-26.16 -14.91)" fill="#263238"/>
      <path id="Trazado_613915" data-name="Trazado 613915" d="M269.525,148.867H267.25v-.827h5.495v.827h-2.275v5.818h-.944Z" transform="translate(-26.915 -14.91)" fill="#263238"/>
      <path id="Trazado_613916" data-name="Trazado 613916" d="M279.34,153.858v.827h-4.82V148.04h4.694v.827h-3.741v2.041h3.336v.809h-3.336v2.149h3.876Z" transform="translate(-27.648 -14.91)" fill="#263238"/>
      <path id="Trazado_613917" data-name="Trazado 613917" d="M286.093,151.323H287v2.59a3.941,3.941,0,0,1-2.518.845,3.4,3.4,0,1,1,2.572-5.773l-.584.585a2.639,2.639,0,0,0-1.924-.773,2.556,2.556,0,1,0-.009,5.108,2.807,2.807,0,0,0,1.556-.432v-2.149Z" transform="translate(-28.294 -14.901)" fill="#263238"/>
      <path id="Trazado_613918" data-name="Trazado 613918" d="M294.143,154.686l-1.43-2.041c-.135.009-.279.018-.414.018h-1.646v2.023H289.7V148.04h2.59c1.727,0,2.77.872,2.77,2.32a2.092,2.092,0,0,1-1.466,2.1l1.574,2.23h-1.025Zm-.027-4.335c0-.953-.638-1.493-1.853-1.493h-1.61v2.995h1.61C293.477,151.853,294.115,151.3,294.115,150.351Z" transform="translate(-29.176 -14.91)" fill="#263238"/>
      <path id="Trazado_613919" data-name="Trazado 613919" d="M301.493,153.032h-3.534l-.728,1.664h-.98l3.013-6.646h.935l3.022,6.646h-1Zm-.333-.755-1.43-3.255-1.43,3.255h2.86Z" transform="translate(-29.836 -14.911)" fill="#263238"/>
      <path id="Trazado_613920" data-name="Trazado 613920" d="M305.935,148.867H303.66v-.827h5.495v.827h-2.275v5.818h-.944Z" transform="translate(-30.583 -14.91)" fill="#263238"/>
      <path id="Trazado_613921" data-name="Trazado 613921" d="M310.92,148.04h.953v6.646h-.953Z" transform="translate(-31.314 -14.91)" fill="#263238"/>
      <path id="Trazado_613922" data-name="Trazado 613922" d="M313.59,151.359a3.537,3.537,0,1,1,3.543,3.4A3.382,3.382,0,0,1,313.59,151.359Zm6.115,0a2.581,2.581,0,1,0-2.572,2.554A2.491,2.491,0,0,0,319.705,151.359Z" transform="translate(-31.583 -14.901)" fill="#263238"/>
      <path id="Trazado_613923" data-name="Trazado 613923" d="M328.769,148.04v6.646h-.782L324,149.731v4.955h-.953V148.04h.782L327.816,153V148.04Z" transform="translate(-32.536 -14.91)" fill="#263238"/>
      <path id="Trazado_613924" data-name="Trazado 613924" d="M74.744,125.99c-4.11-2.527-5.18-8.507-3.04-12.833s6.79-7,11.538-7.833a22.193,22.193,0,0,1,19.218,6.061c2.671,2.671,4.847,6.169,8.435,7.356,3.147,1.043,6.6.009,9.892.387,4.415.5,8.246,3.588,10.558,7.383s3.318,8.246,3.9,12.653c.54,4.047.917,8.489,3.777,11.4,2.788,2.842,7.122,3.39,10.567,5.4,6.475,3.768,8.687,13.3,4.55,19.532-1.322,1.987-3.228,3.822-3.354,6.205-.108,2.176,1.322,4.092,2.014,6.16,1.772,5.324-2.509,11.745-8.112,12.149-2.824.207-5.872-.854-8.39.45-2.5,1.295-3.39,4.344-4.973,6.673a12.112,12.112,0,0,1-14.712,4.029c-2.1-.989-4.083-2.644-6.394-2.455s-4.092,2.185-6.358,2.662c-2.968.621-5.818-1.529-7.617-3.957s-3.076-5.306-5.369-7.284c-3-2.59-7.167-3.183-10.935-4.415A30.671,30.671,0,0,1,62,153.013" transform="translate(-5.929 -10.575)" fill="#263238"/>
      <path id="Trazado_613925" data-name="Trazado 613925" d="M125.136,186.58a8.314,8.314,0,0,1,3.273-2.221h-.252a3.835,3.835,0,0,1,.71-.144,3.31,3.31,0,0,1,2.59.279h-.027a6.115,6.115,0,0,1,3.39,2.86,7.23,7.23,0,0,1-.746,7.473,5.534,5.534,0,0,1-10.18-1.754A6.876,6.876,0,0,1,125.136,186.58Z" transform="translate(-12.445 -18.539)" fill="#455a64"/>
      <path id="Trazado_613926" data-name="Trazado 613926" d="M65.754,226.453l-5.486-79.388a6.753,6.753,0,0,1,5.737-7.1l35.369-10.576c11.4-1.709,19.622,12.068,20.845,23.534,1.358,12.734,2.509,28.336,1.4,37.932-2.221,19.29-17.95,22.437-17.95,22.437,0-.063.171,19.6.387,26.574l4.694,21.529L65.763,226.453Z" transform="translate(-6.067 -13.017)" fill="#ffbf9d"/>
      <path id="Trazado_613927" data-name="Trazado 613927" d="M120.881,173.683a2.462,2.462,0,0,1-2.266,2.581,2.345,2.345,0,0,1-2.626-2.1,2.456,2.456,0,0,1,2.257-2.581A2.358,2.358,0,0,1,120.881,173.683Z" transform="translate(-11.68 -17.279)" fill="#263238"/>
      <path id="Trazado_613928" data-name="Trazado 613928" d="M124.571,163.073c-.288.333-2.212-.962-4.856-.845-2.644.081-4.523,1.529-4.829,1.214-.144-.135.135-.728.953-1.385a6.749,6.749,0,0,1,3.849-1.367,6.509,6.509,0,0,1,3.885,1.07c.836.585,1.142,1.16,1,1.3Z" transform="translate(-11.566 -16.183)" fill="#263238"/>
      <path id="Trazado_613929" data-name="Trazado 613929" d="M94.4,174.583a2.462,2.462,0,0,1-2.266,2.581,2.345,2.345,0,0,1-2.626-2.1,2.456,2.456,0,0,1,2.257-2.581,2.345,2.345,0,0,1,2.626,2.1Z" transform="translate(-9.013 -17.37)" fill="#263238"/>
      <path id="Trazado_613930" data-name="Trazado 613930" d="M95.691,164.864c-.288.333-2.212-.962-4.856-.845-2.644.081-4.523,1.529-4.829,1.214-.144-.135.135-.728.953-1.376a6.748,6.748,0,0,1,3.849-1.367,6.508,6.508,0,0,1,3.885,1.07C95.529,164.153,95.835,164.72,95.691,164.864Z" transform="translate(-8.657 -16.364)" fill="#263238"/>
      <path id="Trazado_613931" data-name="Trazado 613931" d="M108.146,184.018c-.018-.153,1.61-.5,4.263-.962.674-.1,1.3-.261,1.4-.728a3.46,3.46,0,0,0-.54-1.978q-1.052-2.415-2.221-5.054c-3.085-7.2-5.351-13.13-5.063-13.255s3.031,5.612,6.115,12.815c.746,1.781,1.457,3.471,2.131,5.09a3.943,3.943,0,0,1,.468,2.635,1.692,1.692,0,0,1-1.07,1.034,4.6,4.6,0,0,1-1.142.207c-2.671.261-4.335.342-4.353.2Z" transform="translate(-10.671 -16.319)" fill="#263238"/>
      <path id="Trazado_613932" data-name="Trazado 613932" d="M107.862,220.608s-11.7,1.313-24.8-5.818c0,0,5.755,14.173,24.856,11.556Z" transform="translate(-8.364 -21.633)" fill="#ff9a6c"/>
      <path id="Trazado_613933" data-name="Trazado 613933" d="M107.2,193.2a6.513,6.513,0,0,0-5.477-2.608,4.244,4.244,0,0,0-3.4,2.041,3.887,3.887,0,0,0,4.6,5.629,9.6,9.6,0,0,0,3.786-2.572,2.941,2.941,0,0,0,.791-1.025,1.358,1.358,0,0,0-.162-1.34" transform="translate(-9.852 -19.193)" fill="#ff9a6c"/>
      <path id="Trazado_613934" data-name="Trazado 613934" d="M99.778,188.88c.432-.045.558,2.824,3.1,4.757s5.585,1.484,5.62,1.889c.045.18-.656.585-1.942.674a7.1,7.1,0,0,1-4.685-1.412,6.245,6.245,0,0,1-2.419-3.993C99.293,189.6,99.581,188.88,99.778,188.88Z" transform="translate(-10.01 -19.023)" fill="#263238"/>
      <path id="Trazado_613935" data-name="Trazado 613935" d="M96.214,152.771c-.234.728-2.887.5-5.971,1.007-3.094.45-5.558,1.457-6,.836-.2-.3.207-1,1.2-1.736a10.527,10.527,0,0,1,9.119-1.4C95.719,151.89,96.313,152.429,96.214,152.771Z" transform="translate(-8.478 -15.207)" fill="#263238"/>
      <path id="Trazado_613936" data-name="Trazado 613936" d="M123.17,152.975c-.441.62-2.284.072-4.478.144-2.194-.009-4.029.576-4.478-.036-.2-.3.063-.908.854-1.511a6.49,6.49,0,0,1,7.221-.09c.8.585,1.079,1.187.89,1.493Z" transform="translate(-11.495 -15.15)" fill="#263238"/>
      <path id="Trazado_613937" data-name="Trazado 613937" d="M136.68,146.206a13.138,13.138,0,0,0-5.162-7.176c-1.394-.881-3-1.4-4.308-2.419-2.806-2.194-3.5-6.079-5.261-9.173a14.5,14.5,0,0,0-11.133-7.158c-3.8-.333-7.7.863-11.421-.018-2.743-.647-5.162-2.392-7.941-2.878-5.414-.944-10.378,3-14.236,6.915.045,3.867,3.156,6.4,6.16,8.84a13.431,13.431,0,0,0,10.9,2.707c2.941-.585,6.151-2.122,8.732-.585,2.707,1.61,2.878,5.656,5.288,7.689,3.444,2.9,8.822.054,13.156,1.268,3.354.944,5.486,4.1,7.743,6.754s5.612,5.153,8.939,4.11a39.436,39.436,0,0,0-1.457-8.885Z" transform="translate(-7.776 -11.808)" fill="#263238"/>
      <path id="Trazado_613938" data-name="Trazado 613938" d="M90.838,130.656c-2.428-.656-7.41-2.149-8.732-4.236-2.887-4.514-7.9-7.563-12.977-7.2a12.217,12.217,0,0,0-10.854,9.811,17.547,17.547,0,0,0-14.946,9.937,18.424,18.424,0,0,0-.926,2.266,13.39,13.39,0,0,0-.728,11.232c.872,2.176,2.329,4.586,1.241,6.655-1.115,2.1-4,2.212-6.25,3.022a8.864,8.864,0,0,0-5.441,9.991c.333,1.448,1.052,2.9.773,4.353-.3,1.52-1.574,2.608-2.554,3.813a11.037,11.037,0,0,0,6.736,17.869c1.727.288,3.588.189,5.1,1.088,1.727,1.025,2.5,3.076,3.732,4.658a9.516,9.516,0,0,0,10.369,3.076,8.788,8.788,0,0,0,2.059-1.07c1.178,1.583,3,2.635,6.1,2.59l-1.3-40.4a3.343,3.343,0,0,0,2.482,1.879c6.511,1.376,7.257-12.005,5.764-15.611a37.618,37.618,0,0,0,6.412-6.942c1.754-2.671,3.219-9.91,2.8-13.156,2.338.1,12.248-3.327,11.187-3.624Z" transform="translate(-2.715 -12.004)" fill="#263238"/>
      <path id="Trazado_613939" data-name="Trazado 613939" d="M66.854,176.77c-.27-4.1-5.306-4.91-8.84-2.8-1.942,1.16-3.4,3.453-3.156,7.815.647,11.619,12.185,8.57,12.185,8.237,0-.207.117-8.444-.2-13.246Z" transform="translate(-5.521 -17.408)" fill="#ffbf9d"/>
      <path id="Trazado_613940" data-name="Trazado 613940" d="M63.581,186.254c-.054-.036-.2.153-.531.333a2.045,2.045,0,0,1-1.511.117c-1.25-.387-2.392-2.275-2.572-4.361a6.757,6.757,0,0,1,.4-2.932,2.333,2.333,0,0,1,1.439-1.637,1.027,1.027,0,0,1,1.223.486c.171.315.117.549.18.567.036.027.243-.207.117-.683a1.338,1.338,0,0,0-.495-.7,1.5,1.5,0,0,0-1.133-.234,2.84,2.84,0,0,0-2.014,1.924,6.857,6.857,0,0,0-.522,3.282c.207,2.338,1.529,4.46,3.237,4.856a2.149,2.149,0,0,0,1.835-.414c.342-.306.387-.567.351-.594Z" transform="translate(-5.854 -17.845)" fill="#ff9a6c"/>
      <path id="Trazado_613941" data-name="Trazado 613941" d="M77.1,128.709a7.02,7.02,0,0,0-2.293,1.978c-1.124,1.6-1.52,4.64-.737,8.058l.063.3-.288.072a11.23,11.23,0,0,0-7.392,6.709,8.493,8.493,0,0,0-.558,2.842,17,17,0,0,0,.4,3.067,23.474,23.474,0,0,1,.495,3.3,5.449,5.449,0,0,1-.872,3.444c-1.412,2.221-3.723,3.336-5.71,4.415a19.762,19.762,0,0,0-5.351,3.615,14.5,14.5,0,0,0-4.2,9.811,15.279,15.279,0,0,0,1.637,7.167c.791,1.574,1.457,2.32,1.394,2.374-.018.018-.2-.162-.5-.513a11.648,11.648,0,0,1-1.169-1.709,14.756,14.756,0,0,1-1.933-7.32,14.941,14.941,0,0,1,4.245-10.333,19.972,19.972,0,0,1,5.513-3.795c1.978-1.079,4.155-2.185,5.387-4.146,1.259-1.781.656-4.083.279-6.16a17.517,17.517,0,0,1-.4-3.219,9.313,9.313,0,0,1,.638-3.112,11.8,11.8,0,0,1,7.959-7.032l-.216.369c-.737-3.579-.243-6.727,1.052-8.4a4.863,4.863,0,0,1,1.8-1.511,2.812,2.812,0,0,1,.773-.27Z" transform="translate(-5.043 -12.962)" fill="#455a64"/>
      <path id="Trazado_613942" data-name="Trazado 613942" d="M59.256,191.9a8.314,8.314,0,0,1,3.273-2.221h-.252a3.829,3.829,0,0,1,.71-.144,3.31,3.31,0,0,1,2.59.279H65.55a6.116,6.116,0,0,1,3.39,2.86,7.23,7.23,0,0,1-.746,7.473,6.079,6.079,0,0,1-5.971,2.563,6.137,6.137,0,0,1-4.209-4.317A6.877,6.877,0,0,1,59.256,191.9Z" transform="translate(-5.809 -19.075)" fill="#455a64"/>
      <path id="Trazado_613943" data-name="Trazado 613943" d="M246.86,286.156l7.923-3.04s2.158-6.915,3.6-8.939,9.092-8.237,9.532-8.408,5.477-11.439,7.761-11.07,3.867,1.978,3.228,5.036-5.71,9.164-4.308,10.171a10.271,10.271,0,0,0,3.7,1.385s.62-3.516,2.554-4.649,4.128.746,4.128.746l.063,1.511,1.906-1.745s2.005-7.059,5.036-7.023a12.344,12.344,0,0,1,2.995-4.029A2.617,2.617,0,0,1,299,257.28l-5.45,15.989L278.56,289.78s-7.023,2.7-8.813,3.525-9.919,6.457-13.507,7.653-7.77,3.031-7.77,3.031l-1.6-17.842Z" transform="translate(-24.862 -25.651)" fill="#ffbf9d"/>
      <path id="Trazado_613944" data-name="Trazado 613944" d="M268.622,284.178a9.01,9.01,0,0,0-2.842-.288A13.171,13.171,0,0,0,259,285.383a8.23,8.23,0,0,0-2.815,2.707,12.6,12.6,0,0,0-1.34,2.842,8.463,8.463,0,0,0-.648,2.788,14.031,14.031,0,0,0,1.16-2.59,10.12,10.12,0,0,1,4.029-5.081,14.544,14.544,0,0,1,6.412-1.61,12.5,12.5,0,0,0,2.833-.252Z" transform="translate(-25.599 -28.592)" fill="#ff9a6c"/>
      <path id="Trazado_613945" data-name="Trazado 613945" d="M277.455,271.89c.117-.171-.7-.908-1.978-1.286s-2.365-.216-2.356-.009.98.4,2.14.746S277.338,272.079,277.455,271.89Z" transform="translate(-27.507 -27.231)" fill="#ff9a6c"/>
      <path id="Trazado_613946" data-name="Trazado 613946" d="M296.137,273.883a16.206,16.206,0,0,1,.351-3.471c.315-2.158.8-5.171,1.4-8.633l.225.45c-.53-.243-1.169-.621-1.637-.773a2.072,2.072,0,0,0-1.6.207,4.621,4.621,0,0,0-1.853,2.239,17.049,17.049,0,0,0-.98,2.77c-.432,1.853-.719,3.57-.989,4.991a27.277,27.277,0,0,1-.971,4.622,22.956,22.956,0,0,1,.36-4.712c.189-1.448.414-3.165.818-5.081a16.175,16.175,0,0,1,.989-2.941,5.311,5.311,0,0,1,2.23-2.653,2.941,2.941,0,0,1,2.239-.261,15.882,15.882,0,0,1,1.781.845l.288.135-.063.315c-.647,3.453-1.241,6.457-1.7,8.579a16.255,16.255,0,0,1-.881,3.372Z" transform="translate(-29.211 -26.239)" fill="#ff9a6c"/>
      <path id="Trazado_613947" data-name="Trazado 613947" d="M274.93,288.222a3.5,3.5,0,0,1,.072-.683,9.143,9.143,0,0,1,.647-1.835,23.388,23.388,0,0,1,3.93-5.728l-.081.144c1.034-3.067.09-7.518,2.878-11.484a3.664,3.664,0,0,1,2.887-1.286,5.317,5.317,0,0,1,2.8.98l.2.135-.027.252c-.558,4.487-1.07,8.372-1.475,11.124a7.122,7.122,0,0,1-1.007,3.13c-.387.665-.674.98-.71.953a5.4,5.4,0,0,1,.459-1.079,7.8,7.8,0,0,0,.737-3.094c.252-2.77.656-6.646,1.16-11.124l.171.387a4.571,4.571,0,0,0-2.329-.791,2.81,2.81,0,0,0-2.212,1,6.572,6.572,0,0,0-1.295,2.689,24.864,24.864,0,0,0-.629,2.941c-.171.98-.216,1.879-.324,2.842a17.925,17.925,0,0,1-.585,2.653l-.027.081-.063.063a26.843,26.843,0,0,0-4.083,5.414c-.809,1.43-.989,2.356-1.088,2.338Z" transform="translate(-27.689 -26.926)" fill="#ff9a6c"/>
      <path id="Trazado_613948" data-name="Trazado 613948" d="M60.7,234.415c.477-.692,3.66-6.835,3.66-6.835L82.4,243.129s17.68,14.811,17.68,13.849l2.824-14.245,3.471-12.959,6.484,9.8s20.378,39.955,20.378,40.441,12.617,41.834,12.617,41.834l-2.716,16.763-.324,59.4-38-1.6L97.3,384.432,84.368,308.263,60.69,234.4Z" transform="translate(-6.111 -22.921)" fill="#fff"/>
      <path id="Trazado_613949" data-name="Trazado 613949" d="M111.69,404.03h40.486l6.421,27.212H96.33Z" transform="translate(-9.7 -40.693)" fill="#263238"/>
      <path id="Trazado_613950" data-name="Trazado 613950" d="M103.892,375.368c-1.277-19.505-.737-56.313-8.21-75.513S58.236,233.48,58.236,233.48L50.88,244.919l-19.29,7.239,26.169,106.1S47.678,382,42.876,395.863c-1.43,4.146-3.372,11.178-5.495,18.2h66.25c.585-15.432.872-29.478.27-38.7Z" transform="translate(-3.18 -23.515)" fill="#4f6736"/>
      <path id="Trazado_613951" data-name="Trazado 613951" d="M241.579,279.224,190.518,307.6,155.131,257.11c-.1-.126-.2-.27-.306-.414-4.029-5.333-7.986-11.2-14.5-12.662l-.989-.225,1.9,60.441s25.162,27.734,39.263,39.2c4.2,3.417,14.847,1.277,19.919-1.52,20.324-11.214,55.027-39.973,55.027-39.973L241.57,279.206Z" transform="translate(-14.032 -24.556)" fill="#4f6736"/>
      <path id="Trazado_613952" data-name="Trazado 613952" d="M153.464,358.5s3.723-28.849,4.937-36.1c6.385-37.923-21.745-79.838-21.745-79.838l-12.86-2.131-11.1-9.164,4.9,13.687s16.115,45.081,19.317,59.478,4.8,58.669,5.3,57.608c.3-.63,2.23,26.727,4.667,51.807h27.293L153.455,358.5Z" transform="translate(-11.349 -23.292)" fill="#4f6736"/>
      <path id="Trazado_613953" data-name="Trazado 613953" d="M152.331,327.393s-.018-.324,0-.935c.036-.674.081-1.565.144-2.68.036-.585.081-1.232.117-1.933v-2.3c0-1.655.036-3.534-.126-5.612a116.939,116.939,0,0,0-6.313-31.754,109.771,109.771,0,0,0-5.126-12.608v-.018h-.009a107.12,107.12,0,0,0-5.917-11.538c-1.951-3.39-3.75-6.349-5.261-8.795-1.493-2.392-2.7-4.317-3.561-5.7-.387-.629-.7-1.133-.953-1.529a2.963,2.963,0,0,1-.306-.549,2.645,2.645,0,0,1,.387.486c.261.378.6.863,1.034,1.475.89,1.295,2.158,3.192,3.714,5.612s3.4,5.351,5.387,8.741a103.808,103.808,0,0,1,6.025,11.556v-.027a106.924,106.924,0,0,1,5.171,12.68,112.238,112.238,0,0,1,6.169,31.942c.135,2.086.063,3.975.027,5.63-.018.827-.036,1.592-.054,2.311-.063.7-.126,1.349-.171,1.933-.108,1.115-.2,2.005-.261,2.671a4.243,4.243,0,0,1-.135.926Z" transform="translate(-12.59 -24.317)" fill="#263238"/>
      <path id="Trazado_613954" data-name="Trazado 613954" d="M101.376,259.858a5.153,5.153,0,0,1-.719-.315c-.531-.279-1.178-.621-1.951-1.025l-6.871-3.8.4-.207c-.333,3.085-.9,6.691-1.466,10.531-.234,1.565-.441,3.094-.621,4.55l-.072.567-.432-.369c-3.669-3.129-6.87-5.872-9.128-7.86q-1.592-1.416-2.644-2.347a5.553,5.553,0,0,1-.908-.908,5.458,5.458,0,0,1,1.043.746c.728.585,1.655,1.322,2.761,2.212,2.329,1.9,5.576,4.6,9.272,7.7l-.495.2c.171-1.466.378-3,.612-4.568.567-3.849,1.16-7.446,1.547-10.5l.054-.414.351.207c2.716,1.6,5.018,2.968,6.754,3.993.737.459,1.358.836,1.87,1.16A3.026,3.026,0,0,1,101.376,259.858Z" transform="translate(-7.75 -25.586)" fill="#263238"/>
      <path id="Trazado_613955" data-name="Trazado 613955" d="M114.642,240.92a15.636,15.636,0,0,1,.054,1.628c-.018,1.169-.045,2.653-.081,4.424-.09,3.732-.27,8.894-.495,14.586,0,.144-.009.279-.018.414l-.036,1-.531-.836c-2.59-4.074-4.955-7.806-6.826-10.764l.432-.054c-.755,2.068-1.385,3.8-1.87,5.144a11.759,11.759,0,0,1-.782,1.87,11,11,0,0,1,.531-1.951c.432-1.358,1-3.112,1.673-5.207l.153-.477.279.423c1.906,2.932,4.317,6.637,6.951,10.683l-.576.153c0-.135.009-.279.018-.414.234-5.692.477-10.854.683-14.577.108-1.772.207-3.255.279-4.415a8.042,8.042,0,0,1,.189-1.619Z" transform="translate(-10.521 -24.264)" fill="#263238"/>
      <path id="Trazado_613956" data-name="Trazado 613956" d="M29.133,254.26a29.422,29.422,0,0,0-4.478,3.444A30.5,30.5,0,0,0,16.849,270c-1.817,5.207-3.624,11.6-4.676,15.639L7.29,359.692A43.6,43.6,0,0,0,10.4,378.963l15.126,37.2H58.135l-17.6-49.775,6.025-54.91Z" transform="translate(-0.723 -25.608)" fill="#4f6736"/>
      <path id="Trazado_613957" data-name="Trazado 613957" d="M53.93,244.83,61.1,266.341h7.644L63.777,269.5l39.218,74.946" transform="translate(-5.43 -24.658)" fill="#4f6736"/>
      <path id="Trazado_613958" data-name="Trazado 613958" d="M102.993,344.443a1.556,1.556,0,0,1-.171-.261c-.117-.216-.27-.477-.45-.8-.4-.746-.971-1.781-1.682-3.094-1.466-2.743-3.534-6.637-6.088-11.421L74.729,291.08c-3.993-7.644-7.788-14.919-11.2-21.448l-.126-.234.225-.144q2.576-1.632,4.964-3.138l.144.5-7.644-.027h-.18l-.054-.171c-2.14-6.574-3.894-11.942-5.135-15.737-.585-1.835-1.043-3.282-1.376-4.326-.144-.468-.252-.836-.342-1.133a1.316,1.316,0,0,1-.09-.4,2.724,2.724,0,0,1,.162.369c.108.288.243.656.4,1.115.36,1.025.863,2.464,1.493,4.281,1.286,3.768,3.1,9.119,5.333,15.665l-.234-.171c2.392,0,4.937-.018,7.644-.027h.935l-.791.5c-1.592,1.016-3.237,2.077-4.946,3.165l.1-.378c3.426,6.529,7.23,13.786,11.241,21.43,7.689,14.766,14.649,28.138,19.712,37.869,2.482,4.829,4.487,8.75,5.908,11.511.665,1.331,1.2,2.383,1.583,3.147.162.333.288.6.4.827a1.159,1.159,0,0,1,.117.288Z" transform="translate(-5.428 -24.658)" fill="#263238"/>
      <path id="Trazado_613959" data-name="Trazado 613959" d="M37.84,265.91A47.834,47.834,0,0,1,48.425,306.6Z" transform="translate(-3.809 -26.781)" fill="#4f6736"/>
      <path id="Trazado_613960" data-name="Trazado 613960" d="M48.425,306.611c-.126-.027.414-2.41.638-6.331a49.954,49.954,0,0,0-.1-6.879,54.251,54.251,0,0,0-1.412-8.291,53.01,53.01,0,0,0-2.806-7.932,48.323,48.323,0,0,0-3.264-6.052c-2.1-3.309-3.732-5.135-3.633-5.216a8.593,8.593,0,0,1,1.178,1.25,18.744,18.744,0,0,1,1.268,1.565c.468.63,1.034,1.331,1.556,2.167a44.817,44.817,0,0,1,3.417,6.052,51.409,51.409,0,0,1,2.887,8.013,51.326,51.326,0,0,1,1.385,8.4,44.222,44.222,0,0,1-.036,6.952c-.045.989-.207,1.87-.306,2.653a17.374,17.374,0,0,1-.351,1.987A8.916,8.916,0,0,1,48.425,306.611Z" transform="translate(-3.81 -26.781)" fill="#263238"/>
      <path id="Trazado_613961" data-name="Trazado 613961" d="M61.842,422.564s-.045-.081-.117-.252c-.072-.189-.171-.432-.288-.746-.252-.683-.612-1.646-1.061-2.878-.917-2.536-2.221-6.151-3.831-10.612-3.2-9.011-7.626-21.439-12.527-35.216L44,372.807v-.054c.045-.387.09-.8.135-1.214,1.655-14.811,3.147-28.219,4.236-37.959.558-4.829,1.016-8.75,1.34-11.5.162-1.331.3-2.374.387-3.12l.108-.809a1.264,1.264,0,0,1,.054-.279,2.208,2.208,0,0,1,0,.279c-.018.207-.036.477-.063.818-.072.746-.171,1.8-.3,3.129-.288,2.752-.692,6.673-1.187,11.511-1.052,9.748-2.5,23.156-4.1,37.977-.045.414-.09.827-.135,1.214v-.1c4.838,13.795,9.209,26.241,12.383,35.261,1.556,4.487,2.815,8.121,3.7,10.665.414,1.241.746,2.212.98,2.9q.148.472.243.755c.054.171.072.261.072.261Z" transform="translate(-4.43 -32.015)" fill="#263238"/>
      <path id="Trazado_613962" data-name="Trazado 613962" d="M148.88,265.208a72.2,72.2,0,0,1,5.3,10.072c.755,1.592,1.385,3.417,2.158,5.333.647,1.961,1.421,4.038,2.014,6.3.674,2.23,1.2,4.613,1.754,7.086.225,1.25.459,2.509.693,3.8s.378,2.608.567,3.939a126.726,126.726,0,0,1,.36,27.437c-.2,1.745-.369,3.318-.531,4.712-.144,1.385-.369,2.572-.5,3.543-.153.935-.27,1.682-.36,2.23a7.873,7.873,0,0,1-.153.773,4.03,4.03,0,0,1,.063-.791c.063-.558.153-1.3.27-2.248.108-.971.306-2.158.432-3.552s.288-2.977.459-4.712a133.919,133.919,0,0,0-.495-27.356c-.2-1.322-.333-2.635-.567-3.921s-.459-2.545-.684-3.786c-.549-2.455-1.061-4.838-1.718-7.059-.576-2.248-1.331-4.317-1.96-6.277-.755-1.915-1.358-3.741-2.1-5.333-.351-.8-.684-1.574-.989-2.293-.324-.719-.665-1.385-.971-2.014-.612-1.25-1.124-2.338-1.61-3.192-.45-.836-.8-1.5-1.07-2a3.926,3.926,0,0,1-.342-.71Z" transform="translate(-14.993 -26.709)" fill="#263238"/>
      <path id="Trazado_613963" data-name="Trazado 613963" d="M196.589,330.486a8.657,8.657,0,0,1-.935-2.212,22.194,22.194,0,0,1-.513-11.511,8.593,8.593,0,0,1,.737-2.293c.072.018-.171.908-.414,2.356a26.693,26.693,0,0,0,.5,11.358,20.713,20.713,0,0,1,.621,2.311Z" transform="translate(-19.6 -31.672)" fill="#263238"/>
      <path id="Trazado_613964" data-name="Trazado 613964" d="M383.107,434.264c0,.126-84.8.234-189.379.234s-189.4-.108-189.4-.234,84.784-.234,189.4-.234S383.107,434.138,383.107,434.264Z" transform="translate(-0.434 -43.714)" fill="#263238"/>
    </g>
  </g>
</svg>
