<svg xmlns="http://www.w3.org/2000/svg" width="99.137" height="99.137" viewBox="0 0 99.137 99.137">
  <g id="Grupo_1066786" data-name="Grupo 1066786" transform="translate(-114.676 -50.133)">
    <g id="cromo" transform="translate(114.676 50.133)">
      <path id="Trazado_615543" data-name="Trazado 615543" d="M138.7,30.983H92.767A18.587,18.587,0,0,0,76.534,58.658L53.568,19.252A49.537,49.537,0,0,1,138.7,30.983Z" transform="translate(-43.196 0)" fill="#f44336"/>
      <path id="Trazado_615544" data-name="Trazado 615544" d="M279.783,178.608a49.608,49.608,0,0,1-49.566,49.566,44.211,44.211,0,0,1-6.2-.413l22.3-39.86a18.633,18.633,0,0,0-6.815-25.4,18.414,18.414,0,0,0-9.252-2.478h45.89A48.871,48.871,0,0,1,279.783,178.608Z" transform="translate(-180.646 -129.038)" fill="#ffc107"/>
      <path id="Trazado_615545" data-name="Trazado 615545" d="M65.68,139.046l-22.3,39.86h-.041A49.538,49.538,0,0,1,10.372,99.434l22.966,39.405.124.207a18.587,18.587,0,0,0,32.218,0Z" transform="translate(0 -80.182)" fill="#4caf50"/>
      <path id="Trazado_615546" data-name="Trazado 615546" d="M194.627,187.9a18.587,18.587,0,0,1-32.218,0l-.124-.207a18.588,18.588,0,0,1,16.233-27.675h.041a18.414,18.414,0,0,1,9.252,2.478A18.633,18.633,0,0,1,194.627,187.9Z" transform="translate(-128.947 -129.037)" fill="#f44336"/>
      <path id="Trazado_615547" data-name="Trazado 615547" d="M194.627,187.9a18.587,18.587,0,0,1-32.218,0l-.124-.207a18.588,18.588,0,0,1,16.233-27.675h.041a18.414,18.414,0,0,1,9.252,2.478A18.633,18.633,0,0,1,194.627,187.9Z" transform="translate(-128.947 -129.037)" fill="#2196f3"/>
      <path id="Trazado_615548" data-name="Trazado 615548" d="M169.874,190.66a20.5,20.5,0,0,1-10.256-2.751,20.67,20.67,0,1,1,28.228-7.575h0A20.769,20.769,0,0,1,169.874,190.66Zm.107-37.175a16.53,16.53,0,1,0,14.279,24.783h0a16.522,16.522,0,0,0-14.275-24.783h0Z" transform="translate(-120.373 -120.437)" fill="#fafafa"/>
    </g>
  </g>
</svg>
