<svg xmlns="http://www.w3.org/2000/svg" width="89.443" height="98.471" viewBox="0 0 89.443 98.471">
  <g id="Grupo_1066787" data-name="Grupo 1066787" transform="translate(-119.521 -47.636)">
    <g id="linux" transform="translate(96.053 47.636)">
      <path id="Trazado_615549" data-name="Trazado 615549" d="M112.829,63.027c-2.111-7.868-7.288-21.581-18.891-29.429a16.492,16.492,0,0,1-7.321-14.182c.009-.264.016-.5.019-.714a18.448,18.448,0,1,0-36.879.481l.006.151A16.637,16.637,0,0,1,42.38,33.64C30.822,41.494,25.66,55.173,23.552,63.028a2.288,2.288,0,0,0,3.567,2.433l9.622-7.077a32.017,32.017,0,1,0,62.9,0l9.624,7.078A2.288,2.288,0,0,0,112.829,63.027Z" transform="translate(0 0)" fill="#3c5959"/>
      <path id="Trazado_615550" data-name="Trazado 615550" d="M267.863,291.825a2.774,2.774,0,0,0-4.069,2.591c.108,2.121.164,4.328.164,5.421a32.021,32.021,0,0,1-28.139,31.783,32.581,32.581,0,0,0,3.758.233,32.026,32.026,0,0,0,31.571-38.035A31.161,31.161,0,0,0,267.863,291.825Z" transform="translate(-171.51 -235.435)" fill="#394949"/>
      <path id="Trazado_615551" data-name="Trazado 615551" d="M284.3,63.027c-2.111-7.868-7.288-21.581-18.891-29.429a16.492,16.492,0,0,1-7.321-14.182c.009-.264.016-.5.019-.714A18.462,18.462,0,0,0,235.766.411,18.543,18.543,0,0,1,250.345,18.7c0,.175-.008.368-.014.579A16.664,16.664,0,0,0,257.653,33.6c11.208,7.586,16.418,20.642,18.661,28.612l4.415,3.247a2.288,2.288,0,0,0,3.568-2.433Z" transform="translate(-171.467 0)" fill="#394949"/>
      <path id="Trazado_615552" data-name="Trazado 615552" d="M154.51,227.573c-13.347,0-24.167,15.633-24.167,34.917a50.123,50.123,0,0,0,.539,7.359,32.056,32.056,0,0,0,47.262-.046,50.128,50.128,0,0,0,.533-7.313c0-19.284-10.82-34.917-24.167-34.917Z" transform="translate(-86.32 -183.805)" fill="#fcf5eb"/>
      <path id="Trazado_615553" data-name="Trazado 615553" d="M263.867,376.822a50.035,50.035,0,0,0-.59-7.692,32.04,32.04,0,0,1-27.459,25.19,32.594,32.594,0,0,0,3.758.233,31.933,31.933,0,0,0,23.758-10.419h0A50.128,50.128,0,0,0,263.867,376.822Z" transform="translate(-171.51 -298.137)" fill="#fbe7c5"/>
      <path id="Trazado_615554" data-name="Trazado 615554" d="M208.258,110.889l-4.243,1.742a2.745,2.745,0,0,0-.868,4.51l7.58,7.345a2.745,2.745,0,0,0,3.82,0l7.58-7.345a2.745,2.745,0,0,0-.868-4.51l-4.243-1.742A11.531,11.531,0,0,0,208.258,110.889Z" transform="translate(-144.448 -88.864)" fill="#fba615"/>
      <path id="Trazado_615555" data-name="Trazado 615555" d="M193.839,69.125a1.486,1.486,0,0,1-1.486-1.486V66.161a5.1,5.1,0,0,1,10.172-.5,1.5,1.5,0,0,1,.025.271v.233a1.486,1.486,0,1,1-2.972,0,2.126,2.126,0,0,0-4.253,0v1.478A1.486,1.486,0,0,1,193.839,69.125Z" transform="translate(-136.404 -49.319)" fill="#fff"/>
      <path id="Trazado_615556" data-name="Trazado 615556" d="M275.342,69.126a1.486,1.486,0,0,1-1.486-1.486V66.162a2.126,2.126,0,1,0-4.253,0,1.486,1.486,0,0,1-2.972,0V65.93a1.486,1.486,0,0,1,.025-.271,5.1,5.1,0,0,1,10.172.5V67.64A1.486,1.486,0,0,1,275.342,69.126Z" transform="translate(-196.397 -49.32)" fill="#fff"/>
      <path id="Trazado_615557" data-name="Trazado 615557" d="M105.152,437.455c0,2.929-4.744,5.3-10.595,5.3s-10.595-2.374-10.595-5.3,4.744-11.185,10.595-11.185S105.152,434.526,105.152,437.455Z" transform="translate(-48.859 -344.287)" fill="#fa9801"/>
      <path id="Trazado_615558" data-name="Trazado 615558" d="M339.052,437.455c0,2.929-4.744,5.3-10.595,5.3s-10.595-2.374-10.595-5.3,4.744-11.185,10.595-11.185S339.052,434.526,339.052,437.455Z" transform="translate(-237.774 -344.287)" fill="#fa9801"/>
      <g id="Grupo_1016178" data-name="Grupo 1016178" transform="translate(41.999 81.983)">
        <path id="Trazado_615559" data-name="Trazado 615559" d="M357.418,426.271a7.376,7.376,0,0,0-3.7,1.076c3.938,1.489,6.728,5.78,6.73,15.191,4.374-.653,7.564-2.68,7.564-5.081C368.013,434.527,363.27,426.271,357.418,426.271Z" transform="translate(-308.735 -426.271)" fill="#f88604"/>
        <path id="Trazado_615560" data-name="Trazado 615560" d="M123.518,426.271a7.375,7.375,0,0,0-3.7,1.076c3.938,1.489,6.728,5.78,6.73,15.191,4.374-.653,7.564-2.68,7.564-5.081C134.113,434.527,129.37,426.271,123.518,426.271Z" transform="translate(-119.82 -426.271)" fill="#f88604"/>
      </g>
    </g>
  </g>
</svg>
