<svg xmlns="http://www.w3.org/2000/svg" width="344.004" height="225.845" viewBox="0 0 344.004 225.845">
  <g id="Grupo_1066771" data-name="Grupo 1066771" transform="translate(-19575 10384)">
    <g id="Group_59_" data-name="Group (59)" transform="translate(19574.902 -10384)">
      <path id="Trazado_614632" data-name="Trazado 614632" d="M189.258,0H186L173.374,12.624h3.26Z" transform="translate(-111.967)" fill="#afc797"/>
      <path id="Trazado_614633" data-name="Trazado 614633" d="M203.667,0h-3.145L187.9,12.624h3.145Z" transform="translate(-121.353)" fill="#afc797"/>
      <path id="Trazado_614634" data-name="Trazado 614634" d="M176,0l-9.878,9.771v2.718h.687L179.438,0Z" transform="translate(-107.285)" fill="#afc797"/>
      <path id="Trazado_614635" data-name="Trazado 614635" d="M166.127,8l8-8h-3.26l-4.739,4.739Z" transform="translate(-107.285)" fill="#afc797"/>
      <path id="Trazado_614636" data-name="Trazado 614636" d="M226.154,11.92v-3.2l-9.539,9.54h3.2Z" transform="translate(-139.909 -5.632)" fill="#afc797"/>
      <path id="Trazado_614637" data-name="Trazado 614637" d="M230.975,27.536h4.458V23.077Z" transform="translate(-149.188 -14.912)" fill="#afc797"/>
      <path id="Trazado_614638" data-name="Trazado 614638" d="M168.989,0h-2.862V2.862Z" transform="translate(-107.285)" fill="#afc797"/>
      <path id="Trazado_614639" data-name="Trazado 614639" d="M216.771,1.207V0h-2.054L202.095,12.624h3.259Z" transform="translate(-130.526)" fill="#afc797"/>
      <path id="Trazado_614640" data-name="Trazado 614640" d="M806.586,38.183a15.382,15.382,0,1,1,2.391-21.622A15.4,15.4,0,0,1,806.586,38.183ZM787.724,14.63a14.792,14.792,0,1,0,20.792,2.3A14.809,14.809,0,0,0,787.724,14.63Z" transform="translate(-504.989 -6.979)" fill="#afc797"/>
      <path id="Trazado_614641" data-name="Trazado 614641" d="M795.745,16.7l-1.562,1.251,1.251,1.562L797,18.265Z" transform="translate(-513.123 -10.793)" fill="#2f4419"/>
      <path id="Trazado_614642" data-name="Trazado 614642" d="M849.445,83.755l-1.562,1.251,1.251,1.562,1.562-1.251Z" transform="translate(-547.823 -54.121)" fill="#2f4419"/>
      <path id="Trazado_614643" data-name="Trazado 614643" d="M856.122,23.382l-1.562,1.251,1.251,1.562,1.562-1.251Z" transform="translate(-552.138 -15.109)" fill="#2f4419"/>
      <path id="Trazado_614644" data-name="Trazado 614644" d="M789.078,77.081l-1.562,1.251,1.251,1.562,1.562-1.251Z" transform="translate(-508.815 -49.809)" fill="#2f4419"/>
      <path id="Trazado_614645" data-name="Trazado 614645" d="M854.395,90.369l3.894,4.862a1.062,1.062,0,1,1-.5.4l-3.917-4.89c.985,1.847,1.572,5.487-.106,6.559l3.987,3.555,5.635-4.513-2.6-4.668C859.385,93.067,855.984,91.713,854.395,90.369Z" transform="translate(-551.625 -58.395)" fill="#4f6736"/>
      <path id="Trazado_614646" data-name="Trazado 614646" d="M870.409,106.229l-6.6,5.285,1.628,2.032,6.6-5.285Z" transform="translate(-558.114 -68.643)" fill="#afc797"/>
      <path id="Trazado_614647" data-name="Trazado 614647" d="M380.76,499.289l-6.543,10.469h13.317Z" transform="translate(-241.749 -322.632)" fill="#4f6736"/>
      <path id="Trazado_614648" data-name="Trazado 614648" d="M403.351,507.768h4.733L403.64,500.9l-2.326,3.721Z" transform="translate(-259.258 -323.673)" fill="#4f6736"/>
      <path id="Trazado_614649" data-name="Trazado 614649" d="M526.148,8.811,523.5,13.045h5.385Z" transform="translate(-338.214 -5.693)" fill="#afc797"/>
      <path id="Trazado_614650" data-name="Trazado 614650" d="M535.946,11.877h1.914l-1.8-2.778-.941,1.5Z" transform="translate(-345.723 -5.879)" fill="#afc797"/>
      <path id="Trazado_614651" data-name="Trazado 614651" d="M611.157,24.365H584.329a1.365,1.365,0,0,0-1.365,1.365V29.62a1.365,1.365,0,0,0,1.365,1.365h26.828a1.365,1.365,0,0,0,1.365-1.365V25.73A1.365,1.365,0,0,0,611.157,24.365Z" transform="translate(-376.637 -15.744)" fill="#fff"/>
      <path id="Trazado_614652" data-name="Trazado 614652" d="M616.615,33.5H595.523a.6.6,0,1,1,0-1.192h21.092a.6.6,0,1,1,0,1.192Z" transform="translate(-384.367 -20.88)" fill="#3b5620"/>
      <path id="Trazado_614653" data-name="Trazado 614653" d="M592.264,32.193a1.693,1.693,0,1,0-2.212-.916A1.693,1.693,0,0,0,592.264,32.193Z" transform="translate(-381.134 -18.698)" fill="#4f6736"/>
      <path id="Trazado_614654" data-name="Trazado 614654" d="M326.03,14.83a3.117,3.117,0,1,0-3.117-3.117A3.117,3.117,0,0,0,326.03,14.83Z" transform="translate(-208.597 -5.554)" fill="#4f6736"/>
      <path id="Trazado_614655" data-name="Trazado 614655" d="M126.287,169.694h-5.85v5.85h5.85Z" transform="translate(-77.761 -109.653)" fill="#4f6736"/>
      <path id="Trazado_614656" data-name="Trazado 614656" d="M138.409,163l-1.64-2.17L135.185,163H136.4v5.777h.8V163Z" transform="translate(-87.29 -103.924)" fill="#4f6736"/>
      <path id="Trazado_614657" data-name="Trazado 614657" d="M593.238,545.65a2.078,2.078,0,1,0-2.078-2.078A2.078,2.078,0,0,0,593.238,545.65Z" transform="translate(-381.933 -349.904)" fill="#3b5620"/>
      <path id="Trazado_614658" data-name="Trazado 614658" d="M853.906,274.725l-4.294,6.867h8.737Z" transform="translate(-548.941 -177.522)" fill="#3b5620"/>
      <g id="Grupo_1016103" data-name="Grupo 1016103" transform="translate(15.116 161.344)">
        <path id="Trazado_614659" data-name="Trazado 614659" d="M63.88,511.964a.272.272,0,0,1-.242-.231c-5.772-38.483-17.017-50.856-20.712-54.923l-.313-.345a.272.272,0,1,1,.4-.365l.312.344c3.722,4.1,15.05,16.562,20.847,55.208a.272.272,0,0,1-.23.31.246.246,0,0,1-.068,0Z" transform="translate(-42.543 -456.01)" fill="#dedede"/>
      </g>
      <g id="Grupo_1016104" data-name="Grupo 1016104" transform="translate(0.099 190.121)">
        <path id="Trazado_614660" data-name="Trazado 614660" d="M27.87,563.77a.178.178,0,0,1-.2-.065C13.659,543.122,3.743,539.109.484,537.79l-.277-.112a.174.174,0,0,1,.131-.322l.275.111c3.283,1.328,13.272,5.371,27.339,26.041a.174.174,0,0,1-.046.242.218.218,0,0,1-.038.019Z" transform="translate(-0.099 -537.342)" fill="#dedede"/>
      </g>
      <g id="Grupo_1016105" data-name="Grupo 1016105" transform="translate(281.616 122.47)">
        <path id="Trazado_614661" data-name="Trazado 614661" d="M796.266,441.528a.464.464,0,0,0,.412-.392c9.84-65.607,29.011-86.7,35.309-93.634l.533-.588a.464.464,0,1,0-.69-.62l-.53.585c-6.346,6.984-25.657,28.235-35.54,94.121a.463.463,0,0,0,.391.527.47.47,0,0,0,.115,0Z" transform="translate(-795.755 -346.139)" fill="#dedede"/>
      </g>
      <g id="Grupo_1016106" data-name="Grupo 1016106" transform="translate(244.475 184.44)">
        <path id="Trazado_614662" data-name="Trazado 614662" d="M718.426,554.369a.2.2,0,0,1-.219-.1c-13-24.8-23.559-30.562-27.029-32.456l-.293-.161a.2.2,0,1,1,.189-.344l.292.16c3.5,1.907,14.137,7.712,27.188,32.619a.2.2,0,0,1-.082.264.169.169,0,0,1-.046.017Z" transform="translate(-690.784 -521.284)" fill="#dedede"/>
      </g>
      <g id="Grupo_1016107" data-name="Grupo 1016107" transform="translate(296.565 171.527)">
        <path id="Trazado_614663" data-name="Trazado 614663" d="M838.2,529.844a.3.3,0,0,0,.346-.113c23.881-35.09,40.785-41.931,46.341-44.179l.469-.191a.3.3,0,1,0-.225-.55l-.468.19c-5.6,2.265-22.627,9.156-46.608,44.395a.3.3,0,0,0,.144.445Z" transform="translate(-838.005 -484.788)" fill="#dedede"/>
      </g>
      <path id="Trazado_614664" data-name="Trazado 614664" d="M167.6,352.848a.819.819,0,0,1-.819-.819V337.989a2.708,2.708,0,0,0-2.705-2.706l-20.491.035a2.707,2.707,0,0,0-2.7,2.705v14.219a.819.819,0,0,1-1.639,0V338.024a4.349,4.349,0,0,1,4.344-4.344l20.491-.035a4.349,4.349,0,0,1,4.344,4.344v14.039a.819.819,0,0,1-.819.819Z" transform="translate(-89.911 -215.595)" fill="#3a5b9e"/>
      <path id="Trazado_614665" data-name="Trazado 614665" d="M64.674,451.712h71.5l5.463-85.612h-71.5Z" transform="translate(-41.728 -236.567)" fill="#839571"/>
      <path id="Trazado_614666" data-name="Trazado 614666" d="M187.958,451.712h-71.5L110.991,366.1h71.5Z" transform="translate(-71.657 -236.567)" fill="#afc797"/>
      <g id="Grupo_1016108" data-name="Grupo 1016108" transform="translate(22.947 193.413)">
        <path id="Trazado_614667" data-name="Trazado 614667" d="M64.674,568.377l9.156-21.732,12.694,21.732Z" transform="translate(-64.674 -546.645)" fill="#ebffd7"/>
      </g>
      <g id="Grupo_1016109" data-name="Grupo 1016109" transform="translate(32.103 129.533)">
        <path id="Trazado_614668" data-name="Trazado 614668" d="M97.784,366.1H92.227l-1.675,63.88,12.694,21.732Z" transform="translate(-90.552 -366.1)" fill="#afc797"/>
      </g>
      <g id="Grupo_1016110" data-name="Grupo 1016110" transform="translate(62.1 131.919)">
        <path id="Trazado_614669" data-name="Trazado 614669" d="M177.257,376.692a1.924,1.924,0,1,0-1.924-1.924A1.924,1.924,0,0,0,177.257,376.692Z" transform="translate(-175.333 -372.844)" fill="#afc797"/>
      </g>
      <g id="Grupo_1016111" data-name="Grupo 1016111" transform="translate(89.687 131.919)">
        <path id="Trazado_614670" data-name="Trazado 614670" d="M255.229,376.692a1.924,1.924,0,1,0-1.924-1.924A1.924,1.924,0,0,0,255.229,376.692Z" transform="translate(-253.305 -372.844)" fill="#afc797"/>
      </g>
      <path id="Trazado_614671" data-name="Trazado 614671" d="M206.968,345.128a.818.818,0,0,1-.819-.819V330.27a2.708,2.708,0,0,0-2.706-2.705l-20.491.035a2.707,2.707,0,0,0-2.7,2.705v14.219a.819.819,0,0,1-1.639,0V330.3a4.349,4.349,0,0,1,4.344-4.344l20.491-.035a4.349,4.349,0,0,1,4.344,4.344v14.039a.818.818,0,0,1-.819.819Z" transform="translate(-115.351 -210.608)" fill="#afc797"/>
      <path id="Trazado_614672" data-name="Trazado 614672" d="M33.1,608.448H358.74a2.585,2.585,0,0,1,2.584,2.584v7.981H30.519v-7.981A2.586,2.586,0,0,1,33.1,608.448Z" transform="translate(-19.657 -393.168)" fill="#839571"/>
      <path id="Trazado_614673" data-name="Trazado 614673" d="M483.136,454.416H447.158v44.972h35.978Z" transform="translate(-288.882 -293.636)" fill="#303030"/>
      <path id="Trazado_614674" data-name="Trazado 614674" d="M303.981,591.195v-5.374l19.517-4.3h98.26l19.516,4.271v5.4Z" transform="translate(-196.363 -375.769)" fill="#404040"/>
      <path id="Trazado_614675" data-name="Trazado 614675" d="M401.43,58.572H176.9a2.082,2.082,0,0,0-2.083,2.082V207.172a2.082,2.082,0,0,0,2.083,2.082H401.43a2.082,2.082,0,0,0,2.082-2.082V60.655A2.082,2.082,0,0,0,401.43,58.572Z" transform="translate(-112.903 -37.848)" fill="#404040"/>
      <path id="Trazado_614676" data-name="Trazado 614676" d="M405.305,64.7H180.952V204.537H405.305Z" transform="translate(-116.864 -41.807)" fill="#737373"/>
      <path id="Trazado_614677" data-name="Trazado 614677" d="M406.917,70.218H186.467V206.154h220.45Z" transform="translate(-120.428 -45.374)" fill="#ebffd7"/>
      <path id="Trazado_614678" data-name="Trazado 614678" d="M412.654,211.886V89.828H206.082V211.886Z" transform="translate(-133.103 -58.045)" fill="#d3dfc6"/>
      <g id="Grupo_1016112" data-name="Grupo 1016112" transform="translate(85.52 122.298)">
        <path id="Trazado_614679" data-name="Trazado 614679" d="M258.912,345.652H244.681a3.155,3.155,0,0,0-3.155,3.155v14.231a3.155,3.155,0,0,0,3.155,3.155h14.231a3.155,3.155,0,0,0,3.155-3.155V348.807A3.155,3.155,0,0,0,258.912,345.652Z" transform="translate(-241.526 -345.652)" fill="#bfbfbf"/>
      </g>
      <path id="Trazado_614680" data-name="Trazado 614680" d="M255.436,341.971H241.205a3.155,3.155,0,0,0-3.155,3.155v14.231a3.155,3.155,0,0,0,3.155,3.155h14.231a3.155,3.155,0,0,0,3.155-3.155V345.126A3.155,3.155,0,0,0,255.436,341.971Z" transform="translate(-153.76 -220.976)" fill="#4f6736"/>
      <path id="Trazado_614681" data-name="Trazado 614681" d="M331.485,344.222H315.062a1.372,1.372,0,0,0-1.372,1.372v1.956a1.372,1.372,0,0,0,1.372,1.372h16.422a1.372,1.372,0,0,0,1.372-1.372v-1.956A1.372,1.372,0,0,0,331.485,344.222Z" transform="translate(-202.637 -222.43)" fill="#839571"/>
      <path id="Trazado_614682" data-name="Trazado 614682" d="M341.828,368.514H315.062a1.372,1.372,0,0,0-1.372,1.372v1.956a1.372,1.372,0,0,0,1.372,1.372h26.766a1.373,1.373,0,0,0,1.372-1.372v-1.956A1.373,1.373,0,0,0,341.828,368.514Z" transform="translate(-202.637 -238.127)" fill="#839571"/>
      <path id="Trazado_614683" data-name="Trazado 614683" d="M341.828,392.806H315.062a1.372,1.372,0,0,0-1.372,1.372v1.956a1.372,1.372,0,0,0,1.372,1.372h26.766a1.373,1.373,0,0,0,1.372-1.372v-1.956A1.373,1.373,0,0,0,341.828,392.806Z" transform="translate(-202.637 -253.824)" fill="#839571"/>
      <g id="Grupo_1016113" data-name="Grupo 1016113" transform="translate(81.012 58.176)">
        <path id="Trazado_614684" data-name="Trazado 614684" d="M286.687,164.424H235.482a6.7,6.7,0,0,0-6.7,6.7v39.755a6.7,6.7,0,0,0,6.7,6.7h51.206a6.7,6.7,0,0,0,6.7-6.7V171.121A6.7,6.7,0,0,0,286.687,164.424Z" transform="translate(-228.785 -164.424)" fill="#bfbfbf"/>
      </g>
      <path id="Trazado_614685" data-name="Trazado 614685" d="M279.3,157.933H228.1a6.7,6.7,0,0,0-6.7,6.7v39.755a6.7,6.7,0,0,0,6.7,6.7H279.3a6.7,6.7,0,0,0,6.7-6.7V164.63A6.7,6.7,0,0,0,279.3,157.933Z" transform="translate(-143.001 -102.053)" fill="#839571"/>
      <g id="Grupo_1016114" data-name="Grupo 1016114" transform="translate(82.253 60.688)">
        <path id="Trazado_614686" data-name="Trazado 614686" d="M245.827,198.715a13.6,13.6,0,1,0-13.533-13.6A13.565,13.565,0,0,0,245.827,198.715Z" transform="translate(-232.294 -171.524)" fill="#bfbfbf"/>
      </g>
      <path id="Trazado_614687" data-name="Trazado 614687" d="M250.608,197.044a13.6,13.6,0,1,0-13.533-13.6A13.565,13.565,0,0,0,250.608,197.044Z" transform="translate(-153.13 -109.756)" fill="#4f6736"/>
      <path id="Trazado_614688" data-name="Trazado 614688" d="M266.728,192.189a4.728,4.728,0,1,0-4.707-4.728A4.718,4.718,0,0,0,266.728,192.189Z" transform="translate(-169.25 -118.078)" fill="#fff"/>
      <path id="Trazado_614689" data-name="Trazado 614689" d="M260.1,223.734a12.521,12.521,0,0,0,8.335-3.2,8.346,8.346,0,0,0-16.67,0A12.533,12.533,0,0,0,260.1,223.734Z" transform="translate(-162.624 -137.389)" fill="#fff"/>
      <path id="Trazado_614690" data-name="Trazado 614690" d="M346.668,182.985h-20.46a1.079,1.079,0,0,0-1.079,1.079v3.075a1.079,1.079,0,0,0,1.079,1.079h20.46a1.079,1.079,0,0,0,1.079-1.079v-3.075A1.079,1.079,0,0,0,346.668,182.985Z" transform="translate(-210.029 -118.242)" fill="#fff"/>
      <path id="Trazado_614691" data-name="Trazado 614691" d="M326.208,221.033h20.46a1.079,1.079,0,0,1,1.079,1.079v3.075a1.079,1.079,0,0,1-1.079,1.079h-20.46a1.079,1.079,0,0,1-1.079-1.079v-3.075A1.079,1.079,0,0,1,326.208,221.033Z" transform="translate(-210.029 -142.828)" fill="#fff"/>
      <g id="Grupo_1016115" data-name="Grupo 1016115" transform="translate(98.293 91.62)">
        <path id="Trazado_614692" data-name="Trazado 614692" d="M283.617,258.947h14.474a5.99,5.99,0,0,1,0,11.98H283.617a5.99,5.99,0,1,1,0-11.98Z" transform="translate(-277.627 -258.947)" fill="#bfbfbf"/>
      </g>
      <path id="Trazado_614693" data-name="Trazado 614693" d="M299.289,254.862H277.773a2.47,2.47,0,0,0-2.47,2.47v7.042a2.47,2.47,0,0,0,2.47,2.47h21.516a2.47,2.47,0,0,0,2.47-2.47v-7.042A2.47,2.47,0,0,0,299.289,254.862Z" transform="translate(-177.832 -164.687)" fill="#fff"/>
      <path id="Trazado_614694" data-name="Trazado 614694" d="M384.988,151.66a5.647,5.647,0,1,0-5.621-5.647A5.634,5.634,0,0,0,384.988,151.66Z" transform="translate(-245.077 -90.703)" fill="#4f6736"/>
      <path id="Trazado_614695" data-name="Trazado 614695" d="M393.113,149.721l-.745-.749-1.845,1.853-1.845-1.853-.745.749,1.845,1.853-1.845,1.853.745.749,1.845-1.853,1.845,1.853.745-.749-1.845-1.853Z" transform="translate(-250.612 -96.263)" fill="#fff"/>
      <path id="Trazado_614696" data-name="Trazado 614696" d="M412.632,89.523H205.884v12.124H412.632Z" transform="translate(-132.975 -57.848)" fill="#4f6736"/>
      <path id="Trazado_614697" data-name="Trazado 614697" d="M446.157,96.259H267.386v7.356H446.157Z" transform="translate(-172.716 -62.201)" fill="#fff"/>
      <path id="Trazado_614698" data-name="Trazado 614698" d="M229.926,97.612a2.414,2.414,0,1,0-.76,3.924l2.5,2.5,1.2-1.2-2.47-2.47a2.413,2.413,0,0,0-.465-2.754Zm2.373,5.224-.635.635-2.129-2.13a2.3,2.3,0,0,0,.647-.622l2.115,2.116Zm-2.654-2.091a2.016,2.016,0,1,1,0-2.851A2.019,2.019,0,0,1,229.645,100.744Z" transform="translate(-145.849 -62.619)" fill="#fff"/>
      <path id="Trazado_614699" data-name="Trazado 614699" d="M650.653,532.852h-7.627v26.4h7.627Z" transform="translate(-415.448 -344.319)" fill="#4f6736"/>
      <path id="Trazado_614700" data-name="Trazado 614700" d="M674.551,532.852h-9.969v26.4h9.969Z" transform="translate(-429.377 -344.319)" fill="#2f4419"/>
      <path id="Trazado_614701" data-name="Trazado 614701" d="M674.055,570.842a4.412,4.412,0,1,0-6.24,0A4.412,4.412,0,0,0,674.055,570.842Z" transform="translate(-430.631 -364.001)" fill="#4f6736"/>
      <path id="Trazado_614702" data-name="Trazado 614702" d="M675.374,572.161a3.234,3.234,0,1,0-4.574,0A3.234,3.234,0,0,0,675.374,572.161Z" transform="translate(-432.783 -366.152)" fill="#2f4419"/>
      <path id="Trazado_614703" data-name="Trazado 614703" d="M658.932,441.8a.219.219,0,0,1-.217-.191l-2.19-17.351a.222.222,0,0,1,.053-.172.219.219,0,0,1,.164-.074h22.665a.219.219,0,0,1,.218.191l2.19,17.351a.223.223,0,0,1-.053.172.219.219,0,0,1-.164.074Z" transform="translate(-424.17 -273.991)" fill="#4f6736"/>
      <path id="Trazado_614704" data-name="Trazado 614704" d="M661.1,441.8a.219.219,0,0,1-.218-.191l-2.19-17.351a.222.222,0,0,1,.053-.172.219.219,0,0,1,.164-.074h22.665a.219.219,0,0,1,.217.191l2.19,17.351a.219.219,0,0,1-.217.246Z" transform="translate(-425.572 -273.991)" fill="#2f4419"/>
      <path id="Trazado_614705" data-name="Trazado 614705" d="M684.165,441.982H661.5l-2.19-17.353h22.665Z" transform="translate(-425.972 -274.388)" fill="#2f4419"/>
      <path id="Trazado_614706" data-name="Trazado 614706" d="M662.225,442.5,660.4,427.98h22.223l1.829,14.524Z" transform="translate(-426.674 -276.553)" fill="#4f6736"/>
      <path id="Trazado_614707" data-name="Trazado 614707" d="M689.153,474.339H683.69v1.628h5.463Z" transform="translate(-441.725 -306.509)" fill="#2f4419"/>
      <path id="Trazado_614708" data-name="Trazado 614708" d="M690.081,474.339h-5.463v1.628h5.463Z" transform="translate(-442.324 -306.509)" fill="#4f6736"/>
      <path id="Trazado_614709" data-name="Trazado 614709" d="M741.468,527.265l8-44.351h15.339l8.268,44.358h-1.329l-9.2-42.644H752.268L742.86,527.26Z" transform="translate(-479.06 -312.05)" fill="#969696"/>
      <path id="Trazado_614710" data-name="Trazado 614710" d="M737.756,527.265l8-44.351h15.337l8.27,44.358h-1.328l-9.2-42.644H748.555l-9.407,42.632Z" transform="translate(-476.661 -312.05)" fill="#787878"/>
      <path id="Trazado_614711" data-name="Trazado 614711" d="M688.858,480.3h38.131v-1.429H688.858Z" transform="translate(-445.064 -309.441)" fill="#969696"/>
      <path id="Trazado_614712" data-name="Trazado 614712" d="M806.56,571.513H805.1v11.224h1.456Z" transform="translate(-520.18 -369.302)" fill="#787878"/>
      <path id="Trazado_614713" data-name="Trazado 614713" d="M805.465,546.385h-2.31l-.473-14.951h3.255Z" transform="translate(-518.615 -343.403)" fill="#787878"/>
      <path id="Trazado_614714" data-name="Trazado 614714" d="M803.073,539.754h-5.35l-1.094-8.32h7.54Z" transform="translate(-514.704 -343.403)" fill="#969696"/>
      <path id="Trazado_614715" data-name="Trazado 614715" d="M738.039,597.454a4.631,4.631,0,0,1,.943,2.635H723.43c1.2-2.12,8.119-4.478,8.119-4.478l6.492,1.842Z" transform="translate(-467.404 -384.874)" fill="#4a281c"/>
      <path id="Trazado_614716" data-name="Trazado 614716" d="M762.859,489.755c.114,3.255.286,8.569-1.714,9.083s-24.621.058-24.621.058c1.029,11.367,3.2,28.792,3.2,28.792-1.6.114-6.569-2.056-7.6-2.456s-2.114-.685-2.114-.685a3.231,3.231,0,0,0,.4-1.429c0-.743-6.513-27.591-5.941-29.591a4.988,4.988,0,0,1,3.485-3.427c1.485-.514,18.909-4.113,18.909-4.113l16,3.771Z" transform="translate(-468.052 -314.035)" fill="#405529"/>
      <path id="Trazado_614717" data-name="Trazado 614717" d="M721.23,447.087c2.427-.029,9.854-1.628,9.854-1.628s1.029,5.4.857,5.37S722.23,449.344,721.23,447.087Z" transform="translate(-465.982 -287.848)" fill="#f0734d"/>
      <path id="Trazado_614718" data-name="Trazado 614718" d="M760.649,398a11.668,11.668,0,0,0-.371,2.257c-2.8,3.57-5.513,9.4-6.312,9.483s-6,1.456-6.113,1.543c-.743,1.342-.344,4.028-.344,4.028l.8.058c-.085.342.857,7.627.942,7.654s9.025.085,10.139-.6a13.628,13.628,0,0,0,2.6-2.657s1.257,3.113.4,3.684-.8,1.313-1.2,1.657-1.2,1.085-1.2,1.085c2.228.114,5.2,1.942,7.14,3.085s10.11,1.6,11.367,1.085c1.257-3.827-.628-20.394-3.086-27.82a15.848,15.848,0,0,0-8.4-9.711l-4.742,2.684L760.645,398Z" transform="translate(-482.894 -253.838)" fill="#3b5620"/>
      <path id="Trazado_614719" data-name="Trazado 614719" d="M777.724,352.861c-1.942-1.286-2.827-3.371.485-2.342-.143-1.029,1.628-1.429,3.713-.485s4.656,2.2,4.883,3.827-2.114,8.2-2.114,8.2a13.066,13.066,0,0,1-2.57-.485c-.114-.2-4.4-8.712-4.4-8.712Z" transform="translate(-501.369 -225.841)" fill="#2b1710"/>
      <path id="Trazado_614720" data-name="Trazado 614720" d="M773.88,354.965c-.485,1.456-1.857,2.742-2.056,3.371s.257,1.313.143,1.715-2.342,2.684-2.228,2.8c.257.228,1.628.315,1.657.429a7.1,7.1,0,0,0,0,1.114l.315.315c-.029.257.143.485.315.857s-.257,1.543.058,1.857,2.485,0,3.028.228.686,4.084.657,4.769c4,.143,5.656-3.628,5.656-3.628-.572-.685-.686-3.2-.771-3.2a3.692,3.692,0,0,1-1.657-2.284c1.429-.458,1.829-2.628,1.029-3.285a1.163,1.163,0,0,0-1.858.8c-.371.571-.771-.828-.8-1.4-1.057-.686-.743-3.171-.743-3.171-2.485-.172-2.742-1.286-2.742-1.286Z" transform="translate(-497.325 -229.372)" fill="#ff8762"/>
      <path id="Trazado_614721" data-name="Trazado 614721" d="M780.126,368.372c0,.339-.16.614-.357.614s-.357-.275-.357-.614.16-.614.357-.614S780.126,368.033,780.126,368.372Z" transform="translate(-503.578 -237.639)" fill="#2b1710"/>
      <path id="Trazado_614722" data-name="Trazado 614722" d="M777.687,364.163a11.216,11.216,0,0,1,2.585.357C778.23,363.178,777.417,363.263,777.687,364.163Z" transform="translate(-502.431 -234.886)" fill="#2b1710"/>
      <g id="Grupo_1016116" data-name="Grupo 1016116" transform="translate(276.114 131.094)">
        <path id="Trazado_614723" data-name="Trazado 614723" d="M780.261,371.207a.055.055,0,0,1,0-.11c.094,0,.414-.039.532-.542a.054.054,0,0,1,.106.024C780.763,371.161,780.377,371.207,780.261,371.207Z" transform="translate(-780.206 -370.513)" fill="#e0b3a8"/>
      </g>
      <path id="Trazado_614724" data-name="Trazado 614724" d="M775.791,380.887c-.083,0-.167,0-.254-.008a.055.055,0,1,1,.006-.109,4.083,4.083,0,0,0,2.435-.6.055.055,0,0,1,.064.088,4.169,4.169,0,0,1-2.252.632Z" transform="translate(-501.041 -245.65)" fill="#2b1710"/>
      <g id="Grupo_1016117" data-name="Grupo 1016117" transform="translate(281.456 130.968)">
        <path id="Trazado_614725" data-name="Trazado 614725" d="M795.454,372.4a.87.87,0,0,1-.1-.007.055.055,0,0,1-.046-.063.054.054,0,0,1,.062-.045.5.5,0,0,0,.515-.242.675.675,0,0,0,.034-.7.492.492,0,0,0-.534-.176.054.054,0,0,1-.05-.018.058.058,0,0,1-.012-.052c.009-.029.214-.708.625-.891a.517.517,0,0,1,.451.015.055.055,0,0,1-.047.1.407.407,0,0,0-.36-.014,1.364,1.364,0,0,0-.536.742.572.572,0,0,1,.555.234.789.789,0,0,1-.032.822A.609.609,0,0,1,795.454,372.4Z" transform="translate(-795.304 -370.158)" fill="#e0b3a8"/>
      </g>
      <g id="Grupo_1016118" data-name="Grupo 1016118" transform="translate(278.142 133.934)">
        <path id="Trazado_614726" data-name="Trazado 614726" d="M785.992,382.677a.055.055,0,0,1-.024-.1,4.412,4.412,0,0,0,2.683-3.98.055.055,0,1,1,.109,0,4.519,4.519,0,0,1-2.744,4.075A.046.046,0,0,1,785.992,382.677Z" transform="translate(-785.937 -378.54)" fill="#e0b3a8"/>
      </g>
      <g id="Grupo_1016119" data-name="Grupo 1016119" transform="translate(280.671 143.24)">
        <path id="Trazado_614727" data-name="Trazado 614727" d="M793.137,408.814a.041.041,0,0,1-.019,0,.056.056,0,0,1-.03-.071c.018-.044,1.837-4.4,7.511-3.847a.055.055,0,0,1,.049.059.054.054,0,0,1-.059.048c-5.59-.546-7.381,3.736-7.4,3.779a.055.055,0,0,1-.05.035Z" transform="translate(-793.084 -404.842)" fill="#d1d1d1"/>
      </g>
      <g id="Grupo_1016120" data-name="Grupo 1016120" transform="translate(277.381 148.333)">
        <path id="Trazado_614728" data-name="Trazado 614728" d="M783.863,424.83a.055.055,0,0,1-.055-.053,36.019,36.019,0,0,1,.214-5.494.055.055,0,1,1,.108.017,35.942,35.942,0,0,0-.214,5.473.054.054,0,0,1-.053.056h0Z" transform="translate(-783.786 -419.236)" fill="#adadad"/>
      </g>
      <g id="Grupo_1016121" data-name="Grupo 1016121" transform="translate(265.461 150.916)">
        <path id="Trazado_614729" data-name="Trazado 614729" d="M750.785,437.086a4.7,4.7,0,0,1-.643-.03.055.055,0,0,1,.017-.108c1.059.163,7.885-.424,8.4-.469,1.754-3.345,5.063-9.685,5.122-9.9a.054.054,0,0,1,.065-.039.053.053,0,0,1,.041.062c-.042.216-4.624,8.958-5.146,9.954a.056.056,0,0,1-.044.029c-.263.023-5.735.5-7.811.5Z" transform="translate(-750.096 -426.536)" fill="#d1d1d1"/>
      </g>
      <g id="Grupo_1016122" data-name="Grupo 1016122" transform="translate(271.03 155.929)">
        <path id="Trazado_614730" data-name="Trazado 614730" d="M765.891,442.441h-.006a.055.055,0,0,1-.049-.061c.023-.2.043-.445.061-.679.07-.871.093-.991.184-1,.065,0,.091.068.12.214a2.69,2.69,0,0,0,.619,1.323s.029-.021.042-.12a2.165,2.165,0,0,0-.293-1.207.054.054,0,1,1,.093-.056,2.236,2.236,0,0,1,.307,1.278c-.02.14-.07.213-.149.214-.25.009-.635-.936-.731-1.41,0-.012,0-.023-.007-.034-.029.173-.058.515-.081.8-.02.236-.038.477-.061.682a.055.055,0,0,1-.055.048Z" transform="translate(-765.836 -440.704)" fill="#d1d1d1"/>
      </g>
      <g id="Grupo_1016123" data-name="Grupo 1016123" transform="translate(273.816 160.729)">
        <path id="Trazado_614731" data-name="Trazado 614731" d="M773.972,456.631c-.059,0-.08-.071-.091-.106a3.9,3.9,0,0,1-.056-.914,3.218,3.218,0,0,0-.036-.684.058.058,0,0,1-.067-.015.051.051,0,0,1,.006-.074.1.1,0,0,1,.1-.018c.1.046.1.254.1.792a5.135,5.135,0,0,0,.038.824c.023-.114.047-.3.069-.459a2.574,2.574,0,0,1,.242-1.047c.128-.128.422.015.707.152a2.023,2.023,0,0,0,.3.126.636.636,0,0,0-.067-.123,1.649,1.649,0,0,0-.909-.705.056.056,0,0,1-.041-.065.055.055,0,0,1,.065-.041,1.724,1.724,0,0,1,.975.752c.076.119.117.208.069.265s-.178.017-.436-.11c-.19-.091-.509-.246-.582-.173a3.216,3.216,0,0,0-.21.985c-.069.531-.09.634-.17.641h-.006Z" transform="translate(-773.709 -454.271)" fill="#d1d1d1"/>
      </g>
      <g id="Grupo_1016124" data-name="Grupo 1016124" transform="translate(279.298 155.63)">
        <path id="Trazado_614732" data-name="Trazado 614732" d="M789.26,449.221a.056.056,0,0,1-.044-.021.054.054,0,0,1,.011-.076c1.942-1.477,7.643-9.166,7.7-9.242a.054.054,0,1,1,.088.064c-.058.078-5.768,7.779-7.723,9.265A.053.053,0,0,1,789.26,449.221Z" transform="translate(-789.204 -439.859)" fill="#d1d1d1"/>
      </g>
      <g id="Grupo_1016125" data-name="Grupo 1016125" transform="translate(263.271 176.924)">
        <path id="Trazado_614733" data-name="Trazado 614733" d="M748.679,533.226a.054.054,0,0,1-.053-.044c-.04-.217-4.034-21.8-4.542-25.022-.234-1.483-.211-1.81-.083-1.919.082-.07.193-.034.31,0a.569.569,0,0,0,.727-.184,1.117,1.117,0,0,0,.209-1.129c-.07-.281-.137-.547.331-.689.2-.059,1.315-.216,3-.453,5.6-.786,17.242-2.42,17.956-3.719a.055.055,0,1,1,.1.053c-.742,1.348-11.992,2.927-18.037,3.775-1.625.228-2.8.392-2.988.45-.369.111-.328.269-.257.556a1.223,1.223,0,0,1-.231,1.225.671.671,0,0,1-.845.219c-.091-.03-.17-.055-.205-.026a4.64,4.64,0,0,0,.12,1.819c.508,3.218,4.5,24.8,4.542,25.019a.054.054,0,0,1-.044.064Z" transform="translate(-743.906 -500.042)" fill="#d1d1d1"/>
      </g>
      <g id="Grupo_1016126" data-name="Grupo 1016126" transform="translate(263.276 210.342)">
        <path id="Trazado_614734" data-name="Trazado 614734" d="M751.688,597.342a.069.069,0,0,1-.029-.008,25.308,25.308,0,0,0-7.694-2.734.053.053,0,0,1-.042-.064.055.055,0,0,1,.064-.043,25.443,25.443,0,0,1,7.73,2.749.055.055,0,0,1-.029.1Z" transform="translate(-743.921 -594.492)" fill="#d1d1d1"/>
      </g>
      <g id="Grupo_1016127" data-name="Grupo 1016127" transform="translate(265.566 181.977)">
        <path id="Trazado_614735" data-name="Trazado 614735" d="M752.271,517.176h0a2.683,2.683,0,0,1-1.752-.879c-.078-.1-.16-.225-.1-.307.093-.128.433-.012,1.078.222a4.883,4.883,0,0,0,1.207.341c.1,0,.117-.02.117-.02.017-.058-.239-.307-.444-.506a7.383,7.383,0,0,1-1.348-1.62.054.054,0,0,1,.021-.074.053.053,0,0,1,.074.021,7.306,7.306,0,0,0,1.33,1.594c.369.359.517.509.468.626-.032.079-.14.088-.217.088a4.816,4.816,0,0,1-1.243-.347,2.9,2.9,0,0,0-.953-.26s-.009.038.1.175a2.62,2.62,0,0,0,1.675.836.054.054,0,0,1,.05.059.054.054,0,0,1-.055.05Z" transform="translate(-750.394 -514.325)" fill="#d1d1d1"/>
      </g>
      <g id="Grupo_1016128" data-name="Grupo 1016128" transform="translate(282.339 174.778)">
        <path id="Trazado_614736" data-name="Trazado 614736" d="M799.27,496.744a.041.041,0,0,1-.017,0,2.339,2.339,0,0,1-1.386-1.217A1.705,1.705,0,0,1,798.2,494a.055.055,0,1,1,.09.062,1.6,1.6,0,0,0-.317,1.426,2.269,2.269,0,0,0,1.318,1.148.055.055,0,0,1-.017.108Z" transform="translate(-797.799 -493.977)" fill="#d1d1d1"/>
      </g>
      <path id="Trazado_614737" data-name="Trazado 614737" d="M741.184,598.1a.055.055,0,0,1-.053-.041c0-.006-.187-.654-1.582-.859a.055.055,0,0,1,.017-.108c1.476.218,1.666.91,1.674.941a.055.055,0,0,1-.04.067l-.013,0Z" transform="translate(-477.79 -385.83)" fill="#2b1710"/>
      <path id="Trazado_614738" data-name="Trazado 614738" d="M735.312,600.643a.055.055,0,0,1-.053-.041c0-.006-.187-.654-1.582-.859a.055.055,0,0,1,.017-.108c1.476.218,1.666.91,1.674.941a.055.055,0,0,1-.04.067l-.014,0Z" transform="translate(-473.995 -387.474)" fill="#2b1710"/>
      <path id="Trazado_614739" data-name="Trazado 614739" d="M739.977,606.1H726.053a.055.055,0,0,1,0-.109h13.924a.055.055,0,1,1,0,.109Z" transform="translate(-469.064 -391.581)" fill="#2b1710"/>
      <path id="Trazado_614740" data-name="Trazado 614740" d="M715.074,449.911s-7.169-1.085-7.8-1.342-3.028-2.027-3.256-2.085a33.5,33.5,0,0,0-4.484-.143c-.228.143-3.57,3.255-3.57,3.255a1.163,1.163,0,0,0,.685.172,5.06,5.06,0,0,0-.429.886c.514.172,2.57-1.2,2.57-1.2s-2.228,2.427-1.828,2.628,1.286-.114,1.286-.114c.6.428,2.427-1.8,3.056-1.628s1.715,1.686,4.742,1.686c4.742,2.942,9.8,4.97,9.826,4.8-.286-3.2-.8-6.913-.8-6.913Z" transform="translate(-449.658 -288.388)" fill="#ff8762"/>
      <path id="Trazado_614741" data-name="Trazado 614741" d="M794.62,522.834H774.213a.958.958,0,0,0-.957.957v2.327a.957.957,0,0,0,.957.957H794.62a.957.957,0,0,0,.957-.957v-2.327A.957.957,0,0,0,794.62,522.834Z" transform="translate(-499.601 -337.846)" fill="#4f6736"/>
      <path id="Trazado_614742" data-name="Trazado 614742" d="M834.407,464.2l4.915-28.4a2.12,2.12,0,0,1,4.177.733l-4.915,28.4a2.12,2.12,0,0,1-4.177-.733Z" transform="translate(-539.095 -280.477)" fill="#4f6736"/>
      <path id="Trazado_614743" data-name="Trazado 614743" d="M837.313,517.271a3.085,3.085,0,1,0-3.711,2.294A3.085,3.085,0,0,0,837.313,517.271Z" transform="translate(-537.058 -331.799)" fill="#787878"/>
      <path id="Trazado_614744" data-name="Trazado 614744" d="M838,518.551a2.284,2.284,0,1,0-2.748,1.7A2.284,2.284,0,0,0,838,518.551Z" transform="translate(-538.521 -333.263)" fill="#969696"/>
      <path id="Trazado_614745" data-name="Trazado 614745" d="M839.422,521a.672.672,0,1,1-.672-.672A.672.672,0,0,1,839.422,521Z" transform="translate(-541.488 -336.227)" fill="#bababa"/>
      <path id="Trazado_614746" data-name="Trazado 614746" d="M798.814,500.387a.47.47,0,0,1-.067,0,.438.438,0,0,1-.367-.5l2.216-14.36a3.562,3.562,0,0,1,3.539-3.034h11.187a.438.438,0,0,1,0,.876H804.135a2.689,2.689,0,0,0-2.672,2.292l-2.216,14.36a.439.439,0,0,1-.432.371Z" transform="translate(-515.832 -311.775)" fill="#bababa"/>
      <path id="Trazado_614747" data-name="Trazado 614747" d="M813.87,477.587h10.276a.774.774,0,0,1,.773.773v.939H813.095v-.939a.774.774,0,0,1,.773-.773Z" transform="translate(-525.344 -308.608)" fill="#4f6736"/>
      <path id="Trazado_614748" data-name="Trazado 614748" d="M803.682,601.037a1.971,1.971,0,1,0-1.971-1.971A1.971,1.971,0,0,0,803.682,601.037Z" transform="translate(-517.988 -385.832)" fill="#787878"/>
      <path id="Trazado_614749" data-name="Trazado 614749" d="M806.473,600.867a.985.985,0,1,1-.985-.985A.985.985,0,0,1,806.473,600.867Z" transform="translate(-519.792 -387.633)" fill="#969696"/>
      <path id="Trazado_614750" data-name="Trazado 614750" d="M793.881,580.923a17.759,17.759,0,0,0-3.934-6.253,16.588,16.588,0,0,0-12.079-5.28l-.056,0h-.182a.375.375,0,0,0-.056,0,16.585,16.585,0,0,0-12.079,5.28,17.744,17.744,0,0,0-3.934,6.253.767.767,0,0,0,.541.939.748.748,0,0,0,.2.026.767.767,0,0,0,.74-.568,16.321,16.321,0,0,1,3.564-5.595,15.256,15.256,0,0,1,22.227,0,16.305,16.305,0,0,1,3.564,5.595.767.767,0,0,0,.74.568.826.826,0,0,0,.2-.026.765.765,0,0,0,.541-.939Z" transform="translate(-492.027 -367.928)" fill="#969696"/>
      <path id="Trazado_614751" data-name="Trazado 614751" d="M847.318,601.037a1.971,1.971,0,1,0-1.972-1.971A1.971,1.971,0,0,0,847.318,601.037Z" transform="translate(-546.184 -385.832)" fill="#787878"/>
      <path id="Trazado_614752" data-name="Trazado 614752" d="M850.1,600.867a.985.985,0,1,1-.985-.985A.985.985,0,0,1,850.1,600.867Z" transform="translate(-547.986 -387.633)" fill="#969696"/>
      <path id="Trazado_614753" data-name="Trazado 614753" d="M760.359,601.037a1.971,1.971,0,1,0-1.971-1.971A1.971,1.971,0,0,0,760.359,601.037Z" transform="translate(-489.993 -385.832)" fill="#787878"/>
      <path id="Trazado_614754" data-name="Trazado 614754" d="M763.146,600.867a.985.985,0,1,1-.985-.985A.985.985,0,0,1,763.146,600.867Z" transform="translate(-491.795 -387.633)" fill="#969696"/>
      <path id="Trazado_614755" data-name="Trazado 614755" d="M653.283,478.88H633.8v1.429h19.479Z" transform="translate(-409.489 -309.444)" fill="#787878"/>
      <path id="Trazado_614756" data-name="Trazado 614756" d="M629.757,527.265l8-44.351H653.1l8.27,44.358h-1.328l-9.2-42.644H640.556l-9.407,42.632Z" transform="translate(-406.874 -312.05)" fill="#969696"/>
      <path id="Trazado_614757" data-name="Trazado 614757" d="M626.041,527.265l8-44.351h15.339l8.268,44.358h-1.328l-9.2-42.644H636.842l-9.408,42.632Z" transform="translate(-404.473 -312.05)" fill="#787878"/>
      <path id="Trazado_614758" data-name="Trazado 614758" d="M645.72,462.083a1.755,1.755,0,1,0,2.026,1.257A1.689,1.689,0,0,0,645.72,462.083Zm.784,2.853a1.213,1.213,0,1,1,.76-1.464A1.167,1.167,0,0,1,646.5,464.936Z" transform="translate(-416.435 -298.555)" fill="#4f6736"/>
      <path id="Trazado_614759" data-name="Trazado 614759" d="M649.647,455.348c.543,5.126-.1,7.755,2.347,8.34h2.032c2.442-.585,1.8-3.213,2.346-8.34h-6.726Z" transform="translate(-419.726 -294.238)" fill="#4f6736"/>
      <g id="Grupo_1016129" data-name="Grupo 1016129" transform="translate(230.871 161.11)">
        <path id="Trazado_614760" data-name="Trazado 614760" d="M653.732,463.688h2.032c2.442-.585,1.8-3.213,2.347-8.34h-1.268c-.542,4.35-2.28,6.741-4.508,7.4a2.112,2.112,0,0,0,1.4.944Z" transform="translate(-652.335 -455.348)" fill="#d1d1d1"/>
      </g>
      <g id="Grupo_1016130" data-name="Grupo 1016130" transform="translate(230.727 161.867)">
        <path id="Trazado_614761" data-name="Trazado 614761" d="M652.039,457.487h.745a.112.112,0,0,1,.113.113v.888a.112.112,0,0,1-.113.113h-.745a.112.112,0,0,1-.112-.113V457.6A.112.112,0,0,1,652.039,457.487Z" transform="translate(-651.927 -457.487)" fill="#292929"/>
      </g>
      <g id="Grupo_1016131" data-name="Grupo 1016131" transform="translate(230.727 163.29)">
        <path id="Trazado_614762" data-name="Trazado 614762" d="M652.039,461.508h.745a.112.112,0,0,1,.113.113v2.734a.112.112,0,0,1-.113.113h-.745a.112.112,0,0,1-.112-.113v-2.734A.112.112,0,0,1,652.039,461.508Z" transform="translate(-651.927 -461.508)" fill="#292929"/>
      </g>
      <path id="Trazado_614763" data-name="Trazado 614763" d="M675.313,546.261a2.014,2.014,0,1,0-2.014-2.014A2.014,2.014,0,0,0,675.313,546.261Z" transform="translate(-435.01 -350.381)" fill="#4f6736"/>
      <path id="Trazado_614764" data-name="Trazado 614764" d="M676.295,546.706a1.476,1.476,0,1,0-1.476-1.476A1.476,1.476,0,0,0,676.295,546.706Z" transform="translate(-435.992 -351.364)" fill="#2f4419"/>
      <path id="Trazado_614765" data-name="Trazado 614765" d="M191.352,423.089a10.27,10.27,0,0,0,1.2-4.836c-.049-.9-.107-2.035-.17-3.336-.032-.647-.064-1.335-.1-2.054l4.164,1.5c-.137.761-.266,1.474-.383,2.126a15.42,15.42,0,0,0-.192,4.213,4.322,4.322,0,0,0,.175.985c.281.714,2.528,3.292,3.474,5.43.084.257,2.578.87,2.149,1.417-.24.107-4.677.083-5.13-.433a6.792,6.792,0,0,0-2.816-2.172,19.114,19.114,0,0,0-.261,2.132l-1.909-.152s-.064-1.906-.1-2.482-.613-1.5-.1-2.339Z" transform="translate(-123.448 -266.785)" fill="#ff8762"/>
      <path id="Trazado_614766" data-name="Trazado 614766" d="M199.534,444.2a6.545,6.545,0,0,1-1.99-.034c-.4-.216-2.836-3.821-5.756-4.9a6.157,6.157,0,0,1-.436.885c-.512.84.064,1.763.1,2.339s.1,2.482.1,2.482l1.909.152a19.114,19.114,0,0,1,.261-2.132,6.8,6.8,0,0,1,2.816,2.172c.453.517,4.89.54,5.13.433C202.086,445.063,199.744,444.489,199.534,444.2Z" transform="translate(-123.448 -283.845)" fill="#2b1710"/>
      <path id="Trazado_614767" data-name="Trazado 614767" d="M122.338,304.224c-3.71,8.431-4.992,19.268-.479,20.455s20.069,4.276,20.069,4.276l1.544,20.187,7.6-.237,1.9-15.675s8.194-12.112,7.125-14.725-23.511-8.787-23.511-8.787l-1.047-5.753-13.2.261Z" transform="translate(-76.819 -196.417)" fill="#405529"/>
      <g id="Grupo_1016132" data-name="Grupo 1016132" transform="translate(55.315 111.984)">
        <path id="Trazado_614768" data-name="Trazado 614768" d="M177.025,340.643h-.006a.114.114,0,0,1-.108-.12c.2-3.885.432-11.466-.117-12.358-.565-.92-14.128-5-19.306-6.5a.115.115,0,0,1-.082-.1,15.251,15.251,0,0,0-1.236-4.9.113.113,0,1,1,.2-.1,15.341,15.341,0,0,1,1.253,4.9c2.242.649,18.654,5.426,19.361,6.574.722,1.175.173,12.028.151,12.489a.114.114,0,0,1-.114.108Z" transform="translate(-156.158 -316.503)" fill="#d9d9d9"/>
      </g>
      <g id="Grupo_1016133" data-name="Grupo 1016133" transform="translate(65.238 130.686)">
        <path id="Trazado_614769" data-name="Trazado 614769" d="M184.608,371.307a.7.7,0,0,1-.23-.034.237.237,0,0,1-.16-.143c-.055-.148.047-.324.19-.567a1.7,1.7,0,0,0,.339-1.071.114.114,0,1,1,.225-.036,1.905,1.905,0,0,1-.366,1.225,1.131,1.131,0,0,0-.173.371l.018.008a2.059,2.059,0,0,0,1.116-.261.113.113,0,0,1,.1.2,2.878,2.878,0,0,1-1.059.307Z" transform="translate(-184.204 -369.359)" fill="#d9d9d9"/>
      </g>
      <g id="Grupo_1016134" data-name="Grupo 1016134" transform="translate(43.96 112.251)">
        <path id="Trazado_614770" data-name="Trazado 614770" d="M148.626,355.2a.115.115,0,0,1-.114-.109c-.263-7.373-.813-18.523-1.248-19.019-.434-.278-.374-.8-.325-1.217a1.187,1.187,0,0,0,0-.53c-.162-.077-1.187-.292-2.368-.538-5.758-1.2-19.239-4.02-20.5-8.01a.119.119,0,0,1,.009-.091.115.115,0,0,1,.073-.055c2.583-.6,4.54-4.382,4.277-8.253a.114.114,0,1,1,.228-.015c.267,3.915-1.705,7.745-4.329,8.46,1.442,3.8,14.626,6.558,20.288,7.742,2.184.456,2.441.52,2.5.623a1.135,1.135,0,0,1,.046.695c-.046.392-.093.8.231,1.006.641.412,1.231,16.062,1.344,19.195a.114.114,0,0,1-.11.117h-.006Z" transform="translate(-124.065 -317.256)" fill="#d9d9d9"/>
      </g>
      <g id="Grupo_1016135" data-name="Grupo 1016135" transform="translate(66.805 150.635)">
        <path id="Trazado_614771" data-name="Trazado 614771" d="M188.746,426.148a.114.114,0,0,1,0-.228l6.858-.178a.114.114,0,0,1,.117.111.115.115,0,0,1-.111.117l-6.858.178Z" transform="translate(-188.632 -425.742)" fill="#d9d9d9"/>
      </g>
      <path id="Trazado_614772" data-name="Trazado 614772" d="M160.848,252.843c4.174,1.479,7.923,7.131,8.928,9.086s5.706,3.011,5.706,3.011-1.056,4.279-1.11,4.65c-2.695,2.113-5.335,5.811-11.252,3.38s-2.271-20.127-2.271-20.127Z" transform="translate(-103.156 -163.383)" fill="#4f6736"/>
      <path id="Trazado_614773" data-name="Trazado 614773" d="M124.434,250.7a13.632,13.632,0,0,1,4.92-2.617l6.674.863,1.825.856s2.7,9.1,2.414,10.5-1.661,2.716-2.134,4.323a4.541,4.541,0,0,0-.263,1.891l-12.707.018a58.721,58.721,0,0,0-.73-6.176C124.153,259.006,122.638,254.345,124.434,250.7Z" transform="translate(-79.785 -160.304)" fill="#3b5620"/>
      <path id="Trazado_614774" data-name="Trazado 614774" d="M119.631,329.653c.195.6.427,2.791,1.257,3.012a3.528,3.528,0,0,1,2.328,1.633c.465.939,1.816,1.3,1.841,1.532s-1.345.275-1.9-.049-.6-.66-.752-.333,1.12,3.534,1.645,4.523-.728.208-.728.208c-.324.4-.92,0-.92,0-.581.5-1.912-1.248-2.008-1.046-.639.6-1.993-1.379-2.222-2.715a12.243,12.243,0,0,0-.738-3.578c-.547-1.07-1.239-2.493-1.239-2.493l3.435-.7Z" transform="translate(-75.021 -213.014)" fill="#ff8762"/>
      <g id="Grupo_1016136" data-name="Grupo 1016136" transform="translate(46.215 123.476)">
        <path id="Trazado_614775" data-name="Trazado 614775" d="M132.415,352.51a.066.066,0,0,1-.067-.02,9.359,9.359,0,0,1-1.907-3.431.065.065,0,1,1,.128-.024,9.409,9.409,0,0,0,1.879,3.37.066.066,0,0,1-.006.091.083.083,0,0,1-.024.014Z" transform="translate(-130.439 -348.982)" fill="#e0b3a8"/>
      </g>
      <g id="Grupo_1016137" data-name="Grupo 1016137" transform="translate(45.084 124.247)">
        <path id="Trazado_614776" data-name="Trazado 614776" d="M129.264,353.929a.068.068,0,0,1-.061-.014,7.666,7.666,0,0,1-1.957-2.672.064.064,0,1,1,.123-.038,7.686,7.686,0,0,0,1.92,2.613.064.064,0,0,1,0,.091.1.1,0,0,1-.03.02Z" transform="translate(-127.242 -351.16)" fill="#e0b3a8"/>
      </g>
      <g id="Grupo_1016138" data-name="Grupo 1016138" transform="translate(44.463 124.629)">
        <path id="Trazado_614777" data-name="Trazado 614777" d="M126.295,353.471a.066.066,0,0,1-.067-.02,4.142,4.142,0,0,1-.737-1.126.064.064,0,1,1,.122-.042,4.055,4.055,0,0,0,.714,1.087.065.065,0,0,1-.008.091.051.051,0,0,1-.024.012Z" transform="translate(-125.487 -352.239)" fill="#e0b3a8"/>
      </g>
      <path id="Trazado_614778" data-name="Trazado 614778" d="M129.168,217.531c-.83,1.287-.83,4.236,1.5,3.737-.208.54.664,1.868,4.485.54,0,0,2.45,1.951,4.941.581,0,0,1.7.913,2.7-.415,1.163,0,.705-1.122-.5-3.239,1.412.29,1.246-2.16-.415-5.025,1.163,0,.249-3.155-2.117-4.485-2.325-1.868-4.152-.913-4.152-.913.041-.789-.914-.789-.54.041-.748-.415-1.619.29-.5.664-2.7,1-4.111,3.737-3.031,3.7-3.155,2.117-3.819,5.025-2.366,4.817Z" transform="translate(-82.931 -134.228)" fill="#2b1710"/>
      <path id="Trazado_614779" data-name="Trazado 614779" d="M163.223,236.117a.239.239,0,1,1-.238-.238A.238.238,0,0,1,163.223,236.117Z" transform="translate(-105.1 -152.421)" fill="#fff"/>
      <path id="Trazado_614780" data-name="Trazado 614780" d="M163.413,234.008a.394.394,0,1,1-.394-.393A.394.394,0,0,1,163.413,234.008Z" transform="translate(-105.022 -150.958)" fill="#fff"/>
      <path id="Trazado_614781" data-name="Trazado 614781" d="M145.329,224.1a2.877,2.877,0,0,0,1.263,3.2c-.042,4.547-6.7-.19-6.674-.863,0-.084,1.22-.359,1.663-1.137s.652-2.758.485-5.411c1.032.273,1.389-.547,1.41-1.958s.695-3.663,3.432-3.306c1.032,1.263,1.579,2.064,1.5,3.706a30.359,30.359,0,0,1-.1,3.593A2.922,2.922,0,0,1,145.329,224.1Z" transform="translate(-90.349 -138.664)" fill="#ff8762"/>
      <g id="Grupo_1016139" data-name="Grupo 1016139" transform="translate(54.716 82.679)">
        <path id="Trazado_614782" data-name="Trazado 614782" d="M154.464,233.877c1.043-.316,2.184-.238,2.286.1A3.529,3.529,0,0,1,154.464,233.877Z" transform="translate(-154.464 -233.676)" fill="#e0b3a8"/>
      </g>
      <path id="Trazado_614783" data-name="Trazado 614783" d="M142.959,230.455a.84.84,0,1,0-.841-.841A.84.84,0,0,0,142.959,230.455Z" transform="translate(-91.77 -147.83)" fill="#ff8762"/>
      <g id="Grupo_1016140" data-name="Grupo 1016140" transform="translate(50.713 81.321)">
        <path id="Trazado_614784" data-name="Trazado 614784" d="M143.806,230.74a.054.054,0,0,0,.05-.033.053.053,0,0,0-.029-.071.166.166,0,0,1-.117-.131.178.178,0,0,1,.085-.155.192.192,0,0,1,.2-.007.054.054,0,0,0,.055,0,.057.057,0,0,0,.026-.049.471.471,0,0,0-.353-.427.5.5,0,0,0-.559.164.054.054,0,1,0,.087.065.393.393,0,0,1,.439-.125.383.383,0,0,1,.261.243.3.3,0,0,0-.216.046.284.284,0,0,0-.134.257.267.267,0,0,0,.182.222.065.065,0,0,0,.021,0Z" transform="translate(-143.152 -229.839)" fill="#e0b3a8"/>
      </g>
      <g id="Grupo_1016141" data-name="Grupo 1016141" transform="translate(51.95 82.38)">
        <path id="Trazado_614785" data-name="Trazado 614785" d="M149.508,235.888a.067.067,0,0,1-.015,0,4.13,4.13,0,0,1-2.845-2.987.055.055,0,0,1,.04-.065.054.054,0,0,1,.065.04,4.018,4.018,0,0,0,2.769,2.908.052.052,0,0,1,.036.067.053.053,0,0,1-.052.04Z" transform="translate(-146.647 -232.832)" fill="#e0b3a8"/>
      </g>
      <path id="Trazado_614786" data-name="Trazado 614786" d="M150.786,223.5a.055.055,0,0,1-.047-.028.053.053,0,0,1,.02-.073,2.794,2.794,0,0,1,1.882-.328.054.054,0,1,1-.03.1,2.72,2.72,0,0,0-1.8.318A.063.063,0,0,1,150.786,223.5Z" transform="translate(-97.336 -144.109)" fill="#2b1710"/>
      <path id="Trazado_614787" data-name="Trazado 614787" d="M161.436,223.885a.053.053,0,0,1-.043-.021c-.009-.012-.226-.29-.92-.2a.054.054,0,0,1-.013-.108c.742-.093.992.212,1.018.246a.054.054,0,0,1-.011.076A.049.049,0,0,1,161.436,223.885Z" transform="translate(-103.592 -144.444)" fill="#2b1710"/>
      <path id="Trazado_614788" data-name="Trazado 614788" d="M159.273,227.577a.059.059,0,0,1-.043-.02.053.053,0,0,1,.009-.076,5.568,5.568,0,0,0,.657-.588,1.59,1.59,0,0,0-.231-.013,1.292,1.292,0,0,1-.544-.081c-.287-.161-.011-1.378.243-1.95a.054.054,0,1,1,.1.044c-.295.664-.464,1.715-.289,1.812a1.3,1.3,0,0,0,.494.067c.218,0,.348.006.348.106s-.385.43-.708.689a.055.055,0,0,1-.033.012Z" transform="translate(-102.678 -145.273)" fill="#2b1710"/>
      <path id="Trazado_614789" data-name="Trazado 614789" d="M155.7,234.461a3.837,3.837,0,0,1-1.518-.258.053.053,0,1,1,.047-.1,4.1,4.1,0,0,0,2.322.141.054.054,0,0,1,.052.094A2.424,2.424,0,0,1,155.7,234.461Z" transform="translate(-99.543 -151.272)" fill="#2b1710"/>
      <g id="Grupo_1016142" data-name="Grupo 1016142" transform="translate(55.271 84.001)">
        <path id="Trazado_614790" data-name="Trazado 614790" d="M156.648,237.657a1.083,1.083,0,0,1-.591-.146.054.054,0,0,1,.059-.09,1.471,1.471,0,0,0,1.145.017.055.055,0,0,1,.076.011.053.053,0,0,1-.008.075,1.549,1.549,0,0,1-.679.135Z" transform="translate(-156.032 -237.413)" fill="#e0b3a8"/>
      </g>
      <path id="Trazado_614791" data-name="Trazado 614791" d="M153.957,226.462c0,.319-.146.579-.327.579s-.327-.26-.327-.579.146-.579.327-.579S153.957,226.143,153.957,226.462Z" transform="translate(-98.999 -145.962)" fill="#2b1710"/>
      <g id="Grupo_1016143" data-name="Grupo 1016143" transform="translate(54.118 80.786)">
        <path id="Trazado_614792" data-name="Trazado 614792" d="M153.214,228.815c-.113,0-.36-.048-.439-.457a.027.027,0,1,1,.053-.011c.077.4.315.421.414.413a.026.026,0,0,1,.029.024.027.027,0,0,1-.024.029h-.032Z" transform="translate(-152.774 -228.325)" fill="#e0b3a8"/>
      </g>
      <path id="Trazado_614793" data-name="Trazado 614793" d="M160.939,226.659c0,.319-.146.579-.327.579s-.327-.26-.327-.579.146-.579.327-.579S160.939,226.34,160.939,226.659Z" transform="translate(-103.51 -146.089)" fill="#2b1710"/>
      <g id="Grupo_1016144" data-name="Grupo 1016144" transform="translate(56.589 80.855)">
        <path id="Trazado_614794" data-name="Trazado 614794" d="M160.2,229.013c-.113,0-.36-.049-.439-.457a.027.027,0,1,1,.053-.011c.077.4.315.421.413.413a.026.026,0,0,1,.029.024.027.027,0,0,1-.024.029h-.03Z" transform="translate(-159.759 -228.523)" fill="#e0b3a8"/>
      </g>
      <path id="Trazado_614795" data-name="Trazado 614795" d="M152.628,230.659c-.128.173-.213.327-.19.344s.146-.108.275-.281.213-.327.19-.344S152.757,230.485,152.628,230.659Z" transform="translate(-98.437 -148.865)" fill="#ff7e57"/>
      <path id="Trazado_614796" data-name="Trazado 614796" d="M153.56,230.779c-.128.173-.213.327-.19.344s.146-.108.275-.281.213-.327.19-.344S153.689,230.605,153.56,230.779Z" transform="translate(-99.039 -148.942)" fill="#ff7e57"/>
      <path id="Trazado_614797" data-name="Trazado 614797" d="M154.591,230.878c-.128.173-.213.327-.19.344s.146-.108.275-.281.213-.327.19-.344S154.72,230.7,154.591,230.878Z" transform="translate(-99.705 -149.006)" fill="#ff7e57"/>
      <path id="Trazado_614798" data-name="Trazado 614798" d="M144.688,233.695a.394.394,0,1,1-.394-.394A.394.394,0,0,1,144.688,233.695Z" transform="translate(-92.923 -150.755)" fill="#fff"/>
      <path id="Trazado_614799" data-name="Trazado 614799" d="M144.816,235.8a.239.239,0,1,1-.239-.238A.238.238,0,0,1,144.816,235.8Z" transform="translate(-93.206 -152.215)" fill="#fff"/>
      <path id="Trazado_614800" data-name="Trazado 614800" d="M152.678,213.314a2.255,2.255,0,0,1-3.595,1.444c-.954-.913,1.288-2.2,1.288-2.2Z" transform="translate(-96.118 -137.351)" fill="#2b1710"/>
      <path id="Trazado_614801" data-name="Trazado 614801" d="M110.119,255.476c2.526,1.967,2.639,7.312.617,12.305a14.224,14.224,0,0,0,.338,11.5c1.067,2.471,1.4,5.648-3.088,6.052s-6.569-8.019-6.569-13.465S106.245,256.233,110.119,255.476Z" transform="translate(-65.47 -165.084)" fill="#4f6736"/>
      <path id="Trazado_614802" data-name="Trazado 614802" d="M140.74,300.229H127.994V301.8H140.74Z" transform="translate(-82.644 -194.003)" fill="#2b1710"/>
      <path id="Trazado_614803" data-name="Trazado 614803" d="M133.322,299.67h-.646v1.853h.646Z" transform="translate(-85.669 -193.641)" fill="#405529"/>
      <path id="Trazado_614804" data-name="Trazado 614804" d="M161.489,299.752h-.646V301.6h.646Z" transform="translate(-103.87 -193.694)" fill="#707070"/>
      <path id="Trazado_614805" data-name="Trazado 614805" d="M146.369,290.342h17.794a.761.761,0,0,0,.752-.649l2.257-15.225a.761.761,0,0,0-.752-.872H148.626a.761.761,0,0,0-.753.649l-2.257,15.225A.761.761,0,0,0,146.369,290.342Z" transform="translate(-94.026 -176.792)" fill="#afc797"/>
      <path id="Trazado_614806" data-name="Trazado 614806" d="M127.5,320.917h24.4a.505.505,0,0,1,.5.5v.816a.505.505,0,0,1-.5.5H127.5a.505.505,0,0,1-.5-.5v-.816A.505.505,0,0,1,127.5,320.917Z" transform="translate(-82 -207.371)" fill="#afc797"/>
      <path id="Trazado_614807" data-name="Trazado 614807" d="M172.147,292.015h3.862v1.567a.625.625,0,0,1-.624.625h-3.862V292.64A.625.625,0,0,1,172.147,292.015Z" transform="translate(-110.771 -188.695)" fill="#fff"/>
      <path id="Trazado_614808" data-name="Trazado 614808" d="M197.71,294.47c1.315-.952,1.847-4.226-.336-4.925a5.287,5.287,0,0,0-.2.952s-3.274.307-3.414,1.314a.821.821,0,0,0,.056,1.119c-.056.588,1.371.951,1.371.951s-.868-.167-.839.252S196.731,294.889,197.71,294.47Z" transform="translate(-125.008 -187.099)" fill="#ff8762"/>
      <g id="Grupo_1016145" data-name="Grupo 1016145" transform="translate(69.013 104.465)">
        <path id="Trazado_614809" data-name="Trazado 614809" d="M195.65,295.8a6.078,6.078,0,0,0,2.62-.479.037.037,0,0,0,.015-.048.037.037,0,0,0-.049-.015,7.413,7.413,0,0,1-3.324.444.037.037,0,0,0-.04.032.037.037,0,0,0,.032.039c.008,0,.309.028.743.028Z" transform="translate(-194.874 -295.252)" fill="#e0b3a8"/>
      </g>
      <g id="Grupo_1016146" data-name="Grupo 1016146" transform="translate(68.916 105.808)">
        <path id="Trazado_614810" data-name="Trazado 614810" d="M197.2,299.5h.012a.036.036,0,0,0,.035-.036.034.034,0,0,0-.036-.035,9.822,9.822,0,0,1-2.564-.377.036.036,0,1,0-.02.068A9.956,9.956,0,0,0,197.2,299.5Z" transform="translate(-194.598 -299.047)" fill="#e0b3a8"/>
      </g>
      <g id="Grupo_1016147" data-name="Grupo 1016147" transform="translate(70.274 106.76)">
        <path id="Trazado_614811" data-name="Trazado 614811" d="M199.16,301.9c.067,0,.108,0,.113,0a.035.035,0,0,0,.033-.038.037.037,0,0,0-.038-.034,2.742,2.742,0,0,1-.786-.083.038.038,0,0,0-.044.026.038.038,0,0,0,.026.044A2.921,2.921,0,0,0,199.16,301.9Z" transform="translate(-198.437 -301.738)" fill="#e0b3a8"/>
      </g>
      <g id="Grupo_1016148" data-name="Grupo 1016148" transform="translate(156.461 63.406)">
        <path id="Trazado_614812" data-name="Trazado 614812" d="M532.781,212.111,520.3,205.226A16.506,16.506,0,0,0,506.8,179.2H458.54a16.511,16.511,0,1,0,0,33.021H506.8a16.788,16.788,0,0,0,1.926-.115Z" transform="translate(-442.029 -179.205)" fill="#bfbfbf"/>
      </g>
      <path id="Trazado_614813" data-name="Trazado 614813" d="M534.3,204.933l-12.486-6.885a16.506,16.506,0,0,0-13.492-26.021H460.061a16.511,16.511,0,0,0,0,33.021h48.263a16.8,16.8,0,0,0,1.926-.115Z" transform="translate(-286.55 -111.161)" fill="#839571"/>
      <path id="Trazado_614814" data-name="Trazado 614814" d="M495.316,191.276H474.45a.882.882,0,0,0-.882.882v2.509a.882.882,0,0,0,.882.881h20.867a.881.881,0,0,0,.881-.881v-2.509A.882.882,0,0,0,495.316,191.276Z" transform="translate(-305.948 -123.599)" fill="#fff"/>
      <path id="Trazado_614815" data-name="Trazado 614815" d="M598.44,242.511H577.573a.882.882,0,0,0-.881.882V245.9a.882.882,0,0,0,.881.882H598.44a.882.882,0,0,0,.882-.882v-2.509A.882.882,0,0,0,598.44,242.511Z" transform="translate(-372.584 -156.706)" fill="#fff"/>
      <path id="Trazado_614816" data-name="Trazado 614816" d="M532.727,217.128H474.45a.882.882,0,0,0-.882.881v2.51a.882.882,0,0,0,.882.881h58.278a.882.882,0,0,0,.882-.881v-2.51A.882.882,0,0,0,532.727,217.128Z" transform="translate(-305.948 -140.304)" fill="#fff"/>
      <g id="Grupo_1016149" data-name="Grupo 1016149" transform="translate(251.115 73.496)">
        <path id="Trazado_614817" data-name="Trazado 614817" d="M719.429,227.574a9.925,9.925,0,1,0-9.879-9.925A9.9,9.9,0,0,0,719.429,227.574Z" transform="translate(-709.55 -207.724)" fill="#bfbfbf"/>
      </g>
      <path id="Trazado_614818" data-name="Trazado 614818" d="M722.918,226.355a9.925,9.925,0,1,0-9.88-9.925A9.9,9.9,0,0,0,722.918,226.355Z" transform="translate(-460.689 -133.44)" fill="#4f6736"/>
      <path id="Trazado_614819" data-name="Trazado 614819" d="M734.685,222.811a3.452,3.452,0,1,0-3.437-3.451A3.444,3.444,0,0,0,734.685,222.811Z" transform="translate(-472.456 -139.516)" fill="#fff"/>
      <path id="Trazado_614820" data-name="Trazado 614820" d="M729.849,245.837a9.145,9.145,0,0,0,6.084-2.333,6.092,6.092,0,0,0-12.168,0A9.149,9.149,0,0,0,729.849,245.837Z" transform="translate(-467.62 -153.612)" fill="#fff"/>
      <g id="Grupo_1016150" data-name="Grupo 1016150" transform="translate(181.355 110.617)">
        <path id="Trazado_614821" data-name="Trazado 614821" d="M512.385,345.545l12.486-6.885a16.506,16.506,0,0,1,13.492-26.021h48.263a16.511,16.511,0,1,1,0,33.021H538.363a16.794,16.794,0,0,1-1.925-.115Z" transform="translate(-512.385 -312.639)" fill="#bfbfbf"/>
      </g>
      <path id="Trazado_614822" data-name="Trazado 614822" d="M510.86,338.363l12.486-6.885a16.506,16.506,0,0,1,13.492-26.021H585.1a16.511,16.511,0,1,1,0,33.021H536.838a16.706,16.706,0,0,1-1.925-.116Z" transform="translate(-330.045 -197.381)" fill="#839571"/>
      <path id="Trazado_614823" data-name="Trazado 614823" d="M674.257,328.983h20.867a.882.882,0,0,0,.882-.882v-2.509a.882.882,0,0,0-.882-.882H674.257a.882.882,0,0,0-.881.882V328.1A.882.882,0,0,0,674.257,328.983Z" transform="translate(-435.06 -209.822)" fill="#fff"/>
      <path id="Trazado_614824" data-name="Trazado 614824" d="M571.138,380.213h20.867a.882.882,0,0,0,.882-.881v-2.509a.882.882,0,0,0-.882-.882H571.138a.882.882,0,0,0-.881.882v2.509A.881.881,0,0,0,571.138,380.213Z" transform="translate(-368.426 -242.926)" fill="#fff"/>
      <path id="Trazado_614825" data-name="Trazado 614825" d="M568.522,354.834H626.8a.882.882,0,0,0,.882-.881v-2.509a.882.882,0,0,0-.882-.882H568.522a.882.882,0,0,0-.881.882v2.509A.881.881,0,0,0,568.522,354.834Z" transform="translate(-366.736 -226.527)" fill="#fff"/>
      <g id="Grupo_1016151" data-name="Grupo 1016151" transform="translate(157.694 120.708)">
        <path id="Trazado_614826" data-name="Trazado 614826" d="M455.392,361.009a9.925,9.925,0,1,0-9.879-9.925A9.9,9.9,0,0,0,455.392,361.009Z" transform="translate(-445.513 -341.159)" fill="#bfbfbf"/>
      </g>
      <path id="Trazado_614827" data-name="Trazado 614827" d="M451.9,359.789a9.925,9.925,0,1,0-9.88-9.925A9.9,9.9,0,0,0,451.9,359.789Z" transform="translate(-285.562 -219.663)" fill="#4f6736"/>
      <path id="Trazado_614828" data-name="Trazado 614828" d="M463.667,356.245a3.452,3.452,0,1,0-3.437-3.452A3.444,3.444,0,0,0,463.667,356.245Z" transform="translate(-297.329 -225.739)" fill="#fff"/>
      <path id="Trazado_614829" data-name="Trazado 614829" d="M458.831,379.271a9.147,9.147,0,0,1-6.084-2.333,6.092,6.092,0,0,1,12.168,0A9.149,9.149,0,0,1,458.831,379.271Z" transform="translate(-292.493 -239.834)" fill="#fff"/>
    </g>
  </g>
</svg>
