<svg xmlns="http://www.w3.org/2000/svg" width="277.035" height="261.89" viewBox="0 0 277.035 261.89">
  <g id="Grupo_1066772" data-name="Grupo 1066772" transform="translate(-19600 10047.944)">
    <g id="Group_74" data-name="Group 74" transform="translate(19600 -10048.939)">
      <path id="Trazado_614830" data-name="Trazado 614830" d="M138.517,349.985c76.5,0,138.517-32.093,138.517-71.682S215.019,206.62,138.517,206.62,0,238.713,0,278.3,62.016,349.985,138.517,349.985Z" transform="translate(0 -87.1)" fill="#bebebe"/>
      <path id="Trazado_614831" data-name="Trazado 614831" d="M337.793,383.933c20.177,0,36.533-10.1,36.533-22.566S357.97,338.8,337.793,338.8s-36.533,10.1-36.533,22.567S317.616,383.933,337.793,383.933Z" transform="translate(-127.61 -143.09)" fill="#e0e0e0"/>
      <path id="Trazado_614832" data-name="Trazado 614832" d="M91.208,326.888,39.9,297.267c-1.793-1.032-1.793-2.709,0-3.747l92.727-53.549a7.18,7.18,0,0,1,6.485,0l51.306,29.622c1.793,1.032,1.793,2.709,0,3.741L97.693,326.883a7.18,7.18,0,0,1-6.485,0Z" transform="translate(-16.333 -100.9)" fill="#e0e0e0"/>
      <path id="Trazado_614833" data-name="Trazado 614833" d="M71.07,7.725,65.778,10.78a5.837,5.837,0,0,0,.046-.7V8.543c0-2.726-1.914-3.833-4.277-2.467A8.279,8.279,0,0,0,59,8.526c-.386-3.43-3.078-4.709-6.346-2.819a14.147,14.147,0,0,0-6.4,11.084v2.294a6.053,6.053,0,0,0,.542,2.657L42.4,24.279a5.246,5.246,0,0,0-2.375,4.11c0,1.516,1.061,2.127,2.375,1.372L71.07,13.212A5.246,5.246,0,0,0,73.445,9.1c0-1.516-1.061-2.127-2.375-1.372Z" transform="translate(-16.956 -1.625)" fill="#c4c4c4"/>
      <path id="Trazado_614834" data-name="Trazado 614834" d="M120.821,28.138l-3.995,2.306c.017-.179.035-.357.035-.53V28.754c0-2.058-1.447-2.894-3.228-1.862a6.3,6.3,0,0,0-1.925,1.85c-.294-2.588-2.323-3.551-4.79-2.127a10.671,10.671,0,0,0-4.83,8.364v1.729a4.6,4.6,0,0,0,.409,2.006l-3.314,1.914a3.953,3.953,0,0,0-1.793,3.1c0,1.141.8,1.6,1.793,1.032L120.815,32.27a3.953,3.953,0,0,0,1.793-3.1c0-1.141-.8-1.6-1.793-1.032Z" transform="translate(-41.253 -10.573)" fill="#c4c4c4"/>
      <path id="Trazado_614835" data-name="Trazado 614835" d="M97.88,300c1.994-12.082,1.677-16.468-3.58-27.241A35.157,35.157,0,0,0,81.447,258.7c-4.571-2.738-8.923-3.585-12.641-1.879a6.7,6.7,0,0,0-3.441,7.482c.617,2.963,6.012,8.254,10.94,12.525,7.516,6.513,17.246,15.511,18.549,31.639L94,316.706,97.886,300Z" transform="translate(-27.621 -107.992)" fill="#4f6736"/>
      <path id="Trazado_614836" data-name="Trazado 614836" d="M97.88,300c1.994-12.082,1.677-16.468-3.58-27.241A35.157,35.157,0,0,0,81.447,258.7c-4.571-2.738-8.923-3.585-12.641-1.879a6.7,6.7,0,0,0-3.441,7.482c.617,2.963,6.012,8.254,10.94,12.525,7.516,6.513,17.246,15.511,18.549,31.639L94,316.706,97.886,300Z" transform="translate(-27.621 -107.992)" opacity="0.2"/>
      <path id="Trazado_614837" data-name="Trazado 614837" d="M101.12,310.721a.408.408,0,0,1-.3-.455c3.182-21.6-11.3-39.133-22.976-43.49a.412.412,0,0,1-.242-.525.4.4,0,0,1,.525-.242c11.937,4.456,26.745,22.359,23.5,44.378a.41.41,0,0,1-.467.346.069.069,0,0,1-.046-.012Z" transform="translate(-32.861 -112.244)" fill="#fff"/>
      <path id="Trazado_614838" data-name="Trazado 614838" d="M95.071,349.424c-.2.179-.409.357-.623.53-2.842,2.311-7.124,2.945-10.7,3.02-2.358.046-5.534.1-7.534-1.326a3.081,3.081,0,0,1-1.383-3.13c.334-1.268,1.741-2.19,1.643-3.493-2.651-.4-5.493.749-7.972-.265-1.868-.767-3.049-2.582-4.116-4.294-.628-1.009-1.28-2.185-.94-3.326.4-1.349,1.954-1.925,3.291-2.363a2.709,2.709,0,0,0,.991-.49.941.941,0,0,0,.305-1c-.167-.421-.686-.571-1.141-.634-.968-.138-1.954-.15-2.911-.34a4.381,4.381,0,0,1-2.548-1.337,5.737,5.737,0,0,1-.991-3.286,49.6,49.6,0,0,1-.179-5.926,39.511,39.511,0,0,0-.4-5.1,35.746,35.746,0,0,1,14.681-2.167c2.738.1,6.784.68,8.416,3.245a5.152,5.152,0,0,1,.721,2.432c.023.306-.19,1.908-.012,2.023a.369.369,0,0,0,.45-.092,1.04,1.04,0,0,0,.208-.45c.242-.842.651-1.522.911-2.334a6.23,6.23,0,0,1,.738-2.3,2.626,2.626,0,0,1,2.138-.767c2.894.081,5.332,2.421,6.427,5.107s1.118,5.66,1.124,8.56c.461-.945.922-1.885,1.383-2.83,1.614-3.3,3.418,2.824,3.7,3.971a18.49,18.49,0,0,1-5.689,18.364Z" transform="translate(-25.36 -132.779)" fill="#4f6736"/>
      <path id="Trazado_614839" data-name="Trazado 614839" d="M98.8,352.736a.4.4,0,0,1-.323-.271c-3.989-12.376-22.907-28.723-30.146-31.19a.4.4,0,0,1-.248-.5.4.4,0,0,1,.5-.248c7.361,2.513,26.59,19.12,30.642,31.7a.392.392,0,0,1-.254.5A.443.443,0,0,1,98.8,352.736Z" transform="translate(-28.831 -135.342)" fill="#fff"/>
      <path id="Trazado_614840" data-name="Trazado 614840" d="M81.34,344.643a.362.362,0,0,1-.323-.19.371.371,0,0,1,.15-.5A22.555,22.555,0,0,1,96.413,342.6a33.75,33.75,0,0,1,1.355-14.047l.029-.109a.371.371,0,0,1,.715.2l-.029.11a32.781,32.781,0,0,0-1.257,14.307.383.383,0,0,1-.121.334.374.374,0,0,1-.346.075A21.74,21.74,0,0,0,81.524,344.6a.388.388,0,0,1-.173.046Z" transform="translate(-34.299 -138.587)" fill="#fff"/>
      <path id="Trazado_614841" data-name="Trazado 614841" d="M197.427,2.116,122.753,45.238a8.039,8.039,0,0,0-4.023,6.675V214.178a8.957,8.957,0,0,0,3.775,7.13c2.081,1.2,5.689,1.072,8.058-.3l74.4-42.96a9.514,9.514,0,0,0,4.288-7.43V8.947c0-2.738-1.689-5.926-3.775-7.13s-5.695-1.066-8.058.3Z" transform="translate(-50.293 0)" fill="#37474f"/>
      <path id="Trazado_614842" data-name="Trazado 614842" d="M129.542,256.214a8.835,8.835,0,0,1-7.032-.19c-2.081-1.2-3.77-4.4-3.77-7.13V86.628a7.583,7.583,0,0,1,1.078-3.678l6.923,3.925a8.344,8.344,0,0,0-1.994,5v160.5C124.746,255.66,126.827,257.222,129.542,256.214Z" transform="translate(-50.297 -34.715)" fill="#263238"/>
      <path id="Trazado_614843" data-name="Trazado 614843" d="M132.931,54.211a8.386,8.386,0,0,0-3.781,6.548v160.5c0,3.695,2.617,5.205,5.816,3.36l74.42-42.966a9.514,9.514,0,0,0,4.288-7.43V12.542c0-2.726-1.931-3.839-4.288-2.479Z" transform="translate(-54.706 -3.595)" fill="#455a64"/>
      <path id="Trazado_614844" data-name="Trazado 614844" d="M139.445,75.331a9,9,0,0,0-4.075,7.061V218.909c0,2.6,1.827,3.654,4.075,2.352l70.005-40.418a9.048,9.048,0,0,0,4.075-7.061V37.265c0-2.588-1.833-3.649-4.075-2.352Z" transform="translate(-57.341 -14.133)" fill="#37474f"/>
      <path id="Trazado_614845" data-name="Trazado 614845" d="M208.367,171.251V36.4L139.445,76.2a9,9,0,0,0-4.075,7.061V218.1l68.922-39.8a9.048,9.048,0,0,0,4.075-7.061Z" transform="translate(-57.341 -14.997)" fill="#4f6736"/>
      <path id="Trazado_614846" data-name="Trazado 614846" d="M208.367,171.251V36.4L139.445,76.2a9,9,0,0,0-4.075,7.061V218.1l68.922-39.8a9.048,9.048,0,0,0,4.075-7.061Z" transform="translate(-57.341 -14.997)" fill="#fff" opacity="0.6"/>
      <path id="Trazado_614847" data-name="Trazado 614847" d="M192.053,58.3l12.4-7.165c.738-.427,1.343-.121,1.343.68a2.867,2.867,0,0,1-1.343,2.225l-12.4,7.165c-.738.427-1.343.121-1.343-.68A2.867,2.867,0,0,1,192.053,58.3Z" transform="translate(-80.783 -21.158)"/>
      <path id="Trazado_614848" data-name="Trazado 614848" d="M229.057,42.223c.692-.4,1.257-.075,1.257.726a2.793,2.793,0,0,1-1.257,2.179c-.692.4-1.257.075-1.257-.726A2.793,2.793,0,0,1,229.057,42.223Z" transform="translate(-96.494 -17.39)"/>
      <path id="Trazado_614849" data-name="Trazado 614849" d="M237.787,37.193c.692-.4,1.257-.075,1.257.726a2.793,2.793,0,0,1-1.257,2.179c-.692.4-1.257.075-1.257-.726A2.793,2.793,0,0,1,237.787,37.193Z" transform="translate(-100.191 -15.26)"/>
      <path id="Trazado_614850" data-name="Trazado 614850" d="M167.977,77.493c.692-.4,1.257-.075,1.257.726a2.793,2.793,0,0,1-1.257,2.179c-.692.4-1.257.075-1.257-.726A2.793,2.793,0,0,1,167.977,77.493Z" transform="translate(-70.621 -32.33)"/>
      <path id="Trazado_614851" data-name="Trazado 614851" d="M176.707,72.463c.692-.4,1.257-.075,1.257.726a2.793,2.793,0,0,1-1.257,2.179c-.692.4-1.257.075-1.257-.726A2.793,2.793,0,0,1,176.707,72.463Z" transform="translate(-74.319 -30.2)"/>
      <path id="Trazado_614852" data-name="Trazado 614852" d="M244.086,239.477V253.64a9.173,9.173,0,0,1-3.009,6.277,6.407,6.407,0,0,1-1.066.784l-1.3.755c-5.931-4.934-10.427-8.733-10.427-8.733-10.2-12.047-9.027-21.125-7.782-21.229.144-.012.392-.069.738-.144h.017a22.613,22.613,0,0,1,18.86,4.767C241.083,236.918,242.449,238.082,244.086,239.477Z" transform="translate(-93.061 -97.391)" fill="#ffa8a7"/>
      <path id="Trazado_614853" data-name="Trazado 614853" d="M212.614,260.237a6.4,6.4,0,0,1-1.066.784l-1.3.755-53.283,30.763c-1.672-6.4-4.427-17-4.461-17.189,0-.1,6.023-9.1,6.433-19.615.4-10.485-2.513-15.108-3.441-16.116.427-.173,9.926-2.847,9.926-2.847l18.941-3.781,8.416-1.32h.017a43.21,43.21,0,0,1,17.644,18.088A19.64,19.64,0,0,1,212.614,260.237Z" transform="translate(-64.597 -97.711)" fill="#4f6736"/>
      <path id="Trazado_614854" data-name="Trazado 614854" d="M212.614,260.237a6.4,6.4,0,0,1-1.066.784l-1.3.755-53.283,30.763c-1.672-6.4-4.427-17-4.461-17.189,0-.1,6.023-9.1,6.433-19.615.4-10.485-2.513-15.108-3.441-16.116.427-.173,9.926-2.847,9.926-2.847l18.941-3.781,8.416-1.32h.017a43.21,43.21,0,0,1,17.644,18.088A19.64,19.64,0,0,1,212.614,260.237Z" transform="translate(-64.597 -97.711)" opacity="0.2"/>
      <path id="Trazado_614855" data-name="Trazado 614855" d="M148.236,245.456c-5.695.634-9.511,3.355-12.866,9.038v52.159l7.995-4.617,7.43-20.163s9.142-30.25-2.559-36.423Z" transform="translate(-57.341 -103.548)" fill="#ffa8a7"/>
      <path id="Trazado_614856" data-name="Trazado 614856" d="M161.123,181.224c.2-.709-1.481-3.02-1.85-3.654-.732-1.262-1.539-2.479-2.386-3.666-1.775-2.5-3.447-5.055-5.286-7.47a43.219,43.219,0,0,1-5.263-8.519,21.379,21.379,0,0,1-1.816-12.727,13.726,13.726,0,0,1,7.6-9.995,21.043,21.043,0,0,1,17.609-16.145c8.744-1.049,18.013,3.574,26.446-.334a10.353,10.353,0,0,1,3.222-1.245c2.577-.259,4.727,2.334,4.963,4.917s-.882,5.072-1.977,7.424a5.413,5.413,0,0,1,1.234,9.793c1.447,3.764.035,8.185-2.675,11.171s-6.5,4.761-10.318,6.047-7.782,2.167-11.482,3.77a32.282,32.282,0,0,0-18.019,20.653Z" transform="translate(-61.081 -49.328)" fill="#263238"/>
      <path id="Trazado_614857" data-name="Trazado 614857" d="M199.017,146.82c1.983,2.017,5.983,6.854,5.539,24.417-.375,14.883-5.211,18.549-7.632,19.6s-7.1.4-11.638-.369l-.017,7.257s6.439,4.473,8.047,8.531c1.257,3.17-6.767,7.568-18.952,2.317-4.974-2.144-9-7.609-9-7.609l.167-21.5s-2.68,2.588-7.205-1.383c-3.735-3.28-4.98-8.8-2.058-11.753s8.312-2.133,10.37,2.092c0,0,8.156.68,17.817-4.6s13.909-11.234,14.566-17Z" transform="translate(-65.509 -61.77)" fill="#ffa8a7"/>
      <path id="Trazado_614858" data-name="Trazado 614858" d="M209.289,183.165a1.966,1.966,0,1,0-.006,0Z" transform="translate(-87.067 -76.378)" fill="#263238"/>
      <path id="Trazado_614859" data-name="Trazado 614859" d="M209.528,203.666l7.026,1.268a3.508,3.508,0,0,1-4.069,2.992,3.741,3.741,0,0,1-2.957-4.265Z" transform="translate(-88.735 -85.846)" fill="#b16668"/>
      <path id="Trazado_614860" data-name="Trazado 614860" d="M212.571,208.874a3.471,3.471,0,0,0,1.424-.04,3.07,3.07,0,0,0-3.066-2.934,3,3,0,0,0-1.228.259,3.681,3.681,0,0,0,2.871,2.721Z" transform="translate(-88.827 -86.795)" fill="#f28f8f"/>
      <path id="Trazado_614861" data-name="Trazado 614861" d="M234.721,171.729l-4.271-1.723a2.211,2.211,0,0,1,2.922-1.326A2.423,2.423,0,0,1,234.721,171.729Z" transform="translate(-97.616 -70.96)" fill="#263238"/>
      <path id="Trazado_614862" data-name="Trazado 614862" d="M233.4,180.765a1.966,1.966,0,1,1,.006,0Z" transform="translate(-97.284 -75.361)" fill="#263238"/>
      <path id="Trazado_614863" data-name="Trazado 614863" d="M220.93,180.83l1.291,10.888,5.614-2.669Z" transform="translate(-93.583 -76.176)" fill="#f28f8f"/>
      <path id="Trazado_614864" data-name="Trazado 614864" d="M195.931,217.124c-4.784-.64-14.624-3.487-16.151-7.384a10.077,10.077,0,0,0,3.441,4.974c2.934,2.525,12.7,5.389,12.7,5.389v-2.98Z" transform="translate(-76.153 -88.422)" fill="#f28f8f"/>
      <path id="Trazado_614865" data-name="Trazado 614865" d="M173.694,186.941a4.634,4.634,0,0,0-.784-9.234Z" transform="translate(-73.243 -74.846)" fill="#263238"/>
      <path id="Trazado_614866" data-name="Trazado 614866" d="M237.663,265.192a13.559,13.559,0,0,0,6.133-10.617c0-3.908-2.744-5.493-6.133-3.539a13.543,13.543,0,0,0-6.133,10.617C231.53,265.561,234.274,267.146,237.663,265.192Z" transform="translate(-98.073 -105.56)" fill="#f28f8f"/>
      <path id="Trazado_614867" data-name="Trazado 614867" d="M235.456,265.783c.2-.2,1.164-1.147,1.326-1.343a.8.8,0,0,0,.254-.669c-.029-.317-.029-1.147-.029-1.389a.755.755,0,0,1,.271-.611,7.145,7.145,0,0,1,1.695-1.418,3.807,3.807,0,0,1,1.585-.49c.2-.012.19.2.184.4-.006.184,0,.427,0,.646a1.456,1.456,0,0,0,.006.161,2.715,2.715,0,0,0,.058.334c.035.184.127.225.219.231s.957.173,1.308.236.427-.2.507-.363.184-.317.277-.49a2.059,2.059,0,0,0,.219-.882,3.133,3.133,0,0,0-.513-2.1,1.3,1.3,0,0,0-.478-.346,2.241,2.241,0,0,0-1.314-.04,7.02,7.02,0,0,0-4.144,2.369c-1.873,2.121-1.718,2.311-1.948,2.819a5.136,5.136,0,0,0-.363,2.456c.161.553.4.836.484.83S235.26,265.973,235.456,265.783Z" transform="translate(-99.342 -108.681)" fill="#fff" fill-rule="evenodd"/>
      <path id="Trazado_614868" data-name="Trazado 614868" d="M209.233,281.612a13.559,13.559,0,0,0,6.133-10.617c0-3.908-2.744-5.493-6.133-3.539a13.543,13.543,0,0,0-6.133,10.617C203.1,281.981,205.844,283.566,209.233,281.612Z" transform="translate(-86.031 -112.515)" fill="#fff" opacity="0.5"/>
      <path id="Trazado_614869" data-name="Trazado 614869" d="M212.746,278.694c-.813.473-1.476-.029-1.476-1.118v-3.418a3.546,3.546,0,0,1,1.476-2.819c.813-.473,1.476.029,1.476,1.118v3.418A3.538,3.538,0,0,1,212.746,278.694Z" transform="translate(-89.492 -114.439)" fill="#fff"/>
      <path id="Trazado_614870" data-name="Trazado 614870" d="M211.208,282.806a1.769,1.769,0,0,1-.928-.265,2.514,2.514,0,0,1-.98-2.225.346.346,0,1,1,.692,0,1.891,1.891,0,0,0,.663,1.643,1.133,1.133,0,0,0,1.112.029c2.023-.922,2.185-3.314,2.156-4.3a.351.351,0,0,1,.334-.357h.012a.348.348,0,0,1,.346.334c.058,2.34-.9,4.19-2.565,4.951a2.074,2.074,0,0,1-.847.19Z" transform="translate(-88.657 -117.052)" fill="#fff"/>
      <path id="Trazado_614871" data-name="Trazado 614871" d="M212.055,288.409a.346.346,0,0,1-.173-.646l1.747-1.009a.346.346,0,1,1,.346.6l-1.747,1.009A.369.369,0,0,1,212.055,288.409Z" transform="translate(-89.677 -121.024)" fill="#fff"/>
      <path id="Trazado_614872" data-name="Trazado 614872" d="M180.8,298.022a13.559,13.559,0,0,0,6.133-10.617c0-3.908-2.744-5.493-6.133-3.539a13.543,13.543,0,0,0-6.133,10.617C174.67,298.391,177.414,299.976,180.8,298.022Z" transform="translate(-73.988 -119.466)" fill="#fff" opacity="0.5"/>
      <path id="Trazado_614873" data-name="Trazado 614873" d="M183.185,293.4a1.019,1.019,0,0,1-.525-.138,1.288,1.288,0,0,1-.571-1.187,3.418,3.418,0,0,1,1.562-2.709,1.169,1.169,0,0,1,1.885,1.089,3.418,3.418,0,0,1-1.562,2.709A1.611,1.611,0,0,1,183.185,293.4Z" transform="translate(-77.131 -122.051)" fill="#fff"/>
      <path id="Trazado_614874" data-name="Trazado 614874" d="M192.258,289.513a.286.286,0,0,0-.392-.1l-.669.386v-.957a.288.288,0,0,0-.576,0v1.291l-.957.553a.288.288,0,0,0,.144.536.273.273,0,0,0,.144-.04l.669-.386v.853a.288.288,0,1,0,.576,0v-1.187l.957-.553A.284.284,0,0,0,192.258,289.513Z" transform="translate(-80.279 -121.805)" fill="#fff"/>
      <path id="Trazado_614875" data-name="Trazado 614875" d="M185.13,297.059a2.034,2.034,0,0,0-2.087.161l-.865.5a5.824,5.824,0,0,0-2.669,4.629v.611a3.3,3.3,0,0,0,3.28-.346,9.515,9.515,0,0,0,3.28-3.435v-.15a2.153,2.153,0,0,0-.934-1.966Z" transform="translate(-76.038 -125.316)" fill="#fff"/>
      <path id="Trazado_614876" data-name="Trazado 614876" d="M152.363,314.442a13.559,13.559,0,0,0,6.133-10.617c0-3.908-2.744-5.493-6.133-3.539A13.543,13.543,0,0,0,146.23,310.9C146.23,314.811,148.974,316.4,152.363,314.442Z" transform="translate(-61.941 -126.421)" fill="#fff" opacity="0.5"/>
      <path id="Trazado_614877" data-name="Trazado 614877" d="M154.176,313.934a8.108,8.108,0,0,0,3.666-6.346c0-2.334-1.643-3.286-3.666-2.115a8.108,8.108,0,0,0-3.666,6.346C150.51,314.153,152.153,315.1,154.176,313.934Z" transform="translate(-63.754 -128.761)" fill="#fff"/>
      <path id="Trazado_614878" data-name="Trazado 614878" d="M152.363,122.132a13.559,13.559,0,0,0,6.133-10.617c0-3.908-2.744-5.493-6.133-3.539a13.543,13.543,0,0,0-6.133,10.618C146.23,122.5,148.974,124.086,152.363,122.132Z" transform="translate(-61.941 -44.961)" fill="#fff" opacity="0.3"/>
      <path id="Trazado_614879" data-name="Trazado 614879" d="M154.176,113.162a8.108,8.108,0,0,0-3.666,6.346c0,1.389.582,2.283,1.476,2.536l-.4,2.023,1.873-2.11a4.187,4.187,0,0,0,.721-.334,8.108,8.108,0,0,0,3.666-6.346C157.842,112.943,156.2,111.992,154.176,113.162Z" transform="translate(-63.754 -47.3)" fill="#fff"/>
      <path id="Trazado_614880" data-name="Trazado 614880" d="M180.793,105.712a13.559,13.559,0,0,0,6.133-10.617c0-3.908-2.744-5.493-6.133-3.539a13.543,13.543,0,0,0-6.133,10.617C174.66,106.081,177.4,107.666,180.793,105.712Z" transform="translate(-73.984 -38.006)" fill="#fff" opacity="0.3"/>
      <path id="Trazado_614881" data-name="Trazado 614881" d="M185.441,95.18l-.986.571v-.513c0-.329-.173-.5-.386-.369l-2.8,1.614a1.017,1.017,0,0,0-.386.819v.513l-.986.565a2.1,2.1,0,0,0-.8,1.689v5.009c0,.68.357,1.026.8.767l5.534-3.193a2.1,2.1,0,0,0,.8-1.689V95.953c0-.68-.357-1.026-.8-.767Zm-4.415,7.078a.4.4,0,0,1-.081.069.117.117,0,0,1-.184-.052,2.692,2.692,0,0,1-.184-1.038,5.031,5.031,0,0,1,2.1-4.012,1.956,1.956,0,0,1,.357-.161l-.34-.225c-.086-.058-.1-.231-.046-.386s.173-.242.259-.184l.772.513a.25.25,0,0,1,.081.2.52.52,0,0,1-.069.265l-.721,1.262a.308.308,0,0,1-.075.092.113.113,0,0,1-.184-.017.442.442,0,0,1,.023-.421l.311-.542a1.726,1.726,0,0,0-.357.156,4.074,4.074,0,0,0-1.695,3.239,2.26,2.26,0,0,0,.144.836.452.452,0,0,1-.1.415Zm1.649.571a2.546,2.546,0,0,1-.363.167l.317.254a.374.374,0,0,1,.029.4.43.43,0,0,1-.1.15.116.116,0,0,1-.156.012l-.732-.594a.251.251,0,0,1-.069-.2.479.479,0,0,1,.081-.265l.772-1.21c.086-.133.2-.156.259-.052a.462.462,0,0,1-.046.427l-.34.53a1.91,1.91,0,0,0,.363-.156,4.074,4.074,0,0,0,1.695-3.239,2.261,2.261,0,0,0-.144-.836.452.452,0,0,1,.1-.415c.1-.121.219-.127.265-.017a2.691,2.691,0,0,1,.184,1.037,5.031,5.031,0,0,1-2.1,4.012Z" transform="translate(-75.865 -39.746)" fill="#fff"/>
      <path id="Trazado_614882" data-name="Trazado 614882" d="M232.148,54.21,213.726,64.845a5.52,5.52,0,0,0-2.5,4.323v32.089c0,1.591,1.118,2.236,2.5,1.441l18.422-10.635a5.52,5.52,0,0,0,2.5-4.323V55.651C234.644,54.06,233.526,53.414,232.148,54.21Z" transform="translate(-89.475 -22.397)" fill="#455a64"/>
      <path id="Trazado_614883" data-name="Trazado 614883" d="M245.208,109.405a5.559,5.559,0,0,1-2.288,3.049l-1.032.594-.49.288c-1.631-2.265-3.067-4.363-3.067-4.363a37,37,0,0,1-1.13-3.758,22.5,22.5,0,0,1-.542-2.957.045.045,0,0,0,.017-.006,5.518,5.518,0,0,1,3.193.006,5.382,5.382,0,0,1,2.438,2.306C242.839,105.468,244.078,107.526,245.208,109.405Z" transform="translate(-100.246 -42.789)" fill="#4f6736"/>
      <path id="Trazado_614884" data-name="Trazado 614884" d="M245.208,109.405a5.559,5.559,0,0,1-2.288,3.049l-1.032.594-.49.288c-1.631-2.265-3.067-4.363-3.067-4.363a37,37,0,0,1-1.13-3.758,22.5,22.5,0,0,1-.542-2.957.045.045,0,0,0,.017-.006,5.518,5.518,0,0,1,3.193.006,5.382,5.382,0,0,1,2.438,2.306C242.839,105.468,244.078,107.526,245.208,109.405Z" transform="translate(-100.246 -42.789)" opacity="0.3"/>
      <path id="Trazado_614885" data-name="Trazado 614885" d="M234.081,113.215l-.49.282-4.732,2.726-.721.421-9.476,5.464-.386.219-.046-1.631.478-7.563c0-1.458.755-7.269.755-7.269l2.15-.853,1.3-.519.421-.167.173-.069,3.591-1.435c.236-.081.461-.15.686-.213h.012a1.71,1.71,0,0,1,.219-.052,5.347,5.347,0,0,1,.853-.138h.017c2.663-.208,4.087,1.793,4.744,5a53.037,53.037,0,0,1,.461,5.8Z" transform="translate(-92.44 -42.956)" fill="#4f6736"/>
      <path id="Trazado_614886" data-name="Trazado 614886" d="M217.347,117.666s-.9,3.476-1.66,6.992l-.386.225-1.729,1c-1.314.674-2.352.017-2.352-1.516v-7.257a19.019,19.019,0,0,1,1.839-6.444c.824-1.406,2.092-1.764,3.43-2.242C217.7,109.325,218.206,113.648,217.347,117.666Z" transform="translate(-89.47 -45.504)" fill="#4f6736"/>
      <path id="Trazado_614887" data-name="Trazado 614887" d="M217.347,117.666s-.9,3.476-1.66,6.992l-.386.225-1.729,1c-1.314.674-2.352.017-2.352-1.516v-7.257a19.019,19.019,0,0,1,1.839-6.444c.824-1.406,2.092-1.764,3.43-2.242C217.7,109.325,218.206,113.648,217.347,117.666Z" transform="translate(-89.47 -45.504)" opacity="0.3"/>
      <path id="Trazado_614888" data-name="Trazado 614888" d="M223.367,79.37a2.964,2.964,0,0,0-1.672,1.556c-.392,1-.248,3.211.271,5.557a21.1,21.1,0,0,0,1.32,4.352,1.287,1.287,0,0,0,.934.7l-.063-2.882-.092-2a10.605,10.605,0,0,0,1.245-3.435,5.578,5.578,0,0,0-.179-2.594Z" transform="translate(-93.813 -33.199)" fill="#263238"/>
      <path id="Trazado_614889" data-name="Trazado 614889" d="M222.989,78.982l-1.729-.605c.248-.64.83-1.02,1.308-.847a1.077,1.077,0,0,1,.421,1.458Z" transform="translate(-93.723 -32.401)" fill="#263238"/>
      <path id="Trazado_614890" data-name="Trazado 614890" d="M228.19,78.989c.006,2.986,2.11,5.026,4.7,4.559s4.675-3.262,4.669-6.248-2.11-5.026-4.7-4.559S228.184,76,228.19,78.989Z" transform="translate(-96.659 -30.363)" fill="#263238"/>
      <path id="Trazado_614891" data-name="Trazado 614891" d="M223.62,85.146c-.421.5-.767-.536-1.118-.9s-1.51-.738-2.081.767a3.056,3.056,0,0,0,1.395,3.585c1.268.455,1.833-1.118,1.833-1.118l.133,6.508a4.88,4.88,0,0,0,5.551,1.677c1.533-.726.594-1.9-.455-2.778l-.012-1.983a8.65,8.65,0,0,0,2.11-.254c1.153-.415,1.752-1.522,2.1-3.02a28.446,28.446,0,0,0,.006-10.692c-1.291-.922-5.758.052-8.462,2.513.2,3.948-.576,5.2-1,5.7Z" transform="translate(-93.299 -32.023)" fill="#ffa8a7"/>
      <path id="Trazado_614892" data-name="Trazado 614892" d="M235.316,70.195c-.035-.069-.092-.133-.167-.121a.311.311,0,0,0-.156.11,9.366,9.366,0,0,1-1.026.98,4.936,4.936,0,0,0,.017-1.62c-.052-.317-.133-1.061-.484-1.084-.208-.012-.392.225-.548.421-1.406,1.77-3.245,1.389-4.94,1.752a5.136,5.136,0,0,0-3.77,2.974c-.294.778-.346,1.556.236,1.96a3.148,3.148,0,0,0,1.729.438c2.824.069,6.871.7,8.957-2.709a3.022,3.022,0,0,0,.438-1.672,3.352,3.352,0,0,0-.282-1.406V70.2Z" transform="translate(-94.896 -28.577)" fill="#263238"/>
      <path id="Trazado_614893" data-name="Trazado 614893" d="M231.715,100.158a15.6,15.6,0,0,1-3.47-.525A2.488,2.488,0,0,1,227,98.44a4.254,4.254,0,0,0,.709,1.545c.657.853,4.012.963,4.012.963v-.79Z" transform="translate(-96.155 -41.276)" fill="#f28f8f"/>
      <path id="Trazado_614894" data-name="Trazado 614894" d="M233.272,88.4a.715.715,0,0,1-.513.709c-.282.052-.513-.184-.519-.524a.715.715,0,0,1,.513-.709C233.035,87.823,233.266,88.059,233.272,88.4Z" transform="translate(-98.374 -36.798)" fill="#263238"/>
      <path id="Trazado_614895" data-name="Trazado 614895" d="M232.206,84.842l-1.1.9a.925.925,0,0,1,.254-1.061.526.526,0,0,1,.847.156Z" transform="translate(-97.862 -35.385)" fill="#263238"/>
      <path id="Trazado_614896" data-name="Trazado 614896" d="M233.822,94.656l2.127.536a1.309,1.309,0,0,1-1.441,1.072,1.236,1.236,0,0,1-.686-1.614Z" transform="translate(-99.017 -39.671)" fill="#b16668"/>
      <path id="Trazado_614897" data-name="Trazado 614897" d="M234.212,95.92a1.1,1.1,0,0,0-.392.075,1.022,1.022,0,0,0,.715.807.972.972,0,0,0,.732-.121A1.108,1.108,0,0,0,234.212,95.92Z" transform="translate(-99.044 -40.209)" fill="#f28f8f"/>
      <path id="Trazado_614898" data-name="Trazado 614898" d="M240.879,83.571l-1.009-.715a.613.613,0,0,1,.87-.311.8.8,0,0,1,.133,1.026Z" transform="translate(-101.606 -34.506)" fill="#263238"/>
      <path id="Trazado_614899" data-name="Trazado 614899" d="M240.332,86.829a.715.715,0,0,1-.513.709c-.282.052-.513-.184-.519-.525a.715.715,0,0,1,.513-.709C240.1,86.253,240.326,86.489,240.332,86.829Z" transform="translate(-101.365 -36.133)" fill="#263238"/>
      <path id="Trazado_614900" data-name="Trazado 614900" d="M236.9,87l.179,3.545,1.62-.928Z" transform="translate(-100.348 -36.431)" fill="#f28f8f"/>
      <path id="Trazado_614901" data-name="Trazado 614901" d="M388.75,151.861c4.513-.306,6.8.6,9.638,5.482,3.182,5.459,9.9,19.022,10.3,19.938.772,1.741,1.118,3.556-.513,5.09-4.479,4.2-12.889,11.252-12.889,11.252l-3.124-7.609,6.56-7.3-5.539-10.981Z" transform="translate(-164.67 -63.882)" fill="#ffa8a7"/>
      <path id="Trazado_614902" data-name="Trazado 614902" d="M405.584,198.48a21.386,21.386,0,0,0,2.432,3.412,6.266,6.266,0,0,1-3.066-2.7Z" transform="translate(-171.532 -83.652)" fill="#f28f8f"/>
      <path id="Trazado_614903" data-name="Trazado 614903" d="M386.93,151.708a13.688,13.688,0,0,1,5.078-.069c2.3.53,4.265,2.34,6.231,5.822s6.243,12.335,6.243,12.335-1.625,3.574-8.237,5.926l-7.972-11.471-1.343-12.537Z" transform="translate(-163.899 -63.718)" fill="#4f6736"/>
      <path id="Trazado_614904" data-name="Trazado 614904" d="M386.93,151.708a13.688,13.688,0,0,1,5.078-.069c2.3.53,4.265,2.34,6.231,5.822s6.243,12.335,6.243,12.335-1.625,3.574-8.237,5.926l-7.972-11.471-1.343-12.537Z" transform="translate(-163.899 -63.718)" opacity="0.3"/>
      <path id="Trazado_614905" data-name="Trazado 614905" d="M319.48,392.41a4.5,4.5,0,0,0-.058,2.369c.225.478,1.649,2.041,4.542,2.611s6.877-.017,8.589-.1a82.6,82.6,0,0,1,8.808.784c2.686.363,4.755-.225,5.758-1.2a1.8,1.8,0,0,0,.4-1.418,7.239,7.239,0,0,0-.282-1.914Z" transform="translate(-135.247 -165.799)" fill="#37474f"/>
      <path id="Trazado_614906" data-name="Trazado 614906" d="M346.885,385.564c.052.225.1.45.144.674a11.278,11.278,0,0,1,.248,3.487,3.17,3.17,0,0,1-2.064,1.562,10.691,10.691,0,0,1-5.8.115,41.72,41.72,0,0,0-6.813-.421,42.134,42.134,0,0,1-5.96.294,14.156,14.156,0,0,1-4.387-.893c-1.182-.507-2.381-1.153-2.669-2.363-.352-2.553.726-3.683,1.937-4.392,1.28-.749,2.928-.657,4.767-.784,1.666-.109,2.876-.115,4.358-.225a21.142,21.142,0,0,0,3.8-.53c1.112-.352,2.26-1.775,2.732-1.827,0,0,7.407-.058,8.116,0,.819.069,1.066,2.6,1.17,3.153.081.432.092.893.207,1.308.075.277.15.553.213.836Z" transform="translate(-135.342 -160.642)" fill="#455a64"/>
      <path id="Trazado_614907" data-name="Trazado 614907" d="M323.855,392.585c-.231-1.839-.536-5.828,2.847-8.127l.432-.023a8.421,8.421,0,0,0-4.68,0c-2.709.721-3.914,2.911-3.239,5.222C319.215,389.657,319.82,391.9,323.855,392.585Z" transform="translate(-135.138 -162.285)" fill="#fafafa"/>
      <path id="Trazado_614908" data-name="Trazado 614908" d="M342.357,383.658a6.54,6.54,0,0,0-1.476,3.176c-.144.824-1.643.951-1.5.156a8.627,8.627,0,0,1,1.3-3.078A2.575,2.575,0,0,1,342.357,383.658Z" transform="translate(-143.755 -162.073)" fill="#fafafa"/>
      <path id="Trazado_614909" data-name="Trazado 614909" d="M337.12,384.259a5.333,5.333,0,0,0-1.539,3.009c-.156.8-1.4.778-1.314.012a4.545,4.545,0,0,1,1.314-2.871A1.663,1.663,0,0,1,337.12,384.259Z" transform="translate(-141.59 -162.293)" fill="#fafafa"/>
      <path id="Trazado_614910" data-name="Trazado 614910" d="M358.309,370.906s-.2,4.767-.467,6.323c-.161.934-1.378,1.908-4.415,1.8-2.133-.075-3.816.1-3.729-1.568l.19-4.865,8.421-1.7Z" transform="translate(-148.127 -156.687)" fill="#ffa8a7"/>
      <path id="Trazado_614911" data-name="Trazado 614911" d="M372.814,351.43a8.193,8.193,0,0,0,.248,3.9c.761,2.052,2.375,3,3.32,3.8a26.682,26.682,0,0,1,2.755,3.182,15.063,15.063,0,0,0,2.571,3.043,5.91,5.91,0,0,0,4.957.7c1.211-.513,1.631-.922,1.556-2.778-.075-1.81-5.983-2.484-5.983-2.484Z" transform="translate(-157.87 -148.44)" fill="#37474f"/>
      <path id="Trazado_614912" data-name="Trazado 614912" d="M387.69,356.142c.5.184.634,1.1.709,2.911.058,1.372.663,3.384-1.326,4.254a5.044,5.044,0,0,1-5.257-1.061c-1.355-1.614-2.271-3.038-4.2-5.009-1.677-1.712-3.418-2.288-4.167-5.706-.478-2.2-.1-3.107,1.453-3.741,2.138-.865,5.5,1.966,7.176,2.409,1.441.386,5.107,5.764,5.608,5.943Z" transform="translate(-158.106 -146.829)" fill="#455a64"/>
      <path id="Trazado_614913" data-name="Trazado 614913" d="M384.919,352.022c-.092-.023-.184-.058-.282-.092a5.489,5.489,0,0,0-4.629,2.888c-.288.6.594,1.066,1.118.6a5.92,5.92,0,0,1,4.629-2.871,2.56,2.56,0,0,0-.83-.525Z" transform="translate(-160.943 -148.652)" fill="#fafafa"/>
      <path id="Trazado_614914" data-name="Trazado 614914" d="M387.77,353.88a5.436,5.436,0,0,0-4.3,2.865c-.282.6.594,1.066,1.118.6a5.61,5.61,0,0,1,3.856-2.738c-.231-.259-.455-.5-.674-.721Z" transform="translate(-162.41 -149.478)" fill="#fafafa"/>
      <path id="Trazado_614915" data-name="Trazado 614915" d="M393.941,356.71l-.288,3.827a5.982,5.982,0,0,1-5.926.15c-.1-.213-.4-3.637-.4-3.637Z" transform="translate(-164.069 -150.677)" fill="#ffa8a7"/>
      <path id="Trazado_614916" data-name="Trazado 614916" d="M374.263,353.83s.167-4.069,5.954-4.634l.334.179a4.924,4.924,0,0,0-2.847-2.087,4.048,4.048,0,0,0-4.45,1.216c-1.009,1.239.012,4.536,1.014,5.332Z" transform="translate(-157.93 -146.603)" fill="#fafafa"/>
      <path id="Trazado_614917" data-name="Trazado 614917" d="M378.549,272.193c-.824-6.7-1.135-10.445-1.135-10.445s-.167-9.436.409-18.14c.254-3.827.38-8.058.455-11.891a61.247,61.247,0,0,0-1-12.681s-29.685-5.9-30.054,4.986c-.444,13.05-.1,39.282.086,42.695.265,4.79-.052,9.609.248,18.906.248,7.707.83,23.558.83,23.558,4.081,1.395,8.911,0,8.911,0s3.072-22.1,3.424-27.61a37.242,37.242,0,0,0-.248-8.917l3.061-27.581s.231,8.848.5,13.638.957,7.707,2.2,16.618c1.078,7.73,3.879,23.31,3.879,23.31a9.328,9.328,0,0,0,6.779,0s2.484-19.736,1.66-26.44Z" transform="translate(-146.987 -91.683)" fill="#455a64"/>
      <path id="Trazado_614918" data-name="Trazado 614918" d="M386.52,246.34s-3.712,4.744-8.491,6.784c0,0-2.075,16.687-2.058,16.353l-.542-16.791S382.566,249.533,386.52,246.34Z" transform="translate(-159.028 -103.925)" fill="#37474f"/>
      <path id="Trazado_614919" data-name="Trazado 614919" d="M368.11,143.1l.467,9.932,9.845-.525-.305-11.546Z" transform="translate(-155.927 -59.287)" fill="#ffa8a7"/>
      <path id="Trazado_614920" data-name="Trazado 614920" d="M379.06,156.945a7.725,7.725,0,0,0-7.3-5.049c-.807-.023-2.5.023-2.5.023-.409,1.672-5.534,2.3-9.914,1.268-1.32.346-6.83,1.677-7.926,2.04-3.147,1.043-4.121,4.254-4.611,14.531,0,0,.1,20.255,0,29.922,5.539,2.922,14.1,2.553,20.192,1.943,9.568-.968,10.992-4.433,10.992-4.433a107.087,107.087,0,0,1,0-13.327c.121-4.179,1.32-8.606,1.695-13.344.553-7.067-.058-11.718-.623-13.574Z" transform="translate(-146.905 -63.917)" fill="#4f6736"/>
      <path id="Trazado_614921" data-name="Trazado 614921" d="M355.076,123.526s-2.346,3.562-2.081,3.908,1.994.663,1.994.663l.086-4.577Z" transform="translate(-149.516 -51.9)" fill="#f28f8f"/>
      <path id="Trazado_614922" data-name="Trazado 614922" d="M362.8,106.1c-4.75,1-6.64,2.392-6.934,10.5-.282,7.891.7,10.491,1.741,11.551.7.715,4.582.847,6.542.306,2.456-.674,7.995-2.64,10.594-6.606,3.055-4.663,3.856-10.986.588-13.58-4.6-3.649-10.594-2.582-12.525-2.173Z" transform="translate(-150.719 -44.323)" fill="#ffa8a7"/>
      <path id="Trazado_614923" data-name="Trazado 614923" d="M358.916,144.226c.571.588,3.286.778,5.326.53l-.029-1.176a11.638,11.638,0,0,1-5.3.646Z" transform="translate(-152.03 -60.397)" fill="#f28f8f"/>
      <path id="Trazado_614924" data-name="Trazado 614924" d="M353.8,106.031a5.563,5.563,0,0,0,4.087.986,3.06,3.06,0,0,0,.484,1.8,3.594,3.594,0,0,0,2.058,1.487,7.42,7.42,0,0,0-.813,3.286,1.8,1.8,0,0,0,.225,1.032.666.666,0,0,0,1.2-.023,8.527,8.527,0,0,1,1-1.718,3.257,3.257,0,0,1,2.029-1.136c2.986-.323,3.355,3.574,2.162,5.193-1.954,2.646-3.608.853-3.608.853a8.786,8.786,0,0,0,2.553,6.738,12.606,12.606,0,0,0,6.508.161c2.646-3.643,4.312-5.407,5.724-8.554,2.986-6.646,1.545-10.813-.767-12.572-.461-3.061-2.871-4.438-5.62-5.067-4.11-.945-7.954,1.5-12.024.588-.663-.15-1.343-.305-1.983-.519a1.11,1.11,0,0,0-.8-.058.9.9,0,0,0-.386.911,4.083,4.083,0,0,0,1.245,2.075,8.838,8.838,0,0,1-2.657-.156,2.481,2.481,0,0,0-.922.029,1.672,1.672,0,0,0-1.055,1.677,4,4,0,0,0,1.337,2.986Z" transform="translate(-149.293 -41.207)" fill="#263238"/>
      <path id="Trazado_614925" data-name="Trazado 614925" d="M394.412,107.4l2.842-1.677a1.65,1.65,0,1,0-2.842,1.677Z" transform="translate(-166.972 -44.019)" fill="#263238"/>
      <path id="Trazado_614926" data-name="Trazado 614926" d="M292.37,158.983c.772,1.447,9.292,17.05,11.77,19.408,1.764,1.677,4.5,2.824,7.326.4,5.274-4.525,13.159-12.22,13.159-12.22,6.4-3.729,7.073-12.128,4.179-15.033,0,0-2.571-1.931-6.415,1.683-6.387,6.006-14.554,15.01-14.554,15.01-1.574-2.075-2.974-3.718-4.669-6.081-1.355-1.885-3.458-3.862-3.545-6.323a21.061,21.061,0,0,1,.617-3.816c.254-1.637.478-3.262.749-4.9a1.31,1.31,0,0,0-.086-.963.968.968,0,0,0-1.331-.04,3.445,3.445,0,0,0-.934,1.383l-.767,1.677c-.121.259-.294.565-.582.571-.721.017-1.107-1.85-1.228-2.358a11.069,11.069,0,0,1-.259-3.049c.029-.772.046-1.689-.576-2.144a1.952,1.952,0,0,0-1.844-.006,6.889,6.889,0,0,0-3.649,3.418c-1.032,2.19-.605,4.75-.017,7a29.655,29.655,0,0,0,2.657,6.392Z" transform="translate(-122.462 -59.706)" fill="#ffa8a7"/>
      <path id="Trazado_614927" data-name="Trazado 614927" d="M319.72,186.741A15.421,15.421,0,0,0,317.167,192a11.542,11.542,0,0,1,1.706-6.358Z" transform="translate(-134.347 -78.213)" fill="#f28f8f"/>
      <path id="Trazado_614928" data-name="Trazado 614928" d="M345.356,156.53a11.172,11.172,0,0,0-6.848,2.386c-1.47,1.245-11.828,11.69-11.828,11.69a18.515,18.515,0,0,0,7.614,8.813l10-8.813S349.708,163.332,345.356,156.53Z" transform="translate(-138.378 -65.883)" fill="#4f6736"/>
      <g id="Grupo_1016153" data-name="Grupo 1016153" transform="translate(188.302 90.647)" opacity="0.3">
        <path id="Trazado_614929" data-name="Trazado 614929" d="M345.356,156.53a11.172,11.172,0,0,0-6.848,2.386c-1.47,1.245-11.828,11.69-11.828,11.69a18.515,18.515,0,0,0,7.614,8.813l10-8.813S349.708,163.332,345.356,156.53Z" transform="translate(-326.68 -156.53)"/>
      </g>
      <path id="Trazado_614930" data-name="Trazado 614930" d="M318.021,27.709,295.385,40.736a2.086,2.086,0,0,0-.945,1.643v27.2a2.063,2.063,0,0,0,.951,1.631l3.4,1.9a2.106,2.106,0,0,0,1.9-.012l22.636-13.027a2.086,2.086,0,0,0,.945-1.643v-27.2a2.063,2.063,0,0,0-.951-1.631l-3.4-1.9A2.106,2.106,0,0,0,318.021,27.709Z" transform="translate(-124.721 -11.217)" fill="#4f6736"/>
      <path id="Trazado_614931" data-name="Trazado 614931" d="M303.64,74.81v-27.2a2.111,2.111,0,0,1,.945-1.643l22.636-13.027c.525-.3.945-.058.945.548v27.2a2.111,2.111,0,0,1-.945,1.643L304.585,75.358C304.061,75.658,303.64,75.416,303.64,74.81Z" transform="translate(-128.618 -13.479)" fill="#4f6736"/>
      <path id="Trazado_614932" data-name="Trazado 614932" d="M300.693,83.331a2.162,2.162,0,0,1-1.9.012L295.4,81.435a2.061,2.061,0,0,1-.951-1.625v-27.2a2,2,0,0,1,.3-.968l5.28,3.015a1.909,1.909,0,0,0-.282.934V82.778c0,.553.392.87.945.548Z" transform="translate(-124.726 -21.452)" opacity="0.2"/>
      <path id="Trazado_614933" data-name="Trazado 614933" d="M324.482,31.057c-.075-.478-.461-.646-.934-.375l-22.63,13.033a1.891,1.891,0,0,0-.669.709l-5.28-3.015a1.927,1.927,0,0,1,.651-.674L318.257,27.7a2.13,2.13,0,0,1,1.9-.012l3.389,1.9A2.081,2.081,0,0,1,324.482,31.057Z" transform="translate(-124.946 -11.216)" fill="#fff" opacity="0.4"/>
      <path id="Trazado_614934" data-name="Trazado 614934" d="M288.661,69.49l-7.62,7.753a.839.839,0,0,0,.144,1.3c.156.1,5.28,3.038,5.28,3.038l7.5-9.032-5.3-3.055Z" transform="translate(-118.942 -29.014)" fill="#4f6736"/>
      <path id="Trazado_614935" data-name="Trazado 614935" d="M288.661,69.49l-7.62,7.753a.839.839,0,0,0,.144,1.3c.156.1,5.28,3.038,5.28,3.038l7.5-9.032-5.3-3.055Z" transform="translate(-118.942 -29.014)" opacity="0.1"/>
      <path id="Trazado_614936" data-name="Trazado 614936" d="M297.861,74.79l-7.62,7.753a.838.838,0,0,0,.715,1.418l6.905-1C298.6,82.964,298.6,74.79,297.861,74.79Z" transform="translate(-122.839 -31.259)" fill="#4f6736"/>
      <path id="Trazado_614937" data-name="Trazado 614937" d="M311.958,58.781l9.632-5.568c.761-.438,1.378-.081,1.378.8V65.761a3.038,3.038,0,0,1-1.378,2.386l-9.632,5.568c-.761.438-1.378.081-1.378-.8V61.167A3.038,3.038,0,0,1,311.958,58.781Z" transform="translate(-131.558 -22.039)" fill="#fff"/>
      <path id="Trazado_614938" data-name="Trazado 614938" d="M335.528,56.723l2.663-2.79c.329-.34.594-.236.594.236V62.1a.953.953,0,0,1-.853.934l-2.138.19a.769.769,0,0,1-.853-.784V58.2a2.447,2.447,0,0,1,.594-1.476Z" transform="translate(-141.877 -22.339)" fill="#fff"/>
    </g>
  </g>
</svg>
