<svg xmlns="http://www.w3.org/2000/svg" width="550" height="431" viewBox="0 0 550 431">
  <g id="Grupo_1066757" data-name="Grupo 1066757" transform="translate(-866.332 -111)">
    <g id="Grupo_1066755" data-name="Grupo 1066755">
      <g id="Grupo_1066756" data-name="Grupo 1066756">
        <g id="Ilustraci칩n_banner" data-name="Ilustraci칩n banner" transform="translate(24634.332 13264)">
          <rect id="Rect치ngulo_347501" data-name="Rect치ngulo 347501" width="550" height="431" transform="translate(-23768 -13153)" fill="none"/>
          <g id="Group_58_" data-name="Group (58)" transform="translate(-23802.055 -13052.794)">
            <path id="Trazado_245536" data-name="Trazado 245536" d="M204.373,317.98c6.507-9.519,27.712-19.4,32.172-10.241,1.687,10.121-7.109,14.821-7.832,14.942s-13.978,1.445-14.46,1.325S204.373,317.98,204.373,317.98Z" transform="translate(-109.144 -144.752)" fill="#00574f"/>
            <path id="Trazado_245537" data-name="Trazado 245537" d="M167,376.627H137.643c-52.293,21.93-51.811,82.417-49.161,100.731H216.157C218.807,459.044,219.289,398.557,167,376.627Z" transform="translate(-53.498 -179.3)" fill="#2f4419"/>
            <path id="Trazado_245538" data-name="Trazado 245538" d="M165.041,339.323c-9.037-10.241-24.34-33.5-10.843-37.11s15.664,9.759,29.4,13.857,25.424-10.362,26.508-9.518c2.771,10.362-5.664,32.051-12.409,33.858s-32.653-1.084-32.653-1.084Z" transform="translate(-82.703 -143.561)" fill="#2f4419"/>
            <path id="Trazado_245539" data-name="Trazado 245539" d="M161.753,401.593a1.374,1.374,0,0,1-.369-.051,1.389,1.389,0,0,1-.969-1.705c5.174-18.772,12.983-23.333,17.177-24.383a1.387,1.387,0,0,1,1.513,2.08c-5.921,9.438-5.935,17.6-5.932,17.688a1.388,1.388,0,0,1-1.373,1.4h-.014a1.386,1.386,0,0,1-1.386-1.37c0-.316-.019-6.9,4.173-15.3-3.445,2.484-8.022,8.071-11.483,20.624a1.385,1.385,0,0,1-1.336,1.017Z" transform="translate(-88.181 -178.721)" fill="#ffe9cf"/>
            <path id="Trazado_245540" data-name="Trazado 245540" d="M211.281,372.487h-35.13a1.231,1.231,0,0,0-1.231,1.231v2.358a1.232,1.232,0,0,0,1.231,1.232h35.13a1.232,1.232,0,0,0,1.231-1.232v-2.358A1.231,1.231,0,0,0,211.281,372.487Z" transform="translate(-95.114 -177.328)" fill="#ffe9cf"/>
            <path id="Trazado_245541" data-name="Trazado 245541" d="M432.1,508.659H406.127V526.9H432.1Z" transform="translate(-205.247 -242.192)" fill="#363636"/>
            <path id="Trazado_245542" data-name="Trazado 245542" d="M959.393,508.659H933.418V526.9h25.975Z" transform="translate(-456.416 -242.192)" fill="#363636"/>
            <path id="Trazado_245543" data-name="Trazado 245543" d="M706.614.215H287.648a7.577,7.577,0,0,0-7.577,7.578V264.281a7.578,7.578,0,0,0,7.577,7.578H706.614a7.578,7.578,0,0,0,7.577-7.578V7.792A7.578,7.578,0,0,0,706.614.215Z" transform="translate(-145.202 0)" fill="#404040"/>
            <path id="Trazado_245544" data-name="Trazado 245544" d="M711.333,533.788H261.772a6.237,6.237,0,0,0-6.237,6.237V546.2a6.237,6.237,0,0,0,6.237,6.237H711.333a6.239,6.239,0,0,0,6.237-6.237v-6.175A6.239,6.239,0,0,0,711.333,533.788Z" transform="translate(-133.514 -254.162)" fill="#404040"/>
            <path id="Trazado_245545" data-name="Trazado 245545" d="M707.2,8.224H294.692a6.612,6.612,0,0,0-6.612,6.612V250.9a6.611,6.611,0,0,0,6.612,6.611H707.2a6.61,6.61,0,0,0,6.609-6.611V14.836A6.61,6.61,0,0,0,707.2,8.224Z" transform="translate(-149.017 -3.815)" fill="#737373"/>
            <path id="Trazado_245546" data-name="Trazado 245546" d="M713.223,20.676H300.532V256.915H713.223Z" transform="translate(-154.948 -9.747)" fill="#dbf9bd"/>
            <path id="Trazado_245547" data-name="Trazado 245547" d="M712.064,255.76V45.023H324.879V255.76Z" transform="translate(-166.546 -21.344)" fill="#fff"/>
            <path id="Trazado_245548" data-name="Trazado 245548" d="M862.113,199a54.088,54.088,0,0,0,5.932-37.11L814.973,172.5l26.3-47.525A54.318,54.318,0,1,0,862.113,199Z" transform="translate(-374.016 -56.133)" fill="#afc797"/>
            <path id="Trazado_245549" data-name="Trazado 245549" d="M943.422,147.992a54.189,54.189,0,0,0-26.665-36.859c-.035-.019-.07-.035-.1-.053l-26.3,47.525L943.424,148Z" transform="translate(-435.903 -52.809)" fill="#2f4419"/>
            <path id="Trazado_245550" data-name="Trazado 245550" d="M847.623,124.985a54.317,54.317,0,0,0-73.865,20.787l47.563,26.736,26.3-47.525Z" transform="translate(-380.364 -56.136)" fill="#3b5620"/>
            <path id="Trazado_245551" data-name="Trazado 245551" d="M377.735,346.99H362.694v14.155h15.041Z" transform="translate(-184.558 -165.182)" fill="#3b5620"/>
            <path id="Trazado_245552" data-name="Trazado 245552" d="M483.594,354.872h-79.25a1.662,1.662,0,0,0-1.662,1.662v4.639a1.662,1.662,0,0,0,1.662,1.662h79.25a1.662,1.662,0,0,0,1.662-1.662v-4.639A1.662,1.662,0,0,0,483.594,354.872Z" transform="translate(-203.606 -168.937)" fill="#afc797"/>
            <path id="Trazado_245553" data-name="Trazado 245553" d="M377.735,402H362.694v14.155h15.041Z" transform="translate(-184.558 -191.386)" fill="#3b5620"/>
            <path id="Trazado_245554" data-name="Trazado 245554" d="M483.594,409.883h-79.25a1.662,1.662,0,0,0-1.662,1.662v4.639a1.663,1.663,0,0,0,1.662,1.663h79.25a1.663,1.663,0,0,0,1.662-1.663v-4.639A1.662,1.662,0,0,0,483.594,409.883Z" transform="translate(-203.606 -195.141)" fill="#afc797"/>
            <g id="Grupo_244239" data-name="Grupo 244239" transform="translate(176.11 66.563)">
              <path id="Trazado_245555" data-name="Trazado 245555" d="M486.476,126.916h-123.8a3.849,3.849,0,0,0-3.849,3.849V222.29a3.849,3.849,0,0,0,3.849,3.849h123.8a3.849,3.849,0,0,0,3.849-3.849V130.765A3.849,3.849,0,0,0,486.476,126.916Z" transform="translate(-358.825 -126.916)" fill="#afc797"/>
            </g>
            <path id="Trazado_245556" data-name="Trazado 245556" d="M473.876,116.4H356.721a7.174,7.174,0,0,0-7.174,7.174v8.368h131.5v-8.368a7.174,7.174,0,0,0-7.174-7.174Z" transform="translate(-178.296 -55.344)" fill="#afc797"/>
            <path id="Trazado_245557" data-name="Trazado 245557" d="M361.351,132.439a2.24,2.24,0,1,0-2.24-2.241A2.241,2.241,0,0,0,361.351,132.439Z" transform="translate(-182.852 -60.849)" fill="#fff"/>
            <path id="Trazado_245558" data-name="Trazado 245558" d="M376.666,132.439a2.24,2.24,0,1,0-2.241-2.241A2.24,2.24,0,0,0,376.666,132.439Z" transform="translate(-190.146 -60.849)" fill="#fff"/>
            <path id="Trazado_245559" data-name="Trazado 245559" d="M391.98,132.439a2.24,2.24,0,1,0-2.24-2.241A2.24,2.24,0,0,0,391.98,132.439Z" transform="translate(-197.441 -60.849)" fill="#fff"/>
            <path id="Trazado_245560" data-name="Trazado 245560" d="M541.207,158.848,523.674,151.9l3.236,5.439c-8.7.166-14.642.45-17.659.844-7.433.969-17.7,9.229-30.53,24.546-5.174,6.181-10.657,9.414-16.759,9.885-8.239.634-17.559-3.718-28.494-13.306-9.95-8.723-21.058-12.942-32.118-12.2-10.937.739-21.529,6.389-29.819,15.916a1.656,1.656,0,1,0,2.5,2.176c7.709-8.857,17.493-14.109,27.544-14.786,10.166-.685,20.44,3.249,29.712,11.381,10.867,9.532,20.41,14.19,29.094,14.19q.924,0,1.836-.07c7.037-.544,13.266-4.16,19.042-11.06,15.29-18.264,23.893-22.8,28.419-23.389,2.856-.372,8.806-.654,17.27-.814l-3.126,5.514,17.385-7.313Z" transform="translate(-188.574 -72.252)" fill="#3b5620"/>
            <g id="Grupo_244240" data-name="Grupo 244240" transform="translate(177.477 82.115)">
              <path id="Trazado_245561" data-name="Trazado 245561" d="M363.163,156.614h-1.726v70.609h1.726Z" transform="translate(-361.437 -156.614)" fill="#afc797"/>
            </g>
            <g id="Grupo_244241" data-name="Grupo 244241" transform="translate(215.265 91.039)">
              <path id="Trazado_245562" data-name="Trazado 245562" d="M435.323,173.656H433.6v62.33h1.727Z" transform="translate(-433.597 -173.656)" fill="#afc797"/>
            </g>
            <g id="Grupo_244242" data-name="Grupo 244242" transform="translate(273.621 115.871)">
              <path id="Trazado_245563" data-name="Trazado 245563" d="M546.761,221.076h-1.726v37.5h1.726Z" transform="translate(-545.035 -221.076)" fill="#afc797"/>
            </g>
            <g id="Grupo_244243" data-name="Grupo 244243" transform="translate(174.94 147.65)">
              <path id="Trazado_245564" data-name="Trazado 245564" d="M476.865,281.761H356.591v1.727H476.865Z" transform="translate(-356.591 -281.761)" fill="#afc797"/>
            </g>
            <path id="Trazado_245565" data-name="Trazado 245565" d="M432.332,184.926a4.751,4.751,0,1,0-6.208-2.571A4.751,4.751,0,0,0,432.332,184.926Z" transform="translate(-214.6 -83.631)" fill="#2f4419"/>
            <path id="Trazado_245566" data-name="Trazado 245566" d="M542.773,233.221a4.751,4.751,0,1,0-4.751-4.751A4.752,4.752,0,0,0,542.773,233.221Z" transform="translate(-268.074 -106.464)" fill="#2f4419"/>
            <path id="Trazado_245567" data-name="Trazado 245567" d="M711.437,44.864H323.749V62.6H711.437Z" transform="translate(-166.007 -21.268)" fill="#3b5620"/>
            <path id="Trazado_245568" data-name="Trazado 245568" d="M998.468,62.16H955.093a3.943,3.943,0,1,1,0-7.886h43.375a3.943,3.943,0,1,1,0,7.886Z" transform="translate(-464.863 -25.751)" fill="#fff"/>
            <path id="Trazado_245569" data-name="Trazado 245569" d="M347.653,59.588a3.418,3.418,0,1,0-4.112,2.542A3.418,3.418,0,0,0,347.653,59.588Z" transform="translate(-174.18 -26.279)" fill="#fff"/>
            <path id="Trazado_245570" data-name="Trazado 245570" d="M366.587,59.583a3.418,3.418,0,1,0-4.112,2.542A3.418,3.418,0,0,0,366.587,59.583Z" transform="translate(-183.199 -26.277)" fill="#fff"/>
            <path id="Trazado_245571" data-name="Trazado 245571" d="M385.525,59.589a3.418,3.418,0,1,0-4.112,2.542A3.418,3.418,0,0,0,385.525,59.589Z" transform="translate(-192.22 -26.28)" fill="#fff"/>
            <g id="Grupo_244244" data-name="Grupo 244244" transform="translate(371.156 189.736)">
              <path id="Trazado_245572" data-name="Trazado 245572" d="M863.12,362.13H737.389a6.1,6.1,0,0,0-6.1,6.1v22.286a6.1,6.1,0,0,0,6.1,6.1H863.12a6.1,6.1,0,0,0,6.1-6.1V368.228A6.1,6.1,0,0,0,863.12,362.13Z" transform="translate(-731.291 -362.13)" fill="#afc797"/>
            </g>
            <path id="Trazado_245573" data-name="Trazado 245573" d="M871.538,354.81H740.523a3.456,3.456,0,0,0-3.456,3.456v27.571a3.456,3.456,0,0,0,3.456,3.456H871.538A3.457,3.457,0,0,0,875,385.836V358.266A3.457,3.457,0,0,0,871.538,354.81Z" transform="translate(-362.887 -168.907)" fill="#3b5620"/>
            <path id="Trazado_245574" data-name="Trazado 245574" d="M853.2,370.983H757.99a3.213,3.213,0,0,0-3.212,3.212v12.129a3.212,3.212,0,0,0,3.212,3.212H853.2a3.212,3.212,0,0,0,3.212-3.212V374.2A3.212,3.212,0,0,0,853.2,370.983Z" transform="translate(-371.323 -176.611)" fill="#fff"/>
            <path id="Trazado_245575" data-name="Trazado 245575" d="M970.293,375.962a7.125,7.125,0,1,0-7.125,7.125,7.023,7.023,0,0,0,2.01-.295l2.511,5.153,1.389-.677L966.6,382.2a7.129,7.129,0,0,0,3.686-6.234Zm-12.7,0a5.578,5.578,0,1,1,5.578,5.578A5.585,5.585,0,0,1,957.589,375.962Z" transform="translate(-467.193 -175.589)" fill="#fff"/>
            <path id="Trazado_245629" data-name="Trazado 245629" d="M326.868,263.7c8.327.048,14.246-3.273,14.246-4.09s.516-6.279.854-6.857,3.081-.675,3.418-.916a4.338,4.338,0,0,0,.771-1.25,1.554,1.554,0,0,1,1.108,2.118,5.023,5.023,0,0,1-1.973,1.78l-.279,7.773c.385,3.753-11.694,12.9-17.664,13.378C322.633,274.244,326.868,263.7,326.868,263.7Z" transform="translate(-166.661 -119.263)" fill="#ffc19d"/>
            <path id="Trazado_245630" data-name="Trazado 245630" d="M321.219,274.305c.576-2.07,3.4-3.092,5.219.107s2.771,10.367.739,12.3c-1.906,1.812-4.055-.046-4.457-.934s-1.5-11.472-1.5-11.472Z" transform="translate(-164.802 -129.637)" fill="#c9d3be"/>
            <path id="Trazado_245631" data-name="Trazado 245631" d="M274.557,254.4c6.93,3.37,13.378,11.743,24.642,11.357,4.042,5.2,2.5,10.3.674,12.225-5.969,2.792-19.088.321-25.028-3.753C269.937,270.863,268.012,263.644,274.557,254.4Z" transform="translate(-140.579 -121.08)" fill="#c9d3be"/>
            <path id="Trazado_245632" data-name="Trazado 245632" d="M217.944,534.287l1.186,7.228a21.537,21.537,0,0,0-.873,9l29.557.115c-3.174-5.993-17.04-6.488-18.488-9.358s-2.064-11.362-2.064-11.362l-9.315,4.376Z" transform="translate(-115.608 -252.313)" fill="#ffc19d"/>
            <path id="Trazado_245633" data-name="Trazado 245633" d="M224.718,547.506c-.043-1.036.734-4.756,3.418-5.857a20.539,20.539,0,0,0,1.349,5.217c1.448,2.87,15.313,3.365,18.488,9.358l-29.557-.115a21.538,21.538,0,0,1,.873-9s5.329,2.264,5.431.4Z" transform="translate(-115.768 -257.906)" fill="#2b1710"/>
            <path id="Trazado_245634" data-name="Trazado 245634" d="M247.219,567.165a6.191,6.191,0,0,1,.789,1.146l-29.557-.115s-.056-.445-.1-1.173Z" transform="translate(-115.803 -269.993)" fill="#693e2f"/>
            <path id="Trazado_245635" data-name="Trazado 245635" d="M235.386,552.351a.17.17,0,0,0,.152-.112,3.088,3.088,0,0,1,1.312-1.59,1.4,1.4,0,0,1,1.145.027.17.17,0,1,0,.131-.313,1.724,1.724,0,0,0-1.416-.024,3.37,3.37,0,0,0-1.493,1.786.168.168,0,0,0,.1.217.182.182,0,0,0,.064.011Z" transform="translate(-123.831 -261.978)" fill="#693e2f"/>
            <path id="Trazado_245636" data-name="Trazado 245636" d="M240.712,556.113a.169.169,0,0,0,.152-.112,3.088,3.088,0,0,1,1.312-1.59,1.394,1.394,0,0,1,1.146.027.17.17,0,1,0,.131-.313,1.719,1.719,0,0,0-1.416-.024,3.374,3.374,0,0,0-1.493,1.785.168.168,0,0,0,.1.217.184.184,0,0,0,.064.01Z" transform="translate(-126.368 -263.77)" fill="#693e2f"/>
            <path id="Trazado_245637" data-name="Trazado 245637" d="M249.458,558.639a.17.17,0,0,0,.152-.113,3.086,3.086,0,0,1,1.312-1.59,1.392,1.392,0,0,1,1.146.027.17.17,0,1,0,.131-.313,1.721,1.721,0,0,0-1.416-.024,3.374,3.374,0,0,0-1.493,1.785.168.168,0,0,0,.1.217.186.186,0,0,0,.064.011Z" transform="translate(-130.535 -264.973)" fill="#693e2f"/>
            <path id="Trazado_245638" data-name="Trazado 245638" d="M285.668,534.268l1.207,7.225a21.519,21.519,0,0,0-.846,9l29.557.027c-3.193-5.982-17.059-6.437-18.518-9.3s-2.1-11.357-2.1-11.357l-9.3,4.4Z" transform="translate(-147.868 -252.291)" fill="#ffc19d"/>
            <path id="Trazado_245639" data-name="Trazado 245639" d="M292.5,547.466c-.045-1.036.717-4.76,3.4-5.868a20.572,20.572,0,0,0,1.365,5.215c1.459,2.864,15.324,3.319,18.518,9.3l-29.556-.027a21.52,21.52,0,0,1,.846-9s5.335,2.251,5.431.383Z" transform="translate(-148.066 -257.882)" fill="#2b1710"/>
            <path id="Trazado_245640" data-name="Trazado 245640" d="M315.032,567.086a6.33,6.33,0,0,1,.795,1.143l-29.557-.027s-.059-.444-.1-1.17l28.866.057Z" transform="translate(-148.107 -269.997)" fill="#693e2f"/>
            <path id="Trazado_245641" data-name="Trazado 245641" d="M303.16,552.3a.169.169,0,0,0,.152-.113,3.084,3.084,0,0,1,1.306-1.6,1.415,1.415,0,0,1,1.146.021.17.17,0,1,0,.131-.313,1.72,1.72,0,0,0-1.416-.018,3.368,3.368,0,0,0-1.488,1.79.169.169,0,0,0,.1.217.175.175,0,0,0,.064.011Z" transform="translate(-156.115 -261.949)" fill="#693e2f"/>
            <path id="Trazado_245642" data-name="Trazado 245642" d="M308.5,556.045a.17.17,0,0,0,.152-.112,3.08,3.08,0,0,1,1.306-1.6,1.415,1.415,0,0,1,1.146.021.17.17,0,0,0,.131-.313,1.72,1.72,0,0,0-1.416-.019,3.361,3.361,0,0,0-1.488,1.791.168.168,0,0,0,.1.217.186.186,0,0,0,.064.01Z" transform="translate(-158.657 -263.734)" fill="#693e2f"/>
            <path id="Trazado_245643" data-name="Trazado 245643" d="M317.253,558.54a.169.169,0,0,0,.152-.113,3.081,3.081,0,0,1,1.307-1.595,1.41,1.41,0,0,1,1.145.021.17.17,0,1,0,.131-.313,1.719,1.719,0,0,0-1.416-.019,3.363,3.363,0,0,0-1.488,1.791.168.168,0,0,0,.1.217.176.176,0,0,0,.064.011Z" transform="translate(-162.828 -264.922)" fill="#693e2f"/>
            <path id="Trazado_245644" data-name="Trazado 245644" d="M263.5,451.638H248.6l-11.97-53.2-6.652,53.2h-15.03c-.4-21.813-8.113-87.963-.487-108.18h39.669C258.643,388.853,263.5,451.638,263.5,451.638Z" transform="translate(-112.352 -163.5)" fill="#3b5620"/>
            <path id="Trazado_245645" data-name="Trazado 245645" d="M227.714,250.761l12.1-.329a31.39,31.39,0,0,1,9.468,2.273c1.429,2.736,5.086,22.594,7.441,46.264H217.058a170.7,170.7,0,0,1,2.586-44.956,18.446,18.446,0,0,1,8.073-3.252Z" transform="translate(-114.961 -119.188)" fill="#bbc8ad"/>
            <g id="Grupo_244262" data-name="Grupo 244262" transform="translate(124.108 186.885)">
              <path id="Trazado_245646" data-name="Trazado 245646" d="M259.69,402.512a.17.17,0,0,0,.169-.161l1.989-35.256,2.939-.766a.168.168,0,0,0,.126-.176l-.664-9.31a.17.17,0,1,0-.34.024l.656,9.17-2.923.763a.165.165,0,0,0-.126.155l-1.994,35.381a.171.171,0,0,0,.161.18h.01Z" transform="translate(-259.521 -356.685)" fill="#e0c9c0"/>
            </g>
            <g id="Grupo_244263" data-name="Grupo 244263" transform="translate(136.876 285.221)">
              <path id="Trazado_245647" data-name="Trazado 245647" d="M284.073,544.808H297.2a.169.169,0,1,0,0-.337H284.073a.169.169,0,1,0,0,.337Z" transform="translate(-283.904 -544.471)" fill="#e0c9c0"/>
            </g>
            <g id="Grupo_244264" data-name="Grupo 244264" transform="translate(103.891 285.488)">
              <path id="Trazado_245648" data-name="Trazado 245648" d="M221.083,545.319h12.768a.169.169,0,1,0,0-.337H221.083a.169.169,0,1,0,0,.337Z" transform="translate(-220.914 -544.982)" fill="#e0c9c0"/>
            </g>
            <g id="Grupo_244265" data-name="Grupo 244265" transform="translate(104.6 182.27)">
              <path id="Trazado_245649" data-name="Trazado 245649" d="M222.437,359.122h.016c1.719-.169,7.351-1.462,7.691-11.071a.172.172,0,0,0-.163-.177.174.174,0,0,0-.176.163c-.223,6.3-2.982,10.313-7.383,10.744a.169.169,0,0,0,.016.337Z" transform="translate(-222.268 -347.874)" fill="#e0c9c0"/>
            </g>
            <g id="Grupo_244266" data-name="Grupo 244266" transform="translate(103.134 183.604)">
              <path id="Trazado_245650" data-name="Trazado 245650" d="M220.748,450.691h.005a.171.171,0,0,0,.166-.174c-.027-.856-2.54-85.8.086-99.9a.17.17,0,0,0-.137-.2.168.168,0,0,0-.2.136c-2.634,14.13-.118,99.112-.091,99.971a.171.171,0,0,0,.169.166Z" transform="translate(-219.47 -350.42)" fill="#e0c9c0"/>
            </g>
            <path id="Trazado_245651" data-name="Trazado 245651" d="M187.916,306.467c.926,4.982,8.681,12.166,9.463,12.166s2.845-2.347,4.484-1.922,5.335,3.558,4.339,4.339-2.926-1.884-4.154-1.78c3.2,2.669,4.082,4.829,3.362,5.284a1.465,1.465,0,0,1-1.253.241c-1.253.64-3.549-.773-4.936-1.014s-4.135,1.1-6.376.667-2.934-2.776-3.308-3.041-16.061-11.952-15.528-18.357,11.633-10.032,11.633-10.032l2.278,13.448Z" transform="translate(-94.674 -139.473)" fill="#ffc19d"/>
            <path id="Trazado_245652" data-name="Trazado 245652" d="M186.04,293.3c-1.777-1.137-4.269,1.28-4.484,3.2s8.75,11.1,10.956,11.028a2.44,2.44,0,0,0,1.708-4.269c-1.708-1.922-8.183-9.961-8.183-9.961Z" transform="translate(-98.274 -139.467)" fill="#c9d3be"/>
            <path id="Trazado_245653" data-name="Trazado 245653" d="M207.278,255.7c4.62,4.882,2.144,22.45-2.267,24.586s-8.75,7.125-8.75,7.125c-2.489-.926-9.32-8.041-8.75-10.956,6.047-5.549,12.618-20.231,19.768-20.753Z" transform="translate(-101.096 -121.698)" fill="#c9d3be"/>
            <g id="Grupo_244267" data-name="Grupo 244267" transform="translate(104.419 179.486)">
              <path id="Trazado_245654" data-name="Trazado 245654" d="M222.061,343.29a.084.084,0,0,0,.043-.008,11.359,11.359,0,0,1,2.034-.455.136.136,0,1,0-.029-.27,11.747,11.747,0,0,0-2.093.468.135.135,0,0,0-.086.172.137.137,0,0,0,.129.093Z" transform="translate(-221.922 -342.557)" fill="#e0b3a8"/>
            </g>
            <g id="Grupo_244268" data-name="Grupo 244268" transform="translate(103.958 181.636)">
              <path id="Trazado_245655" data-name="Trazado 245655" d="M226.053,349.872a.136.136,0,0,0,.112-.214c-.878-1.253-2.173-2.778-3.367-2.939a4.1,4.1,0,0,0-1.662.04.135.135,0,1,0,.085.257,3.9,3.9,0,0,1,1.54-.029c1.094.147,2.334,1.617,3.18,2.824a.14.14,0,0,0,.113.059Z" transform="translate(-221.043 -346.663)" fill="#e0b3a8"/>
            </g>
            <path id="Trazado_245656" data-name="Trazado 245656" d="M244.559,205.135c-.533-2.334,3.665-5.2,8.394-2.513a4.1,4.1,0,0,1,5.972.68,4.215,4.215,0,0,1-.68,4.73c.827,1.331-.177,4.2-2.246,4.344s-5.292-.029-5.5-.294-4.524-4.553-4.583-4.641S244.559,205.135,244.559,205.135Z" transform="translate(-128.265 -95.897)" fill="#2b1710"/>
            <path id="Trazado_245657" data-name="Trazado 245657" d="M246.931,211.065a8.812,8.812,0,0,0-4.079-2.661c-1.863.356-2.01,2.484-1.893,3.635s.445,6.652.445,6.652l1,1.036,4.079-1.3.886-6.266-.445-1.095Z" transform="translate(-126.557 -99.169)" fill="#402218"/>
            <path id="Trazado_245658" data-name="Trazado 245658" d="M245.06,213.485a2.191,2.191,0,0,1-2.393,1.981c-.621.857-.235,5.054-.533,5.351a17.773,17.773,0,0,1-1.684,1.154l-.562-1.212.533,2.513c.474,5.675-.265,8.247-.68,8.662a15.224,15.224,0,0,1-2.741,1.3c3.844,2.246,10.517,3.226,13.767-.321-2.484-.768-2.245-2.6-2.069-3.814,2.631-.945,3.753-4.524,3.753-6.266s.324-7.508.324-7.508c-1.3-.029-2.04-1.8-2.04-1.8C249.581,215.76,246.331,214.58,245.06,213.485Z" transform="translate(-124.686 -101.589)" fill="#ffc19d"/>
            <path id="Trazado_245659" data-name="Trazado 245659" d="M239.239,228.5a1.494,1.494,0,1,0,1.493-1.494A1.494,1.494,0,0,0,239.239,228.5Z" transform="translate(-125.752 -108.029)" fill="#ffc19d"/>
            <path id="Trazado_245660" data-name="Trazado 245660" d="M257.638,233.414c-.71-.31-6.074-.428-6.09-.163s2.379,2.749,3.71,2.808S257.8,233.487,257.638,233.414Z" transform="translate(-131.615 -110.935)" fill="#fff"/>
            <path id="Trazado_245661" data-name="Trazado 245661" d="M258.842,236.342a1.117,1.117,0,0,0,.541-1.462s1.477-.458,1.729-1.183C261.27,233.769,260.13,236.258,258.842,236.342Z" transform="translate(-135.09 -111.217)" fill="#2b1710"/>
            <g id="Grupo_244269" data-name="Grupo 244269" transform="translate(122.301 125.473)">
              <path id="Trazado_245662" data-name="Trazado 245662" d="M257.257,239.906a2.2,2.2,0,0,0,.685-.11.085.085,0,1,0-.054-.16,1.943,1.943,0,0,1-1.678-.206.086.086,0,0,0-.107.134,1.956,1.956,0,0,0,1.154.348Z" transform="translate(-256.071 -239.411)" fill="#e0b3a8"/>
            </g>
            <g id="Grupo_244270" data-name="Grupo 244270" transform="translate(116.468 122.699)">
              <path id="Trazado_245663" data-name="Trazado 245663" d="M251.381,239.021c.145,0,.286-.005.428-.016a.083.083,0,0,0,.078-.091.084.084,0,0,0-.091-.077,6.593,6.593,0,0,1-6.7-4.663.085.085,0,0,0-.163.051,6.764,6.764,0,0,0,6.443,4.8Z" transform="translate(-244.932 -234.114)" fill="#e0b3a8"/>
            </g>
            <g id="Grupo_244271" data-name="Grupo 244271" transform="translate(114.183 119.446)">
              <path id="Trazado_245664" data-name="Trazado 245664" d="M241.454,229.729a.085.085,0,0,0,.07-.035.083.083,0,0,0-.019-.118.545.545,0,0,1-.265-.541.442.442,0,0,1,.316-.337.484.484,0,0,1,.5.2.085.085,0,0,0,.091.027.091.091,0,0,0,.059-.078,1,1,0,0,0-.519-.83.983.983,0,0,0-1.079.091.085.085,0,0,0,.094.142.814.814,0,0,1,.9-.083.9.9,0,0,1,.391.45.594.594,0,0,0-.479-.086.608.608,0,0,0-.441.471.713.713,0,0,0,.332.71.089.089,0,0,0,.051.016Z" transform="translate(-240.568 -227.902)" fill="#e0b3a8"/>
            </g>
            <path id="Trazado_245665" data-name="Trazado 245665" d="M259.749,226.863h.011c1.828-.212,1.868-.4,1.882-.458a.128.128,0,0,0-.075-.142,7.474,7.474,0,0,1-1.911-1.978,4.838,4.838,0,0,1,.7-2.316.086.086,0,0,0-.148-.089,4.907,4.907,0,0,0-.72,2.428c.072.479,1.55,1.8,1.949,2.072a9.127,9.127,0,0,1-1.7.313.085.085,0,0,0,.008.169Z" transform="translate(-135.392 -105.569)" fill="#2b1710"/>
            <path id="Trazado_245666" data-name="Trazado 245666" d="M264.027,221.738a.083.083,0,0,0,.059-.024.088.088,0,0,0,0-.12,3.271,3.271,0,0,0-2.35-.779.085.085,0,0,0,.013.169,3.172,3.172,0,0,1,2.217.728.081.081,0,0,0,.059.024Z" transform="translate(-136.431 -105.078)" fill="#2b1710"/>
            <path id="Trazado_245667" data-name="Trazado 245667" d="M249.971,221.619a.085.085,0,0,0,.07-.038c.34-.5,1.293-.966,2.861-.653a.085.085,0,0,0,.032-.166c-2.128-.425-2.9.527-3.036.723a.085.085,0,0,0,.021.118.079.079,0,0,0,.048.016Z" transform="translate(-130.822 -105.004)" fill="#2b1710"/>
            <g id="Grupo_244272" data-name="Grupo 244272" transform="translate(120.326 118.529)">
              <path id="Trazado_245668" data-name="Trazado 245668" d="M253.182,227.054a.085.085,0,0,0,.011-.169.76.76,0,0,1-.726-.656.085.085,0,1,0-.169.014.932.932,0,0,0,.87.808h.014Z" transform="translate(-252.299 -226.152)" fill="#e0b3a8"/>
            </g>
            <path id="Trazado_245669" data-name="Trazado 245669" d="M253.158,224.565c0,.474.222.857.5.857s.495-.383.495-.857-.222-.857-.495-.857S253.158,224.091,253.158,224.565Z" transform="translate(-132.382 -106.458)" fill="#2b1710"/>
            <g id="Grupo_244273" data-name="Grupo 244273" transform="translate(124.895 118.794)">
              <path id="Trazado_245670" data-name="Trazado 245670" d="M261.908,227.56a.084.084,0,0,0,.083-.072.083.083,0,0,0-.072-.1.76.76,0,0,1-.725-.656.085.085,0,0,0-.169.014.932.932,0,0,0,.87.808h.014Z" transform="translate(-261.025 -226.658)" fill="#e0b3a8"/>
            </g>
            <path id="Trazado_245671" data-name="Trazado 245671" d="M261.878,225.071c0,.474.223.857.5.857s.5-.383.5-.857-.223-.856-.5-.856S261.878,224.6,261.878,225.071Z" transform="translate(-136.536 -106.7)" fill="#2b1710"/>
          </g>
        </g>
      </g>
    </g>
    <g id="Grupo_244277" data-name="Grupo 244277" transform="translate(898.121 109.989)">
      <path id="Trazado_245672" data-name="Trazado 245672" d="M5.788,278.471a2.094,2.094,0,1,0-2.961,0A2.094,2.094,0,0,0,5.788,278.471Z" transform="translate(0 -132.445)" fill="#3b5620"/>
      <path id="Trazado_245673" data-name="Trazado 245673" d="M22.678,277.3a2.094,2.094,0,1,0-2.4,1.733A2.094,2.094,0,0,0,22.678,277.3Z" transform="translate(-7.903 -132.432)" fill="#3b5620"/>
      <path id="Trazado_245674" data-name="Trazado 245674" d="M37.508,277.3a2.094,2.094,0,1,0-2.4,1.732A2.094,2.094,0,0,0,37.508,277.3Z" transform="translate(-15.093 -132.433)" fill="#3b5620"/>
      <path id="Trazado_245675" data-name="Trazado 245675" d="M53.812,277.485a2.094,2.094,0,1,0-2.518,1.559A2.094,2.094,0,0,0,53.812,277.485Z" transform="translate(-23.01 -132.452)" fill="#3b5620"/>
      <path id="Trazado_245676" data-name="Trazado 245676" d="M6.345,293.8a2.094,2.094,0,1,0-2.52,1.555A2.094,2.094,0,0,0,6.345,293.8Z" transform="translate(0 -140.357)" fill="#3b5620"/>
      <path id="Trazado_245677" data-name="Trazado 245677" d="M21.435,295.218a2.094,2.094,0,1,0-2.734-1.139A2.094,2.094,0,0,0,21.435,295.218Z" transform="translate(-7.916 -140.342)" fill="#3b5620"/>
      <path id="Trazado_245678" data-name="Trazado 245678" d="M36.265,295.218a2.094,2.094,0,1,0-2.734-1.139A2.094,2.094,0,0,0,36.265,295.218Z" transform="translate(-15.104 -140.342)" fill="#3b5620"/>
      <path id="Trazado_245679" data-name="Trazado 245679" d="M53.247,294.785a2.094,2.094,0,1,0-2.961,0A2.094,2.094,0,0,0,53.247,294.785Z" transform="translate(-23.006 -140.354)" fill="#3b5620"/>
    </g>
    <path id="Trazado_245680" data-name="Trazado 245680" d="M92.968,89.939l.979,3.011a.431.431,0,0,0,.41.3h3.167a.432.432,0,0,1,.254.781l-2.563,1.859a.428.428,0,0,0-.155.483l.979,3.012a.432.432,0,0,1-.664.483l-2.563-1.859a.441.441,0,0,0-.509,0l-2.563,1.859a.432.432,0,0,1-.664-.483l.979-3.012a.436.436,0,0,0-.155-.483L87.338,94.03a.432.432,0,0,1,.255-.781h3.167a.431.431,0,0,0,.41-.3l.979-3.011A.431.431,0,0,1,92.968,89.939Z" transform="translate(953.943 60.5)" fill="#3b5620"/>
    <g id="Grupo_244276" data-name="Grupo 244276" transform="translate(908.121 168.457)">
      <path id="Trazado_245682" data-name="Trazado 245682" d="M887.294,5.257a2.094,2.094,0,1,0-2.961,0A2.094,2.094,0,0,0,887.294,5.257Z" transform="translate(-427.311 -0.005)" fill="#3b5620"/>
      <path id="Trazado_245683" data-name="Trazado 245683" d="M903.607,5.261a2.094,2.094,0,1,0-2.961,0A2.094,2.094,0,0,0,903.607,5.261Z" transform="translate(-435.218 -0.006)" fill="#3b5620"/>
      <path id="Trazado_245684" data-name="Trazado 245684" d="M918.95,4.249a2.094,2.094,0,1,0-2.519,1.557A2.094,2.094,0,0,0,918.95,4.249Z" transform="translate(-442.385)" fill="#3b5620"/>
      <path id="Trazado_245685" data-name="Trazado 245685" d="M935.261,4.25a2.094,2.094,0,1,0-2.519,1.557A2.094,2.094,0,0,0,935.261,4.25Z" transform="translate(-450.292 -0.001)" fill="#3b5620"/>
      <path id="Trazado_245686" data-name="Trazado 245686" d="M887.291,21.57a2.094,2.094,0,1,0-2.961,0A2.094,2.094,0,0,0,887.291,21.57Z" transform="translate(-427.309 -7.912)" fill="#3b5620"/>
      <path id="Trazado_245687" data-name="Trazado 245687" d="M903.6,21.574a2.094,2.094,0,1,0-2.961,0A2.094,2.094,0,0,0,903.6,21.574Z" transform="translate(-435.217 -7.914)" fill="#3b5620"/>
      <path id="Trazado_245688" data-name="Trazado 245688" d="M918.948,20.56a2.094,2.094,0,1,0-2.519,1.557A2.094,2.094,0,0,0,918.948,20.56Z" transform="translate(-442.385 -7.907)" fill="#3b5620"/>
      <path id="Trazado_245689" data-name="Trazado 245689" d="M935.259,20.561a2.094,2.094,0,1,0-2.519,1.557A2.094,2.094,0,0,0,935.259,20.561Z" transform="translate(-450.291 -7.907)" fill="#3b5620"/>
    </g>
    <path id="Trazado_245690" data-name="Trazado 245690" d="M764.072,14.91l-4.467,9h9.258Z" transform="translate(473.721 16.054) rotate(11)" fill="#2f4419"/>
  </g>
</svg>
