<svg xmlns="http://www.w3.org/2000/svg" width="77.857" height="94.462" viewBox="0 0 77.857 94.462">
  <g id="Grupo_1066765" data-name="Grupo 1066765" transform="translate(-276.159 -2965.388)">
    <g id="observar_2_" data-name="observar (2)" transform="translate(231.159 2965.388)">
      <path id="Trazado_611366" data-name="Trazado 611366" d="M214.281,153.967H158.75a.738.738,0,0,1-.738-.738V73.706a.738.738,0,0,1,.738-.738h55.531a.738.738,0,0,1,.738.738V153.23A.738.738,0,0,1,214.281,153.967Z" transform="translate(-92.162 -59.506)" fill="#59b6d6"/>
      <path id="Trazado_611367" data-name="Trazado 611367" d="M156.11,127.743H100.583a.738.738,0,0,1-.738-.738V47.481a.738.738,0,0,1,.738-.738H156.11a.738.738,0,0,1,.738.738V127A.738.738,0,0,1,156.11,127.743Z" transform="translate(-44.726 -38.119)" fill="#c0e8f4"/>
      <g id="Grupo_1015571" data-name="Grupo 1015571" transform="translate(61.473 31.137)">
        <path id="Trazado_611368" data-name="Trazado 611368" d="M157.022,313.823H135.671a1.384,1.384,0,1,1,0-2.767h21.351a1.384,1.384,0,1,1,0,2.767Z" transform="translate(-134.287 -284.804)" fill="#4b596e"/>
        <path id="Trazado_611369" data-name="Trazado 611369" d="M157.022,355.288H135.671a1.384,1.384,0,1,1,0-2.767h21.351a1.384,1.384,0,1,1,0,2.767Z" transform="translate(-134.287 -318.619)" fill="#4b596e"/>
        <path id="Trazado_611370" data-name="Trazado 611370" d="M157.022,396.751H135.671a1.384,1.384,0,0,1,0-2.767h21.351a1.384,1.384,0,0,1,0,2.767Z" transform="translate(-134.287 -352.433)" fill="#4b596e"/>
        <path id="Trazado_611371" data-name="Trazado 611371" d="M157.022,438.216H135.671a1.384,1.384,0,1,1,0-2.767h21.351a1.384,1.384,0,1,1,0,2.767Z" transform="translate(-134.287 -386.248)" fill="#4b596e"/>
        <path id="Trazado_611372" data-name="Trazado 611372" d="M327.989,171.535h-7.638a1.384,1.384,0,1,1,0-2.767h7.638a1.384,1.384,0,1,1,0,2.767Z" transform="translate(-284.894 -168.768)" fill="#4b596e"/>
        <path id="Trazado_611373" data-name="Trazado 611373" d="M327.989,438.216h-7.638a1.384,1.384,0,1,1,0-2.767h7.638a1.384,1.384,0,1,1,0,2.767Z" transform="translate(-284.894 -386.248)" fill="#4b596e"/>
        <path id="Trazado_611374" data-name="Trazado 611374" d="M327.989,395.309h-7.638a1.384,1.384,0,1,1,0-2.767h7.638a1.384,1.384,0,1,1,0,2.767Z" transform="translate(-284.894 -351.257)" fill="#4b596e"/>
      </g>
      <rect id="Rectángulo_347782" data-name="Rectángulo 347782" width="7.638" height="11.422" transform="translate(96.93 15.918)" fill="#fad06a"/>
      <path id="Trazado_611375" data-name="Trazado 611375" d="M243.42,194.606l-3.986,3.99-9.237-9.245,3.986-3.99Z" transform="translate(-151.029 -151.163)" fill="#2c394b"/>
      <path id="Trazado_611376" data-name="Trazado 611376" d="M82.849,6.5a22.181,22.181,0,1,1-31.355,0A22.205,22.205,0,0,1,82.849,6.5Z" fill="#3b5620"/>
      <path id="Trazado_611377" data-name="Trazado 611377" d="M102.624,33.831a16.853,16.853,0,1,1-23.823,0A16.871,16.871,0,0,1,102.624,33.831Z" transform="translate(-23.541 -23.562)" fill="#59b6d6"/>
      <path id="Trazado_611378" data-name="Trazado 611378" d="M116.725,53.321a13.053,13.053,0,1,1-18.452,0A13.067,13.067,0,0,1,116.725,53.321Z" transform="translate(-40.328 -40.365)" fill="#c0e8f4"/>
      <path id="Trazado_611379" data-name="Trazado 611379" d="M294.647,244.061l-5.805,5.811a.76.76,0,0,1-1.075,0l-26.286-26.309a.76.76,0,0,1,0-1.074l5.805-5.811a.76.76,0,0,1,1.075,0l26.286,26.309A.76.76,0,0,1,294.647,244.061Z" transform="translate(-176.36 -176.52)" fill="#4b596e"/>
      <path id="Trazado_611380" data-name="Trazado 611380" d="M284.609,216.675l-2.11,2.111,27.36,27.384,2.11-2.111a.761.761,0,0,0,0-1.075l-26.285-26.309A.759.759,0,0,0,284.609,216.675Z" transform="translate(-193.681 -176.518)" fill="#2c394b"/>
      <path id="Trazado_611381" data-name="Trazado 611381" d="M314.219,262.571l-6.88,6.886-4.62-4.624,6.88-6.886Z" transform="translate(-210.171 -210.357)" fill="#632059"/>
      <path id="Trazado_611382" data-name="Trazado 611382" d="M332.928,262.571l-2.647,2.65-4.62-4.624,2.647-2.65Z" transform="translate(-228.88 -210.357)" fill="#7b286f"/>
    </g>
  </g>
</svg>
