<svg xmlns="http://www.w3.org/2000/svg" width="85" height="85" viewBox="0 0 85 85">
  <g id="Grupo_1066768" data-name="Grupo 1066768" transform="translate(-810 -3212.672)">
    <g id="colaboracion" transform="translate(810 3212.672)">
      <path id="Trazado_611410" data-name="Trazado 611410" d="M168.637,451.108,157.108,445l-7.7,7.7,19.344,3.421Z" transform="translate(-124.602 -371.126)" fill="#e592b8"/>
      <path id="Trazado_611411" data-name="Trazado 611411" d="M158.957,483.375H141.323l-1.231,1.231A1.283,1.283,0,0,0,141,486.8h19.136a1.282,1.282,0,0,0,.907-.376l2.865-2.865-3.354-1.776Z" transform="translate(-116.519 -401.795)" fill="#de5ca3"/>
      <path id="Trazado_611412" data-name="Trazado 611412" d="M469.71,275.478l3.6,3.6,1.71-16.625Z" transform="translate(-391.731 -218.883)" fill="#ffd064"/>
      <path id="Trazado_611413" data-name="Trazado 611413" d="M455.75,229.416l-2.865-2.865L445,241.434l4.1,4.1a30.856,30.856,0,0,0,3.6-6.183v9.784l1.231,1.231a1.283,1.283,0,0,0,2.19-.907V230.324A1.284,1.284,0,0,0,455.75,229.416Z" transform="translate(-371.126 -188.94)" fill="#ebb044"/>
      <path id="Trazado_611414" data-name="Trazado 611414" d="M7.02,144.922l-4.83-4.831A1.283,1.283,0,0,0,0,141v17.316H3.421Z" transform="translate(0 -116.519)" fill="#fff0af"/>
      <path id="Trazado_611415" data-name="Trazado 611415" d="M.442,183.716,0,184.481V186.3a1.283,1.283,0,0,0,.376.907l2.865,2.865,7.882-14.883-4.1-4.1c-3.3,4.232-4.728,9.422-6.579,12.627Z" transform="translate(0 -142.686)" fill="#ffd064"/>
      <path id="Trazado_611416" data-name="Trazado 611416" d="M294.949,137.3c-1.34,1.057-7.684,2.553-9.078,1.159-2.235,3.871-2.045,6.194,4.182,14.834.623.864-2.258,7.1-2.258,7.1l7.065,8.353,8.681-6.645a19.445,19.445,0,0,0,6.928-4.369c3.953-3.953,8.666-18.522,10.339-21.419a2.677,2.677,0,0,0-3.971,1.132,5.3,5.3,0,0,1-.235-5.339,2.677,2.677,0,0,0-3.971,1.132,5.155,5.155,0,0,1-.235-5.339,2.677,2.677,0,0,0-3.971,1.132,4.832,4.832,0,0,1-.235-5.339,2.677,2.677,0,0,0-3.971,1.132c-.127.22-.464.744-.936,1.463C302.107,128.079,296.28,136.255,294.949,137.3Z" transform="translate(-237.326 -102.775)" fill="#ebae9d"/>
      <g id="Grupo_1015573" data-name="Grupo 1015573" transform="translate(21.439 20.923)">
        <path id="Trazado_611417" data-name="Trazado 611417" d="M297.028,180.233a16.765,16.765,0,0,0,4.463-2.519l-4.31-6.02c-1,.748-1.927,3.141-2.791,3.764l-1.975,3.421C293.809,180.273,294.793,181.077,297.028,180.233Z" transform="translate(-265.309 -164.113)" fill="#c38778"/>
        <path id="Trazado_611418" data-name="Trazado 611418" d="M417.786,163.1a1.437,1.437,0,0,0,1.962-.526l3.384-5.862.77-1.333a2.677,2.677,0,0,0-1.005-4.005l-5.637,9.764A1.437,1.437,0,0,0,417.786,163.1Z" transform="translate(-369.267 -147.163)" fill="#c38778"/>
        <path id="Trazado_611419" data-name="Trazado 611419" d="M442.721,188.553a1.437,1.437,0,0,0,1.962-.526l3.452-5.979.77-1.333a2.677,2.677,0,0,0-1.005-4.005l-5.7,9.881A1.436,1.436,0,0,0,442.721,188.553Z" transform="translate(-390.063 -168.296)" fill="#c38778"/>
        <path id="Trazado_611420" data-name="Trazado 611420" d="M393.771,137.376a1.437,1.437,0,0,0,1.962-.526l3.165-5.481.77-1.333a2.677,2.677,0,0,0-1.005-4.005l-5.418,9.384A1.437,1.437,0,0,0,393.771,137.376Z" transform="translate(-349.239 -126.03)" fill="#c38778"/>
        <path id="Trazado_611421" data-name="Trazado 611421" d="M372.513,202.048l-3.808,6.595c-2.119,3.67-3.605,9.845-7.558,13.8a21.249,21.249,0,0,1-6.927,4.369l-7.655,7.671,3.945-.019,5.247-5.247a22.119,22.119,0,0,0,7.3-4.738c4.456-4.456,6.019-10.728,8.138-14.4l2.325-4.026A2.677,2.677,0,0,0,372.513,202.048Z" transform="translate(-310.469 -189.428)" fill="#c38778"/>
        <path id="Trazado_611422" data-name="Trazado 611422" d="M161.9,298.408a16.5,16.5,0,0,1-3.731-3.459c-1.057-1.34-2.553-7.684-1.159-9.078-3.871-2.235-6.194-2.045-14.834,4.182-.864.623-4.7.141-4.7.141s-3.636.765-5.173,3.043a19.9,19.9,0,0,0-3.163,7.965l2.851,2.851a22.12,22.12,0,0,0,4.738,7.3,24,24,0,0,0,6.219,4.324c3.822,1.472,7.4,1.018,9.956-1.429,3-2.869,8.065-8,10.11-10.107C164.4,302.708,163.605,299.553,161.9,298.408Z" transform="translate(-129.138 -258.249)" fill="#c38778"/>
      </g>
      <path id="Trazado_611423" data-name="Trazado 611423" d="M231.263,367.961a3.136,3.136,0,0,1,.257,4.871c-2.045,2.108-7.114,7.239-10.11,10.107-2.556,2.447-5.28,3.756-9.1,2.284,3.027,1.536,6.043,2.582,8.179,3.815l4.026,2.325a2.677,2.677,0,0,0,4.005-1.005c.793-1.374-1.132-3.971-1.132-3.971l1.333.77a2.677,2.677,0,0,0,4.005-1.005c.793-1.374-1.132-3.971-1.132-3.971l1.333.77a2.677,2.677,0,0,0,4.005-1.005c.793-1.374-1.132-3.971-1.132-3.971l1.333.77a2.875,2.875,0,1,0,2.873-4.977C239.238,373.322,234.776,370.332,231.263,367.961Z" transform="translate(-177.062 -306.874)" fill="#9d6c6c"/>
      <path id="Trazado_611424" data-name="Trazado 611424" d="M287.141,297.028a16.765,16.765,0,0,0,2.519,4.463l3.526-3.526a1.283,1.283,0,0,0,.124-1.67q-.742-1-1.394-1.9l-3.421-1.975C287.1,293.809,286.3,294.793,287.141,297.028Z" transform="translate(-239.184 -243.87)" fill="#9d6c6c"/>
      <path id="Trazado_611425" data-name="Trazado 611425" d="M116.842,297.816l-4.109-4.109-8.334,11.01,4.107,4.107c1.174-1.786,3.182-4.775,4.873-7.281A16.48,16.48,0,0,1,116.842,297.816Z" transform="translate(-87.067 -244.947)" fill="#9d6c6c"/>
      <path id="Trazado_611426" data-name="Trazado 611426" d="M35.2,139.544c0-2.452-2.243-5.539-6.26-11.008a2.326,2.326,0,0,1,.231-3.021l4.469-6.18L23.545,114.7,18.3,119.947a22.12,22.12,0,0,0-7.3,4.738c-4.456,4.456-6.019,10.728-8.138,14.4L.536,143.109a2.677,2.677,0,0,0,1.005,4.005c1.791-3.1,3.971-1.132,3.971-1.132l-.77,1.333a2.677,2.677,0,0,0,1.005,4.005c1.8-3.109,3.971-1.132,3.971-1.132l-.77,1.333a2.677,2.677,0,0,0,1.005,4.005c1.8-3.11,3.971-1.132,3.971-1.132l-.77,1.333a2.677,2.677,0,0,0,1.005,4.005s7.006-9.4,9.834-12.556c5.984-6.679,11.2-5.412,11.2-7.634Z" transform="translate(-0.025 -95.658)" fill="#ebae9d"/>
      <path id="Trazado_611427" data-name="Trazado 611427" d="M98.393,169.41c1.34-1.057,7.684-2.553,9.078-1.159,2.235-3.871,2.045-6.194-4.182-14.834-.623-.864,2.258-7.1,2.258-7.1l-.918-3.7-6.008,6.009a2.326,2.326,0,0,0-.231,3.021c4.017,5.469,5.853,8.59,6.26,11.008.31,1.837-6.668,1.2-11.688,8.171a127.414,127.414,0,0,0-7.808,12.191,2.677,2.677,0,0,0,3.971-1.132c.444-.768,3.439-5.23,5.81-8.744a16.5,16.5,0,0,1,3.459-3.731Z" transform="translate(-71.016 -118.94)" fill="#c38778"/>
      <path id="Trazado_611428" data-name="Trazado 611428" d="M41.3,280.373a1.437,1.437,0,0,0-1.962.526l-4.867,8.431a2.677,2.677,0,0,0,3.971-1.132l3.384-5.862A1.437,1.437,0,0,0,41.3,280.373Z" transform="translate(-28.752 -233.666)" fill="#c38778"/>
      <path id="Trazado_611429" data-name="Trazado 611429" d="M16.032,254.332a1.437,1.437,0,0,0-1.962.526L9.135,263.4a2.677,2.677,0,0,0,3.971-1.132l3.452-5.979A1.437,1.437,0,0,0,16.032,254.332Z" transform="translate(-7.618 -211.948)" fill="#c38778"/>
      <path id="Trazado_611430" data-name="Trazado 611430" d="M66.425,308.006a1.437,1.437,0,0,0-1.962.526l-4.648,8.05a2.677,2.677,0,0,0,3.971-1.132l3.165-5.481A1.437,1.437,0,0,0,66.425,308.006Z" transform="translate(-49.885 -256.711)" fill="#c38778"/>
      <path id="Trazado_611431" data-name="Trazado 611431" d="M169.378,287.141a16.765,16.765,0,0,0-4.463,2.519l3.526,3.526a1.283,1.283,0,0,0,1.67.124q1-.742,1.9-1.394l1.975-3.421C172.6,287.1,171.613,286.3,169.378,287.141Z" transform="translate(-137.537 -239.184)" fill="#9d6c6c"/>
      <path id="Trazado_611432" data-name="Trazado 611432" d="M229.416.376l-2.865,2.865,14.883,7.882L247.768,0H230.324A1.283,1.283,0,0,0,229.416.376Z" transform="translate(-188.94)" fill="#bfe2e6"/>
      <path id="Trazado_611433" data-name="Trazado 611433" d="M297.342,9.465l3.131,1.658,8.933-8.933A1.283,1.283,0,0,0,308.5,0h-1.692Z" transform="translate(-247.979 0)" fill="#94ccd4"/>
      <path id="Trazado_611434" data-name="Trazado 611434" d="M156.086,30.243,158,32.155a11.084,11.084,0,0,0,5.173-3.727c3.128-4.636,3.163-7.281,3.163-7.281L163.484,18.3a22.12,22.12,0,0,0-4.738-7.3c-4.456-4.456-10.728-6.019-14.4-8.138L140.322.535a2.677,2.677,0,0,0-4.005,1.005c-.793,1.374,1.132,3.971,1.132,3.971l-1.333-.77a2.677,2.677,0,0,0-4.005,1.005c-.793,1.374,1.132,3.971,1.132,3.971l-1.333-.77A2.677,2.677,0,0,0,127.9,9.954c-.793,1.374,1.132,3.971,1.132,3.971l-1.333-.77a2.677,2.677,0,0,0-4.005,1.005,2.677,2.677,0,0,0,1.132,3.971c.768.444,5.23,3.439,8.744,5.81A16.507,16.507,0,0,1,137.3,27.4c1.057,1.34,1.187,5.1,1.658,6.347.65,1.724,1.543,2.767,3.818,2.767s13.307-6.271,13.307-6.271Z" transform="translate(-102.773 -0.024)" fill="#c38778"/>
      <path id="Trazado_611435" data-name="Trazado 611435" d="M183.331,41.3a1.437,1.437,0,0,0-.526-1.962l-8.431-4.867a2.677,2.677,0,0,0,1.132,3.971l5.862,3.384A1.437,1.437,0,0,0,183.331,41.3Z" transform="translate(-145.038 -28.752)" fill="#9d6c6c"/>
      <path id="Trazado_611436" data-name="Trazado 611436" d="M208.786,16.032a1.437,1.437,0,0,0-.526-1.962l-8.547-4.935a2.677,2.677,0,0,0,1.132,3.971l5.979,3.452A1.437,1.437,0,0,0,208.786,16.032Z" transform="translate(-166.17 -7.618)" fill="#9d6c6c"/>
      <path id="Trazado_611437" data-name="Trazado 611437" d="M157.611,66.425a1.437,1.437,0,0,0-.526-1.962l-8.05-4.648a2.677,2.677,0,0,0,1.132,3.971l5.481,3.165A1.437,1.437,0,0,0,157.611,66.425Z" transform="translate(-123.906 -49.885)" fill="#9d6c6c"/>
      <path id="Trazado_611438" data-name="Trazado 611438" d="M280.373,432.775a1.437,1.437,0,0,0,.526,1.962l8.431,4.867a2.677,2.677,0,0,0-1.132-3.971l-5.862-3.384A1.437,1.437,0,0,0,280.373,432.775Z" transform="translate(-233.666 -360.329)" fill="#785252"/>
      <path id="Trazado_611439" data-name="Trazado 611439" d="M254.332,457.709a1.437,1.437,0,0,0,.526,1.962l8.547,4.935a2.677,2.677,0,0,0-1.132-3.971l-5.979-3.452A1.437,1.437,0,0,0,254.332,457.709Z" transform="translate(-211.948 -381.123)" fill="#785252"/>
      <path id="Trazado_611440" data-name="Trazado 611440" d="M308.006,408.759a1.437,1.437,0,0,0,.526,1.962l8.05,4.648a2.677,2.677,0,0,0-1.132-3.971l-5.481-3.165A1.437,1.437,0,0,0,308.006,408.759Z" transform="translate(-256.711 -340.3)" fill="#785252"/>
      <path id="Trazado_611441" data-name="Trazado 611441" d="M231.977,174.48a2.558,2.558,0,0,0-3.306-.272c-9.682,7.023-11.207,5.528-12.344,2.516l-1.353,4.615c4.048,2.337,6.4,2.023,16.057-5.073.5-.369,2.1-.634,2.631-.1Z" transform="translate(-179.284 -144.885)" fill="#9d6c6c"/>
      <path id="Trazado_611442" data-name="Trazado 611442" d="M190.877,169.378a16.764,16.764,0,0,0-2.519-4.463l-3.526,3.526a1.283,1.283,0,0,0-.124,1.67q.742,1,1.394,1.9l3.421,1.975C190.917,172.6,191.72,171.613,190.877,169.378Z" transform="translate(-153.834 -137.537)" fill="#785252"/>
      <path id="Trazado_611443" data-name="Trazado 611443" d="M338.507,136.913c1.691-2.507,3.7-5.494,4.873-7.281l-2.394-2.394c-1.174,1.786-3.182,4.775-4.873,7.281a16.488,16.488,0,0,1-3.463,3.727l2.4,2.4a16.5,16.5,0,0,0,3.459-3.731Z" transform="translate(-277.425 -106.114)" fill="#9d6c6c"/>
    </g>
  </g>
</svg>
