<svg xmlns="http://www.w3.org/2000/svg" xmlns:xlink="http://www.w3.org/1999/xlink" width="820" height="736" viewBox="0 0 820 736">
  <defs>
    <linearGradient id="linear-gradient" x1="0.5" x2="0.5" y2="1" gradientUnits="objectBoundingBox">
      <stop offset="0" stop-color="#820072"/>
      <stop offset="1" stop-color="#b3009d"/>
    </linearGradient>
    <linearGradient id="linear-gradient-2" x1="0.5" x2="0.5" y2="1" gradientUnits="objectBoundingBox">
      <stop offset="0" stop-color="#144677"/>
      <stop offset="1" stop-color="#00574f"/>
    </linearGradient>
  </defs>
  <g id="Grupo_1066771" data-name="Grupo 1066771" transform="translate(-390 -4499)">
    <g id="Grupo_1066770" data-name="Grupo 1066770">
      <g id="Grupo_1016266" data-name="Grupo 1016266">
        <g id="Grupo_1016264" data-name="Grupo 1016264">
          <g id="Grupo_1015694" data-name="Grupo 1015694" transform="translate(0 194.523)">
            <path id="Trazado_615586" data-name="Trazado 615586" d="M85.908,0A85.908,85.908,0,1,1,0,85.908,85.908,85.908,0,0,1,85.908,0Z" transform="translate(713.583 4600.516)" fill="#3b5620"/>
            <ellipse id="Elipse_5638" data-name="Elipse 5638" cx="85.908" cy="86.417" rx="85.908" ry="86.417" transform="translate(713.583 4363.632)" fill="#ffe3fb"/>
            <circle id="Elipse_5639" data-name="Elipse 5639" cx="85.908" cy="85.908" r="85.908" transform="translate(495 4531.382)" fill="#ffe3fb"/>
            <circle id="Elipse_5641" data-name="Elipse 5641" cx="86.417" cy="86.417" r="86.417" transform="translate(584.467 4793.682)" fill="#ffe3fb"/>
            <ellipse id="Elipse_5642" data-name="Elipse 5642" cx="85.908" cy="86.417" rx="85.908" ry="86.417" transform="translate(836.6 4793.682)" fill="#ffe3fb"/>
            <circle id="Elipse_5640" data-name="Elipse 5640" cx="85.908" cy="85.908" r="85.908" transform="translate(933.184 4531.382)" fill="#ffe3fb"/>
            <line id="Línea_585" data-name="Línea 585" y1="37.617" transform="translate(802.033 4550.699)" fill="none" stroke="#1b3f5e" stroke-width="2"/>
            <line id="Línea_586" data-name="Línea 586" x1="37.617" y1="23.383" transform="translate(670.884 4643.216)" fill="none" stroke="#1b3f5e" stroke-width="2"/>
            <line id="Línea_588" data-name="Línea 588" x1="37.617" y2="37.617" transform="translate(698.333 4751.999)" fill="none" stroke="#1b3f5e" stroke-width="2"/>
            <line id="Línea_589" data-name="Línea 589" x2="37.617" y2="37.617" transform="translate(864.05 4751.999)" fill="none" stroke="#1b3f5e" stroke-width="2"/>
            <line id="Línea_587" data-name="Línea 587" y1="23.383" x2="37.617" transform="translate(890.483 4643.216)" fill="none" stroke="#1b3f5e" stroke-width="2"/>
            <path id="Trazado_805027" data-name="Trazado 805027" d="M11.654,10.892a7.725,7.725,0,0,1-.668,3.313,5.03,5.03,0,0,1-1.912,2.2,5.288,5.288,0,0,1-2.852.773,5.324,5.324,0,0,1-2.839-.765A5.08,5.08,0,0,1,1.45,14.227a7.5,7.5,0,0,1-.694-3.265v-.633A7.685,7.685,0,0,1,1.437,7,5.072,5.072,0,0,1,3.362,4.8a5.3,5.3,0,0,1,2.843-.769A5.3,5.3,0,0,1,9.048,4.8,5.072,5.072,0,0,1,10.973,7a7.663,7.663,0,0,1,.681,3.318Zm-2.672-.58a5.385,5.385,0,0,0-.721-3.059A2.349,2.349,0,0,0,6.205,6.207,2.349,2.349,0,0,0,4.157,7.24a5.324,5.324,0,0,0-.729,3.028v.624a5.453,5.453,0,0,0,.721,3.041,2.342,2.342,0,0,0,2.074,1.081,2.321,2.321,0,0,0,2.039-1.042,5.421,5.421,0,0,0,.721-3.037Zm12.99,2.021A5.758,5.758,0,0,1,21,15.9a3.231,3.231,0,0,1-2.725,1.279,2.969,2.969,0,0,1-2.47-1.187L15.688,17H13.4V3.5h2.54V8.343a2.893,2.893,0,0,1,2.312-1.028,3.258,3.258,0,0,1,2.729,1.279,5.767,5.767,0,0,1,.989,3.6Zm-2.54-.185a3.783,3.783,0,0,0-.457-2.1,1.545,1.545,0,0,0-1.362-.664,1.676,1.676,0,0,0-1.67.993v3.753a1.7,1.7,0,0,0,1.688,1,1.568,1.568,0,0,0,1.617-1.213A6.257,6.257,0,0,0,19.433,12.148Zm9.255,2.224a.818.818,0,0,0-.461-.734,5.241,5.241,0,0,0-1.481-.479q-3.393-.712-3.393-2.883A2.613,2.613,0,0,1,24.4,8.163a4.237,4.237,0,0,1,2.747-.848,4.56,4.56,0,0,1,2.9.853,2.687,2.687,0,0,1,1.085,2.215h-2.54a1.229,1.229,0,0,0-.352-.9,1.488,1.488,0,0,0-1.1-.356,1.52,1.52,0,0,0-.993.29.916.916,0,0,0-.352.738.783.783,0,0,0,.4.681,4.114,4.114,0,0,0,1.349.448,11.019,11.019,0,0,1,1.6.426,2.628,2.628,0,0,1,2.013,2.558,2.481,2.481,0,0,1-1.116,2.1,4.815,4.815,0,0,1-2.883.8,5.029,5.029,0,0,1-2.123-.426,3.561,3.561,0,0,1-1.455-1.169,2.716,2.716,0,0,1-.527-1.6h2.408a1.326,1.326,0,0,0,.5,1.037,1.987,1.987,0,0,0,1.248.36,1.839,1.839,0,0,0,1.1-.277A.861.861,0,0,0,28.688,14.372Zm8.481,2.8a4.668,4.668,0,0,1-3.406-1.283,4.561,4.561,0,0,1-1.314-3.419v-.246A5.745,5.745,0,0,1,33,9.666a4.064,4.064,0,0,1,1.569-1.74,4.4,4.4,0,0,1,2.316-.611,3.947,3.947,0,0,1,3.072,1.23,5,5,0,0,1,1.121,3.489v1.037H35.024a2.36,2.36,0,0,0,.743,1.494,2.245,2.245,0,0,0,1.569.563,2.742,2.742,0,0,0,2.294-1.063l1.248,1.4a3.813,3.813,0,0,1-1.547,1.261A5.075,5.075,0,0,1,37.169,17.176Zm-.29-7.813a1.587,1.587,0,0,0-1.226.512,2.651,2.651,0,0,0-.6,1.466h3.533v-.2a1.891,1.891,0,0,0-.457-1.311A1.638,1.638,0,0,0,36.879,9.362Zm10.986.51a6.9,6.9,0,0,0-.914-.07,1.86,1.86,0,0,0-1.89.976V17h-2.54V7.49h2.4l.07,1.134a2.354,2.354,0,0,1,2.118-1.31,2.662,2.662,0,0,1,.791.114ZM52.8,13.9,54.571,7.49h2.654L54.018,17H51.592L48.384,7.49h2.654ZM63.721,17a2.821,2.821,0,0,1-.255-.853,3.073,3.073,0,0,1-2.4,1.028,3.376,3.376,0,0,1-2.316-.809,2.6,2.6,0,0,1-.918-2.039,2.687,2.687,0,0,1,1.121-2.32,5.529,5.529,0,0,1,3.239-.817H63.36v-.545a1.567,1.567,0,0,0-.338-1.055,1.331,1.331,0,0,0-1.068-.4,1.513,1.513,0,0,0-1.006.308,1.045,1.045,0,0,0-.365.844h-2.54a2.551,2.551,0,0,1,.51-1.529,3.37,3.37,0,0,1,1.441-1.1,5.253,5.253,0,0,1,2.092-.4,4.15,4.15,0,0,1,2.791.883,3.09,3.09,0,0,1,1.033,2.483V14.8a4.546,4.546,0,0,0,.378,2.048V17Zm-2.1-1.767a2.188,2.188,0,0,0,1.037-.25,1.645,1.645,0,0,0,.7-.672V12.676h-.949q-1.907,0-2.03,1.318l-.009.149a1.017,1.017,0,0,0,.334.782A1.3,1.3,0,0,0,61.62,15.233Zm10.2-.105a1.666,1.666,0,0,0,1.143-.387,1.355,1.355,0,0,0,.457-1.028H75.8a3.258,3.258,0,0,1-.527,1.771,3.48,3.48,0,0,1-1.419,1.248,4.442,4.442,0,0,1-1.991.444,4.129,4.129,0,0,1-3.217-1.3A5.13,5.13,0,0,1,67.465,12.3v-.167a5.071,5.071,0,0,1,1.169-3.507,4.08,4.08,0,0,1,3.208-1.31A4,4,0,0,1,74.7,8.33a3.594,3.594,0,0,1,1.094,2.7H73.415a1.745,1.745,0,0,0-.457-1.206,1.7,1.7,0,0,0-2.5.183,3.749,3.749,0,0,0-.453,2.1v.264a3.8,3.8,0,0,0,.448,2.113A1.549,1.549,0,0,0,71.815,15.128ZM79.928,17H77.379V7.49h2.549Zm-2.7-11.971a1.251,1.251,0,0,1,.382-.94,1.648,1.648,0,0,1,2.079,0,1.244,1.244,0,0,1,.387.94,1.247,1.247,0,0,1-.391.949,1.629,1.629,0,0,1-2.065,0A1.247,1.247,0,0,1,77.229,5.029Zm4.395,7.128a5.64,5.64,0,0,1,.545-2.522,3.989,3.989,0,0,1,1.569-1.714,4.577,4.577,0,0,1,2.377-.606,4.33,4.33,0,0,1,3.142,1.178,4.727,4.727,0,0,1,1.358,3.2l.018.65a4.97,4.97,0,0,1-1.222,3.511,4.735,4.735,0,0,1-6.561,0,5.058,5.058,0,0,1-1.226-3.586Zm2.54.18a3.555,3.555,0,0,0,.51,2.073,1.831,1.831,0,0,0,2.9.009,3.89,3.89,0,0,0,.519-2.267,3.519,3.519,0,0,0-.519-2.06,1.686,1.686,0,0,0-1.459-.731,1.658,1.658,0,0,0-1.441.726A3.955,3.955,0,0,0,84.164,12.338ZM86.616,3.5h2.769L86.95,6.225H84.885Zm7.919,3.99.079,1.1a3.32,3.32,0,0,1,2.733-1.274A2.759,2.759,0,0,1,99.6,8.2a4.142,4.142,0,0,1,.756,2.654V17h-2.54V10.918a1.648,1.648,0,0,0-.352-1.173,1.574,1.574,0,0,0-1.169-.365,1.747,1.747,0,0,0-1.608.914V17h-2.54V7.49Z" transform="translate(746.116 4644.232)" fill="#fff"/>
            <path id="Trazado_805022" data-name="Trazado 805022" d="M30.7,17V4.2h3.938a5.98,5.98,0,0,1,3.019.76,5.3,5.3,0,0,1,2.079,2.162,6.669,6.669,0,0,1,.747,3.186V10.9a6.688,6.688,0,0,1-.734,3.173,5.256,5.256,0,0,1-2.07,2.153A6.025,6.025,0,0,1,34.663,17ZM33.336,6.339v8.543H34.61a2.863,2.863,0,0,0,2.364-1.011,4.567,4.567,0,0,0,.835-2.892V10.3A4.64,4.64,0,0,0,37,7.345a2.854,2.854,0,0,0-2.364-1.006ZM44.911,17H42.362V7.49h2.549Zm-2.7-11.971a1.251,1.251,0,0,1,.382-.94,1.648,1.648,0,0,1,2.079,0,1.244,1.244,0,0,1,.387.94,1.247,1.247,0,0,1-.391.949,1.629,1.629,0,0,1-2.065,0A1.247,1.247,0,0,1,42.213,5.029ZM52.514,17a2.821,2.821,0,0,1-.255-.853,3.073,3.073,0,0,1-2.4,1.028,3.376,3.376,0,0,1-2.316-.809,2.6,2.6,0,0,1-.918-2.039,2.687,2.687,0,0,1,1.121-2.32,5.529,5.529,0,0,1,3.239-.817h1.169v-.545a1.567,1.567,0,0,0-.338-1.055,1.331,1.331,0,0,0-1.068-.4,1.513,1.513,0,0,0-1.006.308,1.045,1.045,0,0,0-.365.844h-2.54a2.551,2.551,0,0,1,.51-1.529,3.37,3.37,0,0,1,1.441-1.1,5.253,5.253,0,0,1,2.092-.4,4.15,4.15,0,0,1,2.791.883A3.09,3.09,0,0,1,54.7,10.681V14.8a4.546,4.546,0,0,0,.378,2.048V17Zm-2.1-1.767a2.188,2.188,0,0,0,1.037-.25,1.645,1.645,0,0,0,.7-.672V12.676H51.2q-1.907,0-2.03,1.318l-.009.149a1.017,1.017,0,0,0,.334.782A1.3,1.3,0,0,0,50.413,15.233ZM62,9.872a6.9,6.9,0,0,0-.914-.07,1.86,1.86,0,0,0-1.89.976V17h-2.54V7.49h2.4l.07,1.134a2.354,2.354,0,0,1,2.118-1.31,2.662,2.662,0,0,1,.791.114ZM65.9,17H63.351V7.49H65.9ZM63.2,5.029a1.251,1.251,0,0,1,.382-.94,1.648,1.648,0,0,1,2.079,0,1.244,1.244,0,0,1,.387.94,1.247,1.247,0,0,1-.391.949,1.629,1.629,0,0,1-2.065,0A1.247,1.247,0,0,1,63.2,5.029ZM67.6,12.157a5.64,5.64,0,0,1,.545-2.522,3.989,3.989,0,0,1,1.569-1.714,4.577,4.577,0,0,1,2.377-.606,4.33,4.33,0,0,1,3.142,1.178,4.727,4.727,0,0,1,1.358,3.2l.018.65a4.97,4.97,0,0,1-1.222,3.511,4.735,4.735,0,0,1-6.561,0A5.058,5.058,0,0,1,67.6,12.271Zm2.54.18a3.555,3.555,0,0,0,.51,2.073,1.831,1.831,0,0,0,2.9.009,3.89,3.89,0,0,0,.519-2.267,3.519,3.519,0,0,0-.519-2.06,1.686,1.686,0,0,0-1.459-.731,1.658,1.658,0,0,0-1.441.726A3.955,3.955,0,0,0,70.136,12.338Z" transform="translate(746.116 4404.299)" fill="#12263f"/>
            <path id="Trazado_805024" data-name="Trazado 805024" d="M15.3,12.737a4.528,4.528,0,0,1-1.525,3.252,5.355,5.355,0,0,1-3.625,1.187,4.816,4.816,0,0,1-3.872-1.657,6.793,6.793,0,0,1-1.411-4.548v-.782a7.671,7.671,0,0,1,.65-3.252A4.874,4.874,0,0,1,7.375,4.779a5.207,5.207,0,0,1,2.808-.751,5.217,5.217,0,0,1,3.568,1.187,4.866,4.866,0,0,1,1.564,3.331H12.68a2.673,2.673,0,0,0-.69-1.8,2.555,2.555,0,0,0-1.806-.558,2.24,2.24,0,0,0-1.973.945,5.3,5.3,0,0,0-.672,2.931v.967a5.667,5.667,0,0,0,.628,3.032,2.2,2.2,0,0,0,1.982.958,2.6,2.6,0,0,0,1.824-.558,2.521,2.521,0,0,0,.69-1.727Zm7.26,3.3a3.185,3.185,0,0,1-2.6,1.143,3,3,0,0,1-2.333-.879,3.752,3.752,0,0,1-.822-2.575V7.49h2.54v6.151q0,1.487,1.354,1.487a1.834,1.834,0,0,0,1.775-.9V7.49h2.549V17H22.629ZM32.446,17a2.821,2.821,0,0,1-.255-.853,3.073,3.073,0,0,1-2.4,1.028,3.376,3.376,0,0,1-2.316-.809,2.6,2.6,0,0,1-.918-2.039,2.687,2.687,0,0,1,1.121-2.32,5.529,5.529,0,0,1,3.239-.817h1.169v-.545a1.567,1.567,0,0,0-.338-1.055,1.331,1.331,0,0,0-1.068-.4,1.513,1.513,0,0,0-1.006.308,1.045,1.045,0,0,0-.365.844h-2.54a2.551,2.551,0,0,1,.51-1.529,3.37,3.37,0,0,1,1.441-1.1,5.253,5.253,0,0,1,2.092-.4A4.15,4.15,0,0,1,33.6,8.2a3.09,3.09,0,0,1,1.033,2.483V14.8a4.546,4.546,0,0,0,.378,2.048V17Zm-2.1-1.767a2.188,2.188,0,0,0,1.037-.25,1.645,1.645,0,0,0,.7-.672V12.676h-.949q-1.907,0-2.03,1.318l-.009.149a1.017,1.017,0,0,0,.334.782A1.3,1.3,0,0,0,30.346,15.233Zm5.845-3.059a5.731,5.731,0,0,1,1-3.542,3.237,3.237,0,0,1,2.729-1.318,2.913,2.913,0,0,1,2.294,1.037V3.5H44.76V17H42.466l-.123-1.011A2.989,2.989,0,0,1,39.9,17.176a3.228,3.228,0,0,1-2.694-1.323A5.916,5.916,0,0,1,36.19,12.175Zm2.54.189a3.754,3.754,0,0,0,.466,2.051,1.517,1.517,0,0,0,1.354.713,1.7,1.7,0,0,0,1.661-.995V10.375a1.675,1.675,0,0,0-1.644-.995Q38.73,9.38,38.73,12.364Zm12.375,4.812A4.668,4.668,0,0,1,47.7,15.893a4.561,4.561,0,0,1-1.314-3.419v-.246a5.745,5.745,0,0,1,.554-2.562,4.064,4.064,0,0,1,1.569-1.74,4.4,4.4,0,0,1,2.316-.611A3.947,3.947,0,0,1,53.9,8.545a5,5,0,0,1,1.121,3.489v1.037H48.961a2.36,2.36,0,0,0,.743,1.494,2.245,2.245,0,0,0,1.569.563,2.742,2.742,0,0,0,2.294-1.063l1.248,1.4a3.813,3.813,0,0,1-1.547,1.261A5.075,5.075,0,0,1,51.105,17.176Zm-.29-7.813a1.587,1.587,0,0,0-1.226.512,2.651,2.651,0,0,0-.6,1.466H52.52v-.2a1.891,1.891,0,0,0-.457-1.311A1.638,1.638,0,0,0,50.815,9.362Zm10.986.51a6.9,6.9,0,0,0-.914-.07,1.86,1.86,0,0,0-1.89.976V17h-2.54V7.49h2.4l.07,1.134a2.354,2.354,0,0,1,2.118-1.31,2.662,2.662,0,0,1,.791.114Zm3.56-2.382.079,1.1a3.32,3.32,0,0,1,2.733-1.274,2.759,2.759,0,0,1,2.25.888,4.142,4.142,0,0,1,.756,2.654V17h-2.54V10.918a1.648,1.648,0,0,0-.352-1.173,1.574,1.574,0,0,0-1.169-.365,1.747,1.747,0,0,0-1.608.914V17h-2.54V7.49Zm7.348,4.667a5.64,5.64,0,0,1,.545-2.522,3.989,3.989,0,0,1,1.569-1.714A4.577,4.577,0,0,1,77.2,7.314a4.33,4.33,0,0,1,3.142,1.178,4.727,4.727,0,0,1,1.358,3.2l.018.65A4.97,4.97,0,0,1,80.5,15.853a4.735,4.735,0,0,1-6.561,0,5.058,5.058,0,0,1-1.226-3.586Zm2.54.18a3.555,3.555,0,0,0,.51,2.073,1.831,1.831,0,0,0,2.9.009,3.89,3.89,0,0,0,.519-2.267,3.519,3.519,0,0,0-.519-2.06A1.686,1.686,0,0,0,77.2,9.362a1.658,1.658,0,0,0-1.441.726A3.955,3.955,0,0,0,75.249,12.338ZM8.988,36.175a5.731,5.731,0,0,1,1-3.542,3.237,3.237,0,0,1,2.729-1.318,2.913,2.913,0,0,1,2.294,1.037V27.5h2.549V41H15.264l-.123-1.011A2.989,2.989,0,0,1,12.7,41.176,3.228,3.228,0,0,1,10,39.853,5.916,5.916,0,0,1,8.988,36.175Zm2.54.189a3.754,3.754,0,0,0,.466,2.051,1.517,1.517,0,0,0,1.354.713,1.7,1.7,0,0,0,1.661-.995V34.375a1.675,1.675,0,0,0-1.644-.995Q11.528,33.38,11.528,36.364ZM23.9,41.176A4.668,4.668,0,0,1,20.5,39.893a4.561,4.561,0,0,1-1.314-3.419v-.246a5.745,5.745,0,0,1,.554-2.562,4.064,4.064,0,0,1,1.569-1.74,4.4,4.4,0,0,1,2.316-.611,3.947,3.947,0,0,1,3.072,1.23,5,5,0,0,1,1.121,3.489v1.037H21.759a2.36,2.36,0,0,0,.743,1.494,2.245,2.245,0,0,0,1.569.563,2.742,2.742,0,0,0,2.294-1.063l1.248,1.4a3.813,3.813,0,0,1-1.547,1.261A5.075,5.075,0,0,1,23.9,41.176Zm-.29-7.813a1.587,1.587,0,0,0-1.226.512,2.651,2.651,0,0,0-.6,1.466h3.533v-.2a1.891,1.891,0,0,0-.457-1.311A1.638,1.638,0,0,0,23.613,33.362ZM36.076,31.49l.079,1.1a3.32,3.32,0,0,1,2.733-1.274,2.759,2.759,0,0,1,2.25.888,4.142,4.142,0,0,1,.756,2.654V41h-2.54V34.918A1.648,1.648,0,0,0,39,33.745a1.574,1.574,0,0,0-1.169-.365,1.747,1.747,0,0,0-1.608.914V41h-2.54V31.49Zm7.348,4.667a5.64,5.64,0,0,1,.545-2.522,3.989,3.989,0,0,1,1.569-1.714,4.577,4.577,0,0,1,2.377-.606,4.33,4.33,0,0,1,3.142,1.178,4.727,4.727,0,0,1,1.358,3.2l.018.65a4.97,4.97,0,0,1-1.222,3.511,4.735,4.735,0,0,1-6.561,0,5.058,5.058,0,0,1-1.226-3.586Zm2.54.18a3.555,3.555,0,0,0,.51,2.073,1.831,1.831,0,0,0,2.9.009,3.89,3.89,0,0,0,.519-2.267,3.519,3.519,0,0,0-.519-2.06,1.686,1.686,0,0,0-1.459-.731,1.658,1.658,0,0,0-1.441.726A3.955,3.955,0,0,0,45.964,36.338Zm11.074-7.185V31.49h1.626v1.863H57.038V38.1a1.133,1.133,0,0,0,.2.756,1.015,1.015,0,0,0,.773.229,4.051,4.051,0,0,0,.747-.062v1.925a5.229,5.229,0,0,1-1.538.229,2.425,2.425,0,0,1-2.725-2.7V33.354H53.109V31.49H54.5V29.152ZM65.59,41a2.821,2.821,0,0,1-.255-.853,3.073,3.073,0,0,1-2.4,1.028,3.376,3.376,0,0,1-2.316-.809,2.6,2.6,0,0,1-.918-2.039,2.687,2.687,0,0,1,1.121-2.32,5.529,5.529,0,0,1,3.239-.817h1.169v-.545a1.567,1.567,0,0,0-.338-1.055,1.331,1.331,0,0,0-1.068-.4,1.513,1.513,0,0,0-1.006.308,1.045,1.045,0,0,0-.365.844h-2.54a2.551,2.551,0,0,1,.51-1.529,3.37,3.37,0,0,1,1.441-1.1,5.253,5.253,0,0,1,2.092-.4,4.15,4.15,0,0,1,2.791.883,3.09,3.09,0,0,1,1.033,2.483V38.8a4.546,4.546,0,0,0,.378,2.048V41Zm-2.1-1.767a2.188,2.188,0,0,0,1.037-.25,1.645,1.645,0,0,0,.7-.672V36.676H64.28q-1.907,0-2.03,1.318l-.009.149a1.017,1.017,0,0,0,.334.782A1.3,1.3,0,0,0,63.489,39.233Zm11.391-.861a.818.818,0,0,0-.461-.734,5.241,5.241,0,0,0-1.481-.479q-3.393-.712-3.393-2.883a2.613,2.613,0,0,1,1.05-2.114,4.237,4.237,0,0,1,2.747-.848,4.56,4.56,0,0,1,2.9.853,2.687,2.687,0,0,1,1.085,2.215h-2.54a1.229,1.229,0,0,0-.352-.9,1.488,1.488,0,0,0-1.1-.356,1.52,1.52,0,0,0-.993.29.916.916,0,0,0-.352.738.783.783,0,0,0,.4.681,4.114,4.114,0,0,0,1.349.448,11.019,11.019,0,0,1,1.6.426,2.628,2.628,0,0,1,2.013,2.558,2.481,2.481,0,0,1-1.116,2.1,4.815,4.815,0,0,1-2.883.8,5.029,5.029,0,0,1-2.123-.426,3.561,3.561,0,0,1-1.455-1.169,2.716,2.716,0,0,1-.527-1.6h2.408a1.326,1.326,0,0,0,.5,1.037,1.987,1.987,0,0,0,1.248.36,1.839,1.839,0,0,0,1.1-.277A.861.861,0,0,0,74.88,38.372Z" transform="translate(975.884 4564.932)" fill="#12263f"/>
            <path id="Trazado_805025" data-name="Trazado 805025" d="M20.568,4.2l3.287,9.281L27.124,4.2h3.463V17H27.942V13.5l.264-6.038L24.751,17H22.941L19.5,7.473l.264,6.029V17H17.122V4.2ZM38.234,17a2.821,2.821,0,0,1-.255-.853,3.073,3.073,0,0,1-2.4,1.028,3.376,3.376,0,0,1-2.316-.809,2.6,2.6,0,0,1-.918-2.039,2.687,2.687,0,0,1,1.121-2.32A5.529,5.529,0,0,1,36.7,11.19h1.169v-.545a1.567,1.567,0,0,0-.338-1.055,1.331,1.331,0,0,0-1.068-.4,1.513,1.513,0,0,0-1.006.308,1.045,1.045,0,0,0-.365.844h-2.54a2.551,2.551,0,0,1,.51-1.529,3.37,3.37,0,0,1,1.441-1.1,5.253,5.253,0,0,1,2.092-.4,4.15,4.15,0,0,1,2.791.883,3.09,3.09,0,0,1,1.033,2.483V14.8a4.546,4.546,0,0,0,.378,2.048V17Zm-2.1-1.767a2.188,2.188,0,0,0,1.037-.25,1.645,1.645,0,0,0,.7-.672V12.676h-.949q-1.907,0-2.03,1.318l-.009.149a1.017,1.017,0,0,0,.334.782A1.3,1.3,0,0,0,36.133,15.233Zm14.8-2.9a5.7,5.7,0,0,1-1,3.52,3.2,3.2,0,0,1-2.694,1.323,2.963,2.963,0,0,1-2.329-1v4.482h-2.54V7.49h2.355l.088.932a2.985,2.985,0,0,1,2.408-1.107,3.22,3.22,0,0,1,2.733,1.3,5.858,5.858,0,0,1,.976,3.586Zm-2.54-.185a3.743,3.743,0,0,0-.47-2.048,1.532,1.532,0,0,0-1.367-.721,1.663,1.663,0,0,0-1.644.914v3.894a1.692,1.692,0,0,0,1.661.94Q48.394,15.128,48.394,12.148ZM58.018,17a2.821,2.821,0,0,1-.255-.853,3.073,3.073,0,0,1-2.4,1.028,3.376,3.376,0,0,1-2.316-.809,2.6,2.6,0,0,1-.918-2.039,2.687,2.687,0,0,1,1.121-2.32,5.529,5.529,0,0,1,3.239-.817h1.169v-.545a1.567,1.567,0,0,0-.338-1.055,1.331,1.331,0,0,0-1.068-.4,1.513,1.513,0,0,0-1.006.308,1.045,1.045,0,0,0-.365.844H52.34a2.551,2.551,0,0,1,.51-1.529,3.37,3.37,0,0,1,1.441-1.1,5.253,5.253,0,0,1,2.092-.4,4.15,4.15,0,0,1,2.791.883,3.09,3.09,0,0,1,1.033,2.483V14.8a4.546,4.546,0,0,0,.378,2.048V17Zm-2.1-1.767a2.188,2.188,0,0,0,1.037-.25,1.645,1.645,0,0,0,.7-.672V12.676h-.949q-1.907,0-2.03,1.318l-.009.149a1.017,1.017,0,0,0,.334.782A1.3,1.3,0,0,0,55.917,15.233Zm11.391-.861a.818.818,0,0,0-.461-.734,5.241,5.241,0,0,0-1.481-.479q-3.393-.712-3.393-2.883a2.613,2.613,0,0,1,1.05-2.114,4.237,4.237,0,0,1,2.747-.848,4.56,4.56,0,0,1,2.9.853,2.687,2.687,0,0,1,1.085,2.215h-2.54a1.229,1.229,0,0,0-.352-.9,1.488,1.488,0,0,0-1.1-.356,1.52,1.52,0,0,0-.993.29.916.916,0,0,0-.352.738.783.783,0,0,0,.4.681,4.114,4.114,0,0,0,1.349.448,11.019,11.019,0,0,1,1.6.426,2.628,2.628,0,0,1,2.013,2.558,2.481,2.481,0,0,1-1.116,2.1,4.815,4.815,0,0,1-2.883.8,5.029,5.029,0,0,1-2.123-.426A3.561,3.561,0,0,1,62.2,15.581a2.716,2.716,0,0,1-.527-1.6h2.408a1.326,1.326,0,0,0,.5,1.037,1.987,1.987,0,0,0,1.248.36,1.839,1.839,0,0,0,1.1-.277A.861.861,0,0,0,67.308,14.372Z" transform="translate(879.3 4833.333)" fill="#12263f"/>
            <path id="Trazado_805026" data-name="Trazado 805026" d="M5.368,17V4.2H9.305a5.98,5.98,0,0,1,3.019.76A5.3,5.3,0,0,1,14.4,7.125a6.669,6.669,0,0,1,.747,3.186V10.9a6.688,6.688,0,0,1-.734,3.173,5.256,5.256,0,0,1-2.07,2.153A6.025,6.025,0,0,1,9.332,17ZM8,6.339v8.543H9.279a2.863,2.863,0,0,0,2.364-1.011,4.567,4.567,0,0,0,.835-2.892V10.3a4.64,4.64,0,0,0-.809-2.958A2.854,2.854,0,0,0,9.305,6.339ZM19.58,17H17.031V7.49H19.58Zm-2.7-11.971a1.251,1.251,0,0,1,.382-.94,1.648,1.648,0,0,1,2.079,0,1.244,1.244,0,0,1,.387.94,1.247,1.247,0,0,1-.391.949,1.629,1.629,0,0,1-2.065,0A1.247,1.247,0,0,1,16.881,5.029Zm9.94,9.343a.818.818,0,0,0-.461-.734,5.241,5.241,0,0,0-1.481-.479q-3.393-.712-3.393-2.883a2.613,2.613,0,0,1,1.05-2.114,4.237,4.237,0,0,1,2.747-.848,4.56,4.56,0,0,1,2.9.853,2.687,2.687,0,0,1,1.085,2.215h-2.54a1.229,1.229,0,0,0-.352-.9,1.488,1.488,0,0,0-1.1-.356,1.52,1.52,0,0,0-.993.29.916.916,0,0,0-.352.738.783.783,0,0,0,.4.681,4.114,4.114,0,0,0,1.349.448,11.019,11.019,0,0,1,1.6.426,2.628,2.628,0,0,1,2.013,2.558,2.481,2.481,0,0,1-1.116,2.1,4.815,4.815,0,0,1-2.883.8,5.029,5.029,0,0,1-2.123-.426,3.561,3.561,0,0,1-1.455-1.169,2.716,2.716,0,0,1-.527-1.6H23.6a1.326,1.326,0,0,0,.5,1.037,1.987,1.987,0,0,0,1.248.36,1.839,1.839,0,0,0,1.1-.277A.861.861,0,0,0,26.822,14.372Zm12.665-2.039a5.7,5.7,0,0,1-1,3.52A3.2,3.2,0,0,1,35.8,17.176a2.963,2.963,0,0,1-2.329-1v4.482h-2.54V7.49h2.355l.088.932a2.985,2.985,0,0,1,2.408-1.107,3.22,3.22,0,0,1,2.733,1.3,5.858,5.858,0,0,1,.976,3.586Zm-2.54-.185a3.743,3.743,0,0,0-.47-2.048A1.532,1.532,0,0,0,35.11,9.38a1.663,1.663,0,0,0-1.644.914v3.894a1.692,1.692,0,0,0,1.661.94Q36.947,15.128,36.947,12.148Zm3.718.009a5.64,5.64,0,0,1,.545-2.522,3.989,3.989,0,0,1,1.569-1.714,4.577,4.577,0,0,1,2.377-.606A4.33,4.33,0,0,1,48.3,8.492a4.727,4.727,0,0,1,1.358,3.2l.018.65a4.97,4.97,0,0,1-1.222,3.511,4.735,4.735,0,0,1-6.561,0,5.058,5.058,0,0,1-1.226-3.586Zm2.54.18a3.555,3.555,0,0,0,.51,2.073,1.831,1.831,0,0,0,2.9.009,3.89,3.89,0,0,0,.519-2.267,3.519,3.519,0,0,0-.519-2.06,1.686,1.686,0,0,0-1.459-.731,1.658,1.658,0,0,0-1.441.726A3.955,3.955,0,0,0,43.2,12.338Zm13.184,2.035a.818.818,0,0,0-.461-.734,5.241,5.241,0,0,0-1.481-.479q-3.393-.712-3.393-2.883A2.613,2.613,0,0,1,52.1,8.163a4.237,4.237,0,0,1,2.747-.848,4.56,4.56,0,0,1,2.9.853,2.687,2.687,0,0,1,1.085,2.215h-2.54a1.229,1.229,0,0,0-.352-.9,1.488,1.488,0,0,0-1.1-.356,1.52,1.52,0,0,0-.993.29.916.916,0,0,0-.352.738.783.783,0,0,0,.4.681,4.114,4.114,0,0,0,1.349.448,11.019,11.019,0,0,1,1.6.426,2.628,2.628,0,0,1,2.013,2.558,2.481,2.481,0,0,1-1.116,2.1,4.815,4.815,0,0,1-2.883.8,5.029,5.029,0,0,1-2.123-.426,3.561,3.561,0,0,1-1.455-1.169,2.716,2.716,0,0,1-.527-1.6h2.408a1.326,1.326,0,0,0,.5,1.037,1.987,1.987,0,0,0,1.248.36,1.839,1.839,0,0,0,1.1-.277A.861.861,0,0,0,56.388,14.372ZM63.173,17H60.625V7.49h2.549Zm-2.7-11.971a1.251,1.251,0,0,1,.382-.94,1.648,1.648,0,0,1,2.079,0,1.244,1.244,0,0,1,.387.94,1.247,1.247,0,0,1-.391.949,1.629,1.629,0,0,1-2.065,0A1.247,1.247,0,0,1,60.475,5.029Zm7.831.123V7.49h1.626V9.354H68.306V14.1a1.133,1.133,0,0,0,.2.756,1.015,1.015,0,0,0,.773.229,4.051,4.051,0,0,0,.747-.062v1.925a5.229,5.229,0,0,1-1.538.229,2.425,2.425,0,0,1-2.725-2.7V9.354H64.377V7.49h1.389V5.152ZM74.028,17H71.479V7.49h2.549ZM71.33,5.029a1.251,1.251,0,0,1,.382-.94,1.648,1.648,0,0,1,2.079,0,1.244,1.244,0,0,1,.387.94,1.247,1.247,0,0,1-.391.949,1.629,1.629,0,0,1-2.065,0A1.247,1.247,0,0,1,71.33,5.029Zm8.35,8.868L81.446,7.49H84.1L80.892,17H78.466L75.258,7.49h2.654Zm5.01-1.74a5.64,5.64,0,0,1,.545-2.522A3.989,3.989,0,0,1,86.8,7.921a4.577,4.577,0,0,1,2.377-.606,4.33,4.33,0,0,1,3.142,1.178,4.727,4.727,0,0,1,1.358,3.2l.018.65a4.97,4.97,0,0,1-1.222,3.511,4.735,4.735,0,0,1-6.561,0,5.058,5.058,0,0,1-1.226-3.586Zm2.54.18a3.555,3.555,0,0,0,.51,2.073,1.831,1.831,0,0,0,2.9.009,3.89,3.89,0,0,0,.519-2.267,3.519,3.519,0,0,0-.519-2.06,1.686,1.686,0,0,0-1.459-.731,1.658,1.658,0,0,0-1.441.726A3.955,3.955,0,0,0,87.229,12.338Zm13.184,2.035a.818.818,0,0,0-.461-.734,5.241,5.241,0,0,0-1.481-.479q-3.393-.712-3.393-2.883a2.613,2.613,0,0,1,1.05-2.114,4.237,4.237,0,0,1,2.747-.848,4.56,4.56,0,0,1,2.9.853,2.687,2.687,0,0,1,1.085,2.215h-2.54a1.229,1.229,0,0,0-.352-.9,1.488,1.488,0,0,0-1.1-.356,1.52,1.52,0,0,0-.993.29.916.916,0,0,0-.352.738.783.783,0,0,0,.4.681,4.114,4.114,0,0,0,1.349.448,11.019,11.019,0,0,1,1.6.426,2.628,2.628,0,0,1,2.013,2.558,2.481,2.481,0,0,1-1.116,2.1,4.815,4.815,0,0,1-2.883.8,5.029,5.029,0,0,1-2.123-.426,3.561,3.561,0,0,1-1.455-1.169,2.716,2.716,0,0,1-.527-1.6h2.408a1.326,1.326,0,0,0,.5,1.037,1.987,1.987,0,0,0,1.248.36,1.839,1.839,0,0,0,1.1-.277A.861.861,0,0,0,100.413,14.372ZM13.23,31.49l.079,1.063a3.342,3.342,0,0,1,2.733-1.239,2.536,2.536,0,0,1,2.522,1.45,3.265,3.265,0,0,1,2.856-1.45,2.836,2.836,0,0,1,2.3.9,4.141,4.141,0,0,1,.756,2.711V41H21.931V34.936a1.811,1.811,0,0,0-.316-1.182A1.4,1.4,0,0,0,20.5,33.38a1.585,1.585,0,0,0-1.582,1.09L18.925,41h-2.54V34.944a1.789,1.789,0,0,0-.325-1.2,1.416,1.416,0,0,0-1.107-.369,1.646,1.646,0,0,0-1.564.9V41h-2.54V31.49Zm17.578,9.686A4.668,4.668,0,0,1,27.4,39.893a4.561,4.561,0,0,1-1.314-3.419v-.246a5.745,5.745,0,0,1,.554-2.562,4.064,4.064,0,0,1,1.569-1.74,4.4,4.4,0,0,1,2.316-.611,3.947,3.947,0,0,1,3.072,1.23,5,5,0,0,1,1.121,3.489v1.037H28.663a2.36,2.36,0,0,0,.743,1.494,2.245,2.245,0,0,0,1.569.563,2.742,2.742,0,0,0,2.294-1.063l1.248,1.4a3.813,3.813,0,0,1-1.547,1.261A5.075,5.075,0,0,1,30.808,41.176Zm-.29-7.813a1.587,1.587,0,0,0-1.226.512,2.651,2.651,0,0,0-.6,1.466h3.533v-.2a1.891,1.891,0,0,0-.457-1.311A1.638,1.638,0,0,0,30.518,33.362Zm9.6,5.766a1.666,1.666,0,0,0,1.143-.387,1.355,1.355,0,0,0,.457-1.028H44.1a3.258,3.258,0,0,1-.527,1.771,3.48,3.48,0,0,1-1.419,1.248,4.442,4.442,0,0,1-1.991.444,4.129,4.129,0,0,1-3.217-1.3A5.13,5.13,0,0,1,35.765,36.3v-.167a5.071,5.071,0,0,1,1.169-3.507,4.08,4.08,0,0,1,3.208-1.31A4,4,0,0,1,43,32.33a3.594,3.594,0,0,1,1.094,2.7H41.715a1.745,1.745,0,0,0-.457-1.206,1.7,1.7,0,0,0-2.5.183,3.749,3.749,0,0,0-.453,2.1v.264a3.8,3.8,0,0,0,.448,2.113A1.549,1.549,0,0,0,40.115,39.128ZM51.058,41a2.821,2.821,0,0,1-.255-.853,3.073,3.073,0,0,1-2.4,1.028,3.376,3.376,0,0,1-2.316-.809,2.6,2.6,0,0,1-.918-2.039,2.687,2.687,0,0,1,1.121-2.32,5.529,5.529,0,0,1,3.239-.817H50.7v-.545a1.567,1.567,0,0,0-.338-1.055,1.331,1.331,0,0,0-1.068-.4,1.513,1.513,0,0,0-1.006.308,1.045,1.045,0,0,0-.365.844H45.38a2.551,2.551,0,0,1,.51-1.529,3.37,3.37,0,0,1,1.441-1.1,5.253,5.253,0,0,1,2.092-.4,4.15,4.15,0,0,1,2.791.883,3.09,3.09,0,0,1,1.033,2.483V38.8a4.546,4.546,0,0,0,.378,2.048V41Zm-2.1-1.767a2.188,2.188,0,0,0,1.037-.25,1.645,1.645,0,0,0,.7-.672V36.676h-.949q-1.907,0-2.03,1.318l-.009.149a1.017,1.017,0,0,0,.334.782A1.3,1.3,0,0,0,48.957,39.233ZM49.924,27.5h2.769l-2.435,2.725H48.192Zm7.611,3.99.079,1.1a3.32,3.32,0,0,1,2.733-1.274,2.759,2.759,0,0,1,2.25.888,4.142,4.142,0,0,1,.756,2.654V41h-2.54V34.918a1.648,1.648,0,0,0-.352-1.173,1.574,1.574,0,0,0-1.169-.365,1.747,1.747,0,0,0-1.608.914V41h-2.54V31.49ZM67.959,41H65.41V31.49h2.549Zm-2.7-11.971a1.251,1.251,0,0,1,.382-.94,1.648,1.648,0,0,1,2.079,0,1.342,1.342,0,0,1,0,1.89,1.629,1.629,0,0,1-2.065,0A1.247,1.247,0,0,1,65.261,29.029Zm8.745,10.1a1.666,1.666,0,0,0,1.143-.387,1.355,1.355,0,0,0,.457-1.028h2.382a3.258,3.258,0,0,1-.527,1.771,3.48,3.48,0,0,1-1.419,1.248,4.442,4.442,0,0,1-1.991.444,4.129,4.129,0,0,1-3.217-1.3A5.13,5.13,0,0,1,69.655,36.3v-.167a5.071,5.071,0,0,1,1.169-3.507,4.08,4.08,0,0,1,3.208-1.31,4,4,0,0,1,2.861,1.015,3.594,3.594,0,0,1,1.094,2.7H75.605a1.745,1.745,0,0,0-.457-1.206,1.7,1.7,0,0,0-2.5.183,3.749,3.749,0,0,0-.453,2.1v.264a3.8,3.8,0,0,0,.448,2.113A1.549,1.549,0,0,0,74.006,39.128Zm5.036-2.971a5.64,5.64,0,0,1,.545-2.522,3.989,3.989,0,0,1,1.569-1.714,4.577,4.577,0,0,1,2.377-.606,4.33,4.33,0,0,1,3.142,1.178,4.727,4.727,0,0,1,1.358,3.2l.018.65a4.97,4.97,0,0,1-1.222,3.511,4.735,4.735,0,0,1-6.561,0,5.058,5.058,0,0,1-1.226-3.586Zm2.54.18a3.555,3.555,0,0,0,.51,2.073,1.831,1.831,0,0,0,2.9.009,3.89,3.89,0,0,0,.519-2.267,3.519,3.519,0,0,0-.519-2.06,1.686,1.686,0,0,0-1.459-.731,1.658,1.658,0,0,0-1.441.726A3.955,3.955,0,0,0,81.582,36.338Zm13.184,2.035a.818.818,0,0,0-.461-.734,5.241,5.241,0,0,0-1.481-.479q-3.393-.712-3.393-2.883a2.613,2.613,0,0,1,1.05-2.114,4.237,4.237,0,0,1,2.747-.848,4.56,4.56,0,0,1,2.9.853,2.687,2.687,0,0,1,1.085,2.215h-2.54a1.229,1.229,0,0,0-.352-.9,1.488,1.488,0,0,0-1.1-.356,1.52,1.52,0,0,0-.993.29.916.916,0,0,0-.352.738.783.783,0,0,0,.4.681,4.114,4.114,0,0,0,1.349.448,11.019,11.019,0,0,1,1.6.426,2.628,2.628,0,0,1,2.013,2.558,2.481,2.481,0,0,1-1.116,2.1,4.815,4.815,0,0,1-2.883.8,5.029,5.029,0,0,1-2.123-.426,3.561,3.561,0,0,1-1.455-1.169,2.716,2.716,0,0,1-.527-1.6H91.54a1.326,1.326,0,0,0,.5,1.037,1.987,1.987,0,0,0,1.248.36,1.839,1.839,0,0,0,1.1-.277A.861.861,0,0,0,94.766,38.372Z" transform="translate(617 4824.182)" fill="#12263f"/>
            <path id="Trazado_805023" data-name="Trazado 805023" d="M21.751,12.737a4.528,4.528,0,0,1-1.525,3.252A5.355,5.355,0,0,1,16.6,17.176a4.816,4.816,0,0,1-3.872-1.657,6.793,6.793,0,0,1-1.411-4.548v-.782a7.671,7.671,0,0,1,.65-3.252,4.874,4.874,0,0,1,1.859-2.158,5.207,5.207,0,0,1,2.808-.751A5.217,5.217,0,0,1,20.2,5.214a4.866,4.866,0,0,1,1.564,3.331H19.132a2.673,2.673,0,0,0-.69-1.8,2.555,2.555,0,0,0-1.806-.558,2.24,2.24,0,0,0-1.973.945,5.3,5.3,0,0,0-.672,2.931v.967a5.667,5.667,0,0,0,.628,3.032,2.2,2.2,0,0,0,1.982.958,2.6,2.6,0,0,0,1.824-.558,2.521,2.521,0,0,0,.69-1.727Zm7.26,3.3a3.185,3.185,0,0,1-2.6,1.143,3,3,0,0,1-2.333-.879,3.752,3.752,0,0,1-.822-2.575V7.49h2.54v6.151q0,1.487,1.354,1.487a1.834,1.834,0,0,0,1.775-.9V7.49h2.549V17H29.081ZM38.9,17a2.821,2.821,0,0,1-.255-.853,3.073,3.073,0,0,1-2.4,1.028,3.376,3.376,0,0,1-2.316-.809,2.6,2.6,0,0,1-.918-2.039,2.687,2.687,0,0,1,1.121-2.32,5.529,5.529,0,0,1,3.239-.817h1.169v-.545A1.567,1.567,0,0,0,38.2,9.591a1.331,1.331,0,0,0-1.068-.4,1.513,1.513,0,0,0-1.006.308,1.045,1.045,0,0,0-.365.844h-2.54a2.551,2.551,0,0,1,.51-1.529,3.37,3.37,0,0,1,1.441-1.1,5.253,5.253,0,0,1,2.092-.4,4.15,4.15,0,0,1,2.791.883,3.09,3.09,0,0,1,1.033,2.483V14.8a4.546,4.546,0,0,0,.378,2.048V17Zm-2.1-1.767a2.188,2.188,0,0,0,1.037-.25,1.645,1.645,0,0,0,.7-.672V12.676h-.949q-1.907,0-2.03,1.318l-.009.149a1.017,1.017,0,0,0,.334.782A1.3,1.3,0,0,0,36.8,15.233Zm5.845-3.059a5.731,5.731,0,0,1,1-3.542A3.237,3.237,0,0,1,46.37,7.314a2.913,2.913,0,0,1,2.294,1.037V3.5h2.549V17H48.918L48.8,15.989a2.989,2.989,0,0,1-2.443,1.187,3.228,3.228,0,0,1-2.694-1.323A5.916,5.916,0,0,1,42.643,12.175Zm2.54.189a3.754,3.754,0,0,0,.466,2.051A1.517,1.517,0,0,0,47,15.128a1.7,1.7,0,0,0,1.661-.995V10.375A1.675,1.675,0,0,0,47.02,9.38Q45.183,9.38,45.183,12.364ZM58.525,9.872a6.9,6.9,0,0,0-.914-.07,1.86,1.86,0,0,0-1.89.976V17h-2.54V7.49h2.4l.07,1.134a2.354,2.354,0,0,1,2.118-1.31,2.662,2.662,0,0,1,.791.114Zm.51,2.285a5.64,5.64,0,0,1,.545-2.522,3.989,3.989,0,0,1,1.569-1.714,4.577,4.577,0,0,1,2.377-.606,4.33,4.33,0,0,1,3.142,1.178,4.727,4.727,0,0,1,1.358,3.2l.018.65a4.97,4.97,0,0,1-1.222,3.511,4.735,4.735,0,0,1-6.561,0,5.058,5.058,0,0,1-1.226-3.586Zm2.54.18a3.555,3.555,0,0,0,.51,2.073,1.831,1.831,0,0,0,2.9.009,3.89,3.89,0,0,0,.519-2.267,3.519,3.519,0,0,0-.519-2.06,1.686,1.686,0,0,0-1.459-.731,1.658,1.658,0,0,0-1.441.726A3.955,3.955,0,0,0,61.575,12.338Zm13.184,2.035a.818.818,0,0,0-.461-.734,5.241,5.241,0,0,0-1.481-.479q-3.393-.712-3.393-2.883a2.613,2.613,0,0,1,1.05-2.114,4.237,4.237,0,0,1,2.747-.848,4.56,4.56,0,0,1,2.9.853A2.687,2.687,0,0,1,77.2,10.382h-2.54a1.229,1.229,0,0,0-.352-.9,1.488,1.488,0,0,0-1.1-.356,1.52,1.52,0,0,0-.993.29.916.916,0,0,0-.352.738.783.783,0,0,0,.4.681,4.114,4.114,0,0,0,1.349.448,11.019,11.019,0,0,1,1.6.426,2.628,2.628,0,0,1,2.013,2.558,2.481,2.481,0,0,1-1.116,2.1,4.815,4.815,0,0,1-2.883.8,5.029,5.029,0,0,1-2.123-.426,3.561,3.561,0,0,1-1.455-1.169,2.716,2.716,0,0,1-.527-1.6h2.408a1.326,1.326,0,0,0,.5,1.037,1.987,1.987,0,0,0,1.248.36,1.839,1.839,0,0,0,1.1-.277A.861.861,0,0,0,74.758,14.372ZM4.292,36.175a5.731,5.731,0,0,1,1-3.542,3.237,3.237,0,0,1,2.729-1.318,2.913,2.913,0,0,1,2.294,1.037V27.5h2.549V41H10.567l-.123-1.011A2.989,2.989,0,0,1,8,41.176a3.228,3.228,0,0,1-2.694-1.323A5.916,5.916,0,0,1,4.292,36.175Zm2.54.189A3.754,3.754,0,0,0,7.3,38.415a1.517,1.517,0,0,0,1.354.713,1.7,1.7,0,0,0,1.661-.995V34.375a1.675,1.675,0,0,0-1.644-.995Q6.832,33.38,6.832,36.364Zm12.375,4.812A4.668,4.668,0,0,1,15.8,39.893a4.561,4.561,0,0,1-1.314-3.419v-.246a5.745,5.745,0,0,1,.554-2.562,4.064,4.064,0,0,1,1.569-1.74,4.4,4.4,0,0,1,2.316-.611A3.947,3.947,0,0,1,22,32.545a5,5,0,0,1,1.121,3.489v1.037H17.062a2.36,2.36,0,0,0,.743,1.494,2.245,2.245,0,0,0,1.569.563,2.742,2.742,0,0,0,2.294-1.063l1.248,1.4a3.813,3.813,0,0,1-1.547,1.261A5.075,5.075,0,0,1,19.207,41.176Zm-.29-7.813a1.587,1.587,0,0,0-1.226.512,2.651,2.651,0,0,0-.6,1.466h3.533v-.2a1.891,1.891,0,0,0-.457-1.311A1.638,1.638,0,0,0,18.917,33.362Zm13.166-4.21V31.49h1.626v1.863H32.083V38.1a1.133,1.133,0,0,0,.2.756,1.015,1.015,0,0,0,.773.229,4.051,4.051,0,0,0,.747-.062v1.925a5.229,5.229,0,0,1-1.538.229,2.425,2.425,0,0,1-2.725-2.7V33.354H28.154V31.49h1.389V29.152Zm8.385,4.72a6.9,6.9,0,0,0-.914-.07,1.86,1.86,0,0,0-1.89.976V41h-2.54V31.49h2.4l.07,1.134a2.354,2.354,0,0,1,2.118-1.31,2.662,2.662,0,0,1,.791.114ZM46.936,41a2.821,2.821,0,0,1-.255-.853,3.073,3.073,0,0,1-2.4,1.028,3.376,3.376,0,0,1-2.316-.809,2.6,2.6,0,0,1-.918-2.039,2.687,2.687,0,0,1,1.121-2.32,5.529,5.529,0,0,1,3.239-.817h1.169v-.545a1.567,1.567,0,0,0-.338-1.055,1.331,1.331,0,0,0-1.068-.4,1.513,1.513,0,0,0-1.006.308,1.045,1.045,0,0,0-.365.844h-2.54a2.551,2.551,0,0,1,.51-1.529,3.37,3.37,0,0,1,1.441-1.1,5.253,5.253,0,0,1,2.092-.4,4.15,4.15,0,0,1,2.791.883,3.09,3.09,0,0,1,1.033,2.483V38.8a4.546,4.546,0,0,0,.378,2.048V41Zm-2.1-1.767a2.188,2.188,0,0,0,1.037-.25,1.645,1.645,0,0,0,.7-.672V36.676h-.949q-1.907,0-2.03,1.318l-.009.149a1.017,1.017,0,0,0,.334.782A1.3,1.3,0,0,0,44.836,39.233Zm14.81-2.9A5.758,5.758,0,0,1,58.67,39.9a3.231,3.231,0,0,1-2.725,1.279,2.969,2.969,0,0,1-2.47-1.187L53.361,41H51.076V27.5h2.54v4.843a2.893,2.893,0,0,1,2.312-1.028,3.258,3.258,0,0,1,2.729,1.279,5.767,5.767,0,0,1,.989,3.6Zm-2.54-.185a3.783,3.783,0,0,0-.457-2.1,1.545,1.545,0,0,0-1.362-.664,1.676,1.676,0,0,0-1.67.993v3.753a1.7,1.7,0,0,0,1.688,1,1.568,1.568,0,0,0,1.617-1.213A6.257,6.257,0,0,0,57.105,36.148ZM66.721,41a2.821,2.821,0,0,1-.255-.853,3.073,3.073,0,0,1-2.4,1.028,3.376,3.376,0,0,1-2.316-.809,2.6,2.6,0,0,1-.918-2.039,2.687,2.687,0,0,1,1.121-2.32,5.529,5.529,0,0,1,3.239-.817H66.36v-.545a1.567,1.567,0,0,0-.338-1.055,1.331,1.331,0,0,0-1.068-.4,1.513,1.513,0,0,0-1.006.308,1.045,1.045,0,0,0-.365.844h-2.54a2.551,2.551,0,0,1,.51-1.529,3.37,3.37,0,0,1,1.441-1.1,5.253,5.253,0,0,1,2.092-.4,4.15,4.15,0,0,1,2.791.883,3.09,3.09,0,0,1,1.033,2.483V38.8a4.546,4.546,0,0,0,.378,2.048V41Zm-2.1-1.767a2.188,2.188,0,0,0,1.037-.25,1.645,1.645,0,0,0,.7-.672V36.676h-.949q-1.907,0-2.03,1.318l-.009.149a1.017,1.017,0,0,0,.334.782A1.3,1.3,0,0,0,64.62,39.233Zm8.93-7.743V41.519a3.4,3.4,0,0,1-.835,2.448,3.174,3.174,0,0,1-2.408.875,5.165,5.165,0,0,1-1.257-.149V42.679a4.768,4.768,0,0,0,.8.079Q71,42.758,71,41.536V31.49ZM70.8,29.029a1.251,1.251,0,0,1,.382-.94,1.654,1.654,0,0,1,2.083,0,1.348,1.348,0,0,1-.009,1.89,1.629,1.629,0,0,1-2.065,0A1.247,1.247,0,0,1,70.8,29.029Zm4.342,7.128a5.64,5.64,0,0,1,.545-2.522,3.989,3.989,0,0,1,1.569-1.714,4.577,4.577,0,0,1,2.377-.606,4.33,4.33,0,0,1,3.142,1.178,4.727,4.727,0,0,1,1.358,3.2l.018.65a4.97,4.97,0,0,1-1.222,3.511,4.735,4.735,0,0,1-6.561,0,5.058,5.058,0,0,1-1.226-3.586Zm2.54.18a3.555,3.555,0,0,0,.51,2.073,1.831,1.831,0,0,0,2.9.009,3.89,3.89,0,0,0,.519-2.267,3.519,3.519,0,0,0-.519-2.06,1.686,1.686,0,0,0-1.459-.731,1.658,1.658,0,0,0-1.441.726A3.955,3.955,0,0,0,77.681,36.338Z" transform="translate(536.684 4553.749)" fill="#12263f"/>
            <g id="observacion_1_" data-name="observacion (1)" transform="translate(769.5 4672.699)">
              <path id="Trazado_611458" data-name="Trazado 611458" d="M2,18H63V58.667H2Z" transform="translate(-2 -1.733)" fill="#dbf9bd"/>
              <path id="Trazado_611459" data-name="Trazado 611459" d="M24.976,16H6V50.567H22.615a13.885,13.885,0,0,1,9.818,4.066v-17.8A19.347,19.347,0,0,1,24.976,16Z" transform="translate(-1.933 -1.767)" fill="#fff"/>
              <path id="Trazado_611460" data-name="Trazado 611460" d="M32.4,54.067H8V50H22.582A13.885,13.885,0,0,1,32.4,54.066Z" transform="translate(-1.9 -1.2)" fill="#ccc"/>
              <path id="Trazado_611461" data-name="Trazado 611461" d="M26.233,29.619v2.548H12V22H24.226a19.2,19.2,0,0,0,2.007,7.619Z" transform="translate(-1.833 -1.667)" fill="#5e87ca"/>
              <g id="Grupo_1015665" data-name="Grupo 1015665" transform="translate(9.15 33.55)">
                <path id="Trazado_611462" data-name="Trazado 611462" d="M11,35H26.248v2.033H11Z" transform="translate(-11 -35)" fill="#d8d8d8"/>
                <path id="Trazado_611463" data-name="Trazado 611463" d="M11,39h9.148v2.033H11Z" transform="translate(-11 -34.933)" fill="#d8d8d8"/>
                <path id="Trazado_611464" data-name="Trazado 611464" d="M11,43h5.081v2.033H11Z" transform="translate(-11 -34.867)" fill="#d8d8d8"/>
              </g>
              <path id="Trazado_611465" data-name="Trazado 611465" d="M33.183,35.065l-7.117,7.117L22,38.115l7.036-7.036Z" transform="translate(-1.667 -1.515)" fill="#9da1bf"/>
              <path id="Trazado_611466" data-name="Trazado 611466" d="M21.317,37l6.1,6.1L9.364,61.153a4.313,4.313,0,1,1-6.1-6.1Z" transform="translate(-2 -1.417)" fill="#858bb5"/>
              <path id="Trazado_611467" data-name="Trazado 611467" d="M6.525,59.05A1.525,1.525,0,1,1,8.05,57.525,1.525,1.525,0,0,1,6.525,59.05Z" transform="translate(-1.95 -1.1)" fill="#4c506e"/>
              <path id="Trazado_611468" data-name="Trazado 611468" d="M32,54.067H56.4V50H41.818A13.885,13.885,0,0,0,32,54.066Z" transform="translate(-1.5 -1.2)" fill="#b5b5b5"/>
              <path id="Trazado_611469" data-name="Trazado 611469" d="M52.1,50V62.2l-3.05-3.05L46,62.2V50" transform="translate(-1.267 -1.2)" fill="#559b2d"/>
              <path id="Trazado_611470" data-name="Trazado 611470" d="M46,50V62.2l3.05-3.05V50Z" transform="translate(-1.267 -1.2)" fill="#6bc13b"/>
              <circle id="Elipse_5643" data-name="Elipse 5643" cx="19.317" cy="19.317" r="19.317" transform="translate(22.367 0)" fill="#858bb5"/>
              <path id="Trazado_611471" data-name="Trazado 611471" d="M57.621,16.167H38.156a6.1,6.1,0,0,0-6.1,6.1,6.1,6.1,0,0,0-3.4-5.474,15.255,15.255,0,0,1,28.969-.626Z" transform="translate(-1.556 -1.933)" fill="#a3bafe"/>
              <path id="Trazado_611472" data-name="Trazado 611472" d="M32,54.356a13.886,13.886,0,0,1,9.818-4.067H58.433V32.659A19.322,19.322,0,0,1,32,36.556Z" transform="translate(-1.5 -1.489)" fill="#fff"/>
              <path id="Trazado_611473" data-name="Trazado 611473" d="M32.067,31.443a15.274,15.274,0,0,1-3.4-14.825,6.1,6.1,0,0,1,3.4,5.472Z" transform="translate(-1.567 -1.756)" fill="#f2f2f2"/>
              <path id="Trazado_611474" data-name="Trazado 611474" d="M32,31.453V22.1A6.1,6.1,0,0,1,38.1,16H57.565A15.25,15.25,0,0,1,32,31.453Z" transform="translate(-1.5 -1.767)" fill="#fff"/>
              <path id="Trazado_611475" data-name="Trazado 611475" d="M37,43H53.266v2.033H37Z" transform="translate(-1.417 -1.317)" fill="#939393"/>
              <path id="Trazado_611476" data-name="Trazado 611476" d="M38,23H52.233v9.15H38Z" transform="translate(-1.4 -1.65)" fill="#5e87ca"/>
              <path id="Trazado_611477" data-name="Trazado 611477" d="M38,23v9.15h6.662A14.531,14.531,0,0,0,51.4,23Z" transform="translate(-1.4 -1.65)" fill="#78a0d4"/>
              <path id="Trazado_611478" data-name="Trazado 611478" d="M23,22H12V32.167h4.01A17.291,17.291,0,0,0,23,22Z" transform="translate(-1.833 -1.667)" fill="#78a0d4"/>
            </g>
            <g id="flat" transform="translate(769.5 4437.849)">
              <g id="booknote" transform="translate(0 0)">
                <rect id="Rectángulo_347799" data-name="Rectángulo 347799" width="42.7" height="58.967" rx="2" transform="translate(12.2)" fill="#3b5620"/>
                <path id="Trazado_611479" data-name="Trazado 611479" d="M55.667,3h-6.1V17.233A34.567,34.567,0,0,1,15,51.8v8.133a2.033,2.033,0,0,0,2.033,2.033H55.667A2.033,2.033,0,0,0,57.7,59.933V5.033A2.033,2.033,0,0,0,55.667,3Z" transform="translate(-2.8 -3)" opacity="0.1"/>
                <g id="Grupo_1015666" data-name="Grupo 1015666" transform="translate(11.183 3.05)">
                  <path id="Trazado_611480" data-name="Trazado 611480" d="M19.083,11H15.017a1.017,1.017,0,0,0,0,2.033h4.067a1.017,1.017,0,0,0,0-2.033Z" transform="translate(-14 -5.917)" fill="#44546c"/>
                  <path id="Trazado_611481" data-name="Trazado 611481" d="M15.017,8.033h4.067a1.017,1.017,0,1,0,0-2.033H15.017a1.017,1.017,0,1,0,0,2.033Z" transform="translate(-14 -6)" fill="#44546c"/>
                  <path id="Trazado_611482" data-name="Trazado 611482" d="M19.083,16H15.017a1.017,1.017,0,1,0,0,2.033h4.067a1.017,1.017,0,0,0,0-2.033Z" transform="translate(-14 -5.833)" fill="#44546c"/>
                  <path id="Trazado_611483" data-name="Trazado 611483" d="M19.083,21H15.017a1.017,1.017,0,1,0,0,2.033h4.067a1.017,1.017,0,0,0,0-2.033Z" transform="translate(-14 -5.75)" fill="#44546c"/>
                  <path id="Trazado_611484" data-name="Trazado 611484" d="M19.083,26H15.017a1.017,1.017,0,0,0,0,2.033h4.067a1.017,1.017,0,0,0,0-2.033Z" transform="translate(-14 -5.667)" fill="#44546c"/>
                  <path id="Trazado_611485" data-name="Trazado 611485" d="M19.083,31H15.017a1.017,1.017,0,0,0,0,2.033h4.067a1.017,1.017,0,0,0,0-2.033Z" transform="translate(-14 -5.583)" fill="#44546c"/>
                  <path id="Trazado_611486" data-name="Trazado 611486" d="M19.083,36H15.017a1.017,1.017,0,0,0,0,2.033h4.067a1.017,1.017,0,0,0,0-2.033Z" transform="translate(-14 -5.5)" fill="#44546c"/>
                  <path id="Trazado_611487" data-name="Trazado 611487" d="M19.083,41H15.017a1.017,1.017,0,0,0,0,2.033h4.067a1.017,1.017,0,0,0,0-2.033Z" transform="translate(-14 -5.417)" fill="#44546c"/>
                  <path id="Trazado_611488" data-name="Trazado 611488" d="M19.083,46H15.017a1.017,1.017,0,1,0,0,2.033h4.067a1.017,1.017,0,0,0,0-2.033Z" transform="translate(-14 -5.333)" fill="#44546c"/>
                  <path id="Trazado_611489" data-name="Trazado 611489" d="M19.083,51H15.017a1.017,1.017,0,1,0,0,2.033h4.067a1.017,1.017,0,0,0,0-2.033Z" transform="translate(-14 -5.25)" fill="#44546c"/>
                  <path id="Trazado_611490" data-name="Trazado 611490" d="M19.083,56H15.017a1.017,1.017,0,1,0,0,2.033h4.067a1.017,1.017,0,0,0,0-2.033Z" transform="translate(-14 -5.167)" fill="#44546c"/>
                </g>
                <rect id="Rectángulo_347800" data-name="Rectángulo 347800" width="22.367" height="12.2" rx="2" transform="translate(22.366 14.233)" fill="#fff"/>
                <path id="Trazado_611491" data-name="Trazado 611491" d="M45.333,17H43.3A10.167,10.167,0,0,1,33.133,27.167H25A2.033,2.033,0,0,0,27.033,29.2h18.3a2.033,2.033,0,0,0,2.033-2.033V19.033A2.033,2.033,0,0,0,45.333,17Z" transform="translate(-2.634 -2.767)" opacity="0.1"/>
                <rect id="Rectángulo_347801" data-name="Rectángulo 347801" width="12.2" height="10.167" rx="2" transform="translate(46.766 25.417)" fill="#dbf9bd"/>
                <path id="Trazado_611492" data-name="Trazado 611492" d="M59.162,28H58.88a2.013,2.013,0,0,1,.282,1.017v6.1a2.033,2.033,0,0,1-2.033,2.033H49.277a2.025,2.025,0,0,0,1.751,1.017h8.133A2.033,2.033,0,0,0,61.2,36.133v-6.1A2.033,2.033,0,0,0,59.162,28Z" transform="translate(-2.229 -2.583)" opacity="0.2"/>
                <circle id="Elipse_5644" data-name="Elipse 5644" cx="2.033" cy="2.033" r="2.033" transform="translate(49.816 28.467)" fill="#44546c"/>
                <path id="Trazado_611493" data-name="Trazado 611493" d="M33.133,13.167,29.067,9.1,25,13.167V3h8.133Z" transform="translate(-2.634 -3)" fill="#ffa912"/>
                <g id="Grupo_1015667" data-name="Grupo 1015667" transform="translate(22.366)" opacity="0.1">
                  <path id="Trazado_611494" data-name="Trazado 611494" d="M25,9.033V13.1l4.067-4.067L27.033,7Z" transform="translate(-25 -2.933)"/>
                  <path id="Trazado_611495" data-name="Trazado 611495" d="M31,3v8.133l2.033,2.033V3Z" transform="translate(-24.9 -3)"/>
                </g>
                <path id="Trazado_611496" data-name="Trazado 611496" d="M5.705,61.908A3.05,3.05,0,0,1,3.02,58.532L8.426,11.056l3.72-5.716,2.34,6.406L9.081,59.222a3.05,3.05,0,0,1-3.375,2.685Z" transform="translate(-3 -2.961)" fill="#632059"/>
                <path id="Trazado_611497" data-name="Trazado 611497" d="M14.4,11.746,12.059,5.34l-3.72,5.716-.125,1.1,6.081.516Z" transform="translate(-2.914 -2.961)" fill="#feb784"/>
                <path id="Trazado_611498" data-name="Trazado 611498" d="M3.02,57.708a3.05,3.05,0,1,0,6.061.69l.354-3.117-6.081-.516Z" transform="translate(-3 -2.137)" fill="#d6d6d4"/>
              </g>
            </g>
            <g id="notas" transform="translate(995.492 4619.398)">
              <path id="Trazado_611499" data-name="Trazado 611499" d="M40.808,34.789v4.685L37.685,42.6H3.123L0,39.473V34.789A4.768,4.768,0,0,1,4.685,30H36.124A4.768,4.768,0,0,1,40.808,34.789Z" transform="translate(0 -26.877)" fill="#4d5a68"/>
              <path id="Trazado_611500" data-name="Trazado 611500" d="M216.4,34.789v4.685L213.281,42.6H196V30h15.719A4.768,4.768,0,0,1,216.4,34.789Z" transform="translate(-175.596 -26.877)" fill="#304653"/>
              <path id="Trazado_611501" data-name="Trazado 611501" d="M40.808,121v35.915a4.768,4.768,0,0,1-4.685,4.789H4.685A4.768,4.768,0,0,1,0,156.915V121Z" transform="translate(0 -108.404)" fill="#3b5620"/>
              <path id="Trazado_611503" data-name="Trazado 611503" d="M61.562,9.473A1.561,1.561,0,0,1,60,7.912V1.562a1.562,1.562,0,1,1,3.123,0v6.35A1.561,1.561,0,0,1,61.562,9.473Z" transform="translate(-53.754)" fill="#cad4e4"/>
              <path id="Trazado_611504" data-name="Trazado 611504" d="M122.562,9.473A1.561,1.561,0,0,1,121,7.912V1.562a1.562,1.562,0,1,1,3.123,0v6.35A1.561,1.561,0,0,1,122.562,9.473Z" transform="translate(-108.404)" fill="#cad4e4"/>
              <path id="Trazado_611505" data-name="Trazado 611505" d="M184.123,1.562v6.35a1.562,1.562,0,1,1-3.123,0V1.562a1.562,1.562,0,1,1,3.123,0Z" transform="translate(-162.158)" fill="#cad4e4"/>
              <path id="Trazado_611506" data-name="Trazado 611506" d="M243.562,9.473A1.561,1.561,0,0,1,242,7.912V1.562a1.562,1.562,0,0,1,3.123,0v6.35A1.561,1.561,0,0,1,243.562,9.473Z" transform="translate(-216.808)" fill="#adb5cc"/>
              <path id="Trazado_611507" data-name="Trazado 611507" d="M303.562,9.473A1.561,1.561,0,0,1,302,7.912V1.562a1.562,1.562,0,0,1,3.123,0v6.35A1.561,1.561,0,0,1,303.562,9.473Z" transform="translate(-270.561)" fill="#adb5cc"/>
              <path id="Trazado_611508" data-name="Trazado 611508" d="M75.72,392.562a1.546,1.546,0,0,1-1.562,1.562h-12.6a1.562,1.562,0,1,1,0-3.123h12.6A1.546,1.546,0,0,1,75.72,392.562Z" transform="translate(-53.754 -350.296)" fill="#dd864d"/>
              <path id="Trazado_611509" data-name="Trazado 611509" d="M71.035,304.123H61.562a1.562,1.562,0,1,1,0-3.123h9.473a1.562,1.562,0,1,1,0,3.123Z" transform="translate(-53.754 -269.665)" fill="#dd864d"/>
              <path id="Trazado_611510" data-name="Trazado 611510" d="M67.912,214.123h-6.35a1.562,1.562,0,0,1,0-3.123h6.35a1.562,1.562,0,0,1,0,3.123Z" transform="translate(-53.754 -189.034)" fill="#dd864d"/>
              <g id="Grupo_1015669" data-name="Grupo 1015669" transform="translate(25.184 2.831)">
                <g id="Grupo_1015668" data-name="Grupo 1015668" transform="translate(17.488 10.096)">
                  <path id="Trazado_611511" data-name="Trazado 611511" d="M409.911,144.992c.527-8.809,6.667-13.839,7.026-14.344a1.563,1.563,0,0,0-.343-2.438l-1.945-1.123a1.562,1.562,0,0,1,1.562-2.7l1.945,1.123a4.684,4.684,0,0,1,1.025,7.313,18.349,18.349,0,0,0-6.152,12.361,1.562,1.562,0,1,1-3.118-.187Z" transform="translate(-409.909 -124.173)" fill="#304653"/>
                </g>
                <path id="Trazado_611512" data-name="Trazado 611512" d="M415.957,34.221l-2.342,4.057-4.05,1.268-3.138-1.811-.927-4.141,2.342-4.057a4.685,4.685,0,0,1,8.114,4.685Z" transform="translate(-388.472 -27.191)" fill="#4d5a68"/>
                <path id="Trazado_611513" data-name="Trazado 611513" d="M431.042,44.972l-1.569-.906,6.246-10.819a4.678,4.678,0,0,1,1.715,6.4L435.091,43.7Z" transform="translate(-409.949 -32.617)" fill="#304653"/>
                <path id="Trazado_611514" data-name="Trazado 611514" d="M270.387,119.093,262,114.252a23.78,23.78,0,0,1,4.948-12.506c.483-.587,8.879-11.318,9.272-11.812l.718-1.244,8.114,4.685-.7,1.217c-.047.081-5.414,13.5-5.609,13.963A23.779,23.779,0,0,1,270.387,119.093Z" transform="translate(-259.913 -82.288)" fill="url(#linear-gradient)"/>
                <path id="Trazado_611515" data-name="Trazado 611515" d="M306.465,139.251l-4.192-2.42,14.8-25.64,4.057,2.342-.7,1.217c-.047.081-5.414,13.5-5.609,13.963A23.78,23.78,0,0,1,306.465,139.251Z" transform="translate(-295.99 -102.446)" fill="#b12e65"/>
                <path id="Trazado_611516" data-name="Trazado 611516" d="M249.924,323.018a5.012,5.012,0,0,0-5.327.17l-.583.385c-.017.279-.088.527-.1.805l-.4,6.622-1.374,2.38a1.562,1.562,0,1,0,2.7,1.562l1.374-2.38,5.536-3.655c.233-.154.412-.339.645-.493l.042-.7A5.012,5.012,0,0,0,249.924,323.018Z" transform="translate(-241.923 -291.608)" fill="#cad4e4"/>
                <path id="Trazado_611517" data-name="Trazado 611517" d="M256.687,328.909,252.6,336h0l-3.123,5.409a1.546,1.546,0,0,0,2.133-.572l1.374-2.38,5.536-3.655c.233-.154.412-.339.645-.493l.042-.7A5.012,5.012,0,0,0,256.687,328.909Z" transform="translate(-248.687 -297.499)" fill="#adb5cc"/>
              </g>
              <path id="Trazado_611518" data-name="Trazado 611518" d="M196,9.473V0a1.546,1.546,0,0,1,1.562,1.562v6.35A1.546,1.546,0,0,1,196,9.473Z" transform="translate(-175.596)" fill="#adb5cc"/>
              <path id="Trazado_611519" data-name="Trazado 611519" d="M197.562,392.562A1.546,1.546,0,0,1,196,394.123V391A1.546,1.546,0,0,1,197.562,392.562Z" transform="translate(-175.596 -350.296)" fill="#d36836"/>
            </g>
            <g id="mapa" transform="translate(887.941 4865.866)">
              <g id="Grupo_1015670" data-name="Grupo 1015670" transform="translate(17.708 22.163)">
                <path id="Trazado_611520" data-name="Trazado 611520" d="M382.618,229.966l-5.431-29.923a1.013,1.013,0,0,0-.5-.7l-13.67-7.6a1.011,1.011,0,0,0-.572-.123l2.487,32.083-.083.037,16.36,7.34a1.015,1.015,0,0,0,1.414-1.106Z" transform="translate(-331.209 -191.608)" fill="url(#linear-gradient-2)"/>
                <path id="Trazado_611521" data-name="Trazado 611521" d="M148,199,134.02,191.72a1.012,1.012,0,0,0-.536-.111,1.048,1.048,0,0,1,.146,0l-2.487,32.083,16.444,7.377a1.017,1.017,0,0,0,.415.089h0Z" transform="translate(-131.142 -191.607)" fill="url(#linear-gradient-2)"/>
              </g>
              <g id="Grupo_1015671" data-name="Grupo 1015671" transform="translate(0 22.164)">
                <path id="Trazado_611522" data-name="Trazado 611522" d="M20.195,191.613a1.012,1.012,0,0,0-.572.123l-13.67,7.6a1.013,1.013,0,0,0-.5.7L.016,229.967a1.015,1.015,0,0,0,1.414,1.106l16.271-7.3Z" transform="translate(0 -191.61)" fill="url(#linear-gradient-2)"/>
                <path id="Trazado_611523" data-name="Trazado 611523" d="M270.372,191.628a1.012,1.012,0,0,0-.391.11L256,199.02v32.158h0a1.014,1.014,0,0,0,.415-.089l16.444-7.377Z" transform="translate(-221.433 -191.626)" fill="url(#linear-gradient-2)"/>
              </g>
              <path id="Trazado_611524" data-name="Trazado 611524" d="M21.086,268.352l-1.1,6.079L36.32,265.8l.379-4.893.063-.811Z" transform="translate(-17.285 -228.686)" fill="#ffdb56"/>
              <path id="Trazado_611525" data-name="Trazado 611525" d="M19.183,288.294l-.147,1.9L2.7,298.82.016,313.6A1.015,1.015,0,0,0,1.43,314.7L17.7,307.4l1.481-19.109Z" transform="translate(0 -253.075)" fill="url(#linear-gradient-2)"/>
              <g id="Grupo_1015672" data-name="Grupo 1015672" transform="translate(19.036 25.642)">
                <path id="Trazado_611526" data-name="Trazado 611526" d="M156.512,262.255,141.419,260.1l-.442,5.7,15.531,23.586v-8.577l-9.268-14.593,9.272,1.109Z" transform="translate(-140.977 -254.328)" fill="#ffbb24"/>
                <path id="Trazado_611527" data-name="Trazado 611527" d="M378.053,221.023l-6.567-3.653-6.217,1.453.078,1,.307,3.961Z" transform="translate(-334.984 -217.37)" fill="#ffbb24"/>
              </g>
              <path id="Trazado_611528" data-name="Trazado 611528" d="M271.716,240.206l-.589-7.6h0l-.347-4.483L256.03,234.6v5.072l9.635-4.19Z" transform="translate(-221.459 -201.033)" fill="#ffdb56"/>
              <path id="Trazado_611529" data-name="Trazado 611529" d="M387.53,293.36l-1.364-7.516L368.119,264.9l.551,7.113,18.508,22.309A1.013,1.013,0,0,0,387.53,293.36Z" transform="translate(-318.413 -232.838)" fill="#ffbb24"/>
              <path id="Trazado_611530" data-name="Trazado 611530" d="M165.555,27.465a14.2,14.2,0,0,0-14.194,14.182c0,4.837,2.3,10.031,6.826,15.436a48.512,48.512,0,0,0,6.747,6.63,1.015,1.015,0,0,0,1.242,0,48.52,48.52,0,0,0,6.747-6.63c4.53-5.405,6.826-10.6,6.826-15.436A14.2,14.2,0,0,0,165.555,27.465Zm5.257,14.182a5.257,5.257,0,1,1-5.257-5.252A5.254,5.254,0,0,1,170.811,41.647Z" transform="translate(-130.923 -27.465)" fill="url(#linear-gradient)"/>
              <path id="Trazado_611532" data-name="Trazado 611532" d="M256.416,423.008l6.115-2.743L256,413.507v9.59h0A1.012,1.012,0,0,0,256.416,423.008Z" transform="translate(-221.433 -361.381)" fill="#ffdb56"/>
              <g id="Grupo_1015673" data-name="Grupo 1015673" transform="translate(17.707 29.295)">
                <path id="Trazado_611533" data-name="Trazado 611533" d="M382.1,245.724a1.013,1.013,0,0,0-.5-.7l-1.076-.6-12.4,2.765h0l18.047,20.945Z" transform="translate(-336.12 -244.42)" fill="#1ea4e9"/>
                <path id="Trazado_611534" data-name="Trazado 611534" d="M148,326.946h0v-1.014l-15.531-23.586L131.14,319.48l16.444,7.377A1.014,1.014,0,0,0,148,326.946Z" transform="translate(-131.14 -294.524)" fill="#1ea4e9"/>
              </g>
            </g>
            <g id="camara_1_" data-name="camara (1)" transform="translate(642.606 4876.774)">
              <path id="Trazado_609413" data-name="Trazado 609413" d="M47.882,71.5V63.421a1.239,1.239,0,0,0-1.239-1.239H42.513a1.239,1.239,0,0,0-1.239,1.239V71.5" transform="translate(-36.715 -60.22)" fill="#e5e9ea"/>
              <path id="Trazado_609414" data-name="Trazado 609414" d="M44.275,71.5v-9.32H42.513a1.239,1.239,0,0,0-1.239,1.239V71.5" transform="translate(-36.715 -60.22)" fill="#d1d1d1"/>
              <path id="Trazado_609415" data-name="Trazado 609415" d="M56.554,57.174V87.407A3.753,3.753,0,0,1,52.8,91.16H3.753A3.753,3.753,0,0,1,0,87.407V57.174A3.753,3.753,0,0,1,3.753,53.42h7.422A3.754,3.754,0,0,0,14.722,50.9l1.37-3.954a3.754,3.754,0,0,1,3.547-2.524H41.533a3.753,3.753,0,0,1,3.546,2.524L46.449,50.9a3.752,3.752,0,0,0,3.546,2.523H52.8A3.753,3.753,0,0,1,56.554,57.174Z" transform="translate(0 -44.419)" fill="url(#linear-gradient)"/>
              <path id="Trazado_609418" data-name="Trazado 609418" d="M56.554,218.384v23.772A3.753,3.753,0,0,1,52.8,245.91H3.753A3.753,3.753,0,0,1,0,242.156V218.384Z" transform="translate(0 -199.168)" fill="#3b5620"/>
              <circle id="Elipse_5625" data-name="Elipse 5625" cx="15.638" cy="15.638" r="15.638" transform="translate(12.639 11.946)" fill="#e5e9ea"/>
              <path id="Trazado_609420" data-name="Trazado 609420" d="M178,205.094a11.058,11.058,0,1,1-3.647-8.206A11.03,11.03,0,0,1,178,205.094Z" transform="translate(-138.67 -177.511)" fill="#566368"/>
              <g id="Grupo_1015412" data-name="Grupo 1015412" transform="translate(17.22 16.527)">
                <path id="Trazado_609421" data-name="Trazado 609421" d="M259.162,197.278a11.03,11.03,0,0,1,3.224,8.382,11.057,11.057,0,0,1-11.606-11.606A11.026,11.026,0,0,1,259.162,197.278Z" transform="translate(-240.287 -194.04)" fill="#6f7b7f"/>
                <path id="Trazado_609422" data-name="Trazado 609422" d="M164.292,292.147a11.03,11.03,0,0,1,3.224,8.382,11.055,11.055,0,0,1-11.606-11.606A11.025,11.025,0,0,1,164.292,292.147Z" transform="translate(-155.896 -278.43)" fill="#6f7b7f"/>
              </g>
              <g id="Grupo_1015413" data-name="Grupo 1015413" transform="translate(16.354 15.661)">
                <path id="Trazado_609423" data-name="Trazado 609423" d="M159.978,210.044A11.923,11.923,0,1,1,171.9,198.121,11.937,11.937,0,0,1,159.978,210.044Zm0-22.115a10.192,10.192,0,1,0,10.192,10.192A10.2,10.2,0,0,0,159.978,187.929Z" transform="translate(-148.055 -186.198)" fill="#435054"/>
                <path id="Trazado_609424" data-name="Trazado 609424" d="M220.251,253.955a4.439,4.439,0,1,0,4.439,4.439A4.444,4.444,0,0,0,220.251,253.955Z" transform="translate(-208.328 -246.471)" fill="#435054"/>
              </g>
              <path id="Trazado_609425" data-name="Trazado 609425" d="M293.816,77.646h6.8a1.619,1.619,0,0,0,1.619-1.619V74.245a1.619,1.619,0,0,0-1.619-1.619h-6.8a1.619,1.619,0,0,0-1.619,1.619v1.782A1.619,1.619,0,0,0,293.816,77.646Z" transform="translate(-259.922 -69.51)" fill="#e5e9ea"/>
              <path id="Trazado_609426" data-name="Trazado 609426" d="M293.647,71.542h-6.8a2.488,2.488,0,0,1-2.485-2.485V67.275a2.488,2.488,0,0,1,2.485-2.485h6.8a2.488,2.488,0,0,1,2.485,2.485v1.782A2.488,2.488,0,0,1,293.647,71.542Zm-6.8-5.02a.754.754,0,0,0-.754.754v1.782a.754.754,0,0,0,.754.754h6.8a.754.754,0,0,0,.754-.754V67.275a.754.754,0,0,0-.754-.754Z" transform="translate(-252.95 -62.54)" fill="#e29a4b"/>
              <circle id="Elipse_5626" data-name="Elipse 5626" cx="3.13" cy="3.13" r="3.13" transform="translate(7.621 37.277)" fill="#566368"/>
            </g>
            <g id="estructura" transform="translate(555.412 4608.489)">
              <path id="Trazado_611535" data-name="Trazado 611535" d="M83.948,200.334V195h-3.4v5.334H60v8.512h3.4v-5.107H80.543v5.107h3.4v-5.107h17.138v5.107h3.4v-8.512Z" transform="translate(-53.191 -172.868)" fill="url(#linear-gradient)"/>
              <path id="Trazado_611536" data-name="Trazado 611536" d="M257.7,195H256v13.847h1.7v-5.107H274.84v5.107h3.4v-8.512H257.7Z" transform="translate(-226.945 -172.868)" fill="url(#linear-gradient)"/>
              <g id="Grupo_1015674" data-name="Grupo 1015674" transform="translate(20.542 34.276)">
                <path id="Trazado_611537" data-name="Trazado 611537" d="M198.025,325.834H181V302h17.025Z" transform="translate(-181 -302)" fill="#3b5620"/>
              </g>
              <path id="Trazado_611538" data-name="Trazado 611538" d="M256,302h8.512v23.834H256Z" transform="translate(-226.945 -267.724)" fill="#3b5620"/>
              <g id="Framework_2_" transform="translate(0 34.276)">
                <g id="Grupo_1015675" data-name="Grupo 1015675">
                  <path id="Trazado_611539" data-name="Trazado 611539" d="M17.025,325.834H0V302H17.025Z" transform="translate(0 -302)" fill="#3b5620"/>
                </g>
                <g id="Grupo_1015676" data-name="Grupo 1015676" transform="translate(6.81 6.81)">
                  <path id="Trazado_611540" data-name="Trazado 611540" d="M60,362h3.4v3.4H60Z" transform="translate(-60 -362)" fill="#fff"/>
                </g>
                <g id="Grupo_1015677" data-name="Grupo 1015677" transform="translate(6.81 13.62)">
                  <path id="Trazado_611541" data-name="Trazado 611541" d="M60,422h3.4v3.4H60Z" transform="translate(-60 -422)" fill="#fff"/>
                </g>
                <g id="Grupo_1015678" data-name="Grupo 1015678" transform="translate(27.353 6.81)">
                  <path id="Trazado_611542" data-name="Trazado 611542" d="M241,362h3.4v3.4H241Z" transform="translate(-241 -362)" fill="#fff"/>
                </g>
                <g id="Grupo_1015679" data-name="Grupo 1015679" transform="translate(27.353 13.62)">
                  <path id="Trazado_611543" data-name="Trazado 611543" d="M241,422h3.4v3.4H241Z" transform="translate(-241 -422)" fill="#fff"/>
                </g>
                <g id="Grupo_1015680" data-name="Grupo 1015680" transform="translate(41.086)">
                  <path id="Trazado_611544" data-name="Trazado 611544" d="M379.025,325.834H362V302h17.025Z" transform="translate(-362 -302)" fill="#3b5620"/>
                </g>
                <g id="Grupo_1015681" data-name="Grupo 1015681" transform="translate(47.896 6.81)">
                  <path id="Trazado_611545" data-name="Trazado 611545" d="M422,362h3.4v3.4H422Z" transform="translate(-422 -362)" fill="#fff"/>
                </g>
                <g id="Grupo_1015682" data-name="Grupo 1015682" transform="translate(47.896 13.62)">
                  <path id="Trazado_611546" data-name="Trazado 611546" d="M422,422h3.4v3.4H422Z" transform="translate(-422 -422)" fill="#fff"/>
                </g>
              </g>
              <g id="Grupo_1015683" data-name="Grupo 1015683" transform="translate(29.055 17.025)">
                <path id="Trazado_611547" data-name="Trazado 611547" d="M278.132,153.4l-3.4,3.4H256l4.41-6.344,6.316-.465h8Z" transform="translate(-256 -150)" fill="url(#linear-gradient)"/>
              </g>
              <path id="Trazado_611548" data-name="Trazado 611548" d="M109.727,0A11.93,11.93,0,0,0,97.81,11.917,11.734,11.734,0,0,0,99,17.025H91v6.81h18.727a11.846,11.846,0,0,0,10.726-6.81,11.171,11.171,0,0,0,1.192-5.107A11.93,11.93,0,0,0,109.727,0ZM104.62,11.917a5.107,5.107,0,1,1,5.107,5.107A5.1,5.1,0,0,1,104.62,11.917Z" transform="translate(-80.672)" fill="#632059"/>
              <path id="Trazado_611549" data-name="Trazado 611549" d="M261.107,11.917A5.1,5.1,0,0,1,256,17.025v6.81a11.846,11.846,0,0,0,10.726-6.81,11.171,11.171,0,0,0,1.192-5.107A11.93,11.93,0,0,0,256,0V6.81A5.1,5.1,0,0,1,261.107,11.917Z" transform="translate(-226.945)" fill="#632059"/>
            </g>
          </g>
          <g id="Grupo_1015693" data-name="Grupo 1015693" transform="translate(0 194.523)">
            <g id="Grupo_1016259" data-name="Grupo 1016259" transform="translate(781.525 4313.844)">
              <g id="Grupo_159358" data-name="Grupo 159358">
                <circle id="Elipse_5613" data-name="Elipse 5613" cx="18.475" cy="18.475" r="18.475" opacity="0.57" fill="url(#linear-gradient-2)"/>
                <circle id="Elipse_5606" data-name="Elipse 5606" cx="13.436" cy="13.436" r="13.436" transform="translate(5.039 5.039)" fill="#dbf9bd"/>
              </g>
              <text id="_" data-name="+" transform="matrix(-1, 0, 0, 1, 24.352, 26.071)" fill="#12263f" font-size="20" font-family="Roboto-Medium, Roboto" font-weight="500"><tspan x="0" y="0">+</tspan></text>
            </g>
            <g id="Grupo_1016260" data-name="Grupo 1016260" transform="translate(1125 4599.749)">
              <g id="Grupo_159358-2" data-name="Grupo 159358">
                <circle id="Elipse_5613-2" data-name="Elipse 5613" cx="18.475" cy="18.475" r="18.475" opacity="0.57" fill="url(#linear-gradient-2)"/>
                <circle id="Elipse_5606-2" data-name="Elipse 5606" cx="13.436" cy="13.436" r="13.436" transform="translate(5.039 5.039)" fill="#dbf9bd"/>
              </g>
              <text id="_2" data-name="+" transform="matrix(-1, 0, 0, 1, 24.352, 26.071)" fill="#12263f" font-size="20" font-family="Roboto-Medium, Roboto" font-weight="500"><tspan x="0" y="0">+</tspan></text>
            </g>
            <g id="Grupo_1016261" data-name="Grupo 1016261" transform="translate(908 4987.198)">
              <g id="Grupo_159358-3" data-name="Grupo 159358">
                <circle id="Elipse_5613-3" data-name="Elipse 5613" cx="18.475" cy="18.475" r="18.475" opacity="0.57" fill="url(#linear-gradient-2)"/>
                <circle id="Elipse_5606-3" data-name="Elipse 5606" cx="13.436" cy="13.436" r="13.436" transform="translate(5.039 5.039)" fill="#dbf9bd"/>
              </g>
              <text id="_3" data-name="+" transform="matrix(-1, 0, 0, 1, 24.352, 26.071)" fill="#12263f" font-size="20" font-family="Roboto-Medium, Roboto" font-weight="500"><tspan x="0" y="0">+</tspan></text>
            </g>
            <g id="Grupo_1016262" data-name="Grupo 1016262" transform="translate(648.051 4987.198)">
              <g id="Grupo_159358-4" data-name="Grupo 159358">
                <circle id="Elipse_5613-4" data-name="Elipse 5613" cx="18.475" cy="18.475" r="18.475" opacity="0.57" fill="url(#linear-gradient-2)"/>
                <circle id="Elipse_5606-4" data-name="Elipse 5606" cx="13.436" cy="13.436" r="13.436" transform="translate(5.039 5.039)" fill="#dbf9bd"/>
              </g>
              <text id="_4" data-name="+" transform="matrix(-1, 0, 0, 1, 24.352, 26.071)" fill="#12263f" font-size="20" font-family="Roboto-Medium, Roboto" font-weight="500"><tspan x="0" y="0">+</tspan></text>
            </g>
            <g id="Grupo_1016263" data-name="Grupo 1016263" transform="translate(438.051 4599.749)">
              <g id="Grupo_159358-5" data-name="Grupo 159358">
                <circle id="Elipse_5613-5" data-name="Elipse 5613" cx="18.475" cy="18.475" r="18.475" opacity="0.57" fill="url(#linear-gradient-2)"/>
                <circle id="Elipse_5606-5" data-name="Elipse 5606" cx="13.436" cy="13.436" r="13.436" transform="translate(5.039 5.039)" fill="#dbf9bd"/>
              </g>
              <text id="_5" data-name="+" transform="matrix(-1, 0, 0, 1, 24.352, 26.071)" fill="#12263f" font-size="20" font-family="Roboto-Medium, Roboto" font-weight="500"><tspan x="0" y="0">+</tspan></text>
            </g>
          </g>
        </g>
        <rect id="Rectángulo_348074" data-name="Rectángulo 348074" width="820" height="736" transform="translate(390 4499)" fill="none"/>
      </g>
    </g>
  </g>
</svg>
