<svg xmlns="http://www.w3.org/2000/svg" width="593" height="312.18" viewBox="0 0 593 312.18">
  <g id="Grupo_1066774" data-name="Grupo 1066774" transform="translate(-731 -1309.109)">
    <g id="Group_66" data-name="Group 66" transform="translate(731 1309.097)">
      <path id="Trazado_612063" data-name="Trazado 612063" d="M593,459.8H0v.738H593Z" transform="translate(0 -148.347)" fill="#bac4b1"/>
      <path id="Trazado_612064" data-name="Trazado 612064" d="M282.057,148.584c.759-1.409,1.544-2.676,2.3-3.956.738-1.26,1.483-2.527,2.229-3.786.759-1.287,1.524-2.574,2.283-3.854q1.118-1.89,2.229-3.78c.752-1.28,1.524-2.554,2.262-3.861a.911.911,0,0,0-.833-.034c-1.246.3-2.486.637-3.732.928-2.235.522-4.477,1-6.74,1.361-1.321.217-2.642.467-3.969.657-1.179.169-2.371.278-3.556.413-.887.1-1.781.19-2.669.284-.176.02-.359.047-.535.054-1.578.088-3.163.156-4.741.264-2.689.19-5.378.115-8.067.081-1.551-.02-3.1-.19-4.647-.3-.982-.068-1.964-.122-2.947-.23-1.185-.129-2.371-.285-3.549-.454-1.206-.176-2.411-.379-3.617-.583a81.744,81.744,0,0,1-11.617-2.879,71.124,71.124,0,0,1-15.362-6.99,54.6,54.6,0,0,1-9.9-7.674,42.028,42.028,0,0,1-12.924-26.5,47.937,47.937,0,0,1-.095-7.7,60.5,60.5,0,0,1,.989-7.634,61.676,61.676,0,0,1,2.181-8.4,54.817,54.817,0,0,1,12.4-20.551,60.684,60.684,0,0,1,13.215-10.377,77.13,77.13,0,0,1,19.3-7.959c2.764-.738,5.554-1.355,8.379-1.829,1.646-.271,3.292-.542,4.958-.711,1.544-.156,3.082-.393,4.626-.481,2.059-.115,4.112-.264,6.177-.23,1.673.027,3.346-.014,5.019.034,1.639.047,3.278.129,4.918.3.948.1,1.9.142,2.852.237,1.07.108,2.134.23,3.2.386,1.328.2,2.648.434,3.969.657a87.9,87.9,0,0,1,9.226,2.127,80.016,80.016,0,0,1,14.407,5.595,63.148,63.148,0,0,1,14.285,9.815,52.1,52.1,0,0,1,10.946,14.2,53.081,53.081,0,0,1,4.83,13.446,57.671,57.671,0,0,1,1.036,6.543,63.725,63.725,0,0,1,.264,9.307c-.068,1.429-.115,2.865-.257,4.294a59.619,59.619,0,0,1-5.7,20.239,60.131,60.131,0,0,1-6.828,10.817,72.549,72.549,0,0,1-14.814,13.987,97.723,97.723,0,0,1-20.89,11.332,86.422,86.422,0,0,1-9.91,3.333,3.72,3.72,0,0,1-.589.054Z" transform="translate(-62.511 -7.053)" fill="#bac4b1"/>
      <path id="Trazado_612065" data-name="Trazado 612065" d="M372.19,438.511v13.1h4.572c6.184,0,12.226-.366,17.367-3.814l6.821-4.62L418.189,451a6.8,6.8,0,0,0,9.1-3.631l-25.347-13.093a8.925,8.925,0,0,0-6.5-.691L372.2,438.511Z" transform="translate(-120.084 -139.785)" fill="#ffc5b3"/>
      <path id="Trazado_612066" data-name="Trazado 612066" d="M158.534,312.72H74.568a13.708,13.708,0,0,0-13.452,16.345l16.406,83.647H189.428l-17.435-88.924A13.706,13.706,0,0,0,158.54,312.72Z" transform="translate(-19.635 -100.893)" fill="#bac4b1"/>
      <path id="Trazado_612067" data-name="Trazado 612067" d="M251.313,370.512l-13.7-83.125a41.1,41.1,0,0,0-40.553-34.417H163.629c-16.026,0-25.9,10.8-31.138,28.043l-23.924,84.074a24.313,24.313,0,0,0,23.978,28.341h87.521l.115-78,7.688,68.034a11.231,11.231,0,0,0,11.163,9.971h49.2V368.791l-36.93,1.714Z" transform="translate(-34.918 -81.615)" fill="#839571"/>
      <path id="Trazado_612068" data-name="Trazado 612068" d="M237.353,186.184a39.2,39.2,0,1,0-55.436,0A39.2,39.2,0,0,0,237.353,186.184Z" transform="translate(-54.99 -38.477)" fill="#293e15"/>
      <path id="Trazado_612069" data-name="Trazado 612069" d="M190.521,134.686a22.021,22.021,0,1,0-28.87-11.676A22.021,22.021,0,0,0,190.521,134.686Z" transform="translate(-51.59 -29.804)" fill="#293e15"/>
      <path id="Trazado_612070" data-name="Trazado 612070" d="M655.684,312.72H739.65A13.708,13.708,0,0,1,753.1,329.065L736.7,412.712H624.79l17.435-88.924a13.706,13.706,0,0,1,13.452-11.068Z" transform="translate(-201.583 -100.893)" fill="#bac4b1"/>
      <path id="Trazado_612071" data-name="Trazado 612071" d="M518.24,161.066c-.962-1.795-1.964-3.4-2.919-5.026q-1.412-2.408-2.831-4.809-1.443-2.449-2.9-4.9c-.948-1.605-1.9-3.2-2.838-4.809-.955-1.632-1.937-3.245-2.872-4.911a1.17,1.17,0,0,1,1.057-.041c1.585.386,3.156.806,4.742,1.179,2.838.671,5.69,1.267,8.569,1.734,1.68.271,3.36.589,5.046.833,1.5.217,3.014.359,4.518.522,1.131.129,2.262.244,3.394.366.224.027.454.054.677.068,2,.115,4.017.2,6.022.339,3.414.237,6.835.142,10.248.1,1.971-.027,3.935-.244,5.907-.379,1.246-.088,2.5-.156,3.746-.291,1.5-.163,3.008-.359,4.511-.576,1.538-.224,3.068-.481,4.6-.738a104.489,104.489,0,0,0,14.766-3.658,90.067,90.067,0,0,0,19.528-8.887,69.4,69.4,0,0,0,12.579-9.754,53.476,53.476,0,0,0,16.433-33.678,60.56,60.56,0,0,0,.122-9.788,76.878,76.878,0,0,0-1.26-9.707,78.2,78.2,0,0,0-2.77-10.675,69.723,69.723,0,0,0-15.762-26.119,77.062,77.062,0,0,0-16.8-13.188,98.318,98.318,0,0,0-24.534-10.12c-3.515-.942-7.058-1.727-10.655-2.323-2.093-.345-4.186-.691-6.3-.9-1.964-.2-3.915-.494-5.88-.61-2.615-.149-5.229-.339-7.851-.3-2.127.034-4.254-.014-6.381.047-2.086.061-4.173.169-6.245.386-1.206.129-2.425.176-3.631.3-1.355.135-2.716.291-4.064.494-1.687.251-3.367.549-5.04.84a113.508,113.508,0,0,0-11.725,2.7A101.425,101.425,0,0,0,483.133,11.9a79.836,79.836,0,0,0-18.16,12.477A66,66,0,0,0,451.06,42.427a67.55,67.55,0,0,0-6.144,17.09,72.016,72.016,0,0,0-1.314,8.318,81.218,81.218,0,0,0-.332,11.833c.081,1.822.149,3.644.325,5.46a75.687,75.687,0,0,0,1.185,7.878,73.91,73.91,0,0,0,6.056,17.848,76.245,76.245,0,0,0,8.684,13.75,92.486,92.486,0,0,0,18.831,17.781,123.94,123.94,0,0,0,26.559,14.4,110.984,110.984,0,0,0,12.6,4.24,4.6,4.6,0,0,0,.745.068Z" transform="translate(-142.991 0)" fill="#bac4b1"/>
      <path id="Trazado_612072" data-name="Trazado 612072" d="M608.693,252.98H576.376c-.3,0-.6,0-.908.007a48.615,48.615,0,0,0-44.015,30.583L510.32,335.956l-50.477-26.315L447.57,336.41l50.748,21.438a28.974,28.974,0,0,0,37.593-16.04l13.669-42.945,3.895,94.573h86.3A24.313,24.313,0,0,0,663.749,365.1l-23.924-84.074c-5.229-17.252-15.105-28.043-31.138-28.043Z" transform="translate(-144.405 -81.618)" fill="#afc797"/>
      <path id="Trazado_612073" data-name="Trazado 612073" d="M656.619,252.98l7.837,22.468A2.039,2.039,0,0,1,662,278.09l-19.643-5.31a7.256,7.256,0,0,0-4.023.061l-17.185,5.182a2.042,2.042,0,0,1-2.554-2.513l6.3-22.062,31.734-.461Z" transform="translate(-199.558 -81.618)" fill="#fff"/>
      <path id="Trazado_612074" data-name="Trazado 612074" d="M626.59,233.1l1.632,8.406a15.667,15.667,0,1,0,30.759-5.974L652.9,204.28l-10.167,12.4L626.6,233.1Z" transform="translate(-202.164 -65.905)" fill="#ffc5b3"/>
      <path id="Trazado_612075" data-name="Trazado 612075" d="M656.871,226.462l-1.883-9.659c-.088-.122-.169-.251-.257-.373l-4.918-6.591-7.078,8.63L626.6,234.9l1.057,5.466a26.965,26.965,0,0,0,18.844-2C652.191,235.505,655.821,231.075,656.871,226.462Z" transform="translate(-202.167 -67.699)" fill="#e89c87"/>
      <path id="Trazado_612076" data-name="Trazado 612076" d="M648.643,187c3.024-18.735-5.831-35.748-19.78-38s-27.709,11.111-30.733,29.846,5.831,35.748,19.78,38S645.619,205.734,648.643,187Z" transform="translate(-192.791 -47.989)" fill="#ffc5b3"/>
      <path id="Trazado_612077" data-name="Trazado 612077" d="M598.39,178.227l1.971-16.04a17.461,17.461,0,0,1,19.461-15.2l16.094,1.978a17.46,17.46,0,0,1,15.2,19.46l-2.208,17.95L598.39,178.22Z" transform="translate(-193.066 -47.378)" fill="#ffc5b3"/>
      <path id="Trazado_612078" data-name="Trazado 612078" d="M620.375,181.838a10.027,10.027,0,0,0-10.33,8.907l-5.08-.19a9.965,9.965,0,1,0-.047,1.45l5.08.19a10.011,10.011,0,1,0,10.377-10.357Zm-25.74,17.625a8.568,8.568,0,1,1,8.887-8.237A8.573,8.573,0,0,1,594.636,199.463Zm25.042.948a8.568,8.568,0,1,1,8.887-8.237A8.573,8.573,0,0,1,619.678,200.411Z" transform="translate(-188.729 -58.359)" fill="#e89c87"/>
      <path id="Trazado_612079" data-name="Trazado 612079" d="M617.412,217.817h-4.233a.759.759,0,0,1,0-1.517h4.233a.759.759,0,1,1,0,1.517Z" transform="translate(-197.592 -69.784)" fill="#e89c87"/>
      <path id="Trazado_612080" data-name="Trazado 612080" d="M633.2,200.865a1.224,1.224,0,1,1-1.016-1.4A1.224,1.224,0,0,1,633.2,200.865Z" transform="translate(-203.512 -64.346)" fill="#293e15"/>
      <path id="Trazado_612081" data-name="Trazado 612081" d="M652.052,288.845a1.836,1.836,0,1,1-1.517-2.107A1.833,1.833,0,0,1,652.052,288.845Z" transform="translate(-209.202 -92.502)" fill="#fff"/>
      <path id="Trazado_612082" data-name="Trazado 612082" d="M604.19,200.865a1.224,1.224,0,1,1-1.016-1.4A1.224,1.224,0,0,1,604.19,200.865Z" transform="translate(-194.152 -64.346)" fill="#293e15"/>
      <path id="Trazado_612083" data-name="Trazado 612083" d="M612.11,224.409c1.693,2.594,4.206,4.186,6.923,4.03s5.033-2.025,6.415-4.789Z" transform="translate(-197.492 -72.155)" fill="#fff"/>
      <path id="Trazado_612084" data-name="Trazado 612084" d="M643.784,180.183l8.785-26.552s4.281-10.98-3.624-15.423-63.922-14.787-63.922-14.787-8.724,26.092,10.391,31.213c10.831,2.906,44.848-.345,44.848-.345L638.853,178.2l4.938,1.991Z" transform="translate(-188.112 -39.817)" fill="#293e15"/>
      <path id="Trazado_612085" data-name="Trazado 612085" d="M674.661,204.8a5.228,5.228,0,1,1-4.328-5.995A5.227,5.227,0,0,1,674.661,204.8Z" transform="translate(-214.321 -64.118)" fill="#ffc5b3"/>
      <path id="Trazado_612086" data-name="Trazado 612086" d="M430.5,344.882l-43.033-20.307a1.613,1.613,0,0,1-.867-1.951l6.008-18.7a1.608,1.608,0,0,1,2.215-.962l26.939,11.7s-6.008-12.992,1.592-17.645l11.027,28.063,4.294,1.971L430.5,344.889Z" transform="translate(-124.711 -95.827)" fill="#ffc5b3"/>
      <path id="Trazado_612087" data-name="Trazado 612087" d="M412.752,318.966l-.738,2.391-19.84-9.138-.312.671,19.935,9.178-1.524,4.951-19.867-9.259-.312.671,19.962,9.3-1.409,4.565-19.982-9.09-.3.671L408.43,333l-.887,2.879.7.217,5.2-16.914Z" transform="translate(-125.301 -100.731)" fill="#e89c87"/>
      <path id="Trazado_612088" data-name="Trazado 612088" d="M606.963,438.511v13.1h-4.572c-6.184,0-12.226-.366-17.368-3.814l-6.821-4.62L560.964,451a6.8,6.8,0,0,1-9.1-3.631l25.347-13.093a8.924,8.924,0,0,1,6.5-.691l23.247,4.924Z" transform="translate(-178.053 -139.785)" fill="#ffc5b3"/>
      <path id="Trazado_612089" data-name="Trazado 612089" d="M634.128,435.331h-.738V423.41l.379.014,70.107,2.7-.027.732-69.72-2.682Z" transform="translate(-204.358 -136.606)" fill="#30aa5f"/>
      <path id="Trazado_612090" data-name="Trazado 612090" d="M481.176,347.228,471.2,369.975l.677.3,9.975-22.747Z" transform="translate(-152.029 -112.026)" fill="#30aa5f"/>
      <path id="Trazado_612091" data-name="Trazado 612091" d="M651.685,296.973l-.738.036,3.814,77.417.738-.037Z" transform="translate(-210.023 -95.812)" fill="#30aa5f"/>
      <path id="Trazado_612092" data-name="Trazado 612092" d="M190.789,257.237l-1.145,10.032c-1,5.3,2.838,9.95,7.973,8.562l11.278-3.048a7.256,7.256,0,0,1,4.023.061l9.171,2.764c5.006,1.51,9.077-2.838,8.271-8.149l-1.592-11.691a3.213,3.213,0,0,0-3.184-2.777l-30.027.054a4.736,4.736,0,0,0-4.769,4.2Z" transform="translate(-61.135 -81.621)" fill="#fff"/>
      <path id="Trazado_612093" data-name="Trazado 612093" d="M230.762,233.1l-1.632,8.406a15.667,15.667,0,1,1-30.759-5.974l6.083-31.253,10.167,12.4L230.755,233.1Z" transform="translate(-63.909 -65.905)" fill="#ffc5b3"/>
      <path id="Trazado_612094" data-name="Trazado 612094" d="M201.64,226.462l1.883-9.659c.088-.122.169-.251.257-.373l4.918-6.591,7.078,8.63L231.911,234.9l-1.057,5.466a26.965,26.965,0,0,1-18.844-2C206.321,235.505,202.69,231.075,201.64,226.462Z" transform="translate(-65.057 -67.699)" fill="#e89c87"/>
      <path id="Trazado_612095" data-name="Trazado 612095" d="M230.415,216.832c13.949-2.252,22.805-19.265,19.781-38s-16.784-32.1-30.733-29.846-22.805,19.265-19.781,38S216.466,219.084,230.415,216.832Z" transform="translate(-64.235 -47.985)" fill="#ffc5b3"/>
      <path id="Trazado_612096" data-name="Trazado 612096" d="M249.352,178.227l-1.971-16.04a17.461,17.461,0,0,0-19.46-15.2l-16.094,1.978a17.46,17.46,0,0,0-15.2,19.46l2.208,17.95,50.517-8.155Z" transform="translate(-63.397 -47.378)" fill="#ffc5b3"/>
      <path id="Trazado_612097" data-name="Trazado 612097" d="M252.779,217.817h4.233a.759.759,0,1,0,0-1.517h-4.233a.759.759,0,1,0,0,1.517Z" transform="translate(-81.312 -69.784)" fill="#e89c87"/>
      <path id="Trazado_612098" data-name="Trazado 612098" d="M238.562,197.245a1.224,1.224,0,1,0,1.016-1.4A1.224,1.224,0,0,0,238.562,197.245Z" transform="translate(-76.965 -63.178)" fill="#293e15"/>
      <path id="Trazado_612099" data-name="Trazado 612099" d="M218.4,288.845a1.836,1.836,0,1,0,1.517-2.107A1.834,1.834,0,0,0,218.4,288.845Z" transform="translate(-70.457 -92.502)" fill="#fff"/>
      <path id="Trazado_612100" data-name="Trazado 612100" d="M267.572,197.245a1.224,1.224,0,1,0,1.016-1.4A1.224,1.224,0,0,0,267.572,197.245Z" transform="translate(-86.325 -63.178)" fill="#293e15"/>
      <path id="Trazado_612101" data-name="Trazado 612101" d="M254.457,224.409c-1.693,2.594-4.206,4.186-6.923,4.03s-5.033-2.025-6.415-4.789Z" transform="translate(-77.795 -72.155)" fill="#fff"/>
      <path id="Trazado_612102" data-name="Trazado 612102" d="M193.278,204.8a5.228,5.228,0,1,0,4.328-5.995A5.227,5.227,0,0,0,193.278,204.8Z" transform="translate(-62.338 -64.118)" fill="#ffc5b3"/>
      <path id="Trazado_612103" data-name="Trazado 612103" d="M242.25,438.511v13.1h4.572c6.184,0,12.226-.366,17.367-3.814l6.821-4.62L288.249,451a6.8,6.8,0,0,0,9.1-3.631l-25.347-13.093a8.925,8.925,0,0,0-6.5-.691l-23.247,4.924Z" transform="translate(-78.16 -139.785)" fill="#ffc5b3"/>
      <path id="Trazado_612104" data-name="Trazado 612104" d="M208.5,435.331h-.738V424.169l-69.72,2.682-.027-.732L208.5,423.41Z" transform="translate(-44.528 -136.606)" fill="#3b5620"/>
      <path id="Trazado_612105" data-name="Trazado 612105" d="M218.83,297.019l-3.841,77.415.738.037,3.841-77.415Z" transform="translate(-69.364 -95.827)" fill="#3b5620"/>
      <path id="Trazado_612106" data-name="Trazado 612106" d="M238.816,148.925s-10.066,16.893-45.7,16.514c0,0-6.713-.379-7.37-4.789s.366-11.278,5.006-14.055,24.873-11.441,38.609-8.332S238.816,148.925,238.816,148.925Z" transform="translate(-59.872 -44.392)" fill="#293e15"/>
      <path id="Trazado_612107" data-name="Trazado 612107" d="M238.9,186.594a8.776,8.776,0,0,0-4.728-.237,8.662,8.662,0,0,0-4.152,2.262Z" transform="translate(-74.214 -60.053)" fill="#293e15"/>
      <path id="Trazado_612108" data-name="Trazado 612108" d="M272.119,188.352a8.737,8.737,0,0,0-9.009-1.341Z" transform="translate(-84.89 -60.11)" fill="#293e15"/>
      <path id="Trazado_612109" data-name="Trazado 612109" d="M356.538,424.79H355.8v18.316h.738Z" transform="translate(-114.796 -137.051)" fill="#3b5620"/>
    </g>
  </g>
</svg>
