<svg xmlns="http://www.w3.org/2000/svg" width="157" height="156.377" viewBox="0 0 157 156.377">
  <g id="Grupo_1066780" data-name="Grupo 1066780" transform="translate(-461.5 -872.276)">
    <g id="Layer_2" data-name="Layer 2" transform="translate(461.5 872.276)">
      <g id="Layer_1" data-name="Layer 1" transform="translate(0)">
        <g id="possibility">
          <path id="Trazado_612582" data-name="Trazado 612582" d="M104.106,52.221a52.2,52.2,0,0,1-52.221,52.221C-17.3,101.9-17.288,2.582,51.885,0A52.25,52.25,0,0,1,104.106,52.221Z" transform="translate(0)" fill="#ffbd66"/>
          <path id="Trazado_612583" data-name="Trazado 612583" d="M2.91,5.89,52.226,118.182,79.471,90.654Z" transform="translate(18.872 38.195)" fill="#59c5ef"/>
          <path id="Trazado_612584" data-name="Trazado 612584" d="M138.128,31.36,2.91,5.89,110.569,59.241Z" transform="translate(18.872 38.195)" fill="#2ba0bf"/>
          <path id="Trazado_612585" data-name="Trazado 612585" d="M110.569,59.241,2.91,5.89,112.688,89.95Z" transform="translate(18.872 38.195)" fill="#59c5ef"/>
          <path id="Trazado_612586" data-name="Trazado 612586" d="M2.91,5.89,79.471,90.654l33.217-.7Z" transform="translate(18.872 38.195)" fill="#2ba0bf"/>
        </g>
      </g>
    </g>
  </g>
</svg>
