<svg xmlns="http://www.w3.org/2000/svg" width="131.051" height="145.715" viewBox="0 0 131.051 145.715">
  <g id="Grupo_1066784" data-name="Grupo 1066784" transform="translate(-1060.65 -10908.938)">
    <g id="plan" transform="translate(1060.65 10908.938)">
      <path id="Trazado_612632" data-name="Trazado 612632" d="M142.188,2.932V145.715h72.276a18.308,18.308,0,0,0,18.308-18.308V2.932A2.932,2.932,0,0,0,229.84,0H145.119a2.932,2.932,0,0,0-2.932,2.932Zm0,0" transform="translate(-101.721 0)" fill="#e3f4ff"/>
      <path id="Trazado_612633" data-name="Trazado 612633" d="M393.294,2.932V127.408a18.309,18.309,0,0,1-18.309,18.307h-8.418a18.309,18.309,0,0,0,18.31-18.307V2.932A2.933,2.933,0,0,0,381.944,0h8.418a2.932,2.932,0,0,1,2.932,2.932Zm0,0" transform="translate(-262.242 0)" fill="#bddff4"/>
      <path id="Trazado_612634" data-name="Trazado 612634" d="M97.085,421.492a2.931,2.931,0,0,1,2.932,2.932v4.52a18.307,18.307,0,0,0,18.307,18.307H27.734A18.308,18.308,0,0,1,9.426,428.943v-4.519a2.931,2.931,0,0,1,2.932-2.932Zm0,0" transform="translate(-6.743 -301.536)" fill="#9cc6db"/>
      <path id="Trazado_612635" data-name="Trazado 612635" d="M204.345,160.477a5.325,5.325,0,1,1-5.325-5.325A5.325,5.325,0,0,1,204.345,160.477Zm0,0" transform="translate(-138.57 -110.996)" fill="#1b3f5e"/>
      <g id="Grupo_1015806" data-name="Grupo 1015806" transform="translate(72.391 41.539)">
        <path id="Trazado_612636" data-name="Trazado 612636" d="M267.336,172.194H256.562a2.2,2.2,0,1,1,0-4.4h10.774a2.2,2.2,0,1,1,0,4.4Zm0,0" transform="translate(-254.363 -161.581)" fill="#9cc6db"/>
        <path id="Trazado_612637" data-name="Trazado 612637" d="M294.121,190.711H256.562a2.2,2.2,0,0,1,0-4.4h37.558a2.2,2.2,0,0,1,0,4.4Zm0,0" transform="translate(-254.363 -174.828)" fill="#9cc6db"/>
        <path id="Trazado_612638" data-name="Trazado 612638" d="M256.573,150.355a2.2,2.2,0,0,1-.037-4.4h.037a2.2,2.2,0,0,1,.013,4.4Zm0,0" transform="translate(-254.363 -145.957)" fill="#9cc6db"/>
      </g>
      <path id="Trazado_612639" data-name="Trazado 612639" d="M204.345,242.094a5.325,5.325,0,1,1-5.325-5.325,5.326,5.326,0,0,1,5.325,5.325Zm0,0" transform="translate(-138.57 -169.385)" fill="#1b3f5e"/>
      <path id="Trazado_612640" data-name="Trazado 612640" d="M267.336,253.811H256.562a2.2,2.2,0,1,1,0-4.4h10.774a2.2,2.2,0,1,1,0,4.4Zm0,0" transform="translate(-181.972 -178.431)" fill="#9cc6db"/>
      <path id="Trazado_612641" data-name="Trazado 612641" d="M294.121,272.328H256.562a2.2,2.2,0,0,1,0-4.4h37.558a2.2,2.2,0,0,1,0,4.4Zm0,0" transform="translate(-181.972 -191.677)" fill="#9cc6db"/>
      <path id="Trazado_612642" data-name="Trazado 612642" d="M256.573,231.972a2.2,2.2,0,0,1-.037-4.4h.037a2.2,2.2,0,0,1,.013,4.4Zm0,0" transform="translate(-181.972 -162.806)" fill="#9cc6db"/>
      <path id="Trazado_612643" data-name="Trazado 612643" d="M204.345,323.712a5.325,5.325,0,1,1-5.325-5.325A5.326,5.326,0,0,1,204.345,323.712Zm0,0" transform="translate(-138.57 -227.774)" fill="#1b3f5e"/>
      <path id="Trazado_612644" data-name="Trazado 612644" d="M267.336,335.429H256.562a2.2,2.2,0,0,1,0-4.4h10.774a2.2,2.2,0,0,1,0,4.4Zm0,0" transform="translate(-181.972 -236.82)" fill="#9cc6db"/>
      <path id="Trazado_612645" data-name="Trazado 612645" d="M294.121,353.948H256.562a2.2,2.2,0,1,1,0-4.4h37.558a2.2,2.2,0,1,1,0,4.4Zm0,0" transform="translate(-181.972 -250.069)" fill="#9cc6db"/>
      <path id="Trazado_612646" data-name="Trazado 612646" d="M256.573,313.59a2.2,2.2,0,0,1-.037-4.4h.037a2.2,2.2,0,0,1,.013,4.4Zm0,0" transform="translate(-181.972 -221.196)" fill="#9cc6db"/>
      <path id="Trazado_612647" data-name="Trazado 612647" d="M253.47,61.465h-53.5a2.932,2.932,0,0,1-2.932-2.933V51.642a2.932,2.932,0,0,1,2.932-2.932h53.5a2.931,2.931,0,0,1,2.932,2.932v6.889A2.932,2.932,0,0,1,253.47,61.465Zm0,0" transform="translate(-140.962 -34.848)" fill="#3b5620"/>
      <path id="Trazado_612648" data-name="Trazado 612648" d="M142.223,270.52l9.441,4.694a1.3,1.3,0,0,0,1.8-1.614l-3.656-9.889Zm0,0" transform="translate(-101.747 -188.659)" fill="#4e7693"/>
      <path id="Trazado_612649" data-name="Trazado 612649" d="M38.447,156.87.555,114.686a2.165,2.165,0,0,1,.163-3.057l6.03-5.416a2.165,2.165,0,0,1,3.057.165L47.7,148.56a2.163,2.163,0,0,1-.165,3.057L41.5,157.034a2.164,2.164,0,0,1-3.057-.163Zm0,0" transform="translate(0 -75.588)" fill="#c0ff66"/>
      <path id="Trazado_612650" data-name="Trazado 612650" d="M38.447,165.071.555,122.887a2.165,2.165,0,0,1,.163-3.057l3.015-2.708,40.784,45.4L41.5,165.234a2.164,2.164,0,0,1-3.057-.163Zm0,0" transform="translate(0 -83.789)" fill="#9be058"/>
      <path id="Trazado_612651" data-name="Trazado 612651" d="M4.661,119.256l-4.1-4.568a2.165,2.165,0,0,1,.165-3.057l6.029-5.416a2.164,2.164,0,0,1,3.057.163l4.1,4.569Zm0,0" transform="translate(-0.002 -75.589)" fill="#fd82ac"/>
    </g>
  </g>
</svg>
