<svg xmlns="http://www.w3.org/2000/svg" width="154.916" height="157.253" viewBox="0 0 154.916 157.253">
  <g id="Grupo_1066785" data-name="Grupo 1066785" transform="translate(-445.084 -11166.854)">
    <g id="comienzo" transform="translate(445.084 11166.854)">
      <path id="Trazado_612652" data-name="Trazado 612652" d="M441.032,66.575,427.005,71.25V48.579L441.032,43.9Z" transform="translate(-297.026 -30.419)" fill="#e2dfe3"/>
      <path id="Trazado_612653" data-name="Trazado 612653" d="M53.353,71.25,39.326,66.575V43.9l14.027,4.676Z" transform="translate(-28.417 -30.419)" fill="#e2dfe3"/>
      <path id="Trazado_612654" data-name="Trazado 612654" d="M3.806,155.071V5.455a5.455,5.455,0,1,1,10.909,0V155.071a2.182,2.182,0,0,1-2.182,2.182H5.988A2.182,2.182,0,0,1,3.806,155.071Z" transform="translate(-3.806 0)" fill="#655e67"/>
      <path id="Trazado_612655" data-name="Trazado 612655" d="M472.674,155.071V5.455a5.455,5.455,0,0,1,10.909,0V155.071a2.182,2.182,0,0,1-2.182,2.182h-6.546A2.182,2.182,0,0,1,472.674,155.071Z" transform="translate(-328.668 0)" fill="#655e67"/>
      <path id="Trazado_612656" data-name="Trazado 612656" d="M190.038,23.289a3.115,3.115,0,0,0-3.629-3.074,297.377,297.377,0,0,1-48.893,4.047,297.346,297.346,0,0,1-48.883-4.046,3.12,3.12,0,0,0-3.639,3.073V63.723a3.114,3.114,0,0,0,2.587,3.072,297.349,297.349,0,0,0,49.935,4.223A297.375,297.375,0,0,0,187.441,66.8a3.121,3.121,0,0,0,2.6-3.075Z" transform="translate(-60.059 -13.976)" fill="#dd636e"/>
      <g id="Grupo_1015807" data-name="Grupo 1015807" transform="translate(119.841 6.196)">
        <path id="Trazado_612657" data-name="Trazado 612657" d="M400.5,20.215c-2.107.351-4.283.687-6.509,1.008a3.092,3.092,0,0,1,.787,2.066V67.866q3.334-.489,6.754-1.069a3.121,3.121,0,0,0,2.6-3.075V23.289a3.115,3.115,0,0,0-3.629-3.074Z" transform="translate(-393.995 -20.172)" fill="#da4a54"/>
      </g>
      <g id="Grupo_1015808" data-name="Grupo 1015808" transform="translate(31.401 18.931)">
        <path id="Trazado_612658" data-name="Trazado 612658" d="M231.9,63.441c-.008-.021-.016-.042-.025-.063a2.8,2.8,0,0,0-2.6-1.74h0a2.8,2.8,0,0,0-2.6,1.744c-.007.018-.014.035-.021.053l-7.772,20.408a2.338,2.338,0,0,0,4.369,1.664l1.362-3.577h9.261l1.347,3.57a2.338,2.338,0,0,0,4.374-1.651Zm-5.5,13.814,2.871-7.538,2.845,7.538Z" transform="translate(-184.126 -61.638)" fill="#fff"/>
        <path id="Trazado_612659" data-name="Trazado 612659" d="M118.2,72.3c-2.581-.952-4.982-1.991-5.677-2.3a1.679,1.679,0,0,1-.626-1.6,2.319,2.319,0,0,1,1.822-1.862c3.055-.92,5.861,1.311,5.927,1.363a2.338,2.338,0,0,0,3-3.588c-.191-.161-4.747-3.915-10.272-2.252a7.034,7.034,0,0,0-5.1,5.675,6.332,6.332,0,0,0,2.824,6.268,2.318,2.318,0,0,0,.324.177c.119.053,2.962,1.319,6.165,2.5.967.357,3.181,1.372,2.873,3.1-.225,1.258-1.73,2.559-3.862,2.559a7.458,7.458,0,0,1-5.481-2.3,2.338,2.338,0,1,0-3.464,3.14,12.2,12.2,0,0,0,8.945,3.836c4.241,0,7.8-2.7,8.464-6.413C124.559,77.814,123.281,74.169,118.2,72.3Z" transform="translate(-106.046 -61.639)" fill="#fff"/>
        <path id="Trazado_612660" data-name="Trazado 612660" d="M186.748,63.977a2.337,2.337,0,0,0-2.338-2.338H172.98a2.338,2.338,0,0,0,0,4.675h3.355V84.675a2.338,2.338,0,1,0,4.675,0V66.314h3.4a2.337,2.337,0,0,0,2.338-2.338Z" transform="translate(-150.802 -61.639)" fill="#fff"/>
        <path id="Trazado_612661" data-name="Trazado 612661" d="M367.282,61.638H355.851a2.338,2.338,0,1,0,0,4.675h3.355V84.674a2.338,2.338,0,1,0,4.676,0V66.314h3.4a2.338,2.338,0,1,0,0-4.676Z" transform="translate(-277.507 -61.638)" fill="#fff"/>
        <path id="Trazado_612662" data-name="Trazado 612662" d="M312.342,69.355a7.883,7.883,0,0,0-8.021-7.717h-5.507a2.338,2.338,0,0,0-2.338,2.338v20.7a2.338,2.338,0,1,0,4.676,0v-6.52l7.1,8.065a2.338,2.338,0,0,0,3.51-3.089l-5.528-6.281A7.8,7.8,0,0,0,312.342,69.355ZM304.32,72.4c-.728,0-2.012.006-3.158.011,0-1.113.009-2.348.009-3.053,0-.6,0-1.878-.006-3.042h3.156a3.056,3.056,0,1,1,0,6.083Z" transform="translate(-237.987 -61.638)" fill="#fff"/>
      </g>
    </g>
  </g>
</svg>
