<svg xmlns="http://www.w3.org/2000/svg" width="140.19" height="165.822" viewBox="0 0 140.19 165.822">
  <g id="Grupo_1066786" data-name="Grupo 1066786" transform="translate(-1060.65 -11426)">
    <g id="Layer_2" data-name="Layer 2" transform="translate(1060.65 11426)">
      <g id="Layer_1" data-name="Layer 1">
        <g id="development">
          <path id="Trazado_612663" data-name="Trazado 612663" d="M1.021,78.094C14.59,56.929,14.855,51.557,14.855,51.557,21.672,2.511,58.822,1.439,73.008,1.527c7.787,0,55.467,2.018,55.695,50.851.33,40.885-15.911,45.751-21.657,58.381a62.131,62.131,0,0,0-3.992,33.7,6.04,6.04,0,0,1-2.936,6.179,67.819,67.819,0,0,1-53.794-.066,6.987,6.987,0,0,1-3.354-6.04V126.34c-.1-2.936-3.9-2.994-5.512-2.987-5.666.205-20.74,0-22.45-7.155a113.891,113.891,0,0,1,.22-24.38A98.943,98.943,0,0,1,3.112,86.071a5.328,5.328,0,0,1-2.092-7.977Z" transform="translate(-0.002 9.655)" fill="#f7bb7a"/>
          <path id="Trazado_612664" data-name="Trazado 612664" d="M100.613,42.563H94.125a37.428,37.428,0,0,0-2.312-8.5l5.666-3.28c3.207-1.886-1.035-5.959-2.759-9.614-1.849-3.266-6.194,1.167-8.946,2.385a42.03,42.03,0,0,0-6.223-6.187L82.823,11.7c1.857-3.325-4.066-4.763-7.192-6.928-3.2-1.974-4.807,4.051-6.605,6.488a39.2,39.2,0,0,0-8.469-2.2V2.464c0-3.669-5.79-2.055-9.724-2.385-3.706.044-2.1,5.629-2.422,8.946a39.087,39.087,0,0,0-8.469,2.2C38.027,8.562,36.574,2.8,33.337,4.739c-3.229,2.2-8.968,3.559-7.192,6.928l3.28,5.673a40.1,40.1,0,0,0-6.187,6.187l-5.666-3.28c-3.251-1.827-4.675,3.97-6.921,7.273-1.82,3.17,4.066,4.726,6.568,6.554a39.8,39.8,0,0,0-2.312,8.491H8.385c-3.772.044-2.128,5.592-2.459,9.695,0,3.669,5.871,2.055,8.983,2.385a39.983,39.983,0,0,0,2.275,8.506l-5.666,3.273c-3.207,1.9,1.027,5.952,2.759,9.621,1.959,3.178,6.011-1.042,8.983-2.385a40.753,40.753,0,0,0,6.187,6.187c-1.248,2.825-5.578,7.009-2.385,9.02l6.3,3.669c3.339,1.659,4.587-3.743,6.605-6.561a40.364,40.364,0,0,0,8.469,2.2v6.554c0,3.669,5.805,2.062,9.724,2.392,3.706,0,2.092-5.636,2.422-8.946a40.51,40.51,0,0,0,8.469-2.2c1.879,2.591,3.273,8.256,6.605,6.561l6.3-3.669c3.192-2-1.064-6.069-2.385-9.02A42.75,42.75,0,0,0,85.8,73.658l5.629,3.273c3.251,1.835,4.792-4.11,6.972-7.229,1.835-3.185-4.08-4.748-6.561-6.554a37.6,37.6,0,0,0,2.312-8.506c2.987-.33,8.946,1.284,8.946-2.385-.36-4.1,1.3-9.695-2.481-9.695Z" transform="translate(37.034 0)" fill="#3b5620"/>
          <path id="Trazado_612665" data-name="Trazado 612665" d="M31.858,48.451A22.442,22.442,0,1,1,54.3,26.008,22.442,22.442,0,0,1,31.858,48.451Z" transform="translate(59.671 22.602)" fill="#f7bb7a"/>
        </g>
      </g>
    </g>
  </g>
</svg>
