<svg xmlns="http://www.w3.org/2000/svg" width="157.605" height="160.365" viewBox="0 0 157.605 160.365">
  <g id="Grupo_1066788" data-name="Grupo 1066788" transform="translate(-1060.65 -11965.959)">
    <g id="datos" transform="translate(1060.65 11965.959)">
      <path id="Trazado_610416" data-name="Trazado 610416" d="M15.469,0H126.052A11.059,11.059,0,0,1,137.11,11.058V99.525a11.059,11.059,0,0,1-11.058,11.058H15.469A11.059,11.059,0,0,1,4.411,99.525V11.058A11.057,11.057,0,0,1,15.469,0Z" transform="translate(-4.411)" fill="#87ced9"/>
      <g id="Grupo_1015477" data-name="Grupo 1015477" transform="translate(8.293 8.294)">
        <rect id="Rectángulo_347826" data-name="Rectángulo 347826" width="5.529" height="5.529" fill="#4398d1"/>
        <rect id="Rectángulo_347827" data-name="Rectángulo 347827" width="5.529" height="5.529" transform="translate(11.059)" fill="#4398d1"/>
        <rect id="Rectángulo_347828" data-name="Rectángulo 347828" width="5.529" height="5.529" transform="translate(22.117)" fill="#4398d1"/>
        <path id="Trazado_610417" data-name="Trazado 610417" d="M68.435,70.621H179.018a11.059,11.059,0,0,1,11.058,11.058v88.467A11.059,11.059,0,0,1,179.018,181.2H68.435a11.059,11.059,0,0,1-11.058-11.058V81.679A11.057,11.057,0,0,1,68.435,70.621Z" transform="translate(-49.083 -56.798)" fill="#1b3f5e"/>
      </g>
      <path id="Trazado_610418" data-name="Trazado 610418" d="M232.718,70.621H219.583c-19.814,63.085-57.755,94.969-84.021,110.583h97.156a11.059,11.059,0,0,0,11.058-11.058V81.679A11.059,11.059,0,0,0,232.718,70.621Z" transform="translate(-94.489 -48.504)" fill="#15324b"/>
      <g id="Grupo_1015478" data-name="Grupo 1015478" transform="translate(24.881 30.41)">
        <rect id="Rectángulo_347829" data-name="Rectángulo 347829" width="5.529" height="5.529" fill="#87ced9"/>
        <rect id="Rectángulo_347830" data-name="Rectángulo 347830" width="5.529" height="5.529" transform="translate(11.058)" fill="#87ced9"/>
        <rect id="Rectángulo_347831" data-name="Rectángulo 347831" width="5.529" height="5.529" transform="translate(22.117)" fill="#87ced9"/>
      </g>
      <g id="Grupo_1015479" data-name="Grupo 1015479" transform="translate(24.881 41.469)">
        <rect id="Rectángulo_347832" data-name="Rectángulo 347832" width="116.112" height="5.529" transform="translate(0 69.114)" fill="#3685ba"/>
        <rect id="Rectángulo_347833" data-name="Rectángulo 347833" width="5.529" height="16.588" transform="translate(5.529 46.998)" fill="#3685ba"/>
        <rect id="Rectángulo_347834" data-name="Rectángulo 347834" width="5.529" height="33.175" transform="translate(16.587 30.41)" fill="#3685ba"/>
        <rect id="Rectángulo_347835" data-name="Rectángulo 347835" width="5.529" height="24.881" transform="translate(27.646 38.704)" fill="#3685ba"/>
        <rect id="Rectángulo_347836" data-name="Rectángulo 347836" width="5.529" height="44.233" transform="translate(38.704 19.352)" fill="#3685ba"/>
        <rect id="Rectángulo_347837" data-name="Rectángulo 347837" width="5.529" height="49.763" transform="translate(49.763 13.823)" fill="#3685ba"/>
        <rect id="Rectángulo_347838" data-name="Rectángulo 347838" width="5.529" height="19.352" transform="translate(60.821 16.587)" fill="#3685ba"/>
        <rect id="Rectángulo_347839" data-name="Rectángulo 347839" width="5.529" height="30.41" transform="translate(71.879 5.529)" fill="#3685ba"/>
        <rect id="Rectángulo_347840" data-name="Rectángulo 347840" width="5.529" height="35.94" transform="translate(82.937)" fill="#3685ba"/>
        <rect id="Rectángulo_347841" data-name="Rectángulo 347841" width="5.529" height="52.527" transform="translate(93.996 11.058)" fill="#3685ba"/>
        <rect id="Rectángulo_347842" data-name="Rectángulo 347842" width="5.529" height="41.469" transform="translate(105.054 22.116)" fill="#3685ba"/>
      </g>
      <rect id="Rectángulo_347843" data-name="Rectángulo 347843" width="11.73" height="46.917" transform="translate(157.605 152.071) rotate(135)" fill="#fdb62f"/>
      <rect id="Rectángulo_347844" data-name="Rectángulo 347844" width="11.73" height="15.639" transform="translate(135.467 129.944) rotate(135)" fill="#fa962a"/>
      <circle id="Elipse_5632" data-name="Elipse 5632" cx="35.94" cy="35.94" r="35.94" transform="translate(63.585 69.114)" fill="#fdb62f"/>
      <circle id="Elipse_5633" data-name="Elipse 5633" cx="24.881" cy="24.881" r="24.881" transform="translate(74.644 80.173)" fill="#295b85"/>
      <g id="Grupo_1015480" data-name="Grupo 1015480" transform="translate(74.644 80.172)">
        <path id="Trazado_610419" data-name="Trazado 610419" d="M244.795,353.1a24.558,24.558,0,0,0,1.98,5.529H291.3a24.579,24.579,0,0,0,1.98-5.529Z" transform="translate(-244.156 -322.692)" fill="#4398d1"/>
        <path id="Trazado_610420" data-name="Trazado 610420" d="M318.905,280.88V256.162a23.424,23.424,0,0,0-5.529,0V280.88Z" transform="translate(-291.26 -255.998)" fill="#4398d1"/>
        <path id="Trazado_610421" data-name="Trazado 610421" d="M283.6,284.052V260.617a24.754,24.754,0,0,0-5.529,2.751v20.685Z" transform="translate(-267.008 -259.171)" fill="#4398d1"/>
        <path id="Trazado_610422" data-name="Trazado 610422" d="M354.216,284.052V263.368a24.747,24.747,0,0,0-5.529-2.751v23.435Z" transform="translate(-315.512 -259.171)" fill="#4398d1"/>
        <path id="Trazado_610423" data-name="Trazado 610423" d="M248.285,285.564a24.764,24.764,0,0,0-5.529,15.623h5.529Z" transform="translate(-242.756 -276.305)" fill="#4398d1"/>
        <path id="Trazado_610424" data-name="Trazado 610424" d="M384,301.186h5.529A24.767,24.767,0,0,0,384,285.563Z" transform="translate(-339.764 -276.304)" fill="#4398d1"/>
      </g>
    </g>
  </g>
</svg>
