<svg xmlns="http://www.w3.org/2000/svg" width="505" height="293.253" viewBox="0 0 505 293.253">
  <g id="Grupo_1066791" data-name="Grupo 1066791" transform="translate(-915 -14833)">
    <g id="Group_51_1_" data-name="Group 51 (1)" transform="translate(927.945 14833)">
      <path id="Trazado_612831" data-name="Trazado 612831" d="M37.084,317.071l434.185.1c10.739-23.747,20.7-48.533,22.05-74.5,2.2-42.474-18.148-77.564-57.006-95.744-17.8-8.326-37.863-12.266-53.9-24.029-5.986-4.39-10.676-10.07-15.379-15.725-25.847-31.081-62.629-55.1-103.553-61.782-27.087-4.422-55.648-1.372-78.347,14.894-21.242,15.222-32.692,39.908-45.117,61.911-3.451,6.11-7.16,12.272-12.62,16.735-10.848,8.868-22.786,6.047-35.576,5.759C54.271,143.848,19,170.531,6.836,205.356-6.454,243.407-1.148,287.663,29.66,312.294,32.2,314.324,34.354,315.3,37.084,317.071Z" transform="translate(-7.838 -26.373)" fill="#f7f7f7"/>
      <g id="Grupo_1015817" data-name="Grupo 1015817" transform="translate(-12.945 29.487)">
        <path id="Trazado_612832" data-name="Trazado 612832" d="M1021.837,454.1s-29.9,40.256-26.059,73.045c0,0,1.456-60.963-4.127-82.64,0,0-17.217,40.175-13.71,64.717,0,0-14.606-35.689-38.731-49.416,0,0,7.717,56.87,28.315,74.145,0,0-25.278-32.4-61.781-43.281,0,0,2.416,32.033,39.276,46.495,0,0-25.625-9.351-72.38-5.525,0,0,15.727,23.573,45.479,28.362h106.261s10.211-86.108-2.549-105.9Z" transform="translate(-523.25 -298.621)" fill="#fff"/>
        <path id="Trazado_612833" data-name="Trazado 612833" d="M-12.945,543.677s24.86,14.621,42.05,37.858c0,0-20.628-42.353-4.761-76.2,0,0,15.867,45.224,16.4,71.142,0,0-3.515-43.638,22.31-62.68,0,0-1.5,37.427-6.791,56.067,0,0,10.031-32.209,48.432-37.527,0,0-16.372,35.71-32.622,45.875,0,0,12.572-12.579,51.714-15.753,0,0-14.706,23.512-43.209,25.025,0,0,36.068-4.926,55.111,11.736H21.7S-6.6,563.778-12.945,543.677Z" transform="translate(12.945 -335.448)" fill="#d1d1d1"/>
        <path id="Trazado_612834" data-name="Trazado 612834" d="M646.338,131.429V324.6H453.427V74.739H646.338Z" transform="translate(-269.428 -74.739)" fill="#d1d1d1"/>
      </g>
      <path id="Trazado_612835" data-name="Trazado 612835" d="M622.813,0H427.249V272.709H622.813Z" transform="translate(-266.524)" fill="#e8e8e8"/>
      <path id="Trazado_612836" data-name="Trazado 612836" d="M536.323,109.65H467.155V43.893h69.169Zm-62.7-6.469h56.229V50.363H473.624Z" transform="translate(-290.685 -26.576)" fill="#fff"/>
      <path id="Trazado_612837" data-name="Trazado 612837" d="M526.262,64.179l38.21-38.211L575,36.5,536.789,74.708,526.262,85.234,515.734,74.708,501.151,60.125,511.679,49.6Z" transform="translate(-311.269 -15.723)" fill="#354d1d"/>
      <path id="Trazado_612838" data-name="Trazado 612838" d="M762.821,80.2H688.505a.171.171,0,0,0-.171.17V90.516a.171.171,0,0,0,.171.17h74.316a.17.17,0,0,0,.17-.17V80.375A.17.17,0,0,0,762.821,80.2Z" transform="translate(-424.603 -48.561)" fill="#fff"/>
      <path id="Trazado_612839" data-name="Trazado 612839" d="M762.821,127.229H688.505a.171.171,0,0,0-.171.17v10.142a.171.171,0,0,0,.171.17h74.316a.171.171,0,0,0,.17-.17V127.4A.17.17,0,0,0,762.821,127.229Z" transform="translate(-424.603 -77.033)" fill="#fff"/>
      <path id="Trazado_612840" data-name="Trazado 612840" d="M730.241,174.253H688.463a.129.129,0,0,0-.128.128v10.226a.128.128,0,0,0,.128.128h41.778a.128.128,0,0,0,.128-.128V174.381A.128.128,0,0,0,730.241,174.253Z" transform="translate(-424.603 -105.505)" fill="#fff"/>
      <path id="Trazado_612841" data-name="Trazado 612841" d="M536.323,326.794H467.155V261.037h69.169Zm-62.7-6.469h56.229V267.508H473.624Z" transform="translate(-290.685 -158.05)" fill="#fff"/>
      <path id="Trazado_612842" data-name="Trazado 612842" d="M762.821,297.353H688.505a.171.171,0,0,0-.171.17v10.142a.171.171,0,0,0,.171.17h74.316a.17.17,0,0,0,.17-.17V297.523A.17.17,0,0,0,762.821,297.353Z" transform="translate(-424.603 -180.038)" fill="#fff"/>
      <path id="Trazado_612843" data-name="Trazado 612843" d="M762.821,344.373H688.505a.171.171,0,0,0-.171.17v10.142a.171.171,0,0,0,.171.17h74.316a.171.171,0,0,0,.17-.17V344.543A.17.17,0,0,0,762.821,344.373Z" transform="translate(-424.603 -208.507)" fill="#fff"/>
      <path id="Trazado_612844" data-name="Trazado 612844" d="M730.241,391.4H688.463a.129.129,0,0,0-.128.128v10.226a.128.128,0,0,0,.128.128h41.778a.128.128,0,0,0,.128-.128V391.525A.128.128,0,0,0,730.241,391.4Z" transform="translate(-424.603 -236.978)" fill="#fff"/>
      <path id="Trazado_612845" data-name="Trazado 612845" d="M536.323,543.942H467.155V478.185h69.169Zm-62.7-6.469h56.229V484.656H473.624Z" transform="translate(-290.685 -289.526)" fill="#fff"/>
      <path id="Trazado_612846" data-name="Trazado 612846" d="M762.821,514.5H688.505a.171.171,0,0,0-.171.17v10.142a.171.171,0,0,0,.171.17h74.316a.17.17,0,0,0,.17-.17V514.667A.17.17,0,0,0,762.821,514.5Z" transform="translate(-424.603 -311.512)" fill="#fff"/>
      <path id="Trazado_612847" data-name="Trazado 612847" d="M762.821,561.521H688.505a.171.171,0,0,0-.171.17v10.142a.17.17,0,0,0,.171.17h74.316a.17.17,0,0,0,.17-.17V561.691A.17.17,0,0,0,762.821,561.521Z" transform="translate(-424.603 -339.983)" fill="#fff"/>
      <path id="Trazado_612848" data-name="Trazado 612848" d="M730.241,608.545H688.463a.129.129,0,0,0-.128.128V618.9a.128.128,0,0,0,.128.128h41.778a.128.128,0,0,0,.128-.128V608.673A.128.128,0,0,0,730.241,608.545Z" transform="translate(-424.603 -368.455)" fill="#fff"/>
      <path id="Trazado_612849" data-name="Trazado 612849" d="M149.073,662.8l-1.55,3.456L158.867,677.9a6.728,6.728,0,0,1,1.322,7.446l-33.374-14.961,6.555-14.623,15.706,7.04Z" transform="translate(-84.62 -397.042)" fill="#2d4218"/>
      <path id="Trazado_612850" data-name="Trazado 612850" d="M151.258,681.725a3.043,3.043,0,1,1-1.532-4.021A3.043,3.043,0,0,1,151.258,681.725Z" transform="translate(-95.896 -410.167)" fill="#373660"/>
      <path id="Trazado_612851" data-name="Trazado 612851" d="M178.874,685.919l-2.147,1.771a1.073,1.073,0,0,0,1.339,1.676l2.383-1.835-1.575-1.615Z" transform="translate(-114.604 -415.301)" fill="#373660"/>
      <path id="Trazado_612852" data-name="Trazado 612852" d="M185.885,693.136l-2.147,1.771a1.073,1.073,0,0,0,1.339,1.676l2.383-1.835-1.575-1.615Z" transform="translate(-118.849 -419.671)" fill="#373660"/>
      <path id="Trazado_612853" data-name="Trazado 612853" d="M193.823,701.273l-2.147,1.771a1.073,1.073,0,0,0,1.339,1.676l2.383-1.835-1.575-1.615Z" transform="translate(-123.655 -424.597)" fill="#373660"/>
      <path id="Trazado_612854" data-name="Trazado 612854" d="M125.118,692.765l-1.111,2.478L157.383,710.2l1.11-2.478Z" transform="translate(-82.92 -419.447)" fill="#373660"/>
      <path id="Trazado_612855" data-name="Trazado 612855" d="M198.283,406.027H161.089l-5.794,50.008a50.666,50.666,0,0,1-4.768,16.336L134.64,505.049l24.088,8.85L173.8,476.447a26.067,26.067,0,0,0,1.835-8.138l3.012-49.361.6,98.908h24.053l-5.007-111.83Z" transform="translate(-89.358 -245.835)" fill="#3b5620"/>
      <path id="Trazado_612856" data-name="Trazado 612856" d="M272.3,689.481v3.787l15.112,5.982a6.728,6.728,0,0,1,4.251,6.254H255.085V689.481Z" transform="translate(-162.284 -417.459)" fill="#2d4218"/>
      <path id="Trazado_612857" data-name="Trazado 612857" d="M274.27,708.3a3.042,3.042,0,1,0-3.655,2.269A3.042,3.042,0,0,0,274.27,708.3Z" transform="translate(-170.265 -426.593)" fill="#373660"/>
      <path id="Trazado_612858" data-name="Trazado 612858" d="M301.26,700.91l-1.234,2.5a1.073,1.073,0,0,0,1.907.984l1.425-2.648-2.1-.829Z" transform="translate(-189.427 -424.379)" fill="#373660"/>
      <path id="Trazado_612859" data-name="Trazado 612859" d="M310.61,704.63l-1.234,2.5a1.073,1.073,0,0,0,1.907.984l1.425-2.648-2.1-.83Z" transform="translate(-195.088 -426.631)" fill="#373660"/>
      <path id="Trazado_612860" data-name="Trazado 612860" d="M321.18,708.8l-1.234,2.5a1.073,1.073,0,0,0,1.907.984l1.425-2.649-2.1-.829Z" transform="translate(-201.487 -429.158)" fill="#373660"/>
      <path id="Trazado_612861" data-name="Trazado 612861" d="M291.659,730.1H255.085v2.715h36.574Z" transform="translate(-162.284 -442.052)" fill="#373660"/>
      <path id="Trazado_612862" data-name="Trazado 612862" d="M245.895,212.254c-3.866.782-6.014,6.291-4.8,12.305l1.07,5.291a35.563,35.563,0,0,1,.7,6.381l.146,7.738,8.925-1.837-1.64-8.1c3.866-.782,6.014-6.292,4.8-12.305s-5.337-10.256-9.2-9.474Z" transform="translate(-153.609 -128.456)" fill="#ffd1c1"/>
      <g id="Grupo_1015818" data-name="Grupo 1015818" transform="translate(90.817 88.206)">
        <path id="Trazado_612863" data-name="Trazado 612863" d="M261.02,230.078s-5.722-4.318-10.535-3.344l-.429-3.161,10.913,1.318s1.053,4.288.051,5.186" transform="translate(-250.056 -223.572)" fill="#ffb2a0"/>
      </g>
      <path id="Trazado_612864" data-name="Trazado 612864" d="M256.7,262.668s-2.879.144-5.374-3.212c0,0,1.615,5.068,5.654,4.592Z" transform="translate(-160.007 -157.092)" fill="#ffb2a0"/>
      <path id="Trazado_612865" data-name="Trazado 612865" d="M238.971,297.6l-16.1-15a22.114,22.114,0,0,0-15.078-5.938H193.153c-.174,0-.35,0-.524.007A19.317,19.317,0,0,0,175.6,288.054L167.7,305.4l12.349,7.419-1.815,14.88h42.8l-1.921-21.64,6.313,6.376L238.969,297.6Z" transform="translate(-109.372 -167.508)" fill="#3b5620"/>
      <g id="Grupo_1015819" data-name="Grupo 1015819" transform="translate(54.932 126.153)">
        <path id="Trazado_612866" data-name="Trazado 612866" d="M165.42,319.754s9.151,15.748,9.982,14.75,3.993-13.975,3.993-13.975l36.931,36.766-3.034.993h-50.8L159.1,330.346l6.321-10.59Z" transform="translate(-159.099 -319.754)" fill="#2f4419"/>
      </g>
      <path id="Trazado_612867" data-name="Trazado 612867" d="M247.448,202.151c-4.938-2.488-8.418,2.907-8.418,2.907-3.722.185-4.678,2.366-5,4.659s4.082,13.816,4.082,13.816l.573-5.272a2.649,2.649,0,0,1-.722-1.39c-.23-1.14.213-2.193.991-2.349s1.6.64,1.826,1.78c.019.1.032.19.042.285l.054-.037c.747-.5.6-5.235.6-5.235l15.1.394s-3.494-6.715-9.126-9.555Z" transform="translate(-149.526 -121.999)" fill="#373660"/>
      <path id="Trazado_612868" data-name="Trazado 612868" d="M196.9,254.815,138.33,196.244,122.194,212.38l58.572,58.573L196.9,287.09l16.136-16.136L235.393,248.6l-16.138-16.136Z" transform="translate(-81.823 -118.82)" fill="#354d1d"/>
      <g id="Grupo_1015820" data-name="Grupo 1015820" transform="translate(87.148 137.988)">
        <path id="Trazado_612869" data-name="Trazado 612869" d="M330.149,390.181s1.633-7.708,2.727-8.62,7.933-2.935,7.933-2.935-4.191,8.819-5.332,9.273-5.327,2.281-5.327,2.281" transform="translate(-294.88 -367.234)" fill="#839571"/>
        <path id="Trazado_612870" data-name="Trazado 612870" d="M240.755,353.7s15.475-.009,16.117-.278c.675-.284,4.724-4.863,5.13-3.376.251.924-.847,2.523.55,2.319s7.267-1.717,7.267-1.717-5.009,9.942-7,10.674-11.718,4.336-11.908,4.124S240.757,353.7,240.757,353.7Z" transform="translate(-240.755 -349.751)" fill="#839571"/>
      </g>
      <path id="Trazado_612871" data-name="Trazado 612871" d="M175.938,357.373,164.427,350.6l-2.263,7.592s-3.2,10.567,1.547,14.277c4.835,3.782,47.693-11.444,47.693-11.444l.559-5.8-36.023,2.147Z" transform="translate(-105.385 -212.28)" fill="#ffd1c1"/>
      <g id="Grupo_1015821" data-name="Grupo 1015821" transform="translate(55.724 135.578)">
        <path id="Trazado_612872" data-name="Trazado 612872" d="M175.937,353.158l-14.829,1.111,3.655-10.627Z" transform="translate(-161.108 -343.642)" fill="#ffb2a0"/>
      </g>
      <path id="Trazado_612873" data-name="Trazado 612873" d="M281.162,355.366s4.265-6.058,4.673-5.044-.594,1.385-.438,2.559c.26,1.953,10-3.137,10.316-2.464s-1.16,8.572-2.75,9.421c-4.065,2.168-12.845,1.721-12.845,1.721l1.046-6.195Z" transform="translate(-177.44 -212.04)" fill="#ffd1c1"/>
      <path id="Trazado_612874" data-name="Trazado 612874" d="M345.986,377.575s-7.261,2.237-7.961,3.035-1.622,6.548-1.473,6.4,4.807-2.2,6-3.2S345.986,377.575,345.986,377.575Z" transform="translate(-211.6 -228.61)" fill="#ffd1c1"/>
      <path id="Trazado_612875" data-name="Trazado 612875" d="M1051.285,218.276s7.875-.441,9.5,9.583a105.947,105.947,0,0,1,1.622,14.989l-21.766-.415s-.193-14.192,1.622-17.438S1051.285,218.276,1051.285,218.276Z" transform="translate(-637.909 -132.157)" fill="#373660"/>
      <path id="Trazado_612876" data-name="Trazado 612876" d="M1122.569,677.06l1.247,2.784-9.137,9.377a5.417,5.417,0,0,0-1.065,6l26.887-12.052-5.283-11.78-12.653,5.671Z" transform="translate(-681.808 -406.503)" fill="#2d4218"/>
      <path id="Trazado_612877" data-name="Trazado 612877" d="M1155.27,692.3a2.45,2.45,0,1,0,1.235-3.239A2.451,2.451,0,0,0,1155.27,692.3Z" transform="translate(-707.187 -417.077)" fill="#373660"/>
      <path id="Trazado_612878" data-name="Trazado 612878" d="M1135.46,695.683l1.728,1.427a.864.864,0,0,1-1.077,1.352l-1.921-1.478,1.27-1.3Z" transform="translate(-694.554 -421.213)" fill="#373660"/>
      <path id="Trazado_612879" data-name="Trazado 612879" d="M1129.81,701.5l1.728,1.427a.864.864,0,0,1-1.077,1.352l-1.922-1.478,1.27-1.3Z" transform="translate(-691.133 -424.732)" fill="#373660"/>
      <path id="Trazado_612880" data-name="Trazado 612880" d="M1123.42,708.053l1.728,1.427a.864.864,0,0,1-1.077,1.351l-1.921-1.478,1.271-1.3Z" transform="translate(-687.264 -428.702)" fill="#373660"/>
      <path id="Trazado_612881" data-name="Trazado 612881" d="M1141.217,701.348,1114.33,713.4l.9,1.995,26.887-12.05Z" transform="translate(-682.529 -424.644)" fill="#373660"/>
      <path id="Trazado_612882" data-name="Trazado 612882" d="M1020.07,698.554V701.6l-12.175,4.819a5.424,5.424,0,0,0-3.425,5.038h29.464V698.554Z" transform="translate(-616.013 -422.952)" fill="#2d4218"/>
      <path id="Trazado_612883" data-name="Trazado 612883" d="M1058.56,715.641a2.45,2.45,0,1,0-2.45-2.45A2.45,2.45,0,0,0,1058.56,715.641Z" transform="translate(-647.279 -430.331)" fill="#373660"/>
      <path id="Trazado_612884" data-name="Trazado 612884" d="M1037.7,707.761l.994,2.01a.864.864,0,0,1-1.535.793l-1.148-2.134,1.689-.67Z" transform="translate(-635.109 -428.527)" fill="#373660"/>
      <path id="Trazado_612885" data-name="Trazado 612885" d="M1030.169,710.754l.994,2.01a.864.864,0,0,1-1.535.793l-1.148-2.133,1.693-.67Z" transform="translate(-630.55 -430.339)" fill="#373660"/>
      <path id="Trazado_612886" data-name="Trazado 612886" d="M1021.653,714.122l.994,2.011a.866.866,0,0,1-1.539.793l-1.148-2.134,1.693-.669Z" transform="translate(-625.391 -432.378)" fill="#373660"/>
      <path id="Trazado_612887" data-name="Trazado 612887" d="M1033.933,731.276H1004.47v2.186h29.464Z" transform="translate(-616.013 -442.764)" fill="#373660"/>
      <path id="Trazado_612888" data-name="Trazado 612888" d="M1055.789,224.593c3.867.782,6.013,6.292,4.8,12.305l-1.069,5.291a35.377,35.377,0,0,0-.7,6.381l-.146,7.738-8.928-1.837,1.641-8.1c-3.867-.782-6.013-6.291-4.8-12.305s5.338-10.256,9.2-9.474Z" transform="translate(-641.308 -135.927)" fill="#ffd1c1"/>
      <g id="Grupo_1015822" data-name="Grupo 1015822" transform="translate(404.207 90.113)">
        <path id="Trazado_612889" data-name="Trazado 612889" d="M1044.39,239.095c.154-.114,13.043-1.93,13.312-2.4s.189-7.72.189-7.72-1.9-.755-2.549-.525-2.758,6.242-4.02,6.281-6.084-.949-6.2-.23S1044.39,239.095,1044.39,239.095Z" transform="translate(-1044.39 -228.405)" fill="#ffb2a0"/>
      </g>
      <path id="Trazado_612890" data-name="Trazado 612890" d="M1058.84,275.011s2.876.144,5.374-3.213c0,0-1.618,5.069-5.654,4.592Z" transform="translate(-648.762 -164.565)" fill="#ffb2a0"/>
      <path id="Trazado_612891" data-name="Trazado 612891" d="M1054.094,221.2l-1.381,7.863H1037.65s2.34-11.3,12.6-10.811c0,0,3.271.75,3.843,2.951Z" transform="translate(-636.102 -132.135)" fill="#373660"/>
      <path id="Trazado_612892" data-name="Trazado 612892" d="M1082.231,247.1s1.128-2.288,1.819-.412c.88,2.4-2.6,3.713-2.6,3.713l.781-3.3Z" transform="translate(-662.621 -148.915)" fill="#ffd1c1"/>
      <path id="Trazado_612893" data-name="Trazado 612893" d="M1133.979,643.05l-6.474-19.387-14.365,5.121,10.735,18.794Z" transform="translate(-681.809 -377.608)" fill="#ffd1c1"/>
      <g id="Grupo_1015823" data-name="Grupo 1015823" transform="translate(429.919 246.426)">
        <path id="Trazado_612894" data-name="Trazado 612894" d="M1112.886,636.7s11.319-4.244,15.067-7.924l-1.132-4.174-17.261,5.871,3.326,6.224Z" transform="translate(-1109.56 -624.603)" fill="#ffb2a0"/>
      </g>
      <path id="Trazado_612895" data-name="Trazado 612895" d="M1054.8,665.458l2.067-20.335-15.2-1.234,2.063,21.544Z" transform="translate(-638.536 -389.855)" fill="#ffd1c1"/>
      <g id="Grupo_1015824" data-name="Grupo 1015824" transform="translate(401.828 253.446)">
        <path id="Trazado_612896" data-name="Trazado 612896" d="M1038.435,651.343a50.43,50.43,0,0,0,17.588-3.866l.075-5.079-17.738.587.075,8.356Z" transform="translate(-1038.36 -642.398)" fill="#ffb2a0"/>
      </g>
      <path id="Trazado_612897" data-name="Trazado 612897" d="M1049.153,344.634l-7.141-43.534a10.3,10.3,0,0,0-6.569-7.99c-1.31,3.114-4.2,4.669-6.589,5.441a9.764,9.764,0,0,1-8.455-1.111,7.772,7.772,0,0,1-3.314-4.434,10.311,10.311,0,0,0-6.932,8.63l-4.75,43s-5.4,40.544-5.393,51.025c.008,6.678,6.139,40.948,6.139,40.948s45.265-2.353,64.388-14.326c0,0-18.468-59.869-21.384-77.648Z" transform="translate(-613.312 -177.406)" fill="#3b5620"/>
      <g id="Grupo_1015825" data-name="Grupo 1015825" transform="translate(389.041 148.117)">
        <path id="Trazado_612898" data-name="Trazado 612898" d="M1058.45,413.911s-24.575-18.512-25.692-18.672-11.153,23.66-12.834,22.742c-4.734-2.583-13.974-7.423-13.974-7.9s15.959-33.3,18.669-34.6,38.779,22.1,38.143,24.681S1058.45,413.911,1058.45,413.911Z" transform="translate(-1005.95 -375.425)" fill="#2f4419"/>
      </g>
      <path id="Trazado_612899" data-name="Trazado 612899" d="M1046.6,296.6a9.764,9.764,0,0,0,8.455,1.111c2.387-.771,5.279-2.327,6.589-5.441a10.276,10.276,0,0,0-3.6-.649H1046.6a10.3,10.3,0,0,0-3.314.545A7.772,7.772,0,0,0,1046.6,296.6Z" transform="translate(-639.517 -176.57)" fill="#ffd1c1"/>
      <g id="Grupo_1015826" data-name="Grupo 1015826" transform="translate(402.728 115.055)">
        <path id="Trazado_612900" data-name="Trazado 612900" d="M1042.849,291.625s1.361,5.492,10.076,6.441c0,0-8.2,3.726-12.286-5.9l2.213-.545Z" transform="translate(-1040.64 -291.625)" fill="#ffb2a0"/>
      </g>
      <path id="Trazado_612901" data-name="Trazado 612901" d="M1047.533,298.881s-3.6,3.88-5.7,2.9-2.876-8.017-2.876-8.017a7.084,7.084,0,0,1,1.708-.761S1043.114,298.143,1047.533,298.881Z" transform="translate(-636.895 -177.406)" fill="#fff"/>
      <path id="Trazado_612902" data-name="Trazado 612902" d="M1068.654,299.11s2.269,4.242,4.892,3.975,5.622-8.7,5.622-8.7a7.947,7.947,0,0,0-2.166-1.118s-1.555,4.351-8.352,5.841Z" transform="translate(-654.872 -177.565)" fill="#fff"/>
      <path id="Trazado_612903" data-name="Trazado 612903" d="M977.658,362.961l-2.273,10.7-12.8,31.063s-6.318,4.929-6.017,5.43,3.5-1.5,4.2,0-4.424,7.806-4.214,8.205,7.116,1.5,8.316,0,3.091-11.2,3.091-11.2l12.98-22.1,4.332-17.705-7.622-4.4Z" transform="translate(-586.999 -219.761)" fill="#ffd1c1"/>
      <g id="Grupo_1015827" data-name="Grupo 1015827" transform="translate(383.21 138.353)">
        <path id="Trazado_612904" data-name="Trazado 612904" d="M996.335,358.672l8.088,7.553S990.575,392.2,991.19,395.867c0,0,20.7-33.379,19.892-34.893s-13.118-10.5-13.627-10.295-1.12,7.992-1.12,7.992Z" transform="translate(-991.171 -350.676)" fill="#ffb2a0"/>
      </g>
      <path id="Trazado_612905" data-name="Trazado 612905" d="M1042.861,313.354l-27.132-15.649,15.651-27.13-17.758-10.242-15.647,27.13-27.131-15.649L960.6,289.569l27.131,15.649-15.65,27.13,17.753,10.242,15.651-27.13,27.132,15.649Z" transform="translate(-589.452 -157.623)" fill="#354d1d"/>
      <g id="Grupo_1015828" data-name="Grupo 1015828" transform="translate(396.806 146.834)">
        <path id="Trazado_612906" data-name="Trazado 612906" d="M1085.59,388.025l20.91-12.917-3.941-2.937L1081.12,386.1Z" transform="translate(-1059.227 -372.172)" fill="#839571"/>
        <path id="Trazado_612907" data-name="Trazado 612907" d="M1037.1,428.231s-3.377,2.72-4.174,2.673-7.3-4.8-7.3-4.8l15.474-3.552Z" transform="translate(-1025.63 -402.677)" fill="#839571"/>
      </g>
      <path id="Trazado_612908" data-name="Trazado 612908" d="M1069.916,330.663,1063.592,313l-7.031,12.189,2.509,6.537-22.82,20.143c-1.2.062-9.638.52-9.252,1.3.414.833,4.876-.417,4.687,1.251s-8.108,4.251-7.855,4.834,6.668,3.418,8.167,3.084,8.936-7.639,8.936-7.639l-.008-.006c3.267-1.875,12.116-6.992,19.636-11.679.556-.346,6.569-4.182,6.569-4.182a6.93,6.93,0,0,0,2.785-8.167Z" transform="translate(-627.732 -189.515)" fill="#ffd1c1"/>
      <g id="Grupo_1015829" data-name="Grupo 1015829" transform="translate(426.751 131.362)">
        <path id="Trazado_612909" data-name="Trazado 612909" d="M1106.118,343.812l5.5-3.65s-3.866.38-4.624-.455-4.174-6.75-4.174-6.75l-1.29,1.441,4.588,9.414" transform="translate(-1101.53 -332.957)" fill="#ffb2a0"/>
      </g>
      <path id="Trazado_612910" data-name="Trazado 612910" d="M262.354,79.736a25.789,25.789,0,1,0-36.472,0A25.789,25.789,0,0,0,262.354,79.736Z" transform="translate(-140.029 -21.622)" fill="#3b5620"/>
      <path id="Trazado_612911" data-name="Trazado 612911" d="M278.341,68.44c-1.135-7.007-9.6-6.917-9.6-6.917s-8.465-.09-9.6,6.917S263.957,85.1,263.957,85.1h9.569s5.952-9.65,4.817-16.656Z" transform="translate(-164.652 -37.25)" fill="#fff"/>
      <path id="Trazado_612912" data-name="Trazado 612912" d="M281.485,97.15H275.51a.185.185,0,0,1-.185-.184V83.5a3.172,3.172,0,0,1,6.344,0V96.965A.185.185,0,0,1,281.485,97.15Zm-5.792-.369H281.3V83.5a2.8,2.8,0,1,0-5.606,0V96.781Z" transform="translate(-174.539 -48.634)" fill="#354d1d"/>
      <path id="Trazado_612913" data-name="Trazado 612913" d="M278.823,123.339H266.69a1.035,1.035,0,1,1,0-2.07h12.133a1.035,1.035,0,1,1,0,2.07Z" transform="translate(-168.684 -73.425)" fill="#373660"/>
      <path id="Trazado_612914" data-name="Trazado 612914" d="M278.868,131.718H266.735a1.035,1.035,0,0,1,0-2.07h12.133a1.035,1.035,0,1,1,0,2.07Z" transform="translate(-168.711 -78.498)" fill="#373660"/>
      <path id="Trazado_612915" data-name="Trazado 612915" d="M281.525,126.516h-6.877v1.237h6.877Z" transform="translate(-174.129 -76.601)" fill="#2d4218"/>
      <path id="Trazado_612916" data-name="Trazado 612916" d="M279.261,137.162h-2.35a2.264,2.264,0,0,1-2.263-2.263h6.877A2.264,2.264,0,0,1,279.261,137.162Z" transform="translate(-174.129 -81.677)" fill="#2d4218"/>
      <path id="Trazado_612917" data-name="Trazado 612917" d="M1117.239,101.242h-49.774a2.376,2.376,0,0,0-2.375,2.374v23.519a2.376,2.376,0,0,0,2.375,2.374h9.859l-1.5,9.585a1,1,0,0,0,1.641.916c3.756-3.209,11.382-9.759,11.939-10.5h27.83a2.373,2.373,0,0,0,2.375-2.374V103.616A2.373,2.373,0,0,0,1117.239,101.242Z" transform="translate(-652.716 -61.299)" fill="#e8e8e8"/>
      <path id="Trazado_612918" data-name="Trazado 612918" d="M1121.515,114.075h-46.089a.166.166,0,0,0-.166.165V117a.166.166,0,0,0,.166.165h46.089a.166.166,0,0,0,.166-.165V114.24A.166.166,0,0,0,1121.515,114.075Z" transform="translate(-658.874 -69.069)" fill="#fff"/>
      <path id="Trazado_612919" data-name="Trazado 612919" d="M1121.619,133.157h-46.093a.166.166,0,0,0-.166.165v2.755a.166.166,0,0,0,.166.165h46.093a.163.163,0,0,0,.162-.165v-2.755A.163.163,0,0,0,1121.619,133.157Z" transform="translate(-658.934 -80.622)" fill="#fff"/>
      <path id="Trazado_612920" data-name="Trazado 612920" d="M1101.71,152.24h-26.118a.124.124,0,0,0-.122.125V155.2a.124.124,0,0,0,.122.125h26.118a.124.124,0,0,0,.122-.125v-2.837A.124.124,0,0,0,1101.71,152.24Z" transform="translate(-659.001 -92.176)" fill="#fff"/>
      <path id="Trazado_612921" data-name="Trazado 612921" d="M515.852,735.873H43.771v.954h472.08Z" transform="translate(-34.34 -445.548)" fill="#373660"/>
    </g>
  </g>
</svg>
