<svg xmlns="http://www.w3.org/2000/svg" width="99.795" height="109.325" viewBox="0 0 99.795 109.325">
  <g id="Grupo_1066754" data-name="Grupo 1066754" transform="translate(-559 -7512.615)">
    <g id="desbloquear" transform="translate(559 7512.615)">
      <path id="Trazado_612922" data-name="Trazado 612922" d="M252.114,0h0c-15.682,0-28.4,12.228-28.4,27.312V60.534H238.1V27.86c0-7.139,6.274-12.926,14.014-12.926h0c7.74,0,14.014,5.787,14.014,12.926V38.694l14.381,0V27.313C280.51,12.228,267.8,0,252.114,0Z" transform="translate(-180.714)" fill="#c8c6cd"/>
      <rect id="Rect치ngulo_347846" data-name="Rect치ngulo 347846" width="69.168" height="58.103" transform="translate(0 51.223)" fill="#ffb74f"/>
      <path id="Trazado_612923" data-name="Trazado 612923" d="M161.256,321.579a8.544,8.544,0,0,1-2.451,6l-.006,10.591H146.565l-.017-10.591a8.579,8.579,0,1,1,14.708-6Z" transform="translate(-118.094 -246.166)" fill="#9a4c00"/>
      <rect id="Rect치ngulo_347847" data-name="Rect치ngulo 347847" width="34.585" height="58.103" transform="translate(34.584 51.223)" fill="#ff9a00"/>
      <path id="Trazado_612924" data-name="Trazado 612924" d="M192.857,321.579a8.544,8.544,0,0,1-2.451,6l-.006,10.591h-6.122V313A8.58,8.58,0,0,1,192.857,321.579Z" transform="translate(-149.694 -246.166)" fill="#703700"/>
    </g>
  </g>
</svg>
