<svg xmlns="http://www.w3.org/2000/svg" width="396.091" height="377.012" viewBox="0 0 396.091 377.012">
  <g id="Grupo_1066762" data-name="Grupo 1066762" transform="translate(-908.01 -1254.994)">
    <g id="Group_64_1_" data-name="Group 64 (1)" transform="translate(908.01 1254.994)">
      <path id="Trazado_610795" data-name="Trazado 610795" d="M196.529,16.29H7.73V133.139h188.8Z" transform="translate(-1.015 -2.14)" fill="#e8e8e8"/>
      <path id="Trazado_610796" data-name="Trazado 610796" d="M153.974,105.974c-13.09-4.969-28.153,8.765-40.982,3.162-7.47-3.257-10.858-11.7-14.515-18.98S88.514,75.2,80.409,76.041c-8.174.851-14.784,10.319-22.68,8.035-4.977-1.433-7.462-6.958-8.712-11.987s-2.111-10.58-5.907-14.107-11.7-2.58-12.3,2.562v61.943H178.47s-19.961-14.8-24.487-16.522Z" transform="translate(-4.047 -7.34)" fill="#ccc"/>
      <path id="Trazado_610797" data-name="Trazado 610797" d="M181.166,132.533c0,.13-35.788.243-79.924.243s-79.932-.1-79.932-.243,35.779-.243,79.932-.243S181.166,132.394,181.166,132.533Z" transform="translate(-2.799 -17.378)" fill="#d3cece"/>
      <path id="Trazado_610798" data-name="Trazado 610798" d="M181.166,101.383c0,.13-35.788.243-79.924.243s-79.932-.1-79.932-.243,35.779-.243,79.932-.243S181.166,101.244,181.166,101.383Z" transform="translate(-2.799 -13.286)" fill="#d3cece"/>
      <path id="Trazado_610799" data-name="Trazado 610799" d="M181.166,70.233c0,.13-35.788.243-79.924.243s-79.932-.1-79.932-.243,35.779-.243,79.932-.243S181.166,70.094,181.166,70.233Z" transform="translate(-2.799 -9.194)" fill="#d3cece"/>
      <path id="Trazado_610800" data-name="Trazado 610800" d="M181.166,40.633c0,.13-35.788.243-79.924.243s-79.932-.1-79.932-.243,35.779-.243,79.932-.243S181.166,40.494,181.166,40.633Z" transform="translate(-2.799 -5.306)" fill="#d3cece"/>
      <path id="Trazado_610801" data-name="Trazado 610801" d="M360.639,39.169V9.27a29.907,29.907,0,1,1-29.9,30.6l29.9-.695Z" transform="translate(-43.446 -1.218)" fill="#ccc"/>
      <path id="Trazado_610802" data-name="Trazado 610802" d="M352.247,29.89l-29.907.678a31.572,31.572,0,0,1,8.469-21.534A30.745,30.745,0,0,1,351.778,0l.46,29.89Z" transform="translate(-42.343)" fill="#f5f5f5"/>
      <path id="Trazado_610803" data-name="Trazado 610803" d="M83.468,346.5V319.44a27.058,27.058,0,1,0,27.049,27.684Z" transform="translate(-7.41 -41.962)" fill="#ccc"/>
      <path id="Trazado_610804" data-name="Trazado 610804" d="M95.15,338.109l27.058.608a28.551,28.551,0,0,0-7.67-19.484,27.824,27.824,0,0,0-18.971-8.174Z" transform="translate(-12.499 -40.861)" fill="#f5f5f5"/>
      <path id="Trazado_610805" data-name="Trazado 610805" d="M289.527,120.62H276.88v39.5h12.647Z" transform="translate(-36.371 -15.845)" fill="#f5f5f5"/>
      <path id="Trazado_610806" data-name="Trazado 610806" d="M311.267,131H298.62v30.481h12.647Z" transform="translate(-39.227 -17.208)" fill="#f5f5f5"/>
      <path id="Trazado_610807" data-name="Trazado 610807" d="M331.4,145.26H318.75v18.1H331.4Z" transform="translate(-41.871 -19.081)" fill="#f5f5f5"/>
      <path id="Trazado_610808" data-name="Trazado 610808" d="M125.048,55.5l.321-1.755c2.745-14.8,12.873-26.667,26.606-30.437a34.377,34.377,0,0,1,5.394-1.034c13.169-1.468,27.206,4.656,35.979,15.7,5.16,6.5,8.851,14.758,15.8,18.919,9.051,5.42,19.987,1.876,29.412-1.755S258.94,48,267.974,53.461c5.655,3.414,9.3,9.807,11.214,16.357,5.082,17.329-.773,36.439-12.317,48.948s-28,19-44.691,21.073c-23.366,2.9-48.5-2.71-67.823-18.172s-31.844-41.33-29.334-66.147Z" transform="translate(-16.381 -2.898)" fill="#f5f5f5"/>
      <path id="Trazado_610809" data-name="Trazado 610809" d="M131.047,159.911c-5.525-4.178-13.143-4.9-19.84-3.11-4.2.817-11.866,9.112-10.589,16.235s8.1,12.2,15.175,13.7c7.853,1.676,17.321-1.06,20.665-8.365,2.884-6.3.113-14.28-5.42-18.459Z" transform="translate(-13.199 -20.477)" fill="#f5f5f5"/>
      <path id="Trazado_610810" data-name="Trazado 610810" d="M288.737,4.251c-5.525-4.178-13.142-4.9-19.84-3.11-4.2.817-11.866,9.112-10.589,16.235s8.1,12.2,15.175,13.7c7.853,1.676,17.321-1.06,20.665-8.365,2.884-6.3.113-14.28-5.42-18.459Z" transform="translate(-33.913 -0.029)" fill="#f5f5f5"/>
      <path id="Trazado_610811" data-name="Trazado 610811" d="M42.06,375.71H16.34v50.181H42.06Z" transform="translate(-2.146 -49.354)" fill="#3b5620"/>
      <path id="Trazado_610812" data-name="Trazado 610812" d="M106.34,399.34H80.62V429h25.72Z" transform="translate(-10.59 -52.458)" fill="#3b5620"/>
      <g id="Grupo_1015486" data-name="Grupo 1015486" transform="translate(70.03 346.882)" opacity="0.79">
        <path id="Trazado_610813" data-name="Trazado 610813" d="M106.34,399.34H80.62V429h25.72Z" transform="translate(-80.62 -399.34)" fill="#e7e7e7"/>
      </g>
      <path id="Trazado_610814" data-name="Trazado 610814" d="M166.07,423.332l-25.72.174V356.23h25.72Z" transform="translate(-18.436 -46.795)" fill="#3b5620"/>
      <path id="Trazado_610815" data-name="Trazado 610815" d="M228.61,392.69H202.89v35.432h25.72Z" transform="translate(-26.652 -51.584)" fill="#3b5620"/>
      <g id="Grupo_1015487" data-name="Grupo 1015487" transform="translate(176.238 341.106)" opacity="0.79">
        <path id="Trazado_610816" data-name="Trazado 610816" d="M228.61,392.69H202.89v35.432h25.72Z" transform="translate(-202.89 -392.69)" fill="#e7e7e7"/>
      </g>
      <path id="Trazado_610817" data-name="Trazado 610817" d="M290.09,356.23H264.37v67.1h25.72Z" transform="translate(-34.728 -46.795)" fill="#3b5620"/>
      <path id="Trazado_610818" data-name="Trazado 610818" d="M350.98,257.44H325.26V410.355h25.72Z" transform="translate(-42.726 -33.818)" fill="#3b5620"/>
      <g id="Grupo_1015488" data-name="Grupo 1015488" transform="translate(282.534 223.622)" opacity="0.79">
        <path id="Trazado_610819" data-name="Trazado 610819" d="M350.98,257.44H325.26V410.355h25.72Z" transform="translate(-325.26 -257.44)" fill="#e7e7e7"/>
      </g>
      <path id="Trazado_610820" data-name="Trazado 610820" d="M42.077,403.209c.2.208-5.368,6.263-12.439,13.533s-12.969,12.995-13.169,12.786S21.837,423.266,28.917,416s12.969-12.986,13.169-12.786Z" transform="translate(-2.163 -52.965)" fill="#e7e7e7"/>
      <path id="Trazado_610821" data-name="Trazado 610821" d="M106.157,403.719c.2.208-5.368,6.263-12.439,13.533s-12.969,12.995-13.169,12.786S85.917,423.776,93,416.506s12.969-12.986,13.169-12.786Z" transform="translate(-10.58 -53.032)" fill="#3b5620"/>
      <path id="Trazado_610822" data-name="Trazado 610822" d="M228.557,403.179c.2.208-5.368,6.263-12.439,13.533s-12.969,12.995-13.169,12.786,5.368-6.263,12.448-13.533,12.969-12.986,13.169-12.786Z" transform="translate(-26.659 -52.961)" fill="#3b5620"/>
      <path id="Trazado_610823" data-name="Trazado 610823" d="M41.677,376.3c.2.208-5.368,6.263-12.439,13.533s-12.969,12.995-13.169,12.786,5.368-6.263,12.448-13.533S41.486,376.1,41.685,376.3Z" transform="translate(-2.11 -49.43)" fill="#e7e7e7"/>
      <path id="Trazado_610824" data-name="Trazado 610824" d="M166.537,403.649c.2.208-5.368,6.263-12.439,13.533s-12.969,12.995-13.169,12.786,5.368-6.263,12.448-13.533,12.969-12.986,13.169-12.786Z" transform="translate(-18.512 -53.023)" fill="#e7e7e7"/>
      <path id="Trazado_610825" data-name="Trazado 610825" d="M166.137,376.739c.2.208-5.368,6.263-12.439,13.533s-12.969,12.995-13.169,12.786,5.368-6.263,12.448-13.533,12.969-12.986,13.169-12.786Z" transform="translate(-18.459 -49.488)" fill="#e7e7e7"/>
      <path id="Trazado_610826" data-name="Trazado 610826" d="M158.127,356.229c.2.208-3.579,4.421-8.434,9.416s-8.964,8.877-9.164,8.669,3.579-4.421,8.434-9.416S157.928,356.029,158.127,356.229Z" transform="translate(-18.459 -46.794)" fill="#e7e7e7"/>
      <path id="Trazado_610827" data-name="Trazado 610827" d="M350.837,403.179c.2.208-5.368,6.263-12.439,13.533s-12.969,12.995-13.169,12.786,5.368-6.263,12.448-13.533,12.969-12.986,13.169-12.786Z" transform="translate(-42.722 -52.961)" fill="#3b5620"/>
      <path id="Trazado_610828" data-name="Trazado 610828" d="M350.437,376.269c.2.208-5.368,6.263-12.439,13.533s-12.969,12.995-13.169,12.786,5.368-6.263,12.448-13.533,12.969-12.986,13.169-12.786Z" transform="translate(-42.669 -49.426)" fill="#3b5620"/>
      <path id="Trazado_610829" data-name="Trazado 610829" d="M350.437,346.279c.2.208-5.368,6.263-12.439,13.533s-12.969,12.995-13.169,12.786,5.368-6.263,12.448-13.533,12.969-12.986,13.169-12.786Z" transform="translate(-42.669 -45.487)" fill="#3b5620"/>
      <path id="Trazado_610830" data-name="Trazado 610830" d="M290.817,403.179c.2.208-5.368,6.263-12.439,13.533s-12.969,12.995-13.169,12.786,5.368-6.263,12.448-13.533,12.969-12.986,13.169-12.786Z" transform="translate(-34.837 -52.961)" fill="#e7e7e7"/>
      <path id="Trazado_610831" data-name="Trazado 610831" d="M290.417,376.269c.2.208-5.368,6.263-12.439,13.533s-12.969,12.995-13.169,12.786,5.368-6.263,12.448-13.533,12.969-12.986,13.169-12.786Z" transform="translate(-34.785 -49.426)" fill="#e7e7e7"/>
      <path id="Trazado_610832" data-name="Trazado 610832" d="M282.234,355.969c.2.208-3.535,4.378-8.348,9.329s-8.877,8.782-9.077,8.582,3.535-4.378,8.348-9.329S282.034,355.769,282.234,355.969Z" transform="translate(-34.784 -46.759)" fill="#e7e7e7"/>
      <path id="Trazado_610833" data-name="Trazado 610833" d="M350.837,317.279c.2.208-5.368,6.263-12.439,13.533s-12.969,12.995-13.169,12.786,5.368-6.263,12.448-13.533,12.969-12.986,13.169-12.786Z" transform="translate(-42.722 -41.677)" fill="#3b5620"/>
      <path id="Trazado_610834" data-name="Trazado 610834" d="M350.837,263.349c.2.208-5.368,6.263-12.439,13.533s-12.969,12.995-13.169,12.786,5.368-6.263,12.448-13.533,12.969-12.986,13.169-12.786Z" transform="translate(-42.722 -34.593)" fill="#3b5620"/>
      <path id="Trazado_610835" data-name="Trazado 610835" d="M350.437,290.369c.2.208-5.368,6.263-12.439,13.533s-12.969,12.995-13.169,12.786,5.368-6.263,12.448-13.533,12.969-12.986,13.169-12.786Z" transform="translate(-42.669 -38.142)" fill="#3b5620"/>
      <path id="Trazado_610836" data-name="Trazado 610836" d="M413.865,151.29h-24.3V396.411h24.3Z" transform="translate(-51.173 -19.874)" fill="#3b5620"/>
      <g id="Grupo_1015489" data-name="Grupo 1015489" transform="translate(338.591 351.664)" opacity="0.6">
        <path id="Trazado_610837" data-name="Trazado 610837" d="M414.008,404.849c.191.191-5.073,5.924-11.761,12.786S389.99,429.91,389.8,429.718s5.073-5.915,11.761-12.786S413.817,404.658,414.008,404.849Z" transform="translate(-389.794 -404.844)" fill="#e7e7e7"/>
      </g>
      <g id="Grupo_1015490" data-name="Grupo 1015490" transform="translate(338.26 329.574)" opacity="0.6">
        <path id="Trazado_610838" data-name="Trazado 610838" d="M413.628,379.419c.191.191-5.073,5.924-11.761,12.786s-12.256,12.274-12.448,12.083,5.073-5.915,11.761-12.786S413.437,379.228,413.628,379.419Z" transform="translate(-389.414 -379.414)" fill="#e7e7e7"/>
      </g>
      <g id="Grupo_1015491" data-name="Grupo 1015491" transform="translate(338.26 304.957)" opacity="0.6">
        <path id="Trazado_610839" data-name="Trazado 610839" d="M413.628,351.079c.191.191-5.073,5.924-11.761,12.786s-12.256,12.274-12.448,12.083,5.073-5.915,11.761-12.786S413.437,350.888,413.628,351.079Z" transform="translate(-389.414 -351.074)" fill="#e7e7e7"/>
      </g>
      <g id="Grupo_1015492" data-name="Grupo 1015492" transform="translate(338.591 281.156)" opacity="0.6">
        <path id="Trazado_610840" data-name="Trazado 610840" d="M414.008,323.679c.191.191-5.073,5.924-11.761,12.786S389.99,348.74,389.8,348.548s5.073-5.915,11.761-12.786S413.817,323.488,414.008,323.679Z" transform="translate(-389.794 -323.674)" fill="#e7e7e7"/>
      </g>
      <g id="Grupo_1015493" data-name="Grupo 1015493" transform="translate(338.26 259.067)" opacity="0.6">
        <path id="Trazado_610841" data-name="Trazado 610841" d="M413.628,298.249c.191.191-5.073,5.924-11.761,12.786s-12.256,12.274-12.448,12.083,5.073-5.915,11.761-12.786S413.437,298.058,413.628,298.249Z" transform="translate(-389.414 -298.244)" fill="#e7e7e7"/>
      </g>
      <g id="Grupo_1015494" data-name="Grupo 1015494" transform="translate(338.26 234.45)" opacity="0.6">
        <path id="Trazado_610842" data-name="Trazado 610842" d="M413.628,269.909c.191.191-5.073,5.924-11.761,12.786s-12.256,12.274-12.448,12.083,5.073-5.915,11.761-12.786S413.437,269.718,413.628,269.909Z" transform="translate(-389.414 -269.904)" fill="#e7e7e7"/>
      </g>
      <g id="Grupo_1015495" data-name="Grupo 1015495" transform="translate(338.26 205.55)" opacity="0.6">
        <path id="Trazado_610843" data-name="Trazado 610843" d="M413.628,236.639c.191.191-5.073,5.924-11.761,12.786S389.61,261.7,389.419,261.508s5.073-5.915,11.761-12.786S413.437,236.448,413.628,236.639Z" transform="translate(-389.414 -236.634)" fill="#e7e7e7"/>
      </g>
      <g id="Grupo_1015496" data-name="Grupo 1015496" transform="translate(338.591 175.304)" opacity="0.6">
        <path id="Trazado_610844" data-name="Trazado 610844" d="M414.008,201.819c.191.191-5.073,5.924-11.761,12.786S389.99,226.88,389.8,226.688s5.073-5.915,11.761-12.786S413.817,201.628,414.008,201.819Z" transform="translate(-389.794 -201.814)" fill="#e7e7e7"/>
      </g>
      <g id="Grupo_1015497" data-name="Grupo 1015497" transform="translate(338.26 145.588)" opacity="0.6">
        <path id="Trazado_610845" data-name="Trazado 610845" d="M413.628,167.609c.191.191-5.073,5.924-11.761,12.786s-12.256,12.274-12.448,12.083,5.073-5.915,11.761-12.786S413.437,167.418,413.628,167.609Z" transform="translate(-389.414 -167.604)" fill="#e7e7e7"/>
      </g>
      <g id="Grupo_1015498" data-name="Grupo 1015498" transform="translate(338.257 130.964)" opacity="0.6">
        <path id="Trazado_610846" data-name="Trazado 610846" d="M403.9,150.779c.191.191-2.893,3.683-6.9,7.792s-7.392,7.279-7.583,7.079,2.893-3.683,6.9-7.792S403.708,150.579,403.9,150.779Z" transform="translate(-389.41 -150.77)" fill="#e7e7e7"/>
      </g>
      <path id="Trazado_610847" data-name="Trazado 610847" d="M387.991,146.933s-.374-.243-1.077-.747c-.356-.252-.8-.565-1.32-.929-.539-.347-1.164-.756-1.876-1.216a65.3,65.3,0,0,0-13.3-6.437,58.471,58.471,0,0,0-10.354-2.6,47.986,47.986,0,0,0-12.665-.287c-9.069.973-19.023,5.255-27.7,12.8a83.936,83.936,0,0,0-12.222,13.2c-3.692,5.073-7.375,10.476-11.179,16.07-7.583,11.205-15.384,23.384-23.479,36.266s-16.487,26.476-25.469,40.392c-4.508,6.949-9.138,13.985-13.976,21.047-2.423,3.518-4.717,7.158-7.071,10.8s-4.734,7.305-7.192,10.945a218.224,218.224,0,0,1-15.627,20.813,76.254,76.254,0,0,1-9.051,8.99,30.488,30.488,0,0,1-5.238,3.544,13.724,13.724,0,0,1-6.028,1.781,16.219,16.219,0,0,1-5.985-1.737c-1.885-.851-3.674-1.85-5.438-2.867-3.518-2.059-6.871-4.3-10.146-6.576-6.532-4.569-12.726-9.329-18.676-14.072q-4.469-3.557-8.739-7.123-4.261-3.583-8.469-6.966c-5.62-4.508-11.145-8.808-16.652-12.734C103.608,275.309,97.9,272,91.855,270.3a39.049,39.049,0,0,0-17.807-.634A49.068,49.068,0,0,0,58.925,275.7a73.81,73.81,0,0,0-11.666,8.765c-6.732,6.185-12.422,11.631-17.034,16.113S22.077,308.6,19.688,311c-1.19,1.2-2.1,2.111-2.719,2.736s-.929.929-.929.929.3-.33.895-.956,1.511-1.555,2.684-2.771c2.371-2.424,5.889-5.976,10.476-10.484s10.267-9.972,16.982-16.174a73.8,73.8,0,0,1,11.683-8.825,49.414,49.414,0,0,1,15.21-6.107,39.509,39.509,0,0,1,17.972.608c6.1,1.7,11.874,5.038,17.329,9.016,5.516,3.935,11.049,8.226,16.678,12.734,2.814,2.25,5.646,4.578,8.487,6.958s5.759,4.743,8.739,7.114c5.95,4.734,12.135,9.486,18.658,14.046,3.266,2.267,6.61,4.508,10.12,6.55,1.755,1.016,3.535,2.007,5.394,2.849a15.976,15.976,0,0,0,5.8,1.694,13.252,13.252,0,0,0,5.82-1.729,30.488,30.488,0,0,0,5.16-3.5,75.3,75.3,0,0,0,8.99-8.938,220.62,220.62,0,0,0,15.592-20.769c2.458-3.631,4.838-7.288,7.184-10.936s4.647-7.288,7.079-10.815c4.838-7.053,9.468-14.089,13.968-21.03,8.99-13.907,17.39-27.484,25.495-40.366s15.913-25.052,23.514-36.257c3.813-5.594,7.5-10.988,11.214-16.07a83.364,83.364,0,0,1,12.291-13.238c8.73-7.557,18.754-11.848,27.883-12.8a47.973,47.973,0,0,1,12.726.33,59.222,59.222,0,0,1,10.38,2.641,64.354,64.354,0,0,1,13.29,6.523c.7.469,1.329.877,1.868,1.233.521.374.956.695,1.312.956.7.512,1.051.782,1.051.782Z" transform="translate(-2.107 -17.627)" fill="#3b5620"/>
      <path id="Trazado_610848" data-name="Trazado 610848" d="M95.641,290.547a5.057,5.057,0,1,1-5.055-5.177A5.121,5.121,0,0,1,95.641,290.547Z" transform="translate(-11.235 -37.486)" fill="#3b5620"/>
      <path id="Trazado_610849" data-name="Trazado 610849" d="M89.98,299.2a9.28,9.28,0,1,1,9.06-9.277A9.181,9.181,0,0,1,89.98,299.2Zm0-17.686a8.411,8.411,0,1,0,8.191,8.408A8.31,8.31,0,0,0,89.98,281.519Z" transform="translate(-10.63 -36.866)" fill="#3b5620"/>
      <path id="Trazado_610850" data-name="Trazado 610850" d="M408.441,133.527a5.057,5.057,0,1,1-5.055-5.177A5.121,5.121,0,0,1,408.441,133.527Z" transform="translate(-52.325 -16.86)" fill="#3b5620"/>
      <path id="Trazado_610851" data-name="Trazado 610851" d="M402.78,142.184a9.28,9.28,0,1,1,9.06-9.277A9.181,9.181,0,0,1,402.78,142.184Zm0-17.686a8.411,8.411,0,1,0,8.191,8.408A8.31,8.31,0,0,0,402.78,124.5Z" transform="translate(-51.719 -16.24)" fill="#3b5620"/>
      <path id="Trazado_610852" data-name="Trazado 610852" d="M20.19,201.47V246.6H75.9l10.233,14.341V246.6H98.237V201.47Z" transform="translate(-2.652 -26.465)" fill="#e8e8e8"/>
      <path id="Trazado_610853" data-name="Trazado 610853" d="M20.164,201.44s.113,0,.356-.009.608,0,1.077-.009c.973,0,2.389-.017,4.222-.026,3.718-.009,9.129-.035,15.983-.052l56.4-.1h.208v.208c0,13.829.009,29.073.017,45.135v.226H86.093l.226-.226v15.045l-.408-.573q-5.238-7.349-10.233-14.35l.182.1c-21.134-.017-40.166-.035-55.706-.052H19.99v-.165c.035-13.924.069-25.225.087-33.052.017-3.883.035-6.906.043-8.973,0-1.016.017-1.789.017-2.328,0-.521.017-.782.017-.782s.009.278.017.817.009,1.329.017,2.354c.009,2.076.026,5.108.043,9.008.017,7.809.052,19.067.087,32.947l-.165-.165c15.54-.017,34.572-.035,55.706-.052h.113l.069.1q4.99,6.984,10.241,14.341l-.408.13V246.357H98.211l-.226.226c0-16.061.017-31.306.017-45.135l.208.208-56.262-.1c-6.871-.026-12.3-.043-16.035-.052-1.859-.009-3.283-.017-4.265-.026-.478,0-.843-.009-1.1-.009s-.382-.009-.382-.009Z" transform="translate(-2.626 -26.435)" fill="#263238"/>
      <path id="Trazado_610854" data-name="Trazado 610854" d="M85.97,222.186c0,.122-11,.226-24.565.226s-24.565-.1-24.565-.226,11-.226,24.565-.226S85.97,222.064,85.97,222.186Z" transform="translate(-4.839 -29.157)" fill="#263238"/>
      <path id="Trazado_610855" data-name="Trazado 610855" d="M85.97,233.636c0,.122-11,.226-24.565.226s-24.565-.1-24.565-.226,11-.226,24.565-.226S85.97,233.514,85.97,233.636Z" transform="translate(-4.839 -30.661)" fill="#263238"/>
      <path id="Trazado_610856" data-name="Trazado 610856" d="M434.555,55.02H362.91V95.681h11.84l-.886.156,10.154,12.934-.669-13.09h51.206Z" transform="translate(-47.672 -7.227)" fill="#e8e8e8"/>
      <path id="Trazado_610857" data-name="Trazado 610857" d="M434.52,54.987s.009.235.017.7c0,.486.009,1.19.017,2.093.009,1.868.026,4.586.043,8.087.017,7.062.052,17.242.087,29.768V95.8h-.165c-14.324.017-31.818.035-51.206.052l.217-.226c.208,4.152.443,8.582.669,13.1l.035.7-.434-.556c-3.249-4.143-6.671-8.5-10.154-12.934l-.235-.3.374-.069c.278-.052.582-.1.886-.165l.043.452H362.64v-.226c0-14.472.017-28.2.017-40.661V54.77h.208l51.788.1c6.289.026,11.258.043,14.671.052,1.685.009,2.979.017,3.874.026.426,0,.756.009.99.009.217,0,.33.009.33.009s-.122,0-.347.009c-.243,0-.573,0-1.016.009-.9,0-2.215.017-3.918.026-3.422.009-8.408.035-14.723.052l-51.649.1.208-.208c0,12.465.009,26.181.017,40.661l-.226-.226h11.848l.043.452c-.3.052-.608.113-.886.165l.139-.365c3.475,4.43,6.9,8.8,10.146,12.934l-.4.148c-.226-4.508-.452-8.938-.66-13.1V95.4h.217c19.388.017,36.882.035,51.206.052l-.165.165c.035-12.491.069-22.628.087-29.664.017-3.518.035-6.254.043-8.13,0-.921.017-1.633.017-2.128,0-.478.017-.738.017-.738Z" transform="translate(-47.637 -7.195)" fill="#263238"/>
      <path id="Trazado_610858" data-name="Trazado 610858" d="M378.43,73.926c0-.122,10-.226,22.333-.226s22.341.1,22.341.226-10,.226-22.341.226S378.43,74.047,378.43,73.926Z" transform="translate(-49.711 -9.681)" fill="#263238"/>
      <path id="Trazado_610859" data-name="Trazado 610859" d="M378.43,83.956c0-.122,10-.226,22.333-.226s22.341.1,22.341.226-10,.226-22.341.226S378.43,84.077,378.43,83.956Z" transform="translate(-49.711 -10.999)" fill="#263238"/>
      <path id="Trazado_610860" data-name="Trazado 610860" d="M142.033,116.157a38.774,38.774,0,1,0-9.225,10.276l17.381,4.091Z" transform="translate(-9.27 -7.551)" fill="#e7e7e7"/>
      <path id="Trazado_610861" data-name="Trazado 610861" d="M133.068,126.324l-.347-.043a38.293,38.293,0,0,1-18.337,7.609,34.4,34.4,0,0,1-6.028.278c-1.034-.061-2.093-.1-3.153-.182-1.06-.165-2.128-.33-3.214-.5a38.367,38.367,0,0,1-23.705-15.3,37.793,37.793,0,0,1-6.393-14.663,38.764,38.764,0,0,1,.46-16.869A37.517,37.517,0,0,1,80.48,71.07a38.059,38.059,0,0,1,14.6-10.432,38.769,38.769,0,0,1,17-2.623A37.52,37.52,0,0,1,127.7,62.6a38.629,38.629,0,0,1,18.085,22.15,41.382,41.382,0,0,1,1.7,12.369,38.179,38.179,0,0,1-5.585,18.945l-.043.078.043.078c5.238,9.043,7.757,13.386,8.287,14.3-.512-.921-2.936-5.281-7.983-14.367a38.329,38.329,0,0,0,5.716-19.015,41.538,41.538,0,0,0-1.668-12.526,39.072,39.072,0,0,0-18.276-22.506,38.042,38.042,0,0,0-15.853-4.691,39.337,39.337,0,0,0-17.269,2.649,38.634,38.634,0,0,0-14.845,10.6A38.049,38.049,0,0,0,71.75,86.505a39.193,39.193,0,0,0-.452,17.138,38.386,38.386,0,0,0,6.515,14.88,38.824,38.824,0,0,0,24.07,15.444c1.1.165,2.18.33,3.257.486,1.077.087,2.146.113,3.2.174a34.272,34.272,0,0,0,6.1-.313,38.4,38.4,0,0,0,18.389-7.74l17.364,3.926c-1.06-.261-6.332-1.546-17.121-4.187Z" transform="translate(-9.269 -7.529)" fill="#263238"/>
      <path id="Trazado_610862" data-name="Trazado 610862" d="M111.58,85.956l1.1,17.364a2.817,2.817,0,0,0,5.611.13L120.223,86A2.2,2.2,0,0,0,118,83.55l-4.23.061a2.205,2.205,0,0,0-2.172,2.354Z" transform="translate(-14.657 -10.975)" fill="#3b5620"/>
      <path id="Trazado_610863" data-name="Trazado 610863" d="M119.941,119.737a4.238,4.238,0,1,1-2.684-5.359A4.236,4.236,0,0,1,119.941,119.737Z" transform="translate(-14.67 -14.996)" fill="#3b5620"/>
      <path id="Trazado_610864" data-name="Trazado 610864" d="M269.641,289.88l3.44,9.729s15.9,14.6,18.25,34.155,2.345,23.818,2.345,23.818l-4.925,57.035H182.742s-3.509-46.1-2.206-59.137,8.869-27.788,8.869-27.788l8.078-19.553.243-9.842,71.923-8.408Z" transform="translate(-23.677 -38.079)" fill="#263238"/>
      <path id="Trazado_610865" data-name="Trazado 610865" d="M275.707,302.23s-.252.069-.738.165c-.53.1-1.242.217-2.146.382-1.911.313-4.6.756-7.9,1.294-6.671,1.068-15.9,2.484-26.12,3.918s-19.492,2.571-26.216,3.24c-3.362.347-6.089.573-7.974.7-.912.061-1.633.1-2.172.139a4.515,4.515,0,0,1-.756.017,4.465,4.465,0,0,1,.756-.1c.539-.052,1.26-.13,2.163-.217,1.876-.191,4.6-.46,7.957-.851,6.715-.756,15.974-1.946,26.189-3.37s19.449-2.8,26.137-3.787c3.31-.486,6.011-.877,7.922-1.155.9-.122,1.624-.226,2.154-.3a4.475,4.475,0,0,1,.756-.069Z" transform="translate(-26.494 -39.701)" fill="#455a64"/>
      <path id="Trazado_610866" data-name="Trazado 610866" d="M215.349,341.96a9.032,9.032,0,0,1-.391.956c-.269.6-.7,1.459-1.26,2.5A72.585,72.585,0,0,1,202.945,360.4c-.808.86-1.485,1.546-1.963,2a3.951,3.951,0,0,1-.782.669,4.08,4.08,0,0,1,.651-.8c.5-.565,1.121-1.259,1.859-2.085,1.555-1.772,3.631-4.282,5.724-7.2s3.8-5.69,4.986-7.731c.547-.956,1.008-1.772,1.381-2.423A4.18,4.18,0,0,1,215.349,341.96Z" transform="translate(-26.298 -44.92)" fill="#455a64"/>
      <path id="Trazado_610867" data-name="Trazado 610867" d="M358.915,170.156s2.172,36.535,2.832,40.67-2.832,9.355-2.832,9.355-8.044.869-13.481-9.138l-3.483-7.826a49.791,49.791,0,0,0,1.954-20.665c-1.3-11.744-1.954-17.182-1.954-17.182Z" transform="translate(-44.919 -21.723)" fill="#ffbe9d"/>
      <path id="Trazado_610868" data-name="Trazado 610868" d="M347.483,109.726c.956,8.817.834,16.443-3.509,18-.365.13-3.283.243-3.666.287-5,.539-9.894-6.767-10.927-16.33s2.18-17.746,7.184-18.285a31.67,31.67,0,0,1,3.6-.347c4.482.8,6.393,8.018,7.331,16.678Z" transform="translate(-43.242 -12.221)" fill="#455a64"/>
      <path id="Trazado_610869" data-name="Trazado 610869" d="M362.879,146.517s3.666,1.216,3.006,4.76a80.607,80.607,0,0,1-3.006,9.816l-4.552,5.047-16.539-5.047a10.158,10.158,0,0,1-1.129-4.943c.113-2.762,0-9.625,0-9.625a16.446,16.446,0,0,0,3-6.306c.556-2.858.956-6.185,1.068-7.21a.3.3,0,0,1,.365-.261,4.259,4.259,0,0,1,3.214,2.936c.886,2.762.66,3.544.66,3.544l13.924,7.305Z" transform="translate(-44.748 -17.437)" fill="#ffbe9d"/>
      <path id="Trazado_610870" data-name="Trazado 610870" d="M350.377,134.459l-2.371-3.779-2.476,1.92,4.6,9.086,1.259-3.8Z" transform="translate(-45.389 -17.166)" fill="#455a64"/>
      <path id="Trazado_610871" data-name="Trazado 610871" d="M350.423,134.644s2.589-3.909,4.986-2.05,1.85,2.971,0,6.393c0,0,4.717-.643,3.6,4.343,0,0,4.673-.921,4.552,3.1,0,0,3.857,3.188,2.189,5.585s-8.035,7.019-9.8,6.471-1.972-2.953-1.972-2.953a6.661,6.661,0,0,1-2.745-1.755c-.651-1.016.182-2.589.182-2.589s-1.85-1.6-2.311-2.041,0-2.762,0-2.762l2.493-2.867s-3.6,1.937-4.439,1.39-1.755-1.016-1.016-2.215a38.12,38.12,0,0,1,3.492-3.978l.756-4.057Z" transform="translate(-45.435 -17.352)" fill="#ffbe9d"/>
      <path id="Trazado_610872" data-name="Trazado 610872" d="M355.68,157.936a12.865,12.865,0,0,1,1.1-1.59,14.506,14.506,0,0,1,3.188-3.457,33.83,33.83,0,0,0,3.674-2.823,17.782,17.782,0,0,0,1.207-1.477,3.492,3.492,0,0,1-.973,1.694,22.516,22.516,0,0,1-3.631,2.962,17.215,17.215,0,0,0-3.205,3.292,6.071,6.071,0,0,1-1.355,1.4Z" transform="translate(-46.722 -19.519)" fill="#eb996e"/>
      <path id="Trazado_610873" data-name="Trazado 610873" d="M352.269,153.585a36.933,36.933,0,0,1,3.527-4.517c1.025-1.19,1.9-2.337,2.675-3.058a3.445,3.445,0,0,1,1.381-.982c.035.061-.478.434-1.155,1.207-.686.756-1.52,1.928-2.554,3.127a36.653,36.653,0,0,1-3.874,4.23Z" transform="translate(-46.274 -19.05)" fill="#eb996e"/>
      <path id="Trazado_610874" data-name="Trazado 610874" d="M352.489,144.524a16.9,16.9,0,0,1,2-2.285,29.549,29.549,0,0,0,1.729-2.45,4.524,4.524,0,0,1-1.381,2.745A7.579,7.579,0,0,1,352.489,144.524Z" transform="translate(-46.302 -18.363)" fill="#eb996e"/>
      <path id="Trazado_610875" data-name="Trazado 610875" d="M344.84,150.7a3.305,3.305,0,0,1,1.537.634,8.848,8.848,0,0,1,2.754,2.927,16.941,16.941,0,0,1,1.572,3.683,5.9,5.9,0,0,1,.374,1.607,6.5,6.5,0,0,1-.669-1.5,24,24,0,0,0-1.659-3.553,10.27,10.27,0,0,0-2.545-2.9c-.8-.6-1.39-.825-1.355-.895Z" transform="translate(-45.298 -19.795)" fill="#eb996e"/>
      <path id="Trazado_610876" data-name="Trazado 610876" d="M350.149,109.546c1.034,9.555-1.59,17.685-5.855,18.146s-8.565-6.914-9.6-16.469,1.59-17.686,5.855-18.146S349.115,99.991,350.149,109.546Z" transform="translate(-43.936 -12.224)" fill="#263238"/>
      <path id="Trazado_610877" data-name="Trazado 610877" d="M342.725,127.536c4-2.007,6.384-9.355,5.472-17.772-.9-8.374-4.769-15.019-9.077-16.174-3.388,1.937-5.316,9.243-4.4,17.66C335.619,119.623,339.033,126.312,342.725,127.536Z" transform="translate(-43.939 -12.294)" fill="#d3cece"/>
      <path id="Trazado_610878" data-name="Trazado 610878" d="M344.025,122.259a76.136,76.136,0,0,1-.712-8.191,73.032,73.032,0,0,1-.261-8.217,76.117,76.117,0,0,1,.712,8.191A73.032,73.032,0,0,1,344.025,122.259Z" transform="translate(-45.057 -13.905)" fill="#e7e7e7"/>
      <path id="Trazado_610879" data-name="Trazado 610879" d="M342.3,116a10.6,10.6,0,0,1-.443-2.276c-.2-1.416-.408-3.388-.53-5.568s-.122-4.161-.078-5.594a10.447,10.447,0,0,1,.191-2.311,13.271,13.271,0,0,1,.13,2.311c.035,1.425.1,3.4.208,5.568s.278,4.135.4,5.559A12.1,12.1,0,0,1,342.3,116Z" transform="translate(-44.823 -13.169)" fill="#e7e7e7"/>
      <path id="Trazado_610880" data-name="Trazado 610880" d="M350.4,134.621a2.206,2.206,0,0,1-.026.278l-.122.79c-.122.721-.3,1.729-.512,3.014v.026l-.026.026c-.5.53-1.077,1.129-1.685,1.807a16.6,16.6,0,0,0-1.841,2.328,1.141,1.141,0,0,0-.148.7,1.123,1.123,0,0,0,.417.608,7.853,7.853,0,0,0,.712.5.983.983,0,0,0,.764.087,14.1,14.1,0,0,0,3.57-1.451l.843-.434-.617.721c-.782.9-1.616,1.876-2.484,2.875l.035-.061a3.467,3.467,0,0,0,.1,2.762,7.746,7.746,0,0,0,2.328,2.007l.191.122-.13.191c-.53.747-.86,1.885-.026,2.5a10.077,10.077,0,0,0,2.71,1.537l-.3.2v-.069c.061.061-.139-.139.148.182.582-.339.165-.13.3-.191v.1l.026.217a3.955,3.955,0,0,0,.078.443,3.818,3.818,0,0,0,.3.834,2.293,2.293,0,0,0,.539.678,1.376,1.376,0,0,0,.738.347,4.351,4.351,0,0,0,1.763-.5,15.748,15.748,0,0,0,1.711-.947,28.145,28.145,0,0,0,3-2.18,18.487,18.487,0,0,0,2.571-2.5,2.246,2.246,0,0,0,.6-1.485,3.522,3.522,0,0,0-.426-1.572,9.141,9.141,0,0,0-2.085-2.545l-.069-.061v-.1a3.473,3.473,0,0,0-.3-1.537,2.3,2.3,0,0,0-1.051-1.042,5.106,5.106,0,0,0-2.962-.313l-.269.043.043-.278c.043-.3.1-.6.139-.895a4.932,4.932,0,0,0,0-.877,2.393,2.393,0,0,0-.617-1.494,3.577,3.577,0,0,0-2.91-.869l-.313.026.148-.269a24.508,24.508,0,0,0,1.312-2.615,3.768,3.768,0,0,0,.287-1.26,2.127,2.127,0,0,0-.339-1.129,5.152,5.152,0,0,0-1.624-1.494,2.2,2.2,0,0,0-1.781-.035,6,6,0,0,0-2.085,1.564c-.208.226-.347.4-.452.521s-.148.182-.156.174a1.585,1.585,0,0,1,.122-.208,5.638,5.638,0,0,1,.417-.556,7.247,7.247,0,0,1,.782-.817,4.4,4.4,0,0,1,1.3-.851,2.422,2.422,0,0,1,1.954,0c.156.1.321.191.478.3s.3.235.443.356a4.605,4.605,0,0,1,.825.9,2.335,2.335,0,0,1,.4,1.268,3.958,3.958,0,0,1-.287,1.372,25.9,25.9,0,0,1-1.3,2.667l-.165-.243a4.924,4.924,0,0,1,1.668.1,3.04,3.04,0,0,1,1.555.851,2.8,2.8,0,0,1,.73,1.7,5.734,5.734,0,0,1,.009.947c-.035.313-.1.625-.148.947l-.226-.235a5.455,5.455,0,0,1,3.223.33,2.734,2.734,0,0,1,1.242,1.225,3.745,3.745,0,0,1,.339,1.737l-.078-.174a9.62,9.62,0,0,1,2.206,2.675,3.933,3.933,0,0,1,.478,1.772,2.954,2.954,0,0,1-.182.947,3.968,3.968,0,0,1-.5.808,18.489,18.489,0,0,1-2.641,2.571A29.1,29.1,0,0,1,360,157.223a15.763,15.763,0,0,1-1.755.973,4.705,4.705,0,0,1-1.98.547,2.25,2.25,0,0,1-1.642-1.26,4.286,4.286,0,0,1-.347-.947,4.756,4.756,0,0,1-.087-.486l-.026-.252v-.156c.13-.069-.287.139.3-.2.287.321.087.122.148.182v.46l-.3-.13a10.332,10.332,0,0,1-2.849-1.633,2.214,2.214,0,0,1-.521-.695,1.773,1.773,0,0,1-.113-.869,3.327,3.327,0,0,1,.617-1.511l.061.313a8.022,8.022,0,0,1-2.458-2.154,2.81,2.81,0,0,1-.382-1.581,5.049,5.049,0,0,1,.269-1.529v-.035l.035-.026c.869-.99,1.711-1.954,2.5-2.858l.226.278A14.42,14.42,0,0,1,348,145.105a1.36,1.36,0,0,1-1-.148,6.826,6.826,0,0,1-.738-.53,1.378,1.378,0,0,1-.513-.79,1.438,1.438,0,0,1,.182-.886,16.342,16.342,0,0,1,1.911-2.363c.625-.669,1.207-1.268,1.729-1.781l-.026.052c.261-1.277.46-2.285.608-3.005l.174-.773c.043-.174.069-.261.069-.261Z" transform="translate(-45.416 -17.337)" fill="#eb996e"/>
      <path id="Trazado_610881" data-name="Trazado 610881" d="M177.519,314.621,144.71,273.89s-17.442,14.689-17.911,15.149,27.284,27.458,45.108,37.907l5.6-3.709v-8.617Z" transform="translate(-16.656 -35.978)" fill="#ffbe9d"/>
      <path id="Trazado_610882" data-name="Trazado 610882" d="M211.768,305.561s-10.354-1.633-11.31-.956-8.044,5.455-8.044,5.455a38.41,38.41,0,0,1-3.136,4.222s-2.319,2.728-4.091,3a8,8,0,0,1-2.858,0l-4.63,12.812s3.544,3.683,5.724,3.405,13.768-6.68,13.768-6.68l2.858-.956s11.179.408,11.718-3v-.956l-11.04-.955-4.091.678,7.088-2.667s10.354-.608,11.31-.877,2.041-1.772,1.633-2.589l-2.18-.269s2.354-1.624,2.267-3.127l-9.807-1.555s5.9-2.953,4.812-4.995Z" transform="translate(-23.343 -39.992)" fill="#ffbe9d"/>
      <path id="Trazado_610883" data-name="Trazado 610883" d="M218.084,316.376s-.33-.026-.895-.122-1.4-.234-2.432-.391c-2.059-.3-4.908-.66-8.061-1.016a11.163,11.163,0,0,0-1.138-.1,3.046,3.046,0,0,0-1.051.191c-.669.261-1.338.573-1.954.86-1.242.582-2.345,1.147-3.24,1.65s-1.6.964-2.076,1.3-.712.547-.747.512a2.442,2.442,0,0,1,.634-.651,17.25,17.25,0,0,1,2.015-1.442c.895-.547,1.981-1.147,3.223-1.755.625-.3,1.26-.608,1.989-.9a3.852,3.852,0,0,1,1.19-.217,10.633,10.633,0,0,1,1.2.1c3.162.356,6.011.764,8.061,1.147,1.025.191,1.85.374,2.415.53a3.377,3.377,0,0,1,.86.3Z" transform="translate(-25.811 -41.287)" fill="#eb996e"/>
      <path id="Trazado_610884" data-name="Trazado 610884" d="M209.684,311.815c-.026.069-.8-.269-2.111-.521a11.5,11.5,0,0,0-9.694,2.519c-1.025.86-1.529,1.529-1.59,1.477a5.444,5.444,0,0,1,1.381-1.72,10.719,10.719,0,0,1,9.972-2.589A5.476,5.476,0,0,1,209.684,311.815Z" transform="translate(-25.784 -40.808)" fill="#eb996e"/>
      <path id="Trazado_610885" data-name="Trazado 610885" d="M353.661,213.261a16.97,16.97,0,0,1,2,6.993c0,3.4-1.989,9.338-1.989,9.338l-2.476,2.337s1.624,7.427-7.783,9.555-62.073-28.153-62.073-28.153l-1.468-40.2a46.614,46.614,0,0,1,13.16,8.7c5.516,5.516,36.935,28.656,36.935,28.656s1.277-8.2,2.693-7.653,20.995,10.424,20.995,10.424Z" transform="translate(-36.764 -22.742)" fill="#d3cece"/>
      <path id="Trazado_610886" data-name="Trazado 610886" d="M265.172,171.012l-28.5-6.063-7.418-7.627-32.774-.313-3.944,7.175L167.98,179.117s6.185,40.9,8.443,45.673,20.135,57.365,20.135,57.365L268,273.634l.608-33.017,2.067-15.974a47.517,47.517,0,0,0,.208-10.3c-1.338-14.941-5.707-43.328-5.707-43.328Z" transform="translate(-22.066 -20.625)" fill="#d3cece"/>
      <path id="Trazado_610887" data-name="Trazado 610887" d="M152.06,271.693l-23.419,16.061-8.183-11.666,2.189-1.946s-12.083-9.989-11.353-17.034,13.473-25.173,13.473-25.173,27.3-44.691,35.762-49.478c1.181-.669,11.457,24.131,11.457,33.851s-1.946,9.72-1.946,9.72-8.261,8.018-12.152,15.305S147.4,256.562,143.027,259.48l9.043,12.2Z" transform="translate(-14.616 -23.966)" fill="#d3cece"/>
      <path id="Trazado_610888" data-name="Trazado 610888" d="M132.75,264.54a3.445,3.445,0,0,1,.634-.061,11.2,11.2,0,0,1,1.72.1,16.8,16.8,0,0,1,5.438,1.65,18.04,18.04,0,0,1,4.621,3.318,8.186,8.186,0,0,1,1.494,1.815,26.683,26.683,0,0,0-6.315-4.725,19.633,19.633,0,0,0-5.281-1.737c-1.407-.243-2.311-.269-2.3-.347Z" transform="translate(-17.438 -34.742)" fill="#263238"/>
      <path id="Trazado_610889" data-name="Trazado 610889" d="M140.97,255.44a9.132,9.132,0,0,1,1.746,1.485,16.285,16.285,0,0,1,3.023,4.621,16.555,16.555,0,0,1,1.312,5.368,6.978,6.978,0,0,1-.1,2.285c-.078,0-.061-.869-.226-2.25a19.518,19.518,0,0,0-1.407-5.221,18.97,18.97,0,0,0-2.84-4.6c-.895-1.06-1.555-1.633-1.5-1.694Z" transform="translate(-18.518 -33.555)" fill="#263238"/>
      <path id="Trazado_610890" data-name="Trazado 610890" d="M242.8,226.17s.1.417.208,1.181a10.977,10.977,0,0,1,.139,1.407c.026.547.087,1.173.061,1.868a21.126,21.126,0,0,1-.1,2.267c-.043.817-.2,1.676-.339,2.58a29.731,29.731,0,0,1-4.361,11.04c-.521.756-1,1.485-1.52,2.111a22.322,22.322,0,0,1-1.468,1.729c-.452.53-.929.938-1.32,1.329a10.908,10.908,0,0,1-1.06.929,6.01,6.01,0,0,1-.964.721c-.061-.07,1.294-1.129,3.11-3.188.452-.521.938-1.086,1.416-1.737.5-.625.964-1.355,1.468-2.111a33.991,33.991,0,0,0,2.667-5.247,34.4,34.4,0,0,0,1.642-5.646c.148-.895.313-1.737.374-2.545a21.175,21.175,0,0,0,.156-2.232c.087-2.745-.182-4.439-.087-4.447Z" transform="translate(-30.485 -29.71)" fill="#263238"/>
      <path id="Trazado_610891" data-name="Trazado 610891" d="M236.317,202.6s-.2-.13-.556-.417-.86-.721-1.555-1.242c-1.355-1.077-3.37-2.562-5.933-4.326s-5.655-3.8-9.095-6.115a110.37,110.37,0,0,1-10.849-8.087l.33-.035c-.365.521-.738,1.094-1.086,1.685a24.9,24.9,0,0,0-2.988,7.922l-.13.686-.287-.634a110.512,110.512,0,0,1-6.419-18.945c-.582-2.424-.973-4.378-1.207-5.724-.122-.669-.191-1.2-.252-1.546a3.6,3.6,0,0,1-.061-.539,2.368,2.368,0,0,1,.13.53c.078.382.191.895.321,1.529.278,1.338.712,3.275,1.338,5.681a118.271,118.271,0,0,0,6.541,18.832l-.417.052a25.091,25.091,0,0,1,3.032-8.07c.356-.6.738-1.181,1.112-1.711l.148-.208.191.165a114.587,114.587,0,0,0,10.78,8.087c3.414,2.328,6.506,4.4,9.043,6.2s4.534,3.327,5.855,4.447c.678.547,1.164,1.008,1.5,1.312a3.162,3.162,0,0,1,.5.486Z" transform="translate(-25.777 -21.711)" fill="#263238"/>
      <path id="Trazado_610892" data-name="Trazado 610892" d="M246.444,166.147a2.6,2.6,0,0,1,.235.356c.139.243.356.6.617,1.077.521.947,1.251,2.337,2.1,4.1a70.195,70.195,0,0,1,5.3,14.758l.13.6-.486-.382a32.756,32.756,0,0,1-4.135-3.831A31.919,31.919,0,0,1,248,180.1l.408-.122c-.278,5.021-.539,9.6-.747,13.36v.043l-.017.035c-1.572,2.814-2.867,5.134-3.8,6.8-.443.773-.8,1.39-1.068,1.859a3.814,3.814,0,0,1-.408.634,4.81,4.81,0,0,1,.313-.686c.252-.478.573-1.112.982-1.9.895-1.685,2.146-4.03,3.657-6.88l-.017.078c.182-3.761.408-8.348.66-13.368l.035-.634.374.512a31.034,31.034,0,0,0,2.18,2.684,32.45,32.45,0,0,0,4.065,3.787l-.356.217a74.3,74.3,0,0,0-5.125-14.723c-.817-1.781-1.5-3.188-1.98-4.152-.226-.452-.4-.817-.547-1.112a1.354,1.354,0,0,1-.165-.4Z" transform="translate(-31.838 -21.823)" fill="#263238"/>
      <path id="Trazado_610893" data-name="Trazado 610893" d="M286.456,220.271c-.122.009-.877-6.88-1.685-15.384s-1.364-15.418-1.233-15.427.877,6.871,1.685,15.384S286.586,220.253,286.456,220.271Z" transform="translate(-37.243 -24.888)" fill="#263238"/>
      <path id="Trazado_610894" data-name="Trazado 610894" d="M344.226,227.928a11.121,11.121,0,0,1-1.52-1.451,23.036,23.036,0,0,1-4.838-8.86,7.422,7.422,0,0,1-.4-2.067,48.347,48.347,0,0,0,2.728,6.55A49.19,49.19,0,0,0,344.226,227.928Z" transform="translate(-44.328 -28.315)" fill="#263238"/>
      <path id="Trazado_610895" data-name="Trazado 610895" d="M339.859,228.582a3.662,3.662,0,0,1-.426-.5,9.966,9.966,0,0,1-.929-1.511,15.683,15.683,0,0,1-1.19-11.414,10.048,10.048,0,0,1,.608-1.668c.174-.382.287-.582.321-.573.069.035-.278.886-.608,2.319a17.447,17.447,0,0,0,1.164,11.205c.617,1.338,1.138,2.093,1.077,2.146Z" transform="translate(-44.235 -27.969)" fill="#263238"/>
      <path id="Trazado_610896" data-name="Trazado 610896" d="M166.749,211.33a8.952,8.952,0,0,1,.469.869c.313.66.695,1.477,1.147,2.432,1.025,2.146,2.354,4.934,3.822,8.018,1.494,3.127,2.806,5.985,3.7,8.078.443,1.042.8,1.9,1.016,2.493a3.771,3.771,0,0,1,.3.938,4.572,4.572,0,0,1-.469-.869c-.313-.66-.695-1.477-1.147-2.432-1.025-2.146-2.354-4.934-3.822-8.018-1.494-3.127-2.806-5.985-3.7-8.078-.443-1.042-.8-1.9-1.016-2.493A3.773,3.773,0,0,1,166.749,211.33Z" transform="translate(-21.903 -27.76)" fill="#263238"/>
      <path id="Trazado_610897" data-name="Trazado 610897" d="M262,266.2a10.363,10.363,0,0,1-.252,1.06c-.191.669-.5,1.633-.886,2.823-.79,2.371-1.989,5.6-3.5,9.1s-3.049,6.593-4.23,8.791c-.591,1.1-1.086,1.98-1.442,2.58a5.708,5.708,0,0,1-.591.912,4.978,4.978,0,0,1,.443-.99c.347-.7.79-1.59,1.312-2.641,1.1-2.232,2.589-5.333,4.1-8.825s2.745-6.7,3.614-9.034c.408-1.1.747-2.024,1.025-2.771a4.559,4.559,0,0,1,.426-1Z" transform="translate(-32.984 -34.968)" fill="#263238"/>
      <path id="Trazado_610898" data-name="Trazado 610898" d="M262.028,282.96a6.088,6.088,0,0,1-.695,1.607,31.268,31.268,0,0,1-2.206,3.6,32.963,32.963,0,0,1-2.641,3.292,6.441,6.441,0,0,1-1.277,1.2c-.1-.1,1.676-2.067,3.553-4.743s3.145-5.012,3.266-4.943Z" transform="translate(-33.524 -37.17)" fill="#263238"/>
      <path id="Trazado_610899" data-name="Trazado 610899" d="M255.25,273.125a5.865,5.865,0,0,1-.1-.669c-.052-.486-.113-1.129-.191-1.928-.148-1.676-.391-4.1-.7-7.1-.66-5.976-1.676-14.237-3.414-23.253a216.045,216.045,0,0,0-5.629-22.81c-.426-1.442-.851-2.736-1.225-3.874s-.686-2.119-.964-2.91c-.252-.764-.46-1.381-.617-1.842a3.045,3.045,0,0,1-.182-.651,4.136,4.136,0,0,1,.269.617c.174.452.408,1.06.695,1.807.3.782.651,1.755,1.034,2.893.4,1.129.843,2.415,1.286,3.857a195.622,195.622,0,0,1,5.768,22.819c1.746,9.034,2.719,17.312,3.292,23.306.269,3,.469,5.429.565,7.114.043.808.078,1.451.113,1.937a2.689,2.689,0,0,1,0,.678Z" transform="translate(-31.819 -27.335)" fill="#263238"/>
      <path id="Trazado_610900" data-name="Trazado 610900" d="M258.823,288.348a13.6,13.6,0,0,0,.556-4.1,13.872,13.872,0,0,0-1.121-3.978c.043-.035.382.321.756,1.016a7.478,7.478,0,0,1,.825,2.936,7.655,7.655,0,0,1-.4,3.023,2.674,2.674,0,0,1-.6,1.112Z" transform="translate(-33.924 -36.816)" fill="#263238"/>
      <path id="Trazado_610901" data-name="Trazado 610901" d="M257.335,294.017c-.122,0-.191-.565-.156-1.251s.174-1.225.3-1.216.191.565.156,1.251S257.457,294.026,257.335,294.017Z" transform="translate(-33.782 -38.298)" fill="#263238"/>
      <path id="Trazado_610902" data-name="Trazado 610902" d="M146.059,275.049a10.365,10.365,0,0,1-1.042.356c-.678.191-1.65.5-2.832.921-1.19.4-2.571.973-4.091,1.633-1.511.686-3.144,1.494-4.821,2.423a72.5,72.5,0,0,0-8.191,5.394c-1,.764-1.8,1.39-2.345,1.833a5.481,5.481,0,0,1-.886.651,4.782,4.782,0,0,1,.773-.782c.512-.486,1.286-1.155,2.267-1.954a59.741,59.741,0,0,1,8.165-5.542c1.685-.938,3.344-1.746,4.873-2.415,1.546-.643,2.953-1.19,4.161-1.555a29.662,29.662,0,0,1,2.884-.782A4.712,4.712,0,0,1,146.059,275.049Z" transform="translate(-16.006 -36.129)" fill="#263238"/>
      <path id="Trazado_610903" data-name="Trazado 610903" d="M145.677,275.061c0,.078-1.19.043-3.084.208a32.359,32.359,0,0,0-7.253,1.529,39.447,39.447,0,0,0-6.767,3.058c-1.659.938-2.641,1.607-2.684,1.546a2.855,2.855,0,0,1,.643-.539c.426-.33,1.068-.764,1.885-1.277a32.687,32.687,0,0,1,6.793-3.205,27.52,27.52,0,0,1,7.375-1.416,21.645,21.645,0,0,1,2.276,0,2.742,2.742,0,0,1,.834.1Z" transform="translate(-16.537 -36.116)" fill="#263238"/>
      <g id="Grupo_1015499" data-name="Grupo 1015499" transform="translate(146.278 186.679)" opacity="0.3">
        <path id="Trazado_610904" data-name="Trazado 610904" d="M168.6,214.91a18.572,18.572,0,0,0,8.148,18.068C174.7,227.766,171.153,220.278,168.6,214.91Z" transform="translate(-168.399 -214.91)"/>
      </g>
      <g id="Grupo_1015500" data-name="Grupo 1015500" transform="translate(179.678 160.49)" opacity="0.3">
        <path id="Trazado_610905" data-name="Trazado 610905" d="M206.85,190.658a19.737,19.737,0,0,0,4.456,5.924l-.087-4.751,21.759,9.668L209.621,184.76c-1.277,2.146-1.494,3.744-2.771,5.889" transform="translate(-206.85 -184.76)"/>
      </g>
      <g id="Grupo_1015501" data-name="Grupo 1015501" transform="translate(215.657 158.144)" opacity="0.3">
        <path id="Trazado_610906" data-name="Trazado 610906" d="M252.466,186.6c-.929-1.459-3.5-4.543-3.5-4.543-.087,2.276-.278,5.4-.365,7.679l-.33,5.464c.339-1.9.591-5.577.929-7.479,1.346,1.277,2.7,2.554,4.048,3.839a5.709,5.709,0,0,0-.773-4.951Z" transform="translate(-248.27 -182.06)"/>
      </g>
      <g id="Grupo_1015502" data-name="Grupo 1015502" transform="translate(246.407 168.281)" opacity="0.3">
        <path id="Trazado_610907" data-name="Trazado 610907" d="M283.67,193.73l2.771,25.06C287.648,210.642,289.872,206.2,283.67,193.73Z" transform="translate(-283.67 -193.73)"/>
      </g>
      <g id="Grupo_1015503" data-name="Grupo 1015503" transform="translate(293.218 187.643)" opacity="0.3">
        <path id="Trazado_610908" data-name="Trazado 610908" d="M352.64,232.785c-1.042-.86-3.344-1.4-4.534-2.05-5.394-2.927-8.252-8.3-10.363-14.072l-.182-.643c.217,7.74,5.116,16,12.178,19.18a4.115,4.115,0,0,0,2.311.486,1.634,1.634,0,0,0,1.442-1.624A2.121,2.121,0,0,0,352.64,232.785Z" transform="translate(-337.56 -216.02)"/>
      </g>
      <g id="Grupo_1015504" data-name="Grupo 1015504" transform="translate(196.399 207.162)" opacity="0.3">
        <path id="Trazado_610909" data-name="Trazado 610909" d="M226.109,257.218c8.93-2.962,13.238-11.37,15.523-18.728a29.612,29.612,0,0,1-1.138,9.451,14.942,14.942,0,0,1-5.325,7.74,10.147,10.147,0,0,1-9.069,1.537" transform="translate(-226.1 -238.49)"/>
      </g>
      <g id="Grupo_1015505" data-name="Grupo 1015505" transform="translate(109.596 239.345)" opacity="0.3">
        <path id="Trazado_610910" data-name="Trazado 610910" d="M144.889,275.688a25.949,25.949,0,0,0-18.076,5.837c-.365.3-.764.747-.608,1.2a.837.837,0,0,0,.886.469,2.338,2.338,0,0,0,.982-.417,77.7,77.7,0,0,1,16.817-7.236" transform="translate(-126.17 -275.54)"/>
      </g>
      <g id="Grupo_1015506" data-name="Grupo 1015506" transform="translate(219.366 221.561)" opacity="0.3">
        <path id="Trazado_610911" data-name="Trazado 610911" d="M268.645,255.565a1.823,1.823,0,0,0-2.458-.043,5.277,5.277,0,0,0-1.416,2.285q-5.3,13.16-10.606,26.328l-1.624,3.909q5.564-9.316,11.119-18.641c2.215-3.718,4.474-7.54,5.247-11.8A2.492,2.492,0,0,0,268.645,255.565Z" transform="translate(-252.54 -255.067)"/>
      </g>
      <path id="Trazado_610912" data-name="Trazado 610912" d="M186.234,82.729c6.584-9.182,17.477-14.558,28.587-16.591,4.673-.86,7.74-.235,12.4.7a20.15,20.15,0,0,1,11.926,6.836c3.535,4.4,6.593,9.381,7.566,14.941,1,5.716,2,11.466,1.937,17.26s-1.26,11.709-4.361,16.608l-14.515,3.492c-8.087.79-16.3,1.59-24.313.243s-15.966-5.108-20.639-11.761c-6.489-9.242-5.16-22.559,1.416-31.74Z" transform="translate(-23.72 -8.634)" fill="#263238"/>
      <path id="Trazado_610913" data-name="Trazado 610913" d="M249.41,138.85a3.027,3.027,0,0,0,.929.712,7.222,7.222,0,0,0,3.092.825,7.865,7.865,0,0,0,4.6-1.242,7.85,7.85,0,0,0,2.163-10.632,7.872,7.872,0,0,0-3.761-2.945,7.25,7.25,0,0,0-3.171-.443,2.232,2.232,0,0,0-1.129.3,11.011,11.011,0,0,1,4.065.721,7.571,7.571,0,0,1,3.31,2.806,7.231,7.231,0,0,1-1.937,9.52,7.588,7.588,0,0,1-4.143,1.294,10.978,10.978,0,0,1-4.022-.921Z" transform="translate(-32.763 -16.433)" fill="#d3cece"/>
      <path id="Trazado_610914" data-name="Trazado 610914" d="M174.019,131.9a11.009,11.009,0,0,1,4.439-8.582,7.909,7.909,0,0,1,9.32.208l2.484,2.606a9.489,9.489,0,0,1,6.063,9.208,10.413,10.413,0,0,1-6.654,8.956,11.513,11.513,0,0,1-11.11-1.946,12.888,12.888,0,0,1-4.534-10.45Z" transform="translate(-22.859 -16.013)" fill="#263238"/>
      <path id="Trazado_610915" data-name="Trazado 610915" d="M177.874,142.116a4.99,4.99,0,0,1-.973-2.875c0-1.885,1.207-4.439,2.936-6.819a19.889,19.889,0,0,1,5.585-5.09c1.659-1.034,2.823-1.451,2.78-1.564a8.075,8.075,0,0,0-3.032,1.121A17.631,17.631,0,0,0,179.264,132a17.3,17.3,0,0,0-2.146,3.761,8.073,8.073,0,0,0-.73,3.5,4.127,4.127,0,0,0,.808,2.285c.365.452.651.6.678.565Z" transform="translate(-23.169 -16.52)" fill="#455a64"/>
      <path id="Trazado_610916" data-name="Trazado 610916" d="M186.442,146.22c.235-.026-1.042-4.4.035-9.737,1-5.351,3.831-8.921,3.622-9.043a7.9,7.9,0,0,0-1.8,2.3,20.453,20.453,0,0,0-2.658,13.664,8.081,8.081,0,0,0,.808,2.814Z" transform="translate(-24.354 -16.74)" fill="#455a64"/>
      <path id="Trazado_610917" data-name="Trazado 610917" d="M233.414,150.614c-.426-5.142-.817-9.355-.817-9.329,0,0,11.892-2.085,14.22-17.642,1.155-7.74.66-20.4-.087-30.75-.669-9.312-9.416-21.5-20.926-20.8l-5.151-.269-19.075,9.034a5.471,5.471,0,0,0-4.838,5.585l4.178,66.538,35.467,37.343,2.033-10.537-5-29.178Z" transform="translate(-25.844 -9.434)" fill="#ffbe9d"/>
      <path id="Trazado_610918" data-name="Trazado 610918" d="M227.629,128.57a3.251,3.251,0,0,1,1-2.085,3.327,3.327,0,0,1,4.03-.486,4.479,4.479,0,0,1,1.963,4.091,4.1,4.1,0,0,1-2.8,1.876q-.274.039-.547.052a3.639,3.639,0,0,1-2.519-.817,3.241,3.241,0,0,1-1.129-2.623Z" transform="translate(-29.901 -16.49)" fill="#eb996e"/>
      <path id="Trazado_610919" data-name="Trazado 610919" d="M248.959,107.97a1.994,1.994,0,0,1-1.9,2.024,1.9,1.9,0,0,1-2.067-1.781,1.988,1.988,0,0,1,1.9-2.024,1.917,1.917,0,0,1,2.076,1.781Z" transform="translate(-32.182 -13.949)" fill="#263238"/>
      <path id="Trazado_610920" data-name="Trazado 610920" d="M249.128,102.659c-.243.261-1.763-.843-3.909-.817-2.146,0-3.709,1.112-3.944.851-.113-.113.13-.591.817-1.094a5.411,5.411,0,0,1,3.153-1,5.262,5.262,0,0,1,3.11.973C249.016,102.077,249.25,102.537,249.128,102.659Z" transform="translate(-31.691 -13.215)" fill="#263238"/>
      <path id="Trazado_610921" data-name="Trazado 610921" d="M235.883,119.892a14.212,14.212,0,0,1,3.475-.66c.547-.061,1.06-.174,1.155-.547a2.752,2.752,0,0,0-.382-1.616c-.53-1.32-1.077-2.7-1.659-4.152-2.3-5.915-3.97-10.78-3.735-10.867s2.3,4.63,4.6,10.545q.834,2.189,1.59,4.178a3.153,3.153,0,0,1,.3,2.146,1.371,1.371,0,0,1-.895.808,3.546,3.546,0,0,1-.929.139,13.723,13.723,0,0,1-3.527.035Z" transform="translate(-30.832 -13.405)" fill="#263238"/>
      <path id="Trazado_610922" data-name="Trazado 610922" d="M234.866,150.97a39.586,39.586,0,0,1-20.856-5.36s5.637,10.719,21.169,9.121l-.321-3.761Z" transform="translate(-28.113 -19.127)" fill="#eb996e"/>
      <path id="Trazado_610923" data-name="Trazado 610923" d="M228.758,124.36c.347-.026.374,2.3,2.38,3.935s4.482,1.355,4.5,1.676c.035.148-.547.46-1.6.5a5.784,5.784,0,0,1-3.753-1.268,5.07,5.07,0,0,1-1.85-3.3c-.1-.973.156-1.555.313-1.537Z" transform="translate(-30.005 -16.336)" fill="#263238"/>
      <path id="Trazado_610924" data-name="Trazado 610924" d="M248.055,92.46c-.374.486-1.85,0-3.631-.009-1.772-.069-3.275.356-3.631-.148-.156-.243.078-.738.73-1.2a5.244,5.244,0,0,1,5.846.13c.634.5.843.99.678,1.233Z" transform="translate(-31.625 -11.859)" fill="#263238"/>
      <path id="Trazado_610925" data-name="Trazado 610925" d="M221.81,108.495a1.993,1.993,0,0,0,2.015,1.92,1.915,1.915,0,0,0,1.972-1.885,1.991,1.991,0,0,0-2.007-1.92,1.911,1.911,0,0,0-1.972,1.894Z" transform="translate(-29.137 -14.004)" fill="#263238"/>
      <path id="Trazado_610926" data-name="Trazado 610926" d="M217.974,104.466c.261.252,1.711-.938,3.857-1.034,2.137-.122,3.761.9,3.978.634.113-.122-.165-.582-.869-1.042a5.421,5.421,0,0,0-3.205-.825,5.279,5.279,0,0,0-3.058,1.147c-.634.539-.834,1.016-.712,1.129Z" transform="translate(-28.628 -13.424)" fill="#263238"/>
      <path id="Trazado_610927" data-name="Trazado 610927" d="M218.008,101.008c.4.469,1.85-.1,3.622-.208,1.772-.165,3.292.174,3.614-.347.139-.252-.122-.73-.8-1.164a5.266,5.266,0,0,0-5.837.452c-.608.53-.79,1.042-.608,1.268Z" transform="translate(-28.628 -12.954)" fill="#263238"/>
      <path id="Trazado_610928" data-name="Trazado 610928" d="M201.449,118.039c-.017-1.155-1.372-3.874-2.519-4.039-3.058-.452-8.547-.156-8.53,7.592.026,10.589,10.65,8.382,10.676,8.078.017-.235.426-7.635.382-11.631Z" transform="translate(-25.011 -14.958)" fill="#ffbe9d"/>
      <path id="Trazado_610929" data-name="Trazado 610929" d="M197.182,126.074c-.043-.035-.182.13-.5.269a1.879,1.879,0,0,1-1.381.035c-1.121-.408-2.067-2.18-2.119-4.091a6.128,6.128,0,0,1,.512-2.641,2.128,2.128,0,0,1,1.381-1.416.94.94,0,0,1,1.086.5c.139.3.078.5.13.521.026.026.226-.174.139-.617a1.147,1.147,0,0,0-.417-.66,1.38,1.38,0,0,0-1.025-.269,2.583,2.583,0,0,0-1.92,1.65,6.258,6.258,0,0,0-.634,2.953c.069,2.137,1.173,4.126,2.7,4.569a1.972,1.972,0,0,0,1.685-.287c.33-.261.382-.5.347-.521Z" transform="translate(-25.279 -15.461)" fill="#eb996e"/>
      <path id="Trazado_610930" data-name="Trazado 610930" d="M197.271,108.052l2.858,2.606C211,98.836,231.843,69.649,230.688,71.387a33.784,33.784,0,0,0-16.652-.738c-8.513,2.015-24.565,7.366-23.662,17.5S197.271,108.052,197.271,108.052Z" transform="translate(-25.003 -9.184)" fill="#263238"/>
      <path id="Trazado_610931" data-name="Trazado 610931" d="M198.6,142.066a3.187,3.187,0,0,1-.825.825,7.234,7.234,0,0,1-2.962,1.216,7.826,7.826,0,0,1-4.725-.651,7.845,7.845,0,0,1-3.492-10.267,7.846,7.846,0,0,1,3.353-3.4,7.328,7.328,0,0,1,3.084-.843,2.251,2.251,0,0,1,1.155.148,11.052,11.052,0,0,0-3.944,1.233,7.517,7.517,0,0,0-2.927,3.205,7.239,7.239,0,0,0,3.127,9.2,7.575,7.575,0,0,0,4.274.756,11.035,11.035,0,0,0,3.874-1.425Z" transform="translate(-24.414 -16.939)" fill="#d3cece"/>
      <path id="Trazado_610932" data-name="Trazado 610932" d="M189.986,117.07a21.887,21.887,0,0,0-.052-2.458,36.964,36.964,0,0,1,.46-6.645,45.137,45.137,0,0,1,8.747-19.909,71.9,71.9,0,0,1,16.026-14.967c2.311-1.624,4.239-2.867,5.568-3.709a15.9,15.9,0,0,0,2.041-1.372,2.338,2.338,0,0,0-.582.261c-.374.191-.921.478-1.607.869-1.381.773-3.353,1.954-5.716,3.535a67.809,67.809,0,0,0-16.313,14.958,43.9,43.9,0,0,0-8.678,20.265,31.7,31.7,0,0,0-.235,6.732c.035.79.156,1.407.2,1.815a2.048,2.048,0,0,0,.13.625Z" transform="translate(-24.901 -8.934)" fill="#455a64"/>
      <path id="Trazado_610933" data-name="Trazado 610933" d="M215.6,67.78a4.194,4.194,0,0,0-.6.243c-.382.174-.947.46-1.659.834-1.425.747-3.466,1.894-5.889,3.457a90.442,90.442,0,0,0-8.191,5.959,52.077,52.077,0,0,0-8.808,8.765,24.227,24.227,0,0,0-3.179,5.655,22.639,22.639,0,0,0-1.364,5.889,35.112,35.112,0,0,0,.678,10.128c.573,2.832,1.233,5.073,1.7,6.61.235.773.434,1.364.573,1.763a2.01,2.01,0,0,0,.252.6,18.151,18.151,0,0,0-.556-2.441c-.391-1.555-.964-3.813-1.468-6.628a35.989,35.989,0,0,1-.512-9.972,22.169,22.169,0,0,1,1.355-5.7,23.441,23.441,0,0,1,3.1-5.472,53.149,53.149,0,0,1,8.652-8.686,98.489,98.489,0,0,1,8.052-6.046c2.371-1.607,4.361-2.814,5.742-3.64a18.969,18.969,0,0,0,2.128-1.32Z" transform="translate(-24.405 -8.904)" fill="#455a64"/>
      <path id="Trazado_610934" data-name="Trazado 610934" d="M198.1,108.326s.5-.478,1.294-1.425c.869-1.06,1.98-2.415,3.318-4.039,2.771-3.431,6.567-8.2,10.719-13.5s7.887-10.12,10.554-13.629c1.26-1.676,2.311-3.084,3.136-4.187a10.087,10.087,0,0,0,1.077-1.6,10.236,10.236,0,0,0-1.294,1.416c-.869,1.06-1.98,2.415-3.318,4.039-2.771,3.431-6.567,8.2-10.728,13.507s-7.887,10.12-10.563,13.629c-1.26,1.676-2.311,3.084-3.136,4.178a9.482,9.482,0,0,0-1.068,1.59Z" transform="translate(-26.021 -9.188)" fill="#d3cece"/>
      <path id="Trazado_610935" data-name="Trazado 610935" d="M229.107,123.511a12.134,12.134,0,0,0-1.963.061,11.768,11.768,0,0,0-1.815.764c-.113-.052.5-.947,1.72-1.207A2.158,2.158,0,0,1,229.107,123.511Z" transform="translate(-29.598 -16.165)" fill="#eb996e"/>
      <path id="Trazado_610936" data-name="Trazado 610936" d="M216.385,108.214a3.468,3.468,0,0,1-1.989.235,3.6,3.6,0,0,1-1.946-.478,6.566,6.566,0,0,1,1.98.026,6.181,6.181,0,0,1,1.963.217Z" transform="translate(-27.907 -14.175)" fill="#eb996e"/>
      <path id="Trazado_610937" data-name="Trazado 610937" d="M216.014,109.077c.017.13-.6.313-1.338.539s-1.346.434-1.407.321.486-.5,1.277-.747,1.459-.235,1.477-.113Z" transform="translate(-28.015 -14.318)" fill="#eb996e"/>
      <path id="Trazado_610938" data-name="Trazado 610938" d="M253.384,106.862c.043.122-.46.408-1.129.651s-1.242.347-1.286.226.46-.408,1.129-.651,1.242-.347,1.286-.235Z" transform="translate(-32.967 -14.03)" fill="#eb996e"/>
      <path id="Trazado_610939" data-name="Trazado 610939" d="M253.216,109.13c-.043.122-.6.035-1.242-.191s-1.138-.5-1.094-.617.6-.035,1.242.191S253.26,109.008,253.216,109.13Z" transform="translate(-32.955 -14.222)" fill="#eb996e"/>
      <path id="Trazado_610940" data-name="Trazado 610940" d="M396.091,433.446c0,.122-88.671.226-198.032.226S0,433.567,0,433.446s88.653-.226,198.058-.226S396.091,433.324,396.091,433.446Z" transform="translate(0 -56.908)" fill="#263238"/>
    </g>
  </g>
</svg>
