<svg xmlns="http://www.w3.org/2000/svg" width="295" height="276.708" viewBox="0 0 295 276.708">
  <g id="Grupo_1066758" data-name="Grupo 1066758" transform="translate(-285 -513)">
    <g id="Group_2_4_" data-name="Group 2 (4)" transform="translate(284.002 512.985)">
      <path id="Trazado_245691" data-name="Trazado 245691" d="M135.557,339.6s-82.25-4.288-120.543-40.082S65.407,226,34.893,188.845,14.919,91.834,103.1,111.578,205.045,90.841,239,117.662c33.668,26.6-15.915,70.92,3.072,99.989s65.08,32.29,55.861,81.021-107.78,46.6-162.38,40.933Z" transform="translate(-3.137 -79.635)" fill="#e9f8dc"/>
      <path id="Trazado_245692" data-name="Trazado 245692" d="M536.828,271.536H388.722V477.55H536.828Z" transform="translate(-286.776 -200.828)" fill="#839571"/>
      <path id="Trazado_245693" data-name="Trazado 245693" d="M543.174,306.7H425.569a7.644,7.644,0,0,0-7.644,7.644V486.755a7.645,7.645,0,0,0,7.644,7.644H543.174a7.645,7.645,0,0,0,7.644-7.644V314.347A7.644,7.644,0,0,0,543.174,306.7Z" transform="translate(-308.375 -226.839)" fill="#fff"/>
      <path id="Trazado_245694" data-name="Trazado 245694" d="M603.769,290.353H528.406l1.283-19.129h72.8Z" transform="translate(-390.091 -200.597)" fill="#839571"/>
      <path id="Trazado_245695" data-name="Trazado 245695" d="M653.859,227.862H636.877l-1.283,11.29h19.541l-1.283-11.29Zm-8.488,8.69a3.045,3.045,0,1,1,3.045-3.045A3.046,3.046,0,0,1,645.371,236.552Z" transform="translate(-469.372 -168.525)" fill="#839571"/>
      <path id="Trazado_245696" data-name="Trazado 245696" d="M491.837,419.259H474.592V436.5h17.246Z" transform="translate(-350.288 -310.09)" fill="none" stroke="#839571" stroke-miterlimit="10" stroke-width="4.928"/>
      <path id="Trazado_245697" data-name="Trazado 245697" d="M638.2,420.445H558.072a.878.878,0,0,1,0-1.756H638.2a.878.878,0,0,1,0,1.756Z" transform="translate(-411.384 -309.668)" fill="#839571"/>
      <path id="Trazado_245698" data-name="Trazado 245698" d="M638.2,450.788H558.072a.878.878,0,0,1,0-1.756H638.2a.878.878,0,0,1,0,1.756Z" transform="translate(-411.384 -332.111)" fill="#839571"/>
      <path id="Trazado_245699" data-name="Trazado 245699" d="M638.2,481.1H558.072a.878.878,0,0,1,0-1.756H638.2a.878.878,0,0,1,0,1.756Z" transform="translate(-411.384 -354.534)" fill="#839571"/>
      <path id="Trazado_245700" data-name="Trazado 245700" d="M638.2,660.677H558.072a.878.878,0,0,1,0-1.756H638.2a.878.878,0,0,1,0,1.756Z" transform="translate(-411.384 -487.353)" fill="#839571"/>
      <path id="Trazado_245701" data-name="Trazado 245701" d="M638.2,691.02H558.072a.878.878,0,0,1,0-1.756H638.2a.878.878,0,0,1,0,1.756Z" transform="translate(-411.384 -509.796)" fill="#839571"/>
      <path id="Trazado_245702" data-name="Trazado 245702" d="M638.2,721.337H558.072a.878.878,0,0,1,0-1.755H638.2a.878.878,0,0,1,0,1.755Z" transform="translate(-411.384 -532.22)" fill="#839571"/>
      <path id="Trazado_245703" data-name="Trazado 245703" d="M638.2,780.806H558.072a.878.878,0,0,1,0-1.756H638.2a.878.878,0,0,1,0,1.756Z" transform="translate(-411.384 -576.205)" fill="#839571"/>
      <path id="Trazado_245704" data-name="Trazado 245704" d="M638.2,811.123H558.072a.878.878,0,0,1,0-1.756H638.2a.878.878,0,0,1,0,1.756Z" transform="translate(-411.384 -598.628)" fill="#839571"/>
      <path id="Trazado_245705" data-name="Trazado 245705" d="M638.2,839.711H558.072a.878.878,0,0,0,0,1.756H638.2a.878.878,0,0,0,0-1.756Z" transform="translate(-411.384 -621.072)" fill="#839571"/>
      <path id="Trazado_245706" data-name="Trazado 245706" d="M638.2,900.908H558.072a.878.878,0,0,1,0-1.756H638.2a.878.878,0,0,1,0,1.756Z" transform="translate(-411.384 -665.038)" fill="#839571"/>
      <path id="Trazado_245707" data-name="Trazado 245707" d="M638.2,931.252H558.072a.878.878,0,0,1,0-1.756H638.2a.878.878,0,0,1,0,1.756Z" transform="translate(-411.384 -687.481)" fill="#839571"/>
      <path id="Trazado_245708" data-name="Trazado 245708" d="M638.2,961.57H558.072a.878.878,0,0,1,0-1.756H638.2a.878.878,0,0,1,0,1.756Z" transform="translate(-411.384 -709.905)" fill="#839571"/>
      <path id="Trazado_245709" data-name="Trazado 245709" d="M638.2,540.573H558.072a.878.878,0,0,1,0-1.756H638.2a.878.878,0,0,1,0,1.756Z" transform="translate(-411.384 -398.519)" fill="#839571"/>
      <path id="Trazado_245710" data-name="Trazado 245710" d="M638.2,570.891H558.072a.878.878,0,0,1,0-1.756H638.2a.878.878,0,0,1,0,1.756Z" transform="translate(-411.384 -420.944)" fill="#839571"/>
      <path id="Trazado_245711" data-name="Trazado 245711" d="M638.2,601.234H558.072a.878.878,0,0,1,0-1.756H638.2a.878.878,0,0,1,0,1.756Z" transform="translate(-411.384 -443.386)" fill="#839571"/>
      <path id="Trazado_245712" data-name="Trazado 245712" d="M491.837,539.388H474.592v17.246h17.246Z" transform="translate(-350.288 -398.942)" fill="none" stroke="#839571" stroke-miterlimit="10" stroke-width="4.928"/>
      <path id="Trazado_245713" data-name="Trazado 245713" d="M491.837,659.491H474.592v17.246h17.246Z" transform="translate(-350.288 -487.774)" fill="none" stroke="#839571" stroke-miterlimit="10" stroke-width="4.928"/>
      <path id="Trazado_245714" data-name="Trazado 245714" d="M491.837,899.723H474.592v17.246h17.246Z" transform="translate(-350.288 -665.459)" fill="none" stroke="#839571" stroke-miterlimit="10" stroke-width="4.928"/>
      <path id="Trazado_245715" data-name="Trazado 245715" d="M491.837,779.62H474.592v17.246h17.246Z" transform="translate(-350.288 -576.626)" fill="none" stroke="#839571" stroke-miterlimit="10" stroke-width="4.928"/>
      <path id="Trazado_245716" data-name="Trazado 245716" d="M490.127,416.294l3.889,4.18,9.318-15.037" transform="translate(-361.779 -299.865)" fill="none" stroke="#3b5620" stroke-linecap="round" stroke-linejoin="round" stroke-width="9.829"/>
      <path id="Trazado_245717" data-name="Trazado 245717" d="M1053.6,768.22a3.358,3.358,0,0,0-2.593-.216c.466,2.458.581,3.032.581,3.032l2.1-.7-.089-2.127Z" transform="translate(-776.63 -567.921)" fill="#ffc19d"/>
      <path id="Trazado_245718" data-name="Trazado 245718" d="M979.061,769l-19.988-.561a159.324,159.324,0,0,0-5.7,24.761c-.723,6.192-.8,18.035,1.587,26.739l6.793,21H966.7l-2.573-17.684a64.689,64.689,0,0,1,2.734-30.014l2.635-7.785,6.246,55.483h4C981.215,828.477,984.948,790.779,979.061,769Z" transform="translate(-704.085 -568.359)" fill="#ffc19d"/>
      <path id="Trazado_245719" data-name="Trazado 245719" d="M963.589,1051.039h11.594l-.6-4.14h-4.943S963.589,1046.819,963.589,1051.039Z" transform="translate(-711.97 -774.317)" fill="#3b5620"/>
      <path id="Trazado_245720" data-name="Trazado 245720" d="M1025.16,1051.039h7.806l.2-4.14h-4A4.092,4.092,0,0,0,1025.16,1051.039Z" transform="translate(-757.51 -774.317)" fill="#3b5620"/>
      <path id="Trazado_245721" data-name="Trazado 245721" d="M987.552,582.932V592.9s.081,3.781,5.241,3.781c5.954,0,5.441-5.733,5.441-5.733s2.567-.1,2.567-2.262-2.567-1.85-2.567-1.85v-3.9Z" transform="translate(-729.694 -431.148)" fill="#ffc19d"/>
      <path id="Trazado_245722" data-name="Trazado 245722" d="M932.945,640.926c-4.483-2.039-9.65-.358-13.458,2.343-3.451,2.445-7.266,8.447-12.026,5.044-3.221-2.3-4.065-4.956-5.517-8.637l-2.336.527a28.014,28.014,0,0,0,3.592,9.8c3.417,6.037,10.183,8.306,16.078,5.577q.476-.222.952-.486l-.763,23.066h19.993c-.086-10.736,4.851-32.08-6.514-37.246Z" transform="translate(-664.647 -473.119)" fill="#839571"/>
      <path id="Trazado_245723" data-name="Trazado 245723" d="M1019.84,641.7s12.932,1.519,18.043,16.847a15.966,15.966,0,0,1-7.246,18.488l-.088-2.127s7.157-9.629-1.843-17.583" transform="translate(-753.575 -474.616)" fill="#839571"/>
      <path id="Trazado_245724" data-name="Trazado 245724" d="M980.313,569.646s-2.066-.925-2.478-2.593c-.567-2.3,2.262-7.421,10.249-6.786s12.055,6.617,11.966,15.314,4.72,8.339,6.348,15.409-3.728,12.323-14.781,11.6-12.864-9.609-10.6-14.95,5.909-15.99-.716-17.982Z" transform="translate(-722.455 -414.345)" fill="#3b5620"/>
      <path id="Trazado_245725" data-name="Trazado 245725" d="M973.557,769a77.91,77.91,0,0,1-19.988-.561s-8.083,13.14-8.083,38.32c10.959,3.613,30.987,2.08,35,0,0,0-1.39-23.471-6.928-37.759Z" transform="translate(-698.58 -568.359)" fill="#2f4419"/>
      <path id="Trazado_245726" data-name="Trazado 245726" d="M897,620.088s.905-3.97-.479-4.348c-.479-2.148-.858-2.667-1.29-2.526s0,2.431,0,2.431-1.884.749-2.262,1.756,1.695,3.214,1.695,3.214Z" transform="translate(-659.701 -453.53)" fill="#ffc19d"/>
      <path id="Trazado_245727" data-name="Trazado 245727" d="M991.422,604.92c-.04.506-.331.891-.641.864s-.534-.459-.493-.959.331-.891.642-.864S991.463,604.42,991.422,604.92Z" transform="translate(-731.714 -446.702)" fill="#3b5620"/>
      <path id="Trazado_245728" data-name="Trazado 245728" d="M984.321,605.885s-2.559,3.329,0,3.335Z" transform="translate(-726.462 -448.125)" fill="#ffc19d"/>
      <path id="Trazado_245729" data-name="Trazado 245729" d="M990.146,621.527l1.844-.419a1.965,1.965,0,0,1-1.411,1.5A2.189,2.189,0,0,1,990.146,621.527Z" transform="translate(-731.612 -459.385)" fill="#fff"/>
      <path id="Trazado_245730" data-name="Trazado 245730" d="M189.5,1046.59s-6.59.055-6.59,4.22H194.5l.385-4.22Z" transform="translate(-134.545 -774.088)" fill="#839571"/>
      <path id="Trazado_245731" data-name="Trazado 245731" d="M294.753,1046.59s6.59.055,6.59,4.22H290.067l.3-4.22Z" transform="translate(-213.807 -774.088)" fill="#839571"/>
      <path id="Trazado_245732" data-name="Trazado 245732" d="M225.787,576.918s-5.233-2.309-6.057-7.394,2.667-8.933,8.521-10.061,7.59,2.208,5.152,3.977-7.617,13.471-7.617,13.471Z" transform="translate(-161.694 -413.621)" fill="#3b5620"/>
      <path id="Trazado_245733" data-name="Trazado 245733" d="M237.811,617.883l-1.04-8.94,6.685-.776.965,8.312A51.859,51.859,0,0,1,237.811,617.883Z" transform="translate(-174.387 -449.813)" fill="#ffc19d"/>
      <path id="Trazado_245734" data-name="Trazado 245734" d="M237.676,575.411c.155-.013,1.053,7.306,1.134,7.887.155,1.175.54,2.485.081,3.619-.722,1.789-2.566,2.593-4.369,2.863-5.895.878-6.233-4.868-6.233-4.868s-2.552.277-2.876-1.857,2.269-2.208,2.269-2.208l-.574-3.862Z" transform="translate(-165.966 -425.586)" fill="#ffc19d"/>
      <path id="Trazado_245735" data-name="Trazado 245735" d="M107.652,473.853,11.235,497.777a8.248,8.248,0,0,1-3.977-16.01l96.417-23.917,3.97,16.01Z" transform="translate(0 -338.633)" fill="#eec161"/>
      <path id="Trazado_245736" data-name="Trazado 245736" d="M14.929,562.193l-3.694.918A8.248,8.248,0,1,1,7.258,547.1l3.694-.918,3.97,16.01Z" transform="translate(0 -403.967)" fill="#233313"/>
      <path id="Trazado_245737" data-name="Trazado 245737" d="M44.47,541.158l-5.263,1.305,3.971,16.011,5.263-1.305Z" transform="translate(-28.261 -400.251)" fill="#ece9fc"/>
      <path id="Trazado_245738" data-name="Trazado 245738" d="M395.388,457.824l3.97,16.01,13.917-8.994-1.384-5.564Z" transform="translate(-291.706 -338.614)" fill="#efc5bc"/>
      <path id="Trazado_245739" data-name="Trazado 245739" d="M458.772,463.4l1.384,5.564,7.408-4.794Z" transform="translate(-338.587 -342.737)" fill="#3b5620"/>
      <path id="Trazado_245740" data-name="Trazado 245740" d="M86.494,590.272s.2-4.018-.425-4.267c-.6-.135-.709,2.573-.709,2.573l-5.571,1.445s.662,1.094,2.829,1.094" transform="translate(-58.277 -433.418)" fill="#ffc19d"/>
      <path id="Trazado_245741" data-name="Trazado 245741" d="M249.292,596.971c.074.5-.122.945-.432.992s-.621-.324-.7-.824.121-.945.432-.993S249.217,596.471,249.292,596.971Z" transform="translate(-182.802 -440.92)" fill="#3b5620"/>
      <path id="Trazado_245742" data-name="Trazado 245742" d="M267.653,594.248c.074.5-.121.945-.432.993s-.621-.324-.7-.824.122-.945.432-.992S267.579,593.748,267.653,594.248Z" transform="translate(-196.383 -438.906)" fill="#3b5620"/>
      <path id="Trazado_245743" data-name="Trazado 245743" d="M253.058,610.943l4.531-.7s.155,1.56-1.837,1.864c-2.174.338-2.687-1.161-2.687-1.161Z" transform="translate(-186.433 -451.347)" fill="#fff"/>
      <path id="Trazado_245744" data-name="Trazado 245744" d="M258.946,595.64s2.978,2.741.466,3.255Z" transform="translate(-190.788 -440.548)" fill="#ffc19d"/>
      <path id="Trazado_245745" data-name="Trazado 245745" d="M230.683,600.412s-1.587.128-1.283,1.283,1.641.736,1.641.736Z" transform="translate(-168.906 -444.077)" fill="#ffc19d"/>
      <path id="Trazado_245746" data-name="Trazado 245746" d="M315.271,764.571C315.325,765,315.257,764.126,315.271,764.571Z" transform="translate(-232.447 -565.4)" fill="#3b5620"/>
      <path id="Trazado_245747" data-name="Trazado 245747" d="M238.585,764.941H212.339l-.75,73.323h4.51l9.825-55.739,6.388,55.739H236.7s2.714-48.488,1.877-73.323Z" transform="translate(-155.761 -565.769)" fill="#3b5620"/>
      <path id="Trazado_245748" data-name="Trazado 245748" d="M164.006,536.172l-3.174.29s2.323,17.8-23,26.314c0,0-26.51,9.541-43.323-9.4l-3.829.885s10.088,18.744,32.438,21.513l-.2,19.967a79.267,79.267,0,0,0,26.246,0c.311-8.65-.662-25.071-.662-25.071s19.656-9.109,15.51-34.491Z" transform="translate(-66.333 -396.563)" fill="#839571"/>
      <path id="Trazado_245749" data-name="Trazado 245749" d="M261.141,675h-.317a267.95,267.95,0,0,0-2.553-33.06l.338-.081A271.719,271.719,0,0,1,261.141,675Z" transform="translate(-190.289 -474.73)" fill="#839571"/>
      <path id="Trazado_245750" data-name="Trazado 245750" d="M214.325,658.136,214,658.1a48.8,48.8,0,0,0,.378-10.561h.317A48.309,48.309,0,0,1,214.325,658.136Z" transform="translate(-157.545 -478.931)" fill="#839571"/>
      <path id="Trazado_245751" data-name="Trazado 245751" d="M298.52,639.432c-.02-.081-2.546-7.792-5-10.142l.3-.142c2.512,2.41,4.9,9.818,5,10.142Z" transform="translate(-216.358 -465.332)" fill="#839571"/>
      <path id="Trazado_245752" data-name="Trazado 245752" d="M254.507,646.827a.385.385,0,1,0-.385-.385A.385.385,0,0,0,254.507,646.827Z" transform="translate(-187.22 -477.838)" fill="#839571"/>
      <path id="Trazado_245753" data-name="Trazado 245753" d="M256.011,669.909a.385.385,0,1,0-.385-.385A.385.385,0,0,0,256.011,669.909Z" transform="translate(-188.333 -494.911)" fill="#839571"/>
      <path id="Trazado_245754" data-name="Trazado 245754" d="M258.682,692.99a.385.385,0,1,0-.385-.385A.385.385,0,0,0,258.682,692.99Z" transform="translate(-190.308 -511.982)" fill="#839571"/>
      <path id="Trazado_245755" data-name="Trazado 245755" d="M260.186,716.072a.385.385,0,1,0-.385-.385A.385.385,0,0,0,260.186,716.072Z" transform="translate(-191.421 -529.055)" fill="#839571"/>
      <path id="Trazado_245756" data-name="Trazado 245756" d="M261.9,739.154a.385.385,0,1,0-.385-.385A.385.385,0,0,0,261.9,739.154Z" transform="translate(-192.687 -546.127)" fill="#839571"/>
      <path id="Trazado_245757" data-name="Trazado 245757" d="M263.376,762.236a.385.385,0,1,0-.385-.385A.385.385,0,0,0,263.376,762.236Z" transform="translate(-193.78 -563.199)" fill="#839571"/>
      <path id="Trazado_245758" data-name="Trazado 245758" d="M360.055,525.694s-.2-3.849.405-4.085c.574-.128.675,2.39.675,2.39l3.889-.966s.02,1.2-1.8,2.363" transform="translate(-265.55 -385.788)" fill="#ffc19d"/>
      <path id="Trazado_245759" data-name="Trazado 245759" d="M773.286,99.928c-3.788-.473-8.886,2.613-5.335,17.279s21.824,15.173,21.824,15.173l1.182-3.3c-23.5-5.381-13.883-28.691-17.664-29.163Z" transform="translate(-566.38 -73.867)" fill="#ffc19d"/>
      <path id="Trazado_245760" data-name="Trazado 245760" d="M883.215,377.5s6.59.054,6.59,4.22H878.212l.358-4.22h4.646Z" transform="translate(-648.821 -279.206)" fill="#3b5620"/>
      <path id="Trazado_245761" data-name="Trazado 245761" d="M777.69,211.089l12.85,19.075c15.652,0,13.68,24.241,13.68,24.241h5.611s1.668-12.114-.912-21.661c-4.97-18.414-31.229-21.662-31.229-21.662Z" transform="translate(-574.472 -156.114)" fill="#9ab183"/>
      <path id="Trazado_245762" data-name="Trazado 245762" d="M748.839,18.053a10.743,10.743,0,0,1-5.172-7.934c-.641-5.557,3.086-9.055,7.954-9.98s12.154,3.477,8.393,7.468" transform="translate(-549.253 0)" fill="#839571"/>
      <path id="Trazado_245763" data-name="Trazado 245763" d="M729.425,192.32,710.7,190.308c-.04,1.02,0,2.336,0,3.423l18.866-.162a3.926,3.926,0,0,1-.135-1.249Z" transform="translate(-524.911 -140.748)" fill="#ffc19d"/>
      <path id="Trazado_245764" data-name="Trazado 245764" d="M737.573,210.248c-3.133-1.628-7.184-4.362-7.981-7.387l-18.866.162c0,23.626,9.582,21.067,24.12,21.067,13.025,0,6.469,24.849,6.469,24.849h5.652S758.783,217.608,737.573,210.248Z" transform="translate(-524.942 -150.033)" fill="#afc797"/>
      <path id="Trazado_245765" data-name="Trazado 245765" d="M735.649,89.43c-.763-4-3.693-10.183-6.746-10.905a13.76,13.76,0,0,0-12.384,2.849,15.55,15.55,0,0,0-5.334,11.547c-.1,3.781-.263,9.534-.459,14.4l18.724,2.012c.439-8.123,7.623-12.458,6.192-19.906Z" transform="translate(-524.942 -57.757)" fill="#3b5620"/>
      <path id="Trazado_245766" data-name="Trazado 245766" d="M780.9,175.1l-2.519,11.655-12.775.675v.952l11.351,6.023,22.418-2.492.041-.9,4.821-16.915Z" transform="translate(-565.532 -128.76)" fill="#3b5620"/>
      <path id="Trazado_245767" data-name="Trazado 245767" d="M724.242,91.7c-4.079-.513-11.479,3.059-7.65,18.873s24.531,16.273,24.531,16.273l.729-3.484C716.517,117.564,728.32,92.215,724.242,91.7Z" transform="translate(-528.492 -67.781)" fill="#ffc19d"/>
      <path id="Trazado_245768" data-name="Trazado 245768" d="M763.84,64.125a3.583,3.583,0,0,1-3.174-3.957l.628-5.706,6.914.756-.648,5.935a3.365,3.365,0,0,1-3.707,2.978Z" transform="translate(-561.864 -40.272)" fill="#ffc19d"/>
      <path id="Trazado_245769" data-name="Trazado 245769" d="M830.1,376.51s6.442,1.391,5.6,5.469l-11.351-2.343,1.276-4.051,4.484.925Z" transform="translate(-608.98 -277.787)" fill="#3b5620"/>
      <path id="Trazado_245770" data-name="Trazado 245770" d="M768,20.586l-1.087,9.906s-.493,3.748-5.618,3.187c-5.922-.648-4.787-6.286-4.787-6.286s-2.539-.385-2.309-2.525,2.755-1.56,2.755-1.56l.425-3.883Z" transform="translate(-557.089 -14.357)" fill="#ffc19d"/>
      <path id="Trazado_245771" data-name="Trazado 245771" d="M764.665,13.175l-.358,5.483.993,2.289,1.33-7.6Z" transform="translate(-564.573 -9.734)" fill="#839571"/>
      <path id="Trazado_245772" data-name="Trazado 245772" d="M779.566,41.87c-.061.506-.358.885-.669.844s-.52-.473-.459-.979.358-.885.668-.844S779.626,41.363,779.566,41.87Z" transform="translate(-575.017 -30.231)" fill="#3b5620"/>
      <path id="Trazado_245773" data-name="Trazado 245773" d="M798,43.97c-.061.506-.358.885-.668.844s-.52-.473-.459-.979.358-.885.669-.844S798.066,43.464,798,43.97Z" transform="translate(-588.655 -31.785)" fill="#3b5620"/>
      <path id="Trazado_245774" data-name="Trazado 245774" d="M788.811,44.4s2.167,3.417-.385,3.268Z" transform="translate(-582.412 -32.829)" fill="#ffc19d"/>
      <path id="Trazado_245775" data-name="Trazado 245775" d="M760.538,38.326s-1.566-.284-1.573.912,1.4,1.134,1.4,1.134l.169-2.039Z" transform="translate(-560.622 -28.315)" fill="#ffc19d"/>
      <path id="Trazado_245776" data-name="Trazado 245776" d="M780.568,59.261a3.541,3.541,0,0,0,3.863.425" transform="translate(-576.6 -43.821)" fill="none" stroke="#3b5620" stroke-miterlimit="10" stroke-width="1.141"/>
    </g>
  </g>
</svg>
