<svg xmlns="http://www.w3.org/2000/svg" width="94.462" height="94.462" viewBox="0 0 94.462 94.462">
  <g id="Grupo_1066766" data-name="Grupo 1066766" transform="translate(-810 -2965.388)">
    <g id="configuraciones" transform="translate(810 2965.388)">
      <path id="Trazado_611383" data-name="Trazado 611383" d="M88.957,53.229l5.505-.863V42.1l-5.505-.863a5.568,5.568,0,0,1-2.581-9.677l4.155-3.422-5.112-8.852-5.085,1.9a5.536,5.536,0,0,1-7.057-7.057l1.9-5.085L66.328,3.932,62.906,8.086a5.569,5.569,0,0,1-9.677-2.581L52.365,0H42.1l-.863,5.505a5.569,5.569,0,0,1-9.677,2.581L28.134,3.932,19.282,9.044l1.9,5.085a5.536,5.536,0,0,1-7.057,7.057l-5.085-1.9L3.932,28.134l4.155,3.422a5.568,5.568,0,0,1-2.581,9.677L0,42.1V52.365l5.505.863a5.569,5.569,0,0,1,2.581,9.677L3.932,66.328,9.044,75.18l5.085-1.9a5.536,5.536,0,0,1,7.057,7.057l-1.9,5.085,8.852,5.112,3.422-4.155a5.569,5.569,0,0,1,9.677,2.581l.863,5.505H52.365l.863-5.505a5.569,5.569,0,0,1,9.677-2.581l3.422,4.155,8.852-5.112-1.9-5.085a5.536,5.536,0,0,1,7.057-7.057l5.085,1.9,5.112-8.852-4.155-3.422A5.569,5.569,0,0,1,88.957,53.229ZM47.231,70.293A23.062,23.062,0,1,1,70.293,47.231,23.087,23.087,0,0,1,47.231,70.293Z" transform="translate(0 0)" fill="#1e4a6f"/>
      <path id="Trazado_611384" data-name="Trazado 611384" d="M295.145,62.906l4.155,3.422-5.112,8.852-5.085-1.9a5.536,5.536,0,0,0-7.057,7.057l1.9,5.085L275.1,90.53l-3.422-4.155A5.569,5.569,0,0,0,262,88.956l-.863,5.505H256V70.293a23.062,23.062,0,0,0,0-46.124V0h5.135L262,5.505a5.569,5.569,0,0,0,9.677,2.581L275.1,3.932l8.852,5.112-1.9,5.085a5.536,5.536,0,0,0,7.057,7.057l5.085-1.9,5.112,8.852-4.155,3.422a5.568,5.568,0,0,0,2.581,9.677l5.505.863V52.365l-5.505.863a5.569,5.569,0,0,0-2.581,9.677Z" transform="translate(-208.769)" fill="#1b3f5e"/>
      <path id="Trazado_611385" data-name="Trazado 611385" d="M145.907,121a24.907,24.907,0,1,0,24.907,24.907A24.935,24.935,0,0,0,145.907,121Zm0,38.744a13.837,13.837,0,1,1,13.837-13.837A13.853,13.853,0,0,1,145.907,159.744Z" transform="translate(-98.676 -98.676)" fill="#1b3f5e"/>
      <path id="Trazado_611386" data-name="Trazado 611386" d="M280.907,145.907A24.935,24.935,0,0,1,256,170.814v-11.07a13.837,13.837,0,1,0,0-27.674V121A24.935,24.935,0,0,1,280.907,145.907Z" transform="translate(-208.769 -98.676)" fill="#1e4a6f"/>
    </g>
  </g>
</svg>
