<svg xmlns="http://www.w3.org/2000/svg" width="535.314" height="343.094" viewBox="0 0 535.314 343.094">
  <g id="Grupo_1066781" data-name="Grupo 1066781" transform="translate(-749.145 -3362.382)">
    <g id="Group_75" data-name="Group 75" transform="translate(749.145 3362.378)">
      <path id="Trazado_614939" data-name="Trazado 614939" d="M471.05,17.053a8.432,8.432,0,0,1-8.334-8.525,8.337,8.337,0,1,1,16.671,0A8.434,8.434,0,0,1,471.05,17.053ZM117.086,221.442H72.546c-23.971,0-43.582,20.057-43.582,44.572s19.611,44.571,43.582,44.571H449.151c38.817,0,70.574-32.479,70.574-72.171s-31.761-72.171-70.574-72.171c-16.413,0-29.837-13.734-29.837-30.516s13.424-30.516,29.837-30.516h35.914c17.063,0,31.022-14.278,31.022-31.727s-13.962-31.727-31.022-31.727H439.652a12.353,12.353,0,0,1,0-24.7h8A8.458,8.458,0,0,0,455.99,8.53,8.456,8.456,0,0,0,447.656.007H395.125c-11.065,0-12.295,13.366-40.242,13.366h-64.8a11.126,11.126,0,0,0,0,22.246h10.444a16.123,16.123,0,0,1,0,32.238H269.091c-42.451,0-48.447,11.345-55.881,33.912s-46.049,24.385-46.049,24.385h-52.8c-13.062,0-23.751,10.928-23.751,24.286s10.686,24.292,23.751,24.292h2.717c12.562,0,22.843,10.51,22.843,23.36s-10.281,23.361-22.843,23.361Z" transform="translate(-12.092 0)" fill="#d4d6db" fill-rule="evenodd"/>
      <path id="Trazado_614940" data-name="Trazado 614940" d="M262.25,506.721c144.84,0,262.254,4.832,262.254,10.8S407.091,528.311,262.25,528.311,0,523.479,0,517.516,117.413,506.721,262.25,506.721Z" transform="translate(0 -185.213)" fill="#d2dfee" fill-rule="evenodd"/>
      <path id="Trazado_614941" data-name="Trazado 614941" d="M198.412,71.628h69.693c1.971,0,.571,6.146.636,8.1l3.9,115.563c.066,1.955-5.47,6.7-7.438,6.7H195.515a3.591,3.591,0,0,1-3.581-3.578l-.043-118.686c0-1.968,4.556-8.1,6.523-8.1Z" transform="translate(-71.805 -29.903)" fill="#4f6736" fill-rule="evenodd"/>
      <path id="Trazado_614942" data-name="Trazado 614942" d="M198.311,71.309H268c1.606,0,1.244,3.347.965,5.948a19.232,19.232,0,0,0-.174,2.3l3.9,115.563a1.337,1.337,0,0,1-.028.324c-.2,1.036-1.47,2.564-2.955,3.885A11.9,11.9,0,0,1,265.439,202a2.067,2.067,0,0,1-.407.048H195.338a3.74,3.74,0,0,1-3.736-3.734l-.043-118.686a1.932,1.932,0,0,1,.04-.379,13.707,13.707,0,0,1,2.611-4.641c1.3-1.656,2.825-3.086,3.857-3.277a1.393,1.393,0,0,1,.241-.023Zm69.62.377H198.238a.78.78,0,0,0-.168.018c-.915.171-2.327,1.523-3.571,3.1a13.325,13.325,0,0,0-2.523,4.45,1.659,1.659,0,0,0-.033.309l.043,118.686a3.441,3.441,0,0,0,3.427,3.425h69.693a1.529,1.529,0,0,0,.319-.038,11.489,11.489,0,0,0,4.063-2.566c1.417-1.259,2.623-2.693,2.8-3.628a1.069,1.069,0,0,0,.023-.241l-3.9-115.563a20.693,20.693,0,0,1,.174-2.352c.264-2.448.6-5.6-.656-5.6Z" transform="translate(-71.673 -29.77)" fill="#354d1d" fill-rule="evenodd"/>
      <path id="Trazado_614943" data-name="Trazado 614943" d="M202.579,71.628h69.693a3.592,3.592,0,0,1,3.581,3.578l.043,118.688a3.589,3.589,0,0,1-3.578,3.578H202.624a3.592,3.592,0,0,1-3.581-3.578L199,75.207A3.588,3.588,0,0,1,202.579,71.628Z" transform="translate(-74.543 -29.903)" fill="#fff" fill-rule="evenodd"/>
      <path id="Trazado_614944" data-name="Trazado 614944" d="M202.48,71.3h69.693a3.745,3.745,0,0,1,3.737,3.734l.043,118.686a3.706,3.706,0,0,1-.068.714,3.848,3.848,0,0,1-3.048,3.031,3.909,3.909,0,0,1-.691.062H202.452a3.74,3.74,0,0,1-3.737-3.731l-.043-118.688a3.942,3.942,0,0,1,.065-.714,3.847,3.847,0,0,1,3.051-3.028A3.681,3.681,0,0,1,202.48,71.3Zm69.62.379H202.407a3.345,3.345,0,0,0-3.349,3.355l.043,118.686a3.446,3.446,0,0,0,3.425,3.427h69.694a3.524,3.524,0,0,0,.618-.055,3.346,3.346,0,0,0,2.734-3.3l-.043-118.689a3.44,3.44,0,0,0-3.427-3.425Z" transform="translate(-74.413 -29.768)" fill="#354d1d" fill-rule="evenodd"/>
      <path id="Trazado_614945" data-name="Trazado 614945" d="M274.484,80.01H207.577V196.09h66.907Z" transform="translate(-77.959 -33.403)" fill="#eff9fc"/>
      <path id="Trazado_614946" data-name="Trazado 614946" d="M207.593,80.064l.008,23.942c-.128.06-.256.125-.384.191l-.01-24.51h15.077c-.1.126-.2.249-.291.377h-14.4Zm.017,50.709.026,64.995h22.057c-.015.126-.027.251-.035.377H207.251l-.023-65.326q.192-.018.384-.045ZM231.5,195.767h42.661l-.017-50.679c.128-.068.256-.141.384-.216l.017,51.272H231.324C231.384,196.018,231.445,195.9,231.5,195.767Zm42.633-78.7v-9.292c.126-.111.256-.224.38-.344l0,9.722c-.125-.033-.253-.063-.384-.088Zm-.008-22.246,0-14.758H252.5l-.062-.377H274.5l.005,15.346C274.379,94.957,274.253,94.887,274.122,94.821Z" transform="translate(-77.811 -33.268)" fill="#354d1d" fill-rule="evenodd"/>
      <path id="Trazado_614947" data-name="Trazado 614947" d="M274.4,80.312H207.875V87.7H274.4Z" transform="translate(-78.079 -33.529)" fill="#eff9fc"/>
      <path id="Trazado_614948" data-name="Trazado 614948" d="M213.3,83.362a1.88,1.88,0,1,1-1.88,1.88A1.88,1.88,0,0,1,213.3,83.362Z" transform="translate(-80.524 -34.802)" fill="#eff9fc" fill-rule="evenodd"/>
      <path id="Trazado_614949" data-name="Trazado 614949" d="M223.934,83.362a1.88,1.88,0,1,1-1.88,1.88A1.88,1.88,0,0,1,223.934,83.362Z" transform="translate(-84.572 -34.802)" fill="#eff9fc" fill-rule="evenodd"/>
      <path id="Trazado_614950" data-name="Trazado 614950" d="M234.559,83.362a1.88,1.88,0,1,1-1.879,1.88A1.878,1.878,0,0,1,234.559,83.362Z" transform="translate(-88.619 -34.802)" fill="#eff9fc" fill-rule="evenodd"/>
      <path id="Trazado_614951" data-name="Trazado 614951" d="M246.988,130.543l24.181-7.627a25.194,25.194,0,0,0-20.6-16.984l-5.528,24.045Zm22.442-4.792a25.164,25.164,0,1,1-41.044-11.461,25.8,25.8,0,0,1,17.424-6.984,4.664,4.664,0,0,1,1.942.563l-3.777,25.907,23.515-8.591,1.943.565Z" transform="translate(-83.002 -38.082)" fill="#d2d3d5" fill-rule="evenodd"/>
      <path id="Trazado_614952" data-name="Trazado 614952" d="M262.894,129.572l24.181-7.626a25.194,25.194,0,0,0-20.6-16.984Z" transform="translate(-99.717 -38.307)" fill="#354d1d" fill-rule="evenodd"/>
      <path id="Trazado_614953" data-name="Trazado 614953" d="M266.1,126.09l-25.455,8.029,3.777-25.907A25.156,25.156,0,1,0,266.1,126.09Z" transform="translate(-81.76 -38.901)" fill="#4f6736" fill-rule="evenodd"/>
      <path id="Trazado_614954" data-name="Trazado 614954" d="M246.522,114.5c.347,0,.691.008,1.036.025a5.167,5.167,0,0,0-.068.7,20.243,20.243,0,0,0-21.208,20.218,20,20,0,0,0,20.241,20.241,20.246,20.246,0,0,0,19.487-25.719c.093-.02.557-.151.673-.2A20.946,20.946,0,1,1,246.519,114.5Z" transform="translate(-85.231 -41.409)" fill="#fefefe" fill-rule="evenodd"/>
      <path id="Trazado_614955" data-name="Trazado 614955" d="M269.722,111.728q-.829-.184-1.686-.3l-.1.7c.55.078,1.093.174,1.628.291a20.047,20.047,0,0,1,9.946,5.456,21.863,21.863,0,0,1,4.98,8.257l.7-.221a19.956,19.956,0,0,0-15.464-14.175Z" transform="translate(-101.774 -40.858)" fill="#fefefe" fill-rule="evenodd"/>
      <path id="Trazado_614956" data-name="Trazado 614956" d="M94.6,243.323a80.65,80.65,0,0,1,26.529,4.427,70.092,70.092,0,0,1-1.338-13.644c0-40.085,33.837-72.576,75.574-72.576a78.475,78.475,0,0,1,21.31,2.929c10.561-51.291,56.66-89.9,111.928-89.9,63.073,0,114.205,50.285,114.205,112.318a110.594,110.594,0,0,1-4.332,30.747c41.267,2.869,73.75,32.7,73.75,71.205s-35.774,69.118-57.782,75.453c-3.3.953-7.808.892-13.086,0H94.6c-38.957,0-70.538-27.077-70.538-60.48S55.644,243.32,94.6,243.32Z" transform="translate(-10.046 -31.126)" fill="#b1bba6" fill-rule="evenodd"/>
      <g id="Grupo_1016163" data-name="Grupo 1016163" transform="translate(318.741 43.434)" opacity="0.17">
        <path id="Trazado_614957" data-name="Trazado 614957" d="M632.343,238.9a69.231,69.231,0,0,1,20.99,49.928c0,19.745-9.237,38.275-20.99,51.772-10.622,12.2-23.3,20.674-33.069,23.681h11.054c4.937.892,9.156.951,12.242,0a50.968,50.968,0,0,0,9.773-4.317c19.937-11.192,44.286-38.3,44.286-71.133,0-29.782-18.183-54.375-44.286-65.318a79.034,79.034,0,0,0-24.709-5.887,117.831,117.831,0,0,0,4.053-30.747c0-62.03-47.837-112.32-106.845-112.32a102.755,102.755,0,0,0-11.65.66c53.531,6.1,95.2,53.764,95.2,111.66a118.776,118.776,0,0,1-2.073,22.136q-.833,4.369-1.98,8.611a76.486,76.486,0,0,1,48.008,21.276Z" transform="translate(-493.192 -74.562)" fill="#4f6736" fill-rule="evenodd"/>
      </g>
      <path id="Trazado_614958" data-name="Trazado 614958" d="M84.361,243.324c.563,0,1.123.008,1.683.019-35.692.8-64.359,27.561-64.359,60.46s29.546,60.48,65.992,60.48H84.361c-36.446,0-65.992-27.077-65.992-60.48S47.915,243.324,84.361,243.324Zm24.605,3.222a74.8,74.8,0,0,1-1.04-12.436c0-40.085,31.656-72.575,70.706-72.575q.852,0,1.7.02c-38.3.881-69.093,33.026-69.093,72.556a74.815,74.815,0,0,0,1.251,13.644q-1.741-.647-3.528-1.208ZM198.742,163.6c10.2-50.86,53.124-89.04,104.539-89.04.515,0,1.028.011,1.543.019-50.918.873-93.174,39.181-102.941,89.886Q200.326,164,198.742,163.6ZM417.278,364.927a35.536,35.536,0,0,1-8.511-.644h3.317A43.093,43.093,0,0,0,417.278,364.927Z" transform="translate(-7.669 -31.128)" fill="#4f6736" fill-rule="evenodd"/>
      <path id="Trazado_614959" data-name="Trazado 614959" d="M96.51,446.281v15.607H94.593V482.4l-20.324,1.395a1.633,1.633,0,0,0-1.586,1.586v1.586h52.229V485.12a1.367,1.367,0,0,0-1.329-1.329L103,482.4v-20.51h-1.918V446.279H96.51ZM72.9,495.935A3.395,3.395,0,1,1,76.3,492.54,3.393,3.393,0,0,1,72.9,495.935Zm35.006-6.79a3.395,3.395,0,1,0,3.392,3.395A3.393,3.393,0,0,0,107.909,489.145Zm-19.183,0a3.395,3.395,0,1,0,3.392,3.395A3.393,3.393,0,0,0,88.726,489.145Zm35.006,0a3.395,3.395,0,1,0,3.392,3.395A3.393,3.393,0,0,0,123.732,489.145Z" transform="translate(-29.021 -159.978)" fill="#4f6736" fill-rule="evenodd"/>
      <path id="Trazado_614960" data-name="Trazado 614960" d="M123.547,496.008a3.651,3.651,0,1,1,3.651-3.651A3.656,3.656,0,0,1,123.547,496.008Zm0-6.79a3.136,3.136,0,1,0,3.136,3.136A3.14,3.14,0,0,0,123.547,489.218Zm-15.823,6.79a3.651,3.651,0,1,1,3.651-3.651A3.656,3.656,0,0,1,107.723,496.008Zm0-6.79a3.136,3.136,0,1,0,3.136,3.136A3.14,3.14,0,0,0,107.723,489.218Zm-19.183,6.79a3.651,3.651,0,1,1,3.651-3.651A3.656,3.656,0,0,1,88.54,496.008Zm0-6.79a3.136,3.136,0,1,0,3.136,3.136A3.14,3.14,0,0,0,88.54,489.218Zm-15.824,6.79a3.651,3.651,0,1,1,3.651-3.651A3.656,3.656,0,0,1,72.717,496.008Zm0-6.79a3.136,3.136,0,1,0,3.136,3.136A3.14,3.14,0,0,0,72.717,489.218Zm52.267-2.184H72.239V485.19a1.885,1.885,0,0,1,1.824-1.845l20.085-1.377V461.443h1.918v-15.6h5.088v15.6h1.918v20.525l20.344,1.377a1.617,1.617,0,0,1,1.568,1.586v2.1Zm-52.229-.515h51.714v-1.586a1.106,1.106,0,0,0-1.088-1.071l-20.824-1.413V461.959h-1.918V446.352H96.581v15.607h-1.92v20.492L74.1,483.863a1.371,1.371,0,0,0-1.344,1.329v1.329Z" transform="translate(-28.835 -159.794)" fill="#4f6736"/>
      <path id="Trazado_614961" data-name="Trazado 614961" d="M89.851,293.008H33.295L52.249,374.74l59.439.058-19.15-79.109c-.347-1.435-1.209-2.684-2.684-2.684Z" transform="translate(-13.901 -103.193)" fill="#4f6736" fill-rule="evenodd"/>
      <path id="Trazado_614962" data-name="Trazado 614962" d="M111.779,374.875h-.326l-59.642-.058-.045-.2L32.738,292.57h56.88c1.422,0,2.493,1.05,2.935,2.879ZM52.22,374.3l58.906.058L92.054,295.57c-.181-.749-.781-2.486-2.435-2.486H33.387Z" transform="translate(-13.668 -102.998)" fill="#4f6736"/>
      <path id="Trazado_614963" data-name="Trazado 614963" d="M157.787,433.421H106.42v10.916h55.931v-6.355a4.576,4.576,0,0,0-4.563-4.563Z" transform="translate(-44.431 -159.206)" fill="#4f6736" fill-rule="evenodd"/>
      <path id="Trazado_614964" data-name="Trazado 614964" d="M162.425,444.412H105.98V432.979H157.6a4.826,4.826,0,0,1,4.822,4.82v6.614Zm-55.931-.515h55.416v-6.1a4.309,4.309,0,0,0-4.3-4.3H106.495Z" transform="translate(-44.247 -159.008)" fill="#4f6736"/>
      <path id="Trazado_614965" data-name="Trazado 614965" d="M27.009,293.008h-8.77l20.2,87.341c1.266,5.478,4.455,5.237,4.455,5.367H69.6v-.151l29.958.179-.012-.053L69.6,385.513V374.8H45.926L27.007,293.005Z" transform="translate(-7.615 -102.258)" fill="#4f6736" fill-rule="evenodd"/>
      <path id="Trazado_614966" data-name="Trazado 614966" d="M99.377,385.819l-29.724-.176a.259.259,0,0,1-.234.149H42.713a.253.253,0,0,1-.136-.04c-.02-.005-.048-.008-.078-.013-2.779-.513-3.98-3.282-4.5-5.516L17.8,292.882a.26.26,0,0,1,.251-.317h8.77a.259.259,0,0,1,.251.2l18.871,81.592H69.419a.258.258,0,0,1,.259.259v10.459l29.689.176a.255.255,0,0,1,.249.193.307.307,0,0,1-.04.249.274.274,0,0,1-.2.126Zm-56.6-.545H69.163v-10.4H45.743a.259.259,0,0,1-.251-.2L26.621,293.083H18.378l20.13,87.025c.7,3.028,2.076,4.754,4.086,5.124A1.2,1.2,0,0,1,42.776,385.274Z" transform="translate(-7.43 -102.058)" fill="#4f6736"/>
      <path id="Trazado_614967" data-name="Trazado 614967" d="M183.936,379.648c1.357.6,7.29.618,9.406.151s.533-3.44-.269-4.28a50.828,50.828,0,0,0-6.677-2.965,13.2,13.2,0,0,1-5.491.859,16.118,16.118,0,0,1-.606,5.179c.829.324,3.068.8,3.636,1.053Z" transform="translate(-68.53 -137.051)" fill="#ffb27d" fill-rule="evenodd"/>
      <path id="Trazado_614968" data-name="Trazado 614968" d="M135.206,306.231c-4.108,13.139-.073,13.544-2.714,21.653-1.927,5.912.618,18.248,5.1,19.8,8,2.762,21.794,3.289,22.98,2.274,1.395-1.194,1.6-5.34,1.4-5.938s-18.366-7.357-18.366-7.357c-1.7-36.61-13.016-36.667-8.4-30.425Z" transform="translate(-49.944 -109.293)" fill="#354d1d" fill-rule="evenodd"/>
      <path id="Trazado_614969" data-name="Trazado 614969" d="M112.879,251.976s-2.063,13.446-2.435,18.718c-.186,2.651-.458,4.782,1.209,6.564,0,0-4.146.4-5.556-.744a3.885,3.885,0,0,0,.53.812s-4.639.171-6.556-1.279c-5.234-2.686-6.506-42.776,12.971-37.863,0,0,12.873-1.1,11.856,11.534.216,15,1.53,33.227,2.536,35.835-1.448.829-4.945-1.894-5.378-3.091-.384-1.058-.6-2.289-.7-2.6a29.794,29.794,0,0,0,.666,3.844s-5.309-5.872-7.536-7.549S112.246,254.582,112.879,251.976Z" transform="translate(-40.389 -85.694)" fill="#4f6736" fill-rule="evenodd"/>
      <path id="Trazado_614970" data-name="Trazado 614970" d="M116.779,257.241a27.56,27.56,0,0,1-3.4-8.036c-.468-2.643.877-12.444,10.727-11.034a13.379,13.379,0,0,1,5.551,2.1c2.138,1.445,5.224,4.566,1.772,13.114l-.895,2.89-13.756.97Z" transform="translate(-47.304 -87.102)" fill="#4f6736" fill-rule="evenodd"/>
      <path id="Trazado_614971" data-name="Trazado 614971" d="M140.175,310.678c-2.289-5.973-5.281-11.949-7.8-12.6,0,0-.088,4.242-.234,10.192.965,13.162,3.219,34.848,3.631,39.723,20.663,6.476,3.518.958,4.4-37.313Z" transform="translate(-55.169 -107.156)" fill="#354d1d" fill-rule="evenodd"/>
      <path id="Trazado_614972" data-name="Trazado 614972" d="M97.545,293.816s-4.88,2.45-9.152,5.079c-2.385,1.467-4.847,5.923-4.161,6.711.47.535,1.8-.384,1.437-.2-2.988,1.523,4.44,43.327,6.968,45.241s24.769.332,27.3-2.083-1.943-9.823.249-24.656S113.5,296.269,112.36,296.3s-8.581-2.48-8.581-2.48Z" transform="translate(-35.118 -105.264)" fill="#354d1d" fill-rule="evenodd"/>
      <path id="Trazado_614973" data-name="Trazado 614973" d="M92,359.1c2.526,1.918,18.442,1.958,25.216-.148.764-.239,4.237-1.621,4.317-2.922-.817-.154-4.063.236-5.38-.068-4.584-1.053-7.106-6.73-7.106-6.73s-2.523-.909-8.167-3.3-3.32-9.629-3.453-12.815-3.606-11.162-13.83-19.062l-.955,1.88C81.91,323.2,89.665,357.324,92,359.1Z" transform="translate(-34.483 -113.286)" fill="#354d1d" fill-rule="evenodd"/>
      <path id="Trazado_614974" data-name="Trazado 614974" d="M111.665,264.365l-4.973,18.178s8.4,13.12,10.714,11.953-1.291-10.661-1.291-11.953,3.6-14.61,3.6-14.61l-8.051-3.565Z" transform="translate(-44.544 -96.215)" fill="#ffb27d" fill-rule="evenodd"/>
      <path id="Trazado_614975" data-name="Trazado 614975" d="M118.673,283.472a4.779,4.779,0,0,1-.174-.927c0-1.291,3.6-14.61,3.6-14.61l-8.051-3.565-1.648,6.015a31.391,31.391,0,0,0,6.27,13.089Z" transform="translate(-46.929 -96.744)" fill="#354d1d" fill-rule="evenodd"/>
      <path id="Trazado_614976" data-name="Trazado 614976" d="M131.438,259.108a20.536,20.536,0,0,1-3.671,10.642c-2.473,3.565-4.295,3.827-7.5,1.7-2.762-1.842-6.051-6.056-5.749-10.446-.827-6.345,2.526-12.014,7.493-12.662S131.8,252.72,131.438,259.108Z" transform="translate(-47.761 -90.62)" fill="#ffb27d" fill-rule="evenodd"/>
      <path id="Trazado_614977" data-name="Trazado 614977" d="M182.2,387.545c9.649-1.462,12.928-1,18.836,9.989s13.765,30.78,18.288,33.335c6.808,3.85,9.064,13.286,11.858,12.863s4.6.812,1.553,3.34-7.956,4.681-9.634,4.231-2.982-7.707-7.37-10.061-3.065-4.292-2.779-6.377-12.8-11.682-22.678-23.618c-6.031-7.295-9.136-12.1-9.6-16.469a11.449,11.449,0,0,1,1.523-7.235Z" transform="translate(-68.054 -135.204)" fill="#ffb27d" fill-rule="evenodd"/>
      <path id="Trazado_614978" data-name="Trazado 614978" d="M206.127,427.4c-2.241-5.686-4.49-15.072-6.6-23.676-3.005-12.237-6.154-15.14-8.149-16.446-2.412-.606-5.269-.327-9.169.264a11.441,11.441,0,0,0-1.523,7.235c.46,4.365,3.566,9.177,9.6,16.469A173.245,173.245,0,0,0,206.127,427.4Z" transform="translate(-68.488 -140.056)" fill="#4f6736" fill-rule="evenodd"/>
      <path id="Trazado_614979" data-name="Trazado 614979" d="M181.684,397.214s-2.568,19.374-4.958,21.342c-1.708,1.41-2.92,1.5-4.118-4.274s1.859-27.345,1.859-27.345Z" transform="translate(-65.563 -140.663)" fill="#3b5bb3" fill-rule="evenodd"/>
      <path id="Trazado_614980" data-name="Trazado 614980" d="M167.846,410.163l-23.761,4L157.5,394.92l10.209-2.078,6.121,1.407Z" transform="translate(-54.587 -143.607)" fill="#354d1d" fill-rule="evenodd"/>
      <path id="Trazado_614981" data-name="Trazado 614981" d="M97.169,388.714c-8.431,15.13-2.671,24.747,7.574,25.724s26.425-.889,35.853-8.727,17.17-16.123,16.09-17.357-59.516.357-59.516.357Z" transform="translate(-38.873 -141.414)" fill="#4f6736" fill-rule="evenodd"/>
      <path id="Trazado_614982" data-name="Trazado 614982" d="M180.815,402.072c1.727-5.179,3.717-9.154,7.569-9.227,4.051-.076,6.543,2.033,6.717,8.659.206,7.9.485,34.032.121,45.654-.277,8.8,2.289,11.614,2.071,20.789-.164,6.907,7.2,3.417,4.355,7-1.955,2.463-7.777,1.656-11.356,1.2-3.186-.4,1.651-9.956-2.762-12.509-3.784-2.191-3.86-5.749-1.47-8.44s.264-10.662-1.326-16.241-4.066-11.611-5.689-24.8c-.462-3.759.714-8.923,1.769-12.084Z" transform="translate(-67.884 -137.668)" fill="#ffb27d" fill-rule="evenodd"/>
      <path id="Trazado_614983" data-name="Trazado 614983" d="M117.073,295.463c1.36,4.978,1.616,8.038,1.382,9.966a2.716,2.716,0,0,1-.829,1.872,1.735,1.735,0,0,1-1.89.11,13.241,13.241,0,0,1-4.088-3.762c-1.352-1.608-3.191-4.39-5.333-7.629l-.729-1.1,1.121-.5.616.933c2.121,3.206,3.943,5.96,5.249,7.521l.005.005a12.36,12.36,0,0,0,3.638,3.423c.309.136.528.15.654.052a1.669,1.669,0,0,0,.382-1.065c.193-1.593-.254-4.6-1.274-8.679a13.118,13.118,0,0,1-.324-1.591l1.417.442Z" transform="translate(-44.083 -108.036)" fill="#354d1d" fill-rule="evenodd"/>
      <path id="Trazado_614984" data-name="Trazado 614984" d="M203.075,516.691a16.671,16.671,0,0,1-4.036.827c-2.659.088-3.452-2.834-3.628-6.8-.156-3.465-2.674-8.923-5.255-11.134-.048.063-.1.126-.148.184-2.39,2.692-2.314,6.25,1.47,8.441,4.41,2.553-.427,12.1,2.762,12.508,3.578.455,9.4,1.262,11.356-1.2,1.852-2.329-.445-2.512-2.518-2.822Z" transform="translate(-71.551 -182.232)" fill="#4f6736" fill-rule="evenodd"/>
      <path id="Trazado_614985" data-name="Trazado 614985" d="M252.375,477.646a18.984,18.984,0,0,1-3.636,2.679c-2.651,1.364-5.108-.807-7.523-4.192-2.111-2.955-4.412-7.27-8.285-7.953-.015.078-.028.156-.048.234-.915,3.512-2.163,7.345,2.917,7.425,5.923.1,6.385,10.8,9.853,9.6,3.892-1.334,10.268-3.452,10.868-6.554.568-2.935-1.87-1.982-4.151-1.246Z" transform="translate(-88.009 -169.121)" fill="#4f6736" fill-rule="evenodd"/>
      <path id="Trazado_614986" data-name="Trazado 614986" d="M189.655,498.2s-3.872,4.048-3.518,5.729a64.213,64.213,0,0,1,1.746,9.207c.2,3.277.377,7.036.377,7.036s1.395,0,1.505-.395.887-13.315.887-13.315Z" transform="translate(-70.874 -181.654)" fill="#4f6736" fill-rule="evenodd"/>
      <path id="Trazado_614987" data-name="Trazado 614987" d="M232.956,468.185S231.3,473.6,232.6,474.9s1.588,4.274,3.639,7.041,4.347,5.973,4.347,5.973,1.417-.676,1.307-1.076-6.6-12.076-6.6-12.076l-2.339-6.579Z" transform="translate(-88.295 -169.124)" fill="#4f6736" fill-rule="evenodd"/>
      <path id="Trazado_614988" data-name="Trazado 614988" d="M91.717,386.941s-3.91,16.052-.628,24.061c1.658,4.055,4.156,4.528,14.366,4.279,9.911-.241,22.4-.467,25.757-.626,4.184-.236,8.792,4.5,8.792,4.5s-2.922-11.841-.93-21.4,5.209-10.2,5.209-10.2l-4.277-.6Z" transform="translate(-37.482 -140.68)" fill="#354d1d" fill-rule="evenodd"/>
      <path id="Trazado_614989" data-name="Trazado 614989" d="M90.384,377.411c2.138,4.538-2.3,12.373-.746,14.632s10.466.317,16.3-4.382,16.887-5.732,16.887-5.732l-32.443-4.516Z" transform="translate(-37.283 -138.34)" fill="#354d1d" fill-rule="evenodd"/>
      <path id="Trazado_614990" data-name="Trazado 614990" d="M126.93,379.648c1.357.6,7.29.618,9.406.151s.53-3.44-.271-4.28a50.725,50.725,0,0,0-6.674-2.965,13.222,13.222,0,0,1-5.491.859,16.063,16.063,0,0,1-.608,5.179c.829.324,3.068.8,3.636,1.053Z" transform="translate(-51.475 -137.051)" fill="#ffb27d" fill-rule="evenodd"/>
      <path id="Trazado_614991" data-name="Trazado 614991" d="M91.768,378.889a7.249,7.249,0,0,1,.219,1.52c.234.03.721.043.955.073.917.111,1.834.218,2.736.322.5.055.988.113,1.475.166,6.194.689,11.493,1.118,12.089.61-4.7-.716-4.888-.872-5.262-.9-4.545-.312-8.39-1.335-12.215-1.794Z" transform="translate(-38.313 -139.659)" fill="#354d1d" fill-rule="evenodd"/>
      <path id="Trazado_614992" data-name="Trazado 614992" d="M137.148,245.217c6.119,3.588,4.194,6.031,5.777,9.293,0,0,1.834-6.3-1.036-9.78C138.847,241.04,137.148,245.217,137.148,245.217Z" transform="translate(-57.26 -89.32)" fill="#4f6736" fill-rule="evenodd"/>
      <path id="Trazado_614993" data-name="Trazado 614993" d="M132.125,244.367s-2.417,9.471-8.976,12.5c0,0,6.561-5.82,7.119-12.069s1.859-.432,1.859-.432Z" transform="translate(-51.415 -88.696)" fill="#4f6736" fill-rule="evenodd"/>
      <path id="Trazado_614994" data-name="Trazado 614994" d="M140.053,245.909c-.811-.382-1.374-.3-1.689.236a3.9,3.9,0,0,0,1.8,2.844,5.027,5.027,0,0,1-.116-3.083Z" transform="translate(-57.768 -90.54)" fill="#4f6736" fill-rule="evenodd"/>
      <path id="Trazado_614995" data-name="Trazado 614995" d="M123.788,239.79q1.605-.448,1.395-1.59a4.849,4.849,0,0,0-4-1.212Q122.324,237.377,123.788,239.79Z" transform="translate(-50.594 -87.334)" fill="#4f6736" fill-rule="evenodd"/>
      <path id="Trazado_614996" data-name="Trazado 614996" d="M127.693,243.22s-3.39,9.044-8.587,10.381-7.458-.055-7.458-.055a14.722,14.722,0,0,0,4.815-8.7S125.14,238.913,127.693,243.22Z" transform="translate(-46.614 -88.7)" fill="#4f6736" fill-rule="evenodd"/>
      <path id="Trazado_614997" data-name="Trazado 614997" d="M114.662,254.249a6.905,6.905,0,0,1-3.425-.671l-.279-.174.256-.2a14.605,14.605,0,0,0,4.732-8.552l.015-.1.083-.055c.193-.133,4.769-3.234,8.3-3.234a3.511,3.511,0,0,1,3.262,1.681l.055.093-.037.1c-.141.375-3.49,9.172-8.745,10.522a16.971,16.971,0,0,1-4.211.588Zm-2.89-.925a7.8,7.8,0,0,0,2.89.465,16.667,16.667,0,0,0,4.1-.573c4.726-1.216,7.993-9.132,8.387-10.134a3.1,3.1,0,0,0-2.809-1.362c-3.136,0-7.317,2.679-7.955,3.1a15.172,15.172,0,0,1-4.611,8.506Z" transform="translate(-46.326 -88.538)" fill="#4f6736"/>
      <path id="Trazado_614998" data-name="Trazado 614998" d="M109.332,274.981c.043-.151.08-.294.115-.44a10.915,10.915,0,0,1-.347-4.445c-1.259-1.108-3.978-.164-6.279.538-2.7,9.426-2.34,26.867-.437,27.433,1.159,1.45,3.96,1.281,3.96,1.281a4.58,4.58,0,0,1-.319-.814c.852,1.151,3.357.747,3.357.747-1.008-1.784-.842-3.913-.731-6.561C108.746,290.445,109.035,278.559,109.332,274.981Z" transform="translate(-42.116 -98.137)" fill="#4f6736" fill-rule="evenodd"/>
      <path id="Trazado_614999" data-name="Trazado 614999" d="M114.57,267.72c-.086,1.6-1.111,2.844-2.289,2.781s-2.066-1.41-1.983-3.008,1.111-2.844,2.289-2.784S114.656,266.121,114.57,267.72Z" transform="translate(-46.048 -97.452)" fill="#ffb27d" fill-rule="evenodd"/>
      <path id="Trazado_615000" data-name="Trazado 615000" d="M113.581,261.079q2.129-1.546,3.327-.166a7.656,7.656,0,0,1-2.413,6.129q.641-1.79-.915-5.961Z" transform="translate(-47.421 -95.774)" fill="#4f6736" fill-rule="evenodd"/>
      <path id="Trazado_615001" data-name="Trazado 615001" d="M141.949,251.86q1-3.708,2.068-2.183a31.778,31.778,0,0,1-.139,11.24,31.111,31.111,0,0,0-1.93-9.059Z" transform="translate(-59.264 -91.517)" fill="#4f6736" fill-rule="evenodd"/>
      <path id="Trazado_615002" data-name="Trazado 615002" d="M131.286,245.082q-1.183-3.656.548-2.957a31.722,31.722,0,0,1,6,9.511C135.741,249.706,130.989,247.2,131.286,245.082Z" transform="translate(-54.612 -88.948)" fill="#4f6736" fill-rule="evenodd"/>
      <path id="Trazado_615003" data-name="Trazado 615003" d="M125.618,239.376a1.668,1.668,0,0,1-.543-1.59q.723-1.549,1.558-1.212A6.961,6.961,0,0,0,125.618,239.376Z" transform="translate(-52.215 -87.181)" fill="#4f6736" fill-rule="evenodd"/>
      <path id="Trazado_615004" data-name="Trazado 615004" d="M124.236,314.333c.663-.116,1.334.573,1.5,1.535s-.239,1.837-.9,1.95-1.335-.573-1.5-1.535S123.573,314.448,124.236,314.333Z" transform="translate(-51.477 -115.83)" fill="#354d1d" fill-rule="evenodd"/>
      <path id="Trazado_615005" data-name="Trazado 615005" d="M125.781,319.4c.41-.068.824.357.924.948s-.146,1.131-.555,1.2-.822-.355-.924-.948S125.374,319.467,125.781,319.4Z" transform="translate(-52.273 -117.766)" fill="#354d1d" fill-rule="evenodd"/>
      <path id="Trazado_615006" data-name="Trazado 615006" d="M126.512,322.568c.359-.063.722.312.812.832s-.13.993-.488,1.055-.721-.312-.811-.832S126.153,322.631,126.512,322.568Z" transform="translate(-52.608 -118.948)" fill="#354d1d" fill-rule="evenodd"/>
      <path id="Trazado_615007" data-name="Trazado 615007" d="M78.267,311.038c-4.109,13.137-3.468,11.949-6.111,20.055-1.925,5.912-4.975,14.911-.5,16.459,8,2.762,27.39,6.626,28.576,5.611,1.4-1.194,1.6-5.34,1.407-5.938s-20.093-8-20.093-8,2.628-5.124,3.626-15.135-5.918-14.338-6.908-13.049Z" transform="translate(-28.95 -112.374)" fill="#354d1d" fill-rule="evenodd"/>
      <path id="Trazado_615008" data-name="Trazado 615008" d="M127.416,265.371c-3.2-1.412-2.779-1.226-5.759-.57a4.419,4.419,0,0,1,4.7-.563c.8.309.95.314,1.063,1.135Z" transform="translate(-50.792 -97.303)" fill="#4f6736" fill-rule="evenodd"/>
      <path id="Trazado_615009" data-name="Trazado 615009" d="M134.741,264.849c2.887-1.412,2.508-1.226,5.2-.57a3.681,3.681,0,0,0-4.239-.563c-.718.309-.857.314-.957,1.135Z" transform="translate(-56.255 -97.11)" fill="#4f6736" fill-rule="evenodd"/>
      <path id="Trazado_615010" data-name="Trazado 615010" d="M137.47,267.784c.483,0,.968-.533,1.083-1.194s-.179-1.194-.661-1.194-.968.535-1.086,1.194.179,1.194.661,1.194Z" transform="translate(-57.107 -97.847)" fill="#4f6736" fill-rule="evenodd"/>
      <path id="Trazado_615011" data-name="Trazado 615011" d="M138.02,267.565c.171,0,.342-.186.382-.422s-.063-.422-.234-.422-.342.188-.384.422.063.422.234.422Z" transform="translate(-57.522 -98.4)" fill="#b1bba6" fill-rule="evenodd"/>
      <path id="Trazado_615012" data-name="Trazado 615012" d="M137.91,266.207c.048,0,.1-.052.106-.115s-.018-.113-.066-.113c-.3,0-.6.331-.67.739-.013.065.017.116.065.116s.093-.051.1-.116C137.5,266.436,137.707,266.207,137.91,266.207Z" transform="translate(-57.314 -98.125)" fill="#b1bba6" fill-rule="evenodd"/>
      <path id="Trazado_615013" data-name="Trazado 615013" d="M126.747,268.3c.482,0,.968-.533,1.083-1.194s-.178-1.194-.661-1.194-.968.535-1.083,1.194S126.265,268.3,126.747,268.3Z" transform="translate(-52.631 -98.037)" fill="#4f6736" fill-rule="evenodd"/>
      <path id="Trazado_615014" data-name="Trazado 615014" d="M127.3,268.083c.168,0,.342-.189.382-.422s-.063-.422-.234-.422-.341.189-.384.422.063.422.234.422Z" transform="translate(-53.044 -98.59)" fill="#b1bba6" fill-rule="evenodd"/>
      <path id="Trazado_615015" data-name="Trazado 615015" d="M127.188,266.719c.048,0,.1-.053.105-.116s-.017-.115-.063-.115c-.3,0-.6.331-.67.739-.013.063.017.113.062.113s.093-.052.106-.113c.05-.281.256-.51.462-.51Z" transform="translate(-52.838 -98.313)" fill="#b1bba6" fill-rule="evenodd"/>
      <path id="Trazado_615016" data-name="Trazado 615016" d="M133.82,267.265a.2.2,0,1,0-.387.055,26.463,26.463,0,0,0,.618,3.184,7.325,7.325,0,0,0,.638,1.666l-1.626.337a.192.192,0,0,0-.151.228.2.2,0,0,0,.231.154l1.9-.395.289-.06-.168-.241a6.063,6.063,0,0,1-.733-1.792,25.613,25.613,0,0,1-.608-3.136Z" transform="translate(-55.49 -98.332)" fill="#354d1d" fill-rule="evenodd"/>
      <path id="Trazado_615017" data-name="Trazado 615017" d="M126.113,280.383q2.706,2.947,5.357.583A17,17,0,0,1,126.113,280.383Z" transform="translate(-52.653 -103.406)" fill="#354d1d" fill-rule="evenodd"/>
      <path id="Trazado_615018" data-name="Trazado 615018" d="M243.25,382.953H138v3.556H241.933a1.321,1.321,0,0,0,1.316-1.316v-2.239Z" transform="translate(-51.272 -141.119)" fill="#fbbfa8" fill-rule="evenodd"/>
      <path id="Trazado_615019" data-name="Trazado 615019" d="M240.113,393.192H142.648V388.93H241.93v2.445A1.821,1.821,0,0,1,240.113,393.192Z" transform="translate(-53.095 -143.279)" fill="#354d1d" fill-rule="evenodd"/>
      <path id="Trazado_615020" data-name="Trazado 615020" d="M69.929,382.955h39.652v3.556H71.637a1.714,1.714,0,0,1-1.709-1.708Z" transform="translate(-29.196 -141.121)" fill="#354d1d" fill-rule="evenodd"/>
      <path id="Trazado_615021" data-name="Trazado 615021" d="M77.706,393.192h37.13V388.93h-38.8v2.59a1.673,1.673,0,0,0,1.669,1.669Z" transform="translate(-31.746 -143.279)" fill="#354d1d" fill-rule="evenodd"/>
      <path id="Trazado_615022" data-name="Trazado 615022" d="M299.72,396.246H288.307V475.1h3.706Z" transform="translate(-109.641 -139.089)" fill="#fbbfa8" fill-rule="evenodd"/>
      <path id="Trazado_615023" data-name="Trazado 615023" d="M290.345,396.246h-2.038V475.1h2.038Z" transform="translate(-109.842 -139.089)" fill="#354d1d"/>
      <path id="Trazado_615024" data-name="Trazado 615024" d="M263.331,396.246H251.915V475.1h3.706Z" transform="translate(-95.802 -139.089)" fill="#fbbfa8" fill-rule="evenodd"/>
      <path id="Trazado_615025" data-name="Trazado 615025" d="M253.953,396.246h-2.038V475.1h2.038Z" transform="translate(-95.977 -139.089)" fill="#354d1d"/>
      <path id="Trazado_615026" data-name="Trazado 615026" d="M117.994,396.246h11.413V475.1H125.7Z" transform="translate(-49.263 -139.089)" fill="#354d1d" fill-rule="evenodd"/>
      <path id="Trazado_615027" data-name="Trazado 615027" d="M136.127,396.246h-2.038V475.1h2.038Z" transform="translate(-55.983 -139.089)" fill="#354d1d"/>
      <path id="Trazado_615028" data-name="Trazado 615028" d="M82.62,396.246H94.033V475.1H90.327Z" transform="translate(-34.494 -139.089)" fill="#354d1d" fill-rule="evenodd"/>
      <path id="Trazado_615029" data-name="Trazado 615029" d="M100.753,396.246H98.715V475.1h2.038Z" transform="translate(-41.214 -139.089)" fill="#354d1d"/>
      <path id="Trazado_615030" data-name="Trazado 615030" d="M201.262,301.1H149.528c-.367,0-.548.319-.668.669l-9.634,28.164c-.121.347.3.669.669.669h51.769c.367,0,.548-.319.668-.669l9.6-28.164C202.048,301.417,201.629,301.1,201.262,301.1Z" transform="translate(-52.336 -109.623)" fill="#4f6736" fill-rule="evenodd"/>
      <path id="Trazado_615031" data-name="Trazado 615031" d="M201.189,300.911H149.454a.646.646,0,0,0-.507.241,1.53,1.53,0,0,0-.259.5l-9.634,28.164a.486.486,0,0,0-.025.156.561.561,0,0,0,.163.379.92.92,0,0,0,.359.227.858.858,0,0,0,.271.047h51.769a.644.644,0,0,0,.508-.241,1.508,1.508,0,0,0,.259-.5l9.6-28.164a.5.5,0,0,0,.025-.156.56.56,0,0,0-.163-.379.908.908,0,0,0-.359-.229.84.84,0,0,0-.271-.045Zm-51.734.213h51.734a.625.625,0,0,1,.2.036.666.666,0,0,1,.274.171.344.344,0,0,1,.106.234.271.271,0,0,1-.015.088l-9.6,28.164a1.289,1.289,0,0,1-.219.427.432.432,0,0,1-.347.166H139.821a.641.641,0,0,1-.2-.035.65.65,0,0,1-.271-.173.307.307,0,0,1-.093-.319l9.637-28.164a1.307,1.307,0,0,1,.221-.43.442.442,0,0,1,.347-.164Z" transform="translate(-52.267 -109.542)" fill="#354d1d" fill-rule="evenodd"/>
      <path id="Trazado_615032" data-name="Trazado 615032" d="M152.661,301.1h-3.134c-.367,0-.548.319-.668.669l-9.634,28.164c-.121.347.3.669.669.669h2.161l10.609-29.5Z" transform="translate(-58.118 -109.623)" fill="#4f6736" fill-rule="evenodd"/>
      <path id="Trazado_615033" data-name="Trazado 615033" d="M152.588,300.911h-3.134a.646.646,0,0,0-.507.241,1.53,1.53,0,0,0-.259.5l-9.634,28.164a.486.486,0,0,0-.025.156.561.561,0,0,0,.163.379.92.92,0,0,0,.359.227.858.858,0,0,0,.271.047h2.236l.026-.073,10.607-29.5.05-.143h-.151Zm-3.134.213h2.983l-10.532,29.285h-2.088a.638.638,0,0,1-.2-.035.65.65,0,0,1-.271-.173.31.31,0,0,1-.093-.319l9.637-28.164a1.308,1.308,0,0,1,.221-.43A.441.441,0,0,1,149.454,301.124Z" transform="translate(-58.045 -109.542)" fill="#354d1d" fill-rule="evenodd"/>
      <path id="Trazado_615034" data-name="Trazado 615034" d="M198,336.943H185.712c-.088,0-.131.077-.158.161l-2.289,6.686c-.027.083.073.158.158.158h12.292c.088,0,.131-.076.158-.158l2.279-6.686c.027-.083-.073-.161-.158-.161Z" transform="translate(-69.644 -123.981)" fill="#4f6736" fill-rule="evenodd"/>
      <path id="Trazado_615035" data-name="Trazado 615035" d="M197.923,336.761H185.638a.225.225,0,0,0-.181.086.409.409,0,0,0-.075.146l-2.289,6.687a.194.194,0,0,0-.01.065.207.207,0,0,0,.061.143.267.267,0,0,0,.118.077.276.276,0,0,0,.09.018h12.293a.232.232,0,0,0,.181-.086.446.446,0,0,0,.078-.146l2.279-6.689a.183.183,0,0,0,.012-.063.21.21,0,0,0-.06-.146.273.273,0,0,0-.118-.078.375.375,0,0,0-.09-.015Zm-12.285.214h12.308a.1.1,0,0,1,.033.02l-2.276,6.681a.23.23,0,0,1-.038.076.031.031,0,0,1-.02.01H183.351a.05.05,0,0,1-.023-.005.1.1,0,0,1-.03-.018l2.285-6.681a.23.23,0,0,1,.038-.076.022.022,0,0,1,.02-.01Z" transform="translate(-69.573 -123.902)" fill="#354d1d" fill-rule="evenodd"/>
      <path id="Trazado_615036" data-name="Trazado 615036" d="M205.138,336.943h-1.978l-2.8,7.006h2.5c.088,0,.13-.076.158-.158L205.3,337.1C205.325,337.02,205.226,336.943,205.138,336.943Z" transform="translate(-76.294 -123.981)" fill="#4f6736" fill-rule="evenodd"/>
      <path id="Trazado_615037" data-name="Trazado 615037" d="M205.025,336.759h-2.05l-.027.066-2.8,7.006-.058.148h2.654a.232.232,0,0,0,.181-.085.449.449,0,0,0,.078-.146l2.279-6.689A.188.188,0,0,0,205.3,337a.21.21,0,0,0-.06-.146.268.268,0,0,0-.118-.078.374.374,0,0,0-.09-.015Zm-1.907.214h1.93a.1.1,0,0,1,.033.02l-2.276,6.681a.229.229,0,0,1-.038.076.031.031,0,0,1-.02.01h-2.34l2.712-6.79Z" transform="translate(-76.186 -123.901)" fill="#354d1d" fill-rule="evenodd"/>
      <path id="Trazado_615038" data-name="Trazado 615038" d="M223.065,346.5h-5.6a.065.065,0,0,0-.066.05l-.8,2.141c-.01.027.038.053.078.053h5.606a.066.066,0,0,0,.065-.053l.8-2.141c.01-.027-.038-.05-.078-.05Z" transform="translate(-82.447 -127.758)" fill="#4f6736" fill-rule="evenodd"/>
      <path id="Trazado_615039" data-name="Trazado 615039" d="M222.995,346.313h-5.6a.174.174,0,0,0-.113.04.236.236,0,0,0-.051.077l-.8,2.141,0,.017v.005l-.005.02a.129.129,0,0,0,.048.1.173.173,0,0,0,.058.035.254.254,0,0,0,.076.015h5.608a.177.177,0,0,0,.116-.043.226.226,0,0,0,.05-.078l.8-2.141.005-.018v-.027a.121.121,0,0,0-.045-.1.172.172,0,0,0-.058-.035.254.254,0,0,0-.076-.015Zm-5.579.213h5.523l-.759,2.028h-5.526Z" transform="translate(-82.377 -127.675)" fill="#354d1d" fill-rule="evenodd"/>
      <path id="Trazado_615040" data-name="Trazado 615040" d="M226.324,346.5h-.9l-1.025,2.244h1.138a.066.066,0,0,0,.065-.053l.8-2.141c.01-.027-.038-.05-.078-.05Z" transform="translate(-85.493 -127.758)" fill="#4f6736" fill-rule="evenodd"/>
      <path id="Trazado_615041" data-name="Trazado 615041" d="M226.212,346.315h-.97l-.03.063-1.023,2.241-.068.15h1.3a.177.177,0,0,0,.116-.043.221.221,0,0,0,.05-.078l.8-2.141.005-.017v-.028a.119.119,0,0,0-.045-.1.174.174,0,0,0-.058-.036.254.254,0,0,0-.076-.015Zm-.837.213h.779l-.759,2.028h-.95l.927-2.028Z" transform="translate(-85.384 -127.677)" fill="#354d1d" fill-rule="evenodd"/>
      <path id="Trazado_615042" data-name="Trazado 615042" d="M155.261,346.5h-5.6a.063.063,0,0,0-.065.05l-.8,2.141c-.01.027.038.053.078.053h5.606a.07.07,0,0,0,.068-.053l.8-2.141c.01-.027-.038-.05-.078-.05Z" transform="translate(-62.12 -127.758)" fill="#4f6736" fill-rule="evenodd"/>
      <path id="Trazado_615043" data-name="Trazado 615043" d="M155.184,346.315h-5.6a.189.189,0,0,0-.115.04.221.221,0,0,0-.05.078l-.8,2.141,0,.017v.028a.118.118,0,0,0,.045.1.151.151,0,0,0,.058.036.246.246,0,0,0,.075.015h5.609a.165.165,0,0,0,.113-.043.221.221,0,0,0,.05-.078l.8-2.141.005-.017v-.008l0-.02a.128.128,0,0,0-.048-.1.193.193,0,0,0-.058-.036.25.25,0,0,0-.075-.015Zm-5.579.213h5.52l-.759,2.028h-5.526l.761-2.028Z" transform="translate(-62.044 -127.677)" fill="#354d1d" fill-rule="evenodd"/>
      <path id="Trazado_615044" data-name="Trazado 615044" d="M158.518,346.5h-.9l-1.025,2.244h1.138a.068.068,0,0,0,.068-.053l.8-2.141C158.606,346.525,158.559,346.5,158.518,346.5Z" transform="translate(-65.378 -127.758)" fill="#4f6736" fill-rule="evenodd"/>
      <path id="Trazado_615045" data-name="Trazado 615045" d="M158.4,346.315h-.97l-.03.063-1.023,2.241-.068.15h1.3a.164.164,0,0,0,.113-.043.223.223,0,0,0,.051-.078l.8-2.141,0-.017v-.008l.005-.02a.128.128,0,0,0-.048-.1.2.2,0,0,0-.058-.036.25.25,0,0,0-.076-.015Zm-.837.213h.779l-.759,2.028h-.947l.925-2.028Z" transform="translate(-65.26 -127.677)" fill="#354d1d" fill-rule="evenodd"/>
      <path id="Trazado_615046" data-name="Trazado 615046" d="M185.329,346.718h9.346c.065,0,.126.2.176.415l4.081,17.454c.05.214,0,.415-.066.415h-9.35c-.065,0-.125-.2-.176-.415l-4.076-17.454C185.213,346.919,185.263,346.718,185.329,346.718Z" transform="translate(-70.414 -126.929)" fill="#4f6736" fill-rule="evenodd"/>
      <path id="Trazado_615047" data-name="Trazado 615047" d="M185.289,346.748h9.31c.02,0-.02.023-.008.058a1.786,1.786,0,0,1,.078.271l4.083,17.452a.644.644,0,0,1,.017.15.35.35,0,0,1-.017.128h-9.312c-.02,0,.02-.02,0-.055a1.825,1.825,0,0,1-.077-.271l-4.076-17.454a.664.664,0,0,1-.017-.151.347.347,0,0,1,.017-.125Zm9.308-.216h-9.363l-.015.005a.2.2,0,0,0-.13.143.636.636,0,0,0-.03.2.836.836,0,0,0,.025.2l4.076,17.452a2.508,2.508,0,0,0,.085.3c.045.115.108.2.193.2h9.371l.013,0a.2.2,0,0,0,.13-.143.638.638,0,0,0,.03-.2.923.923,0,0,0-.023-.2l-4.083-17.454a2.582,2.582,0,0,0-.086-.3C194.745,346.612,194.683,346.532,194.6,346.532Z" transform="translate(-70.341 -126.848)" fill="#354d1d" fill-rule="evenodd"/>
      <path id="Trazado_615048" data-name="Trazado 615048" d="M185.327,346.716h1.505L191.411,365h-1.9c-.065,0-.126-.2-.176-.415l-4.076-17.454c-.05-.213,0-.414.065-.414Z" transform="translate(-70.518 -126.927)" fill="#4f6736" fill-rule="evenodd"/>
      <path id="Trazado_615049" data-name="Trazado 615049" d="M185.289,346.748h1.387l4.526,18.063h-1.761c-.02,0,.02-.02,0-.055a2.227,2.227,0,0,1-.077-.271l-4.076-17.454a.668.668,0,0,1-.017-.151.351.351,0,0,1,.017-.126Zm1.467-.216h-1.523l-.012.005a.2.2,0,0,0-.133.143.648.648,0,0,0-.03.2.945.945,0,0,0,.023.2l4.076,17.454a2.712,2.712,0,0,0,.086.3c.045.115.108.2.193.2h2.035l-.033-.136-4.581-18.278-.02-.083h-.083Z" transform="translate(-70.446 -126.848)" fill="#354d1d" fill-rule="evenodd"/>
      <path id="Trazado_615050" data-name="Trazado 615050" d="M200.147,378.46H179.653v2.593h21.791v-1.3A1.3,1.3,0,0,0,200.147,378.46Z" transform="translate(-68.177 -139.521)" fill="#4f6736" fill-rule="evenodd"/>
      <path id="Trazado_615051" data-name="Trazado 615051" d="M200.072,378.276h-20.6v2.807h22v-1.4a1.408,1.408,0,0,0-1.4-1.4Zm-20.387.214h20.387a1.193,1.193,0,0,1,1.189,1.189v1.191H179.683V378.49Z" transform="translate(-68.105 -139.44)" fill="#354d1d" fill-rule="evenodd"/>
      <path id="Trazado_615052" data-name="Trazado 615052" d="M174.1,378.46h2.817v2.593H173.1V379.46A1,1,0,0,1,174.1,378.46Z" transform="translate(-65.925 -139.521)" fill="#4f6736" fill-rule="evenodd"/>
      <path id="Trazado_615053" data-name="Trazado 615053" d="M174.023,378.492h2.709v2.375h-3.6v-1.485a.893.893,0,0,1,.892-.89Zm2.817-.218h-2.817a1.111,1.111,0,0,0-1.108,1.108v1.7h4.03v-2.812Z" transform="translate(-65.853 -139.44)" fill="#354d1d" fill-rule="evenodd"/>
      <path id="Trazado_615054" data-name="Trazado 615054" d="M418.575,172.8l3.586-3.311.761-.7.729.739,3.435,3.471-1.523,1.513-1.6-1.616V249.77H553.554l-1.691-1.676,1.513-1.523,3.472,3.437.736.729-.7.761-3.312,3.589-1.581-1.455,1.576-1.709H421.814V172.732l-1.781,1.646-1.455-1.581Zm135.783,77.767v.508l.246-.266Z" transform="translate(-153.734 -59.227)" fill="#354d1d" fill-rule="evenodd"/>
      <path id="Trazado_615055" data-name="Trazado 615055" d="M473,288.351a.648.648,0,0,1-.648-.648v-2.593a.648.648,0,0,1,1.3,0V287.7A.648.648,0,0,1,473,288.351Zm0-6.486a.648.648,0,0,1-.648-.648v-2.593a.648.648,0,1,1,1.3,0v2.593A.648.648,0,0,1,473,281.865Zm0-6.488a.648.648,0,0,1-.648-.648v-2.593a.648.648,0,1,1,1.3,0v2.593A.648.648,0,0,1,473,275.377Zm0-6.486a.648.648,0,0,1-.648-.648V265.65a.648.648,0,1,1,1.3,0v2.593A.648.648,0,0,1,473,268.891Zm0-6.485a.648.648,0,0,1-.648-.648v-1.48a.648.648,0,1,1,1.3,0v1.48A.648.648,0,0,1,473,262.406Z" transform="translate(-179.986 -94.563)" fill="#fff"/>
      <path id="Trazado_615056" data-name="Trazado 615056" d="M521.92,259.929h-.008a.65.65,0,0,1-.641-.658l.037-2.6a.654.654,0,0,1,.659-.638.646.646,0,0,1,.638.658l-.037,2.6A.648.648,0,0,1,521.92,259.929Zm.1-6.488h-.01a.649.649,0,0,1-.638-.658l.04-2.593a.7.7,0,0,1,.656-.638.652.652,0,0,1,.641.658l-.04,2.593A.648.648,0,0,1,522.018,253.441Zm.1-6.488h-.01a.647.647,0,0,1-.638-.658l.038-2.6a.648.648,0,0,1,.648-.638h.008a.65.65,0,0,1,.641.658l-.038,2.6A.648.648,0,0,1,522.116,246.953Zm.1-6.491H522.2a.652.652,0,0,1-.641-.658l.04-2.593c.008-.357.352-.7.658-.638a.649.649,0,0,1,.638.659l-.04,2.593A.648.648,0,0,1,522.212,240.462Zm.1-6.488h-.01a.649.649,0,0,1-.638-.658l.04-2.6a.617.617,0,0,1,.656-.638.651.651,0,0,1,.641.658l-.04,2.6A.648.648,0,0,1,522.309,233.974Zm.1-6.488H522.4a.65.65,0,0,1-.641-.658l.037-2.593a.664.664,0,0,1,.659-.638.647.647,0,0,1,.638.659l-.037,2.593A.648.648,0,0,1,522.408,227.486Zm.1-6.488H522.5a.652.652,0,0,1-.641-.658l.04-2.6a.649.649,0,0,1,.648-.638h.01a.649.649,0,0,1,.638.658l-.041,2.6A.647.647,0,0,1,522.5,221Zm.1-6.488h-.01a.646.646,0,0,1-.638-.658l.038-2.593a.648.648,0,0,1,.648-.638h.008a.651.651,0,0,1,.641.659l-.038,2.593A.649.649,0,0,1,522.6,214.509Zm.1-6.488h-.008a.651.651,0,0,1-.641-.658l.038-2.6a.648.648,0,0,1,1.3.02l-.038,2.6A.648.648,0,0,1,522.7,208.022Zm.1-6.488h-.01a.648.648,0,0,1-.638-.658l.04-2.593a.707.707,0,0,1,.656-.638.652.652,0,0,1,.641.659l-.04,2.593A.647.647,0,0,1,522.8,201.533Zm.1-6.553h-.008a.6.6,0,0,1-.638-.594v-.135a.648.648,0,0,1,.649-.638h.012a.644.644,0,0,1,.635.658.709.709,0,0,1-.651.706Z" transform="translate(-198.59 -68.969)" fill="#fff"/>
      <path id="Trazado_615057" data-name="Trazado 615057" d="M570.814,282.9a.648.648,0,0,1-.648-.648v-2.593a.648.648,0,0,1,1.3,0v2.593A.65.65,0,0,1,570.814,282.9Zm0-6.486a.648.648,0,0,1-.648-.648v-2.593a.648.648,0,1,1,1.3,0v2.593A.65.65,0,0,1,570.814,276.417Zm0-6.488a.648.648,0,0,1-.648-.648v-2.593a.648.648,0,0,1,1.3,0v2.593A.65.65,0,0,1,570.814,269.928Zm0-6.485a.648.648,0,0,1-.648-.648V260.2a.648.648,0,1,1,1.3,0v2.593A.65.65,0,0,1,570.814,263.443Zm0-6.486a.648.648,0,0,1-.648-.648v-2.593a.648.648,0,1,1,1.3,0v2.593A.65.65,0,0,1,570.814,256.957Zm0-6.488a.648.648,0,0,1-.648-.648v-2.593a.648.648,0,1,1,1.3,0v2.593A.65.65,0,0,1,570.814,250.469Z" transform="translate(-217.258 -89.453)" fill="#fff"/>
      <path id="Trazado_615058" data-name="Trazado 615058" d="M619.721,264.306a.648.648,0,0,1-.648-.648v-2.593a.648.648,0,1,1,1.3,0v2.593A.648.648,0,0,1,619.721,264.306Zm0-6.486a.648.648,0,0,1-.648-.648v-2.593a.648.648,0,1,1,1.3,0v2.593A.648.648,0,0,1,619.721,257.82Zm0-6.488a.648.648,0,0,1-.648-.648v-2.593a.648.648,0,1,1,1.3,0v2.593A.648.648,0,0,1,619.721,251.332Zm0-6.485a.648.648,0,0,1-.648-.648v-2.593a.648.648,0,1,1,1.3,0V244.2A.648.648,0,0,1,619.721,244.847Zm0-6.486a.648.648,0,0,1-.648-.648V235.12a.648.648,0,1,1,1.3,0v2.593A.648.648,0,0,1,619.721,238.361Zm0-6.488a.648.648,0,0,1-.648-.648v-2.593a.648.648,0,1,1,1.3,0v2.593A.648.648,0,0,1,619.721,231.873Zm0-6.486a.648.648,0,0,1-.648-.648v-2.593a.648.648,0,1,1,1.3,0v2.593A.648.648,0,0,1,619.721,225.387Zm0-6.486a.648.648,0,0,1-.648-.648V215.66a.648.648,0,1,1,1.3,0v2.593A.648.648,0,0,1,619.721,218.9Zm0-6.488a.648.648,0,0,1-.648-.648v-2.593a.648.648,0,1,1,1.3,0v2.593A.648.648,0,0,1,619.721,212.413Zm0-6.486a.648.648,0,0,1-.648-.648v-2.593a.648.648,0,1,1,1.3,0v2.593A.648.648,0,0,1,619.721,205.928Z" transform="translate(-235.893 -72.167)" fill="#fff"/>
      <path id="Trazado_615059" data-name="Trazado 615059" d="M428.691,233.548a1.145,1.145,0,0,1-.007-2.289l25.048-.206,29.915-38.419,27.616,27.586,27.681-28.086a1.143,1.143,0,1,1,1.628,1.606l-29.3,29.726-27.412-27.383-29,37.245-26.156.214h-.01Z" transform="translate(-158.44 -69.37)" fill="#354d1d"/>
      <path id="Trazado_615060" data-name="Trazado 615060" d="M621.558,184.322l-.97,4.289-1.045,4.611c-.139.621-.151.375-.659-.093l-3.229-2.988-3.471-3.209c-.47-.435-.246-.319.41-.522l4.2-1.3,4.516-1.4c.608-.189.4-.055.249.618Z" transform="translate(-232.79 -67.478)" fill="#354d1d" fill-rule="evenodd"/>
      <path id="Trazado_615061" data-name="Trazado 615061" d="M709.288,255.714l-5.584,3.247a3.97,3.97,0,0,0-1.43,5.415l1.231,2.119c1.455,2.5.822,3.631.369,4.036-1.244,1.113-2.395,2.319-3.55,3.523-.342.355-1.42,1.561-4.257-.09l-1.95-1.131a3.971,3.971,0,0,0-5.413,1.432l-3.246,5.586a3.97,3.97,0,0,0,1.432,5.413l1.927,1.121c2.664,1.548,2.593,2.342,2.257,3.47-.462,1.551-.96,3.1-1.3,4.707-.3,1.427-.165,2.448-3.787,2.448h-2.219a3.965,3.965,0,0,0-3.96,3.96v6.46a3.966,3.966,0,0,0,3.96,3.96h2.219c3.621,0,3.483,1.021,3.787,2.448.337,1.6.837,3.156,1.3,4.7.337,1.128.407,1.922-2.257,3.47l-1.927,1.118a3.973,3.973,0,0,0-1.432,5.415l3.246,5.583a3.97,3.97,0,0,0,5.413,1.432l1.95-1.128c2.837-1.654,3.915-.445,4.257-.09,1.156,1.2,2.307,2.412,3.55,3.523.45.4,1.086,1.535-.369,4.036l-1.231,2.121a3.967,3.967,0,0,0,1.43,5.413l5.584,3.247a3.973,3.973,0,0,0,5.415-1.432l1.229-2.113c1.475-2.538,2.93-2.435,3.543-2.241,1.782.565,3.425.932,5.262,1.412.67.176,1.821.663,1.821,3.687v2.267a3.967,3.967,0,0,0,3.96,3.96h6.461a3.966,3.966,0,0,0,3.957-3.96v-2.267c0-3.025,1.151-3.513,1.822-3.687,1.837-.478,3.483-.847,5.262-1.412.616-.2,2.066-.3,3.543,2.241l1.229,2.113a3.971,3.971,0,0,0,5.415,1.432l5.586-3.247a3.969,3.969,0,0,0,1.43-5.413l-1.231-2.121c-1.454-2.5-.824-3.631-.369-4.036,1.244-1.111,2.4-2.319,3.551-3.523.342-.355,1.417-1.56,4.257.09l1.947,1.128a3.973,3.973,0,0,0,5.415-1.432l3.247-5.583a3.973,3.973,0,0,0-1.432-5.415l-1.93-1.118c-2.664-1.548-2.593-2.342-2.257-3.47.463-1.548.96-3.1,1.3-4.7.3-1.427.166-2.448,3.787-2.448h2.219a3.966,3.966,0,0,0,3.958-3.96v-6.46a3.964,3.964,0,0,0-3.958-3.96H781.5c-3.621,0-3.483-1.021-3.787-2.448-.337-1.605-.836-3.156-1.3-4.707-.339-1.125-.407-1.92,2.257-3.47l1.93-1.121a3.969,3.969,0,0,0,1.432-5.413l-3.247-5.586a3.97,3.97,0,0,0-5.415-1.432l-1.947,1.131c-2.84,1.651-3.918.445-4.257.09-1.156-1.2-2.307-2.41-3.551-3.523-.452-.4-1.085-1.533.369-4.036l1.231-2.119a3.975,3.975,0,0,0-1.43-5.415l-5.586-3.247a3.974,3.974,0,0,0-5.415,1.432l-1.229,2.113c-1.478,2.538-2.93,2.438-3.543,2.244-1.779-.568-3.425-.933-5.262-1.413-.669-.173-1.822-.661-1.822-3.686v-2.266a3.964,3.964,0,0,0-3.957-3.958h-6.461a3.964,3.964,0,0,0-3.96,3.958v2.266c0,3.025-1.148,3.51-1.821,3.686-1.837.48-3.483.847-5.262,1.413-.613.2-2.068.294-3.543-2.244l-1.229-2.113A3.973,3.973,0,0,0,709.288,255.714Zm24.46,16.8a31.682,31.682,0,1,1-31.682,31.682A31.682,31.682,0,0,1,733.748,272.513Z" transform="translate(-252.366 -86.056)" fill="#354d1d" fill-rule="evenodd"/>
      <path id="Trazado_615062" data-name="Trazado 615062" d="M640.726,203.406l3.254-7.1c17.494,8.021,21.771,9.983,39.263,18a1.954,1.954,0,0,1,.96,2.588l-1.629,3.551a1.953,1.953,0,0,1-2.588.962c-17.495-8.021-21.771-9.983-39.263-18Z" transform="translate(-241.993 -71.621)" fill="#354d1d" fill-rule="evenodd"/>
      <path id="Trazado_615063" data-name="Trazado 615063" d="M638.251,195.691,635,202.79l-8-7.961Z" transform="translate(-238.452 -71.658)" fill="#ffb27d" fill-rule="evenodd"/>
      <path id="Trazado_615064" data-name="Trazado 615064" d="M643.674,200.4l-1.064,2.321,35.817,16.414,1.064-2.321Z" transform="translate(-243.076 -73.346)" fill="#4f6736"/>
      <path id="Trazado_615065" data-name="Trazado 615065" d="M705.464,224.5l-3.254,7.1,3.45,1.58a1.954,1.954,0,0,0,2.589-.962l1.628-3.551a1.955,1.955,0,0,0-.96-2.588l-3.45-1.583Z" transform="translate(-261.718 -82.538)" fill="#354d1d" fill-rule="evenodd"/>
      <path id="Trazado_615066" data-name="Trazado 615066" d="M629.951,197.763q3.166-.163,1.131-2.626L627,194.825Z" transform="translate(-238.75 -71.812)" fill="#354d1d" fill-rule="evenodd"/>
      <path id="Trazado_615067" data-name="Trazado 615067" d="M679.632,227.937c-.065-3.435-1.9-4.271-2.282-6.156q-2.37,1.033-1.221,3.852-1.078-.863-2.128-1.877-3.437-1.58-5.375-2.465a70.707,70.707,0,0,0,3.3,7.194c.839,1.319,2.1,1.068,3.687,2.359a8.744,8.744,0,0,1,4.026-2.9Z" transform="translate(-254.295 -81.334)" fill="#ffb27d" fill-rule="evenodd"/>
      <path id="Trazado_615068" data-name="Trazado 615068" d="M759.7,166.979q16.065,5.82,20.61,1.123,4.621-1.074,6.023-8.194c3.187-7.23.46-18.778-4.023-13.06-3.709-9.486-18.587-3.985-26.975-9.247-5.093,3.327-3.156,11.551.5,14.333C755.692,161.395,756.212,166.448,759.7,166.979Z" transform="translate(-282.605 -50.016)" fill="#4f6736" fill-rule="evenodd"/>
      <path id="Trazado_615069" data-name="Trazado 615069" d="M807.094,152.6q-1.737-1.338-1.121-2.925a4.8,4.8,0,0,1,5.068-.1q-1.458.087-3.95,3.023Z" transform="translate(-304.972 -54.866)" fill="#4f6736" fill-rule="evenodd"/>
      <path id="Trazado_615070" data-name="Trazado 615070" d="M804.219,148.128q1.236,1.38,2.266.608a5.376,5.376,0,0,0-.751-4.578q.177,1.327-1.518,3.97Z" transform="translate(-304.306 -53.092)" fill="#4f6736" fill-rule="evenodd"/>
      <path id="Trazado_615071" data-name="Trazado 615071" d="M794.5,157.456q3.027-1.194,4.578.8c-.078,3.025-1.651,9.109-4.058,10.441-.42-.294-.322-6.695-.523-11.24Z" transform="translate(-300.246 -57.652)" fill="#4f6736" fill-rule="evenodd"/>
      <path id="Trazado_615072" data-name="Trazado 615072" d="M785.023,152.76q5.114,2.484,3.374,4.481a28.219,28.219,0,0,1-14.788-1.669q4.259.4,11.411-2.809Z" transform="translate(-291.527 -56.262)" fill="#4f6736" fill-rule="evenodd"/>
      <path id="Trazado_615073" data-name="Trazado 615073" d="M756.219,148.8c3.86-3.9,11.144-4.368,21.185-.7,6.357-1.576,7.782-4.51,5.1-9.287-3.792-6.747-12-1.413-22.047-7.765.382,4.935-14.579,9.159-4.236,17.75Z" transform="translate(-282.742 -47.984)" fill="#4f6736" fill-rule="evenodd"/>
      <path id="Trazado_615074" data-name="Trazado 615074" d="M798.611,167.186c-2.663-.57-2.412,4.9-2.209,7.614C796.8,180.135,802.808,168.076,798.611,167.186Z" transform="translate(-300.994 -61.448)" fill="#ffb27d" fill-rule="evenodd"/>
      <path id="Trazado_615075" data-name="Trazado 615075" d="M786.046,184.4c-1.475.105-3.8-.176-4.214-.7a18.551,18.551,0,0,1-3.061-5.382q.46-1.308.96-3.3,8.53-5.793,2.332-8.569-1.251.7-3.1,4.312a2.547,2.547,0,0,1-2.241-1.513,74.642,74.642,0,0,0,2.292-9.906c-2.8-4.161-9.35-4.757-18.024-3.634q-.607,3.464-.99,7.338c-1.081.993-4.224,17.633,6.435,18.308a13.112,13.112,0,0,1-.123,2.88,2.131,2.131,0,0,1-1.171.733q-.249,8.5,20.9-.565Z" transform="translate(-285.311 -56.377)" fill="#ffb27d" fill-rule="evenodd"/>
      <path id="Trazado_615076" data-name="Trazado 615076" d="M759.262,148.473c8.672-1.123,15.225-.527,18.025,3.634a74.915,74.915,0,0,1-2.292,9.906,2.539,2.539,0,0,0,2.241,1.51q1.851-3.616,3.1-4.312,6.2,2.778-2.332,8.569c-.331,1.332-.656,2.432-.96,3.3,5.114-1.148,9.391-5.719,9.994-7.7,5.968-11.758-.686-16.725-4.247-18.534-1.57-11.645-18.479-1.352-26.953-6.966-3.367,4.651.8,10.484,3.423,10.589Z" transform="translate(-283.583 -50.102)" fill="#4f6736" fill-rule="evenodd"/>
      <path id="Trazado_615077" data-name="Trazado 615077" d="M777.635,198.033a14.577,14.577,0,0,1-5.7,1.2,17.292,17.292,0,0,1-.043,2.339,8.978,8.978,0,0,0,5.742-3.538Z" transform="translate(-290.811 -72.975)" fill="#354d1d" fill-rule="evenodd"/>
      <path id="Trazado_615078" data-name="Trazado 615078" d="M763.7,151.142q-1.956,1.512-1.264,3.3a5.433,5.433,0,0,0,5.729.111Q766.513,154.459,763.7,151.142Z" transform="translate(-286.786 -55.681)" fill="#4f6736" fill-rule="evenodd"/>
      <path id="Trazado_615079" data-name="Trazado 615079" d="M680.084,224.1q5.986,25.627,21.027,39.773,5.42-1.648,9.616-7.41-.222,18.537.925,36.9,10.976,5.206,29.149-.673l4.915-6.051c1.262-.246,4.129,1.149,5.5,3.274,11.506-8.779,19.263-18.215,23.842-27.593q-1.854-30.214-8.209-47.678-3.212-4.938-15.09-9.712-19.668,8.428-19.431.525a118.827,118.827,0,0,0-15.344,6.717q-7.972,6.053-13.579,32.825-9.125-11.432-18.929-24.241A9.283,9.283,0,0,0,680.084,224.1Zm68.281,57.076q-5.721-18.813,6.317-46.422,3.031,13.622,6.548,26.817-4.086,1.941-12.866,19.608Z" transform="translate(-252.48 -71.633)" fill="#4f6736" fill-rule="evenodd"/>
      <path id="Trazado_615080" data-name="Trazado 615080" d="M772.272,358.44q-2.789-.218-8.991-4.837-18.171,5.876-29.149.673a114.384,114.384,0,0,0,.115,15.376,32.1,32.1,0,0,0,22.09,8.772,31.255,31.255,0,0,0,21.2-7.96q-1.5-10.23-3.835-19.635a23.216,23.216,0,0,0-1.43,7.614Z" transform="translate(-274.96 -127.853)" fill="#354d1d" fill-rule="evenodd"/>
      <path id="Trazado_615081" data-name="Trazado 615081" d="M784.321,351.235q6.2,4.62,8.991,4.837a23.234,23.234,0,0,1,1.43-7.614c-1.377-2.124-4.242-3.518-5.5-3.274l-4.915,6.051Z" transform="translate(-295.999 -126.785)" fill="#ffb27d" fill-rule="evenodd"/>
      <path id="Trazado_615082" data-name="Trazado 615082" d="M720.406,272.247a188.33,188.33,0,0,1,2.887-29.516q-5.824,24.451-11.288,32.453-3.449-.113-8.747-4.093a60.961,60.961,0,0,0,7.529,8.566q5.42-1.647,9.616-7.41Z" transform="translate(-262.155 -88.029)" fill="#4f6736" fill-rule="evenodd"/>
      <path id="Trazado_615083" data-name="Trazado 615083" d="M790.432,308.017a47.86,47.86,0,0,1,2.649-5.46q-5.721-18.812,6.318-46.422-17.509,24.892-9.929,53.071l.965-1.188Z" transform="translate(-297.193 -92.029)" fill="#4f6736" fill-rule="evenodd"/>
      <path id="Trazado_615084" data-name="Trazado 615084" d="M791.359,363.352a16.673,16.673,0,0,1-.124-2.927q-2.789-.219-8.991-4.838c-.98.319-1.947.611-2.9.882a27.414,27.414,0,0,0,12.009,6.883Z" transform="translate(-293.923 -130.798)" fill="#3b5bb3" fill-rule="evenodd"/>
      <path id="Trazado_615085" data-name="Trazado 615085" d="M769.9,205.17a4.456,4.456,0,0,0,.227,1.623,2.082,2.082,0,0,0,.98,1.113,5.164,5.164,0,0,0,2.163.545c3.264.226,8.416-.98,15.939-3.8l1.774.889c-7.722,2.893-14.343,4.586-17.809,4.345a6.54,6.54,0,0,1-2.771-.726,3.479,3.479,0,0,1-1.618-1.859,3.709,3.709,0,0,1-.264-1.782l1.377-.349Z" transform="translate(-289.395 -75.36)" fill="#4f6736" fill-rule="evenodd"/>
      <path id="Trazado_615086" data-name="Trazado 615086" d="M768.887,213.979a.407.407,0,1,1-.422-.7,5.338,5.338,0,0,1,3.043-.15,53.13,53.13,0,0,1,5.9,1.236.407.407,0,1,1-.2.789,52.5,52.5,0,0,0-5.8-1.221,4.948,4.948,0,0,0-2.515.04Zm-.184,1.159a4.974,4.974,0,0,1,2.515-.04,52.853,52.853,0,0,1,5.8,1.219.41.41,0,0,0,.5-.294.414.414,0,0,0-.294-.5,53.466,53.466,0,0,0-5.9-1.234,5.364,5.364,0,0,0-3.043.151.41.41,0,0,0-.136.56.406.406,0,0,0,.558.138Z" transform="translate(-289.221 -78.503)" fill="#4f6736" fill-rule="evenodd"/>
      <path id="Trazado_615087" data-name="Trazado 615087" d="M779.951,167.914a1.193,1.193,0,1,1-1.143,1.244,1.194,1.194,0,0,1,1.143-1.244Z" transform="translate(-293.697 -61.906)" fill="#b1bba6" fill-rule="evenodd"/>
      <path id="Trazado_615088" data-name="Trazado 615088" d="M780.058,170.3a1.2,1.2,0,0,0-.1-2.39,1.209,1.209,0,0,0-.723.284l.09-.015a.386.386,0,1,1-.369.4v-.045a1.2,1.2,0,0,0,1.106,1.761Z" transform="translate(-293.698 -61.904)" fill="#4f6736" fill-rule="evenodd"/>
      <path id="Trazado_615089" data-name="Trazado 615089" d="M778.165,165.715a.6.6,0,0,0-.073.063,1.917,1.917,0,0,1,.226-.331.619.619,0,0,0-.14.118,1.209,1.209,0,0,0-.116.193,1.072,1.072,0,0,1,.045-.211.527.527,0,0,0-.088.229.845.845,0,0,1,.128-.447.692.692,0,0,0-.211.4.507.507,0,0,1-.017-.188.357.357,0,0,0-.05.2l-.061-.093c.008.055.023.073.03.115a.9.9,0,0,1-.279-.573.792.792,0,0,0,.1.236,1.387,1.387,0,0,1-.017-.372,2.526,2.526,0,0,1,.033.291.712.712,0,0,0,.09.259,1.245,1.245,0,0,1-.008-.568l.005.053a1.823,1.823,0,0,0,.005.309c.035-.179.03-.347.183-.475a1.287,1.287,0,0,0-.1.2c.085-.078.125-.229.259-.239a1.447,1.447,0,0,0-.186.2.4.4,0,0,0-.1.294.711.711,0,0,1,.525-.535c-.063.03-.259.158-.279.236v.015c.008.091.017-.077,0,.02a.561.561,0,0,0-.133.151.537.537,0,0,0-.053.115.35.35,0,0,0-.02.07v.033l0,.02a.8.8,0,0,1,.312-.447,1.187,1.187,0,0,1,.438-.2s-.005,0-.008,0l-.1.043a.932.932,0,0,0-.6.56c.012-.01,0,0,.02-.023a.084.084,0,0,0,.013-.017,1.315,1.315,0,0,1,.2-.256,1.379,1.379,0,0,1,.274-.2,1.6,1.6,0,0,1,.663-.143,2.806,2.806,0,0,0-.458.1.867.867,0,0,0-.394.228c.053-.012.111-.048.164-.065a3.23,3.23,0,0,1,1.206-.266,2.548,2.548,0,0,0-.656.183l.126-.02c-.033.015-.065.035-.1.05s-.065.025-.1.043a1.431,1.431,0,0,0-.548.425c.048-.043.111-.083.163-.124s.108-.077.171-.115a2.7,2.7,0,0,1,.357-.2,3.366,3.366,0,0,1,.789-.239.285.285,0,0,0-.116.063,8.888,8.888,0,0,1,1.2-.156c-.126.037-.332.043-.475.075l-.13.043a3.614,3.614,0,0,0,.427-.06,5.913,5.913,0,0,1,1.342-.078,2.489,2.489,0,0,1,.995.206,2.422,2.422,0,0,1,.593.392,1.493,1.493,0,0,1,.141.151,2.765,2.765,0,0,0-.721-.478,4.434,4.434,0,0,1,1.111.945c-.083-.063-.2-.186-.294-.269-.105-.09-.211-.173-.324-.259a3.038,3.038,0,0,0-.781-.44,3.015,3.015,0,0,0,.294.193,11.267,11.267,0,0,1,1.57,1.221c.052.055.168.186.211.218a3.64,3.64,0,0,1-.324-.259,3.96,3.96,0,0,0-1.149-.691,10.452,10.452,0,0,1,1.164.733l-.689-.4a3.508,3.508,0,0,0-.8-.337,6.8,6.8,0,0,1,1.495.8c-.11-.045-.266-.148-.384-.209-.138-.07-.274-.136-.417-.2a4.32,4.32,0,0,0-.907-.294,5.1,5.1,0,0,0-1.229-.083c-.121,0-.278.025-.389.017a1.361,1.361,0,0,1,.347-.045,5.756,5.756,0,0,1,.716-.015,3.357,3.357,0,0,0,.366.03,5.015,5.015,0,0,0-.751-.118.069.069,0,0,0,.033,0,.165.165,0,0,0,.03-.013,2.4,2.4,0,0,0-.588.04c-.168.03-.51.143-.525.146a.843.843,0,0,0,.114-.078l-.41.073.508-.156a3.1,3.1,0,0,0-.334.07c-.121.023-.367.068-.48.105a1.817,1.817,0,0,1-.507.055A1.977,1.977,0,0,1,780,165.7l.274-.078c.055-.017.1-.027.141-.045a3.535,3.535,0,0,1,.394-.143,2.879,2.879,0,0,1,1.176-.161,2.457,2.457,0,0,0-1.221.125l-.553.191a1.35,1.35,0,0,0-.136.05,4.292,4.292,0,0,1-.412.128l.008-.03,0-.005v-.01a.84.84,0,0,1-.259.075c.136-.115.467-.2.588-.349a1.751,1.751,0,0,0-.356.181c-.038.023-.076.036-.113.055a1.46,1.46,0,0,1,.427-.367l.163-.085a.8.8,0,0,0-.4.2,2.514,2.514,0,0,0-.287.281c-.012.012-.008.012-.02.02s-.008.01-.026.015l.133-.2c-.025.04-.2.2-.211.259a.955.955,0,0,1,.151-.276l-.078.052a1.956,1.956,0,0,1,.635-.46,1.3,1.3,0,0,0-.666.412c-.063.078-.108.176-.166.239l.068-.163s-.005,0-.008,0l-.093.1a1.1,1.1,0,0,1,.319-.432.29.29,0,0,0-.146.083.962.962,0,0,0-.121.123,1.432,1.432,0,0,0-.193.322.512.512,0,0,1,.055-.2c-.038.01-.005,0-.043.017a.6.6,0,0,0-.138.168l.03-.126-.09.121c.025-.113.065-.173.095-.271a.462.462,0,0,0-.146.216.311.311,0,0,1,.03-.15l-.1.093c-.025.033-.052.076-.078.1a1,1,0,0,1,.139-.246c-.108.061-.151.158-.231.264a.912.912,0,0,1,.206-.379c-.116.01-.2.306-.259.367l.01-.128s0,0-.02.017l-.078.126.02-.166c-.048.043-.055.1-.093.163a1.3,1.3,0,0,1,.035-.213c-.022.01,0,0-.03.02-.053.045-.078.115-.126.163l.058-.13c-.017.008-.008,0-.027.015l-.065.048Z" transform="translate(-293.175 -60.738)" fill="#4f6736" fill-rule="evenodd"/>
      <path id="Trazado_615090" data-name="Trazado 615090" d="M765.882,166.628a1.2,1.2,0,1,0,1.249,1.141,1.194,1.194,0,0,0-1.249-1.141Z" transform="translate(-287.825 -61.432)" fill="#b1bba6" fill-rule="evenodd"/>
      <path id="Trazado_615091" data-name="Trazado 615091" d="M765.986,169.018a1.2,1.2,0,0,1-.105-2.39,1.215,1.215,0,0,1,.744.221l-.091-.005a.386.386,0,1,0,.4.369l-.005-.043a1.193,1.193,0,0,1-.945,1.849Z" transform="translate(-287.823 -61.432)" fill="#4f6736" fill-rule="evenodd"/>
      <path id="Trazado_615092" data-name="Trazado 615092" d="M766.259,165.211a.476.476,0,0,1,.063.07,2.191,2.191,0,0,0-.176-.355.66.66,0,0,1,.116.136,1.058,1.058,0,0,1,.088.2,1.393,1.393,0,0,0-.02-.214.58.58,0,0,1,.055.234.932.932,0,0,0-.078-.457.731.731,0,0,1,.153.42.475.475,0,0,0,.033-.186.4.4,0,0,1,.027.209l.061-.085c-.013.052-.026.065-.036.111a.9.9,0,0,0,.3-.541,1.085,1.085,0,0,1-.1.229,1.433,1.433,0,0,0,.045-.372,2.7,2.7,0,0,0-.053.287.854.854,0,0,1-.1.249,1.273,1.273,0,0,0,.052-.563l-.008.052a1.494,1.494,0,0,1-.03.307c-.018-.181.005-.347-.125-.49a1.358,1.358,0,0,1,.077.211c-.068-.086-.09-.239-.211-.264a1.824,1.824,0,0,1,.151.221.448.448,0,0,1,.065.3.709.709,0,0,0-.425-.588c.053.038.218.186.229.266v.015c-.018.088-.008-.08-.005.017a.562.562,0,0,1,.1.166c.012.035.027.078.038.118a.656.656,0,0,1,.012.073.067.067,0,0,1-.005.033l0,.02a.86.86,0,0,0-.236-.477,1.093,1.093,0,0,0-.377-.246l.008.005.09.055a.925.925,0,0,1,.483.62c-.013-.012,0,.005-.018-.025l-.013-.017a1.334,1.334,0,0,0-.151-.274,1.205,1.205,0,0,0-.226-.227,1.326,1.326,0,0,0-.583-.211,2.281,2.281,0,0,1,.4.146.832.832,0,0,1,.332.271.98.98,0,0,1-.139-.083,2.761,2.761,0,0,0-1.053-.395,2.222,2.222,0,0,1,.568.254l-.111-.033c.03.017.053.04.088.061a.47.47,0,0,1,.088.055,1.328,1.328,0,0,1,.453.48c-.04-.045-.091-.093-.136-.138s-.091-.09-.143-.136a2.451,2.451,0,0,0-.3-.234,2.923,2.923,0,0,0-.683-.324.225.225,0,0,1,.1.075,7.643,7.643,0,0,0-1.053-.281c.111.05.294.078.415.125l.113.055a2.7,2.7,0,0,1-.377-.1,4.965,4.965,0,0,0-1.189-.224,2.013,2.013,0,0,0-.907.1,2.238,2.238,0,0,0-.563.324c-.058.053-.091.091-.138.139.125-.063.41-.352.686-.4a4.085,4.085,0,0,0-1.075.819c.08-.053.2-.163.287-.234.1-.078.2-.151.312-.221a2.682,2.682,0,0,1,.736-.354,2.26,2.26,0,0,1-.279.161,9.608,9.608,0,0,0-1.51,1.046c-.055.048-.168.168-.208.2.05-.017.246-.176.314-.221a3.366,3.366,0,0,1,1.083-.563,8.979,8.979,0,0,0-1.1.606l.648-.324a2.92,2.92,0,0,1,.744-.246,5.819,5.819,0,0,0-1.4.633c.1-.03.249-.116.359-.161.128-.053.259-.1.39-.151a3.642,3.642,0,0,1,.834-.2,4.029,4.029,0,0,1,1.1.053c.105.017.246.052.344.06a1.14,1.14,0,0,0-.3-.083,4.519,4.519,0,0,0-.638-.091c-.085,0-.261.005-.331-.008a4.3,4.3,0,0,1,.679-.037.123.123,0,0,1-.028-.008.109.109,0,0,1-.027-.017,2.125,2.125,0,0,1,.522.1c.146.051.44.2.455.2a.482.482,0,0,1-.093-.088l.357.116-.44-.211c.088.018.206.078.294.106s.319.108.417.158a1.564,1.564,0,0,0,.45.111c-.042-.03-.186-.086-.246-.115l-.236-.108a1.055,1.055,0,0,1-.12-.06c-.114-.07-.227-.126-.342-.186a2.376,2.376,0,0,0-1.035-.281,2,2,0,0,1,1.078.254l.475.249a1.031,1.031,0,0,1,.115.065,3.87,3.87,0,0,0,.357.171l-.008-.03v-.015a.739.739,0,0,0,.221.1c-.111-.131-.4-.246-.5-.412a1.673,1.673,0,0,1,.306.219c.03.027.066.043.1.065a1.36,1.36,0,0,0-.347-.407l-.138-.1a.746.746,0,0,1,.341.243,2.739,2.739,0,0,1,.234.312.081.081,0,0,0,.015.02c.018.02.008.013.026.017l-.1-.216a1.774,1.774,0,0,1,.165.277,1.047,1.047,0,0,0-.11-.289l.068.06a1.911,1.911,0,0,0-.528-.525,1.248,1.248,0,0,1,.558.48c.05.083.078.186.126.259l-.048-.171.008.005.075.111a1.143,1.143,0,0,0-.246-.465.293.293,0,0,1,.121.1,1.069,1.069,0,0,1,.1.136,1.666,1.666,0,0,1,.146.342.682.682,0,0,0-.033-.2c.033.013.005,0,.033.02a.623.623,0,0,1,.111.181l-.015-.125.07.128a2.035,2.035,0,0,0-.063-.281.5.5,0,0,1,.113.234.329.329,0,0,0-.012-.153l.083.105c.02.035.043.077.063.113a.955.955,0,0,0-.1-.259.9.9,0,0,1,.183.286,1.059,1.059,0,0,0-.151-.4c.1.025.153.329.2.392l.005-.128s0,0,.017.02l.058.133v-.166a.553.553,0,0,1,.065.171.933.933,0,0,0-.012-.216c.02.012,0,0,.03.025.043.05.058.123.1.174l-.042-.139c.017.008.008.005.025.018l.05.052Z" transform="translate(-285.94 -60.416)" fill="#4f6736" fill-rule="evenodd"/>
      <path id="Trazado_615093" data-name="Trazado 615093" d="M766,186.137c2.505,1.118,1.689,1.244,4.737,1.063,1.065-.066,2.445.1,1.141.5-2.628.817-5.7.2-6.005-1.473l.126-.093Z" transform="translate(-288.298 -68.639)" fill="#354d1d" fill-rule="evenodd"/>
      <path id="Trazado_615094" data-name="Trazado 615094" d="M437.642,394.657l-4.637,12.522,4.977,1.843,4.637-12.522Z" transform="translate(-164.728 -144.742)" fill="#fbbfa8"/>
      <path id="Trazado_615095" data-name="Trazado 615095" d="M457.389,245.47a45.248,45.248,0,0,0-37.944,81.843l-.121.327a2.578,2.578,0,0,0,1.518,3.3l8.6,3.186a2.579,2.579,0,0,0,3.3-1.517l.121-.324a45.248,45.248,0,0,0,24.52-86.813Zm-2.194,5.923a38.929,38.929,0,1,1-50.028,22.985A38.931,38.931,0,0,1,455.2,251.393Z" transform="translate(-147.932 -84.762)" fill="#354d1d" fill-rule="evenodd"/>
      <path id="Trazado_615096" data-name="Trazado 615096" d="M422.323,407.862l-4.976-1.842a1.493,1.493,0,0,0-1.912.877l-4.229,11.42-.008.018L402.065,443v.005l-2.533,6.832-9.136,24.671a1.491,1.491,0,0,0,.877,1.91l4.978,1.844a1.494,1.494,0,0,0,1.91-.88l4.229-11.421.005-.017,9.136-24.668,2.533-6.835,9.136-24.671A1.5,1.5,0,0,0,422.323,407.862Z" transform="translate(-147.764 -143.131)" fill="#354d1d" fill-rule="evenodd"/>
      <g id="Grupo_1016164" data-name="Grupo 1016164" transform="translate(254.748 163.94)" opacity="0.4">
        <path id="Trazado_615097" data-name="Trazado 615097" d="M409.7,278.9a38.93,38.93,0,1,0,50.028-22.982A38.932,38.932,0,0,0,409.7,278.9Z" transform="translate(-407.262 -253.486)" fill="#dfedfa" fill-rule="evenodd"/>
      </g>
      <g id="Grupo_1016165" data-name="Grupo 1016165" transform="translate(266.782 163.941)" opacity="0.4">
        <path id="Trazado_615098" data-name="Trazado 615098" d="M484.7,317.39l-21.009-62.874q-1.712-.4-3.43-.645l22.088,66.09Q483.575,318.736,484.7,317.39Zm-16.25,11.5a38.806,38.806,0,0,1-18.24,2.2L427.888,264.3a39.064,39.064,0,0,1,15.9-9.209l24.663,73.8Zm11.733-6.923a39.041,39.041,0,0,1-5.672,4.044l-24.146-72.264a38.561,38.561,0,0,1,6.965-.176l22.854,68.4Z" transform="translate(-427.888 -253.487)" fill="#fefefe" fill-rule="evenodd"/>
      </g>
      <path id="Trazado_615099" data-name="Trazado 615099" d="M293.56,244.845h39.992a3.914,3.914,0,0,1,3.9,3.9v31.787a3.915,3.915,0,0,1-3.9,3.905H293.56a3.915,3.915,0,0,1-3.9-3.905V248.747A3.912,3.912,0,0,1,293.56,244.845Z" transform="translate(-109.295 -88.666)" fill="#fff" fill-rule="evenodd"/>
      <path id="Trazado_615100" data-name="Trazado 615100" d="M293.382,244.42h10.911a.823.823,0,0,0-.148.5H293.382a3.668,3.668,0,0,0-3.656,3.656v8.405a.862.862,0,0,0-.495-.139v-8.27a4.162,4.162,0,0,1,4.151-4.151ZM289.726,265.6v14.756a3.668,3.668,0,0,0,3.656,3.656h27.212a2.477,2.477,0,0,0,.09.39l-.138.1H293.382a4.162,4.162,0,0,1-4.151-4.151V265.6a.833.833,0,0,0,.495,0Zm30.484,18.411a.829.829,0,0,1,.341.5h12.823a4.162,4.162,0,0,0,4.151-4.151V258.045a.829.829,0,0,1-.5.254v22.06a3.668,3.668,0,0,1-3.656,3.656Zm16.785-35.963a3.673,3.673,0,0,0-3.618-3.136H317.488a.842.842,0,0,0,.052-.5h15.836a4.163,4.163,0,0,1,4.117,3.618A3.224,3.224,0,0,0,336.994,248.052Z" transform="translate(-109.121 -88.487)" fill="#354d1d" fill-rule="evenodd"/>
      <path id="Trazado_615101" data-name="Trazado 615101" d="M576.162,378.542h39.995a3.914,3.914,0,0,1,3.9,3.9v31.79a3.913,3.913,0,0,1-3.9,3.9H576.162a3.912,3.912,0,0,1-3.9-3.9v-31.79A3.91,3.91,0,0,1,576.162,378.542Z" transform="translate(-215.929 -137.083)" fill="#fff" fill-rule="evenodd"/>
      <path id="Trazado_615102" data-name="Trazado 615102" d="M575.982,378.119H586.9a.845.845,0,0,0-.151.5H575.982a3.665,3.665,0,0,0-3.653,3.653v8.408a.828.828,0,0,0-.5-.139v-8.27A4.161,4.161,0,0,1,575.982,378.119ZM572.328,399.3v14.758a3.667,3.667,0,0,0,3.653,3.656h27.212a2.887,2.887,0,0,0,.09.392l-.138.1H575.979a4.161,4.161,0,0,1-4.148-4.151V399.3a.873.873,0,0,0,.5,0Zm30.483,18.414a.843.843,0,0,1,.344.5h12.823a4.162,4.162,0,0,0,4.151-4.151V391.744a.852.852,0,0,1-.5.254v22.06a3.668,3.668,0,0,1-3.656,3.656H602.812ZM619.6,381.747a3.671,3.671,0,0,0-3.618-3.133H600.088a.819.819,0,0,0,.052-.5h15.836a4.163,4.163,0,0,1,4.116,3.618,3.621,3.621,0,0,0-.5.01Z" transform="translate(-215.741 -136.892)" fill="#354d1d" fill-rule="evenodd"/>
      <path id="Trazado_615103" data-name="Trazado 615103" d="M499.485,110.169h39.992a3.914,3.914,0,0,1,3.9,3.9v31.79a3.914,3.914,0,0,1-3.9,3.9H499.485a3.914,3.914,0,0,1-3.9-3.9v-31.79A3.914,3.914,0,0,1,499.485,110.169Z" transform="translate(-186.995 -39.895)" fill="#fff" fill-rule="evenodd"/>
      <path id="Trazado_615104" data-name="Trazado 615104" d="M499.306,109.742h10.913a.845.845,0,0,0-.151.5H499.306a3.667,3.667,0,0,0-3.654,3.656V122.3a.846.846,0,0,0-.495-.136v-8.27A4.161,4.161,0,0,1,499.306,109.742Zm-3.654,21.183v14.758a3.667,3.667,0,0,0,3.654,3.653h27.211a2.879,2.879,0,0,0,.091.392l-.139.1H499.3a4.161,4.161,0,0,1-4.149-4.149V130.925a.835.835,0,0,0,.5,0Zm30.481,18.411a.836.836,0,0,1,.344.5H539.3a4.162,4.162,0,0,0,4.154-4.149V123.367a.835.835,0,0,1-.5.253v22.063a3.668,3.668,0,0,1-3.659,3.653Zm16.786-35.964a3.675,3.675,0,0,0-3.621-3.136H523.412a.859.859,0,0,0,.053-.5H539.3a4.168,4.168,0,0,1,4.118,3.618A3.629,3.629,0,0,0,542.919,113.373Z" transform="translate(-186.812 -39.729)" fill="#354d1d" fill-rule="evenodd"/>
      <path id="Trazado_615105" data-name="Trazado 615105" d="M512.769,131.985h17.007l4.131-3.405a.971.971,0,0,1,.679-.276h.836v-.751a2.721,2.721,0,0,0-.756-1.884l-.045-.04a2.707,2.707,0,0,0-1.925-.8H510.526a2.743,2.743,0,0,0-2.727,2.729v15.564l4.036-10.433A.975.975,0,0,1,512.769,131.985Z" transform="translate(-192.47 -45.695)" fill="#4f6736" fill-rule="evenodd"/>
      <path id="Trazado_615106" data-name="Trazado 615106" d="M509.13,121.481H531.3a4.656,4.656,0,0,1,3.3,1.375c.017.017.036.038.053.058a4.668,4.668,0,0,1,1.316,3.242v.751h4.963v.005a.968.968,0,0,1,.968.967l.013,3.639a1.035,1.035,0,0,1-.066.392l-5.915,15.285a.973.973,0,0,1-.548.619.754.754,0,0,1-.344.077H505.429a.973.973,0,0,1-.973-.972V126.152a4.693,4.693,0,0,1,4.676-4.676Zm18.979,22.887h4.624a.974.974,0,0,0,0-1.947h-4.624a.974.974,0,0,0,0,1.947Zm5.918-17.461v-.751a2.721,2.721,0,0,0-.756-1.884.4.4,0,0,1-.045-.043,2.714,2.714,0,0,0-1.925-.8H509.13a2.729,2.729,0,0,0-2.727,2.727v15.564l4.036-10.433a.977.977,0,0,1,.934-.7h17.007l4.131-3.405a.971.971,0,0,1,.679-.276Zm-27.184,19.042h27.5l3.835-9.908H510.681ZM538.927,134.1l1.048-2.714-.008-2.525h-6.432l-4.194,3.455a.962.962,0,0,1-.618.221v0h-16.69l-.6,1.561h27.5Z" transform="translate(-190.793 -44.295)" fill="#f6f6f6" fill-rule="evenodd"/>
      <path id="Trazado_615107" data-name="Trazado 615107" d="M539.884,146.475H512.391l-3.838,9.908h27.5ZM529.82,154.8a.974.974,0,0,1,0-1.947h4.624a.974.974,0,0,1,0,1.947Z" transform="translate(-192.602 -53.827)" fill="#f6f6f6" fill-rule="evenodd"/>
      <path id="Trazado_615108" data-name="Trazado 615108" d="M516.434,139.381h27.5l1.048-2.714-.008-2.526h-6.433l-4.194,3.455a.981.981,0,0,1-.618.224h-16.69l-.6,1.561Z" transform="translate(-195.703 -49.395)" fill="#b1bba6" fill-rule="evenodd"/>
      <path id="Trazado_615109" data-name="Trazado 615109" d="M320.612,276.47a7.708,7.708,0,1,1,7.709-7.707A7.708,7.708,0,0,1,320.612,276.47Zm14-6.551c.03-.382.05-.767.05-1.156s-.02-.774-.05-1.158c-4.867-1.528-5.714-3.508-3.324-7.974a14.289,14.289,0,0,0-1.546-1.545c-4.465,2.388-6.445,1.543-7.973-3.324-.382-.03-.769-.05-1.158-.05s-.774.017-1.156.05c-1.528,4.867-3.51,5.714-7.973,3.324a14.553,14.553,0,0,0-1.545,1.545c2.387,4.465,1.543,6.446-3.324,7.974-.03.382-.05.766-.05,1.158s.02.774.05,1.156c4.867,1.527,5.714,3.51,3.324,7.973a14.131,14.131,0,0,0,1.545,1.545c4.463-2.39,6.445-1.545,7.973,3.324.382.03.767.053,1.156.053s.776-.02,1.158-.053c1.528-4.867,3.508-5.714,7.973-3.324a14.291,14.291,0,0,0,1.546-1.545C328.9,273.429,329.743,271.446,334.611,269.919Z" transform="translate(-116.183 -92.8)" fill="#4f6736" fill-rule="evenodd"/>
      <path id="Trazado_615110" data-name="Trazado 615110" d="M330.5,277.213a12.869,12.869,0,0,1-1.432,1.43c-4.131-2.212-5.965-1.425-7.38,3.078-.354.03-.709.048-1.071.048s-.716-.017-1.071-.048c-1.414-4.5-3.249-5.29-7.38-3.078a13.451,13.451,0,0,1-1.429-1.428c2.211-4.133,1.427-5.968-3.078-7.38-.03-.354-.048-.711-.048-1.07s.018-.719.048-1.074c4.5-1.412,5.29-3.246,3.078-7.38a13.234,13.234,0,0,1,1.429-1.428c4.134,2.211,5.966,1.428,7.38-3.078q.532-.045,1.071-.045c.362,0,.719.017,1.071.045,1.412,4.506,3.246,5.289,7.38,3.078a13.073,13.073,0,0,1,1.432,1.43c-2.211,4.131-1.428,5.965,3.076,7.377.03.355.048.711.048,1.074s-.017.716-.048,1.07c-4.5,1.413-5.287,3.247-3.076,7.38Zm4.118-7.295c.03-.382.051-.767.051-1.156s-.02-.774-.051-1.158c-4.867-1.528-5.714-3.508-3.324-7.974a14.283,14.283,0,0,0-1.545-1.545c-4.465,2.388-6.445,1.543-7.973-3.324-.382-.03-.769-.05-1.159-.05s-.774.017-1.156.05c-1.528,4.867-3.511,5.714-7.973,3.324a14.5,14.5,0,0,0-1.545,1.545c2.387,4.465,1.542,6.446-3.325,7.974-.03.382-.05.766-.05,1.158s.02.774.05,1.156c4.867,1.527,5.714,3.51,3.325,7.973a14.026,14.026,0,0,0,1.545,1.545c4.462-2.39,6.445-1.545,7.973,3.324.382.03.766.053,1.156.053s.776-.02,1.159-.053c1.528-4.867,3.508-5.714,7.973-3.324a14.286,14.286,0,0,0,1.545-1.545C328.9,273.429,329.747,271.446,334.615,269.919Z" transform="translate(-116.184 -92.8)" fill="#4f6736" fill-rule="evenodd"/>
      <path id="Trazado_615111" data-name="Trazado 615111" d="M325.793,279.566a5.625,5.625,0,1,1,5.626-5.624A5.626,5.626,0,0,1,325.793,279.566Zm0-12.448a6.823,6.823,0,1,0,6.825,6.824A6.824,6.824,0,0,0,325.793,267.118Z" transform="translate(-121.249 -97.998)" fill="#4f6736" fill-rule="evenodd"/>
      <path id="Trazado_615112" data-name="Trazado 615112" d="M579.048,414.786H584.7v5.44h-5.651Zm25.44-16.185h5.654v21.626h-5.654Zm-8.481,6.043h5.654v15.582h-5.654Zm-8.479,5.142h5.651v10.441h-5.651Z" transform="translate(-219.311 -145.691)" fill="#4f6736" fill-rule="evenodd"/>
      <path id="Trazado_615113" data-name="Trazado 615113" d="M643.476,389.331h-5.651v27.025h5.651Z" transform="translate(-242.835 -141.925)" fill="#4f6736"/>
      <path id="Trazado_615114" data-name="Trazado 615114" d="M381.354,75.3l-12.7,10.074,5.418,3.91Z" transform="translate(-140.161 -31.438)" fill="#354d1d" fill-rule="evenodd"/>
      <path id="Trazado_615115" data-name="Trazado 615115" d="M360.751,83.7l14.989-8.121-19.5,7.217Z" transform="translate(-135.256 -31.551)" fill="#354d1d" fill-rule="evenodd"/>
      <path id="Trazado_615116" data-name="Trazado 615116" d="M363.982,83.584l2.292,6.526.43-4.731L379.4,75.3l-.432.158Z" transform="translate(-138.309 -31.438)" fill="#4f6736" fill-rule="evenodd"/>
      <path id="Trazado_615117" data-name="Trazado 615117" d="M367.916,97.33l2.83-3-2.4-1.731Z" transform="translate(-140.151 -38.658)" fill="#4f6736" fill-rule="evenodd"/>
      <path id="Trazado_615118" data-name="Trazado 615118" d="M356.242,96.224a.291.291,0,0,1,.3.495c-.163.1-.324.2-.48.307a.288.288,0,0,1-.316-.482C355.913,96.435,356.076,96.33,356.242,96.224ZM372.766,126.2a.289.289,0,0,1-.56-.143c.048-.183.09-.367.13-.55a.289.289,0,0,1,.566.121Q372.838,125.912,372.766,126.2Zm.379-2.34a.289.289,0,0,1-.578-.03c.01-.186.017-.374.017-.56a.289.289,0,0,1,.578,0C373.163,123.459,373.158,123.657,373.146,123.855ZM373,121.481a.289.289,0,0,1-.568.11c-.035-.183-.075-.366-.123-.548a.29.29,0,0,1,.56-.149c.052.191.1.39.13.583Zm-.754-2.264a.289.289,0,0,1-.518.259,5.423,5.423,0,0,0-.264-.5.29.29,0,0,1,.5-.294c.1.163.2.354.281.527Zm-1.312-1.988a.29.29,0,0,1-.437.38c-.123-.143-.246-.281-.377-.417a.29.29,0,0,1,.415-.4c.138.149.269.292.4.442Zm-1.721-1.628a.289.289,0,0,1-.352.46c-.149-.115-.3-.231-.455-.337a.29.29,0,0,1,.332-.475C368.9,115.365,369.057,115.478,369.213,115.6Zm-1.983-1.281a.289.289,0,0,1-.271.51c-.168-.091-.337-.174-.505-.259a.29.29,0,0,1,.256-.52c.176.091.349.176.523.271Zm-2.144-.968a.289.289,0,0,1-.2.543l-.538-.191a.289.289,0,0,1,.186-.548c.186.065.37.128.553.2Zm-2.244-.691a.29.29,0,0,1-.138.563l-.556-.128a.29.29,0,0,1,.121-.568l.57.133Zm-2.3-.435a.29.29,0,0,1-.075.576l-.568-.068a.289.289,0,0,1,.06-.576C360.15,112.181,360.343,112.2,360.539,112.226Zm-2.326-.186a.289.289,0,0,1-.036.578c-.193-.01-.387-.022-.583-.037a.29.29,0,0,1,.045-.578Zm-2.285-.206a.289.289,0,0,1-.075.573c-.193-.025-.384-.053-.578-.08a.29.29,0,0,1,.088-.573c.188.03.379.055.568.08Zm-2.244-.407a.289.289,0,0,1-.141.56c-.191-.045-.382-.093-.57-.149a.29.29,0,0,1,.161-.558c.178.055.367.1.55.143Zm-2.146-.714a.29.29,0,0,1-.239.528c-.183-.08-.362-.171-.541-.264a.29.29,0,0,1,.279-.507A4.957,4.957,0,0,0,351.538,110.713Zm-1.837-1.2a.289.289,0,0,1-.412.4,5.158,5.158,0,0,1-.409-.463.289.289,0,0,1,.462-.347,3.965,3.965,0,0,0,.359.4Zm-1.03-1.849a.289.289,0,0,1-.566.116,5.105,5.105,0,0,1-.08-.618.289.289,0,0,1,.578-.03,4.691,4.691,0,0,0,.068.53Zm.13-2.151a.289.289,0,0,1-.555-.158c.052-.193.115-.384.186-.57a.289.289,0,0,1,.543.2c-.063.173-.123.349-.171.528Zm.9-2.048a.289.289,0,0,1-.5-.292c.078-.161.214-.354.309-.507a.29.29,0,0,1,.485.319A4.306,4.306,0,0,0,349.7,103.464ZM351,101.6a.289.289,0,0,1-.45-.362c.121-.153.249-.3.377-.452a.29.29,0,0,1,.44.379c-.123.143-.246.289-.364.437Zm1.533-1.689a.29.29,0,0,1-.407-.412c.136-.136.279-.281.422-.41a.289.289,0,0,1,.394.422C352.8,99.645,352.666,99.777,352.531,99.913Zm1.7-1.533a.29.29,0,0,1-.367-.45l.457-.367a.289.289,0,0,1,.354.457c-.151.111-.3.239-.447.357Z" transform="translate(-131.98 -35.003)" fill="#4f6736" fill-rule="evenodd"/>
      <path id="Trazado_615119" data-name="Trazado 615119" d="M165.072,89.967l-15.125,6.2,4.154,5.3Z" transform="translate(-56.982 -33.037)" fill="#354d1d" fill-rule="evenodd"/>
      <path id="Trazado_615120" data-name="Trazado 615120" d="M143.338,93.689l16.8-3.666-20.907,1.528Z" transform="translate(-52.845 -37.583)" fill="#354d1d" fill-rule="evenodd"/>
      <path id="Trazado_615121" data-name="Trazado 615121" d="M146.285,93.666l.394,6.963,1.739-4.463,15.125-6.2-.462.033Z" transform="translate(-55.566 -37.56)" fill="#4f6736" fill-rule="evenodd"/>
      <path id="Trazado_615122" data-name="Trazado 615122" d="M146.962,105.072l3.581-2.113-1.842-2.35Z" transform="translate(-61.357 -42.003)" fill="#4f6736" fill-rule="evenodd"/>
      <path id="Trazado_615123" data-name="Trazado 615123" d="M122.252,106.863a.363.363,0,0,0-.075-.721l-.724.078a.363.363,0,0,0,.083.721ZM97.458,135.7a.363.363,0,1,0,0,.726h.47a.364.364,0,0,0-.008-.729h-.462Zm2.618-.063a.362.362,0,0,0,.04.723l.731-.045a.363.363,0,0,0-.052-.724Zm2.854-.271a.362.362,0,0,0,.108.716Zm2.772-.61a.363.363,0,0,0,.226.691c.239-.078.472-.161.7-.249a.364.364,0,0,0-.269-.676C106.147,134.6,105.923,134.68,105.7,134.75Zm2.46-1.237a.362.362,0,0,0,.455.563,5.483,5.483,0,0,0,.57-.538.362.362,0,0,0-.543-.479A4.932,4.932,0,0,1,108.162,133.514Zm1.357-2.2a.363.363,0,0,0,.716.123,5.381,5.381,0,0,0,.086-.774.363.363,0,0,0-.726-.017,4.316,4.316,0,0,1-.073.669Zm-.194-2.712a.362.362,0,0,0,.7-.191c-.066-.239-.136-.485-.216-.716a.362.362,0,0,0-.686.234C109.2,128.151,109.266,128.378,109.326,128.6Zm-1-2.658a.363.363,0,0,0,.661-.3c-.1-.221-.206-.444-.314-.663a.364.364,0,0,0-.654.319C108.124,125.513,108.228,125.732,108.325,125.945Zm-1.294-2.573a.362.362,0,0,0,.641-.339l-.34-.641a.363.363,0,0,0-.641.342C106.808,122.943,106.921,123.161,107.032,123.372Zm-1.352-2.578a.362.362,0,0,0,.648-.322l-.317-.646a.364.364,0,0,0-.656.315l.324.656Zm-1.178-2.706a.362.362,0,0,0,.689-.224c-.073-.224-.139-.444-.2-.673a.363.363,0,0,0-.7.178C104.35,117.615,104.421,117.849,104.5,118.088Zm-.365-3.013a.362.362,0,0,0,.719.09,5.414,5.414,0,0,1,.123-.668.363.363,0,0,0-.7-.179A6.453,6.453,0,0,0,104.137,115.075Zm1.116-2.84a.362.362,0,0,0,.585.427c.136-.186.276-.366.429-.538a.362.362,0,0,0-.538-.485A6.775,6.775,0,0,0,105.253,112.235Zm2.191-2.068a.363.363,0,0,0,.4.6c.193-.133.392-.259.6-.379a.362.362,0,0,0-.369-.623C107.861,109.9,107.65,110.026,107.443,110.167Zm2.621-1.39a.362.362,0,0,0,.278.669c.219-.093.44-.181.663-.267a.363.363,0,0,0-.259-.678c-.229.088-.46.178-.686.274Zm2.779-.968a.362.362,0,0,0,.2.7l.691-.191a.363.363,0,0,0-.183-.7Zm2.844-.7a.363.363,0,0,0,.146.711l.707-.14a.363.363,0,0,0-.136-.714Zm2.875-.51a.362.362,0,0,0,.108.716l.714-.1a.362.362,0,0,0-.1-.716l-.721.105Z" transform="translate(-40.537 -38.626)" fill="#4f6736" fill-rule="evenodd"/>
      <path id="Trazado_615124" data-name="Trazado 615124" d="M643.334,72.06l15.122,6.2-4.151,5.3Z" transform="translate(-244.474 -30.083)" fill="#354d1d" fill-rule="evenodd"/>
      <path id="Trazado_615125" data-name="Trazado 615125" d="M660.924,75.784l-16.8-3.669,20.909,1.528Z" transform="translate(-244.486 -30.107)" fill="#354d1d" fill-rule="evenodd"/>
      <path id="Trazado_615126" data-name="Trazado 615126" d="M660.592,75.761l-.394,6.963-1.742-4.463-15.122-6.2.463.033Z" transform="translate(-244.368 -30.083)" fill="#4f6736" fill-rule="evenodd"/>
      <path id="Trazado_615127" data-name="Trazado 615127" d="M669.72,87.169l-3.578-2.116,1.837-2.347Z" transform="translate(-253.718 -34.529)" fill="#4f6736" fill-rule="evenodd"/>
      <path id="Trazado_615128" data-name="Trazado 615128" d="M676.766,84.62a.279.279,0,0,0-.063.555l.553.065a.28.28,0,0,0,.065-.555l-.558-.065Zm31.546,35.722a.279.279,0,0,0-.242-.5c-.163.077-.329.15-.5.226a.278.278,0,0,0,.221.51Zm-2.126.814a.278.278,0,0,0-.151-.535c-.176.048-.349.093-.525.138a.279.279,0,0,0,.125.543c.189-.043.369-.093.553-.143Zm-2.249.4A.28.28,0,0,0,703.9,121c-.178.01-.356.017-.54.02a.279.279,0,0,0,.005.558c.186-.012.381-.012.573-.023Zm-2.292-.121a.279.279,0,0,0,.1-.548c-.176-.03-.355-.07-.528-.113a.28.28,0,0,0-.136.543c.186.045.372.088.56.121Zm-2.184-.716a.279.279,0,0,0,.246-.5c-.164-.078-.317-.166-.475-.254a.279.279,0,0,0-.281.482c.166.1.34.189.513.271Zm-1.9-1.291a.279.279,0,0,0,.375-.415c-.128-.116-.271-.246-.39-.372a.28.28,0,0,0-.4.39c.136.138.271.271.415.4Zm-1.5-1.732a.279.279,0,0,0,.463-.312c-.1-.15-.2-.3-.291-.46a.279.279,0,0,0-.478.289C695.844,117.383,695.947,117.543,696.055,117.7Zm-1.068-2.025a.279.279,0,0,0,.52-.2c-.065-.168-.128-.342-.191-.51a.278.278,0,0,0-.525.181c.063.178.128.356.2.535Zm-.679-2.163a.28.28,0,0,0,.543-.133l-.126-.535a.279.279,0,0,0-.545.121Zm-.463-2.2a.279.279,0,0,0,.548-.1l-.1-.548a.278.278,0,0,0-.548.1Zm-.389-2.2a.278.278,0,0,0,.548-.1l-.1-.55a.279.279,0,1,0-.548.105Zm-.45-2.169a.279.279,0,0,0,.542-.133c-.045-.183-.09-.367-.14-.548a.279.279,0,0,0-.538.151c.052.166.1.362.138.532Zm-.556-1.968a.281.281,0,0,0,.422-.331c-.045-.118-.1-.236-.149-.352a.267.267,0,0,0-.173-.294.282.282,0,0,0-.42.322c-.045.118-.088.236-.138.355a.281.281,0,0,0,.457.3Zm-1.121-2.02a.279.279,0,0,0,.45-.331c-.113-.154-.234-.307-.364-.453a.278.278,0,0,0-.417.367C691.117,102.678,691.228,102.818,691.331,102.961Zm-1.528-1.47a.279.279,0,0,0,.3-.467c-.163-.108-.324-.206-.5-.3a.279.279,0,0,0-.262.493C689.5,101.3,689.652,101.393,689.8,101.491Zm-1.95-.869a.278.278,0,0,0,.143-.538c-.186-.053-.37-.1-.558-.136a.279.279,0,0,0-.108.548c.176.038.352.078.525.126Zm-2.146-.342a.28.28,0,0,0,.04-.558c-.191-.012-.38-.022-.571-.03a.279.279,0,0,0-.017.557C685.343,100.255,685.524,100.267,685.707,100.28Zm-2.172.043a.28.28,0,0,0-.073-.555c-.191.025-.377.055-.568.09a.279.279,0,0,0,.108.548C683.179,100.373,683.357,100.345,683.536,100.322Zm-2.065.558a.28.28,0,0,0-.231-.51c-.183.083-.347.174-.522.267a.279.279,0,0,0,.281.482C681.154,101.031,681.307,100.953,681.47,100.881Zm-1.7,1.231a.279.279,0,0,0-.422-.365,4.665,4.665,0,0,0-.359.47.278.278,0,0,0,.465.306,4.081,4.081,0,0,1,.317-.414Zm-.91,1.847a.279.279,0,0,0-.548-.1,5.431,5.431,0,0,0-.078.588.279.279,0,0,0,.557.036A4.683,4.683,0,0,1,678.865,103.959Zm.115,2.07a.279.279,0,0,0-.532.168c.06.189.125.367.2.55a.28.28,0,0,0,.513-.224,4.674,4.674,0,0,1-.183-.5Zm1.033,1.83a.279.279,0,0,0-.419.367,5.793,5.793,0,0,0,.407.422.278.278,0,1,0,.377-.41,5.255,5.255,0,0,1-.367-.379Zm1.664,1.314a.278.278,0,0,0-.264.49c.171.09.344.178.522.259a.279.279,0,0,0,.224-.51c-.163-.073-.324-.151-.482-.236Zm2.008.751a.278.278,0,0,0-.113.545c.188.04.379.078.57.108a.28.28,0,0,0,.07-.555C684.034,109.992,683.862,109.962,683.684,109.924Zm2.133.138a.279.279,0,0,0,.058.555,4.864,4.864,0,0,0,.578-.085.28.28,0,0,0-.113-.548C686.172,110.017,685.986,110.047,685.817,110.062Zm2.043-.58a.279.279,0,1,0,.243.5c.176-.083.347-.176.515-.274a.278.278,0,0,0-.286-.477C688.182,109.324,688.019,109.407,687.861,109.482Zm1.761-1.214a.279.279,0,0,0,.381.407c.139-.13.279-.271.41-.409a.279.279,0,0,0-.412-.377C689.881,108.017,689.75,108.148,689.622,108.268Zm1.385-1.658a.278.278,0,0,0,.465.3c.105-.158.2-.322.3-.488a.28.28,0,0,0-.485-.279C691.2,106.3,691.1,106.457,691.007,106.61Zm1.618-4.018a.279.279,0,0,0,.548.111c.038-.186.073-.372.1-.56a.28.28,0,0,0-.553-.086c-.033.178-.063.357-.1.535Zm.269-2.166a.279.279,0,0,0,.558.017c.005-.188.01-.377.01-.565a.279.279,0,0,0-.557,0C692.9,100.062,692.9,100.245,692.893,100.426Zm-.085-2.184a.279.279,0,0,0,.553-.07c-.023-.189-.05-.38-.078-.566a.279.279,0,0,0-.55.1c.036.171.055.367.078.54Zm-.437-2.141a.279.279,0,0,0,.535-.158c-.053-.183-.111-.362-.171-.543a.278.278,0,0,0-.528.176c.058.174.113.347.163.523Zm-.774-2.038a.279.279,0,0,0,.5-.246c-.083-.171-.166-.339-.254-.508a.28.28,0,0,0-.492.266C691.436,93.737,691.519,93.9,691.6,94.063Zm-1.1-1.884a.278.278,0,0,0,.452-.324c-.108-.156-.221-.309-.331-.46a.279.279,0,0,0-.442.342C690.286,91.882,690.393,92.03,690.5,92.179ZM689.1,90.5a.28.28,0,0,0,.4-.392c-.133-.136-.269-.269-.4-.4a.279.279,0,0,0-.384.4c.13.126.261.254.389.387Zm-1.639-1.45a.279.279,0,0,0,.334-.447c-.151-.116-.3-.226-.46-.334a.278.278,0,0,0-.317.457c.151.106.294.214.44.324Zm-1.831-1.2a.279.279,0,0,0,.271-.487c-.165-.09-.331-.183-.5-.271a.279.279,0,0,0-.254.5c.161.083.319.173.48.264Zm-1.975-.965a.279.279,0,0,0,.213-.515q-.264-.109-.527-.211a.279.279,0,0,0-.2.523c.171.065.342.136.51.206Zm-2.073-.739a.279.279,0,0,0,.156-.535l-.543-.156a.28.28,0,0,0-.146.54Zm-2.141-.538a.28.28,0,0,0,.114-.548c-.186-.038-.37-.073-.553-.108a.279.279,0,0,0-.1.548c.181.035.364.068.542.105Z" transform="translate(-256.154 -30.686)" fill="#4f6736" fill-rule="evenodd"/>
      <path id="Trazado_615129" data-name="Trazado 615129" d="M158.131,174.42l-12.7,10.071,5.417,3.91Z" transform="translate(-60.718 -63.979)" fill="#354d1d" fill-rule="evenodd"/>
      <path id="Trazado_615130" data-name="Trazado 615130" d="M137.528,182.814l14.989-8.122-19.5,7.217Z" transform="translate(-55.537 -64.247)" fill="#354d1d" fill-rule="evenodd"/>
      <path id="Trazado_615131" data-name="Trazado 615131" d="M140.759,182.7l2.292,6.526.43-4.735,12.7-10.071-.432.158Z" transform="translate(-58.768 -63.955)" fill="#4f6736" fill-rule="evenodd"/>
      <path id="Trazado_615132" data-name="Trazado 615132" d="M144.693,196.445l2.829-3-2.4-1.732Z" transform="translate(-60.41 -70.61)" fill="#4f6736" fill-rule="evenodd"/>
      <path id="Trazado_615133" data-name="Trazado 615133" d="M109.525,196.881a.275.275,0,0,0-.252-.49c-.168.088-.331.174-.492.269a.275.275,0,0,0,.274.478C109.211,197.047,109.367,196.964,109.525,196.881Zm-43.384,8a.275.275,0,0,0-.44.331l.337.44a.275.275,0,0,0,.432-.341l-.332-.43Zm1.39,1.664a.275.275,0,0,0-.4.377c.126.138.256.271.387.4a.275.275,0,0,0,.387-.39C67.777,206.809,67.654,206.679,67.531,206.548Zm1.571,1.485a.275.275,0,0,0-.349.425c.143.118.286.236.432.352a.275.275,0,0,0,.337-.435C69.38,208.262,69.239,208.151,69.1,208.033Zm1.741,1.284a.274.274,0,0,0-.3.462c.156.1.314.2.475.3a.275.275,0,0,0,.281-.472c-.153-.093-.307-.188-.457-.286Zm1.887,1.058a.275.275,0,0,0-.236.5c.168.08.337.158.505.236a.274.274,0,0,0,.221-.5c-.166-.076-.329-.151-.49-.229Zm2,.819a.275.275,0,0,0-.173.523c.176.061.352.116.53.174a.274.274,0,0,0,.158-.525c-.173-.052-.344-.11-.515-.168Zm2.086.578a.275.275,0,0,0-.113.538c.181.038.364.076.548.108a.274.274,0,0,0,.1-.54C77.173,211.845,77,211.81,76.818,211.772Zm2.141.337a.275.275,0,0,0-.055.548c.186.017.372.035.558.048a.275.275,0,0,0,.035-.548Zm2.166.1a.275.275,0,0,0,.005.55c.186,0,.372-.005.558-.01a.274.274,0,0,0-.018-.548q-.271.008-.543.008Zm2.166-.121a.276.276,0,0,0,.06.548c.183-.02.367-.043.553-.066a.275.275,0,0,0-.073-.545c-.181.023-.359.045-.54.065Zm2.143-.342a.274.274,0,0,0,.116.535q.271-.056.543-.121a.275.275,0,0,0-.128-.535c-.176.04-.352.08-.53.118Zm2.1-.557a.275.275,0,0,0,.174.522c.176-.058.352-.118.525-.178a.275.275,0,0,0-.186-.518c-.171.061-.342.118-.515.174Zm2.02-.782a.276.276,0,0,0,.231.5c.168-.078.337-.156.5-.237a.264.264,0,0,0,.133-.344l.09.017a.275.275,0,0,0,.1-.54c-.176-.036-.347-.076-.52-.118a.276.276,0,0,0-.133.535l-.4.188Zm1.908-1.015a.274.274,0,0,0,.294.463c.158-.1.317-.2.47-.306a.275.275,0,0,0-.312-.453c-.148.1-.3.2-.452.294Zm1.726-1.281a.275.275,0,0,0,.367.41c.141-.125.277-.253.41-.384a.275.275,0,0,0-.384-.392C93.448,207.872,93.317,207.993,93.184,208.114Zm1.422-1.583a.275.275,0,0,0,.452.312c.108-.156.211-.319.307-.485a.275.275,0,0,0-.478-.271C94.8,206.237,94.707,206.388,94.607,206.53Zm.867-1.892a.275.275,0,0,0,.538.118,5.454,5.454,0,0,0,.1-.57.276.276,0,0,0-.548-.058A4.262,4.262,0,0,1,95.473,204.638Zm-.03-2.038a.275.275,0,0,0,.527-.158,5.373,5.373,0,0,0-.186-.548.275.275,0,0,0-.505.216,3.737,3.737,0,0,1,.166.49Zm-.96-1.86a.275.275,0,0,0,.442-.327c-.111-.15-.224-.3-.342-.447a.275.275,0,0,0-.427.347c.113.138.221.281.324.427ZM93.038,199.2a.275.275,0,0,0,.337-.435c-.151-.121-.3-.229-.463-.334a.275.275,0,0,0-.3.46C92.759,198.985,92.9,199.085,93.038,199.2Zm-1.842-.952a.275.275,0,0,0,.141-.532,4.354,4.354,0,0,0-.571-.118.275.275,0,0,0-.073.545,4.34,4.34,0,0,1,.505.105Zm-2.05-.058a.275.275,0,0,0-.116-.538,5.66,5.66,0,0,0-.56.146.275.275,0,0,0,.171.522,4.3,4.3,0,0,1,.505-.128ZM87.232,199a.274.274,0,0,0-.309-.452,5.613,5.613,0,0,0-.463.337.275.275,0,0,0,.347.427c.133-.11.281-.211.425-.309Zm-1.538,1.435a.274.274,0,0,0-.435-.334c-.118.151-.229.3-.334.462a.275.275,0,0,0,.46.3C85.48,200.714,85.585,200.57,85.694,200.432Zm-1.018,1.842a.275.275,0,0,0-.518-.183c-.065.178-.121.362-.168.548a.275.275,0,0,0,.533.136C84.565,202.606,84.618,202.435,84.676,202.274Zm-.327,2.05a.276.276,0,0,0-.55.03,4.957,4.957,0,0,0,.055.576.275.275,0,0,0,.543-.088A3.962,3.962,0,0,1,84.349,204.324Zm.538,1.987a.274.274,0,0,0-.482.262,5.083,5.083,0,0,0,.3.5.276.276,0,0,0,.45-.319A4.343,4.343,0,0,1,84.887,206.312Zm1.339,1.581a.275.275,0,0,0-.337.435c.151.118.3.231.457.337a.274.274,0,0,0,.306-.455C86.508,208.109,86.367,208,86.226,207.893Zm1.832,1.078a.275.275,0,0,0-.221.5c.171.076.342.151.516.221a.275.275,0,0,0,.2-.51q-.249-.1-.5-.211Zm4.131,1.005c.176,0,.354,0,.53-.013a.275.275,0,0,1,.038.548c-.189.012-.379.015-.568.015A.275.275,0,0,1,92.189,209.976Zm2.1-.274a.275.275,0,0,0,.149.53c.178-.043.369-.111.542-.171a.275.275,0,0,0-.186-.518C94.632,209.6,94.453,209.662,94.287,209.7Zm1.955-.829a.275.275,0,0,0,.277.475c.161-.093.327-.193.482-.294a.275.275,0,0,0-.3-.46C96.551,208.691,96.4,208.785,96.242,208.873Zm1.752-1.244a.274.274,0,0,0,.354.419c.143-.121.282-.243.42-.367a.275.275,0,0,0-.367-.41c-.136.121-.271.239-.409.354Zm1.573-1.493a.275.275,0,0,0,.4.38l.38-.4a.275.275,0,0,0-.4-.372C99.816,205.872,99.692,206.006,99.567,206.136Zm1.454-1.626a.275.275,0,0,0,.42.354l.354-.419a.274.274,0,0,0-.419-.354l-.355.417Zm1.4-1.689a.275.275,0,0,0,.425.35l.349-.425a.275.275,0,0,0-.425-.349Zm1.412-1.691a.274.274,0,0,0,.417.356l.357-.414a.275.275,0,0,0-.415-.362l-.362.418Zm1.482-1.646a.274.274,0,0,0,.394.38l.38-.387a.275.275,0,0,0-.384-.392l-.39.4Zm1.621-1.528a.275.275,0,0,0,.352.422c.136-.113.278-.231.419-.339a.274.274,0,0,0-.334-.435C107.229,197.718,107.083,197.839,106.94,197.957Z" transform="translate(-27.406 -71.946)" fill="#4f6736" fill-rule="evenodd"/>
    </g>
  </g>
</svg>
