<svg xmlns="http://www.w3.org/2000/svg" width="403.408" height="387.462" viewBox="0 0 403.408 387.462">
  <g id="Grupo_1066783" data-name="Grupo 1066783" transform="translate(-23802.121 8540.231)">
    <g id="Group_77_1_" data-name="Group 77 (1)" transform="translate(23802.121 -8540.231)">
      <path id="Trazado_615326" data-name="Trazado 615326" d="M108.98,155.209v6.608h6.6V148.61h-6.6Z" transform="translate(-12.965 -17.679)" fill="#aeaeae"/>
      <path id="Trazado_615327" data-name="Trazado 615327" d="M115.588,111.13H108.98v6.608h6.608Z" transform="translate(-12.965 -13.22)" fill="#aeaeae"/>
      <path id="Trazado_615328" data-name="Trazado 615328" d="M161.908,193.66H155.3v6.608h6.608Z" transform="translate(-18.475 -23.039)" fill="#aeaeae"/>
      <path id="Trazado_615329" data-name="Trazado 615329" d="M115.579,125.228v6.608h-6.6v6.6h6.6v6.608h13.207v6.6h6.608v-6.6H142V131.836h-6.608v6.6H122.187V118.62h-6.608Z" transform="translate(-12.965 -14.112)" fill="#aeaeae"/>
      <path id="Trazado_615330" data-name="Trazado 615330" d="M130.569,111.13h-6.6v6.6h13.207v-6.6Z" transform="translate(-14.748 -13.22)" fill="#aeaeae"/>
      <path id="Trazado_615331" data-name="Trazado 615331" d="M164.721,170.5h3.542V163.89H161.17V170.5Z" transform="translate(-19.173 -19.497)" fill="#aeaeae"/>
      <path id="Trazado_615332" data-name="Trazado 615332" d="M145.568,118.62H138.96v6.608h6.608Z" transform="translate(-16.531 -14.112)" fill="#aeaeae"/>
      <path id="Trazado_615333" data-name="Trazado 615333" d="M198.038,148.61H191.43v6.608h6.608Z" transform="translate(-22.773 -17.679)" fill="#aeaeae"/>
      <path id="Trazado_615334" data-name="Trazado 615334" d="M205.538,66.15H198.93v6.608h6.608Z" transform="translate(-23.666 -7.869)" fill="#aeaeae"/>
      <path id="Trazado_615335" data-name="Trazado 615335" d="M159.667,123.445v-6.608h6.6v-6.6h-6.6V103.63h-6.608v6.608h-6.6v6.6h6.6v26.422h6.608V130.052h6.6v-6.608Z" transform="translate(-17.423 -12.328)" fill="#aeaeae"/>
      <path id="Trazado_615336" data-name="Trazado 615336" d="M198.038,200.188h6.608V193.58H191.43v6.608Z" transform="translate(-22.773 -23.029)" fill="#aeaeae"/>
      <path id="Trazado_615337" data-name="Trazado 615337" d="M190.548,66.15H183.94v6.608h6.608Z" transform="translate(-21.882 -7.869)" fill="#aeaeae"/>
      <path id="Trazado_615338" data-name="Trazado 615338" d="M186.884,124.337v-6.608h-6.608v-6.6h-6.6v13.207H167.07v6.608h13.207v-6.608Z" transform="translate(-19.875 -13.22)" fill="#aeaeae"/>
      <path id="Trazado_615339" data-name="Trazado 615339" d="M230.978,111.13H224.37v6.608h6.608Z" transform="translate(-26.692 -13.22)" fill="#aeaeae"/>
      <path id="Trazado_615340" data-name="Trazado 615340" d="M153.278,148.61H146.67v6.608h6.608Z" transform="translate(-17.448 -17.679)" fill="#aeaeae"/>
      <path id="Trazado_615341" data-name="Trazado 615341" d="M182.156,100.063V93.456h6.6v-6.6H201.97V80.249h-6.608v-6.6h-6.608v6.6h-6.6v6.608h-6.608v6.6H168.94v6.608h13.216Z" transform="translate(-20.098 -8.762)" fill="#aeaeae"/>
      <path id="Trazado_615342" data-name="Trazado 615342" d="M182.156,154.317v-6.6h6.6V141.11H175.548v6.608H168.94v6.6h13.216Z" transform="translate(-20.098 -16.787)" fill="#aeaeae"/>
      <path id="Trazado_615343" data-name="Trazado 615343" d="M201.079,184.3v-6.6H187.863V171.09h-6.6V177.7h-6.608v6.6H161.45V190.9h19.814V184.3h6.6V190.9h6.608V184.3Z" transform="translate(-19.207 -20.354)" fill="#aeaeae"/>
      <path id="Trazado_615344" data-name="Trazado 615344" d="M173.764,72.758V66.15H160.558v6.608H153.95v6.6h13.207v-6.6Z" transform="translate(-18.315 -7.869)" fill="#aeaeae"/>
      <path id="Trazado_615345" data-name="Trazado 615345" d="M175.548,81.14H168.94v6.608h6.608Z" transform="translate(-20.098 -9.653)" fill="#aeaeae"/>
      <path id="Trazado_615346" data-name="Trazado 615346" d="M194.289,109.346h-6.6V129.16H200.9v-6.608h-6.608v-6.608H200.9v-6.6h6.6v-6.608h-6.6V96.13h-6.608v13.216Z" transform="translate(-22.328 -11.436)" fill="#aeaeae"/>
      <path id="Trazado_615347" data-name="Trazado 615347" d="M168.058,88.64H161.45v6.608h6.608Z" transform="translate(-19.207 -10.545)" fill="#aeaeae"/>
      <path id="Trazado_615348" data-name="Trazado 615348" d="M191.43,162.708v6.608h13.216v-6.608h13.207V156.1H198.038v6.608Z" transform="translate(-22.773 -18.57)" fill="#aeaeae"/>
      <path id="Trazado_615349" data-name="Trazado 615349" d="M230.978,133.62H224.37v6.608h6.608Z" transform="translate(-26.692 -15.896)" fill="#aeaeae"/>
      <path id="Trazado_615350" data-name="Trazado 615350" d="M205.538,141.11H198.93v6.608h6.608Z" transform="translate(-23.666 -16.787)" fill="#aeaeae"/>
      <path id="Trazado_615351" data-name="Trazado 615351" d="M223.386,118.62H210.17v6.608h6.608v6.608h6.608V118.62Z" transform="translate(-25.003 -14.112)" fill="#aeaeae"/>
      <path id="Trazado_615352" data-name="Trazado 615352" d="M220.528,141.11H213.92v6.608h6.608Z" transform="translate(-25.449 -16.787)" fill="#aeaeae"/>
      <path id="Trazado_615353" data-name="Trazado 615353" d="M137.177,182.646H157V156.1H130.454v6.608H123.97v6.608h6.484v6.608H123.97v6.608h6.484v.123h.123v6.484H123.97v13.207h6.608v-6.608h6.608V182.654Zm14.74-21.462v16.511H135.406V161.184Z" transform="translate(-14.748 -18.57)" fill="#aeaeae"/>
      <path id="Trazado_615354" data-name="Trazado 615354" d="M234.627,155.209h6.608v-6.6H221.42v6.6h13.207Z" transform="translate(-26.341 -17.679)" fill="#aeaeae"/>
      <path id="Trazado_615355" data-name="Trazado 615355" d="M236.41,124.337h6.608V111.13H236.41v13.207Z" transform="translate(-28.124 -13.22)" fill="#aeaeae"/>
      <path id="Trazado_615356" data-name="Trazado 615356" d="M175.828,163.89H169.22V177.1h6.608V163.89Z" transform="translate(-20.131 -19.497)" fill="#aeaeae"/>
      <path id="Trazado_615357" data-name="Trazado 615357" d="M250.518,156.1H243.91v6.608h6.608Z" transform="translate(-29.017 -18.57)" fill="#aeaeae"/>
      <path id="Trazado_615358" data-name="Trazado 615358" d="M250.509,140.219v-6.6h-6.6v13.207h6.6Z" transform="translate(-29.017 -15.896)" fill="#aeaeae"/>
      <path id="Trazado_615359" data-name="Trazado 615359" d="M115.579,193.58h-6.6V206.8h6.6V193.58Z" transform="translate(-12.965 -23.029)" fill="#aeaeae"/>
      <path id="Trazado_615360" data-name="Trazado 615360" d="M246.941,99.171V66.15H213.92V99.171Zm-28.07-4.951V71.1H241.99V94.22Z" transform="translate(-25.449 -7.869)" fill="#aeaeae"/>
      <path id="Trazado_615361" data-name="Trazado 615361" d="M238.377,77.39H225.17V90.6h13.207Z" transform="translate(-26.787 -9.207)" fill="#aeaeae"/>
      <path id="Trazado_615362" data-name="Trazado 615362" d="M246.941,171.1H213.92v33.021h33.021Zm-28.07,28.07V176.051H241.99V199.17Z" transform="translate(-25.449 -20.355)" fill="#aeaeae"/>
      <path id="Trazado_615363" data-name="Trazado 615363" d="M238.377,182.34H225.17v13.207h13.207Z" transform="translate(-26.787 -21.692)" fill="#aeaeae"/>
      <path id="Trazado_615364" data-name="Trazado 615364" d="M108.88,66.15V99.171H141.9V66.15ZM136.95,71.1V94.22H113.831V71.1Z" transform="translate(-12.953 -7.869)" fill="#aeaeae"/>
      <path id="Trazado_615365" data-name="Trazado 615365" d="M133.337,77.39H120.13V90.6h13.207Z" transform="translate(-14.291 -9.207)" fill="#aeaeae"/>
      <path id="Trazado_615366" data-name="Trazado 615366" d="M48.227,212.536a3.123,3.123,0,1,1-3.11-3.136A3.115,3.115,0,0,1,48.227,212.536Z" transform="translate(-4.994 -24.911)" fill="#aeaeae"/>
      <path id="Trazado_615367" data-name="Trazado 615367" d="M38.03,207.554a8.666,8.666,0,0,1,12.537-.167,1.761,1.761,0,0,0,2.5-2.476,12.218,12.218,0,0,0-17.506.141c-1.559,1.639.907,4.141,2.476,2.5Z" transform="translate(-4.172 -23.946)" fill="#aeaeae"/>
      <path id="Trazado_615368" data-name="Trazado 615368" d="M25.967,190.5a25.646,25.646,0,0,1,16.784-6.714A24.862,24.862,0,0,1,59.87,190.34c1.648,1.551,4.15-.925,2.5-2.476a28.564,28.564,0,0,0-19.6-7.595c-7.313.018-13.815,3-19.277,7.727C21.774,189.477,24.258,191.97,25.967,190.5Z" transform="translate(-2.726 -21.446)" fill="#aeaeae"/>
      <path id="Trazado_615369" data-name="Trazado 615369" d="M30.74,199.794a17.194,17.194,0,0,1,25.268-.361c1.577,1.621,4.079-.855,2.5-2.476a20.708,20.708,0,0,0-30.246.344c-1.533,1.656.934,4.167,2.476,2.5Z" transform="translate(-3.305 -22.67)" fill="#aeaeae"/>
      <path id="Trazado_615370" data-name="Trazado 615370" d="M193.161,16.653c.529-3.868-4.925-7.048-9.022-7.374-1.956-.159-3.982.141-5.841-.5-4.009-1.4-5.612-6.581-9.533-8.229-2.925-1.233-6.3-.132-9.136,1.3s-5.639,3.225-8.81,3.427c-2.758.176-5.753-.846-8.167.5-1.8,1-2.74,3.075-4.4,4.3a10.507,10.507,0,0,1-5.744,1.559,16.181,16.181,0,0,0-5.929.969c-1.833.837-3.348,2.775-2.969,4.758l69.531-.687Z" transform="translate(-14.698 -0.002)" fill="#aeaeae"/>
      <path id="Trazado_615371" data-name="Trazado 615371" d="M74.685,91c.476-3.462-4.414-6.317-8.088-6.608-1.753-.141-3.568.123-5.233-.449-3.595-1.251-5.031-5.9-8.546-7.383-2.625-1.11-5.647-.123-8.185,1.163s-5.057,2.89-7.9,3.075c-2.476.159-5.154-.758-7.321.449-1.612.9-2.458,2.758-3.938,3.85a9.444,9.444,0,0,1-5.154,1.4A14.535,14.535,0,0,0,15,87.365c-1.639.749-3,2.485-2.661,4.264l62.333-.617Z" transform="translate(-1.462 -9.05)" fill="#c4c1c1"/>
      <path id="Trazado_615372" data-name="Trazado 615372" d="M448.821,88.072c.511-3.709-4.722-6.766-8.661-7.084-1.877-.15-3.824.132-5.6-.485-3.85-1.339-5.392-6.317-9.145-7.9-2.811-1.181-6.044-.132-8.766,1.242s-5.418,3.092-8.458,3.286c-2.643.167-5.524-.81-7.832.485-1.727.96-2.625,2.951-4.22,4.123a10.1,10.1,0,0,1-5.515,1.5,15.659,15.659,0,0,0-5.691.925c-1.762.8-3.216,2.661-2.846,4.564l66.738-.661Z" transform="translate(-45.447 -8.576)" fill="#c4c1c1"/>
      <path id="Trazado_615373" data-name="Trazado 615373" d="M395.515,439.489c0,.123-88.544.229-197.748.229S0,439.612,0,439.489s88.526-.229,197.766-.229S395.515,439.366,395.515,439.489Z" transform="translate(0 -52.256)" fill="#263238"/>
      <path id="Trazado_615374" data-name="Trazado 615374" d="M394.531,395.527a7.179,7.179,0,0,1,3.718,4.211,12.591,12.591,0,0,1,.493,5.7c-.423,3.7-2.52,7.436-4.784,10.387-3.11-2.722-3.832-7.462-4.044-9.885-.335-3.841,1.392-10.978,4.617-10.405" transform="translate(-46.381 -47.051)" fill="#4f6736"/>
      <path id="Trazado_615375" data-name="Trazado 615375" d="M398.591,424.449a6.11,6.11,0,0,1,1.974-5.815,8.118,8.118,0,0,1,5.991-1.868,3.414,3.414,0,0,1,2.625,1.181,2.64,2.64,0,0,1,.044,2.652,5.3,5.3,0,0,1-1.965,1.929C404.564,424.22,401.639,425.365,398.591,424.449Z" transform="translate(-47.401 -49.577)" fill="#4f6736"/>
      <path id="Trazado_615376" data-name="Trazado 615376" d="M394.08,436.281s.026-.273.115-.758c.1-.537.22-1.225.379-2.053a21.32,21.32,0,0,1,2.123-6.564,13.142,13.142,0,0,1,4.7-5,8.347,8.347,0,0,1,1.921-.846c.238-.079.423-.106.555-.141a.538.538,0,0,1,.194-.026,13.828,13.828,0,0,0-2.573,1.181,13.626,13.626,0,0,0-4.573,4.969,23.052,23.052,0,0,0-2.167,6.467c-.185.863-.344,1.559-.458,2.035a4.1,4.1,0,0,1-.211.74Z" transform="translate(-46.881 -50.07)" fill="#263238"/>
      <path id="Trazado_615377" data-name="Trazado 615377" d="M394.187,401.83a2.013,2.013,0,0,1,.035.335q.026.37.053.952c.044.828.1,2.026.141,3.507.1,2.96.167,7.057.15,11.586s-.132,8.625-.256,11.586c-.062,1.48-.123,2.678-.167,3.507-.026.388-.044.7-.062.952a1.456,1.456,0,0,1-.044.335,1.4,1.4,0,0,1-.018-.335c0-.247,0-.564.018-.952.018-.863.053-2.053.088-3.507.07-2.96.15-7.057.176-11.577s-.026-8.617-.07-11.577c-.026-1.454-.044-2.643-.053-3.507v-.952c0-.22,0-.335.018-.335Z" transform="translate(-46.874 -47.803)" fill="#263238"/>
      <path id="Trazado_615378" data-name="Trazado 615378" d="M390.925,426.566a14.288,14.288,0,0,0-7.815-10.475c-1.04-.5-2.4-.828-3.251-.053s-.661,2.167-.247,3.242a12.209,12.209,0,0,0,11.242,7.586" transform="translate(-45.118 -49.438)" fill="#4f6736"/>
      <path id="Trazado_615379" data-name="Trazado 615379" d="M384.2,420.13a7.162,7.162,0,0,1,.661.291,6.4,6.4,0,0,1,.749.4,10.782,10.782,0,0,1,.952.6,10.309,10.309,0,0,1,1.084.819,13.807,13.807,0,0,1,1.154,1.048,16.043,16.043,0,0,1,2.2,2.828,15.279,15.279,0,0,1,1.445,3.277,14.117,14.117,0,0,1,.37,1.524,11.7,11.7,0,0,1,.185,1.348c.053.414.035.793.053,1.119a5.047,5.047,0,0,1-.026.846,3.863,3.863,0,0,1-.079.714c-.062,0,.044-1.031-.132-2.661a11.806,11.806,0,0,0-.22-1.322,12.019,12.019,0,0,0-.388-1.489,15.7,15.7,0,0,0-1.445-3.207,16.668,16.668,0,0,0-2.15-2.793,13.767,13.767,0,0,0-1.128-1.057,13.245,13.245,0,0,0-1.057-.837c-1.339-.96-2.273-1.383-2.247-1.436Z" transform="translate(-45.704 -49.98)" fill="#263238"/>
      <path id="Trazado_615380" data-name="Trazado 615380" d="M125.742,437.3a20.007,20.007,0,0,1-.6-2.511,56.857,56.857,0,0,0-1.7-5.956,58.3,58.3,0,0,0-2.37-5.727,19.1,19.1,0,0,1-1.084-2.344,11.716,11.716,0,0,1,1.374,2.194,38.9,38.9,0,0,1,2.511,5.727,39.611,39.611,0,0,1,1.586,6.044A10.885,10.885,0,0,1,125.742,437.3Z" transform="translate(-14.274 -50.055)" fill="#263238"/>
      <path id="Trazado_615381" data-name="Trazado 615381" d="M134.936,396.26s-.044.537-.22,1.5-.414,2.335-.7,4.044c-.564,3.418-1.216,8.167-1.621,13.436s-.476,10.061-.449,13.533c.018,1.736.044,3.137.07,4.106a9.939,9.939,0,0,1-.009,1.507,9.12,9.12,0,0,1-.167-1.5c-.079-.969-.159-2.37-.211-4.106a129.489,129.489,0,0,1,.308-13.568,127.031,127.031,0,0,1,1.753-13.453c.317-1.709.608-3.084.837-4.026a8.111,8.111,0,0,1,.4-1.454Z" transform="translate(-15.652 -47.141)" fill="#263238"/>
      <path id="Trazado_615382" data-name="Trazado 615382" d="M148.68,421.17c.053.044-.564.819-1.463,2.141a34.466,34.466,0,0,0-3.013,5.436,34.9,34.9,0,0,0-1.956,5.9c-.361,1.551-.511,2.537-.581,2.529a10.352,10.352,0,0,1,.264-2.59,27.443,27.443,0,0,1,5.022-11.453,10.648,10.648,0,0,1,1.727-1.956Z" transform="translate(-16.851 -50.104)" fill="#263238"/>
      <path id="Trazado_615383" data-name="Trazado 615383" d="M323.97,424.42a9.231,9.231,0,0,1,1.163,1.753c.652,1.119,1.5,2.7,2.344,4.5s1.507,3.462,1.947,4.687a8.452,8.452,0,0,1,.6,2.018,10.412,10.412,0,0,1-.9-1.894c-.511-1.189-1.225-2.819-2.062-4.608s-1.63-3.383-2.211-4.537a9.663,9.663,0,0,1-.872-1.912Z" transform="translate(-38.541 -50.491)" fill="#263238"/>
      <path id="Trazado_615384" data-name="Trazado 615384" d="M341.83,406.21s-.053.414-.22,1.145c-.194.819-.432,1.85-.714,3.084-.59,2.608-1.3,6.22-1.841,10.264s-.784,7.718-.89,10.387c-.044,1.26-.079,2.326-.115,3.163a6.852,6.852,0,0,1-.079,1.163,5.644,5.644,0,0,1-.1-1.163c-.035-.749-.053-1.833-.035-3.172a89.866,89.866,0,0,1,2.74-20.713c.335-1.3.626-2.344.855-3.057a5.4,5.4,0,0,1,.4-1.092Z" transform="translate(-40.19 -48.324)" fill="#263238"/>
      <path id="Trazado_615385" data-name="Trazado 615385" d="M209.27,414.34a8.332,8.332,0,0,1,.793.617,25.3,25.3,0,0,1,1.982,1.9,35,35,0,0,1,8.564,15.8,24.575,24.575,0,0,1,.511,2.7,4.1,4.1,0,0,1,.079,1c-.079.009-.3-1.4-.907-3.621a40.516,40.516,0,0,0-3.339-8.317,39.781,39.781,0,0,0-5.145-7.339C210.283,415.362,209.217,414.4,209.27,414.34Z" transform="translate(-24.895 -49.292)" fill="#263238"/>
      <path id="Trazado_615386" data-name="Trazado 615386" d="M226.547,403.7s.044.449.035,1.251c0,.89,0,2.035-.009,3.4,0,2.872.115,6.837.493,11.2s.96,8.291,1.454,11.119c.238,1.348.441,2.476.6,3.348a6.307,6.307,0,0,1,.176,1.242,6.937,6.937,0,0,1-.352-1.2c-.2-.775-.458-1.912-.74-3.33a102.931,102.931,0,0,1-1.947-22.378c.035-1.436.088-2.608.159-3.41a6.272,6.272,0,0,1,.141-1.242Z" transform="translate(-26.913 -48.026)" fill="#263238"/>
      <path id="Trazado_615387" data-name="Trazado 615387" d="M241.379,424.9c.132.07-1.392,2.714-2.432,6.291-1.066,3.568-1.225,6.608-1.374,6.6a7.134,7.134,0,0,1,.018-2,24.515,24.515,0,0,1,.916-4.731,25.348,25.348,0,0,1,1.8-4.467,6.65,6.65,0,0,1,1.066-1.683Z" transform="translate(-28.257 -50.548)" fill="#263238"/>
      <path id="Trazado_615388" data-name="Trazado 615388" d="M36.009,344.38H25.78v81.205H36.009Z" transform="translate(-3.067 -40.969)" fill="#455a64"/>
      <path id="Trazado_615389" data-name="Trazado 615389" d="M35.976,425.555s-.009-.15-.018-.423l-.018-1.216c0-1.084-.018-2.652-.035-4.669-.018-4.062-.035-9.929-.07-17.215-.026-14.581-.062-34.845-.1-57.673l.229.229H25.738l.229-.229c-.053,35.567-.106,66.368-.123,81.205l-.106-.106c3.3.026,5.85.044,7.586.062.855.009,1.507.018,1.965.026.441,0,.678.018.678.018s-.211.009-.643.018c-.458,0-1.1.018-1.947.026-1.753.018-4.317.035-7.647.062h-.106v-.106c-.026-14.828-.07-45.629-.123-81.205l.229-.229H36.187v.229c-.035,22.9-.07,43.215-.1,57.84-.026,7.269-.053,13.11-.07,17.163-.018,1.991-.026,3.542-.035,4.617l-.018,1.189a3.363,3.363,0,0,1-.018.4Z" transform="translate(-3.034 -40.939)" fill="#263238"/>
      <g id="Grupo_1016170" data-name="Grupo 1016170" transform="translate(22.713 305.385)" opacity="0.3">
        <path id="Trazado_615390" data-name="Trazado 615390" d="M36.009,346.62H25.78V350H36.009Z" transform="translate(-25.78 -346.62)"/>
      </g>
      <path id="Trazado_615391" data-name="Trazado 615391" d="M283.009,344.38H272.78v81.205h10.229Z" transform="translate(-32.451 -40.969)" fill="#455a64"/>
      <path id="Trazado_615392" data-name="Trazado 615392" d="M282.976,425.555s-.009-.15-.018-.423l-.018-1.216c0-1.084-.018-2.652-.035-4.669-.018-4.062-.035-9.929-.07-17.215-.026-14.581-.062-34.845-.1-57.673l.229.229H272.738l.229-.229c-.053,35.567-.106,66.368-.123,81.205l-.106-.106c3.3.026,5.85.044,7.586.062.855.009,1.507.018,1.965.026.44,0,.678.018.678.018s-.211.009-.643.018c-.458,0-1.1.018-1.947.026-1.753.018-4.317.035-7.647.062h-.106v-.106c-.026-14.828-.07-45.629-.123-81.205l.229-.229h10.458v.229c-.035,22.9-.07,43.215-.1,57.84-.026,7.269-.053,13.11-.07,17.163-.018,1.991-.026,3.542-.035,4.617l-.018,1.189a3.359,3.359,0,0,1-.018.4Z" transform="translate(-32.418 -40.939)" fill="#263238"/>
      <path id="Trazado_615393" data-name="Trazado 615393" d="M264.809,263.64H254.58v67.69h10.229Z" transform="translate(-30.286 -31.364)" fill="#455a64"/>
      <path id="Trazado_615394" data-name="Trazado 615394" d="M264.783,331.3s-.009-.123-.018-.352l-.018-1.013c0-.907-.018-2.211-.035-3.885-.018-3.383-.035-8.264-.07-14.326-.026-12.141-.062-29.021-.1-48.1l.229.229H254.545c.449-.458.123-.115.229-.211v21.048c0,6.7-.018,13.022-.026,18.845-.035,11.63-.062,21.242-.088,27.788l-.115-.115c3.286.026,5.824.053,7.568.062.855.009,1.507.018,1.974.026.449,0,.687.026.687.026s-.211.018-.643.026c-.458,0-1.11.018-1.956.026-1.762.018-4.326.035-7.639.062h-.115v-.115c-.018-6.546-.053-16.158-.088-27.788,0-5.824-.018-12.15-.026-18.845V263.637c.106-.106-.229.211.229-.247h10.458v.229c-.044,19.145-.07,36.087-.1,48.272-.026,6.044-.053,10.907-.07,14.273-.018,1.648-.026,2.934-.035,3.832,0,.414-.009.74-.018.987a1.289,1.289,0,0,1-.018.326Z" transform="translate(-30.251 -31.334)" fill="#263238"/>
      <path id="Trazado_615395" data-name="Trazado 615395" d="M58.229,263.64H48v67.69H58.229Z" transform="translate(-5.71 -31.364)" fill="#455a64"/>
      <path id="Trazado_615396" data-name="Trazado 615396" d="M58.2,331.3s-.009-.123-.018-.352c0-.247,0-.581-.018-1.013,0-.907-.018-2.211-.035-3.885-.018-3.383-.035-8.264-.07-14.326-.026-12.141-.062-29.021-.1-48.1l.229.229H47.965c.449-.458.123-.115.229-.211v21.048c0,6.7-.018,13.022-.026,18.845-.035,11.63-.062,21.242-.088,27.788l-.115-.115c3.286.026,5.824.053,7.568.062.855.009,1.507.018,1.974.026.449,0,.687.026.687.026s-.211.018-.643.026c-.458,0-1.11.018-1.956.026-1.762.018-4.326.035-7.639.062h-.115v-.115c-.018-6.546-.053-16.158-.088-27.788,0-5.824-.018-12.15-.026-18.845V263.637c.106-.106-.229.211.229-.247H58.414v.229c-.044,19.145-.07,36.087-.1,48.272-.026,6.044-.053,10.907-.07,14.273-.018,1.648-.026,2.934-.035,3.832,0,.414-.009.74-.018.987a1.287,1.287,0,0,1-.018.326Z" transform="translate(-5.675 -31.334)" fill="#263238"/>
      <path id="Trazado_615397" data-name="Trazado 615397" d="M257.252,254.87H25.09v10.837H257.252Z" transform="translate(-2.985 -30.32)" fill="#455a64"/>
      <path id="Trazado_615398" data-name="Trazado 615398" d="M257.218,265.678s0-.22-.009-.661,0-1.1-.018-1.991c0-1.789-.018-4.484-.035-8.185l.062.062c-28.546.018-121.75.088-232.153.167h-.009l.229-.229v10.837l-.229-.229c64.624.035,122.631.07,164.489.1,20.942.026,37.849.053,49.523.07,5.841.018,10.37.026,13.445.035,1.533,0,2.7.009,3.5.018s1.2.018,1.2.018-.388.009-1.172.018-1.947.009-3.471.018c-3.066,0-7.577.018-13.392.035-11.665.018-28.546.044-49.47.07-41.9.026-99.971.062-164.666.1H24.81V254.63h.238c110.4.079,203.6.141,232.153.167h.062v.062c-.018,3.718-.026,6.432-.035,8.22,0,.881-.009,1.533-.018,1.974s-.009.634-.009.634Z" transform="translate(-2.951 -30.292)" fill="#263238"/>
      <path id="Trazado_615399" data-name="Trazado 615399" d="M257.942,273.32H25.78v10.837H257.942Z" transform="translate(-3.067 -32.515)" fill="#455a64"/>
      <path id="Trazado_615400" data-name="Trazado 615400" d="M257.908,284.128s0-.22-.009-.661,0-1.1-.018-1.991c0-1.789-.018-4.484-.035-8.185l.062.062c-28.546.018-121.75.088-232.153.167h-.009l.229-.229v10.837l-.229-.229c64.624.035,122.631.07,164.489.1,20.942.026,37.849.053,49.523.07,5.841.018,10.37.026,13.445.035,1.533,0,2.7.009,3.5.018s1.2.018,1.2.018-.388.009-1.172.018-1.947.009-3.471.018c-3.066,0-7.577.018-13.392.035-11.665.018-28.546.044-49.47.07-41.9.026-99.971.062-164.666.1H25.5V273.08h.238c110.4.079,203.6.141,232.153.167h.062v.062c-.018,3.718-.026,6.432-.035,8.22,0,.881-.009,1.533-.018,1.974s-.009.634-.009.634Z" transform="translate(-3.034 -32.487)" fill="#263238"/>
      <path id="Trazado_615401" data-name="Trazado 615401" d="M257.942,292.45H25.78v10.837H257.942Z" transform="translate(-3.067 -34.791)" fill="#455a64"/>
      <path id="Trazado_615402" data-name="Trazado 615402" d="M257.908,303.258s0-.22-.009-.661,0-1.1-.018-1.991c0-1.789-.018-4.484-.035-8.185l.062.062c-28.546.018-121.75.088-232.153.167h-.009l.229-.229v10.837l-.229-.229c64.624.035,122.631.07,164.489.1,20.942.026,37.849.053,49.523.07,5.841.018,10.37.026,13.445.035,1.533,0,2.7.009,3.5.018s1.2.018,1.2.018-.388.009-1.172.018-1.947.009-3.471.018c-3.066,0-7.577.018-13.392.035-11.665.018-28.546.044-49.47.07-41.9.026-99.971.062-164.666.1H25.5V292.21h.238c110.4.079,203.6.141,232.153.167h.062v.062c-.018,3.718-.026,6.432-.035,8.22,0,.881-.009,1.533-.018,1.974s-.009.634-.009.634Z" transform="translate(-3.034 -34.763)" fill="#263238"/>
      <path id="Trazado_615403" data-name="Trazado 615403" d="M257.942,311.58H25.78v10.837H257.942Z" transform="translate(-3.067 -37.067)" fill="#455a64"/>
      <path id="Trazado_615404" data-name="Trazado 615404" d="M257.908,322.388s0-.22-.009-.661,0-1.1-.018-1.991c0-1.788-.018-4.484-.035-8.185l.062.062c-28.546.018-121.75.088-232.153.167h-.009l.229-.229v10.837l-.229-.229c64.624.035,122.631.07,164.489.1,20.942.026,37.849.053,49.523.07,5.841.018,10.37.026,13.445.035,1.533,0,2.7.009,3.5.018s1.2.018,1.2.018-.388.009-1.172.018-1.947.009-3.471.018c-3.066,0-7.577.018-13.392.035-11.665.018-28.546.044-49.47.07-41.9.026-99.971.062-164.666.1H25.5V311.34h.238c110.4.079,203.6.141,232.153.167h.062v.062c-.018,3.718-.026,6.432-.035,8.22,0,.881-.009,1.533-.018,1.974s-.009.634-.009.634Z" transform="translate(-3.034 -37.038)" fill="#263238"/>
      <path id="Trazado_615405" data-name="Trazado 615405" d="M260.8,334.32H14.33v10.837H260.8Z" transform="translate(-1.705 -39.772)" fill="#455a64"/>
      <path id="Trazado_615406" data-name="Trazado 615406" d="M260.772,345.128s0-.22-.009-.661,0-1.1-.018-1.991c0-1.78-.018-4.484-.035-8.185l.062.062c-29.585.018-128.8.088-246.452.167h-.009l.229-.229v10.837l-.229-.229c68.58.035,130.164.07,174.613.1,22.237.026,40.193.053,52.589.07,6.2.018,11.013.026,14.282.035,1.63,0,2.872.009,3.718.018s1.277.018,1.277.018-.414.009-1.242.018-2.07.009-3.683.018c-3.26,0-8.044.018-14.22.035-12.387.018-30.316.044-52.536.07-44.492.026-106.138.062-174.78.1H14.1V334.08h.238c117.662.079,216.867.15,246.452.167h.062v.062c-.018,3.718-.026,6.432-.035,8.229,0,.881-.009,1.533-.018,1.974s-.009.634-.009.634Z" transform="translate(-1.677 -39.744)" fill="#263238"/>
      <g id="Grupo_1016171" data-name="Grupo 1016171" transform="translate(240.329 305.385)" opacity="0.3">
        <path id="Trazado_615407" data-name="Trazado 615407" d="M283.009,346.62H272.78V350h10.229Z" transform="translate(-272.78 -346.62)"/>
      </g>
      <path id="Trazado_615408" data-name="Trazado 615408" d="M137.077,187.309l-2.211,14.264-5.691,12.986-8.432-5.383-3-7.577-2.511-6.352s-8.907,2.141-12.458-6.185c-1.709-4.018-4.564-12.59-7.057-20.37a16.862,16.862,0,0,1,9.647-20.74l.811-.335c8.916-3.075,16.511,2.784,19.339,11.779l11.568,27.92" transform="translate(-11.291 -17.463)" fill="#a2675f"/>
      <path id="Trazado_615409" data-name="Trazado 615409" d="M117.96,200.755a21.015,21.015,0,0,0,9.639-7.595s-.1,7.084-8.766,9.771Z" transform="translate(-14.033 -22.979)" fill="#7a4a45"/>
      <path id="Trazado_615410" data-name="Trazado 615410" d="M101.99,178.665a1.288,1.288,0,0,0,1.648.731,1.248,1.248,0,0,0,.793-1.586,1.288,1.288,0,0,0-1.648-.731A1.241,1.241,0,0,0,101.99,178.665Z" transform="translate(-12.124 -21.057)" fill="#263238"/>
      <path id="Trazado_615411" data-name="Trazado 615411" d="M99.424,174.664c.211.1.846-.952,2.132-1.471,1.278-.546,2.493-.273,2.573-.485.044-.1-.229-.317-.758-.449a3.509,3.509,0,0,0-2.132.194,3.409,3.409,0,0,0-1.612,1.366c-.273.467-.291.8-.185.846Z" transform="translate(-11.823 -20.482)" fill="#263238"/>
      <path id="Trazado_615412" data-name="Trazado 615412" d="M114.72,172.985a1.288,1.288,0,0,0,1.648.731,1.248,1.248,0,0,0,.793-1.586,1.288,1.288,0,0,0-1.648-.731A1.241,1.241,0,0,0,114.72,172.985Z" transform="translate(-13.639 -20.381)" fill="#263238"/>
      <path id="Trazado_615413" data-name="Trazado 615413" d="M113.806,168.32c.2.115.943-.855,2.282-1.233,1.33-.405,2.511,0,2.608-.2.053-.1-.194-.344-.7-.529a3.541,3.541,0,0,0-2.141-.035A3.448,3.448,0,0,0,114.1,167.5c-.317.432-.37.767-.273.819Z" transform="translate(-13.536 -19.769)" fill="#263238"/>
      <path id="Trazado_615414" data-name="Trazado 615414" d="M112.862,181.341a8.912,8.912,0,0,0-2.247.485c-.344.1-.678.167-.828-.035a1.811,1.811,0,0,1-.185-1.066c-.018-.925-.035-1.885-.062-2.9-.115-4.114-.344-7.445-.511-7.436s-.2,3.348-.088,7.462c.035,1.013.07,1.974.106,2.9a2.037,2.037,0,0,0,.361,1.357.871.871,0,0,0,.74.255,2.87,2.87,0,0,0,.59-.15,8.7,8.7,0,0,0,2.114-.872Z" transform="translate(-12.952 -20.27)" fill="#263238"/>
      <path id="Trazado_615415" data-name="Trazado 615415" d="M111.016,162.063c.273.3,1.489-.4,3.075-.837,1.577-.467,2.978-.529,3.048-.925.026-.185-.317-.432-.952-.564a5.227,5.227,0,0,0-2.485.132,5.324,5.324,0,0,0-2.176,1.207c-.458.449-.626.837-.5.987Z" transform="translate(-13.203 -18.992)" fill="#263238"/>
      <path id="Trazado_615416" data-name="Trazado 615416" d="M97.325,168.919c.344.2,1.11-.467,2.167-.925,1.04-.493,2.053-.617,2.132-1,.026-.185-.229-.423-.74-.537A3.4,3.4,0,0,0,97.422,168c-.255.458-.255.811-.1.907Z" transform="translate(-11.565 -19.795)" fill="#263238"/>
      <path id="Trazado_615417" data-name="Trazado 615417" d="M131.75,168.247c.115-.123,5.048-4.07,7.224,1.727s-4.1,6.784-4.167,6.617-3.057-8.352-3.057-8.352Z" transform="translate(-15.674 -19.846)" fill="#a2675f"/>
      <path id="Trazado_615418" data-name="Trazado 615418" d="M136.146,174a1.549,1.549,0,0,0,.326.044,1.073,1.073,0,0,0,.758-.264,2.679,2.679,0,0,0,.317-2.678,3.529,3.529,0,0,0-.828-1.339,1.237,1.237,0,0,0-1.048-.493.546.546,0,0,0-.493.5c-.018.194.062.291.035.317-.009.018-.159-.053-.2-.308a.744.744,0,0,1,.088-.449.792.792,0,0,1,.5-.352,1.508,1.508,0,0,1,1.392.5,3.589,3.589,0,0,1,.952,1.489,2.808,2.808,0,0,1-.537,3.057,1.169,1.169,0,0,1-.978.194c-.229-.079-.308-.194-.3-.211Z" transform="translate(-16.061 -20.097)" fill="#7a4a45"/>
      <path id="Trazado_615419" data-name="Trazado 615419" d="M90.2,158.416a3.156,3.156,0,0,1,1.233-3.242,2.812,2.812,0,0,1,2.819-4.7,2.893,2.893,0,0,1,2.661-3.894,2.439,2.439,0,0,1,3.718-2.969,4.21,4.21,0,0,1,5.859-2.987,5.367,5.367,0,0,1,7.128.185,5.11,5.11,0,0,1,5.489,1.533,3.731,3.731,0,0,1,4.784,4.344,2.761,2.761,0,0,1,2.185,3.815,2.712,2.712,0,0,1,1.8,4.564c.881-.247,1.683.731,1.762,1.648a26.065,26.065,0,0,1-.273,2.731c-.009.758.2,1.5.238,2.255a4.9,4.9,0,0,1-1.586,3.806c.07.035.15.07.22.115.449.67-.361,1.595-1.172,1.586a3.9,3.9,0,0,1-2.15-1.031,8.82,8.82,0,0,1-2.132-1.771,2.151,2.151,0,0,1-.141-2.573,3.22,3.22,0,0,1-2.784-1.612,9.628,9.628,0,0,1-1.1-3.172c-.352-1.621-.7-3.251-1.057-4.872a6.186,6.186,0,0,1-6.273-1.207,3.545,3.545,0,0,1-5.233.793,4.619,4.619,0,0,1-4.1,4.775c.714,1.092-.96,3.066-1.991,3.859a4.56,4.56,0,0,1-2.837.573s-1.515,2.009-2.793,2.026c-1.251.018-3.269-.766-3.031-2.194a5.687,5.687,0,0,1-1.26-2.388Z" transform="translate(-10.725 -16.578)" fill="#263238"/>
      <path id="Trazado_615420" data-name="Trazado 615420" d="M130.077,151.85a2.254,2.254,0,0,1-.264.969,1.217,1.217,0,0,1-.863.555,1.252,1.252,0,0,1-1.145-.52l-.211-.317-.167.344a1.684,1.684,0,0,1-1.471.9,1.639,1.639,0,0,1-1.515-1.154l-.1-.352-.256.255a1.629,1.629,0,0,1-1.163.467,1.691,1.691,0,0,1-.96-.326c-.476-.361-.581-.74-.634-.714-.035,0-.026.432.467.916a1.831,1.831,0,0,0,1.11.485,2,2,0,0,0,1.48-.52l-.352-.1a2.056,2.056,0,0,0,1.921,1.507,2.089,2.089,0,0,0,1.868-1.172l-.379.026a1.612,1.612,0,0,0,1.559.634,1.437,1.437,0,0,0,1.048-.784C130.368,152.255,130.1,151.814,130.077,151.85Z" transform="translate(-14.432 -18.064)" fill="#455a64"/>
      <path id="Trazado_615421" data-name="Trazado 615421" d="M133.3,157.44a1.686,1.686,0,0,1-.511.493,1.491,1.491,0,0,1-1.692-.018l-.194-.15-.088.238a1.671,1.671,0,0,1-1.286,1.013,1.6,1.6,0,0,1-1.621-.9l-.167-.37-.229.335a1.28,1.28,0,0,1-.211.229,1.132,1.132,0,0,1-1.313.088,1.209,1.209,0,0,1-.52-1.119l.07-.441-.379.229a1.968,1.968,0,0,1-1.454.22,1.992,1.992,0,0,1-1-.608,4.781,4.781,0,0,1-.546-.943,1.437,1.437,0,0,0,.352,1.1,2.126,2.126,0,0,0,1.11.784,2.315,2.315,0,0,0,1.753-.194l-.308-.211a1.559,1.559,0,0,0,2.537,1.454,1.382,1.382,0,0,0,.308-.335l-.405-.035a1.98,1.98,0,0,0,3.674-.194l-.282.079a1.563,1.563,0,0,0,1.2.273,1.719,1.719,0,0,0,.837-.379c.388-.344.414-.661.388-.652Z" transform="translate(-14.53 -18.527)" fill="#455a64"/>
      <path id="Trazado_615422" data-name="Trazado 615422" d="M98.61,146.467a1.485,1.485,0,0,1,.493-.634,1.313,1.313,0,0,1,1.894.238l.211.291.053-.361a2.25,2.25,0,0,1,1.357-1.718,2.188,2.188,0,0,1,2.485.661l.264.335.115-.414a2.752,2.752,0,0,1,1.586-1.762,2.679,2.679,0,0,1,3.233,1.075l.132.211.2-.15a2.638,2.638,0,0,1,3.251.15,2.692,2.692,0,0,1,.7,2.837l-.123.326.335-.07a2.923,2.923,0,0,1,2.167.388,2.835,2.835,0,0,1,1.1,1.322,4.425,4.425,0,0,1,.273,1.507c.018,0,.062-.132.088-.405a3.029,3.029,0,0,0-.159-1.181,2.982,2.982,0,0,0-1.137-1.5,3.177,3.177,0,0,0-2.414-.5l.211.255a2.992,2.992,0,0,0-4.573-3.5l.335.062a2.985,2.985,0,0,0-.872-.916,3.036,3.036,0,0,0-2.934-.335,3.165,3.165,0,0,0-1.824,2.079l.379-.079a2.514,2.514,0,0,0-4.458,1.3l.264-.07a1.579,1.579,0,0,0-1.269-.6,1.431,1.431,0,0,0-.96.405,1.377,1.377,0,0,0-.352.537c-.044.141-.044.211-.035.22Z" transform="translate(-11.731 -16.945)" fill="#455a64"/>
      <path id="Trazado_615423" data-name="Trazado 615423" d="M117.376,181.229c-.211.07.361,1.471-.432,2.951s-2.335,1.938-2.264,2.141c.018.1.441.132,1.075-.106a3.761,3.761,0,0,0,1.929-1.709,3.309,3.309,0,0,0,.273-2.44C117.772,181.458,117.473,181.176,117.376,181.229Z" transform="translate(-13.642 -21.559)" fill="#263238"/>
      <path id="Trazado_615424" data-name="Trazado 615424" d="M107.057,209.416l-6.987,19.665,1.612,21.5,4.449,37.136s16.361-5.524,17.092-4.969S115.99,245.1,115.99,245.1l5.771-31.074-.37-9.154-14.326,4.555Z" transform="translate(-11.905 -24.372)" fill="#4f6736"/>
      <path id="Trazado_615425" data-name="Trazado 615425" d="M102.576,210.03l-7.683,17.63L79.07,233.888l-16.66,5.128,2.37,11.938a4.306,4.306,0,0,0,5.348,3.321l14.035-3.762,13.075-.6,6.8-15.806-1.471-24.07Z" transform="translate(-7.425 -24.986)" fill="#4f6736"/>
      <path id="Trazado_615426" data-name="Trazado 615426" d="M68.571,237.155l1.163-1.445a7.643,7.643,0,0,1,3.313.722,9.916,9.916,0,0,1,3.2,4.8,22.573,22.573,0,0,1,0,4.07l-7.965-8.15" transform="translate(-8.123 -28.041)" fill="#a2675f"/>
      <path id="Trazado_615427" data-name="Trazado 615427" d="M51.059,227.392c0,.238,14.951,16.105,14.951,16.105l2.811,2.775H77.86L60.415,226.908l-7.524-1.277-1.841,1.762Z" transform="translate(-6.073 -26.842)" fill="#263238"/>
      <path id="Trazado_615428" data-name="Trazado 615428" d="M118.744,260.362s-.132-.185-.344-.555c-.229-.414-.52-.96-.89-1.639-.758-1.436-1.833-3.515-3.075-6.132a93.093,93.093,0,0,1-3.965-9.383,27.437,27.437,0,0,1-.819-2.846,12.353,12.353,0,0,1-.238-1.533c-.018-.511-.035-1.031-.035-1.551-.026-2.088.026-4.247.106-6.458.106-2.793.247-5.507.414-8.079v-.132l.132-.053c1.612-.7,3.154-1.383,4.643-2.035l.062.4c-1.233-.159-2.423-.317-3.568-.458l-.291-.035.15-.255c2.282-3.938,4.194-7.224,5.559-9.568.661-1.11,1.189-2,1.577-2.661.176-.282.317-.5.432-.7a.932.932,0,0,1,.167-.229.846.846,0,0,1-.115.255c-.106.194-.229.432-.379.722-.37.67-.863,1.577-1.489,2.714-1.33,2.37-3.189,5.683-5.418,9.647l-.141-.291c1.137.141,2.335.282,3.568.432l.749.088-.687.308q-2.22.991-4.625,2.062l.132-.185c-.159,2.564-.3,5.277-.4,8.061-.079,2.2-.141,4.361-.115,6.432,0,.52.018,1.031.035,1.542a11.477,11.477,0,0,0,.22,1.463,25.7,25.7,0,0,0,.793,2.8c1.242,3.6,2.661,6.749,3.859,9.383s2.238,4.731,2.943,6.185c.335.7.608,1.251.811,1.674a4.474,4.474,0,0,1,.264.6Z" transform="translate(-13.011 -24.561)" fill="#263238"/>
      <path id="Trazado_615429" data-name="Trazado 615429" d="M60.791,237.35s-2.264,1.639-2.211,2.573a2.541,2.541,0,0,0,1.1,2.1c.52.176,2.1.987,2.1.987s-1.392,1.339-.987,2.731a2.563,2.563,0,0,0,1.339,1.744,8.62,8.62,0,0,0,.581,2.846c.52,1.048,2.211,1.392,2.211,1.392a17.405,17.405,0,0,0,1.744,2.837,4.827,4.827,0,0,0,2.44,1.233,5.858,5.858,0,0,0,3.2-.52,4.357,4.357,0,0,0,2.388-4.07s5-2.5,5.057-3.78-.52-1.683-.52-1.683l-2.5.467s-.352-1.339-1.1-1.454-9.885,2.1-9.885,2.1,6.22-.987,6.4-2.211.229-2.264-.7-2.5-7.559.476-7.559.476l-.344-1.172s1.8.062,1.8-1.515S64.351,238,64.351,238L60.8,237.35Z" transform="translate(-6.969 -28.236)" fill="#a2675f"/>
      <path id="Trazado_615430" data-name="Trazado 615430" d="M119.478,204.558l.766,6.07-4.7,26.4,4.766,22.792,24.7,7.3,9.718-4.185-3.313-63.99-8.828-6.2L139.2,190.47l-12.731,19.259Z" transform="translate(-13.745 -22.659)" fill="#fafafa"/>
      <path id="Trazado_615431" data-name="Trazado 615431" d="M144.962,192.51l6.176,2.758,21.867,2.943,11.8,62.043,1.48,7.128L208.9,301.221a3.215,3.215,0,0,1-1.084,4.581l-18.528,10.581a3.142,3.142,0,0,1-4.044-1.057L161.7,279.856l-11.674-14.934s-6.987-21.136-7.9-30.14a127.937,127.937,0,0,1,0-23.709c.564-5.41,2.828-18.563,2.828-18.563Z" transform="translate(-16.842 -22.902)" fill="#4f6736"/>
      <path id="Trazado_615432" data-name="Trazado 615432" d="M174.329,198.965a10.69,10.69,0,0,1,5.524,7.462c1.392,7.365,5.586,20.211,7.163,33.929,2.2,19.189-2.96,25.11-5.392,28.422-2.388,3.242-17.515,10.352-17.515,10.352l-11.339-15.11,12.555-10.29-1.1-26.643a19.1,19.1,0,0,1-2.2-15.066c2.2-9,8.634-13.594,12.308-13.048Z" transform="translate(-18.174 -23.666)" fill="#4f6736"/>
      <g id="Grupo_1016172" data-name="Grupo 1016172" transform="translate(145.935 236.84)" opacity="0.3">
        <path id="Trazado_615433" data-name="Trazado 615433" d="M187.56,268.82c-1.718,4.661-3.683,8.581-7.683,10.8-4.255,2.361-10.194,5.691-14.238,7.824l2.969,4.6c4.643-.714,13.207-6.123,16-9.9a18.02,18.02,0,0,0,2.96-13.321Z" transform="translate(-165.64 -268.82)"/>
      </g>
      <path id="Trazado_615434" data-name="Trazado 615434" d="M163.876,229.171s.035.132.079.4c.044.282.115.678.194,1.172.167,1.057.4,2.581.7,4.529.59,3.956,1.445,9.656,2.5,16.7l.018.088-.07.062c-4.176,3.683-9.066,7.991-14.44,12.731l.026-.282c3.489,4.643,7.33,9.744,11.357,15.1l-.282-.07c3.771-1.9,7.665-3.956,11.533-6.247,1.092-.661,2.185-1.322,3.225-2.035a19.421,19.421,0,0,0,2.925-2.291,22.668,22.668,0,0,0,3.586-6.308,37.169,37.169,0,0,0,2.114-13.63,88.91,88.91,0,0,0-1.2-12.528c-.608-3.9-1.313-7.515-2.009-10.81-1.392-6.581-2.722-11.859-3.656-15.5-.476-1.8-.846-3.207-1.1-4.185-.123-.467-.22-.828-.282-1.092-.062-.247-.088-.37-.088-.379s.053.123.132.361c.079.264.194.617.326,1.075.282.952.687,2.352,1.181,4.167,1,3.63,2.37,8.9,3.806,15.471.714,3.286,1.436,6.907,2.062,10.819a89.067,89.067,0,0,1,1.251,12.581,37.394,37.394,0,0,1-2.114,13.788,22.717,22.717,0,0,1-3.674,6.458,19.373,19.373,0,0,1-3,2.361c-1.057.714-2.15,1.383-3.251,2.044-3.885,2.291-7.78,4.352-11.568,6.255l-.167.088-.115-.15c-4.018-5.357-7.841-10.467-11.321-15.119l-.115-.15.141-.123,14.493-12.669-.053.15c-1-7.048-1.8-12.757-2.361-16.722-.264-1.956-.476-3.48-.617-4.537-.062-.5-.115-.9-.15-1.181a3.435,3.435,0,0,1-.035-.405Z" transform="translate(-18.135 -24.339)" fill="#263238"/>
      <path id="Trazado_615435" data-name="Trazado 615435" d="M147.288,250.871s0-.211.044-.617c.062-.449.132-1.022.229-1.744.22-1.568.537-3.744.916-6.405.775-5.41,1.974-12.863,3.145-21.118.546-4,1.066-7.806,1.533-11.277l.132.229-3.736-1.436-.361-.141.326-.211c1.339-.872,2.6-1.683,3.753-2.432l-.079.167c-.449-3.119-.811-5.665-1.075-7.489-.115-.846-.2-1.533-.264-2.044a4.333,4.333,0,0,1-.062-.722,3.934,3.934,0,0,1,.159.7c.088.511.211,1.189.361,2.035.3,1.824.714,4.361,1.225,7.462l.018.106-.1.062c-1.145.767-2.4,1.586-3.727,2.476l-.035-.352c1.189.449,2.44.916,3.744,1.41l.159.062-.026.167c-.467,3.471-.969,7.286-1.507,11.286-1.172,8.255-2.432,15.709-3.277,21.11-.441,2.661-.8,4.828-1.066,6.388l-.308,1.736a3.138,3.138,0,0,1-.141.6Z" transform="translate(-17.52 -23.273)" fill="#263238"/>
      <path id="Trazado_615436" data-name="Trazado 615436" d="M172.244,199.918c.053.07-1.066.846-2.573,2.405a22.538,22.538,0,0,0-2.388,2.96,25.184,25.184,0,0,0-2.185,4.1,24.594,24.594,0,0,0-1.3,4.458,22.424,22.424,0,0,0-.37,3.78c-.018,2.167.238,3.507.15,3.524a3.809,3.809,0,0,1-.22-.925,9.022,9.022,0,0,1-.159-1.11,14.217,14.217,0,0,1-.1-1.48,20.121,20.121,0,0,1,.282-3.859,22.93,22.93,0,0,1,1.3-4.564,23.24,23.24,0,0,1,2.264-4.167,20.271,20.271,0,0,1,2.5-2.951c.379-.4.775-.7,1.1-1a7.491,7.491,0,0,1,.89-.678,3.506,3.506,0,0,1,.811-.5Z" transform="translate(-19.402 -23.782)" fill="#263238"/>
      <path id="Trazado_615437" data-name="Trazado 615437" d="M101.6,252.716c-.123.009-.529-4.264-.907-9.55s-.573-9.577-.449-9.586.529,4.264.907,9.55S101.725,252.707,101.6,252.716Z" transform="translate(-11.921 -27.788)" fill="#263238"/>
      <path id="Trazado_615438" data-name="Trazado 615438" d="M186.33,298.2l3.4,6.925,15.709-10.053-5.445-6.158Z" transform="translate(-22.167 -34.37)" fill="#4f6736"/>
      <path id="Trazado_615439" data-name="Trazado 615439" d="M186.329,298.158s.308-.256.943-.7c.7-.485,1.621-1.145,2.766-1.956,2.467-1.7,5.868-4.053,9.832-6.8l.159-.106.123.141c1.683,1.9,3.524,3.973,5.454,6.15l.176.2-.229.141c-.22.141-.449.291-.687.441-5.841,3.709-11.136,7.075-15.057,9.559l-.159.1-.079-.167c-1-2.132-1.824-3.877-2.423-5.154-.255-.564-.467-1.022-.634-1.383a4.585,4.585,0,0,1-.194-.467,3.109,3.109,0,0,1,.282.493c.185.361.423.819.722,1.374.626,1.233,1.489,2.925,2.537,5l-.238-.062c3.9-2.52,9.172-5.921,14.986-9.665l.687-.441-.044.344c-1.921-2.176-3.753-4.264-5.427-6.167l.282.035c-3.973,2.643-7.365,4.916-9.832,6.564-1.189.775-2.159,1.41-2.872,1.877-.308.194-.573.361-.784.5a2.585,2.585,0,0,1-.291.167Z" transform="translate(-22.165 -34.332)" fill="#263238"/>
      <g id="Grupo_1016173" data-name="Grupo 1016173" transform="translate(164.322 262.029)" opacity="0.3">
        <path id="Trazado_615440" data-name="Trazado 615440" d="M186.51,299.516c.062.132,3.489,10.643,3.489,10.643l14.652-10.405-1.26-2.344-13.638,8.731-3.242-6.617Z" transform="translate(-186.51 -297.41)"/>
      </g>
      <g id="Grupo_1016174" data-name="Grupo 1016174" transform="translate(130.508 175.256)" opacity="0.3">
        <path id="Trazado_615441" data-name="Trazado 615441" d="M152.359,198.92l2.6,8.59-2.6,1.2,3.471,1.709s-5.48,29.955-6.167,32.686a8.619,8.619,0,0,1-1.533,3.612l5.348-36.589-3.744-1.418,3.744-2.449-1.128-7.33Z" transform="translate(-148.13 -198.92)"/>
      </g>
      <path id="Trazado_615442" data-name="Trazado 615442" d="M86.6,250.5a24,24,0,0,0-1-6.079A24.6,24.6,0,0,0,82.7,238.99a5.332,5.332,0,0,1,1.269,1.339,14.35,14.35,0,0,1,2.079,3.938,14.042,14.042,0,0,1,.749,4.388,5.151,5.151,0,0,1-.194,1.833Z" transform="translate(-9.838 -28.431)" fill="#263238"/>
      <g id="Grupo_1016175" data-name="Grupo 1016175" transform="translate(86.703 204.947)" opacity="0.3">
        <path id="Trazado_615443" data-name="Trazado 615443" d="M99.934,232.62c-2.617,6.511-1.674,13.665,1.383,19.982C100.842,245.333,100.569,239.668,99.934,232.62Z" transform="translate(-98.41 -232.62)"/>
      </g>
      <path id="Trazado_615444" data-name="Trazado 615444" d="M141.5,198.67a7.965,7.965,0,0,1-.467.863c-.37.626-.828,1.383-1.366,2.282-1.137,1.938-2.661,4.634-4.167,7.709-1.022,2.07-1.894,4.044-2.6,5.727l-.106.247-.2-.159a30.8,30.8,0,0,1-3.277-3.022,7.606,7.606,0,0,1-1.075-1.3,11.48,11.48,0,0,1,1.233,1.145,41.79,41.79,0,0,0,3.357,2.872l-.308.079c.678-1.7,1.533-3.7,2.555-5.78a80.11,80.11,0,0,1,4.3-7.683c.608-.952,1.119-1.7,1.489-2.211a3.928,3.928,0,0,1,.617-.766Z" transform="translate(-15.256 -23.634)" fill="#263238"/>
      <path id="Trazado_615445" data-name="Trazado 615445" d="M126.166,212.48a25.01,25.01,0,0,1-1.471,4.484l-.115.308-.247-.22-.115-.1a14.682,14.682,0,0,1-3.26-3.63c.106-.088,1.551,1.533,3.568,3.286l.115.1-.361.088a24.814,24.814,0,0,1,1.894-4.317Z" transform="translate(-14.389 -25.277)" fill="#263238"/>
      <path id="Trazado_615446" data-name="Trazado 615446" d="M129.595,257.877s-.035-.15-.07-.432q-.04-.5-.106-1.242c-.079-1.154-.176-2.7-.308-4.564-.238-3.859-.511-9.189-.749-15.083s-.361-11.233-.361-15.1c0-1.929.026-3.5.062-4.581.026-.493.044-.907.062-1.242a1.422,1.422,0,0,1,.053-.432,1.516,1.516,0,0,1,.035.432c0,.335.018.749.026,1.242.018,1.154.053,2.7.088,4.573.079,3.859.264,9.2.493,15.092.238,5.859.449,11.163.608,15.083.062,1.877.123,3.427.159,4.573q.013.74.026,1.242c0,.282,0,.432-.026.432Z" transform="translate(-15.227 -25.601)" fill="#263238"/>
      <path id="Trazado_615447" data-name="Trazado 615447" d="M68.724,398.475l2.282,21.515s-21.1,9.542-21.066,13.559l41.876-2.925L89.639,396.96l-20.907,1.515Z" transform="translate(-5.941 -47.224)" fill="#4f6736"/>
      <path id="Trazado_615448" data-name="Trazado 615448" d="M88.138,420a1.716,1.716,0,0,1,1.322,1.868,1.652,1.652,0,0,1-1.841,1.322,1.8,1.8,0,0,1-1.383-1.982,1.71,1.71,0,0,1,2.07-1.163" transform="translate(-10.254 -49.96)" fill="#d6d6d6"/>
      <path id="Trazado_615449" data-name="Trazado 615449" d="M91.9,435.73l-.211-3.26-40.255,3.066s-1.806.943-1.507,2.238l41.964-2.044Z" transform="translate(-5.935 -51.448)" fill="#d6d6d6"/>
      <path id="Trazado_615450" data-name="Trazado 615450" d="M73.06,422.878c.018.2,1.048.229,2.106.811,1.066.564,1.648,1.41,1.833,1.313.185-.053-.2-1.251-1.489-1.938s-2.5-.37-2.44-.185Z" transform="translate(-8.692 -50.279)" fill="#263238"/>
      <path id="Trazado_615451" data-name="Trazado 615451" d="M68.22,425.306c-.035.2.881.485,1.63,1.3.775.793,1.022,1.718,1.225,1.692.194.018.256-1.189-.7-2.185S68.211,425.113,68.22,425.306Z" transform="translate(-8.116 -50.584)" fill="#263238"/>
      <path id="Trazado_615452" data-name="Trazado 615452" d="M65.556,431.018c.185.026.405-1.013-.2-2.1s-1.595-1.463-1.665-1.286c-.106.176.555.731,1.04,1.63C65.23,430.145,65.345,431.009,65.556,431.018Z" transform="translate(-7.575 -50.868)" fill="#263238"/>
      <path id="Trazado_615453" data-name="Trazado 615453" d="M73.089,417.161c.1.176,1.013-.167,2.176-.167,1.163-.026,2.088.3,2.185.115.106-.159-.819-.855-2.194-.828C73.89,416.289,72.974,417.011,73.089,417.161Z" transform="translate(-8.694 -49.522)" fill="#263238"/>
      <path id="Trazado_615454" data-name="Trazado 615454" d="M57.479,299.4l-19.392,9.586S21.823,292.491,18.07,293.918L35.312,332.19l30.827-13.7Z" transform="translate(-2.15 -34.955)" fill="#4f6736"/>
      <path id="Trazado_615455" data-name="Trazado 615455" d="M48.289,323.424a1.715,1.715,0,0,1-1.3,1.885,1.641,1.641,0,0,1-1.877-1.269,1.809,1.809,0,0,1,1.383-1.991c.837-.07,1.868.7,1.806,1.533" transform="translate(-5.365 -38.312)" fill="#d6d6d6"/>
      <path id="Trazado_615456" data-name="Trazado 615456" d="M34.518,332.562,37.5,331.24l-16.819-36.7s-1.507-1.366-2.625-.634l16.449,38.66Z" transform="translate(-2.148 -34.939)" fill="#d6d6d6"/>
      <path id="Trazado_615457" data-name="Trazado 615457" d="M40.6,310.23c-.185.088.15,1.066-.035,2.255-.159,1.2-.749,2.035-.6,2.176.115.159,1.1-.626,1.3-2.07s-.52-2.476-.67-2.352Z" transform="translate(-4.752 -36.906)" fill="#263238"/>
      <path id="Trazado_615458" data-name="Trazado 615458" d="M36.513,306.52c-.2.035-.15,1-.661,1.982-.476,1-1.26,1.551-1.163,1.736.053.185,1.2-.176,1.806-1.418S36.689,306.449,36.513,306.52Z" transform="translate(-4.126 -36.464)" fill="#263238"/>
      <path id="Trazado_615459" data-name="Trazado 615459" d="M30.138,305.995c.035.185,1.084.026,1.894-.916s.819-2,.626-2.009c-.2-.035-.493.775-1.172,1.542-.652.775-1.418,1.189-1.357,1.383Z" transform="translate(-3.584 -36.054)" fill="#263238"/>
      <path id="Trazado_615460" data-name="Trazado 615460" d="M45.988,308.3c-.132.159.511.9.916,1.982.423,1.084.441,2.062.643,2.088.185.044.511-1.066.018-2.344S46.093,308.138,45.988,308.3Z" transform="translate(-5.469 -36.673)" fill="#263238"/>
      <path id="Trazado_615461" data-name="Trazado 615461" d="M72.388,312.1a11.285,11.285,0,0,0-8.361,8.872c-1.418,7.454,3.718,82.518,3.718,82.518l26.343-2.114L92.475,350.8,91.823,340.6l2.255-1.727,46.3-8.15-7.048-19.145-7.744-13.471-35.47,8.846L72.37,312.1Z" transform="translate(-7.587 -35.464)" fill="#263238"/>
      <path id="Trazado_615462" data-name="Trazado 615462" d="M157.365,294.993s-19.154-27.691-24.757-31.717c-4.617-3.322-11.559-3.322-15.85-1.392s-71.408,35.2-71.408,35.2l9.841,24.634,63.84-22.123,9.515,14.934,8.854,11.735,24.88.194c1.181,0,6.52-10.555,6.52-10.555l-11.445-20.916Z" transform="translate(-5.395 -30.999)" fill="#263238"/>
      <path id="Trazado_615463" data-name="Trazado 615463" d="M63.779,327.532s-.009-.088-.009-.256v-.758c0-.344.018-.758.026-1.242.044-.485.123-1.048.194-1.683a18.793,18.793,0,0,1,.414-2.079,11.594,11.594,0,0,1,.361-1.163,8.764,8.764,0,0,1,.476-1.225A11.911,11.911,0,0,1,69,314.3a9.441,9.441,0,0,1,3.242-1.586c1.225-.211,2.493-.423,3.815-.643,2.634-.441,5.445-.907,8.4-1.4,5.921-.978,12.423-2.062,19.251-3.189,6.176-1.013,12.088-1.982,17.48-2.863l.141-.026.079.115c5.119,7.991,9.277,14.942,12.775,19.489,1.7,2.273,3.048,4.088,4,5.366.449.6.811,1.075,1.066,1.427l.273.37q.093.132.079.132a1.068,1.068,0,0,1-.115-.115c-.079-.1-.176-.211-.3-.352-.273-.335-.652-.8-1.119-1.383-.969-1.216-2.379-3-4.1-5.3-3.559-4.511-7.788-11.453-12.925-19.418l.211.1c-5.392.89-11.3,1.868-17.48,2.89l-19.251,3.154c-2.96.476-5.771.934-8.405,1.366-1.313.211-2.581.423-3.8.617a9.047,9.047,0,0,0-3.128,1.507,11.7,11.7,0,0,0-3.718,4.67,7.585,7.585,0,0,0-.485,1.2,10.633,10.633,0,0,0-.37,1.137,20.941,20.941,0,0,0-.449,2.053q-.132.938-.238,1.665c-.026.476-.053.89-.07,1.233-.026.308-.044.564-.053.758a1.2,1.2,0,0,1-.035.256Z" transform="translate(-7.586 -36.235)" fill="#455a64"/>
      <path id="Trazado_615464" data-name="Trazado 615464" d="M138.15,285.47a6.066,6.066,0,0,1,.1.793,13.47,13.47,0,0,1-.044,2.176,17.98,17.98,0,0,1-.59,3.189,21.376,21.376,0,0,1-1.463,3.692,19.756,19.756,0,0,1-2.2,3.3,18.778,18.778,0,0,1-2.282,2.3A13.983,13.983,0,0,1,129.9,302.2a2.648,2.648,0,0,1-.714.37c-.044-.07.916-.67,2.264-1.885a20.253,20.253,0,0,0,2.167-2.317,20.232,20.232,0,0,0,3.586-6.846,19.466,19.466,0,0,0,.67-3.1c.238-1.8.185-2.934.264-2.934Z" transform="translate(-15.369 -33.961)" fill="#455a64"/>
      <path id="Trazado_615465" data-name="Trazado 615465" d="M372.413,339.331l-115.292-.07a25.11,25.11,0,0,1-25.1-25.118l.053-289.033A25.127,25.127,0,0,1,257.209,0L372.5.07a25.11,25.11,0,0,1,25.1,25.118l-.053,289.033a25.108,25.108,0,0,1-25.127,25.11Z" transform="translate(-27.602)" fill="#263238"/>
      <path id="Trazado_615466" data-name="Trazado 615466" d="M373.412,11.672H351.06a5.533,5.533,0,0,0-5.427,5.656v4.053a5.554,5.554,0,0,1-5.427,5.674l-43.567-.026a5.56,5.56,0,0,1-5.427-5.674V17.3a5.554,5.554,0,0,0-5.427-5.674h-7.859l-19.568-.018A17.586,17.586,0,0,0,240.763,29.2l-.053,282.116a17.6,17.6,0,0,0,17.577,17.594l115.054.07a17.586,17.586,0,0,0,17.594-17.585l.053-282.116A17.6,17.6,0,0,0,373.412,11.68Z" transform="translate(-28.636 -1.381)" fill="#fff"/>
      <path id="Trazado_615467" data-name="Trazado 615467" d="M390.988,29.266a17.6,17.6,0,0,0-17.577-17.594H351.06a5.533,5.533,0,0,0-5.427,5.656v4.053a5.554,5.554,0,0,1-5.427,5.674l-43.567-.026a5.56,5.56,0,0,1-5.427-5.674V17.3a5.554,5.554,0,0,0-5.427-5.674h-7.859l-19.568-.018A17.586,17.586,0,0,0,240.763,29.2l-.053,26.977H391V29.266Z" transform="translate(-28.636 -1.381)" fill="#c4c1c1"/>
      <path id="Trazado_615468" data-name="Trazado 615468" d="M395.775,42.885a57.825,57.825,0,0,1-6.018.2,57.942,57.942,0,0,1-6.017-.106,117.513,117.513,0,0,1,12.035-.1Z" transform="translate(-45.651 -5.088)" fill="#263238"/>
      <path id="Trazado_615469" data-name="Trazado 615469" d="M395.8,46.375a57.823,57.823,0,0,1-6.017.2,57.942,57.942,0,0,1-6.017-.106,117.516,117.516,0,0,1,12.035-.1Z" transform="translate(-45.655 -5.503)" fill="#263238"/>
      <path id="Trazado_615470" data-name="Trazado 615470" d="M395.835,49.875a57.822,57.822,0,0,1-6.017.2,57.942,57.942,0,0,1-6.018-.106,117.516,117.516,0,0,1,12.035-.1Z" transform="translate(-45.658 -5.92)" fill="#263238"/>
      <path id="Trazado_615471" data-name="Trazado 615471" d="M278.579,283.312l.608-1.278a5.922,5.922,0,0,0,3.78,1.33c1.982,0,2.828-.767,2.828-1.771,0-2.8-6.943-1.031-6.943-5.286,0-1.771,1.374-3.277,4.388-3.277a6.776,6.776,0,0,1,3.683,1.013l-.537,1.313a5.96,5.96,0,0,0-3.145-.934c-1.947,0-2.784.819-2.784,1.815,0,2.8,6.943,1.048,6.943,5.26,0,1.753-1.41,3.26-4.44,3.26a6.828,6.828,0,0,1-4.388-1.436Z" transform="translate(-33.14 -32.481)" fill="#263238"/>
      <path id="Trazado_615472" data-name="Trazado 615472" d="M290.14,280.663a4.332,4.332,0,0,1,4.581-4.423,3.851,3.851,0,0,1,3.533,1.85l-1.2.766a2.7,2.7,0,0,0-2.361-1.242,3.058,3.058,0,0,0,0,6.114,2.728,2.728,0,0,0,2.361-1.242l1.2.758a3.874,3.874,0,0,1-3.533,1.868,4.346,4.346,0,0,1-4.581-4.44Z" transform="translate(-34.516 -32.863)" fill="#263238"/>
      <path id="Trazado_615473" data-name="Trazado 615473" d="M308.442,279.765v5.242h-1.489v-1.145a3.216,3.216,0,0,1-2.846,1.242c-1.965,0-3.207-1.048-3.207-2.555,0-1.392.9-2.537,3.489-2.537h2.493V279.7c0-1.33-.767-2.1-2.326-2.1a4.384,4.384,0,0,0-2.749.934l-.652-1.181a5.761,5.761,0,0,1,3.586-1.11c2.37,0,3.718,1.145,3.718,3.524Zm-1.568,2.59V281.14h-2.423c-1.559,0-2,.608-2,1.339,0,.872.722,1.41,1.912,1.41a2.493,2.493,0,0,0,2.5-1.542Z" transform="translate(-35.796 -32.864)" fill="#263238"/>
      <path id="Trazado_615474" data-name="Trazado 615474" d="M321.009,280.012v5h-1.568V280.2c0-1.7-.855-2.537-2.344-2.537a2.573,2.573,0,0,0-2.749,2.881v4.467H312.78v-8.678h1.507v1.313a3.725,3.725,0,0,1,3.128-1.392c2.114,0,3.6,1.216,3.6,3.762Z" transform="translate(-37.21 -32.864)" fill="#263238"/>
      <path id="Trazado_615475" data-name="Trazado 615475" d="M333.669,280.012v5H332.1V280.2c0-1.7-.855-2.537-2.344-2.537a2.573,2.573,0,0,0-2.749,2.881v4.467H325.44v-8.678h1.507v1.313a3.725,3.725,0,0,1,3.128-1.392c2.114,0,3.6,1.216,3.6,3.762Z" transform="translate(-38.716 -32.864)" fill="#263238"/>
      <path id="Trazado_615476" data-name="Trazado 615476" d="M337.77,273.151a1.035,1.035,0,0,1,1.066-1.031,1.017,1.017,0,0,1,1.066,1,1.028,1.028,0,0,1-1.066,1.048A1.01,1.01,0,0,1,337.77,273.151Zm.282,2.687h1.568v8.678h-1.568Z" transform="translate(-40.182 -32.373)" fill="#263238"/>
      <path id="Trazado_615477" data-name="Trazado 615477" d="M351.509,280.012v5h-1.568V280.2c0-1.7-.855-2.537-2.344-2.537a2.573,2.573,0,0,0-2.749,2.881v4.467H343.28v-8.678h1.507v1.313a3.725,3.725,0,0,1,3.128-1.392c2.115,0,3.6,1.216,3.6,3.762Z" transform="translate(-40.838 -32.864)" fill="#263238"/>
      <path id="Trazado_615478" data-name="Trazado 615478" d="M364.171,276.316v7.5c0,3.066-1.559,4.449-4.5,4.449a6.411,6.411,0,0,1-4.141-1.3l.758-1.216a5.293,5.293,0,0,0,3.339,1.128c2.044,0,2.978-.952,2.978-2.916v-.687a3.984,3.984,0,0,1-3.128,1.339,4.207,4.207,0,1,1,0-8.405,3.942,3.942,0,0,1,3.207,1.427V276.3h1.489Zm-1.542,4.114a2.991,2.991,0,1,0-2.978,2.837A2.773,2.773,0,0,0,362.629,280.43Z" transform="translate(-42.241 -32.859)" fill="#263238"/>
      <path id="Trazado_615479" data-name="Trazado 615479" d="M367.97,284.86a1.094,1.094,0,0,1,1.11-1.11,1.073,1.073,0,0,1,1.084,1.11,1.093,1.093,0,0,1-1.084,1.128A1.115,1.115,0,0,1,367.97,284.86Z" transform="translate(-43.775 -33.756)" fill="#263238"/>
      <path id="Trazado_615480" data-name="Trazado 615480" d="M372.19,284.86a1.094,1.094,0,0,1,1.11-1.11,1.073,1.073,0,0,1,1.084,1.11,1.093,1.093,0,0,1-1.084,1.128A1.115,1.115,0,0,1,372.19,284.86Z" transform="translate(-44.277 -33.756)" fill="#263238"/>
      <path id="Trazado_615481" data-name="Trazado 615481" d="M376.4,284.86a1.094,1.094,0,0,1,1.11-1.11,1.073,1.073,0,0,1,1.084,1.11,1.093,1.093,0,0,1-1.084,1.128A1.115,1.115,0,0,1,376.4,284.86Z" transform="translate(-44.778 -33.756)" fill="#263238"/>
      <path id="Trazado_615482" data-name="Trazado 615482" d="M268.61,182.6v5.454h5.454V177.15H268.61Z" transform="translate(-31.955 -21.074)" fill="#263238"/>
      <path id="Trazado_615483" data-name="Trazado 615483" d="M274.064,146.19H268.61v5.454h5.454Z" transform="translate(-31.955 -17.391)" fill="#263238"/>
      <path id="Trazado_615484" data-name="Trazado 615484" d="M312.314,214.36H306.86v5.454h5.454Z" transform="translate(-36.505 -25.501)" fill="#263238"/>
      <path id="Trazado_615485" data-name="Trazado 615485" d="M274.064,157.834v5.454H268.61v5.454h5.454V174.2h10.907v5.454h5.454V174.2h5.454V163.287h-5.454v5.454H279.517V152.38h-5.454Z" transform="translate(-31.955 -18.128)" fill="#263238"/>
      <path id="Trazado_615486" data-name="Trazado 615486" d="M286.444,146.19H280.99v5.454H291.9V146.19Z" transform="translate(-33.428 -17.391)" fill="#263238"/>
      <path id="Trazado_615487" data-name="Trazado 615487" d="M314.644,195.224h2.934V189.77H311.71v5.454Z" transform="translate(-37.082 -22.576)" fill="#263238"/>
      <path id="Trazado_615488" data-name="Trazado 615488" d="M298.824,152.38H293.37v5.454h5.454Z" transform="translate(-34.901 -18.128)" fill="#263238"/>
      <path id="Trazado_615489" data-name="Trazado 615489" d="M342.164,177.15H336.71V182.6h5.454Z" transform="translate(-40.056 -21.074)" fill="#263238"/>
      <path id="Trazado_615490" data-name="Trazado 615490" d="M348.354,109.04H342.9v5.454h5.454Z" transform="translate(-40.793 -12.972)" fill="#263238"/>
      <path id="Trazado_615491" data-name="Trazado 615491" d="M310.467,156.361v-5.454h5.462v-5.454h-5.462V140h-5.454v5.454H299.56v5.454h5.454V172.73h5.454V161.814h5.462v-5.454Z" transform="translate(-35.637 -16.655)" fill="#263238"/>
      <path id="Trazado_615492" data-name="Trazado 615492" d="M342.164,219.744h5.454V214.29H336.71v5.454Z" transform="translate(-40.056 -25.493)" fill="#263238"/>
      <path id="Trazado_615493" data-name="Trazado 615493" d="M335.974,109.04H330.52v5.454h5.454Z" transform="translate(-39.32 -12.972)" fill="#263238"/>
      <path id="Trazado_615494" data-name="Trazado 615494" d="M332.951,157.1v-5.454H327.5V146.19h-5.454V157.1H316.59v5.454H327.5V157.1Z" transform="translate(-37.663 -17.391)" fill="#263238"/>
      <path id="Trazado_615495" data-name="Trazado 615495" d="M369.364,146.19H363.91v5.454h5.454Z" transform="translate(-43.292 -17.391)" fill="#263238"/>
      <path id="Trazado_615496" data-name="Trazado 615496" d="M305.194,177.15H299.74V182.6h5.454Z" transform="translate(-35.658 -21.074)" fill="#263238"/>
      <path id="Trazado_615497" data-name="Trazado 615497" d="M329.047,137.053V131.6H334.5v-5.454h10.907v-5.462h-5.454V115.23H334.5v5.454h-5.454v5.462h-5.454V131.6H318.14v5.454h10.907Z" transform="translate(-37.847 -13.708)" fill="#263238"/>
      <path id="Trazado_615498" data-name="Trazado 615498" d="M329.047,181.866v-5.454H334.5V170.95H323.594v5.462H318.14v5.454h10.907Z" transform="translate(-37.847 -20.337)" fill="#263238"/>
      <path id="Trazado_615499" data-name="Trazado 615499" d="M344.671,206.627v-5.454H333.763V195.72H328.31v5.454h-5.454v5.454H311.94v5.454h16.37v-5.454h5.454v5.454h5.454v-5.454Z" transform="translate(-37.11 -23.284)" fill="#263238"/>
      <path id="Trazado_615500" data-name="Trazado 615500" d="M322.12,114.494V109.04H311.2v5.454H305.75v5.454h10.916v-5.454Z" transform="translate(-36.373 -12.972)" fill="#263238"/>
      <path id="Trazado_615501" data-name="Trazado 615501" d="M323.594,121.42H318.14v5.454h5.454Z" transform="translate(-37.847 -14.445)" fill="#263238"/>
      <path id="Trazado_615502" data-name="Trazado 615502" d="M339.064,144.717H333.61v16.361h10.916v-5.454h-5.462v-5.454h5.462v-5.454h5.454v-5.454h-5.454V133.81h-5.462v10.907Z" transform="translate(-39.688 -15.919)" fill="#263238"/>
      <path id="Trazado_615503" data-name="Trazado 615503" d="M317.394,127.62H311.94v5.454h5.454Z" transform="translate(-37.11 -15.182)" fill="#263238"/>
      <path id="Trazado_615504" data-name="Trazado 615504" d="M336.71,188.794v5.454h10.907v-5.454h10.907V183.34H342.164v5.454Z" transform="translate(-40.056 -21.811)" fill="#263238"/>
      <path id="Trazado_615505" data-name="Trazado 615505" d="M369.364,164.76H363.91v5.454h5.454Z" transform="translate(-43.292 -19.601)" fill="#263238"/>
      <path id="Trazado_615506" data-name="Trazado 615506" d="M348.354,170.95H342.9V176.4h5.454Z" transform="translate(-40.793 -20.337)" fill="#263238"/>
      <path id="Trazado_615507" data-name="Trazado 615507" d="M363.1,152.38H352.19v5.454h5.454v5.454H363.1V152.38Z" transform="translate(-41.898 -18.128)" fill="#263238"/>
      <path id="Trazado_615508" data-name="Trazado 615508" d="M360.734,170.95H355.28V176.4h5.454Z" transform="translate(-42.266 -20.337)" fill="#263238"/>
      <path id="Trazado_615509" data-name="Trazado 615509" d="M291.9,205.259h16.37V183.33H286.338v5.462H280.99v5.454h5.348V199.7H280.99v5.454h5.348v.106h.106v5.357H280.99v10.907h5.454v-5.454H291.9Zm12.167-17.726v13.638H290.426V187.533Z" transform="translate(-33.428 -21.81)" fill="#263238"/>
      <path id="Trazado_615510" data-name="Trazado 615510" d="M372.386,182.6h5.454V177.15H361.47V182.6h10.916Z" transform="translate(-43.002 -21.074)" fill="#263238"/>
      <path id="Trazado_615511" data-name="Trazado 615511" d="M373.86,157.1h5.454V146.19H373.86V157.1Z" transform="translate(-44.476 -17.391)" fill="#263238"/>
      <path id="Trazado_615512" data-name="Trazado 615512" d="M323.824,189.77H318.37v10.907h5.454V189.77Z" transform="translate(-37.875 -22.576)" fill="#263238"/>
      <path id="Trazado_615513" data-name="Trazado 615513" d="M385.5,183.34H380.05v5.454H385.5Z" transform="translate(-45.212 -21.811)" fill="#263238"/>
      <path id="Trazado_615514" data-name="Trazado 615514" d="M385.5,170.214V164.76H380.05v10.916H385.5Z" transform="translate(-45.212 -19.601)" fill="#263238"/>
      <path id="Trazado_615515" data-name="Trazado 615515" d="M274.064,214.29H268.61V225.2h5.454V214.29Z" transform="translate(-31.955 -25.493)" fill="#263238"/>
      <path id="Trazado_615516" data-name="Trazado 615516" d="M382.557,136.317V109.04H355.28v27.277Zm-23.18-4.088V113.137h19.092v19.092Z" transform="translate(-42.266 -12.972)" fill="#263238"/>
      <path id="Trazado_615517" data-name="Trazado 615517" d="M375.477,118.33H364.57v10.907h10.907Z" transform="translate(-43.371 -14.077)" fill="#263238"/>
      <path id="Trazado_615518" data-name="Trazado 615518" d="M382.557,195.72H355.28V223h27.277Zm-23.18,23.18V199.808h19.092V218.9Z" transform="translate(-42.266 -23.284)" fill="#263238"/>
      <path id="Trazado_615519" data-name="Trazado 615519" d="M375.477,205.01H364.57v10.907h10.907Z" transform="translate(-43.371 -24.389)" fill="#263238"/>
      <path id="Trazado_615520" data-name="Trazado 615520" d="M268.53,109.04v27.277h27.277V109.04Zm23.18,4.088V132.22H272.618V113.128Z" transform="translate(-31.945 -12.972)" fill="#263238"/>
      <path id="Trazado_615521" data-name="Trazado 615521" d="M288.717,118.33H277.81v10.907h10.907Z" transform="translate(-33.049 -14.077)" fill="#263238"/>
      <path id="Trazado_615522" data-name="Trazado 615522" d="M259.533,126.876V107.5a7.124,7.124,0,0,1,1.533-4.934,6.721,6.721,0,0,1,5.3-2.2h20.37a.608.608,0,0,0,0-1.216H266.6a8.542,8.542,0,0,0-4.855,1.225,7.688,7.688,0,0,0-3.427,6.361c-.053,3.189,0,6.379,0,9.568v10.572A.608.608,0,0,0,259.533,126.876Z" transform="translate(-30.728 -11.795)" fill="#4f6736"/>
      <path id="Trazado_615523" data-name="Trazado 615523" d="M284.816,233.376H265.442a7.124,7.124,0,0,1-4.934-1.533,6.728,6.728,0,0,1-2.2-5.313v-20.37a.608.608,0,0,0-1.216,0V226.3a8.542,8.542,0,0,0,1.225,4.855,7.688,7.688,0,0,0,6.361,3.427c3.189.053,6.379,0,9.568,0h10.572a.608.608,0,0,0,0-1.216Z" transform="translate(-30.584 -24.456)" fill="#4f6736"/>
      <path id="Trazado_615524" data-name="Trazado 615524" d="M390.646,205.941v19.374a7.124,7.124,0,0,1-1.533,4.934,6.728,6.728,0,0,1-5.313,2.2h-20.37a.608.608,0,0,0,0,1.216h20.14a8.543,8.543,0,0,0,4.855-1.225,7.688,7.688,0,0,0,3.427-6.361c.053-3.189,0-6.379,0-9.568V205.941a.608.608,0,0,0-1.216,0Z" transform="translate(-43.165 -24.43)" fill="#4f6736"/>
      <path id="Trazado_615525" data-name="Trazado 615525" d="M363.831,100.364H383.2a7.124,7.124,0,0,1,4.934,1.533,6.728,6.728,0,0,1,2.2,5.313v20.37a.608.608,0,0,0,1.216,0v-20.14a8.542,8.542,0,0,0-1.225-4.854,7.688,7.688,0,0,0-6.361-3.427c-3.189-.053-6.379,0-9.568,0H363.831a.608.608,0,0,0,0,1.216Z" transform="translate(-43.213 -11.793)" fill="#4f6736"/>
      <path id="Trazado_615526" data-name="Trazado 615526" d="M270.2,302.78h91.892a14.653,14.653,0,0,1,14.643,14.643v3.11a14.653,14.653,0,0,1-14.643,14.643H270.2a14.653,14.653,0,0,1-14.643-14.643v-3.11A14.653,14.653,0,0,1,270.2,302.78Z" transform="translate(-30.402 -36.02)" fill="#aeaeae"/>
      <path id="Trazado_615527" data-name="Trazado 615527" d="M280.88,317.84l-2.035,5.445H277.9l-1.568-4.132-1.595,4.132H273.8l-2.026-5.445h.934l1.577,4.335,1.648-4.335h.828l1.612,4.352,1.621-4.352h.89Z" transform="translate(-32.331 -37.812)" fill="#263238"/>
      <path id="Trazado_615528" data-name="Trazado 615528" d="M291.27,317.84l-2.035,5.445h-.943l-1.568-4.132-1.595,4.132h-.943l-2.026-5.445h.934l1.577,4.335,1.648-4.335h.828l1.612,4.352,1.621-4.352h.89Z" transform="translate(-33.567 -37.812)" fill="#263238"/>
      <path id="Trazado_615529" data-name="Trazado 615529" d="M301.67,317.84l-2.035,5.445h-.943l-1.568-4.132-1.595,4.132h-.943l-2.026-5.445h.934l1.577,4.335,1.648-4.335h.828l1.612,4.352,1.621-4.352h.89Z" transform="translate(-34.804 -37.812)" fill="#263238"/>
      <path id="Trazado_615530" data-name="Trazado 615530" d="M303.12,323.2a.681.681,0,0,1,.7-.7.672.672,0,0,1,.678.7.685.685,0,0,1-.678.7A.7.7,0,0,1,303.12,323.2Z" transform="translate(-36.06 -38.366)" fill="#263238"/>
      <path id="Trazado_615531" data-name="Trazado 615531" d="M305.51,322.7l.414-.784a3.5,3.5,0,0,0,1.912.564c.916,0,1.3-.282,1.3-.74,0-1.225-3.445-.167-3.445-2.335,0-.978.872-1.63,2.273-1.63a3.978,3.978,0,0,1,1.982.493l-.423.784a2.856,2.856,0,0,0-1.568-.432c-.863,0-1.286.317-1.286.749,0,1.286,3.454.238,3.454,2.352,0,.987-.907,1.612-2.352,1.612a3.959,3.959,0,0,1-2.247-.634Z" transform="translate(-36.345 -37.804)" fill="#263238"/>
      <path id="Trazado_615532" data-name="Trazado 615532" d="M311.94,315.843a.67.67,0,1,1,.67.643.635.635,0,0,1-.67-.634Zm.176,1.683h.987v5.445h-.987Z" transform="translate(-37.11 -37.497)" fill="#263238"/>
      <path id="Trazado_615533" data-name="Trazado 615533" d="M318.351,322.807a1.866,1.866,0,0,1-1.189.379,1.555,1.555,0,0,1-1.727-1.709V318.49h-.925v-.811h.925V316.49h.987v1.189h1.559v.811h-1.559v2.951a.806.806,0,0,0,.855.916,1.252,1.252,0,0,0,.767-.255Z" transform="translate(-37.415 -37.651)" fill="#263238"/>
      <path id="Trazado_615534" data-name="Trazado 615534" d="M324.841,320.89h-4.414a1.847,1.847,0,0,0,1.974,1.595,2.03,2.03,0,0,0,1.568-.661l.546.634a2.969,2.969,0,0,1-5.075-1.9,2.664,2.664,0,0,1,2.731-2.775,2.622,2.622,0,0,1,2.687,2.8c0,.079-.009.2-.018.3Zm-4.414-.7h3.489a1.755,1.755,0,0,0-3.489,0Z" transform="translate(-38.002 -37.804)" fill="#263238"/>
      <path id="Trazado_615535" data-name="Trazado 615535" d="M335.15,317.84l-2.035,5.445h-.943l-1.568-4.132-1.595,4.132h-.943l-2.026-5.445h.934l1.577,4.335,1.648-4.335h.828l1.612,4.352,1.621-4.352h.89Z" transform="translate(-38.787 -37.812)" fill="#263238"/>
      <path id="Trazado_615536" data-name="Trazado 615536" d="M342.171,320.89h-4.414a1.847,1.847,0,0,0,1.974,1.595,2.03,2.03,0,0,0,1.568-.661l.546.634a2.969,2.969,0,0,1-5.075-1.9,2.664,2.664,0,0,1,2.731-2.775,2.622,2.622,0,0,1,2.687,2.8c0,.079-.009.2-.018.3Zm-4.414-.7h3.489a1.755,1.755,0,0,0-3.489,0Z" transform="translate(-40.064 -37.804)" fill="#263238"/>
      <path id="Trazado_615537" data-name="Trazado 615537" d="M350.12,320.269a2.651,2.651,0,0,1-2.749,2.784,2.292,2.292,0,0,1-1.938-.925v.863h-.943V315.37h.987v3a2.322,2.322,0,0,1,1.9-.872,2.639,2.639,0,0,1,2.749,2.775Zm-1,0a1.839,1.839,0,1,0-1.841,1.921A1.8,1.8,0,0,0,349.124,320.269Z" transform="translate(-40.982 -37.518)" fill="#263238"/>
      <path id="Trazado_615538" data-name="Trazado 615538" d="M351.77,323.2a.681.681,0,0,1,.7-.7.672.672,0,0,1,.678.7.685.685,0,0,1-.678.7A.7.7,0,0,1,351.77,323.2Z" transform="translate(-41.848 -38.366)" fill="#263238"/>
      <path id="Trazado_615539" data-name="Trazado 615539" d="M354.23,320.555a2.719,2.719,0,0,1,2.872-2.775,2.418,2.418,0,0,1,2.22,1.163l-.749.485a1.694,1.694,0,0,0-1.48-.784,1.917,1.917,0,0,0,0,3.832,1.694,1.694,0,0,0,1.48-.784l.749.476a2.442,2.442,0,0,1-2.22,1.172A2.726,2.726,0,0,1,354.23,320.555Z" transform="translate(-42.141 -37.804)" fill="#263238"/>
      <path id="Trazado_615540" data-name="Trazado 615540" d="M360.8,320.555a2.833,2.833,0,1,1,2.837,2.784A2.71,2.71,0,0,1,360.8,320.555Zm4.661,0a1.839,1.839,0,1,0-1.833,1.921A1.789,1.789,0,0,0,365.461,320.555Z" transform="translate(-42.922 -37.804)" fill="#263238"/>
      <path id="Trazado_615541" data-name="Trazado 615541" d="M377.819,320.149v3.137h-.987v-3.022c0-1.066-.511-1.595-1.41-1.595a1.577,1.577,0,0,0-1.63,1.806v2.8h-.987v-3.022c0-1.066-.511-1.595-1.41-1.595a1.577,1.577,0,0,0-1.63,1.806v2.8h-.987v-5.445h.943v.811a2.2,2.2,0,0,1,1.877-.863,2.034,2.034,0,0,1,1.894,1,2.457,2.457,0,0,1,2.1-1,2.087,2.087,0,0,1,2.229,2.361Z" transform="translate(-43.872 -37.803)" fill="#263238"/>
      <path id="Trazado_615542" data-name="Trazado 615542" d="M366.127,328.049c0,.123-20.784.229-46.4.229s-46.413-.106-46.413-.229,20.775-.229,46.413-.229S366.127,327.926,366.127,328.049Z" transform="translate(-32.514 -38.999)" fill="#263238"/>
    </g>
  </g>
</svg>
