<svg xmlns="http://www.w3.org/2000/svg" width="546.593" height="407.332" viewBox="0 0 546.593 407.332">
  <g id="Grupo_1066773" data-name="Grupo 1066773" transform="translate(-810 -1231.565)">
    <g id="Group_61_1_" data-name="Group 61 (1)" transform="translate(810 1231.565)">
      <path id="Trazado_611552" data-name="Trazado 611552" d="M546.593,327.45H0v.273H546.593Z" transform="translate(0 30.514)" fill="#ebebeb"/>
      <path id="Trazado_611553" data-name="Trazado 611553" d="M452.986,343.54H416.78v.273h36.206Z" transform="translate(38.838 32.013)" fill="#ebebeb"/>
      <path id="Trazado_611554" data-name="Trazado 611554" d="M410.788,343.54H333.38v.273h77.408Z" transform="translate(31.066 32.013)" fill="#ebebeb"/>
      <path id="Trazado_611555" data-name="Trazado 611555" d="M296.118,334.26H275.14v.273h20.978Z" transform="translate(25.639 31.148)" fill="#ebebeb"/>
      <path id="Trazado_611556" data-name="Trazado 611556" d="M89.945,335.94H52.46v.273H89.945Z" transform="translate(4.889 31.305)" fill="#ebebeb"/>
      <path id="Trazado_611557" data-name="Trazado 611557" d="M163.81,335.94H95.65v.273h68.16Z" transform="translate(8.913 31.305)" fill="#ebebeb"/>
      <path id="Trazado_611558" data-name="Trazado 611558" d="M228.57,340.16H188.33v.273h40.24Z" transform="translate(17.55 31.698)" fill="#ebebeb"/>
      <path id="Trazado_611559" data-name="Trazado 611559" d="M255.536,309.207H44.442a6.247,6.247,0,0,1-6.242-6.242V6.242A6.247,6.247,0,0,1,44.442,0H255.536a6.247,6.247,0,0,1,6.242,6.242V302.965A6.247,6.247,0,0,1,255.536,309.207ZM44.442.273a5.976,5.976,0,0,0-5.969,5.969V302.965a5.976,5.976,0,0,0,5.969,5.969H255.536a5.976,5.976,0,0,0,5.969-5.969V6.242A5.976,5.976,0,0,0,255.536.273Z" transform="translate(3.56 0)" fill="#ebebeb"/>
      <path id="Trazado_611560" data-name="Trazado 611560" d="M471.836,309.207H260.742a6.247,6.247,0,0,1-6.242-6.242V6.242A6.247,6.247,0,0,1,260.742,0H471.836a6.247,6.247,0,0,1,6.242,6.242V302.965A6.247,6.247,0,0,1,471.836,309.207ZM260.742.273a5.977,5.977,0,0,0-5.969,5.969V302.965a5.977,5.977,0,0,0,5.969,5.969H471.836a5.976,5.976,0,0,0,5.969-5.969V6.242A5.976,5.976,0,0,0,471.836.273Z" transform="translate(23.716 0)" fill="#ebebeb"/>
      <path id="Trazado_611561" data-name="Trazado 611561" d="M167.75,34.92H62.05V326.473h105.7Z" transform="translate(5.782 3.254)" fill="#c6c6c6"/>
      <path id="Trazado_611562" data-name="Trazado 611562" d="M158.74,326.473h1.071V34.92H158.74Z" transform="translate(14.792 3.254)" fill="#ebebeb"/>
      <path id="Trazado_611563" data-name="Trazado 611563" d="M156.681,45.1H71.38V314.406h85.3Z" transform="translate(6.652 4.203)" fill="#fff"/>
      <path id="Trazado_611564" data-name="Trazado 611564" d="M200.19,208.582H449.535V23.32H200.19Z" transform="translate(18.655 2.173)" fill="#e6e6e6"/>
      <path id="Trazado_611565" data-name="Trazado 611565" d="M196.66,208.582H446V23.32H196.66Z" transform="translate(18.326 2.173)" fill="#c6c6c6"/>
      <path id="Trazado_611566" data-name="Trazado 611566" d="M438.484,200.136V30.43H202.99V200.136Z" transform="translate(18.916 2.836)" fill="#fff"/>
      <path id="Trazado_611567" data-name="Trazado 611567" d="M205.9,200.136V30.43H202.98V200.136Z" transform="translate(18.915 2.836)" fill="#e6e6e6"/>
      <path id="Trazado_611568" data-name="Trazado 611568" d="M199.27,153.4H442.886V142.95H199.27Z" transform="translate(18.569 13.321)" fill="#c6c6c6"/>
      <g id="Grupo_1015730" data-name="Grupo 1015730" transform="translate(207.246 17.294)" opacity="0.4">
        <path id="Trazado_611569" data-name="Trazado 611569" d="M213.116,15.83H189.58V75.376h23.536Z" transform="translate(-189.58 -15.819)" fill="#e6e6e6"/>
        <path id="Trazado_611570" data-name="Trazado 611570" d="M211.11,70.578h11.675V15.82H211.11Z" transform="translate(-187.574 -15.82)" fill="#c6c6c6"/>
        <path id="Trazado_611571" data-name="Trazado 611571" d="M245.326,15.83H221.79V75.376h23.536Z" transform="translate(-186.578 -15.819)" fill="#e6e6e6"/>
        <path id="Trazado_611572" data-name="Trazado 611572" d="M243.32,70.578H255V15.82H243.32Z" transform="translate(-184.572 -15.82)" fill="#c6c6c6"/>
        <path id="Trazado_611573" data-name="Trazado 611573" d="M277.536,15.83H254V75.376h23.536Z" transform="translate(-183.577 -15.819)" fill="#e6e6e6"/>
        <path id="Trazado_611574" data-name="Trazado 611574" d="M275.53,70.578h11.675V15.82H275.53Z" transform="translate(-181.571 -15.82)" fill="#c6c6c6"/>
        <path id="Trazado_611575" data-name="Trazado 611575" d="M309.746,15.83H286.21V75.376h23.536Z" transform="translate(-180.576 -15.819)" fill="#e6e6e6"/>
        <path id="Trazado_611576" data-name="Trazado 611576" d="M307.74,70.578h11.675V15.82H307.74Z" transform="translate(-178.569 -15.82)" fill="#c6c6c6"/>
        <path id="Trazado_611577" data-name="Trazado 611577" d="M341.956,15.83H318.42V75.376h23.536Z" transform="translate(-177.574 -15.819)" fill="#e6e6e6"/>
        <path id="Trazado_611578" data-name="Trazado 611578" d="M339.95,70.578h11.675V15.82H339.95Z" transform="translate(-175.568 -15.82)" fill="#c6c6c6"/>
        <path id="Trazado_611579" data-name="Trazado 611579" d="M374.166,15.83H350.63V75.376h23.536Z" transform="translate(-174.572 -15.819)" fill="#e6e6e6"/>
        <path id="Trazado_611580" data-name="Trazado 611580" d="M372.16,70.578h11.675V15.82H372.16Z" transform="translate(-172.566 -15.82)" fill="#c6c6c6"/>
        <path id="Trazado_611581" data-name="Trazado 611581" d="M406.376,15.83H382.84V75.376h23.536Z" transform="translate(-171.571 -15.819)" fill="#e6e6e6"/>
        <path id="Trazado_611582" data-name="Trazado 611582" d="M404.37,70.578h11.675V15.82H404.37Z" transform="translate(-169.565 -15.82)" fill="#c6c6c6"/>
        <path id="Trazado_611583" data-name="Trazado 611583" d="M438.586,15.83H415.05V75.376h23.536Z" transform="translate(-168.569 -15.819)" fill="#e6e6e6"/>
      </g>
      <path id="Trazado_611584" data-name="Trazado 611584" d="M203.71,336.7h29.177V228.04H203.71Z" transform="translate(18.983 21.25)" fill="#e6e6e6"/>
      <path id="Trazado_611585" data-name="Trazado 611585" d="M208.574,328.284H203.72V318.5h9.948Z" transform="translate(18.984 29.68)" fill="#969696"/>
      <path id="Trazado_611586" data-name="Trazado 611586" d="M395.76,336.7h29.177V228.04H395.76Z" transform="translate(36.879 21.25)" fill="#e6e6e6"/>
      <path id="Trazado_611587" data-name="Trazado 611587" d="M203.72,332.952H417.886V228.05H203.72Z" transform="translate(18.984 21.251)" fill="#969696"/>
      <path id="Trazado_611588" data-name="Trazado 611588" d="M207.17,261.073H413.8V232.3H207.17Z" transform="translate(19.305 21.647)" fill="#e6e6e6"/>
      <path id="Trazado_611589" data-name="Trazado 611589" d="M256.048,241.317H358.14c4.734,0,9.27-3.553,12.528-9.817H243.52C246.778,237.764,251.3,241.317,256.048,241.317Z" transform="translate(22.693 21.572)" fill="#969696"/>
      <path id="Trazado_611590" data-name="Trazado 611590" d="M395.624,328.284h4.854V318.5H390.53Z" transform="translate(36.392 29.68)" fill="#969696"/>
      <path id="Trazado_611591" data-name="Trazado 611591" d="M207.17,291.643H413.8V262.87H207.17Z" transform="translate(19.305 24.496)" fill="#e6e6e6"/>
      <path id="Trazado_611592" data-name="Trazado 611592" d="M256.048,271.887H358.14c4.734,0,9.27-3.553,12.528-9.817H243.52C246.778,268.334,251.3,271.887,256.048,271.887Z" transform="translate(22.693 24.421)" fill="#969696"/>
      <path id="Trazado_611593" data-name="Trazado 611593" d="M207.17,322.213H413.8V293.44H207.17Z" transform="translate(19.305 27.344)" fill="#e6e6e6"/>
      <path id="Trazado_611594" data-name="Trazado 611594" d="M256.048,302.457H358.14c4.734,0,9.27-3.553,12.528-9.817H243.52C246.778,298.9,251.3,302.457,256.048,302.457Z" transform="translate(22.693 27.27)" fill="#969696"/>
      <path id="Trazado_611595" data-name="Trazado 611595" d="M268.068,374.72c117.06,0,211.958-5.54,211.958-12.375s-94.9-12.375-211.958-12.375S56.11,355.51,56.11,362.345,151.006,374.72,268.068,374.72Z" transform="translate(5.229 32.612)" fill="#c6c6c6"/>
      <path id="Trazado_611596" data-name="Trazado 611596" d="M370.672,359.932H369.5a1.019,1.019,0,0,1-.929-.951l-7.193-50.1h5.466l4.766,49.762a1.088,1.088,0,0,1-.94,1.279Z" transform="translate(33.675 28.783)" fill="#3b5620"/>
      <path id="Trazado_611597" data-name="Trazado 611597" d="M370.672,359.932H369.5a1.019,1.019,0,0,1-.929-.951l-7.193-50.1h5.466l4.766,49.762a1.088,1.088,0,0,1-.94,1.279Z" transform="translate(33.675 28.783)" opacity="0.3"/>
      <path id="Trazado_611598" data-name="Trazado 611598" d="M384.392,359.932h-1.17a1.018,1.018,0,0,1-.929-.951l-7.193-50.1h5.466l4.766,49.762a1.088,1.088,0,0,1-.94,1.279Z" transform="translate(34.954 28.783)" fill="#3b5620"/>
      <path id="Trazado_611599" data-name="Trazado 611599" d="M384.392,359.932h-1.17a1.018,1.018,0,0,1-.929-.951l-7.193-50.1h5.466l4.766,49.762a1.088,1.088,0,0,1-.94,1.279Z" transform="translate(34.954 28.783)" opacity="0.3"/>
      <path id="Trazado_611600" data-name="Trazado 611600" d="M307.241,359.932h1.17a1.018,1.018,0,0,0,.929-.951l7.193-50.1h-5.466L306.3,358.642a1.088,1.088,0,0,0,.94,1.279Z" transform="translate(28.542 28.783)" fill="#3b5620"/>
      <path id="Trazado_611601" data-name="Trazado 611601" d="M307.241,359.932h1.17a1.018,1.018,0,0,0,.929-.951l7.193-50.1h-5.466L306.3,358.642a1.088,1.088,0,0,0,.94,1.279Z" transform="translate(28.542 28.783)" opacity="0.3"/>
      <path id="Trazado_611602" data-name="Trazado 611602" d="M293.521,359.932h1.17a1.019,1.019,0,0,0,.929-.951l7.193-50.1h-5.466l-4.766,49.762a1.088,1.088,0,0,0,.94,1.279Z" transform="translate(27.264 28.783)" fill="#3b5620"/>
      <path id="Trazado_611603" data-name="Trazado 611603" d="M293.521,359.932h1.17a1.019,1.019,0,0,0,.929-.951l7.193-50.1h-5.466l-4.766,49.762a1.088,1.088,0,0,0,.94,1.279Z" transform="translate(27.264 28.783)" opacity="0.3"/>
      <path id="Trazado_611604" data-name="Trazado 611604" d="M276.129,258.019h36.818c6.537-22.684,30.041-40.579,54.113-40.579H379.02c25.2,0,41.454,19.6,36.316,43.793a48.793,48.793,0,0,1-4.69,12.757l-5.8,35.19c-.754,4.548-4.373,8.221-8.09,8.221H285.935c-3.717,0-7.346-3.684-8.09-8.221l-7.084-42.94c-.754-4.537,1.662-8.221,5.378-8.221Z" transform="translate(25.218 20.262)" fill="#3b5620"/>
      <path id="Trazado_611605" data-name="Trazado 611605" d="M276.129,258.019h36.818c6.537-22.684,30.041-40.579,54.113-40.579H379.02c25.2,0,41.454,19.6,36.316,43.793a48.793,48.793,0,0,1-4.69,12.757l-5.8,35.19c-.754,4.548-4.373,8.221-8.09,8.221H285.935c-3.717,0-7.346-3.684-8.09-8.221l-7.084-42.94c-.754-4.537,1.662-8.221,5.378-8.221Z" transform="translate(25.218 20.262)" fill="#fff" opacity="0.5"/>
      <path id="Trazado_611606" data-name="Trazado 611606" d="M268.749,343.949l9.117,4.187a.644.644,0,0,1,.35.831l-2.864,7.423a1.58,1.58,0,0,1-2.088.787c-3.148-1.509-4.581-2.394-8.592-4.231a107.285,107.285,0,0,1-12.266-7.106c-2.974-2.143-.787-5.138.7-4.482,6.657,2.941,10.9,3.2,14.025,2.46a2.582,2.582,0,0,1,1.629.142Z" transform="translate(23.383 31.801)" fill="#263238"/>
      <path id="Trazado_611607" data-name="Trazado 611607" d="M331.952,241.481s-58.3.722-59.2,23.7c-1.29,33.036-6.177,87.87-6.177,87.87l9.828,4.384s17.229-55.031,17.841-80.83c16.354-4.078,58.562.033,63.514-13.413a44.115,44.115,0,0,0,1.858-21.722h-27.68Z" transform="translate(24.841 22.502)" fill="#3b5620"/>
      <path id="Trazado_611608" data-name="Trazado 611608" d="M331.952,241.481s-58.3.722-59.2,23.7c-1.29,33.036-6.177,87.87-6.177,87.87l9.828,4.384s17.229-55.031,17.841-80.83c16.354-4.078,58.562.033,63.514-13.413a44.115,44.115,0,0,0,1.858-21.722h-27.68Z" transform="translate(24.841 22.502)" opacity="0.2"/>
      <path id="Trazado_611609" data-name="Trazado 611609" d="M342.888,186.873c-.5,2.121-1.017,4.034-1.607,6.023q-.869,2.952-1.8,5.87c-1.279,3.892-2.689,7.762-4.318,11.588a96.267,96.267,0,0,1-5.619,11.38,55.38,55.38,0,0,1-3.706,5.575,32.175,32.175,0,0,1-5.083,5.368l-.164.131a2.756,2.756,0,0,1-.361.262,8.229,8.229,0,0,1-3.673,1.312,10.311,10.311,0,0,1-2.493-.022,15.158,15.158,0,0,1-3.345-.809,34.723,34.723,0,0,1-4.9-2.23,80.456,80.456,0,0,1-8.122-5.16q-3.8-2.738-7.368-5.685c-2.361-2-4.679-3.968-6.931-6.144a3.338,3.338,0,0,1,3.936-5.324l.055.033c2.58,1.432,5.182,2.952,7.794,4.351,2.6,1.443,5.193,2.864,7.783,4.187,2.58,1.345,5.193,2.6,7.685,3.629a23.73,23.73,0,0,0,3.487,1.17,4.4,4.4,0,0,0,1.06.142c.077,0,.022-.044-.229-.022a3.443,3.443,0,0,0-1.552.579l-.514.394a20.646,20.646,0,0,0,2.831-3.487c.907-1.388,1.8-2.9,2.635-4.482a102.876,102.876,0,0,0,4.482-10.134c1.345-3.52,2.6-7.128,3.771-10.779,1.192-3.618,2.263-7.4,3.258-10.943l.033-.131a6.692,6.692,0,0,1,12.954,3.356Z" transform="translate(26.313 16.645)" fill="#263238"/>
      <path id="Trazado_611610" data-name="Trazado 611610" d="M317.5,348.06h10.943a.7.7,0,0,1,.722.667l.525,8.658a1.719,1.719,0,0,1-1.705,1.727c-3.8-.066-5.63-.284-10.44-.284-2.962,0-8.931.306-13.009.306s-3.968-4.045-2.241-4.405c7.762-1.64,10.779-3.9,13.523-6.067a2.707,2.707,0,0,1,1.673-.6Z" transform="translate(28.064 32.434)" fill="#263238"/>
      <path id="Trazado_611611" data-name="Trazado 611611" d="M345.149,241.48s-52.877,4.471-51.577,27.428c1.421,25.143,24.64,89.095,24.64,89.095H328.9s-9.15-58.562-12.375-84.164c14.9,0,49.467,2.81,54.43-10.637a44.116,44.116,0,0,0,1.858-21.722H345.149Z" transform="translate(27.355 22.502)" fill="#3b5620"/>
      <path id="Trazado_611612" data-name="Trazado 611612" d="M288.221,207.761a17.789,17.789,0,0,0-2.973-3.651c-2.164,2.022-3.378,7.937-3.378,7.937l3,.273s3.433-1.115,3.367-4.559Z" transform="translate(26.266 19.02)" fill="#3b5620"/>
      <path id="Trazado_611613" data-name="Trazado 611613" d="M278.3,202.73l-3.4-1.476a1.988,1.988,0,0,0-2.493.8l-1.607,2.667a2.013,2.013,0,0,0,.262,2.4L275.734,212l7.783-.317a2.464,2.464,0,0,0,2.11-1.345l.9-1.76a2.446,2.446,0,0,0-.776-3.159c-2.525-1.673-7.445-2.678-7.445-2.678Z" transform="translate(25.209 18.739)" fill="#ffc3bd"/>
      <path id="Trazado_611614" data-name="Trazado 611614" d="M326.081,184.86c-1.563,9.806-3.575,31.079.547,63.12l43.345-.4c-.262-22.192,3.225-43.039,6.614-63.4a6.064,6.064,0,0,0-5.149-7.007c-10.407-1.5-27.22-1.443-37.42-.033A9.3,9.3,0,0,0,326.081,184.86Z" transform="translate(30.21 16.406)" fill="#263238"/>
      <path id="Trazado_611615" data-name="Trazado 611615" d="M374.981,181.31c1.268,3.159,2.3,6.187,3.345,9.314,1.038,3.1,1.946,6.264,2.809,9.445.831,3.192,1.618,6.417,2.219,9.729a78.135,78.135,0,0,1,1.334,10.254c.055.885.077,1.8.087,2.722l-.022,1.4a8.482,8.482,0,0,1-1.082,4.089,7.515,7.515,0,0,1-1.815,2.121,6.746,6.746,0,0,1-1.082.732,6.222,6.222,0,0,1-1.049.481,8.78,8.78,0,0,1-3.214.558,14.532,14.532,0,0,1-3.826-.6,33.1,33.1,0,0,1-5.3-2.088c-1.585-.776-3.072-1.607-4.526-2.449a119.946,119.946,0,0,1-16.026-11.478,3.339,3.339,0,0,1,3.575-5.575l.077.033c5.652,2.689,11.4,5.455,17,7.773,1.4.579,2.788,1.115,4.143,1.563a22.594,22.594,0,0,0,3.739,1.017,2.007,2.007,0,0,0,.9.022,1.747,1.747,0,0,0-.875.142,4.471,4.471,0,0,0-.5.23,4.592,4.592,0,0,0-.59.394,4.686,4.686,0,0,0-1.06,1.213,4.03,4.03,0,0,0-.569,1.793l-.066-.984c-.065-.678-.12-1.345-.219-2.055a116.482,116.482,0,0,0-4.078-17.447c-1.76-5.859-3.76-11.861-5.816-17.557l-.022-.055a6.693,6.693,0,0,1,12.506-4.766Z" transform="translate(32.209 16.502)" fill="#263238"/>
      <path id="Trazado_611616" data-name="Trazado 611616" d="M358.348,156.96l-5.247,4.351-7.138,5.925a22.547,22.547,0,0,1,.448,2.886c.339,3.444-.415,6.614-4.6,8.221a5.5,5.5,0,0,0-3.454,3.378c-.569,1.837.1,3.87,5.859,3.87,8.45,0,12.856-3.761,14.518-5.608a1.481,1.481,0,0,0,.066-1.858C355.451,173.38,356.982,162.885,358.348,156.96Z" transform="translate(31.514 14.626)" fill="#ffc3bd"/>
      <path id="Trazado_611617" data-name="Trazado 611617" d="M343.7,181.45a3.44,3.44,0,0,1,.732,1.487,6,6,0,0,1,1.585-1.487A5.663,5.663,0,0,1,349.047,185a15.893,15.893,0,0,1-4.548-1.694,7.9,7.9,0,0,1-3.039.951C341.526,182.368,343.7,181.45,343.7,181.45Z" transform="translate(31.819 16.908)" fill="#3b5620"/>
      <path id="Trazado_611618" data-name="Trazado 611618" d="M345.63,182.084a13.3,13.3,0,0,1,2.9,6.373s13.993-3.5,13.337-12.615a14.231,14.231,0,0,0-3.881-1.192S354.977,180.116,345.63,182.084Z" transform="translate(32.208 16.275)" fill="#3b5620"/>
      <path id="Trazado_611619" data-name="Trazado 611619" d="M344.05,182.042a14.711,14.711,0,0,0-3.083,6.373s-7.182-6.537-.186-12.539a18.645,18.645,0,0,1,3.7-.776s-4.646,3.771-.437,6.942Z" transform="translate(31.471 16.317)" fill="#3b5620"/>
      <path id="Trazado_611620" data-name="Trazado 611620" d="M345.3,166.865a22.523,22.523,0,0,1,.448,2.886c2.667-.536,6.22-3.367,6.592-6.089a12.545,12.545,0,0,0,.1-2.722Z" transform="translate(32.177 14.997)" opacity="0.2"/>
      <path id="Trazado_611621" data-name="Trazado 611621" d="M338.6,139.8c-6.581,4.668-2.9,15.622,2.711,11.424S343.956,135.993,338.6,139.8Z" transform="translate(31.225 12.954)" fill="#263238"/>
      <path id="Trazado_611622" data-name="Trazado 611622" d="M360.787,149.83c-1.826,8.385-2.46,13.37-7.412,17.2A11.149,11.149,0,0,1,335.337,159c-.656-7.805,2.438-20.2,11.26-22.574a11.288,11.288,0,0,1,14.2,13.413Z" transform="translate(31.241 12.672)" fill="#ffc3bd"/>
      <path id="Trazado_611623" data-name="Trazado 611623" d="M356.973,144.293c-4.646-1.279-16.627,1.771-20.88-2.766-4.559-4.865,2.1-7.226,4.056-5.542-2.482-2.842-1.552-5.881,1.957-5.608,2.569.2,3.378,3.039,3.378,3.039s-.426-4.974,3.979-4.624c4,.306,4.012,5.706,4.012,5.706s9.555-2.7,12.747,6.417c6.012-.131,5.881,12.528-6.22,17.032-4.908-2.438-5.138-11.063-3.039-13.654Z" transform="translate(31.173 12)" fill="#263238"/>
      <path id="Trazado_611624" data-name="Trazado 611624" d="M362.453,142.172a1.219,1.219,0,0,1-.219-2.416,1.7,1.7,0,0,0,.7-.885,2.869,2.869,0,0,0,.131-2.274,1.213,1.213,0,0,1,2.208-1.006,5.358,5.358,0,0,1-.262,4.559,3.57,3.57,0,0,1-2.35,2,1.485,1.485,0,0,1-.219.022Z" transform="translate(33.663 12.569)" fill="#263238"/>
      <path id="Trazado_611625" data-name="Trazado 611625" d="M360.467,156.184a7.672,7.672,0,0,1-4.6,2.853c-2.372.415-3.094-1.76-2.044-3.881.94-1.9,3.312-4.417,5.5-3.87,2.154.536,2.547,3.061,1.137,4.908Z" transform="translate(32.927 14.091)" fill="#ffc3bd"/>
      <path id="Trazado_611626" data-name="Trazado 611626" d="M345.621,149.475c-.109.689-.557,1.2-1.006,1.148s-.732-.656-.623-1.345.557-1.2,1.006-1.148S345.73,148.786,345.621,149.475Z" transform="translate(32.053 13.803)" fill="#263238"/>
      <path id="Trazado_611627" data-name="Trazado 611627" d="M338.481,148.625c-.109.689-.557,1.2-1.006,1.148s-.732-.656-.623-1.345.557-1.2,1.006-1.148S338.59,147.936,338.481,148.625Z" transform="translate(31.388 13.724)" fill="#263238"/>
      <path id="Trazado_611628" data-name="Trazado 611628" d="M340.8,148.76a22.183,22.183,0,0,1-3.258,4.9,3.371,3.371,0,0,0,2.777.678Z" transform="translate(31.454 13.862)" fill="#ed847e"/>
      <path id="Trazado_611629" data-name="Trazado 611629" d="M343.085,157.27a5.985,5.985,0,0,0,4.34-1.782.2.2,0,1,0-.306-.262,5.739,5.739,0,0,1-4.8,1.607.2.2,0,0,0-.055.4,6.93,6.93,0,0,0,.809.044Z" transform="translate(31.878 14.458)" fill="#263238"/>
      <path id="Trazado_611630" data-name="Trazado 611630" d="M348.653,145.906a.345.345,0,0,0,.186-.1.413.413,0,0,0,.033-.579,3.93,3.93,0,0,0-3.433-1.356.4.4,0,0,0-.328.47.406.406,0,0,0,.47.328,3.106,3.106,0,0,1,2.678,1.093.414.414,0,0,0,.394.131Z" transform="translate(32.159 13.404)" fill="#263238"/>
      <path id="Trazado_611631" data-name="Trazado 611631" d="M335.816,145.469a.422.422,0,0,0,.372-.077,3.365,3.365,0,0,1,2.908-.787.4.4,0,0,0,.5-.284.405.405,0,0,0-.284-.5,4.191,4.191,0,0,0-3.651.951.414.414,0,0,0-.055.579.393.393,0,0,0,.2.131Z" transform="translate(31.265 13.393)" fill="#263238"/>
      <path id="Trazado_611632" data-name="Trazado 611632" d="M349.662,202.283l-4.788-2.973a3.034,3.034,0,0,0-4.2,1.006l-.568.929a3.047,3.047,0,0,0,.306,3.564l3.3,3.793s2.875,6.7,6.209,4.93l2.536-4.406-2.81-6.843Z" transform="translate(31.653 18.53)" fill="#ffc3bd"/>
      <path id="Trazado_611633" data-name="Trazado 611633" d="M353.9,210.2a20.052,20.052,0,0,0-2.5-4.46c-2.4,2.055-4.351,8.625-4.351,8.625l2.941.634A5.468,5.468,0,0,0,353.9,210.2Z" transform="translate(32.34 19.172)" fill="#3b5620"/>
      <path id="Trazado_611634" data-name="Trazado 611634" d="M392.138,254.56H335.38c-3.717,0-6.133,3.684-5.378,8.221l7.084,42.94c.754,4.548,4.373,8.221,8.09,8.221h39.934Z" transform="translate(30.739 23.721)" fill="#3b5620"/>
      <path id="Trazado_611635" data-name="Trazado 611635" d="M392.138,254.56H335.38c-3.717,0-6.133,3.684-5.378,8.221l7.084,42.94c.754,4.548,4.373,8.221,8.09,8.221h39.934Z" transform="translate(30.739 23.721)" fill="#fff" opacity="0.5"/>
      <path id="Trazado_611636" data-name="Trazado 611636" d="M147.37,370.587h1.64a1.11,1.11,0,0,0,1.06-1.082l9.019-135.435h-6.778l-6,135.293A1.125,1.125,0,0,0,147.37,370.587Z" transform="translate(13.634 21.812)" fill="#3b5620"/>
      <path id="Trazado_611637" data-name="Trazado 611637" d="M147.37,370.587h1.64a1.11,1.11,0,0,0,1.06-1.082l9.019-135.435h-6.778l-6,135.293A1.125,1.125,0,0,0,147.37,370.587Z" transform="translate(13.634 21.812)" fill="#fff" opacity="0.3"/>
      <path id="Trazado_611638" data-name="Trazado 611638" d="M130.37,370.587h1.64a1.11,1.11,0,0,0,1.06-1.082l9.019-135.435h-6.778l-6,135.293A1.125,1.125,0,0,0,130.37,370.587Z" transform="translate(12.05 21.812)" fill="#3b5620"/>
      <path id="Trazado_611639" data-name="Trazado 611639" d="M130.37,370.587h1.64a1.11,1.11,0,0,0,1.06-1.082l9.019-135.435h-6.778l-6,135.293A1.125,1.125,0,0,0,130.37,370.587Z" transform="translate(12.05 21.812)" fill="#fff" opacity="0.3"/>
      <path id="Trazado_611640" data-name="Trazado 611640" d="M340.929,370.587h-1.64a1.11,1.11,0,0,1-1.06-1.082L329.21,234.07h6.778l6,135.293A1.125,1.125,0,0,1,340.929,370.587Z" transform="translate(30.678 21.812)" fill="#3b5620"/>
      <path id="Trazado_611641" data-name="Trazado 611641" d="M340.929,370.587h-1.64a1.11,1.11,0,0,1-1.06-1.082L329.21,234.07h6.778l6,135.293A1.125,1.125,0,0,1,340.929,370.587Z" transform="translate(30.678 21.812)" fill="#fff" opacity="0.3"/>
      <path id="Trazado_611642" data-name="Trazado 611642" d="M357.929,370.587h-1.64a1.11,1.11,0,0,1-1.06-1.082L346.21,234.07h6.778l6,135.293A1.125,1.125,0,0,1,357.929,370.587Z" transform="translate(32.262 21.812)" fill="#3b5620"/>
      <path id="Trazado_611643" data-name="Trazado 611643" d="M357.929,370.587h-1.64a1.11,1.11,0,0,1-1.06-1.082L346.21,234.07h6.778l6,135.293A1.125,1.125,0,0,1,357.929,370.587Z" transform="translate(32.262 21.812)" fill="#fff" opacity="0.3"/>
      <path id="Trazado_611644" data-name="Trazado 611644" d="M386.566,231.53H122.78v2.788H386.566Z" transform="translate(11.441 21.575)" fill="#3b5620"/>
      <path id="Trazado_611645" data-name="Trazado 611645" d="M120,192.2l-2.492,18.333c-.787,6.1-1.607,12.222-2.2,18.234-.087.754-.142,1.5-.2,2.241l-.087,1.115a2.755,2.755,0,0,0-.044-.547,2.633,2.633,0,0,0-.131-.525,1.756,1.756,0,0,0-.164-.383,2.542,2.542,0,0,0-.153-.251c-.2-.251-.219-.219-.164-.164a1.8,1.8,0,0,0,.372.306,11.011,11.011,0,0,0,1.443.842,58.917,58.917,0,0,0,8.024,2.984c5.739,1.738,11.752,3.247,17.7,4.712l-.667,5.225a132.542,132.542,0,0,1-18.956-1.968,54.555,54.555,0,0,1-9.74-2.569,20.273,20.273,0,0,1-2.7-1.268,12.268,12.268,0,0,1-1.53-1.039,8.848,8.848,0,0,1-1.749-1.858,7.225,7.225,0,0,1-.831-1.673,8.681,8.681,0,0,1-.262-1.082,8.548,8.548,0,0,1-.066-1.126l.022-1.213c.022-.809.033-1.618.077-2.416.262-6.384.831-12.615,1.52-18.846.667-6.231,1.465-12.408,2.438-18.617l10.516,1.552Z" transform="translate(9.823 17.766)" fill="#7f3e3b"/>
      <path id="Trazado_611646" data-name="Trazado 611646" d="M153.063,240.576l-4.012,3.662a3.1,3.1,0,0,1-3.444.5l-4.427-2.132s-6.57-.273-7.51-4.285l1.694-3.116,10.178-1.126a4.716,4.716,0,0,1,3,.667l4.2,2.558a2.055,2.055,0,0,1,.317,3.269Z" transform="translate(12.456 21.81)" fill="#7f3e3b"/>
      <path id="Trazado_611647" data-name="Trazado 611647" d="M129.67,157.61c1.039,6.286,1.924,17.775-2.58,21.82,0,0,10.976,5.75,18.18,15.786,7.7-6.1,1.257-15.206,1.257-15.206-6.92-1.869-6.592-7.04-5.225-11.861L129.681,157.61Z" transform="translate(11.843 14.687)" fill="#7f3e3b"/>
      <path id="Trazado_611648" data-name="Trazado 611648" d="M150.583,182.429s-.579-5.335-3.487-7.969c-2.449-2.219-15.272-.984-19.317-.536a2.208,2.208,0,0,0-1.749,1.246l-2.93,6.122Z" transform="translate(11.471 16.137)" fill="#3b5620"/>
      <path id="Trazado_611649" data-name="Trazado 611649" d="M150.583,182.429s-.579-5.335-3.487-7.969c-2.449-2.219-15.272-.984-19.317-.536a2.208,2.208,0,0,0-1.749,1.246l-2.93,6.122Z" transform="translate(11.471 16.137)" fill="#fff" opacity="0.8"/>
      <path id="Trazado_611650" data-name="Trazado 611650" d="M116.5,179.092c-7.915,2.58-9.62,13.184-8.909,21.448l15.971,9.828s3.881-12.058,3.848-18.508c-.033-6.854-5.542-14.518-10.921-12.779Z" transform="translate(10.012 16.665)" fill="#3b5620"/>
      <path id="Trazado_611651" data-name="Trazado 611651" d="M118.687,205.731a1.528,1.528,0,0,1-1.049-.426,1.6,1.6,0,0,1-.175-.23,1.007,1.007,0,0,1-.142-.262,2,2,0,0,1-.087-.273,1.258,1.258,0,0,1-.033-.284,1.5,1.5,0,0,1,.437-1.049,1.526,1.526,0,0,1,2.1,0,1.5,1.5,0,0,1,.437,1.049.843.843,0,0,1-.033.284,1.141,1.141,0,0,1-.087.273.983.983,0,0,1-.131.262c-.055.077-.12.153-.186.23A1.489,1.489,0,0,1,118.687,205.731Z" transform="translate(10.921 18.897)" fill="#fff"/>
      <path id="Trazado_611652" data-name="Trazado 611652" d="M116.445,205.109a1.489,1.489,0,0,1-.951-1.334,1.462,1.462,0,0,1-1.607.241,1.5,1.5,0,0,1-.864-1.377,1.454,1.454,0,0,1-1.618.142,1.476,1.476,0,0,1-.776-1.421,1.486,1.486,0,1,1-.087-2.482,1.525,1.525,0,0,1,.711,1.388,1.469,1.469,0,0,1,1.552-.1,1.5,1.5,0,0,1,.787,1.345,1.484,1.484,0,0,1,2.4,1.1,1.511,1.511,0,0,1,1.53-.273,1.488,1.488,0,0,1,.831,1.924,1.471,1.471,0,0,1-1.377.94,1.6,1.6,0,0,1-.547-.1Z" transform="translate(10.091 18.513)" fill="#fff"/>
      <path id="Trazado_611653" data-name="Trazado 611653" d="M107.717,200.3a.908.908,0,0,1-.3-.033,1.141,1.141,0,0,1-.273-.087.982.982,0,0,1-.262-.131,1.782,1.782,0,0,1-.219-.186,1.156,1.156,0,0,1-.186-.219c-.055-.087-.1-.175-.142-.262a2.641,2.641,0,0,1-.087-.273c0-.1-.022-.2-.022-.3a2.307,2.307,0,0,1,.022-.284,2.827,2.827,0,0,1,.087-.284,1.14,1.14,0,0,1,.142-.251,1.709,1.709,0,0,1,.186-.23,1.78,1.78,0,0,1,.219-.186,1.47,1.47,0,0,1,.262-.131,2,2,0,0,1,.273-.087,1.525,1.525,0,0,1,1.334.4,1.713,1.713,0,0,1,.186.23,1.87,1.87,0,0,1,.142.251,1.373,1.373,0,0,1,.077.284,1.192,1.192,0,0,1,.033.284.908.908,0,0,1-.033.3,1.28,1.28,0,0,1-.077.273c-.044.087-.087.175-.142.262a1.158,1.158,0,0,1-.186.219A1.493,1.493,0,0,1,107.717,200.3Z" transform="translate(9.899 18.389)" fill="#fff"/>
      <path id="Trazado_611654" data-name="Trazado 611654" d="M166.457,194.641c-.667,9.1-2.689,24.4-7.674,50.177L116,243.55c1.126-15.8-.568-27.57-4.438-55.217a8.972,8.972,0,0,1,7.991-10.178c2.744-.284,5.87-.514,9.008-.579a136.4,136.4,0,0,1,19.426.579c2.088.251,4.242.579,6.3.929a14.671,14.671,0,0,1,12.178,15.545Z" transform="translate(10.387 16.54)" fill="#3b5620"/>
      <path id="Trazado_611655" data-name="Trazado 611655" d="M149.7,147.161c.1.842.634,1.476,1.181,1.41s.918-.809.82-1.651-.634-1.476-1.181-1.41S149.6,146.319,149.7,147.161Z" transform="translate(13.949 13.559)" fill="#263238"/>
      <path id="Trazado_611656" data-name="Trazado 611656" d="M150.23,145.661l1.957-.831S151.334,146.535,150.23,145.661Z" transform="translate(13.999 13.496)" fill="#263238"/>
      <path id="Trazado_611657" data-name="Trazado 611657" d="M149.97,148.22a22.8,22.8,0,0,0,3.651,5.029,3.683,3.683,0,0,1-2.941.929l-.711-5.947Z" transform="translate(13.975 13.812)" fill="#630f0f"/>
      <path id="Trazado_611658" data-name="Trazado 611658" d="M150.087,140.316a.469.469,0,0,0,.033-.492.508.508,0,0,0-.667-.24,4.945,4.945,0,0,0-2.842,3.564.5.5,0,0,0,.984.131,3.979,3.979,0,0,1,2.285-2.8.441.441,0,0,0,.2-.175Z" transform="translate(13.662 13.003)" fill="#263238"/>
      <path id="Trazado_611659" data-name="Trazado 611659" d="M123.08,148.3c1.88,10.287,2.46,14.681,8.33,19.382,8.833,7.062,21.066,2.5,22.3-8.144,1.115-9.576-2.154-24.8-12.79-27.712a14.264,14.264,0,0,0-17.83,16.474Z" transform="translate(11.447 12.234)" fill="#7f3e3b"/>
      <path id="Trazado_611660" data-name="Trazado 611660" d="M146.845,152.208c1.738,5.652,5.87,19.328-3.258,22.367-7.139,2.383-29.505,4.285-32.085-8.822-2.667-13.545,9.423-23.2,9.423-23.2s-9.576-7.849-3.444-16.4c7.9-11.019,26.827-4.788,32.446,3,5.466,7.576-3.083,23.044-3.083,23.044Z" transform="translate(10.355 11.201)" fill="#263238"/>
      <path id="Trazado_611661" data-name="Trazado 611661" d="M129.723,174.588a31.766,31.766,0,0,1-11.949-2.361c-5.083-2.186-8.046-5.564-8.571-9.773-1.793-14.288,11.5-22.137,11.632-22.214l.525.918c-.131.077-12.823,7.587-11.118,21.175.6,4.821,4.657,7.521,7.937,8.931,6.493,2.8,14.878,2.777,16.912,1.29l.623.853c-1.06.776-3.291,1.192-6.013,1.192Z" transform="translate(10.161 13.068)" fill="#263238"/>
      <path id="Trazado_611662" data-name="Trazado 611662" d="M116.331,138.907c-.12,1.826-1.64,4.34,4.7,5.28s15.141.853,16.944-.667,3.586-5.171-.2-4.843-21.252-2.9-21.459.23Z" transform="translate(10.818 12.816)" fill="#3b5620"/>
      <path id="Trazado_611663" data-name="Trazado 611663" d="M140.673,151.438a8.257,8.257,0,0,0,4.854,3.968c2.755.809,4.176-1.651,3.444-4.274-.667-2.361-2.9-5.63-5.685-5.28-2.744.339-3.848,3.247-2.6,5.6Z" transform="translate(13.062 13.589)" fill="#7f3e3b"/>
      <path id="Trazado_611664" data-name="Trazado 611664" d="M202.058,350.785l10.145-.2-4.908-25.318-10.145.186Z" transform="translate(18.372 30.31)" fill="#7f3e3b"/>
      <path id="Trazado_611665" data-name="Trazado 611665" d="M209.255,338.521c2.689,10.1,12.55,20.8,12.55,20.8l-14.08-3.575L201.57,347l1.082-2.318,6.6-6.176Z" transform="translate(18.783 31.544)" fill="#7f3e3b"/>
      <path id="Trazado_611666" data-name="Trazado 611666" d="M199.451,343a20.335,20.335,0,0,0,.208,3.542c.59,4.176,2.438,15.261,2.438,15.261h.951a98.852,98.852,0,0,1-.776-10.2c.131-2.744,1.9,2.11,4.045,4.865s6,5.258,12.244,5.444c7.3.229,10.221-.077,7.882-1.9s-7.324-3.017-7.324-3.017a22.225,22.225,0,0,1-9.861-8.243,25.738,25.738,0,0,0-9.073-7.849c-.59.1-.711,1.214-.743,2.1Z" transform="translate(18.585 31.767)" fill="#263238"/>
      <path id="Trazado_611667" data-name="Trazado 611667" d="M235.405,318.941l12.943.393L233.864,297.81l-8.964,7.663Z" transform="translate(20.957 27.752)" fill="#7f3e3b"/>
      <path id="Trazado_611668" data-name="Trazado 611668" d="M237.32,308.77c9.412,4.384,24.476,3.52,24.476,3.52l-12.244,9.828-10.506-.776-1.1-2.328-.612-10.232Z" transform="translate(22.115 28.773)" fill="#7f3e3b"/>
      <path id="Trazado_611669" data-name="Trazado 611669" d="M235.6,319.814a21.649,21.649,0,0,0,2.722,2.263c3.433,2.394,12.714,8.527,12.714,8.527l.59-.743a98.922,98.922,0,0,1-7.969-6.373c-1.935-1.99,2.722-.055,6.067.142s7.565-1.126,11.555-5.9c4.679-5.586,6.253-8.09,3.465-7.5s-6.734,3.695-6.734,3.695a19.715,19.715,0,0,1-12.145,2.11,22.767,22.767,0,0,0-11.358,1.76c-.284.536.448,1.388,1.082,2.022Z" transform="translate(21.847 28.901)" fill="#263238"/>
      <path id="Trazado_611670" data-name="Trazado 611670" d="M143.686,238.651s69.264-10.243,76.436,7.51c12.473,30.893,30.1,66.291,30.1,66.291l-8.5,7.04s-30.2-27.953-40.951-59c-12.834,4.154-53.664,17.513-68.619,17.513-15.971,0-22.5-13.621-16.726-36.228a4.543,4.543,0,0,1,4.427-3.4c10.057.055,23.831.273,23.831.273Z" transform="translate(10.562 21.965)" fill="#263238"/>
      <path id="Trazado_611671" data-name="Trazado 611671" d="M149.858,247.463s56.857-1.716,57.327,18.431c.8,33.309,10.178,81.038,10.178,81.038l-10.374.962s-16.955-37.966-21.437-70.5c-20.257,1.312-38.917.4-53.872.4-16.759,0-18.147-18.409-1.837-39.879,9.97,0,20.005,9.544,20.005,9.544Z" transform="translate(11.027 22.171)" fill="#263238"/>
      <path id="Trazado_611672" data-name="Trazado 611672" d="M115.2,235.625l-1.213,3.793c-.164.3.186.6.678.623l44.034,1.312c.383.011.711-.164.743-.4l.5-3.815c.033-.262-.3-.5-.711-.514l-43.323-1.29A.823.823,0,0,0,115.2,235.625Z" transform="translate(10.618 21.929)" fill="#fff"/>
      <path id="Trazado_611673" data-name="Trazado 611673" d="M120.412,240.661l-1.159-.033c-.23,0-.4-.131-.383-.273l.689-4.963c.022-.142.23-.262.459-.251l1.159.033c.23,0,.4.131.383.273l-.689,4.963C120.849,240.551,120.641,240.672,120.412,240.661Z" transform="translate(11.077 21.912)" fill="#263238"/>
      <path id="Trazado_611674" data-name="Trazado 611674" d="M152.021,241.6l-1.159-.033c-.23,0-.4-.131-.383-.273l.689-4.963c.022-.142.23-.262.459-.251l1.159.033c.23,0,.4.131.383.273l-.689,4.963C152.459,241.491,152.251,241.612,152.021,241.6Z" transform="translate(14.022 21.999)" fill="#263238"/>
      <path id="Trazado_611675" data-name="Trazado 611675" d="M136.221,241.131l-1.159-.033c-.23,0-.4-.131-.383-.273l.689-4.963c.022-.142.23-.262.459-.251l1.159.033c.23,0,.4.131.383.273l-.689,4.963C136.659,241.021,136.451,241.142,136.221,241.131Z" transform="translate(12.55 21.955)" fill="#263238"/>
      <path id="Trazado_611676" data-name="Trazado 611676" d="M185.323,196.66h27.658a1.321,1.321,0,0,1,1.268,1.694l-10.331,35.474a1.312,1.312,0,0,1-1.268.951H174.993a1.321,1.321,0,0,1-1.268-1.695l10.331-35.474A1.312,1.312,0,0,1,185.323,196.66Z" transform="translate(16.183 18.326)" fill="#3b5620"/>
      <path id="Trazado_611677" data-name="Trazado 611677" d="M185.695,197.85l26.881.634-10.615,33.452L175.08,231.3Z" transform="translate(16.315 18.437)" fill="#c4c4c4"/>
      <path id="Trazado_611678" data-name="Trazado 611678" d="M184.869,197.55l26.881.109-9.959,33.659-26.881-.12Z" transform="translate(16.299 18.409)" fill="#fff"/>
      <path id="Trazado_611679" data-name="Trazado 611679" d="M162.747,198.18c.055,1.071.153,2.394.251,3.607.109,1.235.24,2.482.4,3.717.306,2.471.722,4.908,1.224,7.3a52.433,52.433,0,0,0,1.957,6.9,34.009,34.009,0,0,0,1.334,3.148c.241.514.5.984.765,1.454l.4.667s-.077-.044-.044,0a4.856,4.856,0,0,0,1.738,1.017,21.5,21.5,0,0,0,3.148.94,59.864,59.864,0,0,0,7.313,1.126c5.051.492,10.32.732,15.49.842l.525,5.236a98.943,98.943,0,0,1-16.3,1.837,57.965,57.965,0,0,1-8.527-.35,30.137,30.137,0,0,1-4.58-.929,13.593,13.593,0,0,1-5.225-2.7,9.115,9.115,0,0,1-1.377-1.487l-.7-.984c-.437-.645-.875-1.3-1.257-1.968a35.274,35.274,0,0,1-2.066-4.045,53.465,53.465,0,0,1-2.82-8.264,71.728,71.728,0,0,1-1.629-8.352c-.186-1.4-.328-2.8-.448-4.2-.12-1.432-.2-2.755-.219-4.34l10.626-.175Z" transform="translate(14.174 18.467)" fill="#7f3e3b"/>
      <path id="Trazado_611680" data-name="Trazado 611680" d="M159.731,183.523c6.887,6.483,5.225,23.372,5.225,23.372L151.762,209.2s-8.144-12.113-5.28-17.185C149.466,186.726,156,180.024,159.731,183.523Z" transform="translate(13.593 17.011)" fill="#3b5620"/>
      <path id="Trazado_611681" data-name="Trazado 611681" d="M163.456,206.433a1.519,1.519,0,0,1-1.049-.437,1.312,1.312,0,0,1-.186-.23,1.827,1.827,0,0,1-.131-.251,2.169,2.169,0,0,1-.087-.284c0-.087-.022-.186-.022-.284a1.489,1.489,0,0,1,.426-1.049,1.9,1.9,0,0,1,.23-.186,1.1,1.1,0,0,1,.251-.131,1.411,1.411,0,0,1,.284-.087,1.485,1.485,0,0,1,1.771,1.454.812.812,0,0,1-.033.284,1.23,1.23,0,0,1-.087.284,1.1,1.1,0,0,1-.131.251,1.312,1.312,0,0,1-.186.23A1.5,1.5,0,0,1,163.456,206.433Z" transform="translate(15.094 18.96)" fill="#fff"/>
      <path id="Trazado_611682" data-name="Trazado 611682" d="M152.37,207.156a1.485,1.485,0,0,1,1.356-1.607,1.462,1.462,0,0,1,1.388.7,1.479,1.479,0,0,1,2.624-.383,1.479,1.479,0,0,1,2.591-.525,1.478,1.478,0,1,1,.284,1.224,1.48,1.48,0,0,1-2.667.536,1.479,1.479,0,0,1-2.689.393,1.5,1.5,0,0,1-1.279,1.006h-.12A1.494,1.494,0,0,1,152.37,207.156Z" transform="translate(14.198 19.024)" fill="#fff"/>
      <path id="Trazado_611683" data-name="Trazado 611683" d="M151.4,208.543a1.357,1.357,0,0,1-.3-.033,1.992,1.992,0,0,1-.273-.087,1.956,1.956,0,0,1-.262-.131,1.783,1.783,0,0,1-.219-.186.952.952,0,0,1-.186-.23,1.871,1.871,0,0,1-.142-.251,1.376,1.376,0,0,1-.077-.284,1.193,1.193,0,0,1-.033-.284.909.909,0,0,1,.033-.3,1.281,1.281,0,0,1,.077-.273c.044-.087.087-.175.142-.262a1.162,1.162,0,0,1,.186-.219,1.786,1.786,0,0,1,.219-.186,1.179,1.179,0,0,1,.262-.131,1.137,1.137,0,0,1,.273-.087,1.465,1.465,0,0,1,1.334.4,1.164,1.164,0,0,1,.186.219c.055.087.1.175.142.262a2.645,2.645,0,0,1,.087.273c0,.1.022.2.022.3a2.314,2.314,0,0,1-.022.284,2.838,2.838,0,0,1-.087.284,1.879,1.879,0,0,1-.142.251,1.225,1.225,0,0,1-.186.23A1.493,1.493,0,0,1,151.4,208.543Z" transform="translate(13.969 19.156)" fill="#fff"/>
      <path id="Trazado_611684" data-name="Trazado 611684" d="M205.584,221.3l-4.57-.306a5.145,5.145,0,0,0-3.214.864l-8.385,5.63-.066,3.553c2.689,3.127,8.636.328,8.636.328l5.521-.175a2.207,2.207,0,0,0,2-1.454l2-5.477A2.212,2.212,0,0,0,205.584,221.3Z" transform="translate(17.645 20.592)" fill="#7f3e3b"/>
      <path id="Trazado_611685" data-name="Trazado 611685" d="M117.674,368.05h1.235a1.086,1.086,0,0,0,.984-1.006L127.5,314.09H121.73l-5.04,52.6A1.153,1.153,0,0,0,117.674,368.05Z" transform="translate(10.873 29.269)" fill="#3b5620"/>
      <path id="Trazado_611686" data-name="Trazado 611686" d="M117.674,368.05h1.235a1.086,1.086,0,0,0,.984-1.006L127.5,314.09H121.73l-5.04,52.6A1.153,1.153,0,0,0,117.674,368.05Z" transform="translate(10.873 29.269)" opacity="0.3"/>
      <path id="Trazado_611687" data-name="Trazado 611687" d="M103.174,368.05h1.235a1.086,1.086,0,0,0,.984-1.006L113,314.09H107.23l-5.04,52.6A1.153,1.153,0,0,0,103.174,368.05Z" transform="translate(9.522 29.269)" fill="#3b5620"/>
      <path id="Trazado_611688" data-name="Trazado 611688" d="M103.174,368.05h1.235a1.086,1.086,0,0,0,.984-1.006L113,314.09H107.23l-5.04,52.6A1.153,1.153,0,0,0,103.174,368.05Z" transform="translate(9.522 29.269)" opacity="0.3"/>
      <path id="Trazado_611689" data-name="Trazado 611689" d="M184.728,368.05h-1.235a1.086,1.086,0,0,1-.984-1.006L174.9,314.09h5.772l5.04,52.6A1.153,1.153,0,0,1,184.728,368.05Z" transform="translate(16.298 29.269)" fill="#3b5620"/>
      <path id="Trazado_611690" data-name="Trazado 611690" d="M184.728,368.05h-1.235a1.086,1.086,0,0,1-.984-1.006L174.9,314.09h5.772l5.04,52.6A1.153,1.153,0,0,1,184.728,368.05Z" transform="translate(16.298 29.269)" opacity="0.3"/>
      <path id="Trazado_611691" data-name="Trazado 611691" d="M199.228,368.05h-1.235a1.086,1.086,0,0,1-.984-1.006L189.4,314.09h5.772l5.04,52.6A1.153,1.153,0,0,1,199.228,368.05Z" transform="translate(17.649 29.269)" fill="#3b5620"/>
      <path id="Trazado_611692" data-name="Trazado 611692" d="M199.228,368.05h-1.235a1.086,1.086,0,0,1-.984-1.006L189.4,314.09h5.772l5.04,52.6A1.153,1.153,0,0,1,199.228,368.05Z" transform="translate(17.649 29.269)" opacity="0.3"/>
      <path id="Trazado_611693" data-name="Trazado 611693" d="M229.808,260.337H190.891c-6.909-23.973-31.746-42.9-57.2-42.9H121.058c-26.63,0-43.815,20.727-38.392,46.285a51.865,51.865,0,0,0,4.952,13.49l6.133,37.2c.787,4.8,4.624,8.691,8.559,8.691H219.444c3.936,0,7.762-3.892,8.56-8.691l7.488-45.389C236.28,264.228,233.743,260.337,229.808,260.337Z" transform="translate(7.61 20.262)" fill="#3b5620"/>
      <path id="Trazado_611694" data-name="Trazado 611694" d="M229.808,260.337H190.891c-6.909-23.973-31.746-42.9-57.2-42.9H121.058c-26.63,0-43.815,20.727-38.392,46.285a51.865,51.865,0,0,0,4.952,13.49l6.133,37.2c.787,4.8,4.624,8.691,8.559,8.691H219.444c3.936,0,7.762-3.892,8.56-8.691l7.488-45.389C236.28,264.228,233.743,260.337,229.808,260.337Z" transform="translate(7.61 20.262)" fill="#fff" opacity="0.5"/>
      <path id="Trazado_611695" data-name="Trazado 611695" d="M213.3,97.19H204.37v1.093H213.3Z" transform="translate(19.044 9.057)" fill="#3b5620"/>
      <path id="Trazado_611696" data-name="Trazado 611696" d="M174.413,110.078H173.32V104.7a7.507,7.507,0,0,1,7.51-7.5h19.929v1.093H180.83a6.425,6.425,0,0,0-6.417,6.406Z" transform="translate(16.151 9.058)" fill="#3b5620"/>
      <path id="Trazado_611697" data-name="Trazado 611697" d="M280.17,100.69H180.493a3.673,3.673,0,0,0-3.673,3.673v39.092a3.673,3.673,0,0,0,3.673,3.673H280.17a3.674,3.674,0,0,0,3.673-3.673V104.363A3.673,3.673,0,0,0,280.17,100.69Z" transform="translate(16.477 9.383)" fill="#3b5620"/>
      <path id="Trazado_611698" data-name="Trazado 611698" d="M274.953,124.621H184.711a2.471,2.471,0,0,1,0-4.941h90.242a2.471,2.471,0,0,1,0,4.941Z" transform="translate(16.982 11.152)" fill="#fff"/>
      <path id="Trazado_611699" data-name="Trazado 611699" d="M255.636,134.011H184.711a2.471,2.471,0,0,1,0-4.941h70.926a2.471,2.471,0,0,1,0,4.941Z" transform="translate(16.982 12.027)" fill="#fff"/>
      <path id="Trazado_611700" data-name="Trazado 611700" d="M215.145,115.231H184.711a2.471,2.471,0,0,1,0-4.941h30.434a2.471,2.471,0,1,1,0,4.941Z" transform="translate(16.982 10.277)" fill="#fff"/>
      <path id="Trazado_611701" data-name="Trazado 611701" d="M252.045,115.231H221.611a2.471,2.471,0,1,1,0-4.941h30.434a2.471,2.471,0,1,1,0,4.941Z" transform="translate(20.421 10.277)" fill="#fff"/>
      <path id="Trazado_611702" data-name="Trazado 611702" d="M182.24,140.464V152.3a2.739,2.739,0,0,0,4.416,2.165L204.8,140.42l-22.563.033Z" transform="translate(16.982 13.085)" fill="#3b5620"/>
      <path id="Trazado_611703" data-name="Trazado 611703" d="M331.62,47.05H231.954a3.686,3.686,0,0,0-3.684,3.684V89.815a3.674,3.674,0,0,0,3.673,3.673h78.731l14.266,11.041a2.738,2.738,0,0,0,4.416-2.164V93.488H331.6a3.686,3.686,0,0,0,3.684-3.684V50.734A3.686,3.686,0,0,0,331.6,47.05Z" transform="translate(21.271 4.384)" fill="#fff"/>
      <path id="Trazado_611704" data-name="Trazado 611704" d="M326.681,105.713a3.272,3.272,0,0,1-2.011-.689L310.546,94.092H232a4.234,4.234,0,0,1-4.231-4.231V50.78A4.234,4.234,0,0,1,232,46.55h99.666A4.234,4.234,0,0,1,335.9,50.78V89.862a4.234,4.234,0,0,1-4.231,4.231h-1.694v8.33a3.291,3.291,0,0,1-3.291,3.291ZM232,47.643a3.145,3.145,0,0,0-3.137,3.137V89.862A3.145,3.145,0,0,0,232,93h78.928l14.419,11.161a2.186,2.186,0,0,0,3.531-1.727V93.01h2.788a3.144,3.144,0,0,0,3.137-3.137V50.78a3.145,3.145,0,0,0-3.137-3.137Z" transform="translate(21.225 4.338)" fill="#3b5620"/>
      <path id="Trazado_611705" data-name="Trazado 611705" d="M275.491,70.971h47.247a2.471,2.471,0,1,0,0-4.941H275.491a2.471,2.471,0,0,0,0,4.941Z" transform="translate(25.442 6.153)" fill="#3b5620"/>
      <path id="Trazado_611706" data-name="Trazado 611706" d="M245.311,70.971H268.7a2.471,2.471,0,0,0,0-4.941H245.311a2.471,2.471,0,0,0,0,4.941Z" transform="translate(22.629 6.153)" fill="#3b5620"/>
      <path id="Trazado_611707" data-name="Trazado 611707" d="M253.821,80.361h70.937a2.471,2.471,0,0,0,0-4.941H253.821a2.471,2.471,0,0,0,0,4.941Z" transform="translate(23.422 7.028)" fill="#3b5620"/>
      <path id="Trazado_611708" data-name="Trazado 611708" d="M236.161,61.581H326.4a2.471,2.471,0,1,0,0-4.941H236.161a2.471,2.471,0,1,0,0,4.941Z" transform="translate(21.777 5.278)" fill="#3b5620"/>
    </g>
  </g>
</svg>
