<svg xmlns="http://www.w3.org/2000/svg" width="367.795" height="218.328" viewBox="0 0 367.795 218.328">
  <g id="Grupo_1066769" data-name="Grupo 1066769" transform="translate(-19564.102 11057.164)">
    <g id="Group_72" data-name="Group 72" transform="translate(19564.102 -11057.164)">
      <path id="Trazado_614229" data-name="Trazado 614229" d="M598.157,160.933h-32.7a4.09,4.09,0,0,1-4.09-4.09V111.59a4.09,4.09,0,0,1,4.09-4.09H586.2l16.052,16.543v32.8A4.09,4.09,0,0,1,598.157,160.933Z" transform="translate(-258.075 -49.42)" fill="#d6d6d6"/>
      <path id="Trazado_614230" data-name="Trazado 614230" d="M607.32,107.5V120.23a3.8,3.8,0,0,0,3.8,3.8h12.248L607.32,107.49Z" transform="translate(-279.2 -49.416)" fill="#f5f5f5"/>
      <path id="Trazado_614231" data-name="Trazado 614231" d="M607.629,133.14a4.23,4.23,0,0,0,3.355,4.106c.13.038.27.065.405.092,1.6.286,12.124,2.156,12.124,1.918v-3.42H611.265s-3.058-.1-3.636-2.691Z" transform="translate(-279.341 -61.208)" fill="#bdbdbd"/>
      <path id="Trazado_614232" data-name="Trazado 614232" d="M598.054,160.829a4.622,4.622,0,0,0,.708-.081,4.14,4.14,0,0,0,1.853-.864A4.05,4.05,0,0,0,602.079,157c.022-1.318,0-2.853,0-4.56-.011-6.851-.027-16.657-.049-28.5l.032.081c-4.857-5-10.281-10.579-16.062-16.532l.1.043H566.286a10.075,10.075,0,0,0-1.572.059,3.962,3.962,0,0,0-2.566,1.6,3.88,3.88,0,0,0-.724,2.01c-.027.724-.005,1.48-.016,2.221v13.042c0,5.657-.005,11.113-.011,16.316q0,3.9-.005,7.6v5.419a9.542,9.542,0,0,0,.076,1.723,3.985,3.985,0,0,0,1.853,2.631,4.037,4.037,0,0,0,1.507.535,15.937,15.937,0,0,0,1.61.043q3.217,0,6.17.011c7.856.016,14.22.032,18.623.043l5.062.027c.573.005,1.01.011,1.318.016s.448.016.448.016-.151.011-.448.016-.746.005-1.318.016l-5.062.027c-4.4.011-10.768.027-18.623.043q-2.95,0-6.17.011c-.535-.011-1.075.027-1.637-.038a4.257,4.257,0,0,1-1.594-.556,4.2,4.2,0,0,1-1.961-2.777,9.692,9.692,0,0,1-.081-1.767V150.4q0-3.7-.005-7.6c0-5.2,0-10.654-.011-16.316V113.442c.005-.746-.016-1.475.016-2.237a4.214,4.214,0,0,1,3.523-3.868,10.191,10.191,0,0,1,1.615-.059h19.871l.038.043c5.776,5.959,11.184,11.546,16.041,16.554l.032.032v.049c-.022,11.843-.038,21.649-.049,28.5-.011,1.713,0,3.236-.027,4.565a4.11,4.11,0,0,1-1.524,2.934,4,4,0,0,1-1.891.843,3.371,3.371,0,0,1-.535.049h-.178Z" transform="translate(-257.972 -49.316)" fill="#bdbdbd"/>
      <path id="Trazado_614233" data-name="Trazado 614233" d="M623.253,124.039a2.052,2.052,0,0,1-.313.027c-.238.005-.535.016-.9.027-.821.011-1.945.027-3.317.043-1.41.011-3.08.016-4.922.027h-2.907a3.96,3.96,0,0,1-3.647-2.75,4.459,4.459,0,0,1-.178-1.561c0-1,.005-1.977.011-2.907.011-1.842.022-3.506.032-4.922.016-1.372.032-2.5.043-3.317.011-.367.022-.665.027-.9a1.429,1.429,0,0,1,.027-.313,1.1,1.1,0,0,1,.027.313c.005.238.016.535.027.9.011.821.027,1.945.043,3.317.011,1.41.016,3.08.032,4.922,0,.929,0,1.9.011,2.907a3.791,3.791,0,0,0,.918,2.793,3.665,3.665,0,0,0,2.642,1.243c1,0,1.977.011,2.9.016,1.842.011,3.506.022,4.922.032,1.372.016,2.5.032,3.317.043.367.011.665.022.9.027a1.431,1.431,0,0,1,.313.027Z" transform="translate(-279.081 -49.416)" fill="#bdbdbd"/>
      <path id="Trazado_614234" data-name="Trazado 614234" d="M591.506,128.41c0,.076-3.863.14-8.623.14s-8.623-.065-8.623-.14,3.863-.14,8.623-.14S591.506,128.335,591.506,128.41Z" transform="translate(-264.001 -58.969)" fill="#bdbdbd"/>
      <path id="Trazado_614235" data-name="Trazado 614235" d="M599.686,140.17c0,.076-5.695.14-12.718.14s-12.718-.065-12.718-.14,5.694-.14,12.718-.14S599.686,140.095,599.686,140.17Z" transform="translate(-263.997 -64.375)" fill="#bdbdbd"/>
      <path id="Trazado_614236" data-name="Trazado 614236" d="M599.686,151.93c0,.076-5.695.14-12.718.14s-12.718-.065-12.718-.14,5.694-.14,12.718-.14S599.686,151.855,599.686,151.93Z" transform="translate(-263.997 -69.782)" fill="#bdbdbd"/>
      <path id="Trazado_614237" data-name="Trazado 614237" d="M599.686,163.69c0,.076-5.695.14-12.718.14s-12.718-.065-12.718-.14,5.694-.14,12.718-.14S599.686,163.615,599.686,163.69Z" transform="translate(-263.997 -75.188)" fill="#bdbdbd"/>
      <path id="Trazado_614238" data-name="Trazado 614238" d="M599.686,175.45c0,.076-5.695.14-12.718.14s-12.718-.065-12.718-.14,5.694-.14,12.718-.14S599.686,175.375,599.686,175.45Z" transform="translate(-263.997 -80.594)" fill="#bdbdbd"/>
      <path id="Trazado_614239" data-name="Trazado 614239" d="M599.686,189.95c0,.076-5.695.14-12.718.14s-12.718-.065-12.718-.14,5.694-.14,12.718-.14S599.686,189.875,599.686,189.95Z" transform="translate(-263.997 -87.26)" fill="#bdbdbd"/>
      <path id="Trazado_614240" data-name="Trazado 614240" d="M550.09,166.98H573.3a2.28,2.28,0,0,1,2.28,2.28v7.915a2.28,2.28,0,0,1-2.28,2.28H550.09a2.28,2.28,0,0,1-2.28-2.28V169.26A2.28,2.28,0,0,1,550.09,166.98Z" transform="translate(-251.841 -76.765)" fill="#bdbdbd"/>
      <path id="Trazado_614241" data-name="Trazado 614241" d="M553.76,174.505H555.9a2.367,2.367,0,1,1,0,4.711H553.76v-4.711Zm2.085,3.82a1.467,1.467,0,1,0,0-2.928h-.994v2.923h.994Z" transform="translate(-254.577 -80.222)" fill="#fff"/>
      <path id="Trazado_614242" data-name="Trazado 614242" d="M563.51,176.8a2.581,2.581,0,1,1,2.577,2.437A2.439,2.439,0,0,1,563.51,176.8Zm4.052,0a1.475,1.475,0,1,0-1.475,1.507A1.436,1.436,0,0,0,567.562,176.8Z" transform="translate(-259.059 -80.158)" fill="#fff"/>
      <path id="Trazado_614243" data-name="Trazado 614243" d="M574.02,176.8a2.6,2.6,0,0,1,4.5-1.6l-.7.648a1.522,1.522,0,0,0-1.183-.551,1.507,1.507,0,0,0,0,3.015,1.491,1.491,0,0,0,1.183-.562l.7.648a2.588,2.588,0,0,1-4.5-1.594Z" transform="translate(-263.891 -80.158)" fill="#fff"/>
      <path id="Trazado_614244" data-name="Trazado 614244" d="M586.042,179.227l-1.14-1.637-1.118,1.637H582.53l1.745-2.4-1.659-2.318h1.237l1.086,1.529L586,174.51h1.178l-1.642,2.275,1.756,2.437h-1.259Z" transform="translate(-267.803 -80.226)" fill="#fff"/>
      <path id="Trazado_614245" data-name="Trazado 614245" d="M492.4,313.373l-24.755,43.3-48.981.708a2.967,2.967,0,0,0-2.917,2.8l49.813.14,1.875-.065,62.369.124,12.6-21.735,16.1-23.075a2.279,2.279,0,0,0-1.875-3.582l-62.261.238a2.263,2.263,0,0,0-1.967,1.145Z" transform="translate(-191.13 -143.429)" fill="#d6d6d6"/>
      <path id="Trazado_614246" data-name="Trazado 614246" d="M604.811,314.755a2.2,2.2,0,0,1-.3.032c-.232.011-.524.016-.875.032-.821.016-1.945.032-3.366.059-2.977.022-7.2.059-12.388.1-10.5.022-24.928.054-40.861.092h-2.977a2.465,2.465,0,0,0-2.269,1.07q-1.41,2.537-2.772,5c-1.821,3.29-3.582,6.467-5.257,9.493-3.355,6.035-6.381,11.47-8.936,16.052-2.545,4.522-4.609,8.2-6.067,10.795-.708,1.232-1.27,2.21-1.675,2.917-.184.3-.33.551-.448.751-.1.167-.162.249-.173.243a1.2,1.2,0,0,1,.119-.276c.108-.211.238-.465.394-.783q.575-1.086,1.578-2.977c1.416-2.62,3.425-6.327,5.9-10.892,2.518-4.6,5.505-10.06,8.817-16.116,1.664-3.031,3.415-6.213,5.224-9.509q1.37-2.48,2.788-5.041a3.094,3.094,0,0,1,2.782-1.351h2.977c15.933.038,30.358.065,40.861.092,5.192.043,9.406.076,12.389.1,1.421.027,2.55.043,3.366.059.357.011.643.022.875.032a1.038,1.038,0,0,1,.3.032Z" transform="translate(-237.423 -144.552)" fill="#bdbdbd"/>
      <path id="Trazado_614247" data-name="Trazado 614247" d="M598.041,354.408a2.632,2.632,0,1,0,3.933-.465A2.814,2.814,0,0,0,598.041,354.408Z" transform="translate(-274.546 -162.437)" fill="#fff"/>
      <path id="Trazado_614248" data-name="Trazado 614248" d="M11.632,316.06v25.9H7.31v2.809h4.322V362.1H92.447V346.326H86.46V342.89h5.986v-5.154H95.1V335.4H91.944V316.06Z" transform="translate(-3.361 -145.3)" fill="#f5f5f5"/>
      <path id="Trazado_614249" data-name="Trazado 614249" d="M125.17,316.136v45.67h21.46V346.04h-5.986v-3.15l5.986.108v-5.154l2.712.005-.049-2.664-3.161-.076V316.06Z" transform="translate(-57.544 -145.3)" fill="#bdbdbd"/>
      <path id="Trazado_614250" data-name="Trazado 614250" d="M72.419,368.256c0,.157-14.625.286-32.66.286s-32.66-.13-32.66-.286,14.62-.286,32.66-.286S72.419,368.1,72.419,368.256Z" transform="translate(-3.264 -169.165)" fill="#bdbdbd"/>
      <path id="Trazado_614251" data-name="Trazado 614251" d="M72.419,363.386c0,.157-14.625.286-32.66.286s-32.66-.13-32.66-.286,14.62-.286,32.66-.286S72.419,363.23,72.419,363.386Z" transform="translate(-3.264 -166.926)" fill="#bdbdbd"/>
      <path id="Trazado_614252" data-name="Trazado 614252" d="M80.189,350.286c0,.157-14.625.286-32.66.286s-32.66-.13-32.66-.286S29.49,350,47.53,350,80.189,350.13,80.189,350.286Z" transform="translate(-6.836 -160.903)" fill="#bdbdbd"/>
      <path id="Trazado_614253" data-name="Trazado 614253" d="M80.929,386c0,.157-14.625.286-32.66.286s-32.66-.13-32.66-.286,14.62-.286,32.66-.286S80.929,385.84,80.929,386Z" transform="translate(-7.176 -177.32)" fill="#bdbdbd"/>
      <path id="Trazado_614254" data-name="Trazado 614254" d="M483.869,67.632H451.928a4,4,0,0,1-4-4V19.428a4,4,0,0,1,4-4h20.255l15.679,16.16V63.634a4,4,0,0,1-4,4Z" transform="translate(-205.924 -7.094)" fill="#d6d6d6"/>
      <path id="Trazado_614255" data-name="Trazado 614255" d="M492.83,15.43V27.873a3.717,3.717,0,0,0,3.717,3.717h11.962Z" transform="translate(-226.566 -7.094)" fill="#f5f5f5"/>
      <path id="Trazado_614256" data-name="Trazado 614256" d="M493.129,40.48a4.131,4.131,0,0,0,3.279,4.009,3.2,3.2,0,0,0,.394.086c1.561.281,11.843,2.107,11.843,1.875V43.106H496.684S493.7,43,493.129,40.48Z" transform="translate(-226.703 -18.61)" fill="#bdbdbd"/>
      <path id="Trazado_614257" data-name="Trazado 614257" d="M483.771,67.518a4.414,4.414,0,0,0,.692-.081,3.962,3.962,0,0,0,3.242-3.663c.022-1.291,0-2.782,0-4.452-.011-6.694-.027-16.273-.049-27.84l.032.081c-4.749-4.884-10.044-10.335-15.69-16.149l.1.043H452.743a10.279,10.279,0,0,0-1.534.054,3.861,3.861,0,0,0-2.507,1.561,3.81,3.81,0,0,0-.708,1.961c-.027.708-.005,1.448-.016,2.167V33.94c0,5.527-.005,10.86-.005,15.938q0,3.809-.005,7.423v5.289a9.041,9.041,0,0,0,.076,1.68,3.889,3.889,0,0,0,1.8,2.566,3.827,3.827,0,0,0,1.475.519,15.151,15.151,0,0,0,1.572.043q3.144,0,6.029.011c7.677.016,13.891.032,18.191.043l4.949.027c.562.005.989.011,1.286.016s.438.016.438.016-.146.011-.438.016-.724.005-1.286.016l-4.949.027c-4.306.011-10.519.027-18.191.043-1.918,0-3.933.005-6.029.011a15.987,15.987,0,0,1-1.6-.038,4.107,4.107,0,0,1-3.479-3.258,9.253,9.253,0,0,1-.081-1.723V57.318c0-2.4,0-4.884-.005-7.423,0-5.079,0-10.411-.011-15.938V21.217c.005-.729-.016-1.443.016-2.188a4.125,4.125,0,0,1,3.442-3.782,9.746,9.746,0,0,1,1.578-.059h19.412l.038.043c5.64,5.824,10.93,11.281,15.668,16.17l.032.032v.049c-.022,11.567-.038,21.146-.049,27.84-.011,1.675,0,3.161-.027,4.463a4.006,4.006,0,0,1-3.339,3.7,3.254,3.254,0,0,1-.519.049h-.178Z" transform="translate(-205.826 -6.981)" fill="#bdbdbd"/>
      <path id="Trazado_614258" data-name="Trazado 614258" d="M508.385,31.576a2.021,2.021,0,0,1-.308.027c-.232.005-.524.016-.881.027-.805.011-1.9.027-3.242.043-1.378.011-3,.016-4.808.027H496.3a3.855,3.855,0,0,1-2.782-1.307A3.815,3.815,0,0,1,492.739,29a4.385,4.385,0,0,1-.173-1.529c0-.983.005-1.934.011-2.836.011-1.8.022-3.425.032-4.808.016-1.34.032-2.437.043-3.242.011-.357.022-.648.027-.881a1.405,1.405,0,0,1,.027-.308,1.078,1.078,0,0,1,.027.308l.027.881c.011.805.027,1.9.043,3.242.011,1.378.016,3,.032,4.808,0,.908,0,1.853.011,2.836a3.7,3.7,0,0,0,.9,2.728,3.6,3.6,0,0,0,2.577,1.216c.983,0,1.929.011,2.836.016,1.8.011,3.425.022,4.808.032,1.34.016,2.437.032,3.242.043.357.011.648.022.881.027a1.4,1.4,0,0,1,.308.027Z" transform="translate(-226.442 -7.08)" fill="#bdbdbd"/>
      <path id="Trazado_614259" data-name="Trazado 614259" d="M477.371,35.861c0,.076-3.771.14-8.423.14s-8.428-.065-8.428-.14,3.771-.14,8.428-.14S477.371,35.785,477.371,35.861Z" transform="translate(-211.712 -16.421)" fill="#bdbdbd"/>
      <path id="Trazado_614260" data-name="Trazado 614260" d="M485.367,47.351c0,.076-5.565.14-12.421.14s-12.426-.065-12.426-.14,5.559-.14,12.426-.14S485.367,47.275,485.367,47.351Z" transform="translate(-211.712 -21.704)" fill="#bdbdbd"/>
      <path id="Trazado_614261" data-name="Trazado 614261" d="M485.367,58.841c0,.076-5.565.14-12.421.14s-12.426-.065-12.426-.14,5.559-.14,12.426-.14S485.367,58.765,485.367,58.841Z" transform="translate(-211.712 -26.986)" fill="#bdbdbd"/>
      <path id="Trazado_614262" data-name="Trazado 614262" d="M485.372,70.321c0,.076-5.565.14-12.421.14s-12.421-.065-12.421-.14,5.559-.14,12.421-.14S485.372,70.245,485.372,70.321Z" transform="translate(-211.717 -32.264)" fill="#bdbdbd"/>
      <path id="Trazado_614263" data-name="Trazado 614263" d="M485.372,81.811c0,.076-5.565.14-12.421.14s-12.421-.065-12.421-.14,5.559-.14,12.421-.14S485.372,81.735,485.372,81.811Z" transform="translate(-211.717 -37.546)" fill="#bdbdbd"/>
      <path id="Trazado_614264" data-name="Trazado 614264" d="M485.372,95.981c0,.076-5.565.14-12.421.14s-12.421-.065-12.421-.14,5.559-.14,12.421-.14S485.372,95.9,485.372,95.981Z" transform="translate(-211.717 -44.06)" fill="#bdbdbd"/>
      <path id="Trazado_614265" data-name="Trazado 614265" d="M436.97,73.54h22.567a2.28,2.28,0,0,1,2.28,2.28v7.629a2.28,2.28,0,0,1-2.28,2.28H436.97a2.28,2.28,0,0,1-2.28-2.28V75.82A2.28,2.28,0,0,1,436.97,73.54Z" transform="translate(-199.837 -33.808)" fill="#bdbdbd"/>
      <path id="Trazado_614266" data-name="Trazado 614266" d="M450.923,82.57c0,1.027-.767,1.664-2,1.664h-.929V85.5H446.93V80.9h1.994C450.155,80.9,450.923,81.538,450.923,82.57Zm-1.081,0c0-.508-.33-.805-.978-.805h-.87v1.6h.87C449.518,83.364,449.842,83.067,449.842,82.57Z" transform="translate(-205.464 -37.192)" fill="#fff"/>
      <path id="Trazado_614267" data-name="Trazado 614267" d="M455.72,80.9h2.091a2.313,2.313,0,1,1,0,4.6H455.72Zm2.037,3.728a1.429,1.429,0,1,0,0-2.853h-.973v2.853Z" transform="translate(-209.505 -37.192)" fill="#fff"/>
      <path id="Trazado_614268" data-name="Trazado 614268" d="M466.844,81.754v1.216h2.134v.854h-2.134V85.5H465.78V80.9h3.479v.854Z" transform="translate(-214.13 -37.192)" fill="#fff"/>
      <path id="Trazado_614269" data-name="Trazado 614269" d="M215.87,50.9h17.256V21.16H215.87Z" transform="translate(-99.241 -9.728)" fill="#d6d6d6"/>
      <path id="Trazado_614270" data-name="Trazado 614270" d="M126.78,45.482h13.626V8.36H126.78Z" transform="translate(-58.284 -3.843)" fill="#d6d6d6"/>
      <path id="Trazado_614271" data-name="Trazado 614271" d="M126.49,13.146a59.154,59.154,0,0,1,6.959-.205,59.153,59.153,0,0,1,6.959.205,59.153,59.153,0,0,1-6.959.205A59.153,59.153,0,0,1,126.49,13.146Z" transform="translate(-58.15 -5.949)" fill="#c4c4c4"/>
      <path id="Trazado_614272" data-name="Trazado 614272" d="M127.88,16.406a52.871,52.871,0,0,1,6.581-.205,52.871,52.871,0,0,1,6.581.205,52.871,52.871,0,0,1-6.581.205A52.871,52.871,0,0,1,127.88,16.406Z" transform="translate(-58.79 -7.448)" fill="#c4c4c4"/>
      <path id="Trazado_614273" data-name="Trazado 614273" d="M138.5,44.828c-.113,0-.205-4.917-.205-10.984s.092-10.984.205-10.984.205,4.917.205,10.984S138.609,44.828,138.5,44.828Z" transform="translate(-63.575 -10.509)" fill="#c4c4c4"/>
      <path id="Trazado_614274" data-name="Trazado 614274" d="M126.78,69.636a54.379,54.379,0,0,1,6.672-.205,54.379,54.379,0,0,1,6.672.205,54.381,54.381,0,0,1-6.672.205A54.381,54.381,0,0,1,126.78,69.636Z" transform="translate(-58.284 -31.919)" fill="#c4c4c4"/>
      <path id="Trazado_614275" data-name="Trazado 614275" d="M126.78,72.585a57.145,57.145,0,0,1,6.84-.205,57.145,57.145,0,0,1,6.84.205,57.145,57.145,0,0,1-6.84.205A57.145,57.145,0,0,1,126.78,72.585Z" transform="translate(-58.284 -33.275)" fill="#c4c4c4"/>
      <path id="Trazado_614276" data-name="Trazado 614276" d="M151.99,42.066h10.946V.93H151.99Z" transform="translate(-69.873 -0.427)" fill="#bdbdbd"/>
      <path id="Trazado_614277" data-name="Trazado 614277" d="M151.854,35.9a10.686,10.686,0,0,1,1.691,1.172c1.129.854,2.469,1.875,3.949,3s2.82,2.145,3.944,3a10.821,10.821,0,0,1,1.583,1.318,10.272,10.272,0,0,1-1.756-1.081c-1.048-.713-2.48-1.74-4.025-2.912s-2.912-2.275-3.879-3.1a10.055,10.055,0,0,1-1.513-1.4Z" transform="translate(-69.808 -16.502)" fill="#c4c4c4"/>
      <path id="Trazado_614278" data-name="Trazado 614278" d="M151.769,23.978a62.577,62.577,0,0,1,5.6,4.528,62.72,62.72,0,0,1,5.333,4.841,62.572,62.572,0,0,1-5.6-4.528A62.715,62.715,0,0,1,151.769,23.978Z" transform="translate(-69.771 -11.022)" fill="#c4c4c4"/>
      <path id="Trazado_614279" data-name="Trazado 614279" d="M63.93,43.786h5.235V4.6H63.93Z" transform="translate(-29.39 -2.115)" fill="#d6d6d6"/>
      <path id="Trazado_614280" data-name="Trazado 614280" d="M64.34,14.258a6.311,6.311,0,0,0,2.453.249,6.192,6.192,0,0,0,2.453-.249,6.192,6.192,0,0,0-2.453-.249A6.192,6.192,0,0,0,64.34,14.258Z" transform="translate(-29.579 -6.441)" fill="#c4c4c4"/>
      <path id="Trazado_614281" data-name="Trazado 614281" d="M64.14,12.678a6.311,6.311,0,0,0,2.453.249,6.192,6.192,0,0,0,2.453-.249,6.192,6.192,0,0,0-2.453-.249A6.192,6.192,0,0,0,64.14,12.678Z" transform="translate(-29.487 -5.714)" fill="#c4c4c4"/>
      <path id="Trazado_614282" data-name="Trazado 614282" d="M64.34,71.308a6.311,6.311,0,0,0,2.453.249,6.192,6.192,0,0,0,2.453-.249,6.192,6.192,0,0,0-2.453-.249A6.192,6.192,0,0,0,64.34,71.308Z" transform="translate(-29.579 -32.668)" fill="#c4c4c4"/>
      <path id="Trazado_614283" data-name="Trazado 614283" d="M64.14,69.729a6.311,6.311,0,0,0,2.453.249,6.192,6.192,0,0,0,2.453-.249,6.192,6.192,0,0,0-2.453-.249A6.192,6.192,0,0,0,64.14,69.729Z" transform="translate(-29.487 -31.942)" fill="#c4c4c4"/>
      <path id="Trazado_614284" data-name="Trazado 614284" d="M68.859,43.4c.135,0,.249-4.49.249-10.022a100.286,100.286,0,0,0-.249-10.028,100.194,100.194,0,0,0-.249,10.028A100.038,100.038,0,0,0,68.859,43.4Z" transform="translate(-31.542 -10.735)" fill="#c4c4c4"/>
      <path id="Trazado_614285" data-name="Trazado 614285" d="M107.36,43.316h10.471V4.13H107.36Z" transform="translate(-49.356 -1.899)" fill="#bdbdbd"/>
      <path id="Trazado_614286" data-name="Trazado 614286" d="M115.647,43.882s.049-.07.124-.211.173-.362.3-.654a11.613,11.613,0,0,0,.762-2.658,6.919,6.919,0,0,0-.611-4.311A5.7,5.7,0,0,0,114.362,34a4.308,4.308,0,0,0-3.015-.713,3.158,3.158,0,0,0-1.561.719,2.069,2.069,0,0,0-.751,1.653,2.359,2.359,0,0,0,.9,1.659,3.233,3.233,0,0,0,1.788.756,4.75,4.75,0,0,0,3.712-1.351,5.966,5.966,0,0,0,1.842-3.766,10.036,10.036,0,0,0-.54-4.371,8.072,8.072,0,0,0-2.566-3.82,4.239,4.239,0,0,0-2.258-.891,2.947,2.947,0,0,0-2.35.832,1.926,1.926,0,0,0-.54,1.226,2.242,2.242,0,0,0,.362,1.28,3.4,3.4,0,0,0,2.112,1.443,4.935,4.935,0,0,0,4.614-1.545A7.688,7.688,0,0,0,117.9,22.7a10.948,10.948,0,0,0-.448-4.576,6.333,6.333,0,0,0-2.707-3.479,4.65,4.65,0,0,0-4.16-.438,2.18,2.18,0,0,0-1.351,1.6,2.535,2.535,0,0,0,.475,1.972,3.268,3.268,0,0,0,3.528.935,6.1,6.1,0,0,0,2.782-1.977,8.871,8.871,0,0,0,2.085-5.376,8.617,8.617,0,0,0-.967-4.257,8.419,8.419,0,0,0-1.648-2.221c-.232-.216-.416-.373-.546-.47a1.09,1.09,0,0,0-.205-.14,9.91,9.91,0,0,1,2.221,2.912,8.521,8.521,0,0,1,.864,4.16,8.672,8.672,0,0,1-2.075,5.16,5.754,5.754,0,0,1-2.626,1.837,2.891,2.891,0,0,1-3.1-.816,2.125,2.125,0,0,1-.389-1.648,1.747,1.747,0,0,1,1.113-1.28,4.229,4.229,0,0,1,3.755.427A5.854,5.854,0,0,1,117,18.263a10.469,10.469,0,0,1,.416,4.371,7.234,7.234,0,0,1-1.68,4.133A4.452,4.452,0,0,1,111.6,28.16a2.912,2.912,0,0,1-1.8-1.221,1.5,1.5,0,0,1,.113-1.913,2.453,2.453,0,0,1,1.961-.686,3.715,3.715,0,0,1,2,.789,7.626,7.626,0,0,1,2.415,3.587,9.583,9.583,0,0,1,.535,4.166,5.5,5.5,0,0,1-1.686,3.5,4.359,4.359,0,0,1-3.371,1.264,2.5,2.5,0,0,1-2.345-2.031,1.7,1.7,0,0,1,.611-1.361,2.806,2.806,0,0,1,1.378-.648,3.974,3.974,0,0,1,2.788.632,5.415,5.415,0,0,1,1.783,1.918,6.832,6.832,0,0,1,.665,4.155,12.1,12.1,0,0,1-.665,2.647c-.216.589-.346.891-.33.9Z" transform="translate(-50.117 -1.963)" fill="#c4c4c4"/>
      <path id="Trazado_614287" data-name="Trazado 614287" d="M73.48,46.321H91.644V10.63H73.48Z" transform="translate(-33.781 -4.887)" fill="#c4c4c4"/>
      <path id="Trazado_614288" data-name="Trazado 614288" d="M74.63,21.4a78.615,78.615,0,0,0,8.79.249,77.088,77.088,0,0,0,8.79-.249,77.011,77.011,0,0,0-8.79-.249A77.011,77.011,0,0,0,74.63,21.4Z" transform="translate(-34.309 -9.723)" fill="#bdbdbd"/>
      <path id="Trazado_614289" data-name="Trazado 614289" d="M74.21,26.408a76.558,76.558,0,0,0,8.677.249,75.208,75.208,0,0,0,8.682-.249,75.131,75.131,0,0,0-8.682-.249A75,75,0,0,0,74.21,26.408Z" transform="translate(-34.116 -12.026)" fill="#bdbdbd"/>
      <path id="Trazado_614290" data-name="Trazado 614290" d="M73.13,69.008a84.993,84.993,0,0,0,9.141.249,83.346,83.346,0,0,0,9.141-.249,83.262,83.262,0,0,0-9.141-.249A83.263,83.263,0,0,0,73.13,69.008Z" transform="translate(-33.62 -31.611)" fill="#bdbdbd"/>
      <path id="Trazado_614291" data-name="Trazado 614291" d="M73.58,63.128a80.618,80.618,0,0,0,8.9.249,79.054,79.054,0,0,0,8.9-.249,79.054,79.054,0,0,0-8.9-.249A79.053,79.053,0,0,0,73.58,63.128Z" transform="translate(-33.826 -28.907)" fill="#bdbdbd"/>
      <path id="Trazado_614292" data-name="Trazado 614292" d="M172.22,42.856h10.471V3.67H172.22Z" transform="translate(-79.174 -1.687)" fill="#d6d6d6"/>
      <path id="Trazado_614293" data-name="Trazado 614293" d="M180.517,43.423s.049-.07.124-.211.173-.362.3-.654A11.614,11.614,0,0,0,181.7,39.9a6.92,6.92,0,0,0-.611-4.311,5.7,5.7,0,0,0-1.859-2.048,4.308,4.308,0,0,0-3.015-.713,3.158,3.158,0,0,0-1.561.719A2.069,2.069,0,0,0,173.9,35.2a2.348,2.348,0,0,0,.9,1.659,3.233,3.233,0,0,0,1.788.756,4.75,4.75,0,0,0,3.712-1.351,5.965,5.965,0,0,0,1.842-3.766,10.036,10.036,0,0,0-.54-4.371,8.072,8.072,0,0,0-2.566-3.82,4.239,4.239,0,0,0-2.258-.891,2.947,2.947,0,0,0-2.35.832,1.926,1.926,0,0,0-.54,1.226,2.241,2.241,0,0,0,.362,1.28,3.4,3.4,0,0,0,2.112,1.443,4.935,4.935,0,0,0,4.614-1.545,7.688,7.688,0,0,0,1.794-4.414,10.948,10.948,0,0,0-.448-4.576,6.333,6.333,0,0,0-2.707-3.479,4.65,4.65,0,0,0-4.16-.438,2.18,2.18,0,0,0-1.351,1.6,2.535,2.535,0,0,0,.475,1.972,3.268,3.268,0,0,0,3.528.935,6.1,6.1,0,0,0,2.782-1.977,8.871,8.871,0,0,0,2.085-5.376,8.617,8.617,0,0,0-.967-4.257,8.419,8.419,0,0,0-1.648-2.221c-.232-.216-.416-.373-.546-.47a1.09,1.09,0,0,0-.205-.14,9.91,9.91,0,0,1,2.221,2.912,8.521,8.521,0,0,1,.864,4.16,8.672,8.672,0,0,1-2.075,5.16,5.754,5.754,0,0,1-2.626,1.837,2.891,2.891,0,0,1-3.1-.816,2.125,2.125,0,0,1-.389-1.648,1.747,1.747,0,0,1,1.113-1.28,4.216,4.216,0,0,1,3.75.427,5.854,5.854,0,0,1,2.491,3.242,10.469,10.469,0,0,1,.416,4.371,7.249,7.249,0,0,1-1.68,4.133A4.452,4.452,0,0,1,176.46,27.7a2.912,2.912,0,0,1-1.8-1.221,1.5,1.5,0,0,1,.113-1.913,2.453,2.453,0,0,1,1.961-.686,3.715,3.715,0,0,1,2,.789,7.626,7.626,0,0,1,2.415,3.587,9.583,9.583,0,0,1,.535,4.166,5.5,5.5,0,0,1-1.686,3.5,4.359,4.359,0,0,1-3.371,1.264,2.5,2.5,0,0,1-2.345-2.031,1.7,1.7,0,0,1,.611-1.361,2.806,2.806,0,0,1,1.378-.648,3.974,3.974,0,0,1,2.788.632,5.415,5.415,0,0,1,1.783,1.918,6.832,6.832,0,0,1,.665,4.155,12.1,12.1,0,0,1-.665,2.647c-.216.589-.346.891-.33.9Z" transform="translate(-79.94 -1.751)" fill="#c4c4c4"/>
      <path id="Trazado_614294" data-name="Trazado 614294" d="M37,41.169H51.55V0H37Z" transform="translate(-17.01)" fill="#bdbdbd"/>
      <path id="Trazado_614295" data-name="Trazado 614295" d="M191.6,45.017h13.61V8.37H191.6Z" transform="translate(-88.083 -3.848)" fill="#bdbdbd"/>
      <path id="Trazado_614296" data-name="Trazado 614296" d="M217.42,42.05a11.409,11.409,0,0,0,2.161,1.54,7.557,7.557,0,0,0,2.739.762,7.086,7.086,0,0,0,3.4-.589c1.145-.492,2.2-1.118,3.269-1.491a5.107,5.107,0,0,1,2.966-.27,3.189,3.189,0,0,1,1.718,1.043,1.241,1.241,0,0,1,.335.654c-.032.016-.135-.227-.459-.546a3.237,3.237,0,0,0-1.664-.864,4.976,4.976,0,0,0-2.772.346c-1.016.373-2.048,1-3.236,1.513a7.19,7.19,0,0,1-3.593.589,7.37,7.37,0,0,1-2.842-.881,6.429,6.429,0,0,1-1.588-1.216,1.941,1.941,0,0,1-.443-.583Z" transform="translate(-99.948 -19.256)" fill="#c4c4c4"/>
      <path id="Trazado_614297" data-name="Trazado 614297" d="M216.85,48.76a11.409,11.409,0,0,0,2.161,1.54,7.557,7.557,0,0,0,2.739.762,7.086,7.086,0,0,0,3.4-.589c1.145-.492,2.2-1.118,3.269-1.491a5.11,5.11,0,0,1,2.966-.27,3.157,3.157,0,0,1,1.718,1.043,1.241,1.241,0,0,1,.335.654c-.032.016-.135-.227-.459-.546A3.237,3.237,0,0,0,231.313,49a4.976,4.976,0,0,0-2.772.346c-1.016.373-2.048,1-3.236,1.513a7.19,7.19,0,0,1-3.593.589,7.37,7.37,0,0,1-2.842-.881,6.429,6.429,0,0,1-1.588-1.216,1.941,1.941,0,0,1-.443-.583Z" transform="translate(-99.685 -22.34)" fill="#c4c4c4"/>
      <path id="Trazado_614298" data-name="Trazado 614298" d="M217.28,27.005c0-.113,3.744-.205,8.369-.205s8.369.092,8.369.205-3.744.205-8.369.205S217.28,27.119,217.28,27.005Z" transform="translate(-99.889 -12.321)" fill="#c4c4c4"/>
      <path id="Trazado_614299" data-name="Trazado 614299" d="M203.669,18.945a1.944,1.944,0,0,0-1.183-.1,1.426,1.426,0,0,0-.918.762,1.315,1.315,0,0,0,1.686,1.626,1.421,1.421,0,0,0,.729-.951,1.974,1.974,0,0,0-.146-1.178c.016-.016.135.049.259.254a1.479,1.479,0,0,1,.173.983,1.669,1.669,0,0,1-.848,1.237,1.673,1.673,0,0,1-2.21-2.123,1.676,1.676,0,0,1,1.2-.891,1.5,1.5,0,0,1,.989.135c.205.119.276.238.265.249Z" transform="translate(-92.442 -8.523)" fill="#c4c4c4"/>
      <path id="Trazado_614300" data-name="Trazado 614300" d="M204.065,49.871c-.113,0-.205-5.138-.205-11.475s.092-11.475.205-11.475.205,5.138.205,11.475S204.179,49.871,204.065,49.871Z" transform="translate(-93.719 -12.376)" fill="#c4c4c4"/>
      <path id="Trazado_614301" data-name="Trazado 614301" d="M154.279,75.81H13.44v8.039H154.279Z" transform="translate(-6.179 -34.852)" fill="#d6d6d6"/>
      <path id="Trazado_614302" data-name="Trazado 614302" d="M263.657,75.81h-12.3v8.039h12.3Z" transform="translate(-115.556 -34.852)" fill="#bdbdbd"/>
      <path id="Trazado_614303" data-name="Trazado 614303" d="M286.642,52.031l-.686,55.33c-.119,9.412,1.632,23.253,16.516,22.762,12.88-1.4,16.3-13.6,16.4-22.378.049-4.166.1-7.64.13-8.066,0,0,14.1-1.151,15.29-15.079.573-6.732.632-20.693.535-33.319a26.032,26.032,0,0,0-24.15-25.755l-1.345-.1c-14.566-.211-22.886,12.043-22.692,26.609Z" transform="translate(-131.458 -11.689)" fill="#ffbe9d"/>
      <path id="Trazado_614304" data-name="Trazado 614304" d="M332.019,157.164a33.741,33.741,0,0,1-17.759-6.694s3.685,10.508,17.689,10.265l.07-3.577Z" transform="translate(-144.473 -69.175)" fill="#eb996e"/>
      <path id="Trazado_614305" data-name="Trazado 614305" d="M325.06,81.745c-.276.281-1.886-1.01-4.22-1.075-2.329-.1-4.074,1.081-4.322.783-.119-.135.167-.648.929-1.183a5.832,5.832,0,0,1,3.469-.983,5.7,5.7,0,0,1,3.35,1.216C324.968,81.086,325.195,81.621,325.06,81.745Z" transform="translate(-145.499 -36.449)" fill="#263238"/>
      <path id="Trazado_614306" data-name="Trazado 614306" d="M328.23,91.212a1.886,1.886,0,0,1-1.956,1.767,1.807,1.807,0,0,1-1.815-1.842,1.884,1.884,0,0,1,1.95-1.767A1.809,1.809,0,0,1,328.23,91.212Z" transform="translate(-149.161 -41.085)" fill="#263238"/>
      <path id="Trazado_614307" data-name="Trazado 614307" d="M343.165,98.64a14.178,14.178,0,0,1,3.528-.373c.551-.016,1.075-.086,1.194-.454a2.781,2.781,0,0,0-.249-1.648q-.624-2.042-1.313-4.284c-1.815-6.094-3.085-11.092-2.836-11.162s1.918,4.814,3.728,10.908c.432,1.5.848,2.934,1.243,4.306a3.162,3.162,0,0,1,.124,2.167,1.378,1.378,0,0,1-.956.735,3.642,3.642,0,0,1-.94.059,13.9,13.9,0,0,1-3.528-.254Z" transform="translate(-157.759 -37.108)" fill="#263238"/>
      <path id="Trazado_614308" data-name="Trazado 614308" d="M323.118,66.105c-.227.519-2.1.13-4.333.243-2.237.07-4.074.611-4.333.108-.113-.238.232-.713.994-1.178a7.134,7.134,0,0,1,3.274-.924,6.974,6.974,0,0,1,3.328.654c.789.4,1.167.848,1.07,1.091Z" transform="translate(-144.551 -29.583)" fill="#263238"/>
      <path id="Trazado_614309" data-name="Trazado 614309" d="M364.243,74.07c-.243.421-2.064-.049-4.274-.113-2.2-.108-4.036.216-4.274-.227-.1-.211.259-.589,1.032-.924a7.75,7.75,0,0,1,3.263-.54,8,8,0,0,1,3.247.8C363.994,73.459,364.351,73.87,364.243,74.07Z" transform="translate(-163.514 -33.219)" fill="#263238"/>
      <path id="Trazado_614310" data-name="Trazado 614310" d="M279.633,93.344c-.232-.119-9.374-3.533-9.763,6.019s9.282,7.974,9.309,7.7S279.633,93.344,279.633,93.344Z" transform="translate(-124.061 -42.596)" fill="#ffbe9d"/>
      <path id="Trazado_614311" data-name="Trazado 614311" d="M278.468,105.916c-.043-.032-.173.108-.459.227a1.647,1.647,0,0,1-1.243-.027c-.994-.411-1.777-2.048-1.756-3.771a5.489,5.489,0,0,1,.562-2.361,1.93,1.93,0,0,1,1.3-1.226.842.842,0,0,1,.962.5c.119.27.049.459.1.481.027.027.211-.151.151-.551a1.087,1.087,0,0,0-.351-.616,1.273,1.273,0,0,0-.908-.281,2.334,2.334,0,0,0-1.8,1.41,5.632,5.632,0,0,0-.686,2.637c-.016,1.929.9,3.771,2.258,4.225a1.793,1.793,0,0,0,1.534-.189C278.44,106.149,278.495,105.933,278.468,105.916Z" transform="translate(-126.121 -45.184)" fill="#eb996e"/>
      <path id="Trazado_614312" data-name="Trazado 614312" d="M334.693,120.9c.1-.243-1.767-.8-3.085-2.556a10.681,10.681,0,0,1-1.324-2.5c-.281-.692-.492-1.129-.594-1.1s-.076.5.081,1.253A7.057,7.057,0,0,0,331,118.8a5.717,5.717,0,0,0,2.442,1.869C334.174,120.962,334.666,120.978,334.693,120.9Z" transform="translate(-151.54 -52.752)" fill="#263238"/>
      <path id="Trazado_614313" data-name="Trazado 614313" d="M342.866,31.637a2.271,2.271,0,0,0-1.059-1.318,6.968,6.968,0,0,0-3.56-.578,20.157,20.157,0,0,1-10.476-3.182,46.848,46.848,0,0,0-4.873-5.905c-4.22-4.355-7.694-7.315-11.292-8.763-4.646-1.869-12.421-2.631-17.267-1.356s-9.2,5.2-9.871,10.168c-2.718-2.3-6.8-2.28-10.109-.945l-.081-.038c-3.685,1.313-5.781,5.208-6.867,8.969s-1.551,7.78-3.544,11.151c-.416.7-.913,1.551-.546,2.28a1.551,1.551,0,0,0,1.626.708,4.536,4.536,0,0,0,1.718-.778q-.616,1.475-1.232,2.955a8.684,8.684,0,0,0,4.009-.27,86.138,86.138,0,0,0,2.62,9.914c1.54,0,2.95.108,3.9.962,1.291,1.162,1.869,3.344,4.014,2.518,1.091-.421,2.091-2.712,2.453-3.825a54.362,54.362,0,0,0,2.356-23.01,17.59,17.59,0,0,1,5.4-3.9l-.167.146c3.9-1.351,8.293-2.68,11.989-.854,2.863,1.416,4.549,4.392,6.689,6.764a21.891,21.891,0,0,0,15.587,7.2c.205,3.922-.124,9.466.081,13.388l3.3-6.283v.032a14.683,14.683,0,0,0,.713-1.389l.076-.14v-.016a24.382,24.382,0,0,1,1.1-2.231l.038.032a2.452,2.452,0,0,0,3.582-3.279,5.487,5.487,0,0,0-1.183-1.189,3.872,3.872,0,0,0,3.7.956,3.034,3.034,0,0,0,2.15-3.009,2.584,2.584,0,0,0-1.54-2.075,8.757,8.757,0,0,0,4.971-1.1c.983-.562,1.945-1.48,1.61-2.712Z" transform="translate(-120.996 -4.552)" fill="#263238"/>
      <path id="Trazado_614314" data-name="Trazado 614314" d="M293.266,32.822a12.06,12.06,0,0,0-1.4,1.28,10,10,0,0,0-2.139,4.625,17.436,17.436,0,0,0-.357,3.539c-.005,1.286.1,2.658.195,4.106a36.246,36.246,0,0,1,.1,4.571,16.18,16.18,0,0,1-.313,2.41,5.011,5.011,0,0,1-.983,2.339,2.09,2.09,0,0,1-1.967.659,3.1,3.1,0,0,1-1.767-1,7.267,7.267,0,0,1-1.345-3.544l.292.038a11.442,11.442,0,0,1-1.7,2.917,4.134,4.134,0,0,1-2.712,1.475,2.7,2.7,0,0,1-1.437-.254,2.4,2.4,0,0,1-1.275-2.2,1.717,1.717,0,0,1,.448-1.086l.146.13a9.1,9.1,0,0,1-2.993,2.248,7.9,7.9,0,0,1-.929.362,1.272,1.272,0,0,1-.335.081,1.573,1.573,0,0,1,.313-.135c.205-.086.513-.211.9-.405a9.269,9.269,0,0,0,2.89-2.28l.146.13a1.78,1.78,0,0,0-.092,2.069,2.086,2.086,0,0,0,.881.848,2.4,2.4,0,0,0,1.3.211,3.894,3.894,0,0,0,2.518-1.4,11.467,11.467,0,0,0,1.632-2.858l.2-.448.092.481a6.958,6.958,0,0,0,1.28,3.388,2.781,2.781,0,0,0,1.583.891,1.759,1.759,0,0,0,1.669-.562,4.707,4.707,0,0,0,.908-2.188,16.165,16.165,0,0,0,.313-2.361,36.868,36.868,0,0,0-.086-4.533c-.092-1.448-.184-2.826-.167-4.128a17.432,17.432,0,0,1,.4-3.587,9.9,9.9,0,0,1,2.269-4.663,5.763,5.763,0,0,1,1.491-1.194Z" transform="translate(-125.413 -15.074)" fill="#455a64"/>
      <path id="Trazado_614315" data-name="Trazado 614315" d="M354.191,39.761a.732.732,0,0,1-.113.1c-.092.07-.211.151-.346.254a4.5,4.5,0,0,1-.589.378,7.129,7.129,0,0,1-.848.448,12.375,12.375,0,0,1-5.965,1.075,15.755,15.755,0,0,1-8.407-3.107,27.342,27.342,0,0,1-7.223-8.326c-1.016-1.686-1.837-3.415-2.75-5.014a18.386,18.386,0,0,0-3.112-4.241,9.516,9.516,0,0,0-4.014-2.437,6.852,6.852,0,0,0-2.118-.243,7.44,7.44,0,0,0-1.94.373,8.055,8.055,0,0,0-2.907,1.75,7.89,7.89,0,0,0-1.572,2.042,9.55,9.55,0,0,0-.719,2.091.6.6,0,0,1,.011-.146c.016-.113.038-.254.065-.427a6.973,6.973,0,0,1,.529-1.572,7.853,7.853,0,0,1,1.561-2.112,8.169,8.169,0,0,1,2.955-1.837,7.589,7.589,0,0,1,2-.405,7.069,7.069,0,0,1,2.2.232,9.7,9.7,0,0,1,4.149,2.48,18.594,18.594,0,0,1,3.182,4.3c.924,1.61,1.75,3.334,2.755,5a27.4,27.4,0,0,0,7.121,8.25,15.683,15.683,0,0,0,8.245,3.117,12.54,12.54,0,0,0,5.894-.956,19.469,19.469,0,0,0,1.95-1.059Z" transform="translate(-143.234 -8.458)" fill="#455a64"/>
      <path id="Trazado_614316" data-name="Trazado 614316" d="M380.25,46.606a4.787,4.787,0,0,1-.5.346,10.747,10.747,0,0,1-1.48.751,14.57,14.57,0,0,1-2.345.767,15.071,15.071,0,0,1-6.008.194,14.79,14.79,0,0,1-2.388-.616,11.1,11.1,0,0,1-1.524-.654,2.293,2.293,0,0,1-.519-.313c.027-.054.794.34,2.118.751a16.772,16.772,0,0,0,2.361.54,17.194,17.194,0,0,0,2.961.173,17.768,17.768,0,0,0,2.939-.362,15.912,15.912,0,0,0,2.323-.691c1.291-.5,2.037-.94,2.064-.886Z" transform="translate(-168.024 -21.424)" fill="#455a64"/>
      <path id="Trazado_614317" data-name="Trazado 614317" d="M364.44,83.375c-.276.281-1.886-1.016-4.22-1.075-2.329-.1-4.074,1.081-4.322.783-.119-.135.167-.648.929-1.183a5.832,5.832,0,0,1,3.469-.983,5.7,5.7,0,0,1,3.35,1.216C364.348,82.716,364.575,83.251,364.44,83.375Z" transform="translate(-163.603 -37.198)" fill="#263238"/>
      <path id="Trazado_614318" data-name="Trazado 614318" d="M364.11,92.462a1.886,1.886,0,0,1-1.956,1.767,1.807,1.807,0,0,1-1.815-1.842,1.888,1.888,0,0,1,1.95-1.767A1.809,1.809,0,0,1,364.11,92.462Z" transform="translate(-165.656 -41.66)" fill="#263238"/>
      <path id="Trazado_614319" data-name="Trazado 614319" d="M502.575,183.723a3.846,3.846,0,0,0-3.868-4.047c-1.475-1.934-3.134-1.232-3.134-1.232l-6.262,4.225c-.918,1.583-7,7.569-7,7.569-1.659-1.232-1.659-3.7-3.641-6.689s-6.483-2.642-6.483-2.642,3.5,7.92,3.868,12.848-2.691,18.672-2.691,18.672l17.7,4.976s1.118-7.542,3.1-8.147c2.388-.735,3.717-4.257,3.717-4.257,2.583-5.23,7.823-12.826,8.558-16.7s-3.868-4.576-3.868-4.576Z" transform="translate(-217.077 -81.978)" fill="#ffbe9d"/>
      <path id="Trazado_614320" data-name="Trazado 614320" d="M258.105,172.115c11.276,7.088,22.638,9.752,34.151,5.165l17.3,4.419L326.58,295.423l-99.8.864,4.917-26.414,12.372-94.9,14.042-2.858Z" transform="translate(-104.256 -79.123)" fill="#455a64"/>
      <path id="Trazado_614321" data-name="Trazado 614321" d="M379.985,189.85s13.458,5.586,18.591,15.376,13.388,37.263,13.388,37.263l15.2-27.921,28.219,7.213s-21.006,57.939-26.279,63.212c-5.776,5.776-21.508,11.6-29.207,7.1s-9.271-21.552-9.271-21.552l-10.649-80.7Z" transform="translate(-174.686 -87.279)" fill="#455a64"/>
      <path id="Trazado_614322" data-name="Trazado 614322" d="M381.58,258.692c-.076,0-.14-5.052-.14-11.281s.065-11.281.14-11.281.14,5.052.14,11.281S381.656,258.692,381.58,258.692Z" transform="translate(-175.357 -108.555)" fill="#263238"/>
      <path id="Trazado_614323" data-name="Trazado 614323" d="M388.055,201.88a16.648,16.648,0,0,1-.659,1.864c-.421,1.14-.989,2.728-1.534,4.5s-.978,3.4-1.275,4.582a15.713,15.713,0,0,1-.513,1.907,1.773,1.773,0,0,1,.054-.529c.049-.34.141-.827.265-1.421.249-1.194.648-2.836,1.2-4.619s1.145-3.366,1.621-4.49c.238-.562.438-1.016.583-1.324a1.842,1.842,0,0,1,.254-.465Z" transform="translate(-176.564 -92.809)" fill="#263238"/>
      <path id="Trazado_614324" data-name="Trazado 614324" d="M207.493,219.769l3.123-42.849s-23.491,2.177-31.266,18.753c-6.554,13.966-24.631,55.983-26.571,61.732-5.678,16.867,3.193,40.056,39.77,38.716l4.171-22.929,10.773-53.417Z" transform="translate(-69.512 -81.334)" fill="#455a64"/>
      <path id="Trazado_614325" data-name="Trazado 614325" d="M206.71,356.231s.059-.146.189-.411c.146-.286.346-.67.594-1.151.54-1.021,1.3-2.453,2.242-4.214.238-.443.486-.908.751-1.394a4.125,4.125,0,0,1,1.075-1.383,2.925,2.925,0,0,1,1.8-.519,8.071,8.071,0,0,1,1.945.313,20.062,20.062,0,0,1,3.933,1.486,10.205,10.205,0,0,1,1.886,1.2l.216.189a.652.652,0,0,1,.184.292,2.327,2.327,0,0,1,.119.589,9.29,9.29,0,0,1,.027,1.162c-.059,1.551-.249,3.042-.443,4.479s-.416,2.82-.638,4.138c-.443,2.631-.886,4.992-1.264,6.97-.384,1.956-.7,3.55-.918,4.684-.1.535-.189.956-.249,1.275-.059.292-.086.443-.092.443a2.2,2.2,0,0,1,.038-.454c.038-.3.108-.729.2-1.286.2-1.14.481-2.739.832-4.7.351-1.983.778-4.344,1.2-6.975.211-1.313.427-2.7.621-4.133s.378-2.928.432-4.452a9.8,9.8,0,0,0-.022-1.129,2.207,2.207,0,0,0-.1-.519.483.483,0,0,0-.113-.184l-.205-.178a10.425,10.425,0,0,0-1.832-1.172,20.062,20.062,0,0,0-3.868-1.48,8.106,8.106,0,0,0-1.886-.319,2.683,2.683,0,0,0-1.664.459,3.886,3.886,0,0,0-1.021,1.3c-.265.481-.519.945-.762,1.383-.967,1.745-1.756,3.166-2.318,4.171-.27.47-.481.848-.643,1.129a2.607,2.607,0,0,1-.243.384Z" transform="translate(-95.03 -159.597)" fill="#263238"/>
      <path id="Trazado_614326" data-name="Trazado 614326" d="M175.26,326.261s.1-.011.276-.011c.211.011.475.016.789.032.686.032,1.675.092,2.9.205a37.314,37.314,0,0,1,4.268.621,21.678,21.678,0,0,1,5.019,1.664,19.677,19.677,0,0,1,4.414,2.912,11.679,11.679,0,0,1,2.68,3.388,7.563,7.563,0,0,1,.81,2.793,5.149,5.149,0,0,1,.016.794,1.019,1.019,0,0,1-.022.276c-.032,0-.022-.384-.1-1.054a7.927,7.927,0,0,0-.881-2.718,11.871,11.871,0,0,0-2.674-3.285,19.994,19.994,0,0,0-4.365-2.853,22.523,22.523,0,0,0-4.949-1.664,40.353,40.353,0,0,0-4.23-.675c-1.216-.141-2.2-.227-2.885-.292l-.783-.081a.868.868,0,0,1-.27-.049Z" transform="translate(-80.571 -149.985)" fill="#263238"/>
      <path id="Trazado_614327" data-name="Trazado 614327" d="M217.7,322.27a10.073,10.073,0,0,1-.583,1.686c-.4,1.027-1,2.426-1.691,3.955-.67,1.491-1.28,2.842-1.761,3.917a12.175,12.175,0,0,1-.767,1.61,10.073,10.073,0,0,1,.583-1.686c.4-1.027,1-2.426,1.691-3.955.67-1.491,1.28-2.842,1.761-3.917A12.181,12.181,0,0,1,217.7,322.27Z" transform="translate(-97.872 -148.155)" fill="#263238"/>
      <path id="Trazado_614328" data-name="Trazado 614328" d="M245.73,249.525c-.076,0-.14-2.718-.14-6.067s.065-6.067.14-6.067.14,2.718.14,6.067S245.806,249.525,245.73,249.525Z" transform="translate(-112.904 -109.134)" fill="#263238"/>
      <g id="Grupo_1016096" data-name="Grupo 1016096" transform="translate(103.632 188.945)" opacity="0.3">
        <path id="Trazado_614329" data-name="Trazado 614329" d="M204.016,349.72c-6.181,2.156-10.357,7.764-12.043,14.085a2.185,2.185,0,0,0,.146,1.972,1.548,1.548,0,0,0,1.94.157,4.547,4.547,0,0,0,1.378-1.583A162.718,162.718,0,0,0,204.016,349.72Z" transform="translate(-191.814 -349.72)"/>
      </g>
      <g id="Grupo_1016097" data-name="Grupo 1016097" transform="translate(88.659 173.914)" opacity="0.3">
        <path id="Trazado_614330" data-name="Trazado 614330" d="M183.609,324.708a24.93,24.93,0,0,0-10.638-2.788,16.21,16.21,0,0,0-4.3.378c-1.929.405-4.144,1.378-4.571,2.766,4.436-1.388,10.962-.475,15.506.519a16.637,16.637,0,0,1,10.854,7.694,15.489,15.489,0,0,0-6.856-8.563Z" transform="translate(-164.1 -321.898)"/>
      </g>
      <path id="Trazado_614331" data-name="Trazado 614331" d="M231.809,213.077a6.411,6.411,0,0,1-.216-.675c-.113-.438-.3-1.07-.556-1.842a29.751,29.751,0,0,0-6.381-10.849c-.551-.6-1.01-1.07-1.34-1.383a3.5,3.5,0,0,1-.486-.519,3.406,3.406,0,0,1,.562.438c.351.292.837.746,1.41,1.329a26.85,26.85,0,0,1,6.429,10.93,19.034,19.034,0,0,1,.475,1.875,3.3,3.3,0,0,1,.108.7Z" transform="translate(-102.44 -90.937)" fill="#263238"/>
      <path id="Trazado_614332" data-name="Trazado 614332" d="M232.8,336.607,206.62,273.454c-1.194-2.88.3-5.219,3.344-5.219h5.268c2.15,0,3.614-1.183,3.75-3.031l.173-2.323c.14-1.848,1.6-3.031,3.76-3.031h25.026a8.75,8.75,0,0,1,5.8,2.566l2.031,1.967a8.753,8.753,0,0,0,5.792,2.566h31.871a8.893,8.893,0,0,1,7.612,5.219l25.949,64.444H232.8Z" transform="translate(-94.799 -119.459)" fill="#354d1d"/>
      <g id="Grupo_1016098" data-name="Grupo 1016098" transform="translate(111.41 140.391)" opacity="0.3">
        <path id="Trazado_614333" data-name="Trazado 614333" d="M232.8,336.607,206.62,273.454c-1.194-2.88.3-5.219,3.344-5.219h5.268c2.15,0,3.614-1.183,3.75-3.031l.173-2.323c.14-1.848,1.6-3.031,3.76-3.031h25.026a8.75,8.75,0,0,1,5.8,2.566l2.031,1.967a8.753,8.753,0,0,0,5.792,2.566h31.871a8.893,8.893,0,0,1,7.612,5.219l25.949,64.444H232.8Z" transform="translate(-206.209 -259.85)"/>
      </g>
      <path id="Trazado_614334" data-name="Trazado 614334" d="M238.889,325.456l-9.871-38.171c-.648-2.512.994-5.035,3.285-5.035h77.384a3.532,3.532,0,0,1,3.3,2.842l14.371,57.453c.632,2.523-.378,4.036-2.669,4.009l-77.859.022a3.531,3.531,0,0,1-3.252-2.82l-4.679-18.3Z" transform="translate(-105.22 -129.757)" fill="#bdbdbd"/>
      <path id="Trazado_614335" data-name="Trazado 614335" d="M253.725,344.215l-4.2-60.111a3.684,3.684,0,0,1,3.679-3.944h80.177v64.055H253.725Z" transform="translate(-114.707 -128.796)" fill="#d6d6d6"/>
      <path id="Trazado_614336" data-name="Trazado 614336" d="M255.645,345.593l9.536-61.97a4.439,4.439,0,0,1,4.36-3.463h81.106a4.385,4.385,0,0,1,4.1,6.105l-17.516,56.707-81.587,2.61Z" transform="translate(-117.524 -128.796)" fill="#c4c4c4"/>
      <path id="Trazado_614337" data-name="Trazado 614337" d="M255.42,349.052l19.671-58.036a5.821,5.821,0,0,1,5.473-4.036h83.613a4.088,4.088,0,0,1,3.733,5.424l-18.294,56.68-94.2-.027Z" transform="translate(-117.423 -131.932)" fill="#354d1d"/>
      <g id="Grupo_1016099" data-name="Grupo 1016099" transform="translate(139.709 182.462)" opacity="0.3">
        <path id="Trazado_614338" data-name="Trazado 614338" d="M297.305,362.659s-3.155.146-4.614.243a42.943,42.943,0,0,1-20.314-3.6c-1.967-.875-4.047-2.112-4.641-4.182-.665-2.318.837-4.733,2.664-6.305s4.057-2.691,5.646-4.506,2.339-4.754.778-6.586l-.432.319c-1.129,2.863-4.279,4.247-6.889,5.889a24.32,24.32,0,0,0-10.211,13.345c-.918,3-1.162,6.51.659,9.071a11.317,11.317,0,0,0,5.5,3.625c6.327,2.345,13.086,2.431,19.834,2.442,2.134,0,8.671-.086,8.671-.086,2.058-.562,2.734-1.632,3.971-3.366,1.135-1.594.886-5.041-.621-6.294Z" transform="translate(-258.588 -337.72)"/>
      </g>
      <path id="Trazado_614339" data-name="Trazado 614339" d="M283.657,361.482,261.851,358.2l-8.466-4.873a3.806,3.806,0,0,1-1.945-3.074v-.07a3.861,3.861,0,0,1,2.4-3.69c2.685-1.129,6.943-2.637,8.758-5.819,2.61-4.571,0-5.516,0-5.516l-18.213,7.277-12.891,8.774L228.9,365.842l17.986,5.873s20.044,1.129,25.577.508,5.532-3.2,5.532-3.2c1.027-.319,3.1-2.145,3.1-3.841,2.685-2.518,2.572-3.706,2.572-3.706" transform="translate(-105.231 -154.081)" fill="#ffbe9d"/>
      <path id="Trazado_614340" data-name="Trazado 614340" d="M278.615,395.535a8.5,8.5,0,0,1,.9.173c.567.14,1.4.324,2.426.524a51.2,51.2,0,0,0,16.273.632c1.037-.124,1.88-.243,2.458-.335a5.006,5.006,0,0,1,.908-.1,4.471,4.471,0,0,1-.881.243c-.573.135-1.41.3-2.453.454a44.359,44.359,0,0,1-16.365-.638c-1.026-.238-1.848-.459-2.41-.643a3.96,3.96,0,0,1-.859-.313Z" transform="translate(-128.083 -181.835)" fill="#eb996e"/>
      <path id="Trazado_614341" data-name="Trazado 614341" d="M282.305,389.3a9.142,9.142,0,0,1,.913.173c.578.14,1.421.324,2.464.524a53.123,53.123,0,0,0,8.245.913,55.746,55.746,0,0,0,8.288-.378c1.054-.13,1.907-.249,2.5-.346a4.154,4.154,0,0,1,.924-.1,4.331,4.331,0,0,1-.9.249c-.583.14-1.432.3-2.491.459a46.651,46.651,0,0,1-8.336.492,44.742,44.742,0,0,1-8.288-1.027c-1.043-.232-1.88-.459-2.447-.643a4.244,4.244,0,0,1-.875-.313Z" transform="translate(-129.78 -178.971)" fill="#eb996e"/>
      <path id="Trazado_614342" data-name="Trazado 614342" d="M473.361,188.487l-38.749,7.656a4.945,4.945,0,0,1-5.808-3.89L418.209,138.62a4.945,4.945,0,0,1,3.89-5.808l24.572-4.852,22.9,15.852,7.677,38.873a4.945,4.945,0,0,1-3.89,5.808Z" transform="translate(-192.217 -58.826)" fill="#d6d6d6"/>
      <path id="Trazado_614343" data-name="Trazado 614343" d="M470.985,127.96l2.982,15.1a4.594,4.594,0,0,0,5.4,3.62l14.512-2.863-22.9-15.852Z" transform="translate(-216.521 -58.826)" fill="#f5f5f5"/>
      <path id="Trazado_614344" data-name="Trazado 614344" d="M477.36,157.825A5.105,5.105,0,0,0,482.3,161.9a3.839,3.839,0,0,0,.5.011c1.961-.038,14.874-.281,14.82-.567-.059-.308-.8-4.057-.8-4.057L482.3,160.159s-3.647.594-4.938-2.334Z" transform="translate(-219.454 -72.31)" fill="#bdbdbd"/>
      <path id="Trazado_614345" data-name="Trazado 614345" d="M473.253,188.363s.07-.022.211-.059a4.033,4.033,0,0,0,.61-.2,4.909,4.909,0,0,0,3.063-5.23c-.281-1.572-.67-3.377-1.07-5.4-1.615-8.115-3.928-19.731-6.721-33.767l.049.076-22.9-15.835.1.022c-4.555.9-9.3,1.837-14.177,2.8q-3.663.721-7.418,1.464l-1.88.373a12.865,12.865,0,0,0-1.853.438,4.788,4.788,0,0,0-2.685,2.512,4.721,4.721,0,0,0-.389,2.566c.135.87.34,1.761.5,2.637q.519,2.634,1.032,5.23,1.021,5.195,2.021,10.227c1.324,6.7,2.6,13.172,3.809,19.336q.908,4.619,1.772,9.006c.286,1.459.573,2.9.848,4.311.141.708.276,1.41.416,2.107a11.94,11.94,0,0,0,.492,2.026,4.837,4.837,0,0,0,2.826,2.7,4.774,4.774,0,0,0,1.923.281,17.988,17.988,0,0,0,1.918-.324q3.817-.746,7.315-1.437c9.32-1.821,16.862-3.3,22.081-4.317,2.6-.5,4.625-.891,6.008-1.162l1.561-.3c.351-.065.535-.092.535-.092s-.178.043-.529.119-.875.184-1.556.324c-1.378.276-3.4.686-6,1.21-5.214,1.043-12.75,2.545-22.065,4.4-2.329.465-4.771.945-7.31,1.453a18.343,18.343,0,0,1-1.95.335,5.047,5.047,0,0,1-4.971-3.107,11.7,11.7,0,0,1-.513-2.069c-.141-.7-.276-1.4-.416-2.107q-.421-2.123-.854-4.311-.867-4.376-1.783-9c-1.221-6.159-2.5-12.626-3.825-19.331q-1-5.033-2.021-10.227-.511-2.593-1.032-5.23c-.167-.886-.362-1.745-.508-2.653a5,5,0,0,1,.411-2.718,5.082,5.082,0,0,1,2.842-2.658,12.845,12.845,0,0,1,1.9-.448c.627-.124,1.259-.249,1.88-.373q3.752-.737,7.418-1.464c4.879-.962,9.622-1.9,14.182-2.8l.054-.011.049.032c8.239,5.711,15.96,11.065,22.886,15.863l.038.027.011.049c2.75,14.042,5.03,25.663,6.624,33.783.389,2.031.762,3.831,1.037,5.419a4.942,4.942,0,0,1-3.155,5.273,3.521,3.521,0,0,1-.621.184c-.141.032-.211.043-.211.043Z" transform="translate(-192.11 -58.702)" fill="#263238"/>
      <path id="Trazado_614346" data-name="Trazado 614346" d="M493.879,143.812s-.124.043-.367.1l-1.064.238c-.956.2-2.291.481-3.922.821-1.669.34-3.641.74-5.824,1.178-1.1.216-2.253.443-3.447.681a4.709,4.709,0,0,1-3.658-.913,4.661,4.661,0,0,1-1.275-1.486,5.6,5.6,0,0,1-.578-1.8c-.232-1.194-.459-2.345-.67-3.447-.421-2.188-.8-4.166-1.124-5.835-.3-1.637-.551-2.977-.735-3.939-.076-.443-.14-.8-.184-1.075a1.818,1.818,0,0,1-.043-.378,1.993,1.993,0,0,1,.1.367c.059.27.141.621.238,1.064.2.956.481,2.291.821,3.922.34,1.669.74,3.641,1.183,5.824.221,1.1.448,2.248.686,3.442a5.289,5.289,0,0,0,.551,1.718,4.42,4.42,0,0,0,1.2,1.394,4.471,4.471,0,0,0,3.442.864c1.194-.232,2.345-.454,3.442-.665,2.188-.421,4.166-.8,5.835-1.124l3.939-.729c.443-.076.8-.14,1.075-.184A1.816,1.816,0,0,1,493.879,143.812Z" transform="translate(-216.523 -58.826)" fill="#263238"/>
      <path id="Trazado_614347" data-name="Trazado 614347" d="M457.164,153.156c.016.076-4.549,1.043-10.2,2.156s-10.233,1.956-10.249,1.88,4.549-1.043,10.195-2.156S457.148,153.08,457.164,153.156Z" transform="translate(-200.771 -70.407)" fill="#263238"/>
      <path id="Trazado_614348" data-name="Trazado 614348" d="M469.612,163.542c.016.076-6.721,1.47-15.041,3.112s-15.084,2.917-15.1,2.836,6.721-1.47,15.047-3.117,15.085-2.917,15.1-2.836Z" transform="translate(-202.035 -75.18)" fill="#263238"/>
      <path id="Trazado_614349" data-name="Trazado 614349" d="M472.362,177.487c.016.076-6.721,1.47-15.041,3.117s-15.085,2.917-15.1,2.836,6.721-1.47,15.047-3.117,15.084-2.917,15.1-2.836Z" transform="translate(-203.299 -81.593)" fill="#263238"/>
      <path id="Trazado_614350" data-name="Trazado 614350" d="M444.975,197.375c-.016-.076,6.721-1.47,15.041-3.112s15.085-2.917,15.1-2.836-6.721,1.47-15.047,3.117-15.085,2.917-15.1,2.836Z" transform="translate(-204.563 -88.002)" fill="#263238"/>
      <path id="Trazado_614351" data-name="Trazado 614351" d="M477.872,205.352c.016.076-6.721,1.47-15.041,3.112s-15.085,2.918-15.1,2.836,6.721-1.47,15.047-3.117,15.084-2.917,15.1-2.836Z" transform="translate(-205.832 -94.401)" fill="#263238"/>
      <path id="Trazado_614352" data-name="Trazado 614352" d="M480.622,219.292c.016.076-6.721,1.47-15.041,3.112s-15.085,2.917-15.1,2.836,6.721-1.47,15.047-3.117,15.085-2.917,15.1-2.836Z" transform="translate(-207.096 -100.81)" fill="#263238"/>
      <path id="Trazado_614353" data-name="Trazado 614353" d="M416.944,206.782l28.437-5.615a2.281,2.281,0,0,1,2.679,1.8l2.036,10.314a2.28,2.28,0,0,1-1.795,2.679l-28.437,5.615a2.28,2.28,0,0,1-2.678-1.8l-2.037-10.314A2.28,2.28,0,0,1,416.944,206.782Z" transform="translate(-190.834 -92.461)" fill="#354d1d"/>
      <path id="Trazado_614354" data-name="Trazado 614354" d="M431.06,217.853l2.539-.5a2.861,2.861,0,1,1,1.1,5.586l-2.539.5Zm3.371,4.036a1.768,1.768,0,1,0-.686-3.463l-1.183.232.686,3.463Z" transform="translate(-198.169 -99.883)" fill="#fff"/>
      <path id="Trazado_614355" data-name="Trazado 614355" d="M443.579,218.2a3.122,3.122,0,1,1,3.631,2.285A2.951,2.951,0,0,1,443.579,218.2Zm4.8-.951a1.782,1.782,0,1,0-1.394,2.134A1.737,1.737,0,0,0,448.382,217.245Z" transform="translate(-203.896 -98.671)" fill="#fff"/>
      <path id="Trazado_614356" data-name="Trazado 614356" d="M456.048,215.739a3.139,3.139,0,0,1,4.96-2.955l-.681.929a1.844,1.844,0,0,0-1.534-.378,1.822,1.822,0,1,0,.7,3.577,1.836,1.836,0,0,0,1.275-.94l.983.6a3.135,3.135,0,0,1-5.711-.837Z" transform="translate(-209.628 -97.543)" fill="#fff"/>
      <path id="Trazado_614357" data-name="Trazado 614357" d="M504.693,164.236s2.863-3.625,5.068-1.6,1.567,3.069-.529,6.273c0,0,4.679-.243,3.177,4.56,0,0,4.663-.513,4.214,3.415,0,0,3.517,3.442,1.691,5.662s-8.472,6.229-10.146,5.538-1.691-3.063-1.691-3.063a6.511,6.511,0,0,1-2.545-1.95c-.551-1.048.394-2.523.394-2.523s-1.68-1.718-2.1-2.2.227-2.707.227-2.707l2.685-2.6s-3.7,1.6-4.468.994-1.637-1.14-.816-2.258a37.7,37.7,0,0,1,3.755-3.62Z" transform="translate(-229.643 -74.485)" fill="#ffbe9d"/>
      <path id="Trazado_614358" data-name="Trazado 614358" d="M513.078,197.951a12.259,12.259,0,0,1,1.21-1.47,14.143,14.143,0,0,1,3.415-3.128,32.512,32.512,0,0,0,3.836-2.469,18.446,18.446,0,0,0,1.307-1.345,3.478,3.478,0,0,1-1.1,1.583,22.767,22.767,0,0,1-3.809,2.61,17,17,0,0,0-3.42,2.966,6.191,6.191,0,0,1-1.443,1.259Z" transform="translate(-235.873 -87.135)" fill="#eb996e"/>
      <path id="Trazado_614359" data-name="Trazado 614359" d="M508.287,190.978a36.433,36.433,0,0,1,3.836-4.144c1.108-1.086,2.058-2.134,2.874-2.782a3.427,3.427,0,0,1,1.437-.848c.032.059-.5.384-1.232,1.086-.74.681-1.648,1.761-2.766,2.858A36.422,36.422,0,0,1,508.287,190.978Z" transform="translate(-233.671 -84.22)" fill="#eb996e"/>
      <path id="Trazado_614360" data-name="Trazado 614360" d="M509.916,178.727a16.556,16.556,0,0,1,2.15-2.075,27.1,27.1,0,0,0,1.9-2.264,4.489,4.489,0,0,1-1.583,2.583A7.38,7.38,0,0,1,509.916,178.727Z" transform="translate(-234.418 -80.17)" fill="#eb996e"/>
      <path id="Trazado_614361" data-name="Trazado 614361" d="M504.591,164.132s-.011.1-.049.27c-.049.2-.108.454-.184.762q-.276,1.054-.751,2.912v.027l-.032.022c-.54.475-1.145,1.021-1.8,1.637a15.548,15.548,0,0,0-1.994,2.134,1.138,1.138,0,0,0-.205.675,1.076,1.076,0,0,0,.362.632,6.944,6.944,0,0,0,.659.546,1,1,0,0,0,.746.146,14.3,14.3,0,0,0,3.625-1.124l.864-.357-.67.654c-.843.827-1.745,1.7-2.674,2.615l.043-.059a3.408,3.408,0,0,0-.14,2.718A7.572,7.572,0,0,0,504.5,180.5l.184.135-.146.173c-.583.692-1,1.783-.232,2.453a9.875,9.875,0,0,0,2.534,1.734l-.313.173v-.054s.005-.022.005-.016c.054.07-.124-.151.13.195.605-.286.173-.119.308-.162v.324a3.131,3.131,0,0,0,.038.443,3.523,3.523,0,0,0,.232.848,2.2,2.2,0,0,0,.475.713,1.346,1.346,0,0,0,.692.4,4.241,4.241,0,0,0,1.767-.351,15.34,15.34,0,0,0,1.756-.789,28.717,28.717,0,0,0,3.123-1.891,18.274,18.274,0,0,0,2.734-2.242,2.206,2.206,0,0,0,.708-1.4,3.391,3.391,0,0,0-.286-1.572,9.035,9.035,0,0,0-1.837-2.674l-.065-.07v-.1a3.308,3.308,0,0,0-.151-1.534,2.287,2.287,0,0,0-.94-1.113,5.025,5.025,0,0,0-2.885-.551l-.27.016.065-.265c.07-.292.157-.578.216-.87a4.667,4.667,0,0,0,.065-.859,2.431,2.431,0,0,0-.481-1.524,3.505,3.505,0,0,0-2.782-1.091h-.313l.167-.254a26.053,26.053,0,0,0,1.507-2.458,3.649,3.649,0,0,0,.384-1.216,2.034,2.034,0,0,0-.238-1.135,5.083,5.083,0,0,0-1.47-1.6,2.175,2.175,0,0,0-1.751-.178,5.876,5.876,0,0,0-2.177,1.361c-.222.2-.378.367-.486.475a.967.967,0,0,1-.168.162.86.86,0,0,1,.135-.195c.1-.119.243-.3.454-.513a7.307,7.307,0,0,1,.837-.74,4.47,4.47,0,0,1,1.351-.729,2.343,2.343,0,0,1,1.913.162c.146.108.3.216.448.33q.2.186.405.389a4.538,4.538,0,0,1,.735.951,2.234,2.234,0,0,1,.286,1.28,3.859,3.859,0,0,1-.394,1.324,25.739,25.739,0,0,1-1.5,2.507l-.146-.254a4.871,4.871,0,0,1,1.632.232,3.013,3.013,0,0,1,1.453.962,2.735,2.735,0,0,1,.573,1.734,5.478,5.478,0,0,1-.065.935c-.059.308-.146.611-.221.918l-.205-.249a5.4,5.4,0,0,1,3.139.589,2.7,2.7,0,0,1,1.113,1.307,3.715,3.715,0,0,1,.189,1.734l-.059-.173a9.33,9.33,0,0,1,1.945,2.809,3.863,3.863,0,0,1,.324,1.778,2.849,2.849,0,0,1-.259.913,4.007,4.007,0,0,1-.562.751,18.584,18.584,0,0,1-2.8,2.307,29.113,29.113,0,0,1-3.171,1.923,16.3,16.3,0,0,1-1.8.81,4.487,4.487,0,0,1-1.988.367,2.2,2.2,0,0,1-1.507-1.372,3.809,3.809,0,0,1-.259-.956c-.022-.162-.038-.324-.043-.486v-.4h.011c.13-.054-.3.113.308-.173.254.34.076.124.13.189v.059l-.011.065-.027.324-.286-.151a10.249,10.249,0,0,1-2.658-1.837,2.011,2.011,0,0,1-.454-.729,1.745,1.745,0,0,1-.038-.864,3.344,3.344,0,0,1,.729-1.432l.038.308a7.931,7.931,0,0,1-2.237-2.312,2.873,2.873,0,0,1-.249-1.588,4.916,4.916,0,0,1,.394-1.48l.011-.032.027-.027c.94-.9,1.842-1.778,2.7-2.593l.2.3a14.582,14.582,0,0,1-3.744,1.118,1.335,1.335,0,0,1-.967-.222,8.39,8.39,0,0,1-.681-.578,1.378,1.378,0,0,1-.438-.821,1.429,1.429,0,0,1,.254-.859,15.616,15.616,0,0,1,2.075-2.156q1-.916,1.842-1.61l-.032.049c.362-1.232.643-2.2.848-2.9.092-.3.167-.551.232-.746a1.06,1.06,0,0,1,.092-.243Z" transform="translate(-229.542 -74.392)" fill="#eb996e"/>
      <path id="Trazado_614362" data-name="Trazado 614362" d="M112.986,173.681H79.651a4.173,4.173,0,0,1-4.171-4.171v-46.14a4.173,4.173,0,0,1,4.171-4.171h21.141l16.365,16.867V169.51A4.173,4.173,0,0,1,112.986,173.681Z" transform="translate(-34.7 -54.799)" fill="#d6d6d6"/>
      <path id="Trazado_614363" data-name="Trazado 614363" d="M122.33,119.2v12.988a3.876,3.876,0,0,0,3.879,3.879h12.486Z" transform="translate(-56.238 -54.799)" fill="#f5f5f5"/>
      <path id="Trazado_614364" data-name="Trazado 614364" d="M122.639,145.34a4.319,4.319,0,0,0,3.42,4.187,3.472,3.472,0,0,0,.411.092c1.632.292,12.362,2.2,12.362,1.956v-3.49H126.345S123.228,147.977,122.639,145.34Z" transform="translate(-56.38 -66.816)" fill="#bdbdbd"/>
      <path id="Trazado_614365" data-name="Trazado 614365" d="M112.874,173.566a4.455,4.455,0,0,0,.719-.086,4.186,4.186,0,0,0,1.891-.881,4.127,4.127,0,0,0,1.491-2.945c.022-1.345,0-2.907,0-4.652-.011-6.986-.027-16.981-.049-29.056l.032.081c-4.954-5.1-10.481-10.784-16.376-16.857l.1.043h-20.2a10.4,10.4,0,0,0-1.6.059,4.026,4.026,0,0,0-3.361,3.685c-.027.74-.011,1.513-.016,2.264v13.3c0,5.77-.005,11.335-.011,16.635q0,3.979-.005,7.748v5.522a9.877,9.877,0,0,0,.076,1.756,4.074,4.074,0,0,0,3.431,3.231c.535.065,1.1.032,1.642.043,2.188,0,4.29.005,6.294.011,8.012.016,14.5.032,18.991.043l5.165.027c.584.005,1.032.011,1.34.016s.459.016.459.016-.157.011-.459.016-.756.005-1.34.016l-5.165.027c-4.49.011-10.978.027-18.991.043-2,0-4.106.005-6.294.011a15.842,15.842,0,0,1-1.669-.043,4.274,4.274,0,0,1-3.625-3.4,9.586,9.586,0,0,1-.086-1.8v-5.522q0-3.768-.005-7.748c0-5.3,0-10.865-.011-16.635v-13.3c.005-.762-.016-1.5.016-2.285a4.238,4.238,0,0,1,.789-2.194,4.331,4.331,0,0,1,2.8-1.745,11.327,11.327,0,0,1,1.648-.065h20.26l.038.043c5.889,6.078,11.405,11.773,16.354,16.878l.032.032v.049c-.022,12.075-.038,22.07-.049,29.056-.011,1.745,0,3.3-.027,4.657a4.188,4.188,0,0,1-1.551,2.993,4.123,4.123,0,0,1-1.929.864,3.533,3.533,0,0,1-.54.049H112.9Z" transform="translate(-34.588 -54.684)" fill="#263238"/>
      <path id="Trazado_614366" data-name="Trazado 614366" d="M138.583,136.063a2.084,2.084,0,0,1-.319.027c-.243.005-.546.016-.918.027-.837.011-1.983.027-3.382.043-1.437.011-3.139.016-5.014.027h-2.966a4,4,0,0,1-2.9-1.361,3.957,3.957,0,0,1-.816-1.443,4.767,4.767,0,0,1-.184-1.594c0-1.027.005-2.015.011-2.961.011-1.88.022-3.577.032-5.019.016-1.4.032-2.545.043-3.382l.027-.918a1.459,1.459,0,0,1,.027-.319,1.124,1.124,0,0,1,.027.319c.005.243.016.546.027.918.011.837.027,1.983.043,3.382.011,1.437.016,3.139.032,5.019,0,.945,0,1.934.011,2.961a4.421,4.421,0,0,0,.173,1.507,3.836,3.836,0,0,0,.762,1.345,3.73,3.73,0,0,0,2.7,1.27c1.027,0,2.015.011,2.961.016,1.88.011,3.577.022,5.014.032,1.4.016,2.545.032,3.382.043.373.011.681.022.918.027a1.459,1.459,0,0,1,.319.027Z" transform="translate(-56.126 -54.795)" fill="#263238"/>
      <path id="Trazado_614367" data-name="Trazado 614367" d="M106.191,140.53c0,.076-3.939.14-8.8.14s-8.8-.065-8.8-.14,3.939-.14,8.8-.14S106.191,140.455,106.191,140.53Z" transform="translate(-40.732 -64.541)" fill="#263238"/>
      <path id="Trazado_614368" data-name="Trazado 614368" d="M114.543,152.52c0,.076-5.808.14-12.967.14s-12.967-.065-12.967-.14,5.8-.14,12.967-.14S114.543,152.445,114.543,152.52Z" transform="translate(-40.736 -70.053)" fill="#263238"/>
      <path id="Trazado_614369" data-name="Trazado 614369" d="M114.543,164.51c0,.076-5.808.14-12.967.14s-12.967-.065-12.967-.14,5.8-.14,12.967-.14S114.543,164.435,114.543,164.51Z" transform="translate(-40.736 -75.565)" fill="#263238"/>
      <path id="Trazado_614370" data-name="Trazado 614370" d="M114.543,176.5c0,.076-5.808.14-12.967.14s-12.967-.065-12.967-.14,5.8-.14,12.967-.14S114.543,176.425,114.543,176.5Z" transform="translate(-40.736 -81.077)" fill="#263238"/>
      <path id="Trazado_614371" data-name="Trazado 614371" d="M114.543,188.49c0,.076-5.808.14-12.967.14s-12.967-.065-12.967-.14,5.8-.14,12.967-.14S114.543,188.415,114.543,188.49Z" transform="translate(-40.736 -86.589)" fill="#263238"/>
      <path id="Trazado_614372" data-name="Trazado 614372" d="M114.543,200.48c0,.076-5.808.14-12.967.14s-12.967-.065-12.967-.14,5.8-.14,12.967-.14S114.543,200.4,114.543,200.48Z" transform="translate(-40.736 -92.101)" fill="#263238"/>
      <path id="Trazado_614373" data-name="Trazado 614373" d="M63.92,179.85H87.676a2.28,2.28,0,0,1,2.28,2.28v8.164a2.28,2.28,0,0,1-2.28,2.28H63.92a2.28,2.28,0,0,1-2.28-2.28V182.13A2.28,2.28,0,0,1,63.92,179.85Z" transform="translate(-28.337 -82.681)" fill="#354d1d"/>
      <path id="Trazado_614374" data-name="Trazado 614374" d="M78.616,189.255c0,1.07-.805,1.74-2.085,1.74h-.967v1.324H74.45V187.51h2.08C77.816,187.51,78.616,188.175,78.616,189.255Zm-1.124,0c0-.529-.346-.837-1.021-.837h-.908v1.669h.908C77.151,190.087,77.492,189.779,77.492,189.255Z" transform="translate(-34.226 -86.203)" fill="#fff"/>
      <path id="Trazado_614375" data-name="Trazado 614375" d="M83.62,187.52H85.8a2.416,2.416,0,1,1,0,4.808H83.62Zm2.129,3.9a1.494,1.494,0,1,0,0-2.982H84.733v2.982Z" transform="translate(-38.442 -86.207)" fill="#fff"/>
      <path id="Trazado_614376" data-name="Trazado 614376" d="M95.233,188.407v1.27h2.226v.891H95.233v1.75H94.12V187.51h3.631v.891H95.233Z" transform="translate(-43.269 -86.203)" fill="#fff"/>
      <path id="Trazado_614377" data-name="Trazado 614377" d="M74.022,314.9H41.038a4.127,4.127,0,0,1-4.128-4.128V265.128A4.127,4.127,0,0,1,41.038,261H61.952l16.192,16.689v33.086a4.127,4.127,0,0,1-4.128,4.128Z" transform="translate(-16.968 -119.988)" fill="#d6d6d6"/>
      <path id="Trazado_614378" data-name="Trazado 614378" d="M83.27,261v12.848a3.837,3.837,0,0,0,3.836,3.836H99.462Z" transform="translate(-38.281 -119.988)" fill="#f5f5f5"/>
      <path id="Trazado_614379" data-name="Trazado 614379" d="M83.579,286.87a4.265,4.265,0,0,0,3.388,4.139c.135.038.27.065.405.092,1.615.286,12.232,2.177,12.232,1.934v-3.452H87.248S84.163,289.474,83.579,286.87Z" transform="translate(-38.423 -131.881)" fill="#bdbdbd"/>
      <path id="Trazado_614380" data-name="Trazado 614380" d="M73.893,314.79a4.366,4.366,0,0,0,.713-.086,4.145,4.145,0,0,0,1.869-.87,4.061,4.061,0,0,0,1.475-2.912c.022-1.329,0-2.874,0-4.6-.011-6.91-.027-16.8-.049-28.748l.032.081c-4.9-5.046-10.368-10.67-16.2-16.678l.1.043H41.839a10.221,10.221,0,0,0-1.583.059,3.979,3.979,0,0,0-3.317,3.647c-.027.729-.011,1.5-.016,2.237v13.156l-.011,16.457v7.661l-.011,3.674v1.794a9.164,9.164,0,0,0,.076,1.734,4.01,4.01,0,0,0,3.393,3.188,16.2,16.2,0,0,0,1.621.043q3.25,0,6.224.011c7.926.016,14.344.032,18.785.043l5.106.027q.867.008,1.329.016c.3,0,.454.016.454.016s-.151.011-.454.016-.751.005-1.329.016L67,314.844c-4.441.011-10.86.027-18.785.043-1.983,0-4.063.005-6.224.011a15.542,15.542,0,0,1-1.653-.043,4.242,4.242,0,0,1-3.593-3.361,9.885,9.885,0,0,1-.086-1.783v-5.462l-.011-7.661-.011-16.457V266.976c0-.751-.016-1.486.011-2.258a4.207,4.207,0,0,1,.783-2.172,4.26,4.26,0,0,1,2.772-1.729,10.394,10.394,0,0,1,1.632-.059h20.05l.038.043c5.824,6.013,11.286,11.648,16.176,16.7l.032.032v.049c-.022,11.945-.038,21.838-.049,28.748-.011,1.729,0,3.263-.027,4.609a4.125,4.125,0,0,1-3.447,3.814,3.477,3.477,0,0,1-.535.049h-.184Z" transform="translate(-16.84 -119.875)" fill="#263238"/>
      <path id="Trazado_614381" data-name="Trazado 614381" d="M99.341,277.68a2.084,2.084,0,0,1-.319.027c-.238.005-.54.016-.908.027-.827.011-1.961.027-3.344.043-1.426.011-3.107.016-4.965.027H86.871a3.982,3.982,0,0,1-3.679-2.777,4.673,4.673,0,0,1-.184-1.578c0-1.016.005-1.994.011-2.934.011-1.859.022-3.539.032-4.965.016-1.383.032-2.518.043-3.344.011-.367.022-.67.027-.908a1.52,1.52,0,0,1,.027-.319,1.123,1.123,0,0,1,.027.319c.005.238.016.54.027.908.011.827.027,1.961.043,3.344.011,1.426.016,3.107.032,4.965,0,.935,0,1.918.011,2.934a4.329,4.329,0,0,0,.173,1.491,3.713,3.713,0,0,0,3.415,2.588c1.016,0,1.994.011,2.928.016,1.859.011,3.539.022,4.965.032,1.383.016,2.518.032,3.344.043l.908.027a1.456,1.456,0,0,1,.319.027Z" transform="translate(-38.16 -119.979)" fill="#263238"/>
      <path id="Trazado_614382" data-name="Trazado 614382" d="M67.307,282.1c0,.076-3.9.141-8.7.141s-8.7-.065-8.7-.141,3.9-.14,8.7-.14S67.307,282.025,67.307,282.1Z" transform="translate(-22.945 -129.624)" fill="#263238"/>
      <path id="Trazado_614383" data-name="Trazado 614383" d="M75.562,293.97c0,.076-5.743.141-12.826.141s-12.826-.065-12.826-.141,5.743-.14,12.826-.14S75.562,293.895,75.562,293.97Z" transform="translate(-22.945 -135.081)" fill="#263238"/>
      <path id="Trazado_614384" data-name="Trazado 614384" d="M75.558,305.83c0,.076-5.743.14-12.826.14s-12.832-.065-12.832-.14,5.743-.14,12.832-.14S75.558,305.755,75.558,305.83Z" transform="translate(-22.94 -140.533)" fill="#263238"/>
      <path id="Trazado_614385" data-name="Trazado 614385" d="M75.558,317.69c0,.076-5.743.14-12.826.14s-12.832-.065-12.832-.14,5.743-.14,12.832-.14S75.558,317.615,75.558,317.69Z" transform="translate(-22.94 -145.985)" fill="#263238"/>
      <path id="Trazado_614386" data-name="Trazado 614386" d="M75.558,329.55c0,.076-5.743.14-12.826.14s-12.832-.065-12.832-.14,5.743-.141,12.832-.141S75.558,329.475,75.558,329.55Z" transform="translate(-22.94 -151.438)" fill="#263238"/>
      <path id="Trazado_614387" data-name="Trazado 614387" d="M75.558,341.42c0,.076-5.743.14-12.826.14S49.9,341.5,49.9,341.42s5.743-.14,12.832-.14S75.558,341.345,75.558,341.42Z" transform="translate(-22.94 -156.895)" fill="#263238"/>
      <path id="Trazado_614388" data-name="Trazado 614388" d="M25.51,321.01H48.963a2.28,2.28,0,0,1,2.28,2.28v8.023a2.28,2.28,0,0,1-2.28,2.28H25.51a2.28,2.28,0,0,1-2.28-2.28V323.29A2.28,2.28,0,0,1,25.51,321.01Z" transform="translate(-10.679 -147.576)" fill="#354d1d"/>
      <path id="Trazado_614389" data-name="Trazado 614389" d="M40.012,330.323c0,1.059-.794,1.718-2.064,1.718h-.956v1.313h-1.1V328.6h2.058C39.218,328.6,40.012,329.259,40.012,330.323Zm-1.113,0c0-.524-.34-.827-1.01-.827h-.9v1.653h.9c.67,0,1.01-.308,1.01-.821Z" transform="translate(-16.499 -151.065)" fill="#fff"/>
      <path id="Trazado_614390" data-name="Trazado 614390" d="M49.092,330.323c0,1.059-.794,1.718-2.064,1.718h-.956v1.313h-1.1V328.6h2.058C48.3,328.6,49.092,329.259,49.092,330.323Zm-1.113,0c0-.524-.34-.827-1.01-.827h-.9v1.653h.9c.67,0,1.01-.308,1.01-.821Z" transform="translate(-20.674 -151.065)" fill="#fff"/>
      <path id="Trazado_614391" data-name="Trazado 614391" d="M54.334,329.5H52.81v-.9h4.144v.9H55.43v3.858h-1.1V329.5Z" transform="translate(-24.278 -151.065)" fill="#fff"/>
      <path id="Trazado_614392" data-name="Trazado 614392" d="M194.254,73.833H161.481a4.1,4.1,0,0,1-4.1-4.1V24.371a4.1,4.1,0,0,1,4.1-4.1h20.784l16.089,16.581V69.727a4.1,4.1,0,0,1-4.1,4.1Z" transform="translate(-72.351 -9.319)" fill="#d6d6d6"/>
      <path id="Trazado_614393" data-name="Trazado 614393" d="M203.44,20.27V33.037a3.814,3.814,0,0,0,3.814,3.814h12.275Z" transform="translate(-93.526 -9.319)" fill="#f5f5f5"/>
      <path id="Trazado_614394" data-name="Trazado 614394" d="M203.745,45.97a4.235,4.235,0,0,0,3.361,4.111c.13.038.27.065.405.092,1.6.286,12.151,2.161,12.151,1.923V48.666H207.387s-3.063-.1-3.647-2.7Z" transform="translate(-93.664 -21.134)" fill="#bdbdbd"/>
      <path id="Trazado_614395" data-name="Trazado 614395" d="M194.146,73.724a4.555,4.555,0,0,0,.708-.081,4.13,4.13,0,0,0,1.859-.864,4.056,4.056,0,0,0,1.47-2.89c.022-1.324,0-2.858,0-4.571-.011-6.867-.027-16.695-.049-28.564l.032.081c-4.873-5.014-10.3-10.606-16.1-16.57l.1.043H162.3a10.05,10.05,0,0,0-1.572.059,3.947,3.947,0,0,0-2.572,1.6,3.9,3.9,0,0,0-.724,2.015c-.027.724-.005,1.486-.016,2.226V39.287c0,5.673-.005,11.14-.011,16.354,0,2.6,0,5.149-.005,7.612v5.43a9.517,9.517,0,0,0,.076,1.723,4,4,0,0,0,1.853,2.637,3.938,3.938,0,0,0,1.513.535,15.935,15.935,0,0,0,1.61.043q3.225,0,6.186.011c7.877.016,14.252.032,18.667.043l5.073.027c.573.005,1.016.011,1.318.016s.448.016.448.016-.151.011-.448.016-.746.005-1.318.016l-5.073.027c-4.414.011-10.789.027-18.667.043q-2.958,0-6.186.011a15.337,15.337,0,0,1-1.642-.043,4.221,4.221,0,0,1-3.566-3.344,9.783,9.783,0,0,1-.081-1.772v-5.43q0-3.7-.005-7.612c0-5.214,0-10.681-.011-16.354V26.218c.005-.746-.016-1.48.016-2.242a4.181,4.181,0,0,1,.778-2.161A4.237,4.237,0,0,1,160.7,20.1a10.259,10.259,0,0,1,1.621-.059h19.92l.038.043c5.786,5.975,11.211,11.573,16.073,16.592l.032.032v.049c-.022,11.87-.038,21.7-.049,28.564-.011,1.718,0,3.242-.027,4.576a4.109,4.109,0,0,1-3.425,3.787,3.371,3.371,0,0,1-.535.049h-.178Z" transform="translate(-72.244 -9.21)" fill="#263238"/>
      <path id="Trazado_614396" data-name="Trazado 614396" d="M219.415,36.846a2.052,2.052,0,0,1-.313.027c-.238.005-.535.016-.9.027-.821.011-1.95.027-3.323.043-1.416.011-3.085.016-4.933.027h-2.917a3.965,3.965,0,0,1-3.652-2.761,4.475,4.475,0,0,1-.178-1.567c0-1.01.005-1.983.011-2.912.011-1.848.022-3.517.032-4.933.016-1.378.032-2.5.043-3.323.011-.367.022-.665.027-.9a1.431,1.431,0,0,1,.027-.313,1.1,1.1,0,0,1,.027.313c.005.238.016.535.027.9.011.821.027,1.95.043,3.323.011,1.416.016,3.085.032,4.933,0,.929,0,1.9.011,2.912a4.268,4.268,0,0,0,.173,1.48,3.574,3.574,0,0,0,.751,1.318,3.682,3.682,0,0,0,2.647,1.248c1,0,1.977.011,2.907.016,1.848.011,3.517.022,4.933.032,1.378.016,2.5.032,3.323.043.367.011.665.022.9.027a1.43,1.43,0,0,1,.313.027Z" transform="translate(-93.412 -9.314)" fill="#263238"/>
      <path id="Trazado_614397" data-name="Trazado 614397" d="M187.579,41.24c0,.076-3.868.14-8.644.14s-8.644-.065-8.644-.14,3.868-.14,8.644-.14S187.579,41.165,187.579,41.24Z" transform="translate(-78.286 -18.895)" fill="#263238"/>
      <path id="Trazado_614398" data-name="Trazado 614398" d="M195.79,53.02c0,.076-5.705.14-12.745.14S170.3,53.1,170.3,53.02s5.705-.14,12.745-.14S195.79,52.945,195.79,53.02Z" transform="translate(-78.291 -24.31)" fill="#263238"/>
      <path id="Trazado_614399" data-name="Trazado 614399" d="M195.79,64.81c0,.076-5.705.14-12.745.14s-12.745-.065-12.745-.14,5.705-.14,12.745-.14S195.79,64.735,195.79,64.81Z" transform="translate(-78.291 -29.73)" fill="#263238"/>
      <path id="Trazado_614400" data-name="Trazado 614400" d="M195.79,76.6c0,.076-5.705.14-12.745.14S170.3,76.676,170.3,76.6s5.705-.14,12.745-.14S195.79,76.525,195.79,76.6Z" transform="translate(-78.291 -35.151)" fill="#263238"/>
      <path id="Trazado_614401" data-name="Trazado 614401" d="M195.79,88.38c0,.076-5.705.14-12.745.14s-12.745-.065-12.745-.14,5.705-.14,12.745-.14S195.79,88.3,195.79,88.38Z" transform="translate(-78.291 -40.566)" fill="#263238"/>
      <path id="Trazado_614402" data-name="Trazado 614402" d="M195.79,100.17c0,.076-5.705.14-12.745.14s-12.745-.065-12.745-.14,5.705-.14,12.745-.14S195.79,100.095,195.79,100.17Z" transform="translate(-78.291 -45.986)" fill="#263238"/>
      <path id="Trazado_614403" data-name="Trazado 614403" d="M146.06,79.89h23.275a2.28,2.28,0,0,1,2.28,2.28v7.947a2.28,2.28,0,0,1-2.28,2.28H146.06a2.28,2.28,0,0,1-2.28-2.28V82.17A2.28,2.28,0,0,1,146.06,79.89Z" transform="translate(-66.099 -36.727)" fill="#354d1d"/>
      <path id="Trazado_614404" data-name="Trazado 614404" d="M158.9,92.147l-1.14-1.642-1.118,1.642H155.39l1.751-2.4-1.659-2.323h1.243l1.086,1.534,1.064-1.534h1.183L158.41,89.7l1.761,2.442h-1.264Z" transform="translate(-71.437 -40.189)" fill="#fff"/>
      <path id="Trazado_614405" data-name="Trazado 614405" d="M165.02,87.42h1.091v3.836h2.372v.891H165.02Z" transform="translate(-75.864 -40.189)" fill="#fff"/>
      <path id="Trazado_614406" data-name="Trazado 614406" d="M171.83,91.618l.373-.821a2.777,2.777,0,0,0,1.561.492c.648,0,.913-.216.913-.508,0-.886-2.75-.276-2.75-2.031,0-.805.648-1.47,1.994-1.47a3.2,3.2,0,0,1,1.642.416l-.335.832a2.681,2.681,0,0,0-1.307-.373c-.648,0-.9.243-.9.54,0,.87,2.75.27,2.75,2,0,.789-.654,1.464-2,1.464a3.355,3.355,0,0,1-1.923-.546Z" transform="translate(-78.994 -40.125)" fill="#fff"/>
      <path id="Trazado_614407" data-name="Trazado 614407" d="M568.937,326.331H535.646a4.164,4.164,0,0,1-4.166-4.166v-46.08a4.164,4.164,0,0,1,4.166-4.166H556.76L573.1,288.766v33.4A4.164,4.164,0,0,1,568.937,326.331Z" transform="translate(-244.334 -125.008)" fill="#d6d6d6"/>
      <path id="Trazado_614408" data-name="Trazado 614408" d="M578.27,271.905v12.967a3.874,3.874,0,0,0,3.874,3.874h12.47L578.27,271.9Z" transform="translate(-265.845 -124.999)" fill="#f5f5f5"/>
      <path id="Trazado_614409" data-name="Trazado 614409" d="M578.575,298.02a4.314,4.314,0,0,0,3.415,4.182,3.476,3.476,0,0,0,.411.092c1.626.292,12.345,2.2,12.345,1.95v-3.485h-12.47s-3.112-.108-3.706-2.739Z" transform="translate(-265.983 -137.007)" fill="#bdbdbd"/>
      <path id="Trazado_614410" data-name="Trazado 614410" d="M568.825,326.207a4.453,4.453,0,0,0,.719-.086,4.21,4.21,0,0,0,1.891-.881,4.125,4.125,0,0,0,1.491-2.939c.022-1.345,0-2.9,0-4.641-.011-6.975-.027-16.959-.049-29.018l.032.081-16.354-16.835.1.043H536.479a10.429,10.429,0,0,0-1.6.059,4.041,4.041,0,0,0-2.615,1.632,3.971,3.971,0,0,0-.735,2.048c-.027.74-.011,1.513-.016,2.258v13.285c0,5.759-.005,11.319-.011,16.613q0,3.971-.005,7.737v5.516a9.816,9.816,0,0,0,.076,1.75,4.063,4.063,0,0,0,1.886,2.68,3.956,3.956,0,0,0,1.534.54c.535.065,1.1.032,1.637.043,2.183,0,4.284.005,6.283.011,8,.016,14.479.032,18.964.043l5.154.027c.583.005,1.032.011,1.34.016s.459.016.459.016-.157.011-.459.016-.756.005-1.34.016l-5.154.027c-4.484.011-10.962.027-18.964.043q-3.007,0-6.283.011a15.883,15.883,0,0,1-1.669-.043,4.279,4.279,0,0,1-3.62-3.393,9.585,9.585,0,0,1-.086-1.8v-5.516q0-3.76-.005-7.737c0-5.295,0-10.854-.011-16.613V277.933c.005-.756-.016-1.5.016-2.28a4.256,4.256,0,0,1,.789-2.194,4.318,4.318,0,0,1,2.8-1.745,11.286,11.286,0,0,1,1.642-.065h20.233l.038.043c5.878,6.073,11.389,11.756,16.333,16.857l.032.032v.049c-.022,12.059-.038,22.043-.049,29.018-.011,1.745,0,3.3-.027,4.652a4.175,4.175,0,0,1-1.551,2.988,4.1,4.1,0,0,1-1.929.859,3.531,3.531,0,0,1-.54.049h-.184Z" transform="translate(-244.222 -124.884)" fill="#263238"/>
      <path id="Trazado_614411" data-name="Trazado 614411" d="M594.5,288.756a2.085,2.085,0,0,1-.319.027c-.243.005-.546.016-.919.027-.837.011-1.977.027-3.377.043-1.437.011-3.134.016-5.008.027h-2.961a4.022,4.022,0,0,1-2.9-1.356,3.957,3.957,0,0,1-.816-1.443,4.749,4.749,0,0,1-.184-1.588c0-1.027.005-2.015.011-2.961.011-1.875.022-3.571.032-5.008.016-1.4.032-2.545.043-3.377.011-.373.022-.675.027-.918a1.454,1.454,0,0,1,.027-.319,1.127,1.127,0,0,1,.027.319l.027.918c.011.837.027,1.977.043,3.377.011,1.437.016,3.134.032,5.008,0,.945,0,1.934.011,2.961a4.439,4.439,0,0,0,.173,1.507,3.814,3.814,0,0,0,.762,1.34,3.728,3.728,0,0,0,2.691,1.27c1.021,0,2.01.011,2.955.016,1.875.011,3.571.022,5.008.032,1.4.016,2.545.032,3.377.043.373.011.675.022.918.027a1.459,1.459,0,0,1,.319.027Z" transform="translate(-265.728 -125.004)" fill="#263238"/>
      <path id="Trazado_614412" data-name="Trazado 614412" d="M562.15,293.21c0,.076-3.933.141-8.785.141s-8.785-.065-8.785-.141,3.933-.14,8.785-.14S562.15,293.135,562.15,293.21Z" transform="translate(-250.357 -134.731)" fill="#263238"/>
      <path id="Trazado_614413" data-name="Trazado 614413" d="M570.491,305.19c0,.076-5.8.14-12.95.14s-12.95-.065-12.95-.14,5.8-.14,12.95-.14S570.491,305.115,570.491,305.19Z" transform="translate(-250.361 -140.239)" fill="#263238"/>
      <path id="Trazado_614414" data-name="Trazado 614414" d="M570.491,317.16c0,.076-5.8.14-12.95.14s-12.95-.065-12.95-.14,5.8-.14,12.95-.14S570.491,317.085,570.491,317.16Z" transform="translate(-250.361 -145.742)" fill="#263238"/>
      <path id="Trazado_614415" data-name="Trazado 614415" d="M570.491,329.141c0,.076-5.8.14-12.95.14s-12.95-.065-12.95-.14,5.8-.141,12.95-.141S570.491,329.065,570.491,329.141Z" transform="translate(-250.361 -151.249)" fill="#263238"/>
      <path id="Trazado_614416" data-name="Trazado 614416" d="M570.491,341.11c0,.076-5.8.14-12.95.14s-12.95-.065-12.95-.14,5.8-.14,12.95-.14S570.491,341.035,570.491,341.11Z" transform="translate(-250.361 -156.752)" fill="#263238"/>
      <path id="Trazado_614417" data-name="Trazado 614417" d="M570.491,355.88c0,.076-5.8.14-12.95.14s-12.95-.065-12.95-.14,5.8-.14,12.95-.14S570.491,355.8,570.491,355.88Z" transform="translate(-250.361 -163.542)" fill="#263238"/>
      <path id="Trazado_614418" data-name="Trazado 614418" d="M519.94,332.48h23.718a2.28,2.28,0,0,1,2.28,2.28V342.9a2.28,2.28,0,0,1-2.28,2.28H519.94a2.28,2.28,0,0,1-2.28-2.28V334.76A2.28,2.28,0,0,1,519.94,332.48Z" transform="translate(-237.981 -152.849)" fill="#354d1d"/>
      <path id="Trazado_614419" data-name="Trazado 614419" d="M523.72,340.145H525.9a2.41,2.41,0,1,1,0,4.8H523.72v-4.8Zm2.129,3.89a1.488,1.488,0,1,0,0-2.972h-1.016v2.977h1.016Z" transform="translate(-240.767 -156.371)" fill="#fff"/>
      <path id="Trazado_614420" data-name="Trazado 614420" d="M533.65,342.485a2.63,2.63,0,1,1,2.626,2.485A2.487,2.487,0,0,1,533.65,342.485Zm4.128,0a1.5,1.5,0,1,0-1.5,1.534A1.461,1.461,0,0,0,537.778,342.485Z" transform="translate(-245.332 -156.306)" fill="#fff"/>
      <path id="Trazado_614421" data-name="Trazado 614421" d="M544.36,342.485a2.645,2.645,0,0,1,4.582-1.637l-.713.659a1.541,1.541,0,0,0-1.2-.562,1.534,1.534,0,0,0,0,3.069,1.531,1.531,0,0,0,1.2-.567l.713.659a2.638,2.638,0,0,1-4.582-1.626Z" transform="translate(-250.255 -156.306)" fill="#fff"/>
      <path id="Trazado_614422" data-name="Trazado 614422" d="M556.6,344.953l-1.162-1.664-1.14,1.664H553.02l1.777-2.442-1.686-2.361h1.264l1.1,1.556,1.086-1.556h1.2l-1.675,2.318,1.788,2.485Z" transform="translate(-254.237 -156.375)" fill="#fff"/>
      <path id="Trazado_614423" data-name="Trazado 614423" d="M360.758,401.8c0,.076-80.766.14-180.371.14S0,401.876,0,401.8s80.744-.14,180.387-.14S360.758,401.725,360.758,401.8Z" transform="translate(0 -184.653)" fill="#263238"/>
    </g>
  </g>
</svg>
