<svg xmlns="http://www.w3.org/2000/svg" width="314.426" height="234.316" viewBox="0 0 314.426 234.316">
  <g id="Grupo_1066755" data-name="Grupo 1066755" transform="translate(-10271 10606.419)">
    <g id="Group_61_1_" data-name="Group 61 (1)" transform="translate(10271 -10606.419)">
      <path id="Trazado_611552" data-name="Trazado 611552" d="M314.426,327.45H0v.157H314.426Z" transform="translate(0 -121.533)" fill="#ebebeb"/>
      <path id="Trazado_611553" data-name="Trazado 611553" d="M437.608,343.54H416.78v.157h20.828Z" transform="translate(-154.687 -127.504)" fill="#ebebeb"/>
      <path id="Trazado_611554" data-name="Trazado 611554" d="M377.909,343.54H333.38v.157h44.529Z" transform="translate(-123.734 -127.504)" fill="#ebebeb"/>
      <path id="Trazado_611555" data-name="Trazado 611555" d="M287.208,334.26H275.14v.157h12.068Z" transform="translate(-102.118 -124.06)" fill="#ebebeb"/>
      <path id="Trazado_611556" data-name="Trazado 611556" d="M74.023,335.94H52.46v.157H74.023Z" transform="translate(-19.47 -124.684)" fill="#ebebeb"/>
      <path id="Trazado_611557" data-name="Trazado 611557" d="M134.859,335.94H95.65v.157h39.209Z" transform="translate(-35.5 -124.684)" fill="#ebebeb"/>
      <path id="Trazado_611558" data-name="Trazado 611558" d="M211.478,340.16H188.33v.157h23.148Z" transform="translate(-69.898 -126.25)" fill="#ebebeb"/>
      <path id="Trazado_611559" data-name="Trazado 611559" d="M163.222,177.871H41.791A3.594,3.594,0,0,1,38.2,174.28V3.591A3.594,3.594,0,0,1,41.791,0H163.222a3.594,3.594,0,0,1,3.591,3.591V174.28A3.594,3.594,0,0,1,163.222,177.871ZM41.791.157a3.438,3.438,0,0,0-3.434,3.434V174.28a3.438,3.438,0,0,0,3.434,3.434H163.222a3.438,3.438,0,0,0,3.434-3.434V3.591A3.438,3.438,0,0,0,163.222.157Z" transform="translate(-14.178 0)" fill="#ebebeb"/>
      <path id="Trazado_611560" data-name="Trazado 611560" d="M379.522,177.871H258.091a3.594,3.594,0,0,1-3.591-3.591V3.591A3.594,3.594,0,0,1,258.091,0H379.522a3.594,3.594,0,0,1,3.591,3.591V174.28A3.594,3.594,0,0,1,379.522,177.871ZM258.091.157a3.438,3.438,0,0,0-3.434,3.434V174.28a3.438,3.438,0,0,0,3.434,3.434H379.522a3.438,3.438,0,0,0,3.434-3.434V3.591A3.438,3.438,0,0,0,379.522.157Z" transform="translate(-94.457 0)" fill="#ebebeb"/>
      <path id="Trazado_611561" data-name="Trazado 611561" d="M122.854,34.92H62.05V202.635h60.8Z" transform="translate(-23.03 -12.961)" fill="#c6c6c6"/>
      <path id="Trazado_611562" data-name="Trazado 611562" d="M158.74,202.635h.616V34.92h-.616Z" transform="translate(-58.916 -12.961)" fill="#ebebeb"/>
      <path id="Trazado_611563" data-name="Trazado 611563" d="M120.449,45.1H71.38V200.018h49.069Z" transform="translate(-26.493 -16.739)" fill="#fff"/>
      <path id="Trazado_611564" data-name="Trazado 611564" d="M200.19,129.891H343.625V23.32H200.19Z" transform="translate(-74.3 -8.655)" fill="#e6e6e6"/>
      <path id="Trazado_611565" data-name="Trazado 611565" d="M196.66,129.891H340.095V23.32H196.66Z" transform="translate(-72.99 -8.655)" fill="#c6c6c6"/>
      <path id="Trazado_611566" data-name="Trazado 611566" d="M338.457,128.053V30.43H202.99v97.623Z" transform="translate(-75.34 -11.294)" fill="#fff"/>
      <path id="Trazado_611567" data-name="Trazado 611567" d="M204.659,128.053V30.43H202.98v97.623Z" transform="translate(-75.336 -11.294)" fill="#e6e6e6"/>
      <path id="Trazado_611568" data-name="Trazado 611568" d="M199.27,148.962H339.409V142.95H199.27Z" transform="translate(-73.959 -53.056)" fill="#c6c6c6"/>
      <g id="Grupo_1015730" data-name="Grupo 1015730" transform="translate(119.218 9.948)" opacity="0.4">
        <path id="Trazado_611569" data-name="Trazado 611569" d="M203.119,15.83H189.58V50.084h13.539Z" transform="translate(-189.58 -15.824)" fill="#e6e6e6"/>
        <path id="Trazado_611570" data-name="Trazado 611570" d="M211.11,47.319h6.716V15.82H211.11Z" transform="translate(-197.571 -15.82)" fill="#c6c6c6"/>
        <path id="Trazado_611571" data-name="Trazado 611571" d="M235.329,15.83H221.79V50.084h13.539Z" transform="translate(-201.535 -15.824)" fill="#e6e6e6"/>
        <path id="Trazado_611572" data-name="Trazado 611572" d="M243.32,47.319h6.716V15.82H243.32Z" transform="translate(-209.526 -15.82)" fill="#c6c6c6"/>
        <path id="Trazado_611573" data-name="Trazado 611573" d="M267.539,15.83H254V50.084h13.539Z" transform="translate(-213.489 -15.824)" fill="#e6e6e6"/>
        <path id="Trazado_611574" data-name="Trazado 611574" d="M275.53,47.319h6.716V15.82H275.53Z" transform="translate(-221.48 -15.82)" fill="#c6c6c6"/>
        <path id="Trazado_611575" data-name="Trazado 611575" d="M299.749,15.83H286.21V50.084h13.539Z" transform="translate(-225.444 -15.824)" fill="#e6e6e6"/>
        <path id="Trazado_611576" data-name="Trazado 611576" d="M307.74,47.319h6.716V15.82H307.74Z" transform="translate(-233.435 -15.82)" fill="#c6c6c6"/>
        <path id="Trazado_611577" data-name="Trazado 611577" d="M331.959,15.83H318.42V50.084h13.539Z" transform="translate(-237.399 -15.824)" fill="#e6e6e6"/>
        <path id="Trazado_611578" data-name="Trazado 611578" d="M339.95,47.319h6.716V15.82H339.95Z" transform="translate(-245.39 -15.82)" fill="#c6c6c6"/>
        <path id="Trazado_611579" data-name="Trazado 611579" d="M364.169,15.83H350.63V50.084h13.539Z" transform="translate(-249.354 -15.824)" fill="#e6e6e6"/>
        <path id="Trazado_611580" data-name="Trazado 611580" d="M372.16,47.319h6.716V15.82H372.16Z" transform="translate(-257.344 -15.82)" fill="#c6c6c6"/>
        <path id="Trazado_611581" data-name="Trazado 611581" d="M396.379,15.83H382.84V50.084h13.539Z" transform="translate(-261.308 -15.824)" fill="#e6e6e6"/>
        <path id="Trazado_611582" data-name="Trazado 611582" d="M404.37,47.319h6.716V15.82H404.37Z" transform="translate(-269.299 -15.82)" fill="#c6c6c6"/>
        <path id="Trazado_611583" data-name="Trazado 611583" d="M428.589,15.83H415.05V50.084h13.539Z" transform="translate(-273.263 -15.824)" fill="#e6e6e6"/>
      </g>
      <path id="Trazado_611584" data-name="Trazado 611584" d="M203.71,290.548h16.784V228.04H203.71Z" transform="translate(-75.607 -84.637)" fill="#e6e6e6"/>
      <path id="Trazado_611585" data-name="Trazado 611585" d="M206.512,324.128H203.72V318.5h5.723Z" transform="translate(-75.61 -118.211)" fill="#969696"/>
      <path id="Trazado_611586" data-name="Trazado 611586" d="M395.76,290.548h16.784V228.04H395.76Z" transform="translate(-146.886 -84.637)" fill="#e6e6e6"/>
      <path id="Trazado_611587" data-name="Trazado 611587" d="M203.72,288.395h123.2V228.05H203.72Z" transform="translate(-75.61 -84.64)" fill="#969696"/>
      <path id="Trazado_611588" data-name="Trazado 611588" d="M207.17,248.851H326.035V232.3H207.17Z" transform="translate(-76.891 -86.218)" fill="#e6e6e6"/>
      <path id="Trazado_611589" data-name="Trazado 611589" d="M250.727,237.147h58.728c2.723,0,5.333-2.044,7.207-5.647H243.52C245.394,235.1,248,237.147,250.727,237.147Z" transform="translate(-90.382 -85.921)" fill="#969696"/>
      <path id="Trazado_611590" data-name="Trazado 611590" d="M393.46,324.128h2.792V318.5H390.53Z" transform="translate(-144.945 -118.211)" fill="#969696"/>
      <path id="Trazado_611591" data-name="Trazado 611591" d="M207.17,279.421H326.035V262.87H207.17Z" transform="translate(-76.891 -97.564)" fill="#e6e6e6"/>
      <path id="Trazado_611592" data-name="Trazado 611592" d="M250.727,267.717h58.728c2.723,0,5.333-2.044,7.207-5.647H243.52C245.394,265.673,248,267.717,250.727,267.717Z" transform="translate(-90.382 -97.267)" fill="#969696"/>
      <path id="Trazado_611593" data-name="Trazado 611593" d="M207.17,309.991H326.035V293.44H207.17Z" transform="translate(-76.891 -108.91)" fill="#e6e6e6"/>
      <path id="Trazado_611594" data-name="Trazado 611594" d="M250.727,298.287h58.728c2.723,0,5.333-2.044,7.207-5.647H243.52C245.394,296.243,248,298.287,250.727,298.287Z" transform="translate(-90.382 -108.613)" fill="#969696"/>
      <path id="Trazado_611595" data-name="Trazado 611595" d="M178.038,364.207c67.339,0,121.928-3.187,121.928-7.119s-54.589-7.119-121.928-7.119S56.11,353.157,56.11,357.089,110.7,364.207,178.038,364.207Z" transform="translate(-20.825 -129.891)" fill="#c6c6c6"/>
      <path id="Trazado_611596" data-name="Trazado 611596" d="M366.725,338.247h-.673a.586.586,0,0,1-.535-.547l-4.138-28.82h3.144l2.742,28.625a.626.626,0,0,1-.541.736Z" transform="translate(-134.126 -114.64)" fill="#3b5620"/>
      <path id="Trazado_611597" data-name="Trazado 611597" d="M366.725,338.247h-.673a.586.586,0,0,1-.535-.547l-4.138-28.82h3.144l2.742,28.625a.626.626,0,0,1-.541.736Z" transform="translate(-134.126 -114.64)" opacity="0.3"/>
      <path id="Trazado_611598" data-name="Trazado 611598" d="M380.445,338.247h-.673a.586.586,0,0,1-.534-.547L375.1,308.88h3.144l2.742,28.625a.626.626,0,0,1-.541.736Z" transform="translate(-139.218 -114.64)" fill="#3b5620"/>
      <path id="Trazado_611599" data-name="Trazado 611599" d="M380.445,338.247h-.673a.586.586,0,0,1-.534-.547L375.1,308.88h3.144l2.742,28.625a.626.626,0,0,1-.541.736Z" transform="translate(-139.218 -114.64)" opacity="0.3"/>
      <path id="Trazado_611600" data-name="Trazado 611600" d="M306.839,338.247h.673a.586.586,0,0,0,.534-.547l4.138-28.82H309.04L306.3,337.505a.626.626,0,0,0,.541.736Z" transform="translate(-113.681 -114.64)" fill="#3b5620"/>
      <path id="Trazado_611601" data-name="Trazado 611601" d="M306.839,338.247h.673a.586.586,0,0,0,.534-.547l4.138-28.82H309.04L306.3,337.505a.626.626,0,0,0,.541.736Z" transform="translate(-113.681 -114.64)" opacity="0.3"/>
      <path id="Trazado_611602" data-name="Trazado 611602" d="M293.119,338.247h.673a.586.586,0,0,0,.535-.547l4.138-28.82H295.32l-2.742,28.625a.626.626,0,0,0,.541.736Z" transform="translate(-108.589 -114.64)" fill="#3b5620"/>
      <path id="Trazado_611603" data-name="Trazado 611603" d="M293.119,338.247h.673a.586.586,0,0,0,.535-.547l4.138-28.82H295.32l-2.742,28.625a.626.626,0,0,0,.541.736Z" transform="translate(-108.589 -114.64)" opacity="0.3"/>
      <path id="Trazado_611604" data-name="Trazado 611604" d="M273.791,240.783h21.18c3.761-13.049,17.281-23.343,31.128-23.343h6.88c14.5,0,23.846,11.275,20.89,25.192a28.069,28.069,0,0,1-2.7,7.339l-3.339,20.243c-.434,2.616-2.515,4.729-4.653,4.729H279.432c-2.138,0-4.226-2.119-4.654-4.729l-4.075-24.7c-.434-2.61.956-4.729,3.094-4.729Z" transform="translate(-100.442 -80.703)" fill="#3b5620"/>
      <path id="Trazado_611605" data-name="Trazado 611605" d="M273.791,240.783h21.18c3.761-13.049,17.281-23.343,31.128-23.343h6.88c14.5,0,23.846,11.275,20.89,25.192a28.069,28.069,0,0,1-2.7,7.339l-3.339,20.243c-.434,2.616-2.515,4.729-4.653,4.729H279.432c-2.138,0-4.226-2.119-4.654-4.729l-4.075-24.7c-.434-2.61.956-4.729,3.094-4.729Z" transform="translate(-100.442 -80.703)" fill="#fff" opacity="0.5"/>
      <path id="Trazado_611606" data-name="Trazado 611606" d="M261.179,342.809l5.245,2.409a.37.37,0,0,1,.2.478l-1.648,4.27a.909.909,0,0,1-1.2.453c-1.811-.868-2.635-1.377-4.943-2.434a61.72,61.72,0,0,1-7.056-4.088c-1.71-1.233-.453-2.956.4-2.578,3.83,1.692,6.27,1.842,8.068,1.415a1.485,1.485,0,0,1,.937.082Z" transform="translate(-93.131 -126.66)" fill="#263238"/>
      <path id="Trazado_611607" data-name="Trazado 611607" d="M304.185,241.476s-33.537.415-34.052,13.634c-.742,19-3.553,50.547-3.553,50.547l5.653,2.522s9.911-31.656,10.263-46.5c9.408-2.346,33.688.019,36.536-7.716a25.377,25.377,0,0,0,1.069-12.5H304.179Z" transform="translate(-98.941 -89.621)" fill="#3b5620"/>
      <path id="Trazado_611608" data-name="Trazado 611608" d="M304.185,241.476s-33.537.415-34.052,13.634c-.742,19-3.553,50.547-3.553,50.547l5.653,2.522s9.911-31.656,10.263-46.5c9.408-2.346,33.688.019,36.536-7.716a25.377,25.377,0,0,0,1.069-12.5H304.179Z" transform="translate(-98.941 -89.621)" opacity="0.2"/>
      <path id="Trazado_611609" data-name="Trazado 611609" d="M317.186,183.369c-.289,1.22-.585,2.32-.924,3.465s-.679,2.258-1.038,3.377c-.736,2.239-1.547,4.465-2.484,6.666a55.379,55.379,0,0,1-3.232,6.546,31.853,31.853,0,0,1-2.132,3.207,18.507,18.507,0,0,1-2.924,3.088l-.094.075a1.582,1.582,0,0,1-.208.151,4.734,4.734,0,0,1-2.113.755,5.933,5.933,0,0,1-1.434-.013,8.719,8.719,0,0,1-1.924-.465,19.975,19.975,0,0,1-2.817-1.283,46.279,46.279,0,0,1-4.672-2.968q-2.188-1.575-4.238-3.27c-1.358-1.151-2.691-2.283-3.987-3.534a1.92,1.92,0,0,1,2.264-3.062l.031.019c1.484.824,2.981,1.7,4.484,2.5,1.5.83,2.987,1.648,4.477,2.409s2.987,1.5,4.421,2.088a13.653,13.653,0,0,0,2.006.673,2.532,2.532,0,0,0,.61.082c.044,0,.013-.025-.132-.013a1.98,1.98,0,0,0-.893.333l-.3.226a11.876,11.876,0,0,0,1.629-2.006c.522-.8,1.038-1.666,1.516-2.578a59.17,59.17,0,0,0,2.578-5.829c.773-2.025,1.5-4.1,2.17-6.2.685-2.081,1.3-4.257,1.874-6.295l.019-.075a3.85,3.85,0,0,1,7.452,1.931Z" transform="translate(-104.804 -66.296)" fill="#263238"/>
      <path id="Trazado_611610" data-name="Trazado 611610" d="M310.563,348.06h6.295a.4.4,0,0,1,.415.384l.3,4.98a.989.989,0,0,1-.981.994c-2.188-.038-3.239-.164-6.006-.164-1.7,0-5.138.176-7.483.176s-2.283-2.327-1.289-2.534a16.121,16.121,0,0,0,7.779-3.49,1.557,1.557,0,0,1,.962-.346Z" transform="translate(-111.777 -129.182)" fill="#263238"/>
      <path id="Trazado_611611" data-name="Trazado 611611" d="M323.231,241.48s-30.418,2.572-29.669,15.778c.818,14.464,14.174,51.251,14.174,51.251h6.15s-5.263-33.688-7.119-48.415c8.571,0,28.456,1.616,31.31-6.119a25.377,25.377,0,0,0,1.069-12.5H323.231Z" transform="translate(-108.95 -89.625)" fill="#3b5620"/>
      <path id="Trazado_611612" data-name="Trazado 611612" d="M285.524,206.21a10.233,10.233,0,0,0-1.71-2.1c-1.245,1.163-1.943,4.565-1.943,4.565l1.723.157a2.839,2.839,0,0,0,1.937-2.622Z" transform="translate(-104.616 -75.755)" fill="#3b5620"/>
      <path id="Trazado_611613" data-name="Trazado 611613" d="M275,202.034l-1.956-.849a1.144,1.144,0,0,0-1.434.459l-.924,1.534a1.158,1.158,0,0,0,.151,1.383l2.685,2.8,4.477-.182a1.418,1.418,0,0,0,1.214-.773l.516-1.012a1.407,1.407,0,0,0-.446-1.817A15.486,15.486,0,0,0,275,202.04Z" transform="translate(-100.404 -74.635)" fill="#ffc3bd"/>
      <path id="Trazado_611614" data-name="Trazado 611614" d="M325.278,181.121c-.9,5.641-2.056,17.878.314,36.31l24.934-.233c-.151-12.766,1.855-24.758,3.8-36.473a3.489,3.489,0,0,0-2.962-4.031,92.651,92.651,0,0,0-21.526-.019A5.35,5.35,0,0,0,325.278,181.121Z" transform="translate(-120.322 -65.344)" fill="#263238"/>
      <path id="Trazado_611615" data-name="Trazado 611615" d="M362.518,179.516c.729,1.817,1.321,3.559,1.924,5.358s1.119,3.6,1.616,5.433c.478,1.836.931,3.691,1.277,5.6a44.942,44.942,0,0,1,.767,5.9c.031.509.044,1.038.05,1.566l-.013.8a4.879,4.879,0,0,1-.623,2.352,4.322,4.322,0,0,1-1.044,1.22,3.88,3.88,0,0,1-.623.421,3.585,3.585,0,0,1-.6.277,5.051,5.051,0,0,1-1.849.321,8.359,8.359,0,0,1-2.2-.346,19.038,19.038,0,0,1-3.05-1.2c-.912-.446-1.767-.924-2.6-1.409a69,69,0,0,1-9.219-6.6A1.92,1.92,0,0,1,348.382,196l.044.019c3.251,1.547,6.559,3.138,9.779,4.471.8.333,1.6.641,2.383.9a13,13,0,0,0,2.151.585,1.155,1.155,0,0,0,.516.013,1,1,0,0,0-.5.082,2.574,2.574,0,0,0-.289.132,2.642,2.642,0,0,0-.34.226,2.7,2.7,0,0,0-.61.7,2.318,2.318,0,0,0-.327,1.031l-.038-.566c-.038-.39-.069-.773-.126-1.182a67,67,0,0,0-2.346-10.036c-1.012-3.371-2.163-6.823-3.345-10.1l-.013-.031a3.85,3.85,0,0,1,7.194-2.742Z" transform="translate(-128.284 -65.726)" fill="#263238"/>
      <path id="Trazado_611616" data-name="Trazado 611616" d="M349.786,156.96l-3.018,2.5-4.106,3.408a12.958,12.958,0,0,1,.258,1.66c.195,1.981-.239,3.8-2.647,4.729a3.162,3.162,0,0,0-1.987,1.943c-.327,1.056.057,2.226,3.371,2.226,4.861,0,7.4-2.163,8.351-3.226a.852.852,0,0,0,.038-1.069C348.119,166.405,349,160.368,349.786,156.96Z" transform="translate(-125.519 -58.256)" fill="#ffc3bd"/>
      <path id="Trazado_611617" data-name="Trazado 611617" d="M342.749,181.45a1.979,1.979,0,0,1,.421.855,3.453,3.453,0,0,1,.912-.855,3.257,3.257,0,0,1,1.742,2.044,9.142,9.142,0,0,1-2.616-.975,4.544,4.544,0,0,1-1.748.547C341.5,181.978,342.749,181.45,342.749,181.45Z" transform="translate(-126.732 -67.345)" fill="#3b5620"/>
      <path id="Trazado_611618" data-name="Trazado 611618" d="M345.63,178.926a7.648,7.648,0,0,1,1.666,3.666s8.049-2.012,7.672-7.257a8.186,8.186,0,0,0-2.232-.685S351.007,177.794,345.63,178.926Z" transform="translate(-128.28 -64.821)" fill="#3b5620"/>
      <path id="Trazado_611619" data-name="Trazado 611619" d="M341.361,179.093a8.462,8.462,0,0,0-1.773,3.666s-4.132-3.761-.107-7.213a10.725,10.725,0,0,1,2.126-.446s-2.673,2.17-.252,3.993Z" transform="translate(-125.344 -64.988)" fill="#3b5620"/>
      <path id="Trazado_611620" data-name="Trazado 611620" d="M345.3,164.348a12.963,12.963,0,0,1,.258,1.66c1.534-.308,3.578-1.937,3.792-3.5a7.214,7.214,0,0,0,.057-1.566Z" transform="translate(-128.158 -59.733)" opacity="0.2"/>
      <path id="Trazado_611621" data-name="Trazado 611621" d="M337.107,139.464c-3.786,2.685-1.666,8.986,1.56,6.571S340.189,137.275,337.107,139.464Z" transform="translate(-124.367 -51.594)" fill="#263238"/>
      <path id="Trazado_611622" data-name="Trazado 611622" d="M349.941,143.951c-1.05,4.823-1.415,7.691-4.264,9.892a6.414,6.414,0,0,1-10.376-4.616c-.377-4.49,1.4-11.621,6.477-12.986a6.493,6.493,0,0,1,8.169,7.716Z" transform="translate(-124.429 -50.472)" fill="#ffc3bd"/>
      <path id="Trazado_611623" data-name="Trazado 611623" d="M347.44,137.7c-2.673-.736-9.565,1.019-12.011-1.591-2.622-2.8,1.207-4.157,2.333-3.188-1.428-1.635-.893-3.383,1.126-3.226a2.442,2.442,0,0,1,1.943,1.748s-.245-2.861,2.289-2.66c2.3.176,2.308,3.283,2.308,3.283s5.5-1.553,7.332,3.691c3.459-.075,3.383,7.207-3.578,9.8-2.824-1.4-2.956-6.364-1.748-7.854Z" transform="translate(-124.16 -47.794)" fill="#263238"/>
      <path id="Trazado_611624" data-name="Trazado 611624" d="M361.939,139.074a.7.7,0,0,1-.126-1.39.978.978,0,0,0,.4-.509,1.65,1.65,0,0,0,.075-1.308.7.7,0,1,1,1.27-.579,3.082,3.082,0,0,1-.151,2.622,2.054,2.054,0,0,1-1.352,1.151.854.854,0,0,1-.126.013Z" transform="translate(-134.074 -50.06)" fill="#263238"/>
      <path id="Trazado_611625" data-name="Trazado 611625" d="M357.444,154.071a4.413,4.413,0,0,1-2.647,1.641c-1.365.239-1.78-1.012-1.176-2.232.541-1.094,1.905-2.541,3.163-2.226,1.239.308,1.465,1.761.654,2.824Z" transform="translate(-131.146 -56.122)" fill="#ffc3bd"/>
      <path id="Trazado_611626" data-name="Trazado 611626" d="M344.919,148.9c-.063.4-.321.692-.579.66s-.421-.377-.358-.773.321-.692.578-.66S344.982,148.506,344.919,148.9Z" transform="translate(-127.664 -54.977)" fill="#263238"/>
      <path id="Trazado_611627" data-name="Trazado 611627" d="M337.779,148.052c-.063.4-.321.692-.579.66s-.421-.377-.358-.773.321-.692.579-.66S337.842,147.656,337.779,148.052Z" transform="translate(-125.014 -54.661)" fill="#263238"/>
      <path id="Trazado_611628" data-name="Trazado 611628" d="M339.414,148.76a12.762,12.762,0,0,1-1.874,2.817,1.939,1.939,0,0,0,1.6.39Z" transform="translate(-125.278 -55.212)" fill="#ed847e"/>
      <path id="Trazado_611629" data-name="Trazado 611629" d="M342.662,156.371a3.443,3.443,0,0,0,2.5-1.025.116.116,0,1,0-.176-.151,3.3,3.3,0,0,1-2.761.924.117.117,0,0,0-.031.233,3.989,3.989,0,0,0,.465.025Z" transform="translate(-126.966 -57.585)" fill="#263238"/>
      <path id="Trazado_611630" data-name="Trazado 611630" d="M347.145,145.03a.2.2,0,0,0,.107-.057.237.237,0,0,0,.019-.333,2.261,2.261,0,0,0-1.975-.78.229.229,0,0,0-.189.27.234.234,0,0,0,.27.189,1.787,1.787,0,0,1,1.541.629.238.238,0,0,0,.226.075Z" transform="translate(-128.085 -53.387)" fill="#263238"/>
      <path id="Trazado_611631" data-name="Trazado 611631" d="M335.688,144.727a.243.243,0,0,0,.214-.044,1.936,1.936,0,0,1,1.673-.453.23.23,0,0,0,.289-.163.233.233,0,0,0-.164-.289,2.411,2.411,0,0,0-2.1.547.238.238,0,0,0-.031.333.226.226,0,0,0,.113.075Z" transform="translate(-124.526 -53.342)" fill="#263238"/>
      <path id="Trazado_611632" data-name="Trazado 611632" d="M345.418,200.825l-2.754-1.71a1.745,1.745,0,0,0-2.415.579l-.327.535a1.753,1.753,0,0,0,.176,2.05l1.9,2.182s1.654,3.855,3.572,2.836l1.459-2.534-1.616-3.937Z" transform="translate(-126.069 -73.803)" fill="#ffc3bd"/>
      <path id="Trazado_611633" data-name="Trazado 611633" d="M350.993,208.306a11.535,11.535,0,0,0-1.44-2.566c-1.383,1.182-2.5,4.962-2.5,4.962l1.692.365A3.145,3.145,0,0,0,350.993,208.306Z" transform="translate(-128.807 -76.36)" fill="#3b5620"/>
      <path id="Trazado_611634" data-name="Trazado 611634" d="M365.687,254.56h-32.65c-2.138,0-3.528,2.119-3.094,4.729l4.075,24.7c.434,2.616,2.515,4.729,4.654,4.729h22.972Z" transform="translate(-122.429 -94.48)" fill="#3b5620"/>
      <path id="Trazado_611635" data-name="Trazado 611635" d="M365.687,254.56h-32.65c-2.138,0-3.528,2.119-3.094,4.729l4.075,24.7c.434,2.616,2.515,4.729,4.654,4.729h22.972Z" transform="translate(-122.429 -94.48)" fill="#fff" opacity="0.5"/>
      <path id="Trazado_611636" data-name="Trazado 611636" d="M146.919,312.6h.943a.639.639,0,0,0,.61-.623l5.188-77.908h-3.9L146.309,311.9A.647.647,0,0,0,146.919,312.6Z" transform="translate(-54.302 -86.875)" fill="#3b5620"/>
      <path id="Trazado_611637" data-name="Trazado 611637" d="M146.919,312.6h.943a.639.639,0,0,0,.61-.623l5.188-77.908h-3.9L146.309,311.9A.647.647,0,0,0,146.919,312.6Z" transform="translate(-54.302 -86.875)" fill="#fff" opacity="0.3"/>
      <path id="Trazado_611638" data-name="Trazado 611638" d="M129.919,312.6h.943a.639.639,0,0,0,.61-.623l5.188-77.908h-3.9L129.309,311.9A.647.647,0,0,0,129.919,312.6Z" transform="translate(-47.993 -86.875)" fill="#3b5620"/>
      <path id="Trazado_611639" data-name="Trazado 611639" d="M129.919,312.6h.943a.639.639,0,0,0,.61-.623l5.188-77.908h-3.9L129.309,311.9A.647.647,0,0,0,129.919,312.6Z" transform="translate(-47.993 -86.875)" fill="#fff" opacity="0.3"/>
      <path id="Trazado_611640" data-name="Trazado 611640" d="M335.951,312.6h-.943a.639.639,0,0,1-.61-.623L329.21,234.07h3.9l3.452,77.827A.647.647,0,0,1,335.951,312.6Z" transform="translate(-122.186 -86.875)" fill="#3b5620"/>
      <path id="Trazado_611641" data-name="Trazado 611641" d="M335.951,312.6h-.943a.639.639,0,0,1-.61-.623L329.21,234.07h3.9l3.452,77.827A.647.647,0,0,1,335.951,312.6Z" transform="translate(-122.186 -86.875)" fill="#fff" opacity="0.3"/>
      <path id="Trazado_611642" data-name="Trazado 611642" d="M352.951,312.6h-.943a.639.639,0,0,1-.61-.623L346.21,234.07h3.9l3.452,77.827A.647.647,0,0,1,352.951,312.6Z" transform="translate(-128.495 -86.875)" fill="#3b5620"/>
      <path id="Trazado_611643" data-name="Trazado 611643" d="M352.951,312.6h-.943a.639.639,0,0,1-.61-.623L346.21,234.07h3.9l3.452,77.827A.647.647,0,0,1,352.951,312.6Z" transform="translate(-128.495 -86.875)" fill="#fff" opacity="0.3"/>
      <path id="Trazado_611644" data-name="Trazado 611644" d="M274.522,231.53H122.78v1.6H274.522Z" transform="translate(-45.57 -85.932)" fill="#3b5620"/>
      <path id="Trazado_611645" data-name="Trazado 611645" d="M113.805,191.543l-1.434,10.546c-.453,3.509-.924,7.031-1.264,10.489-.05.434-.082.862-.113,1.289l-.05.641a1.585,1.585,0,0,0-.025-.314,1.515,1.515,0,0,0-.075-.3,1.01,1.01,0,0,0-.094-.22,1.463,1.463,0,0,0-.088-.145c-.113-.145-.126-.126-.094-.094a1.035,1.035,0,0,0,.214.176,6.335,6.335,0,0,0,.83.484,33.889,33.889,0,0,0,4.616,1.717c3.3,1,6.76,1.868,10.181,2.71l-.384,3.006a76.25,76.25,0,0,1-10.9-1.132,31.384,31.384,0,0,1-5.6-1.478,11.665,11.665,0,0,1-1.553-.729,7.059,7.059,0,0,1-.88-.6,5.089,5.089,0,0,1-1.006-1.069,4.156,4.156,0,0,1-.478-.962,4.994,4.994,0,0,1-.151-.623,4.916,4.916,0,0,1-.038-.648l.013-.7c.013-.465.019-.931.044-1.39.151-3.673.478-7.257.874-10.841s.843-7.137,1.4-10.709l6.05.893Z" transform="translate(-39.123 -70.76)" fill="#7f3e3b"/>
      <path id="Trazado_611646" data-name="Trazado 611646" d="M144.826,237.805l-2.308,2.107a1.783,1.783,0,0,1-1.981.289l-2.547-1.226s-3.779-.157-4.32-2.465l.975-1.792,5.855-.648a2.713,2.713,0,0,1,1.723.384l2.415,1.472a1.182,1.182,0,0,1,.182,1.88Z" transform="translate(-49.611 -86.868)" fill="#7f3e3b"/>
      <path id="Trazado_611647" data-name="Trazado 611647" d="M128.574,157.61c.6,3.616,1.107,10.225-1.484,12.552a33.892,33.892,0,0,1,10.458,9.081c4.427-3.509.723-8.747.723-8.747-3.981-1.075-3.792-4.05-3.006-6.823l-6.685-6.062Z" transform="translate(-47.169 -58.497)" fill="#7f3e3b"/>
      <path id="Trazado_611648" data-name="Trazado 611648" d="M138.909,178.5s-.333-3.069-2.006-4.584c-1.409-1.277-8.785-.566-11.112-.308a1.27,1.27,0,0,0-1.006.717l-1.685,3.522Z" transform="translate(-45.688 -64.274)" fill="#3b5620"/>
      <path id="Trazado_611649" data-name="Trazado 611649" d="M138.909,178.5s-.333-3.069-2.006-4.584c-1.409-1.277-8.785-.566-11.112-.308a1.27,1.27,0,0,0-1.006.717l-1.685,3.522Z" transform="translate(-45.688 -64.274)" fill="#fff" opacity="0.8"/>
      <path id="Trazado_611650" data-name="Trazado 611650" d="M112.655,178.981c-4.553,1.484-5.534,7.584-5.125,12.338l9.188,5.653s2.232-6.936,2.214-10.646c-.019-3.943-3.188-8.351-6.282-7.351Z" transform="translate(-39.878 -66.373)" fill="#3b5620"/>
      <path id="Trazado_611651" data-name="Trazado 611651" d="M118.055,204.481a.879.879,0,0,1-.6-.245.92.92,0,0,1-.1-.132.58.58,0,0,1-.082-.151,1.15,1.15,0,0,1-.05-.157.724.724,0,0,1-.019-.163.862.862,0,0,1,.252-.6.878.878,0,0,1,1.207,0,.862.862,0,0,1,.252.6.485.485,0,0,1-.019.163.656.656,0,0,1-.05.157.566.566,0,0,1-.075.151c-.031.044-.069.088-.107.132A.857.857,0,0,1,118.055,204.481Z" transform="translate(-43.499 -75.264)" fill="#fff"/>
      <path id="Trazado_611652" data-name="Trazado 611652" d="M112.98,202.372a.857.857,0,0,1-.547-.767.841.841,0,0,1-.924.138.86.86,0,0,1-.5-.792.836.836,0,0,1-.931.082.849.849,0,0,1-.446-.818.855.855,0,1,1-.05-1.427.877.877,0,0,1,.409.8.845.845,0,0,1,.893-.057.863.863,0,0,1,.453.774.854.854,0,0,1,1.383.635.869.869,0,0,1,.88-.157.856.856,0,0,1,.478,1.107.846.846,0,0,1-.792.541.922.922,0,0,1-.314-.057Z" transform="translate(-40.191 -73.734)" fill="#fff"/>
      <path id="Trazado_611653" data-name="Trazado 611653" d="M107.085,199.043a.522.522,0,0,1-.17-.019.656.656,0,0,1-.157-.05.565.565,0,0,1-.151-.075,1.029,1.029,0,0,1-.126-.107.666.666,0,0,1-.107-.126c-.031-.05-.057-.1-.082-.151a1.519,1.519,0,0,1-.05-.157c0-.057-.013-.113-.013-.17a1.327,1.327,0,0,1,.013-.164,1.626,1.626,0,0,1,.05-.163.657.657,0,0,1,.082-.145.984.984,0,0,1,.107-.132,1.027,1.027,0,0,1,.126-.107.845.845,0,0,1,.151-.075,1.148,1.148,0,0,1,.157-.05.877.877,0,0,1,.767.233.984.984,0,0,1,.107.132,1.074,1.074,0,0,1,.082.145.789.789,0,0,1,.044.163.686.686,0,0,1,.019.164.523.523,0,0,1-.019.17.736.736,0,0,1-.044.157c-.025.05-.05.1-.082.151a.666.666,0,0,1-.107.126A.859.859,0,0,1,107.085,199.043Z" transform="translate(-39.427 -73.242)" fill="#fff"/>
      <path id="Trazado_611654" data-name="Trazado 611654" d="M143.1,187.36c-.384,5.232-1.547,14.036-4.415,28.864l-24.613-.729c.648-9.087-.327-15.86-2.553-31.763a5.161,5.161,0,0,1,4.6-5.855c1.578-.164,3.377-.3,5.182-.333a78.465,78.465,0,0,1,11.175.333c1.2.145,2.44.333,3.622.535a8.439,8.439,0,0,1,7.005,8.942Z" transform="translate(-41.371 -65.878)" fill="#3b5620"/>
      <path id="Trazado_611655" data-name="Trazado 611655" d="M149.695,146.458c.057.484.365.849.679.811s.528-.465.472-.95-.365-.849-.679-.811S149.638,145.974,149.695,146.458Z" transform="translate(-55.556 -54.004)" fill="#263238"/>
      <path id="Trazado_611656" data-name="Trazado 611656" d="M150.23,145.308l1.126-.478S150.865,145.811,150.23,145.308Z" transform="translate(-55.758 -53.753)" fill="#263238"/>
      <path id="Trazado_611657" data-name="Trazado 611657" d="M149.97,148.22a13.113,13.113,0,0,0,2.1,2.893,2.119,2.119,0,0,1-1.692.535l-.409-3.421Z" transform="translate(-55.661 -55.012)" fill="#630f0f"/>
      <path id="Trazado_611658" data-name="Trazado 611658" d="M148.608,139.986a.27.27,0,0,0,.019-.283.292.292,0,0,0-.384-.138,2.844,2.844,0,0,0-1.635,2.05.285.285,0,0,0,.566.075,2.289,2.289,0,0,1,1.314-1.61.254.254,0,0,0,.113-.1Z" transform="translate(-54.413 -51.79)" fill="#263238"/>
      <path id="Trazado_611659" data-name="Trazado 611659" d="M122.98,141.074c1.082,5.917,1.415,8.445,4.792,11.15,5.081,4.062,12.118,1.44,12.829-4.685.641-5.509-1.239-14.269-7.358-15.941a8.205,8.205,0,0,0-10.257,9.477Z" transform="translate(-45.594 -48.728)" fill="#7f3e3b"/>
      <path id="Trazado_611660" data-name="Trazado 611660" d="M131.67,138.615c1,3.251,3.377,11.118-1.874,12.866-4.106,1.371-16.973,2.465-18.457-5.075-1.534-7.791,5.421-13.344,5.421-13.344s-5.509-4.515-1.981-9.433c4.547-6.339,15.432-2.754,18.664,1.723,3.144,4.358-1.773,13.256-1.773,13.256Z" transform="translate(-41.241 -44.614)" fill="#263238"/>
      <path id="Trazado_611661" data-name="Trazado 611661" d="M120.937,160a18.273,18.273,0,0,1-6.873-1.358c-2.924-1.258-4.628-3.2-4.93-5.622-1.031-8.219,6.616-12.734,6.691-12.778l.3.528c-.075.044-7.376,4.364-6.4,12.181.346,2.773,2.679,4.326,4.565,5.138,3.735,1.61,8.559,1.6,9.728.742l.358.491a6.551,6.551,0,0,1-3.459.685Z" transform="translate(-40.469 -52.05)" fill="#263238"/>
      <path id="Trazado_611662" data-name="Trazado 611662" d="M116.227,138.323c-.069,1.05-.943,2.5,2.7,3.037s8.71.49,9.747-.384,2.063-2.974-.113-2.786-12.225-1.666-12.344.132Z" transform="translate(-43.085 -51.045)" fill="#3b5620"/>
      <path id="Trazado_611663" data-name="Trazado 611663" d="M140.461,149.055a4.75,4.75,0,0,0,2.792,2.283c1.585.465,2.4-.95,1.981-2.459-.384-1.358-1.666-3.239-3.27-3.037a2.117,2.117,0,0,0-1.5,3.22Z" transform="translate(-52.025 -54.123)" fill="#7f3e3b"/>
      <path id="Trazado_611664" data-name="Trazado 611664" d="M199.974,339.947l5.836-.113-2.824-14.564-5.836.107Z" transform="translate(-73.172 -120.724)" fill="#7f3e3b"/>
      <path id="Trazado_611665" data-name="Trazado 611665" d="M205.991,338.516c1.547,5.811,7.219,11.967,7.219,11.967l-8.1-2.056-3.54-5.031.623-1.333,3.8-3.553Z" transform="translate(-74.812 -125.638)" fill="#7f3e3b"/>
      <path id="Trazado_611666" data-name="Trazado 611666" d="M199.446,342.107a11.7,11.7,0,0,0,.119,2.038c.34,2.4,1.4,8.779,1.4,8.779h.547a56.861,56.861,0,0,1-.446-5.867c.075-1.578,1.094,1.214,2.327,2.8s3.452,3.025,7.043,3.132c4.2.132,5.88-.044,4.534-1.094a14.091,14.091,0,0,0-4.213-1.736,12.785,12.785,0,0,1-5.672-4.742,14.806,14.806,0,0,0-5.219-4.515c-.34.057-.409.7-.428,1.207Z" transform="translate(-74.022 -126.525)" fill="#263238"/>
      <path id="Trazado_611667" data-name="Trazado 611667" d="M230.943,309.966l7.446.226-8.332-12.382-5.157,4.408Z" transform="translate(-83.471 -110.532)" fill="#7f3e3b"/>
      <path id="Trazado_611668" data-name="Trazado 611668" d="M237.32,308.77c5.414,2.522,14.08,2.025,14.08,2.025l-7.043,5.653L238.314,316l-.635-1.339-.352-5.886Z" transform="translate(-88.081 -114.6)" fill="#7f3e3b"/>
      <path id="Trazado_611669" data-name="Trazado 611669" d="M235.107,315.706a12.457,12.457,0,0,0,1.566,1.3c1.975,1.377,7.314,4.905,7.314,4.905l.34-.428a56.908,56.908,0,0,1-4.584-3.666c-1.113-1.145,1.566-.031,3.49.082s4.352-.648,6.647-3.4c2.691-3.213,3.6-4.654,1.993-4.314A12.866,12.866,0,0,0,248,312.317a11.341,11.341,0,0,1-6.987,1.214,13.1,13.1,0,0,0-6.534,1.012c-.163.308.258.8.623,1.163Z" transform="translate(-87.013 -115.109)" fill="#263238"/>
      <path id="Trazado_611670" data-name="Trazado 611670" d="M130.8,237.4s39.844-5.892,43.969,4.32c7.175,17.771,17.312,38.134,17.312,38.134l-4.892,4.05s-17.375-16.08-23.557-33.939c-7.383,2.39-30.87,10.074-39.473,10.074-9.188,0-12.942-7.835-9.621-20.84a2.613,2.613,0,0,1,2.547-1.956c5.785.031,13.709.157,13.709.157Z" transform="translate(-42.068 -87.484)" fill="#263238"/>
      <path id="Trazado_611671" data-name="Trazado 611671" d="M136.466,243.41s32.707-.987,32.977,10.6c.459,19.161,5.855,46.617,5.855,46.617l-5.968.553s-9.753-21.84-12.332-40.555c-11.653.755-22.387.233-30.99.233-9.64,0-10.439-10.59-1.056-22.94,5.735,0,11.508,5.49,11.508,5.49Z" transform="translate(-43.918 -88.304)" fill="#263238"/>
      <path id="Trazado_611672" data-name="Trazado 611672" d="M114.664,235.5l-.7,2.182c-.094.17.107.346.39.358l25.33.755c.22.006.409-.094.428-.233l.289-2.195c.019-.151-.17-.289-.409-.3l-24.921-.742A.473.473,0,0,0,114.664,235.5Z" transform="translate(-42.29 -87.342)" fill="#fff"/>
      <path id="Trazado_611673" data-name="Trazado 611673" d="M119.756,238.315l-.667-.019c-.132,0-.233-.075-.22-.157l.4-2.855c.013-.082.132-.151.264-.145l.667.019c.132,0,.233.075.22.157l-.4,2.855C120.008,238.253,119.888,238.322,119.756,238.315Z" transform="translate(-44.118 -87.272)" fill="#263238"/>
      <path id="Trazado_611674" data-name="Trazado 611674" d="M151.366,239.255l-.667-.019c-.132,0-.233-.075-.22-.157l.4-2.855c.013-.082.132-.151.264-.145l.667.019c.132,0,.233.075.22.157l-.4,2.855C151.618,239.193,151.5,239.262,151.366,239.255Z" transform="translate(-55.85 -87.621)" fill="#263238"/>
      <path id="Trazado_611675" data-name="Trazado 611675" d="M135.566,238.785l-.667-.019c-.132,0-.233-.076-.22-.157l.4-2.855c.013-.082.132-.151.264-.145l.667.019c.132,0,.233.075.22.157l-.4,2.855C135.818,238.723,135.7,238.792,135.566,238.785Z" transform="translate(-49.986 -87.446)" fill="#263238"/>
      <path id="Trazado_611676" data-name="Trazado 611676" d="M180.373,196.66h15.91a.76.76,0,0,1,.729.975l-5.943,20.406a.755.755,0,0,1-.729.547h-15.91a.76.76,0,0,1-.729-.975l5.943-20.406A.755.755,0,0,1,180.373,196.66Z" transform="translate(-64.457 -72.99)" fill="#3b5620"/>
      <path id="Trazado_611677" data-name="Trazado 611677" d="M181.186,197.85l15.463.365-6.106,19.243-15.463-.365Z" transform="translate(-64.981 -73.432)" fill="#c4c4c4"/>
      <path id="Trazado_611678" data-name="Trazado 611678" d="M180.639,197.55l15.463.063-5.729,19.362-15.463-.069Z" transform="translate(-64.918 -73.32)" fill="#fff"/>
      <path id="Trazado_611679" data-name="Trazado 611679" d="M158.229,198.18c.031.616.088,1.377.145,2.075s.138,1.428.233,2.138c.176,1.421.415,2.824.7,4.2a30.16,30.16,0,0,0,1.126,3.968,19.561,19.561,0,0,0,.767,1.811c.138.3.289.566.44.836l.233.384s-.044-.025-.025,0a2.793,2.793,0,0,0,1,.585,12.37,12.37,0,0,0,1.811.541,34.439,34.439,0,0,0,4.207.648c2.905.283,5.936.421,8.911.484l.3,3.012a56.919,56.919,0,0,1-9.376,1.056,33.345,33.345,0,0,1-4.905-.2,17.339,17.339,0,0,1-2.635-.535,7.819,7.819,0,0,1-3.006-1.553,5.244,5.244,0,0,1-.792-.855l-.4-.566c-.252-.371-.5-.748-.723-1.132a20.29,20.29,0,0,1-1.189-2.327A30.755,30.755,0,0,1,153.431,208a41.259,41.259,0,0,1-.937-4.8c-.107-.8-.189-1.61-.258-2.415-.069-.824-.113-1.585-.126-2.5l6.112-.1Z" transform="translate(-56.455 -73.554)" fill="#7f3e3b"/>
      <path id="Trazado_611680" data-name="Trazado 611680" d="M153.844,183.111c3.962,3.729,3.006,13.445,3.006,13.445l-7.59,1.327s-4.685-6.968-3.037-9.886C147.939,184.953,151.7,181.1,153.844,183.111Z" transform="translate(-54.14 -67.755)" fill="#3b5620"/>
      <path id="Trazado_611681" data-name="Trazado 611681" d="M162.829,205.172a.874.874,0,0,1-.6-.252.755.755,0,0,1-.107-.132,1.048,1.048,0,0,1-.075-.145,1.245,1.245,0,0,1-.05-.163c0-.05-.013-.107-.013-.163a.857.857,0,0,1,.245-.6,1.091,1.091,0,0,1,.132-.107.634.634,0,0,1,.145-.075.811.811,0,0,1,.164-.05.854.854,0,0,1,1.019.836.468.468,0,0,1-.019.163.707.707,0,0,1-.05.163.634.634,0,0,1-.075.145.754.754,0,0,1-.107.132A.862.862,0,0,1,162.829,205.172Z" transform="translate(-60.119 -75.515)" fill="#fff"/>
      <path id="Trazado_611682" data-name="Trazado 611682" d="M152.368,205.881a.854.854,0,0,1,.78-.924.841.841,0,0,1,.8.4.851.851,0,0,1,1.509-.22.851.851,0,0,1,1.49-.3.854.854,0,0,1-.5,1.365.868.868,0,0,1-.868-.352.851.851,0,0,1-1.547.226.86.86,0,0,1-.736.579h-.069A.859.859,0,0,1,152.368,205.881Z" transform="translate(-56.55 -75.772)" fill="#fff"/>
      <path id="Trazado_611683" data-name="Trazado 611683" d="M150.765,207.282a.781.781,0,0,1-.17-.019,1.146,1.146,0,0,1-.157-.05,1.125,1.125,0,0,1-.151-.075,1.025,1.025,0,0,1-.126-.107.547.547,0,0,1-.107-.132,1.073,1.073,0,0,1-.082-.145.791.791,0,0,1-.044-.163.686.686,0,0,1-.019-.164.523.523,0,0,1,.019-.17.737.737,0,0,1,.044-.157c.025-.05.05-.1.082-.151a.667.667,0,0,1,.107-.126,1.024,1.024,0,0,1,.126-.107.678.678,0,0,1,.151-.075.656.656,0,0,1,.157-.05.843.843,0,0,1,.767.233.669.669,0,0,1,.107.126c.031.05.057.1.082.151a1.521,1.521,0,0,1,.05.157c0,.057.013.113.013.17a1.332,1.332,0,0,1-.013.164,1.63,1.63,0,0,1-.05.163,1.076,1.076,0,0,1-.082.145.7.7,0,0,1-.107.132A.859.859,0,0,1,150.765,207.282Z" transform="translate(-55.639 -76.298)" fill="#fff"/>
      <path id="Trazado_611684" data-name="Trazado 611684" d="M198.688,221.162l-2.629-.176a2.96,2.96,0,0,0-1.849.5l-4.823,3.239-.038,2.044c1.547,1.8,4.968.189,4.968.189l3.176-.1a1.27,1.27,0,0,0,1.151-.836l1.151-3.151A1.273,1.273,0,0,0,198.688,221.162Z" transform="translate(-70.277 -82.016)" fill="#7f3e3b"/>
      <path id="Trazado_611685" data-name="Trazado 611685" d="M117.254,345.13h.711a.625.625,0,0,0,.566-.579l4.377-30.462h-3.32l-2.9,30.26A.663.663,0,0,0,117.254,345.13Z" transform="translate(-43.307 -116.574)" fill="#3b5620"/>
      <path id="Trazado_611686" data-name="Trazado 611686" d="M117.254,345.13h.711a.625.625,0,0,0,.566-.579l4.377-30.462h-3.32l-2.9,30.26A.663.663,0,0,0,117.254,345.13Z" transform="translate(-43.307 -116.574)" opacity="0.3"/>
      <path id="Trazado_611687" data-name="Trazado 611687" d="M102.754,345.13h.711a.625.625,0,0,0,.566-.579l4.377-30.462h-3.32l-2.9,30.26A.663.663,0,0,0,102.754,345.13Z" transform="translate(-37.926 -116.574)" fill="#3b5620"/>
      <path id="Trazado_611688" data-name="Trazado 611688" d="M102.754,345.13h.711a.625.625,0,0,0,.566-.579l4.377-30.462h-3.32l-2.9,30.26A.663.663,0,0,0,102.754,345.13Z" transform="translate(-37.926 -116.574)" opacity="0.3"/>
      <path id="Trazado_611689" data-name="Trazado 611689" d="M180.553,345.13h-.711a.625.625,0,0,1-.566-.579L174.9,314.09h3.32l2.9,30.26A.663.663,0,0,1,180.553,345.13Z" transform="translate(-64.914 -116.574)" fill="#3b5620"/>
      <path id="Trazado_611690" data-name="Trazado 611690" d="M180.553,345.13h-.711a.625.625,0,0,1-.566-.579L174.9,314.09h3.32l2.9,30.26A.663.663,0,0,1,180.553,345.13Z" transform="translate(-64.914 -116.574)" opacity="0.3"/>
      <path id="Trazado_611691" data-name="Trazado 611691" d="M195.053,345.13h-.711a.625.625,0,0,1-.566-.579L189.4,314.09h3.32l2.9,30.26A.663.663,0,0,1,195.053,345.13Z" transform="translate(-70.296 -116.574)" fill="#3b5620"/>
      <path id="Trazado_611692" data-name="Trazado 611692" d="M195.053,345.13h-.711a.625.625,0,0,1-.566-.579L189.4,314.09h3.32l2.9,30.26A.663.663,0,0,1,195.053,345.13Z" transform="translate(-70.296 -116.574)" opacity="0.3"/>
      <path id="Trazado_611693" data-name="Trazado 611693" d="M166.884,242.116H144.5c-3.974-13.791-18.262-24.676-32.9-24.676h-7.27c-15.319,0-25.2,11.923-22.085,26.626a29.835,29.835,0,0,0,2.849,7.76l3.528,21.4c.453,2.761,2.66,5,4.924,5h67.381c2.264,0,4.465-2.239,4.924-5l4.308-26.11C170.607,244.355,169.148,242.116,166.884,242.116Z" transform="translate(-30.31 -80.703)" fill="#3b5620"/>
      <path id="Trazado_611694" data-name="Trazado 611694" d="M166.884,242.116H144.5c-3.974-13.791-18.262-24.676-32.9-24.676h-7.27c-15.319,0-25.2,11.923-22.085,26.626a29.835,29.835,0,0,0,2.849,7.76l3.528,21.4c.453,2.761,2.66,5,4.924,5h67.381c2.264,0,4.465-2.239,4.924-5l4.308-26.11C170.607,244.355,169.148,242.116,166.884,242.116Z" transform="translate(-30.31 -80.703)" fill="#fff" opacity="0.5"/>
      <path id="Trazado_611695" data-name="Trazado 611695" d="M209.508,97.19H204.37v.629h5.138Z" transform="translate(-75.852 -36.072)" fill="#3b5620"/>
      <path id="Trazado_611696" data-name="Trazado 611696" d="M173.949,104.608h-.629v-3.094a4.318,4.318,0,0,1,4.32-4.314H189.1v.629H177.64a3.7,3.7,0,0,0-3.691,3.685Z" transform="translate(-64.328 -36.076)" fill="#3b5620"/>
      <path id="Trazado_611697" data-name="Trazado 611697" d="M236.272,100.69H178.933a2.113,2.113,0,0,0-2.113,2.113v22.488a2.113,2.113,0,0,0,2.113,2.113h57.339a2.114,2.114,0,0,0,2.113-2.113V102.8A2.113,2.113,0,0,0,236.272,100.69Z" transform="translate(-65.627 -37.371)" fill="#3b5620"/>
      <path id="Trazado_611698" data-name="Trazado 611698" d="M235.573,122.522H183.661a1.421,1.421,0,1,1,0-2.842h51.912a1.421,1.421,0,0,1,0,2.842Z" transform="translate(-67.638 -44.419)" fill="#fff"/>
      <path id="Trazado_611699" data-name="Trazado 611699" d="M224.461,131.912h-40.8a1.421,1.421,0,0,1,0-2.842h40.8a1.421,1.421,0,1,1,0,2.842Z" transform="translate(-67.638 -47.904)" fill="#fff"/>
      <path id="Trazado_611700" data-name="Trazado 611700" d="M201.168,113.132H183.661a1.421,1.421,0,0,1,0-2.842h17.507a1.421,1.421,0,0,1,0,2.842Z" transform="translate(-67.638 -40.934)" fill="#fff"/>
      <path id="Trazado_611701" data-name="Trazado 611701" d="M238.068,113.132H220.561a1.421,1.421,0,1,1,0-2.842h17.507a1.421,1.421,0,0,1,0,2.842Z" transform="translate(-81.334 -40.934)" fill="#fff"/>
      <path id="Trazado_611702" data-name="Trazado 611702" d="M182.24,140.445v6.81a1.576,1.576,0,0,0,2.541,1.245l10.439-8.081-12.979.019Z" transform="translate(-67.638 -52.117)" fill="#3b5620"/>
      <path id="Trazado_611703" data-name="Trazado 611703" d="M287.722,47.05H230.389a2.12,2.12,0,0,0-2.119,2.119V71.65a2.113,2.113,0,0,0,2.113,2.113h45.29l8.207,6.351a1.575,1.575,0,0,0,2.541-1.245V73.763h1.289a2.12,2.12,0,0,0,2.119-2.119V49.169a2.12,2.12,0,0,0-2.119-2.119Z" transform="translate(-84.722 -17.462)" fill="#fff"/>
      <path id="Trazado_611704" data-name="Trazado 611704" d="M284.668,80.583a1.882,1.882,0,0,1-1.157-.4L275.387,73.9H230.2a2.436,2.436,0,0,1-2.434-2.434V48.983A2.436,2.436,0,0,1,230.2,46.55h57.332a2.436,2.436,0,0,1,2.434,2.434V71.465a2.436,2.436,0,0,1-2.434,2.434h-.975V78.69a1.893,1.893,0,0,1-1.893,1.893ZM230.2,47.179a1.809,1.809,0,0,0-1.8,1.8V71.465a1.809,1.809,0,0,0,1.8,1.8h45.4L283.9,79.69a1.257,1.257,0,0,0,2.031-.994V73.276h1.6a1.809,1.809,0,0,0,1.8-1.8V48.983a1.809,1.809,0,0,0-1.8-1.8Z" transform="translate(-84.537 -17.277)" fill="#3b5620"/>
      <path id="Trazado_611705" data-name="Trazado 611705" d="M274.441,68.872H301.62a1.421,1.421,0,1,0,0-2.842H274.441a1.421,1.421,0,0,0,0,2.842Z" transform="translate(-101.331 -24.507)" fill="#3b5620"/>
      <path id="Trazado_611706" data-name="Trazado 611706" d="M244.261,68.872h13.457a1.421,1.421,0,1,0,0-2.842H244.261a1.421,1.421,0,0,0,0,2.842Z" transform="translate(-90.13 -24.507)" fill="#3b5620"/>
      <path id="Trazado_611707" data-name="Trazado 611707" d="M252.771,78.262h40.806a1.421,1.421,0,0,0,0-2.842H252.771a1.421,1.421,0,0,0,0,2.842Z" transform="translate(-93.288 -27.992)" fill="#3b5620"/>
      <path id="Trazado_611708" data-name="Trazado 611708" d="M235.111,59.482h51.912a1.421,1.421,0,1,0,0-2.842H235.111a1.421,1.421,0,1,0,0,2.842Z" transform="translate(-86.734 -21.022)" fill="#3b5620"/>
    </g>
  </g>
</svg>
