<svg xmlns="http://www.w3.org/2000/svg" width="674.675" height="406.254" viewBox="0 0 674.675 406.254">
  <g id="Grupo_1066759" data-name="Grupo 1066759" transform="translate(-480.325 -63)">
    <g id="Group_3_10_" data-name="Group 3 (10)" transform="translate(479.333 62.011)">
      <path id="Trazado_245777" data-name="Trazado 245777" d="M660.816,386.84v5.6H702.7v-5.6Z" transform="translate(-230.941 -135.049)" fill="#e0e0e0"/>
      <path id="Trazado_245778" data-name="Trazado 245778" d="M669.457,387.208a6.73,6.73,0,0,1,.259,2.619,6.957,6.957,0,0,1-.259,2.619,13.356,13.356,0,0,1,0-5.239Z" transform="translate(-233.875 -135.178)" fill="#fafafa"/>
      <path id="Trazado_245779" data-name="Trazado 245779" d="M668.063,387.024a6.714,6.714,0,0,1,.259,2.619,6.944,6.944,0,0,1-.259,2.62,13.4,13.4,0,0,1,0-5.24Z" transform="translate(-233.387 -135.114)" fill="#fafafa"/>
      <path id="Trazado_245780" data-name="Trazado 245780" d="M720.133,387.208a6.729,6.729,0,0,1,.259,2.619,6.956,6.956,0,0,1-.259,2.619,13.359,13.359,0,0,1,0-5.239Z" transform="translate(-251.612 -135.178)" fill="#fafafa"/>
      <path id="Trazado_245781" data-name="Trazado 245781" d="M718.723,392.264a13.4,13.4,0,0,0,0-5.24,13.359,13.359,0,0,0,0,5.24Z" transform="translate(-251.118 -135.114)" fill="#fafafa"/>
      <path id="Trazado_245782" data-name="Trazado 245782" d="M698.913,391.267c0,.149-4.8.259-10.707.259s-10.718-.12-10.718-.259,4.791-.259,10.718-.259S698.913,391.128,698.913,391.267Z" transform="translate(-236.777 -136.508)" fill="#fafafa"/>
      <path id="Trazado_245783" data-name="Trazado 245783" d="M660.54,425.594V436.78h41.884V425.594Z" transform="translate(-230.845 -148.614)" fill="#e0e0e0"/>
      <path id="Trazado_245784" data-name="Trazado 245784" d="M703.01,434.156a1.887,1.887,0,0,1-.229.129c-.15.08-.389.189-.7.319a11.865,11.865,0,0,1-2.839.817,7.4,7.4,0,0,1-4.612-.657,6.251,6.251,0,0,1-2.191-1.982,4.619,4.619,0,0,1-.757-3.227,3.368,3.368,0,0,1,.767-1.663,2.2,2.2,0,0,1,1.763-.807,2.551,2.551,0,0,1,1.773.956,3.407,3.407,0,0,1,.807,1.912,5.055,5.055,0,0,1-1.444,3.964,6.414,6.414,0,0,1-4.024,1.972,10.742,10.742,0,0,1-4.672-.578,8.656,8.656,0,0,1-4.084-2.739,4.549,4.549,0,0,1-.956-2.42,3.112,3.112,0,0,1,.9-2.51,2.048,2.048,0,0,1,1.315-.578,2.4,2.4,0,0,1,1.364.389,3.625,3.625,0,0,1,1.544,2.261,5.253,5.253,0,0,1-1.653,4.931,8.239,8.239,0,0,1-4.712,1.922,11.694,11.694,0,0,1-4.891-.478,6.755,6.755,0,0,1-3.715-2.889,4.968,4.968,0,0,1-.468-4.443,2.338,2.338,0,0,1,1.7-1.444,2.729,2.729,0,0,1,2.111.508,3.5,3.5,0,0,1,1,3.775,6.6,6.6,0,0,1-2.112,2.978,9.508,9.508,0,0,1-5.747,2.231,9.189,9.189,0,0,1-4.552-1.036,9.032,9.032,0,0,1-2.371-1.763,7.078,7.078,0,0,1-.5-.578c-.11-.139-.159-.209-.15-.219a10.371,10.371,0,0,0,3.117,2.371,9.051,9.051,0,0,0,9.961-1.295,6.112,6.112,0,0,0,1.962-2.809,3.106,3.106,0,0,0-.866-3.307,2.262,2.262,0,0,0-1.763-.418,1.888,1.888,0,0,0-1.375,1.185,4.5,4.5,0,0,0,.458,4.014,6.235,6.235,0,0,0,3.466,2.659,11.281,11.281,0,0,0,4.671.449,7.734,7.734,0,0,0,4.423-1.793,4.749,4.749,0,0,0,1.494-4.422,3.118,3.118,0,0,0-1.305-1.932,1.616,1.616,0,0,0-2.042.12,2.6,2.6,0,0,0-.727,2.1,3.956,3.956,0,0,0,.847,2.142,8.154,8.154,0,0,0,3.835,2.58,10.288,10.288,0,0,0,4.452.577,5.89,5.89,0,0,0,3.745-1.8,4.587,4.587,0,0,0,1.345-3.605,2.67,2.67,0,0,0-2.172-2.51,1.8,1.8,0,0,0-1.454.657,3.111,3.111,0,0,0-.7,1.474,4.274,4.274,0,0,0,.677,2.978,5.85,5.85,0,0,0,2.052,1.912,7.222,7.222,0,0,0,4.442.707,13.206,13.206,0,0,0,2.829-.707c.628-.229.957-.369.967-.348Z" transform="translate(-230.892 -149.128)" fill="#fafafa"/>
      <path id="Trazado_245785" data-name="Trazado 245785" d="M666.287,395.7V415.11h38.138V395.7Z" transform="translate(-232.856 -138.149)" fill="#ebebeb"/>
      <path id="Trazado_245786" data-name="Trazado 245786" d="M675.908,396.724a83.542,83.542,0,0,1,.259,9.393,86.591,86.591,0,0,1-.259,9.392,86.264,86.264,0,0,1-.259-9.392A86.281,86.281,0,0,1,675.908,396.724Z" transform="translate(-236.133 -138.509)" fill="#e0e0e0"/>
      <path id="Trazado_245787" data-name="Trazado 245787" d="M680.352,396.356a81.456,81.456,0,0,1,.259,9.273,84.44,84.44,0,0,1-.259,9.273,84.186,84.186,0,0,1-.259-9.273A84.192,84.192,0,0,1,680.352,396.356Z" transform="translate(-237.688 -138.38)" fill="#e0e0e0"/>
      <path id="Trazado_245788" data-name="Trazado 245788" d="M718.2,395.391a90.354,90.354,0,0,1,.259,9.771,93.7,93.7,0,0,1-.259,9.771,93.368,93.368,0,0,1-.259-9.771A93.358,93.358,0,0,1,718.2,395.391Z" transform="translate(-250.936 -138.042)" fill="#e0e0e0"/>
      <path id="Trazado_245789" data-name="Trazado 245789" d="M712.977,395.805a85.654,85.654,0,0,1,.259,9.512,88.593,88.593,0,0,1-.259,9.513,88.919,88.919,0,0,1-.259-9.513A88.911,88.911,0,0,1,712.977,395.805Z" transform="translate(-249.107 -138.187)" fill="#e0e0e0"/>
      <path id="Trazado_245790" data-name="Trazado 245790" d="M574.067,55.645H316.948V226.2H574.067Z" transform="translate(-110.586 -19.13)" fill="#e0e0e0"/>
      <path id="Trazado_245791" data-name="Trazado 245791" d="M1,50.87A43.573,43.573,0,1,1,45.271,93.929,43.737,43.737,0,0,1,1,50.87Zm64.385-1.036A20.83,20.83,0,1,0,44.893,71.09,20.905,20.905,0,0,0,65.382,49.834Z" transform="translate(0 -1.894)" fill="#f5f5f5"/>
      <path id="Trazado_245792" data-name="Trazado 245792" d="M1,50.873A43.737,43.737,0,0,1,43.867,6.409l.369,22.839a20.925,20.925,0,0,0,.677,41.844l.369,22.839A43.718,43.718,0,0,1,1,50.873Z" transform="translate(0 -1.897)" fill="#e0e0e0"/>
      <path id="Trazado_245793" data-name="Trazado 245793" d="M60.932,1C89.03.538,111.451,22.352,111.9,50.58L85.3,51.008c-.219-13.5-10.488-21.993-23.925-21.783Z" transform="translate(-20.979)" fill="#ebebeb"/>
      <path id="Trazado_245794" data-name="Trazado 245794" d="M320.346,601.941c-1.115-.956-3.616-4-1.693-7.54.707-1.295,2.2-1.942,3.566-2.51a14.262,14.262,0,0,0,3.9-2.022c2.122-1.8,2.7-4.8,4.114-7.2,1.613-2.759,4.631-4.831,7.809-4.682,3.645.17,6.683,3.148,8.068,6.534s1.424,7.162,1.454,10.827c.02,2.032-.07,4.313-1.564,5.678-1.374,1.265-3.436,1.275-5.3,1.225q-9.965-.3-19.921-.607" transform="translate(-110.936 -201.949)" fill="#f5f5f5"/>
      <path id="Trazado_245795" data-name="Trazado 245795" d="M352.039,530.558H299.647l9.433,56.277a6.275,6.275,0,0,0,4.472,5.01c.06.02.12.03.179.049.159.04.309.09.468.12a6.279,6.279,0,0,0,1.066.12v.05l.259-.04h23.347a6.825,6.825,0,0,0,1.284-.13,6.311,6.311,0,0,0,5.3-5.5l4.552-38.776.209-1.544h-.02l1.8-15.359.03-.289Zm-9.881,35.9H336.78l.538-16.335h6.226l-1.395,16.335Zm1.912-16.335h5.149l-1.912,16.335h-4.621l1.394-16.335Zm-15.359,34.434-.328-14.184h7.739l-.468,14.184Zm-8.367-14.184h7.52l.329,14.184H321.45Zm.578,14.184h-6.3c-.6-3.835-1.375-8.805-2.221-14.184h7.43l1.106,14.184Zm-.887-18.108-1.265-16.335H327.4l.378,16.335Zm8.258,0-.379-16.335H336.8l-.538,16.335h-7.968Zm-.468-20.25-.349-15.12h9.951l-.5,15.12Zm-.518,0h-8.845l-1.175-15.12h9.671Zm-9.363,0h-9.362c-.329-2.092-.647-4.064-.926-5.847-.976-6.116-1.345-8.416-1.544-9.283h10.658l1.175,15.12Zm.309,3.915,1.265,16.335h-7.739c-.259-1.654-.528-3.337-.787-5.01-.608-3.854-1.215-7.71-1.783-11.325Zm-6.992,16.335H306.2l-2.739-16.335h5.219c.8,5.05,1.683,10.668,2.57,16.335Zm.617,3.914c.767,4.911,1.534,9.751,2.221,14.183h-4.861l-2.38-14.183h5.02Zm24.314,14.183.468-14.183h5.169l-1.216,14.183h-4.422Zm1.275-38.348.5-15.12h7.221l-1.295,15.12h-6.425Zm-31.833-15.12c.209,1.1,1.165,7.042,2.44,15.12h-5.259l-2.54-15.12h5.359ZM345.2,584.554h-4.053l1.215-14.184h4.5Zm4.5-38.348h-5.27l1.3-15.12h5.757l-1.773,15.12Z" transform="translate(-104.531 -185.348)" fill="#e0e0e0"/>
      <path id="Trazado_245796" data-name="Trazado 245796" d="M957.447,96.545H946.162v45.061h11.285Z" transform="translate(-330.814 -33.445)" fill="#e0e0e0"/>
      <path id="Trazado_245797" data-name="Trazado 245797" d="M982.977,111.669H971.692V146.9h11.285Z" transform="translate(-339.749 -38.738)" fill="#e0e0e0"/>
      <path id="Trazado_245798" data-name="Trazado 245798" d="M1008.892,124.051H997.6v27.182h11.288Z" transform="translate(-348.819 -43.072)" fill="#e0e0e0"/>
      <path id="Trazado_245799" data-name="Trazado 245799" d="M1032.884,141.045H1021.6v16.146h11.284Z" transform="translate(-357.217 -49.02)" fill="#e0e0e0"/>
      <path id="Trazado_245800" data-name="Trazado 245800" d="M975.858,246.5a39.033,39.033,0,0,0-54.884,1.863,38.481,38.481,0,0,0,1.873,54.553,39.032,39.032,0,0,0,54.883-1.863A38.483,38.483,0,0,0,975.858,246.5Zm-12.94,40.8a18.659,18.659,0,0,1-26.236.886,18.407,18.407,0,0,1-.9-26.086,18.66,18.66,0,0,1,26.236-.887A18.41,18.41,0,0,1,962.918,287.294Z" transform="translate(-318.346 -82.297)" fill="#f5f5f5"/>
      <path id="Trazado_245801" data-name="Trazado 245801" d="M920.975,248.362a39.051,39.051,0,0,1,54.884-1.863l-13.836,14.722a18.668,18.668,0,0,0-26.236.887,18.4,18.4,0,0,0,.9,26.086l-13.835,14.722A38.48,38.48,0,0,1,920.975,248.362Z" transform="translate(-318.346 -82.301)" fill="#ebebeb"/>
      <path id="Trazado_245802" data-name="Trazado 245802" d="M1000.036,242.382c19.162,17.8,21.463,46.724,3.555,65.779L984.15,291.318c8.556-9.114,10.419-21.276,1.255-29.782Z" transform="translate(-344.11 -84.489)" fill="#fafafa"/>
      <path id="Trazado_245803" data-name="Trazado 245803" d="M202.171,350.308H305.75a3.222,3.222,0,0,1,3.217,3.217v24.553a3.222,3.222,0,0,1-3.217,3.217H202.171a3.222,3.222,0,0,1-3.217-3.217V353.525A3.222,3.222,0,0,1,202.171,350.308Z" transform="translate(-69.288 -122.263)" fill="#e0e0e0"/>
      <path id="Trazado_245804" data-name="Trazado 245804" d="M228.2,376.2a6.712,6.712,0,1,1-1.036-9.463A6.691,6.691,0,0,1,228.2,376.2Z" transform="translate(-75.347 -127.497)" fill="#f5f5f5"/>
      <path id="Trazado_245805" data-name="Trazado 245805" d="M228.334,372.1a27.736,27.736,0,0,1-3.606,3.895l-.886.857-.179.179-.17-.179a19.319,19.319,0,0,1-2.689-3.058,18.222,18.222,0,0,1,3.048,2.71h-.359c.289-.28.578-.568.877-.867a27.467,27.467,0,0,1,3.964-3.526Z" transform="translate(-76.933 -129.89)" fill="#e0e0e0"/>
      <path id="Trazado_245806" data-name="Trazado 245806" d="M316.032,370.35c0,.14-14.771.259-32.979.259s-32.979-.12-32.979-.259,14.761-.259,32.979-.259S316.032,370.211,316.032,370.35Z" transform="translate(-87.18 -129.187)" fill="#fafafa"/>
      <path id="Trazado_245807" data-name="Trazado 245807" d="M316.492,378.993c0,.14-14.771.259-32.979.259s-32.979-.12-32.979-.259,14.761-.259,32.979-.259S316.492,378.854,316.492,378.993Z" transform="translate(-87.341 -132.212)" fill="#fafafa"/>
      <path id="Trazado_245808" data-name="Trazado 245808" d="M885.423,385.415l-2.012,156.379h89.972V387.546Z" transform="translate(-308.851 -134.551)" fill="#f5f5f5"/>
      <path id="Trazado_245809" data-name="Trazado 245809" d="M960.643,387.223l-.8,155.2h40.289V388.179Z" transform="translate(-335.603 -135.184)" fill="#e0e0e0"/>
      <path id="Trazado_245810" data-name="Trazado 245810" d="M890.858,389.752v31.983h42.621V391.256Z" transform="translate(-311.457 -136.069)" fill="#e0e0e0"/>
      <path id="Trazado_245811" data-name="Trazado 245811" d="M913.461,403.052v4.721H926.5v-5.149Z" transform="translate(-319.368 -140.574)" fill="#f5f5f5"/>
      <path id="Trazado_245812" data-name="Trazado 245812" d="M926.928,416.66H913.461v1.932h13.467Z" transform="translate(-319.368 -145.487)" fill="#f5f5f5"/>
      <path id="Trazado_245813" data-name="Trazado 245813" d="M890.858,562.176v31.993h42.621V563.69Z" transform="translate(-311.457 -196.418)" fill="#e0e0e0"/>
      <path id="Trazado_245814" data-name="Trazado 245814" d="M913.461,575.492v4.721H926.5v-5.149Z" transform="translate(-319.368 -200.929)" fill="#f5f5f5"/>
      <path id="Trazado_245815" data-name="Trazado 245815" d="M926.928,589.1H913.461v1.932h13.467Z" transform="translate(-319.368 -205.841)" fill="#f5f5f5"/>
      <path id="Trazado_245816" data-name="Trazado 245816" d="M890.858,445.224v31.983h42.621V446.728Z" transform="translate(-311.457 -155.484)" fill="#e0e0e0"/>
      <path id="Trazado_245817" data-name="Trazado 245817" d="M913.461,458.524v4.722H926.5V458.1Z" transform="translate(-319.368 -159.989)" fill="#f5f5f5"/>
      <path id="Trazado_245818" data-name="Trazado 245818" d="M926.928,472.133H913.461v1.932h13.467Z" transform="translate(-319.368 -164.902)" fill="#f5f5f5"/>
      <path id="Trazado_245819" data-name="Trazado 245819" d="M932.621,504.145H890v31.983h42.621Z" transform="translate(-311.157 -176.107)" fill="#e0e0e0"/>
      <path id="Trazado_245820" data-name="Trazado 245820" d="M913.047,526.1v4.443H925.3V525.69Z" transform="translate(-319.223 -183.648)" fill="#f5f5f5"/>
      <path id="Trazado_245821" data-name="Trazado 245821" d="M925.707,538.9h-12.66v1.813h12.66Z" transform="translate(-319.223 -188.271)" fill="#f5f5f5"/>
      <path id="Trazado_245822" data-name="Trazado 245822" d="M672.211,623.777c0,.14-147.527.259-329.455.259s-329.482-.119-329.482-.259,147.484-.259,329.482-.259S672.211,623.637,672.211,623.777Z" transform="translate(-4.299 -217.888)" fill="#233313"/>
      <path id="Trazado_245823" data-name="Trazado 245823" d="M559.515,62.234H293.242V236.89H559.515Z" transform="translate(-102.289 -21.436)" fill="#fafafa"/>
      <path id="Trazado_245824" data-name="Trazado 245824" d="M559.36,236.751c0-1.683-.08-68.129-.209-174.656l.209.209c-73.07.01-165.732.03-266.253.05h-.02l.259-.259c0,62.114-.01,121.219-.02,174.656l-.239-.239c156.668.139,264.141.239,266.273.239-2.131,0-109.6.1-266.273.239h-.239v-.239c0-53.437-.01-112.543-.02-174.656v-.259h.279c100.511.02,193.183.04,266.253.05h.209v.209C559.44,168.622,559.36,235.068,559.36,236.751Z" transform="translate(-102.144 -21.297)" fill="#233313"/>
      <path id="Trazado_245825" data-name="Trazado 245825" d="M418.343,210.615l26.186.359c-.2,13.955-11.963,25.33-26.186,25.33h-.15Z" transform="translate(-146.022 -73.37)" fill="#233313"/>
      <path id="Trazado_245826" data-name="Trazado 245826" d="M466.628,254.431s-.189.03-.558.049c-.419.01-.946.02-1.6.04-1.444.02-3.437.04-5.847.07h-.07l-.049-.06c-2.341-2.948-5.349-6.743-8.636-10.887-2.55-3.257-4.941-6.3-6.963-8.885l.14.07c-3.158-.03-5.8-.049-7.71-.07-.887-.02-1.6-.04-2.151-.05a4.717,4.717,0,0,1-.767-.049,3.534,3.534,0,0,1,.767-.05c.548-.01,1.265-.03,2.151-.049,1.912-.02,4.552-.04,7.71-.07h.08l.049.07c2.032,2.569,4.443,5.6,7.012,8.844,3.257,4.164,6.256,7.979,8.566,10.947l-.12-.06c2.421.03,4.412.05,5.847.07.657.02,1.185.03,1.6.04a1.892,1.892,0,0,1,.558.049Z" transform="translate(-150.999 -81.726)" fill="#233313"/>
      <path id="Trazado_245827" data-name="Trazado 245827" d="M490.373,269.72c0,.11-3.795.2-8.476.2s-8.477-.089-8.477-.2,3.795-.2,8.477-.2S490.373,269.61,490.373,269.72Z" transform="translate(-165.352 -93.987)" fill="#233313"/>
      <path id="Trazado_245828" data-name="Trazado 245828" d="M490.373,274.547c0,.11-3.795.2-8.476.2s-8.477-.09-8.477-.2,3.795-.2,8.477-.2S490.373,274.438,490.373,274.547Z" transform="translate(-165.352 -95.677)" fill="#233313"/>
      <path id="Trazado_245829" data-name="Trazado 245829" d="M397.957,191.047l-.369,25.688c-14.223-.2-25.828-11.734-25.828-25.688s11.823-25.7,26.2-25.7,26.2,11.594,26.2,25.7Z" transform="translate(-129.771 -57.527)" fill="#425c29"/>
      <path id="Trazado_245830" data-name="Trazado 245830" d="M383.587,183.321s-.16.05-.458.11c-.359.06-.787.129-1.305.209-1.205.17-2.8.389-4.7.658h-.079l-.06-.05c-1.793-1.743-3.944-3.845-6.275-6.105-3.018-2.958-5.727-5.648-7.68-7.61-.926-.946-1.7-1.733-2.291-2.341a6.841,6.841,0,0,1-.807-.9,7.066,7.066,0,0,1,.917.787c.617.577,1.414,1.334,2.381,2.251,2,1.912,4.741,4.571,7.759,7.53,2.311,2.281,4.452,4.4,6.225,6.155l-.139-.05c1.912-.209,3.516-.388,4.721-.518q.777-.074,1.315-.12c.3-.019.468-.03.468,0Z" transform="translate(-125.63 -58.207)" fill="#233313"/>
      <path id="Trazado_245831" data-name="Trazado 245831" d="M340.613,165.456c0,.11-3.795.2-8.477.2s-8.476-.09-8.476-.2,3.795-.2,8.476-.2S340.613,165.347,340.613,165.456Z" transform="translate(-112.935 -57.494)" fill="#233313"/>
      <path id="Trazado_245832" data-name="Trazado 245832" d="M340.613,170.283c0,.11-3.795.2-8.477.2s-8.476-.089-8.476-.2,3.795-.2,8.476-.2S340.613,170.173,340.613,170.283Z" transform="translate(-112.935 -59.184)" fill="#233313"/>
      <path id="Trazado_245833" data-name="Trazado 245833" d="M542.4,118.2l-.1-15.966a20.341,20.341,0,0,0-13.168,5.14,18.869,18.869,0,0,0-6.345,16.535,21.824,21.824,0,0,0,.369,2.32.129.129,0,0,0,.01.06l19.234-4.333Z" transform="translate(-182.587 -35.435)" fill="#425c29"/>
      <g id="Grupo_244280" data-name="Grupo 244280" transform="translate(340.076 66.795)" opacity="0.3">
        <path id="Trazado_245834" data-name="Trazado 245834" d="M542.4,118.2l-.1-15.966a20.341,20.341,0,0,0-13.168,5.14,18.869,18.869,0,0,0-6.345,16.535,21.824,21.824,0,0,0,.369,2.32.129.129,0,0,0,.01.06l19.234-4.333Z" transform="translate(-522.663 -102.23)" fill="#fff"/>
      </g>
      <path id="Trazado_245835" data-name="Trazado 245835" d="M573.948,113.328a18.937,18.937,0,0,0-15.528-10.867c-.2-.02-.408-.04-.607-.05-.13,0-.259-.019-.389-.03-.378-.02-.767-.03-1.156-.03h-.1l.1,15.967.02,3.756,19.244,4.2h.02a18.391,18.391,0,0,0,.428-4.133,20.663,20.663,0,0,0-2.032-8.8Z" transform="translate(-194.315 -35.477)" fill="#425c29"/>
      <g id="Grupo_244281" data-name="Grupo 244281" transform="translate(361.854 66.875)" opacity="0.3">
        <path id="Trazado_245836" data-name="Trazado 245836" d="M573.948,113.328a18.937,18.937,0,0,0-15.528-10.867c-.2-.02-.408-.04-.607-.05-.13,0-.259-.019-.389-.03-.378-.02-.767-.03-1.156-.03h-.1l.1,15.967.02,3.756,19.244,4.2h.02a18.391,18.391,0,0,0,.428-4.133,20.663,20.663,0,0,0-2.032-8.8Z" transform="translate(-556.169 -102.352)"/>
      </g>
      <path id="Trazado_245837" data-name="Trazado 245837" d="M544.249,135.636l-19.233,4.333a19.714,19.714,0,0,0,38.5-.13l-19.243-4.2" transform="translate(-183.411 -47.127)" fill="#425c29"/>
      <path id="Trazado_245838" data-name="Trazado 245838" d="M645.89,131.068c0,.14-9.951.259-22.212.259s-22.212-.119-22.212-.259,9.941-.259,22.212-.259S645.89,130.928,645.89,131.068Z" transform="translate(-210.169 -45.437)" fill="#233313"/>
      <path id="Trazado_245839" data-name="Trazado 245839" d="M645.89,123.283c0,.139-9.951.259-22.212.259s-22.212-.12-22.212-.259,9.941-.259,22.212-.259S645.89,123.144,645.89,123.283Z" transform="translate(-210.169 -42.713)" fill="#233313"/>
      <path id="Trazado_245840" data-name="Trazado 245840" d="M645.89,115.483c0,.139-9.951.259-22.212.259s-22.212-.12-22.212-.259,9.941-.259,22.212-.259S645.89,115.344,645.89,115.483Z" transform="translate(-210.169 -39.983)" fill="#233313"/>
      <path id="Trazado_245841" data-name="Trazado 245841" d="M645.89,138.316c0,.14-9.951.259-22.212.259s-22.212-.119-22.212-.259,9.941-.259,22.212-.259S645.89,138.177,645.89,138.316Z" transform="translate(-210.169 -47.974)" fill="#233313"/>
      <path id="Trazado_245842" data-name="Trazado 245842" d="M632.215,146.208c0,.14-6.833.259-15.259.259s-15.26-.12-15.26-.259,6.833-.259,15.26-.259S632.215,146.069,632.215,146.208Z" transform="translate(-210.249 -50.737)" fill="#233313"/>
      <path id="Trazado_245843" data-name="Trazado 245843" d="M534.353,202.739h-4.572v51.107h4.572Z" transform="translate(-185.079 -70.613)" fill="#425c29"/>
      <path id="Trazado_245844" data-name="Trazado 245844" d="M547.945,229.448h-4.571v33.746h4.571Z" transform="translate(-189.836 -79.962)" fill="#425c29"/>
      <path id="Trazado_245845" data-name="Trazado 245845" d="M561.538,212.515h-4.572v45.012h4.572Z" transform="translate(-194.593 -74.035)" fill="#425c29"/>
      <path id="Trazado_245846" data-name="Trazado 245846" d="M575.13,205.773h-4.572v49.135h4.572Z" transform="translate(-199.351 -71.675)" fill="#425c29"/>
      <path id="Trazado_245847" data-name="Trazado 245847" d="M588.722,231.042H584.15v32.71h4.572Z" transform="translate(-204.108 -80.519)" fill="#425c29"/>
      <path id="Trazado_245848" data-name="Trazado 245848" d="M602.314,240.91h-4.571v26.3h4.571Z" transform="translate(-208.866 -83.973)" fill="#425c29"/>
      <path id="Trazado_245849" data-name="Trazado 245849" d="M615.907,210.814h-4.572v45.858h4.572Z" transform="translate(-213.623 -73.44)" fill="#425c29"/>
      <path id="Trazado_245850" data-name="Trazado 245850" d="M629.5,223.533h-4.572v37.591H629.5Z" transform="translate(-218.38 -77.891)" fill="#425c29"/>
      <path id="Trazado_245851" data-name="Trazado 245851" d="M643.091,213.374H638.52v44.195h4.571Z" transform="translate(-223.138 -74.336)" fill="#425c29"/>
      <path id="Trazado_245852" data-name="Trazado 245852" d="M656.684,235.042h-4.572v30.11h4.572Z" transform="translate(-227.895 -81.919)" fill="#425c29"/>
      <path id="Trazado_245853" data-name="Trazado 245853" d="M670.276,226.23H665.7v35.838h4.572Z" transform="translate(-232.652 -78.835)" fill="#425c29"/>
      <path id="Trazado_245854" data-name="Trazado 245854" d="M623.411,286.734c0,.1-21.7.189-48.478.189s-48.477-.079-48.477-.189,21.7-.189,48.477-.189S623.411,286.625,623.411,286.734Z" transform="translate(-183.915 -99.946)" fill="#233313"/>
      <path id="Trazado_245855" data-name="Trazado 245855" d="M536.176,292.925a15.817,15.817,0,0,1-3.4.189,15.047,15.047,0,0,1-3.4-.189,30.591,30.591,0,0,1,6.793,0Z" transform="translate(-184.939 -102.113)" fill="#233313"/>
      <path id="Trazado_245856" data-name="Trazado 245856" d="M552.784,293.247a22.4,22.4,0,0,1-4.054.189,21.388,21.388,0,0,1-4.054-.189,43.54,43.54,0,0,1,8.108,0Z" transform="translate(-190.292 -102.225)" fill="#233313"/>
      <path id="Trazado_245857" data-name="Trazado 245857" d="M567.571,293.247a22.4,22.4,0,0,1-4.053.189,21.388,21.388,0,0,1-4.054-.189,43.533,43.533,0,0,1,8.107,0Z" transform="translate(-195.468 -102.225)" fill="#233313"/>
      <path id="Trazado_245858" data-name="Trazado 245858" d="M582.359,293.247a22.4,22.4,0,0,1-4.054.189,21.388,21.388,0,0,1-4.054-.189,43.54,43.54,0,0,1,8.108,0Z" transform="translate(-200.643 -102.225)" fill="#233313"/>
      <path id="Trazado_245859" data-name="Trazado 245859" d="M597.131,293.247a22.4,22.4,0,0,1-4.054.189,21.388,21.388,0,0,1-4.054-.189,43.54,43.54,0,0,1,8.108,0Z" transform="translate(-205.814 -102.225)" fill="#233313"/>
      <path id="Trazado_245860" data-name="Trazado 245860" d="M611.919,293.247a22.4,22.4,0,0,1-4.054.189,21.388,21.388,0,0,1-4.054-.189,43.54,43.54,0,0,1,8.108,0Z" transform="translate(-210.989 -102.225)" fill="#233313"/>
      <path id="Trazado_245861" data-name="Trazado 245861" d="M626.706,293.247a22.4,22.4,0,0,1-4.054.189,21.383,21.383,0,0,1-4.053-.189,43.532,43.532,0,0,1,8.107,0Z" transform="translate(-216.165 -102.225)" fill="#233313"/>
      <path id="Trazado_245862" data-name="Trazado 245862" d="M641.478,293.247a22.4,22.4,0,0,1-4.053.189,21.388,21.388,0,0,1-4.054-.189,43.533,43.533,0,0,1,8.107,0Z" transform="translate(-221.336 -102.225)" fill="#233313"/>
      <path id="Trazado_245863" data-name="Trazado 245863" d="M656.266,293.247a22.4,22.4,0,0,1-4.054.189,21.388,21.388,0,0,1-4.054-.189,43.54,43.54,0,0,1,8.108,0Z" transform="translate(-226.511 -102.225)" fill="#233313"/>
      <path id="Trazado_245864" data-name="Trazado 245864" d="M671.038,293.247a22.4,22.4,0,0,1-4.054.189,21.383,21.383,0,0,1-4.053-.189,43.532,43.532,0,0,1,8.107,0Z" transform="translate(-231.682 -102.225)" fill="#233313"/>
      <g id="Grupo_244282" data-name="Grupo 244282" transform="translate(353.538 149.486)" opacity="0.3">
        <path id="Trazado_245865" data-name="Trazado 245865" d="M547.945,229.448h-4.571v33.746h4.571Z" transform="translate(-543.374 -229.448)" fill="#fff"/>
      </g>
      <g id="Grupo_244283" data-name="Grupo 244283" transform="translate(371.207 134.098)" opacity="0.3">
        <path id="Trazado_245866" data-name="Trazado 245866" d="M575.13,205.773h-4.572v49.135h4.572Z" transform="translate(-570.558 -205.773)" fill="#fff"/>
      </g>
      <g id="Grupo_244284" data-name="Grupo 244284" transform="translate(388.877 156.937)" opacity="0.3">
        <path id="Trazado_245867" data-name="Trazado 245867" d="M602.314,240.91h-4.571v26.3h4.571Z" transform="translate(-597.743 -240.91)" fill="#fff"/>
      </g>
      <g id="Grupo_244285" data-name="Grupo 244285" transform="translate(406.547 145.642)" opacity="0.3">
        <path id="Trazado_245868" data-name="Trazado 245868" d="M629.5,223.533h-4.572v37.591H629.5Z" transform="translate(-624.927 -223.533)" fill="#fff"/>
      </g>
      <g id="Grupo_244286" data-name="Grupo 244286" transform="translate(424.217 153.123)" opacity="0.3">
        <path id="Trazado_245869" data-name="Trazado 245869" d="M656.684,235.042h-4.572v30.11h4.572Z" transform="translate(-652.112 -235.042)" fill="#fff"/>
      </g>
      <path id="Trazado_245870" data-name="Trazado 245870" d="M338.257,110.371a4.4,4.4,0,1,1-4.4-4.4A4.4,4.4,0,0,1,338.257,110.371Z" transform="translate(-114.963 -36.743)" fill="#425c29"/>
      <path id="Trazado_245871" data-name="Trazado 245871" d="M423.786,107.254c0,.139-14.851.259-33.169.259s-33.168-.12-33.168-.259S372.3,107,390.617,107,423.786,107.115,423.786,107.254Z" transform="translate(-124.762 -37.102)" fill="#425c29"/>
      <path id="Trazado_245872" data-name="Trazado 245872" d="M384.351,115.453a8.124,8.124,0,0,1-1.026.1c-.658.03-1.624.06-2.8.08-2.371.049-5.638.079-9.244.079s-6.883-.03-9.244-.079c-1.185-.02-2.141-.05-2.8-.08a4.337,4.337,0,0,1-1.026-.1,4.335,4.335,0,0,1,1.026-.1c.658-.03,1.624-.06,2.8-.08,2.371-.049,5.638-.079,9.244-.079s6.883.03,9.244.079c1.185.02,2.141.05,2.8.08A4.335,4.335,0,0,1,384.351,115.453Z" transform="translate(-125.03 -39.972)" fill="#425c29"/>
      <path id="Trazado_245873" data-name="Trazado 245873" d="M209.85,86.553H70.494V245.6H209.85Z" transform="translate(-24.326 -29.948)" fill="#fafafa"/>
      <path id="Trazado_245874" data-name="Trazado 245874" d="M209.711,245.462s0-.259-.01-.757,0-1.245-.01-2.211c0-1.952-.02-4.831-.03-8.586-.01-7.51-.03-18.5-.06-32.451-.03-27.889-.07-67.622-.12-115.043l.229.229c-41.037,0-88.718.02-139.347.03h-.01l.259-.259c-.01,58.637-.03,113.32-.04,159.049l-.219-.219c41.924.049,76.735.09,101.079.109,12.182.02,21.733.04,28.257.06,3.257.01,5.758.02,7.451.03s2.569.02,2.569.02-.846.02-2.52.02-4.163.01-7.411.03c-6.514.01-16.056.03-28.208.06-24.373.03-59.235.07-101.218.11h-.219v-.219c-.01-45.728-.03-100.411-.04-159.049v-.259h.269c50.629.01,98.31.02,139.347.03h.229v.229c-.05,47.491-.09,87.274-.12,115.193-.03,13.935-.05,24.9-.06,32.4-.01,3.736-.02,6.594-.03,8.536,0,.956-.01,1.683-.01,2.181s-.01.727-.01.727Z" transform="translate(-24.187 -29.808)" fill="#233313"/>
      <path id="Trazado_245875" data-name="Trazado 245875" d="M207.066,209.569c-.05.1-1.544-.777-4.482-1.7a28.864,28.864,0,0,0-12.849-.956,28.023,28.023,0,0,0-8.477,2.72,39.836,39.836,0,0,0-8.337,6c-2.729,2.41-5.448,5.149-8.575,7.679a29.582,29.582,0,0,1-10.947,5.927,16.72,16.72,0,0,1-6.395.389,20.687,20.687,0,0,1-5.917-1.833,105.1,105.1,0,0,1-9.92-5.9,30.972,30.972,0,0,0-9.333-4.183,27.567,27.567,0,0,0-8.874-.677,28.637,28.637,0,0,0-12.252,3.984c-2.629,1.6-3.865,2.819-3.934,2.729a5.966,5.966,0,0,1,.886-.877,21.819,21.819,0,0,1,2.849-2.171,27.916,27.916,0,0,1,21.5-3.756,31.251,31.251,0,0,1,9.6,4.2,105.468,105.468,0,0,0,9.851,5.8A16.846,16.846,0,0,0,153.15,228.3a28.944,28.944,0,0,0,10.6-5.727c3.078-2.471,5.807-5.2,8.576-7.61a40.06,40.06,0,0,1,8.556-6.036,28.5,28.5,0,0,1,8.735-2.689,28.114,28.114,0,0,1,13.068,1.265,23.026,23.026,0,0,1,3.287,1.414,6.492,6.492,0,0,1,1.076.637Z" transform="translate(-33.524 -71.746)" fill="#425c29"/>
      <path id="Trazado_245876" data-name="Trazado 245876" d="M141.349,244.358H129.506V276.4h11.843Z" transform="translate(-44.981 -85.18)" fill="#425c29"/>
      <path id="Trazado_245877" data-name="Trazado 245877" d="M218.689,244.358H206.846V276.4h11.843Z" transform="translate(-72.05 -85.18)" fill="#425c29"/>
      <path id="Trazado_245878" data-name="Trazado 245878" d="M244.479,215.412H232.636V266.27h11.843Z" transform="translate(-81.077 -75.049)" fill="#425c29"/>
      <path id="Trazado_245879" data-name="Trazado 245879" d="M117.766,278.148H105.923v10.787h11.843Z" transform="translate(-36.726 -97.007)" fill="#425c29"/>
      <path id="Trazado_245880" data-name="Trazado 245880" d="M167.134,266.624H155.281v17.57h11.853Z" transform="translate(-54.002 -92.973)" fill="#425c29"/>
      <path id="Trazado_245881" data-name="Trazado 245881" d="M192.914,260.418H181.071v21.6h11.843Z" transform="translate(-63.029 -90.801)" fill="#425c29"/>
      <path id="Trazado_245882" data-name="Trazado 245882" d="M141.564,299.221c0,.259-2.869.478-6.405.478s-6.4-.209-6.4-.478,2.868-.478,6.4-.478S141.564,298.952,141.564,299.221Z" transform="translate(-44.718 -104.215)" fill="#233313"/>
      <path id="Trazado_245883" data-name="Trazado 245883" d="M118.885,299.221c0,.259-2.868.478-6.4.478s-6.4-.209-6.4-.478,2.868-.478,6.4-.478S118.885,298.952,118.885,299.221Z" transform="translate(-36.78 -104.215)" fill="#233313"/>
      <path id="Trazado_245884" data-name="Trazado 245884" d="M246.669,299.221c0,.259-3.237.478-7.231.478s-7.231-.209-7.231-.478,3.237-.478,7.231-.478S246.669,298.952,246.669,299.221Z" transform="translate(-80.926 -104.215)" fill="#233313"/>
      <path id="Trazado_245885" data-name="Trazado 245885" d="M212.345,299.7c3.994,0,7.231-.214,7.231-.478s-3.237-.478-7.231-.478-7.231.214-7.231.478S208.352,299.7,212.345,299.7Z" transform="translate(-71.444 -104.215)" fill="#233313"/>
      <path id="Trazado_245886" data-name="Trazado 245886" d="M192.394,299.221c0,.259-2.868.478-6.4.478s-6.4-.209-6.4-.478,2.868-.478,6.4-.478S192.394,298.952,192.394,299.221Z" transform="translate(-62.508 -104.215)" fill="#233313"/>
      <path id="Trazado_245887" data-name="Trazado 245887" d="M165.761,299.221c0,.259-2.868.478-6.4.478s-6.4-.209-6.4-.478,2.868-.478,6.4-.478S165.761,298.952,165.761,299.221Z" transform="translate(-53.187 -104.215)" fill="#233313"/>
      <path id="Trazado_245888" data-name="Trazado 245888" d="M202.319,122.227H105.494v40.211h96.825Z" transform="translate(-36.576 -42.434)" fill="#e0e0e0"/>
      <path id="Trazado_245889" data-name="Trazado 245889" d="M131.574,139.351a4.512,4.512,0,1,1-4.512-4.512A4.515,4.515,0,0,1,131.574,139.351Z" transform="translate(-42.546 -46.848)" fill="#233313"/>
      <path id="Trazado_245890" data-name="Trazado 245890" d="M174.829,136.984H143.374v1.743h31.455Z" transform="translate(-49.834 -47.599)" fill="#233313"/>
      <path id="Trazado_245891" data-name="Trazado 245891" d="M204.561,143.1H143.374v1.743h61.187Z" transform="translate(-49.834 -49.739)" fill="#fff"/>
      <path id="Trazado_245892" data-name="Trazado 245892" d="M131.574,160.7a4.512,4.512,0,1,1-4.512-4.512A4.515,4.515,0,0,1,131.574,160.7Z" transform="translate(-42.546 -54.319)" fill="#425c29"/>
      <path id="Trazado_245893" data-name="Trazado 245893" d="M159.43,158.33H143.374v1.743H159.43Z" transform="translate(-49.834 -55.07)" fill="#425c29"/>
      <path id="Trazado_245894" data-name="Trazado 245894" d="M204.561,164.444H143.374v1.743h61.187Z" transform="translate(-49.834 -57.21)" fill="#fff"/>
      <path id="Trazado_245895" data-name="Trazado 245895" d="M876.017,42.635H722.985V217.291H876.017Z" transform="translate(-252.701 -14.576)" fill="#fafafa"/>
      <path id="Trazado_245896" data-name="Trazado 245896" d="M875.872,217.157s0-.279-.01-.827,0-1.364-.01-2.43c0-2.141-.02-5.309-.03-9.422-.01-8.247-.029-20.31-.059-35.629-.03-30.618-.07-74.255-.12-126.338l.229.229c-45.061,0-97.423.02-153.012.03h-.02l.259-.259c-.01,64.394-.03,124.436-.04,174.656l-.219-.219c46.047.05,84.275.09,111,.11,13.377.02,23.876.04,31.027.06,3.576.01,6.325.02,8.178.03s2.819.02,2.819.02-.937.02-2.769.02-4.572.01-8.138.03c-7.151.01-17.63.03-30.987.06-26.764.03-65.041.07-111.138.11h-.22v-.22c-.01-50.21-.03-110.262-.04-174.656v-.259h.279c55.59.01,107.952.02,153.013.03h.229v.229c-.049,52.143-.09,95.829-.12,126.488-.03,15.3-.049,27.352-.06,35.579-.01,4.1-.019,7.251-.03,9.383v2.4q-.029.807-.03.807Z" transform="translate(-252.556 -14.442)" fill="#233313"/>
      <path id="Trazado_245897" data-name="Trazado 245897" d="M865.786,64.119H741.818v99.455H865.786Z" transform="translate(-259.292 -22.096)" fill="#e0e0e0"/>
      <path id="Trazado_245898" data-name="Trazado 245898" d="M759.214,189.913H755.15v1.175h4.064Z" transform="translate(-263.959 -66.124)" fill="#233313"/>
      <path id="Trazado_245899" data-name="Trazado 245899" d="M774.508,199.567h-5.2v1.175h5.2Z" transform="translate(-268.914 -69.503)" fill="#233313"/>
      <path id="Trazado_245900" data-name="Trazado 245900" d="M802.382,199.567h-5.2v1.175h5.2Z" transform="translate(-278.67 -69.503)" fill="#233313"/>
      <path id="Trazado_245901" data-name="Trazado 245901" d="M830.241,199.567h-5.2v1.175h5.2Z" transform="translate(-288.421 -69.503)" fill="#233313"/>
      <path id="Trazado_245902" data-name="Trazado 245902" d="M858.115,199.567h-5.2v1.175h5.2Z" transform="translate(-298.177 -69.503)" fill="#233313"/>
      <path id="Trazado_245903" data-name="Trazado 245903" d="M885.974,199.567h-5.2v1.175h5.2Z" transform="translate(-307.928 -69.503)" fill="#233313"/>
      <path id="Trazado_245904" data-name="Trazado 245904" d="M913.848,199.567h-5.2v1.175h5.2Z" transform="translate(-317.684 -69.503)" fill="#233313"/>
      <path id="Trazado_245905" data-name="Trazado 245905" d="M759.214,165.823H755.15V167h4.064Z" transform="translate(-263.959 -57.693)" fill="#233313"/>
      <path id="Trazado_245906" data-name="Trazado 245906" d="M759.214,120.48H755.15v1.175h4.064Z" transform="translate(-263.959 -41.822)" fill="#233313"/>
      <path id="Trazado_245907" data-name="Trazado 245907" d="M759.214,97.694H755.15v1.175h4.064Z" transform="translate(-263.959 -33.847)" fill="#233313"/>
      <path id="Trazado_245908" data-name="Trazado 245908" d="M759.536,143.159h-4.064v1.176h4.064Z" transform="translate(-264.071 -49.76)" fill="#233313"/>
      <path id="Trazado_245909" data-name="Trazado 245909" d="M863.165,153.855s-.15.02-.438.03l-1.285.03c-1.155.01-2.809.03-4.921.049-4.3.02-10.478.05-18.108.08-15.309.02-36.415.05-59.733.08H764.267v-.259c.04-19.97.07-37.541.09-50.151.03-6.275.06-11.315.08-14.811.02-1.713.03-3.048.04-3.984,0-.438.02-.777.02-1.036a2.345,2.345,0,0,1,.02-.349,2.41,2.41,0,0,1,.02.349c0,.259.01.6.02,1.036.01.936.03,2.271.04,3.984.02,3.5.04,8.536.08,14.811.02,12.61.049,30.181.09,50.151l-.259-.259H778.66c23.318.03,44.424.06,59.733.079,7.63.03,13.805.06,18.108.08,2.122.02,3.775.04,4.92.05l1.284.029a1.673,1.673,0,0,1,.439.03Z" transform="translate(-267.15 -28.891)" fill="#233313"/>
      <path id="Trazado_245910" data-name="Trazado 245910" d="M866.584,143.924c0,.14-21.455.259-47.92.259s-47.93-.12-47.93-.259,21.455-.259,47.93-.259S866.584,143.785,866.584,143.924Z" transform="translate(-269.413 -49.937)" fill="#233313"/>
      <path id="Trazado_245911" data-name="Trazado 245911" d="M866.584,121.245c0,.14-21.455.259-47.92.259s-47.93-.12-47.93-.259,21.455-.259,47.93-.259S866.584,121.106,866.584,121.245Z" transform="translate(-269.413 -41.999)" fill="#233313"/>
      <path id="Trazado_245912" data-name="Trazado 245912" d="M866.584,98.458c0,.139-21.455.259-47.92.259s-47.93-.12-47.93-.259,21.455-.259,47.93-.259S866.584,98.319,866.584,98.458Z" transform="translate(-269.413 -34.024)" fill="#233313"/>
      <path id="Trazado_245913" data-name="Trazado 245913" d="M866.584,166.588c0,.139-21.455.259-47.92.259s-47.93-.12-47.93-.259,21.455-.259,47.93-.259S866.584,166.449,866.584,166.588Z" transform="translate(-269.413 -57.87)" fill="#233313"/>
      <path id="Trazado_245914" data-name="Trazado 245914" d="M772.251,151.267V138.189l8.148-12.65,5.528,4.243,11.355-17.63,6.694,4.711,9.313-16.265,7.57,6.165,11.355-21.574L844.434,109.3l9.891-12.063,11.644-3.327v57.362H772.251Z" transform="translate(-269.944 -29.47)" fill="#233313"/>
      <path id="Trazado_245915" data-name="Trazado 245915" d="M867.109,91.355s-.07.01-.209.02l-.608.02c-.568,0-1.355.02-2.36.04-2.1.02-5.12.04-8.935.07l.11-.06c-2.6,3.407-5.837,7.649-9.562,12.52l-.06.079h-.1c-6.962.01-15.11.03-23.965.04l.209-.12c-3.158,5.249-6.554,10.917-10.07,16.773-3.437,5.708-6.753,11.225-9.891,16.445l-.2.318-.22-.309c-4.731-6.514-9.1-12.53-12.979-17.859h.349c-4.931,7.66-9,13.985-11.863,18.427-1.414,2.181-2.54,3.894-3.317,5.089-.378.568-.668,1.006-.887,1.325a5.027,5.027,0,0,1-.319.439,5.4,5.4,0,0,1,.269-.478c.2-.329.478-.787.827-1.364.757-1.215,1.842-2.948,3.217-5.16,2.819-4.462,6.843-10.827,11.714-18.537l.169-.259.179.249c3.885,5.309,8.287,11.315,13.038,17.809l-.418.02c3.138-5.219,6.454-10.747,9.881-16.455,3.526-5.856,6.932-11.514,10.09-16.763l.07-.12h.14c8.855.02,17,.03,23.965.04l-.159.079c3.755-4.841,7.022-9.054,9.652-12.45l.04-.06h.07c3.815.03,6.833.05,8.935.07,1.006.02,1.793.03,2.361.04l.607.02c.14,0,.209.01.209.02Z" transform="translate(-269.939 -31.562)" fill="#425c29"/>
      <path id="Trazado_245916" data-name="Trazado 245916" d="M802.234,140.307a.917.917,0,1,1-.917-.887A.9.9,0,0,1,802.234,140.307Z" transform="translate(-279.797 -48.451)" fill="#425c29"/>
      <path id="Trazado_245917" data-name="Trazado 245917" d="M844.773,116.126a.917.917,0,1,1-.917-.887A.9.9,0,0,1,844.773,116.126Z" transform="translate(-294.686 -39.988)" fill="#425c29"/>
      <path id="Trazado_245918" data-name="Trazado 245918" d="M877.827,110.2a.917.917,0,1,1-.917-.887A.9.9,0,0,1,877.827,110.2Z" transform="translate(-306.255 -37.912)" fill="#425c29"/>
      <path id="Trazado_245919" data-name="Trazado 245919" d="M861.039,239.729c0,.139-26.156.259-58.418.259s-58.428-.12-58.428-.259,26.156-.259,58.428-.259S861.039,239.59,861.039,239.729Z" transform="translate(-260.124 -83.469)" fill="#233313"/>
      <path id="Trazado_245920" data-name="Trazado 245920" d="M861.039,249.445c0,.139-26.156.259-58.418.259s-58.428-.12-58.428-.259,26.156-.259,58.428-.259S861.039,249.3,861.039,249.445Z" transform="translate(-260.124 -86.87)" fill="#233313"/>
      <path id="Trazado_245921" data-name="Trazado 245921" d="M861.039,259.16c0,.14-26.156.259-58.418.259s-58.428-.119-58.428-.259,26.156-.259,58.428-.259S861.039,259.021,861.039,259.16Z" transform="translate(-260.124 -90.27)" fill="#233313"/>
      <path id="Trazado_245922" data-name="Trazado 245922" d="M861.039,268.891c0,.14-26.156.259-58.418.259s-58.428-.119-58.428-.259,26.156-.259,58.428-.259S861.039,268.751,861.039,268.891Z" transform="translate(-260.124 -93.676)" fill="#233313"/>
      <path id="Trazado_245923" data-name="Trazado 245923" d="M847.974,246.22c3.2-5.368,4.134-12.52,4.95-18.715.389-2.918,1.066-7.062-.976-8.895-2.191-1.962-2.39-4.971-4.91-6.484a7.744,7.744,0,0,0-8.327.07" transform="translate(-293.206 -73.486)" fill="#233313"/>
      <path id="Trazado_245924" data-name="Trazado 245924" d="M829.855,266.821a8.624,8.624,0,0,1-9.283-8.267c-.179-4.691-.339-9.442-.339-9.442s-7.112-.668-7.63-7.71-.279-23.3-.279-23.3a24.532,24.532,0,0,1,24.8,1.594l-.438,24.781v13.337C836.637,262.289,834.317,266.483,829.855,266.821Z" transform="translate(-283.951 -75.072)" fill="#ffbe9d"/>
      <path id="Trazado_245925" data-name="Trazado 245925" d="M816.422,229.61a3.606,3.606,0,0,1,4.811-1.046,4.091,4.091,0,0,1,1.365,5.12,5.416,5.416,0,0,1-3.457,2.61,2.716,2.716,0,0,0-2.122,2.908c.2,1.763,3.148,2.43,4.473,3.895,2.062,2.271,6.594,3.237,9.641,3.6,3,.359,2.64.389,4.383-2.082a9.5,9.5,0,0,0,1.713-5.717q.165-7.783.319-15.578a21.869,21.869,0,0,0-.359-5.588,7.529,7.529,0,0,0-2.948-4.621c-1.713-1.126-3.884-1.225-5.837-1.852-2.44-.787-4.511-2.411-6.792-3.576s-5.08-1.862-7.371-.717c-1.644.827-2.749,2.47-4.343,3.377-2.281,1.295-5.379,1-6.484,4.352a5.707,5.707,0,0,0,.04,3.576c1.544,4.552,7.182,6.394,11.246,4.422.079.767-.677,2.49.129,4.931.259.777.349,1.962,1.574,1.992" transform="translate(-280.757 -71.886)" fill="#233313"/>
      <path id="Trazado_245926" data-name="Trazado 245926" d="M825.5,247.053a1.422,1.422,0,0,0,.876.339,1.64,1.64,0,0,0,1.315-1.6,1.766,1.766,0,0,0-1.205-1.753c-.578-.22-1-.1-1.016-.19-.03-.049.389-.318,1.115-.169a2.158,2.158,0,0,1,1.106.638,2.034,2.034,0,0,1,.518,1.494,1.945,1.945,0,0,1-1.833,1.953,1.029,1.029,0,0,1-.786-.4c-.129-.17-.12-.3-.1-.309Z" transform="translate(-288.57 -84.926)" fill="#eb996e"/>
      <path id="Trazado_245927" data-name="Trazado 245927" d="M836.795,215.428a2.215,2.215,0,0,1,.588-.6,4.669,4.669,0,0,1,2.141-.827,6.158,6.158,0,0,1,3.367.508A7.778,7.778,0,0,1,846,217.29a15.937,15.937,0,0,1,2.191,7.132,18.807,18.807,0,0,1,.189,3.078,17.9,17.9,0,0,1-.548-3.028,17.131,17.131,0,0,0-2.251-6.893,7.42,7.42,0,0,0-2.879-2.629,5.657,5.657,0,0,0-5.9.488Z" transform="translate(-292.535 -74.537)" fill="#233313"/>
      <path id="Trazado_245928" data-name="Trazado 245928" d="M805.174,221.826a.7.7,0,0,1-.269-.02,1.929,1.929,0,0,1-.7-.319,2.57,2.57,0,0,1-.816-.916,2.329,2.329,0,0,1-.22-1.633,2.655,2.655,0,0,1,1.146-1.644,3.812,3.812,0,0,1,2.231-.438,3.051,3.051,0,0,0,2.122-.538,14.876,14.876,0,0,0,1.723-1.852,8.763,8.763,0,0,1,4.383-2.53,9.277,9.277,0,0,1,4.133-.09,8.081,8.081,0,0,1,2.6,1,2.958,2.958,0,0,1,.807.617,12.3,12.3,0,0,0-3.466-1.255,9.327,9.327,0,0,0-3.944.2,8.5,8.5,0,0,0-4.124,2.421,14.78,14.78,0,0,1-1.8,1.912,2.923,2.923,0,0,1-1.215.548,5.777,5.777,0,0,1-1.225.06,3.439,3.439,0,0,0-1.992.319,2.352,2.352,0,0,0-1.016,1.364,2.265,2.265,0,0,0,.807,2.3,5.806,5.806,0,0,0,.847.5Z" transform="translate(-280.745 -73.734)" fill="#233313"/>
      <path id="Trazado_245929" data-name="Trazado 245929" d="M831.826,245.592a9.65,9.65,0,0,0,.926-.558,5.823,5.823,0,0,0,1.923-2.141,5.334,5.334,0,0,0,.319-4.124,5.245,5.245,0,0,0-1.275-2.111,10.316,10.316,0,0,0-2.2-1.614c-.827-.478-1.663-.926-2.421-1.444a8.373,8.373,0,0,1-1.952-1.832A8.525,8.525,0,0,1,825.5,227.6a7.623,7.623,0,0,1,.229-3.008,5.017,5.017,0,0,1,.279-.767c.08-.17.129-.259.139-.249a10.47,10.47,0,0,0-.289,3.984,8.458,8.458,0,0,0,1.663,3.925,7.822,7.822,0,0,0,1.852,1.7c.737.5,1.564.926,2.4,1.414a10.589,10.589,0,0,1,2.3,1.7,5.78,5.78,0,0,1,1.375,2.331,5.61,5.61,0,0,1-2.6,6.584,2.478,2.478,0,0,1-1.035.389Z" transform="translate(-288.562 -77.907)" fill="#233313"/>
      <path id="Trazado_245930" data-name="Trazado 245930" d="M845.081,234.92a5.707,5.707,0,0,1-.906.2,12.769,12.769,0,0,1-2.53.079,15.74,15.74,0,0,1-7.858-2.7,12.427,12.427,0,0,1-5.15-6.484,5.429,5.429,0,0,1-.109-2.55,2.016,2.016,0,0,1,.348-.866,6.3,6.3,0,0,0,.11,3.317,12.8,12.8,0,0,0,5.089,6.155,16.678,16.678,0,0,0,7.59,2.769c2.092.229,3.4-.02,3.407.09Z" transform="translate(-289.605 -77.564)" fill="#233313"/>
      <path id="Trazado_245931" data-name="Trazado 245931" d="M855.2,231.764a12.416,12.416,0,0,1,9.711-4.393c3.666.209,7.251,2.739,8.148,6.3.677,2.679-.149,5.478-.5,8.227s-.01,5.957,2.231,7.58c1.344.976,3.1,1.155,4.711,1.553s3.357,1.205,3.9,2.779c.638,1.8-.668,3.854-2.421,4.612a9.007,9.007,0,0,1-5.637.079,4.73,4.73,0,0,1-2.092,5.648A6.228,6.228,0,0,1,867,263.9a9.356,9.356,0,0,1-3.825-5.179c-1.205,2.122-4.373,2.57-6.4,1.215a6.7,6.7,0,0,1-2.59-6.434,12.529,12.529,0,0,1,3.247-6.434,16.224,16.224,0,0,0,2.271-2.889,3.681,3.681,0,0,0,.14-3.516,2.126,2.126,0,0,0-3.138-.628" transform="translate(-298.599 -79.229)" fill="#233313"/>
      <path id="Trazado_245932" data-name="Trazado 245932" d="M859.465,240.2a2.663,2.663,0,0,1-2.122-.02,5.066,5.066,0,0,1-3.067-4,5.224,5.224,0,0,1,.339-2.859,5.514,5.514,0,0,1,1.344-1.912,3.506,3.506,0,0,1,1.853-1.036,14.414,14.414,0,0,0-1.594,1.295,5.219,5.219,0,0,0-1.425,4.432,5.01,5.01,0,0,0,2.7,3.755,4.771,4.771,0,0,0,1.972.359Z" transform="translate(-298.63 -80.281)" fill="#425c29"/>
      <path id="Trazado_245933" data-name="Trazado 245933" d="M820.012,263.391a3.275,3.275,0,0,1-1.6-.159,8.69,8.69,0,0,1-5.708-5.04,3.274,3.274,0,0,1-.358-1.574,10.047,10.047,0,0,1,.687,1.424,9.934,9.934,0,0,0,5.478,4.831,11.164,11.164,0,0,1,1.494.508Z" transform="translate(-283.969 -89.471)" fill="#eb996e"/>
      <path id="Trazado_245934" data-name="Trazado 245934" d="M862.245,262.552a1.865,1.865,0,0,1-.349-.049,3.666,3.666,0,0,1-.916-.408,5.053,5.053,0,0,1-2-3.038,6.232,6.232,0,0,1-.09-2.56,10.546,10.546,0,0,1,.926-2.769c.887-1.853,2.291-3.616,3.327-5.668a10.213,10.213,0,0,0,1.046-3.138,6.068,6.068,0,0,0-3.914-6.534,6.47,6.47,0,0,0-3.487-.219c-.827.169-1.245.408-1.265.358,0-.02.09-.079.289-.189a4.619,4.619,0,0,1,.926-.359,6.363,6.363,0,0,1,7.958,7.012,10.021,10.021,0,0,1-1.086,3.3c-1.076,2.122-2.48,3.864-3.357,5.647a7.6,7.6,0,0,0-.917,5.04,4.948,4.948,0,0,0,1.763,2.958,10.921,10.921,0,0,0,1.145.628Z" transform="translate(-299.089 -82.865)" fill="#233313"/>
      <path id="Trazado_245935" data-name="Trazado 245935" d="M872.888,267.175a2.539,2.539,0,0,1-.448.03,4.674,4.674,0,0,1-1.255-.229,7.084,7.084,0,0,1-3.665-2.859,10.866,10.866,0,0,1-1.584-6.714,68.68,68.68,0,0,1,1.355-8.337,19.775,19.775,0,0,0,.3-4.293,10.681,10.681,0,0,0-.906-3.845,7.011,7.011,0,0,0-4.941-4.134,10.29,10.29,0,0,0-4.532.02c-1.066.239-1.624.468-1.644.428a1.443,1.443,0,0,1,.389-.209,9.131,9.131,0,0,1,1.2-.419,9.976,9.976,0,0,1,4.661-.179,7.534,7.534,0,0,1,2.978,1.334,7.674,7.674,0,0,1,2.321,2.948,11.475,11.475,0,0,1,.976,4.014,20.019,20.019,0,0,1-.289,4.4,76.723,76.723,0,0,0-1.394,8.278,10.615,10.615,0,0,0,1.414,6.484,7.1,7.1,0,0,0,3.427,2.869,9.972,9.972,0,0,0,1.633.388Z" transform="translate(-299.105 -82.339)" fill="#233313"/>
      <path id="Trazado_245936" data-name="Trazado 245936" d="M877.4,333.176l-15,11.7,6.295,10.328L886.755,341.9Z" transform="translate(-301.497 -116.267)" fill="#ffbe9d"/>
      <path id="Trazado_245937" data-name="Trazado 245937" d="M804.226,267.205s.07-1.255-3.2-1.435a33.485,33.485,0,0,0-3.635-.12,8.3,8.3,0,0,1-1.564-3.028,9.161,9.161,0,0,1,.7-3.078l3.307-.309-.9-2.251-2.331.159-6.584.787L787.4,269.466l-17.979,33.567a8.665,8.665,0,0,0,3.437,12.62c4.651,2.251,10.877-2.52,12.6-7.39l9.95-37.342,3.5-2.739,5.02-.916" transform="translate(-268.442 -89.6)" fill="#ffbe9d"/>
      <path id="Trazado_245938" data-name="Trazado 245938" d="M760.676,528.5l24.483-140.851h-.03c.05-.219.1-.419.15-.617V387c4.163-16.524,10.588-21.813,10.588-21.813l37.471,2.35c3.188,5.727,3.586,19.463,3.586,19.463.438,1.684-7.919,138.172-7.919,138.172l-12.53-.348L809.682,395.7,773.216,529.038l-12.55-.538Z" transform="translate(-265.889 -127.471)" fill="#ffbe9d"/>
      <path id="Trazado_245939" data-name="Trazado 245939" d="M755.52,617.7l.05-1.275,12.889.369-.11,4.193-.8.03c-3.546.09-18.039.209-20.389-.518-2.62-.817,8.356-2.809,8.356-2.809Z" transform="translate(-261.022 -215.404)" fill="#425c29"/>
      <g id="Grupo_244287" data-name="Grupo 244287" transform="translate(502.675 402.062)" opacity="0.6">
        <path id="Trazado_245940" data-name="Trazado 245940" d="M772.818,621.337a4.092,4.092,0,0,1,1.713-2.5,4.568,4.568,0,0,1,3.028-.787l-.1,3.337Z" transform="translate(-772.818 -618.028)" fill="#fff"/>
      </g>
      <g id="Grupo_244288" data-name="Grupo 244288" transform="translate(485.695 403.438)" opacity="0.6">
        <path id="Trazado_245941" data-name="Trazado 245941" d="M750.129,620.146s-3.855.926-3.4,1.524,15.11.986,21.584.627v-.269l-17.1-.318S750.875,620.2,750.129,620.146Z" transform="translate(-746.694 -620.146)" fill="#fff"/>
      </g>
      <path id="Trazado_245942" data-name="Trazado 245942" d="M768.542,622.743s-.08.01-.22.019c-.189,0-.4.01-.637.02-.638,0-1.414.02-2.331.03-1.972.01-4.692,0-7.7-.08s-5.728-.2-7.7-.318q-1.375-.09-2.331-.15c-.239-.019-.438-.04-.637-.049a.627.627,0,0,1-.219-.03h.219c.189,0,.4.02.637.02.638.03,1.414.06,2.331.11,1.972.09,4.692.2,7.7.279s5.727.109,7.7.12c.917,0,1.7.01,2.331.01h.637a.744.744,0,0,1,.22.01Z" transform="translate(-261.025 -217.421)" fill="#233313"/>
      <path id="Trazado_245943" data-name="Trazado 245943" d="M753.014,621.822a2.863,2.863,0,0,0-.408-1.046,4.871,4.871,0,0,0-.767-.846,1.648,1.648,0,0,1,.906.777A1.491,1.491,0,0,1,753.014,621.822Z" transform="translate(-262.799 -216.63)" fill="#233313"/>
      <path id="Trazado_245944" data-name="Trazado 245944" d="M759.21,619.711a2.582,2.582,0,0,1-.389-.468c-.179-.279-.3-.518-.259-.538s.209.189.389.468S759.25,619.691,759.21,619.711Z" transform="translate(-265.151 -216.203)" fill="#233313"/>
      <path id="Trazado_245945" data-name="Trazado 245945" d="M760.746,619.131a1.988,1.988,0,0,1-.448-.289c-.219-.19-.369-.369-.339-.4s.229.1.449.289S760.776,619.1,760.746,619.131Z" transform="translate(-265.64 -216.11)" fill="#233313"/>
      <path id="Trazado_245946" data-name="Trazado 245946" d="M761.526,617.758a2.935,2.935,0,0,1-.668.06,1.528,1.528,0,0,1-.667-.08,1.544,1.544,0,0,1,.667-.06A1.75,1.75,0,0,1,761.526,617.758Z" transform="translate(-265.723 -215.843)" fill="#233313"/>
      <path id="Trazado_245947" data-name="Trazado 245947" d="M761.807,616.579a1.859,1.859,0,0,1-.757.179,1.331,1.331,0,0,1-.767-.119,6.052,6.052,0,0,1,.757-.03,4.218,4.218,0,0,1,.757-.04Z" transform="translate(-265.755 -215.451)" fill="#233313"/>
      <path id="Trazado_245948" data-name="Trazado 245948" d="M757.639,618.031a3.479,3.479,0,0,1-.827-.03,6.6,6.6,0,0,1-.877-.2,2.308,2.308,0,0,1-.5-.209.437.437,0,0,1-.2-.239.289.289,0,0,1,.129-.3,1.57,1.57,0,0,1,1.852.458,1.264,1.264,0,0,1,.249.518.667.667,0,0,1,.02.209,2.163,2.163,0,0,0-.359-.668,1.534,1.534,0,0,0-.687-.448,1.35,1.35,0,0,0-.986.04c-.129.09-.09.229.06.319a2.394,2.394,0,0,0,.458.2,5.974,5.974,0,0,0,.846.229c.488.09.807.1.807.13Z" transform="translate(-263.987 -215.579)" fill="#233313"/>
      <path id="Trazado_245949" data-name="Trazado 245949" d="M758.549,617.9a.8.8,0,0,1-.08-.538,1.33,1.33,0,0,1,.239-.558.817.817,0,0,1,.7-.369.3.3,0,0,1,.239.359.871.871,0,0,1-.15.339,2.323,2.323,0,0,1-.408.458,1.288,1.288,0,0,1-.478.3c-.01-.019.169-.129.4-.369a2.418,2.418,0,0,0,.358-.448c.12-.159.209-.448,0-.488a.778.778,0,0,0-.558.309,1.191,1.191,0,0,0-.249.488,3.253,3.253,0,0,0-.03.518Z" transform="translate(-265.116 -215.408)" fill="#233313"/>
      <path id="Trazado_245950" data-name="Trazado 245950" d="M777.5,617.946a5.959,5.959,0,0,0-.946,0,4.259,4.259,0,0,0-2.092.737,3.959,3.959,0,0,0-1.344,1.663c-.209.508-.239.847-.269.847a1.428,1.428,0,0,1,0-.239,2.777,2.777,0,0,1,.159-.638,3.74,3.74,0,0,1,1.355-1.743,4.161,4.161,0,0,1,2.181-.727,2.919,2.919,0,0,1,.707.04A.981.981,0,0,1,777.5,617.946Z" transform="translate(-270.151 -215.901)" fill="#233313"/>
      <path id="Trazado_245951" data-name="Trazado 245951" d="M768.36,621.221a11.4,11.4,0,0,1-1.883.12,7.784,7.784,0,0,1-1.872-.189c0-.04.846.03,1.872.04s1.873-.02,1.873.02Z" transform="translate(-267.268 -217.055)" fill="#233313"/>
      <path id="Trazado_245952" data-name="Trazado 245952" d="M774.049,621.354s-.07.159-.17.339-.139.329-.189.329-.06-.189.05-.389S774.019,621.324,774.049,621.354Z" transform="translate(-270.437 -217.129)" fill="#233313"/>
      <path id="Trazado_245953" data-name="Trazado 245953" d="M775.494,619.715a.827.827,0,0,1-.189.268c-.139.12-.269.2-.3.17s.06-.15.19-.269S775.464,619.685,775.494,619.715Z" transform="translate(-270.906 -216.554)" fill="#233313"/>
      <path id="Trazado_245954" data-name="Trazado 245954" d="M777.481,618.955a3.04,3.04,0,0,0-.369.09c-.189.05-.329.149-.359.12s.08-.189.319-.259.428.01.418.049Z" transform="translate(-271.518 -216.264)" fill="#233313"/>
      <path id="Trazado_245955" data-name="Trazado 245955" d="M779.152,618.661a.313.313,0,0,1-.169.13c-.11.04-.209.03-.219,0s.06-.1.169-.13S779.142,618.631,779.152,618.661Z" transform="translate(-272.223 -216.179)" fill="#233313"/>
      <path id="Trazado_245956" data-name="Trazado 245956" d="M857.084,278.807a24.7,24.7,0,0,1,9.921,3.9c11.853,7.68,31.664,23.925,30.021,31.445-1.394,6.405-16.853,14.174-16.853,14.174l-10.04-12.072,6.156-3.516-15.13-10.06Z" transform="translate(-299.636 -97.237)" fill="#233313"/>
      <path id="Trazado_245957" data-name="Trazado 245957" d="M832.419,302.869l-.488,1.8L830.187,313l-.428,12.2c8.985,11.574,9.124,21.315,9.124,21.315l-45.39,5.3c0-8.964,3.277-20.26,3.277-20.26,2.629-4.452,2.5-17.779,2.012-18.267-2.839-2.809-3.526-4.87-1.255-8.466,0,0-14.074,14.782-15.518,16.106-4.97,4.562-9.751,3.287-11.973,1.3-6.215-5.548.17-12.7.17-12.7l23.706-27.162a11.821,11.821,0,0,1,6.156-3.755,50.984,50.984,0,0,1,5.08-.9l15.827.139a26.735,26.735,0,0,1,4.711.578A11.329,11.329,0,0,1,832.6,287c1.414,6.8-.159,15.887-.159,15.887Z" transform="translate(-268.217 -96.857)" fill="#233313"/>
      <path id="Trazado_245958" data-name="Trazado 245958" d="M866.513,299.678a13.075,13.075,0,0,1,.1,1.315c.02.846,0,2.072-.09,3.586a95.971,95.971,0,0,1-1.564,11.733c-.3,1.554-.607,3.038-.936,4.423v-.05c-.129,3.526-.269,6.574-.389,8.746-.06,1.006-.119,1.853-.159,2.54a3.906,3.906,0,0,1-.12.916,3.542,3.542,0,0,1-.049-.916c0-.687,0-1.534.019-2.54.03-2.172.11-5.219.22-8.746v-.049c.318-1.375.627-2.859.916-4.4.866-4.523,1.435-8.656,1.7-11.664.139-1.5.209-2.719.249-3.566a5.618,5.618,0,0,1,.109-1.314Z" transform="translate(-301.814 -104.542)" fill="#233313"/>
      <path id="Trazado_245959" data-name="Trazado 245959" d="M868.469,318.448a94.6,94.6,0,0,1,8.287,5.418,91.872,91.872,0,0,1,7.988,5.847,94.778,94.778,0,0,1-8.287-5.418A93.809,93.809,0,0,1,868.469,318.448Z" transform="translate(-303.621 -111.11)" fill="#233313"/>
      <path id="Trazado_245960" data-name="Trazado 245960" d="M817.527,291.081a1.35,1.35,0,0,1,.229.179,4.117,4.117,0,0,1,.568.617,6.76,6.76,0,0,1,1.224,2.809,9.284,9.284,0,0,1-.259,4.552,18.606,18.606,0,0,1-2.55,4.95,17.655,17.655,0,0,1-1.873,2.2c-.657.668-1.364,1.225-1.982,1.783-1.255,1.126-2.341,2.191-3.238,3.108s-1.6,1.663-2.092,2.191a5.343,5.343,0,0,1-.8.787,4.476,4.476,0,0,1,.637-.917c.448-.567,1.106-1.364,1.972-2.311s1.932-2.052,3.178-3.207c.627-.588,1.315-1.146,1.942-1.793a18.169,18.169,0,0,0,1.813-2.141,18.954,18.954,0,0,0,2.51-4.791,9.125,9.125,0,0,0,.349-4.333,8.2,8.2,0,0,0-1.663-3.675Z" transform="translate(-282.021 -101.533)" fill="#233313"/>
      <path id="Trazado_245961" data-name="Trazado 245961" d="M815.2,349.533l.518-6.106h30.957l-.17,4.772Z" transform="translate(-284.978 -119.855)" fill="#233313"/>
      <path id="Trazado_245962" data-name="Trazado 245962" d="M772.385,324.809c.06.08-.787.588-1.713,1.793a8.252,8.252,0,0,0,.439,10.817,23.81,23.81,0,0,0,1.853,1.644c-.01.03-.249-.05-.638-.259a7.067,7.067,0,0,1-1.484-1.125,8.387,8.387,0,0,1-2.5-5.558,8.472,8.472,0,0,1,2.032-5.747,7.115,7.115,0,0,1,1.394-1.245c.369-.239.588-.339.608-.309Z" transform="translate(-268.574 -113.338)" fill="#233313"/>
      <path id="Trazado_245963" data-name="Trazado 245963" d="M859.087,611.123l3.506,8.167-15.708-.179-.328-8.326Z" transform="translate(-295.952 -213.431)" fill="#425c29"/>
      <path id="Trazado_245964" data-name="Trazado 245964" d="M846.879,621.285s.837.09,2.2.109,3.237.02,5.309-.019c1.982-.04,3.765-.08,5.3-.11a18.738,18.738,0,0,0,2.2-.11,14.638,14.638,0,0,0-2.2-.109c-1.364-.02-3.237-.01-5.309.02-1.972.04-3.765.08-5.3.11A14.583,14.583,0,0,0,846.879,621.285Z" transform="translate(-296.064 -217.019)" fill="#233313"/>
      <path id="Trazado_245965" data-name="Trazado 245965" d="M856.893,611.029a11.055,11.055,0,0,0-.07,3.317,11.537,11.537,0,0,0,.428,3.287,11.055,11.055,0,0,0,.07-3.317A11.534,11.534,0,0,0,856.893,611.029Z" transform="translate(-299.524 -213.517)" fill="#233313"/>
      <path id="Trazado_245966" data-name="Trazado 245966" d="M862.686,623.047l-15.708-.518-.1-1.494,15.01.129.8,1.713" transform="translate(-296.064 -217.019)" fill="#fff" opacity="0.6"/>
      <path id="Trazado_245967" data-name="Trazado 245967" d="M832.2,364.209c11.823,37.3-3.416,82.582.239,126.05.359,4.273,2.092,9.383-1.9,11.813a6.508,6.508,0,0,1-3.605.876c-3.188-.109-5.857-1.763-8.705-2.9a25.872,25.872,0,0,0-17.132-.668c-3.775,1.176-7.51,3.257-11.415,2.66-5.19-.787-8.546-5.907-13.328-8.088-4.472-2.032-9.632-1.275-14.542-1.394h-.149a11.012,11.012,0,0,1-10.17-13.955c7.132-26.127,30.8-111.019,41.276-126.518l31.316-1.335c2.889,3.487,6.594,8.7,8.118,13.447Z" transform="translate(-262.538 -122.419)" fill="#425c29"/>
      <path id="Trazado_245968" data-name="Trazado 245968" d="M851.3,398.47a13.9,13.9,0,0,1-1.7,2.142,49.484,49.484,0,0,1-4.621,4.721,31.042,31.042,0,0,1-5.459,3.755,13.075,13.075,0,0,1-2.49,1.156c-.109-.179,3.725-1.962,7.6-5.3,1.923-1.674,3.516-3.377,4.692-4.582a14.7,14.7,0,0,1,1.972-1.893Z" transform="translate(-292.614 -139.119)" fill="#233313"/>
      <g id="Grupo_244289" data-name="Grupo 244289" transform="translate(526.384 273.425)" opacity="0.1">
        <path id="Trazado_245969" data-name="Trazado 245969" d="M827.767,420.124a133.44,133.44,0,0,0-5.249,79.843c.558,2.281,1.135,4.87-.159,6.823-1.684,2.53-5.747,2.36-8.048.369s-3.217-5.12-3.795-8.1c-4.3-22.251,3.486-44.623,11.9-65.669" transform="translate(-809.293 -420.124)"/>
      </g>
      <path id="Trazado_245970" data-name="Trazado 245970" d="M532.5,439.462H473.144v2.889H532.5Z" transform="translate(-165.255 -153.467)" fill="#233313"/>
      <path id="Trazado_245971" data-name="Trazado 245971" d="M453,421.444,441.868,379.73h46.346l10.08,41.714Z" transform="translate(-154.309 -132.561)" fill="#233313"/>
      <path id="Trazado_245972" data-name="Trazado 245972" d="M496.921,419.321h-41.4l-9.642-36.634H487.5Z" transform="translate(-155.714 -133.596)" fill="#f5f5f5"/>
      <path id="Trazado_245973" data-name="Trazado 245973" d="M446.586,385.317H488.21l-.7-2.63H445.9l.7,2.63Z" transform="translate(-155.719 -133.596)" fill="#ebebeb"/>
      <path id="Trazado_245974" data-name="Trazado 245974" d="M453.867,384.463a.457.457,0,0,0,.458.458.458.458,0,1,0-.458-.458Z" transform="translate(-158.508 -134.057)" fill="#fafafa"/>
      <path id="Trazado_245975" data-name="Trazado 245975" d="M451.461,384.463a.457.457,0,0,0,.458.458.458.458,0,1,0-.458-.458Z" transform="translate(-157.666 -134.057)" fill="#fafafa"/>
      <path id="Trazado_245976" data-name="Trazado 245976" d="M449.055,384.463a.457.457,0,0,0,.458.458.458.458,0,1,0-.458-.458Z" transform="translate(-156.824 -134.057)" fill="#fafafa"/>
      <path id="Trazado_245977" data-name="Trazado 245977" d="M491.115,407.858l4.562,5.209a6.428,6.428,0,0,0,2.8-5.239c-.01-3.645-3.347-6.634-7.381-6.614s-7.341,3.028-7.331,6.673l7.361-.03Z" transform="translate(-168.972 -140.08)" fill="#425c29"/>
      <path id="Trazado_245978" data-name="Trazado 245978" d="M490.21,412.666s.488.428,1.3,1.305,1.982,2.151,3.367,3.7l.159.179-.2.15a7.89,7.89,0,0,1-7.68.757,7.556,7.556,0,0,1-3.158-2.54,6.6,6.6,0,0,1-1.175-3.427v-.229h.219c2.181-.01,3.984,0,5.239.02a11.836,11.836,0,0,1,1.932.09,13.617,13.617,0,0,1-2,.159c-1.255.06-3.028.12-5.149.179l.219-.229a6.106,6.106,0,0,0,1.136,3.158,7.172,7.172,0,0,0,2.958,2.35,7.547,7.547,0,0,0,7.221-.637l-.04.318c-1.325-1.544-2.41-2.849-3.167-3.775a14.975,14.975,0,0,1-1.175-1.524Z" transform="translate(-168.645 -144.053)" fill="#233313"/>
      <path id="Trazado_245979" data-name="Trazado 245979" d="M489.6,405.157a.413.413,0,1,0,.408-.419A.412.412,0,0,0,489.6,405.157Z" transform="translate(-171.016 -141.314)" fill="#233313"/>
      <path id="Trazado_245980" data-name="Trazado 245980" d="M476.991,400.635a23.8,23.8,0,0,1,4.92-.28h.766l.07.07a19.691,19.691,0,0,1,2.848,3.187,19.81,19.81,0,0,1-3.207-2.818l.179.07h-.657a22.352,22.352,0,0,1-4.92-.239Z" transform="translate(-166.602 -139.78)" fill="#233313"/>
      <path id="Trazado_245981" data-name="Trazado 245981" d="M461.762,404.7s-.189-.658-.468-1.923-.677-3.117-1.125-5.379l-.05-.249h.259c2.929-.03,6.475-.06,10.3-.09-.049-.049.488.4.259.209v.06l.019.06.02.12.05.249.089.488c.06.328.12.647.179.966.12.638.239,1.265.349,1.882.229,1.225.438,2.4.647,3.516l.049.279h-.279c-3.1,0-5.7-.05-7.5-.08q-1.239-.03-2.092-.06a2.883,2.883,0,0,1-.707-.06,4.854,4.854,0,0,1,.8-.06c.578-.02,1.285-.04,2.132-.07,1.823-.05,4.362-.109,7.37-.139l-.229.279c-.219-1.106-.449-2.281-.688-3.506q-.178-.927-.358-1.883c-.06-.319-.12-.637-.179-.966l-.09-.488-.05-.249-.02-.12v-.06l-.02-.03v-.02c-.229-.2.309.239.259.2h-10.3l.209-.249c.389,2.191.688,4.014.9,5.3a18.293,18.293,0,0,1,.289,2.082Z" transform="translate(-160.697 -138.625)" fill="#233313"/>
      <path id="Trazado_245982" data-name="Trazado 245982" d="M488.652,417.922a.413.413,0,1,0,.408-.419A.412.412,0,0,0,488.652,417.922Z" transform="translate(-170.683 -145.782)" fill="#233313"/>
      <path id="Trazado_245983" data-name="Trazado 245983" d="M477.782,418.027a26.638,26.638,0,0,1,7.481-.03,13.413,13.413,0,0,1-3.745.279,13.75,13.75,0,0,1-3.745-.249Z" transform="translate(-166.875 -145.867)" fill="#233313"/>
      <path id="Trazado_245984" data-name="Trazado 245984" d="M461.835,420.1s-.179-.458-.448-1.375-.657-2.271-1.115-3.964l-.06-.239h.249c2.809-.06,6.534-.09,10.618-.109-.229-.17.309.239.249.2v.04l.02.04.02.09.049.179.09.359.179.7c.12.468.239.926.348,1.374.229.9.449,1.773.658,2.61l.079.309h-.309c-3.147,0-5.837-.04-7.709-.079-.857-.02-1.574-.04-2.172-.06a3.22,3.22,0,0,1-.737-.06,5.8,5.8,0,0,1,.837-.07c.608-.02,1.345-.05,2.221-.08,1.883-.05,4.512-.11,7.57-.14l-.239.309c-.219-.837-.448-1.7-.677-2.6q-.179-.673-.359-1.375l-.179-.7-.09-.359-.049-.179-.02-.09v-.04l-.02-.02v-.02c-.059-.05.478.369.25.189-4.084.02-7.819,0-10.618-.02l.189-.239c.4,1.633.7,2.969.907,3.915a9.843,9.843,0,0,1,.289,1.524Z" transform="translate(-160.729 -144.687)" fill="#233313"/>
      <path id="Trazado_245985" data-name="Trazado 245985" d="M463.9,400.839a24.128,24.128,0,0,1,7.052-.02,11.721,11.721,0,0,1-3.526.269A12.208,12.208,0,0,1,463.9,400.839Z" transform="translate(-162.021 -139.855)" fill="#233313"/>
      <path id="Trazado_245986" data-name="Trazado 245986" d="M464.042,402.616a24.43,24.43,0,0,1,7.091-.02,11.87,11.87,0,0,1-3.546.268A12.348,12.348,0,0,1,464.042,402.616Z" transform="translate(-162.07 -140.477)" fill="#233313"/>
      <path id="Trazado_245987" data-name="Trazado 245987" d="M464.364,404.333a11.437,11.437,0,0,1,3.416-.269,11.564,11.564,0,0,1,3.426.249,11.436,11.436,0,0,1-3.416.269A11.561,11.561,0,0,1,464.364,404.333Z" transform="translate(-162.182 -141.078)" fill="#233313"/>
      <path id="Trazado_245988" data-name="Trazado 245988" d="M464.226,417.894a21.9,21.9,0,0,1,6.713-.02,21.853,21.853,0,0,1-6.713.02Z" transform="translate(-162.134 -145.825)" fill="#233313"/>
      <path id="Trazado_245989" data-name="Trazado 245989" d="M464.869,419.856a8.085,8.085,0,0,1,2.859-.269,8.437,8.437,0,0,1,2.869.249,8.083,8.083,0,0,1-2.859.269A8.437,8.437,0,0,1,464.869,419.856Z" transform="translate(-162.359 -146.511)" fill="#233313"/>
      <path id="Trazado_245990" data-name="Trazado 245990" d="M365.019,443.692v5.478H368.6V559.94h7.351V449.17h39.015V559.94h7.351V449.17H591.58v110.74h7.351V449.17h3.188v-5.478Z" transform="translate(-127.411 -154.948)" fill="#233313"/>
      <path id="Trazado_245991" data-name="Trazado 245991" d="M610.262,507.087a57.557,57.557,0,0,0,9.562,0,57.364,57.364,0,0,0-9.562,0Z" transform="translate(-213.247 -177.066)" fill="#233313"/>
      <path id="Trazado_245992" data-name="Trazado 245992" d="M502.994,508.8c.143,0,.259-.058.259-.129s-.116-.13-.259-.13-.259.058-.259.13S502.851,508.8,502.994,508.8Z" transform="translate(-175.612 -177.646)" fill="#233313"/>
      <path id="Trazado_245993" data-name="Trazado 245993" d="M552.716,334.464l-27.461-27.9-.6-3.018c-.11-.548-.229-1.165-.339-1.873a7.548,7.548,0,0,1,.04-2.46,11.071,11.071,0,0,1,.847-2.928c.458-.807-.279-1.783-1.046-1.444s-2.092,2.53-2.381,5.538-2.859-.986-3.815-2.42-4.143-5.758-4.8-5.807c-.976-.08-1.225.976-.229,2.39,1.005,1.435,3.686,5.877,2.918,6.355h-.03a3.59,3.59,0,0,0-3.8,1.873c-.7,1.334-1.464,3.217-.837,4.094a49.463,49.463,0,0,0,4.383,4.642l.916.787s23.756,34.423,28.935,35.538c3.217.7,53,4.821,53,4.821l3.755-13.716L552.7,334.453Z" transform="translate(-178.491 -101.907)" fill="#b78876"/>
      <path id="Trazado_245994" data-name="Trazado 245994" d="M511.025,312.858l2.539,2.441a2.955,2.955,0,0,0,.957.7,1.035,1.035,0,0,0,1.106-.179,1.008,1.008,0,0,0,.149-1.016,3.143,3.143,0,0,0-.588-.907c-.827-.986-1.643-1.982-2.47-2.968" transform="translate(-178.514 -108.479)" fill="#b78876"/>
      <path id="Trazado_245995" data-name="Trazado 245995" d="M512.715,310.923c.06-.049.528.428,1.255,1.225.408.458.827.937,1.255,1.425a4.576,4.576,0,0,1,.7.946,1.35,1.35,0,0,1-.07,1.414,1.241,1.241,0,0,1-1.394.319,2.826,2.826,0,0,1-1-.7c-.458-.468-.9-.917-1.335-1.355a5.905,5.905,0,0,1-1.136-1.345,6.142,6.142,0,0,1,1.385,1.076c.458.408.926.837,1.4,1.275a2.462,2.462,0,0,0,.827.567.763.763,0,0,0,.816-.159.862.862,0,0,0,.02-.866,4.832,4.832,0,0,0-.608-.857c-.4-.518-.787-1.006-1.165-1.494a5.532,5.532,0,0,1-.976-1.464Z" transform="translate(-178.501 -108.477)" fill="#aa6550"/>
      <path id="Trazado_245996" data-name="Trazado 245996" d="M513.8,310.13c.846.816,1.693,1.624,2.539,2.44a2.958,2.958,0,0,0,.956.7,1.036,1.036,0,0,0,1.106-.179,1.008,1.008,0,0,0,.149-1.016,3.153,3.153,0,0,0-.588-.906c-.827-.987-1.644-1.983-2.47-2.969" transform="translate(-179.485 -107.524)" fill="#b78876"/>
      <path id="Trazado_245997" data-name="Trazado 245997" d="M515.489,308.2c.06-.05.528.428,1.255,1.225.408.458.827.936,1.255,1.424a4.576,4.576,0,0,1,.7.946,1.328,1.328,0,0,1-.07,1.414,1.241,1.241,0,0,1-1.394.318,2.811,2.811,0,0,1-1-.7c-.458-.468-.9-.916-1.334-1.355a5.9,5.9,0,0,1-1.136-1.344,6.135,6.135,0,0,1,1.384,1.076c.458.408.926.837,1.4,1.275a2.466,2.466,0,0,0,.826.568.764.764,0,0,0,.817-.16.863.863,0,0,0,.02-.866,4.829,4.829,0,0,0-.608-.857c-.4-.517-.787-1.006-1.165-1.494a5.536,5.536,0,0,1-.976-1.464Z" transform="translate(-179.472 -107.522)" fill="#aa6550"/>
      <path id="Trazado_245998" data-name="Trazado 245998" d="M516.833,307.893c.846.816,1.693,1.623,2.539,2.44a2.963,2.963,0,0,0,.956.7,1.036,1.036,0,0,0,1.106-.179,1.008,1.008,0,0,0,.15-1.016,3.158,3.158,0,0,0-.588-.907c-.827-.986-1.643-1.982-2.47-2.968" transform="translate(-180.547 -106.741)" fill="#b78876"/>
      <path id="Trazado_245999" data-name="Trazado 245999" d="M518.523,305.959c.06-.05.528.428,1.255,1.225.408.458.827.937,1.255,1.425a4.568,4.568,0,0,1,.7.946,1.349,1.349,0,0,1-.07,1.414,1.241,1.241,0,0,1-1.394.319,2.82,2.82,0,0,1-1-.7l-1.334-1.355a5.882,5.882,0,0,1-1.136-1.345,6.142,6.142,0,0,1,1.384,1.076c.458.409.926.837,1.4,1.275a2.452,2.452,0,0,0,.827.567.762.762,0,0,0,.816-.159.864.864,0,0,0,.02-.866,4.827,4.827,0,0,0-.608-.857c-.4-.518-.787-1.006-1.165-1.494a5.535,5.535,0,0,1-.976-1.464Z" transform="translate(-180.534 -106.74)" fill="#aa6550"/>
      <path id="Trazado_246000" data-name="Trazado 246000" d="M523,313.185c0-.079.628-.209,1.544.07l-.289.249a4.345,4.345,0,0,1-.07-1.743,4.429,4.429,0,0,1,.956-2.122c.388-.458.717-.638.767-.588a9.135,9.135,0,0,0-1.205,2.8,5.227,5.227,0,0,0-.02,1.574l.05.4-.349-.149c-.8-.339-1.394-.389-1.394-.488Z" transform="translate(-182.703 -107.82)" fill="#aa6550"/>
      <path id="Trazado_246001" data-name="Trazado 246001" d="M617.172,290.368l.12,38.208-14.9.707-.608-9.164s-7.191,1.1-8.685-4.313c-.956-3.456-.717-30.151-.717-30.151l24.791,4.7Z" transform="translate(-206.979 -99.635)" fill="#b78876"/>
      <path id="Trazado_246002" data-name="Trazado 246002" d="M586.35,286.21c1.106,2.281,6.365,6.464,6.365,6.464l2.37,6.365c2.062-1.613,4.831-1.524,5.359,2.1.378,2.62-2.879,3.147-2.879,3.147,1.892,3.227,3.188,5.837,5.946,8.9,2.988,3.327,4.662,3.655,7.909,3.715H615s7.31-6.115,5.866-22.2-15.916-11.394-19.372-15.419c-5.628-6.554-18.826-.7-15.14,6.933Z" transform="translate(-204.654 -96.413)" fill="#233313"/>
      <path id="Trazado_246003" data-name="Trazado 246003" d="M620.464,311.475a5.144,5.144,0,0,1-1.773-.08,9.148,9.148,0,0,1-4.273-2.2,23.31,23.31,0,0,1-4.313-5.708c-1.394-2.27-2.908-4.93-5.478-6.693-2.59-1.734-5.637-2.092-8.258-2.619a15.588,15.588,0,0,1-6.663-2.54,7.144,7.144,0,0,1-2.67-3.955,3.944,3.944,0,0,1-.07-1.763,6.424,6.424,0,0,0,.15,1.753,7.13,7.13,0,0,0,2.679,3.854A15.667,15.667,0,0,0,596.41,294c2.61.528,5.688.866,8.337,2.64,2.619,1.812,4.133,4.492,5.518,6.773a23.443,23.443,0,0,0,4.254,5.7,9.354,9.354,0,0,0,4.193,2.231,7.01,7.01,0,0,0,1.295.149h.458Z" transform="translate(-205.072 -99.726)" fill="#233313"/>
      <path id="Trazado_246004" data-name="Trazado 246004" d="M621.4,297.245s-.269-.079-.767-.229a11.114,11.114,0,0,0-2.241-.5,5.006,5.006,0,0,0-3.446.777,2.82,2.82,0,0,0-1.2,1.813,2.533,2.533,0,0,0,.7,2.281,1.941,1.941,0,0,0,1.205.478,2.556,2.556,0,0,0,1.325-.359,4.051,4.051,0,0,0,1.8-2.3,5.706,5.706,0,0,0-4.811-7.48,9.931,9.931,0,0,0-3.706.488,25.123,25.123,0,0,1-3.835.917,15.432,15.432,0,0,1-4.064.01,13.514,13.514,0,0,1-3.924-1.085,4.724,4.724,0,0,1-2.68-2.829,3.69,3.69,0,0,1,.907-3.606,3.177,3.177,0,0,1,3.5-.518,2.635,2.635,0,0,1,1.295,1.225,2.934,2.934,0,0,1,.279,1.713A3.881,3.881,0,0,1,600,290.771a5.59,5.59,0,0,1-2.948.816,8.735,8.735,0,0,1-2.788-.428,9.938,9.938,0,0,1-4.1-2.53,10.6,10.6,0,0,1-2.092-2.988,10.341,10.341,0,0,1-.737-2.191c-.09-.518-.129-.8-.129-.8s.06.269.169.786a10.819,10.819,0,0,0,.777,2.162,10.615,10.615,0,0,0,2.1,2.938,9.83,9.83,0,0,0,4.064,2.471,8.513,8.513,0,0,0,2.749.408,5.379,5.379,0,0,0,2.848-.807,3.718,3.718,0,0,0,1.654-2.61,2.563,2.563,0,0,0-1.474-2.739,2.988,2.988,0,0,0-3.287.488,3.508,3.508,0,0,0-.857,3.406,4.558,4.558,0,0,0,2.58,2.7,13.24,13.24,0,0,0,3.855,1.066,15.947,15.947,0,0,0,4.014,0,25.543,25.543,0,0,0,3.805-.916,10.028,10.028,0,0,1,3.775-.488,5.886,5.886,0,0,1,4.95,7.729,4.2,4.2,0,0,1-1.883,2.381,2.761,2.761,0,0,1-1.414.378,2.12,2.12,0,0,1-1.295-.518,2.651,2.651,0,0,1-.727-2.41,2.941,2.941,0,0,1,1.265-1.882,5.136,5.136,0,0,1,3.526-.757,11.287,11.287,0,0,1,2.252.538C621.145,297.145,621.4,297.245,621.4,297.245Z" transform="translate(-205.176 -98.584)" fill="#233313"/>
      <path id="Trazado_246005" data-name="Trazado 246005" d="M607.557,599.865l-4.87-6.245,11.644-9.194,7.221,9.064-.688.617c-3.068,2.72-15.817,13.6-18.477,14.642-2.968,1.165,5.169-8.874,5.169-8.874Z" transform="translate(-210.263 -204.205)" fill="#425c29"/>
      <g id="Grupo_244290" data-name="Grupo 244290" transform="translate(391.486 389.026)" opacity="0.4">
        <path id="Trazado_246006" data-name="Trazado 246006" d="M603.73,609.687s-2.679,3.735-1.793,3.964,14.174-10.279,19.632-15.428l-.229-.249-15.4,12.391s-1.514-1.2-2.211-.688Z" transform="translate(-601.757 -597.973)" fill="#fff"/>
      </g>
      <path id="Trazado_246007" data-name="Trazado 246007" d="M621.535,597.747a2.384,2.384,0,0,1-.179.179c-.159.149-.348.309-.547.488-.558.478-1.236,1.065-2.042,1.763-1.733,1.474-4.163,3.487-6.893,5.648s-5.239,4.064-7.072,5.409c-.857.627-1.594,1.155-2.181,1.583q-.329.239-.6.419c-.14.09-.209.139-.219.139a2.445,2.445,0,0,1,.2-.169c.179-.14.369-.279.578-.448.588-.438,1.3-.986,2.151-1.633,1.813-1.375,4.313-3.3,7.042-5.448s5.16-4.154,6.922-5.607c.816-.677,1.514-1.255,2.082-1.723.209-.17.4-.329.567-.469.129-.1.2-.159.209-.15Z" transform="translate(-210.287 -208.86)" fill="#233313"/>
      <path id="Trazado_246008" data-name="Trazado 246008" d="M607.045,616.773a3.759,3.759,0,0,0-1.2-.7,5.777,5.777,0,0,0-1.365-.239,2.4,2.4,0,0,1,2.56.936Z" transform="translate(-211.225 -215.167)" fill="#233313"/>
      <path id="Trazado_246009" data-name="Trazado 246009" d="M610.84,610.19a2.787,2.787,0,0,1-.717-.16c-.378-.129-.677-.279-.657-.328s.339.019.717.159S610.86,610.14,610.84,610.19Z" transform="translate(-212.968 -213.047)" fill="#233313"/>
      <path id="Trazado_246010" data-name="Trazado 246010" d="M611.753,608.472a2.337,2.337,0,0,1-.627.05c-.339-.02-.617-.08-.617-.13s.279-.07.627-.049S611.753,608.422,611.753,608.472Z" transform="translate(-213.333 -212.574)" fill="#233313"/>
      <path id="Trazado_246011" data-name="Trazado 246011" d="M611.359,606.137a3.207,3.207,0,0,1-.548.558c-.328.269-.627.458-.657.419s.209-.289.548-.558S611.329,606.1,611.359,606.137Z" transform="translate(-213.209 -211.803)" fill="#233313"/>
      <path id="Trazado_246012" data-name="Trazado 246012" d="M610.683,604.7a2.249,2.249,0,0,1-.518.737,1.555,1.555,0,0,1-.777.458c-.03-.05.3-.269.647-.588s.6-.627.647-.6Z" transform="translate(-212.941 -211.301)" fill="#233313"/>
      <path id="Trazado_246013" data-name="Trazado 246013" d="M608.237,609.237a3.661,3.661,0,0,1-.747.588,5.154,5.154,0,0,1-.936.458,2.612,2.612,0,0,1-.608.169.579.579,0,0,1-.368-.09.367.367,0,0,1-.12-.389,1.742,1.742,0,0,1,2.012-.936,1.64,1.64,0,0,1,.638.309c.129.1.189.179.179.189a2.524,2.524,0,0,0-.847-.369,1.666,1.666,0,0,0-.966.09,1.491,1.491,0,0,0-.847.767c-.049.179.11.289.3.259a3.611,3.611,0,0,0,.558-.15,6.388,6.388,0,0,0,.926-.409c.508-.279.8-.5.817-.478Z" transform="translate(-211.561 -212.801)" fill="#233313"/>
      <path id="Trazado_246014" data-name="Trazado 246014" d="M609.089,608.562a1.074,1.074,0,0,1-.5-.448,1.6,1.6,0,0,1-.229-.707.965.965,0,0,1,.319-.877.39.39,0,0,1,.508.159,1.079,1.079,0,0,1,.14.438,2.534,2.534,0,0,1,0,.727,1.253,1.253,0,0,1-.19.638c-.029,0,.04-.249.06-.647a4.485,4.485,0,0,0-.04-.7c-.02-.239-.179-.578-.388-.468a.837.837,0,0,0-.239.707,1.591,1.591,0,0,0,.169.657A3.514,3.514,0,0,0,609.089,608.562Z" transform="translate(-212.582 -211.926)" fill="#233313"/>
      <path id="Trazado_246015" data-name="Trazado 246015" d="M626.628,593.14a5.593,5.593,0,0,0-.837.707,4.709,4.709,0,0,0-1.265,2.261,4.805,4.805,0,0,0,.14,2.58c.219.638.468.986.438,1.006a1.23,1.23,0,0,1-.189-.239,3.972,3.972,0,0,1-.369-.727,4.523,4.523,0,0,1,1.165-4.98,3.774,3.774,0,0,1,.657-.488.9.9,0,0,1,.269-.129Z" transform="translate(-218.139 -207.251)" fill="#233313"/>
      <path id="Trazado_246016" data-name="Trazado 246016" d="M620.161,587.154s.926,1.006,1.992,2.311a25.019,25.019,0,0,1,1.853,2.421,27.24,27.24,0,0,1-1.992-2.311A24.8,24.8,0,0,1,620.161,587.154Z" transform="translate(-216.712 -205.16)" fill="#233313"/>
      <path id="Trazado_246017" data-name="Trazado 246017" d="M620.166,603.376a12.218,12.218,0,0,1-1.564,1.514,8.11,8.11,0,0,1-1.813,1.205c-.03-.04.767-.6,1.693-1.355s1.644-1.4,1.683-1.375Z" transform="translate(-215.532 -210.834)" fill="#233313"/>
      <path id="Trazado_246018" data-name="Trazado 246018" d="M625.457,600.608c.05,0,.07.209.13.448s.139.428.1.448-.209-.139-.269-.408,0-.5.05-.488Z" transform="translate(-218.541 -209.869)" fill="#233313"/>
      <path id="Trazado_246019" data-name="Trazado 246019" d="M625.436,597.906a1.014,1.014,0,0,1,.049.4c-.02.219-.079.389-.129.389s-.07-.189-.05-.408.08-.389.13-.389Z" transform="translate(-218.51 -208.92)" fill="#233313"/>
      <path id="Trazado_246020" data-name="Trazado 246020" d="M626.528,595.663s-.129.169-.259.359-.179.388-.229.378-.079-.239.08-.478.389-.309.408-.268Z" transform="translate(-218.756 -208.131)" fill="#233313"/>
      <path id="Trazado_246021" data-name="Trazado 246021" d="M627.745,594.246a.462.462,0,0,1-.04.249c-.07.109-.16.189-.2.159s-.02-.14.04-.249S627.705,594.216,627.745,594.246Z" transform="translate(-219.275 -207.64)" fill="#233313"/>
      <g id="Grupo_244291" data-name="Grupo 244291" transform="translate(395.351 384.773)" opacity="0.3">
        <path id="Trazado_246022" data-name="Trazado 246022" d="M620.582,592.246,608.8,601.24l-1.1-1.414,12.381-8.4Z" transform="translate(-607.703 -591.429)"/>
      </g>
      <path id="Trazado_246023" data-name="Trazado 246023" d="M522.9,613.541l.02-7.918,14.841-.05.09,11.594-.917.06c-4.094.239-20.837.946-23.576.12C510.3,616.43,522.9,613.541,522.9,613.541Z" transform="translate(-179.163 -211.607)" fill="#425c29"/>
      <g id="Grupo_244292" data-name="Grupo 244292" transform="translate(333.669 403.558)" opacity="0.4">
        <path id="Trazado_246024" data-name="Trazado 246024" d="M516.719,620.33s-4.413,1.295-3.865,2.012,17.5.657,24.971-.03l-.03-.329-19.762.249s-.458-1.873-1.325-1.9Z" transform="translate(-512.807 -620.33)" fill="#fff"/>
      </g>
      <path id="Trazado_246025" data-name="Trazado 246025" d="M538.048,622.853a1.914,1.914,0,0,1-.259.03c-.219.01-.458.03-.737.049-.736.03-1.633.08-2.7.129-2.281.09-5.429.179-8.9.2s-6.634-.04-8.9-.11c-1.066-.04-1.962-.07-2.7-.1-.269-.01-.508-.03-.737-.04a.933.933,0,0,1-.259-.03s.09,0,.259-.01h.737c.737.01,1.633.03,2.7.04,2.281.04,5.428.07,8.9.049s6.624-.079,8.9-.139c1.065-.03,1.962-.05,2.7-.07.269,0,.518,0,.737-.01h.259Z" transform="translate(-179.152 -217.652)" fill="#233313"/>
      <path id="Trazado_246026" data-name="Trazado 246026" d="M520.09,622.378a5.627,5.627,0,0,0-.508-1.285,5.571,5.571,0,0,0-.926-1.026,1.947,1.947,0,0,1,1.076.936,2.042,2.042,0,0,1,.359,1.384Z" transform="translate(-181.184 -216.678)" fill="#233313"/>
      <path id="Trazado_246027" data-name="Trazado 246027" d="M527.163,619.511a3.264,3.264,0,0,1-.468-.568c-.219-.339-.359-.637-.319-.667s.25.229.469.567S527.2,619.481,527.163,619.511Z" transform="translate(-183.884 -216.052)" fill="#233313"/>
      <path id="Trazado_246028" data-name="Trazado 246028" d="M528.923,618.747a2.312,2.312,0,0,1-.528-.348c-.259-.229-.439-.449-.409-.478s.269.12.529.349S528.953,618.718,528.923,618.747Z" transform="translate(-184.449 -215.927)" fill="#233313"/>
      <path id="Trazado_246029" data-name="Trazado 246029" d="M529.757,616.992a3.13,3.13,0,0,1-.777.1,1.84,1.84,0,0,1-.777-.08,1.675,1.675,0,0,1,.777-.1A1.86,1.86,0,0,1,529.757,616.992Z" transform="translate(-184.526 -215.576)" fill="#233313"/>
      <path id="Trazado_246030" data-name="Trazado 246030" d="M530.043,615.5a2.142,2.142,0,0,1-.867.259,1.5,1.5,0,0,1-.9-.12,5.008,5.008,0,0,1,.876-.06,4.646,4.646,0,0,1,.877-.08Z" transform="translate(-184.553 -215.075)" fill="#233313"/>
      <path id="Trazado_246031" data-name="Trazado 246031" d="M525.3,617.47a3.467,3.467,0,0,1-.956,0,5.235,5.235,0,0,1-1.016-.219,2.562,2.562,0,0,1-.577-.239.528.528,0,0,1-.239-.3.385.385,0,0,1,.139-.378,1.744,1.744,0,0,1,2.162.5,1.889,1.889,0,0,1,.318.638.579.579,0,0,1,.03.259,2.574,2.574,0,0,0-.438-.807,1.762,1.762,0,0,0-.817-.528,1.5,1.5,0,0,0-1.135.079c-.15.11-.09.289.08.389a3.22,3.22,0,0,0,.538.229,6.858,6.858,0,0,0,.986.25c.568.1.937.1.937.129Z" transform="translate(-182.531 -215.306)" fill="#233313"/>
      <path id="Trazado_246032" data-name="Trazado 246032" d="M526.361,617.269a1,1,0,0,1-.109-.657,1.542,1.542,0,0,1,.259-.7.949.949,0,0,1,.787-.487.388.388,0,0,1,.3.438,1.1,1.1,0,0,1-.16.428,2.814,2.814,0,0,1-.448.577,1.414,1.414,0,0,1-.548.389c-.02-.02.189-.169.449-.478a3.245,3.245,0,0,0,.4-.578c.129-.2.219-.568-.02-.608-.239-.02-.478.219-.628.408a1.652,1.652,0,0,0-.268.617A3.311,3.311,0,0,0,526.361,617.269Z" transform="translate(-183.84 -215.055)" fill="#233313"/>
      <path id="Trazado_246033" data-name="Trazado 246033" d="M548.3,616.567a5.692,5.692,0,0,0-1.1.04,4.638,4.638,0,0,0-3.875,3.117c-.219.638-.239,1.066-.279,1.056a.778.778,0,0,1,0-.3,3.571,3.571,0,0,1,.159-.8,4.587,4.587,0,0,1,1.494-2.221,4.65,4.65,0,0,1,2.49-.986,4.1,4.1,0,0,1,.816.019A.9.9,0,0,1,548.3,616.567Z" transform="translate(-189.717 -215.419)" fill="#233313"/>
      <path id="Trazado_246034" data-name="Trazado 246034" d="M548.693,607.136s.109,1.365.139,3.048a25.212,25.212,0,0,1-.04,3.048,26.509,26.509,0,0,1-.14-3.048A25.167,25.167,0,0,1,548.693,607.136Z" transform="translate(-191.679 -212.154)" fill="#233313"/>
      <path id="Trazado_246035" data-name="Trazado 246035" d="M537.807,621.009a12.165,12.165,0,0,1-2.161.229,8.077,8.077,0,0,1-2.172-.169c0-.05.976,0,2.172-.02s2.161-.1,2.172-.04Z" transform="translate(-186.371 -217.002)" fill="#233313"/>
      <path id="Trazado_246036" data-name="Trazado 246036" d="M544.388,621s-.08.209-.179.428-.15.419-.2.419-.08-.239.04-.488S544.358,620.972,544.388,621Z" transform="translate(-190.043 -217.006)" fill="#233313"/>
      <path id="Trazado_246037" data-name="Trazado 246037" d="M545.985,618.885a1.021,1.021,0,0,1-.209.348c-.15.159-.309.259-.339.219s.06-.189.209-.348S545.955,618.845,545.985,618.885Z" transform="translate(-190.555 -216.263)" fill="#233313"/>
      <path id="Trazado_246038" data-name="Trazado 246038" d="M548.252,617.882c-.01.05-.209.05-.428.129s-.378.2-.408.16.08-.239.359-.329.5,0,.488.04Z" transform="translate(-191.248 -215.888)" fill="#233313"/>
      <path id="Trazado_246039" data-name="Trazado 246039" d="M550.18,617.444a.453.453,0,0,1-.19.17c-.119.05-.239.05-.259,0s.07-.12.189-.17S550.16,617.395,550.18,617.444Z" transform="translate(-192.06 -215.749)" fill="#233313"/>
      <g id="Grupo_244293" data-name="Grupo 244293" transform="translate(343.727 398.678)" opacity="0.3">
        <path id="Trazado_246040" data-name="Trazado 246040" d="M543.24,614.694l-14.96.02.02-1.793,14.891-.1Z" transform="translate(-528.28 -612.822)"/>
      </g>
      <path id="Trazado_246041" data-name="Trazado 246041" d="M557.775,403.916l-5.946,17.9c-1.6,4.831-5.827,5.658-10.917,5.658H507.853v-7.421l30.2-4.313,7.2-18.387,12.52,6.554Z" transform="translate(-177.404 -138.729)" fill="#b78876"/>
      <path id="Trazado_246042" data-name="Trazado 246042" d="M493.367,426.415l-2.62-1.245s-2.829-5.468-3.476-5.249-.837,1.823.3,4.333l-3.486-1s-7.55,3.486-7.221,3.964a1.745,1.745,0,0,0,2.6.737c1.644-.837,3.805-1.833,3.805-1.833l4.074,1.165-5.249.668-4.941,4.492a2.417,2.417,0,0,0,3.018-.07l12.819,2.759,4.014.229v-7.421l-3.635-1.544Z" transform="translate(-166.553 -146.626)" fill="#b78876"/>
      <path id="Trazado_246043" data-name="Trazado 246043" d="M481.952,437.7c.05.04.289-.339.757-.847a3.624,3.624,0,0,1,.937-.717,3.71,3.71,0,0,1,1.384-.359,18.8,18.8,0,0,0,3.845-.657,18.653,18.653,0,0,0-3.895.259,3.71,3.71,0,0,0-1.524.439,3.765,3.765,0,0,0-.966.856c-.438.588-.578,1.006-.538,1.036Z" transform="translate(-168.336 -151.932)" fill="#aa6550"/>
      <path id="Trazado_246044" data-name="Trazado 246044" d="M485.009,439.379a.573.573,0,0,1,.448-.339c.369-.07.946-.139,1.554-.2a13.772,13.772,0,0,0,2.251-.229,4.467,4.467,0,0,0-2.291-.17,6.948,6.948,0,0,0-1.613.329.653.653,0,0,0-.389.4C484.938,439.309,484.979,439.379,485.009,439.379Z" transform="translate(-169.39 -153.095)" fill="#aa6550"/>
      <path id="Trazado_246045" data-name="Trazado 246045" d="M578.906,381.935l-2.539,8.616-16.136-7.3c.578-1.8,3.247-9.831,8.357-22.581a21.9,21.9,0,0,1,16.723-13.476,95.776,95.776,0,0,1,15.449-1.514c9.044.1,22.361,5.757,24.154,14.622,1.365,6.774.05,18.726.05,33.249l-1.186,27.75-46.365,1.574,1.484-40.917Z" transform="translate(-195.736 -120.642)" fill="#425c29"/>
      <g id="Grupo_244294" data-name="Grupo 244294" transform="translate(394.803 265.957)" opacity="0.3">
        <path id="Trazado_246046" data-name="Trazado 246046" d="M641.234,409.15c-5.637,1.156-11.435,0-17.181-.348-3.487-.209-7.351-.588-10.11,1.554-2.181,1.7-3.068,4.552-3.7,7.251-2.4,10.28-2.839,17.162-3.387,27.7L634.77,447Z" transform="translate(-606.86 -408.635)"/>
      </g>
      <path id="Trazado_246047" data-name="Trazado 246047" d="M587.139,355.111a6.384,6.384,0,0,1,1.235.369,6.486,6.486,0,0,1,2.669,2.161,8.934,8.934,0,0,1,1.593,4.831,29.81,29.81,0,0,1-.487,6.354,107.65,107.65,0,0,1-2.59,11.365c-.378,1.394-.7,2.54-.936,3.416a7.366,7.366,0,0,0-.3,1.265,7.542,7.542,0,0,0,.448-1.225c.259-.8.627-1.952,1.056-3.377a88.417,88.417,0,0,0,2.709-11.385,29.141,29.141,0,0,0,.458-6.444,9.134,9.134,0,0,0-1.733-4.971,6.354,6.354,0,0,0-2.839-2.142,4.813,4.813,0,0,0-.946-.219C587.259,355.092,587.139,355.092,587.139,355.111Z" transform="translate(-205.154 -123.939)" fill="#233313"/>
      <path id="Trazado_246048" data-name="Trazado 246048" d="M561.006,400.08s.837.558,2.271,1.3,3.437,1.743,5.688,2.759,4.323,1.862,5.827,2.44a15.323,15.323,0,0,0,2.48.837,20.042,20.042,0,0,0-2.37-1.106c-1.484-.647-3.526-1.534-5.777-2.54s-4.263-1.962-5.727-2.64a17.5,17.5,0,0,0-2.4-1.046Z" transform="translate(-196.004 -139.683)" fill="#233313"/>
      <path id="Trazado_246049" data-name="Trazado 246049" d="M544.989,467.658a16.524,16.524,0,0,0-6.744,22.132l40.35,69.285,18.616-11.246-31.336-62.552,22.709-14.821" transform="translate(-187.387 -163.336)" fill="#233313"/>
      <path id="Trazado_246050" data-name="Trazado 246050" d="M586.81,462.371l-55.39,1.962a16.522,16.522,0,0,0-15.937,16.774l2.3,79.116,23.3-.049-.777-74.8,46.516-1.225V462.371Z" transform="translate(-180.074 -161.486)" fill="#233313"/>
      <path id="Trazado_246051" data-name="Trazado 246051" d="M553.65,501.9s.04.249.07.727c.02.528.049,1.225.089,2.1.07,1.823.14,4.462.209,7.729.14,6.524.229,15.539.279,25.489.05,9.931.1,18.915.13,25.489.019,3.217.03,5.847.04,7.729v2.1a3.1,3.1,0,0,1-.04.737,3.744,3.744,0,0,1-.07-.727c-.019-.528-.049-1.225-.09-2.1-.07-1.823-.139-4.463-.209-7.73-.14-6.524-.229-15.538-.279-25.5-.049-9.931-.1-18.915-.129-25.489-.02-3.217-.03-5.847-.04-7.729v-2.1a3.089,3.089,0,0,1,.04-.737Z" transform="translate(-193.419 -175.318)" fill="#233313"/>
      <path id="Trazado_246052" data-name="Trazado 246052" d="M623.952,385.124H607.2a12.213,12.213,0,0,0-12.212,12.211V455.8H561.5a8.455,8.455,0,0,0-8.456,8.456H629.49v-.05a6.98,6.98,0,0,0,6.683-6.962V397.335a12.213,12.213,0,0,0-12.211-12.211Z" transform="translate(-193.22 -134.449)" fill="#233313"/>
      <path id="Trazado_246053" data-name="Trazado 246053" d="M624.926,388.1c.14,0,.259,17.182.259,38.378s-.12,38.378-.259,38.378-.259-17.181-.259-38.378S624.787,388.1,624.926,388.1Z" transform="translate(-218.289 -135.489)" fill="#233313"/>
      <path id="Trazado_246054" data-name="Trazado 246054" d="M607.738,568.27V506.933H602.29V568.27c-3.327,6.554-11.146,11-20.668,14.622H630.2c-9.861-4-18.766-7.082-22.451-14.622Z" transform="translate(-203.223 -177.083)" fill="#233313"/>
      <path id="Trazado_246055" data-name="Trazado 246055" d="M141.911,510.72a3.289,3.289,0,0,1,.149-.369c.119-.259.279-.6.488-1.036a25.443,25.443,0,0,0,1.435-4.164,36.757,36.757,0,0,0-.12-16.086,85.519,85.519,0,0,0-2.988-10.807c-1.265-3.835-2.729-7.908-3.925-12.3a47.662,47.662,0,0,1-1.942-14.144c.179-5,1.663-10,3.3-14.971s3.307-9.851,3.815-14.741a22.52,22.52,0,0,0-2.7-13.616c-2.151-3.974-4.871-7.37-6.9-10.887a37.837,37.837,0,0,1-4.144-10.468,38.763,38.763,0,0,1-.259-16.216,29.885,29.885,0,0,1,1.693-5.727s-.03.129-.1.379c-.09.268-.2.637-.339,1.1a42.5,42.5,0,0,0-1.056,4.283,39.4,39.4,0,0,0,.418,16.1,37.485,37.485,0,0,0,4.164,10.339c2.021,3.476,4.751,6.863,6.952,10.877a22.951,22.951,0,0,1,2.788,13.895c-.508,4.98-2.2,9.881-3.825,14.85s-3.087,9.911-3.277,14.832a47.266,47.266,0,0,0,1.893,14c1.175,4.373,2.629,8.447,3.875,12.291A86.76,86.76,0,0,1,144.241,489a36.387,36.387,0,0,1-.04,16.206,24.517,24.517,0,0,1-1.534,4.164c-.229.428-.408.766-.538,1.026a1.8,1.8,0,0,1-.2.339Z" transform="translate(-44.237 -127.471)" fill="#233313"/>
      <path id="Trazado_246056" data-name="Trazado 246056" d="M138.9,409.055s-4.124-13.188,3.277-20.9a.461.461,0,0,1,.787.229c.4,2.181.887,8.8-4.054,20.678Z" transform="translate(-47.866 -135.461)" fill="#425c29"/>
      <path id="Trazado_246057" data-name="Trazado 246057" d="M141.9,394.992a12.3,12.3,0,0,1-.279,2.43c-.269,1.674-.588,3.646-.937,5.817s-.657,4.144-.926,5.817a13.369,13.369,0,0,1-.438,2.41,10.139,10.139,0,0,1,.07-2.45c.14-1.5.4-3.576.777-5.857s.767-4.323,1.1-5.8A10.566,10.566,0,0,1,141.9,395Z" transform="translate(-48.401 -137.903)" fill="#233313"/>
      <path id="Trazado_246058" data-name="Trazado 246058" d="M146.96,459.088s2.52-13.576,12.67-16.943a.458.458,0,0,1,.588.567C159.55,444.825,156.881,450.911,146.96,459.088Z" transform="translate(-51.09 -154.398)" fill="#425c29"/>
      <path id="Trazado_246059" data-name="Trazado 246059" d="M156.83,447.553a11.37,11.37,0,0,1-1.385,2.022c-1.026,1.355-2.221,2.948-3.546,4.7s-2.52,3.347-3.536,4.711a12.455,12.455,0,0,1-1.514,1.923,9.7,9.7,0,0,1,1.215-2.132c.827-1.265,2.032-2.978,3.427-4.811s2.7-3.466,3.675-4.612a10.369,10.369,0,0,1,1.674-1.793Z" transform="translate(-51.049 -156.299)" fill="#233313"/>
      <path id="Trazado_246060" data-name="Trazado 246060" d="M142.69,509.875s-1.534-13.725,7.2-19.891a.458.458,0,0,1,.727.369C150.589,492.564,149.812,499.168,142.69,509.875Z" transform="translate(-49.559 -171.12)" fill="#425c29"/>
      <path id="Trazado_246061" data-name="Trazado 246061" d="M148.269,496.415a11.767,11.767,0,0,1-.737,2.331c-.588,1.594-1.275,3.466-2.032,5.528s-1.434,3.934-2.012,5.528a14.323,14.323,0,0,1-.887,2.281,10.435,10.435,0,0,1,.538-2.391c.418-1.455,1.075-3.437,1.882-5.6s1.583-4.094,2.181-5.489a10.733,10.733,0,0,1,1.076-2.2Z" transform="translate(-49.56 -173.398)" fill="#233313"/>
      <path id="Trazado_246062" data-name="Trazado 246062" d="M154.479,562.753s-1.035-13.775,7.909-19.622a.46.46,0,0,1,.717.4c-.11,2.211-1.126,8.785-8.616,19.224Z" transform="translate(-53.709 -189.724)" fill="#425c29"/>
      <path id="Trazado_246063" data-name="Trazado 246063" d="M160.582,549.472a11.887,11.887,0,0,1-.817,2.311c-.637,1.574-1.394,3.416-2.231,5.448l-2.211,5.458a12.966,12.966,0,0,1-.967,2.241,10.77,10.77,0,0,1,.628-2.371c.468-1.435,1.2-3.4,2.082-5.528s1.723-4.034,2.371-5.4a10.739,10.739,0,0,1,1.155-2.162Z" transform="translate(-53.675 -191.971)" fill="#233313"/>
      <path id="Trazado_246064" data-name="Trazado 246064" d="M123.675,393.107s-12.241-6.395-12.481-17.082a.462.462,0,0,1,.717-.4c1.823,1.255,6.863,5.587,11.773,17.471Z" transform="translate(-38.571 -131.097)" fill="#425c29"/>
      <path id="Trazado_246065" data-name="Trazado 246065" d="M115.1,381.935a12.34,12.34,0,0,1,1.524,1.913c1,1.374,2.161,2.988,3.457,4.771s2.47,3.386,3.466,4.761a12.935,12.935,0,0,1,1.395,2.012,10.774,10.774,0,0,1-1.683-1.783c-.967-1.165-2.251-2.809-3.6-4.681s-2.52-3.6-3.337-4.871A11.143,11.143,0,0,1,115.1,381.935Z" transform="translate(-39.936 -133.332)" fill="#233313"/>
      <path id="Trazado_246066" data-name="Trazado 246066" d="M143.354,437.083s-12.61-5.637-13.5-16.3a.457.457,0,0,1,.687-.438c1.892,1.145,7.192,5.169,12.809,16.724Z" transform="translate(-45.103 -146.755)" fill="#425c29"/>
      <path id="Trazado_246067" data-name="Trazado 246067" d="M134.1,426.466a11.912,11.912,0,0,1,1.644,1.823c1.076,1.314,2.341,2.848,3.735,4.552s2.67,3.237,3.745,4.542a13.169,13.169,0,0,1,1.514,1.923,9.878,9.878,0,0,1-1.783-1.674c-1.035-1.1-2.421-2.669-3.875-4.452s-2.729-3.437-3.626-4.662a11.446,11.446,0,0,1-1.355-2.042Z" transform="translate(-46.588 -148.918)" fill="#233313"/>
      <path id="Trazado_246068" data-name="Trazado 246068" d="M136.41,483.429s-8.656-10.767-4.592-20.648a.461.461,0,0,1,.817-.079c1.165,1.882,4.044,7.869,3.785,20.728Z" transform="translate(-45.41 -161.527)" fill="#425c29"/>
      <path id="Trazado_246069" data-name="Trazado 246069" d="M133.714,469.681a12.294,12.294,0,0,1,.628,2.361c.358,1.654.786,3.606,1.255,5.757s.907,4.094,1.266,5.747a13.34,13.34,0,0,1,.478,2.4,10.594,10.594,0,0,1-.827-2.311c-.428-1.455-.936-3.476-1.414-5.727s-.866-4.3-1.106-5.8a10.875,10.875,0,0,1-.268-2.43Z" transform="translate(-46.449 -164.044)" fill="#233313"/>
      <path id="Trazado_246070" data-name="Trazado 246070" d="M145.543,542.717s-12.51-5.847-13.217-16.514a.459.459,0,0,1,.7-.428c1.873,1.175,7.1,5.289,12.531,16.943Z" transform="translate(-45.967 -183.652)" fill="#425c29"/>
      <path id="Trazado_246071" data-name="Trazado 246071" d="M136.47,531.936a11.509,11.509,0,0,1,1.6,1.842c1.056,1.335,2.291,2.888,3.655,4.612s2.61,3.277,3.666,4.6a14.6,14.6,0,0,1,1.484,1.942,9.864,9.864,0,0,1-1.763-1.7c-1.016-1.115-2.371-2.709-3.8-4.522s-2.67-3.487-3.546-4.722a10.671,10.671,0,0,1-1.315-2.062Z" transform="translate(-47.413 -185.83)" fill="#233313"/>
      <path id="Trazado_246072" data-name="Trazado 246072" d="M178.142,468.333a1.746,1.746,0,0,1,.02.309c0,.239-.01.528-.02.886-.04.827-.09,1.953-.15,3.347-.159,2.948-.389,7.052-.657,11.963v.03c-.9,5-3.446,10.538-6.863,15.917-2.51,3.964-5.14,7.56-7.4,10.917a76.327,76.327,0,0,0-5.548,9.173,38.644,38.644,0,0,0-2.6,6.733c-.219.827-.389,1.464-.478,1.912a4.582,4.582,0,0,1-.179.668,3.2,3.2,0,0,1,.079-.687c.06-.449.2-1.106.389-1.943a35.483,35.483,0,0,1,2.46-6.843,72.919,72.919,0,0,1,5.488-9.283c2.251-3.377,4.871-6.982,7.361-10.926,3.4-5.349,5.936-10.807,6.863-15.728v.03c.339-4.91.627-9,.837-11.952.109-1.395.2-2.51.269-3.337.04-.348.06-.638.09-.876a1.021,1.021,0,0,1,.049-.3Z" transform="translate(-53.645 -163.572)" fill="#233313"/>
      <path id="Trazado_246073" data-name="Trazado 246073" d="M178.049,505.2s5.3-12.759-1.365-21.116a.454.454,0,0,0-.8.16c-.588,2.131-1.683,8.695,2.172,20.956Z" transform="translate(-61.002 -169.024)" fill="#425c29"/>
      <path id="Trazado_246074" data-name="Trazado 246074" d="M178.028,491.022a11.489,11.489,0,0,1,.419,2.411c.189,1.494.4,3.576.558,5.877s.239,4.382.239,5.9a9.84,9.84,0,0,1-.149,2.45,12.692,12.692,0,0,1-.219-2.44c-.11-1.693-.249-3.676-.389-5.877s-.289-4.183-.408-5.877a12.923,12.923,0,0,1-.06-2.45Z" transform="translate(-61.948 -171.51)" fill="#233313"/>
      <g id="Grupo_244295" data-name="Grupo 244295" transform="translate(114.279 314.885)" opacity="0.3">
        <path id="Trazado_246075" data-name="Trazado 246075" d="M178.049,505.2s5.3-12.759-1.365-21.116a.454.454,0,0,0-.8.16c-.588,2.131-1.683,8.695,2.172,20.956Z" transform="translate(-175.281 -483.908)"/>
      </g>
      <path id="Trazado_246076" data-name="Trazado 246076" d="M152.061,552.607s4.243-13.148-3.078-20.927a.459.459,0,0,0-.787.219c-.418,2.172-.976,8.8,3.865,20.718Z" transform="translate(-51.43 -185.693)" fill="#425c29"/>
      <path id="Trazado_246077" data-name="Trazado 246077" d="M150.713,538.511a11.122,11.122,0,0,1,.617,2.371c.309,1.474.687,3.526,1.035,5.807s.6,4.352.718,5.857a9.932,9.932,0,0,1,.049,2.451,13.44,13.44,0,0,1-.418-2.41c-.249-1.674-.548-3.646-.866-5.827s-.628-4.143-.887-5.827a12.132,12.132,0,0,1-.259-2.43Z" transform="translate(-52.392 -188.131)" fill="#233313"/>
      <g id="Grupo_244296" data-name="Grupo 244296" transform="translate(96.502 345.84)" opacity="0.3">
        <path id="Trazado_246078" data-name="Trazado 246078" d="M152.061,552.607s4.243-13.148-3.078-20.927a.459.459,0,0,0-.787.219c-.418,2.172-.976,8.8,3.865,20.718Z" transform="translate(-147.932 -531.533)"/>
      </g>
      <path id="Trazado_246079" data-name="Trazado 246079" d="M189.928,482.472s11.315-7.918,10.17-18.546a.458.458,0,0,0-.757-.3C197.7,465.112,193.255,470.062,189.928,482.472Z" transform="translate(-66.129 -161.885)" fill="#425c29"/>
      <g id="Grupo_244297" data-name="Grupo 244297" transform="translate(123.799 301.627)" opacity="0.3">
        <path id="Trazado_246080" data-name="Trazado 246080" d="M189.928,482.472s11.315-7.918,10.17-18.546a.458.458,0,0,0-.757-.3C197.7,465.112,193.255,470.062,189.928,482.472Z" transform="translate(-189.928 -463.512)"/>
      </g>
      <path id="Trazado_246081" data-name="Trazado 246081" d="M198.1,470.247a11.857,11.857,0,0,1-.936,2.261c-.647,1.364-1.584,3.227-2.679,5.259s-2.151,3.834-2.959,5.11a10.541,10.541,0,0,1-1.434,1.982,13.025,13.025,0,0,1,1.125-2.171c.817-1.485,1.763-3.238,2.819-5.17s2-3.685,2.809-5.179a11.68,11.68,0,0,1,1.265-2.092Z" transform="translate(-66.185 -164.242)" fill="#233313"/>
      <path id="Trazado_246082" data-name="Trazado 246082" d="M161.3,537.02s13.646-2.131,17.3-12.172a.461.461,0,0,0-.548-.607C175.925,524.848,169.759,527.338,161.3,537.02Z" transform="translate(-56.11 -183.134)" fill="#425c29"/>
      <g id="Grupo_244298" data-name="Grupo 244298" transform="translate(105.193 341.089)" opacity="0.3">
        <path id="Trazado_246083" data-name="Trazado 246083" d="M161.3,537.02s13.646-2.131,17.3-12.172a.461.461,0,0,0-.548-.607C175.925,524.848,169.759,527.338,161.3,537.02Z" transform="translate(-161.303 -524.224)"/>
      </g>
      <path id="Trazado_246084" data-name="Trazado 246084" d="M175.061,529.273a10.716,10.716,0,0,1-1.843,1.613c-1.185.946-2.839,2.2-4.721,3.546s-3.616,2.49-4.911,3.286a10.091,10.091,0,0,1-2.161,1.146,12.309,12.309,0,0,1,1.962-1.455c1.384-.976,3.008-2.131,4.811-3.4L173,530.6A11.467,11.467,0,0,1,175.061,529.273Z" transform="translate(-56.152 -184.9)" fill="#233313"/>
      <path id="Trazado_246085" data-name="Trazado 246085" d="M139.129,582.542l-3.984,26.794h24.812l-3.217-26.794Z" transform="translate(-46.954 -203.546)" fill="#233313"/>
      <path id="Trazado_246086" data-name="Trazado 246086" d="M159.13,595.182a97.858,97.858,0,0,1-10,.259,97.848,97.848,0,0,1-10-.259,98.262,98.262,0,0,1,10-.259A98.273,98.273,0,0,1,159.13,595.182Z" transform="translate(-48.349 -207.879)" fill="#233313"/>
      <path id="Trazado_246087" data-name="Trazado 246087" d="M159.527,598.461c0,.139-4.622.259-10.329.259s-10.329-.12-10.329-.259,4.621-.259,10.329-.259S159.527,598.322,159.527,598.461Z" transform="translate(-48.258 -209.027)" fill="#233313"/>
    </g>
  </g>
</svg>
