<svg xmlns="http://www.w3.org/2000/svg" width="820" height="480" viewBox="0 0 820 480">
  <g id="Grupo_1070468" data-name="Grupo 1070468" transform="translate(-390 -7315)">
    <g id="Grupo_1016228" data-name="Grupo 1016228">
      <g id="Grupo_1016205" data-name="Grupo 1016205" transform="translate(0 366)">
        <path id="Trazado_815362" data-name="Trazado 815362" d="M18,0H231a18,18,0,0,1,18,18V50a18,18,0,0,1-18,18H18A18,18,0,0,1,0,50V18A18,18,0,0,1,18,0Z" transform="translate(675.164 6969.835)" fill="#dbf9bd"/>
        <path id="Trazado_815363" data-name="Trazado 815363" d="M14,0H235a14,14,0,0,1,14,14V68.842a14,14,0,0,1-14,14H14a14,14,0,0,1-14-14V14A14,14,0,0,1,14,0Z" transform="translate(675.164 7075.835)" fill="#fffad0"/>
        <path id="Trazado_815364" data-name="Trazado 815364" d="M13,0H203a13,13,0,0,1,13,13V69.842a13,13,0,0,1-13,13H13a13,13,0,0,1-13-13V13A13,13,0,0,1,13,0Z" transform="translate(441 7075.835)" fill="#fffad0"/>
        <path id="Trazado_815365" data-name="Trazado 815365" d="M10,0H206a10,10,0,0,1,10,10V72.842a10,10,0,0,1-10,10H10a10,10,0,0,1-10-10V10A10,10,0,0,1,10,0Z" transform="translate(942.328 7075.835)" fill="#fffad0"/>
        <path id="Trazado_815366" data-name="Trazado 815366" d="M11,0H205a11,11,0,0,1,11,11V89a11,11,0,0,1-11,11H11A11,11,0,0,1,0,89V11A11,11,0,0,1,11,0Z" transform="translate(704.914 7193.677)" fill="#afc797" opacity="0.14"/>
        <path id="Trazado_815367" data-name="Trazado 815367" d="M18,0H198a18,18,0,0,1,18,18V82a18,18,0,0,1-18,18H18A18,18,0,0,1,0,82V18A18,18,0,0,1,18,0Z" transform="translate(704.914 7328.677)" fill="#afc797" opacity="0.14"/>
        <path id="Trazado_815368" data-name="Trazado 815368" d="M0,0V34" transform="translate(799.5 7037.847)" fill="none" stroke="#1b3f5e" stroke-width="2"/>
        <path id="Trazado_815369" data-name="Trazado 815369" d="M0,0V18" transform="translate(1054.5 7053.847)" fill="none" stroke="#1b3f5e" stroke-width="2"/>
        <path id="Trazado_815370" data-name="Trazado 815370" d="M0,0H17.586" transform="translate(687.5 7242.688)" fill="none" stroke="#1b3f5e" stroke-width="2"/>
        <path id="Trazado_815371" data-name="Trazado 815371" d="M0,0H17.586" transform="translate(687.5 7378.677)" fill="none" stroke="#1b3f5e" stroke-width="2"/>
        <path id="Trazado_815372" data-name="Trazado 815372" d="M0,0V18" transform="translate(546.5 7053.847)" fill="none" stroke="#1b3f5e" stroke-width="2"/>
        <path id="Trazado_815373" data-name="Trazado 815373" d="M0,0V220.012" transform="translate(687.086 7158.677)" fill="none" stroke="#1b3f5e" stroke-width="2"/>
        <path id="Trazado_815374" data-name="Trazado 815374" d="M508,0H0" transform="translate(546.5 7054.847)" fill="none" stroke="#1b3f5e" stroke-width="2"/>
        <path id="Trazado_815375" data-name="Trazado 815375" d="M27.433,11.568H22.582v3.059h5.73V17H19.5V4.2H28.33V6.585H22.582v2.7h4.852Zm4.72-4.078.1,1.116a3.225,3.225,0,0,1,2.716-1.292,2.713,2.713,0,0,1,2.219.888,4.226,4.226,0,0,1,.76,2.672V17H34.974V11a1.6,1.6,0,0,0-.29-1.059A1.342,1.342,0,0,0,33.629,9.6a1.413,1.413,0,0,0-1.292.686V17H29.375V7.49ZM43.034,5.126V7.49H44.6V9.547H43.034V13.9a1.111,1.111,0,0,0,.193.747,1.037,1.037,0,0,0,.765.211,4.345,4.345,0,0,0,.738-.053v2.118a5.466,5.466,0,0,1-1.67.255,3.1,3.1,0,0,1-2.259-.721,2.954,2.954,0,0,1-.729-2.188V9.547H38.859V7.49h1.213V5.126Zm8.481,5.045-.976-.07a1.752,1.752,0,0,0-1.793.879V17H45.785V7.49h2.777l.1,1.222a2.294,2.294,0,0,1,2.083-1.4,2.888,2.888,0,0,1,.826.105Zm5.5,7a4.889,4.889,0,0,1-3.542-1.305,4.507,4.507,0,0,1-1.354-3.4v-.246a5.84,5.84,0,0,1,.541-2.575A3.955,3.955,0,0,1,54.24,7.925,4.763,4.763,0,0,1,56.7,7.314a4.117,4.117,0,0,1,3.164,1.244,4.887,4.887,0,0,1,1.16,3.467v1.151H55.136a2.135,2.135,0,0,0,.694,1.257,2.066,2.066,0,0,0,1.389.457,2.662,2.662,0,0,0,2.2-.984l1.354,1.6A3.784,3.784,0,0,1,59.2,16.723,5.3,5.3,0,0,1,57.017,17.176ZM56.683,9.6q-1.3,0-1.547,1.723h2.988v-.229a1.467,1.467,0,0,0-.36-1.1A1.434,1.434,0,0,0,56.683,9.6Zm9.211,3.876L67.4,7.49h3.12L67.415,17H64.391l-3.1-9.51h3.129ZM74.525,17H71.554V7.49h2.971ZM71.378,5.038A1.322,1.322,0,0,1,71.835,4a1.943,1.943,0,0,1,2.373,0,1.322,1.322,0,0,1,.457,1.037,1.322,1.322,0,0,1-.457,1.037,1.943,1.943,0,0,1-2.373,0A1.322,1.322,0,0,1,71.378,5.038Zm9.949,9.29a.684.684,0,0,0-.4-.606,6.016,6.016,0,0,0-1.5-.475A6.853,6.853,0,0,1,77.6,12.6a3.062,3.062,0,0,1-1.1-.971,2.319,2.319,0,0,1-.378-1.31,2.628,2.628,0,0,1,1.081-2.158,4.453,4.453,0,0,1,2.83-.848,4.934,4.934,0,0,1,3.023.853A2.666,2.666,0,0,1,84.2,10.408H81.231q0-1.143-1.2-1.143a1.194,1.194,0,0,0-.782.259.8.8,0,0,0-.316.646.737.737,0,0,0,.387.642,3.654,3.654,0,0,0,1.235.4,10.671,10.671,0,0,1,1.49.378,2.706,2.706,0,0,1,2.145,2.646,2.491,2.491,0,0,1-1.156,2.118,5.068,5.068,0,0,1-2.993.817,5.172,5.172,0,0,1-2.18-.439,3.645,3.645,0,0,1-1.494-1.2,2.707,2.707,0,0,1-.536-1.591h2.769a1.145,1.145,0,0,0,.439.962,1.808,1.808,0,0,0,1.081.3,1.422,1.422,0,0,0,.91-.246A.787.787,0,0,0,81.328,14.328Zm7.69-9.2V7.49h1.564V9.547H89.018V13.9a1.111,1.111,0,0,0,.193.747,1.037,1.037,0,0,0,.765.211,4.345,4.345,0,0,0,.738-.053v2.118a5.466,5.466,0,0,1-1.67.255,3.1,3.1,0,0,1-2.259-.721,2.954,2.954,0,0,1-.729-2.188V9.547H84.843V7.49h1.213V5.126ZM97.1,17a3.344,3.344,0,0,1-.281-.853,2.754,2.754,0,0,1-2.285,1.028,3.374,3.374,0,0,1-2.285-.813,2.588,2.588,0,0,1-.94-2.043,2.66,2.66,0,0,1,1.143-2.338,5.821,5.821,0,0,1,3.322-.791h.914v-.5q0-1.316-1.134-1.316A.927.927,0,0,0,94.5,10.413H91.541a2.655,2.655,0,0,1,1.173-2.239,4.931,4.931,0,0,1,2.993-.86,4.323,4.323,0,0,1,2.874.888,3.086,3.086,0,0,1,1.081,2.435v4.21a4.311,4.311,0,0,0,.4,2V17ZM95.25,15.066a1.652,1.652,0,0,0,.918-.237,1.487,1.487,0,0,0,.523-.536V12.772H95.83q-1.547,0-1.547,1.389a.848.848,0,0,0,.272.655A.986.986,0,0,0,95.25,15.066Z" transform="translate(703 6991.858)" fill="#12263f"/>
        <path id="Trazado_815376" data-name="Trazado 815376" d="M22.447,11.568H17.6v3.059h5.73V17H14.51V4.2h8.833V6.585H17.6v2.7h4.852Zm6.979,2.76a.684.684,0,0,0-.4-.606,6.016,6.016,0,0,0-1.5-.475A6.853,6.853,0,0,1,25.7,12.6a3.062,3.062,0,0,1-1.1-.971,2.319,2.319,0,0,1-.378-1.31A2.628,2.628,0,0,1,25.3,8.163a4.453,4.453,0,0,1,2.83-.848,4.934,4.934,0,0,1,3.023.853A2.666,2.666,0,0,1,32.3,10.408H29.329q0-1.143-1.2-1.143a1.194,1.194,0,0,0-.782.259.8.8,0,0,0-.316.646.737.737,0,0,0,.387.642,3.654,3.654,0,0,0,1.235.4,10.671,10.671,0,0,1,1.49.378,2.706,2.706,0,0,1,2.145,2.646,2.491,2.491,0,0,1-1.156,2.118,5.068,5.068,0,0,1-2.993.817,5.172,5.172,0,0,1-2.18-.439,3.645,3.645,0,0,1-1.494-1.2,2.707,2.707,0,0,1-.536-1.591h2.769a1.145,1.145,0,0,0,.439.962,1.808,1.808,0,0,0,1.081.3,1.422,1.422,0,0,0,.91-.246A.787.787,0,0,0,29.425,14.328Zm7.69-9.2V7.49H38.68V9.547H37.116V13.9a1.111,1.111,0,0,0,.193.747,1.037,1.037,0,0,0,.765.211,4.345,4.345,0,0,0,.738-.053v2.118a5.466,5.466,0,0,1-1.67.255,3.1,3.1,0,0,1-2.259-.721,2.954,2.954,0,0,1-.729-2.188V9.547H32.941V7.49h1.213V5.126ZM45.6,10.171l-.976-.07a1.752,1.752,0,0,0-1.793.879V17H39.867V7.49h2.777l.1,1.222a2.294,2.294,0,0,1,2.083-1.4,2.888,2.888,0,0,1,.826.105Zm6.732,5.8a3.054,3.054,0,0,1-2.54,1.2,3,3,0,0,1-2.369-.91,3.826,3.826,0,0,1-.8-2.615V7.49h2.962v6.179a1.065,1.065,0,0,0,1.187,1.222,1.548,1.548,0,0,0,1.45-.729V7.49h2.979V17H52.417Zm8.508-1.081a1.317,1.317,0,0,0,.967-.338,1.241,1.241,0,0,0,.334-.945h2.777a3.288,3.288,0,0,1-1.121,2.566,4.168,4.168,0,0,1-2.887,1,4.22,4.22,0,0,1-3.27-1.3,5.125,5.125,0,0,1-1.2-3.6v-.123A5.792,5.792,0,0,1,56.975,9.6a3.872,3.872,0,0,1,1.534-1.7,4.573,4.573,0,0,1,2.373-.593,4.116,4.116,0,0,1,2.944,1.028,3.647,3.647,0,0,1,1.09,2.786H62.138A1.626,1.626,0,0,0,61.778,10a1.244,1.244,0,0,0-.967-.4q-1.151,0-1.345,1.468a10.357,10.357,0,0,0-.062,1.283,4.068,4.068,0,0,0,.343,1.986A1.187,1.187,0,0,0,60.837,14.891Zm8.78-9.765V7.49h1.564V9.547H69.618V13.9a1.111,1.111,0,0,0,.193.747,1.037,1.037,0,0,0,.765.211,4.345,4.345,0,0,0,.738-.053v2.118a5.466,5.466,0,0,1-1.67.255,3.1,3.1,0,0,1-2.259-.721,2.954,2.954,0,0,1-.729-2.188V9.547H65.443V7.49h1.213V5.126Zm8.394,10.846a3.054,3.054,0,0,1-2.54,1.2,3,3,0,0,1-2.369-.91,3.826,3.826,0,0,1-.8-2.615V7.49H75.26v6.179a1.065,1.065,0,0,0,1.187,1.222,1.548,1.548,0,0,0,1.45-.729V7.49h2.979V17H78.1Zm10.239-5.8-.976-.07a1.752,1.752,0,0,0-1.793.879V17H82.52V7.49H85.3l.1,1.222a2.294,2.294,0,0,1,2.083-1.4,2.888,2.888,0,0,1,.826.105ZM94.412,17a3.344,3.344,0,0,1-.281-.853,2.754,2.754,0,0,1-2.285,1.028,3.374,3.374,0,0,1-2.285-.813,2.588,2.588,0,0,1-.94-2.043,2.66,2.66,0,0,1,1.143-2.338,5.821,5.821,0,0,1,3.322-.791H94v-.5q0-1.316-1.134-1.316a.927.927,0,0,0-1.055,1.042H88.848a2.655,2.655,0,0,1,1.173-2.239,4.931,4.931,0,0,1,2.993-.86,4.323,4.323,0,0,1,2.874.888,3.086,3.086,0,0,1,1.081,2.435v4.21a4.311,4.311,0,0,0,.4,2V17Zm-1.854-1.934a1.652,1.652,0,0,0,.918-.237A1.487,1.487,0,0,0,94,14.293V12.772h-.861q-1.547,0-1.547,1.389a.848.848,0,0,0,.272.655A.986.986,0,0,0,92.557,15.066Zm5.678-2.892a5.809,5.809,0,0,1,.976-3.56,3.211,3.211,0,0,1,2.725-1.3,2.731,2.731,0,0,1,2.145,1V3.5h2.971V17h-2.663l-.149-1.02a2.8,2.8,0,0,1-2.32,1.2,3.205,3.205,0,0,1-2.689-1.3A5.993,5.993,0,0,1,98.235,12.175Zm2.962.185q0,2.531,1.477,2.531a1.458,1.458,0,0,0,1.406-.826V10.443a1.419,1.419,0,0,0-1.389-.844q-1.371,0-1.485,2.215ZM114.09,17a3.344,3.344,0,0,1-.281-.853,2.754,2.754,0,0,1-2.285,1.028,3.374,3.374,0,0,1-2.285-.813,2.588,2.588,0,0,1-.94-2.043,2.66,2.66,0,0,1,1.143-2.338,5.821,5.821,0,0,1,3.322-.791h.914v-.5q0-1.316-1.134-1.316a.927.927,0,0,0-1.055,1.042h-2.962A2.655,2.655,0,0,1,109.7,8.175a4.931,4.931,0,0,1,2.993-.86,4.323,4.323,0,0,1,2.874.888,3.086,3.086,0,0,1,1.081,2.435v4.21a4.311,4.311,0,0,0,.4,2V17Zm-1.854-1.934a1.652,1.652,0,0,0,.918-.237,1.487,1.487,0,0,0,.523-.536V12.772h-.861q-1.547,0-1.547,1.389a.848.848,0,0,0,.272.655A.986.986,0,0,0,112.236,15.066Z" transform="translate(483.5 7106.256)" fill="#12263f"/>
        <path id="Trazado_815377" data-name="Trazado 815377" d="M32.22,17H29.152L24.617,9.037V17H21.532V4.2h3.085l4.526,7.963V4.2H32.22Zm1.441-4.843a5.613,5.613,0,0,1,.554-2.536,3.96,3.96,0,0,1,1.591-1.709,4.791,4.791,0,0,1,2.435-.6,4.373,4.373,0,0,1,3.366,1.323,5.076,5.076,0,0,1,1.23,3.6v.105A4.925,4.925,0,0,1,41.6,15.871a4.384,4.384,0,0,1-3.344,1.305A4.434,4.434,0,0,1,35,15.958a4.761,4.761,0,0,1-1.327-3.3Zm2.962.185a3.538,3.538,0,0,0,.413,1.934,1.376,1.376,0,0,0,1.222.615q1.582,0,1.617-2.435v-.3q0-2.558-1.635-2.558-1.485,0-1.608,2.206Zm16.6,4.834a4.889,4.889,0,0,1-3.542-1.305,4.507,4.507,0,0,1-1.354-3.4v-.246a5.84,5.84,0,0,1,.541-2.575,3.955,3.955,0,0,1,1.578-1.727,4.763,4.763,0,0,1,2.461-.611,4.117,4.117,0,0,1,3.164,1.244,4.887,4.887,0,0,1,1.16,3.467v1.151H51.345a2.135,2.135,0,0,0,.694,1.257,2.066,2.066,0,0,0,1.389.457,2.662,2.662,0,0,0,2.2-.984l1.354,1.6a3.784,3.784,0,0,1-1.569,1.217A5.3,5.3,0,0,1,53.226,17.176ZM52.892,9.6q-1.3,0-1.547,1.723h2.988v-.229a1.467,1.467,0,0,0-.36-1.1A1.434,1.434,0,0,0,52.892,9.6ZM63.4,14.328a.684.684,0,0,0-.4-.606,6.016,6.016,0,0,0-1.5-.475,6.853,6.853,0,0,1-1.828-.646,3.062,3.062,0,0,1-1.1-.971,2.319,2.319,0,0,1-.378-1.31,2.628,2.628,0,0,1,1.081-2.158,4.453,4.453,0,0,1,2.83-.848,4.934,4.934,0,0,1,3.023.853,2.666,2.666,0,0,1,1.143,2.241H63.307q0-1.143-1.2-1.143a1.194,1.194,0,0,0-.782.259.8.8,0,0,0-.316.646.737.737,0,0,0,.387.642,3.654,3.654,0,0,0,1.235.4,10.671,10.671,0,0,1,1.49.378A2.706,2.706,0,0,1,66.26,14.24,2.491,2.491,0,0,1,65.1,16.358a5.068,5.068,0,0,1-2.993.817,5.172,5.172,0,0,1-2.18-.439,3.645,3.645,0,0,1-1.494-1.2A2.707,2.707,0,0,1,57.9,13.95H60.67a1.145,1.145,0,0,0,.439.962,1.808,1.808,0,0,0,1.081.3,1.422,1.422,0,0,0,.91-.246A.787.787,0,0,0,63.4,14.328Zm7.69-9.2V7.49h1.564V9.547H71.094V13.9a1.111,1.111,0,0,0,.193.747,1.037,1.037,0,0,0,.765.211,4.345,4.345,0,0,0,.738-.053v2.118a5.466,5.466,0,0,1-1.67.255,3.1,3.1,0,0,1-2.259-.721,2.954,2.954,0,0,1-.729-2.188V9.547H66.919V7.49h1.213V5.126Zm8.481,5.045L78.6,10.1a1.752,1.752,0,0,0-1.793.879V17H73.845V7.49h2.777l.1,1.222a2.294,2.294,0,0,1,2.083-1.4,2.888,2.888,0,0,1,.826.105Zm6.732,5.8a3.054,3.054,0,0,1-2.54,1.2,3,3,0,0,1-2.369-.91,3.826,3.826,0,0,1-.8-2.615V7.49h2.962v6.179a1.065,1.065,0,0,0,1.187,1.222,1.548,1.548,0,0,0,1.45-.729V7.49h2.979V17H86.4Zm8.508-1.081a1.317,1.317,0,0,0,.967-.338,1.241,1.241,0,0,0,.334-.945h2.777a3.288,3.288,0,0,1-1.121,2.566,4.168,4.168,0,0,1-2.887,1,4.22,4.22,0,0,1-3.27-1.3,5.125,5.125,0,0,1-1.2-3.6v-.123A5.792,5.792,0,0,1,90.953,9.6a3.872,3.872,0,0,1,1.534-1.7,4.573,4.573,0,0,1,2.373-.593A4.116,4.116,0,0,1,97.8,8.343a3.647,3.647,0,0,1,1.09,2.786H96.116A1.626,1.626,0,0,0,95.756,10a1.244,1.244,0,0,0-.967-.4q-1.151,0-1.345,1.468a10.357,10.357,0,0,0-.062,1.283,4.068,4.068,0,0,0,.343,1.986A1.187,1.187,0,0,0,94.815,14.891Zm8.78-9.765V7.49h1.564V9.547H103.6V13.9a1.111,1.111,0,0,0,.193.747,1.037,1.037,0,0,0,.765.211,4.345,4.345,0,0,0,.738-.053v2.118a5.466,5.466,0,0,1-1.67.255,3.1,3.1,0,0,1-2.259-.721,2.954,2.954,0,0,1-.729-2.188V9.547H99.421V7.49h1.213V5.126Zm8.394,10.846a3.054,3.054,0,0,1-2.54,1.2,3,3,0,0,1-2.369-.91,3.826,3.826,0,0,1-.8-2.615V7.49h2.962v6.179a1.065,1.065,0,0,0,1.187,1.222,1.548,1.548,0,0,0,1.45-.729V7.49h2.979V17h-2.777Zm10.239-5.8-.976-.07a1.752,1.752,0,0,0-1.793.879V17H116.5V7.49h2.777l.1,1.222a2.294,2.294,0,0,1,2.083-1.4,2.888,2.888,0,0,1,.826.105ZM128.39,17a3.344,3.344,0,0,1-.281-.853,2.754,2.754,0,0,1-2.285,1.028,3.374,3.374,0,0,1-2.285-.813,2.588,2.588,0,0,1-.94-2.043,2.66,2.66,0,0,1,1.143-2.338,5.821,5.821,0,0,1,3.322-.791h.914v-.5q0-1.316-1.134-1.316a.927.927,0,0,0-1.055,1.042h-2.962A2.655,2.655,0,0,1,124,8.175a4.931,4.931,0,0,1,2.993-.86,4.323,4.323,0,0,1,2.874.888,3.086,3.086,0,0,1,1.081,2.435v4.21a4.311,4.311,0,0,0,.4,2V17Zm-1.854-1.934a1.652,1.652,0,0,0,.918-.237,1.487,1.487,0,0,0,.523-.536V12.772h-.861q-1.547,0-1.547,1.389a.848.848,0,0,0,.272.655A.986.986,0,0,0,126.535,15.066Zm5.678-2.892a5.809,5.809,0,0,1,.976-3.56,3.211,3.211,0,0,1,2.725-1.3,2.731,2.731,0,0,1,2.145,1V3.5h2.971V17h-2.663l-.149-1.02a2.8,2.8,0,0,1-2.32,1.2,3.205,3.205,0,0,1-2.689-1.3A5.993,5.993,0,0,1,132.213,12.175Zm2.962.185q0,2.531,1.477,2.531a1.458,1.458,0,0,0,1.406-.826V10.443a1.419,1.419,0,0,0-1.389-.844q-1.371,0-1.485,2.215ZM148.068,17a3.344,3.344,0,0,1-.281-.853,2.754,2.754,0,0,1-2.285,1.028,3.374,3.374,0,0,1-2.285-.813,2.588,2.588,0,0,1-.94-2.043,2.66,2.66,0,0,1,1.143-2.338,5.821,5.821,0,0,1,3.322-.791h.914v-.5q0-1.316-1.134-1.316a.927.927,0,0,0-1.055,1.042H142.5a2.655,2.655,0,0,1,1.173-2.239,4.931,4.931,0,0,1,2.993-.86,4.323,4.323,0,0,1,2.874.888,3.086,3.086,0,0,1,1.081,2.435v4.21a4.311,4.311,0,0,0,.4,2V17Zm-1.854-1.934a1.652,1.652,0,0,0,.918-.237,1.487,1.487,0,0,0,.523-.536V12.772h-.861q-1.547,0-1.547,1.389a.848.848,0,0,0,.272.655A.986.986,0,0,0,146.214,15.066Z" transform="translate(713.5 7106.256)" fill="#12263f"/>
        <path id="Trazado_815378" data-name="Trazado 815378" d="M20.987,13.6a1.268,1.268,0,0,0-.479-1.055,5.954,5.954,0,0,0-1.683-.782,16.147,16.147,0,0,1-1.969-.782q-2.487-1.222-2.487-3.357a3.011,3.011,0,0,1,.62-1.876A4.008,4.008,0,0,1,16.742,4.48a6.823,6.823,0,0,1,2.549-.453,5.969,5.969,0,0,1,2.474.492,3.917,3.917,0,0,1,1.7,1.4A3.661,3.661,0,0,1,24.072,8H21a1.547,1.547,0,0,0-.479-1.213,1.867,1.867,0,0,0-1.3-.431,2.106,2.106,0,0,0-1.305.365,1.074,1.074,0,0,0,.048,1.819,6.65,6.65,0,0,0,1.854.826,11.36,11.36,0,0,1,2.18.918,3.663,3.663,0,0,1,2.074,3.3,3.125,3.125,0,0,1-1.266,2.637,5.629,5.629,0,0,1-3.472.958,6.888,6.888,0,0,1-2.817-.558,4.247,4.247,0,0,1-1.9-1.529,3.985,3.985,0,0,1-.637-2.237h3.094a1.963,1.963,0,0,0,.532,1.516,2.513,2.513,0,0,0,1.727.488,1.985,1.985,0,0,0,1.208-.33A1.088,1.088,0,0,0,20.987,13.6Zm9.132,3.577a4.889,4.889,0,0,1-3.542-1.305,4.507,4.507,0,0,1-1.354-3.4v-.246a5.84,5.84,0,0,1,.541-2.575,3.955,3.955,0,0,1,1.578-1.727A4.763,4.763,0,0,1,29.8,7.314a4.117,4.117,0,0,1,3.164,1.244,4.887,4.887,0,0,1,1.16,3.467v1.151H28.238a2.135,2.135,0,0,0,.694,1.257,2.066,2.066,0,0,0,1.389.457,2.662,2.662,0,0,0,2.2-.984l1.354,1.6A3.784,3.784,0,0,1,32.3,16.723,5.3,5.3,0,0,1,30.119,17.176ZM29.785,9.6q-1.3,0-1.547,1.723h2.988v-.229a1.467,1.467,0,0,0-.36-1.1A1.434,1.434,0,0,0,29.785,9.6ZM38.117,7.49l.1,1.116A3.27,3.27,0,0,1,40.93,7.314a2.407,2.407,0,0,1,2.435,1.433,3.165,3.165,0,0,1,2.795-1.433q2.892,0,2.971,3.5V17H46.159V11a1.813,1.813,0,0,0-.246-1.063,1.048,1.048,0,0,0-.9-.334,1.4,1.4,0,0,0-1.31.782l.009.123V17H40.745V11.015a1.906,1.906,0,0,0-.237-1.081A1.045,1.045,0,0,0,39.6,9.6a1.42,1.42,0,0,0-1.3.782V17H35.34V7.49ZM53.946,17H50.976V7.49h2.971ZM50.8,5.038A1.322,1.322,0,0,1,51.257,4,1.943,1.943,0,0,1,53.63,4a1.322,1.322,0,0,1,.457,1.037,1.322,1.322,0,0,1-.457,1.037,1.943,1.943,0,0,1-2.373,0A1.322,1.322,0,0,1,50.8,5.038Zm9.571,12.138a4.889,4.889,0,0,1-3.542-1.305,4.507,4.507,0,0,1-1.354-3.4v-.246a5.84,5.84,0,0,1,.541-2.575,3.955,3.955,0,0,1,1.578-1.727,4.763,4.763,0,0,1,2.461-.611,4.117,4.117,0,0,1,3.164,1.244,4.887,4.887,0,0,1,1.16,3.467v1.151H58.49a2.135,2.135,0,0,0,.694,1.257,2.066,2.066,0,0,0,1.389.457,2.662,2.662,0,0,0,2.2-.984l1.354,1.6a3.784,3.784,0,0,1-1.569,1.217A5.3,5.3,0,0,1,60.371,17.176ZM60.037,9.6q-1.3,0-1.547,1.723h2.988v-.229a1.467,1.467,0,0,0-.36-1.1A1.434,1.434,0,0,0,60.037,9.6Zm10.512,4.729a.684.684,0,0,0-.4-.606,6.016,6.016,0,0,0-1.5-.475,6.853,6.853,0,0,1-1.828-.646,3.062,3.062,0,0,1-1.1-.971,2.319,2.319,0,0,1-.378-1.31,2.628,2.628,0,0,1,1.081-2.158,4.453,4.453,0,0,1,2.83-.848,4.934,4.934,0,0,1,3.023.853,2.666,2.666,0,0,1,1.143,2.241H70.452q0-1.143-1.2-1.143a1.194,1.194,0,0,0-.782.259.8.8,0,0,0-.316.646.737.737,0,0,0,.387.642,3.654,3.654,0,0,0,1.235.4,10.671,10.671,0,0,1,1.49.378,2.706,2.706,0,0,1,2.145,2.646,2.491,2.491,0,0,1-1.156,2.118,5.068,5.068,0,0,1-2.993.817,5.172,5.172,0,0,1-2.18-.439,3.645,3.645,0,0,1-1.494-1.2,2.707,2.707,0,0,1-.536-1.591h2.769a1.145,1.145,0,0,0,.439.962,1.808,1.808,0,0,0,1.081.3,1.422,1.422,0,0,0,.91-.246A.787.787,0,0,0,70.549,14.328Zm7.69-9.2V7.49H79.8V9.547H78.239V13.9a1.111,1.111,0,0,0,.193.747,1.037,1.037,0,0,0,.765.211,4.345,4.345,0,0,0,.738-.053v2.118a5.466,5.466,0,0,1-1.67.255,3.1,3.1,0,0,1-2.259-.721,2.954,2.954,0,0,1-.729-2.188V9.547H74.064V7.49h1.213V5.126Zm8.481,5.045-.976-.07a1.752,1.752,0,0,0-1.793.879V17H80.99V7.49h2.777l.1,1.222a2.294,2.294,0,0,1,2.083-1.4,2.888,2.888,0,0,1,.826.105Zm6.732,5.8a3.054,3.054,0,0,1-2.54,1.2,3,3,0,0,1-2.369-.91,3.826,3.826,0,0,1-.8-2.615V7.49H90.7v6.179a1.065,1.065,0,0,0,1.187,1.222,1.548,1.548,0,0,0,1.45-.729V7.49h2.979V17H93.541Zm8.508-1.081a1.317,1.317,0,0,0,.967-.338,1.241,1.241,0,0,0,.334-.945h2.777a3.288,3.288,0,0,1-1.121,2.566,4.168,4.168,0,0,1-2.887,1,4.22,4.22,0,0,1-3.27-1.3,5.125,5.125,0,0,1-1.2-3.6v-.123A5.792,5.792,0,0,1,98.1,9.6a3.872,3.872,0,0,1,1.534-1.7A4.573,4.573,0,0,1,102,7.314a4.116,4.116,0,0,1,2.944,1.028,3.647,3.647,0,0,1,1.09,2.786h-2.777A1.626,1.626,0,0,0,102.9,10a1.244,1.244,0,0,0-.967-.4q-1.151,0-1.345,1.468a10.357,10.357,0,0,0-.062,1.283,4.068,4.068,0,0,0,.343,1.986A1.187,1.187,0,0,0,101.961,14.891Zm8.78-9.765V7.49h1.564V9.547h-1.564V13.9a1.111,1.111,0,0,0,.193.747,1.037,1.037,0,0,0,.765.211,4.345,4.345,0,0,0,.738-.053v2.118a5.466,5.466,0,0,1-1.67.255,3.1,3.1,0,0,1-2.259-.721,2.954,2.954,0,0,1-.729-2.188V9.547h-1.213V7.49h1.213V5.126Zm8.394,10.846a3.054,3.054,0,0,1-2.54,1.2,3,3,0,0,1-2.369-.91,3.826,3.826,0,0,1-.8-2.615V7.49h2.962v6.179a1.065,1.065,0,0,0,1.187,1.222,1.548,1.548,0,0,0,1.45-.729V7.49H122V17h-2.777Zm10.239-5.8-.976-.07a1.752,1.752,0,0,0-1.793.879V17h-2.962V7.49h2.777l.1,1.222a2.294,2.294,0,0,1,2.083-1.4,2.888,2.888,0,0,1,.826.105ZM135.535,17a3.344,3.344,0,0,1-.281-.853,2.754,2.754,0,0,1-2.285,1.028,3.374,3.374,0,0,1-2.285-.813,2.588,2.588,0,0,1-.94-2.043,2.66,2.66,0,0,1,1.143-2.338,5.821,5.821,0,0,1,3.322-.791h.914v-.5q0-1.316-1.134-1.316a.927.927,0,0,0-1.055,1.042h-2.962a2.655,2.655,0,0,1,1.173-2.239,4.931,4.931,0,0,1,2.993-.86,4.323,4.323,0,0,1,2.874.888,3.086,3.086,0,0,1,1.081,2.435v4.21a4.311,4.311,0,0,0,.4,2V17Zm-1.854-1.934a1.652,1.652,0,0,0,.918-.237,1.487,1.487,0,0,0,.523-.536V12.772h-.861q-1.547,0-1.547,1.389a.848.848,0,0,0,.272.655A.986.986,0,0,0,133.681,15.066Zm5.678-2.892a5.809,5.809,0,0,1,.976-3.56,3.211,3.211,0,0,1,2.725-1.3,2.731,2.731,0,0,1,2.145,1V3.5h2.971V17h-2.663l-.149-1.02a2.8,2.8,0,0,1-2.32,1.2,3.205,3.205,0,0,1-2.689-1.3A5.993,5.993,0,0,1,139.358,12.175Zm2.962.185q0,2.531,1.477,2.531a1.458,1.458,0,0,0,1.406-.826V10.443a1.419,1.419,0,0,0-1.389-.844q-1.371,0-1.485,2.215ZM155.214,17a3.344,3.344,0,0,1-.281-.853,2.754,2.754,0,0,1-2.285,1.028,3.374,3.374,0,0,1-2.285-.813,2.588,2.588,0,0,1-.94-2.043,2.66,2.66,0,0,1,1.143-2.338,5.821,5.821,0,0,1,3.322-.791h.914v-.5q0-1.316-1.134-1.316a.927.927,0,0,0-1.055,1.042H149.65a2.655,2.655,0,0,1,1.173-2.239,4.931,4.931,0,0,1,2.993-.86,4.323,4.323,0,0,1,2.874.888,3.086,3.086,0,0,1,1.081,2.435v4.21a4.311,4.311,0,0,0,.4,2V17Zm-1.854-1.934a1.652,1.652,0,0,0,.918-.237,1.487,1.487,0,0,0,.523-.536V12.772h-.861q-1.547,0-1.547,1.389a.848.848,0,0,0,.272.655A.986.986,0,0,0,153.359,15.066Z" transform="translate(964.328 7106.256)" fill="#12263f"/>
        <path id="Trazado_815379" data-name="Trazado 815379" d="M51.494,11.9H46.52V17H43.435V4.2H52V6.585H46.52V9.529h4.975Zm1.09.255a5.613,5.613,0,0,1,.554-2.536,3.96,3.96,0,0,1,1.591-1.709,4.791,4.791,0,0,1,2.435-.6,4.373,4.373,0,0,1,3.366,1.323,5.076,5.076,0,0,1,1.23,3.6v.105a4.925,4.925,0,0,1-1.235,3.529,4.384,4.384,0,0,1-3.344,1.305,4.434,4.434,0,0,1-3.261-1.217,4.761,4.761,0,0,1-1.327-3.3Zm2.962.185a3.538,3.538,0,0,0,.413,1.934,1.376,1.376,0,0,0,1.222.615q1.582,0,1.617-2.435v-.3Q58.8,9.6,57.163,9.6q-1.485,0-1.608,2.206Zm11.54,2.549a1.317,1.317,0,0,0,.967-.338,1.241,1.241,0,0,0,.334-.945h2.777a3.288,3.288,0,0,1-1.121,2.566,4.168,4.168,0,0,1-2.887,1,4.22,4.22,0,0,1-3.27-1.3,5.125,5.125,0,0,1-1.2-3.6v-.123A5.792,5.792,0,0,1,63.223,9.6a3.872,3.872,0,0,1,1.534-1.7,4.573,4.573,0,0,1,2.373-.593,4.116,4.116,0,0,1,2.944,1.028,3.647,3.647,0,0,1,1.09,2.786H68.387A1.626,1.626,0,0,0,68.026,10a1.244,1.244,0,0,0-.967-.4q-1.151,0-1.345,1.468a10.357,10.357,0,0,0-.062,1.283A4.068,4.068,0,0,0,66,14.337,1.187,1.187,0,0,0,67.086,14.891ZM77.773,17a3.344,3.344,0,0,1-.281-.853,2.754,2.754,0,0,1-2.285,1.028,3.374,3.374,0,0,1-2.285-.813,2.588,2.588,0,0,1-.94-2.043,2.66,2.66,0,0,1,1.143-2.338,5.821,5.821,0,0,1,3.322-.791h.914v-.5q0-1.316-1.134-1.316a.927.927,0,0,0-1.055,1.042H72.21a2.655,2.655,0,0,1,1.173-2.239,4.931,4.931,0,0,1,2.993-.86A4.323,4.323,0,0,1,79.25,8.2a3.086,3.086,0,0,1,1.081,2.435v4.21a4.311,4.311,0,0,0,.4,2V17Zm-1.854-1.934a1.652,1.652,0,0,0,.918-.237,1.487,1.487,0,0,0,.523-.536V12.772H76.5q-1.547,0-1.547,1.389a.848.848,0,0,0,.272.655A.986.986,0,0,0,75.919,15.066ZM85.095,17H82.124V3.5h2.971Zm4.948,0H87.072V7.49h2.971ZM86.9,5.038A1.322,1.322,0,0,1,87.354,4a1.943,1.943,0,0,1,2.373,0,1.322,1.322,0,0,1,.457,1.037,1.322,1.322,0,0,1-.457,1.037,1.943,1.943,0,0,1-2.373,0A1.322,1.322,0,0,1,86.9,5.038Zm8.464,9.677h4.333V17H91.616V15.348l4.219-5.572H91.8V7.49h7.8v1.6ZM106.487,17a3.344,3.344,0,0,1-.281-.853,2.754,2.754,0,0,1-2.285,1.028,3.374,3.374,0,0,1-2.285-.813,2.588,2.588,0,0,1-.94-2.043,2.66,2.66,0,0,1,1.143-2.338,5.821,5.821,0,0,1,3.322-.791h.914v-.5q0-1.316-1.134-1.316a.927.927,0,0,0-1.055,1.042h-2.962A2.655,2.655,0,0,1,102.1,8.175a4.931,4.931,0,0,1,2.993-.86,4.323,4.323,0,0,1,2.874.888,3.086,3.086,0,0,1,1.081,2.435v4.21a4.311,4.311,0,0,0,.4,2V17Zm-1.854-1.934a1.652,1.652,0,0,0,.918-.237,1.487,1.487,0,0,0,.523-.536V12.772h-.861q-1.547,0-1.547,1.389a.848.848,0,0,0,.272.655A.986.986,0,0,0,104.633,15.066Zm5.678-2.892a5.809,5.809,0,0,1,.976-3.56,3.211,3.211,0,0,1,2.725-1.3,2.731,2.731,0,0,1,2.145,1V3.5h2.971V17h-2.663l-.149-1.02a2.8,2.8,0,0,1-2.32,1.2,3.205,3.205,0,0,1-2.689-1.3A5.993,5.993,0,0,1,110.311,12.175Zm2.962.185q0,2.531,1.477,2.531a1.458,1.458,0,0,0,1.406-.826V10.443a1.419,1.419,0,0,0-1.389-.844q-1.371,0-1.485,2.215ZM126.166,17a3.344,3.344,0,0,1-.281-.853,2.754,2.754,0,0,1-2.285,1.028,3.374,3.374,0,0,1-2.285-.813,2.588,2.588,0,0,1-.94-2.043,2.66,2.66,0,0,1,1.143-2.338,5.821,5.821,0,0,1,3.322-.791h.914v-.5q0-1.316-1.134-1.316a.927.927,0,0,0-1.055,1.042H120.6a2.655,2.655,0,0,1,1.173-2.239,4.931,4.931,0,0,1,2.993-.86,4.323,4.323,0,0,1,2.874.888,3.086,3.086,0,0,1,1.081,2.435v4.21a4.311,4.311,0,0,0,.4,2V17Zm-1.854-1.934a1.652,1.652,0,0,0,.918-.237,1.487,1.487,0,0,0,.523-.536V12.772h-.861q-1.547,0-1.547,1.389a.848.848,0,0,0,.272.655A.986.986,0,0,0,124.312,15.066Z" transform="translate(726.914 7231.177)" fill="#12263f"/>
        <path id="Trazado_815380" data-name="Trazado 815380" d="M53.129,17H50.062L45.526,9.037V17H42.441V4.2h3.085l4.526,7.963V4.2h3.076Zm1.441-4.843a5.613,5.613,0,0,1,.554-2.536,3.96,3.96,0,0,1,1.591-1.709,4.791,4.791,0,0,1,2.435-.6,4.373,4.373,0,0,1,3.366,1.323,5.076,5.076,0,0,1,1.23,3.6v.105a4.925,4.925,0,0,1-1.235,3.529,4.384,4.384,0,0,1-3.344,1.305,4.434,4.434,0,0,1-3.261-1.217,4.761,4.761,0,0,1-1.327-3.3Zm2.962.185a3.538,3.538,0,0,0,.413,1.934,1.376,1.376,0,0,0,1.222.615q1.582,0,1.617-2.435v-.3q0-2.558-1.635-2.558-1.485,0-1.608,2.206Zm11.628-.167a5.809,5.809,0,0,1,.976-3.56,3.211,3.211,0,0,1,2.725-1.3,2.731,2.731,0,0,1,2.145,1V3.5h2.971V17H75.313l-.149-1.02a2.8,2.8,0,0,1-2.32,1.2,3.205,3.205,0,0,1-2.689-1.3A5.993,5.993,0,0,1,69.16,12.175Zm2.962.185q0,2.531,1.477,2.531A1.458,1.458,0,0,0,75,14.064V10.443A1.419,1.419,0,0,0,73.616,9.6q-1.371,0-1.485,2.215ZM82.783,17H79.813V7.49h2.971ZM79.637,5.038A1.322,1.322,0,0,1,80.094,4a1.943,1.943,0,0,1,2.373,0,1.322,1.322,0,0,1,.457,1.037,1.322,1.322,0,0,1-.457,1.037,1.943,1.943,0,0,1-2.373,0A1.322,1.322,0,0,1,79.637,5.038Zm10.723,5.133-.976-.07a1.752,1.752,0,0,0-1.793.879V17H84.629V7.49h2.777l.1,1.222a2.294,2.294,0,0,1,2.083-1.4,2.888,2.888,0,0,1,.826.105ZM94.552,17H91.581V7.49h2.971ZM91.405,5.038A1.322,1.322,0,0,1,91.862,4a1.943,1.943,0,0,1,2.373,0,1.322,1.322,0,0,1,.457,1.037,1.322,1.322,0,0,1-.457,1.037,1.943,1.943,0,0,1-2.373,0A1.322,1.322,0,0,1,91.405,5.038Zm4.623,7.137A6.421,6.421,0,0,1,96.5,9.626a3.821,3.821,0,0,1,1.362-1.709,3.591,3.591,0,0,1,2.065-.6,2.855,2.855,0,0,1,2.32,1l.105-.826h2.689V16.64a4.009,4.009,0,0,1-.584,2.184,3.75,3.75,0,0,1-1.692,1.424,6.219,6.219,0,0,1-2.566.5,5.365,5.365,0,0,1-2.026-.4,3.657,3.657,0,0,1-1.5-1.028l1.239-1.74a2.716,2.716,0,0,0,2.18.976,1.764,1.764,0,0,0,1.969-2.021v-.3a2.781,2.781,0,0,1-2.153.94A3.437,3.437,0,0,1,97.1,15.844a5.517,5.517,0,0,1-1.072-3.564ZM99,12.359a3.383,3.383,0,0,0,.439,1.85,1.387,1.387,0,0,0,1.23.681,1.573,1.573,0,0,0,1.4-.642v-4a1.534,1.534,0,0,0-1.38-.65,1.4,1.4,0,0,0-1.239.708A3.858,3.858,0,0,0,99,12.359ZM109.854,17h-2.971V7.49h2.971ZM106.707,5.038A1.322,1.322,0,0,1,107.164,4a1.943,1.943,0,0,1,2.373,0,1.322,1.322,0,0,1,.457,1.037,1.322,1.322,0,0,1-.457,1.037,1.943,1.943,0,0,1-2.373,0A1.322,1.322,0,0,1,106.707,5.038Zm4.6,7.137a5.809,5.809,0,0,1,.976-3.56A3.211,3.211,0,0,1,115,7.314a2.731,2.731,0,0,1,2.145,1V3.5h2.971V17h-2.663l-.149-1.02a2.8,2.8,0,0,1-2.32,1.2,3.205,3.205,0,0,1-2.689-1.3A5.993,5.993,0,0,1,111.3,12.175Zm2.962.185q0,2.531,1.477,2.531a1.458,1.458,0,0,0,1.406-.826V10.443A1.419,1.419,0,0,0,115.76,9.6q-1.371,0-1.485,2.215ZM127.159,17a3.344,3.344,0,0,1-.281-.853,2.754,2.754,0,0,1-2.285,1.028,3.374,3.374,0,0,1-2.285-.813,2.588,2.588,0,0,1-.94-2.043,2.66,2.66,0,0,1,1.143-2.338,5.821,5.821,0,0,1,3.322-.791h.914v-.5q0-1.316-1.134-1.316a.927.927,0,0,0-1.055,1.042H121.6a2.655,2.655,0,0,1,1.173-2.239,4.931,4.931,0,0,1,2.993-.86,4.323,4.323,0,0,1,2.874.888,3.086,3.086,0,0,1,1.081,2.435v4.21a4.311,4.311,0,0,0,.4,2V17ZM125.3,15.066a1.652,1.652,0,0,0,.918-.237,1.487,1.487,0,0,0,.523-.536V12.772h-.861q-1.547,0-1.547,1.389a.848.848,0,0,0,.272.655A.986.986,0,0,0,125.3,15.066ZM17.722,37.157a5.613,5.613,0,0,1,.554-2.536,3.96,3.96,0,0,1,1.591-1.709,4.791,4.791,0,0,1,2.435-.6,4.373,4.373,0,0,1,3.366,1.323,5.076,5.076,0,0,1,1.23,3.6v.105a4.925,4.925,0,0,1-1.235,3.529,4.384,4.384,0,0,1-3.344,1.305,4.434,4.434,0,0,1-3.261-1.217,4.761,4.761,0,0,1-1.327-3.3Zm2.962.185a3.538,3.538,0,0,0,.413,1.934,1.376,1.376,0,0,0,1.222.615q1.582,0,1.617-2.435v-.3q0-2.558-1.635-2.558-1.485,0-1.608,2.206Zm16.6,4.834a4.889,4.889,0,0,1-3.542-1.305,4.507,4.507,0,0,1-1.354-3.4v-.246a5.84,5.84,0,0,1,.541-2.575,3.955,3.955,0,0,1,1.578-1.727,4.763,4.763,0,0,1,2.461-.611,4.117,4.117,0,0,1,3.164,1.244,4.887,4.887,0,0,1,1.16,3.467v1.151H35.406a2.135,2.135,0,0,0,.694,1.257,2.066,2.066,0,0,0,1.389.457,2.662,2.662,0,0,0,2.2-.984l1.354,1.6a3.784,3.784,0,0,1-1.569,1.217A5.3,5.3,0,0,1,37.287,42.176ZM36.953,34.6q-1.3,0-1.547,1.723h2.988v-.229a1.467,1.467,0,0,0-.36-1.1A1.434,1.434,0,0,0,36.953,34.6Zm8.253-2.109.1,1.116a3.225,3.225,0,0,1,2.716-1.292,2.713,2.713,0,0,1,2.219.888A4.226,4.226,0,0,1,51,35.874V42H48.027V36a1.6,1.6,0,0,0-.29-1.059,1.342,1.342,0,0,0-1.055-.338,1.413,1.413,0,0,0-1.292.686V42H42.428V32.49Zm20.742,4.825a5.735,5.735,0,0,1-1,3.538,3.2,3.2,0,0,1-2.694,1.323,2.742,2.742,0,0,1-2.153-.958v4.438H57.141V32.49H59.91l.088.879a2.742,2.742,0,0,1,2.241-1.055,3.224,3.224,0,0,1,2.733,1.3,5.805,5.805,0,0,1,.976,3.564Zm-2.962-.185q0-2.531-1.477-2.531a1.394,1.394,0,0,0-1.406.756V39.1a1.439,1.439,0,0,0,1.424.791q1.415,0,1.459-2.443Zm10.02-1.96-.976-.07a1.752,1.752,0,0,0-1.793.879V42H67.275V32.49h2.777l.1,1.222a2.294,2.294,0,0,1,2.083-1.4,2.888,2.888,0,0,1,.826.105Zm.378,1.986a5.613,5.613,0,0,1,.554-2.536,3.96,3.96,0,0,1,1.591-1.709,4.791,4.791,0,0,1,2.435-.6,4.373,4.373,0,0,1,3.366,1.323,5.076,5.076,0,0,1,1.23,3.6v.105a4.925,4.925,0,0,1-1.235,3.529,4.384,4.384,0,0,1-3.344,1.305,4.434,4.434,0,0,1-3.261-1.217,4.761,4.761,0,0,1-1.327-3.3Zm2.962.185a3.538,3.538,0,0,0,.413,1.934,1.376,1.376,0,0,0,1.222.615q1.582,0,1.617-2.435v-.3q0-2.558-1.635-2.558-1.485,0-1.608,2.206ZM84.519,42V34.547h-1.38V32.49h1.38v-.756a3.286,3.286,0,0,1,.958-2.522,3.785,3.785,0,0,1,2.689-.9,5.89,5.89,0,0,1,1.389.185l.009,2.18a2.706,2.706,0,0,0-.729-.079q-1.345,0-1.345,1.16v.729h1.854v2.057H87.49V42ZM96.05,40.972a3.054,3.054,0,0,1-2.54,1.2,3,3,0,0,1-2.369-.91,3.826,3.826,0,0,1-.8-2.615V32.49H93.3v6.179a1.065,1.065,0,0,0,1.187,1.222,1.548,1.548,0,0,0,1.45-.729V32.49h2.979V42H96.138Zm7.207-8.481.1,1.116a3.225,3.225,0,0,1,2.716-1.292,2.713,2.713,0,0,1,2.219.888,4.226,4.226,0,0,1,.76,2.672V42h-2.971V36a1.6,1.6,0,0,0-.29-1.059,1.342,1.342,0,0,0-1.055-.338,1.413,1.413,0,0,0-1.292.686V42H100.48V32.49Zm7.058,4.685a5.809,5.809,0,0,1,.976-3.56,3.211,3.211,0,0,1,2.725-1.3,2.731,2.731,0,0,1,2.145,1V28.5h2.971V42h-2.663l-.149-1.02a2.8,2.8,0,0,1-2.32,1.2,3.205,3.205,0,0,1-2.689-1.3A5.993,5.993,0,0,1,110.315,37.175Zm2.962.185q0,2.531,1.477,2.531a1.458,1.458,0,0,0,1.406-.826V35.443a1.419,1.419,0,0,0-1.389-.844q-1.371,0-1.485,2.215ZM123.938,42h-2.971V32.49h2.971Zm-3.146-11.962A1.322,1.322,0,0,1,121.249,29a1.943,1.943,0,0,1,2.373,0,1.405,1.405,0,0,1,0,2.074,1.943,1.943,0,0,1-2.373,0A1.322,1.322,0,0,1,120.792,30.038Zm4.6,7.137a5.809,5.809,0,0,1,.976-3.56,3.211,3.211,0,0,1,2.725-1.3,2.731,2.731,0,0,1,2.145,1V28.5H134.2V42h-2.663l-.149-1.02a2.8,2.8,0,0,1-2.32,1.2,3.205,3.205,0,0,1-2.689-1.3A5.993,5.993,0,0,1,125.388,37.175Zm2.962.185q0,2.531,1.477,2.531a1.458,1.458,0,0,0,1.406-.826V35.443a1.419,1.419,0,0,0-1.389-.844q-1.371,0-1.485,2.215ZM141.244,42a3.344,3.344,0,0,1-.281-.853,2.754,2.754,0,0,1-2.285,1.028,3.374,3.374,0,0,1-2.285-.813,2.588,2.588,0,0,1-.94-2.043,2.66,2.66,0,0,1,1.143-2.338,5.821,5.821,0,0,1,3.322-.791h.914v-.5q0-1.316-1.134-1.316a.927.927,0,0,0-1.055,1.042H135.68a2.655,2.655,0,0,1,1.173-2.239,4.931,4.931,0,0,1,2.993-.86,4.323,4.323,0,0,1,2.874.888,3.086,3.086,0,0,1,1.081,2.435v4.21a4.311,4.311,0,0,0,.4,2V42Zm-1.854-1.934a1.652,1.652,0,0,0,.918-.237,1.487,1.487,0,0,0,.523-.536V37.772h-.861q-1.547,0-1.547,1.389a.848.848,0,0,0,.272.655A.986.986,0,0,0,139.389,40.066Zm5.678-2.892a5.809,5.809,0,0,1,.976-3.56,3.211,3.211,0,0,1,2.725-1.3,2.731,2.731,0,0,1,2.145,1V28.5h2.971V42h-2.663l-.149-1.02a2.8,2.8,0,0,1-2.32,1.2,3.205,3.205,0,0,1-2.689-1.3A5.993,5.993,0,0,1,145.067,37.175Zm2.962.185q0,2.531,1.477,2.531a1.458,1.458,0,0,0,1.406-.826V35.443a1.419,1.419,0,0,0-1.389-.844q-1.371,0-1.485,2.215Z" transform="translate(726.914 7353.677)" fill="#12263f"/>
        <g id="surface1" transform="translate(824.5 6957.28)">
          <path id="Trazado_610179" data-name="Trazado 610179" d="M269.244,147.511a.75.75,0,0,0-1.139-.325l-4.879,3.581-5.635.074a.751.751,0,0,0-.674,1.061l4.679,10.3a.75.75,0,0,0,.683.44h5.735l5.188-3.808a.751.751,0,0,0,.252-.886Zm0,0" transform="translate(-211.618 -121.147)" fill="#b4d7dc"/>
          <path id="Trazado_610180" data-name="Trazado 610180" d="M74.646,250a3.73,3.73,0,0,1-1.085-7.3l16.307-4.965a3.73,3.73,0,0,1,2.172,7.136l-16.307,4.965A3.732,3.732,0,0,1,74.646,250Zm0,0" transform="translate(-58.428 -195.737)" fill="#748488"/>
          <path id="Trazado_610181" data-name="Trazado 610181" d="M15.235,333.719a2.486,2.486,0,0,1-1.963-2.917l3.255-16.633a2.487,2.487,0,0,1,4.881.955l-3.256,16.633A2.486,2.486,0,0,1,15.235,333.719Zm0,0" transform="translate(-10.897 -257.188)" fill="#ba6746"/>
          <path id="Trazado_610182" data-name="Trazado 610182" d="M89.239,331.757l-3.255-16.633a2.486,2.486,0,0,1,4.88-.955L94.12,330.8a2.486,2.486,0,0,1-4.88.955Zm0,0" transform="translate(-70.803 -257.188)" fill="#ba6746"/>
          <path id="Trazado_610183" data-name="Trazado 610183" d="M59.886,290.4l-6.1-17.129-10.777-3.454a3.73,3.73,0,0,1,2.277-7.1l12.533,4.017a3.73,3.73,0,0,1,2.375,2.3L66.913,287.9a3.73,3.73,0,0,1-7.027,2.5Zm0,0" transform="translate(-33.296 -216.305)" fill="#55696e"/>
          <path id="Trazado_610184" data-name="Trazado 610184" d="M52.469,180.7l-9.926,1.511a3.708,3.708,0,0,1-4.26-3.849l1.064-21.46a4.342,4.342,0,0,1,4.889-4.09l7.325.943a4.34,4.34,0,0,1,3.75,4.859Zm0,0" transform="translate(-31.538 -125.871)" fill="#ffda52"/>
          <path id="Trazado_610185" data-name="Trazado 610185" d="M80.955,71.686a6.425,6.425,0,1,1-6.425-6.424A6.425,6.425,0,0,1,80.955,71.686Zm0,0" transform="translate(-56.112 -53.769)" fill="#ba6746"/>
          <path id="Trazado_610186" data-name="Trazado 610186" d="M18.885,315.836H2.487a2.487,2.487,0,1,1,0-4.973h16.4a2.487,2.487,0,0,1,0,4.973Zm0,0" transform="translate(0 -256.12)" fill="#e28c71"/>
          <path id="Trazado_610187" data-name="Trazado 610187" d="M103.445,257.338a3.729,3.729,0,0,1-2.752-6.245l11.236-12.3a3.73,3.73,0,1,1,5.507,5.032l-11.237,12.3A3.721,3.721,0,0,1,103.445,257.338Zm0,0" transform="translate(-82.156 -195.742)" fill="#748488"/>
          <path id="Trazado_610188" data-name="Trazado 610188" d="M77.1,177.419,68.6,166.079a3.108,3.108,0,0,1,4.973-3.731l7.507,10.008,9.947-.569a3.108,3.108,0,0,1,.355,6.206l-11.611.664A3.11,3.11,0,0,1,77.1,177.419Zm0,0" transform="translate(-56.004 -132.735)" fill="#ba6746"/>
          <path id="Trazado_610189" data-name="Trazado 610189" d="M78.577,169.021l-5.007-6.673a3.108,3.108,0,0,0-4.973,3.731l5.18,6.9Zm0,0" transform="translate(-56.004 -132.733)" fill="#ffc305"/>
          <path id="Trazado_610190" data-name="Trazado 610190" d="M326.151,250a3.73,3.73,0,0,0,1.085-7.3l-16.308-4.965a3.73,3.73,0,0,0-2.172,7.136l16.307,4.965A3.733,3.733,0,0,0,326.151,250Zm0,0" transform="translate(-252.205 -195.737)" fill="#5f6e9b"/>
          <path id="Trazado_610191" data-name="Trazado 610191" d="M458.263,333.719a2.486,2.486,0,0,0,1.963-2.917l-3.255-16.633a2.487,2.487,0,0,0-4.88.955l3.256,16.633A2.486,2.486,0,0,0,458.263,333.719Zm0,0" transform="translate(-372.437 -257.188)" fill="#ba6746"/>
          <path id="Trazado_610192" data-name="Trazado 610192" d="M384.26,331.757l3.255-16.633a2.486,2.486,0,0,0-4.88-.955L379.38,330.8a2.487,2.487,0,0,0,4.881.955Zm0,0" transform="translate(-312.532 -257.188)" fill="#ba6746"/>
          <path id="Trazado_610193" data-name="Trazado 610193" d="M327.115,290.4l6.1-17.129L344,269.821a3.73,3.73,0,0,0-2.277-7.1l-12.533,4.017a3.729,3.729,0,0,0-2.375,2.3L320.088,287.9a3.73,3.73,0,0,0,7.027,2.5Zm0,0" transform="translate(-263.541 -216.305)" fill="#414b82"/>
          <path id="Trazado_610194" data-name="Trazado 610194" d="M379.671,180.7l9.926,1.511a3.707,3.707,0,0,0,4.26-3.849l-1.064-21.46a4.342,4.342,0,0,0-4.889-4.09l-7.325.943a4.34,4.34,0,0,0-3.75,4.859Zm0,0" transform="translate(-310.438 -125.871)" fill="#64afff"/>
          <path id="Trazado_610195" data-name="Trazado 610195" d="M383.776,71.686a6.425,6.425,0,1,1-6.425-6.424A6.424,6.424,0,0,1,383.776,71.686Zm0,0" transform="translate(-305.605 -53.769)" fill="#ffb69e"/>
          <path id="Trazado_610196" data-name="Trazado 610196" d="M393.124,315.836h16.4a2.487,2.487,0,0,0,0-4.973h-16.4a2.487,2.487,0,0,0,0,4.973Zm0,0" transform="translate(-321.845 -256.12)" fill="#e28c71"/>
          <path id="Trazado_610197" data-name="Trazado 610197" d="M321.084,257.338a3.729,3.729,0,0,0,2.752-6.245l-11.236-12.3a3.73,3.73,0,1,0-5.507,5.032l11.237,12.3A3.721,3.721,0,0,0,321.084,257.338Zm0,0" transform="translate(-252.209 -195.742)" fill="#5f6e9b"/>
          <path id="Trazado_610198" data-name="Trazado 610198" d="M311.688,177.419l8.507-11.34a3.108,3.108,0,0,0-4.973-3.731l-7.507,10.008-9.947-.569a3.108,3.108,0,0,0-.355,6.206l11.611.664A3.11,3.11,0,0,0,311.688,177.419Zm0,0" transform="translate(-242.624 -132.735)" fill="#ffb69e"/>
          <path id="Trazado_610199" data-name="Trazado 610199" d="M383.824,169.021l5.007-6.673a3.108,3.108,0,1,1,4.973,3.731l-5.18,6.9Zm0,0" transform="translate(-316.232 -132.733)" fill="#4699f2"/>
          <path id="Trazado_610200" data-name="Trazado 610200" d="M173.361,0c-8.709,0-15.771,4.387-15.771,9.8a7.75,7.75,0,0,0,3.2,5.913l-1.883,3a.751.751,0,0,0,.853,1.117l5.432-1.645a23.319,23.319,0,0,0,8.17,1.416c8.709,0,15.771-4.387,15.771-9.8S182.071,0,173.361,0Zm0,0" transform="translate(-129.838)" fill="#b4d7dc"/>
        </g>
      </g>
      <rect id="Rectángulo_348071" data-name="Rectángulo 348071" width="820" height="480" transform="translate(390 7315)" fill="none"/>
    </g>
  </g>
</svg>
