<svg xmlns="http://www.w3.org/2000/svg" width="93.406" height="83.522" viewBox="0 0 93.406 83.522">
  <g id="Grupo_1066788" data-name="Grupo 1066788" transform="translate(-126.256 -64.545)">
    <g id="google-drive" transform="translate(126.256 37.456)">
      <path id="Path_21_" d="M7.035,322.953l4.107,7.123a9.715,9.715,0,0,0,3.524,3.537L29.4,323.168l.027-14.994-14.7-6.623L0,308.121a9.692,9.692,0,0,0,1.275,4.817Z" transform="translate(0 -224.39)" fill="#06d"/>
      <path id="Path_20_" d="M46.757,59.572l.768-19.532L32.09,34.081a9.717,9.717,0,0,0-3.537,3.524L1.293,84.634A9.694,9.694,0,0,0,0,89.447l29.424.053Z" transform="translate(0 -5.716)" fill="#00ad3c"/>
      <path id="Path_19_" d="M190.566,53.856l14.139-7.606.618-17.832a9.406,9.406,0,0,0-4.812-1.293l-19.794-.035a9.96,9.96,0,0,0-4.817,1.275Z" transform="translate(-143.81 0)" fill="#00831e"/>
      <path id="Path_18_" d="M129.708,337.916l-34.559-.062L80.392,363.292a9.406,9.406,0,0,0,4.812,1.293l54.353.1a9.96,9.96,0,0,0,4.817-1.275l.057-17.087Z" transform="translate(-65.726 -254.07)" fill="#0084ff"/>
      <path id="Path_17_" d="M365.624,323.817a9.715,9.715,0,0,0,3.537-3.524l1.717-2.939,8.21-14.162a9.693,9.693,0,0,0,1.293-4.812l-17.007-8.949-12.363,8.9Z" transform="translate(-286.975 -214.48)" fill="#ff4131"/>
      <path id="Path_16_" d="M288.12,61.468,274.574,37.905a9.713,9.713,0,0,0-3.525-3.537L256.292,59.806,273.518,89.8l29.37.053a9.7,9.7,0,0,0-1.275-4.817Z" transform="translate(-209.536 -5.95)" fill="#ffba00"/>
    </g>
  </g>
</svg>
