<svg xmlns="http://www.w3.org/2000/svg" width="106.281" height="106.348" viewBox="0 0 106.281 106.348">
  <g id="Grupo_1066789" data-name="Grupo 1066789" transform="translate(-111.104 -47.248)">
    <g id="ilustrador" transform="translate(111.104 47.314)">
      <circle id="Elipse_5663" data-name="Elipse 5663" cx="53" cy="53" r="53" transform="translate(0 -0.066)" fill="#5e3c16"/>
      <path id="Trazado_615563" data-name="Trazado 615563" d="M188.824,153.861l-21.5-21.5h-9.8v9.07l5.023,5.023h-5.023v8.219l-22.312-22.312H124.288L104.369,183.5l27.52,27.52q1.959.144,3.955.146a53.141,53.141,0,0,0,53.141-53.141Q188.985,155.922,188.824,153.861Z" transform="translate(-82.704 -104.883)" fill="#472e11"/>
      <g id="Grupo_1016182" data-name="Grupo 1016182" transform="translate(21.665 27.475)">
        <path id="Trazado_615564" data-name="Trazado 615564" d="M155.683,183.5H144.451l-4.465-11.616H119.544L115.323,183.5H104.369l19.919-51.14h10.919Zm-19.012-20.233-7.047-18.977-6.907,18.977Z" transform="translate(-104.369 -132.358)" fill="#df871e"/>
        <path id="Trazado_615565" data-name="Trazado 615565" d="M360.41,141.428v-9.07h9.8v9.07Zm0,42.07V146.451h9.8V183.5h-9.8Z" transform="translate(-307.261 -132.358)" fill="#df871e"/>
      </g>
    </g>
  </g>
</svg>
