<svg xmlns="http://www.w3.org/2000/svg" width="400" height="438.792" viewBox="0 0 400 438.792">
  <g id="Grupo_1066778" data-name="Grupo 1066778" transform="translate(-1020 -7931.665)">
    <g id="Group_60_1_" data-name="Group 60 (1)" transform="translate(1020 7980.166)">
      <path id="Trazado_612110" data-name="Trazado 612110" d="M16.862,73.719,3.05,140.367c6.145,6.23,12.658,12.129,23.171,14.351L76.8,163.6,88.671,85.253,16.852,73.71Z" transform="translate(-0.167 -4.028)" fill="#fafafa"/>
      <path id="Trazado_612111" data-name="Trazado 612111" d="M13.812,69.37,0,136.018l23.171,14.351,50.577,8.9L88.684,84.051Z" transform="translate(0 -3.791)" fill="#d8d8d8"/>
      <path id="Trazado_612112" data-name="Trazado 612112" d="M9.425,136.11,0,139.665s3.4,5.549,8.366,8.555a42.325,42.325,0,0,0,14.8,5.8S12.129,148.523,9.425,136.11Z" transform="translate(0 -7.437)" fill="#bfbfbf"/>
      <path id="Trazado_612113" data-name="Trazado 612113" d="M6.31,83.469l34.572-10.73-2.2-7.279L3.54,75.679Z" transform="translate(-0.193 -3.577)" fill="#cbcbcb"/>
      <path id="Trazado_612114" data-name="Trazado 612114" d="M98.5,102.277,76.083,73.86l-6,4.67,22.14,29.126Z" transform="translate(-3.829 -4.036)" fill="#cbcbcb"/>
      <path id="Trazado_612115" data-name="Trazado 612115" d="M76.759,107.677c-.028.132-12.791-2.25-28.512-5.322S19.8,96.682,19.83,96.55s12.791,2.25,28.512,5.322S76.788,107.544,76.759,107.677Z" transform="translate(-1.084 -5.275)" fill="#bfbfbf"/>
      <path id="Trazado_612116" data-name="Trazado 612116" d="M74.369,118.487c-.028.132-12.791-2.25-28.512-5.322s-28.446-5.672-28.417-5.8,12.791,2.25,28.512,5.322S74.4,118.354,74.369,118.487Z" transform="translate(-0.953 -5.866)" fill="#bfbfbf"/>
      <path id="Trazado_612117" data-name="Trazado 612117" d="M72.819,128.177c-.028.132-12.791-2.25-28.512-5.322s-28.446-5.672-28.417-5.8,12.791,2.25,28.512,5.322S72.848,128.044,72.819,128.177Z" transform="translate(-0.868 -6.396)" fill="#bfbfbf"/>
      <path id="Trazado_612118" data-name="Trazado 612118" d="M70.949,137.437c-.028.132-12.791-2.25-28.512-5.322s-28.446-5.672-28.417-5.8,12.791,2.25,28.512,5.322S70.978,137.3,70.949,137.437Z" transform="translate(-0.766 -6.901)" fill="#bfbfbf"/>
      <path id="Trazado_612119" data-name="Trazado 612119" d="M356,40.076,338.125,83.658c-5.937,1.2-11.949,2.061-18.841-.737L286.83,68.447l23.5-49.537,45.661,21.167Z" transform="translate(-15.673 -1.033)" fill="#fafafa"/>
      <path id="Trazado_612120" data-name="Trazado 612120" d="M359.432,38.8,341.565,82.374l-18.85-.737L290.26,67.163,310.8,18.25Z" transform="translate(-15.86 -0.997)" fill="#d8d8d8"/>
      <path id="Trazado_612121" data-name="Trazado 612121" d="M339.4,80.06l4.027,5.691a20.369,20.369,0,0,1-8.111,1.673,29.139,29.139,0,0,1-10.73-2.411S333.051,86.139,339.4,80.06Z" transform="translate(-17.736 -4.375)" fill="#bfbfbf"/>
      <path id="Trazado_612122" data-name="Trazado 612122" d="M361.334,50.49,345.65,30.968l4.084-3.318,16.2,19.455Z" transform="translate(-18.887 -1.511)" fill="#cbcbcb"/>
      <path id="Trazado_612123" data-name="Trazado 612123" d="M301,26.268l23.851-7.638,1.635,5L302.513,31.78Z" transform="translate(-16.447 -1.018)" fill="#cbcbcb"/>
      <path id="Trazado_612124" data-name="Trazado 612124" d="M310.82,37c.057-.123,8.376,3.271,18.576,7.591s18.444,7.922,18.387,8.045-8.366-3.271-18.576-7.591S310.773,37.123,310.82,37Z" transform="translate(-16.984 -2.022)" fill="#bfbfbf"/>
      <path id="Trazado_612125" data-name="Trazado 612125" d="M308.01,44.13c.057-.123,8.376,3.271,18.576,7.591s18.444,7.922,18.387,8.045S336.607,56.5,326.4,52.175,307.963,44.253,308.01,44.13Z" transform="translate(-16.83 -2.411)" fill="#bfbfbf"/>
      <path id="Trazado_612126" data-name="Trazado 612126" d="M305.14,50.29c.057-.123,8.376,3.271,18.576,7.591S342.16,65.8,342.1,65.926s-8.366-3.271-18.576-7.591S305.093,50.413,305.14,50.29Z" transform="translate(-16.673 -2.748)" fill="#bfbfbf"/>
      <path id="Trazado_612127" data-name="Trazado 612127" d="M302.64,56.32c.057-.123,8.376,3.271,18.576,7.591s18.444,7.922,18.387,8.045-8.366-3.271-18.576-7.591S302.593,56.443,302.64,56.32Z" transform="translate(-16.537 -3.077)" fill="#bfbfbf"/>
      <path id="Trazado_612128" data-name="Trazado 612128" d="M338.563,231.873c-14.483-11.8-16.478-31.859-14.549-49.612.321-2.959.227-6.116,1.834-8.622s5.039-4.037,7.6-2.59c2.127,1.2,2.9,3.838,3.98,6.05a17.458,17.458,0,0,0,6.476,7.175c1.815,1.125,4.112,1.9,6.06,1,2.666-1.22,3.233-4.746,3.432-7.7q.567-8.267,1.125-16.534a27.557,27.557,0,0,1,1.541-8.707c1.125-2.732,3.347-5.19,6.22-5.767s6.23,1.3,6.608,4.235a26.845,26.845,0,0,1-.189,3.687c0,1.229.463,2.628,1.6,3.063,1.153.435,2.4-.312,3.347-1.116,3.271-2.76,5.625-6.447,7.846-10.125s4.386-7.449,7.393-10.5,7.024-5.341,11.278-5.275,8.565,3.025,9.331,7.251c.766,4.245-1.976,8.291-4.878,11.467a66.023,66.023,0,0,1-14.7,12.072,5.421,5.421,0,0,0-2.477,2.3c-.785,1.919.936,4.018,2.827,4.812,2.146.9,4.557.841,6.835,1.286s4.708,1.645,5.417,3.885c.983,3.11-1.777,6.088-4.415,7.979A56.614,56.614,0,0,1,380.66,190c-2.231.633-4.576,1.163-6.438,2.562s-3.12,3.971-2.212,6.135,3.573,3.035,5.88,2.779,4.434-1.342,6.665-1.995c4.178-1.229,9.4-.567,11.741,3.139a9.378,9.378,0,0,1,.378,8.348,21.581,21.581,0,0,1-5.02,6.967,56.876,56.876,0,0,1-25.525,15.249C356.468,235.758,347.677,235.995,338.563,231.873Z" transform="translate(-17.671 -7.133)" fill="#d8d8d8"/>
      <path id="Trazado_612129" data-name="Trazado 612129" d="M338.16,245.228a129.776,129.776,0,0,1,6.636-23.993,266.5,266.5,0,0,1,12.621-27.727c1.248-2.392,2.467-4.765,3.687-7.1s2.42-4.632,3.734-6.816a133.156,133.156,0,0,1,8.291-12.119c2.827-3.725,5.634-7.166,8.291-10.352s5.2-6.107,7.629-8.678a106.074,106.074,0,0,1,12.337-11.25c1.56-1.21,2.789-2.108,3.64-2.7.406-.284.728-.51.964-.671a2.72,2.72,0,0,1,.34-.217,3.045,3.045,0,0,1-.312.255c-.236.18-.539.416-.936.718-.822.624-2.042,1.55-3.573,2.789a111.442,111.442,0,0,0-12.2,11.344c-2.4,2.571-4.916,5.511-7.563,8.707s-5.436,6.646-8.243,10.371a133.023,133.023,0,0,0-8.225,12.091c-1.3,2.174-2.5,4.462-3.715,6.8s-2.439,4.7-3.677,7.1a270.811,270.811,0,0,0-12.639,27.661,132.2,132.2,0,0,0-6.721,23.88" transform="translate(-18.478 -7.3)" fill="#bfbfbf"/>
      <path id="Trazado_612130" data-name="Trazado 612130" d="M366.429,180.332a12.92,12.92,0,0,1-.2-1.286c-.095-.832-.189-2.033-.293-3.517-.2-2.978-.331-7.09-.463-11.628s-.321-8.641-.567-11.6c-.123-1.484-.227-2.675-.312-3.507a6.082,6.082,0,0,1-.066-1.3,6.3,6.3,0,0,1,.284,1.267c.151.822.312,2.014.482,3.5.34,2.959.6,7.081.728,11.628.123,4.481.227,8.527.312,11.628.047,1.4.085,2.581.113,3.526a5.514,5.514,0,0,1-.019,1.3Z" transform="translate(-19.918 -8.06)" fill="#bfbfbf"/>
      <path id="Trazado_612131" data-name="Trazado 612131" d="M405.063,177.687s-.548.057-1.531.066-2.4.028-4.15.1c-3.507.113-8.348.454-13.67,1.049-5.322.614-10.115,1.371-13.575,2.014-1.73.312-3.12.605-4.084.794a8.163,8.163,0,0,1-1.513.255,8.526,8.526,0,0,1,1.465-.463c.955-.255,2.335-.605,4.056-.974,3.441-.747,8.244-1.569,13.585-2.184a133.584,133.584,0,0,1,13.727-.889c1.758-.019,3.186.019,4.169.076a8.29,8.29,0,0,1,1.522.142Z" transform="translate(-20.028 -9.696)" fill="#bfbfbf"/>
      <path id="Trazado_612132" data-name="Trazado 612132" d="M344.822,222.7a4.22,4.22,0,0,1-.227-.482c-.151-.388-.331-.851-.548-1.418-.473-1.238-1.106-3.044-1.853-5.294-1.513-4.49-3.4-10.758-5.4-17.7s-3.829-13.216-5.237-17.735c-.69-2.193-1.267-4-1.692-5.341-.18-.586-.331-1.059-.454-1.456a2.028,2.028,0,0,1-.123-.52,2.147,2.147,0,0,1,.227.482c.151.388.331.851.548,1.418.473,1.238,1.106,3.044,1.853,5.294,1.513,4.49,3.4,10.758,5.4,17.7s3.829,13.216,5.237,17.735c.7,2.193,1.267,4,1.692,5.341.18.586.331,1.059.454,1.456A2.03,2.03,0,0,1,344.822,222.7Z" transform="translate(-17.993 -9.44)" fill="#bfbfbf"/>
      <path id="Trazado_612133" data-name="Trazado 612133" d="M397.422,212.34a3.975,3.975,0,0,1-.52.17c-.406.1-.9.227-1.5.378-1.39.34-3.261.794-5.54,1.352-4.67,1.144-11.117,2.789-18.227,4.632s-13.575,3.432-18.274,4.472c-2.354.52-4.254.926-5.578,1.182-.614.113-1.115.208-1.522.284a1.933,1.933,0,0,1-.539.057,2.071,2.071,0,0,1,.52-.17c.407-.1.9-.227,1.5-.378,1.39-.34,3.261-.794,5.54-1.352,4.67-1.144,11.117-2.789,18.227-4.632s13.575-3.432,18.274-4.472c2.354-.52,4.254-.926,5.578-1.182.614-.113,1.116-.208,1.522-.284A1.934,1.934,0,0,1,397.422,212.34Z" transform="translate(-18.891 -11.602)" fill="#bfbfbf"/>
      <path id="Trazado_612134" data-name="Trazado 612134" d="M400.027,412.386c0,.132-89.44.246-199.754.246S.5,412.518.5,412.386s89.421-.246,199.773-.246S400.027,412.253,400.027,412.386Z" transform="translate(-0.027 -22.52)" fill="#263238"/>
      <path id="Trazado_612135" data-name="Trazado 612135" d="M128.14,29.74l22.8,69.531c9.066,2.524,18.293,4.528,29.278.974L232.139,81.46,201.282,2.05,128.14,29.73Z" transform="translate(-86.062 -48.613)" fill="#bfbfbf"/>
      <path id="Trazado_612136" data-name="Trazado 612136" d="M122.97,27.385l22.8,69.541,29.287.974,51.919-18.794L200.641,1Z" transform="translate(-85.78 -48.555)" fill="#3b5620"/>
      <path id="Trazado_612137" data-name="Trazado 612137" d="M153.982,93.62l-6.882,8.366s6.145,3.356,12.384,3.5a45.356,45.356,0,0,0,16.9-2.524s-13.235.794-22.4-9.34Z" transform="translate(-87.098 -53.616)" fill="#3b5620"/>
      <path id="Trazado_612138" data-name="Trazado 612138" d="M153.982,93.62c-2.089,4.235-4.207,9.189-6.882,8.366,0,0,6.145,3.356,12.384,3.5a45.356,45.356,0,0,0,16.9-2.524s-13.235.794-22.4-9.34Z" transform="translate(-87.098 -53.616)" opacity="0.3"/>
      <path id="Trazado_612139" data-name="Trazado 612139" d="M123.1,45.409l26.489-28.5L143.643,11.3,116.35,39.632Z" transform="translate(-85.418 -49.118)" fill="#bfbfbf"/>
      <path id="Trazado_612140" data-name="Trazado 612140" d="M218.944,14.5,182.841,0l-3.1,7.563,36.236,15.315Z" transform="translate(-88.882 -48.501)" fill="#bfbfbf"/>
      <path id="Trazado_612141" data-name="Trazado 612141" d="M201.428,30.2c.047.132-13.14,4.727-29.438,10.276s-29.552,9.945-29.6,9.813,13.131-4.727,29.438-10.276S201.38,30.067,201.428,30.2Z" transform="translate(-86.841 -50.151)" fill="#263238"/>
      <path id="Trazado_612142" data-name="Trazado 612142" d="M204.978,41.55c.047.132-13.14,4.727-29.438,10.276s-29.552,9.945-29.6,9.813,13.131-4.727,29.438-10.276S204.93,41.417,204.978,41.55Z" transform="translate(-87.035 -50.771)" fill="#263238"/>
      <path id="Trazado_612143" data-name="Trazado 612143" d="M208.728,51.42c.047.132-13.14,4.727-29.438,10.276s-29.552,9.945-29.6,9.813,13.131-4.727,29.438-10.276S208.68,51.287,208.728,51.42Z" transform="translate(-87.24 -51.31)" fill="#263238"/>
      <path id="Trazado_612144" data-name="Trazado 612144" d="M211.938,61.06c.047.132-13.14,4.727-29.438,10.276s-29.552,9.945-29.6,9.813,13.131-4.727,29.438-10.276S211.89,60.927,211.938,61.06Z" transform="translate(-87.415 -51.837)" fill="#263238"/>
      <path id="Trazado_612145" data-name="Trazado 612145" d="M250.343,269.873l-4.576,42.588s-8.915-13.471-14.946-7.468c-5.748,5.719-15.891,47.5-15.891,47.5s-.142,13.623,7.109,17.224c23.209,11.524,49.055-10.2,49.055-10.2L267.426,237.75a48.82,48.82,0,0,0-17.083,32.133Z" transform="translate(-11.744 -12.991)" fill="#3b5620"/>
      <path id="Trazado_612146" data-name="Trazado 612146" d="M331.963,234.378l-40.187-3.214c-.246-4.689.085-22.849.085-22.849s-16.723-2.6-16.931-19.323,2.694-55.114,2.694-55.114a58.106,58.106,0,0,1,58.385,7.336l2.477,1.91-6.523,91.237Z" transform="translate(-15.022 -7.057)" fill="#b78876"/>
      <path id="Trazado_612147" data-name="Trazado 612147" d="M292.808,212.282a38.889,38.889,0,0,0,21.8-6.192s-5.152,12.034-21.838,10.522Z" transform="translate(-15.997 -11.261)" fill="#aa6550"/>
      <path id="Trazado_612148" data-name="Trazado 612148" d="M339.942,162.23c.284-.123,11.486-3.394,11.127,8.036s-11.77,8.707-11.779,8.376S339.942,162.23,339.942,162.23Z" transform="translate(-18.539 -8.836)" fill="#b78876"/>
      <path id="Trazado_612149" data-name="Trazado 612149" d="M343.129,174.642c.047-.038.2.142.529.312a1.969,1.969,0,0,0,1.484.076c1.22-.407,2.3-2.288,2.42-4.349a6.509,6.509,0,0,0-.463-2.864,2.3,2.3,0,0,0-1.446-1.579,1,1,0,0,0-1.191.51c-.161.312-.095.548-.161.567-.028.028-.236-.2-.132-.671a1.271,1.271,0,0,1,.473-.7,1.5,1.5,0,0,1,1.106-.255,2.8,2.8,0,0,1,2.023,1.834,6.681,6.681,0,0,1,.586,3.2c-.151,2.3-1.4,4.415-3.063,4.84a2.148,2.148,0,0,1-1.815-.359c-.34-.293-.4-.548-.359-.567Z" transform="translate(-18.748 -9.053)" fill="#aa6550"/>
      <path id="Trazado_612150" data-name="Trazado 612150" d="M281.68,161.445a2.391,2.391,0,0,0,2.307,2.411,2.277,2.277,0,0,0,2.458-2.155,2.384,2.384,0,0,0-2.3-2.411A2.3,2.3,0,0,0,281.68,161.445Z" transform="translate(-15.391 -8.704)" fill="#263238"/>
      <path id="Trazado_612151" data-name="Trazado 612151" d="M281.127,158.9c.293.312,2.108-1.03,4.67-1.021,2.562-.028,4.453,1.3,4.727.974.132-.142-.161-.7-.983-1.3a6.514,6.514,0,0,0-3.791-1.163,6.243,6.243,0,0,0-3.725,1.2c-.794.605-1.059,1.172-.908,1.3Z" transform="translate(-15.359 -8.545)" fill="#263238"/>
      <path id="Trazado_612152" data-name="Trazado 612152" d="M308.3,162.4a2.391,2.391,0,0,0,2.307,2.411,2.278,2.278,0,0,0,2.458-2.155,2.39,2.39,0,0,0-2.3-2.411A2.292,2.292,0,0,0,308.3,162.4Z" transform="translate(-16.846 -8.756)" fill="#263238"/>
      <path id="Trazado_612153" data-name="Trazado 612153" d="M307.838,159.4c.293.312,2.108-1.03,4.68-1.021,2.562-.028,4.453,1.3,4.727.974.132-.142-.161-.7-.983-1.3a6.582,6.582,0,0,0-3.791-1.172,6.243,6.243,0,0,0-3.725,1.2c-.785.605-1.059,1.172-.908,1.3Z" transform="translate(-16.819 -8.573)" fill="#263238"/>
      <path id="Trazado_612154" data-name="Trazado 612154" d="M297.6,178.473c.009-.142-1.588-.425-4.169-.756-.652-.066-1.276-.2-1.39-.643a3.422,3.422,0,0,1,.435-1.947c.614-1.588,1.267-3.252,1.938-4.991,2.694-7.109,4.642-12.961,4.358-13.065s-2.7,5.578-5.4,12.687c-.652,1.758-1.267,3.422-1.862,5.029a3.826,3.826,0,0,0-.34,2.571,1.628,1.628,0,0,0,1.078.955,4.235,4.235,0,0,0,1.116.151c2.6.142,4.216.151,4.226,0Z" transform="translate(-15.904 -8.583)" fill="#263238"/>
      <path id="Trazado_612155" data-name="Trazado 612155" d="M307.139,148.788c.255.7,2.817.369,5.833.728,3.025.3,5.455,1.182,5.852.558.18-.3-.246-.955-1.229-1.635a9.879,9.879,0,0,0-4.339-1.522,9.68,9.68,0,0,0-4.566.539c-1.106.444-1.664.993-1.55,1.324Z" transform="translate(-16.782 -8.024)" fill="#263238"/>
      <path id="Trazado_612156" data-name="Trazado 612156" d="M282.126,151.026c.454.586,2.222-.019,4.349-.047,2.127-.1,3.933.388,4.349-.217.18-.293-.1-.879-.889-1.437a6.3,6.3,0,0,0-7.005.217C282.173,150.138,281.928,150.743,282.126,151.026Z" transform="translate(-15.412 -8.107)" fill="#263238"/>
      <path id="Trazado_612157" data-name="Trazado 612157" d="M269.169,122.183a6.177,6.177,0,0,1,2.278-5.511,4.371,4.371,0,0,1,5.672.425,5.1,5.1,0,0,1,4.4-6.192c2.723-.17,5.048,1.891,7.686,2.609a12.423,12.423,0,0,0,7.809-.9c2.477-.993,4.784-2.373,7.289-3.29a21.375,21.375,0,0,1,27.34,12.554c3.659-1.144,7.809.718,10.068,3.81a15.565,15.565,0,0,1,2.382,10.966,35.134,35.134,0,0,1-1.91,7.506c0,.217.019.425.019.643-.17,9.189-1.21,19.994-5.133,20.051-6.835.1-5.209-12.772-5.209-12.772-8.385-3.243-5.266-15.816-7.364-17.716s-6.485-6.334-24.05,2.638c-6.816,3.488-15.891,3.375-20.836,2.25l-.435-.085a.4.4,0,0,1-.1-.019c-.057-.009-.095-.047-.142-.057a15.593,15.593,0,0,1-4.5-1.91,8.938,8.938,0,0,1-3.715-4.131,4.886,4.886,0,0,1,.955-5.237,10.731,10.731,0,0,1-2.486-5.625Z" transform="translate(-14.706 -5.904)" fill="#263238"/>
      <path id="Trazado_612158" data-name="Trazado 612158" d="M363.809,344.816l1.267,23.728,2.827,34.08H260.49l4.661-50.35L256,272.723c.794-28.115,11.59-39.8,33.674-42.484.18-.019-1.929.236-1.739.217,3.044-.359,0,0,1.739-.217a71.127,71.127,0,0,0,42.853-.028c6.627.284,12.11,2.316,17.744,3.4,17.744,3.4,32.35,17.111,35.9,29.041,2.921,9.822,24.05,95.027,24.05,95.027H368.186l-4.377-12.857Z" transform="translate(-13.988 -12.579)" fill="#3b5620"/>
      <path id="Trazado_612159" data-name="Trazado 612159" d="M295.65,187.9a11.523,11.523,0,0,0,1.494,2.921,3.87,3.87,0,0,0,2.76,1.6,3.46,3.46,0,0,0,2.94-1.607,5.6,5.6,0,0,0,.822-3.347c-.047-1.059-.529-2.316-1.579-2.439a2.649,2.649,0,0,0-1.276.284c-1.834.747-3.677,1.494-5.511,2.24" transform="translate(-16.136 -10.11)" fill="#aa6550"/>
      <path id="Trazado_612160" data-name="Trazado 612160" d="M297.792,192.409a7.878,7.878,0,0,0,2.94-.359,4.193,4.193,0,0,0,2.222-2.023,4.432,4.432,0,0,0,.076-3.611,3.919,3.919,0,0,0-.482-.822c-.217-.227-.18-.217-.416-.18a8.034,8.034,0,0,0-.879.35c-.312.123-.605.246-.908.369-1.182.482-2.25.9-3.148,1.229a10.308,10.308,0,0,1-3.006.908,9.868,9.868,0,0,1,2.732-1.541c.87-.416,1.91-.908,3.072-1.427.293-.132.586-.265.889-.4a10.436,10.436,0,0,1,1.012-.416,1.3,1.3,0,0,1,.822.028,1.4,1.4,0,0,1,.605.482,4.887,4.887,0,0,1,.624,1.049,5.159,5.159,0,0,1-.17,4.415,4.667,4.667,0,0,1-2.8,2.259,4.468,4.468,0,0,1-2.392.095c-.548-.142-.8-.331-.785-.388Z" transform="translate(-16.075 -10.078)" fill="#263238"/>
      <path id="Trazado_612161" data-name="Trazado 612161" d="M252.14,339.1l-25.3-77.671-2.288-13.046s-6.882-29.07-7.185-31.953c-.35-3.328-2.042-3.952-3.261-3.744-1.9.331-3,2.827-2.779,5.691.076.993,1.872,16.553,1.872,16.553a37.073,37.073,0,0,0-3.469-3.876c-2.619-2.666-8.206-3.753-13.736-2.978s-7.015,1.484-6.807,3.649A2.765,2.765,0,0,0,190.5,233.7a5.48,5.48,0,0,0,3.8.87c8.877-1.125,11.779,3.375,11.779,3.375l.3,1.7s-5.823-3.28-9.945-1.182a5.324,5.324,0,0,0-1.607,1.248,6.993,6.993,0,0,0-4.906,11.023c.69.964,1.853,1.8,2.978,1.446a3.686,3.686,0,0,0,1.465-1.125,6.128,6.128,0,0,1,.728-.671l1.513,4.661s3.952,10.295,5.162,14.965l12.318,78.21a19.632,19.632,0,1,0,38.06-9.132Z" transform="translate(-10.308 -11.62)" fill="#b78876"/>
      <path id="Trazado_612162" data-name="Trazado 612162" d="M225.147,262.338c-1.588.624-3.384-.4-4.424-1.739s-1.588-3.016-2.524-4.434c-2.8-4.254-8.631-5.8-11.231-10.172-.359-.614-.615-1.475-.095-1.957.482-.444,1.257-.217,1.862.038q7.771,3.276,15.542,6.542" transform="translate(-11.288 -13.321)" fill="#b78876"/>
      <path id="Trazado_612163" data-name="Trazado 612163" d="M224.25,250.578a7,7,0,0,0-1.607-.879c-1.059-.51-2.609-1.22-4.519-2.07-2-.879-4.273-1.872-6.759-2.959-.643-.274-1.3-.558-1.957-.841a3.323,3.323,0,0,0-2.486-.425,1.421,1.421,0,0,0-.832,1.361,2.856,2.856,0,0,0,.388,1.323,11.026,11.026,0,0,0,1.494,1.985c2.316,2.42,5.114,3.791,7.213,5.511a12.624,12.624,0,0,1,2.647,2.732c.671.974,1.134,2.033,1.664,2.959a5.933,5.933,0,0,0,3.8,3.29c1.248.227,1.872-.246,1.834-.265a4.81,4.81,0,0,1-1.749-.095,5.737,5.737,0,0,1-3.29-3.252,33.6,33.6,0,0,0-1.6-3.072,12.906,12.906,0,0,0-2.751-2.978c-2.165-1.825-4.935-3.243-7.071-5.483a10.393,10.393,0,0,1-1.361-1.787c-.35-.605-.378-1.257-.019-1.361.378-.17,1.087.123,1.758.406s1.323.548,1.966.813c2.515,1.012,4.812,1.947,6.835,2.76,1.947.775,3.536,1.39,4.642,1.787a7.03,7.03,0,0,0,1.749.539Z" transform="translate(-11.261 -13.293)" fill="#aa6550"/>
      <path id="Trazado_612164" data-name="Trazado 612164" d="M206.616,240.77a6.912,6.912,0,0,0-1.342-2.883,5.345,5.345,0,0,0-2.921-1.673,13.771,13.771,0,0,0-4.273-.151,21.933,21.933,0,0,1-4.434.085,7.163,7.163,0,0,1-3.451-1.276,2.754,2.754,0,0,1-1.125-2.2,1.8,1.8,0,0,1,.2-.889c.057.009-.009.331.038.879a2.615,2.615,0,0,0,1.153,1.872,6.956,6.956,0,0,0,3.243,1.059,23.423,23.423,0,0,0,4.32-.142,13.369,13.369,0,0,1,4.462.217,5.618,5.618,0,0,1,3.12,1.947,4.972,4.972,0,0,1,1,2.259,1.763,1.763,0,0,1,0,.908Z" transform="translate(-10.331 -12.665)" fill="#aa6550"/>
      <path id="Trazado_612165" data-name="Trazado 612165" d="M212.564,217.56a18.524,18.524,0,0,1,.378,3.091c.208,2.127.454,4.661.718,7.459.312,2.8.6,5.332.832,7.449a17.046,17.046,0,0,1,.265,3.1,13.485,13.485,0,0,1-.7-3.035c-.34-1.891-.709-4.528-1.021-7.449s-.482-5.578-.539-7.5a14.469,14.469,0,0,1,.057-3.12Z" transform="translate(-11.61 -11.888)" fill="#aa6550"/>
      <path id="Trazado_612166" data-name="Trazado 612166" d="M203.714,245.222s-.35-.076-.945-.255a2.9,2.9,0,0,0-2.4.142,1.534,1.534,0,0,0-.662,1.38,8.835,8.835,0,0,0,.359,1.995,3.525,3.525,0,0,1-.1,2.477,2.961,2.961,0,0,1-2.24,1.484,3.369,3.369,0,0,1-2.552-.794,4.181,4.181,0,0,1-1.38-2.042,13.725,13.725,0,0,1-.369-3.989,8.062,8.062,0,0,1,.51-2.647c.255-.6.529-.841.548-.822.047.038-.151.321-.321.908a9.273,9.273,0,0,0-.3,2.581,14.865,14.865,0,0,0,.473,3.819,3.345,3.345,0,0,0,3.309,2.382,2.408,2.408,0,0,0,1.787-1.153,2.982,2.982,0,0,0,.085-2.07,8.366,8.366,0,0,1-.321-2.146,1.987,1.987,0,0,1,.945-1.73,3.028,3.028,0,0,1,2.723,0C203.44,245,203.733,245.185,203.714,245.222Z" transform="translate(-10.568 -13.231)" fill="#aa6550"/>
      <path id="Trazado_612167" data-name="Trazado 612167" d="M195.076,251.124a1.374,1.374,0,0,1,0,.889,2.744,2.744,0,0,1-1.635,1.8,3.631,3.631,0,0,1-3.526-.69,5.956,5.956,0,0,1-1.966-3.933,7.213,7.213,0,0,1,.879-4.3,6.79,6.79,0,0,1,2.534-2.524,6.505,6.505,0,0,1,2.269-.8c.567-.076.879-.047.879,0a11.328,11.328,0,0,0-2.912,1.182,6.653,6.653,0,0,0-3.035,6.381,5.461,5.461,0,0,0,1.711,3.564,3.2,3.2,0,0,0,3.006.709,2.546,2.546,0,0,0,1.55-1.456c.2-.492.17-.813.217-.813Z" transform="translate(-10.268 -13.197)" fill="#aa6550"/>
      <path id="Trazado_612168" data-name="Trazado 612168" d="M208.02,261.05a2.575,2.575,0,0,1,1.494-.142,5.829,5.829,0,0,1,3.451,1.617l-.51.208a18.339,18.339,0,0,1,.123-2.108c.473-4.1,2.392-6.948,2.505-6.844.17.076-1.446,2.968-1.891,6.92a19.71,19.71,0,0,0-.142,2.042l-.019.709-.492-.5a6.151,6.151,0,0,0-3.091-1.664c-.879-.189-1.427-.151-1.427-.227Z" transform="translate(-11.367 -13.867)" fill="#aa6550"/>
      <path id="Trazado_612169" data-name="Trazado 612169" d="M204.45,233.47c.151.057-.331,1.238-1.635,1.966-1.3.747-2.562.548-2.524.388,0-.18,1.1-.274,2.222-.926C203.655,234.264,204.3,233.375,204.45,233.47Z" transform="translate(-10.944 -12.757)" fill="#aa6550"/>
      <path id="Trazado_612170" data-name="Trazado 612170" d="M275.553,233.457s-.35.378-.983,1.106a11.3,11.3,0,0,0-2.193,3.517,4.568,4.568,0,0,0-.246,1.361,3.1,3.1,0,0,0,.359,1.428,5.015,5.015,0,0,0,2.723,2.023,26.759,26.759,0,0,0,8.65,1.219c1.626.028,3.384.095,5.181.2.9.1,1.815.217,2.751.321s1.872.35,2.827.529a28.66,28.66,0,0,1,11.363,5.048,21.031,21.031,0,0,1,4.7,4.925,17.455,17.455,0,0,1,.889,1.531c.274.548.463,1.1.7,1.635a20.176,20.176,0,0,1,.983,3.46,21.947,21.947,0,0,1-2.222,14.53,21.19,21.19,0,0,1-11.174,9.539,22.146,22.146,0,0,1-6.958,1.38,26.582,26.582,0,0,1-6.731-.822,43.278,43.278,0,0,0-6.183-1.106,10.645,10.645,0,0,0-5.615.993,14.548,14.548,0,0,0-4.207,3.413c-1.182,1.323-2.184,2.713-3.176,4.037-1.966,2.638-4.037,4.954-6.466,6.173a8,8,0,0,1-3.6.945,8.126,8.126,0,0,1-3.072-.577,6.62,6.62,0,0,1-2.108-1.333,5.039,5.039,0,0,1-1.059-1.494,3.274,3.274,0,0,1-.331-1.456,14.5,14.5,0,0,0,.51,1.361,5.2,5.2,0,0,0,1.078,1.361,6.575,6.575,0,0,0,2.042,1.191,7.484,7.484,0,0,0,6.277-.5c2.269-1.2,4.245-3.46,6.154-6.107.964-1.323,1.966-2.742,3.157-4.122a15.358,15.358,0,0,1,4.405-3.64,11.571,11.571,0,0,1,6.041-1.125,43.36,43.36,0,0,1,6.324,1.078,26.219,26.219,0,0,0,6.5.766,21.276,21.276,0,0,0,6.646-1.342,20.233,20.233,0,0,0,10.645-9.113,21.069,21.069,0,0,0,2.146-13.878,19.722,19.722,0,0,0-.926-3.309c-.217-.529-.416-1.078-.652-1.55a14.51,14.51,0,0,0-.832-1.437,20.023,20.023,0,0,0-4.462-4.717,28.028,28.028,0,0,0-10.995-4.973c-.936-.18-1.853-.435-2.77-.548s-1.815-.236-2.7-.35c-1.777-.123-3.479-.208-5.133-.255a26.9,26.9,0,0,1-8.83-1.409,5.482,5.482,0,0,1-2.94-2.316,3.534,3.534,0,0,1-.378-1.664,5.17,5.17,0,0,1,.312-1.484,10.622,10.622,0,0,1,2.411-3.526,5.822,5.822,0,0,1,1.125-.974Z" transform="translate(-13.679 -12.753)" fill="#fafafa"/>
      <path id="Trazado_612171" data-name="Trazado 612171" d="M353.048,298.516a9.658,9.658,0,0,1-.454-2.127,17.5,17.5,0,0,1,.4-5.927,22.735,22.735,0,0,1,3.668-8.017,26.349,26.349,0,0,1,7.941-7.327,33.271,33.271,0,0,1,10.1-3.81,43.46,43.46,0,0,1,8.745-.9,48.25,48.25,0,0,1,5.9.3,9.05,9.05,0,0,1,2.137.369c-.009.18-3.082-.161-8.017.028A48.4,48.4,0,0,0,374.9,272.2a34.035,34.035,0,0,0-9.784,3.772,26.382,26.382,0,0,0-7.7,7.005,23.175,23.175,0,0,0-3.734,7.657,20.016,20.016,0,0,0-.69,5.729A13.3,13.3,0,0,1,353.048,298.516Z" transform="translate(-19.261 -14.776)" fill="#fafafa"/>
      <path id="Trazado_612172" data-name="Trazado 612172" d="M405.12,317.519A11.291,11.291,0,0,1,404,319.183a27.065,27.065,0,0,1-3.81,3.9,31.4,31.4,0,0,1-16.355,7.166,31.5,31.5,0,0,1-17.6-3.072,26.962,26.962,0,0,1-4.623-2.893,6.528,6.528,0,0,1-1.475-1.352c.113-.161,2.278,1.73,6.4,3.611a31.758,31.758,0,0,0,33.21-4.008c3.555-2.808,5.209-5.152,5.36-5.029Z" transform="translate(-19.679 -17.349)" fill="#fafafa"/>
      <path id="Trazado_612173" data-name="Trazado 612173" d="M354.26,314.33s-.3.132-.86.35a6.45,6.45,0,0,0-2.165,1.437,10.479,10.479,0,0,0-2.174,3.488,32.982,32.982,0,0,0-1.522,5.332A61.606,61.606,0,0,1,346,331.6a15.791,15.791,0,0,1-1.635,3.526,13.694,13.694,0,0,1-2.76,3.082,21.687,21.687,0,0,1-7.809,3.952c-2.912.86-5.994,1.333-9.094,1.947a38.231,38.231,0,0,0-16.166,6.731,26.588,26.588,0,0,0-5.389,5.426,23.647,23.647,0,0,0-3.072,5.918,20.523,20.523,0,0,0-1,9.567c.34,2.278.86,3.479.756,3.507a3.3,3.3,0,0,1-.4-.851,10.7,10.7,0,0,1-.369-1.078,12.7,12.7,0,0,1-.369-1.513,19.906,19.906,0,0,1,.718-9.851,23.887,23.887,0,0,1,3.072-6.164,26.809,26.809,0,0,1,5.5-5.672,38.422,38.422,0,0,1,16.525-6.977c3.129-.614,6.183-1.078,9.009-1.9a20.948,20.948,0,0,0,7.506-3.725,12.806,12.806,0,0,0,2.609-2.855,15.177,15.177,0,0,0,1.588-3.309,66.893,66.893,0,0,0,1.635-6.551,31.406,31.406,0,0,1,1.692-5.4,10.633,10.633,0,0,1,2.42-3.555,6.234,6.234,0,0,1,2.363-1.352,2.4,2.4,0,0,1,.926-.161Z" transform="translate(-16.303 -17.176)" fill="#fafafa"/>
      <path id="Trazado_612174" data-name="Trazado 612174" d="M329.78,309.807a4.705,4.705,0,0,1,.492,1.938,8.272,8.272,0,0,1-1.513,5.228,8.056,8.056,0,0,1-2.846,2.581,7.571,7.571,0,0,1-2.051.747,8.144,8.144,0,0,1-2.307.095,8.986,8.986,0,0,1-4.538-1.834,8.131,8.131,0,0,1-2.931-4.386,7.594,7.594,0,0,1-.047-3.479,7.733,7.733,0,0,1,1.5-2.968,16.456,16.456,0,0,1,2.07-2.269,7.943,7.943,0,0,1,1.2-.9,3.167,3.167,0,0,1,1.484-.52l.123.841c-.161.038-.312.076-.463.113l-.236-.813a8.026,8.026,0,0,1,5.209.284,8.671,8.671,0,0,1,3.29,2.269,7.112,7.112,0,0,1,1.342,2.174c.189.558.236.87.2.879a12.223,12.223,0,0,0-1.91-2.713,8.415,8.415,0,0,0-3.167-1.966,7.459,7.459,0,0,0-4.717-.123l-.236-.813c.151-.038.3-.085.463-.123l.123.841a4.274,4.274,0,0,0-2.108,1.238,15.739,15.739,0,0,0-1.919,2.155,6.227,6.227,0,0,0-1.267,5.634,7.144,7.144,0,0,0,2.571,3.857,8.192,8.192,0,0,0,4.046,1.692,7.425,7.425,0,0,0,2.051-.047,7.218,7.218,0,0,0,1.834-.615,7.487,7.487,0,0,0,2.656-2.269,8.359,8.359,0,0,0,1.692-4.812c.019-1.238-.2-1.919-.1-1.938Z" transform="translate(-17.15 -16.604)" fill="#fafafa"/>
      <path id="Trazado_612175" data-name="Trazado 612175" d="M266.018,277.49a1.731,1.731,0,0,1,0,.255c0,.2-.009.444-.028.747-.038.69-.085,1.645-.142,2.855-.151,2.477-.293,6.06-.492,10.484-.369,8.858-.728,21.091-1.021,34.619s-.463,25.77-.6,34.638c-.066,4.405-.123,7.979-.161,10.493-.028,1.21-.047,2.165-.057,2.855q-.014.454-.028.737a.6.6,0,0,1-.028.255,1.765,1.765,0,0,1-.028-.255c0-.2-.009-.444-.019-.747,0-.69-.019-1.645-.028-2.855v-10.5c.038-8.867.161-21.11.454-34.638s.7-25.77,1.163-34.619c.246-4.424.444-8.007.652-10.484.095-1.21.18-2.155.236-2.845.028-.3.057-.548.076-.737.019-.17.038-.255.038-.255Z" transform="translate(-14.392 -15.163)" fill="#263238"/>
      <g id="Grupo_1015766" data-name="Grupo 1015766" transform="translate(233.56 293.089)" opacity="0.2">
        <path id="Trazado_612176" data-name="Trazado 612176" d="M247.06,367.167c5.275,2.524,12.167-2.326,14.861-7.516,0,0,1.409-11.439,1.21-17.281-.359-10.815.425-21.526.066-32.341a34.042,34.042,0,0,1-7.714,17.565c-1.153,1.371-2.467,2.723-2.9,4.472-.775,3.12,1.607,8.726,3.139,11.552,4.689,8.641-5.578,23.6-8.319,23.322" transform="translate(-247.06 -310.03)"/>
      </g>
      <g id="Grupo_1015767" data-name="Grupo 1015767" transform="translate(332.284 279.656)" opacity="0.2">
        <path id="Trazado_612177" data-name="Trazado 612177" d="M351.49,295.82q2.6,32.331,5.181,64.663a19.19,19.19,0,0,0,1.134,5.994,6.462,6.462,0,0,0,4.349,3.971c3.063.624,6.031-2.014,6.9-5.02s.17-6.211-.577-9.255c-1.286-5.171-2.732-10.295-4.188-15.419q-6.324-22.306-12.658-44.6" transform="translate(-351.49 -295.82)"/>
      </g>
      <path id="Trazado_612178" data-name="Trazado 612178" d="M287.476,407.882a12.192,12.192,0,0,0,1.437-3.432c.539-2.335.2-5.946-1.607-9.851-.889-1.957-2.146-3.98-3.413-6.22a27.119,27.119,0,0,1-3.2-7.639,18.206,18.206,0,0,1,.671-9.151c.926-3.044,2.307-6,3.422-9.1a27.255,27.255,0,0,0,.473-18.075,26.548,26.548,0,0,0-3.583-7.175,27.56,27.56,0,0,0-4.784-5.124,28.36,28.36,0,0,0-8.877-4.954c-2.3-.766-3.64-.974-3.621-1.068a3.677,3.677,0,0,1,.983.085,21.149,21.149,0,0,1,2.751.614,27.1,27.1,0,0,1,9.2,4.774,27.647,27.647,0,0,1,5,5.19,27.1,27.1,0,0,1,3.781,7.374,27.862,27.862,0,0,1-.407,18.7c-1.134,3.158-2.515,6.1-3.422,9.057a17.34,17.34,0,0,0-.7,8.688,26.888,26.888,0,0,0,3.025,7.421c1.229,2.241,2.458,4.3,3.337,6.334,1.777,4.056,2.023,7.828,1.342,10.229a9.02,9.02,0,0,1-1.163,2.59,3.763,3.763,0,0,1-.643.747Z" transform="translate(-14.447 -17.817)" fill="#fafafa"/>
      <path id="Trazado_612179" data-name="Trazado 612179" d="M380.607,247.352a6.964,6.964,0,0,1-.917,1.881,13.734,13.734,0,0,1-4.1,3.98,17.5,17.5,0,0,1-8.054,2.666,26.644,26.644,0,0,1-10.295-1.314,21.515,21.515,0,0,1-8.99-5.218,13.284,13.284,0,0,1-2.619-3.781,12.5,12.5,0,0,1-1.021-3.876,9.868,9.868,0,0,1,1.049-5.625,4.667,4.667,0,0,1,.482-.766,3.213,3.213,0,0,1,.416-.52c.246-.265.378-.388.406-.369.076.057-.416.624-.955,1.815a10.1,10.1,0,0,0-.7,5.379,12.086,12.086,0,0,0,1.068,3.611A12.716,12.716,0,0,0,348.9,248.7a21.239,21.239,0,0,0,8.641,4.916,27,27,0,0,0,9.926,1.352,17.363,17.363,0,0,0,7.761-2.354,15.048,15.048,0,0,0,4.16-3.611c.813-1.04,1.153-1.692,1.229-1.654Z" transform="translate(-18.827 -12.808)" fill="#fafafa"/>
      <path id="Trazado_612180" data-name="Trazado 612180" d="M367.676,349.734s-.038-.085-.1-.265c-.066-.208-.142-.463-.246-.794-.217-.728-.52-1.758-.9-3.063-.766-2.694-1.862-6.542-3.214-11.278-2.675-9.558-6.362-22.717-10.437-37.247-2.014-7.279-3.942-14.209-5.691-20.524a69.615,69.615,0,0,1-2.014-9.094,28.171,28.171,0,0,1-.028-8.121,17.455,17.455,0,0,1,5.351-10.286,12.9,12.9,0,0,1,2.656-1.787c.312-.132.567-.236.766-.321a1.424,1.424,0,0,1,.265-.095,14.969,14.969,0,0,0-3.564,2.344,17.52,17.52,0,0,0-5.133,10.2,27.833,27.833,0,0,0,.085,8.007,72.981,72.981,0,0,0,2.042,9.028c1.758,6.306,3.7,13.235,5.729,20.514,4.018,14.549,7.657,27.718,10.295,37.285,1.286,4.755,2.335,8.612,3.063,11.316.34,1.314.615,2.344.813,3.082.085.331.151.6.2.8a1.173,1.173,0,0,1,.047.284Z" transform="translate(-18.839 -13.489)" fill="#263238"/>
      <path id="Trazado_612181" data-name="Trazado 612181" d="M325.671,133.67a10.122,10.122,0,0,0,0-2.023,7.886,7.886,0,0,0-2.609-4.7,10.622,10.622,0,0,0-7.525-2.486c-3.091.028-6.381,1.04-9.784,2.184a52.093,52.093,0,0,1-5.058,1.465,26.277,26.277,0,0,1-13.122-.492,25.392,25.392,0,0,1-5.152-2.184,15.11,15.11,0,0,1-1.3-.8,2.192,2.192,0,0,1-.425-.321c.028-.047.633.359,1.815.945a28.553,28.553,0,0,0,5.162,2.023,27.21,27.21,0,0,0,8.13.964,26.419,26.419,0,0,0,4.8-.615c1.645-.369,3.309-.908,5.01-1.465,3.394-1.144,6.75-2.174,9.926-2.174a10.88,10.88,0,0,1,7.771,2.685,7.953,7.953,0,0,1,2.571,4.925,4.669,4.669,0,0,1-.2,2.042Z" transform="translate(-15.338 -6.775)" fill="#455a64"/>
      <path id="Trazado_612182" data-name="Trazado 612182" d="M341.429,162.224a2.127,2.127,0,0,1-.217-.35c-.132-.236-.312-.6-.52-1.068a22.048,22.048,0,0,1-1.333-4.16,22.991,22.991,0,0,1-.435-6.466,56.759,56.759,0,0,1,1.494-7.771,15.218,15.218,0,0,0,.019-7.686,7.825,7.825,0,0,0-1.6-2.912,5.9,5.9,0,0,0-2.4-1.579,5.488,5.488,0,0,0-4.122.1,8.367,8.367,0,0,0-1.286.9,3.154,3.154,0,0,1,1.191-1.068,5.564,5.564,0,0,1,4.33-.265,6.1,6.1,0,0,1,2.59,1.626,7.932,7.932,0,0,1,1.73,3.054,15.483,15.483,0,0,1,.038,7.922,60.379,60.379,0,0,0-1.522,7.7,23.815,23.815,0,0,0,1.494,10.512,12.25,12.25,0,0,1,.558,1.494Z" transform="translate(-18.088 -7.081)" fill="#455a64"/>
      <path id="Trazado_612183" data-name="Trazado 612183" d="M327.174,131.714s-.009-.236,0-.671c.019-.492.038-1.125.076-1.919a22.176,22.176,0,0,0-.775-6.939,12.413,12.413,0,0,0-2.231-4.216,8.623,8.623,0,0,0-4.481-2.959,11.273,11.273,0,0,0-5.984.246,27.863,27.863,0,0,0-5.984,2.713,49.731,49.731,0,0,1-5.937,3.054,18.028,18.028,0,0,1-6.116,1.229,18.971,18.971,0,0,1-5.6-.69,21.748,21.748,0,0,1-4.547-1.872,18.591,18.591,0,0,1-5.379-4.594,11.76,11.76,0,0,1-1.087-1.588,2.951,2.951,0,0,1-.321-.586,4.252,4.252,0,0,1,.406.539,14.623,14.623,0,0,0,1.153,1.522,19.132,19.132,0,0,0,5.4,4.405,21.291,21.291,0,0,0,4.481,1.777,18.945,18.945,0,0,0,5.483.624,17.716,17.716,0,0,0,5.946-1.22,48.9,48.9,0,0,0,5.871-3.035,27.438,27.438,0,0,1,6.1-2.751,11.679,11.679,0,0,1,6.23-.217,9.043,9.043,0,0,1,4.68,3.139,12.4,12.4,0,0,1,2.25,4.377,21.611,21.611,0,0,1,.633,7.052c-.047.832-.113,1.484-.161,1.919A3.8,3.8,0,0,1,327.174,131.714Z" transform="translate(-15.235 -6.17)" fill="#455a64"/>
      <path id="Trazado_612184" data-name="Trazado 612184" d="M303.435,381.867l70.694-10.541-1.144-6.287h38.051l1.116,9.671a29.244,29.244,0,0,1-28.427,34.77l-82.454-.917Z" transform="translate(-16.462 -19.946)" fill="#b78876"/>
      <path id="Trazado_612185" data-name="Trazado 612185" d="M306.009,383.735c-.378.123-5.143-2-9.406-3.98a30.711,30.711,0,0,0-14.483-2.808l-19.654,1s1.21,3.243,3.3,4.4,14.3,1.4,14.3,1.4l-.624.643a14.155,14.155,0,0,1-9.784,4.283l-1.881.047a18.436,18.436,0,0,1-4.1-.8l-4.85-1.957c-1.465-.662-3.016-.558-3.659.926-.577,1.333-.151,3.176,3.848,5.19,2.241,1.125,10.531,4,10.531,4a20.2,20.2,0,0,0,.482,3.5c.359,1.21,3.621,2.411,3.621,2.411a43.276,43.276,0,0,0,2.893,5.19c.378.435,3.328,1.352,6.476,2.231a27.824,27.824,0,0,0,15.485-.113l7.487-2.24V384.227" transform="translate(-13.931 -20.595)" fill="#b78876"/>
      <path id="Trazado_612186" data-name="Trazado 612186" d="M279.936,399.748a22.384,22.384,0,0,1-9.926-2.609c.057-.132,2.2.69,4.935,1.409s5,1.059,4.982,1.2Z" transform="translate(-14.754 -21.7)" fill="#aa6550"/>
      <path id="Trazado_612187" data-name="Trazado 612187" d="M279.477,404.686a7.2,7.2,0,0,1-5.247-1.427,19.612,19.612,0,0,1,2.619.747,19.863,19.863,0,0,1,2.638.671Z" transform="translate(-14.984 -22.034)" fill="#aa6550"/>
      <path id="Trazado_612188" data-name="Trazado 612188" d="M397.018,388.157c-.095.038-.558-1.371-1.692-3.441a27.271,27.271,0,0,0-2.259-3.46,27.269,27.269,0,0,0-7.487-6.731,26.78,26.78,0,0,0-3.687-1.881c-2.184-.908-3.621-1.22-3.6-1.314a4.515,4.515,0,0,1,1.021.17,9.183,9.183,0,0,1,1.172.312c.454.142.974.284,1.531.51a24.115,24.115,0,0,1,3.791,1.815,27.493,27.493,0,0,1,4.16,3.044,28.282,28.282,0,0,1,3.469,3.8,24.345,24.345,0,0,1,2.212,3.573,14.6,14.6,0,0,1,.671,1.465,11.022,11.022,0,0,1,.435,1.134,3.835,3.835,0,0,1,.274,1Z" transform="translate(-20.67 -20.29)" fill="#aa6550"/>
      <path id="Trazado_612189" data-name="Trazado 612189" d="M282.826,382.26a15.208,15.208,0,0,1-1.522,1.626,24.418,24.418,0,0,1-4.282,3.243,16.85,16.85,0,0,1-5.02,1.938,7.016,7.016,0,0,1-2.212.236c-.047-.18,3.4-.492,6.986-2.6a33.991,33.991,0,0,0,4.3-3.082A12,12,0,0,1,282.826,382.26Z" transform="translate(-14.742 -20.887)" fill="#aa6550"/>
      <path id="Trazado_612190" data-name="Trazado 612190" d="M67.448,351.677c1.683,0-12.876,39.119-16.619,49.111-.416,1.106-.709,2.08-.709,2.08l101.929.18-1.2-94.838a1.268,1.268,0,0,0-.009-.189l-8.527-67.839a1.682,1.682,0,0,0-1.22-1.409c-4.037-1.1-18.576-4.85-29.7-5.256-13.046-.482-31.906,2.108-31.906,2.108s-16.922,1.749-26.243,5.1a1.685,1.685,0,0,0-1.1,1.806L67.448,351.686Z" transform="translate(-2.739 -12.756)" fill="#3b5620"/>
      <path id="Trazado_612191" data-name="Trazado 612191" d="M116.687,314.05a13.2,13.2,0,0,1-.51,1.229,10.41,10.41,0,0,1-.718,1.39,19.839,19.839,0,0,1-1.078,1.768,23.784,23.784,0,0,1-1.484,2.033c-.548.728-1.22,1.418-1.91,2.165a30.571,30.571,0,0,1-11.013,7.213c-.964.331-1.872.681-2.751.889a24.729,24.729,0,0,1-2.458.558,19.553,19.553,0,0,1-2.051.284,11.094,11.094,0,0,1-1.56.1,6.083,6.083,0,0,1-1.333-.028c0-.1,1.9-.095,4.888-.7a24.288,24.288,0,0,0,2.411-.6c.87-.227,1.758-.577,2.7-.917a34.979,34.979,0,0,0,5.8-3,35.6,35.6,0,0,0,5.058-4.112c.69-.728,1.371-1.4,1.919-2.108.586-.671,1.078-1.352,1.522-1.966,1.749-2.5,2.5-4.245,2.6-4.2Z" transform="translate(-4.908 -17.16)" fill="#263238"/>
      <g id="Grupo_1015768" data-name="Grupo 1015768" transform="translate(50.841 351.512)" opacity="0.2">
        <path id="Trazado_612192" data-name="Trazado 612192" d="M53.78,400.957A30,30,0,0,0,83.02,397.3c3.677-2.666,6.759-6.154,10.73-8.366,5.5-3.072,12.053-3.356,18.34-3.81,8.414-.6,16.884-1.635,24.787-4.557a9.959,9.959,0,0,0,4.339-2.619,3.863,3.863,0,0,0,.4-4.717c-1.087-1.361-3.1-1.437-4.85-1.39-26.357.775-50.444,2.893-76.1,8.99" transform="translate(-53.78 -371.83)"/>
      </g>
      <path id="Trazado_612193" data-name="Trazado 612193" d="M83.829,129.7c8.149-8.291,21.006-13.188,31.66-8.527,7.166,3.129,12.016,9.851,18.3,14.5,4.576,3.384,10.238,6,12.63,11.165,2.118,4.547,1.1,9.851.586,14.842s-.151,10.749,3.715,13.953c2.033,1.683,4.7,2.344,6.986,3.659,4.6,2.638,7.336,7.771,8.319,12.98s.454,10.579-.085,15.854L144,212.308l-3.6-6.06-1.257,9.529-28,2.524L83.82,129.7Z" transform="translate(-4.58 -6.523)" fill="#263238"/>
      <path id="Trazado_612194" data-name="Trazado 612194" d="M79.9,139.734l-.047,6.107-1.73,91.511c-.151,10.607,10,19.635,21.356,19.711,11.477.076,16.156-8.546,16.478-19.257.34-11.24.917-23.076.917-23.076s14.549-2,18.075-20.826c1.749-9.359,1.7-24.787,1.257-37.408a19.967,19.967,0,0,0-21.5-19.219L79.9,139.716Z" transform="translate(-4.269 -7.498)" fill="#ffbe9d"/>
      <path id="Trazado_612195" data-name="Trazado 612195" d="M134.01,170.35a2.425,2.425,0,0,1-2.4,2.382,2.319,2.319,0,0,1-2.439-2.25,2.425,2.425,0,0,1,2.4-2.382,2.315,2.315,0,0,1,2.439,2.259Z" transform="translate(-7.058 -9.185)" fill="#263238"/>
      <path id="Trazado_612196" data-name="Trazado 612196" d="M135.246,165.845c-.312.312-2.108-1.106-4.717-1.163-2.609-.1-4.557,1.191-4.831.86-.132-.142.189-.709,1.04-1.3a6.586,6.586,0,0,1,3.876-1.078,6.4,6.4,0,0,1,3.744,1.324C135.142,165.127,135.4,165.713,135.246,165.845Z" transform="translate(-6.867 -8.916)" fill="#263238"/>
      <path id="Trazado_612197" data-name="Trazado 612197" d="M106.83,170.35a2.425,2.425,0,0,1-2.4,2.382,2.319,2.319,0,0,1-2.439-2.25,2.425,2.425,0,0,1,2.4-2.382,2.315,2.315,0,0,1,2.439,2.259Z" transform="translate(-5.573 -9.185)" fill="#263238"/>
      <path id="Trazado_612198" data-name="Trazado 612198" d="M108.106,165.615c-.312.312-2.108-1.106-4.717-1.163-2.609-.1-4.557,1.191-4.831.86-.132-.142.189-.709,1.04-1.3a6.586,6.586,0,0,1,3.876-1.078,6.4,6.4,0,0,1,3.744,1.323C108,164.9,108.258,165.483,108.106,165.615Z" transform="translate(-5.384 -8.903)" fill="#263238"/>
      <path id="Trazado_612199" data-name="Trazado 612199" d="M118.074,185.253c0-.151,1.626-.388,4.254-.643.671-.047,1.3-.161,1.427-.614a3.381,3.381,0,0,0-.388-1.985c-.586-1.626-1.191-3.337-1.834-5.124-2.534-7.3-4.349-13.292-4.056-13.386s2.59,5.738,5.124,13.027q.908,2.694,1.749,5.152a3.887,3.887,0,0,1,.274,2.628,1.666,1.666,0,0,1-1.125.945,4.267,4.267,0,0,1-1.134.123c-2.647.066-4.292.038-4.292-.113Z" transform="translate(-6.418 -8.934)" fill="#263238"/>
      <path id="Trazado_612200" data-name="Trazado 612200" d="M117.668,218.779A48.061,48.061,0,0,1,92.54,211.33s5.786,13.15,24.75,11.9Z" transform="translate(-5.057 -11.547)" fill="#eb996e"/>
      <path id="Trazado_612201" data-name="Trazado 612201" d="M116.308,193.021a4.7,4.7,0,0,0-4.169-1.862,4.313,4.313,0,0,0-3.006,1.5,2.731,2.731,0,0,0-.293,3.1,3.144,3.144,0,0,0,3.394.955,9.78,9.78,0,0,0,3.384-1.9,2.88,2.88,0,0,0,.766-.747.871.871,0,0,0,.019-.974" transform="translate(-5.928 -10.444)" fill="#eb996e"/>
      <path id="Trazado_612202" data-name="Trazado 612202" d="M109.913,188.19c.425-.009.35,2.817,2.723,4.9s5.389,1.843,5.4,2.24c.038.18-.69.529-1.966.529a7.106,7.106,0,0,1-4.509-1.711,6.137,6.137,0,0,1-2.1-4.1C109.384,188.852,109.715,188.162,109.913,188.19Z" transform="translate(-5.98 -10.283)" fill="#263238"/>
      <path id="Trazado_612203" data-name="Trazado 612203" d="M108.85,157.619c-.274.7-2.874.293-5.946.577-3.072.227-5.568,1.049-5.956.406-.17-.312.274-.964,1.3-1.626a9.847,9.847,0,0,1,4.443-1.418,9.962,9.962,0,0,1,4.623.671C108.425,156.711,108.973,157.288,108.85,157.619Z" transform="translate(-5.295 -8.498)" fill="#263238"/>
      <path id="Trazado_612204" data-name="Trazado 612204" d="M135.276,160.265c-.577.577-2.742-.095-5.379-.2-2.628-.18-4.869.265-5.36-.369-.217-.3.151-.889,1.144-1.427a8.7,8.7,0,0,1,4.4-.851,8.572,8.572,0,0,1,4.254,1.3c.917.633,1.2,1.257.945,1.531Z" transform="translate(-6.802 -8.601)" fill="#263238"/>
      <path id="Trazado_612205" data-name="Trazado 612205" d="M57.127,239.309s-30.4,7.137-36.3,35.961c-2.713,13.244-6.5,89.308,11.212,101.125,22.868,15.249,51.947,1.371,51.947,1.371l-3.734-36.793H61.372l-2.543-40.31c.709,3.091-1.7-61.363-1.7-61.363Z" transform="translate(-1.011 -13.076)" fill="#3b5620"/>
      <path id="Trazado_612206" data-name="Trazado 612206" d="M172.335,365.936a23.514,23.514,0,0,0,21.091-24.409l-12.413-52.77s-8.054-45.292-33.513-49.367l8.678,69.04-.832,14.549s.4,9.624,1.371,27.661l15.627,15.3Z" transform="translate(-8.06 -13.081)" fill="#3b5620"/>
      <path id="Trazado_612207" data-name="Trazado 612207" d="M176.108,338.313a31.779,31.779,0,0,0-4.585.5,18.632,18.632,0,0,0-14.606,14.918,31.638,31.638,0,0,0-.406,4.594,4.916,4.916,0,0,1-.142-1.248,16.284,16.284,0,0,1,.208-3.413,18.3,18.3,0,0,1,14.88-15.192,16.552,16.552,0,0,1,3.4-.284A5.158,5.158,0,0,1,176.108,338.313Z" transform="translate(-8.543 -18.479)" fill="#263238"/>
      <path id="Trazado_612208" data-name="Trazado 612208" d="M91.052,127.994c3.422,4.594,5.048,8.13,7.1,16.3,1,4-2.25,6.835-5.483,9.274a2.608,2.608,0,0,1-4.122-1.513s1.125,12.526-3.4,18.141c-2.127,2.628-2.212,6.012-1.711,8.858a15,15,0,0,0,4.046,7.657c5.247,5.521,6.712,14.53,3.091,21.3a54.827,54.827,0,0,0-2.874,5.143,7.763,7.763,0,0,0-.605,3.328,2.636,2.636,0,0,1-2.231,2.8,206.146,206.146,0,0,1-46.984,1.409,2.569,2.569,0,0,1-2.3-1.947c-1.229-5.19.822-10.853,3.441-15.627,2.931-5.341,6.655-10.456,7.667-16.459.945-5.653-.6-11.741,1.673-17.007,2.789-6.457,10.361-9.51,14.152-15.428,3.573-5.587,3.29-12.914,6.495-18.728,4.112-7.459,14.247-10.9,22.055-7.5" transform="translate(-1.924 -6.922)" fill="#263238"/>
      <path id="Trazado_612209" data-name="Trazado 612209" d="M95.158,134.981c5.946,3.054,8.688,10.323,14.464,13.689,5.256,3.063,11.826,2.259,17.848,1.352-.227-1.333-.444-2.675-.671-4.008a10.614,10.614,0,0,0,2.231,3.243,3.681,3.681,0,0,0,3.659.87c2.023-.813,2.288-3.592,1.768-5.71a19.627,19.627,0,0,0-5.256-8.905,26.659,26.659,0,0,0-34.77-2.779" transform="translate(-5.16 -6.97)" fill="#263238"/>
      <path id="Trazado_612210" data-name="Trazado 612210" d="M154.165,277.759s.038.255.057.747c.019.529.038,1.238.066,2.127.038,1.853.132,4.528.274,7.828.274,6.608.889,15.721,1.635,25.789s1.3,19.2,1.494,25.818c.095,3.309.132,5.984.113,7.837q-.014,1.333-.028,2.127a3.51,3.51,0,0,1-.047.747,3.823,3.823,0,0,1-.057-.747c-.019-.529-.038-1.238-.066-2.127-.038-1.853-.132-4.528-.274-7.828-.274-6.608-.889-15.721-1.635-25.8s-1.3-19.2-1.494-25.818c-.095-3.309-.132-5.984-.113-7.837q.014-1.333.028-2.127a3.511,3.511,0,0,1,.047-.747Z" transform="translate(-8.419 -15.177)" fill="#263238"/>
      <path id="Trazado_612211" data-name="Trazado 612211" d="M63.665,343.85a4.717,4.717,0,0,1-.066-.529c-.028-.4-.057-.908-.095-1.522-.076-1.39-.18-3.28-.312-5.578-.265-4.717-.681-11.221-1.172-18.406-.5-7.156-.945-13.632-1.276-18.406-.151-2.307-.274-4.2-.369-5.578-.028-.615-.057-1.116-.076-1.522a3.732,3.732,0,0,1,0-.529,2.172,2.172,0,0,1,.095.52c.047.4.1.9.17,1.513.132,1.38.3,3.271.52,5.568.416,4.708.936,11.212,1.427,18.4s.851,13.708,1.03,18.425c.085,2.363.142,4.273.151,5.6v1.522A2.526,2.526,0,0,1,63.665,343.85Z" transform="translate(-3.294 -15.943)" fill="#263238"/>
      <path id="Trazado_612212" data-name="Trazado 612212" d="M63.263,346.857c0,.085-.983.132-2.477.633a11.4,11.4,0,0,0-4.992,3.365,11.271,11.271,0,0,0-2.467,5.483c-.246,1.55-.113,2.543-.208,2.543a1.755,1.755,0,0,1-.142-.681,9.027,9.027,0,0,1,0-1.91,10.612,10.612,0,0,1,7.7-9.142,9.165,9.165,0,0,1,1.881-.331,1.69,1.69,0,0,1,.7.028Z" transform="translate(-2.892 -18.95)" fill="#263238"/>
      <path id="Trazado_612213" data-name="Trazado 612213" d="M86.345,383.64a5.021,5.021,0,0,1-.113-.586c-.057-.435-.132-.993-.217-1.683-.17-1.522-.416-3.621-.709-6.183-.558-5.285-1.314-12.469-2.146-20.42-.274-2.76-.548-5.426-.794-7.913l.236.208c-6.06-.038-11.306-.066-15.116-.085-1.825-.028-3.3-.057-4.386-.066-.473-.019-.86-.028-1.172-.038a.205.205,0,1,1,0-.076c.312-.009.7-.019,1.172-.038,1.087-.019,2.562-.038,4.386-.066,3.81-.019,9.057-.057,15.116-.085h.217l.019.217c.255,2.477.529,5.143.813,7.9.775,7.95,1.484,15.145,2,20.429.227,2.571.416,4.67.548,6.2.047.69.095,1.248.123,1.692a2.881,2.881,0,0,1,.009.6Z" transform="translate(-3.362 -18.939)" fill="#263238"/>
      <path id="Trazado_612214" data-name="Trazado 612214" d="M84.232,384.647s-.236.1-.709.265c-.52.161-1.21.388-2.07.662-1.806.558-4.424,1.361-7.7,2.231a96.209,96.209,0,0,1-11.647,2.42,40.242,40.242,0,0,1-14.53-.69,61.94,61.94,0,0,1-7.27-2.051c-1.153-.406-2.269-.832-3.356-1.286a17.212,17.212,0,0,1-1.6-.719l-.775-.388-.718-.463a17.7,17.7,0,0,1-4.557-4.472,31.1,31.1,0,0,1-2.808-4.793,55.466,55.466,0,0,1-2.855-7.5c-.274-.908-.482-1.607-.614-2.089a3.689,3.689,0,0,1-.17-.737,5,5,0,0,1,.274.709c.17.51.406,1.2.7,2.061a63.042,63.042,0,0,0,2.987,7.4,31.331,31.331,0,0,0,2.827,4.708,17.345,17.345,0,0,0,4.481,4.33l.7.444.747.378c.492.265,1.03.473,1.569.7,1.078.444,2.193.86,3.337,1.267a61.484,61.484,0,0,0,7.213,2.023,40.435,40.435,0,0,0,14.36.718,102.485,102.485,0,0,0,11.618-2.307c3.271-.832,5.908-1.579,7.723-2.08.879-.236,1.579-.425,2.1-.577A4.851,4.851,0,0,1,84.232,384.647Z" transform="translate(-1.249 -19.946)" fill="#263238"/>
      <path id="Trazado_612215" data-name="Trazado 612215" d="M69.487,150.79a12.093,12.093,0,0,0-2.76-13.226,13.6,13.6,0,0,0-13.386-2.9,10.281,10.281,0,0,0-5.228,3.573c-2.316,3.2-1.862,7.913.529,11.051a13.945,13.945,0,0,0,10.333,5.02,26.474,26.474,0,0,0,11.514-2.382" transform="translate(-2.546 -7.322)" fill="#263238"/>
      <path id="Trazado_612216" data-name="Trazado 612216" d="M103.987,310c6.608,5.455,22.169,18.368,22.169,18.368l8.716-1.55-26.394-22.206a3.507,3.507,0,1,0-4.49,5.389Z" transform="translate(-5.613 -16.6)" fill="#455a64"/>
      <path id="Trazado_612217" data-name="Trazado 612217" d="M103.09,307.023l-3.422-3.091a1.673,1.673,0,1,1,2.25-2.477l3.3,3.016-2.118,2.552Z" transform="translate(-5.416 -16.448)" fill="#455a64"/>
      <path id="Trazado_612218" data-name="Trazado 612218" d="M113.844,309.12a11.634,11.634,0,0,1-2.127,2.6,11.8,11.8,0,0,1-2.477,2.259,23.078,23.078,0,0,1,4.6-4.859Z" transform="translate(-5.969 -16.89)" fill="#263238"/>
      <path id="Trazado_612219" data-name="Trazado 612219" d="M113.711,319.73a16.734,16.734,0,0,1-2.638-1.721c-1.579-1.134-3.706-2.779-5.937-4.727a9.858,9.858,0,0,1-2.779-3.2,4.565,4.565,0,0,1-.085-3.469,4.415,4.415,0,0,1,1.4-1.881c.444-.331.737-.435.747-.407s-.236.189-.624.558a4.573,4.573,0,0,0-1.191,1.853,4.328,4.328,0,0,0,.17,3.167,9.8,9.8,0,0,0,2.685,3.016c2.222,1.938,4.311,3.621,5.823,4.821a22.336,22.336,0,0,1,2.42,1.995Z" transform="translate(-5.572 -16.629)" fill="#263238"/>
      <path id="Trazado_612220" data-name="Trazado 612220" d="M84.14,348.769c6.268-2.108,12.932-.69,19.2-2.8a16.721,16.721,0,0,0,5.927-2.921c1.995-1.768,3.006-4.368,4.594-6.5,4.746-6.391,13.613-7.714,21.526-8.527a16.02,16.02,0,0,1,5.54.076,5.435,5.435,0,0,1,4.027,3.479c.51,1.787-.652,4.018-2.5,4.207,1.73.076,2.949,1.834,3.271,3.545s.038,3.479.265,5.2c.321,2.42,1.645,4.68,1.569,7.119-.1,3.337-2.874,6.088-5.956,7.374s-6.495,1.446-9.794,1.919c-16.232,2.288-28.578,11.5-44.233,18.463" transform="translate(-4.598 -17.912)" fill="#ffbe9d"/>
      <path id="Trazado_612221" data-name="Trazado 612221" d="M149.062,341.725a2.245,2.245,0,0,0,3.2.662,3.427,3.427,0,0,0,1.229-3.3,7.667,7.667,0,0,0-1.569-3.328,43.081,43.081,0,0,0-4.547-5.02l-5.029,4.207,6.712,6.778Z" transform="translate(-7.778 -18.072)" fill="#ffbe9d"/>
      <path id="Trazado_612222" data-name="Trazado 612222" d="M146.714,336.523c0,.151-3.082-.095-6.8.482-3.725.548-6.58,1.692-6.636,1.55a6.831,6.831,0,0,1,1.834-.851,24.566,24.566,0,0,1,4.727-1.191,24.9,24.9,0,0,1,4.869-.255A6.937,6.937,0,0,1,146.714,336.523Z" transform="translate(-7.283 -18.372)" fill="#eb996e"/>
      <path id="Trazado_612223" data-name="Trazado 612223" d="M149.164,346.915c-.028.151-2.59-.378-5.767-.284-3.186.066-5.71.718-5.748.567a18.567,18.567,0,0,1,11.524-.284Z" transform="translate(-7.521 -18.913)" fill="#eb996e"/>
      <path id="Trazado_612224" data-name="Trazado 612224" d="M149.128,343.178c-.076,0,0-.737-.142-1.891a10.044,10.044,0,0,0-1.522-4.2,10.526,10.526,0,0,0-.643-.879l-.142-.18.161-.151a4.524,4.524,0,0,0,1.3-3.328c-.019-.936-.284-1.484-.208-1.513a2.486,2.486,0,0,1,.529,1.484,4.613,4.613,0,0,1-1.286,3.7l.019-.331a10.09,10.09,0,0,1,.69.917,8.99,8.99,0,0,1,1.456,4.443,4.171,4.171,0,0,1-.208,1.919Z" transform="translate(-8.015 -18.089)" fill="#eb996e"/>
      <path id="Trazado_612225" data-name="Trazado 612225" d="M149.448,341.79l8.244,7.742,1.059,4.594-7.629-1.721C150.024,348.521,149.221,344.825,149.448,341.79Z" transform="translate(-8.164 -18.676)" fill="#455a64"/>
      <path id="Trazado_612226" data-name="Trazado 612226" d="M135.068,352.1c-.17.3-44.5,22.159-44.5,22.159v4.7l45.235-23.53,56.135-2.118V349.98Z" transform="translate(-4.949 -19.124)" fill="#d8d8d8"/>
      <path id="Trazado_612227" data-name="Trazado 612227" d="M90.57,379.818c.312-.208,48.941-4.594,48.941-4.594l52.43-21.734-56.135,2.118L90.57,379.138Z" transform="translate(-4.949 -19.315)" fill="#263238"/>
      <path id="Trazado_612228" data-name="Trazado 612228" d="M139.828,368.377c-.4-2.543,2.042-4.727,4.528-5.407s5.143-.406,7.657-.983a34.307,34.307,0,0,0,4.67-1.664c7.752-2.978,16.26-3.129,24.56-3.243a5.274,5.274,0,0,1-1.881,6.447,8.7,8.7,0,0,1-.255,6.23,19.454,19.454,0,0,1-3.46,5.322,12.017,12.017,0,0,1-4.1,3.432,13.676,13.676,0,0,1-5.256.8c-5.568.113-11.543.123-16.156-3.006-3.583-2.43-6.06-6.608-10.21-7.846l.983.038" transform="translate(-7.638 -19.511)" fill="#ffbe9d"/>
      <path id="Trazado_612229" data-name="Trazado 612229" d="M177.78,365.5a10.091,10.091,0,0,1-1.068.1c-.794.028-1.768.057-2.912.095-2.458.057-5.852.1-9.6.123H158.92a7.2,7.2,0,0,1-2.335-.359,3.689,3.689,0,0,1-1.692-1.229,2.246,2.246,0,0,1-.444-1.673,2.119,2.119,0,0,1,.586-1.163,1.192,1.192,0,0,1,.993-.416,2.069,2.069,0,0,0-.86.548,1.929,1.929,0,0,0,0,2.5,3.277,3.277,0,0,0,1.541,1.049,7.374,7.374,0,0,0,2.212.293c1.635-.009,3.413-.028,5.275-.038,3.744-.019,7.137,0,9.6.028,1.144.028,2.118.047,2.912.066a4.219,4.219,0,0,1,1.068.095Z" transform="translate(-8.438 -19.724)" fill="#eb996e"/>
      <path id="Trazado_612230" data-name="Trazado 612230" d="M174.124,370.578s-.473.123-1.342.265-2.127.312-3.687.463a36.653,36.653,0,0,1-5.53.132,41.2,41.2,0,0,1-6.674-1.125,52.086,52.086,0,0,0-12.072-1.484c-1.56,0-2.827.057-3.7.1a7.829,7.829,0,0,1-1.361.038,7.139,7.139,0,0,1,1.342-.236,36.547,36.547,0,0,1,3.715-.255A46.858,46.858,0,0,1,157,369.831a43.492,43.492,0,0,0,6.6,1.153,38.471,38.471,0,0,0,5.464-.028c1.56-.1,2.817-.236,3.7-.3A8.588,8.588,0,0,1,174.124,370.578Z" transform="translate(-7.637 -20.133)" fill="#eb996e"/>
      <path id="Trazado_612231" data-name="Trazado 612231" d="M169.716,375.722a8.728,8.728,0,0,1-1.04.2c-.671.085-1.654.208-2.864.312a34.441,34.441,0,0,1-9.529-.312c-3.734-.709-6.636-2.609-8.858-3.5a22.594,22.594,0,0,0-3.734-1.144,3.355,3.355,0,0,1,1.059.057,13.4,13.4,0,0,1,2.8.766c2.307.832,5.2,2.656,8.83,3.337a39.38,39.38,0,0,0,9.406.444c1.134-.066,2.089-.113,2.874-.161A3.815,3.815,0,0,1,169.716,375.722Z" transform="translate(-7.851 -20.286)" fill="#eb996e"/>
      <g id="Grupo_1015769" data-name="Grupo 1015769" transform="translate(149.291 311.77)" opacity="0.2">
        <path id="Trazado_612232" data-name="Trazado 612232" d="M157.92,348.083a32,32,0,0,1,2.76-9.992,15.434,15.434,0,0,1,7.137-7.308,10.259,10.259,0,0,1,9.936.605,5.136,5.136,0,0,1,1.985,2.363,2.918,2.918,0,0,1-.473,2.94c-1.049,1.106-2.808.936-4.33.87a18.246,18.246,0,0,0-16.856,10.153" transform="translate(-157.92 -329.79)"/>
      </g>
      <g id="Grupo_1015770" data-name="Grupo 1015770" transform="translate(57.305 283.485)" opacity="0.2">
        <path id="Trazado_612233" data-name="Trazado 612233" d="M70.508,343.564c3.753-6.778,2.42-15.277-.454-22.462s-7.185-13.8-9.387-21.233a131.009,131.009,0,0,0,6.476,44.394" transform="translate(-60.618 -299.87)"/>
      </g>
      <path id="Trazado_612234" data-name="Trazado 612234" d="M77.516,236.223s4.585,10.805,21.129,10.115,17.073-13.519,17.073-13.519l11.07,11.76-10.512,21.668-14.124,10.541-19.238-7.9-15.854-12.3,10.456-20.372Z" transform="translate(-3.664 -12.722)" fill="#3b5620"/>
      <g id="Grupo_1015771" data-name="Grupo 1015771" transform="translate(24.825 269.674)" opacity="0.5">
        <path id="Trazado_612235" data-name="Trazado 612235" d="M36.545,285.279c.17.208-1.995,2.231-4.831,4.509s-5.275,3.952-5.445,3.744,1.995-2.231,4.831-4.509S36.375,285.071,36.545,285.279Z" transform="translate(-26.26 -285.262)" fill="#fafafa"/>
      </g>
      <path id="Trazado_612236" data-name="Trazado 612236" d="M44.761,272.594c-.085.246-2.694-.492-5.521-2.231s-4.67-3.725-4.49-3.914c.189-.208,2.269,1.4,5.01,3.072,2.732,1.692,5.114,2.808,5.01,3.072Z" transform="translate(-1.898 -14.558)" fill="#fafafa"/>
      <path id="Trazado_612237" data-name="Trazado 612237" d="M59.867,274.289c.227.17-1.862,3.214-4.245,7.062s-4.178,7.071-4.434,6.948c-.236-.113,1.172-3.564,3.592-7.468s4.878-6.712,5.086-6.551Z" transform="translate(-2.796 -14.987)" fill="#fafafa"/>
      <path id="Trazado_612238" data-name="Trazado 612238" d="M47.134,308.361c-.189.17-2.373-2.051-4.282-5.36-1.929-3.3-2.77-6.3-2.524-6.381.265-.1,1.5,2.675,3.384,5.89,1.862,3.224,3.649,5.672,3.432,5.852Z" transform="translate(-2.201 -16.208)" fill="#fafafa"/>
      <path id="Trazado_612239" data-name="Trazado 612239" d="M34.016,325.222c-.274.038-.822-2.373-1.229-5.37s-.52-5.474-.255-5.5.822,2.373,1.229,5.37S34.281,325.193,34.016,325.222Z" transform="translate(-1.77 -17.177)" fill="#fafafa"/>
      <g id="Grupo_1015772" data-name="Grupo 1015772" transform="translate(44.166 301.554)" opacity="0.5">
        <path id="Trazado_612240" data-name="Trazado 612240" d="M46.748,329.8c-.236-.132.983-2.666,2.713-5.653s3.328-5.3,3.564-5.162-.983,2.666-2.713,5.663-3.328,5.3-3.564,5.162Z" transform="translate(-46.719 -318.983)" fill="#fafafa"/>
      </g>
      <path id="Trazado_612241" data-name="Trazado 612241" d="M31.644,347.232c-.2.18-2.307-1.891-4.349-4.878s-3.224-5.7-2.987-5.814c.246-.132,1.787,2.326,3.8,5.256S31.862,347.052,31.644,347.232Z" transform="translate(-1.327 -18.389)" fill="#fafafa"/>
      <path id="Trazado_612242" data-name="Trazado 612242" d="M51.408,344.969c.189.189-1.976,2.694-4.85,5.587s-5.351,5.086-5.549,4.9,1.976-2.694,4.85-5.587S51.21,344.78,51.408,344.969Z" transform="translate(-2.24 -18.849)" fill="#fafafa"/>
      <g id="Grupo_1015773" data-name="Grupo 1015773" transform="translate(31.633 350.402)" opacity="0.5">
        <path id="Trazado_612243" data-name="Trazado 612243" d="M40.285,380.35c-.18.189-2.269-1.56-4.178-4.292s-2.846-5.294-2.609-5.4c.255-.123,1.55,2.184,3.413,4.831S40.484,380.151,40.285,380.35Z" transform="translate(-33.462 -370.655)" fill="#fafafa"/>
      </g>
      <path id="Trazado_612244" data-name="Trazado 612244" d="M65.791,373.628c.132.236-2.193,1.815-5.19,3.526s-5.54,2.912-5.682,2.675,2.193-1.815,5.19-3.526S65.649,373.392,65.791,373.628Z" transform="translate(-3.001 -20.414)" fill="#fafafa"/>
      <path id="Trazado_612245" data-name="Trazado 612245" d="M76.039,364.79c-.17.2-2.382-1.484-4.377-4.235-2.014-2.742-2.94-5.36-2.7-5.455.255-.123,1.55,2.231,3.5,4.878C74.384,362.634,76.228,364.582,76.039,364.79Z" transform="translate(-3.766 -19.403)" fill="#fafafa"/>
      <path id="Trazado_612246" data-name="Trazado 612246" d="M93.459,307.759c.161.217-2.344,2.363-5.587,4.8s-6.022,4.226-6.183,4.008,2.335-2.363,5.587-4.8S93.3,307.542,93.459,307.759Z" transform="translate(-4.463 -16.816)" fill="#fafafa"/>
      <path id="Trazado_612247" data-name="Trazado 612247" d="M75.49,305.9c-.274-.028-.227-2.619.095-5.786s.8-5.71,1.078-5.682.227,2.619-.095,5.786S75.764,305.926,75.49,305.9Z" transform="translate(-4.115 -16.088)" fill="#fafafa"/>
      <g id="Grupo_1015774" data-name="Grupo 1015774" transform="translate(76.043 257.778)" opacity="0.5">
        <path id="Trazado_612248" data-name="Trazado 612248" d="M92.02,282.559c-.151.217-3.082-1.588-6.3-4.339s-5.464-5.351-5.275-5.53c.2-.2,2.732,2.08,5.918,4.784S92.191,282.332,92.02,282.559Z" transform="translate(-80.438 -272.677)" fill="#fafafa"/>
      </g>
      <path id="Trazado_612249" data-name="Trazado 612249" d="M79.2,253.919c.208.18-1.862,2.959-4.613,6.2s-5.162,5.748-5.37,5.568,1.862-2.949,4.623-6.2,5.162-5.748,5.37-5.568Z" transform="translate(-3.781 -13.874)" fill="#fafafa"/>
      <g id="Grupo_1015775" data-name="Grupo 1015775" transform="translate(51.38 233.528)" opacity="0.5">
        <path id="Trazado_612250" data-name="Trazado 612250" d="M64.409,250.584c-.151.246-2.259-.841-5.01-1.768s-5.077-1.361-5.048-1.645c.009-.255,2.5-.265,5.36.709s4.84,2.486,4.689,2.694Z" transform="translate(-54.35 -247.025)" fill="#fafafa"/>
      </g>
      <path id="Trazado_612251" data-name="Trazado 612251" d="M102.576,263.682c-.265-.076.189-2.373,1-5.143s1.683-4.935,1.938-4.859-.189,2.373-1,5.143S102.831,263.757,102.576,263.682Z" transform="translate(-5.601 -13.861)" fill="#fafafa"/>
      <path id="Trazado_612252" data-name="Trazado 612252" d="M111.554,286.692c-.274-.019-.359-2.269-.208-5.029s.511-4.991.775-4.973.359,2.269.208,5.029S111.818,286.711,111.554,286.692Z" transform="translate(-6.08 -15.119)" fill="#fafafa"/>
      <path id="Trazado_612253" data-name="Trazado 612253" d="M125.84,304.138c-.17.208-2.24-1.172-4.623-3.082s-4.178-3.64-4.008-3.848,2.24,1.172,4.623,3.082S126.011,303.93,125.84,304.138Z" transform="translate(-6.404 -16.239)" fill="#fafafa"/>
      <path id="Trazado_612254" data-name="Trazado 612254" d="M141.565,280.429c.18.208-1.664,2.127-4.122,4.292s-4.594,3.763-4.774,3.555,1.664-2.127,4.122-4.292S141.386,280.221,141.565,280.429Z" transform="translate(-7.249 -15.322)" fill="#fafafa"/>
      <g id="Grupo_1015776" data-name="Grupo 1015776" transform="translate(118.439 246.846)" opacity="0.5">
        <path id="Trazado_612255" data-name="Trazado 612255" d="M134.327,268.607c-.142.217-2.486-1.059-5-3.148s-4.216-4.15-4.027-4.33c.2-.2,2.174,1.522,4.651,3.573s4.528,3.677,4.368,3.914Z" transform="translate(-125.285 -261.113)" fill="#fafafa"/>
      </g>
      <path id="Trazado_612256" data-name="Trazado 612256" d="M152.617,248.749c.217.151-.926,2.108-2.95,4s-4.037,2.921-4.178,2.7c-.151-.236,1.56-1.588,3.5-3.422S152.391,248.579,152.617,248.749Z" transform="translate(-7.949 -13.591)" fill="#fafafa"/>
      <g id="Grupo_1015777" data-name="Grupo 1015777" transform="translate(119.926 230.031)" opacity="0.5">
        <path id="Trazado_612257" data-name="Trazado 612257" d="M139.783,246.648c-.038.265-3.053.047-6.655-.87s-6.362-2.155-6.268-2.4c.095-.265,2.959.548,6.514,1.446s6.457,1.55,6.419,1.825Z" transform="translate(-126.857 -243.326)" fill="#fafafa"/>
      </g>
      <g id="Grupo_1015778" data-name="Grupo 1015778" transform="translate(154.744 248.06)" opacity="0.5">
        <path id="Trazado_612258" data-name="Trazado 612258" d="M163.747,278.244c-.255-.057.331-3.753,1.683-8.149s2.912-7.8,3.158-7.7-.889,3.621-2.222,7.988S164.021,278.31,163.747,278.244Z" transform="translate(-163.688 -262.398)" fill="#fafafa"/>
      </g>
      <path id="Trazado_612259" data-name="Trazado 612259" d="M168.338,300.625c-.2.189-2.534-1.966-5.209-4.8s-4.7-5.294-4.5-5.483,2.534,1.966,5.209,4.8S168.537,300.436,168.338,300.625Z" transform="translate(-8.667 -15.864)" fill="#fafafa"/>
      <g id="Grupo_1015779" data-name="Grupo 1015779" transform="translate(166.816 282.757)" opacity="0.5">
        <path id="Trazado_612260" data-name="Trazado 612260" d="M176.848,312.921c-.274,0-.435-3.1-.378-6.92s.34-6.911.614-6.9.435,3.1.378,6.92S177.122,312.931,176.848,312.921Z" transform="translate(-176.458 -299.1)" fill="#fafafa"/>
      </g>
      <path id="Trazado_612261" data-name="Trazado 612261" d="M168.39,333.574c-.208.151-2.24-2.326-4.112-5.786s-2.846-6.514-2.6-6.608c.265-.1,1.617,2.732,3.469,6.135C166.981,330.719,168.617,333.413,168.39,333.574Z" transform="translate(-8.832 -17.55)" fill="#fafafa"/>
      <path id="Trazado_612262" data-name="Trazado 612262" d="M189.05,338.049c.189.2-1.125,1.787-2.931,3.545s-3.432,3.035-3.621,2.846,1.125-1.787,2.931-3.545S188.852,337.86,189.05,338.049Z" transform="translate(-9.971 -18.471)" fill="#fafafa"/>
      <g id="Grupo_1015780" data-name="Grupo 1015780" transform="translate(131.506 286.042)" opacity="0.5">
        <path id="Trazado_612263" data-name="Trazado 612263" d="M139.148,313.943c-.246-.076.624-3.176,2.864-6.4,2.222-3.243,4.812-5.152,4.973-4.954.2.217-2.023,2.392-4.16,5.511C140.66,311.211,139.422,314.047,139.148,313.943Z" transform="translate(-139.107 -302.575)" fill="#fafafa"/>
      </g>
      <path id="Trazado_612264" data-name="Trazado 612264" d="M80.826,341.327c-.265-.066.2-2.874,1.04-6.277s1.73-6.116,1.995-6.05-.2,2.874-1.04,6.287-1.73,6.107-1.995,6.05Z" transform="translate(-4.412 -17.977)" fill="#fafafa"/>
      <path id="Trazado_612265" data-name="Trazado 612265" d="M104.823,344.1c-.151.227-2.505-1.04-5.256-2.836S94.7,337.825,94.85,337.6s2.505,1.04,5.256,2.836S104.974,343.876,104.823,344.1Z" transform="translate(-5.182 -18.446)" fill="#fafafa"/>
      <path id="Trazado_612266" data-name="Trazado 612266" d="M103.929,326.4c-.227.151-1.333-1.106-2.467-2.808s-1.881-3.2-1.654-3.356,1.333,1.106,2.467,2.808S104.156,326.252,103.929,326.4Z" transform="translate(-5.451 -17.498)" fill="#fafafa"/>
      <path id="Trazado_612267" data-name="Trazado 612267" d="M114.709,330.8c.161.227-.841,1.191-2.222,2.165s-2.628,1.579-2.789,1.352.841-1.191,2.222-2.165S114.549,330.57,114.709,330.8Z" transform="translate(-5.993 -18.073)" fill="#fafafa"/>
      <g id="Grupo_1015781" data-name="Grupo 1015781" transform="translate(81.9 370.978)" opacity="0.5">
        <path id="Trazado_612268" data-name="Trazado 612268" d="M86.715,402.129c-.265-.085.17-2.231.558-4.878s.605-4.831.889-4.831c.265,0,.5,2.24.085,4.973S86.97,402.2,86.715,402.129Z" transform="translate(-86.634 -392.42)" fill="#fafafa"/>
      </g>
      <g id="Grupo_1015782" data-name="Grupo 1015782" transform="translate(98.348 360.432)" opacity="0.5">
        <path id="Trazado_612269" data-name="Trazado 612269" d="M111.224,393.852c-.236.132-2.033-2.571-4.008-6.05s-3.394-6.4-3.157-6.532,2.033,2.571,4.008,6.05S111.461,393.72,111.224,393.852Z" transform="translate(-104.033 -381.265)" fill="#fafafa"/>
      </g>
      <g id="Grupo_1015783" data-name="Grupo 1015783" transform="translate(119.149 362.473)" opacity="0.5">
        <path id="Trazado_612270" data-name="Trazado 612270" d="M137.412,383.43c.217.161-2.155,3.621-5.294,7.724s-5.861,7.3-6.069,7.128,2.155-3.621,5.294-7.724S137.195,383.269,137.412,383.43Z" transform="translate(-126.035 -383.424)" fill="#fafafa"/>
      </g>
      <g id="Grupo_1015784" data-name="Grupo 1015784" transform="translate(123.454 382.435)" opacity="0.5">
        <path id="Trazado_612271" data-name="Trazado 612271" d="M144.7,404.653c.038.265-3.091.945-6.986,1.513s-7.09.8-7.128.529,3.091-.945,6.986-1.513S144.666,404.379,144.7,404.653Z" transform="translate(-130.59 -404.539)" fill="#fafafa"/>
      </g>
      <path id="Trazado_612272" data-name="Trazado 612272" d="M146.663,393.434c-.274-.066-.028-2.08.076-4.557s.047-4.509.321-4.547c.255-.038.775,2,.662,4.585s-.8,4.576-1.059,4.509Z" transform="translate(-8.007 -21)" fill="#fafafa"/>
      <path id="Trazado_612273" data-name="Trazado 612273" d="M110.425,406.029c-.095.236-2.647-.605-5.313-2.534-2.675-1.91-4.292-4.065-4.093-4.226.208-.189,2.089,1.588,4.67,3.432,2.562,1.853,4.859,3.072,4.736,3.337Z" transform="translate(-5.519 -21.816)" fill="#fafafa"/>
      <path id="Trazado_612274" data-name="Trazado 612274" d="M68.565,404.3c-.265-.066.057-2.222.709-4.821s1.4-4.651,1.664-4.585-.057,2.222-.709,4.821S68.829,404.362,68.565,404.3Z" transform="translate(-3.741 -21.577)" fill="#fafafa"/>
      <path id="Trazado_612275" data-name="Trazado 612275" d="M63.959,151.91c.057-.076,1.134.851,3.11,1.929a22.481,22.481,0,0,0,3.621,1.579,25.667,25.667,0,0,0,4.717,1.049,25.141,25.141,0,0,0,4.831.047,22.369,22.369,0,0,0,3.885-.718c2.174-.605,3.432-1.267,3.469-1.172a3.849,3.849,0,0,1-.86.5,8.939,8.939,0,0,1-1.059.482,14.745,14.745,0,0,1-1.456.529,20.474,20.474,0,0,1-3.942.832,24.561,24.561,0,0,1-4.935,0,23.4,23.4,0,0,1-4.8-1.116,20.336,20.336,0,0,1-3.649-1.711c-.5-.274-.917-.586-1.3-.841a10.507,10.507,0,0,1-.926-.709,3.908,3.908,0,0,1-.728-.681Z" transform="translate(-3.494 -8.3)" fill="#455a64"/>
      <path id="Trazado_612276" data-name="Trazado 612276" d="M88.409,162.988a8,8,0,0,1-1.031.321c-.671.17-1.654.388-2.874.605a26.212,26.212,0,0,1-9.681.057,15.082,15.082,0,0,1-8.366-4.774,10.485,10.485,0,0,1-1.588-2.5,4.314,4.314,0,0,1-.35-1.021,17.306,17.306,0,0,0,2.193,3.29,15.4,15.4,0,0,0,8.206,4.519,28.56,28.56,0,0,0,9.529.085c1.22-.17,2.2-.34,2.883-.444A5.15,5.15,0,0,1,88.4,163Z" transform="translate(-3.525 -8.507)" fill="#455a64"/>
      <path id="Trazado_612277" data-name="Trazado 612277" d="M54.1,221.362a.916.916,0,0,1-.123-.132,3.71,3.71,0,0,1-.321-.425,5.382,5.382,0,0,1-.756-1.891,8.7,8.7,0,0,1,2.08-7.024,17.634,17.634,0,0,1,3.952-3.337c1.55-1.021,3.29-1.966,5-3.11A15.321,15.321,0,0,0,68.492,201a8.051,8.051,0,0,0,1.134-3.12,9.86,9.86,0,0,0-.18-3.441,43.54,43.54,0,0,0-2.392-6.523,17.971,17.971,0,0,1-1.6-6.362A16.951,16.951,0,0,1,68.7,171.078a15.873,15.873,0,0,1,5.578-4.916c.388-.189.747-.359,1.059-.511l.813-.284a3.065,3.065,0,0,1,.681-.2,4.235,4.235,0,0,1-.643.293c-.227.095-.492.2-.785.321-.3.161-.643.34-1.03.539a16.15,16.15,0,0,0-5.379,4.944,16.746,16.746,0,0,0-3.072,10.257,17.789,17.789,0,0,0,1.588,6.2,42.136,42.136,0,0,1,2.43,6.6,10.119,10.119,0,0,1,.189,3.611,8.543,8.543,0,0,1-1.2,3.309,15.606,15.606,0,0,1-4.717,4.576c-1.749,1.163-3.488,2.08-5.029,3.082a17.346,17.346,0,0,0-3.914,3.224,8.59,8.59,0,0,0-2.155,6.759,6.431,6.431,0,0,0,1.012,2.477Z" transform="translate(-2.884 -9.025)" fill="#455a64"/>
      <path id="Trazado_612278" data-name="Trazado 612278" d="M80.433,221.837s-.2-.095-.548-.312a4.582,4.582,0,0,1-1.22-1.324,6.337,6.337,0,0,1-.851-2.723,10.2,10.2,0,0,1,.416-3.763c.766-2.779,3.091-5.3,4.831-8.47a10.613,10.613,0,0,0,1.418-5.389,14.381,14.381,0,0,0-1.522-5.833c-1.8-3.8-4.557-6.825-6.466-9.983a20.367,20.367,0,0,1-2.231-4.755,11.539,11.539,0,0,1-.463-4.557,9.013,9.013,0,0,1,2.751-5.908,6.474,6.474,0,0,1,1.513-.974,2.869,2.869,0,0,1,.586-.208,9.843,9.843,0,0,0-1.976,1.324,9,9,0,0,0-2.534,5.8,11.189,11.189,0,0,0,.51,4.405,20.706,20.706,0,0,0,2.222,4.632c.964,1.55,2.108,3.091,3.28,4.717a32.8,32.8,0,0,1,3.243,5.3,15.027,15.027,0,0,1,1.56,6.041,11.014,11.014,0,0,1-1.5,5.606c-1.806,3.224-4.122,5.7-4.9,8.357a10.238,10.238,0,0,0-.473,3.64,6.414,6.414,0,0,0,.737,2.647,5.672,5.672,0,0,0,1.6,1.73Z" transform="translate(-4.029 -9.16)" fill="#455a64"/>
      <path id="Trazado_612279" data-name="Trazado 612279" d="M118.745,148.546a2.343,2.343,0,0,1-.359-.151,7.006,7.006,0,0,1-.936-.6,11.552,11.552,0,0,1-2.723-3.035,33.5,33.5,0,0,1-2.619-5.426c-.435-1.04-.9-2.127-1.475-3.2a19.748,19.748,0,0,0-2.089-3.12,21.356,21.356,0,0,0-10.928-7.043,29.024,29.024,0,0,0-5.436-.775,8.859,8.859,0,0,1,1.484-.085,19.37,19.37,0,0,1,4.037.529,20.292,20.292,0,0,1,5.6,2.269,20.705,20.705,0,0,1,5.625,4.8,19.421,19.421,0,0,1,2.127,3.2c.577,1.1,1.04,2.2,1.465,3.252a35.975,35.975,0,0,0,2.5,5.417,12.007,12.007,0,0,0,2.543,3.063c.728.605,1.2.86,1.172.9Z" transform="translate(-5.037 -6.837)" fill="#455a64"/>
      <path id="Trazado_612280" data-name="Trazado 612280" d="M131.952,148.41a3.376,3.376,0,0,1-.51-.057,8.08,8.08,0,0,1-1.418-.369,12.221,12.221,0,0,1-4.509-2.931,27.383,27.383,0,0,1-4.68-6.466,49.972,49.972,0,0,0-5.143-8.187,16.162,16.162,0,0,0-8.026-5,31.307,31.307,0,0,0-7.809-1.04c-2.259-.047-4.084.047-5.351.095-.586.019-1.068.038-1.456.057a4.267,4.267,0,0,1-.51-.009,1.8,1.8,0,0,1,.5-.085c.331-.038.822-.095,1.456-.151,1.257-.1,3.091-.255,5.36-.255a30.264,30.264,0,0,1,7.922.955,16.494,16.494,0,0,1,8.272,5.114,48.353,48.353,0,0,1,5.162,8.291,27.712,27.712,0,0,0,4.528,6.438,12.913,12.913,0,0,0,4.33,3c1.172.463,1.872.548,1.862.605Z" transform="translate(-5.057 -6.776)" fill="#455a64"/>
      <path id="Trazado_612281" data-name="Trazado 612281" d="M156.938,212.11c-.057-.019.246-.671.558-1.91a17.929,17.929,0,0,0-4.15-16.808c-1.1-1.219-2.344-2.373-3.611-3.583a32.647,32.647,0,0,1-3.507-3.763,23.523,23.523,0,0,1-2.524-4.084,22.377,22.377,0,0,1-1.522-4.065,23.152,23.152,0,0,1-.652-9.151,12.767,12.767,0,0,1,.265-1.456,3.329,3.329,0,0,1,.132-.5c.047,0-.095.709-.208,1.976a24.59,24.59,0,0,0,.1,5.389,24.308,24.308,0,0,0,.756,3.64,22.4,22.4,0,0,0,1.541,3.971,23.148,23.148,0,0,0,2.5,3.98,33.177,33.177,0,0,0,3.46,3.7c1.267,1.21,2.524,2.373,3.63,3.611a18.549,18.549,0,0,1,2.751,3.942,18.038,18.038,0,0,1,1.957,7.837,17.211,17.211,0,0,1-.728,5.4,11.291,11.291,0,0,1-.51,1.39,1.713,1.713,0,0,1-.227.463Z" transform="translate(-7.723 -9.114)" fill="#455a64"/>
      <path id="Trazado_612282" data-name="Trazado 612282" d="M48.289,148.531a5.025,5.025,0,0,1,.123-.926,9.07,9.07,0,0,1,.926-2.382,10.094,10.094,0,0,1,14.681-3.517,8.858,8.858,0,0,1,1.9,1.7,2.976,2.976,0,0,1,.529.775A17.664,17.664,0,0,0,63.831,142a10.059,10.059,0,0,0-14.2,3.4,17.555,17.555,0,0,0-1.352,3.129Z" transform="translate(-2.638 -7.645)" fill="#455a64"/>
      <path id="Trazado_612283" data-name="Trazado 612283" d="M57.979,152.756a7.734,7.734,0,0,1,.265-2.146,9.43,9.43,0,0,1,2.231-4.736,5,5,0,0,1,5.01-1.267,2.913,2.913,0,0,1,1.342.917c.236.3.312.5.284.52a4.416,4.416,0,0,0-1.73-1.106,4.865,4.865,0,0,0-4.557,1.286,10.255,10.255,0,0,0-2.25,4.481,10.971,10.971,0,0,1-.605,2.061Z" transform="translate(-3.167 -7.889)" fill="#455a64"/>
      <path id="Trazado_612284" data-name="Trazado 612284" d="M70.467,138.59a44.213,44.213,0,0,0-2.486,5.152A44.736,44.736,0,0,0,66.7,149.31a12.377,12.377,0,0,1,.822-5.738A12.136,12.136,0,0,1,70.467,138.59Z" transform="translate(-3.64 -7.573)" fill="#3b5620"/>
      <path id="Trazado_612285" data-name="Trazado 612285" d="M230.67,162.8a2.94,2.94,0,1,0,2.94-2.94A2.937,2.937,0,0,0,230.67,162.8Z" transform="translate(-12.604 -8.735)" fill="#455a64"/>
      <path id="Trazado_612286" data-name="Trazado 612286" d="M221.15,165.74a2.94,2.94,0,1,0-2.94-2.94A2.94,2.94,0,0,0,221.15,165.74Z" transform="translate(-11.923 -8.735)" fill="#455a64"/>
      <path id="Trazado_612287" data-name="Trazado 612287" d="M205.767,161.325a2.941,2.941,0,1,0,4.018-1.078A2.939,2.939,0,0,0,205.767,161.325Z" transform="translate(-11.222 -8.735)" fill="#455a64"/>
      <path id="Trazado_612288" data-name="Trazado 612288" d="M219.126,126.618a5.637,5.637,0,0,0-.6-.009c-.435.009-1.012.028-1.749.047-.388.019-.813.019-1.286.057-.473.066-.983.142-1.541.217s-1.163.17-1.8.255c-.633.161-1.3.321-2.014.5a32.632,32.632,0,0,0-9.747,4.245,34.958,34.958,0,0,0-10.078,9.813,33.975,33.975,0,0,0-5.814,20.741c.057.794.038,1.607.161,2.411s.246,1.617.369,2.43a34.782,34.782,0,0,0,3.271,9.586,36.783,36.783,0,0,0,6.268,8.622,36.3,36.3,0,0,0,9.028,6.485,32.852,32.852,0,0,0,11,3.375,21.62,21.62,0,0,0,2.931.246,25.884,25.884,0,0,0,2.968.057,36.155,36.155,0,0,0,5.937-.747,34.738,34.738,0,0,0,11.826-4.973l-.359.038q6.154,2.467,12.044,4.831l.709.284-.208-.737q-1.829-6.636-3.545-12.876l-.057.321a34.46,34.46,0,0,0,6.428-14.719,31.929,31.929,0,0,0,.473-7.544,25.384,25.384,0,0,0-.34-3.621c-.095-.6-.18-1.182-.274-1.758s-.284-1.144-.425-1.7a34.471,34.471,0,0,0-13.443-19.6,33.038,33.038,0,0,0-8-4.216c-.624-.227-1.22-.435-1.806-.643-.6-.151-1.163-.293-1.711-.435s-1.068-.265-1.569-.388c-.5-.095-.983-.151-1.437-.217-.908-.113-1.711-.274-2.411-.312-.69-.019-1.276-.047-1.768-.057q-.666-.014-1.078-.028a2.166,2.166,0,0,0-.369.009,1.6,1.6,0,0,0,.369.047q.411.028,1.078.085c.492.028,1.068.076,1.758.123s1.484.227,2.392.359a34.249,34.249,0,0,1,27.4,25.411c.132.558.3,1.106.407,1.673l.255,1.73a24.354,24.354,0,0,1,.321,3.555,30.227,30.227,0,0,1-.492,7.393,33.826,33.826,0,0,1-6.343,14.4l-.1.142.047.17q1.7,6.239,3.517,12.885l.51-.454q-5.885-2.368-12.044-4.85L238,189.2l-.17.113a34.1,34.1,0,0,1-11.562,4.859,34.579,34.579,0,0,1-5.8.737,24.744,24.744,0,0,1-2.9-.057,20.536,20.536,0,0,1-2.864-.246,32.162,32.162,0,0,1-10.758-3.29,35.469,35.469,0,0,1-8.839-6.324,36.439,36.439,0,0,1-6.154-8.423,34.081,34.081,0,0,1-3.243-9.387l-.369-2.382c-.113-.785-.1-1.579-.161-2.363a35.765,35.765,0,0,1,.076-4.623,34.016,34.016,0,0,1,15.39-25.544,32.77,32.77,0,0,1,9.586-4.32c.7-.189,1.361-.359,1.985-.529.633-.1,1.229-.2,1.777-.293s1.059-.17,1.531-.255c.473-.047.9-.066,1.276-.095.737-.057,1.314-.095,1.739-.123a3.82,3.82,0,0,0,.6-.066Z" transform="translate(-10.079 -6.917)" fill="#455a64"/>
    </g>
  </g>
</svg>
