<svg xmlns="http://www.w3.org/2000/svg" width="505" height="369.165" viewBox="0 0 505 369.165">
  <g id="Grupo_1066779" data-name="Grupo 1066779" transform="translate(-180 -8417.457)">
    <g id="Group_67" data-name="Group 67" transform="translate(180 8417.457)">
      <path id="Trazado_612289" data-name="Trazado 612289" d="M450.231,343.54H416.78v.253h33.451Z" transform="translate(4.168 3.435)" fill="#ebebeb"/>
      <path id="Trazado_612290" data-name="Trazado 612290" d="M331.307,346.26H322.53v.253h8.777Z" transform="translate(3.225 3.463)" fill="#ebebeb"/>
      <path id="Trazado_612291" data-name="Trazado 612291" d="M415.972,334.26H396.59v.253h19.382Z" transform="translate(3.966 3.343)" fill="#ebebeb"/>
      <path id="Trazado_612292" data-name="Trazado 612292" d="M96.082,335.94H52.46v.252H96.082Z" transform="translate(0.525 3.359)" fill="#ebebeb"/>
      <path id="Trazado_612293" data-name="Trazado 612293" d="M110.953,335.94H104.56v.252h6.393Z" transform="translate(1.046 3.359)" fill="#ebebeb"/>
      <path id="Trazado_612294" data-name="Trazado 612294" d="M226.087,340.16H131.47v.253h94.617Z" transform="translate(1.315 3.402)" fill="#ebebeb"/>
      <path id="Trazado_612295" data-name="Trazado 612295" d="M239,285.679H43.967a5.772,5.772,0,0,1-5.767-5.767V5.767A5.772,5.772,0,0,1,43.967,0H239a5.772,5.772,0,0,1,5.767,5.767V279.911A5.772,5.772,0,0,1,239,285.679ZM43.967.252a5.522,5.522,0,0,0-5.515,5.515V279.911a5.522,5.522,0,0,0,5.515,5.515H239a5.522,5.522,0,0,0,5.515-5.515V5.767A5.522,5.522,0,0,0,239,.252Z" transform="translate(0.382)" fill="#ebebeb"/>
      <path id="Trazado_612296" data-name="Trazado 612296" d="M455.3,285.679H260.267a5.772,5.772,0,0,1-5.767-5.767V5.767A5.772,5.772,0,0,1,260.267,0H455.3a5.772,5.772,0,0,1,5.767,5.767V279.911A5.772,5.772,0,0,1,455.3,285.679ZM260.267.252a5.522,5.522,0,0,0-5.515,5.515V279.911a5.522,5.522,0,0,0,5.515,5.515H455.3a5.522,5.522,0,0,0,5.515-5.515V5.767A5.522,5.522,0,0,0,455.3.252Z" transform="translate(2.545)" fill="#ebebeb"/>
      <path id="Trazado_612297" data-name="Trazado 612297" d="M505,327.45H0v.253H505Z" transform="translate(0 3.274)" fill="#ebebeb"/>
      <path id="Trazado_612298" data-name="Trazado 612298" d="M456.372,16.42H384.41V260.547h71.962Z" transform="translate(3.844 0.164)" fill="#f0f0f0"/>
      <path id="Trazado_612299" data-name="Trazado 612299" d="M458.361,101.98H368.39V257.56h89.971Z" transform="translate(3.684 1.02)" fill="#d5d4d4"/>
      <path id="Trazado_612300" data-name="Trazado 612300" d="M385.5,80.45v39.026h55.419V80.45Z" transform="translate(3.855 0.804)" fill="#d5d4d4"/>
      <path id="Trazado_612301" data-name="Trazado 612301" d="M385.614,107.68H374.1v11.514h11.514Z" transform="translate(3.741 1.077)" fill="#f0f0f0"/>
      <path id="Trazado_612302" data-name="Trazado 612302" d="M407.7,107.68H396.19v11.514H407.7Z" transform="translate(3.962 1.077)" fill="#f0f0f0"/>
      <path id="Trazado_612303" data-name="Trazado 612303" d="M429.794,107.68H418.28v11.514h11.514Z" transform="translate(4.183 1.077)" fill="#f0f0f0"/>
      <path id="Trazado_612304" data-name="Trazado 612304" d="M451.894,107.68H440.37v11.514h11.524Z" transform="translate(4.404 1.077)" fill="#f0f0f0"/>
      <path id="Trazado_612305" data-name="Trazado 612305" d="M385.614,128.41H374.1v11.524h11.514Z" transform="translate(3.741 1.284)" fill="#f0f0f0"/>
      <path id="Trazado_612306" data-name="Trazado 612306" d="M407.7,128.41H396.19v11.524H407.7Z" transform="translate(3.962 1.284)" fill="#f0f0f0"/>
      <path id="Trazado_612307" data-name="Trazado 612307" d="M429.794,128.41H418.28v11.524h11.514Z" transform="translate(4.183 1.284)" fill="#f0f0f0"/>
      <path id="Trazado_612308" data-name="Trazado 612308" d="M451.894,128.41H440.37v11.524h11.524Z" transform="translate(4.404 1.284)" fill="#f0f0f0"/>
      <path id="Trazado_612309" data-name="Trazado 612309" d="M385.614,149.13H374.1v11.514h11.514Z" transform="translate(3.741 1.491)" fill="#f0f0f0"/>
      <path id="Trazado_612310" data-name="Trazado 612310" d="M407.7,149.13H396.19v11.514H407.7Z" transform="translate(3.962 1.491)" fill="#f0f0f0"/>
      <path id="Trazado_612311" data-name="Trazado 612311" d="M429.794,149.13H418.28v11.514h11.514Z" transform="translate(4.183 1.491)" fill="#f0f0f0"/>
      <path id="Trazado_612312" data-name="Trazado 612312" d="M407.7,89.77H396.19v11.514H407.7Z" transform="translate(3.962 0.898)" fill="#f0f0f0"/>
      <path id="Trazado_612313" data-name="Trazado 612313" d="M429.794,89.77H418.28v11.514h11.514Z" transform="translate(4.183 0.898)" fill="#f0f0f0"/>
      <path id="Trazado_612314" data-name="Trazado 612314" d="M451.894,149.13H440.37v11.514h11.524Z" transform="translate(4.404 1.491)" fill="#f0f0f0"/>
      <path id="Trazado_612315" data-name="Trazado 612315" d="M385.614,169.85H374.1v11.514h11.514Z" transform="translate(3.741 1.698)" fill="#f0f0f0"/>
      <path id="Trazado_612316" data-name="Trazado 612316" d="M407.7,169.85H396.19v11.514H407.7Z" transform="translate(3.962 1.698)" fill="#f0f0f0"/>
      <path id="Trazado_612317" data-name="Trazado 612317" d="M429.794,169.85H418.28v11.514h11.514Z" transform="translate(4.183 1.698)" fill="#f0f0f0"/>
      <path id="Trazado_612318" data-name="Trazado 612318" d="M451.894,169.85H440.37v11.514h11.524Z" transform="translate(4.404 1.698)" fill="#f0f0f0"/>
      <path id="Trazado_612319" data-name="Trazado 612319" d="M385.614,190.57H374.1v11.524h11.514Z" transform="translate(3.741 1.906)" fill="#f0f0f0"/>
      <path id="Trazado_612320" data-name="Trazado 612320" d="M407.7,190.57H396.19v11.524H407.7Z" transform="translate(3.962 1.906)" fill="#f0f0f0"/>
      <path id="Trazado_612321" data-name="Trazado 612321" d="M429.794,190.57H418.28v11.524h11.514Z" transform="translate(4.183 1.906)" fill="#f0f0f0"/>
      <path id="Trazado_612322" data-name="Trazado 612322" d="M451.894,190.57H440.37v11.524h11.524Z" transform="translate(4.404 1.906)" fill="#f0f0f0"/>
      <path id="Trazado_612323" data-name="Trazado 612323" d="M385.614,211.3H374.1v11.514h11.514Z" transform="translate(3.741 2.113)" fill="#f0f0f0"/>
      <path id="Trazado_612324" data-name="Trazado 612324" d="M407.7,211.3H396.19v11.514H407.7Z" transform="translate(3.962 2.113)" fill="#f0f0f0"/>
      <path id="Trazado_612325" data-name="Trazado 612325" d="M429.794,211.3H418.28v11.514h11.514Z" transform="translate(4.183 2.113)" fill="#f0f0f0"/>
      <path id="Trazado_612326" data-name="Trazado 612326" d="M451.894,211.3H440.37v11.514h11.524Z" transform="translate(4.404 2.113)" fill="#f0f0f0"/>
      <path id="Trazado_612327" data-name="Trazado 612327" d="M385.614,232.02H374.1v11.524h11.514Z" transform="translate(3.741 2.32)" fill="#f0f0f0"/>
      <path id="Trazado_612328" data-name="Trazado 612328" d="M407.7,232.02H396.19v11.524H407.7Z" transform="translate(3.962 2.32)" fill="#f0f0f0"/>
      <path id="Trazado_612329" data-name="Trazado 612329" d="M429.794,232.02H418.28v11.524h11.514Z" transform="translate(4.183 2.32)" fill="#f0f0f0"/>
      <path id="Trazado_612330" data-name="Trazado 612330" d="M451.894,232.02H440.37v11.524h11.524Z" transform="translate(4.404 2.32)" fill="#f0f0f0"/>
      <path id="Trazado_612331" data-name="Trazado 612331" d="M456.232,16.42H384.27V260.547h71.962Z" transform="translate(3.843 0.164)" fill="#fff" opacity="0.1"/>
      <g id="Grupo_1015785" data-name="Grupo 1015785" transform="translate(404.99 16.584)" opacity="0.3">
        <path id="Trazado_612332" data-name="Trazado 612332" d="M449.026,16.42H426.078l-25.1,244.127h22.947Z" transform="translate(-400.98 -16.42)" fill="#fff"/>
      </g>
      <path id="Trazado_612333" data-name="Trazado 612333" d="M456.985,13.36H383.81v6.191h73.175Z" transform="translate(3.838 0.134)" fill="#d5d4d4"/>
      <path id="Trazado_612334" data-name="Trazado 612334" d="M456.985,256.02H383.81v6.191h73.175Z" transform="translate(3.838 2.56)" fill="#ebebeb"/>
      <path id="Trazado_612335" data-name="Trazado 612335" d="M459.855,269.97H380.53V7.37h79.325Zm-73.276-6.05h67.236V13.42H386.58v250.5Z" transform="translate(3.805 0.074)" fill="#ebebeb"/>
      <path id="Trazado_612336" data-name="Trazado 612336" d="M378.653,16.42H306.69V260.547h71.963Z" transform="translate(3.067 0.164)" fill="#f0f0f0"/>
      <path id="Trazado_612337" data-name="Trazado 612337" d="M373.159,182.09H311.62v75.518h61.539Z" transform="translate(3.116 1.821)" fill="#b8b8b8"/>
      <path id="Trazado_612338" data-name="Trazado 612338" d="M367.47,190.38h-22.2v7.878h22.2Z" transform="translate(3.453 1.904)" fill="#b8b8b8"/>
      <path id="Trazado_612339" data-name="Trazado 612339" d="M367.47,205.49h-22.2v7.878h22.2Z" transform="translate(3.453 2.055)" fill="#f0f0f0"/>
      <path id="Trazado_612340" data-name="Trazado 612340" d="M367.47,220.6h-22.2v7.878h22.2Z" transform="translate(3.453 2.206)" fill="#b8b8b8"/>
      <path id="Trazado_612341" data-name="Trazado 612341" d="M367.47,235.71h-22.2v7.878h22.2Z" transform="translate(3.453 2.357)" fill="#f0f0f0"/>
      <path id="Trazado_612342" data-name="Trazado 612342" d="M339.12,190.38H316.93v7.878h22.19Z" transform="translate(3.169 1.904)" fill="#f0f0f0"/>
      <path id="Trazado_612343" data-name="Trazado 612343" d="M339.12,205.49H316.93v7.878h22.19Z" transform="translate(3.169 2.055)" fill="#f0f0f0"/>
      <path id="Trazado_612344" data-name="Trazado 612344" d="M339.12,220.6H316.93v7.878h22.19Z" transform="translate(3.169 2.206)" fill="#b8b8b8"/>
      <path id="Trazado_612345" data-name="Trazado 612345" d="M339.12,235.71H316.93v7.878h22.19Z" transform="translate(3.169 2.357)" fill="#f0f0f0"/>
      <path id="Trazado_612346" data-name="Trazado 612346" d="M378.423,16.42H306.46V260.547h71.963Z" transform="translate(3.065 0.164)" fill="#fff" opacity="0.1"/>
      <g id="Grupo_1015786" data-name="Grupo 1015786" transform="translate(326.493 16.584)" opacity="0.3">
        <path id="Trazado_612347" data-name="Trazado 612347" d="M371.306,16.42H348.369L323.26,260.547h22.947Z" transform="translate(-323.26 -16.42)" fill="#fff"/>
      </g>
      <path id="Trazado_612348" data-name="Trazado 612348" d="M379.265,13.36H306.09v6.191h73.175Z" transform="translate(3.061 0.134)" fill="#d5d4d4"/>
      <path id="Trazado_612349" data-name="Trazado 612349" d="M379.265,256.02H306.09v6.191h73.175Z" transform="translate(3.061 2.56)" fill="#ebebeb"/>
      <path id="Trazado_612350" data-name="Trazado 612350" d="M382.145,269.97H302.82V7.37h79.325Zm-73.276-6.05h67.236V13.42H308.87v250.5Z" transform="translate(3.028 0.074)" fill="#ebebeb"/>
      <path id="Trazado_612351" data-name="Trazado 612351" d="M191.963,16.42H120V260.547h71.963Z" transform="translate(1.2 0.164)" fill="#f0f0f0"/>
      <path id="Trazado_612352" data-name="Trazado 612352" d="M191.823,16.42H119.86V260.547h71.963Z" transform="translate(1.199 0.164)" fill="#fff" opacity="0.1"/>
      <g id="Grupo_1015787" data-name="Grupo 1015787" transform="translate(137.946 16.584)" opacity="0.3">
        <path id="Trazado_612353" data-name="Trazado 612353" d="M184.626,16.42H161.678l-25.1,244.127h22.937Z" transform="translate(-136.58 -16.42)" fill="#fff"/>
      </g>
      <path id="Trazado_612354" data-name="Trazado 612354" d="M192.584,13.36H119.41v6.191h73.174Z" transform="translate(1.194 0.134)" fill="#d5d4d4"/>
      <path id="Trazado_612355" data-name="Trazado 612355" d="M192.584,256.02H119.41v6.191h73.174Z" transform="translate(1.194 2.56)" fill="#ebebeb"/>
      <path id="Trazado_612356" data-name="Trazado 612356" d="M195.455,269.97H116.13V7.37h79.325Zm-73.275-6.05h67.236V13.42H122.18v250.5Z" transform="translate(1.161 0.074)" fill="#ebebeb"/>
      <path id="Trazado_612357" data-name="Trazado 612357" d="M114.353,16.42H42.39V260.547h71.963Z" transform="translate(0.424 0.164)" fill="#f0f0f0"/>
      <path id="Trazado_612358" data-name="Trazado 612358" d="M103.451,118.78H47.75v46.743h55.7Z" transform="translate(0.477 1.188)" fill="#b8b8b8"/>
      <path id="Trazado_612359" data-name="Trazado 612359" d="M58.411,124.55H51.28v7.131h7.131Z" transform="translate(0.513 1.245)" fill="#f0f0f0"/>
      <path id="Trazado_612360" data-name="Trazado 612360" d="M72.091,124.55H64.96v7.131h7.131Z" transform="translate(0.65 1.245)" fill="#f0f0f0"/>
      <path id="Trazado_612361" data-name="Trazado 612361" d="M85.771,124.55H78.64v7.131h7.131Z" transform="translate(0.786 1.245)" fill="#f0f0f0"/>
      <path id="Trazado_612362" data-name="Trazado 612362" d="M99.441,124.55H92.31v7.131h7.131Z" transform="translate(0.923 1.245)" fill="#f0f0f0"/>
      <path id="Trazado_612363" data-name="Trazado 612363" d="M58.411,137.37H51.28V144.5h7.131Z" transform="translate(0.513 1.374)" fill="#f0f0f0"/>
      <path id="Trazado_612364" data-name="Trazado 612364" d="M72.091,137.37H64.96V144.5h7.131Z" transform="translate(0.65 1.374)" fill="#f0f0f0"/>
      <path id="Trazado_612365" data-name="Trazado 612365" d="M85.771,137.37H78.64V144.5h7.131Z" transform="translate(0.786 1.374)" fill="#f0f0f0"/>
      <path id="Trazado_612366" data-name="Trazado 612366" d="M99.441,137.37H92.31V144.5h7.131Z" transform="translate(0.923 1.374)" fill="#b8b8b8"/>
      <path id="Trazado_612367" data-name="Trazado 612367" d="M58.411,150.2H51.28v7.131h7.131Z" transform="translate(0.513 1.502)" fill="#b8b8b8"/>
      <path id="Trazado_612368" data-name="Trazado 612368" d="M72.091,150.2H64.96v7.131h7.131Z" transform="translate(0.65 1.502)" fill="#b8b8b8"/>
      <path id="Trazado_612369" data-name="Trazado 612369" d="M85.771,150.2H78.64v7.131h7.131Z" transform="translate(0.786 1.502)" fill="#f0f0f0"/>
      <path id="Trazado_612370" data-name="Trazado 612370" d="M99.441,150.2H92.31v7.131h7.131Z" transform="translate(0.923 1.502)" fill="#b8b8b8"/>
      <path id="Trazado_612371" data-name="Trazado 612371" d="M103.451,164.47H47.75v46.743h55.7Z" transform="translate(0.477 1.645)" fill="#b8b8b8"/>
      <path id="Trazado_612372" data-name="Trazado 612372" d="M58.411,170.24H51.28v7.131h7.131Z" transform="translate(0.513 1.702)" fill="#f0f0f0"/>
      <path id="Trazado_612373" data-name="Trazado 612373" d="M72.091,170.24H64.96v7.131h7.131Z" transform="translate(0.65 1.702)" fill="#f0f0f0"/>
      <path id="Trazado_612374" data-name="Trazado 612374" d="M85.771,170.24H78.64v7.131h7.131Z" transform="translate(0.786 1.702)" fill="#f0f0f0"/>
      <path id="Trazado_612375" data-name="Trazado 612375" d="M99.441,170.24H92.31v7.131h7.131Z" transform="translate(0.923 1.702)" fill="#f0f0f0"/>
      <path id="Trazado_612376" data-name="Trazado 612376" d="M58.411,183.07H51.28V190.2h7.131Z" transform="translate(0.513 1.831)" fill="#f0f0f0"/>
      <path id="Trazado_612377" data-name="Trazado 612377" d="M72.091,183.07H64.96V190.2h7.131Z" transform="translate(0.65 1.831)" fill="#f0f0f0"/>
      <path id="Trazado_612378" data-name="Trazado 612378" d="M85.771,183.07H78.64V190.2h7.131Z" transform="translate(0.786 1.831)" fill="#f0f0f0"/>
      <path id="Trazado_612379" data-name="Trazado 612379" d="M99.441,183.07H92.31V190.2h7.131Z" transform="translate(0.923 1.831)" fill="#b8b8b8"/>
      <path id="Trazado_612380" data-name="Trazado 612380" d="M58.411,195.9H51.28v7.131h7.131Z" transform="translate(0.513 1.959)" fill="#b8b8b8"/>
      <path id="Trazado_612381" data-name="Trazado 612381" d="M72.091,195.9H64.96v7.131h7.131Z" transform="translate(0.65 1.959)" fill="#b8b8b8"/>
      <path id="Trazado_612382" data-name="Trazado 612382" d="M85.771,195.9H78.64v7.131h7.131Z" transform="translate(0.786 1.959)" fill="#f0f0f0"/>
      <path id="Trazado_612383" data-name="Trazado 612383" d="M99.441,195.9H92.31v7.131h7.131Z" transform="translate(0.923 1.959)" fill="#b8b8b8"/>
      <path id="Trazado_612384" data-name="Trazado 612384" d="M103.451,210.17H47.75v46.743h55.7Z" transform="translate(0.477 2.102)" fill="#b8b8b8"/>
      <path id="Trazado_612385" data-name="Trazado 612385" d="M58.411,215.94H51.28v7.131h7.131Z" transform="translate(0.513 2.159)" fill="#f0f0f0"/>
      <path id="Trazado_612386" data-name="Trazado 612386" d="M72.091,215.94H64.96v7.131h7.131Z" transform="translate(0.65 2.159)" fill="#f0f0f0"/>
      <path id="Trazado_612387" data-name="Trazado 612387" d="M85.771,215.94H78.64v7.131h7.131Z" transform="translate(0.786 2.159)" fill="#f0f0f0"/>
      <path id="Trazado_612388" data-name="Trazado 612388" d="M99.441,215.94H92.31v7.131h7.131Z" transform="translate(0.923 2.159)" fill="#f0f0f0"/>
      <path id="Trazado_612389" data-name="Trazado 612389" d="M58.411,228.77H51.28V235.9h7.131Z" transform="translate(0.513 2.288)" fill="#f0f0f0"/>
      <path id="Trazado_612390" data-name="Trazado 612390" d="M72.091,228.77H64.96V235.9h7.131Z" transform="translate(0.65 2.288)" fill="#f0f0f0"/>
      <path id="Trazado_612391" data-name="Trazado 612391" d="M85.771,228.77H78.64V235.9h7.131Z" transform="translate(0.786 2.288)" fill="#f0f0f0"/>
      <path id="Trazado_612392" data-name="Trazado 612392" d="M99.441,228.77H92.31V235.9h7.131Z" transform="translate(0.923 2.288)" fill="#b8b8b8"/>
      <path id="Trazado_612393" data-name="Trazado 612393" d="M58.411,241.6H51.28v7.131h7.131Z" transform="translate(0.513 2.416)" fill="#b8b8b8"/>
      <path id="Trazado_612394" data-name="Trazado 612394" d="M72.091,241.6H64.96v7.131h7.131Z" transform="translate(0.65 2.416)" fill="#b8b8b8"/>
      <path id="Trazado_612395" data-name="Trazado 612395" d="M85.771,241.6H78.64v7.131h7.131Z" transform="translate(0.786 2.416)" fill="#f0f0f0"/>
      <path id="Trazado_612396" data-name="Trazado 612396" d="M99.441,241.6H92.31v7.131h7.131Z" transform="translate(0.923 2.416)" fill="#b8b8b8"/>
      <path id="Trazado_612397" data-name="Trazado 612397" d="M113.412,16.42H41.45V260.547h71.962Z" transform="translate(0.414 0.164)" fill="#fff" opacity="0.1"/>
      <g id="Grupo_1015788" data-name="Grupo 1015788" transform="translate(59.56 16.584)" opacity="0.3">
        <path id="Trazado_612398" data-name="Trazado 612398" d="M107.016,16.42H84.069L58.97,260.547H81.907Z" transform="translate(-58.97 -16.42)" fill="#fff"/>
      </g>
      <path id="Trazado_612399" data-name="Trazado 612399" d="M114.975,13.36H41.8v6.191h73.175Z" transform="translate(0.418 0.134)" fill="#d5d4d4"/>
      <path id="Trazado_612400" data-name="Trazado 612400" d="M114.975,256.02H41.8v6.191h73.175Z" transform="translate(0.418 2.56)" fill="#ebebeb"/>
      <path id="Trazado_612401" data-name="Trazado 612401" d="M117.845,269.97H38.52V7.37h79.325ZM44.57,263.92H111.8V13.42H44.57v250.5Z" transform="translate(0.385 0.074)" fill="#ebebeb"/>
      <path id="Trazado_612402" data-name="Trazado 612402" d="M243.54,300.948l-.808.1c-.051-.414-4.959-41.5,5.171-75.073,10.07-33.37,3.131-54.641,3.06-54.843l.778-.263c.071.212,7.08,21.725-3.06,55.348-10.08,33.411-5.191,74.326-5.141,74.74Z" transform="translate(2.415 1.709)" fill="#d5d4d4"/>
      <path id="Trazado_612403" data-name="Trazado 612403" d="M252.368,175.7a12.692,12.692,0,0,0-6.828-4.2l.182-.8a13.575,13.575,0,0,1,7.262,4.474l-.626.525Z" transform="translate(2.455 1.707)" fill="#d5d4d4"/>
      <path id="Trazado_612404" data-name="Trazado 612404" d="M255.749,179.025l-2.33,1.317.4.712,2.33-1.317Z" transform="translate(2.534 1.79)" fill="#d5d4d4"/>
      <path id="Trazado_612405" data-name="Trazado 612405" d="M251.534,197.878a19.428,19.428,0,0,0-10.484-10.171l.3-.758a20.209,20.209,0,0,1,10.928,10.6Z" transform="translate(2.41 1.869)" fill="#d5d4d4"/>
      <path id="Trazado_612406" data-name="Trazado 612406" d="M249.32,223.281H248.5a11.182,11.182,0,0,0-4.222-8.565l.505-.636a12.038,12.038,0,0,1,4.525,9.211Z" transform="translate(2.443 2.141)" fill="#d5d4d4"/>
      <path id="Trazado_612407" data-name="Trazado 612407" d="M247.478,229.738l-.758-.3a8.165,8.165,0,0,1,4.636-4.575l.293.757a7.326,7.326,0,0,0-4.171,4.111Z" transform="translate(2.467 2.249)" fill="#d5d4d4"/>
      <path id="Trazado_612408" data-name="Trazado 612408" d="M242.236,271.021l-.626-.525c.99-1.192,1.737-5.747,2.141-8.2.1-.586.182-1.081.242-1.444l.8.151c-.071.354-.151.848-.242,1.424-.606,3.656-1.273,7.323-2.323,8.585Z" transform="translate(2.416 2.608)" fill="#d5d4d4"/>
      <path id="Trazado_612409" data-name="Trazado 612409" d="M241.848,283.931a8.03,8.03,0,0,0-7.787-5.373l-.04-.818a8.872,8.872,0,0,1,8.6,5.929l-.778.252Z" transform="translate(2.34 2.777)" fill="#d5d4d4"/>
      <path id="Trazado_612410" data-name="Trazado 612410" d="M248,292.33l-5.748,6.431.61.545,5.748-6.431Z" transform="translate(2.422 2.923)" fill="#d5d4d4"/>
      <path id="Trazado_612411" data-name="Trazado 612411" d="M252.172,250.868c1.3,4.212-7.777,12.241-7.777,12.241s-12.029-1.5-13.322-5.717,1.747-11.11,7.575-12.908,12.231,2.182,13.534,6.393Z" transform="translate(2.308 2.44)" fill="#f0f0f0"/>
      <path id="Trazado_612412" data-name="Trazado 612412" d="M262.086,200.281c-1.151,4.474-9.757,7.656-9.757,7.656s-6-6.939-4.848-11.413,5.909-9.4,9.938-8.373,5.807,7.656,4.656,12.13Z" transform="translate(2.473 1.88)" fill="#ebebeb"/>
      <path id="Trazado_612413" data-name="Trazado 612413" d="M227.923,266.392c5.4,2.1,8.706,11.655,8.706,11.655s-8.9,4.8-14.3,2.7-11.12-8.029-9.575-11.989,9.757-4.464,15.16-2.363Z" transform="translate(2.125 2.652)" fill="#f5f5f5"/>
      <path id="Trazado_612414" data-name="Trazado 612414" d="M239.545,214.46a11.527,11.527,0,0,0,3.686,2.081,3.908,3.908,0,0,0,3.939-.929c1.151-1.333.848-3.394.121-5-1.444-3.181-6.767-8.575-10.857-7.03-5.9,2.232.475,8.918,3.111,10.868Z" transform="translate(2.34 2.033)" fill="#b8b8b8"/>
      <path id="Trazado_612415" data-name="Trazado 612415" d="M251.463,222.419c-.778.96-1.6,2.171-1.172,3.323a2.468,2.468,0,0,0,2.717,1.333,7.293,7.293,0,0,0,2.919-1.424c2.081-1.444,6.353-4.484,3.626-7.322C256.715,215.38,253.089,220.4,251.463,222.419Z" transform="translate(2.502 2.174)" fill="#ebebeb"/>
      <path id="Trazado_612416" data-name="Trazado 612416" d="M234.21,182.37a2.16,2.16,0,0,0-1.949,1.576c-.182,1.03.677,1.939,1.515,2.576,2.07,1.6,8.282,5.9,9.676,1.747C244.764,184.35,236.967,182.067,234.21,182.37Z" transform="translate(2.322 1.823)" fill="#d5d4d4"/>
      <path id="Trazado_612417" data-name="Trazado 612417" d="M245.6,168.853c-1.283.121-2.565-.343-3.848-.263s-2.717,1.111-2.424,2.374c.263,1.161,1.707,1.545,2.9,1.626a23.01,23.01,0,0,0,6.06-.414,1.828,1.828,0,0,0,1.232-.626c.515-.768-.3-1.788-1.192-2.06a13.03,13.03,0,0,1-2.687-.636Z" transform="translate(2.393 1.686)" fill="#b8b8b8"/>
      <path id="Trazado_612418" data-name="Trazado 612418" d="M257.989,177.6c1.293.04,2.535-.515,3.818-.515s2.777.939,2.575,2.212c-.182,1.172-1.606,1.656-2.788,1.808a23.122,23.122,0,0,1-6.08-.02,1.9,1.9,0,0,1-1.273-.535c-.566-.727.192-1.808,1.05-2.141a12.513,12.513,0,0,0,2.636-.818h.04Z" transform="translate(2.54 1.771)" fill="#f0f0f0"/>
      <path id="Trazado_612419" data-name="Trazado 612419" d="M256.8,271.565a1.769,1.769,0,0,1,1.091-.545,1.232,1.232,0,0,1,1.091,1.071,3.458,3.458,0,0,1-.212,1.626C257.9,276.636,248.1,297.8,245.843,294c-1.333-2.242,1.939-9.686,2.909-11.787a30.829,30.829,0,0,1,8.04-10.645Z" transform="translate(2.455 2.71)" fill="#f0f0f0"/>
      <path id="Trazado_612420" data-name="Trazado 612420" d="M250.89,169.7c.778-1.747,1.616-3.575,3.161-4.7s4.02-1.212,5.151.333c1.263,1.727,0,4.353-1.929,5.272s-4.191.646-6.3.343c-.02-.313-.03-.626-.05-.939Z" transform="translate(2.509 1.642)" fill="#b8b8b8"/>
      <path id="Trazado_612421" data-name="Trazado 612421" d="M258.106,327.96a94.969,94.969,0,0,1-31.714,0l-12.332-36.4h56.388l-12.332,36.4Z" transform="translate(2.141 2.916)" fill="#f0f0f0"/>
      <path id="Trazado_612422" data-name="Trazado 612422" d="M250.8,58.445A20.937,20.937,0,1,0,229.86,37.507,20.937,20.937,0,0,0,250.8,58.445Z" transform="translate(2.299 0.166)" fill="#d5d4d4"/>
      <path id="Trazado_612423" data-name="Trazado 612423" d="M270.08,40a20.937,20.937,0,1,0-24.021,17.312A20.937,20.937,0,0,0,270.08,40Z" transform="translate(2.285 0.157)" fill="#ebebeb"/>
      <path id="Trazado_612424" data-name="Trazado 612424" d="M266.163,36.737A16.806,16.806,0,1,1,249.356,19.93,16.806,16.806,0,0,1,266.163,36.737Z" transform="translate(2.325 0.199)" fill="#fff" opacity="0.8"/>
      <path id="Trazado_612425" data-name="Trazado 612425" d="M248.295,38.169a1.707,1.707,0,1,1,2.414,0A1.707,1.707,0,0,1,248.295,38.169Z" transform="translate(2.478 0.353)" fill="#d5d4d4"/>
      <path id="Trazado_612426" data-name="Trazado 612426" d="M249.19,36.373l9.928-.3.03,1.02-8.989.273-.97,15.645-1.02-.061Z" transform="translate(2.482 0.361)" fill="#d5d4d4"/>
      <path id="Trazado_612427" data-name="Trazado 612427" d="M431.394,309.313l5.131-81.669a52.679,52.679,0,1,0-105.171-6.272l-5.383,95.384h97.485a7.941,7.941,0,0,0,7.928-7.454Z" transform="translate(3.26 1.717)" fill="#3b5620"/>
      <path id="Trazado_612428" data-name="Trazado 612428" d="M431.576,306.354l4.939-78.709a52.679,52.679,0,1,0-105.171-6.272l-5.383,95.384h94.526a11.1,11.1,0,0,0,11.08-10.413Z" transform="translate(3.26 1.717)" opacity="0.1"/>
      <path id="Trazado_612429" data-name="Trazado 612429" d="M415.729,316.767l5.6-89.112a52.674,52.674,0,1,0-105.161-6.272l-5.383,95.384Z" transform="translate(3.108 1.717)" fill="#3b5620"/>
      <path id="Trazado_612430" data-name="Trazado 612430" d="M416.384,330.672h1.343a1.529,1.529,0,0,0,1.434-1.374l1.99-13.968H412.96l1.99,13.968A1.538,1.538,0,0,0,416.384,330.672Z" transform="translate(4.13 3.153)" fill="#3b5620"/>
      <path id="Trazado_612431" data-name="Trazado 612431" d="M416.384,330.672h1.343a1.529,1.529,0,0,0,1.434-1.374l1.99-13.968H412.96l1.99,13.968A1.538,1.538,0,0,0,416.384,330.672Z" transform="translate(4.13 3.153)" fill="#fff" opacity="0.7"/>
      <path id="Trazado_612432" data-name="Trazado 612432" d="M285.731,330.672h1.222a1.452,1.452,0,0,0,1.3-1.374l1.8-13.968H282.63l1.8,13.968A1.46,1.46,0,0,0,285.731,330.672Z" transform="translate(2.826 3.153)" fill="#3b5620"/>
      <path id="Trazado_612433" data-name="Trazado 612433" d="M285.731,330.672h1.222a1.452,1.452,0,0,0,1.3-1.374l1.8-13.968H282.63l1.8,13.968A1.46,1.46,0,0,0,285.731,330.672Z" transform="translate(2.826 3.153)" fill="#fff" opacity="0.5"/>
      <path id="Trazado_612434" data-name="Trazado 612434" d="M323.341,330.672h1.222a1.452,1.452,0,0,0,1.3-1.374l1.8-13.968H320.24l1.8,13.968A1.46,1.46,0,0,0,323.341,330.672Z" transform="translate(3.202 3.153)" fill="#3b5620"/>
      <path id="Trazado_612435" data-name="Trazado 612435" d="M323.341,330.672h1.222a1.452,1.452,0,0,0,1.3-1.374l1.8-13.968H320.24l1.8,13.968A1.46,1.46,0,0,0,323.341,330.672Z" transform="translate(3.202 3.153)" fill="#fff" opacity="0.7"/>
      <path id="Trazado_612436" data-name="Trazado 612436" d="M375.884,330.672h1.343a1.529,1.529,0,0,0,1.434-1.374l1.99-13.968H372.46l1.99,13.968A1.538,1.538,0,0,0,375.884,330.672Z" transform="translate(3.725 3.153)" fill="#3b5620"/>
      <path id="Trazado_612437" data-name="Trazado 612437" d="M375.884,330.672h1.343a1.529,1.529,0,0,0,1.434-1.374l1.99-13.968H372.46l1.99,13.968A1.538,1.538,0,0,0,375.884,330.672Z" transform="translate(3.725 3.153)" fill="#fff" opacity="0.5"/>
      <path id="Trazado_612438" data-name="Trazado 612438" d="M332.378,282.64H296.462l-2.384-34.623-.505-7.434-.232-3.434a22.787,22.787,0,0,0-.354-2.676c-.04-.192-.091-.394-.131-.6a2.107,2.107,0,0,0-.111-.434,20.7,20.7,0,0,0-5.474-9.292,17.6,17.6,0,0,0-11.211-5.06h33.774c.374-.02.737-.03,1.111-.03a17.572,17.572,0,0,1,12.241,5.09,20.793,20.793,0,0,1,5.474,9.292,2.111,2.111,0,0,1,.111.434,21.279,21.279,0,0,1,.475,3.272l.232,3.424,2.889,42.067Z" transform="translate(2.761 2.191)" fill="#3b5620"/>
      <path id="Trazado_612439" data-name="Trazado 612439" d="M332.378,282.64H296.462l-2.384-34.623-.505-7.434-.232-3.434a22.787,22.787,0,0,0-.354-2.676c-.04-.192-.091-.394-.131-.6a2.107,2.107,0,0,0-.111-.434,20.7,20.7,0,0,0-5.474-9.292,17.6,17.6,0,0,0-11.211-5.06h33.774c.374-.02.737-.03,1.111-.03a17.572,17.572,0,0,1,12.241,5.09,20.793,20.793,0,0,1,5.474,9.292,2.111,2.111,0,0,1,.111.434,21.279,21.279,0,0,1,.475,3.272l.232,3.424,2.889,42.067Z" transform="translate(2.761 2.191)" opacity="0.1"/>
      <g id="Grupo_1015789" data-name="Grupo 1015789" transform="translate(363.6 266.387)" opacity="0.1">
        <path id="Trazado_612440" data-name="Trazado 612440" d="M360,263.75h14.423c3.5,0,6.353,2.222,6.353,4.959v8.534c0,2.737-2.838,4.959-6.353,4.959H360Z" transform="translate(-360 -263.75)"/>
      </g>
      <path id="Trazado_612441" data-name="Trazado 612441" d="M301.744,282.193h63.529a5.475,5.475,0,0,0,5.474-5.474v-7.5a5.475,5.475,0,0,0-5.474-5.474H301.744a5.475,5.475,0,0,0-5.474,5.474v7.5A5.475,5.475,0,0,0,301.744,282.193Z" transform="translate(2.963 2.637)" fill="#3b5620"/>
      <path id="Trazado_612442" data-name="Trazado 612442" d="M450.7,239.523a20.464,20.464,0,0,1-16.978,20.17L429.991,308.9c-.323,4.181-3.353,7.393-6.989,7.393H383.39c3.636,0,6.666-3.2,6.989-7.393l1.99-26.27,1.727-22.947a20.43,20.43,0,0,0,14.685-10.767c.192-.353.364-.727.525-1.111a20.307,20.307,0,0,0,1.333-12.463c-.111-.545-.242-1.1-.394-1.626a20.474,20.474,0,0,0-3.4-6.656h-.01a20.48,20.48,0,0,0-16.221-8h39.612a20.559,20.559,0,0,1,16.231,8h.01A20.461,20.461,0,0,1,450.7,239.523Z" transform="translate(3.834 2.191)" fill="#3b5620"/>
      <path id="Trazado_612443" data-name="Trazado 612443" d="M450.7,239.523a20.464,20.464,0,0,1-16.978,20.17L429.991,308.9c-.323,4.181-3.353,7.393-6.989,7.393H383.39c3.636,0,6.666-3.2,6.989-7.393l1.99-26.27,1.727-22.947a20.43,20.43,0,0,0,14.685-10.767c.192-.353.364-.727.525-1.111a20.307,20.307,0,0,0,1.333-12.463c-.111-.545-.242-1.1-.394-1.626a20.474,20.474,0,0,0-3.4-6.656h-.01a20.48,20.48,0,0,0-16.221-8h39.612a20.559,20.559,0,0,1,16.231,8h.01A20.461,20.461,0,0,1,450.7,239.523Z" transform="translate(3.834 2.191)" opacity="0.1"/>
      <path id="Trazado_612444" data-name="Trazado 612444" d="M412.351,239.523c0,10.11-6.656,18.523-15.392,20.17L393.585,308.9c-.293,4.191-3.04,7.393-6.343,7.393H281.455c-3.293,0-6.04-3.212-6.343-7.393l-3.384-49.288c-8.565-1.8-15.039-10.11-15.039-20.089A21.858,21.858,0,0,1,260.1,227.7a19.253,19.253,0,0,1,6.848-6.474,16.922,16.922,0,0,1,8.292-2.171,17.572,17.572,0,0,1,12.241,5.09,20.738,20.738,0,0,1,5.474,9.292,2.086,2.086,0,0,1,.1.434,21.328,21.328,0,0,1,.475,3.262l.242,3.424,2.879,42.067h75.386l3.121-45.49c.444-6.424,3.575-11.777,7.918-14.312a17.257,17.257,0,0,1,9.605-3.727,10.227,10.227,0,0,1,1.111-.05,16.8,16.8,0,0,1,8.06,2.05,2.564,2.564,0,0,1,.232.121,19.23,19.23,0,0,1,6.424,5.828,21.888,21.888,0,0,1,3.828,12.463Z" transform="translate(2.567 2.19)" fill="#3b5620"/>
      <path id="Trazado_612445" data-name="Trazado 612445" d="M370.295,316.293h-88.84c-3.293,0-6.04-3.212-6.343-7.393l-3.384-49.288c-8.565-1.8-15.039-10.11-15.039-20.089A21.858,21.858,0,0,1,260.1,227.7a19.253,19.253,0,0,1,6.848-6.474,16.922,16.922,0,0,1,8.292-2.171,17.572,17.572,0,0,1,12.241,5.09,20.738,20.738,0,0,1,5.474,9.292,2.086,2.086,0,0,1,.1.434,21.328,21.328,0,0,1,.475,3.262l.242,3.424,2.879,42.066h75.386l-1.747,33.663Z" transform="translate(2.567 2.19)" fill="#fff" opacity="0.1"/>
      <path id="Trazado_612446" data-name="Trazado 612446" d="M358.572,176.895c-1.757.97-3.363,1.848-5.02,2.7s-3.343,1.656-5.02,2.434c-3.394,1.555-6.828,3.02-10.373,4.313q-5.348,2-10.868,3.444a69.343,69.343,0,0,1-11.676,2.091l-.828.081-.4-.03c-3.565-.414-6.727-1.06-9.9-1.717s-6.312-1.4-9.423-2.192-6.2-1.616-9.282-2.5-6.161-1.808-9.211-2.848l1.4-7.009c6.353.414,12.7,1.05,18.978,1.667l9.383.939c3.091.293,6.252.566,9.019.667l-1.222.03a67.806,67.806,0,0,0,9.353-2.363c3.171-1.04,6.333-2.161,9.484-3.525s6.292-2.747,9.413-4.222c1.586-.727,3.141-1.5,4.656-2.252s3.131-1.565,4.515-2.283l7.04,12.6Z" transform="translate(2.766 1.643)" fill="#263238"/>
      <path id="Trazado_612447" data-name="Trazado 612447" d="M358.572,176.895c-1.757.97-3.363,1.848-5.02,2.7s-3.343,1.656-5.02,2.434c-3.394,1.555-6.828,3.02-10.373,4.313q-5.348,2-10.868,3.444a69.343,69.343,0,0,1-11.676,2.091l-.828.081-.4-.03c-3.565-.414-6.727-1.06-9.9-1.717s-6.312-1.4-9.423-2.192-6.2-1.616-9.282-2.5-6.161-1.808-9.211-2.848l1.4-7.009c6.353.414,12.7,1.05,18.978,1.667l9.383.939c3.091.293,6.252.566,9.019.667l-1.222.03a67.806,67.806,0,0,0,9.353-2.363c3.171-1.04,6.333-2.161,9.484-3.525s6.292-2.747,9.413-4.222c1.586-.727,3.141-1.5,4.656-2.252s3.131-1.565,4.515-2.283l7.04,12.6Z" transform="translate(2.766 1.643)" opacity="0.1"/>
      <path id="Trazado_612448" data-name="Trazado 612448" d="M276.7,171.774a17.123,17.123,0,0,0-4.888-2.384L269.2,179.6l7.838,3.293.889-1.091A6.957,6.957,0,0,0,276.7,171.774Z" transform="translate(2.692 1.694)" fill="#ffc3bd"/>
      <path id="Trazado_612449" data-name="Trazado 612449" d="M269.268,179.641l2.616-10.211-7.312-3.99-2.2,7.191Z" transform="translate(2.624 1.654)" fill="#ffc3bd"/>
      <path id="Trazado_612450" data-name="Trazado 612450" d="M333.41,187.15h.4c3.858-.4,15.19-2.313,23.4-10.4-1.232-2.363-2.909-4.192-4.959-4.606-5.656-1.03-12.585,3.02-18.857,15.009Z" transform="translate(3.334 1.72)" opacity="0.2"/>
      <path id="Trazado_612451" data-name="Trazado 612451" d="M339.98,240.111c9.676-26.129,3.313-50.157,4.525-63.448a15.188,15.188,0,0,1,12.251-13.514c6.616-1.283,14.776-2.707,22.574-3.757a15.235,15.235,0,0,1,17.311,15.332c-.687,39.42-13.312,65.387-13.312,65.387l-20.392-.091Z" transform="translate(3.4 1.592)" fill="#3b5620"/>
      <path id="Trazado_612452" data-name="Trazado 612452" d="M339.98,240.111c9.676-26.129,3.313-50.157,4.525-63.448a15.188,15.188,0,0,1,12.251-13.514c6.616-1.283,14.776-2.707,22.574-3.757a15.235,15.235,0,0,1,17.311,15.332c-.687,39.42-13.312,65.387-13.312,65.387l-20.392-.091Z" transform="translate(3.4 1.592)" fill="#fff" opacity="0.8"/>
      <path id="Trazado_612453" data-name="Trazado 612453" d="M263.386,327.59l-2.586,17h8.211l5.4-17Z" transform="translate(2.608 3.276)" fill="#ffc3bd"/>
      <path id="Trazado_612454" data-name="Trazado 612454" d="M259.944,340.673l10.979-.253a.623.623,0,0,1,.687.606l.02,8.06a1.847,1.847,0,0,1-1.808,1.646c-3.818.03-5.636-.141-10.464-.03A123.139,123.139,0,0,1,244,349.692c-3.909-.667-2.858-4.343-1.081-4.4,7.989-.293,12.443-1.959,15.312-4.02A2.969,2.969,0,0,1,259.944,340.673Z" transform="translate(2.413 3.404)" fill="#263238"/>
      <path id="Trazado_612455" data-name="Trazado 612455" d="M262.33,334.408l1.04-6.818H274.4l-2.656,8.494Z" transform="translate(2.623 3.276)" opacity="0.2"/>
      <path id="Trazado_612456" data-name="Trazado 612456" d="M335.707,233.26s-66.811.667-67.842,21.826c-1.475,30.421-6.616,76.8-6.616,76.8l12.6,3.464s17.968-45.985,18.675-69.751c18.786-3.747,67.1,0,72.781-12.342a33.209,33.209,0,0,0,2.141-20H335.707Z" transform="translate(2.612 2.333)" fill="#3b5620"/>
      <path id="Trazado_612457" data-name="Trazado 612457" d="M335.707,233.26s-66.811.667-67.842,21.826c-1.475,30.421-6.616,76.8-6.616,76.8l12.6,3.464s17.968-45.985,18.675-69.751c18.786-3.747,67.1,0,72.781-12.342a33.209,33.209,0,0,0,2.141-20H335.707Z" transform="translate(2.612 2.333)" opacity="0.6"/>
      <path id="Trazado_612458" data-name="Trazado 612458" d="M321.56,334.1l4.454,11.544h9.009l-3.1-12.14Z" transform="translate(3.216 3.335)" fill="#ffc3bd"/>
      <path id="Trazado_612459" data-name="Trazado 612459" d="M332.78,336.838l-1.747-8.878-11.383,1.414,2.919,7.716Z" transform="translate(3.196 3.28)" opacity="0.2"/>
      <path id="Trazado_612460" data-name="Trazado 612460" d="M323.72,341.73h11.494a.706.706,0,0,1,.757.656l.566,8.625a1.775,1.775,0,0,1-1.8,1.727c-4-.061-5.919-.293-10.979-.293-3.1,0-9.383.3-13.675.3s-4.171-4.02-2.353-4.353c8.171-1.636,11.332-3.888,14.221-6.05A3,3,0,0,1,323.72,341.73Z" transform="translate(3.065 3.417)" fill="#263238"/>
      <path id="Trazado_612461" data-name="Trazado 612461" d="M353.375,233.26s-60.59,4.111-59.105,25.26c1.626,23.149,25.9,76.831,25.9,76.831h12.251s-8.141-48.722-11.837-72.306c17.089,0,56.7,2.576,62.388-9.8a33.137,33.137,0,0,0,2.131-20H353.386Z" transform="translate(2.942 2.332)" fill="#3b5620"/>
      <path id="Trazado_612462" data-name="Trazado 612462" d="M353.375,233.26s-60.59,4.111-59.105,25.26c1.626,23.149,25.9,76.831,25.9,76.831h12.251s-8.141-48.722-11.837-72.306c17.089,0,56.7,2.576,62.388-9.8a33.137,33.137,0,0,0,2.131-20H353.386Z" transform="translate(2.942 2.332)" opacity="0.5"/>
      <path id="Trazado_612463" data-name="Trazado 612463" d="M361.951,148.6c1.394,5.393,1.838,12.1-5.7,14.9-2.091,3.333-3.111,6.838,4.939,5.6a24.809,24.809,0,0,0,16.251-9.191c-4.818-4.212-3.939-17.16-2.717-24.462l-12.766,13.17Z" transform="translate(3.548 1.354)" fill="#ffc3bd"/>
      <path id="Trazado_612464" data-name="Trazado 612464" d="M361.264,158.18c-6.908,1.192-12.6,6.535-15.655,12.847s-3.787,13.5-3.727,20.523.859,14.019.677,21.028c-.212,8.1-2.172,13.807-4.959,21.422,0,1.808,2.737,2.828,5.06,3.3,4.828-10.534,8-20.6,7.666-32.189-.242-8.4-.364-17.978,1.01-26.27,1.353-8.171,11.282-19.1,10.807-20.594l-.879-.061Z" transform="translate(3.376 1.582)" fill="#263238"/>
      <path id="Trazado_612465" data-name="Trazado 612465" d="M367.753,152.475a6.784,6.784,0,0,1-5.111,1.242,24.2,24.2,0,0,0-.283-3.919l8.363-6.868a18.726,18.726,0,0,1,.353,2.707,7.656,7.656,0,0,1-3.323,6.848Z" transform="translate(3.624 1.429)" opacity="0.3"/>
      <path id="Trazado_612466" data-name="Trazado 612466" d="M355.4,116.908c-8.848,4.989-8.939,19.129-6.212,27.29a12.239,12.239,0,0,0,21.442,3.6c4.323-5.464,3.7-10.979,3.485-20.473-.232-9.474-9.878-15.413-18.725-10.423Z" transform="translate(3.476 1.151)" fill="#ffc3bd"/>
      <path id="Trazado_612467" data-name="Trazado 612467" d="M358.228,142.131c-2.848,1.222-5.969,2.808-8.848,2.464a12.227,12.227,0,0,0,21.24,3.04c3.535-4.474,4.646-7.5,3.606-15.665C368.711,138.454,364.318,139.525,358.228,142.131Z" transform="translate(3.494 1.32)" opacity="0.2"/>
      <path id="Trazado_612468" data-name="Trazado 612468" d="M366.612,120.037a8.049,8.049,0,0,0,.9,9.666c.8.838,1.778,1.485,2.545,2.353a6.941,6.941,0,0,1,1.737,4.909,5.076,5.076,0,0,1,4.8-4.272q-1.8,5.56-3.6,11.11a15.386,15.386,0,0,0,8.777-12.12c.768-7.141-8.08-22.5-15.15-11.645Z" transform="translate(3.654 1.163)" fill="#263238"/>
      <path id="Trazado_612469" data-name="Trazado 612469" d="M346.194,120.629a5.893,5.893,0,0,0-1.4,2.626,2.477,2.477,0,0,0,1.06,2.616,3.747,3.747,0,0,0,2.4.111c2.687-.465,5.373-.939,8.06-1.4,4.626-.808,9.252-1.606,13.817-2.707,2.05-.495,4.353-1.262,5.161-3.212,2.616-6.312-8.565-7.131-12.292-6.949-6.4.3-12.837,3.979-16.806,8.908Z" transform="translate(3.447 1.117)" fill="#263238"/>
      <path id="Trazado_612470" data-name="Trazado 612470" d="M375.317,130.971c-2.656.6-3.777,4.4-3.707,6.848.02,2.767,2.05,4.575,4.353,2.909a8.551,8.551,0,0,0,3.313-5.333c.475-2.626-1.313-5.02-3.969-4.424Z" transform="translate(3.716 1.309)" fill="#ffc3bd"/>
      <path id="Trazado_612471" data-name="Trazado 612471" d="M356.8,140.572a3.267,3.267,0,0,1-2.747.414c1.02-2.283.889-1.768,1.2-5.656l1.555,5.232Z" transform="translate(3.54 1.353)" fill="#ed847e"/>
      <path id="Trazado_612472" data-name="Trazado 612472" d="M361.424,128.019c-.758-.848-2.828-1.172-3.949-1.01h-.03a.432.432,0,0,1-.495-.354.481.481,0,0,1,.384-.535c1.414-.212,3.767.212,4.727,1.273a.46.46,0,0,1-.04.646.7.7,0,0,1-.2.131.419.419,0,0,1-.4-.151Z" transform="translate(3.569 1.261)" fill="#263238"/>
      <path id="Trazado_612473" data-name="Trazado 612473" d="M348.442,129.95l-.03-.02a.427.427,0,0,1-.121-.6,4.693,4.693,0,0,1,3.464-2.373h.03a.427.427,0,0,1,.424.424.476.476,0,0,1-.434.485,3.788,3.788,0,0,0-2.727,1.919.5.5,0,0,1-.364.232.446.446,0,0,1-.253-.061Z" transform="translate(3.482 1.27)" fill="#263238"/>
      <path id="Trazado_612474" data-name="Trazado 612474" d="M355.98,144.622a39.691,39.691,0,0,1,2.677,3.888c.212-.081.424-.172.626-.263,2.848-1.232,3.656-2.949,3.686-4.474a5.733,5.733,0,0,0-.454-2.232,6.072,6.072,0,0,0-.616-1.172c-1.02,1.747-3.555,3.141-4.949,3.818a9.914,9.914,0,0,1-.96.434Z" transform="translate(3.56 1.404)" fill="#2e353a"/>
      <path id="Trazado_612475" data-name="Trazado 612475" d="M356.93,144.188l.4.566a.849.849,0,0,0,1.04.273c2.1-.99,3.495-2.04,4-3.161a.82.82,0,0,0-.03-.687,6.139,6.139,0,0,0-.465-.818c-1.02,1.747-3.555,3.141-4.949,3.818Z" transform="translate(3.569 1.404)" fill="#fff"/>
      <path id="Trazado_612476" data-name="Trazado 612476" d="M359.25,148.214c2.848-1.232,3.656-2.949,3.686-4.474a8.269,8.269,0,0,0-2.818,2.131A4.008,4.008,0,0,0,359.25,148.214Z" transform="translate(3.592 1.437)" fill="#de5753"/>
      <path id="Trazado_612477" data-name="Trazado 612477" d="M351.657,133.09c-.495.091-.778.788-.626,1.555s.677,1.3,1.172,1.2.778-.788.626-1.555C352.7,133.545,352.152,133,351.657,133.09Z" transform="translate(3.51 1.331)" fill="#263238"/>
      <path id="Trazado_612478" data-name="Trazado 612478" d="M360.237,131.67c-.495.091-.778.788-.626,1.555s.677,1.3,1.172,1.2.778-.788.626-1.555C361.277,132.125,360.732,131.579,360.237,131.67Z" transform="translate(3.596 1.317)" fill="#263238"/>
      <path id="Trazado_612479" data-name="Trazado 612479" d="M347.87,137.124l6.373-1.434.1,2.707-5.919,1.414Z" transform="translate(3.479 1.357)" fill="#fff" opacity="0.9"/>
      <g id="Grupo_1015790" data-name="Grupo 1015790" transform="translate(359.661 134.471)" opacity="0.8">
        <path id="Trazado_612480" data-name="Trazado 612480" d="M356.1,135.291l.758,2.485,8.181-1.757-.485-2.879Z" transform="translate(-356.1 -133.14)" fill="#fff" opacity="0.9"/>
      </g>
      <path id="Trazado_612481" data-name="Trazado 612481" d="M354.22,136.694l-.04-1,1.939-.424.293.939Z" transform="translate(3.542 1.353)" fill="#263238"/>
      <path id="Trazado_612482" data-name="Trazado 612482" d="M351.92,238.967s11.5,4.454,14.13,5.333a33.85,33.85,0,0,0,9.474,2.172,11.663,11.663,0,0,0,8.959-3.343c2.747-2.929,3.6-7.373,4.313-11.544q3.166-18.377,6.323-36.754c1.04-6.04,3.666-15.12,3.444-18.574-.414-6.363-4.464-13.867-14.776-18.008-4.01-1.606-7.959-.99-11.342,3.05-2.02,2.414-7.9,8.2-9.342,18.412-1.161,8.181-2.949,18.776-2.838,27.088.141,10.908-4.2,24.684-8.343,32.158Z" transform="translate(3.519 1.574)" fill="#263238"/>
      <path id="Trazado_612483" data-name="Trazado 612483" d="M398.08,172.8c1.172,10.645-4.717,37.481-5.848,39.1-4.828,15.574-18.079,7.181-20.008,6.464-3.343-1.232-6.747-3.646-9.928-5.252-6.171-3.06-12.019-5.535-17.756-9.353l3.232-6.383c6.282,2.151,24.1,6.747,27.028,7.464,1.273.333,6.232,2.939,6.181-.495.707-1.141,1.677-23.371,3.808-31.219a6.622,6.622,0,0,1,1.242-2.414l.192-.242a6.809,6.809,0,0,1,11.857,2.343Z" transform="translate(3.445 1.679)" fill="#263238"/>
      <path id="Trazado_612484" data-name="Trazado 612484" d="M398.08,172.8c1.172,10.645-4.717,37.481-5.848,39.1-4.828,15.574-18.079,7.181-20.008,6.464-3.343-1.232-6.747-3.646-9.928-5.252-6.171-3.06-12.019-5.535-17.756-9.353l3.232-6.383c6.282,2.151,24.1,6.747,27.028,7.464,1.273.333,6.232,2.939,6.181-.495.707-1.141,1.677-23.371,3.808-31.219a6.622,6.622,0,0,1,1.242-2.414l.192-.242a6.809,6.809,0,0,1,11.857,2.343Z" transform="translate(3.445 1.679)" fill="#fff" opacity="0.1"/>
      <path id="Trazado_612485" data-name="Trazado 612485" d="M345.56,212.936H315.674L312.26,173.93h29.9Z" transform="translate(3.123 1.739)" fill="#263238"/>
      <path id="Trazado_612486" data-name="Trazado 612486" d="M345.56,212.936H315.674L312.26,173.93h29.9Z" transform="translate(3.123 1.739)" fill="#fff" opacity="0.5"/>
      <path id="Trazado_612487" data-name="Trazado 612487" d="M344.52,212.746h-29.9L311.21,173.73h29.9Z" transform="translate(3.112 1.737)" fill="#3b5620"/>
      <path id="Trazado_612488" data-name="Trazado 612488" d="M344.52,212.746h-29.9L311.21,173.73h29.9Z" transform="translate(3.112 1.737)" fill="#fff" opacity="0.8"/>
      <path id="Trazado_612489" data-name="Trazado 612489" d="M332.579,176.2H320l-.424-4.878h12.575Z" transform="translate(3.196 1.713)" fill="#3b5620"/>
      <path id="Trazado_612490" data-name="Trazado 612490" d="M319.58,171.324l1.232-.424h13.019l.182,2.07-.97,1.121-.061,1.7-.4.414-.424-4.878Z" transform="translate(3.196 1.709)" fill="#3b5620"/>
      <path id="Trazado_612491" data-name="Trazado 612491" d="M319.58,171.324l1.232-.424h13.019l.182,2.07-.97,1.121-.061,1.7-.4.414-.424-4.878Z" transform="translate(3.196 1.709)" opacity="0.5"/>
      <path id="Trazado_612492" data-name="Trazado 612492" d="M350.2,199.21l.687,3.646c-1.616,4.2-10.888,3.091-10.888,3.091l-.02-10.777,8.171,1.9a2.71,2.71,0,0,1,2.04,2.131Z" transform="translate(3.4 1.952)" fill="#ffc3bd"/>
      <path id="Trazado_612493" data-name="Trazado 612493" d="M340.079,195.18l.05,10.8-8.211.2-1.879-9.5Z" transform="translate(3.3 1.952)" fill="#ffc3bd"/>
      <path id="Trazado_612494" data-name="Trazado 612494" d="M370.917,282.64l3.121-45.49c.444-6.424,3.575-11.777,7.918-14.312a17.258,17.258,0,0,1,9.605-3.727,10.226,10.226,0,0,1,1.111-.05,16.8,16.8,0,0,1,8.06,2.05,2.552,2.552,0,0,1,.232.121,19.23,19.23,0,0,1,6.424,5.828,21.888,21.888,0,0,1,3.828,12.463c0,10.11-6.656,18.523-15.392,20.17L392.451,308.9c-.293,4.191-3.04,7.393-6.343,7.393H369.17l1.747-33.663Z" transform="translate(3.692 2.191)" fill="#3b5620"/>
      <path id="Trazado_612495" data-name="Trazado 612495" d="M370.917,282.64l3.121-45.49c.444-6.424,3.575-11.777,7.918-14.312a17.258,17.258,0,0,1,9.605-3.727,10.226,10.226,0,0,1,1.111-.05,16.8,16.8,0,0,1,8.06,2.05,2.552,2.552,0,0,1,.232.121,19.23,19.23,0,0,1,6.424,5.828,21.888,21.888,0,0,1,3.828,12.463c0,10.11-6.656,18.523-15.392,20.17L392.451,308.9c-.293,4.191-3.04,7.393-6.343,7.393H369.17l1.747-33.663Z" transform="translate(3.692 2.191)" fill="#fff" opacity="0.1"/>
      <path id="Trazado_612496" data-name="Trazado 612496" d="M219.031,72.689v42.228a3.991,3.991,0,0,1-3.989,3.99h-43.3L156.29,130.855a2.949,2.949,0,0,1-4.727-2.363v-9.585H149.15a3.991,3.991,0,0,1-3.99-3.99V72.679a3.972,3.972,0,0,1,3.99-3.959h65.913A3.97,3.97,0,0,1,219.031,72.689Z" transform="translate(1.452 0.687)" fill="none" stroke="#3b5620" stroke-miterlimit="10" stroke-width="1"/>
      <path id="Trazado_612497" data-name="Trazado 612497" d="M178.282,62.83H170.03v1.01h8.252Z" transform="translate(1.7 0.628)" fill="#3b5620"/>
      <path id="Trazado_612498" data-name="Trazado 612498" d="M139.99,74.728h-1.01V69.749a6.936,6.936,0,0,1,6.939-6.929h18.412v1.01H145.919a5.929,5.929,0,0,0-5.929,5.919Z" transform="translate(1.39 0.628)" fill="#3b5620"/>
      <path id="Trazado_612499" data-name="Trazado 612499" d="M197.854,99.791a3.172,3.172,0,0,1-3.192-3.414v-.04c1.081-12.312,10.837-13.443,12.059-27.452.353-4.02-1.121-5.555-3.939-5.555s-4.565,1.525-4.909,5.555l-.2,2.313a4.167,4.167,0,1,1-8.3-.727l.091-1.02c.788-9.019,5.666-14.17,14.281-14.17s12.585,5.151,11.8,14.17C214.257,84.105,203.6,86.358,202.692,96.66a.765.765,0,0,1-.01.152,3.216,3.216,0,0,1-3.192,2.99h-1.626Zm4.373,8.565v.03a4.248,4.248,0,0,1-8.464-.737v-.03a4.248,4.248,0,0,1,8.464.737Z" transform="translate(1.894 0.553)" fill="#3b5620"/>
      <path id="Trazado_612500" data-name="Trazado 612500" d="M186.75,89.6H163.56a2.02,2.02,0,1,1,0-4.04h23.19a2.02,2.02,0,0,1,0,4.04Z" transform="translate(1.615 0.856)" fill="#3b5620"/>
      <path id="Trazado_612501" data-name="Trazado 612501" d="M183.538,97.51H163.56a2.02,2.02,0,1,1,0-4.04h19.978a2.02,2.02,0,0,1,0,4.04Z" transform="translate(1.615 0.935)" fill="#3b5620"/>
      <path id="Trazado_612502" data-name="Trazado 612502" d="M180.326,105.43H163.56a2.02,2.02,0,1,1,0-4.04h16.766a2.02,2.02,0,1,1,0,4.04Z" transform="translate(1.615 1.014)" fill="#3b5620"/>
      <path id="Trazado_612503" data-name="Trazado 612503" d="M133.291,268.56H118.524c-3.585,0-6.494,2.272-6.494,5.07v8.726c0,2.8,2.909,5.07,6.494,5.07h14.766V268.56Z" transform="translate(1.12 2.685)" fill="#3b5620"/>
      <path id="Trazado_612504" data-name="Trazado 612504" d="M65.232,310.613,60.1,228.944a52.679,52.679,0,1,1,105.171-6.272l5.383,95.384H73.16a7.941,7.941,0,0,1-7.928-7.454Z" transform="translate(0.6 1.73)" fill="#3b5620"/>
      <path id="Trazado_612505" data-name="Trazado 612505" d="M65.04,307.654,60.1,228.944a52.679,52.679,0,1,1,105.171-6.272l5.383,95.384H76.13a11.1,11.1,0,0,1-11.08-10.413Z" transform="translate(0.6 1.73)" opacity="0.1"/>
      <path id="Trazado_612506" data-name="Trazado 612506" d="M80.9,318.057l-5.6-89.112a52.679,52.679,0,1,1,105.171-6.272l5.383,95.384Z" transform="translate(0.752 1.73)" fill="#3b5620"/>
      <path id="Trazado_612507" data-name="Trazado 612507" d="M79.227,331.962H77.884a1.529,1.529,0,0,1-1.434-1.374L74.46,316.62h8.191l-1.99,13.968A1.538,1.538,0,0,1,79.227,331.962Z" transform="translate(0.745 3.166)" fill="#3b5620"/>
      <path id="Trazado_612508" data-name="Trazado 612508" d="M79.227,331.962H77.884a1.529,1.529,0,0,1-1.434-1.374L74.46,316.62h8.191l-1.99,13.968A1.538,1.538,0,0,1,79.227,331.962Z" transform="translate(0.745 3.166)" fill="#fff" opacity="0.7"/>
      <path id="Trazado_612509" data-name="Trazado 612509" d="M209.873,331.962h-1.222a1.452,1.452,0,0,1-1.3-1.374l-1.8-13.968h7.423l-1.8,13.968A1.46,1.46,0,0,1,209.873,331.962Z" transform="translate(2.055 3.166)" fill="#3b5620"/>
      <path id="Trazado_612510" data-name="Trazado 612510" d="M209.873,331.962h-1.222a1.452,1.452,0,0,1-1.3-1.374l-1.8-13.968h7.423l-1.8,13.968A1.46,1.46,0,0,1,209.873,331.962Z" transform="translate(2.055 3.166)" fill="#fff" opacity="0.5"/>
      <path id="Trazado_612511" data-name="Trazado 612511" d="M172.263,331.962h-1.222a1.452,1.452,0,0,1-1.3-1.374l-1.8-13.968h7.423l-1.8,13.968A1.46,1.46,0,0,1,172.263,331.962Z" transform="translate(1.679 3.166)" fill="#3b5620"/>
      <path id="Trazado_612512" data-name="Trazado 612512" d="M172.263,331.962h-1.222a1.452,1.452,0,0,1-1.3-1.374l-1.8-13.968h7.423l-1.8,13.968A1.46,1.46,0,0,1,172.263,331.962Z" transform="translate(1.679 3.166)" fill="#fff" opacity="0.7"/>
      <path id="Trazado_612513" data-name="Trazado 612513" d="M119.727,331.962h-1.343a1.529,1.529,0,0,1-1.434-1.374l-1.99-13.968h8.191l-1.99,13.968A1.538,1.538,0,0,1,119.727,331.962Z" transform="translate(1.15 3.166)" fill="#3b5620"/>
      <path id="Trazado_612514" data-name="Trazado 612514" d="M119.727,331.962h-1.343a1.529,1.529,0,0,1-1.434-1.374l-1.99-13.968h8.191l-1.99,13.968A1.538,1.538,0,0,1,119.727,331.962Z" transform="translate(1.15 3.166)" fill="#fff" opacity="0.5"/>
      <path id="Trazado_612515" data-name="Trazado 612515" d="M163.71,283.93h35.916l2.384-34.623.505-7.434.232-3.434a22.769,22.769,0,0,1,.354-2.676c.04-.192.091-.394.131-.6a2.109,2.109,0,0,1,.111-.434,20.7,20.7,0,0,1,5.474-9.292,17.6,17.6,0,0,1,11.211-5.06H186.253c-.374-.02-.737-.03-1.111-.03a17.572,17.572,0,0,0-12.241,5.09,20.793,20.793,0,0,0-5.474,9.292,2.109,2.109,0,0,0-.111.434,21.278,21.278,0,0,0-.475,3.272l-.232,3.424L163.72,283.93Z" transform="translate(1.637 2.203)" fill="#3b5620"/>
      <path id="Trazado_612516" data-name="Trazado 612516" d="M163.71,283.93h35.916l2.384-34.623.505-7.434.232-3.434a22.769,22.769,0,0,1,.354-2.676c.04-.192.091-.394.131-.6a2.109,2.109,0,0,1,.111-.434,20.7,20.7,0,0,1,5.474-9.292,17.6,17.6,0,0,1,11.211-5.06H186.253c-.374-.02-.737-.03-1.111-.03a17.572,17.572,0,0,0-12.241,5.09,20.793,20.793,0,0,0-5.474,9.292,2.109,2.109,0,0,0-.111.434,21.278,21.278,0,0,0-.475,3.272l-.232,3.424L163.72,283.93Z" transform="translate(1.637 2.203)" opacity="0.1"/>
      <g id="Grupo_1015791" data-name="Grupo 1015791" transform="translate(116.11 267.69)" opacity="0.1">
        <path id="Trazado_612517" data-name="Trazado 612517" d="M135.736,265.04H121.313c-3.5,0-6.353,2.222-6.353,4.959v8.534c0,2.737,2.838,4.959,6.353,4.959h14.423Z" transform="translate(-114.96 -265.04)"/>
      </g>
      <path id="Trazado_612518" data-name="Trazado 612518" d="M194.523,265.04H130.994a5.475,5.475,0,0,0-5.474,5.474v7.5a5.475,5.475,0,0,0,5.474,5.474h63.529A5.475,5.475,0,0,0,200,278.018v-7.5A5.475,5.475,0,0,0,194.523,265.04Z" transform="translate(1.255 2.65)" fill="#3b5620"/>
      <path id="Trazado_612519" data-name="Trazado 612519" d="M45.5,240.813a20.464,20.464,0,0,0,16.978,20.17l3.717,49.207c.323,4.181,3.353,7.393,6.989,7.393H112.8c-3.636,0-6.666-3.2-6.989-7.393l-1.99-26.27-1.727-22.947A20.43,20.43,0,0,1,87.4,250.206c-.192-.354-.364-.727-.525-1.111a20.307,20.307,0,0,1-1.333-12.463c.111-.545.242-1.1.394-1.626a20.474,20.474,0,0,1,3.4-6.656h.01a20.48,20.48,0,0,1,16.221-8H65.963a20.361,20.361,0,0,0-6.05.919,20.73,20.73,0,0,0-3.1,1.252,20.405,20.405,0,0,0-7.08,5.828h-.01a20.46,20.46,0,0,0-4.232,12.463Z" transform="translate(0.455 2.203)" fill="#3b5620"/>
      <path id="Trazado_612520" data-name="Trazado 612520" d="M45.5,240.813a20.464,20.464,0,0,0,16.978,20.17l3.717,49.207c.323,4.181,3.353,7.393,6.989,7.393H112.8c-3.636,0-6.666-3.2-6.989-7.393l-1.99-26.27-1.727-22.947A20.43,20.43,0,0,1,87.4,250.206c-.192-.354-.364-.727-.525-1.111a20.307,20.307,0,0,1-1.333-12.463c.111-.545.242-1.1.394-1.626a20.474,20.474,0,0,1,3.4-6.656h.01a20.48,20.48,0,0,1,16.221-8H65.963a20.361,20.361,0,0,0-6.05.919,20.73,20.73,0,0,0-3.1,1.252,20.405,20.405,0,0,0-7.08,5.828h-.01a20.46,20.46,0,0,0-4.232,12.463Z" transform="translate(0.455 2.203)" opacity="0.1"/>
      <path id="Trazado_612521" data-name="Trazado 612521" d="M84.72,240.823c0,10.11,6.656,18.523,15.392,20.17l3.373,49.207c.293,4.191,3.04,7.393,6.343,7.393H215.616c3.293,0,6.04-3.212,6.343-7.393l3.383-49.288c8.565-1.8,15.039-10.11,15.039-20.089A21.858,21.858,0,0,0,236.967,229a19.253,19.253,0,0,0-6.848-6.474,16.922,16.922,0,0,0-8.292-2.172,17.572,17.572,0,0,0-12.241,5.09,20.738,20.738,0,0,0-5.474,9.292,2.092,2.092,0,0,0-.1.434,21.326,21.326,0,0,0-.475,3.262l-.242,3.424-2.878,42.066H125.029l-3.121-45.49c-.444-6.424-3.575-11.777-7.918-14.312a17.257,17.257,0,0,0-9.605-3.727,10.222,10.222,0,0,0-1.111-.051,16.8,16.8,0,0,0-8.06,2.05,2.557,2.557,0,0,0-.232.121,19.229,19.229,0,0,0-6.424,5.828A21.888,21.888,0,0,0,84.73,240.8Z" transform="translate(0.847 2.203)" fill="#3b5620"/>
      <path id="Trazado_612522" data-name="Trazado 612522" d="M126.367,317.593h88.84c3.293,0,6.04-3.212,6.343-7.393l3.383-49.288c8.565-1.8,15.039-10.11,15.039-20.089A21.858,21.858,0,0,0,236.558,229a19.253,19.253,0,0,0-6.848-6.474,16.922,16.922,0,0,0-8.292-2.171,17.572,17.572,0,0,0-12.241,5.09,20.738,20.738,0,0,0-5.474,9.292,2.09,2.09,0,0,0-.1.434,21.325,21.325,0,0,0-.475,3.262l-.242,3.424-2.878,42.066H124.63l1.747,33.663Z" transform="translate(1.246 2.203)" fill="#fff" opacity="0.1"/>
      <path id="Trazado_612523" data-name="Trazado 612523" d="M153.13,334.041l8.615,2.384,7.737-20.251-8.615-2.394Z" transform="translate(1.531 3.138)" fill="#ffc3bd"/>
      <path id="Trazado_612524" data-name="Trazado 612524" d="M165.633,333.574a4.5,4.5,0,0,0-2.757-1.677L154,330.17a.81.81,0,0,0-.96.545l-2.747,8.09a1.779,1.779,0,0,0,1.081,2.262l.061.02c3.272,1.293,5.484.848,10.605,1.838,3.151.616,9.777,2.707,14.2,2.535s4.414-4.555,2.555-4.878c-6.605-1.04-11.655-5-13.16-7Z" transform="translate(1.502 3.301)" fill="#263238"/>
      <g id="Grupo_1015792" data-name="Grupo 1015792" transform="translate(158.408 316.918)" opacity="0.2">
        <path id="Trazado_612525" data-name="Trazado 612525" d="M169.445,316.174l-3.99,10.443-8.615-2.394,3.979-10.443Z" transform="translate(-156.84 -313.78)"/>
      </g>
      <path id="Trazado_612526" data-name="Trazado 612526" d="M141.1,240.172s51.874-.283,50.247,17.089c-1.091,11.726-6.727,24.068-11.12,35.976-6.373,17.261-11.888,32.29-11.888,32.29l-11.817-4.091s10.615-49.914,17.766-55.025H130.435c-14.514,0-20.786-15.938-6.656-34.522,8.636,0,17.332,8.272,17.332,8.272Z" transform="translate(1.158 2.319)" fill="#3b5620"/>
      <path id="Trazado_612527" data-name="Trazado 612527" d="M141.1,240.172s51.874-.283,50.247,17.089c.808,10.787-23.008,68.276-23.008,68.276l-11.817-4.09s10.615-49.914,17.766-55.025H130.435c-14.514,0-20.786-15.938-6.656-34.522,8.636,0,17.332,8.272,17.332,8.272Z" transform="translate(1.158 2.319)" opacity="0.6"/>
      <path id="Trazado_612528" data-name="Trazado 612528" d="M177.44,209.149c-6.383,5.838-18.917-7.969-20.937-9.605-4.323-3.525-17.039-15.392-16.362-19.513,1.98-12.13,21.9,5.05,27.634,16.887Z" transform="translate(1.401 1.759)" fill="#263238"/>
      <path id="Trazado_612529" data-name="Trazado 612529" d="M121.885,172.715c-3.2.677-6.666-.475-8.908,1.9s-3.192,5.706-3.525,8.969a59.623,59.623,0,0,0,.707,13.595q1.061,8.2,2.111,16.4a48.8,48.8,0,0,1-.515,13.5v.03a2.176,2.176,0,0,0,1.232,2.353s24.836.859,32.057.586c3.838-.141,1.2-10.241,2.384-16.13.263-1.3,2.828-6.706,3.212-8.09,1.788-6.514.606-11-1.05-17.544-1.2-4.757-1.7-11.615-4.121-12.14-4.313-.939-14.665-5.323-23.583-3.424Z" transform="translate(1.093 1.723)" fill="#3b5620"/>
      <path id="Trazado_612530" data-name="Trazado 612530" d="M121.885,172.715c-3.2.677-6.666-.475-8.908,1.9s-3.192,5.706-3.525,8.969a59.623,59.623,0,0,0,.707,13.595q1.061,8.2,2.111,16.4a48.8,48.8,0,0,1-.515,13.5v.03a2.176,2.176,0,0,0,1.232,2.353s24.836.859,32.057.586c3.838-.141,1.2-10.241,2.384-16.13.263-1.3,2.828-6.706,3.212-8.09,1.788-6.514.606-11-1.05-17.544-1.2-4.757-1.7-11.615-4.121-12.14-4.313-.939-14.665-5.323-23.583-3.424Z" transform="translate(1.093 1.723)" fill="#fff" opacity="0.8"/>
      <path id="Trazado_612531" data-name="Trazado 612531" d="M118.361,177.354c-.333-.505-9.06-7.858-10.656.636-2.212,11.827,2.363,23.462,2.363,23.462s1.05,12.8,4.767,14.079,7.252,1.6,8.5-.6a13,13,0,0,0,1.252-5.464S124.149,186.192,118.361,177.354Z" transform="translate(1.071 1.739)" fill="#263238"/>
      <path id="Trazado_612532" data-name="Trazado 612532" d="M124.262,156.64c.909,5.444,1.667,15.392-2.232,18.9,0,0,9.514,4.979,15.746,13.665a8.229,8.229,0,0,0,2.889-9.191,8.013,8.013,0,0,0-4.01-4.838c-3.7-2.03-3.343-5.838-2.323-9.413l-10.07-9.13Z" transform="translate(1.22 1.566)" fill="#e8bfbf"/>
      <path id="Trazado_612533" data-name="Trazado 612533" d="M125.47,165.79l3.545,1.363a11.627,11.627,0,0,0,4.767.768,7.7,7.7,0,0,0,0,3.363,6.8,6.8,0,0,1-7.05-2.262,11.7,11.7,0,0,1-1.262-3.242Z" transform="translate(1.255 1.658)" opacity="0.2"/>
      <path id="Trazado_612534" data-name="Trazado 612534" d="M212.669,316.83h9.656l-10.11-24.21-6.545,11.12Z" transform="translate(2.057 2.926)" fill="#ffc3bd"/>
      <path id="Trazado_612535" data-name="Trazado 612535" d="M221.523,314.356,210.2,311.78a.779.779,0,0,0-.949.5l-3.161,8.706a1.739,1.739,0,0,0,1.182,2.151.436.436,0,0,1,.05.01c3.969.828,5.919,1.03,10.9,2.161,3.07.7,10.827,2.737,15.049,3.7s5.343-3.181,3.656-3.969c-7.555-3.495-11.645-6.838-13.837-9.686a2.787,2.787,0,0,0-1.576-1.01Z" transform="translate(2.06 3.117)" fill="#263238"/>
      <g id="Grupo_1015793" data-name="Grupo 1015793" transform="translate(207.727 295.556)" opacity="0.2">
        <path id="Trazado_612536" data-name="Trazado 612536" d="M212.215,292.63l4.3,10.312-8.686,4.848-2.161-4.04Z" transform="translate(-205.67 -292.63)"/>
      </g>
      <path id="Trazado_612537" data-name="Trazado 612537" d="M111.551,228.983l-1.04,3.293c-.141.253.152.525.586.535l37.41,1.131c.333,0,.616-.141.646-.364l.434-3.3c0-.232-.253-.434-.616-.444l-36.764-1.111A.692.692,0,0,0,111.551,228.983Z" transform="translate(1.105 2.287)" fill="#263238"/>
      <path id="Trazado_612538" data-name="Trazado 612538" d="M158.339,256.024c-12.292,5.242-25.634,10.474-32.876,10.474-14.524,0-27.421-10.484-13.665-34.33,8.635-.03,23.654.242,23.654.242s28.32-8.04,48.864-5.7A23.2,23.2,0,0,1,204.4,245.268c5.212,26.24,13.241,54.661,13.241,54.661l-10.332,7.03s-16.109-33.875-25.381-60.751c-4.9,1.566-13.918,5.686-23.583,9.807Z" transform="translate(1.059 2.263)" fill="#3b5620"/>
      <path id="Trazado_612539" data-name="Trazado 612539" d="M204.406,245.278a23.2,23.2,0,0,0-20.089-18.554c-20.543-2.343-48.864,5.7-48.864,5.7s-15.019-.273-23.654-.242c-13.978,23.765-.848,34.33,13.665,34.33,7.252,0,20.584-5.242,32.875-10.474,9.666-4.121,18.685-8.232,23.583-9.807C191.2,273.1,207.3,306.979,207.3,306.979l10.332-7.03s-8.03-28.421-13.241-54.661Z" transform="translate(1.058 2.263)" opacity="0.5"/>
      <path id="Trazado_612540" data-name="Trazado 612540" d="M190.7,257.12a98.991,98.991,0,0,1-1.515,10.049c-.05-.111-.091-.212-.131-.313-.02-.03-.02-.05-.04-.081-.05-.111-.081-.222-.131-.323-2.757-6.828-5.434-13.827-7.706-20.422.02,0,.04.02.071.02C187.169,248.555,191.179,252.09,190.7,257.12Z" transform="translate(1.812 2.46)" fill="#3b5620"/>
      <path id="Trazado_612541" data-name="Trazado 612541" d="M190.7,257.12a98.991,98.991,0,0,1-1.515,10.049c-.05-.111-.091-.212-.131-.313-.02-.03-.02-.05-.04-.081-.05-.111-.081-.222-.131-.323-2.757-6.828-5.434-13.827-7.706-20.422.02,0,.04.02.071.02C187.169,248.555,191.179,252.09,190.7,257.12Z" transform="translate(1.812 2.46)" opacity="0.6"/>
      <path id="Trazado_612542" data-name="Trazado 612542" d="M117.688,151.625c3.03,8.535,4.131,12.211,9.807,15.413,8.555,4.828,18.352-.788,17.928-10.06-.384-8.343-5.282-20.907-14.776-21.917a12.356,12.356,0,0,0-12.968,16.554Z" transform="translate(1.169 1.35)" fill="#e8bfbf"/>
      <path id="Trazado_612543" data-name="Trazado 612543" d="M132.871,150.375c.212.747.747,1.182,1.212,1.04s.646-.808.465-1.525-.737-1.172-1.212-1.04S132.669,149.668,132.871,150.375Z" transform="translate(1.328 1.488)" fill="#263238"/>
      <path id="Trazado_612544" data-name="Trazado 612544" d="M140.721,147.9c.2.747.747,1.182,1.2,1.04s.646-.808.465-1.525-.737-1.172-1.2-1.04S140.509,147.188,140.721,147.9Z" transform="translate(1.406 1.463)" fill="#263238"/>
      <path id="Trazado_612545" data-name="Trazado 612545" d="M140.98,146.49l1.555-.98S142.061,147.086,140.98,146.49Z" transform="translate(1.41 1.455)" fill="#263238"/>
      <path id="Trazado_612546" data-name="Trazado 612546" d="M137.91,149.48a19.708,19.708,0,0,0,3.818,3.8,3.114,3.114,0,0,1-2.394,1.162Z" transform="translate(1.379 1.495)" fill="#ed847e"/>
      <path id="Trazado_612547" data-name="Trazado 612547" d="M112.2,157.223a25.128,25.128,0,0,1,1.4,4.757,6.593,6.593,0,0,1-5.6,6.868,6.326,6.326,0,0,0,7.292-3.293,8.58,8.58,0,0,1-4.323,4.666A9.176,9.176,0,0,0,118.3,166.7c-.475,1.232-.959,2.454-1.434,3.686a15.751,15.751,0,0,0,5.707-5.979c.545-1,.949-2.323.242-3.212-.636-.808-1.828-.828-2.868-.848s-2.262-.263-2.646-1.222c-.364-.919.313-1.919,1.061-2.575s1.646-1.263,1.919-2.212a4.071,4.071,0,0,0-.141-2.081c-.454-1.858-.909-3.727-1.363-5.585a5.763,5.763,0,0,0-.7-1.879c-2.03-3.02-4.272,1.414-5.02,2.919a13.239,13.239,0,0,0-.858,9.524Z" transform="translate(1.08 1.438)" fill="#263238"/>
      <path id="Trazado_612548" data-name="Trazado 612548" d="M117.1,159.782a7.047,7.047,0,0,0,4.7,2.717c2.475.3,3.343-2,2.353-4.131-.9-1.929-3.262-4.4-5.6-3.757s-2.838,3.313-1.444,5.171Z" transform="translate(1.163 1.545)" fill="#e8bfbf"/>
      <path id="Trazado_612549" data-name="Trazado 612549" d="M133.044,144.325a.45.45,0,0,1-.374.374c-2.05.384-3.192,2.828-3.2,2.848a.45.45,0,0,1-.818-.374c.091-.091,1.343-2.889,3.848-3.363a.462.462,0,0,1,.525.364A.265.265,0,0,1,133.044,144.325Z" transform="translate(1.286 1.438)" fill="#263238"/>
      <path id="Trazado_612550" data-name="Trazado 612550" d="M138.347,142.32a.462.462,0,0,0-.384.1c-.111.121-.475.333-.273.434,1.232.636,2.939,1.656,4.252,1.454.222-.04.747-.232.636-.394a.666.666,0,0,0-.606-.2c-1.04.152-2.434-.828-3.4-1.333a.874.874,0,0,0-.232-.061Z" transform="translate(1.376 1.423)" fill="#263238"/>
      <path id="Trazado_612551" data-name="Trazado 612551" d="M133.14,148.96l1.555-.98S134.2,149.556,133.14,148.96Z" transform="translate(1.331 1.48)" fill="#263238"/>
      <path id="Trazado_612552" data-name="Trazado 612552" d="M133.23,131.337c-3.454-.626-3.889-.859-7.393-.636a17.456,17.456,0,0,0-9.787,3.394,15.924,15.924,0,0,0-5.343,8.545,24.7,24.7,0,0,0-.263,10.181c.263,1.576.707,3.262,1.959,4.252a25.924,25.924,0,0,1,.929-5.363,8.708,8.708,0,0,1,2.99-4.454,4.724,4.724,0,0,0,1.616-1.434,5.832,5.832,0,0,0,.364-1.838,5.666,5.666,0,0,1,2.353-3.464,18.845,18.845,0,0,1,3.808-1.959c4.252-1.838,8.888-2.879,12.807-5.343a18.279,18.279,0,0,0-4.05-1.889Z" transform="translate(1.1 1.306)" fill="#263238"/>
      <path id="Trazado_612553" data-name="Trazado 612553" d="M115.568,144.862a6.67,6.67,0,0,0,3.606,2.242c1.677.384,5.868.293,6.121-.151.3-.525-1.232-5.141-2.929-5.424a11.457,11.457,0,0,0,4.1,2.545,13.6,13.6,0,0,0,5.252-.02c.879-.2-1.1-3.878-2.545-4.929,4.353.909,8.949,1.949,12.16,5.03,3.3,3.171,4.515,8.019,4.353,12.585a6.2,6.2,0,0,0,2.333-4.969,18.479,18.479,0,0,1-1.283,14.413c4.636-3.8,6.363-10.433,5.141-16.3s-5.03-10.948-9.706-14.7c-4-3.2-8.848-5.6-13.968-5.717C121.447,129.308,109,136.954,115.568,144.862Z" transform="translate(1.137 1.295)" fill="#263238"/>
      <path id="Trazado_612554" data-name="Trazado 612554" d="M121.075,171.562c.04-.333.081-.768.121-1.242a4.3,4.3,0,0,0-3.5-4.6h-.05a1.839,1.839,0,0,1-1.374-1.182c-.788-2.262-1.081-2.949-1.838-5.171-2.04-.495-4.444.263-6.565.485a18.236,18.236,0,0,0-.111,7.716,3.292,3.292,0,0,0,.646,1.586,27.541,27.541,0,0,0,6.3,3.878c1.869.555,4.434-1.283,6.383-1.464Z" transform="translate(1.074 1.592)" fill="#e8bfbf"/>
      <path id="Trazado_612555" data-name="Trazado 612555" d="M114.9,172.972s-5.565,35.906.172,41.37c3.373,3.212,6.272,1.444,8.1-.566a7.13,7.13,0,0,0,1.757-5.535l-3.909-36.794S117.166,169.2,114.9,172.972Z" transform="translate(1.125 1.708)" fill="#e8bfbf"/>
      <path id="Trazado_612556" data-name="Trazado 612556" d="M174.133,205.326a15.264,15.264,0,0,0,4.707-7.545,14.786,14.786,0,0,0,.2-3.141c-.05-6.5-1.889-18.433-1.889-18.433l-5.282-1.747s-1.646,9.07-2.01,14.059c-.071.98-.182,2.131-.3,3.353-.232,2.222-.525,4.666-.778,6.7l5.343,6.757Z" transform="translate(1.688 1.745)" fill="#e8bfbf"/>
      <path id="Trazado_612557" data-name="Trazado 612557" d="M177.168,209.01c1.616-1.485,1.9-3.282,2.737-7.11.8-3.616-.1-8.04-.848-7.4a.726.726,0,0,0-.2.313c-1.283,3.03-6.272.374-7.686-1.141a10.585,10.585,0,0,1-1.586-1.939,1.63,1.63,0,0,1-.04-1.838c-1.535-.636-2.767,5.4-2.03,6.888l.374,1.121a15.543,15.543,0,0,0,2.777,4.989l2.778,3.343,3.737,2.777Z" transform="translate(1.673 1.898)" fill="#263238"/>
      <path id="Trazado_612558" data-name="Trazado 612558" d="M171.706,175.331l-.636-9.221a39.054,39.054,0,0,0,5.1,1.959c2.576.879,6.03-.667,5.262,1a70.2,70.2,0,0,1-4.3,7.232Z" transform="translate(1.711 1.661)" fill="#e8bfbf"/>
      <path id="Trazado_612559" data-name="Trazado 612559" d="M171.08,166.192l3.939-9.242,5.171,3.161c1.424,3.091,1.252,9.039,1.252,9.039S174.282,169.474,171.08,166.192Z" transform="translate(1.711 1.569)" fill="#e8bfbf"/>
      <path id="Trazado_612560" data-name="Trazado 612560" d="M137.31,159.064c.131.656.606,1.121,1.03,1.03s.656-.7.515-1.364-.606-1.111-1.03-1.02S137.169,158.437,137.31,159.064Z" transform="translate(1.373 1.577)" fill="#263238"/>
      <path id="Trazado_612561" data-name="Trazado 612561" d="M125.029,283.93l-3.121-45.49c-.444-6.424-3.575-11.777-7.918-14.312a17.258,17.258,0,0,0-9.605-3.727,10.226,10.226,0,0,0-1.111-.05,16.8,16.8,0,0,0-8.06,2.05,2.557,2.557,0,0,0-.232.121,19.23,19.23,0,0,0-6.424,5.828,21.888,21.888,0,0,0-3.828,12.463c0,10.11,6.656,18.523,15.392,20.17L103.5,310.19c.293,4.191,3.04,7.393,6.343,7.393h16.938l-1.747-33.663Z" transform="translate(0.847 2.203)" fill="#3b5620"/>
      <path id="Trazado_612562" data-name="Trazado 612562" d="M125.029,283.93l-3.121-45.49c-.444-6.424-3.575-11.777-7.918-14.312a17.258,17.258,0,0,0-9.605-3.727,10.226,10.226,0,0,0-1.111-.05,16.8,16.8,0,0,0-8.06,2.05,2.557,2.557,0,0,0-.232.121,19.23,19.23,0,0,0-6.424,5.828,21.888,21.888,0,0,0-3.828,12.463c0,10.11,6.656,18.523,15.392,20.17L103.5,310.19c.293,4.191,3.04,7.393,6.343,7.393h16.938l-1.747-33.663Z" transform="translate(0.847 2.203)" fill="#fff" opacity="0.1"/>
      <path id="Trazado_612563" data-name="Trazado 612563" d="M244.5,365.682c18.709,0,33.875-3.879,33.875-8.666S263.2,348.35,244.5,348.35s-33.875,3.879-33.875,8.666S225.786,365.682,244.5,365.682Z" transform="translate(2.106 3.483)" fill="#263238"/>
      <path id="Trazado_612564" data-name="Trazado 612564" d="M244.5,362.8c18.709,0,33.875-3.233,33.875-7.221S263.2,348.36,244.5,348.36s-33.875,3.233-33.875,7.222S225.786,362.8,244.5,362.8Z" transform="translate(2.106 3.484)" fill="#fff" opacity="0.3"/>
      <path id="Trazado_612565" data-name="Trazado 612565" d="M247.049,356.19h-5.6l-6.464-69.71h18.523Z" transform="translate(2.35 2.865)" fill="#263238"/>
      <path id="Trazado_612566" data-name="Trazado 612566" d="M253.513,286.516c0,2.03-4.151,3.676-9.262,3.676s-9.262-1.646-9.262-3.676,4.151-3.676,9.262-3.676S253.513,284.486,253.513,286.516Z" transform="translate(2.35 2.828)" fill="#263238"/>
      <path id="Trazado_612567" data-name="Trazado 612567" d="M253.513,286.516c0,2.03-4.151,3.676-9.262,3.676s-9.262-1.646-9.262-3.676,4.151-3.676,9.262-3.676S253.513,284.486,253.513,286.516Z" transform="translate(2.35 2.828)" fill="#fff" opacity="0.7"/>
      <path id="Trazado_612568" data-name="Trazado 612568" d="M132.04,287.582a3.131,3.131,0,0,1,1.081-2.182c7.827,7.878,57.489,13.948,117.584,13.948S360.462,293.278,368.3,285.4a3.131,3.131,0,0,1,1.081,2.182c0,8.9-53.136,16.12-118.675,16.12S132.04,296.48,132.04,287.582Z" transform="translate(1.32 2.854)" fill="#fff" opacity="0.7"/>
      <path id="Trazado_612569" data-name="Trazado 612569" d="M133.11,289.688c7.827-7.878,57.489-13.938,117.584-13.938s109.757,6.06,117.594,13.938c-7.838,7.878-57.5,13.948-117.594,13.948S140.938,297.566,133.11,289.688Z" transform="translate(1.331 2.757)" fill="#fff" opacity="0.7"/>
      <path id="Trazado_612570" data-name="Trazado 612570" d="M132.04,287.41c0-8.908,53.126-16.12,118.665-16.12S369.38,278.5,369.38,287.41a3.092,3.092,0,0,1-1.081,2.171c-7.838-7.878-57.5-13.938-117.594-13.938s-109.757,6.06-117.584,13.938A3.092,3.092,0,0,1,132.04,287.41Z" transform="translate(1.32 2.713)" fill="#fff" opacity="0.7"/>
      <path id="Trazado_612571" data-name="Trazado 612571" d="M295.351,279.5l-49.652-.939a1.028,1.028,0,0,1-.909-1.131,1.039,1.039,0,0,1,.96-1.091l49.652.939a1.028,1.028,0,0,1,.909,1.131A1.039,1.039,0,0,1,295.351,279.5Z" transform="translate(2.448 2.763)" fill="#263238"/>
      <path id="Trazado_612572" data-name="Trazado 612572" d="M295.351,279.5l-49.652-.939a1.028,1.028,0,0,1-.909-1.131,1.039,1.039,0,0,1,.96-1.091l49.652.939a1.028,1.028,0,0,1,.909,1.131A1.039,1.039,0,0,1,295.351,279.5Z" transform="translate(2.448 2.763)" fill="#fff" opacity="0.2"/>
      <path id="Trazado_612573" data-name="Trazado 612573" d="M318.965,275.912,295.23,279.5a.957.957,0,0,1-1.03-.959,1.109,1.109,0,0,1,.818-1.242l23.735-3.586a.963.963,0,0,1,1.03.96A1.109,1.109,0,0,1,318.965,275.912Z" transform="translate(2.942 2.737)" fill="#263238"/>
      <path id="Trazado_612574" data-name="Trazado 612574" d="M319.238,273.71H269.061l-23.321,2.666,48.3.909Z" transform="translate(2.457 2.737)" fill="#263238"/>
      <path id="Trazado_612575" data-name="Trazado 612575" d="M319.238,273.71H269.061l-23.321,2.666,48.3.909Z" transform="translate(2.457 2.737)" fill="#fff" opacity="0.6"/>
      <path id="Trazado_612576" data-name="Trazado 612576" d="M318.965,275.912,295.23,279.5a.957.957,0,0,1-1.03-.959,1.109,1.109,0,0,1,.818-1.242l23.735-3.586a.963.963,0,0,1,1.03.96A1.109,1.109,0,0,1,318.965,275.912Z" transform="translate(2.942 2.737)" fill="#fff" opacity="0.5"/>
      <path id="Trazado_612577" data-name="Trazado 612577" d="M294.063,277.605l-46.3-.869a3.592,3.592,0,0,1-3.151-3.6l-1.394-27.947c-.1-1.949,1.162-3.515,2.8-3.484l46.3.869a3.592,3.592,0,0,1,3.151,3.6l1.394,27.947C296.962,276.07,295.7,277.636,294.063,277.605Z" transform="translate(2.432 2.417)" fill="#3b5620"/>
      <path id="Trazado_612578" data-name="Trazado 612578" d="M294.063,277.605l-46.3-.869a3.592,3.592,0,0,1-3.151-3.6l-1.394-27.947c-.1-1.949,1.162-3.515,2.8-3.484l46.3.869a3.592,3.592,0,0,1,3.151,3.6l1.394,27.947C296.962,276.07,295.7,277.636,294.063,277.605Z" transform="translate(2.432 2.417)" fill="#fff" opacity="0.2"/>
      <path id="Trazado_612579" data-name="Trazado 612579" d="M292.723,277.465l-46.3-.869a3.592,3.592,0,0,1-3.151-3.6l-1.394-27.947c-.1-1.949,1.161-3.515,2.8-3.485l46.3.869a3.592,3.592,0,0,1,3.151,3.6l1.394,27.947C295.622,275.93,294.36,277.5,292.723,277.465Z" transform="translate(2.419 2.416)" fill="#3b5620"/>
      <path id="Trazado_612580" data-name="Trazado 612580" d="M292.723,277.465l-46.3-.869a3.592,3.592,0,0,1-3.151-3.6l-1.394-27.947c-.1-1.949,1.161-3.515,2.8-3.485l46.3.869a3.592,3.592,0,0,1,3.151,3.6l1.394,27.947C295.622,275.93,294.36,277.5,292.723,277.465Z" transform="translate(2.419 2.416)" fill="#fff" opacity="0.6"/>
      <path id="Trazado_612581" data-name="Trazado 612581" d="M262.36,258.919a5.456,5.456,0,0,0,5.343,4.909,4.431,4.431,0,0,0,4.484-4.909,5.464,5.464,0,0,0-5.343-4.909A4.431,4.431,0,0,0,262.36,258.919Z" transform="translate(2.623 2.54)" fill="#fff"/>
    </g>
  </g>
</svg>
