<svg xmlns="http://www.w3.org/2000/svg" width="96" height="96" viewBox="0 0 96 96">
  <g id="Grupo_1066791" data-name="Grupo 1066791" transform="translate(-119.691 -53.248)">
    <g id="Layer_2" data-name="Layer 2" transform="translate(119.254 52.811)">
      <g id="_62.spotify" data-name="62.spotify">
        <circle id="background" cx="48" cy="48" r="48" transform="translate(0.438 0.438)" fill="#12c64b"/>
        <g id="icon" transform="translate(18.016 29.06)">
          <path id="Trazado_615570" data-name="Trazado 615570" d="M86.2,112.6a2.862,2.862,0,0,1-3.912,1.027c-7.521-4.395-16.206-5.1-22.173-4.944a55.057,55.057,0,0,0-11.5,1.516,2.862,2.862,0,0,1-1.516-5.494,59.606,59.606,0,0,1,12.679-1.736A56.218,56.218,0,0,1,72,103.853a41.263,41.263,0,0,1,13.185,4.812A2.857,2.857,0,0,1,86.2,112.6Z" transform="translate(-38.412 -75.444)" fill="#fff"/>
          <path id="Trazado_615571" data-name="Trazado 615571" d="M89.537,91.048a3.384,3.384,0,0,1-2.928,1.681,3.34,3.34,0,0,1-1.709-.467c-8.905-5.2-19.189-6.043-26.26-5.823a65,65,0,0,0-13.619,1.8,3.39,3.39,0,0,1-1.8-6.532,70.254,70.254,0,0,1,15.02-2.033,65.611,65.611,0,0,1,14.476,1.049,48.79,48.79,0,0,1,15.6,5.7A3.39,3.39,0,0,1,89.537,91.048Z" transform="translate(-36.426 -64.94)" fill="#fff"/>
          <path id="Trazado_615572" data-name="Trazado 615572" d="M92.788,66.9A4.148,4.148,0,0,1,87.1,68.391C65.93,56.019,38.467,63.375,38.209,63.447a4.159,4.159,0,1,1-2.2-8.015,86.306,86.306,0,0,1,18.376-2.478,81.39,81.39,0,0,1,17.75,1.286,59.964,59.964,0,0,1,19.14,6.955A4.159,4.159,0,0,1,92.788,66.9Z" transform="translate(-32.794 -52.897)" fill="#fff"/>
        </g>
      </g>
    </g>
  </g>
</svg>
