<svg xmlns="http://www.w3.org/2000/svg" width="168.992" height="171.718" viewBox="0 0 168.992 171.718">
  <g id="Grupo_1066782" data-name="Grupo 1066782" transform="translate(-1081.658 -10348.711)">
    <g id="problema" transform="translate(1081.658 10348.711)">
      <path id="Trazado_612599" data-name="Trazado 612599" d="M370.9,253.454l-8.177,0a2.726,2.726,0,1,1,0-5.451l8.177,0a2.726,2.726,0,1,1,0,5.451Zm0,0" transform="translate(-237.344 -163.504)" fill="#3b5620"/>
      <path id="Trazado_612600" data-name="Trazado 612600" d="M333.236,151.755a2.726,2.726,0,0,1-1.927-4.653l5.784-5.779a2.725,2.725,0,0,1,3.854,3.854l-5.784,5.779A2.72,2.72,0,0,1,333.236,151.755Zm0,0" transform="translate(-217.901 -92.646)" fill="#3b5620"/>
      <path id="Trazado_612601" data-name="Trazado 612601" d="M242.742,109.612a2.724,2.724,0,0,1-2.726-2.726V98.71a2.726,2.726,0,1,1,5.451,0v8.177a2.723,2.723,0,0,1-2.726,2.726Zm0,0" transform="translate(-158.24 -63.281)" fill="#3b5620"/>
      <path id="Trazado_612602" data-name="Trazado 612602" d="M141.042,151.735a2.72,2.72,0,0,1-1.927-.8l-5.781-5.781a2.725,2.725,0,0,1,3.854-3.854l5.781,5.781a2.726,2.726,0,0,1-1.927,4.653Zm0,0" transform="translate(-87.379 -92.631)" fill="#3b5620"/>
      <path id="Trazado_612603" data-name="Trazado 612603" d="M106.908,253.451H98.733a2.726,2.726,0,1,1,0-5.451h8.174a2.726,2.726,0,1,1,0,5.451Zm0,0" transform="translate(-63.297 -163.504)" fill="#3b5620"/>
      <path id="Trazado_612604" data-name="Trazado 612604" d="M160.708,421.451l8.177-2.726,8.177,2.726L182.514,416h10.9a16.351,16.351,0,0,1,16.354,16.354v8.177a5.431,5.431,0,0,1-5.451,5.451H133.451A5.448,5.448,0,0,1,128,440.531v-8.177A16.351,16.351,0,0,1,144.354,416h10.9Zm0,0" transform="translate(-84.389 -274.265)" fill="#5d9cec"/>
      <path id="Trazado_612605" data-name="Trazado 612605" d="M298.9,416H288a16.351,16.351,0,0,1,16.354,16.354v8.177a5.431,5.431,0,0,1-5.451,5.451h10.9a5.431,5.431,0,0,0,5.451-5.451v-8.177A16.351,16.351,0,0,0,298.9,416Zm0,0" transform="translate(-189.876 -274.265)" fill="#4a89dc"/>
      <path id="Trazado_612606" data-name="Trazado 612606" d="M221.628,393.675a29.784,29.784,0,0,0,13.628-3.269v8.72l-5.451,5.451-8.177-2.726-8.177,2.726L208,399.126v-8.72A29.784,29.784,0,0,0,221.628,393.675Zm0,0" transform="translate(-137.132 -257.391)" fill="#f5f7fa"/>
      <path id="Trazado_612607" data-name="Trazado 612607" d="M219.965,264.177v10.929A29.982,29.982,0,0,1,160,275.08v-10.9L168.177,256s10.14,5.451,21.805,5.451c11.693,0,21.805-5.451,21.805-5.451Zm0,0" transform="translate(-105.486 -168.778)" fill="#eac6bb"/>
      <path id="Trazado_612608" data-name="Trazado 612608" d="M259.257,256s-1,.536-2.726,1.279v17.827a29.958,29.958,0,0,1-16.354,26.687A29.576,29.576,0,0,1,232,304.519a30.114,30.114,0,0,0,5.451.543,29.963,29.963,0,0,0,29.982-29.956V264.177Zm0,0" transform="translate(-152.955 -168.778)" fill="#d3b1a9"/>
      <path id="Trazado_612609" data-name="Trazado 612609" d="M168.177,197.982,160,206.16V192.531A24.534,24.534,0,0,1,184.531,168h21.805v10.9a13.634,13.634,0,0,1,13.628,13.628V206.16l-8.177-8.177s-10.112,5.451-21.805,5.451C178.317,203.434,168.177,197.982,168.177,197.982Zm0,0" transform="translate(-105.486 -110.761)" fill="#965353"/>
      <path id="Trazado_612610" data-name="Trazado 612610" d="M274.9,178.9V168H264v16.354c7.522,0,13.628,3.38,13.628,10.9v4c1.728-.739,2.726-1.279,2.726-1.279l8.177,8.177V192.531A13.634,13.634,0,0,0,274.9,178.9Zm0,0" transform="translate(-174.053 -110.761)" fill="#844747"/>
      <path id="Trazado_612611" data-name="Trazado 612611" d="M403.08,200A19.08,19.08,0,1,1,384,219.08,19.08,19.08,0,0,1,403.08,200Zm0,0" transform="translate(-253.167 -131.858)" fill="#517032"/>
      <path id="Trazado_612612" data-name="Trazado 612612" d="M429.462,200a19.04,19.04,0,0,0-5.446.8,19.076,19.076,0,0,1,0,36.56A19.078,19.078,0,1,0,429.462,200Zm0,0" transform="translate(-279.549 -131.858)" fill="#3b5620"/>
      <path id="Trazado_612613" data-name="Trazado 612613" d="M352.521,58.559a19.094,19.094,0,0,1,0,38.187,19.11,19.11,0,0,1-19.08-19.108,19.094,19.094,0,0,1,19.08-19.08Zm0,0" transform="translate(-219.834 -38.607)" fill="#517032"/>
      <path id="Trazado_612614" data-name="Trazado 612614" d="M378.833,58.559a18.926,18.926,0,0,0-5.451.805,19.08,19.08,0,0,1-.031,36.578,19.092,19.092,0,1,0,5.482-37.384Zm0,0" transform="translate(-246.147 -38.607)" fill="#3b5620"/>
      <path id="Trazado_612615" data-name="Trazado 612615" d="M211.08,0A19.08,19.08,0,1,1,192,19.08,19.08,19.08,0,0,1,211.08,0Zm0,0" transform="translate(-126.584 0)" fill="#517032"/>
      <path id="Trazado_612616" data-name="Trazado 612616" d="M237.451,0a19.04,19.04,0,0,0-5.446.8A19.071,19.071,0,0,1,232,37.356,19.076,19.076,0,1,0,237.451,0Zm0,0" transform="translate(-152.955 0)" fill="#3b5620"/>
      <path id="Trazado_612617" data-name="Trazado 612617" d="M19.08,200A19.08,19.08,0,1,1,0,219.08,19.1,19.1,0,0,1,19.08,200Zm0,0" transform="translate(0 -131.858)" fill="#517032"/>
      <path id="Trazado_612618" data-name="Trazado 612618" d="M45.451,200a18.978,18.978,0,0,0-5.451.8,19.07,19.07,0,0,1,0,36.554A19.077,19.077,0,1,0,45.451,200Zm0,0" transform="translate(-26.372 -131.858)" fill="#3b5620"/>
      <path id="Trazado_612619" data-name="Trazado 612619" d="M69.667,58.519A19.094,19.094,0,1,1,50.6,77.613,19.088,19.088,0,0,1,69.667,58.519Zm0,0" transform="translate(-33.361 -38.581)" fill="#517032"/>
      <path id="Trazado_612620" data-name="Trazado 612620" d="M96.021,58.519a18.934,18.934,0,0,0-5.446.8,19.089,19.089,0,0,1,0,36.588,19.092,19.092,0,1,0,5.446-37.389Zm0,0" transform="translate(-59.715 -38.581)" fill="#3b5620"/>
      <g id="Grupo_1015805" data-name="Grupo 1015805" transform="translate(16.354 8.166)">
        <path id="Trazado_612621" data-name="Trazado 612621" d="M242.938,461.451a2.726,2.726,0,0,1-.029-5.451h.029a2.726,2.726,0,1,1,0,5.451Zm0,0" transform="translate(-174.715 -308.803)" fill="#f5f7fa"/>
        <path id="Trazado_612622" data-name="Trazado 612622" d="M50.938,277.428a2.726,2.726,0,0,1-.029-5.451h.029a2.726,2.726,0,1,1,0,5.451Zm0,0" transform="translate(-48.131 -187.478)" fill="#f5f7fa"/>
        <path id="Trazado_612623" data-name="Trazado 612623" d="M50.726,237.61A2.723,2.723,0,0,1,48,234.884V226.7a2.726,2.726,0,0,1,5.451,0v8.182A2.723,2.723,0,0,1,50.726,237.61Zm0,0" transform="translate(-48 -155.832)" fill="#f5f7fa"/>
        <path id="Trazado_612624" data-name="Trazado 612624" d="M434.946,277.443a2.726,2.726,0,0,1-.029-5.451h.029a2.726,2.726,0,1,1,0,5.451Zm0,0" transform="translate(-301.304 -187.488)" fill="#f5f7fa"/>
        <path id="Trazado_612625" data-name="Trazado 612625" d="M434.729,237.623A2.725,2.725,0,0,1,432,234.9l0-8.18a2.726,2.726,0,0,1,5.451,0l0,8.18A2.725,2.725,0,0,1,434.729,237.623Zm0,0" transform="translate(-301.168 -155.842)" fill="#f5f7fa"/>
        <path id="Trazado_612626" data-name="Trazado 612626" d="M384.38,136.017a2.726,2.726,0,0,1-.029-5.451h.029a2.726,2.726,0,0,1,0,5.451Zm0,0" transform="translate(-267.966 -94.247)" fill="#f5f7fa"/>
        <path id="Trazado_612627" data-name="Trazado 612627" d="M384.156,96.2a2.723,2.723,0,0,1-2.726-2.722l-.005-8.181a2.725,2.725,0,0,1,2.722-2.728h0a2.725,2.725,0,0,1,2.726,2.723l.005,8.18a2.727,2.727,0,0,1-2.726,2.728Zm0,0" transform="translate(-267.824 -62.601)" fill="#f5f7fa"/>
        <path id="Trazado_612628" data-name="Trazado 612628" d="M242.955,77.42a2.726,2.726,0,0,1-.031-5.451h.031a2.726,2.726,0,0,1,0,5.451Zm0,0" transform="translate(-174.725 -55.615)" fill="#f5f7fa"/>
        <path id="Trazado_612629" data-name="Trazado 612629" d="M242.726,37.6A2.723,2.723,0,0,1,240,34.877V26.694a2.726,2.726,0,1,1,5.451,0v8.182A2.723,2.723,0,0,1,242.726,37.6Zm0,0" transform="translate(-174.584 -23.969)" fill="#f5f7fa"/>
        <path id="Trazado_612630" data-name="Trazado 612630" d="M101.548,135.986a2.726,2.726,0,0,1-.029-5.451h.029a2.726,2.726,0,1,1,0,5.451Zm0,0" transform="translate(-81.498 -94.227)" fill="#f5f7fa"/>
        <path id="Trazado_612631" data-name="Trazado 612631" d="M101.312,96.174a2.722,2.722,0,0,1-2.726-2.726v-8.18a2.726,2.726,0,0,1,5.451,0v8.18A2.723,2.723,0,0,1,101.312,96.174Zm0,0" transform="translate(-81.351 -62.586)" fill="#f5f7fa"/>
      </g>
    </g>
  </g>
</svg>
