<svg xmlns="http://www.w3.org/2000/svg" width="404.246" height="301.252" viewBox="0 0 404.246 301.252">
  <g id="Grupo_1066770" data-name="Grupo 1066770" transform="translate(-19549.754 10780.147)">
    <g id="Group_73" data-name="Group 73" transform="translate(19549.754 -10780.147)">
      <path id="Trazado_614424" data-name="Trazado 614424" d="M404.246,327.45H0v.2H404.246Z" transform="translate(0 -62.71)" fill="#e5e5e5"/>
      <path id="Trazado_614425" data-name="Trazado 614425" d="M443.557,343.54H416.78v.2h26.777Z" transform="translate(-79.817 -65.791)" fill="#e5e5e5"/>
      <path id="Trazado_614426" data-name="Trazado 614426" d="M329.556,346.26H322.53v.2h7.026Z" transform="translate(-61.767 -66.312)" fill="#e5e5e5"/>
      <path id="Trazado_614427" data-name="Trazado 614427" d="M412.1,334.26H396.59v.2H412.1Z" transform="translate(-75.95 -64.014)" fill="#e5e5e5"/>
      <path id="Trazado_614428" data-name="Trazado 614428" d="M87.379,335.94H52.46v.2H87.379Z" transform="translate(-10.047 -64.335)" fill="#e5e5e5"/>
      <path id="Trazado_614429" data-name="Trazado 614429" d="M109.678,335.94H104.56v.2h5.118Z" transform="translate(-20.024 -64.335)" fill="#e5e5e5"/>
      <path id="Trazado_614430" data-name="Trazado 614430" d="M207.209,340.16H131.47v.2h75.739Z" transform="translate(-25.178 -65.144)" fill="#e5e5e5"/>
      <path id="Trazado_614431" data-name="Trazado 614431" d="M198.936,228.682H42.816a4.62,4.62,0,0,1-4.616-4.616V4.616A4.62,4.62,0,0,1,42.816,0h156.12a4.62,4.62,0,0,1,4.616,4.616V224.065A4.62,4.62,0,0,1,198.936,228.682ZM42.816.2A4.42,4.42,0,0,0,38.4,4.616V224.065a4.42,4.42,0,0,0,4.414,4.414h156.12a4.42,4.42,0,0,0,4.414-4.414V4.616A4.42,4.42,0,0,0,198.936.2Z" transform="translate(-7.316)" fill="#e5e5e5"/>
      <path id="Trazado_614432" data-name="Trazado 614432" d="M415.236,228.682H259.116a4.62,4.62,0,0,1-4.616-4.616V4.616A4.62,4.62,0,0,1,259.116,0h156.12a4.62,4.62,0,0,1,4.616,4.616V224.065A4.62,4.62,0,0,1,415.236,228.682ZM259.116.2A4.42,4.42,0,0,0,254.7,4.616V224.065a4.42,4.42,0,0,0,4.414,4.414h156.12a4.42,4.42,0,0,0,4.414-4.414V4.616A4.42,4.42,0,0,0,415.236.2Z" transform="translate(-48.739)" fill="#e5e5e5"/>
      <path id="Trazado_614433" data-name="Trazado 614433" d="M117.791,263.43v11.481l-4.851,3.525h22.638l-7.236-2.676V264.23Z" transform="translate(-21.629 -50.449)" fill="#c9c9c9"/>
      <path id="Trazado_614434" data-name="Trazado 614434" d="M69.47,281.59v36.164H170.531V281.59ZM168.7,295.755H89.61v-11.82h79.1v11.82Z" transform="translate(-13.304 -53.927)" fill="#c9c9c9"/>
      <path id="Trazado_614435" data-name="Trazado 614435" d="M91.37,281.59v36.164h83.355V281.59Zm81.536,14.165H93.8v-11.82h79.1Z" transform="translate(-17.498 -53.927)" fill="#e5e5e5"/>
      <path id="Trazado_614436" data-name="Trazado 614436" d="M188.357,284.49H172.05v11.82h16.307Z" transform="translate(-32.949 -54.482)" fill="#c9c9c9"/>
      <path id="Trazado_614437" data-name="Trazado 614437" d="M114.552,291.8H94.38v5.91h20.172Z" transform="translate(-18.075 -55.882)" fill="#c9c9c9"/>
      <path id="Trazado_614438" data-name="Trazado 614438" d="M136.353,294.76H121.17v3.509h15.183Z" transform="translate(-23.205 -56.449)" fill="#c9c9c9"/>
      <path id="Trazado_614439" data-name="Trazado 614439" d="M158.754,290.22H144.29V297.4h14.464Z" transform="translate(-27.633 -55.58)" fill="#c9c9c9"/>
      <path id="Trazado_614440" data-name="Trazado 614440" d="M108.715,302.29l-.428,1.407h-5.8l-.437-1.407H94.38v15.685h25.443V302.29Z" transform="translate(-18.075 -57.891)" fill="#c9c9c9"/>
      <path id="Trazado_614441" data-name="Trazado 614441" d="M145.3,302.29l-.437,1.407h-5.8l-.437-1.407h-11.1v15.685h25.443V302.29Z" transform="translate(-24.421 -57.891)" fill="#c9c9c9"/>
      <path id="Trazado_614442" data-name="Trazado 614442" d="M174.995,302.29l-.428,1.407h-5.8l-.437-1.407H160.66v15.685H186.1V302.29Z" transform="translate(-30.768 -57.891)" fill="#c9c9c9"/>
      <path id="Trazado_614443" data-name="Trazado 614443" d="M157.706,211.46H82.524a2.854,2.854,0,0,0-2.854,2.854v43.165a2.854,2.854,0,0,0,2.854,2.854h75.182a2.854,2.854,0,0,0,2.854-2.854V214.314A2.854,2.854,0,0,0,157.706,211.46Z" transform="translate(-15.257 -40.496)" fill="#c9c9c9"/>
      <path id="Trazado_614444" data-name="Trazado 614444" d="M160.056,211.46H84.874a2.854,2.854,0,0,0-2.854,2.854v43.165a2.854,2.854,0,0,0,2.854,2.854h75.182a2.854,2.854,0,0,0,2.854-2.854V214.314A2.854,2.854,0,0,0,160.056,211.46Z" transform="translate(-15.708 -40.496)" fill="#ddd"/>
      <path id="Trazado_614445" data-name="Trazado 614445" d="M161.1,258.537V214.41H84.96v44.127Z" transform="translate(-16.271 -41.061)" fill="#f0f0f0"/>
      <path id="Trazado_614446" data-name="Trazado 614446" d="M307.5,206.23h72.392a14.212,14.212,0,0,1,14.213,14.213v56.53H293.28v-56.53a14.212,14.212,0,0,1,14.213-14.213Z" transform="translate(-56.166 -39.495)" fill="#ddd"/>
      <path id="Trazado_614447" data-name="Trazado 614447" d="M264.819,258.05h12.952a8.45,8.45,0,0,1,8.449,8.449v46.747H256.37V266.5A8.45,8.45,0,0,1,264.819,258.05Z" transform="translate(-49.097 -49.419)" fill="#c9c9c9"/>
      <path id="Trazado_614448" data-name="Trazado 614448" d="M264.819,258.05h.275a8.45,8.45,0,0,1,8.449,8.449v46.747H256.37V266.5A8.45,8.45,0,0,1,264.819,258.05Z" transform="translate(-49.097 -49.419)" fill="#e5e5e5"/>
      <path id="Trazado_614449" data-name="Trazado 614449" d="M381.417,299.76H282.07v21.474h99.347Z" transform="translate(-54.019 -57.407)" fill="#ddd"/>
      <path id="Trazado_614450" data-name="Trazado 614450" d="M375.681,275.46H279.866a8.586,8.586,0,0,0-8.586,8.586v5.36a8.586,8.586,0,0,0,8.586,8.586h95.814a8.586,8.586,0,0,0,8.586-8.586v-5.36A8.586,8.586,0,0,0,375.681,275.46Z" transform="translate(-51.952 -52.753)" fill="#eee"/>
      <path id="Trazado_614451" data-name="Trazado 614451" d="M395.369,275.46H383.476a8.586,8.586,0,0,0-8.586,8.586v5.36a8.586,8.586,0,0,0,8.586,8.586h11.893a8.586,8.586,0,0,0,8.586-8.586v-5.36A8.586,8.586,0,0,0,395.369,275.46Z" transform="translate(-71.795 -52.753)" fill="#c9c9c9"/>
      <path id="Trazado_614452" data-name="Trazado 614452" d="M399.789,258.05h12.952a8.45,8.45,0,0,1,8.449,8.449v46.747H391.34V266.5A8.45,8.45,0,0,1,399.789,258.05Z" transform="translate(-74.945 -49.419)" fill="#c9c9c9"/>
      <path id="Trazado_614453" data-name="Trazado 614453" d="M399.789,258.05h.275a8.45,8.45,0,0,1,8.449,8.449v46.747H391.34V266.5A8.45,8.45,0,0,1,399.789,258.05Z" transform="translate(-74.945 -49.419)" fill="#f0f0f0"/>
      <path id="Trazado_614454" data-name="Trazado 614454" d="M306.07,150.525h95.911V51.42H306.07Z" transform="translate(-58.615 -9.847)" fill="#e5e5e5"/>
      <path id="Trazado_614455" data-name="Trazado 614455" d="M301.92,150.525h95.911V51.42H301.92Z" transform="translate(-57.82 -9.847)" fill="#f0f0f0"/>
      <path id="Trazado_614456" data-name="Trazado 614456" d="M396.015,54.33H305.06v94.456h90.955Z" transform="translate(-58.422 -10.405)" fill="#c9c9c9"/>
      <path id="Trazado_614457" data-name="Trazado 614457" d="M396.553,54.33H307.87v94.456h88.683Z" transform="translate(-58.96 -10.405)" fill="#eee"/>
      <path id="Trazado_614458" data-name="Trazado 614458" d="M361.58,148.786h1.8V54.33h-1.8Z" transform="translate(-69.246 -10.405)" fill="#e5e5e5"/>
      <path id="Trazado_614459" data-name="Trazado 614459" d="M342.239,54.33l-25.273,94.456H314.54L339.813,54.33Z" transform="translate(-60.237 -10.405)" fill="#e9e9e9"/>
      <path id="Trazado_614460" data-name="Trazado 614460" d="M360.63,150.252h1.544V52.53H360.63Z" transform="translate(-69.064 -10.06)" fill="#f0f0f0"/>
      <path id="Trazado_614461" data-name="Trazado 614461" d="M331.785,54.33,307.87,143.717V94.585L318.639,54.33Z" transform="translate(-58.96 -10.405)" fill="#e9e9e9"/>
      <path id="Trazado_614462" data-name="Trazado 614462" d="M412.115,64.93V74l-20.56,76.815H389.13Z" transform="translate(-74.522 -12.435)" fill="#e9e9e9"/>
      <path id="Trazado_614463" data-name="Trazado 614463" d="M413.278,87.58v49.132l-4.932,18.442H395.2Z" transform="translate(-75.684 -16.772)" fill="#e9e9e9"/>
      <path id="Trazado_614464" data-name="Trazado 614464" d="M97.66,129.072h58.074V58.41H97.66Z" transform="translate(-18.703 -11.186)" fill="#ddd"/>
      <path id="Trazado_614465" data-name="Trazado 614465" d="M113.508,115.766l30.512-29.995L111.01,80.33Z" transform="translate(-21.259 -15.384)" fill="#c9c9c9"/>
      <path id="Trazado_614466" data-name="Trazado 614466" d="M145.451,109.922l1.512-23-22.977,5.643-1.665,17.6Z" transform="translate(-23.425 -16.646)" fill="#f0f0f0"/>
      <path id="Trazado_614467" data-name="Trazado 614467" d="M118.117,79.7A9.273,9.273,0,1,0,105,79.7,9.272,9.272,0,0,0,118.117,79.7Z" transform="translate(-19.589 -12.232)" fill="#eee"/>
      <path id="Trazado_614468" data-name="Trazado 614468" d="M147.22,124.445a4.5,4.5,0,1,1,4.5,4.5A4.5,4.5,0,0,1,147.22,124.445Z" transform="translate(-28.194 -22.971)" fill="#c9c9c9"/>
      <path id="Trazado_614469" data-name="Trazado 614469" d="M148.384,131.286,135.4,123.379l10.915-9Z" transform="translate(-25.93 -21.905)" fill="#eee"/>
      <path id="Trazado_614470" data-name="Trazado 614470" d="M131.885,69.53H129.33v56.425h2.555Z" transform="translate(-24.768 -13.316)" fill="#c9c9c9"/>
      <path id="Trazado_614471" data-name="Trazado 614471" d="M161.967,69.53H158.66v53.926h3.307Z" transform="translate(-30.385 -13.316)" fill="#e5e5e5"/>
      <path id="Trazado_614472" data-name="Trazado 614472" d="M121.751,115.67H104.87v16.881h16.881Z" transform="translate(-20.084 -22.152)" fill="#e5e5e5"/>
      <path id="Trazado_614473" data-name="Trazado 614473" d="M212.868,368.274c86.575,0,156.758-4.1,156.758-9.152s-70.184-9.152-156.758-9.152-156.758,4.1-156.758,9.152S126.293,368.274,212.868,368.274Z" transform="translate(-10.746 -67.022)" fill="#eee"/>
      <path id="Trazado_614474" data-name="Trazado 614474" d="M198.542,181.09H367.008a3.45,3.45,0,0,1,3.452,3.452V306.366H195.09V184.542A3.45,3.45,0,0,1,198.542,181.09Z" transform="translate(-37.361 -34.68)" fill="#263238"/>
      <path id="Trazado_614475" data-name="Trazado 614475" d="M367.817,190.66H199.36V298.327H367.817Z" transform="translate(-38.179 -36.513)" fill="#4f6736"/>
      <path id="Trazado_614476" data-name="Trazado 614476" d="M301.242,187.533a1.682,1.682,0,1,0-1.682-1.682A1.681,1.681,0,0,0,301.242,187.533Z" transform="translate(-57.368 -35.27)" fill="#e9e9e9" opacity="0.2"/>
      <path id="Trazado_614477" data-name="Trazado 614477" d="M305.651,187.212a1.261,1.261,0,1,0-1.261-1.261A1.261,1.261,0,0,0,305.651,187.212Z" transform="translate(-58.293 -35.37)" fill="#e9e9e9" opacity="0.2"/>
      <path id="Trazado_614478" data-name="Trazado 614478" d="M303.7,326.531a2.153,2.153,0,0,0-.687-.121,2.207,2.207,0,1,0,2.207,2.207.624.624,0,0,0-.016-.121A2.187,2.187,0,0,1,303.7,326.531Z" transform="translate(-57.608 -62.51)" fill="#e9e9e9" opacity="0.2"/>
      <path id="Trazado_614479" data-name="Trazado 614479" d="M380.43,333.93v1.585a2.346,2.346,0,0,1-1.665,2.231l-12.216,3.606a16.3,16.3,0,0,1-4.673.679H197.485a16.283,16.283,0,0,1-4.665-.679L180.6,337.746a2.341,2.341,0,0,1-1.674-2.231V333.93Z" transform="translate(-34.267 -63.951)" fill="#263238"/>
      <path id="Trazado_614480" data-name="Trazado 614480" d="M380.43,333.93v1.585a2.346,2.346,0,0,1-1.665,2.231l-12.216,3.606a16.3,16.3,0,0,1-4.673.679H197.485a16.283,16.283,0,0,1-4.665-.679L180.6,337.746a2.341,2.341,0,0,1-1.674-2.231V333.93Z" transform="translate(-34.267 -63.951)" fill="#e9e9e9" opacity="0.2"/>
      <path id="Trazado_614481" data-name="Trazado 614481" d="M380.43,333.93v1.585a2.305,2.305,0,0,1-.331,1.188H179.261a2.305,2.305,0,0,1-.331-1.188V333.93Z" transform="translate(-34.267 -63.951)" fill="#e9e9e9" opacity="0.2"/>
      <path id="Trazado_614482" data-name="Trazado 614482" d="M314.364,333.93v.7a.687.687,0,0,1-.687.687H286.705a.688.688,0,0,1-.7-.687v-.7Z" transform="translate(-54.773 -63.951)" opacity="0.2"/>
      <path id="Trazado_614483" data-name="Trazado 614483" d="M367.817,190.66S344.525,283.127,199.36,298.327V190.66Z" transform="translate(-38.179 -36.513)" fill="#e9e9e9" opacity="0.1"/>
      <path id="Trazado_614484" data-name="Trazado 614484" d="M367.579,137.9V239.175L350.713,256.04H284.045a2.6,2.6,0,0,1-2.6-2.6V137.9a2.6,2.6,0,0,1,2.6-2.6h80.93A2.607,2.607,0,0,1,367.579,137.9Z" transform="translate(-53.9 -25.911)" fill="#4f6736"/>
      <path id="Trazado_614485" data-name="Trazado 614485" d="M367.579,143.99v96.849L350.713,257.7H284.045a2.6,2.6,0,0,1-2.6-2.6V143.99Z" transform="translate(-53.9 -27.575)" fill="#e9e9e9" opacity="0.6"/>
      <path id="Trazado_614486" data-name="Trazado 614486" d="M384.606,138.983a1.253,1.253,0,1,1-1.253-1.253A1.254,1.254,0,0,1,384.606,138.983Z" transform="translate(-73.175 -26.376)" fill="#e9e9e9" opacity="0.6"/>
      <path id="Trazado_614487" data-name="Trazado 614487" d="M378.666,138.983a1.253,1.253,0,1,1-1.253-1.253A1.254,1.254,0,0,1,378.666,138.983Z" transform="translate(-72.038 -26.376)" fill="#e9e9e9" opacity="0.6"/>
      <path id="Trazado_614488" data-name="Trazado 614488" d="M372.736,138.983a1.253,1.253,0,1,1-1.253-1.253A1.254,1.254,0,0,1,372.736,138.983Z" transform="translate(-70.902 -26.376)" fill="#e9e9e9" opacity="0.6"/>
      <path id="Trazado_614489" data-name="Trazado 614489" d="M335.073,153.257H288.909a.808.808,0,1,1,0-1.617h46.165a.808.808,0,0,1,0,1.617Z" transform="translate(-55.174 -29.04)" fill="#4f6736"/>
      <path id="Trazado_614490" data-name="Trazado 614490" d="M322.024,158.717H288.909a.808.808,0,1,1,0-1.617h33.116a.808.808,0,0,1,0,1.617Z" transform="translate(-55.174 -30.086)" fill="#4f6736"/>
      <path id="Trazado_614491" data-name="Trazado 614491" d="M360.155,243.187H301.118a.808.808,0,1,1,0-1.617h59.036a.808.808,0,0,1,0,1.617Z" transform="translate(-57.512 -46.263)" fill="#4f6736"/>
      <path id="Trazado_614492" data-name="Trazado 614492" d="M347.945,265.037H288.909a.809.809,0,1,1,0-1.617h59.036a.809.809,0,0,1,0,1.617Z" transform="translate(-55.174 -50.447)" fill="#4f6736"/>
      <path id="Trazado_614493" data-name="Trazado 614493" d="M357.818,248.647h-68.9a.808.808,0,0,1,0-1.617h68.9a.808.808,0,1,1,0,1.617Z" transform="translate(-55.176 -47.308)" fill="#4f6736"/>
      <path id="Trazado_614494" data-name="Trazado 614494" d="M357.818,254.107h-68.9a.808.808,0,0,1,0-1.617h68.9a.808.808,0,1,1,0,1.617Z" transform="translate(-55.176 -48.354)" fill="#4f6736"/>
      <path id="Trazado_614495" data-name="Trazado 614495" d="M357.818,259.577h-68.9a.808.808,0,0,1,0-1.617h68.9a.808.808,0,1,1,0,1.617Z" transform="translate(-55.176 -49.402)" fill="#4f6736"/>
      <path id="Trazado_614496" data-name="Trazado 614496" d="M383.985,263.78,367.12,280.645V263.78Z" transform="translate(-70.307 -50.516)" fill="#4f6736" opacity="0.5"/>
      <path id="Trazado_614497" data-name="Trazado 614497" d="M386.852,143.99H382.09v96.849h4.762Z" transform="translate(-73.174 -27.575)" opacity="0.4"/>
      <path id="Trazado_614498" data-name="Trazado 614498" d="M384.624,203.4a1.753,1.753,0,0,1-1.754-1.754v-9.9a1.754,1.754,0,1,1,3.509,0v9.9A1.753,1.753,0,0,1,384.624,203.4Z" transform="translate(-73.323 -36.387)" fill="#4f6736"/>
      <path id="Trazado_614499" data-name="Trazado 614499" d="M360.155,213.187H301.118a.808.808,0,1,1,0-1.617h59.036a.808.808,0,0,1,0,1.617Z" transform="translate(-57.512 -40.517)" fill="#4f6736"/>
      <path id="Trazado_614500" data-name="Trazado 614500" d="M347.945,235.037H288.909a.808.808,0,1,1,0-1.617h59.036a.808.808,0,0,1,0,1.617Z" transform="translate(-55.174 -44.702)" fill="#4f6736"/>
      <path id="Trazado_614501" data-name="Trazado 614501" d="M357.818,218.647h-68.9a.808.808,0,0,1,0-1.617h68.9a.808.808,0,1,1,0,1.617Z" transform="translate(-55.176 -41.563)" fill="#4f6736"/>
      <path id="Trazado_614502" data-name="Trazado 614502" d="M357.818,224.107h-68.9a.808.808,0,0,1,0-1.617h68.9a.808.808,0,1,1,0,1.617Z" transform="translate(-55.176 -42.609)" fill="#4f6736"/>
      <path id="Trazado_614503" data-name="Trazado 614503" d="M357.818,229.577h-68.9a.808.808,0,0,1,0-1.617h68.9a.808.808,0,1,1,0,1.617Z" transform="translate(-55.176 -43.656)" fill="#4f6736"/>
      <path id="Trazado_614504" data-name="Trazado 614504" d="M357.95,165.62H288.84v25.791h69.11Z" transform="translate(-55.315 -31.718)" fill="#4f6736"/>
      <path id="Trazado_614505" data-name="Trazado 614505" d="M288.84,187.271h1.884v-4.689h2.167v-9.257h3.024v5.7h4.156V186.6h4.956v-5.279h4.1l2.708-2.717v-6.282h1.657v9h4.172v3.2h4.317V168.191l1.2-1.2v4.479h2.757v2.013l2.644,2.644v4.778h3.8v-3.776h9.912V174.3h2.24v-4.924h.8v7.753h1.261l2.854-2.854h2.684V171.7h1.358v2.6h1.754V185h1.908v-5.336l.809.049V165.62H288.84Z" transform="translate(-55.315 -31.718)" opacity="0.2"/>
      <path id="Trazado_614506" data-name="Trazado 614506" d="M369.73,202.187H351.118a.809.809,0,0,1,0-1.617H369.73a.809.809,0,0,1,0,1.617Z" transform="translate(-67.087 -38.411)" fill="#4f6736"/>
      <path id="Trazado_614507" data-name="Trazado 614507" d="M314.8,135.3V219l-12.726,12.726H281.45V137.9a2.6,2.6,0,0,1,2.6-2.6Z" transform="translate(-53.9 -25.911)" opacity="0.2"/>
      <path id="Trazado_614508" data-name="Trazado 614508" d="M384.624,203.4a1.753,1.753,0,0,1-1.754-1.754v-9.9a1.754,1.754,0,1,1,3.509,0v9.9A1.753,1.753,0,0,1,384.624,203.4Z" transform="translate(-73.323 -36.387)" fill="#e9e9e9" opacity="0.4"/>
      <path id="Trazado_614509" data-name="Trazado 614509" d="M241.339,153.513V254.785L224.473,271.65H157.805a2.6,2.6,0,0,1-2.6-2.6V153.513a2.6,2.6,0,0,1,2.6-2.6h80.93A2.607,2.607,0,0,1,241.339,153.513Z" transform="translate(-29.724 -28.901)" fill="#4f6736"/>
      <path id="Trazado_614510" data-name="Trazado 614510" d="M241.339,159.6v96.849l-16.865,16.865H157.805a2.6,2.6,0,0,1-2.6-2.6V159.6Z" transform="translate(-29.724 -30.565)" fill="#e9e9e9" opacity="0.6"/>
      <path id="Trazado_614511" data-name="Trazado 614511" d="M258.366,154.6a1.253,1.253,0,1,1-1.253-1.253A1.254,1.254,0,0,1,258.366,154.6Z" transform="translate(-48.999 -29.368)" fill="#e9e9e9" opacity="0.6"/>
      <path id="Trazado_614512" data-name="Trazado 614512" d="M252.426,154.6a1.253,1.253,0,1,1-1.253-1.253A1.254,1.254,0,0,1,252.426,154.6Z" transform="translate(-47.862 -29.368)" fill="#e9e9e9" opacity="0.6"/>
      <path id="Trazado_614513" data-name="Trazado 614513" d="M246.5,154.6a1.253,1.253,0,1,1-1.253-1.253A1.254,1.254,0,0,1,246.5,154.6Z" transform="translate(-46.726 -29.368)" fill="#e9e9e9" opacity="0.6"/>
      <path id="Trazado_614514" data-name="Trazado 614514" d="M177.011,169.417H162.669a.808.808,0,1,1,0-1.617h14.343a.808.808,0,0,1,0,1.617Z" transform="translate(-30.998 -32.135)" fill="#4f6736"/>
      <path id="Trazado_614515" data-name="Trazado 614515" d="M183.77,174.877h-21.1a.808.808,0,1,1,0-1.617h21.1a.808.808,0,1,1,0,1.617Z" transform="translate(-30.998 -33.181)" fill="#4f6736"/>
      <path id="Trazado_614516" data-name="Trazado 614516" d="M177.246,180.337H162.669a.808.808,0,1,1,0-1.617h14.577a.808.808,0,1,1,0,1.617Z" transform="translate(-30.998 -34.226)" fill="#4f6736"/>
      <path id="Trazado_614517" data-name="Trazado 614517" d="M233.9,269.807H174.868a.808.808,0,1,1,0-1.617H233.9a.808.808,0,1,1,0,1.617Z" transform="translate(-33.334 -51.361)" fill="#4f6736"/>
      <path id="Trazado_614518" data-name="Trazado 614518" d="M199.228,275.267h-36.56a.809.809,0,1,1,0-1.617h36.56a.809.809,0,1,1,0,1.617Z" transform="translate(-30.998 -52.406)" fill="#4f6736"/>
      <path id="Trazado_614519" data-name="Trazado 614519" d="M257.745,279.39,240.88,296.255V279.39Z" transform="translate(-46.131 -53.506)" fill="#4f6736" opacity="0.5"/>
      <path id="Trazado_614520" data-name="Trazado 614520" d="M260.612,159.6H255.85v96.849h4.762Z" transform="translate(-48.997 -30.565)" opacity="0.4"/>
      <path id="Trazado_614521" data-name="Trazado 614521" d="M258.374,268.025a1.753,1.753,0,0,1-1.754-1.754v-9.9a1.754,1.754,0,1,1,3.509,0v9.9A1.753,1.753,0,0,1,258.374,268.025Z" transform="translate(-49.145 -48.762)" fill="#4f6736"/>
      <path id="Trazado_614522" data-name="Trazado 614522" d="M245.257,169.417H234.148a.808.808,0,1,1,0-1.617h11.109a.808.808,0,0,1,0,1.617Z" transform="translate(-44.687 -32.135)" fill="#4f6736"/>
      <path id="Trazado_614523" data-name="Trazado 614523" d="M246.529,174.877h-5.74a.808.808,0,1,1,0-1.617h5.74a.808.808,0,1,1,0,1.617Z" transform="translate(-45.958 -33.181)" fill="#4f6736"/>
      <path id="Trazado_614524" data-name="Trazado 614524" d="M233.9,194.807H174.868a.808.808,0,0,1,0-1.617H233.9a.808.808,0,0,1,0,1.617Z" transform="translate(-33.334 -36.998)" fill="#4f6736"/>
      <path id="Trazado_614525" data-name="Trazado 614525" d="M231.568,200.267h-68.9a.808.808,0,1,1,0-1.617h68.9a.808.808,0,1,1,0,1.617Z" transform="translate(-30.998 -38.043)" fill="#4f6736"/>
      <path id="Trazado_614526" data-name="Trazado 614526" d="M191.144,205.727H162.669a.808.808,0,1,1,0-1.617h28.475a.808.808,0,0,1,0,1.617Z" transform="translate(-30.998 -39.089)" fill="#4f6736"/>
      <path id="Trazado_614527" data-name="Trazado 614527" d="M204.149,213.36H177v7.276h27.149Z" transform="translate(-33.897 -40.86)" fill="#4f6736" opacity="0.7"/>
      <path id="Trazado_614528" data-name="Trazado 614528" d="M189.3,224.36H177v26.866h12.3Z" transform="translate(-33.897 -42.967)" fill="#4f6736" opacity="0.3"/>
      <path id="Trazado_614529" data-name="Trazado 614529" d="M226.694,224.36H212.57v26.866h14.124Z" transform="translate(-40.709 -42.967)" fill="#4f6736" opacity="0.3"/>
      <path id="Trazado_614530" data-name="Trazado 614530" d="M241.28,213.36H212.57v7.276h28.71Z" transform="translate(-40.709 -40.86)" fill="#4f6736" opacity="0.7"/>
      <path id="Trazado_614531" data-name="Trazado 614531" d="M245.018,224.36H232.05v26.866h12.968Z" transform="translate(-44.44 -42.967)" fill="#4f6736" opacity="0.3"/>
      <path id="Trazado_614532" data-name="Trazado 614532" d="M172.675,224.36H162.86v26.866h9.815Z" transform="translate(-31.189 -42.967)" fill="#4f6736" opacity="0.5"/>
      <path id="Trazado_614533" data-name="Trazado 614533" d="M172.675,213.36H162.86v7.276h9.815Z" transform="translate(-31.189 -40.86)" fill="#4f6736"/>
      <path id="Trazado_614534" data-name="Trazado 614534" d="M207.437,224.36H194.21v26.866h13.227Z" transform="translate(-37.193 -42.967)" fill="#4f6736" opacity="0.3"/>
      <path id="Trazado_614535" data-name="Trazado 614535" d="M258.374,268.025a1.753,1.753,0,0,1-1.754-1.754v-9.9a1.754,1.754,0,1,1,3.509,0v9.9A1.753,1.753,0,0,1,258.374,268.025Z" transform="translate(-49.145 -48.762)" fill="#e9e9e9" opacity="0.4"/>
      <path id="Trazado_614536" data-name="Trazado 614536" d="M249.572,153.513v84.245H200.8a2.6,2.6,0,0,1-2.6-2.6V150.91h48.768A2.607,2.607,0,0,1,249.572,153.513Z" transform="translate(-37.957 -28.901)" opacity="0.2"/>
      <path id="Trazado_614537" data-name="Trazado 614537" d="M294.309,96.733V198L277.443,214.87H210.775a2.6,2.6,0,0,1-2.6-2.6V96.733a2.6,2.6,0,0,1,2.6-2.6h80.93A2.607,2.607,0,0,1,294.309,96.733Z" transform="translate(-39.868 -18.027)" fill="#4f6736"/>
      <path id="Trazado_614538" data-name="Trazado 614538" d="M294.309,102.82v96.849l-16.865,16.865H210.775a2.6,2.6,0,0,1-2.6-2.6V102.82Z" transform="translate(-39.868 -19.691)" fill="#e9e9e9" opacity="0.6"/>
      <path id="Trazado_614539" data-name="Trazado 614539" d="M310.073,99.066a1.253,1.253,0,1,0-1.253-1.253A1.253,1.253,0,0,0,310.073,99.066Z" transform="translate(-59.142 -18.492)" fill="#e9e9e9" opacity="0.6"/>
      <path id="Trazado_614540" data-name="Trazado 614540" d="M304.133,99.066a1.253,1.253,0,1,0-1.253-1.253A1.253,1.253,0,0,0,304.133,99.066Z" transform="translate(-58.004 -18.492)" fill="#e9e9e9" opacity="0.6"/>
      <path id="Trazado_614541" data-name="Trazado 614541" d="M299.456,97.813A1.253,1.253,0,1,1,298.2,96.56,1.254,1.254,0,0,1,299.456,97.813Z" transform="translate(-56.868 -18.492)" fill="#e9e9e9" opacity="0.6"/>
      <path id="Trazado_614542" data-name="Trazado 614542" d="M264.527,112.627H248.058a.808.808,0,0,1,0-1.617h16.469a.808.808,0,0,1,0,1.617Z" transform="translate(-47.351 -21.259)" fill="#4f6736"/>
      <path id="Trazado_614543" data-name="Trazado 614543" d="M269.694,118.087h-30a.808.808,0,0,1,0-1.617h30a.808.808,0,1,1,0,1.617Z" transform="translate(-45.75 -22.305)" fill="#4f6736"/>
      <path id="Trazado_614544" data-name="Trazado 614544" d="M264.715,123.547H247.768a.808.808,0,0,1,0-1.617h16.946a.808.808,0,0,1,0,1.617Z" transform="translate(-47.295 -23.351)" fill="#4f6736"/>
      <path id="Trazado_614545" data-name="Trazado 614545" d="M286.875,138.017H227.838a.808.808,0,0,1,0-1.617h59.036a.808.808,0,0,1,0,1.617Z" transform="translate(-43.478 -26.122)" fill="#4f6736"/>
      <path id="Trazado_614546" data-name="Trazado 614546" d="M274.665,159.867H215.629a.808.808,0,1,1,0-1.617h59.036a.808.808,0,1,1,0,1.617Z" transform="translate(-41.14 -30.306)" fill="#4f6736"/>
      <path id="Trazado_614547" data-name="Trazado 614547" d="M284.538,143.477h-68.9a.808.808,0,0,1,0-1.617h68.9a.808.808,0,0,1,0,1.617Z" transform="translate(-41.142 -27.167)" fill="#4f6736"/>
      <path id="Trazado_614548" data-name="Trazado 614548" d="M284.538,148.937h-68.9a.808.808,0,0,1,0-1.617h68.9a.808.808,0,0,1,0,1.617Z" transform="translate(-41.142 -28.213)" fill="#4f6736"/>
      <path id="Trazado_614549" data-name="Trazado 614549" d="M284.538,154.407h-68.9a.808.808,0,1,1,0-1.617h68.9a.808.808,0,0,1,0,1.617Z" transform="translate(-41.142 -29.261)" fill="#4f6736"/>
      <path id="Trazado_614550" data-name="Trazado 614550" d="M286.875,193.017H227.838a.808.808,0,0,1,0-1.617h59.036a.808.808,0,0,1,0,1.617Z" transform="translate(-43.478 -36.655)" fill="#4f6736"/>
      <path id="Trazado_614551" data-name="Trazado 614551" d="M274.665,214.867H215.629a.808.808,0,1,1,0-1.617h59.036a.808.808,0,1,1,0,1.617Z" transform="translate(-41.14 -40.839)" fill="#4f6736"/>
      <path id="Trazado_614552" data-name="Trazado 614552" d="M284.538,198.477h-68.9a.808.808,0,1,1,0-1.617h68.9a.808.808,0,0,1,0,1.617Z" transform="translate(-41.142 -37.7)" fill="#4f6736"/>
      <path id="Trazado_614553" data-name="Trazado 614553" d="M284.538,203.937h-68.9a.808.808,0,0,1,0-1.617h68.9a.808.808,0,0,1,0,1.617Z" transform="translate(-41.142 -38.746)" fill="#4f6736"/>
      <path id="Trazado_614554" data-name="Trazado 614554" d="M284.538,209.407h-68.9a.808.808,0,0,1,0-1.617h68.9a.808.808,0,0,1,0,1.617Z" transform="translate(-41.142 -39.794)" fill="#4f6736"/>
      <path id="Trazado_614555" data-name="Trazado 614555" d="M299.091,110.81H290.82v11.012h8.271Z" transform="translate(-55.695 -21.221)" fill="#4f6736"/>
      <path id="Trazado_614556" data-name="Trazado 614556" d="M220.414,119.978a4.584,4.584,0,1,0-4.584-4.584A4.584,4.584,0,0,0,220.414,119.978Z" transform="translate(-41.333 -21.221)" fill="#4f6736"/>
      <path id="Trazado_614557" data-name="Trazado 614557" d="M215.5,167.17a.966.966,0,0,0,1.932,0,.966.966,0,1,0-1.932,0Z" transform="translate(-41.27 -31.829)" fill="#4f6736"/>
      <path id="Trazado_614558" data-name="Trazado 614558" d="M215.5,172.63a.966.966,0,1,0,.962-.97A.966.966,0,0,0,215.5,172.63Z" transform="translate(-41.27 -32.874)" fill="#4f6736"/>
      <path id="Trazado_614559" data-name="Trazado 614559" d="M215.5,178.092a.966.966,0,1,0,.962-.962A.966.966,0,0,0,215.5,178.092Z" transform="translate(-41.27 -33.922)" fill="#4f6736"/>
      <path id="Trazado_614560" data-name="Trazado 614560" d="M215.5,183.562a.966.966,0,1,0,.962-.962A.966.966,0,0,0,215.5,183.562Z" transform="translate(-41.27 -34.969)" fill="#4f6736"/>
      <path id="Trazado_614561" data-name="Trazado 614561" d="M231.155,168.017H220.628a.808.808,0,1,1,0-1.617h10.527a.808.808,0,0,1,0,1.617Z" transform="translate(-42.097 -31.867)" fill="#4f6736"/>
      <path id="Trazado_614562" data-name="Trazado 614562" d="M241.029,173.477h-20.39a.808.808,0,1,1,0-1.617h20.39a.808.808,0,1,1,0,1.617Z" transform="translate(-42.099 -32.913)" fill="#4f6736"/>
      <path id="Trazado_614563" data-name="Trazado 614563" d="M228.9,178.937h-8.263a.808.808,0,1,1,0-1.617H228.9a.808.808,0,1,1,0,1.617Z" transform="translate(-42.099 -33.958)" fill="#4f6736"/>
      <path id="Trazado_614564" data-name="Trazado 614564" d="M237.795,184.407H220.639a.808.808,0,1,1,0-1.617h17.156a.808.808,0,0,1,0,1.617Z" transform="translate(-42.099 -35.006)" fill="#4f6736"/>
      <path id="Trazado_614565" data-name="Trazado 614565" d="M310.715,222.61,293.85,239.475V222.61Z" transform="translate(-56.275 -42.632)" fill="#4f6736" opacity="0.5"/>
      <path id="Trazado_614566" data-name="Trazado 614566" d="M299.091,110.81l-8.271,11.012h8.271Z" transform="translate(-55.695 -21.221)" opacity="0.2"/>
      <path id="Trazado_614567" data-name="Trazado 614567" d="M223.54,113.17h-5.36v5.36h5.36Z" transform="translate(-41.783 -21.673)" opacity="0.2"/>
      <path id="Trazado_614568" data-name="Trazado 614568" d="M313.572,102.82H308.81v96.849h4.762Z" transform="translate(-59.14 -19.691)" opacity="0.4"/>
      <path id="Trazado_614569" data-name="Trazado 614569" d="M311.344,122.235a1.753,1.753,0,0,1-1.754-1.754v-9.9a1.754,1.754,0,0,1,3.509,0v9.9A1.753,1.753,0,0,1,311.344,122.235Z" transform="translate(-59.289 -20.842)" fill="#4f6736"/>
      <path id="Trazado_614570" data-name="Trazado 614570" d="M311.344,122.235a1.753,1.753,0,0,1-1.754-1.754v-9.9a1.754,1.754,0,0,1,3.509,0v9.9A1.753,1.753,0,0,1,311.344,122.235Z" transform="translate(-59.289 -20.842)" fill="#e9e9e9" opacity="0.4"/>
      <path id="Trazado_614571" data-name="Trazado 614571" d="M82.861,153.98h28.233a4.092,4.092,0,0,1,4.091,4.1v27.44a4.091,4.091,0,0,1-4.091,4.091H99.637l1.229,8.271L95.2,189.61H82.861a4.091,4.091,0,0,1-4.091-4.091v-27.44A4.1,4.1,0,0,1,82.861,153.98Z" transform="translate(-15.085 -29.489)" fill="#4f6736"/>
      <path id="Trazado_614572" data-name="Trazado 614572" d="M82.861,153.98h28.233a4.092,4.092,0,0,1,4.091,4.1v27.44a4.091,4.091,0,0,1-4.091,4.091H99.637l1.229,8.271L95.2,189.61H82.861a4.091,4.091,0,0,1-4.091-4.091v-27.44A4.1,4.1,0,0,1,82.861,153.98Z" transform="translate(-15.085 -29.489)" fill="#e9e9e9" opacity="0.6"/>
      <path id="Trazado_614573" data-name="Trazado 614573" d="M98.41,167.591v2.191l1.124.105a5.889,5.889,0,0,0,.841,2.021l-.728.873,1.544,1.544.873-.728a5.888,5.888,0,0,0,2.021.841l.105,1.124h2.191l.105-1.124a5.888,5.888,0,0,0,2.021-.841l.873.728,1.544-1.544-.728-.873a5.889,5.889,0,0,0,.841-2.021l1.124-.105v-2.191l-1.124-.105a5.889,5.889,0,0,0-.841-2.021l.728-.873-1.544-1.544-.873.728a5.889,5.889,0,0,0-2.021-.841l-.105-1.124h-2.191l-.105,1.124a5.889,5.889,0,0,0-2.021.841l-.873-.728-1.544,1.544.728.873a5.889,5.889,0,0,0-.841,2.021Zm6.888-1.868a2.959,2.959,0,1,1-2.959,2.959A2.96,2.96,0,0,1,105.3,165.723Z" transform="translate(-18.846 -30.988)" fill="#eee"/>
      <path id="Trazado_614574" data-name="Trazado 614574" d="M98.66,186.364a4.73,4.73,0,0,0,1.585-.655l.687.566,1.213-1.213-.566-.687a4.419,4.419,0,0,0,.655-1.585l.881-.081V181l-.881-.081a4.73,4.73,0,0,0-.655-1.585l.566-.687-1.213-1.213-.687.566a4.42,4.42,0,0,0-1.585-.655l-.081-.881H96.866l-.081.881A4.73,4.73,0,0,0,95.2,178l-.687-.566L93.3,178.643l.566.687a4.42,4.42,0,0,0-.655,1.585L92.33,181v1.714l.881.081a4.73,4.73,0,0,0,.655,1.585l-.566.687,1.213,1.213.687-.566a4.42,4.42,0,0,0,1.585.655l.081.881H98.58Zm-3.266-4.511a2.32,2.32,0,1,1,2.32,2.32A2.32,2.32,0,0,1,95.394,181.853Z" transform="translate(-17.682 -33.794)" fill="#eee"/>
      <path id="Trazado_614575" data-name="Trazado 614575" d="M93.2,174.808l.477.574,1.188-.809-.364-.655a3.8,3.8,0,0,0,.792-1.2l.744.073.267-1.415-.72-.21a3.746,3.746,0,0,0-.3-1.407l.574-.477-.808-1.188-.655.364a3.805,3.805,0,0,0-1.2-.792l.073-.744-1.415-.267-.2.72a3.746,3.746,0,0,0-1.407.3l-.477-.574-1.188.809.364.655a3.805,3.805,0,0,0-.792,1.2l-.744-.073L87.14,171.1l.72.21a3.746,3.746,0,0,0,.3,1.407l-.574.477.808,1.188.655-.364a3.805,3.805,0,0,0,1.2.792l-.073.744,1.415.267.21-.72a3.746,3.746,0,0,0,1.407-.3Zm-3.4-3.937a1.95,1.95,0,1,1,1.552,2.28A1.949,1.949,0,0,1,89.8,170.87Z" transform="translate(-16.688 -31.915)" fill="#eee"/>
      <path id="Trazado_614576" data-name="Trazado 614576" d="M140.108,278.16s1.989,17.908,2.636,20.042,9.758,13.534,9.758,13.534l-2.587,1.35s-9.734-9.977-11.246-12.936-3.848-18.4-3.848-18.4l5.279-3.59Z" transform="translate(-25.819 -53.27)" fill="#ebb376"/>
      <path id="Trazado_614577" data-name="Trazado 614577" d="M137.762,268.31c3.355,1.779,4.455,26.616,4.455,26.616l1.69,2.62-5.158,3.671a46.053,46.053,0,0,1-3.218-6.4c-1.027-2.773-3.46-16.42-3.46-16.42l5.684-10.09Z" transform="translate(-25.293 -51.384)" fill="#263238"/>
      <path id="Trazado_614578" data-name="Trazado 614578" d="M137.762,268.31c3.355,1.779,4.455,26.616,4.455,26.616l1.69,2.62-5.158,3.671a46.053,46.053,0,0,1-3.218-6.4c-1.027-2.773-3.46-16.42-3.46-16.42l5.684-10.09Z" transform="translate(-25.293 -51.384)" fill="#e9e9e9" opacity="0.1"/>
      <path id="Trazado_614579" data-name="Trazado 614579" d="M139.4,307.9l5.918-4.689,1.269,2.66-5.457,3.9Z" transform="translate(-26.696 -58.067)" fill="#4f6736"/>
      <path id="Trazado_614580" data-name="Trazado 614580" d="M139.4,307.9l5.918-4.689,1.269,2.66-5.457,3.9Z" transform="translate(-26.696 -58.067)" fill="#e9e9e9" opacity="0.4"/>
      <path id="Trazado_614581" data-name="Trazado 614581" d="M115.284,307.359l6.039,9.564c11.99-2.789,50.418-8.651,55.131,4.528,5.862,16.388-36.52,29.445-59.974,30.246S74.2,339.141,89.033,304.95Z" transform="translate(-16.042 -58.401)" fill="#4f6736"/>
      <path id="Trazado_614582" data-name="Trazado 614582" d="M115.284,307.359l6.039,9.564c11.99-2.789,50.418-8.651,55.131,4.528,5.862,16.388-36.52,29.445-59.974,30.246S74.2,339.141,89.033,304.95Z" transform="translate(-16.042 -58.401)" opacity="0.2"/>
      <path id="Trazado_614583" data-name="Trazado 614583" d="M189.968,353.317a.145.145,0,0,1-.17-.008.116.116,0,0,1-.04-.146c.073-.259.857-2.514,1.641-2.757a.484.484,0,0,1,.469.137.778.778,0,0,1,.275.76,2.127,2.127,0,0,1-.736,1.059A8.547,8.547,0,0,1,189.968,353.317Zm.2-.437a3.376,3.376,0,0,0,1.674-1.609.519.519,0,0,0-.2-.517.179.179,0,0,0-.186-.057.5.5,0,0,0-.178.105A6.606,6.606,0,0,0,190.17,352.881Z" transform="translate(-36.338 -67.103)" fill="#4f6736"/>
      <path id="Trazado_614584" data-name="Trazado 614584" d="M189.7,353.316a.136.136,0,0,1-.146-.04c-.073-.065-1.156-1.431-.978-2.353a.856.856,0,0,1,.372-.566.5.5,0,0,1,.623-.057c.566.4.5,2.231.218,2.919l-.016.073A.244.244,0,0,1,189.7,353.316Zm-.614-2.676a.594.594,0,0,0-.186.331,3.129,3.129,0,0,0,.728,1.876c.178-.784.121-2.062-.21-2.3-.032-.016-.105-.073-.275.048Z" transform="translate(-36.11 -67.07)" fill="#4f6736"/>
      <path id="Trazado_614585" data-name="Trazado 614585" d="M138.788,358.752a.141.141,0,0,1,.154-.073.113.113,0,0,1,.105.105c.057.267.469,2.611-.105,3.2a.47.47,0,0,1-.477.105.79.79,0,0,1-.606-.526,2.068,2.068,0,0,1,.129-1.286,8.3,8.3,0,0,1,.792-1.528Zm.032.477a3.327,3.327,0,0,0-.679,2.215.5.5,0,0,0,.42.356.176.176,0,0,0,.186-.04.494.494,0,0,0,.105-.178A6.576,6.576,0,0,0,138.82,359.229Z" transform="translate(-26.392 -68.689)" fill="#4f6736"/>
      <path id="Trazado_614586" data-name="Trazado 614586" d="M154.626,344.09l-9.653,3.436-4.633,1.649,1.188,5.069,4.487-.954,10.963-2.337Z" transform="translate(-26.876 -65.896)" fill="#ebb376"/>
      <path id="Trazado_614587" data-name="Trazado 614587" d="M140.886,355.41l-.808-5.983a.6.6,0,0,0-.687-.509l-2.951.493s-4.018.38-4.819,1.407c-2.337,3.008-.873,16.291.679,16.76.566.17,1.172-.606,1.415-1.148.784-1.714,2.175-6.185,2.846-7.608.784-1.657,2.943-2.474,3.913-2.765A.581.581,0,0,0,140.886,355.41Z" transform="translate(-24.973 -66.819)" fill="#263238"/>
      <path id="Trazado_614588" data-name="Trazado 614588" d="M139.037,358.7a.126.126,0,0,1,.146-.032c.1.016,1.706.7,2,1.585a.864.864,0,0,1-.057.679.5.5,0,0,1-.517.356c-.687-.073-1.512-1.706-1.609-2.45l-.016-.073a.646.646,0,0,1,.049-.065Zm1.835,2.045a.558.558,0,0,0,0-.38c-.186-.566-1.083-1.067-1.544-1.294.218.768.9,1.868,1.294,1.908.04,0,.129.016.218-.17l.024-.065Z" transform="translate(-26.616 -68.686)" fill="#4f6736"/>
      <path id="Trazado_614589" data-name="Trazado 614589" d="M155.723,344.09l-9.653,3.436,1.043,5.765,10.963-2.337Z" transform="translate(-27.974 -65.896)" opacity="0.2"/>
      <path id="Trazado_614590" data-name="Trazado 614590" d="M148.951,354.326l2.773.2-1.86-9.548-3.145,1.738Z" transform="translate(-28.098 -66.067)" fill="#4f6736"/>
      <path id="Trazado_614591" data-name="Trazado 614591" d="M148.951,354.326l2.773.2-1.86-9.548-3.145,1.738Z" transform="translate(-28.098 -66.067)" fill="#e9e9e9" opacity="0.6"/>
      <path id="Trazado_614592" data-name="Trazado 614592" d="M99.68,310.648l14.456,16.024s15.984-.356,35.388,9.128c0,0,20.827-8.6,22.735-15.749,2.506-9.362-47.879-2.045-47.879-2.045l-24.7-7.365Z" transform="translate(-19.09 -59.49)" opacity="0.2"/>
      <path id="Trazado_614593" data-name="Trazado 614593" d="M171.666,324.65v2.377c0,.606-.72.857-1.318.857H122.882c-.606,0-1.342-.251-1.342-.857V324.65Z" transform="translate(-23.276 -62.173)" fill="#263238"/>
      <path id="Trazado_614594" data-name="Trazado 614594" d="M171.666,324.65v2.377c0,.606-.72.857-1.318.857H122.882c-.606,0-1.342-.251-1.342-.857V324.65Z" transform="translate(-23.276 -62.173)" fill="#e9e9e9" opacity="0.4"/>
      <path id="Trazado_614595" data-name="Trazado 614595" d="M175.5,324.65v2.377c0,.606-.72.857-1.318.857h-31.3c-.606,0-1.334-.251-1.334-.857V324.65Z" transform="translate(-27.106 -62.173)" opacity="0.2"/>
      <path id="Trazado_614596" data-name="Trazado 614596" d="M183.991,293.863l-5.651,25.629a1.923,1.923,0,0,1-1.835,1.455H145.637a1.239,1.239,0,0,1-1.156-1.609l5.643-25.435a1.758,1.758,0,0,1,1.835-1.253h30.868C183.66,292.65,184.177,293.022,183.991,293.863Z" transform="translate(-27.662 -56.045)" fill="#263238"/>
      <path id="Trazado_614597" data-name="Trazado 614597" d="M184.239,293.863l-5.651,25.629a1.923,1.923,0,0,1-1.835,1.455H146.935a1.244,1.244,0,0,1-1.164-1.609l5.651-25.435a1.752,1.752,0,0,1,1.835-1.253h29.817C183.908,292.65,184.425,293.022,184.239,293.863Z" transform="translate(-27.909 -56.045)" fill="#e9e9e9" opacity="0.4"/>
      <path id="Trazado_614598" data-name="Trazado 614598" d="M173.011,309.322a4.417,4.417,0,0,1-4.075,3.986c-1.722,0-2.749-1.779-2.256-3.978.493-2.151,2.207-3.905,3.9-3.97-.493,2.191.558,3.97,2.28,3.97h.162Z" transform="translate(-31.897 -58.479)" opacity="0.2"/>
      <path id="Trazado_614599" data-name="Trazado 614599" d="M166.3,355.977l10.106,1.665,4.851.8,1.415-5.021-4.39-1.334-10.721-3.258Z" transform="translate(-31.848 -66.804)" fill="#ebb376"/>
      <path id="Trazado_614600" data-name="Trazado 614600" d="M184.8,351.918l-2.183,5.627a.6.6,0,0,0,.356.776l2.822,1s3.695,1.617,4.9,1.1c3.5-1.5,8.651-13.833,7.519-15-.412-.428-1.318-.032-1.795.315-1.52,1.116-4.891,4.366-6.169,5.279-1.5,1.067-3.776.736-4.762.526a.6.6,0,0,0-.679.364Z" transform="translate(-34.966 -66.116)" fill="#263238"/>
      <path id="Trazado_614601" data-name="Trazado 614601" d="M166.3,355.977l10.106,1.665,1.876-5.554-10.721-3.258Z" transform="translate(-31.848 -66.804)" opacity="0.2"/>
      <path id="Trazado_614602" data-name="Trazado 614602" d="M162.648,346.235s-41.209-23.171-55.43-22.508-16.275,13.195-10.405,21.045,16.7,9.758,16.7,9.758-7.373-10.421-6.306-13.356,5.239,1.156,5.239,1.156,25.928,8.376,48.606,10.292l1.6-6.387Z" transform="translate(-17.952 -61.994)" fill="#4f6736"/>
      <path id="Trazado_614603" data-name="Trazado 614603" d="M178.528,350.408,176.2,348.84l-3,9.209h3.6Z" transform="translate(-33.169 -66.806)" fill="#4f6736"/>
      <path id="Trazado_614604" data-name="Trazado 614604" d="M178.528,350.408,176.2,348.84l-3,9.209h3.6Z" transform="translate(-33.169 -66.806)" fill="#e9e9e9" opacity="0.6"/>
      <path id="Trazado_614605" data-name="Trazado 614605" d="M90.29,296.5l26.252,2.409s4.115-8.521,7.268-11.844,5.95-20.188,5.95-20.188a56.069,56.069,0,0,0-6.581-2.684,65.232,65.232,0,0,0-20.083-3.38h-.146c-1.957-.008-3.088.1-3.088.1a5.576,5.576,0,0,0-1.868,2.126c-2.814,4.851-5.053,16.17-6.379,24.3C90.759,292.576,90.29,296.5,90.29,296.5Z" transform="translate(-17.291 -49.947)" fill="#263238"/>
      <path id="Trazado_614606" data-name="Trazado 614606" d="M91.93,287.855c5.789-2.652,13.688-7.139,13.275-11.691-.445-5-4.5-10.025-6.9-12.6C95.5,268.411,93.256,279.73,91.93,287.855Z" transform="translate(-17.605 -50.474)" opacity="0.2"/>
      <path id="Trazado_614607" data-name="Trazado 614607" d="M107.72,260.763s2.991,9.839,11.173,10.907,9.54-6.864,9.54-6.864S117.9,259.025,107.72,260.763Z" transform="translate(-20.629 -49.876)" fill="#263238"/>
      <path id="Trazado_614608" data-name="Trazado 614608" d="M107.72,260.763s2.991,9.839,11.173,10.907,9.54-6.864,9.54-6.864S117.9,259.025,107.72,260.763Z" transform="translate(-20.629 -49.876)" fill="#e9e9e9" opacity="0.1"/>
      <path id="Trazado_614609" data-name="Trazado 614609" d="M109.84,261.168s3.865,9.112,10.81,9.112,7.171-5.118,7.171-5.118S120.868,260.6,109.84,261.168Z" transform="translate(-21.035 -50.007)" fill="#4f6736"/>
      <path id="Trazado_614610" data-name="Trazado 614610" d="M109.84,261.168s3.865,9.112,10.81,9.112,7.171-5.118,7.171-5.118S120.868,260.6,109.84,261.168Z" transform="translate(-21.035 -50.007)" fill="#e9e9e9" opacity="0.4"/>
      <path id="Trazado_614611" data-name="Trazado 614611" d="M123.183,260.35c.049,1.641.97,2.021.97,2.021a3.312,3.312,0,0,1-3.59,3.824c-5.15-.526-6.783-6.727-6.783-6.727,3.751-1.488,4.592-5.619,4.746-8.077a13.73,13.73,0,0,0,0-1.932l7,4.414a25.27,25.27,0,0,0-1.568,3.064,8.571,8.571,0,0,0-.784,3.4Z" transform="translate(-21.79 -47.774)" fill="#ebb376"/>
      <path id="Trazado_614612" data-name="Trazado 614612" d="M126.036,253.381a25.413,25.413,0,0,0-1.245,3.21,8.7,8.7,0,0,0-.437,3.468c-3.937.307-5.5-8.384-5.5-8.384l-.032-.048a13.143,13.143,0,0,0-.194-1.916l7.414,3.679Z" transform="translate(-22.719 -47.822)" opacity="0.2"/>
      <path id="Trazado_614613" data-name="Trazado 614613" d="M128.031,227.054s5.134-5.918-1.011-10.874-18.3-2.717-20.544,8.473.849,15.927.849,15.927,0-7.131,2.054-9.209a15.052,15.052,0,0,0,0,5.465c.614,2.054,0,.744,0,.744s1.892-8.926,11.012-6.371S128.031,227.054,128.031,227.054Z" transform="translate(-20.235 -40.923)" fill="#263238"/>
      <path id="Trazado_614614" data-name="Trazado 614614" d="M131.8,232.521c6.775,2.062,7.85,6.355,6.217,13.486-2.037,8.91-5.862,14.521-13.761,10.074-10.729-6.039-3.695-26.987,7.551-23.559Z" transform="translate(-22.778 -44.458)" fill="#ebb376"/>
      <path id="Trazado_614615" data-name="Trazado 614615" d="M137.056,247.17a14.825,14.825,0,0,0,1.116,3.412,1.942,1.942,0,0,1-2.021.218Z" transform="translate(-26.074 -47.335)" fill="#d58745"/>
      <path id="Trazado_614616" data-name="Trazado 614616" d="M132.015,244.63c-.154.558-.59.93-.962.825s-.55-.647-.4-1.2.59-.93.962-.825S132.169,244.073,132.015,244.63Z" transform="translate(-25.011 -46.615)" fill="#263238"/>
      <path id="Trazado_614617" data-name="Trazado 614617" d="M131.66,243.377l1.35-.137S132.121,244.1,131.66,243.377Z" transform="translate(-25.214 -46.583)" fill="#263238"/>
      <path id="Trazado_614618" data-name="Trazado 614618" d="M140.665,246.9c-.154.558-.59.93-.962.825s-.55-.647-.4-1.2.59-.93.962-.825S140.819,246.343,140.665,246.9Z" transform="translate(-26.668 -47.049)" fill="#263238"/>
      <path id="Trazado_614619" data-name="Trazado 614619" d="M140.32,245.647l1.35-.137S140.781,246.367,140.32,245.647Z" transform="translate(-26.872 -47.017)" fill="#263238"/>
      <path id="Trazado_614620" data-name="Trazado 614620" d="M129.941,239.382a.3.3,0,0,1-.243-.129.288.288,0,0,1,.081-.4,3.964,3.964,0,0,1,3.533-.154.293.293,0,0,1-.243.534,3.455,3.455,0,0,0-2.967.105A.292.292,0,0,1,129.941,239.382Z" transform="translate(-24.829 -45.644)" fill="#263238"/>
      <path id="Trazado_614621" data-name="Trazado 614621" d="M142.682,242.224a.287.287,0,0,1-.226-.105,3.015,3.015,0,0,0-2.288-1.277.3.3,0,0,1-.307-.275.29.29,0,0,1,.275-.307,3.548,3.548,0,0,1,2.773,1.488.287.287,0,0,1-.04.412A.324.324,0,0,1,142.682,242.224Z" transform="translate(-26.784 -46.011)" fill="#263238"/>
      <path id="Trazado_614622" data-name="Trazado 614622" d="M120.656,240.939s4.867-4.6,5.692-9.039c0,0,15.095-1.391,11.6,12.435,0,0,5-11.7-6.557-15.515s-16.7,13.227-12.241,20.14c0,0-1.512-5.134,1.5-8.012Z" transform="translate(-22.513 -43.716)" fill="#263238"/>
      <path id="Trazado_614623" data-name="Trazado 614623" d="M133.335,254.61a3.744,3.744,0,0,1-3.735-3.177.292.292,0,0,1,.251-.323.3.3,0,0,1,.331.251,3.128,3.128,0,0,0,3.169,2.668.285.285,0,0,1,.283.3.288.288,0,0,1-.291.283Z" transform="translate(-24.819 -48.089)" fill="#263238"/>
      <path id="Trazado_614624" data-name="Trazado 614624" d="M119.939,242.079a.191.191,0,0,0,.105.218c.016,0,.032.016.049.016l6.888,1.609a3,3,0,0,0,1.738,3.2,3.609,3.609,0,0,0,4.625-1.253,3.274,3.274,0,0,0,.21-.453,1.125,1.125,0,0,1,.889-.251.647.647,0,0,1,.356.4,3,3,0,0,0,1.746,3.177,3.609,3.609,0,0,0,4.625-1.253,2.949,2.949,0,0,0-1.391-4.18,3.609,3.609,0,0,0-4.625,1.253,2.542,2.542,0,0,0-.21.453.84.84,0,0,0-.348-.226,1.234,1.234,0,0,0-.9.089,3,3,0,0,0-1.738-3.2,3.609,3.609,0,0,0-4.625,1.253,3.014,3.014,0,0,0-.267.6l-6.864-1.6a.212.212,0,0,0-.259.137Zm15.6,2.668a3.158,3.158,0,0,1,4.042-1.1A2.572,2.572,0,0,1,140.8,247.3a3.158,3.158,0,0,1-4.042,1.1A2.572,2.572,0,0,1,135.542,244.747Zm-7.826-1.625a3.158,3.158,0,0,1,4.042-1.1,2.572,2.572,0,0,1,1.213,3.654,3.158,3.158,0,0,1-4.042,1.1A2.572,2.572,0,0,1,127.716,243.122Z" transform="translate(-22.968 -46.214)" fill="#263238"/>
      <g id="Grupo_1016101" data-name="Grupo 1016101" transform="translate(96.964 195.1)" opacity="0.3">
        <path id="Trazado_614625" data-name="Trazado 614625" d="M119.939,242.079a.191.191,0,0,0,.105.218c.016,0,.032.016.049.016l6.888,1.609a3,3,0,0,0,1.738,3.2,3.609,3.609,0,0,0,4.625-1.253,3.274,3.274,0,0,0,.21-.453,1.125,1.125,0,0,1,.889-.251.647.647,0,0,1,.356.4,3,3,0,0,0,1.746,3.177,3.609,3.609,0,0,0,4.625-1.253,2.949,2.949,0,0,0-1.391-4.18,3.609,3.609,0,0,0-4.625,1.253,2.542,2.542,0,0,0-.21.453.84.84,0,0,0-.348-.226,1.234,1.234,0,0,0-.9.089,3,3,0,0,0-1.738-3.2,3.609,3.609,0,0,0-4.625,1.253,3.014,3.014,0,0,0-.267.6l-6.864-1.6a.212.212,0,0,0-.259.137Zm15.6,2.668a3.158,3.158,0,0,1,4.042-1.1A2.572,2.572,0,0,1,140.8,247.3a3.158,3.158,0,0,1-4.042,1.1A2.572,2.572,0,0,1,135.542,244.747Zm-7.826-1.625a3.158,3.158,0,0,1,4.042-1.1,2.572,2.572,0,0,1,1.213,3.654,3.158,3.158,0,0,1-4.042,1.1A2.572,2.572,0,0,1,127.716,243.122Z" transform="translate(-119.932 -241.314)" fill="#e9e9e9"/>
      </g>
      <path id="Trazado_614626" data-name="Trazado 614626" d="M121.07,245.24a3.1,3.1,0,0,0-2.369-3.687c-2.167-.412-4.479,3.59.42,6.217C119.825,248.15,120.472,247.544,121.07,245.24Z" transform="translate(-22.256 -46.254)" fill="#ebb376"/>
      <path id="Trazado_614627" data-name="Trazado 614627" d="M104.307,271.868s.857,17.277,2.312,21.15S123.347,311.2,123.347,311.2s4.261-.954,4.972-.671a53.09,53.09,0,0,1,4.77,4.01H121.342l-1.027-1.819s-15.806-11.707-17.536-14.5c-1.285-2.062-5.409-23.058-5.409-23.058l6.945-3.307Z" transform="translate(-18.647 -52.064)" fill="#ebb376"/>
      <path id="Trazado_614628" data-name="Trazado 614628" d="M100.785,260.869c2.741-1.431,4.075,3.161,5.716,12.435a97.5,97.5,0,0,1,1.366,17.746l2.345,4.164-5.91,5.449a25.4,25.4,0,0,1-6.233-9.613c-1.827-5.587-6.864-25.185,2.725-30.181Z" transform="translate(-18.214 -49.909)" fill="#263238"/>
      <path id="Trazado_614629" data-name="Trazado 614629" d="M100.785,260.869c2.741-1.431,4.075,3.161,5.716,12.435a97.5,97.5,0,0,1,1.366,17.746l2.345,4.164-5.91,5.449a25.4,25.4,0,0,1-6.233-9.613c-1.827-5.587-6.864-25.185,2.725-30.181Z" transform="translate(-18.214 -49.909)" fill="#e9e9e9" opacity="0.1"/>
      <path id="Trazado_614630" data-name="Trazado 614630" d="M104.56,308.568l7.462-6.678,1.763,2.474-6.67,6.549Z" transform="translate(-20.024 -57.815)" fill="#4f6736"/>
      <path id="Trazado_614631" data-name="Trazado 614631" d="M104.56,308.568l7.462-6.678,1.763,2.474-6.67,6.549Z" transform="translate(-20.024 -57.815)" fill="#e9e9e9" opacity="0.4"/>
    </g>
  </g>
</svg>
