<svg xmlns="http://www.w3.org/2000/svg" width="505" height="347.749" viewBox="0 0 505 347.749">
  <g id="Grupo_1066790" data-name="Grupo 1066790" transform="translate(-180 -12933.7)">
    <g id="Group_62_2_" data-name="Group 62 (2)" transform="translate(180 12933.7)">
      <path id="Trazado_612666" data-name="Trazado 612666" d="M671.151,154.493c-1.024-4.469-4.365-6.065-6.978-5.85a8.49,8.49,0,0,0-4.914,2.494,8.443,8.443,0,0,0-2.888-4.692c-2.116-1.551-5.8-1.937-9,1.336-6.7,6.83,6.644,21.958,6.644,21.958S673.289,163.824,671.151,154.493Z" transform="translate(-166.317 -37.435)" fill="#ebebeb"/>
      <path id="Trazado_612667" data-name="Trazado 612667" d="M310.678,24.689c-3.274-5.991-8.708-6.919-12.36-5.553a12.581,12.581,0,0,0-6.028,5.553,12.623,12.623,0,0,0-6.028-5.553c-3.652-1.366-9.086-.431-12.36,5.553-6.837,12.494,18.388,28.766,18.388,28.766S317.514,37.19,310.678,24.689Z" transform="translate(-70.271 -4.789)" fill="#ebebeb"/>
      <path id="Trazado_612668" data-name="Trazado 612668" d="M363.247,3.859C361.176.073,357.739-.514,355.43.347a7.97,7.97,0,0,0-3.816,3.511A7.971,7.971,0,0,0,347.8.347c-2.309-.861-5.746-.275-7.817,3.511-4.32,7.9,11.625,18.187,11.625,18.187S367.56,11.757,363.232,3.859Z" transform="translate(-87.409 0)" fill="#ebebeb"/>
      <path id="Trazado_612669" data-name="Trazado 612669" d="M461.4,70.8A32.767,32.767,0,1,0,428.63,38.035,32.767,32.767,0,0,0,461.4,70.8Z" transform="translate(-110.442 -1.357)" fill="#d9d9d9"/>
      <path id="Trazado_612670" data-name="Trazado 612670" d="M488.643,47.593c-1,2.168-.482,4.536,1.158,5.3s3.786-.379,4.788-2.546.483-4.536-1.158-5.3S489.645,45.425,488.643,47.593Z" transform="translate(-125.773 -11.546)" fill="#d5d1d1"/>
      <path id="Trazado_612671" data-name="Trazado 612671" d="M455.343,32.193c-1,2.168-.482,4.536,1.158,5.3s3.786-.379,4.788-2.546.483-4.536-1.158-5.3S456.345,30.025,455.343,32.193Z" transform="translate(-117.193 -7.578)" fill="#d5d1d1"/>
      <path id="Trazado_612672" data-name="Trazado 612672" d="M458.082,44.018c-2.784,6.02-.453,13.028,5.219,15.656s12.516-.134,15.307-6.161L458.09,44.018Z" transform="translate(-117.728 -11.342)" fill="#d5d1d1"/>
      <path id="Trazado_612673" data-name="Trazado 612673" d="M459.32,59.352a8.057,8.057,0,0,1,6.533-.111A8.143,8.143,0,0,1,470.01,64.3a11.608,11.608,0,0,1-10.69-4.944Z" transform="translate(-118.349 -15.095)" fill="#ebebeb"/>
      <path id="Trazado_612674" data-name="Trazado 612674" d="M163.209,28.829l-11.4,3.532L161.3,63.008l11.4-3.532Z" transform="translate(-39.115 -7.428)" fill="#d5d1d1"/>
      <path id="Trazado_612675" data-name="Trazado 612675" d="M167.355,27.548l-11.4,3.532,9.493,30.647,11.4-3.532Z" transform="translate(-40.183 -7.098)" fill="#ebebeb"/>
      <path id="Trazado_612676" data-name="Trazado 612676" d="M163.617,39.645a2.693,2.693,0,1,0,1.774-3.37A2.692,2.692,0,0,0,163.617,39.645Z" transform="translate(-42.126 -9.315)" fill="#fff"/>
      <path id="Trazado_612677" data-name="Trazado 612677" d="M153.748,39.774a8.456,8.456,0,0,1,2.368,1.544,8.5,8.5,0,0,1,2.071,1.923,8.455,8.455,0,0,1-2.368-1.544A8.5,8.5,0,0,1,153.748,39.774Z" transform="translate(-39.614 -10.246)" fill="#ebebeb"/>
      <path id="Trazado_612678" data-name="Trazado 612678" d="M155.168,44.344a8.455,8.455,0,0,1,2.368,1.544,8.5,8.5,0,0,1,2.071,1.923,8.455,8.455,0,0,1-2.368-1.544A8.5,8.5,0,0,1,155.168,44.344Z" transform="translate(-39.98 -11.423)" fill="#ebebeb"/>
      <path id="Trazado_612679" data-name="Trazado 612679" d="M156.578,48.914a8.456,8.456,0,0,1,2.368,1.544,8.5,8.5,0,0,1,2.071,1.923,8.456,8.456,0,0,1-2.368-1.544A8.5,8.5,0,0,1,156.578,48.914Z" transform="translate(-40.343 -12.601)" fill="#ebebeb"/>
      <path id="Trazado_612680" data-name="Trazado 612680" d="M158,53.484a8.456,8.456,0,0,1,2.368,1.544,8.5,8.5,0,0,1,2.071,1.923,8.456,8.456,0,0,1-2.368-1.544A8.5,8.5,0,0,1,158,53.484Z" transform="translate(-40.709 -13.778)" fill="#ebebeb"/>
      <path id="Trazado_612681" data-name="Trazado 612681" d="M159.408,58.044a8.456,8.456,0,0,1,2.368,1.544,8.5,8.5,0,0,1,2.071,1.923,8.456,8.456,0,0,1-2.368-1.544A8.5,8.5,0,0,1,159.408,58.044Z" transform="translate(-41.072 -14.953)" fill="#ebebeb"/>
      <path id="Trazado_612682" data-name="Trazado 612682" d="M160.828,62.614a8.455,8.455,0,0,1,2.368,1.544,8.5,8.5,0,0,1,2.071,1.923,8.456,8.456,0,0,1-2.368-1.544A8.5,8.5,0,0,1,160.828,62.614Z" transform="translate(-41.438 -16.131)" fill="#ebebeb"/>
      <path id="Trazado_612683" data-name="Trazado 612683" d="M162.238,67.184a8.455,8.455,0,0,1,2.368,1.544,8.5,8.5,0,0,1,2.071,1.923,8.456,8.456,0,0,1-2.368-1.544A8.5,8.5,0,0,1,162.238,67.184Z" transform="translate(-41.801 -17.308)" fill="#ebebeb"/>
      <path id="Trazado_612684" data-name="Trazado 612684" d="M152.548,35.734a8.455,8.455,0,0,1,2.368,1.544,8.5,8.5,0,0,1,2.071,1.923,8.455,8.455,0,0,1-2.368-1.544A8.5,8.5,0,0,1,152.548,35.734Z" transform="translate(-39.305 -9.205)" fill="#ebebeb"/>
      <path id="Trazado_612685" data-name="Trazado 612685" d="M153.437,33.072c.082-.1.735.267,1.462.839s1.247,1.114,1.165,1.217-.735-.267-1.462-.839S153.355,33.176,153.437,33.072Z" transform="translate(-39.533 -8.517)" fill="#ebebeb"/>
      <path id="Trazado_612686" data-name="Trazado 612686" d="M138.494,58.087,129.482,31.2s-6.392.7-14.3-5.835c-5.233-4.32-5.709-10.474-7.126-12.642-.869-1.329-4.209.03-5.657.668a6.172,6.172,0,0,0-3.771,4.692c-.542,4.751,5.122,13.949,5.122,13.949s1.752,1.693-1.1,2.576l-10.17,3.148a5.8,5.8,0,0,0-3.214,2.413,4.29,4.29,0,0,0-.371,4.053c1.507,3.771,4.075,4.877,4.328,5.686s-.423,2.583,1.114,4.677,1.989,1.73,2.331,2.851a19.269,19.269,0,0,0,2.68,5.419,8.7,8.7,0,0,0,2.316,2.071s.728,3.86,2.509,5.582c2.338,2.257,9.613,1.982,11.989-.141,1.114-.995,6.718-4.313,9.346-5.909S135.331,57.612,138.494,58.087Z" transform="translate(-22.815 -3.133)" fill="#d5d1d1"/>
      <path id="Trazado_612687" data-name="Trazado 612687" d="M143.7,57.27l-8.485-27.392s-6.392.7-14.3-5.835a48.045,48.045,0,0,1-9.621-10.378,3.256,3.256,0,0,0-4.016-1.24,4.966,4.966,0,0,0-3.207,4.261c-.542,4.751,5.4,14.023,5.4,14.023s1.752,1.693-1.1,2.576l-10.17,3.148a5.8,5.8,0,0,0-3.214,2.413,4.29,4.29,0,0,0-.371,4.053c1.507,3.771,4.076,4.877,4.328,5.686s-.423,2.583,1.114,4.677,1.989,1.73,2.331,2.851a19.267,19.267,0,0,0,2.68,5.419,8.7,8.7,0,0,0,2.316,2.071s.831,3.764,2.509,5.582,6.3,1.618,7.728,1.173,10.979-5.634,13.607-7.23,9.309-6.34,12.464-5.872Z" transform="translate(-24.292 -3.133)" fill="#ebebeb"/>
      <path id="Trazado_612688" data-name="Trazado 612688" d="M105.457,31.954a18.1,18.1,0,0,1,3.341,1.611,17.83,17.83,0,0,1,3.214,1.848,11.973,11.973,0,0,1-3.444-1.425,12.023,12.023,0,0,1-3.118-2.034Z" transform="translate(-27.17 -8.23)" fill="#ebebeb"/>
      <path id="Trazado_612689" data-name="Trazado 612689" d="M103.189,27.254a21.77,21.77,0,0,1,3.1,1.314,11.342,11.342,0,0,1,3,1.559,13,13,0,0,1-3.192-1.121A8.284,8.284,0,0,1,103.189,27.254Z" transform="translate(-26.587 -7.019)" fill="#ebebeb"/>
      <path id="Trazado_612690" data-name="Trazado 612690" d="M102.186,22.682a19.412,19.412,0,0,1,2.554.95,6.235,6.235,0,0,1,2.479,1.217,11.43,11.43,0,0,1-2.643-.765,5.145,5.145,0,0,1-2.4-1.4Z" transform="translate(-26.327 -5.84)" fill="#ebebeb"/>
      <path id="Trazado_612691" data-name="Trazado 612691" d="M102.549,18.5a4.432,4.432,0,0,1,1.945.579c1.024.438,1.811.9,1.759,1.017a4.432,4.432,0,0,1-1.945-.579C103.284,19.077,102.5,18.617,102.549,18.5Z" transform="translate(-26.422 -4.759)" fill="#ebebeb"/>
      <path id="Trazado_612692" data-name="Trazado 612692" d="M104.65,15.433c.03-.126.572-.082,1.21.1s1.114.438,1.076.564-.586.082-1.21-.1S104.62,15.567,104.65,15.433Z" transform="translate(-26.964 -3.958)" fill="#ebebeb"/>
      <path id="Trazado_612693" data-name="Trazado 612693" d="M108.539,38.118a4.987,4.987,0,0,1,2.056.624c1.084.468,1.915.943,1.863,1.069a4.987,4.987,0,0,1-2.056-.624C109.319,38.72,108.487,38.245,108.539,38.118Z" transform="translate(-27.966 -9.815)" fill="#ebebeb"/>
      <path id="Trazado_612694" data-name="Trazado 612694" d="M90.229,57.89a16.83,16.83,0,0,1,3.845.935,16.624,16.624,0,0,1,3.7,1.4,16.634,16.634,0,0,1-3.846-.943,16.619,16.619,0,0,1-3.7-1.4Z" transform="translate(-23.249 -14.91)" fill="#ebebeb"/>
      <path id="Trazado_612695" data-name="Trazado 612695" d="M88.509,51.565a5.93,5.93,0,0,1,2.324.475,6.092,6.092,0,0,1,2.182.928,5.93,5.93,0,0,1-2.324-.475A6.092,6.092,0,0,1,88.509,51.565Z" transform="translate(-22.805 -13.277)" fill="#ebebeb"/>
      <path id="Trazado_612696" data-name="Trazado 612696" d="M95.1,66.193a7.187,7.187,0,0,1,2.9.5,7.241,7.241,0,0,1,2.68,1.21,12.247,12.247,0,0,1-2.821-.75A12.485,12.485,0,0,1,95.1,66.193Z" transform="translate(-24.503 -17.044)" fill="#ebebeb"/>
      <path id="Trazado_612697" data-name="Trazado 612697" d="M99.3,72.689a8.807,8.807,0,0,1,2.806.75,8.71,8.71,0,0,1,2.643,1.2,8.806,8.806,0,0,1-2.806-.75A8.713,8.713,0,0,1,99.3,72.689Z" transform="translate(-25.585 -18.722)" fill="#ebebeb"/>
      <path id="Trazado_612698" data-name="Trazado 612698" d="M103.51,80.6a16.514,16.514,0,0,1,3.222.972,16.874,16.874,0,0,1,3.162,1.158,9.4,9.4,0,0,1-3.311-.705A9.415,9.415,0,0,1,103.51,80.6Z" transform="translate(-26.67 -20.763)" fill="#ebebeb"/>
      <path id="Trazado_612699" data-name="Trazado 612699" d="M107.459,87.133a24.282,24.282,0,0,1,3.756,1.143,24.115,24.115,0,0,1,3.689,1.336,12.27,12.27,0,0,1-3.845-.883,12.08,12.08,0,0,1-3.6-1.6Z" transform="translate(-27.688 -22.447)" fill="#ebebeb"/>
      <path id="Trazado_612700" data-name="Trazado 612700" d="M121.24,171.478H14.566A5.427,5.427,0,0,0,9.14,176.9v31.49a5.427,5.427,0,0,0,5.426,5.426H121.24a5.427,5.427,0,0,0,5.427-5.426V176.9A5.427,5.427,0,0,0,121.24,171.478Z" transform="translate(-2.355 -44.183)" fill="#d9d9d9"/>
      <path id="Trazado_612701" data-name="Trazado 612701" d="M33.467,204.743a7.728,7.728,0,1,0-7.728-7.728A7.728,7.728,0,0,0,33.467,204.743Z" transform="translate(-6.632 -48.772)" fill="#d5d1d1"/>
      <path id="Trazado_612702" data-name="Trazado 612702" d="M114.914,194.858H53.79v3.593h61.124Z" transform="translate(-13.86 -50.208)" fill="#d5d1d1"/>
      <path id="Trazado_612703" data-name="Trazado 612703" d="M78.457,203.4H53.79v3.593H78.457Z" transform="translate(-13.86 -52.408)" fill="#d5d1d1"/>
      <path id="Trazado_612704" data-name="Trazado 612704" d="M626.81,242.758H520.136a5.426,5.426,0,0,0-5.426,5.426v31.49a5.426,5.426,0,0,0,5.426,5.426H626.81a5.427,5.427,0,0,0,5.427-5.426v-31.49A5.427,5.427,0,0,0,626.81,242.758Z" transform="translate(-132.621 -62.55)" fill="#d9d9d9"/>
      <path id="Trazado_612705" data-name="Trazado 612705" d="M545.391,272.692a7.728,7.728,0,1,0-10.751,1.967A7.728,7.728,0,0,0,545.391,272.692Z" transform="translate(-136.897 -67.139)" fill="#d5d1d1"/>
      <path id="Trazado_612706" data-name="Trazado 612706" d="M620.484,266.148H559.36v3.593h61.124Z" transform="translate(-144.126 -68.576)" fill="#d5d1d1"/>
      <path id="Trazado_612707" data-name="Trazado 612707" d="M584.028,274.688H559.36v3.593h24.668Z" transform="translate(-144.126 -70.777)" fill="#d5d1d1"/>
      <path id="Trazado_612708" data-name="Trazado 612708" d="M40.5,78.946,31.195,94.277l5.7,3.463,9.307-15.331Z" transform="translate(-8.038 -20.341)" fill="#d5d1d1"/>
      <path id="Trazado_612709" data-name="Trazado 612709" d="M38.425,77.69,29.118,93.021l5.7,3.463L44.13,81.153Z" transform="translate(-7.503 -20.018)" fill="#ebebeb"/>
      <path id="Trazado_612710" data-name="Trazado 612710" d="M36.559,95.823a1.507,1.507,0,1,0-2.071.5A1.507,1.507,0,0,0,36.559,95.823Z" transform="translate(-8.7 -24.1)" fill="#fff"/>
      <path id="Trazado_612711" data-name="Trazado 612711" d="M40.659,100.066a9.356,9.356,0,0,1-.193-3.148,9.355,9.355,0,0,1,.193,3.148Z" transform="translate(-10.409 -24.972)" fill="#ebebeb"/>
      <path id="Trazado_612712" data-name="Trazado 612712" d="M42.049,97.785a9.355,9.355,0,0,1-.193-3.148,9.355,9.355,0,0,1,.193,3.148Z" transform="translate(-10.767 -24.385)" fill="#ebebeb"/>
      <path id="Trazado_612713" data-name="Trazado 612713" d="M43.439,95.5a9.355,9.355,0,0,1-.193-3.148,9.355,9.355,0,0,1,.193,3.148Z" transform="translate(-11.125 -23.795)" fill="#ebebeb"/>
      <path id="Trazado_612714" data-name="Trazado 612714" d="M44.829,93.216a9.35,9.35,0,0,1-.193-3.148,9.36,9.36,0,0,1,.193,3.148Z" transform="translate(-11.484 -23.207)" fill="#ebebeb"/>
      <path id="Trazado_612715" data-name="Trazado 612715" d="M46.209,90.926a9.356,9.356,0,0,1-.193-3.148,9.355,9.355,0,0,1,.193,3.148Z" transform="translate(-11.839 -22.617)" fill="#ebebeb"/>
      <path id="Trazado_612716" data-name="Trazado 612716" d="M47.6,88.645a9.355,9.355,0,0,1-.193-3.148,9.355,9.355,0,0,1,.193,3.148Z" transform="translate(-12.197 -22.03)" fill="#ebebeb"/>
      <path id="Trazado_612717" data-name="Trazado 612717" d="M48.989,86.356a9.35,9.35,0,0,1-.193-3.148,9.36,9.36,0,0,1,.193,3.148Z" transform="translate(-12.555 -21.44)" fill="#ebebeb"/>
      <path id="Trazado_612718" data-name="Trazado 612718" d="M39.419,102.076a9.35,9.35,0,0,1-.193-3.148,9.36,9.36,0,0,1,.193,3.148Z" transform="translate(-10.09 -25.49)" fill="#ebebeb"/>
      <path id="Trazado_612719" data-name="Trazado 612719" d="M37.989,103.134c-.074,0-.163-.408-.193-.921s0-.935.074-.935.163.408.193.92S38.063,103.134,37.989,103.134Z" transform="translate(-9.736 -26.095)" fill="#ebebeb"/>
      <path id="Trazado_612720" data-name="Trazado 612720" d="M51.57,87.6,43.65,101.339s2.665,2.42,2.858,8.151c.134,3.793-2.272,6.273-2.65,7.668-.23.854,1.574,1.752,2.375,2.123a3.463,3.463,0,0,0,3.363-.156c2.19-1.537,3.942-7.319,3.942-7.319s.059-1.358,1.485-.49l5.085,3.088a3.244,3.244,0,0,0,2.2.453,2.408,2.408,0,0,0,1.834-1.344c1.024-2.027.527-3.511.78-3.92s1.24-.779,1.544-2.2-.015-1.47.327-2.034a10.658,10.658,0,0,0,1.277-3.133,4.776,4.776,0,0,0,.007-1.737,7.113,7.113,0,0,0,1.4-3.118c.082-1.819-2.732-4.758-4.506-4.966-.831-.1-4.3-1.21-5.939-1.722s-6.51-1.581-7.483-3.073Z" transform="translate(-11.247 -22.571)" fill="#d5d1d1"/>
      <path id="Trazado_612721" data-name="Trazado 612721" d="M49.1,85.9,40.78,99.6s2.665,2.42,2.858,8.151a26.719,26.719,0,0,1-.779,7.869,1.816,1.816,0,0,0,.973,2.138,2.765,2.765,0,0,0,2.969-.238c2.19-1.537,3.868-7.461,3.868-7.461s.059-1.358,1.485-.49l5.085,3.088a3.244,3.244,0,0,0,2.2.453,2.408,2.408,0,0,0,1.833-1.344c1.024-2.027.527-3.511.779-3.92s1.24-.779,1.544-2.2-.015-1.47.327-2.034a10.744,10.744,0,0,0,1.277-3.133,4.776,4.776,0,0,0,.007-1.737,8.193,8.193,0,0,0,1.4-3.118c.141-1.381-1.663-3.237-2.375-3.675s-6.429-2.509-8.069-3.014-6.1-1.544-7.074-3.044Z" transform="translate(-10.507 -22.133)" fill="#ebebeb"/>
      <path id="Trazado_612722" data-name="Trazado 612722" d="M55.034,122.879a10.074,10.074,0,0,1-.564-2,10.216,10.216,0,0,1-.416-2.034,6.758,6.758,0,0,1,.683,1.967,6.59,6.59,0,0,1,.3,2.056Z" transform="translate(-13.924 -30.622)" fill="#ebebeb"/>
      <path id="Trazado_612723" data-name="Trazado 612723" d="M53.876,125.713a12.463,12.463,0,0,1-.6-1.782,6.482,6.482,0,0,1-.46-1.834,7.138,7.138,0,0,1,.713,1.752,4.493,4.493,0,0,1,.341,1.863Z" transform="translate(-13.604 -31.46)" fill="#ebebeb"/>
      <path id="Trazado_612724" data-name="Trazado 612724" d="M52.371,128.065a10.645,10.645,0,0,1-.549-1.425,3.484,3.484,0,0,1-.408-1.492,6.2,6.2,0,0,1,.661,1.388,2.814,2.814,0,0,1,.3,1.522Z" transform="translate(-13.242 -32.246)" fill="#ebebeb"/>
      <path id="Trazado_612725" data-name="Trazado 612725" d="M50.577,129.733c-.074.022-.282-.438-.483-1.032s-.3-1.091-.223-1.114a2.62,2.62,0,0,1,.483,1.032C50.547,129.213,50.651,129.711,50.577,129.733Z" transform="translate(-12.844 -32.874)" fill="#ebebeb"/>
      <path id="Trazado_612726" data-name="Trazado 612726" d="M48.563,130.31c-.067.037-.245-.208-.408-.542s-.23-.631-.163-.661.252.215.408.542S48.629,130.273,48.563,130.31Z" transform="translate(-12.359 -33.265)" fill="#ebebeb"/>
      <path id="Trazado_612727" data-name="Trazado 612727" d="M56.555,119.912a5.417,5.417,0,0,1-.742-2.264,5.417,5.417,0,0,1,.742,2.264Z" transform="translate(-14.376 -30.313)" fill="#ebebeb"/>
      <path id="Trazado_612728" data-name="Trazado 612728" d="M71.246,119.639a9.4,9.4,0,0,1-1.032-1.96,9.136,9.136,0,0,1-.787-2.071,9.4,9.4,0,0,1,1.032,1.96A9.138,9.138,0,0,1,71.246,119.639Z" transform="translate(-17.887 -29.788)" fill="#ebebeb"/>
      <path id="Trazado_612729" data-name="Trazado 612729" d="M69.491,123.263a6.591,6.591,0,0,1-1.076-2.405,6.591,6.591,0,0,1,1.076,2.405Z" transform="translate(-17.624 -31.14)" fill="#ebebeb"/>
      <path id="Trazado_612730" data-name="Trazado 612730" d="M73.076,114.89a4.171,4.171,0,0,1-.861-1.4,4.068,4.068,0,0,1-.49-1.566,6.784,6.784,0,0,1,.735,1.455A6.694,6.694,0,0,1,73.076,114.89Z" transform="translate(-18.477 -28.839)" fill="#ebebeb"/>
      <path id="Trazado_612731" data-name="Trazado 612731" d="M74.287,110.717a5.081,5.081,0,0,1-.727-1.448,4.733,4.733,0,0,1-.475-1.551,5.08,5.08,0,0,1,.727,1.448A4.733,4.733,0,0,1,74.287,110.717Z" transform="translate(-18.827 -27.754)" fill="#ebebeb"/>
      <path id="Trazado_612732" data-name="Trazado 612732" d="M75.957,105.857a8.934,8.934,0,0,1-.787-1.707,9.473,9.473,0,0,1-.683-1.752,5.242,5.242,0,0,1,.935,1.648,5.4,5.4,0,0,1,.542,1.811Z" transform="translate(-19.19 -26.384)" fill="#ebebeb"/>
      <path id="Trazado_612733" data-name="Trazado 612733" d="M77.14,101.586a14.183,14.183,0,0,1-.913-2,14.374,14.374,0,0,1-.809-2.041,6.824,6.824,0,0,1,1.054,1.938,6.7,6.7,0,0,1,.661,2.1Z" transform="translate(-19.431 -25.134)" fill="#ebebeb"/>
      <path id="Trazado_612734" data-name="Trazado 612734" d="M649.751,43.142c-1.373-2.5-3.645-2.9-5.167-2.323a5.278,5.278,0,0,0-2.524,2.323,5.279,5.279,0,0,0-2.524-2.323c-1.529-.572-3.8-.178-5.167,2.323-2.858,5.226,7.691,12.033,7.691,12.033S652.616,48.368,649.751,43.142Z" transform="translate(-163.326 -10.458)" fill="#d5d1d1"/>
      <path id="Trazado_612735" data-name="Trazado 612735" d="M39.914,359.662l4.951,5.2a2.517,2.517,0,0,0,2.212.735l7.357-1.084a2.4,2.4,0,0,1,2.517,3.578l-3.719,6.258a2.377,2.377,0,0,0-.1,2.272l3.177,6.369a2.524,2.524,0,0,1-2.821,3.5l-7.253-1.329a2.634,2.634,0,0,0-2.271.668l-5.389,5.026a2.521,2.521,0,0,1-4.261-1.425l-.757-7.074a2.358,2.358,0,0,0-1.307-1.856l-6.51-3.266a2.4,2.4,0,0,1,.193-4.372l6.778-3.051a2.521,2.521,0,0,0,1.462-1.811l1.373-7.045a2.6,2.6,0,0,1,4.38-1.277Z" transform="translate(-6.293 -92.474)" fill="#d5d1d1"/>
      <path id="Trazado_612736" data-name="Trazado 612736" d="M632.19,355.854l9.027,12.9a2.438,2.438,0,0,0,4.038-.067l8.737-13.421-21.8.586Z" transform="translate(-162.891 -91.539)" fill="#d5d1d1"/>
      <path id="Trazado_612737" data-name="Trazado 612737" d="M627.922,326.958h22.359a8.586,8.586,0,0,1,8.581,8.581v11.58a8.586,8.586,0,0,1-8.581,8.581H627.922a8.586,8.586,0,0,1-8.581-8.581v-11.58A8.586,8.586,0,0,1,627.922,326.958Z" transform="translate(-159.581 -84.245)" fill="#d5d1d1"/>
      <path id="Trazado_612738" data-name="Trazado 612738" d="M651.3,341.939a3.892,3.892,0,0,0-4.781-2.145,4.848,4.848,0,0,0-2.331,2.145,4.848,4.848,0,0,0-2.331-2.145,3.892,3.892,0,0,0-4.781,2.145c-2.643,4.833,7.112,11.128,7.112,11.128S653.938,346.772,651.3,341.939Z" transform="translate(-164.032 -87.497)" fill="#fff"/>
      <path id="Trazado_612739" data-name="Trazado 612739" d="M486.827,445.271c0,.1-106.392.193-237.608.193s-237.63-.089-237.63-.193,106.37-.193,237.63-.193S486.827,445.167,486.827,445.271Z" transform="translate(-2.986 -114.68)" fill="#263238"/>
      <path id="Trazado_612740" data-name="Trazado 612740" d="M409.65,362.07H123.7c-9.45,0-17.111-7.973-17.111-17.809V140.029a12.743,12.743,0,0,1,12.486-12.991h295.9a12.04,12.04,0,0,1,11.8,12.278V344.261c0,9.836-7.661,17.809-17.111,17.809Z" transform="translate(-27.464 -32.733)" fill="#354d1d"/>
      <path id="Trazado_612741" data-name="Trazado 612741" d="M421.778,441.333H105.1c-9.138,0-16.547-7.705-16.547-17.215v-2.68a.648.648,0,0,1,.638-.661H434.8a.653.653,0,0,1,.638.661v5.694a13.943,13.943,0,0,1-13.659,14.208Z" transform="translate(-22.816 -108.418)" fill="#354d1d"/>
      <path id="Trazado_612742" data-name="Trazado 612742" d="M421.718,441.271s.156-.015.468-.037a9.179,9.179,0,0,0,1.381-.134,12.594,12.594,0,0,0,5.092-1.871,13.119,13.119,0,0,0,3.088-2.628,14.1,14.1,0,0,0,2.569-4.224,15.156,15.156,0,0,0,.995-5.731V421.7c0-.289.022-.579-.186-.757-.186-.2-.468-.156-.757-.156-18.217.015-44.563.037-77.129.059-65.125.015-155.1.03-254.459.052H89.15a.506.506,0,0,0-.215.037.47.47,0,0,0-.26.319,4.149,4.149,0,0,0-.015.549V423c-.015.8.022,1.6.067,2.383a17.079,17.079,0,0,0,.972,4.6,18.948,18.948,0,0,0,.921,2.153,17.986,17.986,0,0,0,1.225,1.982,16.086,16.086,0,0,0,11.328,6.859c1.477.148,2.984.119,4.491.119h26.7c23.428,0,46.032,0,67.56.007,43.056.015,81.835.03,114.394.037s58.912.045,77.121.059c9.1.015,16.168.03,20.971.037,2.4.007,4.224.015,5.456.015s1.856.022,1.856.022-.631.015-1.856.022-3.058.007-5.456.015c-4.8.007-11.863.022-20.971.037-18.21.015-44.563.037-77.121.059s-71.339.022-114.394.037c-21.528,0-44.132,0-67.56.007h-26.7c-1.5,0-3.006.03-4.528-.119a17.1,17.1,0,0,1-4.424-1.173,16.83,16.83,0,0,1-7.149-5.827,19.413,19.413,0,0,1-1.247-2.019,18.415,18.415,0,0,1-.935-2.2,17.452,17.452,0,0,1-.995-4.7c-.045-.809-.082-1.611-.067-2.405v-1.2a3.328,3.328,0,0,1,.03-.646.834.834,0,0,1,.468-.564.749.749,0,0,1,.349-.067h13.629c99.362.022,189.326.037,254.459.052,32.559.022,58.912.045,77.129.059h.431a.732.732,0,0,1,.416.2.752.752,0,0,1,.215.416c.022.163,0,.3.007.445v4.951a15.221,15.221,0,0,1-1.017,5.775,14.336,14.336,0,0,1-2.6,4.246,13.02,13.02,0,0,1-3.118,2.628,12.5,12.5,0,0,1-5.13,1.841,9.689,9.689,0,0,1-1.388.111c-.312.015-.468.015-.468.015Z" transform="translate(-22.756 -108.356)" fill="#263238"/>
      <path id="Trazado_612743" data-name="Trazado 612743" d="M279.72,420.238l4.306,7.6h60.567l4-7.6Z" transform="translate(-72.073 -108.279)" fill="#263238"/>
      <path id="Trazado_612744" data-name="Trazado 612744" d="M421.243,151.118H127.73V343.643H421.243Z" transform="translate(-32.911 -38.937)" fill="#fff"/>
      <path id="Trazado_612745" data-name="Trazado 612745" d="M421.243,151.118H127.73v19.3H421.243Z" transform="translate(-32.911 -38.937)" fill="#d5d1d1"/>
      <path id="Trazado_612746" data-name="Trazado 612746" d="M141.967,162.018a2.83,2.83,0,1,1-2.828-2.94A2.891,2.891,0,0,1,141.967,162.018Z" transform="translate(-35.122 -40.988)" fill="#fff"/>
      <path id="Trazado_612747" data-name="Trazado 612747" d="M153.1,162.018a2.83,2.83,0,1,1-2.828-2.94A2.891,2.891,0,0,1,153.1,162.018Z" transform="translate(-37.99 -40.988)" fill="#fff"/>
      <path id="Trazado_612748" data-name="Trazado 612748" d="M164.217,162.018a2.83,2.83,0,1,1-2.828-2.94A2.891,2.891,0,0,1,164.217,162.018Z" transform="translate(-40.855 -40.988)" fill="#fff"/>
      <path id="Trazado_612749" data-name="Trazado 612749" d="M191.441,249.867a19.264,19.264,0,1,0-27.243,0A19.264,19.264,0,0,0,191.441,249.867Z" transform="translate(-40.854 -55.908)" fill="#3b5620"/>
      <path id="Trazado_612750" data-name="Trazado 612750" d="M218.623,282.628H155.057a3.467,3.467,0,0,0-3.467,3.467v15.047a3.467,3.467,0,0,0,3.467,3.467h63.566a3.467,3.467,0,0,0,3.467-3.467V286.095A3.467,3.467,0,0,0,218.623,282.628Z" transform="translate(-39.059 -72.822)" fill="#d5d1d1"/>
      <path id="Trazado_612751" data-name="Trazado 612751" d="M218.623,321.828H155.057a3.467,3.467,0,0,0-3.467,3.467v15.047a3.467,3.467,0,0,0,3.467,3.467h63.566a3.467,3.467,0,0,0,3.467-3.467V325.295A3.467,3.467,0,0,0,218.623,321.828Z" transform="translate(-39.059 -82.923)" fill="#d5d1d1"/>
      <path id="Trazado_612752" data-name="Trazado 612752" d="M218.623,360.138H155.057a3.467,3.467,0,0,0-3.467,3.467v15.047a3.467,3.467,0,0,0,3.467,3.467h63.566a3.467,3.467,0,0,0,3.467-3.467V363.6A3.467,3.467,0,0,0,218.623,360.138Z" transform="translate(-39.059 -92.794)" fill="#d5d1d1"/>
      <path id="Trazado_612753" data-name="Trazado 612753" d="M432,215.518H257.3V360.237H432Z" transform="translate(-66.296 -55.531)" fill="#d5d1d1"/>
      <g id="Grupo_1015811" data-name="Grupo 1015811" transform="translate(135.328 94.313)" opacity="0.3">
        <path id="Trazado_612754" data-name="Trazado 612754" d="M188.254,127.048h203.72A5.953,5.953,0,0,1,397.927,133V328.474a5.953,5.953,0,0,1-5.954,5.954H188.254a5.953,5.953,0,0,1-5.954-5.954V133A5.953,5.953,0,0,1,188.254,127.048Z" transform="translate(-182.3 -127.048)"/>
      </g>
      <path id="Trazado_612755" data-name="Trazado 612755" d="M195.57,64.074V304.221a5.657,5.657,0,0,0,5.657,5.657H386.366a5.657,5.657,0,0,0,5.657-5.657V64.074a5.657,5.657,0,0,0-5.657-5.657H201.227A5.656,5.656,0,0,0,195.57,64.074Z" transform="translate(-50.391 -15.052)" fill="#fff"/>
      <path id="Trazado_612756" data-name="Trazado 612756" d="M201.115,58.418h185.74a5.17,5.17,0,0,1,5.167,5.167V80.7H195.57V63.963A5.551,5.551,0,0,1,201.115,58.418Z" transform="translate(-50.391 -15.052)" fill="#3b5620"/>
      <path id="Trazado_612757" data-name="Trazado 612757" d="M391.953,64.015s-.015-.193-.037-.572a6.023,6.023,0,0,0-.438-1.64,5.837,5.837,0,0,0-1.7-2.2,5.725,5.725,0,0,0-3.6-1.2c-5.9.007-14.609.022-25.819.037-22.426.015-54.866.037-94.952.059q-15.032,0-31.46.015H202.04a8.591,8.591,0,0,0-2.153.156,5.507,5.507,0,0,0-4.15,4.484,16.69,16.69,0,0,0-.074,2.212V92.981q0,18.829.007,38.728c0,53,.007,111.276.015,172.438a5.631,5.631,0,0,0,.676,2.658,5.528,5.528,0,0,0,1.878,1.982,5.31,5.31,0,0,0,2.6.824c.928.03,1.893.007,2.843.015h77.871c28.847,0,56.67.007,83.172.015h19.627c.8-.007,1.626.022,2.405-.022a5.267,5.267,0,0,0,2.212-.676,5.536,5.536,0,0,0,2.68-3.63,11.074,11.074,0,0,0,.126-2.338v-7.1q0-18.829.007-36.53c.007-23.569.015-45.528.022-65.571.022-40.086.045-72.526.059-94.945.015-11.21.03-19.91.037-25.811.007-2.947.015-5.2.022-6.711s.022-2.286.022-2.286.015.772.022,2.286.007,3.764.022,6.711c.007,5.9.022,14.609.037,25.811.015,22.419.037,54.859.059,94.945,0,20.043.015,42,.022,65.571q0,17.682.007,36.53v7.1a11.1,11.1,0,0,1-.134,2.413,5.906,5.906,0,0,1-2.843,3.86,5.722,5.722,0,0,1-2.353.72c-.831.052-1.618.015-2.427.022H364.731c-26.509,0-54.332,0-83.172.015H203.688c-.958,0-1.893.015-2.865-.015a5.7,5.7,0,0,1-2.784-.883,5.871,5.871,0,0,1-2.012-2.123,6.04,6.04,0,0,1-.727-2.843c0-61.161.007-119.435.015-172.438q0-19.876.007-38.728V65.358a16.619,16.619,0,0,1,.082-2.264,5.823,5.823,0,0,1,4.395-4.744,9.093,9.093,0,0,1,2.227-.163h31.906q16.413,0,31.46.015c40.086.03,72.526.045,94.952.059,11.209.015,19.91.03,25.819.037a5.7,5.7,0,0,1,5.337,3.459,6.01,6.01,0,0,1,.416,1.655l.022.579Z" transform="translate(-50.321 -14.992)" fill="#263238"/>
      <path id="Trazado_612758" data-name="Trazado 612758" d="M289.8,110.429l.987-2.242a6.292,6.292,0,0,0,3.014.831c.876,0,1.188-.186,1.188-.5,0-1.151-5.048-.223-5.048-3.623,0-1.693,1.418-3.081,4.254-3.081a7.273,7.273,0,0,1,3.444.794l-.928,2.227a5.655,5.655,0,0,0-2.539-.676c-.9,0-1.188.26-1.188.572,0,1.1,5.048.186,5.048,3.548,0,1.67-1.418,3.073-4.254,3.073a8.244,8.244,0,0,1-3.979-.935Z" transform="translate(-74.67 -26.235)" fill="#263238"/>
      <path id="Trazado_612759" data-name="Trazado 612759" d="M302.01,107.126v-5.018h3.081v4.929c0,1.4.534,1.915,1.4,1.915s1.4-.52,1.4-1.915v-4.929H310.9v5.018c0,2.739-1.641,4.313-4.447,4.313S302.01,109.865,302.01,107.126Z" transform="translate(-77.816 -26.309)" fill="#263238"/>
      <path id="Trazado_612760" data-name="Trazado 612760" d="M319.8,108.938h-.831v2.294H315.9v-9.123h4.395c2.539,0,4.157,1.329,4.157,3.444a3.046,3.046,0,0,1-1.722,2.865l1.915,2.813h-3.289Zm.289-4.461h-1.121v2.138h1.121c.846,0,1.255-.4,1.255-1.069S320.948,104.476,320.094,104.476Z" transform="translate(-81.395 -26.309)" fill="#263238"/>
      <path id="Trazado_612761" data-name="Trazado 612761" d="M338.392,102.108l-3.86,9.123H331.51l-3.86-9.123h3.311l2.175,5.33,2.227-5.33h3.029Z" transform="translate(-84.423 -26.309)" fill="#263238"/>
      <path id="Trazado_612762" data-name="Trazado 612762" d="M350.117,108.918v2.324H342.53v-9.123h7.416v2.324h-4.395v1.069h3.86v2.22h-3.86v1.2h4.565Z" transform="translate(-88.257 -26.312)" fill="#263238"/>
      <path id="Trazado_612763" data-name="Trazado 612763" d="M359.305,107.921v3.311h-3.081v-3.348l-3.444-5.775h3.244l1.863,3.155,1.878-3.155h2.969l-3.444,5.813Z" transform="translate(-90.898 -26.309)" fill="#263238"/>
      <path id="Trazado_612764" data-name="Trazado 612764" d="M261.486,184.208h-18.38a2.865,2.865,0,0,0-2.865,2.865v18.38a2.866,2.866,0,0,0,2.865,2.865h18.38a2.866,2.866,0,0,0,2.865-2.865v-18.38A2.865,2.865,0,0,0,261.486,184.208Z" transform="translate(-61.901 -47.463)" fill="#3b5620"/>
      <path id="Trazado_612765" data-name="Trazado 612765" d="M253.665,204.2l-6.755-5.219,1.826-2.361,4.528,3.5,6.443-7.416,2.242,1.96Z" transform="translate(-63.619 -49.654)" fill="#fff"/>
      <path id="Trazado_612766" data-name="Trazado 612766" d="M375.961,145.938H290.05v5.746h85.911Z" transform="translate(-74.735 -37.603)" fill="#d5d1d1"/>
      <path id="Trazado_612767" data-name="Trazado 612767" d="M261.486,133.568h-18.38a2.865,2.865,0,0,0-2.865,2.865v18.38a2.866,2.866,0,0,0,2.865,2.865h18.38a2.866,2.866,0,0,0,2.865-2.865v-18.38A2.865,2.865,0,0,0,261.486,133.568Z" transform="translate(-61.901 -34.415)" fill="#d5d1d1"/>
      <path id="Trazado_612768" data-name="Trazado 612768" d="M358.828,198.308H290.05v5.746h68.778Z" transform="translate(-74.735 -51.096)" fill="#3b5620"/>
      <path id="Trazado_612769" data-name="Trazado 612769" d="M261.486,237.088h-18.38a2.865,2.865,0,0,0-2.865,2.865v18.38a2.866,2.866,0,0,0,2.865,2.865h18.38a2.866,2.866,0,0,0,2.865-2.865v-18.38A2.865,2.865,0,0,0,261.486,237.088Z" transform="translate(-61.901 -61.089)" fill="#d5d1d1"/>
      <path id="Trazado_612770" data-name="Trazado 612770" d="M366.117,250.678H290.05v5.746h76.067Z" transform="translate(-74.735 -64.59)" fill="#d5d1d1"/>
      <path id="Trazado_612771" data-name="Trazado 612771" d="M261.486,289.448h-18.38a2.865,2.865,0,0,0-2.865,2.865v18.38a2.866,2.866,0,0,0,2.865,2.865h18.38a2.866,2.866,0,0,0,2.865-2.865v-18.38A2.865,2.865,0,0,0,261.486,289.448Z" transform="translate(-61.901 -74.58)" fill="#d5d1d1"/>
      <path id="Trazado_612772" data-name="Trazado 612772" d="M261.486,338.938h-18.38a2.865,2.865,0,0,0-2.865,2.865v18.38a2.866,2.866,0,0,0,2.865,2.865h18.38a2.866,2.866,0,0,0,2.865-2.865V341.8A2.865,2.865,0,0,0,261.486,338.938Z" transform="translate(-61.901 -87.331)" fill="#d5d1d1"/>
      <path id="Trazado_612773" data-name="Trazado 612773" d="M336.394,303.048H290.05v5.746h46.344Z" transform="translate(-74.735 -78.084)" fill="#d5d1d1"/>
      <path id="Trazado_612774" data-name="Trazado 612774" d="M375.961,351.968H290.05v5.746h85.911Z" transform="translate(-74.735 -90.689)" fill="#d5d1d1"/>
      <path id="Trazado_612775" data-name="Trazado 612775" d="M213.157,71.391a3.534,3.534,0,1,1-3.534-3.534A3.532,3.532,0,0,1,213.157,71.391Z" transform="translate(-53.102 -17.484)" fill="#fff"/>
      <path id="Trazado_612776" data-name="Trazado 612776" d="M226.017,71.391a3.534,3.534,0,1,1-3.534-3.534A3.532,3.532,0,0,1,226.017,71.391Z" transform="translate(-56.415 -17.484)" fill="#fff"/>
      <path id="Trazado_612777" data-name="Trazado 612777" d="M238.867,71.391a3.534,3.534,0,1,1-3.534-3.534A3.532,3.532,0,0,1,238.867,71.391Z" transform="translate(-59.726 -17.484)" fill="#fff"/>
      <g id="Grupo_1015812" data-name="Grupo 1015812" transform="translate(251.831 197.334)" opacity="0.3">
        <path id="Trazado_612778" data-name="Trazado 612778" d="M468.407,265.828h-126.3a2.865,2.865,0,0,0-2.865,2.865v34.9a2.865,2.865,0,0,0,2.865,2.865h126.3a2.865,2.865,0,0,0,2.865-2.865v-34.9A2.865,2.865,0,0,0,468.407,265.828Z" transform="translate(-339.24 -265.828)"/>
      </g>
      <path id="Trazado_612779" data-name="Trazado 612779" d="M461.707,256.348h-126.3a2.865,2.865,0,0,0-2.865,2.865v34.9a2.865,2.865,0,0,0,2.865,2.865h126.3a2.866,2.866,0,0,0,2.865-2.865v-34.9A2.866,2.866,0,0,0,461.707,256.348Z" transform="translate(-85.683 -66.051)" fill="#fff"/>
      <path id="Trazado_612780" data-name="Trazado 612780" d="M461.66,296.917a2.82,2.82,0,0,0,.861-.156,2.868,2.868,0,0,0,1.782-1.707,5.074,5.074,0,0,0,.178-1.863c0-.7,0-1.462-.007-2.294,0-1.655-.015-3.571-.015-5.723-.007-4.306-.022-9.576-.03-15.693,0-3.058-.007-6.332-.015-9.8a4.5,4.5,0,0,0-.1-1.269,2.633,2.633,0,0,0-.609-1.1,2.812,2.812,0,0,0-2.346-.9h-5.634l-120.348.059a2.677,2.677,0,0,0-2.672,2.568v34.044a4.977,4.977,0,0,0,.193,1.96,2.726,2.726,0,0,0,1.255,1.388,2.576,2.576,0,0,0,.906.282c.3.03.653.015.995.022h21.684c20.362.015,38.706.03,54.109.045s27.86.045,36.478.059c4.3.015,7.639.03,9.918.037,1.128.007,1.989.015,2.576.022s.876.022.876.022-.3.015-.876.022-1.448.007-2.576.022c-2.272.007-5.619.022-9.918.037-8.619.015-21.082.037-36.478.059s-33.739.022-54.109.045H336.049a9.871,9.871,0,0,1-1.039-.022,2.831,2.831,0,0,1-1.032-.319,3.048,3.048,0,0,1-1.648-2.65v-35.09a3.023,3.023,0,0,1,.935-2.086,3.069,3.069,0,0,1,2.123-.854l120.348.059h5.634a3.086,3.086,0,0,1,2.531.995,2.9,2.9,0,0,1,.661,1.2,4.833,4.833,0,0,1,.111,1.336c0,3.467-.007,6.74-.015,9.8-.015,6.117-.022,11.387-.03,15.693,0,2.153-.015,4.068-.015,5.723,0,.831,0,1.6-.007,2.294a4.976,4.976,0,0,1-.2,1.893,2.883,2.883,0,0,1-1.841,1.722,2.5,2.5,0,0,1-.869.119Z" transform="translate(-85.629 -65.984)" fill="#263238"/>
      <path id="Trazado_612781" data-name="Trazado 612781" d="M416.844,272.08l-1.863,3.778a1.439,1.439,0,0,1-1.084.787l-4.164.609a1.44,1.44,0,0,0-.794,2.457l3.014,2.94a1.438,1.438,0,0,1,.416,1.277l-.713,4.15a1.437,1.437,0,0,0,2.086,1.514l3.727-1.96a1.42,1.42,0,0,1,1.336,0l3.727,1.96a1.437,1.437,0,0,0,2.086-1.514l-.713-4.15a1.438,1.438,0,0,1,.416-1.277l3.014-2.94a1.441,1.441,0,0,0-.794-2.457l-4.164-.609a1.439,1.439,0,0,1-1.084-.787l-1.863-3.778A1.441,1.441,0,0,0,416.844,272.08Z" transform="translate(-105.255 -69.898)" fill="#3b5620"/>
      <path id="Trazado_612782" data-name="Trazado 612782" d="M449.164,272.08l-1.863,3.778a1.439,1.439,0,0,1-1.084.787l-4.164.609a1.44,1.44,0,0,0-.794,2.457l3.014,2.94a1.438,1.438,0,0,1,.416,1.277l-.713,4.15a1.437,1.437,0,0,0,2.086,1.514l3.727-1.96a1.42,1.42,0,0,1,1.336,0l3.727,1.96a1.437,1.437,0,0,0,2.086-1.514l-.713-4.15a1.438,1.438,0,0,1,.416-1.277l3.014-2.94a1.441,1.441,0,0,0-.794-2.457l-4.164-.609a1.439,1.439,0,0,1-1.084-.787l-1.863-3.778A1.441,1.441,0,0,0,449.164,272.08Z" transform="translate(-113.583 -69.898)" fill="#3b5620"/>
      <path id="Trazado_612783" data-name="Trazado 612783" d="M481.494,272.08l-1.863,3.778a1.439,1.439,0,0,1-1.084.787l-4.165.609a1.44,1.44,0,0,0-.794,2.457l3.014,2.94a1.438,1.438,0,0,1,.416,1.277l-.713,4.15a1.437,1.437,0,0,0,2.086,1.514l3.727-1.96a1.42,1.42,0,0,1,1.336,0l3.727,1.96a1.437,1.437,0,0,0,2.086-1.514l-.713-4.15a1.438,1.438,0,0,1,.416-1.277l3.014-2.94a1.441,1.441,0,0,0-.794-2.457l-4.165-.609a1.439,1.439,0,0,1-1.084-.787l-1.863-3.778A1.441,1.441,0,0,0,481.494,272.08Z" transform="translate(-121.913 -69.898)" fill="#d5d1d1"/>
      <path id="Trazado_612784" data-name="Trazado 612784" d="M384.514,272.08l-1.863,3.778a1.439,1.439,0,0,1-1.084.787l-4.164.609a1.44,1.44,0,0,0-.794,2.457l3.014,2.94a1.438,1.438,0,0,1,.416,1.277l-.713,4.15a1.437,1.437,0,0,0,2.086,1.514l3.727-1.96a1.42,1.42,0,0,1,1.336,0l3.727,1.96a1.437,1.437,0,0,0,2.086-1.514l-.713-4.15a1.438,1.438,0,0,1,.416-1.277l3.014-2.94a1.441,1.441,0,0,0-.794-2.457l-4.164-.609a1.439,1.439,0,0,1-1.084-.787L387.1,272.08A1.441,1.441,0,0,0,384.514,272.08Z" transform="translate(-96.925 -69.898)" fill="#3b5620"/>
      <path id="Trazado_612785" data-name="Trazado 612785" d="M352.184,272.08l-1.863,3.778a1.439,1.439,0,0,1-1.084.787l-4.164.609a1.44,1.44,0,0,0-.794,2.457l3.014,2.94a1.437,1.437,0,0,1,.416,1.277l-.713,4.15a1.437,1.437,0,0,0,2.086,1.514l3.727-1.96a1.42,1.42,0,0,1,1.336,0l3.727,1.96a1.437,1.437,0,0,0,2.086-1.514l-.713-4.15a1.438,1.438,0,0,1,.416-1.277l3.014-2.94a1.441,1.441,0,0,0-.794-2.457l-4.165-.609a1.438,1.438,0,0,1-1.084-.787l-1.863-3.778A1.441,1.441,0,0,0,352.184,272.08Z" transform="translate(-88.595 -69.898)" fill="#3b5620"/>
      <path id="Trazado_612786" data-name="Trazado 612786" d="M100.087,251.048H13.864A13.613,13.613,0,0,0,.25,264.662V297a13.613,13.613,0,0,0,13.614,13.614H63.646A25.734,25.734,0,0,0,74.9,321.993a49.941,49.941,0,0,0,12.494,4.454,1.852,1.852,0,0,0,1.908-2.925,30.935,30.935,0,0,1-5.79-12.909H100.08A13.613,13.613,0,0,0,113.694,297V264.662a13.613,13.613,0,0,0-13.614-13.614Z" transform="translate(-0.064 -64.686)" fill="#fff"/>
      <path id="Trazado_612787" data-name="Trazado 612787" d="M100.023,250.993s.141,0,.431.007a12.369,12.369,0,0,1,1.262.082,13.486,13.486,0,0,1,4.7,1.448,13.9,13.9,0,0,1,5.619,5.516,13.722,13.722,0,0,1,1.559,4.788,21.217,21.217,0,0,1,.134,2.776v2.932c0,8.04.052,17.779.015,28.951a12.878,12.878,0,0,1-.824,4.194,13.4,13.4,0,0,1-2.153,3.845,13.794,13.794,0,0,1-7.661,4.833,19.942,19.942,0,0,1-4.751.364H83.439l.163-.2a31.141,31.141,0,0,0,4.113,10.46c.512.817,1.069,1.611,1.655,2.39a2,2,0,0,1,.386,1.529,2.1,2.1,0,0,1-.839,1.344,2.027,2.027,0,0,1-1.551.341c-.5-.1-.98-.23-1.47-.349-.972-.245-1.952-.512-2.925-.8a38.921,38.921,0,0,1-11.239-5.182,24.608,24.608,0,0,1-8.344-9.613l.171.111H14.55c-.742.015-1.5-.03-2.242-.082l-1.114-.171c-.371-.052-.727-.178-1.091-.26a14.1,14.1,0,0,1-4.046-1.856,14.5,14.5,0,0,1-3.207-3.036A13.119,13.119,0,0,1,.765,301.5,13.409,13.409,0,0,1,0,297.226c0-11.432.007-22.463.015-32.975a13.792,13.792,0,0,1,.661-3.9,14.622,14.622,0,0,1,1.715-3.5,15,15,0,0,1,2.591-2.843,14.4,14.4,0,0,1,3.229-1.989,13.684,13.684,0,0,1,3.593-1.024,23.476,23.476,0,0,1,3.667-.156H22.6l25.989.022c15.886.022,28.736.045,37.629.059,4.439.015,7.884.03,10.229.037,1.165.007,2.056.015,2.658.022s.906.022.906.022-.3.015-.906.022-1.5.007-2.658.022c-2.346.007-5.79.022-10.229.037-8.893.015-21.743.037-37.629.059-7.943,0-16.643.015-25.989.022H15.47a23.493,23.493,0,0,0-3.615.156,13.024,13.024,0,0,0-3.5,1A14.408,14.408,0,0,0,5.2,254.267a14.976,14.976,0,0,0-2.524,2.776,14.43,14.43,0,0,0-1.67,3.415,13.363,13.363,0,0,0-.638,3.793V297.2a13.086,13.086,0,0,0,.75,4.157,12.671,12.671,0,0,0,2.027,3.749,13.868,13.868,0,0,0,3.118,2.955,13.913,13.913,0,0,0,3.934,1.8c.356.082.7.2,1.062.252l1.084.163c.727.045,1.455.089,2.2.082H63.678l.052.111a24.3,24.3,0,0,0,8.218,9.465,38.581,38.581,0,0,0,11.128,5.137c.965.29,1.938.557,2.9.794.483.119.98.245,1.448.341a1.618,1.618,0,0,0,1.277-.275,1.741,1.741,0,0,0,.7-1.106,1.657,1.657,0,0,0-.319-1.255c-.594-.787-1.158-1.589-1.67-2.42a31.294,31.294,0,0,1-4.15-10.578l-.037-.2H98.345a19.979,19.979,0,0,0,4.684-.349,13.406,13.406,0,0,0,7.5-4.714,13,13,0,0,0,2.116-3.756,12.739,12.739,0,0,0,.817-4.105c.022-11.157.045-20.9.067-28.936a56.583,56.583,0,0,0-.119-5.686,13.61,13.61,0,0,0-1.514-4.736,13.611,13.611,0,0,0-10.192-6.985c-.549-.089-.98-.074-1.262-.1s-.431-.037-.431-.037Z" transform="translate(0 -64.63)" fill="#263238"/>
      <path id="Trazado_612788" data-name="Trazado 612788" d="M29.481,292.329a8.01,8.01,0,1,0-11.328,0A8.01,8.01,0,0,0,29.481,292.329Z" transform="translate(-4.073 -71.799)" fill="#3b5620"/>
      <path id="Trazado_612789" data-name="Trazado 612789" d="M108.239,278.738H44.88v3.727h63.359Z" transform="translate(-11.564 -71.82)" fill="#d5d1d1"/>
      <path id="Trazado_612790" data-name="Trazado 612790" d="M108.239,290.718H44.88v3.727h63.359Z" transform="translate(-11.564 -74.907)" fill="#d5d1d1"/>
      <path id="Trazado_612791" data-name="Trazado 612791" d="M70.446,302.708H44.88v3.727H70.446Z" transform="translate(-11.564 -77.996)" fill="#d5d1d1"/>
      <path id="Trazado_612792" data-name="Trazado 612792" d="M549.465,432.529l.7,12.768s-12.739,5-12.842,7.371l24.8-.468-.275-19.932-12.382.267Z" transform="translate(-138.447 -111.379)" fill="#263238"/>
      <path id="Trazado_612793" data-name="Trazado 612793" d="M562.128,458.439l-.03-1.93-23.814,1.121s-1.091.5-.958,1.277Z" transform="translate(-138.446 -117.625)" fill="#354d1d"/>
      <path id="Trazado_612794" data-name="Trazado 612794" d="M554.08,449.609c0,.119.616.163,1.217.542s.928.883,1.039.831c.111-.022-.082-.75-.824-1.188S554.05,449.5,554.08,449.609Z" transform="translate(-142.765 -115.817)" fill="#fff"/>
      <path id="Trazado_612795" data-name="Trazado 612795" d="M550.6,451.15c-.022.119.5.312.921.817.438.49.549,1.047.668,1.039.111.015.186-.69-.349-1.314s-1.24-.661-1.247-.542Z" transform="translate(-141.866 -116.23)" fill="#fff"/>
      <path id="Trazado_612796" data-name="Trazado 612796" d="M548.339,454.68c.111.022.267-.586-.059-1.24s-.9-.913-.943-.809c-.067.1.3.453.564.995S548.213,454.673,548.339,454.68Z" transform="translate(-141.026 -116.62)" fill="#fff"/>
      <path id="Trazado_612797" data-name="Trazado 612797" d="M613.454,430.519l4.165,14.9,6.7,10.831a1.584,1.584,0,0,1-2.056,2.249c-2.917-1.477-13.622-6.963-13.867-8.077C608.109,449.137,602.95,435,602.95,435Z" transform="translate(-155.357 -110.928)" fill="#263238"/>
      <path id="Trazado_612798" data-name="Trazado 612798" d="M625.489,465.046l-15.619-9.057.193.624a2.35,2.35,0,0,0,.995,1.314c1.277.817,4.847,3,12.946,7.141a1.586,1.586,0,0,0,1.492-.03Z" transform="translate(-157.14 -117.491)" fill="#354d1d"/>
      <path id="Trazado_612799" data-name="Trazado 612799" d="M623.684,460.017a4.769,4.769,0,0,1,.95-1.544,4.9,4.9,0,0,1,1.6-.846c0-.037-.223-.1-.579-.045a2.436,2.436,0,0,0-1.255.638,2.513,2.513,0,0,0-.72,1.209C623.6,459.786,623.647,460.009,623.684,460.017Z" transform="translate(-160.688 -117.896)" fill="#fff"/>
      <path id="Trazado_612800" data-name="Trazado 612800" d="M625.924,462.5c.089.045.416-.586,1.113-1.032a12.468,12.468,0,0,1,1.388-.624,1.753,1.753,0,0,0-1.574.341c-.794.52-1.017,1.3-.928,1.321Z" transform="translate(-161.272 -118.724)" fill="#fff"/>
      <path id="Trazado_612801" data-name="Trazado 612801" d="M620.018,457.236a16.5,16.5,0,0,1,1.618-1.715,14.6,14.6,0,0,1,2.042-1.18,3.5,3.5,0,0,0-2.249.913,3.457,3.457,0,0,0-1.4,1.982Z" transform="translate(-159.754 -117.06)" fill="#fff"/>
      <path id="Trazado_612802" data-name="Trazado 612802" d="M617.8,451.784c.067.074.779-.512,1.834-.876s1.975-.364,1.975-.468a3.073,3.073,0,0,0-2.086.141,3.113,3.113,0,0,0-1.722,1.2Z" transform="translate(-159.182 -116.033)" fill="#fff"/>
      <path id="Trazado_612803" data-name="Trazado 612803" d="M615.978,447.119a5.027,5.027,0,0,1,3.994-1.069c.015-.037-.2-.178-.6-.267a3.448,3.448,0,0,0-3,.8C616.068,446.867,615.949,447.089,615.978,447.119Z" transform="translate(-158.713 -114.842)" fill="#fff"/>
      <path id="Trazado_612804" data-name="Trazado 612804" d="M606.393,177.934a2.814,2.814,0,0,0-2.776-2.842,3.153,3.153,0,1,0-4.937-3.66,5.63,5.63,0,0,0-11.016,2.3l.03,13.747a3.656,3.656,0,0,0,6.1,1.768,3.254,3.254,0,0,0,5.337-3.356,2.2,2.2,0,0,0,2.947.736,3.545,3.545,0,0,0,1.648-2.813,10.323,10.323,0,0,0-.4-3.355,2.808,2.808,0,0,0,3.058-2.539Z" transform="translate(-151.4 -43.068)" fill="#263238"/>
      <path id="Trazado_612805" data-name="Trazado 612805" d="M585.846,182.327a15.785,15.785,0,0,0-9.784-9.517,16.925,16.925,0,0,0-5.968-.787,8.772,8.772,0,0,0-5.768,1.618,14.645,14.645,0,0,0-4.781,5.508,41.54,41.54,0,0,0-2.65,7.082,13.745,13.745,0,0,0,.082,7.475l5.768,3.014A40.241,40.241,0,0,0,573,199.4c3.534.282,7.29-.46,9.97-2.776,3.727-3.214,4.692-9.732,2.888-14.3Z" transform="translate(-143.368 -44.321)" fill="#263238"/>
      <path id="Trazado_612806" data-name="Trazado 612806" d="M580.526,181.231l-7.1-5.842-2.2-.431c-4.788-1.514-9.777,2.7-11.053,6.562-1.41,4.291-2.969,9.584-3.3,12.976-.668,6.815,4.61,9.094,4.61,9.094l-1.321,6.354,5.107,5.56,7.2-5.352,9.524-26.041a2.383,2.383,0,0,0-1.455-2.873Z" transform="translate(-143.467 -44.999)" fill="#ae7461"/>
      <path id="Trazado_612807" data-name="Trazado 612807" d="M569.338,202.913a1.421,1.421,0,0,0-.2-.987,1.464,1.464,0,0,0-1.655-.638,1.943,1.943,0,0,0-1.262,1.522,1.8,1.8,0,0,0,.987,1.091c.074.03.148.059.223.082a1.586,1.586,0,0,0,1.151-.074,1.417,1.417,0,0,0,.757-.987Z" transform="translate(-145.893 -51.849)" fill="#6f4439"/>
      <path id="Trazado_612808" data-name="Trazado 612808" d="M562.978,192.527a.874.874,0,0,0,.586,1.062.822.822,0,0,0,1.062-.534.873.873,0,0,0-.586-1.062A.819.819,0,0,0,562.978,192.527Z" transform="translate(-145.049 -49.458)" fill="#263238"/>
      <path id="Trazado_612809" data-name="Trazado 612809" d="M562.357,187.244c.074.134.831-.171,1.737.067s1.448.861,1.574.779c.059-.037,0-.26-.23-.549a2.367,2.367,0,0,0-1.225-.757,2.3,2.3,0,0,0-1.418.082C562.461,187.006,562.313,187.177,562.357,187.244Z" transform="translate(-144.896 -48.108)" fill="#263238"/>
      <path id="Trazado_612810" data-name="Trazado 612810" d="M566.3,196.692a6.008,6.008,0,0,0-1.4-.646c-.223-.082-.43-.186-.43-.356a1.25,1.25,0,0,1,.334-.646c.364-.5.742-1.024,1.143-1.581a31.089,31.089,0,0,0,2.732-4.194,31.765,31.765,0,0,0-3.066,3.964c-.386.557-.757,1.091-1.113,1.6a1.364,1.364,0,0,0-.356.876.616.616,0,0,0,.289.438,1.706,1.706,0,0,0,.379.156A6.553,6.553,0,0,0,566.3,196.692Z" transform="translate(-145.359 -48.767)" fill="#263238"/>
      <path id="Trazado_612811" data-name="Trazado 612811" d="M562.943,213.6a17.235,17.235,0,0,0,9.383-.052s-3.378,4.32-9.777,2Z" transform="translate(-144.948 -55.023)" fill="#6f4439"/>
      <path id="Trazado_612812" data-name="Trazado 612812" d="M569.193,201.047c-.141-.045-.4.935-1.425,1.41s-2.034.1-2.079.23c-.03.059.186.252.624.379a2.505,2.505,0,0,0,1.722-.141,2.158,2.158,0,0,0,1.128-1.2C569.3,201.33,569.26,201.062,569.193,201.047Z" transform="translate(-145.756 -51.802)" fill="#263238"/>
      <path id="Trazado_612813" data-name="Trazado 612813" d="M564.108,183.216c.1.26.824.3,1.618.572.8.252,1.4.668,1.633.512.1-.074.074-.312-.148-.609a2.512,2.512,0,0,0-1.188-.8,2.538,2.538,0,0,0-1.433-.067c-.356.1-.52.275-.482.4Z" transform="translate(-145.348 -47.087)" fill="#263238"/>
      <path id="Trazado_612814" data-name="Trazado 612814" d="M575.216,195.658a.86.86,0,0,1-1.054.594.827.827,0,0,1-.631-1.01.86.86,0,0,1,1.054-.594A.827.827,0,0,1,575.216,195.658Z" transform="translate(-147.77 -50.146)" fill="#263238"/>
      <path id="Trazado_612815" data-name="Trazado 612815" d="M577.573,191.65c-.134.074-.624-.579-1.522-.846s-1.685-.015-1.752-.156c-.03-.059.134-.23.482-.349a2.4,2.4,0,0,1,1.44-.007,2.314,2.314,0,0,1,1.173.809C577.6,191.4,577.639,191.62,577.573,191.65Z" transform="translate(-147.974 -49.003)" fill="#263238"/>
      <path id="Trazado_612816" data-name="Trazado 612816" d="M578.041,187.542c-.237.148-.861-.267-1.693-.527-.817-.282-1.574-.327-1.67-.586-.037-.126.134-.3.5-.393a2.823,2.823,0,0,1,2.71.9C578.115,187.23,578.152,187.467,578.041,187.542Z" transform="translate(-148.071 -47.916)" fill="#263238"/>
      <path id="Trazado_612817" data-name="Trazado 612817" d="M583.245,193l-1.485.8c-3.341-6.147-9.049-20.682-8.745-19.828a14.776,14.776,0,0,1,7.119,1.455c3.385,1.752,9.6,5.716,8.143,9.9A23.036,23.036,0,0,1,583.253,193Z" transform="translate(-147.641 -44.818)" fill="#263238"/>
      <path id="Trazado_612818" data-name="Trazado 612818" d="M584.186,200.968c.126-.49.995-1.493,1.492-1.441,1.336.134,3.63.847,2.8,4.113-1.136,4.469-5.389,2.405-5.367,2.279C583.132,205.816,583.741,202.646,584.186,200.968Z" transform="translate(-150.245 -51.41)" fill="#ae7461"/>
      <path id="Trazado_612819" data-name="Trazado 612819" d="M585.323,205.2a2.2,2.2,0,0,0,.178.171.843.843,0,0,0,.579.163c.52-.052,1.106-.705,1.329-1.5a2.768,2.768,0,0,0,.067-1.173.925.925,0,0,0-.438-.75.41.41,0,0,0-.512.1c-.089.111-.089.208-.111.208s-.074-.1,0-.275a.542.542,0,0,1,.245-.238.581.581,0,0,1,.46,0,1.116,1.116,0,0,1,.638.9,2.738,2.738,0,0,1-.045,1.314c-.26.891-.935,1.618-1.626,1.641a.871.871,0,0,1-.683-.3c-.111-.148-.111-.252-.089-.252Z" transform="translate(-150.811 -52.01)" fill="#6f4439"/>
      <path id="Trazado_612820" data-name="Trazado 612820" d="M593.9,193.672s.067-.282.2-.787a18.064,18.064,0,0,0,.423-2.168,15.823,15.823,0,0,0-4.491-13.3,17.382,17.382,0,0,0-1.648-1.47,7.194,7.194,0,0,1-.638-.5s.067.03.186.1.3.178.5.334a13.672,13.672,0,0,1,1.715,1.418A15.4,15.4,0,0,1,594.7,190.74a14.461,14.461,0,0,1-.5,2.168c-.074.252-.156.438-.2.572A.944.944,0,0,1,593.9,193.672Z" transform="translate(-151.441 -45.206)" fill="#354d1d"/>
      <path id="Trazado_612821" data-name="Trazado 612821" d="M539.809,283.736c-.379.386-8.247,18.4-7.854,27.942s6.154,42.751,6.154,42.751l9.2,51.376h13.355s0-32.848-1.2-41.837-2.591-13.949-2.992-20.548-.512-20.5-.913-19.947,30.8,80.5,30.8,80.5l13.125-.868s-4.758-27.444-5.753-32.648-4.981-21.164-7.973-29.241-4.038-28.209-8.173-36.872a57.737,57.737,0,0,1-4.981-17.029l-32.8-3.585Z" transform="translate(-137.061 -73.106)" fill="#263238"/>
      <path id="Trazado_612822" data-name="Trazado 612822" d="M579.349,38.4l7.943,22.24a8.342,8.342,0,0,0,5.664,5.174l23.569,6.57C623.2,74.249,624.84,82.6,619.3,86.521l-19.561,13.845a7.8,7.8,0,0,0-3.333,6.7l1.024,23.406c.289,6.629-7.483,10.608-13.162,6.733l-20.028-13.681a8.715,8.715,0,0,0-7.72-1.039l-22.938,7.9c-6.5,2.234-12.946-3.66-10.912-9.977l7.178-22.3a7.778,7.778,0,0,0-1.44-7.334l-15.2-18.529c-4.306-5.248-.512-12.872,6.414-12.894l24.467-.1a8.363,8.363,0,0,0,6.83-3.5l13.54-19.345a8.547,8.547,0,0,1,14.876,2Z" transform="translate(-131.764 -8.479)" fill="#3b5620"/>
      <path id="Trazado_612823" data-name="Trazado 612823" d="M522.222,161.5l1.626-2.754s-4.1-8.537-4.127-9.309,3.793-6.072,3.793-6.072l4.4-.7a1.076,1.076,0,0,1-.683,1.388c-1.032.349-2.413.705-2.413.705l-1.166,1.856s2-.6,2.568-.75,5.5-.119,5.441.676a2.361,2.361,0,0,1-1.789,2.1,30.265,30.265,0,0,0-3.585.839s-.958.594-.275.935,3.831-.549,4.424.074-.171,1.344-.72,1.225a15.534,15.534,0,0,0-3.2.653s3.534,3.326,3.563,5.13a51.9,51.9,0,0,1-1.247,7.238l-6.622-3.222Z" transform="translate(-133.912 -36.76)" fill="#ae7461"/>
      <path id="Trazado_612824" data-name="Trazado 612824" d="M616.221,178.509s-.876-5.694-.564-6.919,5.4-5.464,5.026-5.441-3.511-2.131-3.43-2.762l.074-.631s-.46-1.574.134-1.945,2.45.624,2.45.624a5.909,5.909,0,0,1,3.14-.616c1.3.3,2.056,3.4,2.056,3.4s1.574-.772,1.269-2-.676-2.747-.676-2.747.705-.557,1.336.438a15.752,15.752,0,0,1,1.017,6.34c-.223,1.277-5.323,3.986-5.553,4.885s1.084,6.659,1.084,6.659l-7.371.713Z" transform="translate(-158.614 -41.051)" fill="#ae7461"/>
      <path id="Trazado_612825" data-name="Trazado 612825" d="M571.022,259.822l8.284-38.9L568.1,219.164a14.149,14.149,0,0,1-7.438,2.554c-3.994,0-5.6-3.927-5.6-3.927l-7.253-1.752s-10.111,10.994-11.529,24.378c-.371,3.474,1.143,11.736,1.945,15.745a12.58,12.58,0,0,1,.052,4.625l-2.65,15.04c10.066,9.643,27.251,8.255,38.876-.713,1.2-1.626.193-4.662-.728-6.466l-2.732-8.819Z" transform="translate(-138.009 -55.665)" fill="#3b5620"/>
      <path id="Trazado_612826" data-name="Trazado 612826" d="M519.335,167.036S507.621,190,509.5,193.82c3.667,7.453,24.423,24.185,24.423,24.185l9.3-12.731-21.7-14.787,6.169-21.157-8.351-2.3Z" transform="translate(-131.226 -43.037)" fill="#3b5620"/>
      <path id="Trazado_612827" data-name="Trazado 612827" d="M607.444,182.683l1.633,21.075-21.342,6.919-.705,18.8,28.149-13.013c3.3-1.255,5.263-6.629,5.122-11.707-.252-9.212-3.86-25.314-3.86-25.314l-9,3.237Z" transform="translate(-151.255 -46.235)" fill="#3b5620"/>
      <path id="Trazado_612828" data-name="Trazado 612828" d="M547.579,218.979a61.524,61.524,0,0,1-3.467,5.968,61.3,61.3,0,0,1-3.793,5.768,61.5,61.5,0,0,1,3.467-5.968A61.274,61.274,0,0,1,547.579,218.979Z" transform="translate(-139.219 -56.422)" fill="#263238"/>
      <path id="Trazado_612829" data-name="Trazado 612829" d="M617.189,216.487a9.649,9.649,0,0,1-1.6-3.489,9.649,9.649,0,0,1,1.6,3.489Z" transform="translate(-158.61 -54.881)" fill="#263238"/>
      <path id="Trazado_612830" data-name="Trazado 612830" d="M590.178,233.462a21.982,21.982,0,0,1-.044-8.2c.111.007.007,1.841.022,4.105s.134,4.09.022,4.105Z" transform="translate(-151.961 -58.041)" fill="#263238"/>
    </g>
  </g>
</svg>
