<svg xmlns="http://www.w3.org/2000/svg" width="86.858" height="120.388" viewBox="0 0 86.858 120.388">
  <g id="Grupo_1066755" data-name="Grupo 1066755" transform="translate(-561.172 -7520.553)">
    <g id="candado_1_" data-name="candado (1)" transform="translate(560.672 7520.553)">
      <path id="Trazado_612925" data-name="Trazado 612925" d="M169.894,0l-4.706,7.6,4.706,7.384a18.465,18.465,0,0,1,18.444,18.445V56.352l7.185,7.525,7.8-7.525V33.431A33.469,33.469,0,0,0,169.894,0Zm0,0" transform="translate(-125.964)" fill="#c8c6cd"/>
      <path id="Trazado_612926" data-name="Trazado 612926" d="M43.023,33.431V56.353L50.2,63.877l7.812-7.524V33.431A18.466,18.466,0,0,1,76.454,14.986V0A33.469,33.469,0,0,0,43.023,33.431Zm0,0" transform="translate(-32.525 -0.001)" fill="#c8c6cd"/>
      <path id="Trazado_612927" data-name="Trazado 612927" d="M.5,239.664H43.93V303.7H.5Zm0,0" transform="translate(0 -183.312)" fill="#ffb74f"/>
      <path id="Trazado_612928" data-name="Trazado 612928" d="M185.2,239.664h43.429V303.7H185.2Zm0,0" transform="translate(-141.273 -183.312)" fill="#ff9a00"/>
      <path id="Trazado_612929" data-name="Trazado 612929" d="M170.2,382.551h3.528V396.3H170.2Zm0,0" transform="translate(-126.274 -292.601)" fill="#703700"/>
      <path id="Trazado_612932" data-name="Trazado 612932" d="M170.2,382.551h3.528V396.3H170.2Zm0,0" transform="translate(-129.8 -292.601)" fill="#9a4c00"/>
      <path id="Trazado_612930" data-name="Trazado 612930" d="M180.406,321.157a10.524,10.524,0,0,0-10.512-10.512l-4.706,10.389,4.706,10.635a10.524,10.524,0,0,0,10.512-10.512Zm0,0" transform="translate(-125.964 -237.603)" fill="#703700"/>
      <path id="Trazado_612931" data-name="Trazado 612931" d="M140.492,321.157A10.525,10.525,0,0,0,151,331.669V310.645A10.524,10.524,0,0,0,140.492,321.157Zm0,0" transform="translate(-107.075 -237.603)" fill="#9a4c00"/>
    </g>
  </g>
</svg>
