<svg xmlns="http://www.w3.org/2000/svg" width="385.215" height="320.367" viewBox="0 0 385.215 320.367">
  <g id="Grupo_1066758" data-name="Grupo 1066758" transform="translate(-949.785 -17402.133)">
    <g id="Group_69" data-name="Group 69" transform="translate(895 17402.133)">
      <path id="Trazado_613292" data-name="Trazado 613292" d="M429.487,34.86l8.571,21.926-5.332-.022L428.46,43.289Z" transform="translate(-101.878 -8.72)" fill="#e0e0e0"/>
      <path id="Trazado_613293" data-name="Trazado 613293" d="M389.807,7.84,386.86,49.855l30.422.637L420.7,7.84Z" transform="translate(-91.472 -1.961)" fill="#ebebeb"/>
      <path id="Trazado_613294" data-name="Trazado 613294" d="M394.032,12.283,391.58,47.256,414.2,48.314l3.157-36.234Z" transform="translate(-92.653 -3.022)" fill="#fafafa"/>
      <path id="Trazado_613295" data-name="Trazado 613295" d="M400.857,18.95,399.02,43.531H411.5l2.2-24.581Z" transform="translate(-94.514 -4.74)" fill="#e0e0e0"/>
      <path id="Trazado_613296" data-name="Trazado 613296" d="M350.78,57.2V36.17h15.4V57.189Z" transform="translate(-82.447 -9.047)" fill="#ebebeb"/>
      <path id="Trazado_613297" data-name="Trazado 613297" d="M360.8,27.123S364.524-.037,363.481,0s-3.652,24.761-3.652,24.761-.112-20.479-1.087-20.366,0,21.679,0,21.679-1.672-17.5-2.58-17.082.39,18.139.39,18.139h4.259" transform="translate(-83.713 0)" fill="#e0e0e0"/>
      <path id="Trazado_613298" data-name="Trazado 613298" d="M358.728,29.009s1.29-13.535,1.71-12.613,0,8.061,0,8.061,3.569-17.494,4.5-16.9-3.652,18.987-3.652,18.987,3.479-10.5,4.244-9.4S362.642,28.1,362.642,28.1s3.734-6.966,3.989-6.029S364.846,29,364.846,29H358.72Z" transform="translate(-84.433 -1.886)" fill="#ebebeb"/>
      <path id="Trazado_613299" data-name="Trazado 613299" d="M353.362,31.049s-8.241-16.167-7.221-15.672,6.284,10.948,6.284,10.948-3.487-10.086-2.722-10.393,4.589,11.323,4.589,11.323l.855,3.787h-1.792Z" transform="translate(-81.265 -3.843)" fill="#f5f5f5"/>
      <path id="Trazado_613300" data-name="Trazado 613300" d="M357.929,36.195l.39,21.034h-7.326L350.85,36.12Z" transform="translate(-82.465 -9.035)" fill="#e0e0e0"/>
      <path id="Trazado_613301" data-name="Trazado 613301" d="M350.732,37.98l7.094.112,8.294-.112.262-2.01H350.53Z" transform="translate(-82.385 -8.997)" fill="#e0e0e0"/>
      <path id="Trazado_613302" data-name="Trazado 613302" d="M437.833,63.44H329.98V69H437.833Z" transform="translate(-77.245 -15.868)" fill="#cac8c8"/>
      <path id="Trazado_613318" data-name="Trazado 613318" d="M83.621,388.43v3.637H73.55V388.1Z" transform="translate(-13.103 -97.076)" fill="#f5f5f5"/>
      <path id="Trazado_613319" data-name="Trazado 613319" d="M83.511,397.46H73.11v1.485h10.4Z" transform="translate(-12.993 -99.418)" fill="#f5f5f5"/>
      <path id="Trazado_613323" data-name="Trazado 613323" d="M375.13,393.21v21.439h65.928V393.21Z" transform="translate(-88.538 -98.354)" fill="#f5f5f5"/>
      <path id="Trazado_613324" data-name="Trazado 613324" d="M371.44,385.21v6h71v-6h-71Z" transform="translate(-87.615 -96.353)" fill="#e0e0e0"/>
      <path id="Trazado_613325" data-name="Trazado 613325" d="M418.32,412.648h33.2V391.209h2.3v-6H416.94v5.444Z" transform="translate(-98.996 -96.353)" fill="#e0e0e0"/>
      <path id="Trazado_613326" data-name="Trazado 613326" d="M400.8,397.82H387.43v3.224H400.8Z" transform="translate(-91.615 -99.508)" fill="#e0e0e0"/>
      <path id="Trazado_613327" data-name="Trazado 613327" d="M402.294,407.5H385.13v6.816h17.164Z" transform="translate(-91.039 -101.929)" fill="#fff"/>
      <path id="Trazado_613328" data-name="Trazado 613328" d="M488.72,356.63v21.431h65.921V356.63Z" transform="translate(-116.951 -89.205)" fill="#f5f5f5"/>
      <path id="Trazado_613329" data-name="Trazado 613329" d="M485.03,348.63v6h71v-6h-71Z" transform="translate(-116.028 -87.204)" fill="#e0e0e0"/>
      <path id="Trazado_613330" data-name="Trazado 613330" d="M531.907,376.06H565.1V354.629h2.31v-6H530.52v5.444Z" transform="translate(-127.406 -87.204)" fill="#e0e0e0"/>
      <path id="Trazado_613331" data-name="Trazado 613331" d="M514.38,361.24H501.01v3.224h13.37Z" transform="translate(-120.025 -90.358)" fill="#e0e0e0"/>
      <path id="Trazado_613332" data-name="Trazado 613332" d="M515.884,370.92H498.72v6.816h17.164Z" transform="translate(-119.452 -92.779)" fill="#fff"/>
      <path id="Trazado_613333" data-name="Trazado 613333" d="M484.51,393.21v21.439h65.921V393.21Z" transform="translate(-115.897 -98.354)" fill="#f5f5f5"/>
      <path id="Trazado_613334" data-name="Trazado 613334" d="M480.82,385.21v6h71v-6h-71Z" transform="translate(-114.975 -96.353)" fill="#e0e0e0"/>
      <path id="Trazado_613335" data-name="Trazado 613335" d="M527.7,412.648h33.189V391.209h2.31v-6H526.31v5.444Z" transform="translate(-126.353 -96.353)" fill="#e0e0e0"/>
      <path id="Trazado_613336" data-name="Trazado 613336" d="M510.17,397.82H496.8v3.224h13.37Z" transform="translate(-118.972 -99.508)" fill="#e0e0e0"/>
      <path id="Trazado_613337" data-name="Trazado 613337" d="M511.674,407.5H494.51v6.816h17.164Z" transform="translate(-118.399 -101.929)" fill="#fff"/>
      <path id="Trazado_613359" data-name="Trazado 613359" d="M197.266,150.759l5.294,90.277a6.092,6.092,0,0,0,6.066,5.736l162.489.495a6.108,6.108,0,0,0,6.119-6.081l.217-70.293a6.106,6.106,0,0,0-6.119-6.119l-99.935.337a6.113,6.113,0,0,1-4.312-1.77l-17.314-17.164a6.122,6.122,0,0,0-4.274-1.77l-42.128-.127a6.1,6.1,0,0,0-6.1,6.456Z" transform="translate(-44.046 -36.089)" fill="#354d1d"/>
      <path id="Trazado_613360" data-name="Trazado 613360" d="M197.266,150.759l5.294,90.277a6.092,6.092,0,0,0,6.066,5.736l162.489.495a6.108,6.108,0,0,0,6.119-6.081l.217-70.293a6.106,6.106,0,0,0-6.119-6.119l-99.935.337a6.113,6.113,0,0,1-4.312-1.77l-17.314-17.164a6.122,6.122,0,0,0-4.274-1.77l-42.128-.127a6.1,6.1,0,0,0-6.1,6.456Z" transform="translate(-44.046 -36.089)" opacity="0.3"/>
      <path id="Trazado_613361" data-name="Trazado 613361" d="M253.175,99.063l-53.434,70.143,56.077,42.719,53.434-70.143Z" transform="translate(-44.668 -24.779)" fill="#fff"/>
      <path id="Trazado_613362" data-name="Trazado 613362" d="M253.088,99.038s-.083.12-.247.345-.42.555-.742.99c-.66.87-1.627,2.152-2.88,3.817-2.527,3.337-6.216,8.211-10.9,14.382-9.366,12.335-22.691,29.867-38.521,50.714l-.03-.247c16.692,12.71,35.836,27.28,56.09,42.7l-.27.045c19.789-25.96,38.183-50.091,53.458-70.128l.03.225c-16.872-12.9-30.857-23.591-40.635-31.06-4.889-3.742-8.721-6.681-11.338-8.691q-1.957-1.507-2.984-2.295c-.675-.525-1.027-.8-1.027-.8s.345.247,1.02.757,1.68,1.267,2.984,2.25c2.625,1.987,6.464,4.9,11.36,8.6,9.823,7.454,23.868,18.117,40.815,30.985l.127.1-.1.127c-15.26,20.044-33.632,44.19-53.406,70.165l-.12.157-.157-.12c-20.246-15.432-39.376-30.017-56.06-42.735l-.142-.1.1-.142,38.731-50.7c4.7-6.141,8.414-10.978,10.948-14.3,1.26-1.642,2.235-2.909,2.895-3.764.322-.42.57-.735.742-.96s.255-.315.255-.315Z" transform="translate(-44.587 -24.771)" fill="#354d1d"/>
      <path id="Trazado_613363" data-name="Trazado 613363" d="M256.573,105.986,206.892,171.2l49.02,37.343,49.681-65.215Z" transform="translate(-46.456 -26.511)" fill="#354d1d"/>
      <path id="Trazado_613364" data-name="Trazado 613364" d="M267.9,222.023,254.78,176.034l29.807.4-2.894-17.329,35.881-2.31Z" transform="translate(-58.435 -39.221)" fill="#354d1d"/>
      <path id="Trazado_613365" data-name="Trazado 613365" d="M263.722,161.908a6.456,6.456,0,1,0-7.269-5.524A6.456,6.456,0,0,0,263.722,161.908Z" transform="translate(-58.838 -37.283)" fill="#354d1d"/>
      <path id="Trazado_613366" data-name="Trazado 613366" d="M285.47,98.032l-4.04,98.037,122.627,5.054,4.04-98.037Z" transform="translate(-65.101 -24.521)" fill="#fff"/>
      <path id="Trazado_613367" data-name="Trazado 613367" d="M408.01,103s-.2,0-.585-.015-.96-.038-1.71-.06c-1.515-.06-3.742-.142-6.651-.255-5.812-.225-14.315-.562-25.091-.982-21.536-.862-52.176-2.092-88.6-3.554l.18-.165c-1.192,29.177-2.565,62.629-4.012,98.03l-.187-.195c45.4,1.882,87.592,3.629,122.626,5.077l-.172.157c1.252-29.545,2.287-54.035,3.014-71.14.367-8.563.66-15.275.862-19.857.1-2.287.18-4.042.232-5.227s.09-1.807.09-1.807-.015.6-.052,1.77c-.045,1.185-.112,2.924-.195,5.2-.18,4.574-.442,11.278-.772,19.826-.682,17.134-1.665,41.663-2.849,71.252v.165h-.172c-35.034-1.44-77.229-3.164-122.633-5.017h-.195V196h.007c1.462-35.409,2.85-68.86,4.049-98.038V97.79h.18c36.466,1.545,67.136,2.834,88.7,3.742,10.761.465,19.242.825,25.046,1.08l6.614.292c.742.038,1.3.06,1.695.083.375.022.562.03.562.03Z" transform="translate(-65.028 -24.46)" fill="#354d1d"/>
      <path id="Trazado_613368" data-name="Trazado 613368" d="M290.941,106.492l-3.532,85.7,114.011,4.7,3.532-85.7Z" transform="translate(-66.596 -26.637)" fill="#354d1d"/>
      <path id="Trazado_613369" data-name="Trazado 613369" d="M287.39,203.538l42.015-51.628,23.3,34.344,17.464-17.134,31.24,39.113Z" transform="translate(-66.591 -37.998)" fill="#354d1d"/>
      <path id="Trazado_613370" data-name="Trazado 613370" d="M384.433,143.616a8.983,8.983,0,1,0-10.731,6.8A8.983,8.983,0,0,0,384.433,143.616Z" transform="translate(-86.425 -33.184)" fill="#354d1d"/>
      <path id="Trazado_613371" data-name="Trazado 613371" d="M402.831,160.95,236.72,183.821,254.312,305.48l164.753-23.208Z" transform="translate(-53.917 -40.259)" fill="#ebebeb"/>
      <path id="Trazado_613372" data-name="Trazado 613372" d="M404.321,140.71,240.13,174.739l25.765,120.2,162.811-34.276Z" transform="translate(-54.77 -35.196)" fill="#e0e0e0"/>
      <path id="Trazado_613373" data-name="Trazado 613373" d="M387,122.72,228.82,178.375,270.4,294.05l156.775-55.708Z" transform="translate(-51.941 -30.696)" fill="#fff"/>
      <path id="Trazado_613374" data-name="Trazado 613374" d="M386.927,122.72c.435,1.237,15.9,45.554,40.335,115.57l.053.15-.15.052c-44.047,15.665-98.233,34.929-156.76,55.745l-.18.067-.067-.18c-.1-.262-.2-.555-.3-.84-14.795-41.19-28.832-80.243-41.258-114.842l-.06-.165.165-.06c93.591-32.822,156.752-54.965,158.23-55.483-1.477.517-64.594,22.8-158.117,55.82l.1-.225c12.44,34.6,26.485,73.645,41.3,114.827.105.292.21.577.3.84l-.247-.12L427.052,238.2l-.1.2c-24.251-70.075-39.6-114.43-40.028-115.675Z" transform="translate(-51.871 -30.696)" fill="#354d1d"/>
      <path id="Trazado_613375" data-name="Trazado 613375" d="M434.741,241.149c-.3.112-7.9-19.617-16.97-44.062S401.6,152.732,401.9,152.62s7.9,19.609,16.97,44.062S435.041,241.037,434.741,241.149Z" transform="translate(-95.231 -38.175)" fill="#354d1d"/>
      <path id="Trazado_613376" data-name="Trazado 613376" d="M416.721,249.389c-.3.112-7.9-19.617-16.97-44.062s-16.175-44.355-15.875-44.467,7.9,19.609,16.97,44.062S417.021,249.277,416.721,249.389Z" transform="translate(-90.724 -40.236)" fill="#354d1d"/>
      <path id="Trazado_613377" data-name="Trazado 613377" d="M360.791,272.819c-.3.112-7.9-19.617-16.97-44.062S327.647,184.4,327.947,184.29s7.9,19.609,16.97,44.062S361.091,272.707,360.791,272.819Z" transform="translate(-76.734 -46.097)" fill="#354d1d"/>
      <path id="Trazado_613378" data-name="Trazado 613378" d="M378.621,265.639c-.3.112-7.9-19.617-16.97-44.062s-16.175-44.355-15.875-44.467,7.9,19.609,16.97,44.062S378.921,265.527,378.621,265.639Z" transform="translate(-81.194 -44.301)" fill="#354d1d"/>
      <path id="Trazado_613379" data-name="Trazado 613379" d="M396.451,258.459c-.3.112-7.9-19.617-16.97-44.062s-16.175-44.355-15.875-44.467,7.9,19.609,16.97,44.062S396.751,258.347,396.451,258.459Z" transform="translate(-85.653 -42.505)" fill="#354d1d"/>
      <path id="Trazado_613380" data-name="Trazado 613380" d="M340.141,278.759c-.3.112-7.9-19.617-16.97-44.062S307,190.342,307.3,190.23s7.9,19.609,16.97,44.062S340.441,278.647,340.141,278.759Z" transform="translate(-71.569 -47.583)" fill="#354d1d"/>
      <path id="Trazado_613381" data-name="Trazado 613381" d="M320.4,286c-.3.112-7.9-19.617-16.969-44.062s-16.175-44.355-15.875-44.467,7.9,19.609,16.969,44.062S320.7,285.887,320.4,286Z" transform="translate(-66.631 -49.393)" fill="#354d1d"/>
      <path id="Trazado_613382" data-name="Trazado 613382" d="M300.651,293.239c-.3.112-7.9-19.617-16.969-44.062s-16.175-44.355-15.875-44.467,7.9,19.609,16.97,44.062S300.951,293.127,300.651,293.239Z" transform="translate(-61.691 -51.204)" fill="#354d1d"/>
      <path id="Trazado_613383" data-name="Trazado 613383" d="M192.836,217.349l13.22,110.673a3.922,3.922,0,0,0,3.884,3.457L382.965,332a3.929,3.929,0,0,0,3.922-3.6L395.937,217.8a3.914,3.914,0,0,0-3.892-4.237l-195.288-.592a3.927,3.927,0,0,0-3.907,4.387Z" transform="translate(-42.937 -53.271)" fill="#354d1d"/>
      <path id="Trazado_613384" data-name="Trazado 613384" d="M473.206,177.66l-5.826,4.169,3.4,16.722,7.664-6.831Z" transform="translate(-111.613 -44.438)" fill="#bf7a62"/>
      <path id="Trazado_613385" data-name="Trazado 613385" d="M476.918,341.448l24.258-11.788,31.12,3.734a10.127,10.127,0,0,1,3.907,6.456,3.292,3.292,0,0,1-.352,2.452,3.115,3.115,0,0,1-3.292.81,29.668,29.668,0,0,0-3.442-1.027c-2.317-.277-4.454,1.207-6.194,2.76s-3.472,3.322-5.744,3.839a8.838,8.838,0,0,1-5.924-1.1c-1.815-.952-3.442-2.235-5.212-3.262a17.56,17.56,0,0,0-10.956-2.437c-3.022.4-5.849,1.717-8.863,2.2s-7.679-.053-9.313-2.625" transform="translate(-113.996 -82.459)" fill="#354d1d"/>
      <path id="Trazado_613386" data-name="Trazado 613386" d="M537.9,365.654s-19.871-67.751-20.246-69.918c-.337-1.957,2.759-49.424,4.139-61.737l-21.889.187v.2l-10.408.255L494.164,369.4l13.46,1.035-.09-44.46c8.488,21.439,18.327,45.344,18.327,45.344l12.05-5.669Z" transform="translate(-117.146 -58.531)" fill="#d89377"/>
      <path id="Trazado_613387" data-name="Trazado 613387" d="M501.579,312.19a14.191,14.191,0,0,1-.09,1.477,29.874,29.874,0,0,0,.06,4.012,36.913,36.913,0,0,0,.982,5.871,59.143,59.143,0,0,0,2.37,6.906c1.845,4.867,3.494,9.276,4.664,12.478.562,1.552,1.02,2.835,1.365,3.8a8.651,8.651,0,0,1,.442,1.417,10.05,10.05,0,0,1-.607-1.357c-.382-.952-.885-2.22-1.492-3.749-1.245-3.172-2.94-7.566-4.784-12.433-.457-1.215-.907-2.407-1.335-3.554a33.871,33.871,0,0,1-1.02-3.4,34.525,34.525,0,0,1-.9-5.939,24.814,24.814,0,0,1,.075-4.049c.053-.48.112-.84.165-1.087a1.167,1.167,0,0,1,.1-.375Z" transform="translate(-120.069 -78.089)" fill="#bf7a62"/>
      <path id="Trazado_613388" data-name="Trazado 613388" d="M512.023,368.744c.022-.412.307-15.08.307-15.08s-4.882-13.61-5-13.2,4.694,28.27,4.694,28.27Z" transform="translate(-121.605 -85.159)" fill="#bf7a62"/>
      <path id="Trazado_613389" data-name="Trazado 613389" d="M491.475,413.945l.038-1.515,14.27.285-.068,4.994-.885.037c-3.922.15-19.962.472-22.571-.367-2.909-.937,9.208-3.442,9.208-3.442Z" transform="translate(-115.222 -103.162)" fill="#354d1d"/>
      <g id="Grupo_1015846" data-name="Grupo 1015846" transform="translate(385.342 310.358)" opacity="0.3">
        <path id="Trazado_613390" data-name="Trazado 613390" d="M506.82,417.878a4.935,4.935,0,0,1,1.867-3,4.824,4.824,0,0,1,3.337-.975l-.068,3.967H506.82Z" transform="translate(-506.82 -413.883)" fill="#fff"/>
      </g>
      <path id="Trazado_613391" data-name="Trazado 613391" d="M485.54,416.36s-4.252,1.147-3.734,1.852,16.737.99,23.9.487l-.015-.315-18.919-.165s-.4-1.8-1.222-1.852Z" transform="translate(-115.21 -104.145)" fill="#fff" opacity="0.3"/>
      <path id="Trazado_613392" data-name="Trazado 613392" d="M505.918,418.917a2.068,2.068,0,0,1-.248.023c-.21.007-.442.022-.7.03q-1.057.023-2.587.068c-2.182.038-5.2.06-8.526,0s-6.344-.172-8.526-.285c-1.02-.06-1.882-.112-2.58-.15-.262-.022-.487-.038-.7-.053a1.106,1.106,0,0,1-.24-.03h.247c.21,0,.442.015.7.022.7.03,1.567.06,2.58.1,2.182.083,5.189.18,8.519.232s6.344.06,8.526.045c1.02,0,1.882-.007,2.587-.015h.7c.157,0,.247,0,.247.015Z" transform="translate(-115.222 -104.685)" fill="#354d1d"/>
      <path id="Trazado_613393" data-name="Trazado 613393" d="M487.989,418.381a5.668,5.668,0,0,0-.457-1.237,5.846,5.846,0,0,0-.862-1,1.9,1.9,0,0,1,1.012.915,1.946,1.946,0,0,1,.315,1.327Z" transform="translate(-116.437 -104.088)" fill="#354d1d"/>
      <path id="Trazado_613394" data-name="Trazado 613394" d="M493.825,415.989c-.038.023-.24-.225-.435-.555s-.33-.615-.292-.645.24.225.435.555S493.863,415.959,493.825,415.989Z" transform="translate(-118.044 -103.752)" fill="#354d1d"/>
      <path id="Trazado_613395" data-name="Trazado 613395" d="M495.328,415.326a2.154,2.154,0,0,1-.495-.345c-.24-.225-.412-.435-.375-.472s.255.12.495.345S495.366,415.288,495.328,415.326Z" transform="translate(-118.385 -103.68)" fill="#354d1d"/>
      <path id="Trazado_613396" data-name="Trazado 613396" d="M496.125,413.8a1.743,1.743,0,0,1-.742.082,1.676,1.676,0,0,1-.742-.09,1.743,1.743,0,0,1,.742-.082A1.676,1.676,0,0,1,496.125,413.8Z" transform="translate(-118.431 -103.482)" fill="#354d1d"/>
      <path id="Trazado_613397" data-name="Trazado 613397" d="M496.407,412.574a1.405,1.405,0,0,1-.832.225,1.458,1.458,0,0,1-.855-.127,4.266,4.266,0,0,1,.84-.045,4.217,4.217,0,0,1,.84-.053Z" transform="translate(-118.451 -103.194)" fill="#354d1d"/>
      <path id="Trazado_613398" data-name="Trazado 613398" d="M492.571,414.284a3.608,3.608,0,0,1-.915-.022,5.25,5.25,0,0,1-.967-.232,2.89,2.89,0,0,1-.555-.24.476.476,0,0,1-.217-.285.347.347,0,0,1,.142-.36,1.677,1.677,0,0,1,2.062.525,1.553,1.553,0,0,1,.285.615.523.523,0,0,1,.022.247,2.389,2.389,0,0,0-.4-.787,1.637,1.637,0,0,0-.772-.517,1.438,1.438,0,0,0-1.087.052c-.15.1-.09.277.067.375a2.575,2.575,0,0,0,.51.225,6.055,6.055,0,0,0,.937.262C492.226,414.247,492.571,414.254,492.571,414.284Z" transform="translate(-117.247 -103.299)" fill="#354d1d"/>
      <path id="Trazado_613399" data-name="Trazado 613399" d="M493.1,414.2a1.046,1.046,0,0,1-.1-.637,1.419,1.419,0,0,1,.262-.66.907.907,0,0,1,.765-.45.37.37,0,0,1,.277.427.983.983,0,0,1-.165.4,3.18,3.18,0,0,1-.442.547,1.275,1.275,0,0,1-.532.36c-.015-.022.187-.157.442-.442a2.955,2.955,0,0,0,.39-.54c.128-.187.217-.532-.007-.585-.225-.023-.465.195-.607.375a1.437,1.437,0,0,0-.27.592,2.6,2.6,0,0,0-.022.615Z" transform="translate(-118.021 -103.167)" fill="#354d1d"/>
      <path id="Trazado_613400" data-name="Trazado 613400" d="M511.964,413.826a5.4,5.4,0,0,0-1.05.023,4.6,4.6,0,0,0-2.31.907,4.536,4.536,0,0,0-1.462,1.995c-.225.607-.255,1.012-.285,1.012a.942.942,0,0,1,0-.285,3.844,3.844,0,0,1,.165-.765,4.316,4.316,0,0,1,1.477-2.092,4.415,4.415,0,0,1,2.4-.892,3.932,3.932,0,0,1,.78.03,1.025,1.025,0,0,1,.277.068Z" transform="translate(-121.485 -103.485)" fill="#354d1d"/>
      <path id="Trazado_613401" data-name="Trazado 613401" d="M503.084,417.3a8.169,8.169,0,0,1-2.077.172,7.732,7.732,0,0,1-2.077-.2c0-.052.93.022,2.077.03S503.077,417.259,503.084,417.3Z" transform="translate(-119.504 -104.369)" fill="#354d1d"/>
      <path id="Trazado_613402" data-name="Trazado 613402" d="M508.04,417.378s-.082.2-.18.4-.15.4-.2.4-.067-.225.045-.472.3-.367.33-.33Z" transform="translate(-121.678 -104.398)" fill="#354d1d"/>
      <path id="Trazado_613403" data-name="Trazado 613403" d="M509.428,415.657a.945.945,0,0,1-.21.33c-.15.15-.3.24-.33.2s.06-.18.21-.33S509.4,415.62,509.428,415.657Z" transform="translate(-121.994 -103.967)" fill="#354d1d"/>
      <path id="Trazado_613404" data-name="Trazado 613404" d="M511.358,414.871c-.007.045-.2.045-.412.112s-.36.18-.4.142.083-.225.345-.307S511.373,414.818,511.358,414.871Z" transform="translate(-122.409 -103.751)" fill="#354d1d"/>
      <path id="Trazado_613405" data-name="Trazado 613405" d="M512.914,414.539c.015.045-.068.112-.187.157s-.225.045-.247,0,.068-.112.188-.157S512.892,414.494,512.914,414.539Z" transform="translate(-122.893 -103.681)" fill="#354d1d"/>
      <path id="Trazado_613406" data-name="Trazado 613406" d="M535.547,415.044l-.645-1.372,12.9-6.111,2.167,4.5-.772.427c-3.449,1.882-17.652,9.328-20.359,9.741-3.022.457,6.711-7.191,6.711-7.191Z" transform="translate(-126.839 -101.944)" fill="#354d1d"/>
      <g id="Grupo_1015847" data-name="Grupo 1015847" transform="translate(418.253 306.359)" opacity="0.3">
        <path id="Trazado_613407" data-name="Trazado 613407" d="M550.89,414.429a4.926,4.926,0,0,1,.337-3.517,4.775,4.775,0,0,1,2.557-2.362l1.71,3.584-4.6,2.295Z" transform="translate(-550.709 -408.55)" fill="#fff"/>
      </g>
      <path id="Trazado_613408" data-name="Trazado 613408" d="M530.88,420.384s-3.292,2.924-2.52,3.322,15.417-6.584,21.6-10.228l-.158-.277L532.8,421.494S531.638,420.061,530.88,420.384Z" transform="translate(-126.837 -103.355)" fill="#fff" opacity="0.3"/>
      <path id="Trazado_613409" data-name="Trazado 613409" d="M550.014,413.06a1.547,1.547,0,0,1-.21.128c-.187.1-.39.217-.615.337-.622.33-1.38.735-2.28,1.215-1.935,1.012-4.627,2.37-7.634,3.809s-5.752,2.677-7.754,3.547c-.937.4-1.732.742-2.377,1.012-.24.1-.457.187-.652.262a1.137,1.137,0,0,1-.232.082s.075-.045.218-.112c.195-.09.4-.187.637-.292.637-.292,1.425-.645,2.355-1.065,1.987-.9,4.724-2.16,7.731-3.592s5.7-2.775,7.649-3.757c.907-.457,1.68-.847,2.31-1.162q.349-.169.63-.315A1.253,1.253,0,0,1,550.014,413.06Z" transform="translate(-126.841 -103.319)" fill="#354d1d"/>
      <path id="Trazado_613410" data-name="Trazado 613410" d="M533.73,424.04a5.916,5.916,0,0,0-.967-.907,5.744,5.744,0,0,0-1.222-.51,2.285,2.285,0,0,1,2.182,1.417Z" transform="translate(-127.661 -105.706)" fill="#354d1d"/>
      <path id="Trazado_613411" data-name="Trazado 613411" d="M537.884,419.31a1.467,1.467,0,0,1-.637-.3c-.33-.2-.57-.4-.547-.442a1.467,1.467,0,0,1,.637.3C537.667,419.07,537.907,419.273,537.884,419.31Z" transform="translate(-128.951 -104.696)" fill="#354d1d"/>
      <path id="Trazado_613412" data-name="Trazado 613412" d="M538.94,418.042c-.015.045-.278,0-.592-.083s-.562-.2-.547-.255.277,0,.592.082.562.2.547.247Z" transform="translate(-129.227 -104.477)" fill="#354d1d"/>
      <path id="Trazado_613413" data-name="Trazado 613413" d="M538.974,416.127c.023.045-.262.225-.63.4s-.682.292-.7.247.262-.225.63-.4S538.952,416.082,538.974,416.127Z" transform="translate(-129.187 -104.084)" fill="#354d1d"/>
      <path id="Trazado_613414" data-name="Trazado 613414" d="M538.692,414.847a2.006,2.006,0,0,1-.645.57,1.432,1.432,0,0,1-.817.262,4.449,4.449,0,0,1,.735-.412,5.969,5.969,0,0,1,.727-.427Z" transform="translate(-129.084 -103.764)" fill="#354d1d"/>
      <path id="Trazado_613415" data-name="Trazado 613415" d="M536.061,418.161a3.218,3.218,0,0,1-.825.39,5.593,5.593,0,0,1-.967.225,2.221,2.221,0,0,1-.6.03.506.506,0,0,1-.322-.158.368.368,0,0,1-.03-.39,1.691,1.691,0,0,1,2.609-.03.646.646,0,0,1,.127.21,2.452,2.452,0,0,0-.712-.525,1.591,1.591,0,0,0-.922-.12,1.43,1.43,0,0,0-.952.532c-.083.157.038.292.225.307a2.757,2.757,0,0,0,.555-.022,6.49,6.49,0,0,0,.952-.187c.532-.15.847-.3.862-.27Z" transform="translate(-128.095 -104.461)" fill="#354d1d"/>
      <path id="Trazado_613416" data-name="Trazado 613416" d="M536.581,417.862a.982.982,0,0,1-.367-.525,1.455,1.455,0,0,1-.06-.712.929.929,0,0,1,.487-.75.361.361,0,0,1,.435.262,1.108,1.108,0,0,1,.038.435,2.709,2.709,0,0,1-.15.682c-.135.375-.292.57-.315.555s.09-.225.195-.592a3.089,3.089,0,0,0,.112-.66c.03-.225-.045-.577-.27-.517-.217.075-.33.382-.375.607a1.518,1.518,0,0,0,.022.645,3.1,3.1,0,0,0,.255.562Z" transform="translate(-128.81 -104.02)" fill="#354d1d"/>
      <path id="Trazado_613417" data-name="Trazado 613417" d="M553.631,408.55a5.647,5.647,0,0,0-.93.487,4.573,4.573,0,0,0-1.657,1.837,4.64,4.64,0,0,0-.42,2.445c.067.645.225,1.02.2,1.035a.9.9,0,0,1-.128-.255,3.35,3.35,0,0,1-.187-.757,4.325,4.325,0,0,1,2.145-4.4,3.463,3.463,0,0,1,.712-.315c.172-.053.277-.075.277-.06Z" transform="translate(-132.393 -102.191)" fill="#354d1d"/>
      <path id="Trazado_613418" data-name="Trazado 613418" d="M546.754,415.749a8.2,8.2,0,0,1-1.785,1.08,7.764,7.764,0,0,1-1.95.742c-.015-.045.847-.4,1.875-.9S546.724,415.7,546.754,415.749Z" transform="translate(-130.533 -103.991)" fill="#354d1d"/>
      <path id="Trazado_613419" data-name="Trazado 613419" d="M551.3,414.137c.045.015.015.21.023.442s.037.427,0,.442-.165-.172-.165-.442.1-.465.15-.45Z" transform="translate(-132.569 -103.587)" fill="#354d1d"/>
      <path id="Trazado_613420" data-name="Trazado 613420" d="M551.78,411.97c.045.015.023.187-.045.39s-.157.345-.2.33-.023-.187.045-.39S551.735,411.955,551.78,411.97Z" transform="translate(-132.656 -103.047)" fill="#354d1d"/>
      <path id="Trazado_613421" data-name="Trazado 613421" d="M553.121,410.382c.015.045-.157.127-.315.285s-.247.322-.292.307c-.045,0-.023-.24.172-.435S553.113,410.337,553.121,410.382Z" transform="translate(-132.902 -102.644)" fill="#354d1d"/>
      <path id="Trazado_613422" data-name="Trazado 613422" d="M554.351,409.436a.384.384,0,0,1-.1.225c-.09.09-.187.142-.218.1s.008-.135.1-.225S554.321,409.4,554.351,409.436Z" transform="translate(-133.285 -102.41)" fill="#354d1d"/>
      <path id="Trazado_613423" data-name="Trazado 613423" d="M516.565,211.921c-5.984-10.356-7.5-9.141-5.474-15.17l5.841-19.609-2.46-12.305a13.526,13.526,0,0,0-10.363-3.787l-12.208.84s-6.006-1.32-14.855,7.281l-6.126,5.721,7.716,14.645.382,6.644,5.564,18.169-1.485,8.009c-.645,6.1-8.848,76.014-7.731,77.124,1.162,1.155,18.252-7.4,22.391-3.907s12.47,5.639,17.172,4.132,11.75-10.866,18.867-4.552c0,0-2.325-62.029-17.247-83.235Z" transform="translate(-112.498 -40.276)" fill="#354d1d"/>
      <path id="Trazado_613424" data-name="Trazado 613424" d="M519.3,162.18s12.718,3.389,10.836,12.47c-.922,4.469-7.019,13.783-7.019,13.783L508.7,181.617l10.6-19.429Z" transform="translate(-121.948 -40.566)" fill="#354d1d"/>
      <path id="Trazado_613425" data-name="Trazado 613425" d="M487.194,236.025a11.936,11.936,0,0,1,2.152-1.522,12.327,12.327,0,0,1,6.921-1.71,10.051,10.051,0,0,1,4.769,1.417,9.22,9.22,0,0,1,3.719,4.312,7.075,7.075,0,0,1,.525,3.082,7.527,7.527,0,0,1-.937,3.119c-1.027,1.972-2.647,3.607-3.719,5.617a11.225,11.225,0,0,0-1.012,6.456c.135,2.152.465,4.3-.015,6.306a8.643,8.643,0,0,1-1.095,2.76,5.258,5.258,0,0,1-2.017,1.957,4.35,4.35,0,0,1-2.595.442,5.978,5.978,0,0,1-2.257-.862,17.733,17.733,0,0,1-3.1-2.692,29.107,29.107,0,0,0-2.31-2.032,14.439,14.439,0,0,0-1.6-1.095c-.382-.225-.6-.315-.592-.337,0,0,.06.015.165.052s.262.112.465.21a12.712,12.712,0,0,1,1.657,1.042,27.294,27.294,0,0,1,2.37,1.995,18.118,18.118,0,0,0,3.089,2.617,5.792,5.792,0,0,0,2.16.795,4.054,4.054,0,0,0,2.4-.427,4.951,4.951,0,0,0,1.882-1.852,8.305,8.305,0,0,0,1.035-2.655c.457-1.927.127-4.034-.015-6.2a17.889,17.889,0,0,1,.015-3.352,8.944,8.944,0,0,1,1.035-3.314c1.11-2.077,2.73-3.712,3.727-5.617a7.156,7.156,0,0,0,.907-2.969,6.758,6.758,0,0,0-.487-2.924,8.891,8.891,0,0,0-3.562-4.169,9.776,9.776,0,0,0-4.612-1.417,12.3,12.3,0,0,0-6.831,1.567,18.2,18.2,0,0,0-1.657,1.012c-.165.112-.307.21-.42.285-.1.06-.15.09-.15.09Z" transform="translate(-115.777 -58.224)" fill="#fafafa"/>
      <path id="Trazado_613426" data-name="Trazado 613426" d="M543.115,299.452a1.514,1.514,0,0,1-.2.045l-.585.1c-.517.083-1.275.2-2.25.33a51.846,51.846,0,0,1-8.361.562,25.484,25.484,0,0,1-5.751-.78A19,19,0,0,1,519.885,297a13.341,13.341,0,0,1-4.769-5.579,11.832,11.832,0,0,1-.637-7.829,9.451,9.451,0,0,1,1.942-3.554,24.108,24.108,0,0,1,2.917-2.595,16.66,16.66,0,0,0,2.692-2.527,7.538,7.538,0,0,0,1.455-3.157,39.751,39.751,0,0,0,.36-6.584,11.161,11.161,0,0,1,4.642-9.163,11.12,11.12,0,0,1,3.217-1.65,9.781,9.781,0,0,1,2.242-.45c.24-.007.435-.015.592-.022h.2a13.372,13.372,0,0,0-2.984.615,11.151,11.151,0,0,0-3.135,1.68,11.4,11.4,0,0,0-3.082,3.524,11.2,11.2,0,0,0-1.365,5.482,38.645,38.645,0,0,1-.33,6.651,7.808,7.808,0,0,1-1.515,3.307,16.685,16.685,0,0,1-2.745,2.595,23.117,23.117,0,0,0-2.872,2.557,9.03,9.03,0,0,0-1.86,3.4,11.5,11.5,0,0,0,.615,7.566,12.941,12.941,0,0,0,4.619,5.437,19.1,19.1,0,0,0,5.961,2.692,25.779,25.779,0,0,0,5.677.817,56.423,56.423,0,0,0,8.339-.442c.96-.112,1.717-.195,2.265-.262.24-.022.435-.045.592-.06a.592.592,0,0,1,.2-.008Z" transform="translate(-123.294 -63.506)" fill="#fafafa"/>
      <path id="Trazado_613427" data-name="Trazado 613427" d="M498.5,334.1a1.305,1.305,0,0,1,.255-.2,3.883,3.883,0,0,0,.727-.5c.262-.27.157-.772-.015-1.282a11.036,11.036,0,0,0-.817-1.687c-.682-1.23-1.485-2.707-2.475-4.282a24.135,24.135,0,0,0-3.749-4.687,13.847,13.847,0,0,0-5.047-3.134,9.89,9.89,0,0,0-4.807-.45,6.905,6.905,0,0,0-2.992,1.282c-.622.472-.915.8-.945.772a1.2,1.2,0,0,1,.195-.255,4.982,4.982,0,0,1,.66-.637,6.736,6.736,0,0,1,3.037-1.432,10.014,10.014,0,0,1,4.972.382,13.976,13.976,0,0,1,5.2,3.194,23.445,23.445,0,0,1,3.787,4.784c.982,1.6,1.762,3.089,2.415,4.342a10.031,10.031,0,0,1,.787,1.755,3.124,3.124,0,0,1,.142.787.825.825,0,0,1-.232.66,2.922,2.922,0,0,1-.8.472,1.5,1.5,0,0,1-.292.127Z" transform="translate(-114.429 -79.404)" fill="#fafafa"/>
      <path id="Trazado_613428" data-name="Trazado 613428" d="M524.664,219.649a1.428,1.428,0,0,1-.36.39,3.288,3.288,0,0,1-1.327.585,3.944,3.944,0,0,1-2.145-.18,4.584,4.584,0,0,1-2.07-1.635,6.7,6.7,0,0,1-1.095-4.552,5.413,5.413,0,0,1,.42-1.9c.06.015-.1.735-.142,1.912a6.9,6.9,0,0,0,1.14,4.3,4.382,4.382,0,0,0,1.882,1.53,3.816,3.816,0,0,0,1.972.24,4.726,4.726,0,0,0,1.732-.7Z" transform="translate(-124.182 -53.118)" fill="#fafafa"/>
      <path id="Trazado_613429" data-name="Trazado 613429" d="M526.37,186.332a1.563,1.563,0,0,1-.292.067,4.649,4.649,0,0,1-.855.03,5.613,5.613,0,0,1-2.932-1.1,5.217,5.217,0,0,1-1.447-1.65,5.356,5.356,0,0,1-.675-2.43,5.731,5.731,0,0,1,.562-2.73,10.757,10.757,0,0,1,1.815-2.34,5.683,5.683,0,0,0,.817-1.17,2.374,2.374,0,0,0,.217-1.3,7.973,7.973,0,0,0-1.095-2.4,4.084,4.084,0,0,1-.495-2.475,4,4,0,0,1,.847-2.032,3.92,3.92,0,0,1,2.774-1.417,3.351,3.351,0,0,1,.855.053c.2.045.285.075.285.09a7.581,7.581,0,0,0-1.125.015,3.719,3.719,0,0,0-2.812,5.6,8.125,8.125,0,0,1,1.155,2.52,2.689,2.689,0,0,1-.24,1.507,5.887,5.887,0,0,1-.87,1.26,10.739,10.739,0,0,0-1.77,2.25,5.441,5.441,0,0,0-.547,2.55,5.065,5.065,0,0,0,1.935,3.869,5.74,5.74,0,0,0,2.774,1.17c.72.082,1.125.022,1.132.06Z" transform="translate(-124.816 -41.367)" fill="#fafafa"/>
      <path id="Trazado_613430" data-name="Trazado 613430" d="M481.582,195.415a9.961,9.961,0,0,0,1.207.06,4.829,4.829,0,0,0,2.947-1.222,4.428,4.428,0,0,0,1.237-4.364,4.56,4.56,0,0,0-1.477-2.34,10.509,10.509,0,0,1-2.212-2.28,5.162,5.162,0,0,1-.5-3.157c.112-1.027.352-1.98.51-2.887a8.713,8.713,0,0,0,.157-2.572,3.9,3.9,0,0,0-.817-2.032,4.417,4.417,0,0,0-2.745-1.6,8.107,8.107,0,0,0-1.207-.045.86.86,0,0,1,.307-.082,3.8,3.8,0,0,1,.915-.022,4.431,4.431,0,0,1,2.939,1.575,4.139,4.139,0,0,1,.922,2.16,9.033,9.033,0,0,1-.12,2.677c-.15.922-.382,1.875-.487,2.865a4.817,4.817,0,0,0,.457,2.924,10.37,10.37,0,0,0,2.13,2.2,4.916,4.916,0,0,1,1.567,2.535,4.669,4.669,0,0,1-1.4,4.657,4.783,4.783,0,0,1-3.127,1.17,4.059,4.059,0,0,1-.907-.1c-.2-.06-.307-.09-.3-.1Z" transform="translate(-114.439 -43.237)" fill="#fafafa"/>
      <path id="Trazado_613431" data-name="Trazado 613431" d="M499.191,111.953a9.156,9.156,0,0,1,10.918,8.406c.09,1.44-.09,3.089.93,4.109.712.72,1.807.877,2.7,1.357a4.138,4.138,0,0,1,1.83,4.949c-.345.9-1,1.65-1.342,2.55a6.836,6.836,0,0,0-.5,4.207c2.092,7.116-2.954,7.994-5.647,8.473-3.794.667-7.641-.54-8.031-4.507-.127-1.282-2.407-1.14-3.689-.967-1.545.2-2.677,1.47-3.8,2.542a12.915,12.915,0,0,1-6.216,3.524,7.4,7.4,0,0,1-6.7-1.815,5.236,5.236,0,0,1-.607-6.614,6.566,6.566,0,0,1-2.482-10c.922-1.192,2.257-2.077,2.917-3.434.555-1.147,1.155-3.764,1.59-4.964.615-1.7,2.722-4.619,4.349-5.414" transform="translate(-113.564 -27.96)" fill="#354d1d"/>
      <path id="Trazado_613432" data-name="Trazado 613432" d="M508.8,152.008l-14.083.2c-.24-1.627-.72-7.949-.72-7.949s-5.9-.36-6.516-6.164-.87-19.257-.87-19.257a20.3,20.3,0,0,1,20.546.637l.922.585Z" transform="translate(-116.423 -29.105)" fill="#d89377"/>
      <path id="Trazado_613433" data-name="Trazado 613433" d="M495.117,137.964a3.847,3.847,0,0,0-1.32-.15c-.21,0-.382-.037-.4-.142a1.12,1.12,0,0,1,.09-.615c.157-.547.315-1.1.48-1.687a22.147,22.147,0,0,0,.967-4.409,22.8,22.8,0,0,0-1.41,4.289c-.15.585-.3,1.147-.442,1.695a1.351,1.351,0,0,0-.03.885.551.551,0,0,0,.39.3,1.531,1.531,0,0,0,.36.015,3.688,3.688,0,0,0,1.32-.172Z" transform="translate(-118.016 -32.757)" fill="#354d1d"/>
      <path id="Trazado_613434" data-name="Trazado 613434" d="M496.44,152.495a13.574,13.574,0,0,0,7.379-2.865s-1.395,4.357-7.251,4.379l-.128-1.507Z" transform="translate(-118.882 -37.427)" fill="#bf7a62"/>
      <path id="Trazado_613435" data-name="Trazado 613435" d="M501.18,131.972a.743.743,0,0,1-.727.727.7.7,0,0,1-.742-.682.743.743,0,0,1,.727-.727.71.71,0,0,1,.75.682Z" transform="translate(-119.7 -32.84)" fill="#354d1d"/>
      <path id="Trazado_613436" data-name="Trazado 613436" d="M502.321,130.86c-.09.1-.645-.33-1.432-.345s-1.38.367-1.462.27c-.045-.045.052-.217.315-.4a2.053,2.053,0,0,1,1.177-.337,1.918,1.918,0,0,1,1.14.4c.24.195.322.367.27.412Z" transform="translate(-119.626 -32.53)" fill="#354d1d"/>
      <path id="Trazado_613437" data-name="Trazado 613437" d="M490.35,131.942a.743.743,0,0,1-.727.727.7.7,0,0,1-.742-.682.743.743,0,0,1,.727-.727.711.711,0,0,1,.75.682Z" transform="translate(-116.991 -32.832)" fill="#354d1d"/>
      <path id="Trazado_613438" data-name="Trazado 613438" d="M491.282,131.02c-.09.1-.645-.33-1.432-.345s-1.38.367-1.462.27c-.038-.045.052-.217.315-.4a2.052,2.052,0,0,1,1.177-.337,1.918,1.918,0,0,1,1.14.4c.24.195.322.367.27.412Z" transform="translate(-116.865 -32.57)" fill="#354d1d"/>
      <path id="Trazado_613439" data-name="Trazado 613439" d="M497.567,142.355a1.615,1.615,0,0,1-.127-.592.519.519,0,0,1,.315-.48c.135-.045.3-.015.42-.1.165-.1.165-.352.255-.525a.648.648,0,0,1,.7-.285,1.341,1.341,0,0,1,.675.42,1.243,1.243,0,0,1,.42.8.968.968,0,0,1-.435.765,2.013,2.013,0,0,1-.855.3,4.862,4.862,0,0,1-.99.037.578.578,0,0,1-.277-.06.238.238,0,0,1-.135-.232" transform="translate(-119.132 -35.109)" fill="#bf7a62"/>
      <path id="Trazado_613440" data-name="Trazado 613440" d="M496.85,142.43a3.736,3.736,0,0,0,3.014-2.25Z" transform="translate(-118.984 -35.064)" fill="#bf7a62"/>
      <path id="Trazado_613441" data-name="Trazado 613441" d="M499.864,140.167c.1.015-.142.99-1.087,1.687a2.259,2.259,0,0,1-1.927.562,13.448,13.448,0,0,0,1.695-.877c.847-.615,1.215-1.425,1.32-1.38Z" transform="translate(-118.984 -35.058)" fill="#354d1d"/>
      <path id="Trazado_613442" data-name="Trazado 613442" d="M488.41,128.323a3.39,3.39,0,0,1,2.175-.24Z" transform="translate(-116.873 -32.017)" fill="#bf7a62"/>
      <path id="Trazado_613443" data-name="Trazado 613443" d="M490.579,127.956c-.06.21-.532.262-1.065.33s-1,.1-1.11-.09.322-.615,1.02-.69,1.215.247,1.147.45Z" transform="translate(-116.868 -31.891)" fill="#354d1d"/>
      <path id="Trazado_613444" data-name="Trazado 613444" d="M499.31,128.437a4.135,4.135,0,0,1,3.067.165Z" transform="translate(-119.6 -32.071)" fill="#bf7a62"/>
      <path id="Trazado_613445" data-name="Trazado 613445" d="M502.374,128.471c-.1.195-.757.045-1.537.008-.78-.053-1.447.03-1.53-.18-.09-.187.6-.66,1.575-.6s1.6.592,1.5.772Z" transform="translate(-119.597 -31.94)" fill="#354d1d"/>
      <path id="Trazado_613446" data-name="Trazado 613446" d="M498.706,111.309a4.618,4.618,0,0,0-3.329-1.59,10.916,10.916,0,0,0-9.973,4.522c-1.282,1.845-1.935,4.417-.735,6.314a3.926,3.926,0,0,0,7.086-.99,3.282,3.282,0,1,0,6.554-.3,5.932,5.932,0,0,0,2.085,2.984,2.307,2.307,0,0,0,3.224-.615c.66.78,1.582,1.575,2.572,1.335a2.008,2.008,0,0,0,1.342-2.01,5.129,5.129,0,0,0-.855-2.437c-1.92-3.344-4.762-6.419-8.481-7.431" transform="translate(-115.779 -27.429)" fill="#354d1d"/>
      <path id="Trazado_613447" data-name="Trazado 613447" d="M509,121.322a10.446,10.446,0,0,1,.075,10.131,16.928,16.928,0,0,0-1.6,2.939,2.784,2.784,0,0,0,.682,3.067c.547.412,1.387.615,1.515,1.29a1.758,1.758,0,0,1-.21.982,6.622,6.622,0,0,0-.172,4.222,3.647,3.647,0,0,0,2.49,3.022c1.087.487,1.672,1.312,4.019.7,4.109-1.057,2.662-10.236,2.272-14.465s-2.355-11.75-4.724-15.275" transform="translate(-121.6 -29.501)" fill="#354d1d"/>
      <path id="Trazado_613448" data-name="Trazado 613448" d="M496.243,159.942s-4.259,15.9-1.545,14.33,15.89-12.05,15.89-12.05l-6.666-5.032-7.686,2.752Z" transform="translate(-118.22 -39.318)" fill="#d89377"/>
      <path id="Trazado_613449" data-name="Trazado 613449" d="M441.713,193.846c-.472-1.56-6.366-4.769-5.474-5.632,1.162-1.125,6,3.629,6.441,4,.427.36.975-.262.562-.577-.592-.45-6.719-5.347-5.587-6.471.63-.622,1.612.645,1.612.645s5.406,5.017,5.916,4.469-2.55-3.607-3.659-4.567c-1.095-.945-1.1-1.86-.3-2.01.547-.1,4.012,2.737,5.084,3.712s3.974,3.682,3.6,1.155a.352.352,0,0,0-.015-.12c-.435-2.475.052-4.529.592-5.032a.946.946,0,0,1,1.38,1.065,1.4,1.4,0,0,0-.03.187,12.232,12.232,0,0,0,.165,2.572,6.81,6.81,0,0,0,.7,2.19q.63,1.181,1.147,2c3.944,2.19,15.275,7.964,26.643,8.871,2.055.165,11.121-14.15,11.121-14.15l13.475,6.374a131.48,131.48,0,0,1-10.738,16.94c-11.376,15.455-46.934-10.3-46.934-10.3l-.33-.165a81.8,81.8,0,0,1-7.859-4.439c-3.06-2.16-2.872-2.445-2.572-2.767.817-.862,5.519,3.592,5.047,2.04Z" transform="translate(-103.8 -45.829)" fill="#d89377"/>
      <path id="Trazado_613450" data-name="Trazado 613450" d="M166.73,415.139l-.075-6.149-11.525.06v9.006l.727.045c3.179.157,16.19.592,18.312-.068,2.37-.735-7.439-2.887-7.439-2.887Z" transform="translate(-33.509 -102.302)" fill="#354d1d"/>
      <path id="Trazado_613451" data-name="Trazado 613451" d="M154.925,420.7a1.376,1.376,0,0,0,.195.022c.172.008.36.023.57.03.57.022,1.267.052,2.092.082,1.77.053,4.214.1,6.914.09s5.152-.075,6.914-.142c.825-.037,1.522-.068,2.092-.1.21-.015.4-.022.57-.038a.672.672,0,0,0,.195-.022h-.2c-.172,0-.36,0-.57.008-.57.015-1.267.03-2.092.052-1.77.045-4.214.09-6.914.1s-5.144-.015-6.914-.045c-.825-.015-1.53-.03-2.092-.037h-.57a.882.882,0,0,0-.2.007Z" transform="translate(-33.454 -105.211)" fill="#354d1d"/>
      <path id="Trazado_613452" data-name="Trazado 613452" d="M175.634,420.446a4.865,4.865,0,0,1,.39-1,4.486,4.486,0,0,1,.712-.8,1.872,1.872,0,0,0-1.1,1.807Z" transform="translate(-38.633 -104.714)" fill="#354d1d"/>
      <path id="Trazado_613453" data-name="Trazado 613453" d="M171.088,418.449a2.419,2.419,0,0,0,.36-.442c.165-.262.277-.495.24-.517s-.195.18-.36.442S171.05,418.427,171.088,418.449Z" transform="translate(-37.499 -104.427)" fill="#354d1d"/>
      <path id="Trazado_613454" data-name="Trazado 613454" d="M169.849,417.893a1.6,1.6,0,0,0,.4-.27c.195-.18.337-.345.307-.375s-.21.09-.4.27S169.819,417.863,169.849,417.893Z" transform="translate(-37.19 -104.366)" fill="#354d1d"/>
      <path id="Trazado_613455" data-name="Trazado 613455" d="M169.05,416.648a1.33,1.33,0,0,0,.6.075,1.393,1.393,0,0,0,.6-.067,1.329,1.329,0,0,0-.6-.075A1.393,1.393,0,0,0,169.05,416.648Z" transform="translate(-36.991 -104.2)" fill="#354d1d"/>
      <path id="Trazado_613456" data-name="Trazado 613456" d="M168.78,415.636a1.69,1.69,0,0,0,.675.195,1.128,1.128,0,0,0,.69-.1,4.138,4.138,0,0,0-.682-.045A4.082,4.082,0,0,0,168.78,415.636Z" transform="translate(-36.923 -103.961)" fill="#354d1d"/>
      <path id="Trazado_613457" data-name="Trazado 613457" d="M171.61,417.073a2.624,2.624,0,0,0,.742-.008,4.268,4.268,0,0,0,.787-.18,2.213,2.213,0,0,0,.45-.187.382.382,0,0,0,.18-.232.287.287,0,0,0-.112-.292,1.364,1.364,0,0,0-1.68.4,1.332,1.332,0,0,0-.24.495c-.03.127-.03.2-.015.2a1.824,1.824,0,0,1,.337-.63,1.343,1.343,0,0,1,.63-.412,1.17,1.17,0,0,1,.885.052c.12.09.075.225-.06.3a2.019,2.019,0,0,1-.412.18,4.672,4.672,0,0,1-.765.2C171.895,417.05,171.61,417.05,171.61,417.073Z" transform="translate(-37.631 -104.063)" fill="#354d1d"/>
      <path id="Trazado_613458" data-name="Trazado 613458" d="M171.548,416.992a.818.818,0,0,0,.082-.517,1.2,1.2,0,0,0-.2-.54.743.743,0,0,0-.615-.375.291.291,0,0,0-.225.345.867.867,0,0,0,.127.33,2.29,2.29,0,0,0,.352.45,1.082,1.082,0,0,0,.427.3c.015-.015-.15-.135-.352-.367a2.819,2.819,0,0,1-.315-.442c-.1-.157-.172-.435.015-.472.187-.015.375.165.487.315a1.162,1.162,0,0,1,.21.48,2.376,2.376,0,0,1,.015.5Z" transform="translate(-37.374 -103.945)" fill="#354d1d"/>
      <path id="Trazado_613459" data-name="Trazado 613459" d="M155.23,416.486a4.969,4.969,0,0,1,.855.022,3.666,3.666,0,0,1,1.86.757,3.757,3.757,0,0,1,1.17,1.635c.18.495.195.825.225.825a.62.62,0,0,0,0-.232,3.489,3.489,0,0,0-3.247-3.074,3.193,3.193,0,0,0-.637.022.708.708,0,0,0-.225.052Z" transform="translate(-33.534 -104.158)" fill="#354d1d"/>
      <path id="Trazado_613460" data-name="Trazado 613460" d="M156.76,410.11a21.5,21.5,0,0,0-.09,2.37,21.05,21.05,0,0,0,.053,2.37,21.5,21.5,0,0,0,.09-2.37A21.055,21.055,0,0,0,156.76,410.11Z" transform="translate(-33.894 -102.582)" fill="#354d1d"/>
      <path id="Trazado_613461" data-name="Trazado 613461" d="M162.648,419.4a9.1,9.1,0,0,0,1.68.157,6.855,6.855,0,0,0,1.687-.142c0-.037-.757.008-1.687,0s-1.68-.06-1.687-.022Z" transform="translate(-35.387 -104.901)" fill="#354d1d"/>
      <path id="Trazado_613462" data-name="Trazado 613462" d="M159.64,419.418s.06.157.142.33.12.322.157.322.06-.18-.03-.382S159.67,419.388,159.64,419.418Z" transform="translate(-34.637 -104.909)" fill="#354d1d"/>
      <path id="Trazado_613463" data-name="Trazado 613463" d="M158.5,418.008a.72.72,0,0,0,.165.27c.12.12.24.2.27.165s-.045-.15-.165-.27S158.53,417.978,158.5,418.008Z" transform="translate(-34.352 -104.556)" fill="#354d1d"/>
      <path id="Trazado_613464" data-name="Trazado 613464" d="M156.87,417.358c.007.038.165.038.33.1s.292.15.322.12-.067-.187-.277-.255S156.855,417.32,156.87,417.358Z" transform="translate(-33.944 -104.378)" fill="#354d1d"/>
      <path id="Trazado_613465" data-name="Trazado 613465" d="M155.71,417.071a.325.325,0,0,0,.15.135c.1.037.187.037.195,0s-.052-.1-.15-.135S155.717,417.033,155.71,417.071Z" transform="translate(-33.654 -104.316)" fill="#354d1d"/>
      <path id="Trazado_613466" data-name="Trazado 613466" d="M77.331,401.553l3.254-5.219-9.741-6.164L66,397.759l.577.42c2.595,1.852,13.318,9.223,15.462,9.816C84.432,408.654,77.331,401.553,77.331,401.553Z" transform="translate(-11.215 -97.594)" fill="#354d1d"/>
      <path id="Trazado_613467" data-name="Trazado 613467" d="M66,399.88s.052.045.157.127c.142.1.292.21.465.33.465.322,1.042.727,1.725,1.2,1.462,1,3.494,2.355,5.781,3.8s4.379,2.715,5.9,3.607c.712.412,1.32.765,1.815,1.05.187.1.352.195.495.277a1.607,1.607,0,0,0,.18.09,1.329,1.329,0,0,0-.165-.112c-.142-.09-.307-.187-.487-.3-.487-.292-1.087-.66-1.792-1.087-1.515-.915-3.6-2.2-5.879-3.644s-4.327-2.79-5.8-3.764c-.69-.457-1.275-.847-1.747-1.162-.18-.112-.337-.217-.48-.315A.976.976,0,0,0,66,399.88Z" transform="translate(-11.215 -100.023)" fill="#354d1d"/>
      <path id="Trazado_613468" data-name="Trazado 613468" d="M83.269,411a3.057,3.057,0,0,1,.862-.637,4.119,4.119,0,0,1,1.035-.292,1.87,1.87,0,0,0-1.9.93Z" transform="translate(-15.533 -102.562)" fill="#354d1d"/>
      <path id="Trazado_613469" data-name="Trazado 613469" d="M80.67,406.784a2.254,2.254,0,0,0,.54-.18c.285-.135.5-.27.487-.307s-.262.045-.54.18S80.655,406.747,80.67,406.784Z" transform="translate(-14.884 -101.626)" fill="#354d1d"/>
      <path id="Trazado_613470" data-name="Trazado 613470" d="M79.97,405.657c0,.037.225.03.487-.015s.472-.113.465-.15-.225-.03-.487.015S79.962,405.62,79.97,405.657Z" transform="translate(-14.709 -101.421)" fill="#354d1d"/>
      <path id="Trazado_613471" data-name="Trazado 613471" d="M80.08,404.078a2.948,2.948,0,0,0,.465.39,1.327,1.327,0,0,0,.54.27c.023-.03-.187-.2-.465-.39A1.458,1.458,0,0,0,80.08,404.078Z" transform="translate(-14.737 -101.072)" fill="#354d1d"/>
      <path id="Trazado_613472" data-name="Trazado 613472" d="M80.4,403.069a1.693,1.693,0,0,0,.465.525,1.164,1.164,0,0,0,.637.292c.015-.038-.255-.18-.555-.4A4.535,4.535,0,0,0,80.4,403.069Z" transform="translate(-14.817 -100.82)" fill="#354d1d"/>
      <path id="Trazado_613473" data-name="Trazado 613473" d="M81.825,405.989a2.607,2.607,0,0,0,.63.39,5.1,5.1,0,0,0,.757.277,1.885,1.885,0,0,0,.48.082.373.373,0,0,0,.277-.1.279.279,0,0,0,.06-.307,1.356,1.356,0,0,0-1.635-.562,1.385,1.385,0,0,0-.465.285c-.09.09-.127.15-.12.158a2.055,2.055,0,0,1,.622-.352,1.292,1.292,0,0,1,.757-.008,1.146,1.146,0,0,1,.712.525c.052.135-.06.233-.21.225a2.349,2.349,0,0,1-.45-.075,5.537,5.537,0,0,1-.75-.24C82.072,406.117,81.84,405.967,81.825,405.989Z" transform="translate(-15.169 -101.475)" fill="#354d1d"/>
      <path id="Trazado_613474" data-name="Trazado 613474" d="M81.92,405.727a.843.843,0,0,0,.345-.39,1.177,1.177,0,0,0,.12-.562.753.753,0,0,0-.322-.652.292.292,0,0,0-.375.165.744.744,0,0,0-.067.345,2.99,2.99,0,0,0,.052.562,1.085,1.085,0,0,0,.195.48c.022-.007-.052-.195-.1-.495a2.451,2.451,0,0,1-.022-.54c0-.187.09-.465.262-.39s.225.345.247.525a1.124,1.124,0,0,1-.082.517,2.941,2.941,0,0,1-.255.427Z" transform="translate(-15.122 -101.078)" fill="#354d1d"/>
      <path id="Trazado_613475" data-name="Trazado 613475" d="M68.52,396.49a4.7,4.7,0,0,1,.7.48,3.7,3.7,0,0,1,1.162,1.642,3.766,3.766,0,0,1,.1,2.01c-.112.51-.277.8-.255.81a1.231,1.231,0,0,0,.127-.195,2.907,2.907,0,0,0,.225-.592,3.609,3.609,0,0,0-.067-2.077,3.571,3.571,0,0,0-1.23-1.672,2.884,2.884,0,0,0-.547-.322.684.684,0,0,0-.217-.075Z" transform="translate(-11.845 -99.175)" fill="#354d1d"/>
      <path id="Trazado_613476" data-name="Trazado 613476" d="M72.427,391.94s-.637.847-1.35,1.95a21.006,21.006,0,0,0-1.237,2.025,19.607,19.607,0,0,0,1.35-1.95A21,21,0,0,0,72.427,391.94Z" transform="translate(-12.175 -98.037)" fill="#354d1d"/>
      <path id="Trazado_613477" data-name="Trazado 613477" d="M73.21,402.94a9.6,9.6,0,0,0,1.335,1.042,6.518,6.518,0,0,0,1.5.787c.015-.038-.645-.4-1.417-.907s-1.38-.952-1.41-.922Z" transform="translate(-13.018 -100.788)" fill="#354d1d"/>
      <path id="Trazado_613478" data-name="Trazado 613478" d="M70.633,401.32c-.037.008-.03.165-.06.352s-.075.337-.037.36.15-.12.18-.337-.045-.382-.075-.375Z" transform="translate(-12.346 -100.383)" fill="#354d1d"/>
      <path id="Trazado_613479" data-name="Trazado 613479" d="M70.451,399.52c-.037.008-.037.15,0,.315s.1.292.135.285.037-.15,0-.315S70.488,399.512,70.451,399.52Z" transform="translate(-12.321 -99.933)" fill="#354d1d"/>
      <path id="Trazado_613480" data-name="Trazado 613480" d="M69.438,398.106s.112.12.225.262.165.285.2.277.045-.2-.1-.367-.33-.21-.337-.172Z" transform="translate(-12.073 -99.576)" fill="#354d1d"/>
      <path id="Trazado_613481" data-name="Trazado 613481" d="M68.62,397.228a.4.4,0,0,0,.052.187c.06.082.135.127.165.1s0-.1-.053-.187S68.65,397.206,68.62,397.228Z" transform="translate(-11.87 -99.358)" fill="#354d1d"/>
      <path id="Trazado_613482" data-name="Trazado 613482" d="M122.11,244.467s9.778,64.969,8.354,68.11S83.387,365.93,83.387,365.93L66.56,354.78s39.878-50.211,39.578-51.418-15.11-64.121-15.11-64.121Z" transform="translate(-11.355 -59.842)" fill="#354d1d"/>
      <path id="Trazado_613483" data-name="Trazado 613483" d="M91.32,238.05l-.592,2.415A28.356,28.356,0,0,0,93.712,261.4l26.515,45.967a37.112,37.112,0,0,1,4.064,10.446L136.26,370.9h18.469c0,1.1-4.777-43.732-7.169-58.625-1.807-11.233-16.835-46.094-24.116-62.561l4.514-5.549-7.836-1.3-28.795-4.807Z" transform="translate(-17.196 -59.544)" fill="#354d1d"/>
      <path id="Trazado_613484" data-name="Trazado 613484" d="M135.386,253.44a5.876,5.876,0,0,1,.4.727c.24.48.57,1.185.967,2.062.795,1.747,1.837,4.192,2.9,6.921s1.942,5.242,2.542,7.064c.3.915.532,1.657.675,2.175a3.686,3.686,0,0,1,.195.817,3.744,3.744,0,0,1-.337-.765c-.217-.585-.48-1.29-.795-2.13-.66-1.8-1.582-4.289-2.647-7.011s-2.062-5.182-2.79-6.959c-.337-.825-.622-1.53-.855-2.107a3.714,3.714,0,0,1-.27-.795Z" transform="translate(-28.568 -63.393)" fill="#354d1d"/>
      <path id="Trazado_613485" data-name="Trazado 613485" d="M131.029,340.622s-.052-.18-.12-.517c-.067-.382-.157-.877-.27-1.492-.052-.33-.12-.69-.187-1.08-.09-.39-.18-.817-.285-1.275-.2-.915-.412-1.957-.742-3.082-.157-.57-.315-1.162-.48-1.777-.195-.615-.4-1.245-.607-1.9-.4-1.327-.945-2.7-1.47-4.162-1.14-2.895-2.527-6.021-4.139-9.223a173.748,173.748,0,0,0-9.321-15.845c-1.282-1.935-2.325-3.517-3.074-4.649-.345-.525-.622-.945-.832-1.267a3.116,3.116,0,0,1-.27-.457,2.759,2.759,0,0,1,.33.412c.225.315.525.72.892,1.222.772,1.065,1.867,2.632,3.179,4.582a154.2,154.2,0,0,1,9.441,15.822c1.62,3.217,3.007,6.359,4.132,9.268.517,1.47,1.057,2.857,1.44,4.192.2.66.4,1.3.585,1.92.157.622.315,1.222.465,1.792.315,1.14.51,2.19.69,3.112.09.457.172.885.255,1.282.052.4.1.757.15,1.087.082.622.142,1.125.195,1.507a4.552,4.552,0,0,1,.045.525Z" transform="translate(-22.028 -73.511)" fill="#354d1d"/>
      <path id="Trazado_613486" data-name="Trazado 613486" d="M86.534,400.912a6.722,6.722,0,0,1-.772-.255,19.73,19.73,0,0,1-2.01-.922,46.133,46.133,0,0,1-6.1-3.967c-2.272-1.695-4.319-3.239-5.864-4.259s-2.542-1.59-2.512-1.65a2.99,2.99,0,0,1,.742.33c.472.225,1.125.6,1.92,1.087,1.59.967,3.674,2.482,5.946,4.177a59.226,59.226,0,0,0,6,4.034c1.6.915,2.67,1.357,2.647,1.417Z" transform="translate(-12.035 -97.516)" fill="#354d1d"/>
      <path id="Trazado_613487" data-name="Trazado 613487" d="M169.807,411.41a7.166,7.166,0,0,1-.765.045c-.577,0-1.275-.008-2.085-.015-1.86-.015-4.244-.037-6.884-.06-2.64.015-5.024.03-6.884.045-.81,0-1.507,0-2.085.008a2.563,2.563,0,0,1-.765-.045,2.939,2.939,0,0,1,.765-.1c.495-.045,1.207-.09,2.085-.135,1.762-.09,4.2-.157,6.891-.157s5.129.082,6.891.172c.877.045,1.59.1,2.085.143a3.411,3.411,0,0,1,.765.1Z" transform="translate(-32.311 -102.802)" fill="#354d1d"/>
      <path id="Trazado_613488" data-name="Trazado 613488" d="M105.067,139.607a8.349,8.349,0,0,1-4.747-.72,4.481,4.481,0,0,1-2.5-3.884,14.577,14.577,0,0,0,.285-2.827,8.947,8.947,0,0,0-1.3-2.535,5.265,5.265,0,0,1,1.41-6.434c.982-.75,2.235-1.14,3.059-2.062.975-1.087,1.132-2.662,1.725-4a6.457,6.457,0,0,1,4.814-3.689,20.352,20.352,0,0,0,3.457-.42,11.816,11.816,0,0,0,2.557-1.522,11.816,11.816,0,0,1,8.818-1.65,7.076,7.076,0,0,1,3.577,1.762c1.072,1.065,2.452,2.22,2.842,3.674.457,1.725-.1,3.884-.562,5.6a4.614,4.614,0,0,1-3.614,3.5" transform="translate(-18.779 -27.419)" fill="#354d1d"/>
      <path id="Trazado_613489" data-name="Trazado 613489" d="M107.5,155.4l14.083.2c.24-1.627.72-7.949.72-7.949s5.9-.36,6.516-6.164.87-19.257.87-19.257a20.3,20.3,0,0,0-20.546.637l-.922.585Z" transform="translate(-21.595 -29.953)" fill="#ffbe9d"/>
      <path id="Trazado_613490" data-name="Trazado 613490" d="M127.87,141.354a3.848,3.848,0,0,1,1.32-.15c.21,0,.382-.037.4-.142a1.12,1.12,0,0,0-.09-.615c-.157-.547-.315-1.1-.48-1.687a22.151,22.151,0,0,1-.967-4.409,22.8,22.8,0,0,1,1.41,4.289c.15.585.3,1.147.442,1.695a1.351,1.351,0,0,1,.03.885.551.551,0,0,1-.39.3,1.532,1.532,0,0,1-.36.015,3.688,3.688,0,0,1-1.32-.172Z" transform="translate(-26.69 -33.605)" fill="#354d1d"/>
      <path id="Trazado_613491" data-name="Trazado 613491" d="M124.809,155.895a13.574,13.574,0,0,1-7.379-2.865s1.395,4.357,7.251,4.379l.127-1.507Z" transform="translate(-24.079 -38.278)" fill="#eb996e"/>
      <path id="Trazado_613492" data-name="Trazado 613492" d="M107.3,132.832c-.112-.045-3.982-.675-3.764,3.914s4.784,2.857,4.792,2.722-1.027-6.644-1.027-6.644Z" transform="translate(-20.602 -33.212)" fill="#ffbe9d"/>
      <path id="Trazado_613493" data-name="Trazado 613493" d="M107.234,138.44a1.287,1.287,0,0,1-.21.127.782.782,0,0,1-.6.037,2,2,0,0,1-1-1.732,2.621,2.621,0,0,1,.172-1.155.944.944,0,0,1,.57-.645.4.4,0,0,1,.48.195c.067.127.045.217.067.225s.1-.082.053-.27a.5.5,0,0,0-.195-.277.632.632,0,0,0-.45-.1,1.13,1.13,0,0,0-.8.75,2.709,2.709,0,0,0-.217,1.3,2.087,2.087,0,0,0,1.26,1.927.873.873,0,0,0,.727-.157c.135-.12.157-.225.142-.232Z" transform="translate(-20.992 -33.728)" fill="#eb996e"/>
      <path id="Trazado_613494" data-name="Trazado 613494" d="M120.895,132.363c-.06-.082.045-.3.345-.525a2.677,2.677,0,0,1,2.767-.187c.322.187.465.39.412.48-.112.187-.862-.067-1.77.015-.915.052-1.62.4-1.755.232Z" transform="translate(-24.942 -32.855)" fill="#354d1d"/>
      <path id="Trazado_613495" data-name="Trazado 613495" d="M131.769,132.592c-.037-.21.592-.5,1.417-.5s1.455.3,1.41.51-.667.277-1.417.277S131.807,132.81,131.769,132.592Z" transform="translate(-27.665 -33.04)" fill="#354d1d"/>
      <path id="Trazado_613496" data-name="Trazado 613496" d="M106.62,123.548c.217,1.41.435,2.827.652,4.237a3.549,3.549,0,0,0,.675,1.875,2.523,2.523,0,0,0,3.074.195,7.369,7.369,0,0,0,2.767-3.892,12.063,12.063,0,0,1,2.257-4.274,5.608,5.608,0,0,0,6.456,1.192c.937-.472,1.717-1.2,2.617-1.74a3.419,3.419,0,0,1,2.992-.48c.532.217,1.012.66,1.582.63a1.3,1.3,0,0,0,1.035-.712,2.187,2.187,0,0,0,.187-1.275,5.025,5.025,0,0,0-2.992-3.637,15.564,15.564,0,0,0-6.839-1.177,26.3,26.3,0,0,0-6.6.652A11.409,11.409,0,0,0,108.8,118.4a7.35,7.35,0,0,0-1.882,6.134" transform="translate(-21.375 -28.638)" fill="#354d1d"/>
      <path id="Trazado_613497" data-name="Trazado 613497" d="M130.917,119.584a6.922,6.922,0,0,0,2.212,3.839,2.972,2.972,0,0,0,1.942.87,2.411,2.411,0,0,0,2.122-2.407,4.57,4.57,0,0,0-1.44-3.142,4.365,4.365,0,0,0-2.924-1.545,2.235,2.235,0,0,0-2.34,1.965" transform="translate(-27.346 -29.315)" fill="#354d1d"/>
      <path id="Trazado_613498" data-name="Trazado 613498" d="M122.028,135.372a.743.743,0,0,0,.727.727.7.7,0,0,0,.742-.682.743.743,0,0,0-.727-.727.711.711,0,0,0-.75.682Z" transform="translate(-25.227 -33.69)" fill="#354d1d"/>
      <path id="Trazado_613499" data-name="Trazado 613499" d="M120.4,134.26c.09.1.645-.33,1.432-.345s1.38.367,1.462.27c.045-.045-.052-.217-.315-.4a2.053,2.053,0,0,0-1.177-.337,1.918,1.918,0,0,0-1.14.4c-.24.195-.322.367-.27.412Z" transform="translate(-24.817 -33.38)" fill="#354d1d"/>
      <path id="Trazado_613500" data-name="Trazado 613500" d="M132.857,135.332a.743.743,0,0,0,.727.727.7.7,0,0,0,.742-.682.743.743,0,0,0-.727-.727.711.711,0,0,0-.75.682Z" transform="translate(-27.936 -33.68)" fill="#354d1d"/>
      <path id="Trazado_613501" data-name="Trazado 613501" d="M131.442,134.42c.09.1.645-.33,1.432-.345s1.38.367,1.462.27c.037-.045-.052-.217-.315-.4a2.052,2.052,0,0,0-1.177-.337,1.918,1.918,0,0,0-1.14.4c-.24.195-.322.367-.27.412Z" transform="translate(-27.578 -33.42)" fill="#354d1d"/>
      <path id="Trazado_613502" data-name="Trazado 613502" d="M126.835,146.072c.007.045-.195.142-.555.12a1.913,1.913,0,0,1-1.237-.585,1.959,1.959,0,0,1-.532-1.26c0-.352.1-.555.142-.547.1,0,.022.862.667,1.537s1.507.63,1.5.735Z" transform="translate(-25.85 -35.969)" fill="#354d1d"/>
      <path id="Trazado_613503" data-name="Trazado 613503" d="M131.124,185.584l11.705-3.914s8.151,19.272,10.243,19.467c11.615,1.057,24.048-2.789,28.4-4.312.442-.495.945-1.095,1.507-1.822a7.113,7.113,0,0,0,1.095-2.085,10.4,10.4,0,0,0,.622-2.872.913.913,0,0,1,1.567-.72c.5.645.63,3.142-.517,5.819s2.909.547,4.4-.2,6.224-2.849,6.816-2.58c.87.4.6,1.417-.915,2.13s-5.879,3.172-5.444,3.944c.427.757,7.979-3.164,7.979-3.164s1.477-1.1,2.01-.225c.96,1.575-7.371,5.152-8.174,5.474-.555.225-.112,1.08.472.8s7.439-4.087,8.429-2.49c.757,1.222-6.824,3.007-7.806,4.582s5.617-1.935,6.291-.742c.255.442.382.81-3.7,2.287a87.624,87.624,0,0,1-9.088,2.325l.015.045s-41.985,18.784-49.529.66c-7.694-18.469-6.381-22.391-6.381-22.391Z" transform="translate(-27.485 -45.441)" fill="#eb996e"/>
      <path id="Trazado_613504" data-name="Trazado 613504" d="M135.4,183.1c-4.687-10.971-10.821-15.267-14.06-16.857a9.38,9.38,0,0,0-3.622-.93l-.39-1.882L101.81,162.04l-.382,2.4-2.28-.12s-13.385,1.342-13.408,16.842c-.008,7.251,3.907,14.307,5.287,17.764.862,7.229-2.242,20.344-2.16,23.538l38.041,2.7,1.612-23.778-.352-2.227,12.523-3.832-5.279-12.208Z" transform="translate(-16.152 -40.531)" fill="#ebebeb"/>
      <path id="Trazado_613505" data-name="Trazado 613505" d="M230.25,114.7a44.186,44.186,0,1,0-63.424,61.047l-38.686,45.4,5.549,4.732L172.7,180.091a44.024,44.024,0,0,0,18.454,6.306,44.556,44.556,0,0,0,4.784.255,44.205,44.205,0,0,0,34.306-71.965Zm2.295,31.674a36.9,36.9,0,1,1-7.971-27.093A36.665,36.665,0,0,1,232.544,146.37Z" transform="translate(-26.758 -24.576)" fill="#354d1d"/>
      <path id="Trazado_613506" data-name="Trazado 613506" d="M225.942,110.535a44.186,44.186,0,1,0-63.424,61.047L123.36,217.354l5.931,4.747,39.1-46.169a44.025,44.025,0,0,0,18.454,6.306,44.56,44.56,0,0,0,4.784.255,44.205,44.205,0,0,0,34.306-71.965Zm2.295,31.674a36.9,36.9,0,1,1-7.971-27.093A36.665,36.665,0,0,1,228.237,142.21Z" transform="translate(-25.562 -23.536)" fill="#354d1d"/>
      <path id="Trazado_613507" data-name="Trazado 613507" d="M184.871,171.51a3.773,3.773,0,0,1-.292-.322c-.18-.225-.45-.54-.765-.99a32.187,32.187,0,0,1-2.46-3.884,36.583,36.583,0,0,1-2.5-29.44,35.237,35.237,0,0,1,1.77-4.244c.232-.487.45-.847.592-1.1a1.686,1.686,0,0,1,.232-.367,1.837,1.837,0,0,1-.165.4c-.112.262-.307.63-.525,1.132a40.64,40.64,0,0,0-1.65,4.267,37.524,37.524,0,0,0,2.482,29.222,39,39,0,0,0,2.347,3.922c.292.457.547.787.7,1.027A2.33,2.33,0,0,1,184.871,171.51Z" transform="translate(-38.946 -32.807)" fill="#354d1d"/>
      <path id="Trazado_613508" data-name="Trazado 613508" d="M189.43,124.435c.067.09-.382.51-.832,1.1s-.742,1.132-.847,1.087.045-.69.54-1.327,1.087-.952,1.147-.862Z" transform="translate(-41.661 -31.121)" fill="#354d1d"/>
      <path id="Trazado_613509" data-name="Trazado 613509" d="M138.147,179.08s.12.367.27,1.035.352,1.65.577,2.857c.45,2.415,1,5.774,1.462,9.5s.742,7.116.892,9.576c.075,1.23.12,2.22.135,2.909a5.4,5.4,0,0,1-.015,1.072,5.434,5.434,0,0,1-.142-1.057c-.067-.757-.157-1.732-.262-2.9-.217-2.445-.547-5.827-1-9.546s-.96-7.079-1.342-9.5c-.18-1.155-.337-2.122-.45-2.872a5.049,5.049,0,0,1-.12-1.065Z" transform="translate(-29.259 -44.794)" fill="#354d1d"/>
      <path id="Trazado_613510" data-name="Trazado 613510" d="M147.072,219.668s-41.97,18.829-49.521.7c-7.694-18.469-6.389-22.391-6.389-22.391l11.705-3.914s8.151,19.272,10.243,19.467c11.615,1.057,24.048-2.79,28.4-4.312.442-.495.945-1.095,1.507-1.822.48-.63.982-1.53,1.477-2.145a15.821,15.821,0,0,1,2.467-2.167c1.162-1.312,2.22-.352,1.717.352a12.552,12.552,0,0,0-2.895,4.109c-1.147,2.677,2.939,1.365,4.552.937,1.785-.472,5.144-1.777,5.144-1.777a3.93,3.93,0,0,1-2.317,3.082,26.049,26.049,0,0,1-2.512,1.05s3.1-.375,3.187.33-.915,5.939-4.222,7.491l-2.557,1.02Z" transform="translate(-17.488 -48.541)" fill="#ffbe9d"/>
      <path id="Trazado_613511" data-name="Trazado 613511" d="M99.1,171.66l7.536,22.773-16.5,6.524s-8.608-22.369,2.295-27.843Z" transform="translate(-16.447 -42.938)" fill="#ebebeb"/>
      <path id="Trazado_613512" data-name="Trazado 613512" d="M110.32,192.43a1.374,1.374,0,0,1-.225-.21,4.185,4.185,0,0,1-.495-.735,26.029,26.029,0,0,1-1.192-3c-.922-2.55-2.175-6.089-3.532-10-.675-1.957-1.312-3.817-1.9-5.519a13.705,13.705,0,0,0-1.9-4.282,3.485,3.485,0,0,0-2.7-1.342,3.285,3.285,0,0,0-1.117.27.836.836,0,0,1,.255-.18,2.261,2.261,0,0,1,.855-.24,3.579,3.579,0,0,1,2.917,1.312,13.42,13.42,0,0,1,2.032,4.342c.592,1.7,1.245,3.562,1.927,5.512,1.357,3.914,2.572,7.461,3.427,10.033.435,1.282.742,2.347,1.065,3.022a11.2,11.2,0,0,0,.585,1.012Z" transform="translate(-19.031 -41.819)" fill="#354d1d"/>
      <path id="Trazado_613513" data-name="Trazado 613513" d="M108.454,201.406a4.9,4.9,0,0,1-.622.39c-.412.232-1.02.547-1.777.922-1.515.75-3.637,1.725-6.029,2.692s-4.6,1.74-6.216,2.242c-.8.255-1.462.45-1.92.57a2.533,2.533,0,0,1-.72.15,23.239,23.239,0,0,1,2.55-.982c1.582-.577,3.772-1.387,6.156-2.347s4.522-1.9,6.059-2.58a23.266,23.266,0,0,1,2.52-1.065Z" transform="translate(-17.51 -50.375)" fill="#354d1d"/>
      <path id="Trazado_613514" data-name="Trazado 613514" d="M94.377,208.481a8.633,8.633,0,0,1-1.335-3.382,8.634,8.634,0,0,1,1.335,3.382Z" transform="translate(-17.973 -51.302)" fill="#354d1d"/>
      <path id="Trazado_613515" data-name="Trazado 613515" d="M99.065,206.729c-.09.052-.547-.607-.877-1.53a3.168,3.168,0,0,1-.292-1.74,5.9,5.9,0,0,1,.66,1.6A5.769,5.769,0,0,1,99.065,206.729Z" transform="translate(-19.181 -50.892)" fill="#354d1d"/>
      <path id="Trazado_613516" data-name="Trazado 613516" d="M103.917,204.584a3.26,3.26,0,0,1-.937-1.575,3.2,3.2,0,0,1-.315-1.8,26.769,26.769,0,0,1,1.252,3.374Z" transform="translate(-20.374 -50.329)" fill="#354d1d"/>
      <path id="Trazado_613517" data-name="Trazado 613517" d="M109.175,202.4a9.146,9.146,0,0,1-1.125-3.592,9.147,9.147,0,0,1,1.125,3.592Z" transform="translate(-21.725 -49.729)" fill="#354d1d"/>
      <path id="Trazado_613518" data-name="Trazado 613518" d="M155.133,206.077a57.321,57.321,0,0,1-6.351,2.227,61.038,61.038,0,0,1-6.471,1.86,57.322,57.322,0,0,1,6.351-2.227A61.045,61.045,0,0,1,155.133,206.077Z" transform="translate(-30.302 -51.545)" fill="#354d1d"/>
      <path id="Trazado_613519" data-name="Trazado 613519" d="M145.63,208.736c-.1.045-.427-.51-.735-1.23s-.48-1.342-.375-1.387.427.51.735,1.23.48,1.342.375,1.38Z" transform="translate(-30.847 -51.556)" fill="#354d1d"/>
      <path id="Trazado_613520" data-name="Trazado 613520" d="M150.016,207.587c-.1.037-.457-.615-.69-1.492a2.992,2.992,0,0,1-.165-1.635,4.478,4.478,0,0,1,.54,1.53,4.31,4.31,0,0,1,.315,1.59Z" transform="translate(-32.002 -51.142)" fill="#354d1d"/>
      <path id="Trazado_613521" data-name="Trazado 613521" d="M154.705,206.082a3.568,3.568,0,0,1-.517-1.56,3.612,3.612,0,0,1-.135-1.642,3.568,3.568,0,0,1,.517,1.56A3.612,3.612,0,0,1,154.705,206.082Z" transform="translate(-33.227 -50.747)" fill="#354d1d"/>
      <path id="Trazado_613522" data-name="Trazado 613522" d="M109.164,164.35c-.1-.008-.165-.42-.127-.93s.15-.907.262-.9.165.42.127.93S109.276,164.357,109.164,164.35Z" transform="translate(-21.977 -40.651)" fill="#354d1d"/>
      <path id="Trazado_613523" data-name="Trazado 613523" d="M113.691,164.61c-.1,0-.21-.4-.232-.907s.052-.922.157-.922.21.4.232.907S113.8,164.61,113.691,164.61Z" transform="translate(-23.085 -40.717)" fill="#354d1d"/>
      <path id="Trazado_613524" data-name="Trazado 613524" d="M117.237,165.2c-.1,0-.195-.427-.187-.952s.1-.945.2-.945.195.427.187.952S117.342,165.2,117.237,165.2Z" transform="translate(-23.984 -40.847)" fill="#354d1d"/>
      <path id="Trazado_613525" data-name="Trazado 613525" d="M121.949,165.619c-.1.03-.315-.457-.33-1.1s.165-1.14.27-1.117.1.51.127,1.11.052,1.087-.06,1.117Z" transform="translate(-25.126 -40.871)" fill="#354d1d"/>
      <path id="Trazado_613526" data-name="Trazado 613526" d="M125.856,165.62c-.1.015-.255-.472-.33-1.087s-.045-1.125.06-1.132.255.472.33,1.087S125.961,165.612,125.856,165.62Z" transform="translate(-26.094 -40.871)" fill="#354d1d"/>
    </g>
  </g>
</svg>
