<svg xmlns="http://www.w3.org/2000/svg" width="82.503" height="90.689" viewBox="0 0 82.503 90.689">
  <g id="Grupo_1066759" data-name="Grupo 1066759" transform="translate(-285 -18021.336)">
    <g id="bombilla" transform="translate(261.89 18021.336)">
      <path id="Trazado_613529" data-name="Trazado 613529" d="M123.466,0A28.539,28.539,0,0,0,108.93,53.119a4.909,4.909,0,0,1,2.4,4.231V64.3a2.32,2.32,0,0,1,.9-.18h22.412a2.319,2.319,0,0,1,.9.18V57.35a4.96,4.96,0,0,1,2.445-4.26A28.539,28.539,0,0,0,123.466,0Z" transform="translate(-59.067)" fill="#ffe181"/>
      <g id="Grupo_1015852" data-name="Grupo 1015852" transform="translate(35.824 0)">
        <path id="Trazado_613530" data-name="Trazado 613530" d="M118.867,57.35a4.909,4.909,0,0,0-2.4-4.231A28.539,28.539,0,0,1,127.206.249,28.552,28.552,0,0,0,94.891,28.537,28.521,28.521,0,0,0,108.93,53.119a4.909,4.909,0,0,1,2.4,4.231V64.3a2.32,2.32,0,0,1,.9-.18h6.645Z" transform="translate(-94.891 0)" fill="#fec458"/>
      </g>
      <g id="Grupo_1015853" data-name="Grupo 1015853" transform="translate(66.567 30.023)">
        <path id="Trazado_613531" data-name="Trazado 613531" d="M269.821,204.967a1.368,1.368,0,0,1-1.368-1.368V191.351a5.623,5.623,0,0,1,1.167-3.419l1.958-2.535a2.871,2.871,0,0,0,.6-1.746V170.868a1.369,1.369,0,0,1,2.737,0V183.65a5.623,5.623,0,0,1-1.167,3.419l-1.958,2.535a2.87,2.87,0,0,0-.6,1.746V203.6A1.368,1.368,0,0,1,269.821,204.967Z" transform="translate(-268.453 -169.5)" fill="#ffb640"/>
      </g>
      <g id="Grupo_1015854" data-name="Grupo 1015854" transform="translate(55.697 30.023)">
        <path id="Trazado_613532" data-name="Trazado 613532" d="M212.177,204.967a1.368,1.368,0,0,1-1.368-1.369V191.351a2.872,2.872,0,0,0-.6-1.746l-1.959-2.535a5.623,5.623,0,0,1-1.167-3.419V170.868a1.368,1.368,0,1,1,2.737,0V183.65a2.87,2.87,0,0,0,.6,1.746l1.958,2.535a5.622,5.622,0,0,1,1.167,3.419V203.6A1.369,1.369,0,0,1,212.177,204.967Z" transform="translate(-207.087 -169.5)" fill="#ffb640"/>
      </g>
      <g id="Grupo_1015855" data-name="Grupo 1015855" transform="translate(73.064 7.692)">
        <path id="Trazado_613533" data-name="Trazado 613533" d="M316.335,58.683A19.836,19.836,0,0,0,305.9,46.023a1.368,1.368,0,1,1,1.2-2.457,22.573,22.573,0,0,1,11.877,14.408,1.368,1.368,0,1,1-2.643.709Z" transform="translate(-305.13 -43.426)" fill="#ffeac8"/>
      </g>
      <path id="Trazado_613534" data-name="Trazado 613534" d="M224.8,475.139v1a5.526,5.526,0,1,0,11.053,0v-1Z" transform="translate(-165.964 -390.979)" fill="#8479c2"/>
      <path id="Trazado_613535" data-name="Trazado 613535" d="M229.746,476.142v-1H224.8v1a5.543,5.543,0,0,0,5.526,5.527,5.474,5.474,0,0,0,2.474-.59A5.542,5.542,0,0,1,229.746,476.142Z" transform="translate(-165.964 -390.979)" fill="#6e60b8"/>
      <g id="Grupo_1015856" data-name="Grupo 1015856" transform="translate(54.33 31.541)">
        <path id="Trazado_613536" data-name="Trazado 613536" d="M218.059,180.806H200.732a1.368,1.368,0,0,1,0-2.737h17.326a1.368,1.368,0,1,1,0,2.737Z" transform="translate(-199.364 -178.069)" fill="#fec458"/>
      </g>
      <g id="Grupo_1015857" data-name="Grupo 1015857" transform="translate(23.11 26.438)">
        <path id="Trazado_613537" data-name="Trazado 613537" d="M29.186,152H24.478a1.368,1.368,0,0,1,0-2.737h4.708a1.368,1.368,0,0,1,0,2.737Z" transform="translate(-23.11 -149.259)" fill="#fec458"/>
      </g>
      <g id="Grupo_1015858" data-name="Grupo 1015858" transform="translate(25.245 16.172)">
        <path id="Trazado_613538" data-name="Trazado 613538" d="M40.448,95.618l-4.4-1.67a1.369,1.369,0,1,1,.971-2.559l4.4,1.67a1.369,1.369,0,1,1-.971,2.559Z" transform="translate(-35.163 -91.299)" fill="#fec458"/>
      </g>
      <g id="Grupo_1015859" data-name="Grupo 1015859" transform="translate(25.245 35.033)">
        <path id="Trazado_613539" data-name="Trazado 613539" d="M35.253,201.308a1.369,1.369,0,0,1,.794-1.765l4.4-1.671a1.369,1.369,0,1,1,.971,2.559l-4.4,1.671A1.368,1.368,0,0,1,35.253,201.308Z" transform="translate(-35.163 -197.783)" fill="#fec458"/>
      </g>
      <g id="Grupo_1015860" data-name="Grupo 1015860" transform="translate(98.168 26.438)">
        <path id="Trazado_613540" data-name="Trazado 613540" d="M452.935,152h-4.708a1.368,1.368,0,1,1,0-2.737h4.708a1.368,1.368,0,0,1,0,2.737Z" transform="translate(-446.859 -149.259)" fill="#fec458"/>
      </g>
      <g id="Grupo_1015861" data-name="Grupo 1015861" transform="translate(96.338 16.171)">
        <path id="Trazado_613541" data-name="Trazado 613541" d="M436.619,94.822a1.369,1.369,0,0,1,.794-1.765l4.4-1.67a1.369,1.369,0,0,1,.971,2.559l-4.4,1.671A1.369,1.369,0,0,1,436.619,94.822Z" transform="translate(-436.529 -91.298)" fill="#fec458"/>
      </g>
      <g id="Grupo_1015862" data-name="Grupo 1015862" transform="translate(96.338 35.033)">
        <path id="Trazado_613542" data-name="Trazado 613542" d="M441.815,202.1l-4.4-1.67a1.369,1.369,0,1,1,.971-2.559l4.4,1.671a1.369,1.369,0,0,1-.971,2.559Z" transform="translate(-436.53 -197.784)" fill="#fec458"/>
      </g>
      <path id="Trazado_613543" data-name="Trazado 613543" d="M210.764,437.171H192a2.377,2.377,0,0,0-2.375,2.375v2.021A2.377,2.377,0,0,0,192,443.942h18.764a2.377,2.377,0,0,0,2.375-2.375v-2.021A2.377,2.377,0,0,0,210.764,437.171Z" transform="translate(-137.021 -359.736)" fill="#efecef"/>
      <path id="Trazado_613544" data-name="Trazado 613544" d="M210.764,448.421H192a2.378,2.378,0,0,1-2.274-1.693,2.364,2.364,0,0,0-.1.682v2.021A2.377,2.377,0,0,0,192,451.806h18.764a2.377,2.377,0,0,0,2.375-2.375V447.41a2.363,2.363,0,0,0-.1-.682,2.378,2.378,0,0,1-2.274,1.693Z" transform="translate(-137.021 -367.6)" fill="#e2dfe2"/>
      <path id="Trazado_613545" data-name="Trazado 613545" d="M204.115,399.461H181.7a2.377,2.377,0,0,0-2.375,2.375v2.021a2.377,2.377,0,0,0,2.375,2.375h22.412a2.377,2.377,0,0,0,2.375-2.375v-2.021A2.377,2.377,0,0,0,204.115,399.461Z" transform="translate(-128.548 -328.705)" fill="#efecef"/>
      <path id="Trazado_613546" data-name="Trazado 613546" d="M204.115,410.71H181.7a2.378,2.378,0,0,1-2.274-1.693,2.365,2.365,0,0,0-.1.682v2.021A2.377,2.377,0,0,0,181.7,414.1h22.412a2.377,2.377,0,0,0,2.375-2.375V409.7a2.364,2.364,0,0,0-.1-.682A2.378,2.378,0,0,1,204.115,410.71Z" transform="translate(-128.547 -336.569)" fill="#e2dfe2"/>
      <path id="Trazado_613547" data-name="Trazado 613547" d="M204.115,361.75H181.7a2.377,2.377,0,0,0-2.375,2.375v2.021a2.377,2.377,0,0,0,2.375,2.375h22.412a2.377,2.377,0,0,0,2.375-2.375v-2.021A2.377,2.377,0,0,0,204.115,361.75Z" transform="translate(-128.548 -297.674)" fill="#efecef"/>
      <path id="Trazado_613548" data-name="Trazado 613548" d="M204.115,373H181.7a2.378,2.378,0,0,1-2.274-1.693,2.365,2.365,0,0,0-.1.682v2.021a2.377,2.377,0,0,0,2.375,2.375h22.412a2.377,2.377,0,0,0,2.375-2.375v-2.021a2.363,2.363,0,0,0-.1-.682A2.378,2.378,0,0,1,204.115,373Z" transform="translate(-128.547 -305.538)" fill="#e2dfe2"/>
    </g>
  </g>
</svg>
