<svg xmlns="http://www.w3.org/2000/svg" width="91.183" height="99.99" viewBox="0 0 91.183 99.99">
  <g id="Grupo_1066760" data-name="Grupo 1066760" transform="translate(-823.817 -18012)">
    <g id="investigacion_1_" data-name="investigacion (1)" transform="translate(823.817 18079.844)">
      <path id="Trazado_613549" data-name="Trazado 613549" d="M405.6,274.281h0a2.665,2.665,0,0,1-3.768,0l-17.461-17.461,3.768-3.768L405.6,270.512A2.665,2.665,0,0,1,405.6,274.281Z" transform="translate(-318.083 -265.558)" fill="#484b63"/>
      <path id="Trazado_613550" data-name="Trazado 613550" d="M55.27,135.182H.69a.69.69,0,0,1-.69-.69V57.35a.69.69,0,0,1,.69-.69H55.27a.69.69,0,0,1,.69.69v77.142A.69.69,0,0,1,55.27,135.182Z" transform="translate(0 -103.034)" fill="#d8d5ed"/>
      <path id="Trazado_613551" data-name="Trazado 613551" d="M43.45,338.067h-9.28a.69.69,0,0,1-.69-.69v-27.4a.69.69,0,0,1,.69-.69h9.28a.69.69,0,0,1,.69.69v27.4A.69.69,0,0,1,43.45,338.067Z" transform="translate(-27.707 -312.097)" fill="#ff2c5c"/>
      <path id="Trazado_613552" data-name="Trazado 613552" d="M140.287,286.915h-9.28a.69.69,0,0,1-.69-.69V248.167a.69.69,0,0,1,.69-.69h9.28a.69.69,0,0,1,.69.69v38.059A.69.69,0,0,1,140.287,286.915Z" transform="translate(-107.845 -260.946)" fill="#ffd659"/>
      <path id="Trazado_613553" data-name="Trazado 613553" d="M239.184,305.671H229.9a.69.69,0,0,1-.69-.69V270.831a.69.69,0,0,1,.69-.69h9.28a.69.69,0,0,1,.69.69v34.151A.69.69,0,0,1,239.184,305.671Z" transform="translate(-189.688 -279.701)" fill="#4fc6f5"/>
      <path id="Trazado_613554" data-name="Trazado 613554" d="M64.386,309.288v28.779h4.64a.69.69,0,0,0,.69-.69v-27.4a.69.69,0,0,0-.69-.69Z" transform="translate(-53.283 -312.097)" fill="#e62753"/>
      <path id="Trazado_613555" data-name="Trazado 613555" d="M161.223,247.477v39.438h4.64a.69.69,0,0,0,.69-.69V248.167a.69.69,0,0,0-.69-.69Z" transform="translate(-133.421 -260.946)" fill="#ffbd54"/>
      <path id="Trazado_613556" data-name="Trazado 613556" d="M260.121,270.141v35.53h4.64a.69.69,0,0,0,.69-.69V270.831a.69.69,0,0,0-.69-.69Z" transform="translate(-215.264 -279.701)" fill="#3bb3e3"/>
      <g id="Grupo_1015863" data-name="Grupo 1015863" transform="translate(6.612 -40.521)">
        <path id="Trazado_613557" data-name="Trazado 613557" d="M39.636,93.188H78.72a1.293,1.293,0,0,0,0-2.587H39.636a1.293,1.293,0,0,0,0,2.587Z" transform="translate(-38.343 -90.601)" fill="#50536e"/>
        <path id="Trazado_613558" data-name="Trazado 613558" d="M78.719,124.94H39.636a1.293,1.293,0,0,0,0,2.587H78.72a1.293,1.293,0,1,0,0-2.587Z" transform="translate(-38.343 -119.018)" fill="#50536e"/>
        <path id="Trazado_613559" data-name="Trazado 613559" d="M78.719,159.28H39.636a1.293,1.293,0,0,0,0,2.587H78.72a1.293,1.293,0,1,0,0-2.587Z" transform="translate(-38.343 -147.437)" fill="#50536e"/>
        <path id="Trazado_613560" data-name="Trazado 613560" d="M49.6,193.619H39.636a1.293,1.293,0,0,0,0,2.587H49.6a1.293,1.293,0,0,0,0-2.587Z" transform="translate(-38.343 -175.854)" fill="#50536e"/>
      </g>
      <circle id="Elipse_5647" data-name="Elipse 5647" cx="28.247" cy="28.247" r="28.247" transform="translate(11.29 -27.898) rotate(-45)" fill="#50536e"/>
      <path id="Trazado_613561" data-name="Trazado 613561" d="M203.4,70.078a22.917,22.917,0,1,1,0-32.41A22.943,22.943,0,0,1,203.4,70.078Z" transform="translate(-135.956 -81.772)" fill="#b5fcff"/>
      <path id="Trazado_613562" data-name="Trazado 613562" d="M300.535,37.673a22.888,22.888,0,0,0-18.87-6.547,22.9,22.9,0,0,1,0,45.5,22.908,22.908,0,0,0,18.87-38.956Z" transform="translate(-233.093 -81.776)" fill="#71f6fc"/>
    </g>
  </g>
</svg>
