<svg xmlns="http://www.w3.org/2000/svg" width="78.3" height="78.139" viewBox="0 0 78.3 78.139">
  <g id="Grupo_1066762" data-name="Grupo 1066762" transform="translate(-823.817 -18324.791)">
    <g id="informe-de-datos" transform="translate(822.819 18323.744)">
      <g id="Grupo_1015866" data-name="Grupo 1015866" transform="translate(0.998 1.047)">
        <path id="Trazado_613579" data-name="Trazado 613579" d="M71.349,5.125V65.182L57.338,79.177H17.67A4.078,4.078,0,0,1,13.592,75.1V5.125A4.078,4.078,0,0,1,17.67,1.047h49.6a4.078,4.078,0,0,1,4.078,4.078Z" transform="translate(6.951 -1.047)" fill="#efefed"/>
        <path id="Trazado_613580" data-name="Trazado 613580" d="M5.083,57.209C3.63,57.209,1,54.58,1,53.127c0-5.213,11.661-13.852,16.574-17.266a23.424,23.424,0,0,0,4.775,4.775C18.935,45.549,10.3,57.209,5.083,57.209Z" transform="translate(-0.996 20.923)" fill="#ea715f"/>
        <path id="Trazado_613581" data-name="Trazado 613581" d="M4.028,42.875C2.216,44.982,1,47.023,1,48.706c0,1.444,2.638,4.082,4.082,4.082,1.683,0,3.724-1.219,5.831-3.03Z" transform="translate(-0.998 25.35)" fill="#d75548"/>
        <g id="Grupo_1015865" data-name="Grupo 1015865" transform="translate(29.36 3.268)">
          <path id="Trazado_613582" data-name="Trazado 613582" d="M55.392,9.739a22.835,22.835,0,0,0-32.294,0L39.245,25.886Z" transform="translate(-16.41 -3.051)" fill="#ffcb66"/>
          <path id="Trazado_613583" data-name="Trazado 613583" d="M25.686,7.151a22.835,22.835,0,0,0,0,32.294L41.833,23.3Z" transform="translate(-18.998 -0.463)" fill="#ea715f"/>
          <path id="Trazado_613584" data-name="Trazado 613584" d="M49.145,7.151,33,23.3,49.145,39.445a22.835,22.835,0,0,0,0-32.294Z" transform="translate(-10.162 -0.463)" fill="#58b2e4"/>
          <path id="Trazado_613585" data-name="Trazado 613585" d="M23.1,33.2a22.835,22.835,0,0,0,32.294,0L39.245,17.05Z" transform="translate(-16.41 5.785)" fill="#85be57"/>
          <path id="Trazado_613586" data-name="Trazado 613586" d="M47.7,21.146A10.6,10.6,0,1,1,37.107,10.552,10.594,10.594,0,0,1,47.7,21.146Z" transform="translate(-14.265 1.684)" fill="#fff"/>
        </g>
        <circle id="Elipse_5649" data-name="Elipse 5649" cx="22.02" cy="22.02" r="22.02" transform="translate(11.824 22.274)" fill="#696867"/>
        <circle id="Elipse_5650" data-name="Elipse 5650" cx="15.981" cy="15.981" r="15.981" transform="translate(17.863 28.312)" fill="#fff"/>
        <path id="Trazado_613587" data-name="Trazado 613587" d="M28.313,20.394s-8.888-2.053-12.72,6.637l5.554,4.037A11.39,11.39,0,0,1,28.313,20.394Z" transform="translate(8.213 11.029)" fill="#efefed"/>
        <path id="Trazado_613588" data-name="Trazado 613588" d="M54.423,40.367,40.412,54.362V42a1.631,1.631,0,0,1,1.631-1.631Z" transform="translate(23.877 23.767)" fill="#c8c8c8"/>
      </g>
    </g>
  </g>
</svg>
