<svg xmlns="http://www.w3.org/2000/svg" xmlns:xlink="http://www.w3.org/1999/xlink" width="505" height="2728.076" viewBox="0 0 505 2728.076">
  <defs>
    <linearGradient id="linear-gradient" x1="0.5" x2="0.5" y2="1" gradientUnits="objectBoundingBox">
      <stop offset="0" stop-color="#820072"/>
      <stop offset="1" stop-color="#b3009d"/>
    </linearGradient>
    <linearGradient id="linear-gradient-2" x1="0.5" x2="0.5" y2="1" gradientUnits="objectBoundingBox">
      <stop offset="0" stop-color="#144677"/>
      <stop offset="1" stop-color="#00574f"/>
    </linearGradient>
  </defs>
  <g id="Grupo_1070467" data-name="Grupo 1070467" transform="translate(-6518.448 8455.108)">
    <g id="Grupo_1070466" data-name="Grupo 1070466">
      <rect id="Rectángulo_347803" data-name="Rectángulo 347803" width="505" height="2728.076" transform="translate(6518.448 -8455.108)" fill="#fff"/>
      <g id="Grupo_1015711" data-name="Grupo 1015711" transform="translate(12550.448 1129.294)">
        <g id="Rectángulo_347640" data-name="Rectángulo 347640" transform="translate(-6002.5 -9454)" fill="#fff" stroke="#632059" stroke-width="2">
          <rect width="446" height="369" rx="13" stroke="none"/>
          <rect x="1" y="1" width="444" height="367" rx="12" fill="none"/>
        </g>
        <text id="El_diario:_en_él_se_registran_todos_los_hechos_desde_el_inicio_del_trabajo_de_observación._Es_una_herramienta_flexible_por_lo_que_pueden_anotarse_todo_tipo_de_sugerencias_ideas_o_comentarios_ya_sean_de_naturaleza_práctica_o_teórica._El_nivel_de_detalle_" data-name="El diario: en él se registran todos los hechos desde el inicio del trabajo de observación. Es una herramienta flexible, por lo que pueden anotarse todo tipo de sugerencias, ideas o comentarios, ya sean de naturaleza práctica o teórica. El nivel de detalle " transform="translate(-5981 -9426)" fill="#12263f" font-size="16" font-family="Roboto-Bold, Roboto" font-weight="700"><tspan x="0" y="15">El diario: </tspan><tspan y="15" font-family="Roboto-Regular, Roboto" font-weight="400">en él se registran todos los hechos desde el </tspan><tspan x="0" y="39" font-family="Roboto-Regular, Roboto" font-weight="400">inicio del trabajo de observación. Es una herramienta </tspan><tspan x="0" y="63" font-family="Roboto-Regular, Roboto" font-weight="400">flexible, por lo que pueden anotarse todo tipo de </tspan><tspan x="0" y="87" font-family="Roboto-Regular, Roboto" font-weight="400">sugerencias, ideas o comentarios, ya sean de naturaleza </tspan><tspan x="0" y="111" font-family="Roboto-Regular, Roboto" font-weight="400">práctica o teórica. El nivel de detalle dependerá del juicio </tspan><tspan x="0" y="135" font-family="Roboto-Regular, Roboto" font-weight="400">del observador, por lo que puede ser utilizado una vez se </tspan><tspan x="0" y="159" font-family="Roboto-Regular, Roboto" font-weight="400">desarrolle una actividad determinada, una situación </tspan><tspan x="0" y="183" font-family="Roboto-Regular, Roboto" font-weight="400">relevante o al final de la jornada.</tspan><tspan font-family="Roboto-Regular, Roboto" font-weight="400"><tspan x="0" y="207"></tspan><tspan x="0" y="231">Su extensión dependerá de la complejidad del fenómeno </tspan><tspan x="0" y="255">estudiado y el nivel de detalle que busque el observador; </tspan><tspan x="0" y="279">se recomienda el uso de una escritura precisa, ordenada </tspan><tspan x="0" y="303">y clara para ser consultada por los colaboradores.</tspan></tspan></text>
      </g>
      <g id="Grupo_1015714" data-name="Grupo 1015714" transform="translate(12694.448 1642.764)">
        <g id="Rectángulo_347640-2" data-name="Rectángulo 347640" transform="translate(-6146.5 -9454)" fill="#fff" stroke="#632059" stroke-width="2">
          <rect width="446" height="387" rx="13" stroke="none"/>
          <rect x="1" y="1" width="444" height="385" rx="12" fill="none"/>
        </g>
        <text id="Cuaderno_de_notas:_opera_de_forma_semejante_al_diario_pero_con_la_particularidad_de_ser_portado_por_el_investigador_en_todo_momento._Lo_anterior_permite_registrar_los_hechos_de_forma_inmediata_después_de_su_ocurrencia_lo_que_dota_de_precisión_su_registro" data-name="Cuaderno de notas: opera de forma semejante al diario, pero con la particularidad de ser portado por el investigador en todo momento. Lo anterior permite registrar los hechos de forma inmediata después de su ocurrencia, lo que dota de precisión su registro" transform="translate(-6116 -9426)" fill="#12263f" font-size="16" font-family="Roboto-Bold, Roboto" font-weight="700"><tspan x="0" y="15">Cuaderno de notas: </tspan><tspan y="15" font-family="Roboto-Regular, Roboto" font-weight="400">opera de forma semejante al </tspan><tspan x="0" y="39" font-family="Roboto-Regular, Roboto" font-weight="400">diario, pero con la particularidad de ser portado por el </tspan><tspan x="0" y="63" font-family="Roboto-Regular, Roboto" font-weight="400">investigador en todo momento. Lo anterior permite </tspan><tspan x="0" y="87" font-family="Roboto-Regular, Roboto" font-weight="400">registrar los hechos de forma inmediata después de su </tspan><tspan x="0" y="111" font-family="Roboto-Regular, Roboto" font-weight="400">ocurrencia, lo que dota de precisión su registro, pero, </tspan><tspan x="0" y="135" font-family="Roboto-Regular, Roboto" font-weight="400">como contrapartida, su estructura será menos </tspan><tspan x="0" y="159" font-family="Roboto-Regular, Roboto" font-weight="400">ordenada. </tspan><tspan font-family="Roboto-Regular, Roboto" font-weight="400"><tspan x="0" y="183"> </tspan><tspan x="0" y="207">Puede funcionar en manera conjunta con el diario, </tspan><tspan x="0" y="231">haciendo uso del cuaderno de notas para registrar </tspan><tspan x="0" y="255">rápidamente cada situación que lo amerite, y del diario, </tspan><tspan x="0" y="279">al finalizar la jornada de trabajo, donde se registren los </tspan><tspan x="0" y="303">eventos con mayor calma y con una estructura mucho </tspan><tspan x="0" y="327">más robusta. </tspan></tspan></text>
      </g>
      <g id="Grupo_1015717" data-name="Grupo 1015717" transform="translate(12694.448 2159.349)">
        <g id="Rectángulo_347640-3" data-name="Rectángulo 347640" transform="translate(-6146.5 -9454)" fill="#fff" stroke="#632059" stroke-width="2">
          <rect width="446" height="455" rx="13" stroke="none"/>
          <rect x="1" y="1" width="444" height="453" rx="12" fill="none"/>
        </g>
        <text id="Mapas:_son_una_herramienta_que_aporta_un_contexto_a_la_investigación_dotándola_de_una_dimensión_física_determinada._En_esta_categoría_se_encuentran_también_los_planos_y_cualquier_otro_tipo_de_representación_gráfica_que_otorgue_una_noción_respecto_a_ubica" data-name="Mapas: son una herramienta que aporta un contexto a la investigación, dotándola de una dimensión física determinada. En esta categoría, se encuentran también los planos y cualquier otro tipo de representación gráfica que otorgue una noción respecto a ubica" transform="translate(-6116 -9426)" fill="#12263f" font-size="16" font-family="Roboto-Bold, Roboto" font-weight="700"><tspan x="0" y="15">Mapas: </tspan><tspan y="15" font-family="Roboto-Regular, Roboto" font-weight="400">son una herramienta que aporta un contexto a </tspan><tspan x="0" y="39" font-family="Roboto-Regular, Roboto" font-weight="400">la investigación, dotándola de una dimensión física </tspan><tspan x="0" y="63" font-family="Roboto-Regular, Roboto" font-weight="400">determinada. En esta categoría, se encuentran también </tspan><tspan x="0" y="87" font-family="Roboto-Regular, Roboto" font-weight="400">los planos y cualquier otro tipo de representación </tspan><tspan x="0" y="111" font-family="Roboto-Regular, Roboto" font-weight="400">gráfica que otorgue una noción respecto a ubicación o </tspan><tspan x="0" y="135" font-family="Roboto-Regular, Roboto" font-weight="400">límites de la zona estudiada.</tspan><tspan font-family="Roboto-Regular, Roboto" font-weight="400"><tspan x="0" y="159"> </tspan><tspan x="0" y="183">Pueden ser tan detallados como el investigador </tspan><tspan x="0" y="207">considere; es recomendable que incluyan datos </tspan><tspan x="0" y="231">relevantes para el fenómeno. Por ejemplo, los estudios </tspan><tspan x="0" y="255">de mercado suelen estar delimitados a zonas </tspan><tspan x="0" y="279">geográficas específicas, por lo que un mapa de la </tspan><tspan x="0" y="303">ciudad, donde se resalte la localidad donde se realiza la </tspan><tspan x="0" y="327">investigación, puede también presentar otros datos, </tspan><tspan x="0" y="351">como género, edad o estrato económico, que pueden </tspan><tspan x="0" y="375">aportar para relacionar las variables a la hora de </tspan><tspan x="0" y="399">interpretar los resultados.</tspan><tspan x="0" y="423"></tspan></tspan></text>
      </g>
      <g id="Grupo_1015720" data-name="Grupo 1015720" transform="translate(12694.448 2746.026)">
        <g id="Rectángulo_347640-4" data-name="Rectángulo 347640" transform="translate(-6146.5 -9454)" fill="#fff" stroke="#632059" stroke-width="2">
          <rect width="446" height="360" rx="13" stroke="none"/>
          <rect x="1" y="1" width="444" height="358" rx="12" fill="none"/>
        </g>
        <text id="Dispositivos_mecánicos:_en_la_actualidad_existen_diversos_mecanismos_que_pueden_facilitar_el_proceso_de_registro_en_una_investigación._Dispositivos_como_las_cámaras_fotográficas_o_las_grabadoras_de_voz_pueden_recopilar_información_objetiva_y_ser_reproduci" data-name="Dispositivos mecánicos: en la actualidad, existen diversos mecanismos que pueden facilitar el proceso de registro en una investigación. Dispositivos como las cámaras fotográficas o las grabadoras de voz pueden recopilar información objetiva y ser reproduci" transform="translate(-6116 -9426)" fill="#12263f" font-size="16" font-family="Roboto-Bold, Roboto" font-weight="700"><tspan x="0" y="15">Dispositivos mecánicos: </tspan><tspan y="15" font-family="Roboto-Regular, Roboto" font-weight="400">en la actualidad, existen </tspan><tspan x="0" y="39" font-family="Roboto-Regular, Roboto" font-weight="400">diversos mecanismos que pueden facilitar el proceso </tspan><tspan x="0" y="63" font-family="Roboto-Regular, Roboto" font-weight="400">de registro en una investigación. Dispositivos como las </tspan><tspan x="0" y="87" font-family="Roboto-Regular, Roboto" font-weight="400">cámaras fotográficas o las grabadoras de voz pueden </tspan><tspan x="0" y="111" font-family="Roboto-Regular, Roboto" font-weight="400">recopilar información objetiva y ser reproducida de </tspan><tspan x="0" y="135" font-family="Roboto-Regular, Roboto" font-weight="400">manera asíncrona para elevar el nivel de detalle.</tspan><tspan font-family="Roboto-Regular, Roboto" font-weight="400"><tspan x="0" y="159"> </tspan><tspan x="0" y="183" xml:space="preserve">Se recomienda especial cuidado a la hora de compartir  </tspan><tspan x="0" y="207">la información registrada por estos medios, puesto que </tspan><tspan x="0" y="231">la privacidad de los participantes puede ser vulnerada, </tspan><tspan x="0" y="255">más aún si no se cuenta con un consentimiento previo </tspan><tspan x="0" y="279">al estudio.</tspan></tspan></text>
      </g>
      <g id="Grupo_1015723" data-name="Grupo 1015723" transform="translate(12702.448 3239.761)">
        <g id="Rectángulo_347640-5" data-name="Rectángulo 347640" transform="translate(-6146.5 -9454)" fill="#fff" stroke="#632059" stroke-width="2">
          <rect width="438" height="406" rx="13" stroke="none"/>
          <rect x="1" y="1" width="436" height="404" rx="12" fill="none"/>
        </g>
        <text id="Cuadros_de_trabajo:_suele_ser_una_herramienta_de_uso_posterior_a_las_anteriores._Con_ella_se_busca_la_tabulación_y_ordenamiento_de_la_información_recopilada_a_través_del_uso_de_tablas_en_las_que_las_filas_listen_los_participantes_y_las_columnas_las_varia" data-name="Cuadros de trabajo: suele ser una herramienta de uso posterior a las anteriores. Con ella, se busca la tabulación y ordenamiento de la información recopilada, a través del uso de tablas en las que las filas listen los participantes y las columnas las varia" transform="translate(-6116 -9426)" fill="#12263f" font-size="16" font-family="Roboto-Bold, Roboto" font-weight="700"><tspan x="0" y="15">Cuadros de trabajo: </tspan><tspan y="15" font-family="Roboto-Regular, Roboto" font-weight="400">suele ser una herramienta de uso </tspan><tspan x="0" y="39" font-family="Roboto-Regular, Roboto" font-weight="400">posterior a las anteriores. Con ella, se busca la </tspan><tspan x="0" y="63" font-family="Roboto-Regular, Roboto" font-weight="400">tabulación y ordenamiento de la información </tspan><tspan x="0" y="87" font-family="Roboto-Regular, Roboto" font-weight="400">recopilada, a través del uso de tablas en las que las </tspan><tspan x="0" y="111" font-family="Roboto-Regular, Roboto" font-weight="400">filas listen los participantes y las columnas las </tspan><tspan x="0" y="135" font-family="Roboto-Regular, Roboto" font-weight="400">variables, o viceversa. Existe un sinnúmero de </tspan><tspan x="0" y="159" font-family="Roboto-Regular, Roboto" font-weight="400">posibilidades a la hora de diseñar cuadros de trabajo, </tspan><tspan x="0" y="183" font-family="Roboto-Regular, Roboto" font-weight="400">su flexibilidad depende enteramente de los recursos </tspan><tspan x="0" y="207" font-family="Roboto-Regular, Roboto" font-weight="400">del investigador y su creatividad. </tspan><tspan font-family="Roboto-Regular, Roboto" font-weight="400"><tspan x="0" y="231"> </tspan><tspan x="0" y="255">Se recomienda su uso para investigaciones con un </tspan><tspan x="0" y="279">alto componente cuantitativo, o con muchos sujetos a </tspan><tspan x="0" y="303">estudiar, puesto que la información puede </tspan><tspan x="0" y="327">consolidarse y presentarse de forma resumida, sin </tspan><tspan x="0" y="351">obviar detalles de relevancia.</tspan></tspan></text>
      </g>
      <g id="Grupo_1066747" data-name="Grupo 1066747" transform="translate(697.593 -15.961)">
        <path id="Trazado_815352" data-name="Trazado 815352" d="M61.635,0A62,62,0,1,1,0,62,61.819,61.819,0,0,1,61.635,0Z" transform="translate(6011.532 -8414.119)" fill="#ffe3fb"/>
        <path id="Trazado_815353" data-name="Trazado 815353" d="M9.071,15V3.625h3.5a5.315,5.315,0,0,1,2.684.676A4.712,4.712,0,0,1,17.1,6.223a5.928,5.928,0,0,1,.664,2.832v.523a5.945,5.945,0,0,1-.652,2.82,4.672,4.672,0,0,1-1.84,1.914,5.355,5.355,0,0,1-2.68.688Zm2.344-9.477v7.594h1.133a2.545,2.545,0,0,0,2.1-.9,4.06,4.06,0,0,0,.742-2.57v-.6a4.124,4.124,0,0,0-.719-2.629,2.537,2.537,0,0,0-2.1-.895ZM21.7,15H19.438V6.547H21.7Zm-2.4-10.641a1.112,1.112,0,0,1,.34-.836,1.465,1.465,0,0,1,1.848,0,1.105,1.105,0,0,1,.344.836,1.108,1.108,0,0,1-.348.844,1.448,1.448,0,0,1-1.836,0A1.108,1.108,0,0,1,19.305,4.359ZM28.461,15a2.507,2.507,0,0,1-.227-.758,2.732,2.732,0,0,1-2.133.914,3,3,0,0,1-2.059-.719,2.312,2.312,0,0,1-.816-1.812,2.389,2.389,0,0,1,1-2.062A4.915,4.915,0,0,1,27.1,9.836h1.039V9.352a1.393,1.393,0,0,0-.3-.937,1.183,1.183,0,0,0-.949-.352A1.345,1.345,0,0,0,26,8.336a.929.929,0,0,0-.324.75H23.415a2.268,2.268,0,0,1,.453-1.359,3,3,0,0,1,1.281-.98,4.669,4.669,0,0,1,1.859-.355,3.689,3.689,0,0,1,2.48.785,2.747,2.747,0,0,1,.918,2.207v3.664a4.041,4.041,0,0,0,.336,1.82V15Zm-1.867-1.57a1.945,1.945,0,0,0,.922-.223,1.462,1.462,0,0,0,.625-.6V11.156H27.3q-1.7,0-1.8,1.172l-.008.133a.9.9,0,0,0,.3.7A1.153,1.153,0,0,0,26.594,13.43Zm10.3-4.766a6.134,6.134,0,0,0-.812-.062,1.654,1.654,0,0,0-1.68.867V15H32.141V6.547h2.133l.063,1.008a2.092,2.092,0,0,1,1.883-1.164,2.366,2.366,0,0,1,.7.1ZM40.36,15H38.094V6.547H40.36Zm-2.4-10.641a1.112,1.112,0,0,1,.34-.836,1.465,1.465,0,0,1,1.848,0,1.105,1.105,0,0,1,.344.836,1.108,1.108,0,0,1-.348.844,1.448,1.448,0,0,1-1.836,0A1.108,1.108,0,0,1,37.961,4.359ZM41.868,10.7a5.013,5.013,0,0,1,.484-2.242A3.546,3.546,0,0,1,43.747,6.93a4.069,4.069,0,0,1,2.113-.539,3.849,3.849,0,0,1,2.793,1.047,4.2,4.2,0,0,1,1.207,2.844l.016.578A4.418,4.418,0,0,1,48.79,13.98a4.209,4.209,0,0,1-5.832,0,4.5,4.5,0,0,1-1.09-3.187Zm2.258.16a3.16,3.16,0,0,0,.453,1.843,1.628,1.628,0,0,0,2.578.008,3.457,3.457,0,0,0,.461-2.015,3.128,3.128,0,0,0-.461-1.831,1.5,1.5,0,0,0-1.3-.649,1.474,1.474,0,0,0-1.281.646A3.516,3.516,0,0,0,44.125,10.856Z" transform="translate(6045.065 -8389.618)" fill="#12263f"/>
        <g id="flat" transform="translate(6050.212 -8364.618)">
          <g id="booknote" transform="translate(0 0)">
            <rect id="Rectángulo_347799" data-name="Rectángulo 347799" width="37.549" height="51.853" rx="2" transform="translate(10.728)" fill="#3b5620"/>
            <path id="Trazado_611479" data-name="Trazado 611479" d="M50.761,3H45.4V15.516A30.4,30.4,0,0,1,15,45.913v7.152a1.788,1.788,0,0,0,1.788,1.788H50.761a1.788,1.788,0,0,0,1.788-1.788V4.788A1.788,1.788,0,0,0,50.761,3Z" transform="translate(-4.272 -3)" opacity="0.1"/>
            <g id="Grupo_1015666" data-name="Grupo 1015666" transform="translate(9.834 2.682)">
              <path id="Trazado_611480" data-name="Trazado 611480" d="M18.47,11H14.894a.894.894,0,0,0,0,1.788H18.47a.894.894,0,0,0,0-1.788Z" transform="translate(-14 -6.53)" fill="#44546c"/>
              <path id="Trazado_611481" data-name="Trazado 611481" d="M14.894,7.788H18.47A.894.894,0,0,0,18.47,6H14.894a.894.894,0,1,0,0,1.788Z" transform="translate(-14 -6)" fill="#44546c"/>
              <path id="Trazado_611482" data-name="Trazado 611482" d="M18.47,16H14.894a.894.894,0,0,0,0,1.788H18.47a.894.894,0,0,0,0-1.788Z" transform="translate(-14 -7.06)" fill="#44546c"/>
              <path id="Trazado_611483" data-name="Trazado 611483" d="M18.47,21H14.894a.894.894,0,1,0,0,1.788H18.47a.894.894,0,0,0,0-1.788Z" transform="translate(-14 -7.59)" fill="#44546c"/>
              <path id="Trazado_611484" data-name="Trazado 611484" d="M18.47,26H14.894a.894.894,0,0,0,0,1.788H18.47a.894.894,0,0,0,0-1.788Z" transform="translate(-14 -8.12)" fill="#44546c"/>
              <path id="Trazado_611485" data-name="Trazado 611485" d="M18.47,31H14.894a.894.894,0,0,0,0,1.788H18.47a.894.894,0,0,0,0-1.788Z" transform="translate(-14 -8.649)" fill="#44546c"/>
              <path id="Trazado_611486" data-name="Trazado 611486" d="M18.47,36H14.894a.894.894,0,0,0,0,1.788H18.47a.894.894,0,0,0,0-1.788Z" transform="translate(-14 -9.179)" fill="#44546c"/>
              <path id="Trazado_611487" data-name="Trazado 611487" d="M18.47,41H14.894a.894.894,0,0,0,0,1.788H18.47a.894.894,0,0,0,0-1.788Z" transform="translate(-14 -9.709)" fill="#44546c"/>
              <path id="Trazado_611488" data-name="Trazado 611488" d="M18.47,46H14.894a.894.894,0,1,0,0,1.788H18.47a.894.894,0,0,0,0-1.788Z" transform="translate(-14 -10.239)" fill="#44546c"/>
              <path id="Trazado_611489" data-name="Trazado 611489" d="M18.47,51H14.894a.894.894,0,0,0,0,1.788H18.47a.894.894,0,0,0,0-1.788Z" transform="translate(-14 -10.769)" fill="#44546c"/>
              <path id="Trazado_611490" data-name="Trazado 611490" d="M18.47,56H14.894a.894.894,0,0,0,0,1.788H18.47a.894.894,0,0,0,0-1.788Z" transform="translate(-14 -11.299)" fill="#44546c"/>
            </g>
            <rect id="Rectángulo_347800" data-name="Rectángulo 347800" width="19.669" height="10.728" rx="2" transform="translate(19.668 12.516)" fill="#fff"/>
            <path id="Trazado_611491" data-name="Trazado 611491" d="M42.88,17H41.092a8.94,8.94,0,0,1-8.94,8.94H25a1.788,1.788,0,0,0,1.788,1.788H42.88a1.788,1.788,0,0,0,1.788-1.788V18.788A1.788,1.788,0,0,0,42.88,17Z" transform="translate(-5.332 -4.484)" opacity="0.1"/>
            <rect id="Rectángulo_347801" data-name="Rectángulo 347801" width="10.728" height="8.94" rx="2" transform="translate(41.125 22.351)" fill="#632059"/>
            <path id="Trazado_611492" data-name="Trazado 611492" d="M57.97,28h-.248a1.77,1.77,0,0,1,.248.894v5.364a1.788,1.788,0,0,1-1.788,1.788h-6.9a1.78,1.78,0,0,0,1.54.894H57.97a1.788,1.788,0,0,0,1.788-1.788V29.788A1.788,1.788,0,0,0,57.97,28Z" transform="translate(-7.905 -5.649)" opacity="0.2"/>
            <circle id="Elipse_5644" data-name="Elipse 5644" cx="1.788" cy="1.788" r="1.788" transform="translate(43.807 25.033)" fill="#44546c"/>
            <path id="Trazado_611493" data-name="Trazado 611493" d="M32.152,11.94,28.576,8.364,25,11.94V3h7.152Z" transform="translate(-5.332 -3)" fill="#ffa912"/>
            <g id="Grupo_1015667" data-name="Grupo 1015667" transform="translate(19.668)" opacity="0.1">
              <path id="Trazado_611494" data-name="Trazado 611494" d="M25,8.788v3.576l3.576-3.576L26.788,7Z" transform="translate(-25 -3.424)"/>
              <path id="Trazado_611495" data-name="Trazado 611495" d="M31,3v7.152l1.788,1.788V3Z" transform="translate(-25.636 -3)"/>
            </g>
            <path id="Trazado_611496" data-name="Trazado 611496" d="M5.379,55.084a2.682,2.682,0,0,1-2.361-2.969L7.771,10.366,11.043,5.34,13.1,10.973,8.347,52.722a2.682,2.682,0,0,1-2.968,2.361Z" transform="translate(-3 -3.248)" fill="#632059"/>
            <path id="Trazado_611497" data-name="Trazado 611497" d="M13.653,10.973,11.6,5.34,8.324,10.366l-.11.965,5.347.454Z" transform="translate(-3.553 -3.248)" fill="#feb784"/>
            <path id="Trazado_611498" data-name="Trazado 611498" d="M3.018,57.353a2.682,2.682,0,1,0,5.33.607l.312-2.741-5.347-.454Z" transform="translate(-3 -8.486)" fill="#d6d6d4"/>
          </g>
        </g>
      </g>
      <g id="Grupo_1066748" data-name="Grupo 1066748" transform="translate(477.263 317.987)">
        <path id="Trazado_815354" data-name="Trazado 815354" d="M62,0A62,62,0,1,1,0,62,62,62,0,0,1,62,0Z" transform="translate(6231.133 -8246.369)" fill="#ffe3fb"/>
        <path id="Trazado_815355" data-name="Trazado 815355" d="M19.691,11.211A4.025,4.025,0,0,1,18.336,14.1a4.76,4.76,0,0,1-3.223,1.055,4.28,4.28,0,0,1-3.441-1.473,6.038,6.038,0,0,1-1.254-4.043v-.7A6.819,6.819,0,0,1,11,6.055a4.332,4.332,0,0,1,1.652-1.918,4.629,4.629,0,0,1,2.5-.668,4.637,4.637,0,0,1,3.172,1.055,4.326,4.326,0,0,1,1.391,2.961H17.363a2.376,2.376,0,0,0-.613-1.6,2.271,2.271,0,0,0-1.605-.5,1.991,1.991,0,0,0-1.754.84,4.707,4.707,0,0,0-.6,2.605V9.7a5.038,5.038,0,0,0,.559,2.7,1.954,1.954,0,0,0,1.762.852,2.314,2.314,0,0,0,1.621-.5,2.241,2.241,0,0,0,.613-1.535Zm6.453,2.93a2.831,2.831,0,0,1-2.312,1.016,2.67,2.67,0,0,1-2.074-.781,3.335,3.335,0,0,1-.73-2.289V6.547h2.258v5.467q0,1.322,1.2,1.322a1.63,1.63,0,0,0,1.578-.8V6.547h2.266V15H26.207ZM34.934,15a2.507,2.507,0,0,1-.227-.758,2.732,2.732,0,0,1-2.133.914,3,3,0,0,1-2.059-.719,2.312,2.312,0,0,1-.816-1.812,2.389,2.389,0,0,1,1-2.062,4.915,4.915,0,0,1,2.879-.727h1.039V9.352a1.393,1.393,0,0,0-.3-.937,1.183,1.183,0,0,0-.949-.352,1.345,1.345,0,0,0-.895.273.929.929,0,0,0-.324.75H29.887a2.268,2.268,0,0,1,.453-1.359,3,3,0,0,1,1.281-.98,4.669,4.669,0,0,1,1.859-.355,3.689,3.689,0,0,1,2.48.785,2.747,2.747,0,0,1,.918,2.207v3.664a4.041,4.041,0,0,0,.336,1.82V15Zm-1.867-1.57a1.945,1.945,0,0,0,.922-.223,1.462,1.462,0,0,0,.625-.6V11.156H33.77q-1.7,0-1.8,1.172l-.008.133a.9.9,0,0,0,.3.7A1.153,1.153,0,0,0,33.066,13.43Zm5.2-2.719a5.094,5.094,0,0,1,.887-3.148,2.877,2.877,0,0,1,2.426-1.172,2.589,2.589,0,0,1,2.039.922V3h2.266V15H43.84l-.109-.9a2.657,2.657,0,0,1-2.172,1.055,2.869,2.869,0,0,1-2.395-1.176A5.258,5.258,0,0,1,38.262,10.711Zm2.258.168a3.337,3.337,0,0,0,.414,1.823,1.349,1.349,0,0,0,1.2.634,1.511,1.511,0,0,0,1.477-.884V9.111a1.489,1.489,0,0,0-1.461-.884Q40.52,8.227,40.52,10.879Zm11,4.277a4.15,4.15,0,0,1-3.027-1.141,4.054,4.054,0,0,1-1.168-3.039v-.219a5.106,5.106,0,0,1,.492-2.277,3.612,3.612,0,0,1,1.395-1.547,3.914,3.914,0,0,1,2.059-.543A3.508,3.508,0,0,1,54,7.484a4.444,4.444,0,0,1,1,3.1v.922H49.613a2.1,2.1,0,0,0,.66,1.328,2,2,0,0,0,1.395.5,2.437,2.437,0,0,0,2.039-.945l1.109,1.242a3.389,3.389,0,0,1-1.375,1.121A4.511,4.511,0,0,1,51.52,15.156Zm-.258-6.945a1.411,1.411,0,0,0-1.09.455,2.357,2.357,0,0,0-.535,1.3h3.141V9.788a1.681,1.681,0,0,0-.406-1.165A1.456,1.456,0,0,0,51.262,8.211Zm9.766.453a6.134,6.134,0,0,0-.812-.062,1.654,1.654,0,0,0-1.68.867V15H56.277V6.547H58.41l.063,1.008a2.092,2.092,0,0,1,1.883-1.164,2.366,2.366,0,0,1,.7.1Zm3.164-2.117.07.977a2.951,2.951,0,0,1,2.43-1.133,2.453,2.453,0,0,1,2,.789,3.682,3.682,0,0,1,.672,2.359V15H67.105V9.594a1.465,1.465,0,0,0-.312-1.043,1.4,1.4,0,0,0-1.039-.324,1.553,1.553,0,0,0-1.43.813V15H62.066V6.547ZM70.723,10.7a5.013,5.013,0,0,1,.484-2.242A3.546,3.546,0,0,1,72.6,6.93a4.069,4.069,0,0,1,2.113-.539,3.849,3.849,0,0,1,2.793,1.047,4.2,4.2,0,0,1,1.207,2.844l.016.578a4.418,4.418,0,0,1-1.086,3.121,4.209,4.209,0,0,1-5.832,0,4.5,4.5,0,0,1-1.09-3.187Zm2.258.16a3.16,3.16,0,0,0,.453,1.843,1.628,1.628,0,0,0,2.578.008,3.457,3.457,0,0,0,.461-2.015,3.128,3.128,0,0,0-.461-1.831,1.5,1.5,0,0,0-1.3-.649,1.474,1.474,0,0,0-1.281.646A3.516,3.516,0,0,0,72.98,10.856Zm-58.9,19.855a5.094,5.094,0,0,1,.887-3.148,2.877,2.877,0,0,1,2.426-1.172,2.589,2.589,0,0,1,2.039.922V23H21.7V35H19.66l-.109-.9a2.657,2.657,0,0,1-2.172,1.055,2.869,2.869,0,0,1-2.395-1.176A5.258,5.258,0,0,1,14.082,30.711Zm2.258.168a3.337,3.337,0,0,0,.414,1.823,1.349,1.349,0,0,0,1.2.634,1.511,1.511,0,0,0,1.477-.884V29.111a1.489,1.489,0,0,0-1.461-.884Q16.34,28.227,16.34,30.879Zm11,4.277a4.15,4.15,0,0,1-3.027-1.141,4.054,4.054,0,0,1-1.168-3.039v-.219a5.106,5.106,0,0,1,.492-2.277,3.612,3.612,0,0,1,1.395-1.547,3.914,3.914,0,0,1,2.059-.543,3.508,3.508,0,0,1,2.73,1.094,4.444,4.444,0,0,1,1,3.1v.922H25.434a2.1,2.1,0,0,0,.66,1.328,2,2,0,0,0,1.395.5,2.437,2.437,0,0,0,2.039-.945l1.109,1.242a3.389,3.389,0,0,1-1.375,1.121A4.511,4.511,0,0,1,27.34,35.156Zm-.258-6.945a1.411,1.411,0,0,0-1.09.455,2.357,2.357,0,0,0-.535,1.3H28.6v-.181a1.681,1.681,0,0,0-.406-1.165A1.456,1.456,0,0,0,27.082,28.211ZM38.16,26.547l.07.977a2.951,2.951,0,0,1,2.43-1.133,2.453,2.453,0,0,1,2,.789,3.682,3.682,0,0,1,.672,2.359V35H41.074V29.594a1.465,1.465,0,0,0-.312-1.043,1.4,1.4,0,0,0-1.039-.324,1.553,1.553,0,0,0-1.43.813V35H36.035V26.547ZM44.691,30.7a5.013,5.013,0,0,1,.484-2.242A3.546,3.546,0,0,1,46.57,26.93a4.069,4.069,0,0,1,2.113-.539,3.849,3.849,0,0,1,2.793,1.047,4.2,4.2,0,0,1,1.207,2.844l.016.578a4.418,4.418,0,0,1-1.086,3.121,4.209,4.209,0,0,1-5.832,0,4.5,4.5,0,0,1-1.09-3.187Zm2.258.16A3.16,3.16,0,0,0,47.4,32.7a1.628,1.628,0,0,0,2.578.008,3.457,3.457,0,0,0,.461-2.015,3.128,3.128,0,0,0-.461-1.831,1.5,1.5,0,0,0-1.3-.649,1.474,1.474,0,0,0-1.281.646A3.516,3.516,0,0,0,46.949,30.856Zm9.844-6.387v2.078h1.445V28.2H56.793v4.219a1.007,1.007,0,0,0,.18.672.9.9,0,0,0,.688.2,3.6,3.6,0,0,0,.664-.055v1.711a4.648,4.648,0,0,1-1.367.2,2.156,2.156,0,0,1-2.422-2.4V28.2H53.3V26.547h1.234V24.469ZM64.395,35a2.507,2.507,0,0,1-.227-.758,2.732,2.732,0,0,1-2.133.914,3,3,0,0,1-2.059-.719,2.312,2.312,0,0,1-.816-1.812,2.389,2.389,0,0,1,1-2.062,4.915,4.915,0,0,1,2.879-.727h1.039v-.484a1.393,1.393,0,0,0-.3-.937,1.183,1.183,0,0,0-.949-.352,1.345,1.345,0,0,0-.895.273.929.929,0,0,0-.324.75H59.348a2.268,2.268,0,0,1,.453-1.359,3,3,0,0,1,1.281-.98,4.669,4.669,0,0,1,1.859-.355,3.689,3.689,0,0,1,2.48.785,2.747,2.747,0,0,1,.918,2.207v3.664a4.041,4.041,0,0,0,.336,1.82V35Zm-1.867-1.57a1.945,1.945,0,0,0,.922-.223,1.462,1.462,0,0,0,.625-.6V31.156H63.23q-1.7,0-1.8,1.172l-.008.133a.9.9,0,0,0,.3.7A1.153,1.153,0,0,0,62.527,33.43Zm10.125-.766a.727.727,0,0,0-.41-.652,4.659,4.659,0,0,0-1.316-.426q-3.016-.633-3.016-2.562a2.323,2.323,0,0,1,.934-1.879,3.766,3.766,0,0,1,2.441-.754,4.053,4.053,0,0,1,2.574.758,2.388,2.388,0,0,1,.965,1.969H72.566a1.092,1.092,0,0,0-.312-.8A1.322,1.322,0,0,0,71.277,28a1.351,1.351,0,0,0-.883.258.814.814,0,0,0-.312.656.7.7,0,0,0,.355.605,3.657,3.657,0,0,0,1.2.4,9.8,9.8,0,0,1,1.422.379,2.336,2.336,0,0,1,1.789,2.273,2.2,2.2,0,0,1-.992,1.871,4.28,4.28,0,0,1-2.562.715,4.47,4.47,0,0,1-1.887-.379,3.166,3.166,0,0,1-1.293-1.039,2.414,2.414,0,0,1-.469-1.426h2.141a1.179,1.179,0,0,0,.445.922,1.766,1.766,0,0,0,1.109.32,1.635,1.635,0,0,0,.98-.246A.766.766,0,0,0,72.652,32.664Z" transform="translate(6248.633 -8227.369)" fill="#12263f"/>
        <g id="notas" transform="translate(6277.302 -8184.369)">
          <path id="Trazado_611499" data-name="Trazado 611499" d="M33.539,33.936v3.85l-2.567,2.567H2.567L0,37.786v-3.85A3.919,3.919,0,0,1,3.85,30H29.688A3.919,3.919,0,0,1,33.539,33.936Z" transform="translate(0 -27.433)" fill="#4d5a68"/>
          <path id="Trazado_611500" data-name="Trazado 611500" d="M212.769,33.936v3.85L210.2,40.352H196V30h12.919A3.919,3.919,0,0,1,212.769,33.936Z" transform="translate(-179.231 -27.433)" fill="#304653"/>
          <path id="Trazado_611501" data-name="Trazado 611501" d="M33.539,121v29.517a3.919,3.919,0,0,1-3.85,3.936H3.85A3.919,3.919,0,0,1,0,150.517V121Z" transform="translate(0 -110.648)" fill="#3b5620"/>
          <path id="Trazado_611503" data-name="Trazado 611503" d="M61.283,7.786A1.283,1.283,0,0,1,60,6.5V1.283a1.283,1.283,0,1,1,2.567,0V6.5A1.283,1.283,0,0,1,61.283,7.786Z" transform="translate(-54.867)" fill="#cad4e4"/>
          <path id="Trazado_611504" data-name="Trazado 611504" d="M122.283,7.786A1.283,1.283,0,0,1,121,6.5V1.283a1.283,1.283,0,0,1,2.567,0V6.5A1.283,1.283,0,0,1,122.283,7.786Z" transform="translate(-110.648)" fill="#cad4e4"/>
          <path id="Trazado_611505" data-name="Trazado 611505" d="M183.567,1.283V6.5A1.283,1.283,0,0,1,181,6.5V1.283a1.283,1.283,0,0,1,2.567,0Z" transform="translate(-165.514)" fill="#cad4e4"/>
          <path id="Trazado_611506" data-name="Trazado 611506" d="M243.283,7.786A1.283,1.283,0,0,1,242,6.5V1.283a1.283,1.283,0,0,1,2.567,0V6.5A1.283,1.283,0,0,1,243.283,7.786Z" transform="translate(-221.295)" fill="#adb5cc"/>
          <path id="Trazado_611507" data-name="Trazado 611507" d="M303.283,7.786A1.283,1.283,0,0,1,302,6.5V1.283a1.283,1.283,0,0,1,2.567,0V6.5A1.283,1.283,0,0,1,303.283,7.786Z" transform="translate(-276.162)" fill="#adb5cc"/>
          <path id="Trazado_611508" data-name="Trazado 611508" d="M72.919,392.283a1.271,1.271,0,0,1-1.283,1.283H61.283a1.283,1.283,0,1,1,0-2.567H71.636A1.271,1.271,0,0,1,72.919,392.283Z" transform="translate(-54.867 -357.547)" fill="#dd864d"/>
          <path id="Trazado_611509" data-name="Trazado 611509" d="M69.069,303.567H61.283a1.283,1.283,0,1,1,0-2.567h7.786a1.283,1.283,0,1,1,0,2.567Z" transform="translate(-54.867 -275.247)" fill="#dd864d"/>
          <path id="Trazado_611510" data-name="Trazado 611510" d="M66.5,213.567H61.283a1.283,1.283,0,1,1,0-2.567H66.5a1.283,1.283,0,0,1,0,2.567Z" transform="translate(-54.867 -192.947)" fill="#dd864d"/>
          <g id="Grupo_1015669" data-name="Grupo 1015669" transform="translate(20.698 2.326)">
            <g id="Grupo_1015668" data-name="Grupo 1015668" transform="translate(14.372 8.298)">
              <path id="Trazado_611511" data-name="Trazado 611511" d="M409.911,141.284c.434-7.24,5.48-11.374,5.775-11.789a1.284,1.284,0,0,0-.282-2l-1.6-.923a1.283,1.283,0,0,1,1.283-2.223l1.6.923a3.849,3.849,0,0,1,.842,6.01,15.08,15.08,0,0,0-5.056,10.159,1.283,1.283,0,1,1-2.562-.154Z" transform="translate(-409.909 -124.173)" fill="#304653"/>
            </g>
            <path id="Trazado_611512" data-name="Trazado 611512" d="M414.095,32.969,412.17,36.3l-3.328,1.042-2.579-1.489-.762-3.4,1.925-3.334a3.85,3.85,0,0,1,6.669,3.85Z" transform="translate(-391.506 -27.191)" fill="#4d5a68"/>
            <path id="Trazado_611513" data-name="Trazado 611513" d="M430.762,42.884l-1.289-.744,5.133-8.891a3.845,3.845,0,0,1,1.409,5.259l-1.925,3.334Z" transform="translate(-413.427 -32.73)" fill="#304653"/>
            <path id="Trazado_611514" data-name="Trazado 611514" d="M268.894,113.677,262,109.7a19.544,19.544,0,0,1,4.067-10.278c.4-.482,7.3-9.3,7.62-9.708l.59-1.022,6.669,3.85-.578,1c-.039.067-4.449,11.094-4.61,11.476A19.543,19.543,0,0,1,268.894,113.677Z" transform="translate(-260.285 -83.428)" fill="url(#linear-gradient)"/>
            <path id="Trazado_611515" data-name="Trazado 611515" d="M305.718,134.252l-3.445-1.989,12.166-21.073,3.334,1.925-.578,1c-.039.067-4.449,11.094-4.61,11.476A19.544,19.544,0,0,1,305.718,134.252Z" transform="translate(-297.11 -104.003)" fill="#b12e65"/>
            <path id="Trazado_611516" data-name="Trazado 611516" d="M248.5,322.9a4.119,4.119,0,0,0-4.378.14l-.479.316c-.014.229-.072.433-.086.662l-.327,5.443-1.129,1.956a1.283,1.283,0,1,0,2.223,1.283l1.129-1.956,4.55-3c.191-.126.339-.279.53-.405l.034-.573A4.119,4.119,0,0,0,248.5,322.9Z" transform="translate(-241.923 -297.082)" fill="#cad4e4"/>
            <path id="Trazado_611517" data-name="Trazado 611517" d="M255.4,328.909l-3.362,5.824h0l-2.567,4.446a1.271,1.271,0,0,0,1.753-.47l1.129-1.956,4.55-3c.191-.126.339-.279.53-.405l.034-.573A4.119,4.119,0,0,0,255.4,328.909Z" transform="translate(-248.827 -303.095)" fill="#adb5cc"/>
          </g>
          <path id="Trazado_611518" data-name="Trazado 611518" d="M196,7.786V0a1.271,1.271,0,0,1,1.283,1.283V6.5A1.271,1.271,0,0,1,196,7.786Z" transform="translate(-179.231)" fill="#adb5cc"/>
          <path id="Trazado_611519" data-name="Trazado 611519" d="M197.283,392.283A1.271,1.271,0,0,1,196,393.567V391A1.271,1.271,0,0,1,197.283,392.283Z" transform="translate(-179.231 -357.547)" fill="#d36836"/>
        </g>
      </g>
      <g id="Grupo_1066749" data-name="Grupo 1066749" transform="translate(574.211 587.158)">
        <path id="Trazado_815356" data-name="Trazado 815356" d="M61.635,0A62,62,0,1,1,0,62,61.818,61.818,0,0,1,61.635,0Z" transform="translate(6134.549 -7984.069)" fill="#ffe3fb"/>
        <path id="Trazado_815357" data-name="Trazado 815357" d="M6.626,3.625l2.922,8.25,2.906-8.25h3.078V15H13.181V11.891l.234-5.367L10.345,15H8.735L5.673,6.531l.234,5.359V15H3.563V3.625ZM22.329,15a2.507,2.507,0,0,1-.227-.758,2.732,2.732,0,0,1-2.133.914,3,3,0,0,1-2.059-.719,2.312,2.312,0,0,1-.816-1.812,2.389,2.389,0,0,1,1-2.062,4.915,4.915,0,0,1,2.879-.727h1.039V9.352a1.393,1.393,0,0,0-.3-.937,1.183,1.183,0,0,0-.949-.352,1.345,1.345,0,0,0-.895.273.929.929,0,0,0-.324.75H17.282a2.268,2.268,0,0,1,.453-1.359,3,3,0,0,1,1.281-.98,4.669,4.669,0,0,1,1.859-.355,3.689,3.689,0,0,1,2.48.785,2.747,2.747,0,0,1,.918,2.207v3.664a4.041,4.041,0,0,0,.336,1.82V15Zm-1.867-1.57a1.945,1.945,0,0,0,.922-.223,1.462,1.462,0,0,0,.625-.6V11.156h-.844q-1.7,0-1.8,1.172l-.008.133a.9.9,0,0,0,.3.7A1.153,1.153,0,0,0,20.462,13.43Zm13.156-2.578a5.07,5.07,0,0,1-.887,3.129,2.843,2.843,0,0,1-2.395,1.176,2.633,2.633,0,0,1-2.07-.891V18.25H26.009V6.547H28.1l.078.828a2.654,2.654,0,0,1,2.141-.984,2.862,2.862,0,0,1,2.43,1.156,5.207,5.207,0,0,1,.867,3.188Zm-2.258-.164a3.327,3.327,0,0,0-.418-1.82,1.361,1.361,0,0,0-1.215-.641,1.478,1.478,0,0,0-1.461.813V12.5a1.5,1.5,0,0,0,1.477.836Q31.36,13.336,31.36,10.688ZM39.915,15a2.507,2.507,0,0,1-.227-.758,2.732,2.732,0,0,1-2.133.914,3,3,0,0,1-2.059-.719,2.312,2.312,0,0,1-.816-1.812,2.389,2.389,0,0,1,1-2.062,4.915,4.915,0,0,1,2.879-.727h1.039V9.352a1.393,1.393,0,0,0-.3-.937,1.183,1.183,0,0,0-.949-.352,1.345,1.345,0,0,0-.895.273.929.929,0,0,0-.324.75H34.868a2.268,2.268,0,0,1,.453-1.359,3,3,0,0,1,1.281-.98,4.669,4.669,0,0,1,1.859-.355,3.689,3.689,0,0,1,2.48.785,2.747,2.747,0,0,1,.918,2.207v3.664a4.041,4.041,0,0,0,.336,1.82V15Zm-1.867-1.57a1.945,1.945,0,0,0,.922-.223,1.462,1.462,0,0,0,.625-.6V11.156h-.844q-1.7,0-1.8,1.172l-.008.133a.9.9,0,0,0,.3.7A1.153,1.153,0,0,0,38.048,13.43Zm10.125-.766a.727.727,0,0,0-.41-.652,4.659,4.659,0,0,0-1.316-.426q-3.016-.633-3.016-2.562a2.323,2.323,0,0,1,.934-1.879,3.766,3.766,0,0,1,2.441-.754,4.053,4.053,0,0,1,2.574.758,2.388,2.388,0,0,1,.965,1.969H48.087a1.092,1.092,0,0,0-.312-.8A1.322,1.322,0,0,0,46.8,8a1.351,1.351,0,0,0-.883.258.814.814,0,0,0-.312.656.7.7,0,0,0,.355.605,3.657,3.657,0,0,0,1.2.4,9.8,9.8,0,0,1,1.422.379,2.336,2.336,0,0,1,1.789,2.273,2.2,2.2,0,0,1-.992,1.871,4.28,4.28,0,0,1-2.562.715,4.47,4.47,0,0,1-1.887-.379,3.166,3.166,0,0,1-1.293-1.039,2.414,2.414,0,0,1-.469-1.426h2.141a1.179,1.179,0,0,0,.445.922,1.766,1.766,0,0,0,1.109.32,1.635,1.635,0,0,0,.98-.246A.766.766,0,0,0,48.173,12.664Z" transform="translate(6169.185 -7962.608)" fill="#12263f"/>
        <g id="mapa" transform="translate(6169.185 -7936.854)">
          <g id="Grupo_1015670" data-name="Grupo 1015670" transform="translate(15.77 19.738)">
            <path id="Trazado_611520" data-name="Trazado 611520" d="M380.41,225.768l-4.837-26.648a.9.9,0,0,0-.45-.628l-12.174-6.771a.9.9,0,0,0-.509-.11l2.215,28.572-.074.033,14.57,6.536a.9.9,0,0,0,1.259-.985Z" transform="translate(-334.627 -191.609)" fill="url(#linear-gradient-2)"/>
            <path id="Trazado_611521" data-name="Trazado 611521" d="M146.156,198.192,133.7,191.707a.9.9,0,0,0-.478-.1.933.933,0,0,1,.13,0l-2.215,28.572,14.644,6.57a.906.906,0,0,0,.37.079h0Z" transform="translate(-131.142 -191.607)" fill="url(#linear-gradient-2)"/>
          </g>
          <g id="Grupo_1015671" data-name="Grupo 1015671" transform="translate(0 19.738)">
            <path id="Trazado_611522" data-name="Trazado 611522" d="M17.984,191.613a.9.9,0,0,0-.509.109L5.3,198.493a.9.9,0,0,0-.45.628L.015,225.769a.9.9,0,0,0,1.259.985l14.49-6.5Z" transform="translate(0 -191.61)" fill="url(#linear-gradient-2)"/>
            <path id="Trazado_611523" data-name="Trazado 611523" d="M268.8,191.628a.9.9,0,0,0-.348.1L256,198.211v28.638h0a.9.9,0,0,0,.37-.079l14.644-6.57Z" transform="translate(-225.217 -191.626)" fill="url(#linear-gradient-2)"/>
          </g>
          <path id="Trazado_611524" data-name="Trazado 611524" d="M20.966,267.448l-.983,5.413,14.549-7.685.338-4.358.056-.723Z" transform="translate(-17.58 -232.123)" fill="#ffdb56"/>
          <path id="Trazado_611525" data-name="Trazado 611525" d="M17.083,288.294l-.131,1.69L2.4,297.668.015,310.827a.9.9,0,0,0,1.259.985l14.49-6.5,1.319-17.017Z" transform="translate(0 -256.93)" fill="url(#linear-gradient-2)"/>
          <g id="Grupo_1015672" data-name="Grupo 1015672" transform="translate(16.952 22.836)">
            <path id="Trazado_611526" data-name="Trazado 611526" d="M154.812,262.019,141.371,260.1l-.394,5.08,13.831,21v-7.638l-8.253-13,8.257.988Z" transform="translate(-140.977 -254.959)" fill="#ffbb24"/>
            <path id="Trazado_611527" data-name="Trazado 611527" d="M376.654,220.623l-5.848-3.253-5.536,1.294.069.894.273,3.527Z" transform="translate(-338.298 -217.37)" fill="#ffbb24"/>
          </g>
          <path id="Trazado_611528" data-name="Trazado 611528" d="M270,238.884l-.524-6.764h0l-.309-3.992-13.136,5.766v4.517l8.58-3.731Z" transform="translate(-225.243 -203.999)" fill="#ffdb56"/>
          <path id="Trazado_611529" data-name="Trazado 611529" d="M385.406,290.245l-1.215-6.694L368.119,264.9l.491,6.334L385.092,291.1A.9.9,0,0,0,385.406,290.245Z" transform="translate(-323.853 -236.347)" fill="#ffbb24"/>
          <path id="Trazado_611530" data-name="Trazado 611530" d="M164,27.465a12.65,12.65,0,0,0-12.64,12.63c0,4.308,2.045,8.933,6.079,13.747a43.2,43.2,0,0,0,6.008,5.9.9.9,0,0,0,1.106,0,43.209,43.209,0,0,0,6.008-5.9c4.034-4.814,6.079-9.439,6.079-13.747A12.65,12.65,0,0,0,164,27.465Zm4.681,12.63A4.681,4.681,0,1,1,164,35.418,4.679,4.679,0,0,1,168.683,40.1Z" transform="translate(-133.16 -27.465)" fill="url(#linear-gradient)"/>
          <path id="Trazado_611532" data-name="Trazado 611532" d="M256.37,421.969l5.445-2.443L256,413.507v8.541h0A.9.9,0,0,0,256.37,421.969Z" transform="translate(-225.217 -367.086)" fill="#ffdb56"/>
          <g id="Grupo_1015673" data-name="Grupo 1015673" transform="translate(15.769 26.088)">
            <path id="Trazado_611533" data-name="Trazado 611533" d="M380.568,245.581a.9.9,0,0,0-.45-.628l-.958-.533-11.042,2.462h0l16.072,18.653Z" transform="translate(-339.622 -244.42)" fill="#1ea4e9"/>
            <path id="Trazado_611534" data-name="Trazado 611534" d="M146.154,324.254h0v-.9l-13.831-21L131.14,317.6l14.644,6.57A.9.9,0,0,0,146.154,324.254Z" transform="translate(-131.14 -295.38)" fill="#1ea4e9"/>
          </g>
        </g>
      </g>
      <g id="Grupo_1066752" data-name="Grupo 1066752" transform="translate(825.615 1171.125)">
        <path id="Trazado_815359" data-name="Trazado 815359" d="M62,0A62,62,0,1,1,0,62,62,62,0,0,1,62,0Z" transform="translate(5882.416 -7984.069)" fill="#ffe3fb"/>
        <path id="Trazado_815358" data-name="Trazado 815358" d="M12.984,17V4.2h3.938a5.98,5.98,0,0,1,3.019.76A5.3,5.3,0,0,1,22.02,7.125a6.669,6.669,0,0,1,.747,3.186V10.9a6.688,6.688,0,0,1-.734,3.173,5.256,5.256,0,0,1-2.07,2.153A6.025,6.025,0,0,1,16.948,17ZM15.621,6.339v8.543H16.9a2.863,2.863,0,0,0,2.364-1.011,4.567,4.567,0,0,0,.835-2.892V10.3a4.64,4.64,0,0,0-.809-2.958,2.854,2.854,0,0,0-2.364-1.006ZM27.2,17H24.647V7.49H27.2ZM24.5,5.029a1.251,1.251,0,0,1,.382-.94,1.648,1.648,0,0,1,2.079,0,1.244,1.244,0,0,1,.387.94,1.247,1.247,0,0,1-.391.949,1.629,1.629,0,0,1-2.065,0A1.247,1.247,0,0,1,24.5,5.029Zm9.94,9.343a.818.818,0,0,0-.461-.734,5.241,5.241,0,0,0-1.481-.479Q29.1,12.447,29.1,10.276a2.613,2.613,0,0,1,1.05-2.114A4.237,4.237,0,0,1,32.9,7.314a4.56,4.56,0,0,1,2.9.853,2.687,2.687,0,0,1,1.085,2.215h-2.54a1.229,1.229,0,0,0-.352-.9,1.488,1.488,0,0,0-1.1-.356,1.52,1.52,0,0,0-.993.29.916.916,0,0,0-.352.738.783.783,0,0,0,.4.681,4.114,4.114,0,0,0,1.349.448,11.019,11.019,0,0,1,1.6.426,2.628,2.628,0,0,1,2.013,2.558,2.481,2.481,0,0,1-1.116,2.1,4.815,4.815,0,0,1-2.883.8,5.029,5.029,0,0,1-2.123-.426,3.561,3.561,0,0,1-1.455-1.169,2.716,2.716,0,0,1-.527-1.6h2.408a1.326,1.326,0,0,0,.5,1.037,1.987,1.987,0,0,0,1.248.36,1.839,1.839,0,0,0,1.1-.277A.861.861,0,0,0,34.438,14.372ZM47.1,12.333a5.7,5.7,0,0,1-1,3.52,3.2,3.2,0,0,1-2.694,1.323,2.963,2.963,0,0,1-2.329-1v4.482h-2.54V7.49H40.9l.088.932a2.985,2.985,0,0,1,2.408-1.107,3.22,3.22,0,0,1,2.733,1.3A5.858,5.858,0,0,1,47.1,12.2Zm-2.54-.185a3.743,3.743,0,0,0-.47-2.048,1.532,1.532,0,0,0-1.367-.721,1.663,1.663,0,0,0-1.644.914v3.894a1.692,1.692,0,0,0,1.661.94Q44.563,15.128,44.563,12.148Zm3.718.009a5.64,5.64,0,0,1,.545-2.522A3.989,3.989,0,0,1,50.4,7.921a4.577,4.577,0,0,1,2.377-.606,4.33,4.33,0,0,1,3.142,1.178,4.727,4.727,0,0,1,1.358,3.2l.018.65a4.97,4.97,0,0,1-1.222,3.511,4.735,4.735,0,0,1-6.561,0,5.058,5.058,0,0,1-1.226-3.586Zm2.54.18a3.555,3.555,0,0,0,.51,2.073,1.831,1.831,0,0,0,2.9.009,3.89,3.89,0,0,0,.519-2.267,3.519,3.519,0,0,0-.519-2.06,1.686,1.686,0,0,0-1.459-.731,1.658,1.658,0,0,0-1.441.726A3.955,3.955,0,0,0,50.821,12.338ZM64,14.372a.818.818,0,0,0-.461-.734,5.241,5.241,0,0,0-1.481-.479q-3.393-.712-3.393-2.883a2.613,2.613,0,0,1,1.05-2.114,4.237,4.237,0,0,1,2.747-.848,4.56,4.56,0,0,1,2.9.853,2.687,2.687,0,0,1,1.085,2.215h-2.54a1.229,1.229,0,0,0-.352-.9,1.488,1.488,0,0,0-1.1-.356,1.52,1.52,0,0,0-.993.29.916.916,0,0,0-.352.738.783.783,0,0,0,.4.681,4.114,4.114,0,0,0,1.349.448,11.019,11.019,0,0,1,1.6.426,2.628,2.628,0,0,1,2.013,2.558,2.481,2.481,0,0,1-1.116,2.1,4.815,4.815,0,0,1-2.883.8,5.029,5.029,0,0,1-2.123-.426A3.561,3.561,0,0,1,58.9,15.581a2.716,2.716,0,0,1-.527-1.6h2.408a1.326,1.326,0,0,0,.5,1.037,1.987,1.987,0,0,0,1.248.36,1.839,1.839,0,0,0,1.1-.277A.861.861,0,0,0,64,14.372ZM70.79,17H68.241V7.49H70.79Zm-2.7-11.971a1.251,1.251,0,0,1,.382-.94,1.648,1.648,0,0,1,2.079,0,1.244,1.244,0,0,1,.387.94,1.247,1.247,0,0,1-.391.949,1.629,1.629,0,0,1-2.065,0A1.247,1.247,0,0,1,68.092,5.029Zm7.831.123V7.49h1.626V9.354H75.923V14.1a1.133,1.133,0,0,0,.2.756,1.015,1.015,0,0,0,.773.229,4.051,4.051,0,0,0,.747-.062v1.925a5.229,5.229,0,0,1-1.538.229,2.425,2.425,0,0,1-2.725-2.7V9.354H71.994V7.49h1.389V5.152ZM81.645,17H79.1V7.49h2.549Zm-2.7-11.971a1.251,1.251,0,0,1,.382-.94,1.648,1.648,0,0,1,2.079,0,1.244,1.244,0,0,1,.387.94,1.247,1.247,0,0,1-.391.949,1.629,1.629,0,0,1-2.065,0A1.247,1.247,0,0,1,78.946,5.029ZM87.3,13.9,89.063,7.49h2.654L88.509,17H86.083L82.875,7.49h2.654Zm5.01-1.74a5.64,5.64,0,0,1,.545-2.522,3.989,3.989,0,0,1,1.569-1.714A4.577,4.577,0,0,1,96.8,7.314a4.33,4.33,0,0,1,3.142,1.178,4.727,4.727,0,0,1,1.358,3.2l.018.65a4.97,4.97,0,0,1-1.222,3.511,4.735,4.735,0,0,1-6.561,0,5.058,5.058,0,0,1-1.226-3.586Zm2.54.18a3.555,3.555,0,0,0,.51,2.073,1.831,1.831,0,0,0,2.9.009,3.89,3.89,0,0,0,.519-2.267,3.519,3.519,0,0,0-.519-2.06A1.686,1.686,0,0,0,96.8,9.362a1.658,1.658,0,0,0-1.441.726A3.955,3.955,0,0,0,94.846,12.338Zm13.184,2.035a.818.818,0,0,0-.461-.734,5.241,5.241,0,0,0-1.481-.479q-3.393-.712-3.393-2.883a2.613,2.613,0,0,1,1.05-2.114,4.237,4.237,0,0,1,2.747-.848,4.56,4.56,0,0,1,2.9.853,2.687,2.687,0,0,1,1.085,2.215h-2.54a1.229,1.229,0,0,0-.352-.9,1.488,1.488,0,0,0-1.1-.356,1.52,1.52,0,0,0-.993.29.916.916,0,0,0-.352.738.783.783,0,0,0,.4.681,4.114,4.114,0,0,0,1.349.448,11.019,11.019,0,0,1,1.6.426,2.628,2.628,0,0,1,2.013,2.558,2.481,2.481,0,0,1-1.116,2.1,4.815,4.815,0,0,1-2.883.8,5.029,5.029,0,0,1-2.123-.426,3.561,3.561,0,0,1-1.455-1.169,2.716,2.716,0,0,1-.527-1.6H104.8a1.326,1.326,0,0,0,.5,1.037,1.987,1.987,0,0,0,1.248.36,1.839,1.839,0,0,0,1.1-.277A.861.861,0,0,0,108.029,14.372ZM20.846,27.49l.079,1.063a3.342,3.342,0,0,1,2.733-1.239,2.536,2.536,0,0,1,2.522,1.45,3.265,3.265,0,0,1,2.856-1.45,2.836,2.836,0,0,1,2.3.9,4.141,4.141,0,0,1,.756,2.711V37H29.547V30.936a1.811,1.811,0,0,0-.316-1.182,1.4,1.4,0,0,0-1.116-.374,1.585,1.585,0,0,0-1.582,1.09L26.542,37H24V30.944a1.789,1.789,0,0,0-.325-1.2,1.416,1.416,0,0,0-1.107-.369,1.646,1.646,0,0,0-1.564.9V37h-2.54V27.49Zm17.578,9.686a4.668,4.668,0,0,1-3.406-1.283A4.561,4.561,0,0,1,33.7,32.474v-.246a5.745,5.745,0,0,1,.554-2.562,4.064,4.064,0,0,1,1.569-1.74,4.4,4.4,0,0,1,2.316-.611,3.947,3.947,0,0,1,3.072,1.23,5,5,0,0,1,1.121,3.489v1.037H36.28a2.36,2.36,0,0,0,.743,1.494,2.245,2.245,0,0,0,1.569.563,2.742,2.742,0,0,0,2.294-1.063l1.248,1.4a3.813,3.813,0,0,1-1.547,1.261A5.075,5.075,0,0,1,38.424,37.176Zm-.29-7.813a1.587,1.587,0,0,0-1.226.512,2.651,2.651,0,0,0-.6,1.466h3.533v-.2a1.891,1.891,0,0,0-.457-1.311A1.638,1.638,0,0,0,38.134,29.362Zm9.6,5.766a1.666,1.666,0,0,0,1.143-.387,1.355,1.355,0,0,0,.457-1.028h2.382a3.258,3.258,0,0,1-.527,1.771,3.48,3.48,0,0,1-1.419,1.248,4.442,4.442,0,0,1-1.991.444,4.129,4.129,0,0,1-3.217-1.3A5.13,5.13,0,0,1,43.381,32.3v-.167a5.071,5.071,0,0,1,1.169-3.507,4.08,4.08,0,0,1,3.208-1.31,4,4,0,0,1,2.861,1.015,3.594,3.594,0,0,1,1.094,2.7H49.332a1.745,1.745,0,0,0-.457-1.206,1.7,1.7,0,0,0-2.5.183,3.749,3.749,0,0,0-.453,2.1v.264a3.8,3.8,0,0,0,.448,2.113A1.549,1.549,0,0,0,47.732,35.128ZM58.674,37a2.821,2.821,0,0,1-.255-.853,3.073,3.073,0,0,1-2.4,1.028,3.376,3.376,0,0,1-2.316-.809,2.6,2.6,0,0,1-.918-2.039,2.687,2.687,0,0,1,1.121-2.32,5.529,5.529,0,0,1,3.239-.817h1.169v-.545a1.567,1.567,0,0,0-.338-1.055,1.331,1.331,0,0,0-1.068-.4A1.513,1.513,0,0,0,55.9,29.5a1.045,1.045,0,0,0-.365.844H53a2.551,2.551,0,0,1,.51-1.529,3.37,3.37,0,0,1,1.441-1.1,5.253,5.253,0,0,1,2.092-.4,4.15,4.15,0,0,1,2.791.883,3.09,3.09,0,0,1,1.033,2.483V34.8a4.546,4.546,0,0,0,.378,2.048V37Zm-2.1-1.767a2.188,2.188,0,0,0,1.037-.25,1.645,1.645,0,0,0,.7-.672V32.676h-.949q-1.907,0-2.03,1.318l-.009.149a1.017,1.017,0,0,0,.334.782A1.3,1.3,0,0,0,56.574,35.233ZM57.541,23.5h2.769l-2.435,2.725H55.809Zm7.611,3.99.079,1.1a3.32,3.32,0,0,1,2.733-1.274,2.759,2.759,0,0,1,2.25.888,4.142,4.142,0,0,1,.756,2.654V37H68.43V30.918a1.648,1.648,0,0,0-.352-1.173,1.574,1.574,0,0,0-1.169-.365,1.747,1.747,0,0,0-1.608.914V37h-2.54V27.49ZM75.576,37H73.027V27.49h2.549Zm-2.7-11.971a1.251,1.251,0,0,1,.382-.94,1.648,1.648,0,0,1,2.079,0,1.342,1.342,0,0,1,0,1.89,1.629,1.629,0,0,1-2.065,0A1.247,1.247,0,0,1,72.877,25.029Zm8.745,10.1a1.666,1.666,0,0,0,1.143-.387,1.355,1.355,0,0,0,.457-1.028H85.6a3.258,3.258,0,0,1-.527,1.771,3.48,3.48,0,0,1-1.419,1.248,4.442,4.442,0,0,1-1.991.444,4.129,4.129,0,0,1-3.217-1.3A5.13,5.13,0,0,1,77.272,32.3v-.167a5.071,5.071,0,0,1,1.169-3.507,4.08,4.08,0,0,1,3.208-1.31A4,4,0,0,1,84.51,28.33a3.594,3.594,0,0,1,1.094,2.7H83.222a1.745,1.745,0,0,0-.457-1.206,1.7,1.7,0,0,0-2.5.183,3.749,3.749,0,0,0-.453,2.1v.264a3.8,3.8,0,0,0,.448,2.113A1.549,1.549,0,0,0,81.623,35.128Zm5.036-2.971a5.64,5.64,0,0,1,.545-2.522,3.989,3.989,0,0,1,1.569-1.714,4.577,4.577,0,0,1,2.377-.606,4.33,4.33,0,0,1,3.142,1.178,4.727,4.727,0,0,1,1.358,3.2l.018.65a4.97,4.97,0,0,1-1.222,3.511,4.735,4.735,0,0,1-6.561,0,5.058,5.058,0,0,1-1.226-3.586Zm2.54.18a3.555,3.555,0,0,0,.51,2.073,1.831,1.831,0,0,0,2.9.009,3.89,3.89,0,0,0,.519-2.267,3.519,3.519,0,0,0-.519-2.06,1.686,1.686,0,0,0-1.459-.731,1.658,1.658,0,0,0-1.441.726A3.955,3.955,0,0,0,89.2,32.338Zm13.184,2.035a.818.818,0,0,0-.461-.734,5.241,5.241,0,0,0-1.481-.479q-3.393-.712-3.393-2.883a2.613,2.613,0,0,1,1.05-2.114,4.237,4.237,0,0,1,2.747-.848,4.56,4.56,0,0,1,2.9.853,2.687,2.687,0,0,1,1.085,2.215h-2.54a1.229,1.229,0,0,0-.352-.9,1.488,1.488,0,0,0-1.1-.356,1.52,1.52,0,0,0-.993.29.916.916,0,0,0-.352.738.783.783,0,0,0,.4.681,4.114,4.114,0,0,0,1.349.448,11.019,11.019,0,0,1,1.6.426,2.628,2.628,0,0,1,2.013,2.558,2.481,2.481,0,0,1-1.116,2.1,4.815,4.815,0,0,1-2.883.8,5.029,5.029,0,0,1-2.123-.426,3.561,3.561,0,0,1-1.455-1.169,2.716,2.716,0,0,1-.527-1.6h2.408a1.326,1.326,0,0,0,.5,1.037,1.987,1.987,0,0,0,1.248.36,1.839,1.839,0,0,0,1.1-.277A.861.861,0,0,0,102.382,34.372Z" transform="translate(5883.416 -7954.157)" fill="#12263f"/>
        <g id="camara_1_" data-name="camara (1)" transform="translate(5924.419 -7906.297)">
          <path id="Trazado_609413" data-name="Trazado 609413" d="M46.064,68.938V63.08a.9.9,0,0,0-.9-.9H42.172a.9.9,0,0,0-.9.9v5.857" transform="translate(-37.969 -60.76)" fill="#e5e9ea"/>
          <path id="Trazado_609414" data-name="Trazado 609414" d="M43.449,68.938V62.182H42.172a.9.9,0,0,0-.9.9v5.857" transform="translate(-37.969 -60.76)" fill="#d1d1d1"/>
          <path id="Trazado_609415" data-name="Trazado 609415" d="M40.994,53.664V75.58A2.721,2.721,0,0,1,38.273,78.3H2.721A2.721,2.721,0,0,1,0,75.58V53.664a2.721,2.721,0,0,1,2.721-2.721H8.1a2.721,2.721,0,0,0,2.571-1.829l.993-2.866a2.721,2.721,0,0,1,2.571-1.83h15.87a2.721,2.721,0,0,1,2.57,1.83l.994,2.866a2.72,2.72,0,0,0,2.57,1.829h2.034A2.721,2.721,0,0,1,40.994,53.664Z" transform="translate(0 -44.419)" fill="url(#linear-gradient)"/>
          <path id="Trazado_609418" data-name="Trazado 609418" d="M40.994,218.384v17.232a2.721,2.721,0,0,1-2.721,2.721H2.721A2.721,2.721,0,0,1,0,235.616V218.384Z" transform="translate(0 -204.455)" fill="#3b5620"/>
          <circle id="Elipse_5625" data-name="Elipse 5625" cx="11.335" cy="11.335" r="11.335" transform="translate(9.162 8.659)" fill="#e5e9ea"/>
          <path id="Trazado_609420" data-name="Trazado 609420" d="M171.919,202.052a8.016,8.016,0,1,1-2.644-5.948A7.995,7.995,0,0,1,171.919,202.052Z" transform="translate(-143.408 -182.058)" fill="#566368"/>
          <g id="Grupo_1015412" data-name="Grupo 1015412" transform="translate(12.482 11.98)">
            <path id="Trazado_609421" data-name="Trazado 609421" d="M256.852,196.387a8,8,0,0,1,2.337,6.076,8.015,8.015,0,0,1-8.413-8.413A7.992,7.992,0,0,1,256.852,196.387Z" transform="translate(-243.17 -194.04)" fill="#6f7b7f"/>
            <path id="Trazado_609422" data-name="Trazado 609422" d="M161.982,291.256a8,8,0,0,1,2.337,6.076,8.013,8.013,0,0,1-8.413-8.413A7.992,7.992,0,0,1,161.982,291.256Z" transform="translate(-155.896 -281.313)" fill="#6f7b7f"/>
          </g>
          <g id="Grupo_1015413" data-name="Grupo 1015413" transform="translate(11.854 11.352)">
            <path id="Trazado_609423" data-name="Trazado 609423" d="M156.7,203.483a8.643,8.643,0,1,1,8.643-8.643A8.652,8.652,0,0,1,156.7,203.483Zm0-16.03a7.388,7.388,0,1,0,7.388,7.388A7.4,7.4,0,0,0,156.7,187.453Z" transform="translate(-148.055 -186.198)" fill="#435054"/>
            <path id="Trazado_609424" data-name="Trazado 609424" d="M219.029,253.955a3.218,3.218,0,1,0,3.217,3.218A3.221,3.221,0,0,0,219.029,253.955Z" transform="translate(-210.387 -248.53)" fill="#435054"/>
          </g>
          <path id="Trazado_609425" data-name="Trazado 609425" d="M293.371,76.265H298.3a1.174,1.174,0,0,0,1.174-1.174V73.8a1.174,1.174,0,0,0-1.174-1.174h-4.931A1.174,1.174,0,0,0,292.2,73.8v1.292A1.174,1.174,0,0,0,293.371,76.265Z" transform="translate(-268.802 -70.368)" fill="#e5e9ea"/>
          <path id="Trazado_609426" data-name="Trazado 609426" d="M291.092,69.684h-4.931a1.8,1.8,0,0,1-1.8-1.8V66.591a1.8,1.8,0,0,1,1.8-1.8h4.931a1.8,1.8,0,0,1,1.8,1.8v1.292A1.8,1.8,0,0,1,291.092,69.684Zm-4.931-3.639a.547.547,0,0,0-.546.546v1.292a.547.547,0,0,0,.546.546h4.931a.547.547,0,0,0,.546-.546V66.591a.547.547,0,0,0-.546-.546Z" transform="translate(-261.592 -63.159)" fill="#e29a4b"/>
          <circle id="Elipse_5626" data-name="Elipse 5626" cx="2.269" cy="2.269" r="2.269" transform="translate(5.524 27.021)" fill="#566368"/>
        </g>
      </g>
      <g id="Grupo_1066753" data-name="Grupo 1066753" transform="translate(915.082 1925.102)">
        <path id="Trazado_815360" data-name="Trazado 815360" d="M62,0A62,62,0,1,1,0,62,62,62,0,0,1,62,0Z" transform="translate(5792.949 -8246.369)" fill="#ffe3fb"/>
        <path id="Trazado_815361" data-name="Trazado 815361" d="M10.357,11.211A4.025,4.025,0,0,1,9,14.1a4.76,4.76,0,0,1-3.223,1.055,4.28,4.28,0,0,1-3.441-1.473A6.038,6.038,0,0,1,1.084,9.641v-.7a6.819,6.819,0,0,1,.578-2.891A4.332,4.332,0,0,1,3.314,4.137a4.629,4.629,0,0,1,2.5-.668A4.637,4.637,0,0,1,8.982,4.523a4.326,4.326,0,0,1,1.391,2.961H8.029a2.376,2.376,0,0,0-.613-1.6,2.271,2.271,0,0,0-1.605-.5,1.991,1.991,0,0,0-1.754.84,4.707,4.707,0,0,0-.6,2.605V9.7a5.038,5.038,0,0,0,.559,2.7,1.954,1.954,0,0,0,1.762.852,2.314,2.314,0,0,0,1.621-.5,2.241,2.241,0,0,0,.613-1.535Zm6.453,2.93A2.831,2.831,0,0,1,14.5,15.156a2.67,2.67,0,0,1-2.074-.781,3.335,3.335,0,0,1-.73-2.289V6.547h2.258v5.467q0,1.322,1.2,1.322a1.63,1.63,0,0,0,1.578-.8V6.547H19V15H16.873ZM25.6,15a2.507,2.507,0,0,1-.227-.758,2.732,2.732,0,0,1-2.133.914,3,3,0,0,1-2.059-.719,2.312,2.312,0,0,1-.816-1.812,2.389,2.389,0,0,1,1-2.062,4.915,4.915,0,0,1,2.879-.727h1.039V9.352a1.393,1.393,0,0,0-.3-.937,1.183,1.183,0,0,0-.949-.352,1.345,1.345,0,0,0-.895.273.929.929,0,0,0-.324.75H20.553a2.268,2.268,0,0,1,.453-1.359,3,3,0,0,1,1.281-.98,4.669,4.669,0,0,1,1.859-.355,3.689,3.689,0,0,1,2.48.785,2.747,2.747,0,0,1,.918,2.207v3.664a4.041,4.041,0,0,0,.336,1.82V15Zm-1.867-1.57a1.945,1.945,0,0,0,.922-.223,1.462,1.462,0,0,0,.625-.6V11.156h-.844q-1.7,0-1.8,1.172l-.008.133a.9.9,0,0,0,.3.7A1.153,1.153,0,0,0,23.732,13.43Zm5.2-2.719a5.094,5.094,0,0,1,.887-3.148A2.877,2.877,0,0,1,32.24,6.391a2.589,2.589,0,0,1,2.039.922V3h2.266V15H34.506l-.109-.9a2.657,2.657,0,0,1-2.172,1.055A2.869,2.869,0,0,1,29.83,13.98,5.258,5.258,0,0,1,28.928,10.711Zm2.258.168A3.337,3.337,0,0,0,31.6,12.7a1.349,1.349,0,0,0,1.2.634,1.511,1.511,0,0,0,1.477-.884V9.111a1.489,1.489,0,0,0-1.461-.884Q31.186,8.227,31.186,10.879ZM43.045,8.664a6.134,6.134,0,0,0-.812-.062,1.654,1.654,0,0,0-1.68.867V15H38.295V6.547h2.133l.063,1.008a2.092,2.092,0,0,1,1.883-1.164,2.366,2.366,0,0,1,.7.1ZM43.5,10.7a5.013,5.013,0,0,1,.484-2.242A3.546,3.546,0,0,1,45.377,6.93a4.069,4.069,0,0,1,2.113-.539,3.849,3.849,0,0,1,2.793,1.047,4.2,4.2,0,0,1,1.207,2.844l.016.578A4.418,4.418,0,0,1,50.42,13.98a4.209,4.209,0,0,1-5.832,0A4.5,4.5,0,0,1,43.5,10.8Zm2.258.16a3.16,3.16,0,0,0,.453,1.843,1.628,1.628,0,0,0,2.578.008,3.457,3.457,0,0,0,.461-2.015,3.128,3.128,0,0,0-.461-1.831,1.5,1.5,0,0,0-1.3-.649,1.474,1.474,0,0,0-1.281.646A3.516,3.516,0,0,0,45.756,10.856Zm11.719,1.808a.727.727,0,0,0-.41-.652,4.659,4.659,0,0,0-1.316-.426q-3.016-.633-3.016-2.562a2.323,2.323,0,0,1,.934-1.879,3.766,3.766,0,0,1,2.441-.754,4.053,4.053,0,0,1,2.574.758,2.388,2.388,0,0,1,.965,1.969H57.389a1.092,1.092,0,0,0-.312-.8A1.322,1.322,0,0,0,56.1,8a1.351,1.351,0,0,0-.883.258.814.814,0,0,0-.312.656.7.7,0,0,0,.355.605,3.657,3.657,0,0,0,1.2.4,9.8,9.8,0,0,1,1.422.379A2.336,2.336,0,0,1,59.67,12.57a2.2,2.2,0,0,1-.992,1.871,4.28,4.28,0,0,1-2.562.715,4.47,4.47,0,0,1-1.887-.379,3.166,3.166,0,0,1-1.293-1.039,2.414,2.414,0,0,1-.469-1.426h2.141a1.179,1.179,0,0,0,.445.922,1.766,1.766,0,0,0,1.109.32,1.635,1.635,0,0,0,.98-.246A.766.766,0,0,0,57.475,12.664Zm7.281-1.953a5.094,5.094,0,0,1,.887-3.148,2.877,2.877,0,0,1,2.426-1.172,2.589,2.589,0,0,1,2.039.922V3h2.266V15H70.334l-.109-.9a2.657,2.657,0,0,1-2.172,1.055,2.869,2.869,0,0,1-2.395-1.176A5.258,5.258,0,0,1,64.756,10.711Zm2.258.168a3.337,3.337,0,0,0,.414,1.823,1.349,1.349,0,0,0,1.2.634,1.511,1.511,0,0,0,1.477-.884V9.111a1.489,1.489,0,0,0-1.461-.884Q67.014,8.227,67.014,10.879Zm11,4.277a4.15,4.15,0,0,1-3.027-1.141,4.054,4.054,0,0,1-1.168-3.039v-.219a5.106,5.106,0,0,1,.492-2.277,3.612,3.612,0,0,1,1.395-1.547,3.914,3.914,0,0,1,2.059-.543,3.508,3.508,0,0,1,2.73,1.094,4.444,4.444,0,0,1,1,3.1v.922H76.107a2.1,2.1,0,0,0,.66,1.328,2,2,0,0,0,1.395.5,2.437,2.437,0,0,0,2.039-.945l1.109,1.242a3.389,3.389,0,0,1-1.375,1.121A4.511,4.511,0,0,1,78.014,15.156Zm-.258-6.945a1.411,1.411,0,0,0-1.09.455,2.357,2.357,0,0,0-.535,1.3h3.141V9.788a1.681,1.681,0,0,0-.406-1.165A1.456,1.456,0,0,0,77.756,8.211ZM19.541,24.469v2.078h1.445V28.2H19.541v4.219a1.007,1.007,0,0,0,.18.672.9.9,0,0,0,.688.2,3.6,3.6,0,0,0,.664-.055v1.711a4.648,4.648,0,0,1-1.367.2,2.156,2.156,0,0,1-2.422-2.4V28.2H16.049V26.547h1.234V24.469Zm7.453,4.2a6.134,6.134,0,0,0-.812-.062,1.654,1.654,0,0,0-1.68.867V35H22.244V26.547h2.133l.063,1.008a2.092,2.092,0,0,1,1.883-1.164,2.366,2.366,0,0,1,.7.1ZM32.744,35a2.507,2.507,0,0,1-.227-.758,2.732,2.732,0,0,1-2.133.914,3,3,0,0,1-2.059-.719,2.312,2.312,0,0,1-.816-1.812,2.389,2.389,0,0,1,1-2.062,4.915,4.915,0,0,1,2.879-.727h1.039v-.484a1.393,1.393,0,0,0-.3-.937,1.183,1.183,0,0,0-.949-.352,1.345,1.345,0,0,0-.895.273.929.929,0,0,0-.324.75H27.7a2.268,2.268,0,0,1,.453-1.359,3,3,0,0,1,1.281-.98,4.669,4.669,0,0,1,1.859-.355,3.689,3.689,0,0,1,2.48.785,2.747,2.747,0,0,1,.918,2.207v3.664a4.041,4.041,0,0,0,.336,1.82V35Zm-1.867-1.57a1.945,1.945,0,0,0,.922-.223,1.462,1.462,0,0,0,.625-.6V31.156H31.58q-1.7,0-1.8,1.172l-.008.133a.9.9,0,0,0,.3.7A1.153,1.153,0,0,0,30.877,33.43Zm13.164-2.578a5.119,5.119,0,0,1-.867,3.168,2.872,2.872,0,0,1-2.422,1.137,2.639,2.639,0,0,1-2.2-1.055l-.1.9H36.424V23h2.258v4.3a2.571,2.571,0,0,1,2.055-.914,2.9,2.9,0,0,1,2.426,1.137,5.126,5.126,0,0,1,.879,3.2Zm-2.258-.164a3.363,3.363,0,0,0-.406-1.871,1.374,1.374,0,0,0-1.211-.59,1.489,1.489,0,0,0-1.484.883v3.336a1.509,1.509,0,0,0,1.5.891,1.394,1.394,0,0,0,1.438-1.078A5.562,5.562,0,0,0,41.783,30.688ZM50.33,35a2.507,2.507,0,0,1-.227-.758,2.732,2.732,0,0,1-2.133.914,3,3,0,0,1-2.059-.719,2.312,2.312,0,0,1-.816-1.812,2.389,2.389,0,0,1,1-2.062,4.915,4.915,0,0,1,2.879-.727H50.01v-.484a1.393,1.393,0,0,0-.3-.937,1.183,1.183,0,0,0-.949-.352,1.345,1.345,0,0,0-.895.273.929.929,0,0,0-.324.75H45.283a2.268,2.268,0,0,1,.453-1.359,3,3,0,0,1,1.281-.98,4.669,4.669,0,0,1,1.859-.355,3.689,3.689,0,0,1,2.48.785,2.747,2.747,0,0,1,.918,2.207v3.664a4.041,4.041,0,0,0,.336,1.82V35Zm-1.867-1.57a1.945,1.945,0,0,0,.922-.223,1.462,1.462,0,0,0,.625-.6V31.156h-.844q-1.7,0-1.8,1.172l-.008.133a.9.9,0,0,0,.3.7A1.153,1.153,0,0,0,48.463,33.43ZM56.4,26.547v8.914a3.024,3.024,0,0,1-.742,2.176,2.821,2.821,0,0,1-2.141.777,4.591,4.591,0,0,1-1.117-.133V36.492a4.238,4.238,0,0,0,.711.07q1.023,0,1.023-1.086v-8.93Zm-2.445-2.187a1.112,1.112,0,0,1,.34-.836,1.47,1.47,0,0,1,1.852,0,1.2,1.2,0,0,1-.008,1.68,1.448,1.448,0,0,1-1.836,0A1.108,1.108,0,0,1,53.955,24.359ZM57.814,30.7a5.013,5.013,0,0,1,.484-2.242,3.546,3.546,0,0,1,1.395-1.523,4.069,4.069,0,0,1,2.113-.539A3.849,3.849,0,0,1,64.6,27.438a4.2,4.2,0,0,1,1.207,2.844l.016.578a4.418,4.418,0,0,1-1.086,3.121,4.209,4.209,0,0,1-5.832,0,4.5,4.5,0,0,1-1.09-3.187Zm2.258.16a3.16,3.16,0,0,0,.453,1.843,1.628,1.628,0,0,0,2.578.008,3.457,3.457,0,0,0,.461-2.015A3.128,3.128,0,0,0,63.1,28.86a1.5,1.5,0,0,0-1.3-.649,1.474,1.474,0,0,0-1.281.646A3.516,3.516,0,0,0,60.072,30.856Z" transform="translate(5814.011 -8223.188)" fill="#12263f"/>
        <g id="estructura" transform="translate(5831.956 -8184.939)">
          <path id="Trazado_611535" data-name="Trazado 611535" d="M79.714,199.391V195h-2.8v4.391H60V206.4h2.8v-4.2H76.911v4.2h2.8v-4.2H93.823v4.2h2.8v-7.007Z" transform="translate(-54.394 -176.78)" fill="url(#linear-gradient)"/>
          <path id="Trazado_611536" data-name="Trazado 611536" d="M257.4,195H256v11.4h1.4v-4.2H271.51v4.2h2.8v-7.007H257.4Z" transform="translate(-232.081 -176.78)" fill="url(#linear-gradient)"/>
          <g id="Grupo_1015674" data-name="Grupo 1015674" transform="translate(16.911 28.217)">
            <path id="Trazado_611537" data-name="Trazado 611537" d="M195.015,321.621H181V302h14.015Z" transform="translate(-181 -302)" fill="#3b5620"/>
          </g>
          <path id="Trazado_611538" data-name="Trazado 611538" d="M256,302h7.008v19.621H256Z" transform="translate(-232.081 -273.783)" fill="#3b5620"/>
          <g id="Framework_2_" transform="translate(0 28.217)">
            <g id="Grupo_1015675" data-name="Grupo 1015675">
              <path id="Trazado_611539" data-name="Trazado 611539" d="M14.015,321.621H0V302H14.015Z" transform="translate(0 -302)" fill="#3b5620"/>
            </g>
            <g id="Grupo_1015676" data-name="Grupo 1015676" transform="translate(5.606 5.606)">
              <path id="Trazado_611540" data-name="Trazado 611540" d="M60,362h2.8v2.8H60Z" transform="translate(-60 -362)" fill="#fff"/>
            </g>
            <g id="Grupo_1015677" data-name="Grupo 1015677" transform="translate(5.606 11.212)">
              <path id="Trazado_611541" data-name="Trazado 611541" d="M60,422h2.8v2.8H60Z" transform="translate(-60 -422)" fill="#fff"/>
            </g>
            <g id="Grupo_1015678" data-name="Grupo 1015678" transform="translate(22.517 5.606)">
              <path id="Trazado_611542" data-name="Trazado 611542" d="M241,362h2.8v2.8H241Z" transform="translate(-241 -362)" fill="#fff"/>
            </g>
            <g id="Grupo_1015679" data-name="Grupo 1015679" transform="translate(22.517 11.212)">
              <path id="Trazado_611543" data-name="Trazado 611543" d="M241,422h2.8v2.8H241Z" transform="translate(-241 -422)" fill="#fff"/>
            </g>
            <g id="Grupo_1015680" data-name="Grupo 1015680" transform="translate(33.823)">
              <path id="Trazado_611544" data-name="Trazado 611544" d="M376.015,321.621H362V302h14.015Z" transform="translate(-362 -302)" fill="#3b5620"/>
            </g>
            <g id="Grupo_1015681" data-name="Grupo 1015681" transform="translate(39.429 5.606)">
              <path id="Trazado_611545" data-name="Trazado 611545" d="M422,362h2.8v2.8H422Z" transform="translate(-422 -362)" fill="#fff"/>
            </g>
            <g id="Grupo_1015682" data-name="Grupo 1015682" transform="translate(39.429 11.212)">
              <path id="Trazado_611546" data-name="Trazado 611546" d="M422,422h2.8v2.8H422Z" transform="translate(-422 -422)" fill="#fff"/>
            </g>
          </g>
          <g id="Grupo_1015683" data-name="Grupo 1015683" transform="translate(23.919 14.015)">
            <path id="Trazado_611547" data-name="Trazado 611547" d="M274.219,152.8l-2.8,2.8H256l3.63-5.223,5.2-.383h6.587Z" transform="translate(-256 -150)" fill="url(#linear-gradient)"/>
          </g>
          <path id="Trazado_611548" data-name="Trazado 611548" d="M106.417,0a9.821,9.821,0,0,0-9.811,9.811,9.66,9.66,0,0,0,.981,4.2H91v5.606h15.417a9.752,9.752,0,0,0,8.83-5.606,9.2,9.2,0,0,0,.981-4.2A9.821,9.821,0,0,0,106.417,0Zm-4.2,9.811a4.2,4.2,0,1,1,4.2,4.2A4.2,4.2,0,0,1,102.212,9.811Z" transform="translate(-82.498)" fill="#632059"/>
          <path id="Trazado_611549" data-name="Trazado 611549" d="M260.2,9.811a4.2,4.2,0,0,1-4.2,4.2v5.606a9.752,9.752,0,0,0,8.83-5.606,9.2,9.2,0,0,0,.981-4.2A9.821,9.821,0,0,0,256,0V5.606A4.2,4.2,0,0,1,260.2,9.811Z" transform="translate(-232.081)" fill="#632059"/>
        </g>
      </g>
    </g>
  </g>
</svg>
