<svg xmlns="http://www.w3.org/2000/svg" width="583" height="310.064" viewBox="0 0 583 310.064">
  <g id="Grupo_1066760" data-name="Grupo 1066760" transform="translate(-752 -1288.312)">
    <g id="Grupo_1066759" data-name="Grupo 1066759">
      <g id="Group_63_1_" data-name="Group 63 (1)" transform="translate(752 1287.466)">
        <path id="Trazado_610539" data-name="Trazado 610539" d="M91.185,310.065S11.5,225.379,67.374,146.383c20.85-29.478,74.079-46.03,123.011-32.6,28.9,7.931,72.735,6.761,115.564-63.153C364.354-44.715,606.811-1.361,559.482,165.687c-19.934,70.365,54.37,73.568,17.565,144.529l-485.864-.15Z" transform="translate(-23.811 0)" fill="#d2dcc9"/>
        <path id="Trazado_610540" data-name="Trazado 610540" d="M535.1,241.141,361.531,386.349l-91.324-77.8c-17.092,15.051-43.491,38.284-70.046,61.6-18.148,15.933-32.842,28.806-44.751,39.226l-82.945-.1c23-19.583,115.615-100.967,178.01-155.969l19.078-16.817,92.316,78.645,135.5-113.36L535.1,241.139Z" transform="translate(-36.325 -100.722)" fill="#afc797"/>
        <path id="Trazado_610541" data-name="Trazado 610541" d="M880.4,154.1l82.667,82.917,23.35-94.721Z" transform="translate(-441.33 -70.909)" fill="#afc797"/>
        <path id="Trazado_610542" data-name="Trazado 610542" d="M319.9,482.526a153.345,153.345,0,0,0-1.77-18.8c-1.27-7.343-2.414-11.566-2.427-11.61-.168-.646-2.583-3.258-7.956-3.178s-4.862,3.507-4.862,3.507a1.215,1.215,0,0,0,.037.3,164.469,164.469,0,0,1,4.77,41.143c0,.324-.04.884-.015,1.256,0,0,12.45.322,12.452,0C320.568,493.129,320.356,487.537,319.9,482.526Z" transform="translate(-151.827 -224.619)" fill="#253415"/>
        <path id="Trazado_610543" data-name="Trazado 610543" d="M322.865,493.779c0,.322-.175.58-.382.58h0c-.207,0-.373-.262-.375-.58H311.436c0,.322-.174.58-.381.58h0c-.211,0-.379-.271-.375-.6a161.077,161.077,0,0,0-.886-18.225,143,143,0,0,0-4.078-22.786,1.106,1.106,0,0,1-.037-.3s-.509-3.425,4.863-3.507,7.79,2.533,7.957,3.179c.009.033.657,2.425,1.517,6.725.284,1.424.593,3.057.908,4.885a153.577,153.577,0,0,1,1.77,18.8c.452,5.013.61,9.234.177,11.251Z" transform="translate(-153.223 -224.621)" fill="#2f4419"/>
        <path id="Trazado_610544" data-name="Trazado 610544" d="M314.133,536.582h41.829s-.974-3.941-25.2-3.355c-17.142.415-16.629,3.355-16.629,3.355Z" transform="translate(-157.47 -266.844)" fill="#afc797"/>
        <path id="Trazado_610545" data-name="Trazado 610545" d="M307.309,581.8c4.849-24.551,3.6-39.618,3.6-39.807-.013-.377.686-.721,1.06-.734s2.054-.113,2.246.211c.253.423,1.23,18.986-6,40.33Z" transform="translate(-154.049 -270.888)" fill="#253415"/>
        <path id="Trazado_610546" data-name="Trazado 610546" d="M378.489,581.8c-4.85-24.551-3.6-39.618-3.6-39.807.013-.377-.685-.721-1.06-.734s-2.054-.113-2.246.211c-.253.423-1.23,18.986,6,40.33Z" transform="translate(-186.175 -270.888)" fill="#253415"/>
        <path id="Trazado_610547" data-name="Trazado 610547" d="M394.007,581.8c-4.849-24.551-3.6-39.618-3.6-39.807.013-.377-.686-.721-1.06-.734s-2.055-.113-2.246.211c-.254.423-1.23,18.986,6,40.33Z" transform="translate(-193.954 -270.888)" fill="#253415"/>
        <path id="Trazado_610548" data-name="Trazado 610548" d="M322.929,581.8c4.85-24.551,3.6-39.618,3.6-39.807-.013-.377.686-.721,1.06-.734s2.054-.113,2.246.211c.253.423,1.23,18.986-6,40.33Z" transform="translate(-161.879 -270.888)" fill="#253415"/>
        <path id="Trazado_610549" data-name="Trazado 610549" d="M313.32,537.965h41.828a.857.857,0,0,1,.858.857v.562a.857.857,0,0,1-.858.857H313.32a.857.857,0,0,1-.858-.857v-.565a.857.857,0,0,1,.858-.857Z" transform="translate(-156.632 -269.248)" fill="#253415"/>
        <path id="Trazado_610550" data-name="Trazado 610550" d="M392.7,463.762l13.9-3.011.818,1.995s-15.342,9.128-16.779,8.683S392.7,463.762,392.7,463.762Z" transform="translate(-195.647 -230.543)" fill="#ffb27d"/>
        <path id="Trazado_610551" data-name="Trazado 610551" d="M369.443,581.736a1.235,1.235,0,0,0-.22,1.32.008.008,0,0,0,0,.007,8.2,8.2,0,0,0,2.594,2.846c.157.126.3.24.417.348.031.028.064.055.092.084l.073.064c1.14,1.051.712,1.292,2.76,3.426,2.336,2.431,3.946,2.475,4.4,2.253.388-.19-.4-1.479-1.272-2.927-.042-.07-.084-.141-.128-.211-.117-.192-.231-.388-.346-.582-1.02-1.744-.758-2.561-.518-5.158.2-2.11,3.283-11.784,3.283-11.784l-4.477-.771s-1.349,7.7-2.835,8.89c-.793.633-1.684.641-2.447,1.109-.053.033-.106.066-.159.1a5.845,5.845,0,0,0-1.225.985Z" transform="translate(-185.036 -285.632)" fill="#ffb27d"/>
        <path id="Trazado_610552" data-name="Trazado 610552" d="M369.443,591.789a1.235,1.235,0,0,0-.22,1.32.008.008,0,0,0,0,.007,9.521,9.521,0,0,0,2.6,2.837c.155.128.291.247.412.357.031.028.064.055.092.084l.073.064c1.14,1.051.712,1.292,2.76,3.426,2.336,2.431,3.946,2.475,4.4,2.253.388-.19-.4-1.479-1.272-2.928a9.964,9.964,0,0,1-4.164-3.068c-1.406-1.794-2.345-4.1-3.3-5.438-.053.033-.106.066-.159.1a5.85,5.85,0,0,0-1.225.985Z" transform="translate(-185.036 -295.685)" fill="#233313"/>
        <path id="Trazado_610553" data-name="Trazado 610553" d="M438.553,577.572c.276,1.382,2.246,1.151,4.449.613s1.677.1,4.81-.245,4.083-1.515,4.177-1.982c.086-.414-1.462-.56-3.123-.749-.21-.025-.419-.049-.628-.075-1.874-.236-3.247-1.444-4.951-2.438-1.614-.941-4.021-4.775-4.021-4.775l-4.3.34s2.255,3.423,3.126,4.913a5.183,5.183,0,0,1,.421,2.927,5.583,5.583,0,0,0,.033,1.47Z" transform="translate(-218.043 -284.265)" fill="#ffb27d"/>
        <path id="Trazado_610554" data-name="Trazado 610554" d="M446.534,585.514c2.2-.538,1.678.1,4.81-.245s4.082-1.514,4.177-1.982c.086-.414-1.461-.56-3.124-.749l-.015.031a8.837,8.837,0,0,1-4.485,1.4c-2.125.05-4.376-.557-5.843-.534a5.547,5.547,0,0,0,.033,1.47C442.362,586.283,444.332,586.052,446.534,585.514Z" transform="translate(-221.578 -291.593)" fill="#233313"/>
        <path id="Trazado_610555" data-name="Trazado 610555" d="M422.987,457.76s1.023-2.509,2.149-2.61,4.708-.666,4.964-.154a3.544,3.544,0,0,1-.767,3.02c-.767.666-5.526,1.739-5.526,1.739l-.818-1.995Z" transform="translate(-212.036 -227.552)" fill="#ffb27d"/>
        <path id="Trazado_610556" data-name="Trazado 610556" d="M394.33,525.268l-9.258,24.917a8.511,8.511,0,0,1-2.786-.255,12.02,12.02,0,0,1-2.694-1.312s2.3-23.925,6.507-28.9S394.33,525.268,394.33,525.268Z" transform="translate(-190.283 -259.432)" fill="#3b5620"/>
        <path id="Trazado_610557" data-name="Trazado 610557" d="M330.568,504.591s26.6-9,32.537-7.082,23.749,37.358,23.749,37.358a3.419,3.419,0,0,1-1.5.946,14.1,14.1,0,0,1-3.492.357s-16.078-13.781-17.992-17.8-2.68-7.847-4.594-7.464-24.69,9.379-29.857,4.019a14.919,14.919,0,0,1-3.816-12.322l4.964,1.986Z" transform="translate(-163.141 -248.835)" fill="#233313"/>
        <path id="Trazado_610558" data-name="Trazado 610558" d="M343.928,383.737a6.463,6.463,0,0,0-3.492-.668,1.649,1.649,0,0,1,.737-.351,5.419,5.419,0,0,0-1.931.5c-8.315-3.2-9.622,9.04-9.448,11.883s.194,6.117-3.957,8.67c-8.167,5.019-1.276,13.781-1.276,13.781.064.037,3.8,6.373,3.8,6.373-.209-2.3,10.4-14.427,15.929-18.06a15.992,15.992,0,0,0,1.86-5.762,15.078,15.078,0,0,1-1.133,5.213c4.684-4.311,1.957-19.852-1.091-21.584Z" transform="translate(-161.335 -191.414)" fill="#233313"/>
        <path id="Trazado_610559" data-name="Trazado 610559" d="M358.321,421.3c.029.013-2.672,1.413-4.7.86-1.909-.52-3.157-3-3.132-3,.809-.161,1.043-1.272,1.025-6.049l.366.073,6.148,1.217s-.139,1.935-.143,3.756C357.878,419.68,357.97,421.132,358.321,421.3Z" transform="translate(-175.693 -206.658)" fill="#ffb27d"/>
        <path id="Trazado_610560" data-name="Trazado 610560" d="M359.424,414.465s-.139,1.936-.143,3.756c-3.441-.1-5.258-3.236-6-4.975l6.148,1.217Z" transform="translate(-177.091 -206.729)" fill="#ed975d"/>
        <path id="Trazado_610561" data-name="Trazado 610561" d="M349.7,399.211a18.052,18.052,0,0,1-2.235-5.284c-.309-1.739.578-8.184,7.054-7.256a8.8,8.8,0,0,1,3.65,1.38c1.406.95,3.437,3,1.166,8.625l-.589,1.9-9.044.635Z" transform="translate(-174.153 -193.362)" fill="#233313"/>
        <path id="Trazado_610562" data-name="Trazado 610562" d="M359.627,405.348s-8.138.135-8.145-4.935-1.06-8.467,4.137-8.766,6.208,1.633,6.622,3.326-.5,10.213-2.614,10.378Z" transform="translate(-176.146 -195.886)" fill="#ffb27d"/>
        <path id="Trazado_610563" data-name="Trazado 610563" d="M356.7,390.387s-2.229,5.947-5.647,6.826-4.9-.037-4.9-.037a9.683,9.683,0,0,0,3.167-5.722s5.7-3.9,7.385-1.069Z" transform="translate(-173.518 -194.753)" fill="#233313"/>
        <path id="Trazado_610564" data-name="Trazado 610564" d="M366.2,391.416a7.181,7.181,0,0,1,2.07,2.619c.405,1.292.589,3.948,1.362,3.858,0,0,1.68-4.043-.207-6.331-2-2.424-3.225-.148-3.225-.148Z" transform="translate(-183.567 -195.299)" fill="#233313"/>
        <path id="Trazado_610565" data-name="Trazado 610565" d="M326.345,449.269c-.8-3.366,1.928-9.9,4.779-15.307,2.586-4.9,5.27-8.877,5.513-8.734,6.822,4.049,7.437.683,7.437.683s6.2.822,7.951,3.842c2.175,3.747,4.527,14.217,6.864,16.2a4.384,4.384,0,0,0,.176,3.042c.082.291.172.569.271.831a15.975,15.975,0,0,0,1.173,2.407c-1.188.721-3.481,2.094-5.169,1.107-2.574-1.508-4.585-6.095-5.715-7.923l-.013-.019c-2.458,13.911.884,17.081-.807,18.547-1.785,1.55-4.338-.739-9.952,1.7-3.683,1.6-8.793,3.908-12.233,4.309-1.805.212-3.15-.1-3.589-1.321-1.276-3.54,4.85-12.946,3.317-19.362Z" transform="translate(-161.841 -212.734)" fill="#233313"/>
        <path id="Trazado_610566" data-name="Trazado 610566" d="M364.277,412.576s.152.643,1.754.544c0,0,1.345-.084,1.305-.791a4.331,4.331,0,0,0-3.057.247Z" transform="translate(-182.606 -206.187)" fill="#fff"/>
        <path id="Trazado_610567" data-name="Trazado 610567" d="M323.026,483.724c.438,1.219,1.785,1.532,3.588,1.321,2.381-1.038,12.668-5.024,12.554-7.722-.172-4-1.977-4.126-.7-9.06,1.025-3.961-8.48-11.33-10-12.93-2.85,5.407-2.93,5.662-2.127,9.029C327.875,470.778,321.75,480.184,323.026,483.724Z" transform="translate(-161.839 -227.827)" fill="#3b5620"/>
        <path id="Trazado_610568" data-name="Trazado 610568" d="M320.047,454.214a15.1,15.1,0,0,1,4.975-4.6c-.289-.741,7.673-10.5,7.673-12.013s2.125-12.375,2.125-12.375-6.632.41-8.93,3.613c-2.872,4.005-8.837,19.422-5.841,25.373Z" transform="translate(-160.024 -212.736)" fill="#233313"/>
        <path id="Trazado_610569" data-name="Trazado 610569" d="M325.758,474.128l13.254,3.459-1.243,2.233s-16.131-.113-16.986-1.1,4.975-4.6,4.975-4.6Z" transform="translate(-160.76 -237.247)" fill="#ffb27d"/>
        <path id="Trazado_610570" data-name="Trazado 610570" d="M376.529,465.719c1.131,1.827,3.139,6.415,5.716,7.922,1.689.985,3.981-.386,5.169-1.106a16.244,16.244,0,0,1-1.173-2.407c-.948.216-2.1.494-2.85.719-1.45.439-6.862-5.125-6.862-5.125Z" transform="translate(-188.748 -233.033)" fill="#3b5620"/>
        <path id="Trazado_610571" data-name="Trazado 610571" d="M356.17,480.117s4.162-1.177,5.154-.9,4.389,2.524,3.91,3.136-3.47-.366-4.848-.181-2.442.864-3.434.716a11.6,11.6,0,0,1-2.028-.536l1.243-2.233Z" transform="translate(-177.918 -239.778)" fill="#ffb27d"/>
        <path id="Trazado_610572" data-name="Trazado 610572" d="M357.422,479.366a15.625,15.625,0,0,0,2.616-1.642.164.164,0,0,1,.254.029c.154.244.3.719-.414,1.188A3.843,3.843,0,0,1,357.422,479.366Z" transform="translate(-179.17 -239.027)" fill="#ffb27d"/>
        <path id="Trazado_610573" data-name="Trazado 610573" d="M376.475,491.254h-19.42a1.547,1.547,0,0,1,1.548-1.547h17.873Z" transform="translate(-178.986 -245.057)" fill="#3b5620"/>
        <path id="Trazado_610574" data-name="Trazado 610574" d="M388.448,450.4h30.025l-7.2,21.15H381.051Z" transform="translate(-191.014 -225.354)" fill="#3b5620"/>
        <path id="Trazado_610575" data-name="Trazado 610575" d="M419.361,450.4l-7.2,21.15H381.939l7.4-21.15Z" transform="translate(-191.46 -225.354)" fill="#253415"/>
        <path id="Trazado_610576" data-name="Trazado 610576" d="M421.535,469.742a1.951,1.951,0,0,1-1.8,1.464,1.127,1.127,0,0,1-1.126-1.464,1.951,1.951,0,0,1,1.8-1.463A1.127,1.127,0,0,1,421.535,469.742Z" transform="translate(-209.822 -234.316)" fill="#f9ddbf"/>
        <path id="Trazado_610577" data-name="Trazado 610577" d="M429.619,450.4l-7.2,21.15H402.4c13.257-4.525,16.786-18.322,17.379-21.15Z" transform="translate(-201.718 -225.354)" fill="#253415"/>
        <path id="Trazado_610578" data-name="Trazado 610578" d="M281.639,560.8a.775.775,0,0,0,.769-.63l3.772-21.375,5.425-30.741,1.517-8.6-3.864-.11-.67,4.991L283.88,539.4l-2.791,20.786A.545.545,0,0,0,281.639,560.8Z" transform="translate(-140.903 -249.89)" fill="#97a589"/>
        <path id="Trazado_610579" data-name="Trazado 610579" d="M296.122,504.337a5.54,5.54,0,0,1,3.018,3.716l1.517-8.6-3.864-.11Z" transform="translate(-148.441 -249.89)" fill="#97a589"/>
        <path id="Trazado_610580" data-name="Trazado 610580" d="M463.336,560.8a.776.776,0,0,1-.77-.63L458.8,538.794l-5.425-30.741-1.516-8.6,3.864-.11.67,4.991,4.706,35.068,2.791,20.786A.544.544,0,0,1,463.336,560.8Z" transform="translate(-226.507 -249.89)" fill="#97a589"/>
        <path id="Trazado_610581" data-name="Trazado 610581" d="M456.388,504.337a5.549,5.549,0,0,0-3.018,3.716l-1.516-8.6,3.864-.11Z" transform="translate(-226.507 -249.89)" fill="#97a589"/>
        <path id="Trazado_610582" data-name="Trazado 610582" d="M373.594,499.55H274.659a2.357,2.357,0,0,1-2.356-2.357v-2.037a2.357,2.357,0,0,1,2.356-2.356h98.935a2.357,2.357,0,0,1,2.356,2.356v2.037A2.357,2.357,0,0,1,373.594,499.55Z" transform="translate(-136.501 -246.608)" fill="#97a589"/>
        <path id="Trazado_610583" data-name="Trazado 610583" d="M.661,619.06h581.68a.659.659,0,0,1,.658.661v.225a.661.661,0,0,1-.658.661H.661A.662.662,0,0,1,0,619.946v-.225A.662.662,0,0,1,.661,619.06Z" transform="translate(0 -309.9)" fill="#2e3552"/>
        <path id="Trazado_610584" data-name="Trazado 610584" d="M767.85,485.587s-2.566,3.183-1.764,3.617,2.923,1.245,3.423.734.657-4.263.657-4.263l-2.315-.088Z" transform="translate(-383.949 -242.993)" fill="#ffb27d"/>
        <path id="Trazado_610585" data-name="Trazado 610585" d="M767.375,485.693a3.759,3.759,0,0,0-1.462.91c-.412.547-1.325,1.378-1.1,1.609s1.535-.789,1.535-.789Z" transform="translate(-383.37 -243.046)" fill="#ffb27d"/>
        <path id="Trazado_610586" data-name="Trazado 610586" d="M779.434,400.357s-2.892,26.93-3.15,27.7c-.055.168-.282,1.018-.6,2.246-.456,1.753-1.1,4.27-1.708,6.661-.922,3.615-1.766,6.952-1.766,6.952l-2.511-.826s-.13-13.087.516-16.1,2.713-21.53,3.756-24.02,5.467-2.608,5.467-2.608Z" transform="translate(-385.831 -200.268)" fill="#2f4419"/>
        <path id="Trazado_610587" data-name="Trazado 610587" d="M758.416,511.179l-15.776-4.137a3.873,3.873,0,0,1-2.755-4.713l1.792-6.838a3.872,3.872,0,0,1,4.713-2.755l15.776,4.138a3.869,3.869,0,0,1,2.753,4.712l-1.792,6.838a3.871,3.871,0,0,1-4.712,2.755Z" transform="translate(-370.829 -246.513)" fill="#afc797"/>
        <path id="Trazado_610588" data-name="Trazado 610588" d="M745.831,495.083,744.016,502a3.888,3.888,0,0,0,1.976,4.429h0a3.758,3.758,0,0,0,.785.3l15.75,4.129a3.887,3.887,0,0,0,4.73-2.764l1.814-6.917a3.886,3.886,0,0,0-2.764-4.731l-5.423-1.421.388-1.475a1.281,1.281,0,0,0-.913-1.561l-.595-.157-3.3-.864-.82-.214a1.281,1.281,0,0,0-.97.132,1.266,1.266,0,0,0-.59.779l-.388,1.474-3.141-.824a3.771,3.771,0,0,0-.372-.077h0a3.893,3.893,0,0,0-3.372,1.118,3.851,3.851,0,0,0-.983,1.726Zm14.282-.26-5.636-1.477.388-1.475a.476.476,0,0,1,.582-.34l1.415.37,2.6.681.7.185a.514.514,0,0,1,.133.057.481.481,0,0,1,.209.525l-.386,1.475Z" transform="translate(-372.9 -245.563)" fill="#839571"/>
        <path id="Trazado_610589" data-name="Trazado 610589" d="M769.554,492.409s.7-1.179.439-1.591-1.208,1.223-1.208,1.223.646-1.4.405-1.635-1.23,1.382-1.23,1.382.615-1.365.4-1.411-.95,1.146-.95,1.146.381-1.02.033-.972-1.1.981-1.1.981Z" transform="translate(-384.153 -245.393)" fill="#ffb27d"/>
        <path id="Trazado_610590" data-name="Trazado 610590" d="M778.653,447.762c-.456,1.752-1.1,4.27-1.708,6.661a25.912,25.912,0,0,1-1.21-5.281c-.582-4.457,1.206-13.951,1.206-13.951Z" transform="translate(-388.805 -217.73)" fill="#2f4419"/>
        <path id="Trazado_610591" data-name="Trazado 610591" d="M846.406,483.368a22.281,22.281,0,0,1,3.143,2.982,15.248,15.248,0,0,1,1.169,4.184c-.046.847-2.143-1.938-2.76-2.162s.644,1.144.5,1.437-1.453-.666-1.955-.978-.853-2.438-1.6-3.6,1.5-1.867,1.5-1.867Z" transform="translate(-423.462 -241.88)" fill="#ffb27d"/>
        <path id="Trazado_610592" data-name="Trazado 610592" d="M774.468,612.087h13.945c1-.677-.269-7.3-.269-7.3s-3.807-1.444-4.464,1.493-4.847,3.869-7.065,4.226a2.384,2.384,0,0,0-2.147,1.582Z" transform="translate(-388.228 -302.566)" fill="#2f4419"/>
        <path id="Trazado_610593" data-name="Trazado 610593" d="M815.941,612.087h13.944c1-.677-.269-7.3-.269-7.3s-3.807-1.444-4.464,1.493-4.847,3.869-7.064,4.226a2.383,2.383,0,0,0-2.147,1.582Z" transform="translate(-409.018 -302.566)" fill="#2f4419"/>
        <path id="Trazado_610594" data-name="Trazado 610594" d="M781.989,483.18s.626,7.821,1.365,17.22c1,12.77,3.7,44.43,3.7,44.43s1.77,1.51,5.691.683a123.989,123.989,0,0,0,4.336-23.39l.046-.617c.928-12.69,2.372-39.415,2.372-39.415l-17.513,1.084Z" transform="translate(-391.997 -241.24)" fill="#2f4419"/>
        <path id="Trazado_610595" data-name="Trazado 610595" d="M781.562,478.853s.84,10.523,1.578,19.923L796.871,520.5c.015-.2.031-.41.046-.617.928-12.69,2.371-39.415,2.371-39.415l-17.727-1.618Z" transform="translate(-391.784 -239.616)" fill="#2f4419"/>
        <path id="Trazado_610596" data-name="Trazado 610596" d="M789.587,474.04s9.959,24.79,13.142,34.184c2.268,6.695,8.663,30.172,8.663,30.172a6.426,6.426,0,0,0,5.118-.789s2.378-23.989-2.427-30.752c-2.55-3.589-.635-37.305-10.973-37.594s-13.525,4.777-13.525,4.777Z" transform="translate(-395.806 -234.803)" fill="#2f4419"/>
        <path id="Trazado_610597" data-name="Trazado 610597" d="M802.891,441.414c-4.153,2.343-21.942,2.29-22.766.452-1.841-4.106-2.3-24.97-1.433-31.371,0,0,.45-9.836,1.433-9.4,6.571-3.02,17.207-.278,17.207-.278,2.868.844,2.621,7.4,3.421,16.6.1,1.186.216,2.423.344,3.7.567,5.682,1.389,12.212,2.641,19.1.084.454-.231.855-.848,1.2Z" transform="translate(-390.133 -199.926)" fill="#2f4419"/>
        <path id="Trazado_610598" data-name="Trazado 610598" d="M799.5,392.452c-.11,1.759-2.4,1.56-5.165.93s-1.759-2.255-1.759-2.255.04-1.25.216-2.747c.064-.544.143-1.124.247-1.686.048-.275.1-.547.166-.809.359-1.548,5.511-.055,5.473.362C798.581,387.371,799.394,391.07,799.5,392.452Z" transform="translate(-397.219 -192.67)" fill="#ffb27d"/>
        <path id="Trazado_610599" data-name="Trazado 610599" d="M794.565,403.458l-.216-2.429,3.053.576-1.175,2.169Z" transform="translate(-398.194 -200.605)" fill="#2f4419"/>
        <path id="Trazado_610600" data-name="Trazado 610600" d="M791.056,394.793l-1.825,2.775a4.037,4.037,0,0,0,1.583,2.945l2.5-2.323S791.7,397.575,791.056,394.793Z" transform="translate(-395.628 -197.479)" fill="#2f4419"/>
        <path id="Trazado_610601" data-name="Trazado 610601" d="M797.408,398.633a6.532,6.532,0,0,0,1.516,2.707s3.9-1.047,4.825-3.044l-2.03-2.619S801.62,397.658,797.408,398.633Z" transform="translate(-399.727 -197.922)" fill="#2f4419"/>
        <path id="Trazado_610602" data-name="Trazado 610602" d="M799.107,388.358a9.564,9.564,0,0,1-5.916,1.258c.064-.544.143-1.124.247-1.686.679-.165,1.246-.267,1.246-.267l4.422.7Z" transform="translate(-397.613 -193.905)" fill="#e2915a"/>
        <path id="Trazado_610603" data-name="Trazado 610603" d="M799.065,375.684c-1.212,3.335-5.634,2.484-7.519,1.948-.531-.15-.86-.276-.86-.276-.582-.264-.763-1.281-.712-2.563a19.822,19.822,0,0,1,1.68-6.988c.866-1.3,2.31-2.621,6.6-.78s2.363,4.384.809,8.659Z" transform="translate(-395.997 -183.105)" fill="#ffb27d"/>
        <path id="Trazado_610604" data-name="Trazado 610604" d="M802.946,371.579c-1.354,1.1-4.263,3.148-4.263,3.148a5.276,5.276,0,0,0,.719-1.486,1.483,1.483,0,0,0,.053-.5,2.779,2.779,0,0,1,.4-1.541c.176-.289.242-.586.017-.8-.368-.349-1-.029-1.406.253a.833.833,0,0,1-.908.022h0c-1.157-.727.119-2-.82-3.064s-5.01-1.206-4.847-1.869c-1.389-.785-.514-3.682-.487-3.836a15.029,15.029,0,0,0,4.483-.445c2.021-.507,4.25.791,4.955,1.325a1.144,1.144,0,0,0-.112-.494,1.044,1.044,0,0,1,.3.655c.031.031.044.053.035.057a1.321,1.321,0,0,1,.637.148s-.172-.055-.254.048a.1.1,0,0,1-.035.026c2.7,1.911,2.665,7.431,1.541,8.35Z" transform="translate(-396.565 -180.713)" fill="#2f4419"/>
        <path id="Trazado_610605" data-name="Trazado 610605" d="M793.273,383.618s-.218.421-1.312.073c0,0-.919-.293-.767-.776a3.094,3.094,0,0,1,2.077.705Z" transform="translate(-396.604 -191.522)" fill="#fff"/>
        <path id="Trazado_610606" data-name="Trazado 610606" d="M792.367,405.9s-2.436,30.79-2.4,33.355,2.7,5.279,2.7,5.279a11.282,11.282,0,0,0,2.539-4.779c.414-2.454-1.175-33.538-1.175-33.538l-1.662-.315Z" transform="translate(-395.996 -203.047)" fill="#3b5620"/>
        <path id="Trazado_610607" data-name="Trazado 610607" d="M816.5,401.966s3.932.942,7.042,6.915,5.565,18.02,7.049,21.2,2.5,13.2,2.5,13.2l-2.35,1.153s-5.676-10.263-6.514-13.629c-.454-1.821-7.393-16.4-7.393-16.4Z" transform="translate(-409.297 -201.075)" fill="#2f4419"/>
        <path id="Trazado_610608" data-name="Trazado 610608" d="M822.176,457.561h0c-7.406-1.067-5.283-25.576-4.7-25.673s2.711,4.382,2.711,4.382l.2.994c.567,5.683,1.388,12.212,2.641,19.1.084.454-.231.855-.849,1.2Z" transform="translate(-409.418 -216.073)" fill="#2f4419"/>
        <path id="Trazado_610609" data-name="Trazado 610609" d="M1001.694,589.394s3.087,2.815,2.484,4.814-3.381,3.332-3.76,5.777-1.88,3.776-3.232,3.776h-6.457s-1-1.72,1.411-2.238,3.315-3.39,3.166-6.055a46.769,46.769,0,0,1,.224-6.22l5.112-1.186,1.052,1.334Z" transform="translate(-496.533 -294.362)" fill="#2f4419"/>
        <path id="Trazado_610610" data-name="Trazado 610610" d="M918.845,602.836s.553,6.4-.8,7.071l-17.326-.035s0-2,2.782-2.444,7.671-2.074,8.5-5.7S918.845,602.836,918.845,602.836Z" transform="translate(-451.515 -300.525)" fill="#2f4419"/>
        <path id="Trazado_610611" data-name="Trazado 610611" d="M907.738,422.36s.915,11.227,1.988,24.721c1.459,18.331,3.216,40.848,3.388,45.113.3,7.406,1.505,19.254,1.505,19.254s2.857,2.815,8.575,1.629a191.24,191.24,0,0,0,6.549-34.81c.022-.293.046-.588.068-.884,1.354-18.219,3.458-56.58,3.458-56.58Z" transform="translate(-455.034 -210.518)" fill="#3b5620"/>
        <path id="Trazado_610612" data-name="Trazado 610612" d="M907.738,422.362s.915,11.227,1.988,24.721l20.017,31.188c.022-.293.046-.589.068-.884,1.354-18.219,3.458-56.58,3.458-56.58l-25.532,1.556Z" transform="translate(-455.034 -210.52)" fill="#2f4419"/>
        <path id="Trazado_610613" data-name="Trazado 610613" d="M916.105,419.228s16.471,40.656,27.3,59.763,14.215,24.439,14.215,24.439,6.207-2.444,6.77-4.111c0,0-4.144-36.887-11.4-45.878-4.1-5.081-7.633-16.353-7.455-21.688.3-9.2-3.15-19.858-3.15-19.858l-26.286,7.331Z" transform="translate(-459.228 -206.052)" fill="#3b5620"/>
        <path id="Trazado_610614" data-name="Trazado 610614" d="M886.1,427.8s-3.075,4.164-3.3,5.275-.491,5.079-.123,6.24,2.286-3.465,3.062-4-.485,1.821-.183,2.18,1.783-1.446,2.368-2.063.311-3.7.932-5.575S886.1,427.8,886.1,427.8Z" transform="translate(-442.381 -214.023)" fill="#ffb27d"/>
        <path id="Trazado_610615" data-name="Trazado 610615" d="M902.526,306.456s-4.155,38.687-4.525,39.79c-.082.24-.405,1.464-.866,3.227-.655,2.517-1.578,6.132-2.456,9.571-1.323,5.194-2.751,9.686-2.751,9.686a3.65,3.65,0,0,1-2.141.278,2.264,2.264,0,0,1-1.589-.97s.152-18.995,1.078-23.324,3.9-30.928,5.4-34.508,7.852-3.747,7.852-3.747Z" transform="translate(-445.239 -153.197)" fill="#fff"/>
        <path id="Trazado_610616" data-name="Trazado 610616" d="M901.734,374.556c-.655,2.518-1.578,6.133-2.456,9.571a37.328,37.328,0,0,1-1.737-7.588c-.835-6.4,1.733-20.041,1.733-20.041l2.46,18.06Z" transform="translate(-449.838 -178.282)" fill="#dceaff"/>
        <path id="Trazado_610617" data-name="Trazado 610617" d="M936.551,365.437c-5.965,3.366-31.522,3.291-32.705.648-2.645-5.9-3.307-35.873-2.059-45.067,0,0,.646-14.13,2.059-13.506,9.439-4.336,24.719-.4,24.719-.4,4.12,1.214,3.767,10.627,4.915,23.848.148,1.7.311,3.481.5,5.314.813,8.165,1.995,17.542,3.794,27.435C937.888,364.363,937.437,364.939,936.551,365.437Z" transform="translate(-451.745 -152.706)" fill="#fff"/>
        <path id="Trazado_610618" data-name="Trazado 610618" d="M931.684,295.1c-.159,2.529-3.454,2.242-7.417,1.336s-2.529-3.241-2.529-3.241.057-1.8.309-3.948c.093-.782.2-1.613.357-2.422.071-.395.148-.785.236-1.162.518-2.224,7.918-.077,7.865.52-.145,1.614,1.025,6.928,1.179,8.915Z" transform="translate(-461.925 -142.277)" fill="#ffb27d"/>
        <path id="Trazado_610619" data-name="Trazado 610619" d="M924.59,310.907l-.313-3.491,4.387.829-1.689,3.117Z" transform="translate(-463.325 -153.678)" fill="#2f4419"/>
        <path id="Trazado_610620" data-name="Trazado 610620" d="M919.548,298.46l-2.621,3.988a5.8,5.8,0,0,0,2.275,4.232l3.584-3.337s-2.316-.884-3.238-4.88Z" transform="translate(-459.64 -149.189)" fill="#dceaff"/>
        <path id="Trazado_610621" data-name="Trazado 610621" d="M928.675,303.979a9.374,9.374,0,0,0,2.178,3.888s5.6-1.506,6.93-4.371l-2.914-3.763S934.728,302.579,928.675,303.979Z" transform="translate(-465.529 -149.827)" fill="#dceaff"/>
        <path id="Trazado_610622" data-name="Trazado 610622" d="M931.113,289.213a13.726,13.726,0,0,1-8.5,1.808c.092-.782.2-1.614.357-2.423.974-.236,1.79-.384,1.79-.384l6.353,1Z" transform="translate(-462.492 -144.053)" fill="#e2915a"/>
        <path id="Trazado_610623" data-name="Trazado 610623" d="M931.052,271.01c-1.741,4.792-8.1,3.569-10.8,2.8-.763-.216-1.235-.394-1.235-.394-.835-.379-1.1-1.838-1.022-3.681.143-3.648,1.585-8.8,2.411-10.039,1.243-1.867,3.318-3.767,9.483-1.122s3.4,6.3,1.164,12.439Z" transform="translate(-460.169 -128.541)" fill="#ffb27d"/>
        <path id="Trazado_610624" data-name="Trazado 610624" d="M936.625,265.113c-1.947,1.587-6.126,4.523-6.126,4.523a7.6,7.6,0,0,0,1.034-2.134,2.135,2.135,0,0,0,.077-.723,3.981,3.981,0,0,1,.57-2.213c.256-.414.346-.842.025-1.147-.529-.5-1.431-.042-2.021.364a1.194,1.194,0,0,1-1.3.033l-.007,0c-1.662-1.04.172-2.874-1.177-4.4s-7.2-1.73-6.966-2.687c-2-1.127-.738-5.288-.7-5.509a21.584,21.584,0,0,0,6.441-.639c2.9-.73,6.1,1.136,7.117,1.9a1.634,1.634,0,0,0-.161-.71,1.512,1.512,0,0,1,.432.941c.044.044.064.075.051.084a1.933,1.933,0,0,1,.917.212s-.247-.077-.364.07a.159.159,0,0,1-.05.04c3.886,2.744,3.829,10.675,2.215,12Z" transform="translate(-460.983 -125.104)" fill="#233313"/>
        <path id="Trazado_610625" data-name="Trazado 610625" d="M922.733,282.407s-.313.6-1.885.1c0,0-1.32-.421-1.1-1.115A4.449,4.449,0,0,1,922.733,282.407Z" transform="translate(-461.042 -140.63)" fill="#fff"/>
        <path id="Trazado_610626" data-name="Trazado 610626" d="M921.435,314.417s-3.5,44.233-3.452,47.919,3.878,7.583,3.878,7.583,3.051-3.339,3.648-6.866-1.689-48.182-1.689-48.182l-2.387-.454Z" transform="translate(-460.169 -157.188)" fill="#3b5620"/>
        <path id="Trazado_610627" data-name="Trazado 610627" d="M964.255,388.632h-.007c-10.64-1.532-7.591-36.743-6.756-36.882s3.895,6.293,3.895,6.293l.293,1.429c.813,8.164,1.995,17.541,3.794,27.434C965.593,387.558,965.141,388.134,964.255,388.632Z" transform="translate(-479.449 -175.901)" fill="#dceaff"/>
        <path id="Trazado_610628" data-name="Trazado 610628" d="M1002.224,457.58l-22.5,6.547a5.56,5.56,0,0,1-6.873-3.774l-2.837-9.749a5.56,5.56,0,0,1,3.774-6.873l22.5-6.547a5.56,5.56,0,0,1,6.872,3.774l2.838,9.749A5.561,5.561,0,0,1,1002.224,457.58Z" transform="translate(-486.141 -218.618)" fill="#2f4419"/>
        <path id="Trazado_610629" data-name="Trazado 610629" d="M975.958,447.88l2.87,9.862a5.58,5.58,0,0,0,3.851,3.8,5.484,5.484,0,0,0,1.854.2h0a5.342,5.342,0,0,0,1.19-.209L1008.185,455a5.585,5.585,0,0,0,3.79-6.9l-2.873-9.864a5.583,5.583,0,0,0-6.9-3.789L994.47,436.7l-.613-2.105a1.835,1.835,0,0,0-2.274-1.25l-.848.247-4.705,1.369-1.168.342a1.838,1.838,0,0,0-1.25,2.277l.612,2.105-4.479,1.3a5.314,5.314,0,0,0-.516.178h0a5.586,5.586,0,0,0-3.331,3.866A5.5,5.5,0,0,0,975.958,447.88Zm17.41-10.863-8.037,2.339-.613-2.105a.686.686,0,0,1,.467-.849l2.019-.587,3.7-1.078,1-.291a.672.672,0,0,1,.209-.026.683.683,0,0,1,.643.494l.609,2.1Z" transform="translate(-489.12 -216.766)" fill="#233313"/>
        <path id="Trazado_610630" data-name="Trazado 610630" d="M997.386,426.495s-.7,5.835.61,5.751,4.51-.712,4.729-1.715-2.454-5.692-2.454-5.692l-2.884,1.658Z" transform="translate(-499.879 -212.541)" fill="#ffb27d"/>
        <path id="Trazado_610631" data-name="Trazado 610631" d="M996.511,428.128a5.409,5.409,0,0,0-1.087,2.222c-.086.979-.564,2.69-.115,2.8s1.268-2.13,1.268-2.13Z" transform="translate(-498.837 -214.189)" fill="#ffb27d"/>
        <path id="Trazado_610632" data-name="Trazado 610632" d="M956.1,308.763s5.652,1.353,10.118,9.935,7.995,25.889,10.129,30.459,3.758,18.276,3.758,18.276a2.1,2.1,0,0,1-1.486.93,6.926,6.926,0,0,1-1.8.117s-8.4-13.457-9.606-18.291c-.653-2.617-10.621-23.557-10.621-23.557l-.485-17.866Z" transform="translate(-479.275 -154.354)" fill="#fff"/>
        <path id="Trazado_610633" data-name="Trazado 610633" d="M209.038,599.225l-.846-6.1,3.555-2.973,1.12,8.074Z" transform="translate(-104.363 -295.41)" fill="#ffb27d"/>
        <path id="Trazado_610634" data-name="Trazado 610634" d="M218.916,611.5h-14.5a7.945,7.945,0,0,1,.41-3.886c.725-1.609,1.856-2.6,1.957-3.833a4.355,4.355,0,0,0,4.15,1.276,15.92,15.92,0,0,0,2.516,3.26c.948.681,5.173.438,5.464,3.183Z" transform="translate(-102.431 -302.243)" fill="#2f4419"/>
        <path id="Trazado_610635" data-name="Trazado 610635" d="M209.661,435.246c-.948,7.627-1.724,14.819-2.354,21.521-3.375,35.712-2.711,57.538-2.711,57.538s-.245.646-2.336.655a12.017,12.017,0,0,1-2.341-.251s-7.554-23.319-6.972-36.589a20.553,20.553,0,0,1,.588-4.3c1.812-6.789-6.708-32.754,2.554-42.424S210.1,431.746,209.661,435.246Z" transform="translate(-96.089 -213.775)" fill="#253415"/>
        <path id="Trazado_610636" data-name="Trazado 610636" d="M209.661,435.246c-.948,7.627-1.724,14.819-2.354,21.521l-14.361,21.353a20.553,20.553,0,0,1,.588-4.3c1.812-6.789-6.708-32.754,2.554-42.424S210.1,431.746,209.661,435.246Z" transform="translate(-96.089 -213.775)" fill="#2f4419"/>
        <path id="Trazado_610637" data-name="Trazado 610637" d="M249.846,289.242s-.351-1.744-.743-3.073c-.174-.588,1.041-4.453,1.88-4.929s3.029,2.127,2.41,4.126c-.318,1.027-.84,4.367-.84,4.367l-2.705-.492Z" transform="translate(-124.863 -140.529)" fill="#ffb27d"/>
        <path id="Trazado_610638" data-name="Trazado 610638" d="M248.574,293.519s-.456-1.009-.869-1.175-.855-1.816-1.157-2.471c0,0,.293-.428.8.123.313.337,1.007,1.323,1.007,1.323Z" transform="translate(-123.59 -144.805)" fill="#ffb27d"/>
        <path id="Trazado_610639" data-name="Trazado 610639" d="M125.44,305.478c-.088.183-.211.512-.322.82,0-.084,0-.168,0-.249-.006-.613-2.3-3.954-3.24-4.164s-2.273,2.921-1.1,4.651c.6.888,2.081,3.93,2.081,3.93l2.443-1.261s.141-1.1.487-1.377.285-1.986.384-2.7C126.172,305.125,125.766,304.8,125.44,305.478Z" transform="translate(-60.312 -150.901)" fill="#ffb27d"/>
        <path id="Trazado_610640" data-name="Trazado 610640" d="M160.871,596.61c-.2-1.955-.255-7.1-.255-7.1s5.24-1.675,5.048-.525a37.01,37.01,0,0,0-.69,8.454l-2.119,1.265-1.981-2.1Z" transform="translate(-80.514 -294.623)" fill="#ffb27d"/>
        <path id="Trazado_610641" data-name="Trazado 610641" d="M188.517,441.417s-20.242,55.489-24.227,79.557a4.03,4.03,0,0,1-2.645.423,2.958,2.958,0,0,1-2.489-1.6s-3.657-28.848,3.611-38.864c4.993-6.879-2.154-37.1,9.476-39.523s16.272,0,16.272,0Z" transform="translate(-79.321 -220.31)" fill="#253415"/>
        <path id="Trazado_610642" data-name="Trazado 610642" d="M178.526,324.476a.372.372,0,0,0-.017-.075c-.119-.489-.247-.97-.385-1.446a32.4,32.4,0,0,0-1.473-4.078,21.33,21.33,0,0,0-.97-1.936c-.05-.09-.1-.174-.148-.258h0a5.821,5.821,0,0,0-2.313-2.507,6.953,6.953,0,0,0-3.809-.159,1.753,1.753,0,0,1,.727-.487,5.817,5.817,0,0,0-1.97.838c-9.325-2.085-8.777,11.1-8.143,14.092s-2.37,4.442-6.6,7.5c-8.079,5.837-7.945,12.023-7.945,12.023.073.031.152.066.236.108.324-.8,1.014-2.315,1.737-2.636a31.549,31.549,0,0,0-.776,3.132c1.23.679,2.934,1.728,4.784,2.914h0c2.476,1.585,5.2,3.408,7.393,4.887a5.044,5.044,0,0,1-.055-1.946l.7,2.16.09.282c1.4.946,2.5,1.7,3.057,2.092l.155.106.251.174c-.186-.762.628-2.753,2-5.261.095-.174.194-.353.3-.534.441-.793.935-1.629,1.466-2.491.192-.311.384-.624.584-.939.161-.256.324-.509.492-.767q.595-.923,1.225-1.85c1.085-1.6,2.231-3.189,3.366-4.648a40.6,40.6,0,0,1,4.616-5.174c.044-.09.086-.185.123-.278a9.182,9.182,0,0,0,.5-1.593q.06-.251.106-.5a21.844,21.844,0,0,0,.339-3.954,22.443,22.443,0,0,1-.048,3.985c-.026.213-.055.412-.086.6a8.088,8.088,0,0,1-.245,1.049,5.511,5.511,0,0,0,.588-.906,6.339,6.339,0,0,0,.307-.677C179.765,332.529,179.472,328.374,178.526,324.476Z" transform="translate(-72.925 -156.744)" fill="#3b5620"/>
        <path id="Trazado_610643" data-name="Trazado 610643" d="M199.542,354.615c.03.009-2.61,1.92-4.852,1.653-2.107-.251-3.822-2.68-3.793-2.689.833-.3.9-1.514.132-6.576l.4.02,6.712.322s.157,2.075.441,4.008c.238,1.624.565,3.148.962,3.267Z" transform="translate(-95.693 -173.523)" fill="#ffb27d"/>
        <path id="Trazado_610644" data-name="Trazado 610644" d="M198.676,347.357s.157,2.074.441,4.007c-3.663.441-6.086-2.6-7.151-4.329l6.712.322Z" transform="translate(-96.229 -173.539)" fill="#ed975d"/>
        <path id="Trazado_610645" data-name="Trazado 610645" d="M186.927,331.681a19.4,19.4,0,0,1-3.205-5.251c-.6-1.794-.679-8.771,6.335-8.808a9.418,9.418,0,0,1,4.089.888c1.642.785,4.117,2.641,2.6,8.963l-.326,2.107Z" transform="translate(-91.97 -158.793)" fill="#3b5620"/>
        <path id="Trazado_610646" data-name="Trazado 610646" d="M200.549,399.058a28.425,28.425,0,0,1-19.7,2.521c-.13-.031-9.029-1.453-9.029-1.453.152-.419,1.3-7.294,1.453-7.677,1.946-5.02,5.5-32.266,8.471-33.611.758.826,2.927,1.391,4.781,1.227,2.135-.19,2.852-1.111,2.674-2.105,2.365,1.118,4.182,2.158,4.182,2.158,2.16,3.238,7.166,38.939,7.166,38.939Z" transform="translate(-86.13 -179.016)" fill="#fff"/>
        <path id="Trazado_610647" data-name="Trazado 610647" d="M198.066,336.668s-8.61,1.426-9.417-3.95-2.46-8.813,3-9.95,6.842.754,7.548,2.482S200.286,336.159,198.066,336.668Z" transform="translate(-94.127 -161.201)" fill="#ffb27d"/>
        <path id="Trazado_610648" data-name="Trazado 610648" d="M193.224,320.865s-1.424,6.659-4.913,8.132-5.207.734-5.207.734a10.384,10.384,0,0,0,2.458-6.567S191,318.129,193.224,320.865Z" transform="translate(-91.787 -160.012)" fill="#3b5620"/>
        <path id="Trazado_610649" data-name="Trazado 610649" d="M202.375,321.609a7.7,7.7,0,0,1,2.608,2.451c.635,1.3,1.248,4.1,2.054,3.878,0,0,1.142-4.552-1.219-6.679-2.5-2.257-3.443.353-3.443.353Z" transform="translate(-101.447 -160.156)" fill="#3b5620"/>
        <path id="Trazado_610650" data-name="Trazado 610650" d="M231.351,297.106a5.546,5.546,0,0,0-1.539-.476,4.836,4.836,0,0,0-1.354.141s-2.429,15.1-2.61,15.9-10.42,12.335-13.179,12.289c-2.493-.042-5.447,1.882-5.994,2.253,0,0,5.806,12.275,6.095,14.581.315,2.509,3.319,41.15,3.319,41.15s-.179,1.8,3.181.831,4.2-1.766,4.2-1.766-3.086-30.419-3.732-39.88a18.03,18.03,0,0,0-.588-3.529,3.583,3.583,0,0,1,.578-3.04c4.246-5.828,10.951-15.273,11.326-17.28.549-2.949.3-21.174.3-21.174Z" transform="translate(-103.603 -148.267)" fill="#3b5620"/>
        <path id="Trazado_610651" data-name="Trazado 610651" d="M170.7,611.5H156.2a7.945,7.945,0,0,1,.41-3.886c.725-1.609,1.856-2.6,1.957-3.833a4.355,4.355,0,0,0,4.15,1.276,15.919,15.919,0,0,0,2.516,3.26c.948.681,5.173.438,5.464,3.183Z" transform="translate(-78.26 -302.243)" fill="#2f4419"/>
        <path id="Trazado_610652" data-name="Trazado 610652" d="M165.271,352.521c-.49-3.007-6.728-15.082-6.728-15.082S154.6,336.26,152,337.2s-16.027-6.644-16.457-7.34-7.625-14.1-7.625-14.1a1.665,1.665,0,0,0-1.552.152,1.751,1.751,0,0,0-.95,1.455s5.553,16.879,7.029,19.488c.891,1.574,8.378,7.056,14.185,11.16a3.641,3.641,0,0,1,1.508,3.463c-.78,5.771-.978,9.022-1.878,18.924-.745,8.215-1.029,24.119-1.029,24.119s6.5,2.249,10.982,2.546,5.46-4.428,5.46-4.428,4.1-37.028,3.593-40.118Z" transform="translate(-62.871 -157.801)" fill="#3b5620"/>
        <path id="Trazado_610653" data-name="Trazado 610653" d="M202.755,344.874a3.846,3.846,0,0,0,2.282.43c.846-.128,1.038-1.131,1.038-1.131a3.347,3.347,0,0,0-1.528,0A6.436,6.436,0,0,0,202.755,344.874Z" transform="translate(-101.638 -172.063)" fill="#fff"/>
        <path id="Trazado_610654" data-name="Trazado 610654" d="M752.407,130.887s-4.029-7.16,0-8.616,5.852-.113,6.044,1.517-1.534,8.059-1.534,8.059Z" transform="translate(-376.271 -60.556)" fill="#ffb27d"/>
        <path id="Trazado_610655" data-name="Trazado 610655" d="M702.687,184.151a130.243,130.243,0,0,1-20.2,2.074,112.429,112.429,0,0,1-15.524-.7q-1.832-.212-3.518-.467c-11.894-1.8-18.461-5-18.461-5s10.867-22.748,19.644-21.875c10.3,1.027,27.752,10.268,29.487,7.677,1.954-2.92,3.589-27.964,3.589-27.964,4.567-3.128,7.292.17,7.292.17s8.921,44.062-2.312,46.087Z" transform="translate(-323.321 -68.025)" fill="#253415"/>
        <path id="Trazado_610656" data-name="Trazado 610656" d="M722.055,219.433a130.255,130.255,0,0,1-20.2,2.074,112.433,112.433,0,0,1-15.525-.7c-2.74-8.714-4.711-17.615.8-12.249C696.856,218.025,722.055,219.433,722.055,219.433Z" transform="translate(-342.69 -103.308)" fill="#233313"/>
        <path id="Trazado_610657" data-name="Trazado 610657" d="M643.175,596.752s-.782,9.042,1.131,9.983l24.463-.051s0-2.824-3.93-3.45-10.832-2.927-12-8.052S643.175,596.752,643.175,596.752Z" transform="translate(-322.333 -296.963)" fill="#2f4419"/>
        <path id="Trazado_610658" data-name="Trazado 610658" d="M648.086,352.339c-.121,5.914-.405,12.014-.961,17.493-2.643,26.011-3.571,57.439-3.95,63.5-.659,10.519-2.736,27.322-2.736,27.322s-4.122,3.913-12.154,2.046c0,0-6.657-24.2-8.143-49.685-.022-.419-.046-.838-.066-1.259-.172-3.37-.353-7.221-.538-11.376-1.223-27.825-2.553-69.158-2.553-69.158l30.7-7.208s.705,13.585.405,28.327Z" transform="translate(-309.285 -161.998)" fill="#3b5620"/>
        <path id="Trazado_610659" data-name="Trazado 610659" d="M648.085,352.339c-7.779,13.422-22.609,38.152-28.55,48.038-1.223-27.825-2.552-69.158-2.552-69.158l30.7-7.208s.706,13.585.406,28.327Z" transform="translate(-309.283 -161.998)" fill="#2f4419"/>
        <path id="Trazado_610660" data-name="Trazado 610660" d="M517.067,328.675s-4.995,5.874-5.444,7.5-1.25,7.5-.82,9.261,3.749-4.918,4.957-5.63-.906,2.656-.494,3.221,2.8-1.968,3.727-2.824.838-5.464,1.956-8.189S517.067,328.675,517.067,328.675Z" transform="translate(-255.995 -164.335)" fill="#ffb27d"/>
        <path id="Trazado_610661" data-name="Trazado 610661" d="M517.5,577.771s-4.353,3.974-3.505,6.8,4.779,4.706,5.31,8.156,2.654,5.332,4.567,5.332h9.112s1.407-2.429-1.99-3.161-4.68-4.788-4.468-8.55a66.463,66.463,0,0,0-.32-8.784l-7.222-1.673-1.486,1.883Z" transform="translate(-257.604 -288.258)" fill="#2f4419"/>
        <path id="Trazado_610662" data-name="Trazado 610662" d="M594.8,330.339s-28.738,61.487-44.031,88.465-20.072,34.508-20.072,34.508-8.762-3.452-9.558-5.8c0,0,5.848-52.083,16.089-64.779,5.786-7.175,12.584-28.7,12.9-36.232s7.032-25.5,7.032-25.5l37.634,9.341Z" transform="translate(-261.237 -160.487)" fill="#3b5620"/>
        <path id="Trazado_610663" data-name="Trazado 610663" d="M634.118,255.895a49.8,49.8,0,0,1-27.6,6.93c-7.1-.311-21.179-2.323-23.452-7.968-.534-1.325-.143-3.007.659-5.59,2.076-6.71,6.919-19.488,5.457-47.82a46.666,46.666,0,0,1,.19-7.435c1.524-13.956,9.52-22.219,17.251-24.919,18.851-6.589,25.135,2.539,25.135,2.539s8.333,6.6,9.589,20.379c2.51,27.558-7.228,63.88-7.228,63.88Z" transform="translate(-292.158 -83.141)" fill="#253415"/>
        <path id="Trazado_610664" data-name="Trazado 610664" d="M641.623,150.77s8.65,5.261,18.031,3.773c0,0,1.854-.471.944-2.649a28.056,28.056,0,0,0,.833-2.905,43.9,43.9,0,0,0,1.073-4.739l-5.323-5.6-5.044-5.348C650.745,146.086,641.623,150.77,641.623,150.77Z" transform="translate(-321.635 -66.4)" fill="#ffb27d"/>
        <path id="Trazado_610665" data-name="Trazado 610665" d="M661.084,143.025s2.9,7.744,10.1,10.836c.822-3,1.358-6.15,1.358-6.15l-5.608-4.186Z" transform="translate(-331.39 -71.272)" fill="#eca777"/>
        <path id="Trazado_610666" data-name="Trazado 610666" d="M676.438,127.574s-16.51,2.063-17.67-8.083-4.071-16.713,6.424-18.459,12.988,1.9,14.211,5.2,1.3,20.549-2.963,21.347Z" transform="translate(-329.595 -49.995)" fill="#ffb27d"/>
        <path id="Trazado_610667" data-name="Trazado 610667" d="M648.338,93.071c-.143-.176-.481-.326-1.243-.4a3.1,3.1,0,0,1,1.444-.348c.2-1.058.838-2.918,2.685-3.306a2.3,2.3,0,0,0-1.174,1.614c2.2-2.1,6.8-3.509,19.342-2.041,16.524,1.935,10.66,12.34,8.467,13.523s-7.463-2.489-11.473-2.323-4.989,5.914-6.375,6.654-.8-.639-2.6-1.539-2.094,2.136-1.638,4.133-2.164,4.51-2.164,4.51l-2.445-2.841c-2.444-2.842-4.406-14.553-3.154-16.987Z" transform="translate(-324.378 -43.683)" fill="#3b5620"/>
        <path id="Trazado_610668" data-name="Trazado 610668" d="M722.331,124.489l-28.032.249-.19-4.217,27.942-2.165Z" transform="translate(-347.946 -58.906)" fill="#3b5620"/>
        <path id="Trazado_610669" data-name="Trazado 610669" d="M762.1,122.432l-30.516.441-.348-7.667,30.43-2.356Z" transform="translate(-366.555 -56.146)" fill="#3b5620"/>
        <path id="Trazado_610670" data-name="Trazado 610670" d="M808.046,120.554l-25.735.033-.469-10.351L807.47,107.9Z" transform="translate(-391.924 -53.666)" fill="#2f4419"/>
        <path id="Trazado_610671" data-name="Trazado 610671" d="M833.006,120.517a1.441,1.441,0,0,0,1.373-1.5l-.6-13.3a1.439,1.439,0,1,0-2.875.13l.6,13.3a1.441,1.441,0,0,0,1.5,1.373Z" transform="translate(-416.516 -51.881)" fill="#2f4419"/>
        <path id="Trazado_610672" data-name="Trazado 610672" d="M692.816,126.919a1.278,1.278,0,0,1-1.336-1.219l-.157-3.45a1.279,1.279,0,1,1,2.555-.117l.157,3.45A1.279,1.279,0,0,1,692.816,126.919Z" transform="translate(-346.548 -60.188)" fill="#3b5620"/>
        <path id="Trazado_610673" data-name="Trazado 610673" d="M584.63,276.685c2.076-6.71,6.919-19.488,5.457-47.82a46.651,46.651,0,0,1,.19-7.435c6.2-.534,15.688,6.174,15.688,6.174s-5.841,35.606-21.338,49.081Z" transform="translate(-293.064 -110.56)" fill="#233313"/>
        <path id="Trazado_610674" data-name="Trazado 610674" d="M580.39,168.324s-15.909,2.736-24.205,12.864-21.644,24.41-24.8,29.412-11.916,39.038-11.916,39.038.578,1.093,2.993,1.731a5.7,5.7,0,0,0,3.99-.335s11.606-19.863,15.974-29.784c1.814-4.122,33.2-20.449,45-18.759,4.634.664-7.04-34.164-7.04-34.164Z" transform="translate(-260.402 -83.954)" fill="#253415"/>
        <path id="Trazado_610675" data-name="Trazado 610675" d="M750.362,114.807s3.421,2.092,5.469,1.208,1.867-1.7,1.867-1.7-6.183-1.715-7.334.49Z" transform="translate(-376.144 -56.564)" fill="#ffb27d"/>
        <path id="Trazado_610676" data-name="Trazado 610676" d="M610.348,189.79s-6.981,44.075-56.514,56.909l-5.4,10.644,9.478,1.6s56.39-16.336,55.632-69.938Z" transform="translate(-274.923 -94.324)" fill="#839571"/>
        <path id="Trazado_610677" data-name="Trazado 610677" d="M668.106,176.466l-2.288.225V180l3.37,3.5,3.2-.78V178.13l-2.3-1.664Z" transform="translate(-333.763 -88.035)" fill="#afc797"/>
        <path id="Trazado_610678" data-name="Trazado 610678" d="M645.107,158.892s-2.213.5-7.272,4.7c0,0,5.033,10.682,15.648,11.961a35.492,35.492,0,0,1,.6-7.9s-8.414-3.011-8.971-8.764Z" transform="translate(-319.736 -79.226)" fill="#233313"/>
        <path id="Trazado_610679" data-name="Trazado 610679" d="M670.406,173.515s5.18,2.751,5.564,7.036c0,0,1.979-3.137,1.406-5.31a17.7,17.7,0,0,0-2.349-4.662S675.2,173.2,670.406,173.515Z" transform="translate(-336.063 -85.084)" fill="#233313"/>
      </g>
    </g>
  </g>
</svg>
