<svg xmlns="http://www.w3.org/2000/svg" width="500" height="368.76" viewBox="0 0 500 368.76">
  <g id="Grupo_1066773" data-name="Grupo 1066773" transform="translate(-800 -1522)">
    <g id="Group_71" data-name="Group 71" transform="translate(800 1522)">
      <path id="Trazado_613965" data-name="Trazado 613965" d="M449.9,343.54H416.78v.25H449.9Z" fill="#dbdbdb"/>
      <path id="Trazado_613966" data-name="Trazado 613966" d="M331.22,346.26h-8.69v.25h8.69Z" fill="#dbdbdb"/>
      <path id="Trazado_613967" data-name="Trazado 613967" d="M415.78,334.26H396.59v.25h19.19Z" fill="#dbdbdb"/>
      <path id="Trazado_613968" data-name="Trazado 613968" d="M95.65,335.94H52.46v.25H95.65Z" fill="#dbdbdb"/>
      <path id="Trazado_613969" data-name="Trazado 613969" d="M110.89,335.94h-6.33v.25h6.33Z" fill="#dbdbdb"/>
      <path id="Trazado_613970" data-name="Trazado 613970" d="M225.15,340.16H131.47v.25h93.68Z" fill="#dbdbdb"/>
      <path id="Trazado_613971" data-name="Trazado 613971" d="M237.01,282.85H43.92a5.715,5.715,0,0,1-5.71-5.71V5.71A5.715,5.715,0,0,1,43.92,0H237.01a5.715,5.715,0,0,1,5.71,5.71V277.14A5.715,5.715,0,0,1,237.01,282.85ZM43.92.25a5.467,5.467,0,0,0-5.46,5.46V277.14a5.467,5.467,0,0,0,5.46,5.46H237.01a5.467,5.467,0,0,0,5.46-5.46V5.71A5.467,5.467,0,0,0,237.01.25Z" fill="#dbdbdb"/>
      <path id="Trazado_613972" data-name="Trazado 613972" d="M453.31,282.85H260.21a5.715,5.715,0,0,1-5.71-5.71V5.71A5.715,5.715,0,0,1,260.21,0h193.1a5.715,5.715,0,0,1,5.71,5.71V277.14A5.715,5.715,0,0,1,453.31,282.85ZM260.21.25a5.467,5.467,0,0,0-5.46,5.46V277.14a5.467,5.467,0,0,0,5.46,5.46h193.1a5.467,5.467,0,0,0,5.46-5.46V5.71A5.467,5.467,0,0,0,453.31.25Z" fill="#dbdbdb"/>
      <path id="Trazado_613973" data-name="Trazado 613973" d="M500,327.45H0v.25H500Z" fill="#dbdbdb"/>
      <path id="Trazado_613974" data-name="Trazado 613974" d="M312.14,327.19H86.49l-1.86-6.38H314Z" fill="#e0e0e0"/>
      <path id="Trazado_613975" data-name="Trazado 613975" d="M197.17,234.13H74.29v42.42H197.17Z" fill="#c4c4c4"/>
      <path id="Trazado_613976" data-name="Trazado 613976" d="M197.17,276.54H74.29v42.42H197.17Z" fill="#c4c4c4"/>
      <path id="Trazado_613977" data-name="Trazado 613977" d="M197.17,240.64v-4.29H74.29v4.29Z" fill="#e0e0e0"/>
      <path id="Trazado_613978" data-name="Trazado 613978" d="M197.17,282.73v-4.29H74.29v4.29Z" fill="#e0e0e0"/>
      <path id="Trazado_613979" data-name="Trazado 613979" d="M72.15,232.22v88.59H199.32V232.22Zm122.88,84.29H76.44V278.77H195.03Zm0-42.03H76.44V236.74H195.03Z" fill="#dcdcdc"/>
      <path id="Trazado_613980" data-name="Trazado 613980" d="M324.34,234.13H201.46v42.42H324.34Z" fill="#c4c4c4"/>
      <path id="Trazado_613981" data-name="Trazado 613981" d="M324.34,276.54H201.46v42.42H324.34Z" fill="#c4c4c4"/>
      <path id="Trazado_613982" data-name="Trazado 613982" d="M324.34,240.65v-4.29H201.46v4.29Z" fill="#e0e0e0"/>
      <path id="Trazado_613983" data-name="Trazado 613983" d="M324.34,282.74v-4.29H201.46v4.29Z" fill="#e0e0e0"/>
      <path id="Trazado_613984" data-name="Trazado 613984" d="M199.32,232.22v88.59H326.49V232.22ZM322.2,316.51H203.61V278.77H322.2Zm0-42.03H203.61V236.74H322.2Z" fill="#dcdcdc"/>
      <path id="Trazado_613985" data-name="Trazado 613985" d="M266.59,259.31a3.69,3.69,0,1,1-3.69-3.69A3.687,3.687,0,0,1,266.59,259.31Z" fill="#e0e0e0"/>
      <path id="Trazado_613986" data-name="Trazado 613986" d="M266.59,258.27a3.69,3.69,0,1,1-3.69-3.69A3.687,3.687,0,0,1,266.59,258.27Z" fill="#fafafa"/>
      <path id="Trazado_613987" data-name="Trazado 613987" d="M266.59,298.27a3.69,3.69,0,1,1-3.69-3.69A3.687,3.687,0,0,1,266.59,298.27Z" fill="#e0e0e0"/>
      <path id="Trazado_613988" data-name="Trazado 613988" d="M266.59,297.23a3.69,3.69,0,1,1-3.69-3.69A3.687,3.687,0,0,1,266.59,297.23Z" fill="#fafafa"/>
      <path id="Trazado_613989" data-name="Trazado 613989" d="M139.42,259.31a3.69,3.69,0,1,1-3.69-3.69A3.687,3.687,0,0,1,139.42,259.31Z" fill="#e0e0e0"/>
      <path id="Trazado_613990" data-name="Trazado 613990" d="M139.42,258.27a3.69,3.69,0,1,1-3.69-3.69A3.687,3.687,0,0,1,139.42,258.27Z" fill="#fafafa"/>
      <path id="Trazado_613991" data-name="Trazado 613991" d="M139.42,298.27a3.69,3.69,0,1,1-3.69-3.69A3.687,3.687,0,0,1,139.42,298.27Z" fill="#e0e0e0"/>
      <path id="Trazado_613992" data-name="Trazado 613992" d="M139.42,297.23a3.69,3.69,0,1,1-3.69-3.69A3.687,3.687,0,0,1,139.42,297.23Z" fill="#fafafa"/>
      <path id="Trazado_613993" data-name="Trazado 613993" d="M371.5,218.13c2.22-2.47,5.41-5.16,8.78-5.7,10.31-1.64,9.16,19.51,9.06,24.92a.75.75,0,0,0,1.5,0c.12-6.38,1.25-26.39-9.44-26.52-4.18-.05-8.3,3.27-10.96,6.24C369.8,217.79,370.85,218.85,371.5,218.13Z" fill="#e0e0e0"/>
      <path id="Trazado_613994" data-name="Trazado 613994" d="M403.58,205.13c-2.13.34-3.8,2.81-4.79,4.48-4.74,8-5.06,18.77-5.36,27.76-.03.97,1.47.96,1.5,0,.29-8.61.56-18.72,4.87-26.49.82-1.48,2.26-3.99,4.18-4.3C404.93,206.43,404.53,204.98,403.58,205.13Z" fill="#e0e0e0"/>
      <path id="Trazado_613995" data-name="Trazado 613995" d="M370.97,217.6s-9.29-15.35-16.11-1.51a23.437,23.437,0,0,0-2.13,6.95c2.85-1.25,8.93-3.55,9.02-.43.07,2.51-3.48,6.66-6.22,9.47a6.229,6.229,0,0,0-1.53,6.03,48.548,48.548,0,0,0,3.61,9.25s2.04-.77,5.04-2.2a6.562,6.562,0,0,0,3.63-4.73c.42-2.25,1.15-4.64,2.36-5.35s2.19.62,2.85,2.15a2.136,2.136,0,0,0,3.21.9,49.621,49.621,0,0,0,4.29-3.47,2.116,2.116,0,0,0,.25-2.85c-1.48-1.89-2.85-4.14-2.29-5.44.54-1.25,3.06-1.27,5.49-.97a3.661,3.661,0,0,0,4.08-3.21v-.04c1.73-14.92-15.57-4.54-15.57-4.54Z" fill="#b8b8b8"/>
      <path id="Trazado_613996" data-name="Trazado 613996" d="M407.11,201.83s9.29-15.35,16.11-1.51a23.438,23.438,0,0,1,2.13,6.95c-2.85-1.25-8.93-3.55-9.02-.43-.07,2.51,3.48,6.66,6.22,9.47a6.229,6.229,0,0,1,1.53,6.03,48.548,48.548,0,0,1-3.61,9.25s-2.04-.77-5.04-2.2a6.562,6.562,0,0,1-3.63-4.73c-.42-2.25-1.15-4.64-2.36-5.35s-2.19.62-2.85,2.15a2.136,2.136,0,0,1-3.21.9,49.626,49.626,0,0,1-4.29-3.47,2.116,2.116,0,0,1-.25-2.85c1.48-1.89,2.85-4.14,2.29-5.44-.54-1.25-3.06-1.27-5.49-.97a3.661,3.661,0,0,1-4.08-3.21v-.04c-1.73-14.92,15.57-4.54,15.57-4.54Z" fill="#b8b8b8"/>
      <path id="Trazado_613997" data-name="Trazado 613997" d="M354.16,310.07c0,6.76,1.06,11.13,2.85,13.94a7.385,7.385,0,0,0,6.26,3.3h9.79a7.4,7.4,0,0,0,6.26-3.3c1.79-2.81,2.85-7.18,2.85-13.94,0-9.81-4.27-17.65-5.67-23.92-.5-2.26,1.17-9.17,1.17-9.17h-19s1.67,6.92,1.17,9.17c-1.4,6.27-5.67,14.12-5.67,23.92Z" fill="#e0e0e0"/>
      <path id="Trazado_613998" data-name="Trazado 613998" d="M368.16,270.39c0-8.51,13.35-4.98,16.71-18.19,1.27-5-9.58-16.33-9.58-16.33h33.85s-10.86,11.33-9.58,16.33c3.36,13.21,16.71,9.67,16.71,18.19,0,9.38-18.83,28.9-19.73,50.88-.08,1.96,3.54,6.04,3.54,6.04H384.36s3.62-4.07,3.54-6.04c-.91-21.98-19.73-41.51-19.73-50.88Z" fill="#f3f3f3"/>
      <path id="Trazado_613999" data-name="Trazado 613999" d="M419.79,292.51c-1.97-4.14,2.1-18.21,2.1-18.21H407.22s4.07,14.07,2.1,18.21c-1.39,2.92-4.55,4.79-4.55,8.24v20.77c0,5.38,4.4,5.78,9.78,5.78s9.78-.4,9.78-5.78V300.75c0-3.46-3.16-5.32-4.55-8.24Z" fill="#e0e0e0"/>
      <path id="Trazado_614000" data-name="Trazado 614000" d="M399.04,231.71s9.64-7.27,11.35,2.88a14.247,14.247,0,0,1-.02,4.79c-1.69-1.45-5.36-4.31-6.08-2.4-.58,1.53.97,4.93,2.24,7.31a3.785,3.785,0,0,1-.24,4.08,30.029,30.029,0,0,1-4.44,4.85s-1.23-.96-2.98-2.55a4.389,4.389,0,0,1-1.48-3.77c.19-1.49.2-3.14-.48-3.86s-1.63-.14-2.41.65a1.626,1.626,0,0,1-2.39-.21,35.086,35.086,0,0,1-2.2-3.16,1.279,1.279,0,0,1,.44-1.82c1.42-.82,2.84-1.88,2.73-2.81-.11-.9-1.83-1.51-3.56-1.9a2.6,2.6,0,0,1-2.11-2.94v-.03c2-9.61,11.64.89,11.64.89Z" fill="#b8b8b8"/>
      <path id="Trazado_614001" data-name="Trazado 614001" d="M245.18,368.76c107.082,0,193.89-5.068,193.89-11.32s-86.808-11.32-193.89-11.32S51.29,351.188,51.29,357.44,138.1,368.76,245.18,368.76Z" fill="#939393"/>
      <path id="Trazado_614002" data-name="Trazado 614002" d="M376.69,114.6h4.4V101.78h-4.4Z" fill="#263238"/>
      <path id="Trazado_614003" data-name="Trazado 614003" d="M364.52,94.49a7.039,7.039,0,0,1,7.08-6.25c.44,0,3.41.01,3.95,0a9.47,9.47,0,0,1,1.4.08c1.44.2,2.66.33,3.81.4,1.17-.07,2.42-.2,3.91-.4.53-.07,4.77-.08,5.14-.08,3.67-.03,6.18,2.3,5.77,6.25l-.02.2c-.45,4.35-4.34,9.03-8.72,9.62a38.532,38.532,0,0,1-8.05.41,37.085,37.085,0,0,1-7.94-.41c-4.23-.58-6.98-5.27-6.36-9.62Z" fill="#263238"/>
      <path id="Trazado_614004" data-name="Trazado 614004" d="M394.65,107.6c-.57.02-3.28-.05-4.13,0a11.036,11.036,0,0,0-2.15.35,52.046,52.046,0,0,1-10.2,1.87,45.678,45.678,0,0,1-9.74-1.87,8.668,8.668,0,0,0-2.7-.36c-.61.02-3.18,0-3.86,0a6.145,6.145,0,0,0-6.28,5.65l-6.06,39.99H386.9a17.136,17.136,0,0,0,9.51-2.87q1.755-18.57,3.5-37.13c.36-3.8-1.85-5.78-5.26-5.65Z" fill="#263238"/>
      <path id="Trazado_614005" data-name="Trazado 614005" d="M370.85,104.31a37.1,37.1,0,0,0,11.99,0c4.38-.58,8.27-5.27,8.72-9.62l.02-.2c.45-4.35-2.64-6.74-6.91-6.17a36.509,36.509,0,0,1-11.71,0,7.148,7.148,0,0,0-8.43,6.17l-.03.2c-.62,4.35,2.12,9.03,6.36,9.62Z" fill="#f0f0f0" opacity="0.2"/>
      <path id="Trazado_614006" data-name="Trazado 614006" d="M388.37,107.95c-9.71,2.59-14.86,2.59-23.93,0-4.35-1.24-8.15.69-8.84,5.29l-6.06,39.99h37.37a16.987,16.987,0,0,0,5.32-.85q1.845-19.575,3.69-39.14C396.35,108.64,393.03,106.71,388.37,107.95Z" fill="#f0f0f0" opacity="0.2"/>
      <path id="Trazado_614007" data-name="Trazado 614007" d="M328.39,133.46l-6.89.66-10.55-2.49-3.83,6.32,2.46,1.25,3.44-1.05,4.75.93,4.28-.66,8.12.2Z" fill="#ffc3bd"/>
      <path id="Trazado_614008" data-name="Trazado 614008" d="M325.6,133.2l1.64,5.89s11.88,1.62,16.55-.43,1.14-36.51-3.35-36.13-2.02,19.45-2.02,25.44c0,4.58-12.82,5.24-12.82,5.24Z" fill="#4f6736"/>
      <path id="Trazado_614009" data-name="Trazado 614009" d="M325.6,133.2l1.64,5.89s11.88,1.62,16.55-.43,1.14-36.51-3.35-36.13-2.02,19.45-2.02,25.44c0,4.58-12.82,5.24-12.82,5.24Z" fill="#f0f0f0" opacity="0.7"/>
      <path id="Trazado_614010" data-name="Trazado 614010" d="M339.55,102.56c-4.5,6.44,5.84,16.54,6.06,50.67H379c.97-9.22,4.42-45.34-.39-52.16C373.08,93.24,343.84,96.43,339.55,102.56Z" fill="#4f6736"/>
      <path id="Trazado_614011" data-name="Trazado 614011" d="M350.35,96.46s-7.98,3.02-.76,10.08l3.85-1.58,5.55,1.58S373.07,90.99,350.35,96.46Z" fill="#4f6736"/>
      <path id="Trazado_614012" data-name="Trazado 614012" d="M350.35,96.46s-7.98,3.02-.76,10.08l3.85-1.58,5.55,1.58S373.07,90.99,350.35,96.46Z" fill="#f0f0f0" opacity="0.7"/>
      <path id="Trazado_614013" data-name="Trazado 614013" d="M351.46,103.7c-1.96-1.61-4.25-4.07-2.31-5.68a58.926,58.926,0,0,1,12.11-1.55c1.12.74.49,2.68-5.53,7.29A3.441,3.441,0,0,1,351.46,103.7Z" fill="#ffc3bd"/>
      <path id="Trazado_614014" data-name="Trazado 614014" d="M349.41,93.51l6.7-7.28c.64,5.58,3.61,10.16,4.21,10.34l-.73,2.56c-8.12,9.13-9.99.36-9.99.36,1.98-1.66-.18-5.99-.18-5.99Z" fill="#ffc3bd"/>
      <path id="Trazado_614015" data-name="Trazado 614015" d="M353.43,89.15l3.12-.31s-.14,9.36-6.54,10.16c1.19-1.89-.6-5.49-.6-5.49Z" fill="#263238" opacity="0.2"/>
      <path id="Trazado_614016" data-name="Trazado 614016" d="M355.2,78.23c1.45,6.62,2.64,10.4.35,14.77a8.8,8.8,0,0,1-15.58.19c-3.04-5.38-4.91-15.29.64-19.9a8.9,8.9,0,0,1,14.6,4.95Z" fill="#ffc3bd"/>
      <path id="Trazado_614017" data-name="Trazado 614017" d="M345.99,83.19c.16.52,0,1.04-.36,1.12s-.74-.23-.89-.75,0-1.05.37-1.12.74.23.88.76Z" fill="#263238"/>
      <path id="Trazado_614018" data-name="Trazado 614018" d="M340.08,85.1c.16.52,0,1.04-.36,1.12s-.74-.23-.9-.76,0-1.04.37-1.12S339.93,84.57,340.08,85.1Z" fill="#263238"/>
      <path id="Trazado_614019" data-name="Trazado 614019" d="M347.26,80.67a.267.267,0,0,0,.14-.07.328.328,0,0,0-.05-.45h-.01a3.107,3.107,0,0,0-2.89-.53.321.321,0,0,0,.23.6,2.483,2.483,0,0,1,2.25.39.287.287,0,0,0,.33.04Z" fill="#263238"/>
      <path id="Trazado_614020" data-name="Trazado 614020" d="M336.96,83.86a.285.285,0,0,0,.18-.24,2.694,2.694,0,0,1,1.34-1.97.323.323,0,0,0,.08-.45.333.333,0,0,0-.36-.13,3.317,3.317,0,0,0-1.69,2.44.317.317,0,0,0,.26.37.372.372,0,0,0,.18-.02Z" fill="#263238"/>
      <path id="Trazado_614021" data-name="Trazado 614021" d="M346.45,91.53a4.486,4.486,0,0,1-.9.18.181.181,0,0,1-.21-.15.2.2,0,0,1,.17-.21,4.93,4.93,0,0,0,3.73-2.41.179.179,0,1,1,.32.16,5.107,5.107,0,0,1-3.12,2.43Z" fill="#263238"/>
      <path id="Trazado_614022" data-name="Trazado 614022" d="M342.14,84.75a20.63,20.63,0,0,1-1.2,5.32,3.19,3.19,0,0,0,2.64-.31l-1.44-5.02Z" fill="#ed893e"/>
      <path id="Trazado_614023" data-name="Trazado 614023" d="M351.6,68.32c-21.32-4.09-15.08,13.27-15.08,13.27s.16-2.97,2.94-2.97a9.057,9.057,0,0,0,5.22-2.18,8.316,8.316,0,0,1-3.74,2.57,11.214,11.214,0,0,0,9.49-5.11,10.244,10.244,0,0,1,.19,1.48c0,2.44,1.98,3.76,2.97,7.09s4.95,0,4.95,0c5.55-14.24-6.93-14.15-6.93-14.15Z" fill="#263238"/>
      <path id="Trazado_614024" data-name="Trazado 614024" d="M359.2,82.93a6.016,6.016,0,0,1-1.68,4.05c-1.39,1.41-2.98.35-3.34-1.51-.32-1.69.02-4.44,1.77-5.15s3.26.74,3.24,2.61Z" fill="#ffc3bd"/>
      <path id="Trazado_614025" data-name="Trazado 614025" d="M351.96,69.29s-4.5-5.51-7.63-4.04S350.05,67.07,351.96,69.29Z" fill="#263238"/>
      <path id="Trazado_614026" data-name="Trazado 614026" d="M351.61,134.61l-6.89.66-10.55-3.55-4.88,5.26,2.45,1.26h4.5l4.76,1.99,4.27-.66,8.13.19Z" fill="#ffc3bd"/>
      <path id="Trazado_614027" data-name="Trazado 614027" d="M376.92,100.51c-2.22-1.51-4.59-.05-6.99,13.76-2.85,16.38-4.74,17.12-21.11,20.07l1.78,5.89s13.98,1.72,20.74-2.68S382.89,104.58,376.92,100.51Z" fill="#4f6736"/>
      <path id="Trazado_614028" data-name="Trazado 614028" d="M376.92,100.51c-2.22-1.51-4.59-.05-6.99,13.76-2.85,16.38-4.74,17.12-21.11,20.07l1.78,5.89s13.98,1.72,20.74-2.68S382.89,104.58,376.92,100.51Z" fill="#f0f0f0" opacity="0.7"/>
      <path id="Trazado_614029" data-name="Trazado 614029" d="M356.99,141.88H265.61a17.214,17.214,0,0,0,2.44,4.48h88.94a2.24,2.24,0,1,0,0-4.48Z" fill="#263238"/>
      <path id="Trazado_614030" data-name="Trazado 614030" d="M356.99,141.88H265.61a17.214,17.214,0,0,0,2.44,4.48h88.94a2.24,2.24,0,1,0,0-4.48Z" fill="#f0f0f0" opacity="0.6"/>
      <path id="Trazado_614031" data-name="Trazado 614031" d="M281.81,153.23H354.9v-6.87H268.05A17.2,17.2,0,0,0,281.81,153.23Z" fill="#263238"/>
      <path id="Trazado_614032" data-name="Trazado 614032" d="M281.81,153.23H354.9v-6.87H268.05A17.2,17.2,0,0,0,281.81,153.23Z" fill="#f0f0f0" opacity="0.4"/>
      <path id="Trazado_614033" data-name="Trazado 614033" d="M342.91,138.97H289.66a1.45,1.45,0,1,0,0,2.9h53.25a1.45,1.45,0,0,0,0-2.9Z" fill="#263238"/>
      <path id="Trazado_614034" data-name="Trazado 614034" d="M342.91,138.97H289.66a1.45,1.45,0,1,0,0,2.9h53.25a1.45,1.45,0,0,0,0-2.9Z" fill="#f0f0f0" opacity="0.3"/>
      <path id="Trazado_614035" data-name="Trazado 614035" d="M290.45,140.99h18.2a.691.691,0,0,0,.65-.92l-9.98-28.52a1.95,1.95,0,0,0-1.85-1.31h-18.2a.691.691,0,0,0-.65.92l9.98,28.52A1.95,1.95,0,0,0,290.45,140.99Z" fill="#263238"/>
      <path id="Trazado_614036" data-name="Trazado 614036" d="M290.45,140.99h18.2a.691.691,0,0,0,.65-.92l-9.98-28.52a1.95,1.95,0,0,0-1.85-1.31h-18.2a.691.691,0,0,0-.65.92l9.98,28.52A1.95,1.95,0,0,0,290.45,140.99Z" fill="#f0f0f0" opacity="0.5"/>
      <path id="Trazado_614037" data-name="Trazado 614037" d="M289.57,140.99h18.2a.692.692,0,0,0,.65-.92l-9.98-28.52a1.96,1.96,0,0,0-1.85-1.31h-18.2a.692.692,0,0,0-.65.92l9.98,28.52A1.95,1.95,0,0,0,289.57,140.99Z" fill="#263238"/>
      <path id="Trazado_614038" data-name="Trazado 614038" d="M289.57,140.99h18.2a.692.692,0,0,0,.65-.92l-9.98-28.52a1.96,1.96,0,0,0-1.85-1.31h-18.2a.692.692,0,0,0-.65.92l9.98,28.52A1.95,1.95,0,0,0,289.57,140.99Z" fill="#f0f0f0" opacity="0.7"/>
      <path id="Trazado_614039" data-name="Trazado 614039" d="M291.61,125.61c.23,1.09.99,1.98,1.69,1.98s1.08-.89.85-1.98-.99-1.98-1.69-1.98S291.38,124.52,291.61,125.61Z" fill="#f0f0f0"/>
      <path id="Trazado_614040" data-name="Trazado 614040" d="M310.99,141.88a1.45,1.45,0,0,1,0-2.9h31.92a1.45,1.45,0,0,1,0,2.9Z" fill="#f0f0f0" opacity="0.2"/>
      <path id="Trazado_614041" data-name="Trazado 614041" d="M278.65,93.92H275v7.95h3.65Z" fill="#4f6736"/>
      <path id="Trazado_614042" data-name="Trazado 614042" d="M322.37,93.92h-3.65v7.95h3.65Z" fill="#4f6736"/>
      <path id="Trazado_614043" data-name="Trazado 614043" d="M300.45,78.55l-.43-.03c.86-12.77-1.04-16.92-2.78-18.15a2.121,2.121,0,0,0-1.94-.34l-.17-.39a2.565,2.565,0,0,1,2.36.38C299.33,61.32,301.33,65.58,300.45,78.55Z" fill="#4f6736"/>
      <path id="Trazado_614044" data-name="Trazado 614044" d="M298.02,77.25c-.42-10.86,1.46-14.91,3.12-16.4a2.547,2.547,0,0,1,1.96-.8l-.06.42a2.251,2.251,0,0,0-1.64.72c-1.57,1.44-3.36,5.39-2.95,16.04Z" fill="#4f6736"/>
      <path id="Trazado_614045" data-name="Trazado 614045" d="M299.85,77.26l-.43-.03c.44-6.53-.36-10.41-2.33-11.23-2.57-1.07-6.4,3.22-6.44,3.26l-.32-.28c.16-.19,4.07-4.56,6.92-3.37,2.18.91,3.05,4.83,2.59,11.65Z" fill="#4f6736"/>
      <path id="Trazado_614046" data-name="Trazado 614046" d="M298.77,77.68c0-4.01.83-6.48,2.48-7.35,1.86-.98,4,.47,4.09.53l-.24.35s-2.02-1.36-3.65-.5c-1.49.79-2.25,3.13-2.25,6.97Z" fill="#4f6736"/>
      <g id="Grupo_1016088" data-name="Grupo 1016088" opacity="0.2">
        <path id="Trazado_614047" data-name="Trazado 614047" d="M300.45,78.55l-.43-.03c.86-12.77-1.04-16.92-2.78-18.15a2.121,2.121,0,0,0-1.94-.34l-.17-.39a2.565,2.565,0,0,1,2.36.38C299.33,61.32,301.33,65.58,300.45,78.55Z"/>
        <path id="Trazado_614048" data-name="Trazado 614048" d="M298.02,77.25c-.42-10.86,1.46-14.91,3.12-16.4a2.547,2.547,0,0,1,1.96-.8l-.06.42a2.251,2.251,0,0,0-1.64.72c-1.57,1.44-3.36,5.39-2.95,16.04Z"/>
        <path id="Trazado_614049" data-name="Trazado 614049" d="M299.85,77.26l-.43-.03c.44-6.53-.36-10.41-2.33-11.23-2.57-1.07-6.4,3.22-6.44,3.26l-.32-.28c.16-.19,4.07-4.56,6.92-3.37,2.18.91,3.05,4.83,2.59,11.65Z"/>
        <path id="Trazado_614050" data-name="Trazado 614050" d="M298.77,77.68c0-4.01.83-6.48,2.48-7.35,1.86-.98,4,.47,4.09.53l-.24.35s-2.02-1.36-3.65-.5c-1.49.79-2.25,3.13-2.25,6.97Z"/>
      </g>
      <path id="Trazado_614051" data-name="Trazado 614051" d="M289.08,76.53,290.92,87a5.011,5.011,0,0,0,4.94,4.15h7.32A5.019,5.019,0,0,0,308.12,87l1.84-10.47H289.08Z" fill="#263238"/>
      <path id="Trazado_614052" data-name="Trazado 614052" d="M289.08,76.53,290.92,87a5.011,5.011,0,0,0,4.94,4.15h7.32A5.019,5.019,0,0,0,308.12,87l1.84-10.47H289.08Z" fill="#f0f0f0" opacity="0.3"/>
      <path id="Trazado_614053" data-name="Trazado 614053" d="M296.06,59.75s4.34-7.3-3.3-7.41a11.361,11.361,0,0,0-3.26.45c.98.68,2.6,1.91,1.78,2.23-.86.33-3.96-.3-5.46-.63a24.144,24.144,0,0,0-6.47,5.83,42.179,42.179,0,0,0,4.94,3.94c.76-.76,1.92-1.71,2.57-1.33s1.37,2.41,1.81,3.86a16.017,16.017,0,0,0,4.53,1.41c-.04-1.17-.02-3.06.54-3.35.58-.31,2.59,1.63,3.73,2.8,5.84-2.52-1.4-7.8-1.4-7.8Z" fill="#4f6736"/>
      <path id="Trazado_614054" data-name="Trazado 614054" d="M296.06,59.75s4.34-7.3-3.3-7.41a11.361,11.361,0,0,0-3.26.45c.98.68,2.6,1.91,1.78,2.23-.86.33-3.96-.3-5.46-.63a24.144,24.144,0,0,0-6.47,5.83,42.179,42.179,0,0,0,4.94,3.94c.76-.76,1.92-1.71,2.57-1.33s1.37,2.41,1.81,3.86a16.017,16.017,0,0,0,4.53,1.41c-.04-1.17-.02-3.06.54-3.35.58-.31,2.59,1.63,3.73,2.8,5.84-2.52-1.4-7.8-1.4-7.8Z" fill="#f0f0f0" opacity="0.1"/>
      <path id="Trazado_614055" data-name="Trazado 614055" d="M296.06,59.75s4.34-7.3-3.3-7.41a11.361,11.361,0,0,0-3.26.45c.98.68,2.6,1.91,1.78,2.23-.86.33-3.96-.3-5.46-.63a24.144,24.144,0,0,0-6.47,5.83c8.34-3.54,16.72-.47,16.72-.47Z" fill="#f0f0f0" opacity="0.3"/>
      <path id="Trazado_614056" data-name="Trazado 614056" d="M305.11,64.69c.81-.23,1.81,1.37,2.33,2.34a17.528,17.528,0,0,0,4.59-2.97c-.37-.82-.79-1.94-.53-2.37.28-.45,1.72-.09,2.76.23a32.812,32.812,0,0,0,2.64-3.14,20.765,20.765,0,0,0-2.52-1.74c-1.5.17-3.62.3-4.14-.21-.55-.55.63-.95,1.46-1.16a15.982,15.982,0,0,0-4.38-1.22c-.2.68-.64,1.73-1.45,1.73-.76,0-1.66-.91-2.22-1.58-6.26,1.35-1.29,5.83-1.29,5.83s-5.39,6.4,1.02,7.25c.34-1.1.97-2.77,1.73-2.98Z" fill="#4f6736"/>
      <path id="Trazado_614057" data-name="Trazado 614057" d="M305.11,64.69c.81-.23,1.81,1.37,2.33,2.34a17.528,17.528,0,0,0,4.59-2.97c-.37-.82-.79-1.94-.53-2.37.28-.45,1.72-.09,2.76.23a32.812,32.812,0,0,0,2.64-3.14,20.765,20.765,0,0,0-2.52-1.74c-1.5.17-3.62.3-4.14-.21-.55-.55.63-.95,1.46-1.16a15.982,15.982,0,0,0-4.38-1.22c-.2.68-.64,1.73-1.45,1.73-.76,0-1.66-.91-2.22-1.58-6.26,1.35-1.29,5.83-1.29,5.83s-5.39,6.4,1.02,7.25c.34-1.1.97-2.77,1.73-2.98Z" fill="#f0f0f0" opacity="0.2"/>
      <path id="Trazado_614058" data-name="Trazado 614058" d="M310.24,56.82c-.55-.55.63-.95,1.46-1.16a15.982,15.982,0,0,0-4.38-1.22c-.2.68-.64,1.73-1.45,1.73-.76,0-1.66-.91-2.22-1.58-6.26,1.35-1.29,5.83-1.29,5.83s8.13-2.97,14.53-1.64a20.767,20.767,0,0,0-2.52-1.74c-1.5.17-3.62.3-4.14-.21Z" fill="#f0f0f0" opacity="0.3"/>
      <path id="Trazado_614059" data-name="Trazado 614059" d="M314.27,70.31c-.87.47-2.54,1.23-3.21.56-.73-.73.35-3.5.86-4.66a7.885,7.885,0,0,0-2.88-2.28c-6.8-3.02-4.49,6.75-4.49,6.75s-8.59,2.07-3.05,7.34a10.4,10.4,0,0,0,1.28,1.04c.43-1.02,1.27-2.68,2.11-2.45.82.22.52,2.4.24,3.75a17.333,17.333,0,0,0,4.52,1.17c.2-.95.58-2.21,1.19-2.18.65.04,1.5,1.41,2.01,2.35a22.894,22.894,0,0,0,3.84-.35,39.976,39.976,0,0,0-2.43-11.03Z" fill="#4f6736"/>
      <path id="Trazado_614060" data-name="Trazado 614060" d="M304.55,70.68s-8.59,2.07-3.05,7.34a10.4,10.4,0,0,0,1.28,1.04c.43-1.02,1.27-2.68,2.11-2.45.82.22.52,2.4.24,3.75a17.333,17.333,0,0,0,4.52,1.17c.2-.95.58-2.21,1.19-2.18.65.04,1.5,1.41,2.01,2.35a22.894,22.894,0,0,0,3.84-.35,20.416,20.416,0,0,0-12.15-10.66Z" fill="#f0f0f0" opacity="0.2"/>
      <path id="Trazado_614061" data-name="Trazado 614061" d="M291.21,68.6s-4.6-7.61-7.98-.75a11.886,11.886,0,0,0-1.06,3.44c1.41-.62,4.43-1.76,4.47-.21.05,1.69-3.19,4.85-4.27,5.86a24.328,24.328,0,0,0,2.22,6.41,40.094,40.094,0,0,0,4.08-1.88c.12-1.23.48-3.67,1.39-4.2.96-.56,1.6,1.42,1.84,2.32a24.473,24.473,0,0,0,4.02-3.22c-.88-1.01-2.09-2.59-1.73-3.42.39-.9,2.87-.51,4.25-.22a7.3,7.3,0,0,0,.5-1.87c.86-7.4-7.72-2.25-7.72-2.25Z" fill="#4f6736"/>
      <path id="Trazado_614062" data-name="Trazado 614062" d="M284.58,83.35a40.094,40.094,0,0,0,4.08-1.88c.12-1.23.48-3.67,1.39-4.2.96-.56,1.6,1.42,1.84,2.32a24.474,24.474,0,0,0,4.02-3.22c-.88-1.01-2.09-2.59-1.73-3.42.39-.9,2.87-.51,4.25-.22a7.294,7.294,0,0,0,.5-1.87c.86-7.4-7.72-2.25-7.72-2.25s-5.07,4.72-6.62,14.75Z" fill="#f0f0f0" opacity="0.2"/>
      <path id="Trazado_614063" data-name="Trazado 614063" d="M326.88,90.27H270.5v4.49h56.38Z" fill="#4f6736"/>
      <path id="Trazado_614064" data-name="Trazado 614064" d="M326.88,90.27H270.5v4.49h56.38Z" fill="#f0f0f0" opacity="0.3"/>
      <path id="Trazado_614065" data-name="Trazado 614065" d="M386.9,20.89H281.81a21.5,21.5,0,0,0-21.48,21.48v93.61a21.5,21.5,0,0,0,21.48,21.48H386.9a21.5,21.5,0,0,0,21.48-21.48V42.37A21.5,21.5,0,0,0,386.9,20.89Zm17.25,115.09a17.246,17.246,0,0,1-17.25,17.25H281.81a17.246,17.246,0,0,1-17.25-17.25V42.37a17.246,17.246,0,0,1,17.25-17.25H386.9a17.246,17.246,0,0,1,17.25,17.25Z" fill="#4f6736"/>
      <path id="Trazado_614066" data-name="Trazado 614066" d="M386.9,20.89H281.81a21.5,21.5,0,0,0-21.48,21.48v93.61a21.5,21.5,0,0,0,21.48,21.48H386.9a21.5,21.5,0,0,0,21.48-21.48V42.37A21.5,21.5,0,0,0,386.9,20.89Zm17.25,115.09a17.246,17.246,0,0,1-17.25,17.25H281.81a17.246,17.246,0,0,1-17.25-17.25V42.37a17.246,17.246,0,0,1,17.25-17.25H386.9a17.246,17.246,0,0,1,17.25,17.25Z" fill="#f0f0f0" opacity="0.4"/>
      <path id="Trazado_614067" data-name="Trazado 614067" d="M374,54.93H360.83a2.55,2.55,0,0,0-2.55,2.55V59.8a2.55,2.55,0,0,0,2.55,2.55H374a2.55,2.55,0,0,0,2.55-2.55V57.48A2.55,2.55,0,0,0,374,54.93Z" fill="#4f6736"/>
      <path id="Trazado_614068" data-name="Trazado 614068" d="M385.48,45.75H372.31a2.55,2.55,0,0,0-2.55,2.55v2.32a2.55,2.55,0,0,0,2.55,2.55h13.17a2.55,2.55,0,0,0,2.55-2.55V48.3A2.55,2.55,0,0,0,385.48,45.75Z" fill="#4f6736"/>
      <path id="Trazado_614069" data-name="Trazado 614069" d="M381.35,64.11H368.18a2.55,2.55,0,0,0-2.55,2.55v2.32a2.55,2.55,0,0,0,2.55,2.55h13.17a2.55,2.55,0,0,0,2.55-2.55V66.66A2.55,2.55,0,0,0,381.35,64.11Z" fill="#4f6736"/>
      <path id="Trazado_614070" data-name="Trazado 614070" d="M394.61,54.93H381.44a2.55,2.55,0,0,0-2.55,2.55V59.8a2.55,2.55,0,0,0,2.55,2.55h13.17a2.55,2.55,0,0,0,2.55-2.55V57.48A2.55,2.55,0,0,0,394.61,54.93Z" fill="#4f6736"/>
      <path id="Trazado_614071" data-name="Trazado 614071" d="M374,54.93H360.83a2.55,2.55,0,0,0-2.55,2.55V59.8a2.55,2.55,0,0,0,2.55,2.55H374a2.55,2.55,0,0,0,2.55-2.55V57.48A2.55,2.55,0,0,0,374,54.93Z" fill="#f0f0f0" opacity="0.7"/>
      <path id="Trazado_614072" data-name="Trazado 614072" d="M385.48,45.75H372.31a2.55,2.55,0,0,0-2.55,2.55v2.32a2.55,2.55,0,0,0,2.55,2.55h13.17a2.55,2.55,0,0,0,2.55-2.55V48.3A2.55,2.55,0,0,0,385.48,45.75Z" fill="#f0f0f0" opacity="0.8"/>
      <path id="Trazado_614073" data-name="Trazado 614073" d="M381.35,64.11H368.18a2.55,2.55,0,0,0-2.55,2.55v2.32a2.55,2.55,0,0,0,2.55,2.55h13.17a2.55,2.55,0,0,0,2.55-2.55V66.66A2.55,2.55,0,0,0,381.35,64.11Z" fill="#f0f0f0" opacity="0.8"/>
      <path id="Trazado_614074" data-name="Trazado 614074" d="M394.61,54.93H381.44a2.55,2.55,0,0,0-2.55,2.55V59.8a2.55,2.55,0,0,0,2.55,2.55h13.17a2.55,2.55,0,0,0,2.55-2.55V57.48A2.55,2.55,0,0,0,394.61,54.93Z" fill="#f0f0f0" opacity="0.7"/>
      <path id="Trazado_614075" data-name="Trazado 614075" d="M341.3,44.87h13.17a2.55,2.55,0,0,0,2.55-2.55V40a2.55,2.55,0,0,0-2.55-2.55H341.3A2.55,2.55,0,0,0,338.75,40v2.32A2.55,2.55,0,0,0,341.3,44.87Z" fill="#4f6736"/>
      <path id="Trazado_614076" data-name="Trazado 614076" d="M333.93,54.04H347.1a2.55,2.55,0,0,0,2.55-2.55V49.17a2.55,2.55,0,0,0-2.55-2.55H333.93a2.55,2.55,0,0,0-2.55,2.55v2.32A2.55,2.55,0,0,0,333.93,54.04Z" fill="#4f6736"/>
      <path id="Trazado_614077" data-name="Trazado 614077" d="M320.67,44.87h13.17a2.55,2.55,0,0,0,2.55-2.55V40a2.55,2.55,0,0,0-2.55-2.55H320.67A2.55,2.55,0,0,0,318.12,40v2.32A2.55,2.55,0,0,0,320.67,44.87Z" fill="#4f6736"/>
      <path id="Trazado_614078" data-name="Trazado 614078" d="M341.3,44.87h13.17a2.55,2.55,0,0,0,2.55-2.55V40a2.55,2.55,0,0,0-2.55-2.55H341.3A2.55,2.55,0,0,0,338.75,40v2.32A2.55,2.55,0,0,0,341.3,44.87Z" fill="#f0f0f0" opacity="0.8"/>
      <path id="Trazado_614079" data-name="Trazado 614079" d="M333.93,54.04H347.1a2.55,2.55,0,0,0,2.55-2.55V49.17a2.55,2.55,0,0,0-2.55-2.55H333.93a2.55,2.55,0,0,0-2.55,2.55v2.32A2.55,2.55,0,0,0,333.93,54.04Z" fill="#f0f0f0" opacity="0.8"/>
      <path id="Trazado_614080" data-name="Trazado 614080" d="M320.67,44.87h13.17a2.55,2.55,0,0,0,2.55-2.55V40a2.55,2.55,0,0,0-2.55-2.55H320.67A2.55,2.55,0,0,0,318.12,40v2.32A2.55,2.55,0,0,0,320.67,44.87Z" fill="#f0f0f0" opacity="0.7"/>
      <path id="Trazado_614081" data-name="Trazado 614081" d="M225.06,63.2H165.2v67.61h59.86Z" fill="#263238"/>
      <path id="Trazado_614082" data-name="Trazado 614082" d="M229.85,130.81H160.4v5.45h69.45Z" fill="#263238"/>
      <g id="Grupo_1016089" data-name="Grupo 1016089" opacity="0.4">
        <path id="Trazado_614083" data-name="Trazado 614083" d="M229.85,130.81H160.4v5.45h69.45Z" fill="#f0f0f0"/>
      </g>
      <path id="Trazado_614084" data-name="Trazado 614084" d="M225.06,63.2H165.2v67.61h59.86Z" fill="#f0f0f0" opacity="0.6"/>
      <path id="Trazado_614085" data-name="Trazado 614085" d="M220.84,67.43H169.43v59.16h51.41Z" fill="#f0f0f0" opacity="0.5"/>
      <g id="Grupo_1016090" data-name="Grupo 1016090" opacity="0.2">
        <path id="Trazado_614086" data-name="Trazado 614086" d="M169.43,67.43v59.15h.36l14.14-59.15Z" fill="#f0f0f0"/>
        <path id="Trazado_614087" data-name="Trazado 614087" d="M213.52,67.43h-2.65l-14.13,59.15h2.65Z" fill="#f0f0f0"/>
        <path id="Trazado_614088" data-name="Trazado 614088" d="M207.31,67.43H196.22l-14.13,59.15h11.09Z" fill="#f0f0f0"/>
      </g>
      <path id="Trazado_614089" data-name="Trazado 614089" d="M130.61,117.71c-2.03.15-4.59-1.48-5.84-3.6-.39-.66-.59-1-.99-1.66-2.89-4.72-9.22-8.1-13.6-7.78-.44.03-.66.05-1.1.08-.53.04-2.55.18-3.07.22l-1.1.08c-4.37.32-5.36,4.23-2.76,8.97.36.66.54,1,.89,1.66,1.12,2.13.28,4-1.74,4.15-3.5.25-4.98,3.49-3.62,7.31,4.44,15.75,5.67,29.03,3.96,43.42a17.157,17.157,0,0,0,11.69,4.59h35.5c1.37-18.02-1.21-33.04-8.37-51.11-1.78-3.79-6.34-6.59-9.84-6.34Z" fill="#4f6736"/>
      <path id="Trazado_614090" data-name="Trazado 614090" d="M130.61,117.71c-2.03.15-4.59-1.48-5.84-3.6-.39-.66-.59-1-.99-1.66-2.89-4.72-9.22-8.1-13.6-7.78-.44.03-.66.05-1.1.08-.53.04-2.55.18-3.07.22l-1.1.08c-4.37.32-5.36,4.23-2.76,8.97.36.66.54,1,.89,1.66,1.12,2.13.28,4-1.74,4.15-3.5.25-4.98,3.49-3.62,7.31,4.44,15.75,5.67,29.03,3.96,43.42a17.157,17.157,0,0,0,11.69,4.59h35.5c1.37-18.02-1.21-33.04-8.37-51.11-1.78-3.79-6.34-6.59-9.84-6.34Z" opacity="0.1"/>
      <path id="Trazado_614091" data-name="Trazado 614091" d="M130.61,117.71c-2.03.15-4.59-1.48-5.84-3.6-.39-.66-.59-1-.99-1.66-2.89-4.72-9.22-8.1-13.6-7.78-.44.03-.66.05-1.1.08-4.37.32-5.32,4.23-2.66,8.96.37.66.55.99.91,1.66,1.14,2.13.33,4-1.7,4.15-3.5.25-4.94,3.48-3.54,7.31,4.97,16.92,6.19,31.01,4.04,46.74a17.11,17.11,0,0,0,7.19,1.58h35.5c1.37-18.02-1.21-33.04-8.37-51.11-1.78-3.79-6.34-6.59-9.84-6.34Z" opacity="0.2"/>
      <path id="Trazado_614092" data-name="Trazado 614092" d="M154.63,135.56s-1.55,20.49,3.59,20.28,15.26-.14,15.26-.14l8.36-3.74a1.2,1.2,0,0,1,1.32.24l3.79,3.75a1.181,1.181,0,0,1-.86,2.02l-2.31-.06a17.528,17.528,0,0,1-10.19,1.95c1.19-.37-21.15,3.78-23.45.62-3.14-4.34-4.51-22.45-4.51-22.45l9.01-2.48Z" fill="#b55b52"/>
      <path id="Trazado_614093" data-name="Trazado 614093" d="M154.63,135.56s-1.55,20.49,3.59,20.28,15.26-.14,15.26-.14l8.36-3.74a1.2,1.2,0,0,1,1.32.24l3.79,3.75a1.181,1.181,0,0,1-.86,2.02l-2.31-.06a17.528,17.528,0,0,1-10.19,1.95c1.19-.37-21.15,3.78-23.45.62-3.14-4.34-4.51-22.45-4.51-22.45l9.01-2.48Z" opacity="0.1"/>
      <path id="Trazado_614094" data-name="Trazado 614094" d="M149.79,122.8c3.48-.11,7.41,4.41,5.68,16.43l-9.58,1.85S142.78,123.02,149.79,122.8Z" fill="#263238"/>
      <path id="Trazado_614095" data-name="Trazado 614095" d="M149.79,122.8c3.48-.11,7.41,4.41,5.68,16.43l-9.58,1.85S142.78,123.02,149.79,122.8Z" opacity="0.2"/>
      <path id="Trazado_614096" data-name="Trazado 614096" d="M114.42,123c-5.24,6.75-4.38,42.26-4.05,51.89a16.857,16.857,0,0,0,2.95.27h30.45c2.6-34.13,13.65-44.23,9.6-50.67C149.51,118.36,120.49,115.17,114.42,123Z" fill="#263238"/>
      <path id="Trazado_614097" data-name="Trazado 614097" d="M139.7,127.21s7.59-4.72,4.51-7.28a58.926,58.926,0,0,0-12.11-1.55C130.86,119.2,131.76,121.48,139.7,127.21Z" fill="#b55b52"/>
      <path id="Trazado_614098" data-name="Trazado 614098" d="M143.95,115.43l-6.7-7.28c-.64,5.58-3.61,10.16-4.21,10.34l.73,2.56c8.12,9.13,9.99.36,9.99.36-1.98-1.66.18-5.99.18-5.99Z" fill="#b55b52"/>
      <path id="Trazado_614099" data-name="Trazado 614099" d="M139.93,111.07l-3.12-.31s.14,9.36,6.54,10.16c-1.19-1.89.6-5.49.6-5.49Z" fill="#263238" opacity="0.2"/>
      <path id="Trazado_614100" data-name="Trazado 614100" d="M138.16,100.16c-1.45,6.62-2.64,10.4-.35,14.77a8.8,8.8,0,0,0,15.58.19c3.04-5.38,4.91-15.29-.64-19.9a8.9,8.9,0,0,0-14.6,4.95Z" fill="#b55b52"/>
      <path id="Trazado_614101" data-name="Trazado 614101" d="M147.37,105.12c-.16.52,0,1.04.36,1.12s.74-.23.89-.75,0-1.05-.37-1.12-.74.23-.88.76Z" fill="#263238"/>
      <path id="Trazado_614102" data-name="Trazado 614102" d="M153.28,107.02c-.16.52,0,1.04.36,1.12s.74-.23.9-.76,0-1.04-.37-1.12S153.43,106.49,153.28,107.02Z" fill="#263238"/>
      <path id="Trazado_614103" data-name="Trazado 614103" d="M146.1,102.6a.267.267,0,0,1-.14-.07.328.328,0,0,1,.05-.45h.01a3.107,3.107,0,0,1,2.89-.53.321.321,0,0,1-.23.6,2.483,2.483,0,0,0-2.25.39.287.287,0,0,1-.33.04Z" fill="#263238"/>
      <path id="Trazado_614104" data-name="Trazado 614104" d="M156.4,105.79a.285.285,0,0,1-.18-.24,2.694,2.694,0,0,0-1.34-1.97.323.323,0,0,1-.08-.45.333.333,0,0,1,.36-.13,3.317,3.317,0,0,1,1.69,2.44.317.317,0,0,1-.26.37.372.372,0,0,1-.18-.02Z" fill="#263238"/>
      <path id="Trazado_614105" data-name="Trazado 614105" d="M146.91,113.45a4.485,4.485,0,0,0,.9.18.181.181,0,0,0,.21-.15.2.2,0,0,0-.17-.21,4.93,4.93,0,0,1-3.73-2.41.179.179,0,1,0-.32.16,5.107,5.107,0,0,0,3.12,2.43Z" fill="#263238"/>
      <path id="Trazado_614106" data-name="Trazado 614106" d="M151.22,106.68a20.63,20.63,0,0,0,1.2,5.32,3.19,3.19,0,0,1-2.64-.31l1.44-5.02Z" fill="#a02724"/>
      <path id="Trazado_614107" data-name="Trazado 614107" d="M138.29,103.84s6.42.07,4.58-3.63c0,0,8.91,1.72,7.39-1.65,0,0,6.04,4.75,4.47.26,0,0,4.11,3.5,4.24,1.25s-2.13-3.68-2.13-3.68,5.02-4.07-2.26-4.07c0,0,1.72-6.12-6.58-1.23,0,0,1.1-6.34-5.08,0,0,0-8.39.07-6.4,2.84,0,0-5.28,1.72-1.98,3.56,0,0-4.02,3.64-1.09,5.12,0,0-3.8,5.23,1.75,4.58,0,0-1.98,4.83.46,3.84s2.62-7.2,2.62-7.2Z" fill="#263238"/>
      <path id="Trazado_614108" data-name="Trazado 614108" d="M134.16,104.85a6.016,6.016,0,0,0,1.68,4.05c1.39,1.41,2.98.35,3.34-1.51.32-1.69-.02-4.44-1.77-5.15s-3.26.74-3.24,2.61Z" fill="#b55b52"/>
      <path id="Trazado_614109" data-name="Trazado 614109" d="M144.95,164.41c.3-2.04.62-3.96.97-5.79l-3.19-.64-17.69-10.43-6.34-14.66-2.64-5.68-2.48,1.32s-.03,29.34,12.38,34.68C131.18,165.45,137.8,164.75,144.95,164.41Z" opacity="0.3"/>
      <path id="Trazado_614110" data-name="Trazado 614110" d="M124.66,134.48s3.63,18.11,14.95,20.15,13.04,2,13.04,2l9.17-2.99a1.369,1.369,0,0,1,1.51.46l2.32,2.97a1.376,1.376,0,0,1-1,2.22l-3.92.25a9.985,9.985,0,0,1-7.71,2.07s-18.35,2.01-24.74-1.67-11.46-18.72-11.46-18.72l7.85-6.75Z" fill="#b55b52"/>
      <path id="Trazado_614111" data-name="Trazado 614111" d="M116.55,146.23s-6.42-20.56-.36-23.83,10.05,11.16,11.54,16.61Z" fill="#263238"/>
      <path id="Trazado_614112" data-name="Trazado 614112" d="M176.88,159.6l-22.14,1.05v3.15h36.4v-4.2Z" fill="#4f6736"/>
      <path id="Trazado_614113" data-name="Trazado 614113" d="M176.88,163.8H154.73v-3.15l22.15-1.05Z" fill="#f0f0f0" opacity="0.3"/>
      <path id="Trazado_614114" data-name="Trazado 614114" d="M191.14,159.6H176.88v4.2h14.26Z" fill="#f0f0f0" opacity="0.6"/>
      <path id="Trazado_614115" data-name="Trazado 614115" d="M225.56,152.97H178.78l4.72-38.46h46.78Z" fill="#4f6736"/>
      <path id="Trazado_614116" data-name="Trazado 614116" d="M225.56,152.97H178.78l4.72-38.46h46.78Z" fill="#f0f0f0" opacity="0.3"/>
      <path id="Trazado_614117" data-name="Trazado 614117" d="M186.2,114.51l-4.73,38.46h44.09l4.72-38.46Z" fill="#4f6736"/>
      <path id="Trazado_614118" data-name="Trazado 614118" d="M186.2,114.51l-4.73,38.46h44.09l4.72-38.46Z" fill="#f0f0f0" opacity="0.6"/>
      <path id="Trazado_614119" data-name="Trazado 614119" d="M210.33,163.68h-9.95l-1-15.87h8.06Z" fill="#4f6736"/>
      <path id="Trazado_614120" data-name="Trazado 614120" d="M210.33,163.68h-9.95l-1-15.87h8.06Z" fill="#f0f0f0" opacity="0.3"/>
      <path id="Trazado_614121" data-name="Trazado 614121" d="M212.11,163.68h-9.95l-1.01-15.87h8.06Z" fill="#4f6736"/>
      <path id="Trazado_614122" data-name="Trazado 614122" d="M212.11,163.68h-9.95l-1.01-15.87h8.06Z" fill="#f0f0f0" opacity="0.5"/>
      <path id="Trazado_614123" data-name="Trazado 614123" d="M205.21,160.92H189.85v2.88h29.11v-2.88Z" fill="#4f6736"/>
      <path id="Trazado_614124" data-name="Trazado 614124" d="M205.21,160.92H189.85v2.88h29.11v-2.88Z" fill="#f0f0f0" opacity="0.3"/>
      <path id="Trazado_614125" data-name="Trazado 614125" d="M218.96,160.92H203.6v2.88h15.36Z" fill="#4f6736"/>
      <path id="Trazado_614126" data-name="Trazado 614126" d="M218.96,160.92H203.6v2.88h15.36Z" fill="#f0f0f0" opacity="0.6"/>
      <path id="Trazado_614127" data-name="Trazado 614127" d="M145.7,168.28v6.87h72.71a17.2,17.2,0,0,0,13.76-6.87Z" fill="#263238"/>
      <path id="Trazado_614128" data-name="Trazado 614128" d="M145.7,168.28v6.87h72.71a17.2,17.2,0,0,0,13.76-6.87Z" fill="#f0f0f0" opacity="0.3"/>
      <path id="Trazado_614129" data-name="Trazado 614129" d="M234.61,163.8H141.37v4.48h90.8A17.212,17.212,0,0,0,234.61,163.8Z" fill="#263238"/>
      <path id="Trazado_614130" data-name="Trazado 614130" d="M234.61,163.8H141.37v4.48h90.8A17.212,17.212,0,0,0,234.61,163.8Z" fill="#f0f0f0" opacity="0.5"/>
      <path id="Trazado_614131" data-name="Trazado 614131" d="M218.42,42.82H113.33A21.5,21.5,0,0,0,91.85,64.3v93.61a21.5,21.5,0,0,0,21.48,21.48H218.42a21.5,21.5,0,0,0,21.48-21.48V64.29a21.5,21.5,0,0,0-21.48-21.48Zm17.25,115.09a17.246,17.246,0,0,1-17.25,17.25H113.33a17.246,17.246,0,0,1-17.25-17.25V64.29a17.246,17.246,0,0,1,17.25-17.25H218.42a17.246,17.246,0,0,1,17.25,17.25v93.62Z" fill="#4f6736"/>
      <path id="Trazado_614132" data-name="Trazado 614132" d="M218.42,42.82H113.33A21.5,21.5,0,0,0,91.85,64.3v93.61a21.5,21.5,0,0,0,21.48,21.48H218.42a21.5,21.5,0,0,0,21.48-21.48V64.29a21.5,21.5,0,0,0-21.48-21.48Zm17.25,115.09a17.246,17.246,0,0,1-17.25,17.25H113.33a17.246,17.246,0,0,1-17.25-17.25V64.29a17.246,17.246,0,0,1,17.25-17.25H218.42a17.246,17.246,0,0,1,17.25,17.25v93.62Z" fill="#f0f0f0" opacity="0.4"/>
      <path id="Trazado_614133" data-name="Trazado 614133" d="M269.8,93.457a27.49,27.49,0,1,0-38.877,0A27.491,27.491,0,0,0,269.8,93.457Z" fill="#4f6736"/>
      <path id="Trazado_614134" data-name="Trazado 614134" d="M269.8,93.457a27.49,27.49,0,1,0-38.877,0A27.491,27.491,0,0,0,269.8,93.457Z" opacity="0.3"/>
      <path id="Trazado_614135" data-name="Trazado 614135" d="M277.107,78.424a27.49,27.49,0,1,0-33.07,20.44A27.491,27.491,0,0,0,277.107,78.424Z" fill="#4f6736"/>
      <path id="Trazado_614136" data-name="Trazado 614136" d="M273.019,77.459A23.29,23.29,0,1,0,245,94.776,23.289,23.289,0,0,0,273.019,77.459Z" fill="#f0f0f0" opacity="0.9"/>
      <path id="Trazado_614137" data-name="Trazado 614137" d="M249.41,55.72c0,5.16-.17,10.34,0,15.5.06,1.65.82,2.11,2.02,3.3l5.45,5.45a.955.955,0,0,0,1.35-1.35l-5.07-5.07a15.873,15.873,0,0,1-2.09-2.09c.64.97.25-.13.25-.95V55.71a.951.951,0,0,0-1.9,0Z" fill="#263238"/>
      <path id="Trazado_614138" data-name="Trazado 614138" d="M293.93,353.78a2.474,2.474,0,0,1-2.46-2.23l-.78-8.24V274.9h6.49v68.41l-.78,8.24a2.459,2.459,0,0,1-2.46,2.23Z" fill="#263238"/>
      <path id="Trazado_614139" data-name="Trazado 614139" d="M293.93,353.78a2.474,2.474,0,0,1-2.46-2.23l-.78-8.24V274.9h6.49v68.41l-.78,8.24a2.459,2.459,0,0,1-2.46,2.23Z" fill="#f0f0f0" opacity="0.3"/>
      <path id="Trazado_614140" data-name="Trazado 614140" d="M297.17,282.61h-6.49v7.97h6.49Z" opacity="0.1"/>
      <path id="Trazado_614141" data-name="Trazado 614141" d="M299.47,344.45v-2.57a1.82,1.82,0,0,0-1.82-1.82H290.2a1.82,1.82,0,0,0-1.82,1.82v2.57l-18.31,5.03a5.119,5.119,0,0,0-3.76,4.94h55.23a5.137,5.137,0,0,0-3.76-4.94Z" fill="#263238"/>
      <path id="Trazado_614142" data-name="Trazado 614142" d="M299.47,344.45v-2.57a1.82,1.82,0,0,0-1.82-1.82H290.2a1.82,1.82,0,0,0-1.82,1.82v2.57l-18.31,5.03a5.119,5.119,0,0,0-3.76,4.94h55.23a5.137,5.137,0,0,0-3.76-4.94Z" fill="#f0f0f0" opacity="0.2"/>
      <path id="Trazado_614143" data-name="Trazado 614143" d="M299.47,344.38v-2.5a1.154,1.154,0,0,0-.03-.26H288.41a2.06,2.06,0,0,0-.03.26v2.5h11.09Z" opacity="0.1"/>
      <path id="Trazado_614144" data-name="Trazado 614144" d="M323.32,208.08c-12.2.43-22.75,10.79-24.02,22.95l-4.55,43.32a6.323,6.323,0,0,0,6.4,7.16h36.8a8.147,8.147,0,0,0,7.91-7.16l4.61-43.86c1.33-12.66-8.08-22.87-20.89-22.42h-6.25Z" fill="#263238"/>
      <path id="Trazado_614145" data-name="Trazado 614145" d="M323.32,208.08c-12.2.43-22.75,10.79-24.02,22.95l-4.55,43.32a6.323,6.323,0,0,0,6.4,7.16h36.8a8.147,8.147,0,0,0,7.91-7.16l4.61-43.86c1.33-12.66-8.08-22.87-20.89-22.42h-6.25Z" fill="#f0f0f0" opacity="0.2"/>
      <path id="Trazado_614146" data-name="Trazado 614146" d="M344.21,230.49c1.33-12.66-8.08-22.87-20.89-22.42-12.2.43-22.75,10.79-24.02,22.95l-4.55,43.32a6.323,6.323,0,0,0,6.4,7.16H331.7a8.147,8.147,0,0,0,7.91-7.16l4.61-43.86Z" fill="#263238"/>
      <path id="Trazado_614147" data-name="Trazado 614147" d="M242.69,274.54a93.48,93.48,0,0,1,22.44-3.35c7.79-.21,36.96-.03,43.88-.03a93.652,93.652,0,0,1,25.04,3.39c5.14,1.42,3.56,9.47-1.09,9.56-.41,0-88.57-.02-88.9,0-4.86.24-6.63-8.1-1.38-9.56Z" fill="#263238"/>
      <path id="Trazado_614148" data-name="Trazado 614148" d="M331.66,283.93a84.992,84.992,0,0,0-45.31,0c-5.6,1.55-7.99-7.84-2.39-9.39a94.173,94.173,0,0,1,50.08,0c5.6,1.55,3.22,10.94-2.39,9.39Z" fill="#263238"/>
      <g id="Grupo_1016091" data-name="Grupo 1016091" opacity="0.2">
        <path id="Trazado_614149" data-name="Trazado 614149" d="M331.66,283.93a84.992,84.992,0,0,0-45.31,0c-5.6,1.55-7.99-7.84-2.39-9.39a94.173,94.173,0,0,1,50.08,0c5.6,1.55,3.22,10.94-2.39,9.39Z" fill="#f0f0f0"/>
      </g>
      <path id="Trazado_614150" data-name="Trazado 614150" d="M231.58,306.49l-6.24,18.21-5.24-1.5,4.24-19.21Z" fill="#b97964"/>
      <path id="Trazado_614151" data-name="Trazado 614151" d="M220.2,321.8l6.44,1.94a.614.614,0,0,1,.46.62l-.24,6.4a1.029,1.029,0,0,1-1.06,1,.833.833,0,0,1-.22-.03c-2.67-.75-5.02-1.52-8.36-2.38-3.94-1.03-3.06-.3-7.71-1.44-2.8-.69-2.48-4-1.26-3.85,5.59.73,7.58-.76,10.18-2.15a2.487,2.487,0,0,1,1.76-.12Z" fill="#263238"/>
      <path id="Trazado_614152" data-name="Trazado 614152" d="M228.18,316.42l-6.23-1.6,2.39-10.83,7.24,2.5Z" opacity="0.1"/>
      <path id="Trazado_614153" data-name="Trazado 614153" d="M232.7,311.35l-1.75,3.37-9.97-3.37v-3.86Z" fill="#4f6736"/>
      <path id="Trazado_614154" data-name="Trazado 614154" d="M232.7,311.35l-1.75,3.37-9.97-3.37v-3.86Z" fill="#f0f0f0" opacity="0.3"/>
      <path id="Trazado_614155" data-name="Trazado 614155" d="M271.74,328.81l2.08,16.12-5.86.15-4.24-15.55Z" fill="#b97964"/>
      <path id="Trazado_614156" data-name="Trazado 614156" d="M267.88,344.19l6.69.02a.61.61,0,0,1,.6.49l1.37,6.26a1.022,1.022,0,0,1-.78,1.23,1.463,1.463,0,0,1-.22.03c-2.77-.06-5.24-.21-8.69-.22-4.07,0-3.04.48-7.83.54-2.88.03-3.4-3.25-2.18-3.41,5.6-.69,7.18-2.38,9.35-4.38a2.477,2.477,0,0,1,1.67-.55Z" fill="#263238"/>
      <path id="Trazado_614157" data-name="Trazado 614157" d="M266.18,338.55l-2.46-9.02,8.02-.72,1.2,9.32Z" opacity="0.1"/>
      <path id="Trazado_614158" data-name="Trazado 614158" d="M291.93,232.06h-9.47a52.716,52.716,0,0,0-2.99,13.19c-.5,6.73,12.46,1.75,12.46,1.75l1.13-9.23-1.13-5.7Z" fill="#4f6736"/>
      <path id="Trazado_614159" data-name="Trazado 614159" d="M291.93,232.06h-9.47a52.716,52.716,0,0,0-2.99,13.19c-.5,6.73,12.46,1.75,12.46,1.75l1.13-9.23-1.13-5.7Z" opacity="0.1"/>
      <path id="Trazado_614160" data-name="Trazado 614160" d="M286.43,232.06c2.63,13.81-2.43,13.11-2.43,13.11l2.87,2,5.21-1.28,1-8.12-1.13-5.7h-5.5Z" opacity="0.1"/>
      <path id="Trazado_614161" data-name="Trazado 614161" d="M310.82,231.2s9.65,16.13,7.98,29.6-14.12,20.59-62.01-2.35c0,0-9.82,10.17-26.12,53.74l-8.31-2.49s9.4-50.36,17.79-64.69c8.48-14.47,45.73,2.49,48.56-.33,2.52-2.52.33-12.47.33-12.47l21.78-1Z" fill="#4f6736"/>
      <path id="Trazado_614162" data-name="Trazado 614162" d="M251.32,262.97l-2.62-2.03s-9.23,5-4.64,19.23a169.206,169.206,0,0,1,8.15-15.24Z" opacity="0.2"/>
      <path id="Trazado_614163" data-name="Trazado 614163" d="M291.32,271.69c-8.7-2.08-19.97-6.27-34.54-13.25,0,0-11.24.15-11.99,8.51s18.96,66.14,18.96,66.14l9.1-.79s-5.36-57.62-6.61-60.61h25.08Z" fill="#4f6736"/>
      <path id="Trazado_614164" data-name="Trazado 614164" d="M291.32,271.69c-8.7-2.08-19.97-6.27-34.54-13.25,0,0-11.24.15-11.99,8.51s18.96,66.14,18.96,66.14l9.1-.79s-5.36-57.62-6.61-60.61h25.08Z" opacity="0.1"/>
      <path id="Trazado_614165" data-name="Trazado 614165" d="M256.78,258.45a19.486,19.486,0,0,0-3.85.55,80.978,80.978,0,0,0,20.31,12.69h18.08c-8.7-2.08-19.97-6.27-34.54-13.25Z" opacity="0.1"/>
      <path id="Trazado_614166" data-name="Trazado 614166" d="M273.95,330.81l.25,3.74-10.6.83-1.51-3.56Z" fill="#4f6736"/>
      <path id="Trazado_614167" data-name="Trazado 614167" d="M273.95,330.81l.25,3.74-10.6.83-1.51-3.56Z" fill="#f0f0f0" opacity="0.3"/>
      <path id="Trazado_614168" data-name="Trazado 614168" d="M269.21,215.09l-10.7,6.01-7.16-.35a1.792,1.792,0,0,0-1.6.83l-2.05,3.2a1.78,1.78,0,0,0-.2,1.49l.05.16a1.8,1.8,0,0,0,2.14,1.22l3.12-.76,6.21-1.19,15.19-6.63-5-3.99Z" fill="#b97964"/>
      <path id="Trazado_614169" data-name="Trazado 614169" d="M267.11,215.42a7.284,7.284,0,0,1,4.68,5.67s7.8-2.71,9.16-7.07,4.99-25.89-.89-25.92S277.38,213.86,267.11,215.42Z" fill="#263238"/>
      <path id="Trazado_614170" data-name="Trazado 614170" d="M267.11,215.42a7.284,7.284,0,0,1,4.68,5.67s7.8-2.71,9.16-7.07,4.99-25.89-.89-25.92S277.38,213.86,267.11,215.42Z" fill="#f0f0f0" opacity="0.6"/>
      <path id="Trazado_614171" data-name="Trazado 614171" d="M265.12,215.76a20.236,20.236,0,0,1,4.56,6.83l4.12-2.03s-1.66-4.69-5.02-6.58l-3.66,1.79Z" fill="#263238"/>
      <path id="Trazado_614172" data-name="Trazado 614172" d="M265.12,215.76a20.236,20.236,0,0,1,4.56,6.83l4.12-2.03s-1.66-4.69-5.02-6.58l-3.66,1.79Z" fill="#f0f0f0" opacity="0.7"/>
      <path id="Trazado_614173" data-name="Trazado 614173" d="M281.68,233.09a148.7,148.7,0,0,0,30.47-.9,60.762,60.762,0,0,1-.96-25.49c2.49-13.98,15.63-22.26-17.01-21.69-4.72.08-18.72-.55-17.12,9.42C278.77,205.08,281.68,233.09,281.68,233.09Z" fill="#263238"/>
      <path id="Trazado_614174" data-name="Trazado 614174" d="M281.68,233.09a148.7,148.7,0,0,0,30.47-.9,60.762,60.762,0,0,1-.96-25.49c2.49-13.98,15.63-22.26-17.01-21.69-4.72.08-18.72-.55-17.12,9.42C278.77,205.08,281.68,233.09,281.68,233.09Z" fill="#f0f0f0" opacity="0.5"/>
      <path id="Trazado_614175" data-name="Trazado 614175" d="M301.13,216.75l-15.23,4.5-6.51-1.14a1.85,1.85,0,0,0-1.8.72l-2.19,2.96a1.827,1.827,0,0,0-.31,1.52l.02.1a1.847,1.847,0,0,0,2.11,1.4l3.12-.53,6.27-.76,19.24-4.43-4.71-4.33Z" fill="#b97964"/>
      <path id="Trazado_614176" data-name="Trazado 614176" d="M298.88,216.5a7.388,7.388,0,0,1,4.34,6.02s8.03-1.77,9.69-6.02,6.89-28.04,1.04-28.48-4.71,27.63-15.06,28.48Z" fill="#263238"/>
      <path id="Trazado_614177" data-name="Trazado 614177" d="M298.88,216.5a7.388,7.388,0,0,1,4.34,6.02s8.03-1.77,9.69-6.02,6.89-28.04,1.04-28.48-4.71,27.63-15.06,28.48Z" fill="#f0f0f0" opacity="0.6"/>
      <path id="Trazado_614178" data-name="Trazado 614178" d="M296.61,216.89a18.765,18.765,0,0,1,4.52,6.82l4.21-1.2s-1.72-5.05-4.94-7.17l-3.78,1.54Z" fill="#263238"/>
      <path id="Trazado_614179" data-name="Trazado 614179" d="M296.61,216.89a18.765,18.765,0,0,1,4.52,6.82l4.21-1.2s-1.72-5.05-4.94-7.17l-3.78,1.54Z" fill="#f0f0f0" opacity="0.7"/>
      <path id="Trazado_614180" data-name="Trazado 614180" d="M300.45,155.88s-4.56-9.11,2.43-7.92,2.85,19.32,9.28,21.8c0,0-7.44,1.85-11.72-13.88Z" fill="#263238"/>
      <path id="Trazado_614181" data-name="Trazado 614181" d="M299.14,152.05a17.15,17.15,0,0,0,1.31,3.83,30.713,30.713,0,0,0,4,9.35c1.05-3.32,1.47-8.72-1.63-11.83C301.62,152.2,300.38,152.53,299.14,152.05Z" opacity="0.6"/>
      <path id="Trazado_614182" data-name="Trazado 614182" d="M298.01,153.95s2.29-2.58,4.25.73-1.28,4.1-1.28,4.1L298,153.95Z" fill="#4f6736"/>
      <path id="Trazado_614183" data-name="Trazado 614183" d="M299.64,171.24s1.03,3.74,3.7,1.17S301.18,172.53,299.64,171.24Z" fill="#263238"/>
      <path id="Trazado_614184" data-name="Trazado 614184" d="M294.17,184.69s-6.53-2.25-9.32,3.3l2.58,1.02-1.42,1.74,5.33,3.87,9.1-3.12-.5-1.29,4.38-1.19s1.14-6.39-10.16-4.32Z" fill="#263238"/>
      <path id="Trazado_614185" data-name="Trazado 614185" d="M294.17,184.69s-6.53-2.25-9.32,3.3l2.58,1.02-1.42,1.74,5.33,3.87,9.1-3.12-.5-1.29,4.38-1.19s1.14-6.39-10.16-4.32Z" fill="#f0f0f0" opacity="0.7"/>
      <path id="Trazado_614186" data-name="Trazado 614186" d="M294.36,185.2s-10.89-2.39-3.24,8.46C291.12,193.66,312.89,184.98,294.36,185.2Z" fill="#b97964"/>
      <path id="Trazado_614187" data-name="Trazado 614187" d="M298.69,172.7l-7.4,7.28c.66,3.17-.26,4.81-1.28,5.65v2.36a10.813,10.813,0,0,0,3.85.34,33.119,33.119,0,0,0,7.12-.86c-3.23-2.58-2.77-10.45-2.29-14.78Z" fill="#b97964"/>
      <path id="Trazado_614188" data-name="Trazado 614188" d="M291.35,183.35a7.886,7.886,0,0,0-.07-3.37l6.61-6.49.65.75S297.21,182.51,291.35,183.35Z" opacity="0.1"/>
      <path id="Trazado_614189" data-name="Trazado 614189" d="M299.3,163.07c.54,7.13.93,10.14-2.14,14.26-4.62,6.2-13.49,5.31-16.16-1.51-2.4-6.14-2.88-16.77,3.64-20.54a9.749,9.749,0,0,1,14.65,7.79Z" fill="#b97964"/>
      <path id="Trazado_614190" data-name="Trazado 614190" d="M284.75,170.28a15.651,15.651,0,0,1-1.54,3.96,2.455,2.455,0,0,0,2.1.11Z" fill="#a24e3f"/>
      <path id="Trazado_614191" data-name="Trazado 614191" d="M290.15,165.42a.8.8,0,0,0,.12-.08.284.284,0,0,0-.03-.4,3.313,3.313,0,0,0-2.97-.74.3.3,0,0,0-.19.36.287.287,0,0,0,.35.19,2.8,2.8,0,0,1,2.45.63.3.3,0,0,0,.27.05Z" fill="#2e353a"/>
      <path id="Trazado_614192" data-name="Trazado 614192" d="M279.61,166.4a.8.8,0,0,0,.12-.08,2.749,2.749,0,0,1,2.32-.97.29.29,0,0,0,.33-.23.3.3,0,0,0-.24-.33,3.347,3.347,0,0,0-2.83,1.16.293.293,0,0,0,0,.4.279.279,0,0,0,.3.06Z" fill="#2e353a"/>
      <path id="Trazado_614193" data-name="Trazado 614193" d="M288.69,168.77c.08.57-.16,1.08-.54,1.14s-.74-.37-.82-.95.16-1.08.53-1.13.74.37.83.95Z" fill="#2e353a"/>
      <path id="Trazado_614194" data-name="Trazado 614194" d="M282.18,169.67c.08.57-.16,1.08-.53,1.13s-.74-.37-.83-.95.16-1.08.53-1.13S282.1,169.09,282.18,169.67Z" fill="#2e353a"/>
      <path id="Trazado_614195" data-name="Trazado 614195" d="M281.52,168.73l-1.44-.2S280.94,169.51,281.52,168.73Z" fill="#2e353a"/>
      <path id="Trazado_614196" data-name="Trazado 614196" d="M288.03,167.83l-1.44-.2S287.45,168.61,288.03,167.83Z" fill="#2e353a"/>
      <path id="Trazado_614197" data-name="Trazado 614197" d="M289.14,174.61a3.6,3.6,0,0,0,.29-.63.136.136,0,0,0-.07-.18.146.146,0,0,0-.18.09,3.76,3.76,0,0,1-2.45,2.34.143.143,0,1,0,.06.28,3.831,3.831,0,0,0,2.35-1.89Z" fill="#263238"/>
      <path id="Trazado_614198" data-name="Trazado 614198" d="M299.64,171.24s-3.9-2.12-4.15-8.01-9.19-7.08-14.69-3.63c0,0-1.58-5.19,4.18-5.65,0,0,8.42-6.16,15.32.73C306.38,160.76,299.64,171.24,299.64,171.24Z" fill="#263238"/>
      <path id="Trazado_614199" data-name="Trazado 614199" d="M301.75,168.43a5.227,5.227,0,0,1-2.07,3.41c-1.49,1.07-2.86-.11-2.97-1.84-.1-1.55.55-3.99,2.3-4.38a2.364,2.364,0,0,1,2.76,1.88,2.641,2.641,0,0,1,0,.93Z" fill="#b97964"/>
      <path id="Trazado_614200" data-name="Trazado 614200" d="M281.28,158.69s-1.75,3.92-3.22,0S279.82,159.57,281.28,158.69Z" fill="#263238"/>
      <path id="Trazado_614201" data-name="Trazado 614201" d="M285.78,226.06H234.69a1.5,1.5,0,0,0,0,3h51.09a1.5,1.5,0,0,0,0-3Z" fill="#4f6736"/>
      <path id="Trazado_614202" data-name="Trazado 614202" d="M285.78,226.06H234.69a1.5,1.5,0,0,0,0,3h51.09a1.5,1.5,0,0,0,0-3Z" fill="#f0f0f0" opacity="0.3"/>
      <path id="Trazado_614203" data-name="Trazado 614203" d="M256.71,229.06a1.5,1.5,0,0,1,0-3h29.07a1.5,1.5,0,0,1,0,3Z" fill="#f0f0f0" opacity="0.2"/>
      <path id="Trazado_614204" data-name="Trazado 614204" d="M235.51,228.14H254.3a.712.712,0,0,0,.67-.95l-10.3-29.43a2.017,2.017,0,0,0-1.91-1.35H223.97a.712.712,0,0,0-.67.95l10.3,29.43A2.017,2.017,0,0,0,235.51,228.14Z" fill="#4f6736"/>
      <path id="Trazado_614205" data-name="Trazado 614205" d="M234.6,228.14h18.79a.712.712,0,0,0,.67-.95l-10.3-29.43a2.017,2.017,0,0,0-1.91-1.35H223.06a.712.712,0,0,0-.67.95l10.3,29.43A2.017,2.017,0,0,0,234.6,228.14Z" fill="#4f6736"/>
      <path id="Trazado_614206" data-name="Trazado 614206" d="M234.6,228.14h18.79a.712.712,0,0,0,.67-.95l-10.3-29.43a2.017,2.017,0,0,0-1.91-1.35H223.06a.712.712,0,0,0-.67.95l10.3,29.43A2.017,2.017,0,0,0,234.6,228.14Z" fill="#f0f0f0" opacity="0.5"/>
      <path id="Trazado_614207" data-name="Trazado 614207" d="M236.7,212.28c.24,1.13,1.02,2.04,1.74,2.04s1.11-.91.87-2.04-1.02-2.04-1.74-2.04S236.46,211.15,236.7,212.28Z" fill="#f0f0f0"/>
      <path id="Trazado_614208" data-name="Trazado 614208" d="M198.2,211.46s-6.42-5.95-3.05-8.52-4-6.55-1.34-8.48-1.31-6.93,1.01-7.76-.57-3.75,1.11-5.15c2.2-1.84,1.75,7.58,3.93,7.73s-2.16,5.35.56,6.01-.98,6.54,1.56,6.65.24,6.5-3.78,9.53Z" fill="#4f6736"/>
      <path id="Trazado_614209" data-name="Trazado 614209" d="M198.2,211.46s-6.42-5.95-3.05-8.52-4-6.55-1.34-8.48-1.31-6.93,1.01-7.76-.57-3.75,1.11-5.15c2.2-1.84,1.75,7.58,3.93,7.73s-2.16,5.35.56,6.01-.98,6.54,1.56,6.65.24,6.5-3.78,9.53Z" fill="#f0f0f0" opacity="0.5"/>
      <g id="Grupo_1016092" data-name="Grupo 1016092" opacity="0.2">
        <path id="Trazado_614210" data-name="Trazado 614210" d="M196.06,183.95q.975,5.85,1.61,11.75c.53,4.82,1.64,10.91.12,15.65-.16.51.64.73.8.22,1.56-4.87.45-10.91-.09-15.87-.44-4-.98-8-1.64-11.97C196.77,183.21,195.98,183.43,196.06,183.95Z"/>
      </g>
      <path id="Trazado_614211" data-name="Trazado 614211" d="M196.06,210.43s-6.62-3.19-4.55-6.09-4.83-4.27-3.17-6.48-2.76-5.24-1.1-6.48-1.88-4.22-.38-4.41c2.41-.3,3.27,5.65,5.07,5.24s-.41,4.83,1.93,4.69.83,5.5,2.9,4.95,1.79,5.16-.69,8.58Z" fill="#4f6736"/>
      <g id="Grupo_1016093" data-name="Grupo 1016093" opacity="0.2">
        <path id="Trazado_614212" data-name="Trazado 614212" d="M188.24,189.78c3.17,6.5,6.38,13.56,7.43,20.76.08.52.87.3.8-.22-1.05-7.27-4.31-14.4-7.51-20.96-.23-.48-.95-.06-.71.42Z"/>
      </g>
      <path id="Trazado_614213" data-name="Trazado 614213" d="M201.62,210.43s6.62-3.19,4.55-6.09,4.83-4.27,3.17-6.48,2.76-5.24,1.1-6.48,1.38-2.36.38-4.41c-1.07-2.18-3.27,5.65-5.07,5.24s.41,4.83-1.93,4.69-.83,5.5-2.9,4.95-1.79,5.16.69,8.58Z" fill="#4f6736"/>
      <path id="Trazado_614214" data-name="Trazado 614214" d="M201.62,210.43s6.62-3.19,4.55-6.09,4.83-4.27,3.17-6.48,2.76-5.24,1.1-6.48,1.38-2.36.38-4.41c-1.07-2.18-3.27,5.65-5.07,5.24s.41,4.83-1.93,4.69-.83,5.5-2.9,4.95-1.79,5.16.69,8.58Z" fill="#f0f0f0" opacity="0.2"/>
      <g id="Grupo_1016094" data-name="Grupo 1016094" opacity="0.2">
        <path id="Trazado_614215" data-name="Trazado 614215" d="M209.38,189.78c-3.17,6.5-6.38,13.56-7.43,20.76-.08.52-.87.3-.8-.22,1.05-7.27,4.31-14.4,7.51-20.96.23-.48.95-.06.71.42Z"/>
      </g>
      <path id="Trazado_614216" data-name="Trazado 614216" d="M205.12,229.23H193.35l-2.21-19.81h16.18Z" fill="#4f6736"/>
      <path id="Trazado_614217" data-name="Trazado 614217" d="M205.12,229.23H193.35l-2.21-19.81h16.18Z" fill="#f0f0f0" opacity="0.3"/>
      <path id="Trazado_614218" data-name="Trazado 614218" d="M235.08,353.78a2.474,2.474,0,0,1-2.46-2.23l-.79-8.24V230.38h6.49V343.31l-.78,8.24A2.459,2.459,0,0,1,235.08,353.78Z" fill="#263238"/>
      <path id="Trazado_614219" data-name="Trazado 614219" d="M235.08,353.78a2.474,2.474,0,0,1-2.46-2.23l-.79-8.24V230.38h6.49V343.31l-.78,8.24A2.459,2.459,0,0,1,235.08,353.78Z" fill="#f0f0f0" opacity="0.3"/>
      <path id="Trazado_614220" data-name="Trazado 614220" d="M238.33,231.47h-6.49v7.97h6.49Z" opacity="0.1"/>
      <path id="Trazado_614221" data-name="Trazado 614221" d="M240.62,344.45v-2.57a1.82,1.82,0,0,0-1.82-1.82h-7.45a1.82,1.82,0,0,0-1.82,1.82v2.57l-18.31,5.03a5.119,5.119,0,0,0-3.76,4.94h55.23a5.137,5.137,0,0,0-3.76-4.94Z" fill="#4f6736"/>
      <path id="Trazado_614222" data-name="Trazado 614222" d="M240.62,344.38v-2.5a1.153,1.153,0,0,0-.03-.26H229.56a2.063,2.063,0,0,0-.03.26v2.5h11.09Z" opacity="0.1"/>
      <path id="Trazado_614223" data-name="Trazado 614223" d="M240.62,344.45v-2.57a1.82,1.82,0,0,0-1.82-1.82h-7.45a1.82,1.82,0,0,0-1.82,1.82v2.57l-18.31,5.03a5.119,5.119,0,0,0-3.76,4.94h55.23a5.137,5.137,0,0,0-3.76-4.94Z" opacity="0.2"/>
      <path id="Trazado_614224" data-name="Trazado 614224" d="M305.37,232.85H164.78v3.79H305.37Z" fill="#263238"/>
      <path id="Trazado_614225" data-name="Trazado 614225" d="M305.37,232.85H164.78v3.79H305.37Z" fill="#f0f0f0" opacity="0.3"/>
      <path id="Trazado_614226" data-name="Trazado 614226" d="M305.37,232.85h-70.1v3.79h70.1Z" opacity="0.2"/>
      <path id="Trazado_614227" data-name="Trazado 614227" d="M313.85,229.06H156.3v3.79H313.85Z" fill="#4f6736"/>
      <path id="Trazado_614228" data-name="Trazado 614228" d="M313.85,229.06H226.79v3.79h87.06Z" opacity="0.3"/>
    </g>
  </g>
</svg>
