<svg xmlns="http://www.w3.org/2000/svg" width="451.27" height="403.396" viewBox="0 0 451.27 403.396">
  <g id="Grupo_1066761" data-name="Grupo 1066761" transform="translate(-867.961 -1248.243)">
    <g id="Group_60_" data-name="Group (60)" transform="translate(867.944 1248.242)">
      <path id="Trazado_610680" data-name="Trazado 610680" d="M137.026,312.809q-30.724.485-61.427,1.5c-24.058.8-43.3,3.36-58.778,22.9-3.435,4.34-5.643,9.961-4.685,15.4,1.486,8.465,9.8,13.86,17.726,17.166,14.2,5.934,27.828,7.086,42.937,7.377,83.106,1.561,166.222,1.831,249.339,1.518,22.518-.086,85.572,7.215,93.53-22.055,8.809-32.415-39.792-39.383-59.693-42.743-22.454-3.8-47.481-1.034-70.237-1.249-49.57-.463-99.141-.592-148.7.194Z" transform="translate(0.915 23.986)" opacity="0.08"/>
      <path id="Trazado_610681" data-name="Trazado 610681" d="M92.609,324.636a181.218,181.218,0,0,0,31.048,11.049c68.9,17.8,149.81,2.725,208.653-36.874,35.872-24.134,78.669-57.906,82.966-103.686,4.178-44.52-11.243-90.881-42.409-123.145-20.591-21.312-37.4-50.6-65.057-63.56-42.5-19.912-84.786-.129-125.31,14.3C153.9,32.9,124.841,43.313,100.277,61.169,55.079,94,25.076,154.4,26.9,210.1c.689,21.1,3.08,42.474,11.168,61.977C48.585,297.412,68.292,313.318,92.609,324.636Z" transform="translate(2.061 0)" fill="#fffdef"/>
      <path id="Trazado_610682" data-name="Trazado 610682" d="M180.67,133.983a45.877,45.877,0,0,1-3.306-4.555c-1.228-2.315,1.712-2.638,3.2-3.877a13.532,13.532,0,0,0,2.208-2.369c.3-.409,1.088-2.434,1.443-2.574a13.61,13.61,0,0,1-12.988-1.831,18.837,18.837,0,0,0,10.328-7.183,18.736,18.736,0,0,1-7.172-1.949,19.228,19.228,0,0,1-2.692-1.486c-.592-.431-1.572-1.982-2.38-1.982a14.559,14.559,0,0,0,9.294-3.457,17.325,17.325,0,0,1-7.614-4.3c-1.745-1.691-4.792-5.018-.463-4.717a14.5,14.5,0,0,0,5.557-.7,55.572,55.572,0,0,1-11.911-8.088,17.536,17.536,0,0,0,6.785-1.831,37.716,37.716,0,0,1-13.063-8.335,21.467,21.467,0,0,0,6.946-1.163,33.727,33.727,0,0,1-8.529-6.515,54.69,54.69,0,0,1-4.609-6.365c-1.012-1.422-.991-1.486-1.755-.129-.549.969-.872,2.078-1.454,3.058a18.118,18.118,0,0,1-10.758,8.2,9.127,9.127,0,0,0,7.775,1.572,17.058,17.058,0,0,1-8.368,6.225c-1.809.614-3.758.937-5.309,2.046-.2.151,3.263,1.594,3.6,1.658a7.957,7.957,0,0,0,4.222-.226A17.825,17.825,0,0,1,127,91.487a9.923,9.923,0,0,0,8.185,1.723c-2.369,4.685-7.8,6.806-12.751,8.54a10.729,10.729,0,0,0,8.368,2.186c-2.671,4.049-7.948,5.3-12.708,6.225a13.44,13.44,0,0,0,11.221,1.238,13.152,13.152,0,0,1-5.977,6.138,38.892,38.892,0,0,1-8.174,2.994c.366-.108,2.725,1.5,3.263,1.691a15.4,15.4,0,0,0,4.243.915c2.423.172,4.426-.808,6.666-1.648.388,0,.312.614.086.926-1.551,2.2-3.8,3.748-5.546,5.783-2.2,2.563-4.372,5.137-6.558,7.7-4.017,4.717-8.045,9.434-12.385,13.86,3.985,4.76,8.421,5.751,10.252,13.321.8,3.285,1.389,7.323,2.068,11.275h55.493q-1.26-3.505-2.509-7.011l15.475-3a40.875,40.875,0,0,0,6.838-1.68c.958-.366,1.938-.442,2.908-.808.4-.151,2.9-2.434,3.058-2.186-5.912-8.691-11.878-17.145-17.823-25.706Z" transform="translate(8.07 4.584)" fill="#f2fde8"/>
      <path id="Trazado_610683" data-name="Trazado 610683" d="M160.582,149.107c4.975-.517,10.317-.732,15.163-1.96-6.58-3.511-13.688-6.494-17.791-13.128a8.636,8.636,0,0,0,8.561-3.091,45.39,45.39,0,0,1-23.951-12.255,27.644,27.644,0,0,0,11.469-4.114c-5.32-1.077-12.223-2.886-16.617-6.322,3.672-1.238,7.312-2.552,10.909-3.985a1.922,1.922,0,0,0,1.131-1.583c-.011.151-7.108-1.949-7.732-2.186-1.088-.409-6.558-2.208-6.386-3.543a22.513,22.513,0,0,0,5.514-.108,39.77,39.77,0,0,0,5.632-.765,1.379,1.379,0,0,0,1.142-1.518,49.481,49.481,0,0,1-7.291-3.015,35.621,35.621,0,0,1-3.446-2.025c-.323-.215-2.585-1.465-1.874-1.971a.839.839,0,0,1,.485-.1,26.965,26.965,0,0,0,9.068-1.249,1.509,1.509,0,0,0,.323-.162,33.153,33.153,0,0,1-3.694-1.885,65.373,65.373,0,0,1-6.5-4.308,30.62,30.62,0,0,1-3.026-2.649,14.942,14.942,0,0,1-1.346-1.508,8.748,8.748,0,0,1-1.012-1.185c-.022-.172.2-.258.377-.269a13.289,13.289,0,0,0,1.852-.151c.334-.075,1.82-.8,1.809-1.238,0-.409-1.443-1.012-1.809-1.249a32.588,32.588,0,0,1-4.243-3.349,52.252,52.252,0,0,1-6.9-8.109,43.578,43.578,0,0,1-5.094-9.261c-.129-.312-.226-.635-.334-.958a2.668,2.668,0,0,0-.291-.032A65.043,65.043,0,0,1,104.54,63.611,72.922,72.922,0,0,1,95.364,72.2a45.469,45.469,0,0,1-4.631,3.209c-.915.528-1.938.926-2.886,1.432-.549,1-.183,2.434,1.3,2.369,1.249-.043,2.488-.032,3.715,0-2.66,1.917-5.482,3.618-8.335,5.288a1.632,1.632,0,0,0,.388,2.951A53.3,53.3,0,0,0,92,88.757c-.84.506-1.712.991-2.6,1.5-3.2,1.8-6.408,3.543-9.649,5.266a1.629,1.629,0,0,0,0,2.789,21.846,21.846,0,0,0,7.646,2.391,47.862,47.862,0,0,1-18.243,7.452c.991-.172,3.618,1.346,4.846,1.475,2.283.248,4.071-.463,6.246-.8,2.358-.366,6.871-.9,9.154.14-13.763,7.4-32.5,20.461-46.469,28.108,5.955,3.823,12.589,4.609,15.325,10.683a93.039,93.039,0,0,1,3.1,9.046h82.955c-1.249-1.874-2.509-3.748-3.758-5.622.872,1.3,17.834-1.852,20.041-2.089Z" transform="translate(3.302 3.837)" fill="#afc797"/>
      <path id="Trazado_610684" data-name="Trazado 610684" d="M410.779,244.526c-6.311-6.246-8.529-11.771.765-25.652,9.025-13.494,2.5-35.5-16.025-37.347-6.892-.689-14.818-4.038-13.052-12.654,1.045-5.094,4.975-9.014,8.68-12.643s7.571-7.657,8.411-12.794c1.335-8.131-4.771-11.4-8.055-17.489-3.188-5.912-2.466-12.7-.818-18.975,1.906-7.258,4.588-14.991,2.035-22.044-3.058-8.465-13.192-14.388-12.417-23.348.312-3.554,2.412-6.849,2.218-10.414-1.142-20.7-25.932-25.028-28-2.6-.678,7.3,1.26,14.56,2.542,21.786s1.863,14.98-1.292,21.6C351.947,100,343.5,104.677,337.71,111.44a38.068,38.068,0,0,0-8.841,25.06c.129,10.349,4.178,20.666,2.218,30.832-2.025,10.543-10.134,18.814-18.577,25.448s-17.78,12.5-24.091,21.183c-6.925,9.509-8.508,20.494-7.388,31.92.818,8.249,11.415,20.871,6.128,28.043a35.271,35.271,0,0,1-3.522,3.543c-4.523,4.577-6.02,11.577-4.986,17.931,4.62,28.571,45.069,33.374,67.587,39.437,18.329,4.932,40.977.366,56.57-10.446,10.328-7.161,19.126-23.617,23.864-34.924,4.286-10.231,4.943-23.046-2.208-31.532-4.975-5.9-10.015-9.768-13.677-13.4Z" transform="translate(21.408 2.584)" fill="#2f4419"/>
      <path id="Trazado_610685" data-name="Trazado 610685" d="M99.321,316.518c7.269-9.261,13.655-21.646,8.755-32.351-3.026-6.612-10.048-11.523-10.64-18.771-.571-6.957,5.051-12.794,6.946-19.514a19.147,19.147,0,0,0-3.737-17.241c-5.934-7.021-7.765-9.509-7.258-18.566.56-9.918.765-18.566,4.491-28.032a99.228,99.228,0,0,0-7.4-88.307C85.773,86.015,79.344,78.6,78.892,69.56c-.323-6.451,2.531-12.761,2.132-19.212-.151-2.52-.915-5.18-2.908-6.731-2.7-2.111-6.634-1.443-9.8-.108C57.213,48.183,51.1,59.286,48.7,70.626c-1.26,5.977-1.4,12.148-2.865,18.081C42.9,100.6,33.424,103.052,26.144,111.549a38.141,38.141,0,0,0-5.4,40.137c1.949,4.146,4.749,8.292,4.286,12.848-.571,5.471-5.557,9.218-8.691,13.741A22.583,22.583,0,0,0,13.857,198.9c5.169,13.44,4.114,15.174-5.148,25.049-6.946,7.4-9.746,15-6.451,25.254,2.649,8.206,8.077,15.174,12.578,22.529,7.355,12.029,10.877,24.511,14.431,37.972,2.552,9.692,7.592,20.4,17.78,24.037,8.077,2.886,21.861,4.146,30.444,2.2,9.24-2.1,16.348-12.438,21.818-19.406Z" transform="translate(0.066 3.251)" fill="#2f4419"/>
      <path id="Trazado_610686" data-name="Trazado 610686" d="M69.826,302.113c3.575-3.134,7.011-6.6,9.046-10.9s2.445-9.606.065-13.72c-3.672-6.332-12.977-7.614-19.4-4.114a46,46,0,0,0,6.785-18.545c.538-4-.2-9.165-4.082-10.274-3.812-1.1-7.118,2.692-9.283,6.02a23.78,23.78,0,0,0-7.151-23.66,10.742,10.742,0,0,0-6.128-2.962c-3.166-.2-6.171,1.852-7.851,4.555a20.01,20.01,0,0,0-2.488,9.1c-1.163,14.657,3.608,29.055,8.3,42.98a28.86,28.86,0,0,0-18.76-9.961c-1.712-.183-3.618-.151-4.932.958-2.315,1.949-1.357,5.7.075,8.368a42.425,42.425,0,0,0,11.017,13.128,23.854,23.854,0,0,0-20.957-2.165,7.063,7.063,0,0,0-3.134,1.992c-1.863,2.337-.711,5.912,1.3,8.12,2.24,2.455,5.288,3.963,8.271,5.428,8.045,3.941,23.574,14.9,31.392,13.429,9.445-1.788,20.881-11.62,27.914-17.78Z" transform="translate(0 17.225)" fill="#233313"/>
      <path id="Trazado_610687" data-name="Trazado 610687" d="M383.512,311.628c3.091-2.7,6.052-5.7,7.808-9.4s2.111-8.281.054-11.835c-3.166-5.46-11.189-6.569-16.735-3.554a39.691,39.691,0,0,0,5.848-16c.463-3.446-.183-7.9-3.522-8.863-3.285-.948-6.138,2.326-8.012,5.191a20.541,20.541,0,0,0-6.171-20.418,9.316,9.316,0,0,0-5.288-2.563c-2.735-.183-5.32,1.6-6.774,3.931a17.371,17.371,0,0,0-2.143,7.861c-1,12.643,3.112,25.071,7.162,37.089a24.9,24.9,0,0,0-16.186-8.594,5.632,5.632,0,0,0-4.254.818c-2,1.68-1.174,4.922.065,7.226a36.342,36.342,0,0,0,9.509,11.318,20.548,20.548,0,0,0-18.081-1.863,6.212,6.212,0,0,0-2.7,1.723c-1.615,2.014-.614,5.1,1.131,7.011,1.928,2.111,4.566,3.425,7.14,4.674,6.946,3.4,20.343,12.869,27.084,11.588,8.152-1.54,18.017-10.026,24.091-15.346Z" transform="translate(24.864 18.781)" fill="#233313"/>
      <path id="Trazado_610688" data-name="Trazado 610688" d="M70.691,269.27a31.345,31.345,0,0,0,9.843-4.48c1.712-1.163,3.328,1.615,1.626,2.778a34.1,34.1,0,0,1-10.608,4.8,1.609,1.609,0,0,1-.851-3.1Z" transform="translate(5.349 20.345)" fill="#2f8e91"/>
      <path id="Trazado_610689" data-name="Trazado 610689" d="M72.416,230.366c2.628-1.109,5.245-2.208,7.872-3.317,1.906-.8,2.735,2.3.851,3.1-2.628,1.109-5.245,2.208-7.872,3.317C71.361,234.265,70.531,231.163,72.416,230.366Z" transform="translate(5.487 17.454)" fill="#2f8e91"/>
      <path id="Trazado_610690" data-name="Trazado 610690" d="M71.21,167.486a13.955,13.955,0,0,0,7.248-6.968c.883-1.863,3.662-.237,2.778,1.626a16.631,16.631,0,0,1-8.4,8.12C70.962,171.073,69.315,168.3,71.21,167.486Z" transform="translate(5.411 12.283)" fill="#2f8e91"/>
      <path id="Trazado_610691" data-name="Trazado 610691" d="M371.374,106.82H55.353a12.5,12.5,0,0,0-12.5,12.5V331.217a12.5,12.5,0,0,0,12.5,12.5H371.374a12.5,12.5,0,0,0,12.5-12.5V119.323A12.5,12.5,0,0,0,371.374,106.82Z" transform="translate(3.295 8.216)" fill="#2f4419"/>
      <path id="Trazado_610692" data-name="Trazado 610692" d="M378.215,120.3H46.74V330.45H378.215Z" transform="translate(3.594 9.253)" fill="#e6ebf4"/>
      <path id="Trazado_610693" data-name="Trazado 610693" d="M136.234,199H52.17v66.866h84.064Z" transform="translate(4.011 15.306)" fill="#bac4b1"/>
      <path id="Trazado_610694" data-name="Trazado 610694" d="M276.175,199H219.82v84.064h56.355Z" transform="translate(16.907 15.306)" fill="#bac4b1"/>
      <path id="Trazado_610695" data-name="Trazado 610695" d="M218.655,128.18H136.82v67.846h81.835Z" transform="translate(10.522 9.859)" fill="#bac4b1"/>
      <path id="Trazado_610696" data-name="Trazado 610696" d="M221.384,201H137.32v5.428h84.064Z" transform="translate(10.561 15.46)" fill="#bac4b1"/>
      <path id="Trazado_610697" data-name="Trazado 610697" d="M221.384,224.19H137.32v5.428h84.064Z" transform="translate(10.561 17.244)" fill="#bac4b1"/>
      <path id="Trazado_610698" data-name="Trazado 610698" d="M221.384,240.98H137.32v5.428h84.064Z" transform="translate(10.561 18.535)" fill="#bac4b1"/>
      <path id="Trazado_610699" data-name="Trazado 610699" d="M355.736,199H278.36v6.106h77.376Z" transform="translate(21.409 15.306)" fill="#bac4b1"/>
      <path id="Trazado_610700" data-name="Trazado 610700" d="M355.736,213.06H278.36v6.106h77.376Z" transform="translate(21.409 16.388)" fill="#bac4b1"/>
      <path id="Trazado_610701" data-name="Trazado 610701" d="M355.736,227.13H278.36v6.106h77.376Z" transform="translate(21.409 17.47)" fill="#bac4b1"/>
      <path id="Trazado_610702" data-name="Trazado 610702" d="M355.736,241.19H278.36V247.3h77.376Z" transform="translate(21.409 18.551)" fill="#bac4b1"/>
      <path id="Trazado_610703" data-name="Trazado 610703" d="M355.736,255.25H278.36v6.106h77.376Z" transform="translate(21.409 19.633)" fill="#bac4b1"/>
      <path id="Trazado_610704" data-name="Trazado 610704" d="M355.736,269.31H278.36v6.106h77.376Z" transform="translate(21.409 20.714)" fill="#bac4b1"/>
      <path id="Trazado_610705" data-name="Trazado 610705" d="M360,129H217.36v6.106H360Z" transform="translate(16.717 9.922)" fill="#bac4b1"/>
      <path id="Trazado_610706" data-name="Trazado 610706" d="M360,143.31H217.36v6.106H360Z" transform="translate(16.717 11.023)" fill="#bac4b1"/>
      <path id="Trazado_610707" data-name="Trazado 610707" d="M360,157.61H217.36v6.106H360Z" transform="translate(16.717 12.123)" fill="#bac4b1"/>
      <path id="Trazado_610708" data-name="Trazado 610708" d="M360,171.92H217.36v6.106H360Z" transform="translate(16.717 13.223)" fill="#bac4b1"/>
      <path id="Trazado_610709" data-name="Trazado 610709" d="M360,186.22H217.36v6.106H360Z" transform="translate(16.717 14.323)" fill="#bac4b1"/>
      <path id="Trazado_610710" data-name="Trazado 610710" d="M137.921,129H52.36v6.106h85.561Z" transform="translate(4.026 9.922)" fill="#bac4b1"/>
      <path id="Trazado_610711" data-name="Trazado 610711" d="M137.921,143.31H52.36v6.106h85.561Z" transform="translate(4.026 11.023)" fill="#bac4b1"/>
      <path id="Trazado_610712" data-name="Trazado 610712" d="M137.921,157.61H52.36v6.106h85.561Z" transform="translate(4.026 12.123)" fill="#bac4b1"/>
      <path id="Trazado_610713" data-name="Trazado 610713" d="M137.921,171.92H52.36v6.106h85.561Z" transform="translate(4.026 13.223)" fill="#bac4b1"/>
      <path id="Trazado_610714" data-name="Trazado 610714" d="M137.921,186.22H52.36v6.106h85.561Z" transform="translate(4.026 14.323)" fill="#bac4b1"/>
      <path id="Trazado_610715" data-name="Trazado 610715" d="M136.234,264.64H52.17v5.428h84.064Z" transform="translate(4.011 20.355)" fill="#bac4b1"/>
      <path id="Trazado_610716" data-name="Trazado 610716" d="M136.234,278.63H52.17v5.428h84.064Z" transform="translate(4.011 21.431)" fill="#bac4b1"/>
      <path id="Trazado_610717" data-name="Trazado 610717" d="M136.234,292.63H52.17v5.428h84.064Z" transform="translate(4.011 22.508)" fill="#bac4b1"/>
      <path id="Trazado_610718" data-name="Trazado 610718" d="M136.234,306.62H52.17v5.428h84.064Z" transform="translate(4.011 23.584)" fill="#bac4b1"/>
      <path id="Trazado_610719" data-name="Trazado 610719" d="M221.384,250.45H137.32v4.006h84.064Z" transform="translate(10.561 19.264)" fill="#bac4b1"/>
      <path id="Trazado_610720" data-name="Trazado 610720" d="M221.384,262.85H137.32v4.006h84.064Z" transform="translate(10.561 20.217)" fill="#bac4b1"/>
      <path id="Trazado_610721" data-name="Trazado 610721" d="M221.384,275.26H137.32v4.006h84.064Z" transform="translate(10.561 21.172)" fill="#bac4b1"/>
      <path id="Trazado_610722" data-name="Trazado 610722" d="M355.736,283.7H278.36v5.417h77.376Z" transform="translate(21.409 21.821)" fill="#bac4b1"/>
      <path id="Trazado_610723" data-name="Trazado 610723" d="M355.736,297.76H278.36v5.417h77.376Z" transform="translate(21.409 22.903)" fill="#bac4b1"/>
      <path id="Trazado_610724" data-name="Trazado 610724" d="M221.384,288.24H137.32v4.006h84.064Z" transform="translate(10.561 22.17)" fill="#bac4b1"/>
      <path id="Trazado_610725" data-name="Trazado 610725" d="M221.384,300.65H137.32v4.006h84.064Z" transform="translate(10.561 23.125)" fill="#bac4b1"/>
      <path id="Trazado_610726" data-name="Trazado 610726" d="M275.694,288.24H221.32v4.006h54.374Z" transform="translate(17.022 22.17)" fill="#bac4b1"/>
      <path id="Trazado_610727" data-name="Trazado 610727" d="M275.694,300.65H221.32v4.006h54.374Z" transform="translate(17.022 23.125)" fill="#bac4b1"/>
      <path id="Trazado_610728" data-name="Trazado 610728" d="M276.686,358.257c.054.872-.075,2.025-1.012,2.423a2.417,2.417,0,0,1-.991.151l-2.089.032a5.473,5.473,0,0,1-1.4-.108,10.012,10.012,0,0,1-.991-.4c-1.712-.657-3.9.086-5.9.334-2.757.334-6.311-.431-8.142-2.057-1.971-1.745.571-4.189,3.08-4.222,2.348-.032,4.588.7,6.946.129a3.105,3.105,0,0,0,1.755-.98,2.686,2.686,0,0,0,.312-2.1c-.151-1.045-.3-2.078-.452-3.123a3.855,3.855,0,0,0-.6-1.357,26.417,26.417,0,0,0,5.438-.118c1.54-.1,3.048-.678,3.382.829.722,3.274.452,7.14.678,10.554Z" transform="translate(19.648 26.665)" fill="#2f4419"/>
      <path id="Trazado_610729" data-name="Trazado 610729" d="M356.013,353.909a1.418,1.418,0,0,1,.84.463,1.3,1.3,0,0,1,0,1.045,61.11,61.11,0,0,1-3.069,8.432,10.1,10.1,0,0,1-3.08,4.351,8.707,8.707,0,0,1-3.791,1.3,6.847,6.847,0,0,1-4.383-.5,3.008,3.008,0,0,1-1.422-3.791c.646-1.217,2.035-1.378,3.274-1.335.689.022,1.174.431,1.691-.054.334-.312.442-1.346.538-1.777a2.679,2.679,0,0,0-.151-2.078,2.866,2.866,0,0,0-2.175-1.012,2.037,2.037,0,0,1-1.443-.549,1.831,1.831,0,0,1-.2-1.271c.043-.485.108-.98.183-1.465.14-.872.226-2.951.883-3.586a1.844,1.844,0,0,1,1.2-.269,20.789,20.789,0,0,1,4,.5c2.38.431,4.76.948,7.1,1.572Z" transform="translate(26.216 27.061)" fill="#2f4419"/>
      <path id="Trazado_610730" data-name="Trazado 610730" d="M329.611,310.288c-1.055-2.2-4.545-3.5-6.7-4.254-7.721-2.7-15.928-3.758-24.048-4.674-3.468-.388-6.946-.754-10.425-.915-3.069-.151-6.2-.42-9.261-.334l-4,.118a13.47,13.47,0,0,0-2.865.291c-1.432.366-2.552.474-3.64,1.626a19.732,19.732,0,0,0-4.652,9.757c-.086.442-.162.883-.237,1.335-.022,6.892.022,13.785.592,20.688.538,6.515,1.217,13.02,1.9,19.525,2.789.075,5.589.151,8.378.248.926,0,1.852-.011,2.768-.022,3.3-10.468,3.866-21.668,4.211-32.684a213.326,213.326,0,0,0,29.68,4.814c7.269.6,16.229.151,18.437-8.411a15.074,15.074,0,0,0,.431-3.328,8.061,8.061,0,0,0-.592-3.78Z" transform="translate(20.288 23.082)" fill="#afc797"/>
      <path id="Trazado_610731" data-name="Trazado 610731" d="M275.146,251.057a7.013,7.013,0,0,0-1.368,5.557,10.336,10.336,0,0,0,1.055,2.832c1,1.928,2.617,3.866,4.792,4,1.2.065,2.391-.431,3.575-.226a5.7,5.7,0,0,1,2.865,1.852,45.578,45.578,0,0,1,4.857,5.815c2.348-.851,4.825-1.777,6.375-3.737a130.53,130.53,0,0,0-12.5-15.96c-2.843-3.112-6.8-3.769-9.66-.129Z" transform="translate(21.048 19.12)" fill="#ff735f"/>
      <path id="Trazado_610732" data-name="Trazado 610732" d="M295.784,266.936a5.582,5.582,0,0,0-5.632-1.874c-3.435.948-5.115,6.472-6.289,9.412a42.077,42.077,0,0,1-5,9.681,24.588,24.588,0,0,1-19.406,9.757,54.9,54.9,0,0,1,1.292,9.391,17.008,17.008,0,0,1,5.061.452c8.4,1.249,16.735-3.532,22.141-9.692,3.263-3.726,8.228-11.028,9.552-17.694.7-3.522.388-6.871-1.723-9.423Z" transform="translate(19.956 20.374)" fill="#2f4419"/>
      <path id="Trazado_610733" data-name="Trazado 610733" d="M294.046,292.12a113.6,113.6,0,0,0,12.471,16.315c.711-1.238,1.529-1.088,2.789-1.292a37.865,37.865,0,0,0,5.169-1.518c5.417-1.669,15.9-5.04,16.5-5.342.3-.151-12.406-17.015-13.645-18.48a139.883,139.883,0,0,0-9.563-10.328q-2.585-2.5-5.352-4.814a23.9,23.9,0,0,0-5.148-3.715,5.182,5.182,0,0,0-1.314-.474,5.066,5.066,0,0,0-1.454.043,13.317,13.317,0,0,0-2.434.474,8.158,8.158,0,0,0-4.8,4.728,13.654,13.654,0,0,0-.732,6.838,32.287,32.287,0,0,0,2.875,8.8,72.636,72.636,0,0,0,4.642,8.777Z" transform="translate(22.027 20.186)" fill="#3b5620"/>
      <path id="Trazado_610734" data-name="Trazado 610734" d="M350.122,354.554c-10.3-3.382-20.451-7.043-30.951-9.757.625.162,5.051-8.755,5.535-9.7,3.9-7.528,8.346-15.432,8.54-24.209a25.09,25.09,0,0,0-1.088-7.409,39.043,39.043,0,0,0-3.9-8.96c-.668-1.131-1.4-2.229-2.154-3.306-7.237,5.126-15.766,8.12-23.951,11.5.151.258.3.517.431.775a21.761,21.761,0,0,1,2.057,4.577,19.079,19.079,0,0,1-.075,6.86,89.773,89.773,0,0,1-2.628,10.78c-1.508,5.46-2.574,10.6-3.683,16.391-.926,4.868-3.338,12.514.98,16.251,4.749,4.114,10.9,4.017,16.283,4.652,8,.937,14.549,1.766,22.324,3.177,2.832.517,6.181.894,9.251,1.249,1.077-4.275,2.046-8.572,3-12.88Z" transform="translate(22.824 22.399)" fill="#afc797"/>
      <path id="Trazado_610735" data-name="Trazado 610735" d="M279.826,321.075l-68.966-58.6" transform="translate(16.217 20.189)" fill="none" stroke="#2f4419" stroke-miterlimit="10" stroke-width="5"/>
      <path id="Trazado_610736" data-name="Trazado 610736" d="M260.577,293.457c-.377.054-.754.108-1.12.172a10.733,10.733,0,0,1-1.938.248,3.159,3.159,0,0,1-1.045-.162c-1.788-.614-3.015-.948-4.34.765a5.289,5.289,0,0,0-1.109,3.985,3.809,3.809,0,0,0,1.475,2.326,6.024,6.024,0,0,0,4.922.463,8.783,8.783,0,0,0,1.206-.42,4.848,4.848,0,0,0,2.391-1.842c.3-.517.463-1.045.711-1.518-.431-1.325-.775-2.682-1.163-4.017Z" transform="translate(19.301 22.553)" fill="#db6352"/>
      <path id="Trazado_610737" data-name="Trazado 610737" d="M264.684,300.14c-.194-1.3-2.078-2.542-3.6-2.617a32.61,32.61,0,0,0-4.329.452,4.776,4.776,0,0,1-4.017-1.217c-.937-1.066-.991-2.617-1.508-3.931a5.772,5.772,0,0,0-2.294-2.768.963.963,0,0,0-.366,1.034,5.04,5.04,0,0,0,.474,1.077c1.142,2.4.237,5.212-2.574,3.091a35.322,35.322,0,0,0-5.643-3.478.853.853,0,0,0-.711-.108.73.73,0,0,0-.269.732,10.134,10.134,0,0,0,.883,2.315,18.754,18.754,0,0,1,.549,2.542,5.32,5.32,0,0,0,3.661,4.168,27.172,27.172,0,0,0,7.248,1.217c3.963.118,7.851,1.6,11.523-.8a1.754,1.754,0,0,0,.969-1.734Z" transform="translate(18.447 22.31)" fill="#ff735f"/>
      <path id="Trazado_610738" data-name="Trazado 610738" d="M301.768,272.861a10.109,10.109,0,0,0-1.637-3.263,8.466,8.466,0,0,0-3.931-3.263,4.831,4.831,0,0,0-4.857.7,6.688,6.688,0,0,0-1.648,3.446,77.04,77.04,0,0,1-5.18,13.418,15.057,15.057,0,0,1-2.746,4.469,22.127,22.127,0,0,1-5.686,3.952,27.726,27.726,0,0,1-4.62,1.9,74,74,0,0,1-16.089,2.682c.022,3.069.032,6.128-.065,9.2,9.068.129,17.543,1.6,25.964-2.38a42.287,42.287,0,0,0,16.692-14.334c3.468-4.846,5.234-10.521,3.791-16.509Z" transform="translate(19.636 20.459)" fill="#3b5620"/>
      <path id="Trazado_610739" data-name="Trazado 610739" d="M316.324,260.895a6.533,6.533,0,0,0-4.717-4.868,5.58,5.58,0,0,0-1.26-.14c-2.035-.032-4.071.808-6.1,1.3-1.023.248-2.272.345-2.994-.42-.625-.678-.614-1.777-1.249-2.445-.732-.775-1.982-.657-2.994-.355a13.386,13.386,0,0,0-2.3.926c-.7.366-1.928.84-2.617.194-.56-.528-.388-1.454-.183-2.2a3.116,3.116,0,0,0-1.389-3.554c-.722-.409-1.529-.4-2.272-.754a8.273,8.273,0,0,1-2.2-1.723c-1.012-1-2.154-2.089-3.575-2.132-1.7-.054-3.015,1.368-4.3,2.5a16.526,16.526,0,0,1-4.943,3.015c-1.131.431-2.466.9-2.822,2.057a1.689,1.689,0,0,0,.345,1.626,1.453,1.453,0,0,0,1.594.366c.732-.3,1.335-1.217,2.24-.732.635.334.9,1.389,1.314,1.949a17.1,17.1,0,0,0,2.3,2.531,8.623,8.623,0,0,0,8.529,1.745,24.472,24.472,0,0,1,2.283-.894c1.131-.3,2.078-.226,2.638.829a14.543,14.543,0,0,1,1.034,3.349,26.053,26.053,0,0,0,1.475,4.275,8.425,8.425,0,0,0,1.389,2.294,7.171,7.171,0,0,0,1.863,1.4,13.826,13.826,0,0,0,9.111,1.54,13.4,13.4,0,0,0,8.3-4.9,8.588,8.588,0,0,0,1.465-6.785Z" transform="translate(20.792 18.824)" fill="#2f4419"/>
      <path id="Trazado_610740" data-name="Trazado 610740" d="M298.232,248.088l-6.569.022a1.429,1.429,0,0,0-.14-.851c-1.2-2.412-4.426-4.922-7.183-5.137-3.317-.258-7.452,1.928-8.9,4.975a1.952,1.952,0,0,0-.355,1.142l-7.388.022a.836.836,0,0,0-.722.937.847.847,0,0,0,.743.926l30.531-.172a.836.836,0,0,0,.722-.937A.847.847,0,0,0,298.232,248.088Z" transform="translate(20.534 18.622)" fill="#afc797"/>
      <g id="Grupo_1015482" data-name="Grupo 1015482" transform="translate(159.63 227.789)">
        <path id="Trazado_610741" data-name="Trazado 610741" d="M229.044,212.33H160.1v65.261h68.944Z" transform="translate(-147.317 -211.458)" fill="#e6ebf4"/>
        <path id="Trazado_610742" data-name="Trazado 610742" d="M239.154,259.11H148.23v9.3h90.924Z" transform="translate(-148.23 -207.86)" fill="#bac4b1"/>
        <path id="Trazado_610743" data-name="Trazado 610743" d="M239.154,242.89H148.23v9.3h90.924Z" transform="translate(-148.23 -209.107)" fill="#bac4b1"/>
        <path id="Trazado_610744" data-name="Trazado 610744" d="M239.154,227.74H148.23v9.3h90.924Z" transform="translate(-148.23 -210.272)" fill="#bac4b1"/>
        <path id="Trazado_610745" data-name="Trazado 610745" d="M239.154,211.52H148.23v9.3h90.924Z" transform="translate(-148.23 -211.52)" fill="#bac4b1"/>
      </g>
      <path id="Trazado_610746" data-name="Trazado 610746" d="M192.836,275.232a31.026,31.026,0,1,0-31.026-31.026A31.026,31.026,0,0,0,192.836,275.232Z" transform="translate(12.445 16.397)" fill="none" stroke="#2f4419" stroke-miterlimit="10" stroke-width="5"/>
      <path id="Trazado_610747" data-name="Trazado 610747" d="M192.742,266.373a24.607,24.607,0,0,1-14.9-5.137,23.8,23.8,0,0,1-9.617-18.1,24.376,24.376,0,0,1,4.135-14.312,2.224,2.224,0,0,1,3.274-.485l.129.108a2.241,2.241,0,0,1,.388,2.983,19.76,19.76,0,0,0-3.328,11.566,19.245,19.245,0,0,0,7.808,14.6,19.842,19.842,0,0,0,14.5,4.049,2.218,2.218,0,0,1,2.477,1.669l.043.162a2.23,2.23,0,0,1-1.9,2.725,23.453,23.453,0,0,1-3,.194Z" transform="translate(12.937 17.523)" fill="#fff"/>
      <path id="Trazado_610748" data-name="Trazado 610748" d="M103.042,189.585c-.765-.334-1.7-.258-2.369-.743a3,3,0,0,1-.829-1.1,16.857,16.857,0,0,1-1.486-4.1c-.377-1.723-.431-3.683.668-5.051,3.166,2.3,3.931,6.785,6.731,9.509a5.4,5.4,0,0,1,1.163,1.314C108.405,192.364,103.72,189.887,103.042,189.585Z" transform="translate(7.545 13.736)" fill="#ff735f"/>
      <path id="Trazado_610749" data-name="Trazado 610749" d="M103.279,193.84c.4-.808.818-1.54,1.066-2.089a2.509,2.509,0,0,0,.312-1.228c-.108-1.3-1.885-2.822-2.423-4.049a12.3,12.3,0,0,1-1.023-5.589.693.693,0,0,1,.237-.582c.248-.14.549.065.754.269a32.612,32.612,0,0,1,4.254,6.268c1.088,1.777,4.038,4.135,3.715,6.343a7.327,7.327,0,0,1-1.088,2.6l-2.078,3.618c-.355.625-.8,1.3-1.5,1.443-1.163.226-2.412-1.378-2.865-2.315-.775-1.594-.118-3.177.635-4.674Z" transform="translate(7.782 13.865)" fill="#ff735f"/>
      <path id="Trazado_610750" data-name="Trazado 610750" d="M104.183,192.063q3.425,2.052,6.86,4.1a46.28,46.28,0,0,0-8.206,34.343c.549,3.382,1.486,6.709,1.648,10.134.183,3.92-1.389,11.4-5.966,12.5a4.976,4.976,0,0,1-4.631-1.335,9.163,9.163,0,0,1-1.949-4.017,61.96,61.96,0,0,1,.614-34.978c.5-1.594,9.843-21.808,11.62-20.752Z" transform="translate(6.899 14.77)" fill="#3b5620"/>
      <g id="Grupo_1015483" data-name="Grupo 1015483" transform="translate(92.635 154.688)">
        <path id="Trazado_610751" data-name="Trazado 610751" d="M154.9,144.33H96.14v55.623H154.9Z" transform="translate(-85.242 -143.587)" fill="#e6ebf4"/>
        <path id="Trazado_610752" data-name="Trazado 610752" d="M163.5,184.2H86.02v7.926H163.5Z" transform="translate(-86.02 -140.52)" fill="#c0ccb5"/>
        <path id="Trazado_610753" data-name="Trazado 610753" d="M163.5,170.38H86.02v7.926H163.5Z" transform="translate(-86.02 -141.583)" fill="#c0ccb5"/>
        <path id="Trazado_610754" data-name="Trazado 610754" d="M163.5,157.47H86.02v7.937H163.5Z" transform="translate(-86.02 -142.576)" fill="#c0ccb5"/>
        <path id="Trazado_610755" data-name="Trazado 610755" d="M163.5,143.64H86.02v7.926H163.5Z" transform="translate(-86.02 -143.64)" fill="#c0ccb5"/>
      </g>
      <path id="Trazado_610756" data-name="Trazado 610756" d="M126.1,199.2A29.006,29.006,0,0,1,97.13,170.234c0-15.971,17.048-35.054,33.029-35.054a29,29,0,0,1,28.969,28.969C159.128,180.12,142.081,199.2,126.1,199.2Zm0-52.877c-13.181,0-26.944,14.775-26.944,27.957a23.936,23.936,0,0,0,23.908,23.908c13.181,0,26.944-14.775,26.944-27.957A23.936,23.936,0,0,0,126.1,146.326Z" transform="translate(7.47 10.398)" fill="#233313"/>
      <path id="Trazado_610757" data-name="Trazado 610757" d="M124.219,200.648a28.969,28.969,0,1,1,28.969-28.969A29.006,29.006,0,0,1,124.219,200.648Zm0-52.877a23.908,23.908,0,1,0,23.908,23.908A23.936,23.936,0,0,0,124.219,147.771Z" transform="translate(7.325 10.977)" fill="#2f4419"/>
      <path id="Trazado_610758" data-name="Trazado 610758" d="M123.964,190.4a21.047,21.047,0,0,1-12.708-4.372,20.306,20.306,0,0,1-8.2-15.432,20.866,20.866,0,0,1,3.522-12.2,1.887,1.887,0,0,1,2.789-.409l.108.086a1.923,1.923,0,0,1,.334,2.542,16.916,16.916,0,0,0-2.832,9.854,16.367,16.367,0,0,0,6.655,12.438A16.892,16.892,0,0,0,126,186.348a1.9,1.9,0,0,1,2.111,1.422l.032.14a1.905,1.905,0,0,1-1.615,2.326A20.474,20.474,0,0,1,123.964,190.4Z" transform="translate(7.925 12.117)" fill="#fff"/>
      <path id="Trazado_610759" data-name="Trazado 610759" d="M50.064,349.522a2.336,2.336,0,0,0-.162.377c-.851,2.262,1.7,4.469,2.875,6.16q2.859,4.135,5.718,8.281a10.015,10.015,0,0,0,2.2,2.509c2.218,1.583,6.257,1.26,5.578-2.315a9.958,9.958,0,0,0-2.078-3.737,17.048,17.048,0,0,1-3.511-8.141c-.28-3.112,1.357-5.46,2.9-8.012a18.9,18.9,0,0,0,2.466-6.612,5.094,5.094,0,0,0,.032-2.057,2.089,2.089,0,0,0-1.282-1.518,2.276,2.276,0,0,0-1.142-.022c-2.628.474-4.8,2.886-6.085,5.062a45,45,0,0,1-5.751,7.765,10.834,10.834,0,0,0-1.766,2.272Z" transform="translate(3.824 25.719)" fill="#2f4419"/>
      <path id="Trazado_610760" data-name="Trazado 610760" d="M99.647,361.988c-.151,1.023-.226,2.229.538,2.908a3.212,3.212,0,0,0,2.132.538q6.058.081,12.083.678a10.635,10.635,0,0,0,5.212-.6,2.955,2.955,0,0,0,2.068-1.874,2.5,2.5,0,0,0-1.4-2.542,8.942,8.942,0,0,0-3-.754c-2.165-.334-5.309-.441-6.709-2.326-1.249-1.68-1.163-4.071-1.152-6.052,0-1.422.162-2.843.065-4.265a6.916,6.916,0,0,0-1.378-3.963,3.709,3.709,0,0,0-3.8-1.325,4,4,0,0,0-2.326,2.294,11.271,11.271,0,0,0-.722,3.285C100.692,352.608,99.776,357.325,99.647,361.988Z" transform="translate(7.656 26.327)" fill="#2f4419"/>
      <path id="Trazado_610761" data-name="Trazado 610761" d="M140.322,190.118a38.135,38.135,0,0,1-2.865,2.531c-1.766,1.443-3.048.722-5.1.3a2.684,2.684,0,0,0-1.012-.065.851.851,0,0,0-.7.657c-.086.592,2.046,2,2.445,2.531a6.371,6.371,0,0,1,1.443,3.543c.065,1.637-.3,3.468-.366,5.137-.043.98-.1,1.971-.086,2.951,0,1.777.151,3.877,1.432,5.245,1.96,2.089,3.9-.355,4.092-2.294a16.517,16.517,0,0,0-.1-3.091,22.145,22.145,0,0,1,1.992-11.835c1.368-2.843,3.349-4.965,3.7-8.26a1.762,1.762,0,0,0-.118-1.034,1.277,1.277,0,0,0-1.82-.2c-1.142.851-1.852,2.789-2.929,3.866Z" transform="translate(10.047 14.302)" fill="#ff735f"/>
      <path id="Trazado_610762" data-name="Trazado 610762" d="M106.213,223.906c-.625-3.36-1.615-6.968-.215-10.08a7.493,7.493,0,0,1,6.925-4.275,7.917,7.917,0,0,1,6.785,4.588,8,8,0,0,1,.043,6.429c-.958,2.014-2.768,2.994-3.328,5.374a36.553,36.553,0,0,0-.549,5.212,6.928,6.928,0,0,1-1.206,3.812,5,5,0,0,1-4.857,1.5c-1.292-.258-4.135-1.4-4.76-2.671-.592-1.206.786-2.358,1.152-3.478a13.475,13.475,0,0,0,.032-6.418Z" transform="translate(8.068 16.118)" fill="#ff977d"/>
      <path id="Trazado_610763" data-name="Trazado 610763" d="M144.354,201.311h-8.3c.032.754.065,1.508.086,2.272l.248,8.432c.129,4.168-.032,7.711-2.2,11.351-2.563,4.308-7.441,9.735-12.718,10.425a18.47,18.47,0,0,1-5.729-.582c-4.5-.818-13.117-2.1-16.908,1.346-1.734,1.572-2.143,4.082-2.574,6.386a71.052,71.052,0,0,1-5.772,17.608c-1.163,2.412-2.477,4.846-2.714,7.506a11.124,11.124,0,0,0,3.618,8.82c2.692,2.563,5.632,1.723,8.96,2.466,3.78.84,8.174,2.735,12,2.972,4.028.248,3.629-4.857,4.114-7.765a83.631,83.631,0,0,1,3.457-15.077,28.079,28.079,0,0,1,8.572-12.654c3.575-2.822,8.055-4.415,11.351-7.614a17.2,17.2,0,0,0,2.531-3.112,22.269,22.269,0,0,0,3.3-9.283,24.269,24.269,0,0,0,.011-4.243c-.355-6.3-1.206-12.869-1.325-19.266Z" transform="translate(6.747 15.483)" fill="#3b5620"/>
      <path id="Trazado_610764" data-name="Trazado 610764" d="M74.388,309.122c-.808,2.3-1.658,4.588-2.628,6.849-5,11.62-12.428,21.571-18.9,32.415.571.474,11.243,7.474,10.769,8.141,14.549-15.314,26.988-39.318,35.344-63.29,2.735-7.851,5.9-15.561,8.3-23.488a3.686,3.686,0,0,0,.226-1.734,3.816,3.816,0,0,0-1.518-2.1A44.443,44.443,0,0,0,92.3,257.99a4.409,4.409,0,0,1,.4-2.1c-.312-.366-.872.075-1.131.474-4.254,6.623-5.654,15.615-7.56,23.251a75.907,75.907,0,0,1-2.423,9.326c-1.249,3.209-2.5,6.418-3.651,9.671-1.228,3.511-2.337,7.022-3.565,10.5Z" transform="translate(4.065 19.672)" fill="#afc797"/>
      <path id="Trazado_610765" data-name="Trazado 610765" d="M120.667,215.687c.215-2.089.915-4.028.872-6.268a4.293,4.293,0,0,0-.248-1.422c-1.023-2.951-3.683-1.109-5.762-1.766-.732-.237-1.411-.635-2.143-.894a4.869,4.869,0,0,0-3.877.323c-1.271.765-1.2,2.531-2.348,3.468-1.475,1.206-2.778,1.454-3.457,3.543-.366,1.109.108,3.834-.625,4.631-.668.732-3.037.377-4.06.668a9.7,9.7,0,0,0-6.494,5.815c.011-.043-4.006.3-4.394.409a15.172,15.172,0,0,0-4.588,2,13.168,13.168,0,0,0-5.88,8.066,19.429,19.429,0,0,0,.151,8.034,17.785,17.785,0,0,0,1.249,3.909c2.014,4.275,6.354,7.183,10.974,8.174a25.923,25.923,0,0,0,13.935-1.314c5.74-2.025,11.146-5.6,14.172-10.877a16.681,16.681,0,0,0,1.562-13.128c-.334-1.045-1.023-1.949-1.368-2.962-.485-1.389-.366-1.206.528-2.4a7.83,7.83,0,0,0,1.8-5.783,10.8,10.8,0,0,1,0-2.208Z" transform="translate(5.945 15.774)" fill="#2f4419"/>
      <path id="Trazado_610766" data-name="Trazado 610766" d="M98.427,317.171c.5,7.474.765,14.948.9,22.432.14,7.215-.56,14.861.172,22.034.022.237,12.708.032,13.246-.56.571-.625.194-3.672.226-4.448q.194-5.218.366-10.446c.14-4.135.355-8.26.614-12.4.248-3.952,1.594-7,2.477-10.834,1.863-8,1.583-16.315,1.023-24.457-.722-10.414-1.238-20.354.108-30.724-1.378-.345-3.263-1.766-4.792-2.455-3.08-1.389-6.181-2.757-9.229-4.221-2.5-1.2-5.008-2.391-7.549-3.489-1.658-.722-4.932-3.026-6.623-1.6a5.274,5.274,0,0,0-1.389,2.445,23.008,23.008,0,0,0-.775,13.138c1.335,4.932,4.685,8.992,6.343,13.8,1.917,5.535,1.54,11.641,2.649,17.36a116.589,116.589,0,0,1,2.218,14.42Z" transform="translate(6.657 19.656)" fill="#afc797"/>
      <path id="Trazado_610767" data-name="Trazado 610767" d="M107.546,205.174a9.612,9.612,0,0,1,5.277-4.706c1.551-.5,3.489-.323,4.48.969.915,1.2.722,2.886.323,4.34a20.527,20.527,0,0,1-3.231,6.7,4.3,4.3,0,0,1-1.357,1.325,3.8,3.8,0,0,1-1.723.377c-1.432.043-5.385-.485-6.031-2.132-.3-.786.506-2.466.754-3.242a20.117,20.117,0,0,1,1.5-3.629Z" transform="translate(8.092 15.4)" fill="#afc797"/>
      <path id="Trazado_610768" data-name="Trazado 610768" d="M116.6,206.971c-.743-2.8-4.049-3.748-6.558-3.651a8.521,8.521,0,0,0-6.935,3.985c-2.628,4.362-.269,13.741,6.149,12.568A7.433,7.433,0,0,0,114,216.308a19.7,19.7,0,0,0,2.014-4.954c.075-.237.14-.485.2-.722a6.917,6.917,0,0,0,.366-3.662Zm-6.3,10.834a4.841,4.841,0,0,1-4.943,0c-.765-.388-.086-1.529.668-1.142a3.452,3.452,0,0,0,3.608,0A.662.662,0,0,1,110.3,217.805Z" transform="translate(7.848 15.638)" fill="#afc797"/>
      <path id="Trazado_610769" data-name="Trazado 610769" d="M293.173,154.382c.345.915.592,2.165-.226,2.7a2.205,2.205,0,0,1-.948.28l-2.089.291a4.982,4.982,0,0,1-1.443.065c-.388-.065-.743-.215-1.12-.3-1.938-.485-3.888.571-5.815,1.077a12.417,12.417,0,0,1-8.852-1.2c-2.552-1.615-.808-4.523,1.712-4.868,2.348-.323,4.835.194,7.022-.711a2.433,2.433,0,0,0,1.443-1.26,3.066,3.066,0,0,0-.377-2.272l-1.486-3.263a5.407,5.407,0,0,0-1.055-1.368,25.4,25.4,0,0,0,5.417-.786c1.518-.291,2.832-1.088,3.662.474,1.809,3.392,2.811,7.538,4.146,11.146Z" transform="translate(20.876 10.946)" fill="#233313"/>
      <path id="Trazado_610770" data-name="Trazado 610770" d="M279.428,39.645c1.142,4.1,2.186,8.077,5.3,11.135a21.487,21.487,0,0,0,8.217,5.018c6.311,2.326,10.974.991,15.206-4.512.754-.98,1.26-2.175,2.628-2.832a4.5,4.5,0,0,1,4.609.506,7.185,7.185,0,0,1,2.52,4.243,4.349,4.349,0,0,1,.108,1.7c-.42,2.262-1.863,3.715-3.489,5.255a22.487,22.487,0,0,1-5.406,4.157c-4.114,1.96-8.2,3.435-12.794,2.725-8.335-1.3-15.745-5.514-20.235-12.74-1.917-3.091-2.186-6.86-2.886-10.36-.4-2.014-.474-4.146-.754-6.182a39.377,39.377,0,0,0,6.978,1.906Z" transform="translate(20.955 2.904)" fill="#3b5620"/>
      <path id="Trazado_610771" data-name="Trazado 610771" d="M318.366,100.808c-6.806-.538-11.857-2.778-17.92-5.977-.054-.086-2.251-1.012-2.3-1.109,0-.366,1.314.474,1.3.108-.086-4.534-1.572-10.263-1.809-14.786a111.3,111.3,0,0,1-.065-16.735c.248-2.552.538-4.545,2.025-6.677a18.974,18.974,0,0,1,4.76-4.652c3.468-2.391,7.409-4.6,11.631-3.177a15.417,15.417,0,0,1,8.443,7.808c2.122,4.189,2.8,8.928,3.446,13.569q.953,6.817,1.9,13.645c.258,1.863.183,3.662.441,5.5.312,2.208,1.142,4.62,1.142,6.838.129.722-.032,4.028-.054,5.611-4.62-.183-8.325.366-12.945,0Z" transform="translate(22.864 3.642)" fill="#3b5620"/>
      <path id="Trazado_610772" data-name="Trazado 610772" d="M267.417,98.682c2.412-1.9,6.063-3.231,8.648-4.211A72.925,72.925,0,0,1,294.8,90.379c11.318-1.1,22.174.237,33.331,1.982a4.5,4.5,0,0,1,1.508.431,3.462,3.462,0,0,1,1.368,2.994,16.873,16.873,0,0,1-1.475,6.192c-.722,1.917-.991,4.846-2.315,6.386a10.711,10.711,0,0,1-4.609,2.746,42.219,42.219,0,0,1-10.371,1.906,101.751,101.751,0,0,1-12.578-.377c-5.018-.28-10.317.56-15.346.732,2.6,12.04,5.7,24,8.034,36.066-3.091.98-6.289,1.594-9.477,2.3-.722.162-1.443.366-2.165.582a6.791,6.791,0,0,1-.355-.6c-3.823-6.871-8.045-13.321-11-20.666-2.692-6.7-5.4-13.806-5.525-21.118-.054-3.058.2-7.635,2.337-10.091a9.662,9.662,0,0,1,1.271-1.2Z" transform="translate(20.291 6.921)" fill="#afc797"/>
      <path id="Trazado_610773" data-name="Trazado 610773" d="M313.116,43.523c-.291-1.26-.582-2.509-.872-3.769a33.56,33.56,0,0,0-1.6-5.5,11.359,11.359,0,0,0-3.3-4.62,5.561,5.561,0,0,0-2.337-1.163,7.154,7.154,0,0,0-2.089-.043,13.268,13.268,0,0,0-3.985.872c-4.168,1.745-3.112,8.454-1.906,11.631.625,1.669,1.5,3.489,3.188,4.071a14.569,14.569,0,0,1,1.691.5c1.422.7,2.208,2.574,2.617,4a18.261,18.261,0,0,1,.582,3.242c.043.5-.226,1.626.215,1.96.463.355,2.014-.032,2.531-.151a13.994,13.994,0,0,0,4.749-2.218,5.709,5.709,0,0,0,1.755-1.648c.711-1.174.162-1.831-.237-2.9a32.8,32.8,0,0,1-.98-4.243Z" transform="translate(22.762 2.182)" fill="#ff735f"/>
      <path id="Trazado_610774" data-name="Trazado 610774" d="M294.157,195.475a18.438,18.438,0,0,1-1.411,3.177,19.875,19.875,0,0,0-2.262,4.178c-.452,1.518-.183,3.425,1.142,4.286a5.368,5.368,0,0,0,3.812.312,7.712,7.712,0,0,0,3.877-1.4,6.721,6.721,0,0,0,1.745-2.951,25.085,25.085,0,0,0,1.228-5.245,7.334,7.334,0,0,1,.614-2.649c.84-1.54,2.843-2.251,3.435-3.9a5.716,5.716,0,0,0-.2-3.306,57.032,57.032,0,0,1-1.368-7.355c-.129-1.077.226-5.568-.56-6.192-1.842-1.475-9.24,2.822-11.189,3.478.388-.129,2.358,10.069,2.358,11.1a21.07,21.07,0,0,1-1.206,6.483Z" transform="translate(22.326 13.393)" fill="#233313"/>
      <path id="Trazado_610775" data-name="Trazado 610775" d="M312.675,36.171a2.244,2.244,0,0,1,.011-.269c.118-2.358.3-4.954-1.249-6.914-1.378-1.745-3.317-2.068-6.009-2.272-3.112-.226-7.075-1.131-10.123-.269a3.333,3.333,0,0,0-2.585,2.875c0,1.475,1.4,2.628,2.832,2.972,2.52.614,6.3-1,7.366,2.434.625,2,.775,3.866,3.048,4.738a6.463,6.463,0,0,0,4.318-.054,3.579,3.579,0,0,0,1.831-1.185,3.875,3.875,0,0,0,.549-2.057Z" transform="translate(22.514 2.006)" fill="#19034d"/>
      <path id="Trazado_610776" data-name="Trazado 610776" d="M308.293,24.033a.441.441,0,0,1,.14-.258.718.718,0,0,1,1.2-.043.581.581,0,0,1,.1.7.745.745,0,0,1-.883.571A.7.7,0,0,1,308.293,24.033Z" transform="translate(23.708 1.802)" fill="#3b5620"/>
      <path id="Trazado_610777" data-name="Trazado 610777" d="M294.11,23.8c.6.129,1.185.3,1.777.474.969.28,1.938.56,2.918.818a5.164,5.164,0,0,0,1,.2c.312.022.409-.075.635-.269a8.576,8.576,0,0,1,1.411-1.077,8.172,8.172,0,0,1,4.125-.958c.172,0,.345.022.517.032a8.069,8.069,0,0,1,7.226,8.68c-.022.226-.065.646-.28.775-.194.118-.409-.011-.6-.065a11.976,11.976,0,0,1-1.766-.732c-.517-.226-1.023-.452-1.54-.678-.409-.183-.829-.355-1.238-.538q-5.815-2.488-11.771-4.588c-1.023-.355-2.035-.711-3.058-1.055-.345-.118-1.271-.452-.98-1,.108-.2.388-.215.625-.194.345.032.689.1,1.034.162Z" transform="translate(22.491 1.768)" fill="#3b5620"/>
      <path id="Trazado_610778" data-name="Trazado 610778" d="M332.4,96.483a29.011,29.011,0,0,0-.215-4.06c-4.782-.237-9.563-.678-14.312-1.3.28.032-.678,1.842-.829,2A6.03,6.03,0,0,1,314.9,94.3a34.175,34.175,0,0,0-5.74,3.155c-4.6,3.209-7.011,6.386-10.2,11.071-3.145,4.62-4.48,9.865-6.731,14.808a47.817,47.817,0,0,0-4.491,17.8c-.022.42-.043.84-.054,1.26a130.072,130.072,0,0,0,1.443,19.8l3.715,29.852c4.609-.312,9.1-1.5,13.645-2.4a1.949,1.949,0,0,1,.032-.248c1.26-17.263.958-34.806,5.309-51.563,2.089-8.066,8.141-14.054,12.708-20.741,4.372-6.408,7.721-12.988,7.872-20.6Z" transform="translate(22.124 7.009)" fill="#afc797"/>
      <path id="Trazado_610779" data-name="Trazado 610779" d="M313.616,96.786a7.836,7.836,0,0,0,10.252,2.865c.571-.28,1.077.582.506.861A8.848,8.848,0,0,1,313.3,98.046a.549.549,0,0,1-.183-.172l-.355-.582c-.334-.549.517-1.034.862-.506Z" transform="translate(24.05 7.427)" fill="#2f4419"/>
      <path id="Trazado_610780" data-name="Trazado 610780" d="M302.57,37.909l.032-.7a1.528,1.528,0,0,1,.754-1.314c1.4-.678,3.522-.409,4.146,1.249.775,2.078-1.788,3.015-3.4,2.875a1.545,1.545,0,0,1-1.518-1.518,1.792,1.792,0,0,1,.032-.237,1.213,1.213,0,0,1-.032-.345Z" transform="translate(23.271 2.734)" fill="#ff735f"/>
      <path id="Trazado_610781" data-name="Trazado 610781" d="M300.616,37.077l-13.246,2V33.06l13.246,2Z" transform="translate(22.102 2.543)" fill="#233313"/>
      <path id="Trazado_610782" data-name="Trazado 610782" d="M159.83,15.39c.075.011.162.011.237.022Z" transform="translate(12.292 1.184)" fill="#3b5620"/>
      <path id="Trazado_610783" data-name="Trazado 610783" d="M165.053,54.75l-5.223.614A26.111,26.111,0,0,0,165.053,54.75Z" transform="translate(12.292 4.211)" fill="#3b5620"/>
      <path id="Trazado_610784" data-name="Trazado 610784" d="M164.862,57.764,298.077,42.213a4.563,4.563,0,0,0,.065-9.057L162.31,15.57c11.76,1.4,16.606,11.835,16.606,22.744C178.916,48.33,174.339,55.674,164.862,57.764Z" transform="translate(12.483 1.198)" fill="#3b5620"/>
      <path id="Trazado_610785" data-name="Trazado 610785" d="M160.69,56.65a19.88,19.88,0,1,0-19.88-19.88A19.88,19.88,0,0,0,160.69,56.65Z" transform="translate(10.829 1.299)" fill="#2f4419" opacity="0.34"/>
      <path id="Trazado_610786" data-name="Trazado 610786" d="M160.69,56.65a19.88,19.88,0,1,0-19.88-19.88A19.88,19.88,0,0,0,160.69,56.65Z" transform="translate(10.829 1.299)" fill="none" stroke="#233313" stroke-miterlimit="10" stroke-width="6"/>
      <path id="Trazado_610787" data-name="Trazado 610787" d="M160.973,47.364a12.889,12.889,0,0,1-7.765-2.671A12.383,12.383,0,0,1,148.2,35.26a12.765,12.765,0,0,1,2.154-7.452,1.148,1.148,0,0,1,1.7-.248l.065.054a1.165,1.165,0,0,1,.2,1.551,10.261,10.261,0,0,0-1.734,6.02,10,10,0,0,0,4.071,7.6,10.305,10.305,0,0,0,7.549,2.111,1.166,1.166,0,0,1,1.292.872l.022.086a1.169,1.169,0,0,1-.991,1.422,12.664,12.664,0,0,1-1.562.1Z" transform="translate(11.397 2.099)" fill="#fff"/>
      <g id="Grupo_1015484" data-name="Grupo 1015484" transform="translate(201.641 17.586)">
        <path id="Trazado_610788" data-name="Trazado 610788" d="M187.24,57.3V56.09a19.277,19.277,0,0,0,0-38.554V16.33a20.483,20.483,0,0,1,0,40.966Z" transform="translate(-187.24 -16.33)" fill="#233313"/>
        <path id="Trazado_610789" data-name="Trazado 610789" d="M215.77,53.419V52.213a15.658,15.658,0,1,0,0-31.317V19.69a16.865,16.865,0,0,1,0,33.729Z" transform="translate(-185.046 -16.072)" fill="#233313"/>
        <path id="Trazado_610790" data-name="Trazado 610790" d="M267.23,45.677V44.471a8.432,8.432,0,0,0,0-16.865V26.4a9.638,9.638,0,0,1,0,19.277Z" transform="translate(-181.087 -15.556)" fill="#233313"/>
        <path id="Trazado_610791" data-name="Trazado 610791" d="M243.18,49.554V48.348a12.051,12.051,0,1,0,0-24.1V23.04a13.257,13.257,0,1,1,0,26.514Z" transform="translate(-182.937 -15.814)" fill="#233313"/>
      </g>
      <path id="Trazado_610792" data-name="Trazado 610792" d="M297.84,40.709a12.493,12.493,0,0,0,2.132-.829" transform="translate(22.908 3.067)" fill="none" stroke="#19034d" stroke-miterlimit="10" stroke-width="0.5"/>
      <path id="Trazado_610793" data-name="Trazado 610793" d="M273.386,48.526a21.944,21.944,0,0,0-.98-2.1,5.225,5.225,0,0,1-.743-2.111,18.318,18.318,0,0,0-.108-3.166c-.162-.862-.355-1.734-.592-2.585-.086-.312-.98-3.7-1.648-3.048a.623.623,0,0,0-.151.366c-.183,1.152-.054,2.3-.172,3.457-.022.226-.183.538-.388.442-.431-.2-.808-1.938-1-2.391-.6-1.357-1.26-2.692-1.885-4.038-.42-.894-1.077-1.938-2.057-1.842a1.62,1.62,0,0,0-1.206.937,4.983,4.983,0,0,0-.388,1.54c-.129.969-.269,1.928-.4,2.9a6.87,6.87,0,0,0-.1,1.755,6.865,6.865,0,0,0,.4,1.518c.614,1.8,1.023,3.737,2.186,5.245,1.142,1.475,2.9,2.692,3.812,4.318a24.987,24.987,0,0,0,1.378,2.337,2.231,2.231,0,0,0,1.648.958,3.36,3.36,0,0,0,2.7-2.208,3.859,3.859,0,0,0-.291-2.272Z" transform="translate(20.116 2.423)" fill="#ff735f"/>
      <path id="Trazado_610794" data-name="Trazado 610794" d="M313.417,74.142c-9.315,2.488-17.048,2.294-26.621-.829-11.566-3.769-15.368-12.74-19.815-23.5,2.2-1.583,4.437-3.026,6.677-4.545C280.646,57.4,284.749,62.748,299.1,63.535a13.748,13.748,0,0,0,7.958-1.5c3.651-1.7,5.643-5.223,8.551-7.958a18.959,18.959,0,0,1,2.908-2.089,3.794,3.794,0,0,1,2.046-.818,4.127,4.127,0,0,1,2.315.991,12.935,12.935,0,0,1,3.188,3.317,4.929,4.929,0,0,1,.582,3.888c-1.109,4.426-3.694,7.765-6.957,10.823a14.881,14.881,0,0,1-2.811,2.035,13.516,13.516,0,0,1-3.468,1.928Z" transform="translate(20.534 3.482)" fill="#2f441a"/>
    </g>
  </g>
</svg>
