<svg xmlns="http://www.w3.org/2000/svg" width="565.315" height="350.733" viewBox="0 0 565.315 350.733">
  <g id="Grupo_1066763" data-name="Grupo 1066763" transform="translate(-770 -1257)">
    <g id="Group_58_" data-name="Group (58)" transform="translate(769.61 1257)">
      <path id="Trazado_610941" data-name="Trazado 610941" d="M350.82,1.281C223.67-10.507,214.406,61.909,197.565,103.17c-6.315,15.474-17.131,26.918-28.183,35.184a105.612,105.612,0,0,1-49.4,19.76C5.112,173.418,23.853,328.431,67.047,341.472H525.125C637.962,126.746,477.969,13.069,350.82,1.281Z" transform="translate(-16.945 0)" fill="#f7ffef"/>
      <path id="Trazado_610942" data-name="Trazado 610942" d="M163.768,73.265c-66.216.4-83.915,65.363-48,101.889C165.453,225.678,301.865,72.424,163.768,73.265Z" transform="translate(-49.671 -37.461)" fill="#f1ffe2"/>
      <path id="Trazado_610943" data-name="Trazado 610943" d="M886.74,112.314h-4.955a.149.149,0,0,1-.15-.15V107.21a.147.147,0,0,1,.15-.147h4.955a.146.146,0,0,1,.147.147v4.955A.148.148,0,0,1,886.74,112.314Zm-4.807-.3h4.658V107.36h-4.658Z" transform="translate(-450.614 -54.745)" fill="#add2de"/>
      <path id="Trazado_610944" data-name="Trazado 610944" d="M886.74,137.215h-4.955a.149.149,0,0,1-.15-.15v-4.955a.149.149,0,0,1,.15-.15h4.955a.147.147,0,0,1,.147.15v4.955A.148.148,0,0,1,886.74,137.215Zm-4.807-.3h4.658V132.26h-4.658Z" transform="translate(-450.614 -67.476)" fill="#add2de"/>
      <path id="Trazado_610945" data-name="Trazado 610945" d="M867.911,137.215h-4.955a.149.149,0,0,1-.15-.15v-4.955a.149.149,0,0,1,.15-.15h4.955a.149.149,0,0,1,.15.15v4.955A.149.149,0,0,1,867.911,137.215Zm-4.807-.3h4.658V132.26H863.1Z" transform="translate(-440.986 -67.476)" fill="#add2de"/>
      <path id="Trazado_610946" data-name="Trazado 610946" d="M905.569,137.215h-4.955a.149.149,0,0,1-.149-.15v-4.955a.149.149,0,0,1,.149-.15h4.955a.149.149,0,0,1,.15.15v4.955A.149.149,0,0,1,905.569,137.215Zm-4.807-.3h4.658V132.26h-4.658Z" transform="translate(-460.242 -67.476)" fill="#add2de"/>
      <path id="Trazado_610947" data-name="Trazado 610947" d="M886.7,124.7a.146.146,0,0,1-.147-.147v-7.2a.148.148,0,1,1,.3,0v7.2A.147.147,0,0,1,886.7,124.7Z" transform="translate(-453.128 -59.929)" fill="#add2de"/>
      <path id="Trazado_610948" data-name="Trazado 610948" d="M886.424,128.339a.149.149,0,0,1-.15-.15v-3.723H868.066v3.646a.15.15,0,0,1-.3,0V124.32a.149.149,0,0,1,.149-.15h18.5a.149.149,0,0,1,.15.15v3.873a.149.149,0,0,1-.15.15Z" transform="translate(-443.522 -63.492)" fill="#add2de"/>
      <path id="Trazado_610949" data-name="Trazado 610949" d="M23.279,487.6H1.909a.147.147,0,0,1-.147-.15V471.186a.148.148,0,0,1,.147-.15h21.37a.147.147,0,0,1,.147.15v16.261A.149.149,0,0,1,23.279,487.6Zm-21.223-.3H23.13V471.335H2.059V487.3Z" transform="translate(-0.702 -240.858)" fill="#add2de"/>
      <path id="Trazado_610950" data-name="Trazado 610950" d="M23.246,506.47H.539a.149.149,0,0,1-.15-.15v-1.858a.149.149,0,0,1,.15-.15H23.246a.147.147,0,0,1,.147.15v1.858A.149.149,0,0,1,23.246,506.47Zm-22.557-.3H23.1v-1.561H.689Z" transform="translate(0 -257.874)" fill="#add2de"/>
      <path id="Trazado_610951" data-name="Trazado 610951" d="M22.8,513.068a1.077,1.077,0,1,1,1.077-1.077A1.079,1.079,0,0,1,22.8,513.068Zm0-1.858a.781.781,0,1,0,.781.78A.782.782,0,0,0,22.8,511.21Z" transform="translate(-10.909 -261.248)" fill="#add2de"/>
      <path id="Trazado_610952" data-name="Trazado 610952" d="M23.775,509.789a.149.149,0,0,1-.147-.15l0-1.269a.139.139,0,0,1,.15-.147.149.149,0,0,1,.147.15l0,1.269A.149.149,0,0,1,23.775,509.789Z" transform="translate(-11.883 -259.873)" fill="#add2de"/>
      <path id="Trazado_610953" data-name="Trazado 610953" d="M9.871,493.393H6.737a.149.149,0,0,1-.15-.15v-7.691a.149.149,0,0,1,.15-.15H9.871a.149.149,0,0,1,.15.15v7.691A.149.149,0,0,1,9.871,493.393Zm-2.984-.3H9.724V485.7H6.887Z" transform="translate(-3.169 -248.204)" fill="#add2de"/>
      <path id="Trazado_610954" data-name="Trazado 610954" d="M22.538,490.165H19.4a.147.147,0,0,1-.147-.15V479.239a.149.149,0,0,1,.147-.15h3.134a.149.149,0,0,1,.15.15v10.776A.149.149,0,0,1,22.538,490.165Zm-2.984-.3h2.837V479.389H19.553Z" transform="translate(-9.648 -244.976)" fill="#add2de"/>
      <path id="Trazado_610955" data-name="Trazado 610955" d="M35.943,487.829H32.809a.147.147,0,0,1-.147-.15V474.672a.149.149,0,0,1,.147-.15h3.134a.147.147,0,0,1,.147.15V487.68A.149.149,0,0,1,35.943,487.829Zm-2.984-.3H35.8V474.821H32.959Z" transform="translate(-16.502 -242.64)" fill="#add2de"/>
      <path id="Trazado_610956" data-name="Trazado 610956" d="M442.008,641.789a6.266,6.266,0,0,1-.014-12.531.162.162,0,0,1,.105.044.138.138,0,0,1,.042.106l-.072,6.053h6.051a.149.149,0,0,1,.105.044.139.139,0,0,1,.042.106,6.289,6.289,0,0,1-6.261,6.177Zm-.163-12.232a5.969,5.969,0,1,0,6.123,6.2h-6.048a.15.15,0,0,1-.106-.044.14.14,0,0,1-.042-.105l.073-6.051Z" transform="translate(-222.612 -321.762)" fill="#add2de"/>
      <path id="Trazado_610957" data-name="Trazado 610957" d="M456.81,633.561h-6.2a.15.15,0,0,1-.105-.044.137.137,0,0,1-.042-.1l.075-6.2a.146.146,0,0,1,.15-.148,6.275,6.275,0,0,1,6.277,6.266.427.427,0,0,1,0,.056v.033a.151.151,0,0,1-.15.148Zm-6.051-.3h5.906a5.977,5.977,0,0,0-5.836-5.906Z" transform="translate(-230.139 -320.639)" fill="#add2de"/>
      <path id="Trazado_610958" data-name="Trazado 610958" d="M100.975,257.644a.146.146,0,0,1-.108-.046l-2.693-2.887h-9.32a1.165,1.165,0,0,1-1.164-1.164v-5.98a1.166,1.166,0,0,1,1.164-1.164H99.96a1.166,1.166,0,0,1,1.164,1.164v9.93a.148.148,0,0,1-.094.138.146.146,0,0,1-.054.009ZM88.854,246.7a.868.868,0,0,0-.867.867v5.981a.868.868,0,0,0,.867.867H98.24a.142.142,0,0,1,.108.047l2.479,2.657v-9.554a.868.868,0,0,0-.867-.867H88.854Z" transform="translate(-44.64 -125.995)" fill="#add2de"/>
      <path id="Trazado_610959" data-name="Trazado 610959" d="M94.008,254.619a.933.933,0,1,1,.933-.933A.934.934,0,0,1,94.008,254.619Zm0-1.568a.636.636,0,1,0,.636.635A.636.636,0,0,0,94.008,253.051Z" transform="translate(-47.394 -129.242)" fill="#add2de"/>
      <path id="Trazado_610960" data-name="Trazado 610960" d="M100.689,254.619a.933.933,0,1,1,.932-.933A.934.934,0,0,1,100.689,254.619Zm0-1.568a.636.636,0,1,0,.636.635A.636.636,0,0,0,100.689,253.051Z" transform="translate(-50.81 -129.242)" fill="#add2de"/>
      <path id="Trazado_610961" data-name="Trazado 610961" d="M107.37,254.619a.933.933,0,1,1,.933-.933A.934.934,0,0,1,107.37,254.619Zm0-1.568a.636.636,0,1,0,.636.635A.636.636,0,0,0,107.37,253.051Z" transform="translate(-54.227 -129.242)" fill="#add2de"/>
      <path id="Trazado_610962" data-name="Trazado 610962" d="M512.954,186.075A8.047,8.047,0,1,1,521,178.029,8.055,8.055,0,0,1,512.954,186.075Zm0-15.8a7.75,7.75,0,1,0,7.75,7.75A7.76,7.76,0,0,0,512.954,170.279Z" transform="translate(-257.979 -86.918)" fill="#add2de"/>
      <path id="Trazado_610963" data-name="Trazado 610963" d="M517.735,186.075c-1.949,0-3.477-3.534-3.477-8.046s1.529-8.047,3.477-8.047,3.478,3.534,3.478,8.047S519.685,186.075,517.735,186.075Zm0-15.8c-1.755,0-3.181,3.477-3.181,7.75s1.428,7.75,3.181,7.75,3.181-3.478,3.181-7.75S519.488,170.279,517.735,170.279Z" transform="translate(-262.76 -86.918)" fill="#add2de"/>
      <path id="Trazado_610964" data-name="Trazado 610964" d="M514.658,174.68a13.777,13.777,0,0,1-6.34-1.323.151.151,0,0,1-.075-.1.143.143,0,0,1,.028-.122,8.046,8.046,0,0,1,12.774,0,.15.15,0,0,1,.028.122.147.147,0,0,1-.075.1A13.774,13.774,0,0,1,514.658,174.68Zm-6.041-1.5a15.764,15.764,0,0,0,12.083,0,7.742,7.742,0,0,0-12.083,0Z" transform="translate(-259.682 -86.918)" fill="#add2de"/>
      <path id="Trazado_610965" data-name="Trazado 610965" d="M514.832,198.31a8.026,8.026,0,0,1-6.219-2.94.148.148,0,0,1-.03-.124.149.149,0,0,1,.077-.1,16.048,16.048,0,0,1,12.344,0,.151.151,0,0,1,.077.1.142.142,0,0,1-.03.124A8.019,8.019,0,0,1,514.832,198.31Zm-5.868-2.987a7.746,7.746,0,0,0,11.737,0,15.973,15.973,0,0,0-11.737,0Z" transform="translate(-259.856 -99.153)" fill="#add2de"/>
      <path id="Trazado_610966" data-name="Trazado 610966" d="M521.218,186.073a.149.149,0,0,1-.15-.15v-15.8a.149.149,0,0,1,.15-.15.148.148,0,0,1,.15.15v15.8A.149.149,0,0,1,521.218,186.073Z" transform="translate(-266.242 -86.915)" fill="#add2de"/>
      <path id="Trazado_610967" data-name="Trazado 610967" d="M520.854,186.442h-15.8a.149.149,0,0,1-.15-.15.147.147,0,0,1,.15-.15h15.8a.15.15,0,0,1,0,.3Z" transform="translate(-257.979 -95.182)" fill="#add2de"/>
      <path id="Trazado_610968" data-name="Trazado 610968" d="M232.6,366.1H219.01a.147.147,0,0,1-.148-.15v-8.6a.147.147,0,0,1,.148-.147H232.6a.148.148,0,0,1,.15.147v8.6A.149.149,0,0,1,232.6,366.1Zm-13.44-.3h13.293v-8.3H219.159Z" transform="translate(-111.713 -182.652)" fill="#add2de"/>
      <path id="Trazado_610969" data-name="Trazado 610969" d="M225.783,361.494a.145.145,0,0,1-.075-.021l-6.775-3.987a.146.146,0,0,1-.067-.166.149.149,0,0,1,.142-.11H232.6a.146.146,0,0,1,.143.11.144.144,0,0,1-.068.166l-6.815,3.987A.143.143,0,0,1,225.783,361.494Zm-6.23-3.987,6.23,3.667,6.266-3.667Z" transform="translate(-111.712 -182.654)" fill="#add2de"/>
      <path id="Trazado_610970" data-name="Trazado 610970" d="M1142.684,481.068h-13.473a.149.149,0,0,1-.151-.147v-9.446a.149.149,0,0,1,.151-.148h13.473a.15.15,0,0,1,.151.148v9.446A.149.149,0,0,1,1142.684,481.068Zm-13.326-.3h13.179v-9.15h-13.179Z" transform="translate(-577.131 -241.007)" fill="#add2de"/>
      <path id="Trazado_610971" data-name="Trazado 610971" d="M1142.684,475.688h-5.673a.149.149,0,0,1-.146-.15.146.146,0,0,1,.146-.15h5.522v-3.768h-13.174v3.768h5.62a.15.15,0,1,1,0,.3h-5.766a.15.15,0,0,1-.151-.15v-4.064a.149.149,0,0,1,.151-.148h13.473a.15.15,0,0,1,.151.148v4.064A.152.152,0,0,1,1142.684,475.688Z" transform="translate(-577.131 -241.007)" fill="#add2de"/>
      <path id="Trazado_610972" data-name="Trazado 610972" d="M1143.052,480.186h-1.481a.15.15,0,0,1-.151-.147v-2.526a.148.148,0,0,1,.151-.15h1.481a.146.146,0,0,1,.146.15v2.526A.145.145,0,0,1,1143.052,480.186Zm-1.334-.3h1.187v-2.23h-1.187Z" transform="translate(-583.451 -244.093)" fill="#add2de"/>
      <path id="Trazado_610973" data-name="Trazado 610973" d="M1133.889,470.708h-2.062a.149.149,0,0,1-.147-.15V469.8a.147.147,0,0,1,.147-.15h2.062a.15.15,0,0,1,.151.15v.754A.152.152,0,0,1,1133.889,470.708Zm-1.911-.3h1.764v-.458h-1.764Z" transform="translate(-578.47 -240.151)" fill="#add2de"/>
      <path id="Trazado_610974" data-name="Trazado 610974" d="M1152.109,470.708h-2.057a.15.15,0,0,1-.151-.15V469.8a.148.148,0,0,1,.151-.15h2.057a.15.15,0,0,1,.151.15v.754A.152.152,0,0,1,1152.109,470.708Zm-1.911-.3h1.764v-.458H1150.2Z" transform="translate(-587.787 -240.151)" fill="#add2de"/>
      <path id="Trazado_610975" data-name="Trazado 610975" d="M1142.819,466.207a.15.15,0,0,1-.151-.15v-1.844a.854.854,0,0,0-.855-.853h-5.864a.857.857,0,0,0-.855.853v1.844a.147.147,0,0,1-.147.15.149.149,0,0,1-.146-.15v-1.844a1.149,1.149,0,0,1,1.148-1.15h5.864a1.154,1.154,0,0,1,1.153,1.15v1.844A.151.151,0,0,1,1142.819,466.207Z" transform="translate(-580.066 -236.781)" fill="#add2de"/>
      <path id="Trazado_610976" data-name="Trazado 610976" d="M665.378,42.041H653.609a.149.149,0,0,1-.15-.15V26.717a.149.149,0,0,1,.15-.15H662.8a.148.148,0,0,1,.1.04l2.575,2.382a.149.149,0,0,1,.047.11v12.8a.149.149,0,0,1-.147.15Zm-11.622-.3h11.472V29.161l-2.484-2.3h-8.988Z" transform="translate(-333.938 -13.584)" fill="#add2de"/>
      <path id="Trazado_610977" data-name="Trazado 610977" d="M675,29.248l-2.545-.028a.15.15,0,0,1-.147-.147l-.028-2.351a.149.149,0,0,1,.147-.15.141.141,0,0,1,.15.147l.028,2.206,2.4.028a.148.148,0,0,1,0,.3Z" transform="translate(-343.564 -13.587)" fill="#add2de"/>
      <path id="Trazado_610978" data-name="Trazado 610978" d="M660.2,31.379h-4.471a.149.149,0,0,1-.15-.15.146.146,0,0,1,.15-.147H660.2a.148.148,0,1,1,0,.3Z" transform="translate(-335.022 -15.893)" fill="#add2de"/>
      <path id="Trazado_610979" data-name="Trazado 610979" d="M664.947,35.635h-9.22a.149.149,0,0,1-.15-.15.146.146,0,0,1,.15-.147h9.22a.148.148,0,1,1,0,.3Z" transform="translate(-335.022 -18.07)" fill="#add2de"/>
      <path id="Trazado_610980" data-name="Trazado 610980" d="M664.947,42.314h-9.22a.149.149,0,0,1-.15-.15.148.148,0,0,1,.15-.15h9.22a.149.149,0,0,1,.15.15A.148.148,0,0,1,664.947,42.314Z" transform="translate(-335.022 -21.484)" fill="#add2de"/>
      <path id="Trazado_610981" data-name="Trazado 610981" d="M664.947,49h-9.22a.148.148,0,1,1,0-.3h9.22a.149.149,0,0,1,.15.15A.146.146,0,0,1,664.947,49Z" transform="translate(-335.022 -24.902)" fill="#add2de"/>
      <path id="Trazado_610982" data-name="Trazado 610982" d="M231.827,94.991H229.89a.149.149,0,0,1-.15-.15V93.705a5.545,5.545,0,0,1-1.919-.869l-.855.855a.148.148,0,0,1-.211,0l-1.369-1.369a.148.148,0,0,1,0-.211l.9-.9a5.525,5.525,0,0,1-.738-1.872h-1.314a.147.147,0,0,1-.148-.15V87.25a.149.149,0,0,1,.148-.15h1.327a5.514,5.514,0,0,1,.75-1.846l-.927-.928a.148.148,0,0,1,0-.21l1.369-1.37a.153.153,0,0,1,.211,0l.9.9a5.533,5.533,0,0,1,1.879-.841V81.6a.147.147,0,0,1,.15-.147h1.938a.149.149,0,0,1,.15.147v1.122a5.5,5.5,0,0,1,2.033.767l.741-.741a.152.152,0,0,1,.21,0l1.37,1.37a.148.148,0,0,1,0,.21l-.694.694a5.6,5.6,0,0,1,.9,2.08h.94a.149.149,0,0,1,.15.15v1.937a.149.149,0,0,1-.15.15h-.926a5.615,5.615,0,0,1-.89,2.106l.668.668a.147.147,0,0,1,0,.211l-1.369,1.369a.153.153,0,0,1-.211,0l-.7-.7a5.536,5.536,0,0,1-2.073.792v1.059a.149.149,0,0,1-.15.15Zm-1.79-.3h1.64V93.656a.149.149,0,0,1,.129-.148,5.222,5.222,0,0,0,2.18-.832.149.149,0,0,1,.187.019l.68.68,1.159-1.159-.652-.652a.146.146,0,0,1-.014-.192,5.292,5.292,0,0,0,.935-2.208.15.15,0,0,1,.147-.124h.9V87.4h-.911a.146.146,0,0,1-.145-.122,5.314,5.314,0,0,0-.951-2.183.149.149,0,0,1,.014-.194l.68-.678-1.159-1.159-.72.72a.149.149,0,0,1-.187.019A5.257,5.257,0,0,0,231.806,83a.149.149,0,0,1-.129-.147v-1.1h-1.64V82.92a.148.148,0,0,1-.117.145,5.24,5.24,0,0,0-1.989.893.149.149,0,0,1-.192-.014l-.879-.879-1.16,1.159.907.907a.148.148,0,0,1,.019.187,5.265,5.265,0,0,0-.795,1.961.149.149,0,0,1-.145.122h-1.3v1.641h1.288a.15.15,0,0,1,.147.124,5.293,5.293,0,0,0,.781,1.987.152.152,0,0,1-.019.187l-.881.881,1.159,1.16.841-.841a.149.149,0,0,1,.194-.014,5.265,5.265,0,0,0,2.026.919.148.148,0,0,1,.117.145v1.105Zm1.014-3.085a3.354,3.354,0,1,1,3.312-3.889v1.047a3.332,3.332,0,0,1-.795,1.706l-.292.294-.007.007a3.35,3.35,0,0,1-2.215.839Zm0-6.413a3.057,3.057,0,1,0,2.017,5.354l.283-.283a3.041,3.041,0,0,0,.717-1.526v-1A3.041,3.041,0,0,0,231.051,85.2Z" transform="translate(-114.386 -41.649)" fill="#add2de"/>
      <path id="Trazado_610983" data-name="Trazado 610983" d="M214.633,101.675a.155.155,0,0,1-.07-.017.148.148,0,0,1-.072-.086l-.292-.942a2.7,2.7,0,0,1-.654-.087l-.472.9a.148.148,0,0,1-.087.072.156.156,0,0,1-.112-.009l-.888-.468a.15.15,0,0,1-.063-.2l.491-.935a2.5,2.5,0,0,1-.381-.477l-1.021.318a.157.157,0,0,1-.112-.009.151.151,0,0,1-.072-.086l-.3-.958a.151.151,0,0,1,.1-.187l1.031-.32a2.554,2.554,0,0,1,.049-.6l-.949-.5a.15.15,0,0,1-.063-.2l.468-.888a.146.146,0,0,1,.086-.072.154.154,0,0,1,.112.009l.923.486a2.563,2.563,0,0,1,.475-.423l-.3-.972a.155.155,0,0,1,.009-.112.149.149,0,0,1,.087-.072l.958-.3a.156.156,0,0,1,.112.009.147.147,0,0,1,.072.086l.287.923a2.469,2.469,0,0,1,.694.037l.437-.83a.148.148,0,0,1,.086-.072.156.156,0,0,1,.112.009l.888.467a.15.15,0,0,1,.063.2l-.416.792a2.486,2.486,0,0,1,.488.563l.839-.259a.156.156,0,0,1,.112.009.147.147,0,0,1,.072.086l.3.958a.152.152,0,0,1-.1.187l-.83.257a2.56,2.56,0,0,1-.075.753l.776.409a.15.15,0,0,1,.063.2l-.468.888a.15.15,0,0,1-.2.063l-.8-.423a2.553,2.553,0,0,1-.568.442l.276.89a.15.15,0,0,1-.1.187l-.958.3a.156.156,0,0,1-.044.007Zm-.325-1.346a.15.15,0,0,1,.143.105l.28.907.675-.21-.269-.867a.15.15,0,0,1,.075-.177,2.246,2.246,0,0,0,.671-.519.146.146,0,0,1,.18-.033l.774.407.329-.626-.75-.4a.148.148,0,0,1-.072-.175,2.228,2.228,0,0,0,.088-.877.15.15,0,0,1,.1-.156l.8-.248-.211-.676-.809.25a.147.147,0,0,1-.173-.068,2.233,2.233,0,0,0-.572-.657.148.148,0,0,1-.04-.187l.4-.769-.626-.33-.421.8a.147.147,0,0,1-.166.075,2.229,2.229,0,0,0-.825-.042.148.148,0,0,1-.161-.1l-.278-.9-.675.21.292.939a.148.148,0,0,1-.063.171,2.222,2.222,0,0,0-.575.512.148.148,0,0,1-.185.04l-.9-.472-.329.626.918.484a.15.15,0,0,1,.075.169,2.225,2.225,0,0,0-.061.736.15.15,0,0,1-.1.154l-1,.311.211.675.993-.308a.147.147,0,0,1,.173.07,2.254,2.254,0,0,0,.465.584.149.149,0,0,1,.033.18l-.474.9.626.329.458-.871a.149.149,0,0,1,.175-.073,2.2,2.2,0,0,0,.785.1h.007Zm-.112-1.218a1.029,1.029,0,0,1-.979-.722,1.008,1.008,0,0,1,.072-.781,1.024,1.024,0,0,1,1.886.173,1.008,1.008,0,0,1-.072.781,1.022,1.022,0,0,1-.6.5,1.058,1.058,0,0,1-.306.046Zm0-1.752a.747.747,0,0,0-.215.032.727.727,0,1,0,.213-.032Z" transform="translate(-107.449 -48.338)" fill="#add2de"/>
      <path id="Trazado_610984" data-name="Trazado 610984" d="M1013.064,258.88H999.476a.149.149,0,0,1-.15-.15v-8.6a.149.149,0,0,1,.15-.15h13.589a.15.15,0,0,1,.152.15v8.6A.152.152,0,0,1,1013.064,258.88Zm-13.439-.3h13.293v-8.3H999.625Z" transform="translate(-510.793 -127.826)" fill="#add2de"/>
      <path id="Trazado_610985" data-name="Trazado 610985" d="M1006.254,254.274a.149.149,0,0,1-.078-.021l-6.773-3.987a.145.145,0,0,1-.068-.166.149.149,0,0,1,.143-.11h13.589a.142.142,0,0,1,.142.11.146.146,0,0,1-.063.166l-6.817,3.987A.145.145,0,0,1,1006.254,254.274Zm-6.23-3.987,6.23,3.667,6.265-3.667Z" transform="translate(-510.794 -127.829)" fill="#add2de"/>
      <path id="Trazado_610986" data-name="Trazado 610986" d="M957.387,301.332h-.023a23.975,23.975,0,0,1-3.663-.282.305.305,0,1,1,.094-.6,23.277,23.277,0,0,0,3.569.276.317.317,0,0,1,.318.306.3.3,0,0,1-.295.306Zm3.639-.287a.306.306,0,0,1-.047-.607,22.787,22.787,0,0,0,3.5-.841.306.306,0,1,1,.189.582,23.677,23.677,0,0,1-3.6.864.338.338,0,0,1-.049,0Zm-10.828-.837a.326.326,0,0,1-.093-.014,23.311,23.311,0,0,1-3.419-1.414.306.306,0,0,1,.278-.545,22.9,22.9,0,0,0,3.33,1.377.307.307,0,0,1-.093.6Zm17.747-1.416a.3.3,0,0,1-.269-.166.3.3,0,0,1,.132-.411,22.918,22.918,0,0,0,3.064-1.886.31.31,0,0,1,.43.067.3.3,0,0,1-.068.428,23.692,23.692,0,0,1-3.147,1.935.3.3,0,0,1-.137.033Zm-24.237-1.886a.3.3,0,0,1-.18-.059,23.414,23.414,0,0,1-2.814-2.4.306.306,0,0,1,.432-.432,23.15,23.15,0,0,0,2.741,2.337.306.306,0,0,1-.18.554Zm30.12-2.4a.3.3,0,0,1-.215-.089.3.3,0,0,1,0-.432,23.173,23.173,0,0,0,2.336-2.739.312.312,0,0,1,.43-.067.307.307,0,0,1,.068.428,24.3,24.3,0,0,1-2.4,2.811.294.294,0,0,1-.215.089Zm-35.274-2.741a.311.311,0,0,1-.248-.126,23.7,23.7,0,0,1-1.94-3.148.306.306,0,1,1,.544-.278,23.245,23.245,0,0,0,1.889,3.066.307.307,0,0,1-.066.428A.3.3,0,0,1,938.555,291.766Zm39.554-3.148a.348.348,0,0,1-.142-.033.308.308,0,0,1-.132-.411,22.332,22.332,0,0,0,1.378-3.328.307.307,0,0,1,.386-.2.3.3,0,0,1,.2.386,23.465,23.465,0,0,1-1.412,3.419.306.306,0,0,1-.274.166Zm-42.873-3.328a.305.305,0,0,1-.29-.211,23.719,23.719,0,0,1-.867-3.594.306.306,0,1,1,.6-.1,23.08,23.08,0,0,0,.844,3.5.307.307,0,0,1-.2.386.33.33,0,0,1-.1.016Zm45.116-3.595a.15.15,0,0,1-.044,0,.3.3,0,0,1-.254-.348,23.8,23.8,0,0,0,.274-3.592v-.093a.307.307,0,0,1,.308-.306.311.311,0,0,1,.3.3v.1a23.192,23.192,0,0,1-.288,3.686.3.3,0,0,1-.3.257Zm-46.261-3.616a.286.286,0,0,1-.306-.282h.306l-.306-.047a23.936,23.936,0,0,1,.278-3.641.305.305,0,0,1,.6.093,23.311,23.311,0,0,0-.271,3.545.328.328,0,0,1-.306.33Zm46.246-3.755a.3.3,0,0,1-.3-.257,23.764,23.764,0,0,0-.85-3.5.3.3,0,1,1,.577-.192,23.247,23.247,0,0,1,.875,3.592.31.31,0,0,1-.254.35A.271.271,0,0,1,980.338,274.325Zm-45.129-3.412a.33.33,0,0,1-.094-.014.3.3,0,0,1-.2-.384,23.283,23.283,0,0,1,1.409-3.421.306.306,0,1,1,.544.278A22.881,22.881,0,0,0,935.5,270.7a.307.307,0,0,1-.29.213Zm42.857-3.5a.3.3,0,0,1-.269-.166,23.6,23.6,0,0,0-1.9-3.061.3.3,0,0,1,.064-.428.309.309,0,0,1,.43.065,23.484,23.484,0,0,1,1.945,3.144.3.3,0,0,1-.132.411.293.293,0,0,1-.137.033ZM938.5,264.42a.306.306,0,0,1-.248-.486,23.868,23.868,0,0,1,2.4-2.816.305.305,0,0,1,.432.432,23.3,23.3,0,0,0-2.334,2.744.311.311,0,0,1-.248.126Zm5.135-5.158a.31.31,0,0,1-.248-.126.306.306,0,0,1,.065-.428,23.492,23.492,0,0,1,3.146-1.942.3.3,0,1,1,.278.542,22.933,22.933,0,0,0-3.064,1.893.3.3,0,0,1-.18.058Zm6.471-3.325a.306.306,0,0,1-.1-.6,23.667,23.667,0,0,1,3.594-.872.305.305,0,1,1,.1.6,22.733,22.733,0,0,0-3.5.848A.347.347,0,0,1,950.107,255.937Zm10.825-.881a.169.169,0,0,1-.047,0,23.246,23.246,0,0,0-3.522-.269h-.07a.306.306,0,0,1,0-.612h.07a23.935,23.935,0,0,1,3.615.276.306.306,0,0,1-.046.608Z" transform="translate(-477.279 -129.966)" fill="#add2de"/>
      <path id="Trazado_610987" data-name="Trazado 610987" d="M205.115,201.391h-1.938a.147.147,0,0,1-.147-.15v-1.136a5.557,5.557,0,0,1-1.918-.869l-.856.855a.148.148,0,0,1-.21,0l-1.37-1.37a.148.148,0,0,1,0-.21l.9-.9a5.548,5.548,0,0,1-.738-1.872h-1.314a.147.147,0,0,1-.147-.15V193.65a.149.149,0,0,1,.147-.15h1.328a5.51,5.51,0,0,1,.75-1.846l-.928-.928a.148.148,0,0,1,0-.21l1.37-1.37a.152.152,0,0,1,.21,0l.9.9a5.538,5.538,0,0,1,1.879-.841V188a.149.149,0,0,1,.147-.15h1.938a.147.147,0,0,1,.147.15v1.122a5.5,5.5,0,0,1,2.033.766l.741-.741a.153.153,0,0,1,.211,0l1.369,1.37a.146.146,0,0,1,0,.21l-.694.694a5.593,5.593,0,0,1,.9,2.08h.939a.149.149,0,0,1,.15.15v1.938a.149.149,0,0,1-.15.15h-.925a5.6,5.6,0,0,1-.891,2.106l.668.668a.146.146,0,0,1,0,.21l-1.369,1.37a.153.153,0,0,1-.211,0l-.7-.7a5.525,5.525,0,0,1-2.073.792v1.059a.149.149,0,0,1-.147.15Zm-1.79-.3h1.64v-1.038a.148.148,0,0,1,.129-.147,5.224,5.224,0,0,0,2.18-.832.149.149,0,0,1,.187.019l.68.68,1.159-1.159-.652-.652a.146.146,0,0,1-.014-.192,5.3,5.3,0,0,0,.935-2.209.15.15,0,0,1,.147-.124h.9V193.8H209.7a.146.146,0,0,1-.145-.121,5.315,5.315,0,0,0-.951-2.183.15.15,0,0,1,.014-.194l.68-.678-1.16-1.159-.72.72a.149.149,0,0,1-.187.019,5.256,5.256,0,0,0-2.143-.806.149.149,0,0,1-.129-.147v-1.1h-1.64v1.171a.148.148,0,0,1-.117.145,5.232,5.232,0,0,0-1.989.893.15.15,0,0,1-.192-.014l-.879-.879-1.159,1.159.907.906a.149.149,0,0,1,.019.187,5.263,5.263,0,0,0-.795,1.961.15.15,0,0,1-.145.121h-1.3v1.641h1.288a.15.15,0,0,1,.148.124,5.287,5.287,0,0,0,.78,1.986.152.152,0,0,1-.019.187l-.881.881,1.159,1.159.841-.841a.149.149,0,0,1,.194-.014,5.262,5.262,0,0,0,2.026.918.148.148,0,0,1,.117.145v1.105Zm1.014-3.085a3.354,3.354,0,1,1,3.312-3.889v1.047a3.322,3.322,0,0,1-.795,1.706l-.292.295-.007.007a3.351,3.351,0,0,1-2.216.839Zm0-6.413a3.057,3.057,0,1,0,2.017,5.354l.282-.282a3.047,3.047,0,0,0,.718-1.527v-1A3.041,3.041,0,0,0,204.339,191.6Z" transform="translate(-100.728 -96.054)" fill="#add2de"/>
      <path id="Trazado_610988" data-name="Trazado 610988" d="M187.917,208.073a.154.154,0,0,1-.07-.017.146.146,0,0,1-.072-.086l-.292-.942a2.719,2.719,0,0,1-.654-.087l-.472.9a.15.15,0,0,1-.087.072.157.157,0,0,1-.112-.009l-.888-.468a.15.15,0,0,1-.063-.2l.491-.935a2.5,2.5,0,0,1-.381-.477l-1.021.318a.156.156,0,0,1-.112-.009.149.149,0,0,1-.072-.087l-.3-.958a.151.151,0,0,1,.1-.187l1.031-.32a2.555,2.555,0,0,1,.049-.6l-.949-.5a.15.15,0,0,1-.063-.2l.467-.888a.15.15,0,0,1,.087-.072.156.156,0,0,1,.112.009l.923.486a2.555,2.555,0,0,1,.474-.423l-.3-.972a.156.156,0,0,1,.009-.112.148.148,0,0,1,.086-.072l.958-.3a.153.153,0,0,1,.112.009.147.147,0,0,1,.073.086l.287.923a2.481,2.481,0,0,1,.694.037l.437-.829a.147.147,0,0,1,.087-.073.156.156,0,0,1,.112.009l.888.468a.15.15,0,0,1,.063.2l-.416.793a2.482,2.482,0,0,1,.489.563l.839-.259a.156.156,0,0,1,.112.009.15.15,0,0,1,.073.087l.3.958a.151.151,0,0,1-.1.187l-.83.257a2.545,2.545,0,0,1-.075.753l.776.409a.15.15,0,0,1,.063.2l-.467.888a.15.15,0,0,1-.2.063l-.8-.423a2.531,2.531,0,0,1-.568.442l.276.89a.15.15,0,0,1-.1.187l-.958.3a.157.157,0,0,1-.044.007Zm-.324-1.346a.15.15,0,0,1,.142.105l.28.907.675-.21-.269-.867a.15.15,0,0,1,.075-.177,2.238,2.238,0,0,0,.67-.519.146.146,0,0,1,.18-.033l.774.407.33-.626-.75-.395a.148.148,0,0,1-.073-.175,2.228,2.228,0,0,0,.089-.877.15.15,0,0,1,.1-.156l.8-.248-.211-.675-.808.25a.147.147,0,0,1-.173-.067,2.236,2.236,0,0,0-.573-.657.148.148,0,0,1-.04-.187l.4-.769-.626-.33-.42.8a.148.148,0,0,1-.166.075,2.22,2.22,0,0,0-.825-.042.148.148,0,0,1-.161-.1l-.278-.9-.676.21.292.94a.148.148,0,0,1-.063.171,2.223,2.223,0,0,0-.575.512.148.148,0,0,1-.185.04l-.9-.472-.329.626.918.484a.15.15,0,0,1,.075.169,2.212,2.212,0,0,0-.061.736.149.149,0,0,1-.1.154l-1,.311.21.675.993-.308a.147.147,0,0,1,.173.07,2.241,2.241,0,0,0,.465.584.148.148,0,0,1,.033.18l-.474.9.626.329.458-.871a.148.148,0,0,1,.175-.073,2.2,2.2,0,0,0,.785.1h.007Zm-.112-1.218a1.026,1.026,0,0,1-.3-2,1.026,1.026,0,0,1,1.283.675,1.009,1.009,0,0,1-.072.78,1.021,1.021,0,0,1-.6.5,1.062,1.062,0,0,1-.306.046Zm0-1.753a.752.752,0,0,0-.215.033.726.726,0,1,0,.213-.033Z" transform="translate(-93.788 -102.743)" fill="#add2de"/>
      <path id="Trazado_610989" data-name="Trazado 610989" d="M215.551,246.94a.318.318,0,0,1,.318-.306,23.306,23.306,0,0,0,3.569-.276.305.305,0,0,1,.093.6,23.907,23.907,0,0,1-3.662.283h-.023a.3.3,0,0,1-.295-.306Zm-3.393.016a23.537,23.537,0,0,1-3.6-.864.306.306,0,0,1,.19-.582,22.839,22.839,0,0,0,3.5.841.306.306,0,0,1-.047.607.186.186,0,0,1-.049,0Zm10.584-1.044a.307.307,0,0,1,.2-.386,22.937,22.937,0,0,0,3.33-1.376.306.306,0,1,1,.278.544,23.524,23.524,0,0,1-3.419,1.414.324.324,0,0,1-.093.014.3.3,0,0,1-.29-.213Zm-17.6-1.236A23.8,23.8,0,0,1,202,242.741a.306.306,0,1,1,.36-.5,23.072,23.072,0,0,0,3.066,1.886.305.305,0,0,1-.138.578.322.322,0,0,1-.138-.033Zm24.128-1.977a.31.31,0,0,1,.068-.428,23.1,23.1,0,0,0,2.741-2.337.306.306,0,0,1,.432.432,23.766,23.766,0,0,1-2.814,2.4.3.3,0,0,1-.18.059A.311.311,0,0,1,229.274,242.7Zm-30.087-2.363a23.948,23.948,0,0,1-2.4-2.811.306.306,0,0,1,.5-.36,23.139,23.139,0,0,0,2.339,2.739.306.306,0,0,1,0,.432.309.309,0,0,1-.215.089.306.306,0,0,1-.215-.089Zm35.308-2.711a.306.306,0,0,1-.065-.428,22.829,22.829,0,0,0,1.888-3.066.306.306,0,1,1,.544.278,23.684,23.684,0,0,1-1.939,3.148.307.307,0,0,1-.248.126A.3.3,0,0,1,234.5,237.625Zm-39.644-3.256a23.242,23.242,0,0,1-1.416-3.419.306.306,0,1,1,.582-.19,22.86,22.86,0,0,0,1.379,3.328.306.306,0,0,1-.133.411.292.292,0,0,1-.138.033.309.309,0,0,1-.273-.166Zm43.049-3.176a.306.306,0,0,1-.2-.386,22.727,22.727,0,0,0,.844-3.5.306.306,0,1,1,.6.1,23.6,23.6,0,0,1-.867,3.594.305.305,0,0,1-.29.211.285.285,0,0,1-.1-.017Zm-45.323-3.837a23.964,23.964,0,0,1-.287-3.686v-.1a.311.311,0,0,1,.306-.3.3.3,0,0,1,.3.306v.094a23.307,23.307,0,0,0,.279,3.592.306.306,0,0,1-.255.348.335.335,0,0,1-.046,0,.305.305,0,0,1-.3-.257Zm46.26-3.686a23.3,23.3,0,0,0-.271-3.545.305.305,0,0,1,.6-.094,23.92,23.92,0,0,1,.278,3.642l-.306.046h.306a.288.288,0,0,1-.306.283.328.328,0,0,1-.306-.329Zm-45.992-3.431a.3.3,0,0,1-.252-.35,23.648,23.648,0,0,1,.874-3.592.305.305,0,1,1,.58.192,22.722,22.722,0,0,0-.851,3.5.306.306,0,0,1-.3.258A.169.169,0,0,1,192.846,220.239Zm44.888-3.62a22.94,22.94,0,0,0-1.372-3.333.306.306,0,1,1,.544-.278,23.311,23.311,0,0,1,1.409,3.421.305.305,0,0,1-.2.384.325.325,0,0,1-.093.014.3.3,0,0,1-.29-.213ZM195.029,213.3a.306.306,0,0,1-.13-.411,23.645,23.645,0,0,1,1.946-3.143.306.306,0,0,1,.494.362,23.083,23.083,0,0,0-1.9,3.061.306.306,0,0,1-.271.166.333.333,0,0,1-.14-.033Zm39.455-3.085a23.35,23.35,0,0,0-2.335-2.744.306.306,0,0,1,.432-.432,23.716,23.716,0,0,1,2.4,2.816.309.309,0,0,1-.068.428.3.3,0,0,1-.18.058.31.31,0,0,1-.248-.126Zm-5.067-5.092a22.935,22.935,0,0,0-3.064-1.893.306.306,0,0,1-.133-.411.3.3,0,0,1,.411-.131,23.649,23.649,0,0,1,3.146,1.942.307.307,0,0,1-.182.554.3.3,0,0,1-.18-.058Zm-6.387-3.281a22.732,22.732,0,0,0-3.5-.848.305.305,0,0,1,.1-.6,23.457,23.457,0,0,1,3.595.872.306.306,0,0,1-.1.6A.274.274,0,0,1,223.029,201.837ZM212,200.713a.306.306,0,0,1,.255-.348,23.912,23.912,0,0,1,3.616-.276h.07a.306.306,0,1,1,0,.612h-.07a23.253,23.253,0,0,0-3.522.269.373.373,0,0,1-.046,0,.305.305,0,0,1-.3-.259Z" transform="translate(-98.126 -102.313)" fill="#add2de"/>
      <g id="Grupo_1015508" data-name="Grupo 1015508" transform="translate(468.085 149.472)">
        <path id="Trazado_610990" data-name="Trazado 610990" d="M958.487,493.588a.91.91,0,0,0,.811-.774c19.366-129.1,57.086-170.613,69.479-184.254l1.051-1.157a.914.914,0,0,0-1.359-1.222l-1.041,1.152c-12.485,13.742-50.49,55.562-69.937,185.213a.912.912,0,0,0,.767,1.037.823.823,0,0,0,.227,0Z" transform="translate(-957.481 -305.879)" fill="#dedede"/>
      </g>
      <g id="Grupo_1015509" data-name="Grupo 1015509" transform="translate(486.87 269.255)">
        <path id="Trazado_610991" data-name="Trazado 610991" d="M996.218,618.907a.44.44,0,0,0,.514-.173c35.008-52.68,60.086-63.15,68.325-66.59l.7-.292a.442.442,0,0,0-.342-.816l-.694.29c-8.3,3.466-33.566,14.015-68.724,66.917a.441.441,0,0,0,.124.612.409.409,0,0,0,.1.049Z" transform="translate(-995.922 -551.002)" fill="#dedede"/>
      </g>
      <path id="Trazado_610992" data-name="Trazado 610992" d="M890.048,575.391H800.662V593.6h89.386Z" transform="translate(-409.209 -294.218)" fill="#2f4419"/>
      <g id="Grupo_1015510" data-name="Grupo 1015510" transform="translate(433.509 283.568)">
        <path id="Trazado_610993" data-name="Trazado 610993" d="M892,582.929a2.636,2.636,0,1,0-5.272,0v8.147a2.636,2.636,0,1,0,5.272,0Z" transform="translate(-886.725 -580.293)" fill="#afc797"/>
      </g>
      <g id="Grupo_1015511" data-name="Grupo 1015511" transform="translate(420.648 283.568)">
        <path id="Trazado_610994" data-name="Trazado 610994" d="M865.679,582.929a2.636,2.636,0,0,0-5.273,0v8.147a2.636,2.636,0,0,0,5.273,0Z" transform="translate(-860.406 -580.293)" fill="#afc797"/>
      </g>
      <g id="Grupo_1015512" data-name="Grupo 1015512" transform="translate(407.787 283.568)">
        <path id="Trazado_610995" data-name="Trazado 610995" d="M839.36,582.929a2.636,2.636,0,1,0-5.272,0v8.147a2.636,2.636,0,1,0,5.272,0Z" transform="translate(-834.088 -580.293)" fill="#afc797"/>
      </g>
      <g id="Grupo_1015513" data-name="Grupo 1015513" transform="translate(394.929 283.568)">
        <path id="Trazado_610996" data-name="Trazado 610996" d="M813.046,582.929a2.636,2.636,0,1,0-5.272,0v8.147a2.636,2.636,0,1,0,5.272,0Z" transform="translate(-807.774 -580.293)" fill="#afc797"/>
      </g>
      <g id="Grupo_1015514" data-name="Grupo 1015514" transform="translate(446.37 283.571)">
        <path id="Trazado_610997" data-name="Trazado 610997" d="M915.679,593.718a2.636,2.636,0,0,1-2.636-2.636v-8.147a2.636,2.636,0,1,1,5.273,0v8.147A2.636,2.636,0,0,1,915.679,593.718Z" transform="translate(-913.043 -580.298)" fill="#afc797"/>
      </g>
      <g id="Grupo_1015515" data-name="Grupo 1015515" transform="translate(459.231 283.571)">
        <path id="Trazado_610998" data-name="Trazado 610998" d="M942,593.718a2.636,2.636,0,0,1-2.636-2.636v-8.147a2.636,2.636,0,1,1,5.272,0v8.147A2.636,2.636,0,0,1,942,593.718Z" transform="translate(-939.362 -580.298)" fill="#afc797"/>
      </g>
      <g id="Grupo_1015516" data-name="Grupo 1015516" transform="translate(472.091 283.571)">
        <path id="Trazado_610999" data-name="Trazado 610999" d="M968.316,593.718a2.636,2.636,0,0,1-2.636-2.636v-8.147a2.636,2.636,0,1,1,5.273,0v8.147A2.636,2.636,0,0,1,968.316,593.718Z" transform="translate(-965.68 -580.298)" fill="#afc797"/>
      </g>
      <path id="Trazado_611000" data-name="Trazado 611000" d="M870.43,613.642H781.044v18.213H870.43Z" transform="translate(-399.177 -313.777)" fill="#839571"/>
      <g id="Grupo_1015517" data-name="Grupo 1015517" transform="translate(423.924 302.26)">
        <path id="Trazado_611001" data-name="Trazado 611001" d="M872.384,621.18a2.636,2.636,0,0,0-5.273,0v8.147a2.636,2.636,0,0,0,5.273,0Z" transform="translate(-867.111 -618.544)" fill="#afc797"/>
      </g>
      <g id="Grupo_1015518" data-name="Grupo 1015518" transform="translate(411.064 302.26)">
        <path id="Trazado_611002" data-name="Trazado 611002" d="M846.065,621.18a2.636,2.636,0,1,0-5.272,0v8.147a2.636,2.636,0,1,0,5.272,0Z" transform="translate(-840.793 -618.544)" fill="#afc797"/>
      </g>
      <g id="Grupo_1015519" data-name="Grupo 1015519" transform="translate(398.203 302.26)">
        <path id="Trazado_611003" data-name="Trazado 611003" d="M819.747,621.18a2.636,2.636,0,0,0-5.273,0v8.147a2.636,2.636,0,0,0,5.273,0Z" transform="translate(-814.474 -618.544)" fill="#afc797"/>
      </g>
      <g id="Grupo_1015520" data-name="Grupo 1015520" transform="translate(385.342 302.26)">
        <path id="Trazado_611004" data-name="Trazado 611004" d="M793.428,621.18a2.636,2.636,0,1,0-5.272,0v8.147a2.636,2.636,0,1,0,5.272,0Z" transform="translate(-788.156 -618.544)" fill="#afc797"/>
      </g>
      <g id="Grupo_1015521" data-name="Grupo 1015521" transform="translate(436.786 302.262)">
        <path id="Trazado_611005" data-name="Trazado 611005" d="M896.066,631.969a2.636,2.636,0,0,1-2.636-2.636v-8.147a2.636,2.636,0,1,1,5.272,0v8.147A2.636,2.636,0,0,1,896.066,631.969Z" transform="translate(-893.43 -618.549)" fill="#afc797"/>
      </g>
      <g id="Grupo_1015522" data-name="Grupo 1015522" transform="translate(449.644 302.262)">
        <path id="Trazado_611006" data-name="Trazado 611006" d="M922.38,631.969a2.636,2.636,0,0,1-2.636-2.636v-8.147a2.636,2.636,0,1,1,5.272,0v8.147A2.636,2.636,0,0,1,922.38,631.969Z" transform="translate(-919.744 -618.549)" fill="#afc797"/>
      </g>
      <g id="Grupo_1015523" data-name="Grupo 1015523" transform="translate(462.505 302.262)">
        <path id="Trazado_611007" data-name="Trazado 611007" d="M948.7,631.969a2.636,2.636,0,0,1-2.636-2.636v-8.147a2.636,2.636,0,0,1,5.273,0v8.147A2.636,2.636,0,0,1,948.7,631.969Z" transform="translate(-946.062 -618.549)" fill="#afc797"/>
      </g>
      <path id="Trazado_611008" data-name="Trazado 611008" d="M899.857,650.913H810.471v18.213h89.386Z" transform="translate(-414.224 -332.836)" fill="#2f4419"/>
      <g id="Grupo_1015524" data-name="Grupo 1015524" transform="translate(438.302 320.473)">
        <path id="Trazado_611009" data-name="Trazado 611009" d="M901.806,658.451a2.636,2.636,0,1,0-5.272,0V666.6a2.636,2.636,0,1,0,5.272,0Z" transform="translate(-896.534 -655.815)" fill="#afc797"/>
      </g>
      <g id="Grupo_1015525" data-name="Grupo 1015525" transform="translate(425.441 320.473)">
        <path id="Trazado_611010" data-name="Trazado 611010" d="M875.488,658.451a2.636,2.636,0,1,0-5.273,0V666.6a2.636,2.636,0,0,0,5.273,0Z" transform="translate(-870.215 -655.815)" fill="#afc797"/>
      </g>
      <g id="Grupo_1015526" data-name="Grupo 1015526" transform="translate(412.581 320.473)">
        <path id="Trazado_611011" data-name="Trazado 611011" d="M849.169,658.451a2.636,2.636,0,1,0-5.272,0V666.6a2.636,2.636,0,1,0,5.272,0Z" transform="translate(-843.897 -655.815)" fill="#afc797"/>
      </g>
      <g id="Grupo_1015527" data-name="Grupo 1015527" transform="translate(399.719 320.473)">
        <path id="Trazado_611012" data-name="Trazado 611012" d="M822.851,658.451a2.636,2.636,0,0,0-5.273,0V666.6a2.636,2.636,0,0,0,5.273,0Z" transform="translate(-817.578 -655.815)" fill="#afc797"/>
      </g>
      <g id="Grupo_1015528" data-name="Grupo 1015528" transform="translate(451.163 320.475)">
        <path id="Trazado_611013" data-name="Trazado 611013" d="M925.488,669.24a2.636,2.636,0,0,1-2.636-2.636v-8.147a2.636,2.636,0,1,1,5.273,0V666.6A2.636,2.636,0,0,1,925.488,669.24Z" transform="translate(-922.852 -655.82)" fill="#afc797"/>
      </g>
      <g id="Grupo_1015529" data-name="Grupo 1015529" transform="translate(464.024 320.475)">
        <path id="Trazado_611014" data-name="Trazado 611014" d="M951.807,669.24a2.636,2.636,0,0,1-2.636-2.636v-8.147a2.636,2.636,0,1,1,5.272,0V666.6A2.636,2.636,0,0,1,951.807,669.24Z" transform="translate(-949.171 -655.82)" fill="#afc797"/>
      </g>
      <g id="Grupo_1015530" data-name="Grupo 1015530" transform="translate(476.885 320.475)">
        <path id="Trazado_611015" data-name="Trazado 611015" d="M978.125,669.24a2.636,2.636,0,0,1-2.636-2.636v-8.147a2.636,2.636,0,0,1,5.273,0V666.6A2.636,2.636,0,0,1,978.125,669.24Z" transform="translate(-975.489 -655.82)" fill="#afc797"/>
      </g>
      <path id="Trazado_611016" data-name="Trazado 611016" d="M849.589,490.5a39.941,39.941,0,1,0-39.94-39.94A39.941,39.941,0,0,0,849.589,490.5Z" transform="translate(-413.804 -209.963)" fill="#839571"/>
      <path id="Trazado_611017" data-name="Trazado 611017" d="M880.219,481.188a32.911,32.911,0,1,0-46.543,0A32.91,32.91,0,0,0,880.219,481.188Z" transform="translate(-421.161 -217.321)" fill="#afc797"/>
      <path id="Trazado_611018" data-name="Trazado 611018" d="M877.092,491.166v-6.284a18.127,18.127,0,0,1-9.522-2.739l1.494-4.169a16.589,16.589,0,0,0,8.96,2.676c4.417,0,7.406-2.552,7.406-6.1s-2.426-5.539-7.032-7.406c-6.347-2.489-10.267-5.352-10.267-10.765s3.672-9.086,9.4-10.019v-6.284h3.859v6.037a16.588,16.588,0,0,1,8.091,2.178l-1.556,4.109a15.027,15.027,0,0,0-7.841-2.115c-4.791,0-6.6,2.863-6.6,5.352,0,3.236,2.3,4.854,7.717,7.093,6.411,2.613,9.645,5.849,9.645,11.388,0,4.917-3.422,9.521-9.832,10.578v6.471h-3.922Z" transform="translate(-443.421 -225.028)" fill="#839571"/>
      <g id="Grupo_1015531" data-name="Grupo 1015531" transform="translate(157.202 300.23)">
        <path id="Trazado_611019" data-name="Trazado 611019" d="M321.463,653.163a.253.253,0,0,0,.295-.1c19.989-30.081,34.308-36.059,39.013-38.024l.4-.166a.253.253,0,1,0-.2-.465l-.4.166c-4.74,1.98-19.166,8-39.239,38.211a.253.253,0,0,0,.07.351.3.3,0,0,0,.056.028Z" transform="translate(-321.29 -614.389)" fill="#dedede"/>
      </g>
      <g id="Grupo_1015532" data-name="Grupo 1015532" transform="translate(40.256 174.975)">
        <path id="Trazado_611020" data-name="Trazado 611020" d="M145.853,525.593a.816.816,0,0,1-.724-.69C127.846,409.682,94.181,372.634,83.117,360.461l-.935-1.033a.814.814,0,0,1,1.211-1.089l.93,1.029c11.146,12.265,45.061,49.588,62.416,165.3a.813.813,0,0,1-.685.926.859.859,0,0,1-.2,0Z" transform="translate(-81.973 -358.069)" fill="#dedede"/>
      </g>
      <g id="Grupo_1015533" data-name="Grupo 1015533" transform="translate(2.493 273.774)">
        <path id="Trazado_611021" data-name="Trazado 611021" d="M72.808,626.509a.432.432,0,0,1-.5-.169c-34.159-51.4-58.628-61.619-66.667-64.975l-.68-.285a.431.431,0,1,1,.337-.795l.678.282c8.1,3.382,32.752,13.677,67.055,65.3a.432.432,0,0,1-.121.6.4.4,0,0,1-.1.049Z" transform="translate(-4.695 -560.251)" fill="#dedede"/>
      </g>
      <path id="Trazado_611022" data-name="Trazado 611022" d="M557.851,702.759H72.826v-1.014a13.3,13.3,0,0,1,13.3-13.3h458.42a13.3,13.3,0,0,1,13.3,13.3v1.014Z" transform="translate(-37.04 -352.025)" fill="#839571"/>
      <path id="Trazado_611023" data-name="Trazado 611023" d="M541.18,626.156H499.131l15.649-49.4h42.046Z" transform="translate(-255.025 -294.918)" fill="#93ad79"/>
      <path id="Trazado_611024" data-name="Trazado 611024" d="M558.789,626.156H516.74l15.649-49.4h42.049Z" transform="translate(-264.029 -294.918)" fill="#afc797"/>
      <path id="Trazado_611025" data-name="Trazado 611025" d="M536.555,402.856H293.369a5.752,5.752,0,0,1-5.731-5.247L273.006,232.147a5.753,5.753,0,0,1,5.73-6.261H521.922a5.751,5.751,0,0,1,5.73,5.247l14.633,165.462A5.754,5.754,0,0,1,536.555,402.856Z" transform="translate(-139.387 -115.504)" fill="#afc797"/>
      <path id="Trazado_611026" data-name="Trazado 611026" d="M554.169,402.856H310.983a5.751,5.751,0,0,1-5.73-5.247L290.62,232.147a5.753,5.753,0,0,1,5.731-6.261H539.536a5.751,5.751,0,0,1,5.731,5.247L559.9,396.595A5.754,5.754,0,0,1,554.169,402.856Z" transform="translate(-148.394 -115.504)" fill="#2f4419"/>
      <path id="Trazado_611027" data-name="Trazado 611027" d="M313.44,402.967a3.388,3.388,0,0,1-3.393-3.106L295.417,234.4a3.407,3.407,0,0,1,3.393-3.707H541.994a3.387,3.387,0,0,1,3.393,3.106l14.63,165.462a3.406,3.406,0,0,1-3.393,3.706Z" transform="translate(-150.851 -117.961)" fill="#839571"/>
      <path id="Trazado_611028" data-name="Trazado 611028" d="M577.645,663.644H472.321a6.123,6.123,0,0,0,0,12.246H577.645a6.123,6.123,0,1,0,0-12.246Z" transform="translate(-238.185 -339.345)" fill="#839571"/>
      <path id="Trazado_611029" data-name="Trazado 611029" d="M502.172,359.8c12.613,22.008,17.066,52.568,18.559,67.747a8.438,8.438,0,0,0,10.075,7.441l26.22-5.289a8.452,8.452,0,0,0,6.782-8.334c-.269-41.855-17.907-77.131-17.907-77.131L502.174,359.8Z" transform="translate(-256.58 -176.022)" fill="#3b5620"/>
      <path id="Trazado_611030" data-name="Trazado 611030" d="M453.771,357.54c-16.044,6.544-35.942-5.05-44.444-25.9s-2.384-43.049,13.66-49.59l33.289-14.109,30.969,75.945L453.768,357.54Z" transform="translate(-207.146 -137.009)" fill="#afc797"/>
      <path id="Trazado_611031" data-name="Trazado 611031" d="M494.971,175.249c-16.044,6.544-21.91,28.743-13.41,49.588s28.148,32.441,44.192,25.9c49.183-20.057,102.611,11.517,123.7,2.384L581.73,87.043C560.269,95.26,544.155,155.192,494.971,175.249Z" transform="translate(-244.052 -44.508)" fill="#fff"/>
      <path id="Trazado_611032" data-name="Trazado 611032" d="M636.477,116.925c-1.325,18.072,3.91,44.85,15.352,72.91,10.557,25.89,24.133,47.321,36.839,59.9,17.96,3.758,32.876,7.285,41.885,3.384L662.829,87.043C654.03,90.413,646.126,102.479,636.477,116.925Z" transform="translate(-325.152 -44.508)" fill="#3b5620"/>
      <path id="Trazado_611033" data-name="Trazado 611033" d="M747.092,252.3c16.046-6.542,13.9-49.024-4.8-94.887s-46.863-77.739-62.909-71.2-13.9,49.024,4.8,94.887S731.046,258.844,747.092,252.3Z" transform="translate(-341.693 -43.651)" fill="#afc797"/>
      <g id="Grupo_1015534" data-name="Grupo 1015534" transform="translate(206.96 144.957)">
        <path id="Trazado_611034" data-name="Trazado 611034" d="M446.722,296.748,424.021,306a1.453,1.453,0,0,0-.8,1.895l.231.567a1.454,1.454,0,0,0,1.9.8l22.7-9.255a1.454,1.454,0,0,0,.8-1.9l-.231-.567A1.453,1.453,0,0,0,446.722,296.748Z" transform="translate(-423.115 -296.64)" fill="#afc797"/>
      </g>
      <g id="Grupo_1015535" data-name="Grupo 1015535" transform="translate(203.082 167.349)">
        <path id="Trazado_611035" data-name="Trazado 611035" d="M438.786,342.57l-22.7,9.255a1.454,1.454,0,0,0-.8,1.9l.231.567a1.454,1.454,0,0,0,1.9.8l22.7-9.255a1.453,1.453,0,0,0,.8-1.895l-.231-.567A1.453,1.453,0,0,0,438.786,342.57Z" transform="translate(-415.179 -342.462)" fill="#afc797"/>
      </g>
      <g id="Grupo_1015536" data-name="Grupo 1015536" transform="translate(212.486 189.926)">
        <path id="Trazado_611036" data-name="Trazado 611036" d="M458.031,388.772l-22.7,9.255a1.454,1.454,0,0,0-.8,1.9l.231.567a1.454,1.454,0,0,0,1.9.8l22.7-9.255a1.453,1.453,0,0,0,.8-1.9l-.231-.567A1.454,1.454,0,0,0,458.031,388.772Z" transform="translate(-434.424 -388.664)" fill="#afc797"/>
      </g>
      <g id="Grupo_1015537" data-name="Grupo 1015537" transform="translate(229.835 206.466)">
        <path id="Trazado_611037" data-name="Trazado 611037" d="M493.533,422.619l-22.7,9.255a1.453,1.453,0,0,0-.8,1.9l.231.567a1.453,1.453,0,0,0,1.895.8l22.7-9.255a1.454,1.454,0,0,0,.8-1.9l-.231-.567A1.454,1.454,0,0,0,493.533,422.619Z" transform="translate(-469.926 -422.511)" fill="#afc797"/>
      </g>
      <path id="Trazado_611038" data-name="Trazado 611038" d="M689.7,225.675a23,23,0,0,0-5.765,3.4c2.211,7.42,4.9,15.1,8.075,22.87s6.611,15.144,10.222,21.994a22.979,22.979,0,0,0,19.1-31.548l-1.678-4.118a22.975,22.975,0,0,0-29.95-12.6Z" transform="translate(-349.524 -114.524)" fill="#def1f7"/>
      <g id="Grupo_1015538" data-name="Grupo 1015538" transform="translate(304.738 88.675)">
        <path id="Trazado_611039" data-name="Trazado 611039" d="M634.2,204.045a7.577,7.577,0,0,1-9.042-11.837,48.016,48.016,0,0,0,5.289-6.99,7.576,7.576,0,0,1,13.109,7.6,61.422,61.422,0,0,1-7.145,9.538,7.539,7.539,0,0,1-2.211,1.692Z" transform="translate(-623.208 -181.463)" fill="#afc797"/>
      </g>
      <g id="Grupo_1015539" data-name="Grupo 1015539" transform="translate(256.586 109.533)">
        <path id="Trazado_611040" data-name="Trazado 611040" d="M535.661,261.79a7.576,7.576,0,0,1-6.878-13.5,130.074,130.074,0,0,0,30.293-22.031,7.576,7.576,0,1,1,10.491,10.932,145.207,145.207,0,0,1-33.853,24.572Z" transform="translate(-524.671 -224.148)" fill="#afc797"/>
      </g>
      <g id="Grupo_1015540" data-name="Grupo 1015540" transform="translate(364.395 34.299)">
        <path id="Trazado_611041" data-name="Trazado 611041" d="M746.172,109.129,779.9,71.35a3.477,3.477,0,0,1,5.7.762l5.493,10.982a3.477,3.477,0,0,1-1.148,4.427l-39.214,26.8a3.479,3.479,0,0,1-4.557-5.189Z" transform="translate(-745.291 -70.188)" fill="#afc797"/>
      </g>
      <g id="Grupo_1015541" data-name="Grupo 1015541" transform="translate(385.381 176.037)">
        <path id="Trazado_611042" data-name="Trazado 611042" d="M790.19,366.846l45.515,22.2a3.478,3.478,0,0,0,4.992-2.863l.925-12.244a3.476,3.476,0,0,0-2.739-3.662l-46.44-9.961a3.477,3.477,0,0,0-2.253,6.525Z" transform="translate(-788.235 -360.241)" fill="#afc797"/>
      </g>
      <g id="Grupo_1015542" data-name="Grupo 1015542" transform="translate(385.314 93.564)">
        <path id="Trazado_611043" data-name="Trazado 611043" d="M790.074,213.69l45.671-21.877a3.478,3.478,0,0,1,4.973,2.9l.839,12.251a3.477,3.477,0,0,1-2.765,3.643l-46.51,9.629a3.478,3.478,0,0,1-2.206-6.544Z" transform="translate(-788.099 -191.468)" fill="#afc797"/>
      </g>
      <path id="Trazado_611044" data-name="Trazado 611044" d="M279.519,453.1a52.712,52.712,0,1,0-88.166,39c10.884,9.9,17.1,10.288,17.1,25v16.455h36.7V517.1c0-14.663,6.128-15.069,17-24.906A52.571,52.571,0,0,0,279.519,453.1Z" transform="translate(-88.823 -204.731)" fill="#dbf9bd"/>
      <path id="Trazado_611045" data-name="Trazado 611045" d="M262.3,565.665a1.7,1.7,0,0,1-1.7-1.556c-1.571-17.9-2.276-20.328-2.155-34.046a17.4,17.4,0,0,1-3.487.35h-1.524a17.235,17.235,0,0,1-3.487-.35c.122,13.718-.584,16.144-2.155,34.046a1.7,1.7,0,0,1-1.7,1.556,1.152,1.152,0,0,1-.152-.007,1.705,1.705,0,0,1-1.549-1.849c1.7-19.33,2.323-21.739,2.176-34.808-11.484-4.922-17.827-21.725-18.769-34.222-.738-9.806,1.638-16.086,6.359-16.8a7.019,7.019,0,0,1,1.031-.079,7.368,7.368,0,0,1,5.083,2.171c5.852,5.495,9.136,21.975,9.622,46.487a14.176,14.176,0,0,0,3.536.444h1.524a14.176,14.176,0,0,0,3.536-.444c.486-24.511,3.77-40.992,9.622-46.487A7.363,7.363,0,0,1,273.2,477.9a6.7,6.7,0,0,1,1.031.079c4.721.715,7.1,7,6.359,16.8-.942,12.5-7.285,29.3-18.769,34.222-.148,13.069.479,15.476,2.176,34.808a1.708,1.708,0,0,1-1.55,1.849c-.051,0-.1.007-.151.007Zm10.9-84.354a3.984,3.984,0,0,0-2.748,1.248c-4.284,4.022-7.96,17.3-8.563,42.658,9.288-5.034,14.474-19.694,15.3-30.693.554-7.364-.871-12.781-3.47-13.174A3.547,3.547,0,0,0,273.2,481.311Zm-38,0a3.579,3.579,0,0,0-.521.04c-2.6.392-4.025,5.81-3.47,13.174.827,11,6.015,25.656,15.3,30.69-.6-25.36-4.282-38.637-8.563-42.659a3.984,3.984,0,0,0-2.749-1.248Z" transform="translate(-116.218 -244.367)" fill="#3b5620"/>
      <g id="Grupo_1015543" data-name="Grupo 1015543" transform="translate(94.331 218.579)">
        <path id="Trazado_611046" data-name="Trazado 611046" d="M200.14,501.887A5.119,5.119,0,0,1,195.2,498.1c-5.048-18.79-2.608-36.105,6.873-48.751a5.116,5.116,0,0,1,8.187,6.137c-7.663,10.225-9.456,24.042-5.179,39.959a5.115,5.115,0,0,1-4.943,6.443Z" transform="translate(-192.632 -447.3)" fill="#353e45"/>
      </g>
      <g id="Grupo_1015544" data-name="Grupo 1015544" transform="translate(114.245 205.216)">
        <path id="Trazado_611047" data-name="Trazado 611047" d="M238.506,433.179a5.116,5.116,0,0,1-2.652-9.493,48.3,48.3,0,0,1,6.649-3.347,5.115,5.115,0,1,1,3.889,9.463,38.238,38.238,0,0,0-5.24,2.636,5.1,5.1,0,0,1-2.643.738Z" transform="translate(-233.384 -419.953)" fill="#353e45"/>
      </g>
      <path id="Trazado_611048" data-name="Trazado 611048" d="M276.978,644.911H238.472a2.933,2.933,0,0,0-2.933,2.933v1.141a2.933,2.933,0,0,0,2.933,2.933h38.506a2.933,2.933,0,0,0,2.933-2.933v-1.141A2.933,2.933,0,0,0,276.978,644.911Z" transform="translate(-120.241 -329.766)" fill="#afc797"/>
      <path id="Trazado_611049" data-name="Trazado 611049" d="M276.978,658.871H238.472a2.933,2.933,0,0,0-2.933,2.933v1.141a2.933,2.933,0,0,0,2.933,2.933h38.506a2.933,2.933,0,0,0,2.933-2.933V661.8A2.933,2.933,0,0,0,276.978,658.871Z" transform="translate(-120.241 -336.905)" fill="#839571"/>
      <path id="Trazado_611050" data-name="Trazado 611050" d="M276.978,672.827H238.472a2.933,2.933,0,0,0-2.933,2.933V676.9a2.933,2.933,0,0,0,2.933,2.933h38.506a2.933,2.933,0,0,0,2.933-2.933V675.76A2.933,2.933,0,0,0,276.978,672.827Z" transform="translate(-120.241 -344.041)" fill="#afc797"/>
      <g id="Grupo_1015545" data-name="Grupo 1015545" transform="translate(207.243 26.353)">
        <path id="Trazado_611051" data-name="Trazado 611051" d="M516.631,87.626l-12.786-7.051a16.9,16.9,0,0,0-13.819-26.647H440.6a16.909,16.909,0,1,0,0,33.817h49.422A16.634,16.634,0,0,0,492,87.626h24.633Z" transform="translate(-423.695 -53.928)" fill="#bfbfbf"/>
      </g>
      <path id="Trazado_611052" data-name="Trazado 611052" d="M517.76,82.3l-12.786-7.051a16.9,16.9,0,0,0-13.819-26.647H441.733a16.909,16.909,0,1,0,0,33.817h49.422a16.625,16.625,0,0,0,1.972-.119H517.76Z" transform="translate(-217.029 -24.853)" fill="#fff"/>
      <path id="Trazado_611053" data-name="Trazado 611053" d="M468.074,67.261h-18.8a2.188,2.188,0,0,1,0-4.375h18.8a2.188,2.188,0,1,1,0,4.375Z" transform="translate(-228.413 -32.156)" fill="#afc797"/>
      <path id="Trazado_611054" data-name="Trazado 611054" d="M544.533,105.249h-18.8a2.188,2.188,0,0,1,0-4.375h18.8a2.188,2.188,0,1,1,0,4.375Z" transform="translate(-267.509 -51.58)" fill="#afc797"/>
      <path id="Trazado_611055" data-name="Trazado 611055" d="M506.383,86.429H449.274a2.188,2.188,0,0,1,0-4.375h57.109a2.188,2.188,0,1,1,0,4.375Z" transform="translate(-228.413 -41.957)" fill="#afc797"/>
      <path id="Trazado_611056" data-name="Trazado 611056" d="M383.335,92.564c5.422-3.405,7.892-8,7.553-8.533a33.873,33.873,0,0,1-2.276-4.8c-.019-.514,1.72-1.708,1.839-2a3.334,3.334,0,0,0-.017-1.129,1.192,1.192,0,0,1,1.592.916,3.873,3.873,0,0,1-.544,1.97l3.029,5.158c1.8,2.276-2.264,13.193-5.936,15.969-3.636,1.04-5.237-7.544-5.237-7.544Z" transform="translate(-195.814 -38.878)" fill="#ff8762"/>
      <path id="Trazado_611057" data-name="Trazado 611057" d="M378.4,110.708c-.479-1.58.928-3.407,3.431-2.085s6.076,5.583,5.555,7.675c-.489,1.961-2.651,1.643-3.276,1.234s-5.707-6.824-5.707-6.824Z" transform="translate(-193.242 -55.31)" fill="#3b5620"/>
      <path id="Trazado_611058" data-name="Trazado 611058" d="M335.366,114.325c5.887-.675,13.527,2.1,20.673-2.8,4.768,1.7,5.873,5.648,5.483,7.651-2.72,4.274-12.255,7.588-17.785,7.892-20.2,1.11-8.8-4.048-8.369-12.744Z" transform="translate(-169.449 -57.027)" fill="#233313"/>
      <path id="Trazado_611059" data-name="Trazado 611059" d="M399.055,77.4c1.444-3.95,3.852-8.091,5.3-7.705s-1.83,4.046-.771,3.95,1.4-3.129,3.034-2.744,1.058,1.589,1.252,1.879c.772.771.1,1.879-.386,2.648s-1.638,1.734-1.638,3.756-3.323,4-3.323,4L399.05,77.4Z" transform="translate(-203.85 -35.627)" fill="#ff8762"/>
      <g id="Grupo_1015546" data-name="Grupo 1015546" transform="translate(196.628 40.066)">
        <path id="Trazado_611060" data-name="Trazado 611060" d="M403.825,85.8a.123.123,0,0,0,.089-.037,2.3,2.3,0,0,1,2.557-.624.123.123,0,1,0,.1-.224,2.569,2.569,0,0,0-2.662.512c-.156-.783-.818-2.87-1.755-3.419a.123.123,0,1,0-.124.213c.991.582,1.652,3.178,1.673,3.447a.122.122,0,0,0,.059.114.131.131,0,0,0,.063.019Z" transform="translate(-401.971 -81.991)" fill="#e0b3a8"/>
      </g>
      <g id="Grupo_1015547" data-name="Grupo 1015547" transform="translate(201.079 36.983)">
        <path id="Trazado_611061" data-name="Trazado 611061" d="M411.2,78.889a.121.121,0,0,0,.1-.056c.007-.012.808-1.229,1.715-2.973a.123.123,0,1,0-.217-.115c-.9,1.732-1.694,2.938-1.7,2.952a.124.124,0,0,0,.035.171A.122.122,0,0,0,411.2,78.889Z" transform="translate(-411.081 -75.681)" fill="#e0b3a8"/>
      </g>
      <g id="Grupo_1015548" data-name="Grupo 1015548" transform="translate(200.043 39.657)">
        <path id="Trazado_611062" data-name="Trazado 611062" d="M410.239,82.58a.135.135,0,0,0,.051-.012.124.124,0,0,0,.061-.164c-.5-1.105-1.215-1.246-1.246-1.25a.124.124,0,0,0-.142.1.123.123,0,0,0,.1.143s.62.131,1.066,1.11a.126.126,0,0,0,.112.072Z" transform="translate(-408.961 -81.153)" fill="#e0b3a8"/>
      </g>
      <path id="Trazado_611063" data-name="Trazado 611063" d="M377.709,296.519l.652,5.345a15.818,15.818,0,0,0-.911,6.584l21.7.977c-2.15-4.5-12.319-5.28-13.3-7.43s-1.173-8.406-1.173-8.406l-6.974,2.933Z" transform="translate(-192.785 -150.122)" fill="#ff8762"/>
      <path id="Trazado_611064" data-name="Trazado 611064" d="M382.335,307.063c0-.762.682-3.472,2.685-4.2a15.2,15.2,0,0,0,.832,3.873c.977,2.15,11.145,2.933,13.3,7.429l-21.7-.977a15.862,15.862,0,0,1,.911-6.583s3.844,1.825,3.975.455Z" transform="translate(-192.783 -154.866)" fill="#2b1710"/>
      <path id="Trazado_611065" data-name="Trazado 611065" d="M398.606,323.2a4.7,4.7,0,0,1,.547.864l-21.7-.977s-.028-.329-.038-.862l21.192.977Z" transform="translate(-192.787 -164.768)" fill="#693e2f"/>
      <path id="Trazado_611066" data-name="Trazado 611066" d="M391.226,311.189a.13.13,0,0,0,.117-.077,2.278,2.278,0,0,1,1.01-1.129,1.034,1.034,0,0,1,.841.054.125.125,0,0,0,.108-.225,1.281,1.281,0,0,0-1.04-.061,2.475,2.475,0,0,0-1.15,1.267.127.127,0,0,0,.068.164.112.112,0,0,0,.046.009Z" transform="translate(-199.786 -158.345)" fill="#693e2f"/>
      <path id="Trazado_611067" data-name="Trazado 611067" d="M395.3,314.322a.13.13,0,0,0,.117-.077,2.282,2.282,0,0,1,1.01-1.129,1.038,1.038,0,0,1,.841.054.124.124,0,1,0,.108-.224,1.281,1.281,0,0,0-1.04-.061,2.475,2.475,0,0,0-1.15,1.267.127.127,0,0,0,.068.164.113.113,0,0,0,.046.009Z" transform="translate(-201.867 -159.947)" fill="#693e2f"/>
      <path id="Trazado_611068" data-name="Trazado 611068" d="M402.1,316.589a.13.13,0,0,0,.117-.077,2.282,2.282,0,0,1,1.01-1.129,1.038,1.038,0,0,1,.841.054.124.124,0,1,0,.107-.224,1.279,1.279,0,0,0-1.04-.061,2.473,2.473,0,0,0-1.15,1.267.127.127,0,0,0,.067.163.109.109,0,0,0,.047.01Z" transform="translate(-205.344 -161.106)" fill="#693e2f"/>
      <path id="Trazado_611069" data-name="Trazado 611069" d="M318.79,177.106l1.288,4.5c12.95,1.891,31.531,4.786,32.616,12.024s-8.808,26.907-8.808,26.907l-.6,15.684h-11.7l-7-32.214S294.01,205.3,291.6,198.064s-1.991-16.757-1.991-16.757l17.963-8.547,11.22,4.345Z" transform="translate(-147.872 -88.339)" fill="#233313"/>
      <g id="Grupo_1015549" data-name="Grupo 1015549" transform="translate(165.533 97.14)">
        <path id="Trazado_611070" data-name="Trazado 611070" d="M368.5,233.039h0a.153.153,0,0,0,.15-.159c-.023-.968-.591-23.735-3-27.746-2.426-4.043-26.135-6.256-27.145-6.347a.155.155,0,1,0-.028.308c.246.023,24.563,2.29,26.909,6.2,2.365,3.94,2.95,27.358,2.954,27.594A.152.152,0,0,0,368.5,233.039Z" transform="translate(-338.339 -198.787)" fill="#e0c9c0"/>
      </g>
      <g id="Grupo_1015550" data-name="Grupo 1015550" transform="translate(176.694 112.381)">
        <path id="Trazado_611071" data-name="Trazado 611071" d="M361.409,233.182a5.614,5.614,0,0,0,1.636-.788.154.154,0,0,0-.163-.262,7.9,7.9,0,0,1-1.4.732,7.789,7.789,0,0,1,.238-1.129,8.122,8.122,0,0,0,.308-1.605.154.154,0,1,0-.308,0,8.161,8.161,0,0,1-.3,1.528c-.229.9-.306,1.262-.194,1.428a.2.2,0,0,0,.145.091l.035,0Z" transform="translate(-361.178 -229.975)" fill="#e0c9c0"/>
      </g>
      <g id="Grupo_1015551" data-name="Grupo 1015551" transform="translate(151.036 95.733)">
        <path id="Trazado_611072" data-name="Trazado 611072" d="M308.828,202.669a.169.169,0,0,0,.049-.007,3.727,3.727,0,0,0,1.765-2.019,5.61,5.61,0,0,0-.105-4.646.155.155,0,0,0-.28.131,5.31,5.31,0,0,1,.1,4.394,3.411,3.411,0,0,1-1.58,1.849.155.155,0,0,0-.1.194A.153.153,0,0,0,308.828,202.669Z" transform="translate(-308.673 -195.908)" fill="#e0c9c0"/>
      </g>
      <g id="Grupo_1015552" data-name="Grupo 1015552" transform="translate(148.2 97.302)">
        <path id="Trazado_611073" data-name="Trazado 611073" d="M341.754,249.377h.014a.153.153,0,0,0,.138-.168c-.323-3.363-3.195-32.869-4.915-33.668-.476-.222-.736-.437-.795-.659-.075-.287.18-.633.5-1.07.152-.208.327-.447.481-.706a.266.266,0,0,0,.012-.257c-.39-.806-6.974-1.706-16.972-2.987-4.193-.538-7.813-1-9.444-1.33a9.26,9.26,0,0,1-7.6-9.26.154.154,0,0,0-.308,0,9.676,9.676,0,0,0,7.845,9.561c1.641.332,5.268.8,9.465,1.335,6.473.829,16.233,2.08,16.724,2.8-.145.238-.3.453-.453.662-.355.484-.659.9-.549,1.33.082.323.388.6.963.863,1.181.549,3.48,20.283,4.738,33.418A.155.155,0,0,0,341.754,249.377Z" transform="translate(-302.868 -199.118)" fill="#e0c9c0"/>
      </g>
      <path id="Trazado_611074" data-name="Trazado 611074" d="M297.258,114.367l9.3-.255a24.146,24.146,0,0,1,7.277,1.748c1.1,2.1,3.91,17.371,5.721,35.573h-30.5a131.224,131.224,0,0,1,1.987-34.565,14.2,14.2,0,0,1,6.207-2.5Z" transform="translate(-147.422 -58.349)" fill="#3b5620"/>
      <path id="Trazado_611075" data-name="Trazado 611075" d="M270.907,164.035c1.346,3.655,8.154,8.1,8.748,8s1.853-2.148,3.148-2.036,4.506,2.005,3.852,2.728-2.461-1.05-3.377-.811c2.772,1.608,3.718,3.132,3.232,3.569a1.119,1.119,0,0,1-.918.344c-.867.647-2.79-.126-3.873-.129s-2.991,1.365-4.746,1.332-2.583-1.723-2.9-1.876-13.721-6.979-14.144-11.9,7.519-9.11,7.519-9.11l3.466,9.9Z" transform="translate(-132.703 -78.816)" fill="#ff8762"/>
      <path id="Trazado_611076" data-name="Trazado 611076" d="M267.3,155.31c-1.5-.633-3.069,1.524-2.982,3.008s8.07,7.28,9.732,6.939a1.876,1.876,0,0,0,.741-3.456C273.252,160.566,267.3,155.31,267.3,155.31Z" transform="translate(-134.956 -79.358)" fill="#3b5620"/>
      <path id="Trazado_611077" data-name="Trazado 611077" d="M280.872,119.8c4.135,3.1,4.532,16.738,1.466,18.925s-5.71,6.532-5.71,6.532c-2.007-.379-8.1-4.887-8.051-7.17C272.442,133.1,275.52,121.122,280.872,119.8Z" transform="translate(-137.134 -61.257)" fill="#233313"/>
      <g id="Grupo_1015553" data-name="Grupo 1015553" transform="translate(148.371 92.953)">
        <path id="Trazado_611078" data-name="Trazado 611078" d="M303.338,191.045a.126.126,0,0,0,.033-.012,8.84,8.84,0,0,1,1.484-.61.1.1,0,1,0-.056-.2,8.747,8.747,0,0,0-1.524.626.1.1,0,0,0-.042.142.106.106,0,0,0,.11.054Z" transform="translate(-303.22 -190.218)" fill="#e0b3a8"/>
      </g>
      <g id="Grupo_1015554" data-name="Grupo 1015554" transform="translate(148.245 94.746)">
        <path id="Trazado_611079" data-name="Trazado 611079" d="M307.148,195.854a.1.1,0,0,0,.056-.175c-.827-.837-2.007-1.825-2.933-1.79a3.148,3.148,0,0,0-1.255.245.1.1,0,0,0-.042.143.107.107,0,0,0,.142.044,3.02,3.02,0,0,1,1.164-.222c.848-.03,1.977.923,2.774,1.729a.107.107,0,0,0,.091.03Z" transform="translate(-302.961 -193.888)" fill="#e0b3a8"/>
      </g>
      <path id="Trazado_611080" data-name="Trazado 611080" d="M316.675,81.161c1.012-2.045-1.29-4.038-3.693-3.629s-6.955.715-7.67,2.3.243,5.964.734,7.481,3.713,2.337,3.713,2.337l6.916-8.488Z" transform="translate(-155.787 -39.617)" fill="#2b1710"/>
      <path id="Trazado_611081" data-name="Trazado 611081" d="M308.391,86.141s.222,1.935.381,2.79-.348,2.22-1.459,1.458l.243,2.262s.633,5.707-1.48,6.808c3.511,3.847,10.064,3.045,9.3-.255-1.4,0-1.437-.507-1.437-1.9,3.382-.591,3.045-3.255,3.255-7.147a26.933,26.933,0,0,0,0-5.158,9.206,9.206,0,0,1-7.341-.016c-.035,1.842-1.466,1.157-1.466,1.157Z" transform="translate(-156.309 -43.454)" fill="#ff8762"/>
      <path id="Trazado_611082" data-name="Trazado 611082" d="M325.627,92.5c.263,0,.476-.388.476-.867s-.213-.867-.476-.867-.477.388-.477.867S325.364,92.5,325.627,92.5Z" transform="translate(-166.062 -46.413)" fill="#2b1710"/>
      <path id="Trazado_611083" data-name="Trazado 611083" d="M317.584,91.9c0,.479.213.867.477.867s.476-.388.476-.867-.213-.867-.476-.867S317.584,91.419,317.584,91.9Z" transform="translate(-162.193 -46.548)" fill="#2b1710"/>
      <g id="Grupo_1015555" data-name="Grupo 1015555" transform="translate(154.995 45.666)">
        <path id="Trazado_611084" data-name="Trazado 611084" d="M317.729,94.421h.035a.081.081,0,1,0-.007-.161.785.785,0,0,1-.82-.734.078.078,0,0,0-.086-.075.079.079,0,0,0-.075.086.948.948,0,0,0,.953.886Z" transform="translate(-316.775 -93.45)" fill="#e0b3a8"/>
      </g>
      <path id="Trazado_611085" data-name="Trazado 611085" d="M324.13,93.333a9.713,9.713,0,0,0,2-.175.123.123,0,0,0,.038-.072c.009-.119-.2-.355-.979-1.166a8.776,8.776,0,0,1-1.138-1.3,2.619,2.619,0,0,1,.093-1.571.081.081,0,0,0-.154-.051,2.778,2.778,0,0,0-.1,1.664,6.932,6.932,0,0,0,1.178,1.372,11.585,11.585,0,0,1,.916,1.014,15.5,15.5,0,0,1-1.86.126.082.082,0,0,0,0,.164Z" transform="translate(-165.374 -45.477)" fill="#2b1710"/>
      <path id="Trazado_611086" data-name="Trazado 611086" d="M319.524,96.881c.238.341.476.587.535.545s-.089-.348-.327-.689-.476-.587-.535-.545S319.286,96.54,319.524,96.881Z" transform="translate(-163.011 -49.184)" fill="#ff7e57"/>
      <path id="Trazado_611087" data-name="Trazado 611087" d="M318.065,96.915c.238.341.477.587.535.545s-.089-.348-.327-.689-.477-.587-.536-.545S317.827,96.573,318.065,96.915Z" transform="translate(-162.265 -49.201)" fill="#ff7e57"/>
      <path id="Trazado_611088" data-name="Trazado 611088" d="M316.539,96.881c.238.341.477.587.536.545s-.089-.348-.327-.689-.477-.587-.535-.545S316.3,96.54,316.539,96.881Z" transform="translate(-161.485 -49.184)" fill="#ff7e57"/>
      <path id="Trazado_611089" data-name="Trazado 611089" d="M315.152,101.435c-4.251.32-6.453-3.933-6.453-5.144l-.255-.989,1.54-2.239s.692,2.171,1.8,2.615,4.833-.136,6.536-.051c.921,2.377.823,5.814-3.169,5.808Z" transform="translate(-157.52 -47.587)" fill="#2b1710"/>
      <path id="Trazado_611090" data-name="Trazado 611090" d="M303.739,96.211a1.458,1.458,0,1,0,1.458-1.458A1.457,1.457,0,0,0,303.739,96.211Z" transform="translate(-155.114 -48.45)" fill="#ff8762"/>
      <g id="Grupo_1015556" data-name="Grupo 1015556" transform="translate(149.222 46.954)">
        <path id="Trazado_611091" data-name="Trazado 611091" d="M306.124,97.687a.1.1,0,0,0,.037-.187c-.129-.056-.2-.136-.208-.231a.315.315,0,0,1,.152-.276.332.332,0,0,1,.353-.014.1.1,0,0,0,.1,0,.093.093,0,0,0,.044-.086.833.833,0,0,0-.626-.757.893.893,0,0,0-.993.292.1.1,0,1,0,.157.114.7.7,0,0,1,.778-.222.676.676,0,0,1,.463.432.534.534,0,0,0-.622.537.481.481,0,0,0,.325.395.1.1,0,0,0,.037.007Z" transform="translate(-304.961 -96.085)" fill="#e0b3a8"/>
      </g>
      <path id="Trazado_611092" data-name="Trazado 611092" d="M315.937,89.824h.012a12.5,12.5,0,0,1,2.494-.306.051.051,0,1,0,0-.1,12.578,12.578,0,0,0-2.517.308.055.055,0,0,0-.04.063.053.053,0,0,0,.051.04Z" transform="translate(-161.324 -45.721)" fill="#2b1710"/>
      <path id="Trazado_611093" data-name="Trazado 611093" d="M326.922,89.532a.055.055,0,0,0,.051-.04.053.053,0,0,0-.04-.063,11.3,11.3,0,0,0-1.594-.206.054.054,0,0,0-.056.049.054.054,0,0,0,.049.056,11.228,11.228,0,0,1,1.575.2h.014Z" transform="translate(-166.13 -45.623)" fill="#2b1710"/>
      <path id="Trazado_611094" data-name="Trazado 611094" d="M322.432,100.4l-4.384.061C319.441,102.92,322.107,102.679,322.432,100.4Z" transform="translate(-162.431 -51.338)" fill="#fff"/>
      <path id="Trazado_611095" data-name="Trazado 611095" d="M601.224,418.213a19.8,19.8,0,0,1,5.511-1.225s3.98,4.286,3.674,5.894-6.046,1.608-6.584.841-.911-2.316-1.22-2.536A18.857,18.857,0,0,1,601.224,418.213Z" transform="translate(-307.229 -213.221)" fill="#f5754f"/>
      <path id="Trazado_611096" data-name="Trazado 611096" d="M677.646,662.918a12.889,12.889,0,0,1-.986-6.161c.154-1.117.346-2.529.561-4.144.108-.8.219-1.659.336-2.552L672.2,651.5c.091.963.178,1.868.255,2.7a19.386,19.386,0,0,1-.2,5.277,5.481,5.481,0,0,1-.32,1.21c-.425.863-3.5,3.842-4.9,6.413-.13.313-3.307.814-2.83,1.543.287.159,5.826.594,6.448,0a8.528,8.528,0,0,1,3.742-2.416,23.73,23.73,0,0,1,.1,2.69l2.4.009s.278-2.372.386-3.087.923-1.8.372-2.91Z" transform="translate(-339.407 -332.4)" fill="#ff8762"/>
      <path id="Trazado_611097" data-name="Trazado 611097" d="M667,679.372a8.268,8.268,0,0,0,2.486.168c.519-.227,3.941-4.471,7.7-5.518a7.57,7.57,0,0,0,.451,1.15c.552,1.1-.264,2.194-.371,2.91s-.385,3.087-.385,3.087l-2.4-.01a23.624,23.624,0,0,0-.1-2.69,8.515,8.515,0,0,0-3.742,2.416c-.619.6-6.158.161-6.448,0-.463-.708,2.52-1.181,2.812-1.514Z" transform="translate(-339.4 -344.652)" fill="#2b1710"/>
      <path id="Trazado_611098" data-name="Trazado 611098" d="M717.676,662.918a12.888,12.888,0,0,1-.986-6.161c.154-1.117.346-2.529.561-4.144.107-.8.219-1.659.336-2.552l-5.354,1.435c.091.963.177,1.868.255,2.7a19.405,19.405,0,0,1-.2,5.277,5.449,5.449,0,0,1-.321,1.21c-.425.863-3.5,3.842-4.9,6.413-.131.313-3.307.814-2.83,1.543.287.159,5.826.594,6.448,0a8.528,8.528,0,0,1,3.742-2.416,23.744,23.744,0,0,1,.1,2.69l2.4.009s.278-2.372.385-3.087.923-1.8.372-2.91Z" transform="translate(-359.876 -332.4)" fill="#ff8762"/>
      <path id="Trazado_611099" data-name="Trazado 611099" d="M707.033,679.372a8.269,8.269,0,0,0,2.486.168c.519-.227,3.941-4.471,7.7-5.518a7.57,7.57,0,0,0,.451,1.15c.552,1.1-.264,2.194-.371,2.91s-.386,3.087-.386,3.087l-2.4-.01a23.736,23.736,0,0,0-.1-2.69,8.509,8.509,0,0,0-3.742,2.416c-.62.6-6.158.161-6.448,0-.463-.708,2.519-1.181,2.811-1.514Z" transform="translate(-359.869 -344.652)" fill="#2b1710"/>
      <path id="Trazado_611100" data-name="Trazado 611100" d="M678.454,388.832c1.005,6.3,1.461,8.67-1.187,11.865s-5.294,6.572-2.557,8.306,22.546,3.923,26.652,1.825,2.1-7.3-3.1-12.961-5.826-10.6-6.45-11.639-8.762.654-8.762.654l-4.595,1.947Z" transform="translate(-344.214 -197.321)" fill="#2b1710"/>
      <path id="Trazado_611101" data-name="Trazado 611101" d="M651.265,420.58c-8.14,3.7-6.71,22.377-29.777,4.006l-2.449,3.47c3.674,7.144,12.349,16.738,22.758,16.329s15.82-6.735,15.82-6.735Z" transform="translate(-316.338 -215.058)" fill="#233313"/>
      <path id="Trazado_611102" data-name="Trazado 611102" d="M683.166,419.456l-3.632.549c-.46,4.976-4.976,10.335-5.2,13.09s3.368,6.89,4.822,9.491a11.076,11.076,0,0,1,1.453,4.9h15.233c0-.69,3.674-17.757,3.216-21.968s-5.875-5.789-5.875-5.789A51.273,51.273,0,0,1,683.166,419.456Z" transform="translate(-344.605 -214.483)" fill="#3b5620"/>
      <path id="Trazado_611103" data-name="Trazado 611103" d="M692.8,393.666a4.071,4.071,0,0,0,4.7-5.424c.3-5.469-2.035-10.851-10.215-7.928-4.069.51-5.637,5.892-2.288,7.289A68.028,68.028,0,0,0,692.8,393.666Z" transform="translate(-349.137 -194.047)" fill="#2b1710"/>
      <path id="Trazado_611104" data-name="Trazado 611104" d="M691.322,397.763c.255,1.526.379,3.181-1.842,3.257.021,2.253-3.863,4.656-.668,7.986,2.281-2.281,7.448-7.17,10.681-7.714,0-.126-1.844-.54-2.513-1.718s-.986-4.165-.732-8.17c-1.559.414-2.1-.827-2.129-2.956s-1.049-5.532-5.181-4.992c-1.559,1.907-2.384,3.115-2.258,5.595s-.148,4.24.147,5.424a4.415,4.415,0,0,0,4.492,3.286Z" transform="translate(-350.919 -196.045)" fill="#ff8762"/>
      <g id="Grupo_1015557" data-name="Grupo 1015557" transform="translate(337.348 197.552)">
        <path id="Trazado_611105" data-name="Trazado 611105" d="M693.393,404.572c-1.573-.477-3.3-.36-3.452.145A5.332,5.332,0,0,0,693.393,404.572Z" transform="translate(-689.941 -404.27)" fill="#e0b3a8"/>
      </g>
      <path id="Trazado_611106" data-name="Trazado 611106" d="M707.845,400.179a1.269,1.269,0,1,1-1.269-1.269A1.269,1.269,0,0,1,707.845,400.179Z" transform="translate(-360.45 -203.977)" fill="#ff8762"/>
      <g id="Grupo_1015558" data-name="Grupo 1015558" transform="translate(345.448 195.497)">
        <path id="Trazado_611107" data-name="Trazado 611107" d="M706.923,401.428a.084.084,0,0,1-.077-.049.083.083,0,0,1,.042-.11.249.249,0,0,0,.177-.2.271.271,0,0,0-.128-.234.282.282,0,0,0-.3-.012.09.09,0,0,1-.084,0,.08.08,0,0,1-.038-.075.71.71,0,0,1,.533-.645.759.759,0,0,1,.844.248.083.083,0,1,1-.133.1.6.6,0,0,0-.664-.189.579.579,0,0,0-.395.369.457.457,0,0,1,.327.07.436.436,0,0,1,.2.388.4.4,0,0,1-.276.334.088.088,0,0,1-.033.007Z" transform="translate(-706.516 -400.065)" fill="#e0b3a8"/>
      </g>
      <g id="Grupo_1015559" data-name="Grupo 1015559" transform="translate(340.575 197.1)">
        <path id="Trazado_611108" data-name="Trazado 611108" d="M696.624,407.957a.115.115,0,0,0,.023,0,6.238,6.238,0,0,0,4.3-4.51.082.082,0,0,0-.159-.038A6.07,6.07,0,0,1,696.6,407.8a.082.082,0,0,0-.056.1A.081.081,0,0,0,696.624,407.957Z" transform="translate(-696.545 -403.344)" fill="#e0b3a8"/>
      </g>
      <path id="Trazado_611109" data-name="Trazado 611109" d="M697.927,393.336a.082.082,0,0,0,.04-.152,4.214,4.214,0,0,0-2.84-.5.08.08,0,1,0,.047.154,4.1,4.1,0,0,1,2.714.482A.08.08,0,0,0,697.927,393.336Z" transform="translate(-355.215 -200.757)" fill="#2b1710"/>
      <path id="Trazado_611110" data-name="Trazado 611110" d="M687.261,393.715a.082.082,0,0,0,.065-.033c.014-.019.341-.437,1.388-.306a.081.081,0,0,0,.021-.161c-1.12-.14-1.5.318-1.538.372a.082.082,0,0,0,.016.114.079.079,0,0,0,.049.017Z" transform="translate(-351.182 -201.051)" fill="#2b1710"/>
      <path id="Trazado_611111" data-name="Trazado 611111" d="M690.03,398.752a.086.086,0,0,0,.063-.031.082.082,0,0,0-.014-.114,8.209,8.209,0,0,1-.991-.888,2.309,2.309,0,0,1,.348-.021,1.96,1.96,0,0,0,.822-.122c.435-.245.017-2.08-.369-2.945a.082.082,0,0,0-.15.065c.447,1,.7,2.589.437,2.736a1.914,1.914,0,0,1-.746.1c-.327.007-.523.009-.523.159s.582.65,1.068,1.038a.085.085,0,0,0,.052.019Z" transform="translate(-352.065 -201.765)" fill="#2b1710"/>
      <g id="Grupo_1015560" data-name="Grupo 1015560" transform="translate(337.979 199.549)">
        <path id="Trazado_611112" data-name="Trazado 611112" d="M692.286,408.725a1.651,1.651,0,0,0,.893-.22.081.081,0,1,0-.089-.135,2.226,2.226,0,0,1-1.727.026.082.082,0,0,0-.1.128,2.348,2.348,0,0,0,1.026.2Z" transform="translate(-691.232 -408.356)" fill="#e0b3a8"/>
      </g>
      <path id="Trazado_611113" data-name="Trazado 611113" d="M696.254,396.623c0,.484.219.874.493.874s.493-.39.493-.874-.219-.874-.493-.874S696.254,396.139,696.254,396.623Z" transform="translate(-355.821 -202.361)" fill="#2b1710"/>
      <g id="Grupo_1015561" data-name="Grupo 1015561" transform="translate(340.954 194.693)">
        <path id="Trazado_611114" data-name="Trazado 611114" d="M697.4,399.159c.168,0,.542-.072.664-.691a.04.04,0,1,0-.08-.014c-.117.6-.476.636-.624.624a.04.04,0,0,0-.044.037.042.042,0,0,0,.038.044Z" transform="translate(-697.32 -398.42)" fill="#e0b3a8"/>
      </g>
      <path id="Trazado_611115" data-name="Trazado 611115" d="M688.621,396.838c0,.484.219.874.493.874s.493-.39.493-.874-.219-.874-.493-.874S688.621,396.354,688.621,396.838Z" transform="translate(-351.918 -202.471)" fill="#2b1710"/>
      <g id="Grupo_1015562" data-name="Grupo 1015562" transform="translate(337.224 194.799)">
        <path id="Trazado_611116" data-name="Trazado 611116" d="M689.772,399.375c.168,0,.542-.072.664-.691a.04.04,0,0,0-.08-.014c-.117.6-.476.636-.624.624a.04.04,0,0,0-.044.037.042.042,0,0,0,.038.044Z" transform="translate(-689.687 -398.635)" fill="#e0b3a8"/>
      </g>
      <path id="Trazado_611117" data-name="Trazado 611117" d="M698.187,401.088c.194.262.323.493.287.519s-.222-.164-.413-.425-.323-.493-.287-.519S698,400.826,698.187,401.088Z" transform="translate(-356.595 -204.872)" fill="#ff7e57"/>
      <path id="Trazado_611118" data-name="Trazado 611118" d="M697.168,401.217c.194.262.323.494.288.519s-.222-.164-.414-.425-.323-.493-.287-.519S696.977,400.955,697.168,401.217Z" transform="translate(-356.074 -204.938)" fill="#ff7e57"/>
      <path id="Trazado_611119" data-name="Trazado 611119" d="M696.04,401.322c.194.261.323.493.287.518s-.222-.163-.414-.425-.323-.493-.287-.519S695.848,401.06,696.04,401.322Z" transform="translate(-355.497 -204.992)" fill="#ff7e57"/>
      <path id="Trazado_611120" data-name="Trazado 611120" d="M699.538,386.894c-5.842-.411-8.224-4.052-8.224-4.052l3.068-.647,4.015,2.465,1.141,2.237Z" transform="translate(-353.295 -195.43)" fill="#2b1710"/>
      <path id="Trazado_611121" data-name="Trazado 611121" d="M702.2,476.11h-15.96v1.454H702.2Z" transform="translate(-350.7 -243.452)" fill="#2b1710"/>
      <path id="Trazado_611122" data-name="Trazado 611122" d="M678.1,479.085c-5.433,5.474-8.189,15.883-7.731,23.384s.306,69.4.306,69.4H684.35l.867-71.236,4.644,71.236h14.492s-1.021-64.7-2.449-75.116a36.871,36.871,0,0,0-7.846-17.668Z" transform="translate(-342.559 -244.974)" fill="#233313"/>
      <g id="Grupo_1015563" data-name="Grupo 1015563" transform="translate(340.057 235.202)">
        <path id="Trazado_611123" data-name="Trazado 611123" d="M697.933,500.264a.1.1,0,0,1-.1-.086l-.757-6.971a5.4,5.4,0,0,1-1.423-.463c-.439-.329.108-11.227.114-11.335a.1.1,0,1,1,.194.012c-.177,3.036-.428,10.776-.18,11.18a5.774,5.774,0,0,0,1.4.43.1.1,0,0,1,.077.086l.767,7.042a.1.1,0,0,1-.086.107h-.012Z" transform="translate(-695.484 -481.317)" fill="#bfbfbf"/>
      </g>
      <g id="Grupo_1015564" data-name="Grupo 1015564" transform="translate(346.31 235.584)">
        <path id="Trazado_611124" data-name="Trazado 611124" d="M715.727,491.631h-.007c-4.455-.358-6.958-3.529-7.439-9.428a.1.1,0,0,1,.089-.105.1.1,0,0,1,.105.089c.472,5.789,2.914,8.9,7.259,9.247a.1.1,0,0,1,.089.105.1.1,0,0,1-.1.091Z" transform="translate(-708.281 -482.098)" fill="#bfbfbf"/>
      </g>
      <g id="Grupo_1015565" data-name="Grupo 1015565" transform="translate(350.215 235.506)">
        <path id="Trazado_611125" data-name="Trazado 611125" d="M725.25,570.084a.1.1,0,0,1-.1-.1c-.017-.549-1.69-54.9-2.3-60.948l-.014-.131c-.6-6.006-2.008-20.076-6.553-26.818a.1.1,0,1,1,.161-.11c4.574,6.785,5.983,20.886,6.586,26.909l.014.13c.605,6.058,2.281,60.413,2.3,60.963a.1.1,0,0,1-.1.1Z" transform="translate(-716.273 -481.939)" fill="#bfbfbf"/>
      </g>
      <g id="Grupo_1015566" data-name="Grupo 1015566" transform="translate(347.306 324.068)">
        <path id="Trazado_611126" data-name="Trazado 611126" d="M724.12,663.367h-13.7a.1.1,0,1,1,0-.2h13.7a.1.1,0,0,1,0,.2Z" transform="translate(-710.319 -663.171)" fill="#bfbfbf"/>
      </g>
      <g id="Grupo_1015567" data-name="Grupo 1015567" transform="translate(328.399 324.068)">
        <path id="Trazado_611127" data-name="Trazado 611127" d="M684.433,663.367H671.726a.1.1,0,0,1,0-.2h12.707a.1.1,0,0,1,0,.2Z" transform="translate(-671.628 -663.171)" fill="#bfbfbf"/>
      </g>
      <path id="Trazado_611128" data-name="Trazado 611128" d="M716.8,423.633c-2.678,1.453-4.248,10.372-1.033,13.816s13.868,9.517-.624,16.252c-.1.409,2.143,4.183,2.143,4.183,7.247,0,15.1-1.837,15.411-10.819s-8.572-21.087-15.9-23.436Z" transform="translate(-364.879 -216.618)" fill="#233313"/>
      <path id="Trazado_611129" data-name="Trazado 611129" d="M709.581,485.147c-.612-.1-1.94-.867-2.5-.918s-2.756.767-4.183.358a1.987,1.987,0,0,0,1.94,1.785,2.249,2.249,0,0,1,1.634.8,7.673,7.673,0,0,0,3.711,4.611,5.823,5.823,0,0,0,1.129-3.463Z" transform="translate(-359.218 -247.602)" fill="#ff8762"/>
      <g id="Grupo_1015568" data-name="Grupo 1015568" transform="translate(337.402 197.934)">
        <path id="Trazado_611130" data-name="Trazado 611130" d="M690.051,405.254c.692,1.778,1.917,1.568,3.382-.2A6.6,6.6,0,0,1,690.051,405.254Z" transform="translate(-690.051 -405.051)" fill="#e0b3a8"/>
      </g>
      <path id="Trazado_611131" data-name="Trazado 611131" d="M691.1,405.274a5.778,5.778,0,0,0,2.292-.39.082.082,0,0,0-.072-.148,6.2,6.2,0,0,1-3.506.213.081.081,0,1,0-.077.142,3.669,3.669,0,0,0,1.363.18Z" transform="translate(-352.465 -206.952)" fill="#2b1710"/>
      <path id="Trazado_611132" data-name="Trazado 611132" d="M672.991,412.6a.1.1,0,0,1-.044-.012c-1.653-.872-2.529-1.9-2.609-3.038-.138-2.024,2.159-3.945,4.179-5.394,2.253-1.617,2.508-5.383,2.405-7.839-.19,2.521-.57,5.4-2.76,6.625-2.6,1.454-4.931,3.108-4.442,5.354a.1.1,0,1,1-.192.042c-.515-2.37,1.876-4.075,4.538-5.567,2.3-1.29,2.529-4.555,2.711-7.175.017-.224.03-.444.047-.657a.1.1,0,0,1,.2,0c.22,2.145.431,7.355-2.388,9.376-1.977,1.419-4.23,3.293-4.1,5.221.072,1.073.916,2.04,2.505,2.879a.1.1,0,0,1-.047.185Z" transform="translate(-342.119 -201.9)" fill="#2b1710"/>
      <path id="Trazado_611133" data-name="Trazado 611133" d="M697.1,387.472c-3.553-.025-5.941-2.421-5.941-4.639a.1.1,0,1,1,.2,0c0,2.124,2.309,4.417,5.747,4.443a.1.1,0,1,1,0,.2Z" transform="translate(-353.214 -195.706)" fill="#2b1710"/>
      <path id="Trazado_611134" data-name="Trazado 611134" d="M615.571,420.254a20.33,20.33,0,0,1-.79-3.994c-.082-1.063-1.064-2.779-2.573-2.818s-3.267-2.513-3.431-2.594c-.776.409-.491,2.288.327,2.9s1.851,3.036,1.933,3.157,2.718,5.95,2.718,5.95l1.818-2.6Z" transform="translate(-310.858 -210.081)" fill="#ff8762"/>
      <path id="Trazado_611135" data-name="Trazado 611135" d="M600,420.72c1.584,0,2.868-.445,2.868-.993s-1.284-.993-2.868-.993-2.867.445-2.867.993S598.414,420.72,600,420.72Z" transform="translate(-305.135 -214.113)" fill="#ff8762"/>
      <path id="Trazado_611136" data-name="Trazado 611136" d="M603.94,422.51c0,.549-1.068.993-2.386.993s-2.386-.444-2.386-.993,1.068-.993,2.386-.993S603.94,421.961,603.94,422.51Z" transform="translate(-306.178 -215.537)" fill="#ff8762"/>
      <path id="Trazado_611137" data-name="Trazado 611137" d="M602.367,425.808c1.318,0,2.386-.445,2.386-.993s-1.068-.993-2.386-.993-2.386.445-2.386.993S601.049,425.808,602.367,425.808Z" transform="translate(-306.593 -216.716)" fill="#ff8762"/>
      <path id="Trazado_611138" data-name="Trazado 611138" d="M606.549,429c.108.35-.6.876-1.584,1.178s-1.865.259-1.973-.091.6-.877,1.585-1.178S606.441,428.652,606.549,429Z" transform="translate(-308.127 -219.215)" fill="#ff8762"/>
    </g>
  </g>
</svg>
